<?xml version="1.0" encoding="UTF-8" standalone="no"?>
<!-- Created with Inkscape (http://www.inkscape.org/) -->

<svg
   xmlns:dc="http://purl.org/dc/elements/1.1/"
   xmlns:cc="http://creativecommons.org/ns#"
   xmlns:rdf="http://www.w3.org/1999/02/22-rdf-syntax-ns#"
   xmlns:svg="http://www.w3.org/2000/svg"
   xmlns="http://www.w3.org/2000/svg"
   xmlns:sodipodi="http://sodipodi.sourceforge.net/DTD/sodipodi-0.dtd"
   xmlns:inkscape="http://www.inkscape.org/namespaces/inkscape"
   version="1.1"
   id="svg2"
   width="192"
   height="192"
   viewBox="0 0 192 192"
   sodipodi:docname="DISK_DRIVE.svg"
   inkscape:version="0.92.4 (5da689c313, 2019-01-14)">
  <metadata
     id="metadata8">
    <rdf:RDF>
      <cc:Work
         rdf:about="">
        <dc:format>image/svg+xml</dc:format>
        <dc:type
           rdf:resource="http://purl.org/dc/dcmitype/StillImage" />
        <dc:title></dc:title>
      </cc:Work>
    </rdf:RDF>
  </metadata>
  <defs
     id="defs6" />
  <sodipodi:namedview
     pagecolor="#ffffff"
     bordercolor="#666666"
     borderopacity="1"
     objecttolerance="10"
     gridtolerance="10"
     guidetolerance="10"
     inkscape:pageopacity="0"
     inkscape:pageshadow="2"
     inkscape:window-width="1146"
     inkscape:window-height="936"
     id="namedview4"
     showgrid="false"
     fit-margin-top="0"
     fit-margin-left="0"
     fit-margin-right="0"
     fit-margin-bottom="0"
     inkscape:zoom="1.84375"
     inkscape:cx="69.355932"
     inkscape:cy="74.711864"
     inkscape:window-x="0"
     inkscape:window-y="0"
     inkscape:window-maximized="0"
     inkscape:current-layer="svg2" />
  <g
     id="DISK_DRIVE">
    <path
       style="fill:#ffffff;stroke-width:0.375"
       d="M 0,96 V 0 h 96 96 v 96 96 H 96 0 Z m 146.89945,48.03947 c 23.71427,-11.85972 37.01885,-18.71369 37.67044,-19.40625 0.55404,-0.58884 1.18692,-1.54576 1.40625,-2.12638 0.5514,-1.45946 0.55044,-39.183116 -10e-4,-40.638677 -0.21996,-0.58062 -0.76848,-1.453992 -1.21875,-1.940836 C 184.30594,79.440484 161.87114,68.007671 134.90114,54.521077 91.965443,33.050686 85.656323,30 84.189127,30 82.727479,30 77.783014,32.365465 45.475486,48.520856 25.104593,58.70733 8.0690536,67.440143 7.6187296,67.927106 c -0.450324,0.486972 -0.9987612,1.36044 -1.21875,1.941057 -0.5514984,1.455561 -0.55254,39.179227 -0.00113,40.638677 0.219372,0.58062 0.8521836,1.53738 1.40625,2.12616 0.6575484,0.69875 17.9063604,9.52174 49.6687854,25.40625 46.586305,23.29799 48.748835,24.33575 50.711945,24.33575 1.95624,0 3.73717,-0.84348 38.71362,-18.33553 z"
       id="path833"
       inkscape:connector-curvature="0" />
    <path
       style="fill:#cbcbcb;stroke-width:0.375"
       d="M 60.09375,96.426457 C 33.848437,83.302034 12.375,72.437179 12.375,72.282326 c 0,-0.154848 16.157767,-8.360782 35.906149,-18.235402 L 84.187297,36.093071 132.09365,60.046826 C 158.44214,73.22139 180,84.127429 180,84.282464 c 0,0.30464 -70.63368,35.716346 -71.60215,35.897246 -0.32194,0.0601 -22.058787,-10.62883 -48.3041,-23.753253 z"
       id="path831"
       inkscape:connector-curvature="0" />
    <path
       style="fill:#989898;stroke-width:0.375"
       d="M 59.90625,132.33324 12,108.37442 12.0057,90.093457 c 0.0031,-10.054526 0.12972,-18.089933 0.281244,-17.856461 0.395988,0.610128 95.583606,48.142404 95.858646,47.867364 0.12615,-0.12615 0.22936,7.8888 0.22936,17.81102 0,9.9222 -0.12657,18.11604 -0.28125,18.20852 -0.15469,0.0924 -21.83906,-10.6133 -48.187491,-23.79066 z"
       id="path829"
       inkscape:connector-curvature="0" />
    <path
       style="fill:#666666;stroke-width:0.375"
       d="m 143.625,138.375 c 19.69687,-9.87727 35.98126,-17.95868 36.1875,-17.95868 0.20628,0 -15.74063,8.08141 -35.4375,17.95868 -19.69687,9.87727 -35.98125,17.95868 -36.1875,17.95868 -0.20626,0 15.74063,-8.08141 35.4375,-17.95868 z m 36.5484,-36.1875 c 7e-5,-9.9 0.048,-13.896146 0.108,-8.880326 0.0588,5.015823 0.0588,13.115826 -1.3e-4,17.999996 -0.0588,4.88418 -0.108,0.78033 -0.108,-9.11967 z"
       id="path827"
       inkscape:connector-curvature="0" />
    <path
       style="fill:#656565;stroke-width:0.375"
       d="m 108.375,138.18635 v -17.81057 l 35.62422,-17.81289 C 163.59254,92.765801 179.70494,84.75 179.80454,84.75 c 0.0996,0 0.22656,7.973437 0.282,17.71875 l 0.1008,17.71875 -35.90624,17.9047 -35.90626,17.9047 z m 36.18688,-6.8415 29.81312,-14.90515 v -10.96985 c 0,-6.033417 -0.084,-10.96985 -0.18684,-10.96985 -0.1032,0 -13.60278,6.70732 -30,14.90515 L 114.375,124.3103 v 10.96985 c 0,6.03342 0.0841,10.96985 0.18688,10.96985 0.10284,0 13.60278,-6.70732 30,-14.90515 z"
       id="path825"
       inkscape:connector-curvature="0" />
    <path
       style="fill:#00fe00;stroke-width:0.375"
       d="m 156,108.56692 v -5.0625 l 6,-3.00442 6,-3.004417 v 5.062497 5.0625 l -6,3.00442 -6,3.00442 z"
       id="path823"
       inkscape:connector-curvature="0" />
    <path
       style="fill:#fe0000;stroke-width:0.375"
       d="m 144,114.56692 v -5.0625 l 6,-3.00442 6,-3.00442 v 5.0625 5.0625 l -6,3.00442 -6,3.00442 z"
       id="path821"
       inkscape:connector-curvature="0" />
    <path
       style="fill:#323232;stroke-width:0.375"
       d="M 57.473891,138.03925 C 25.711468,122.15474 8.4626557,113.33174 7.8051067,112.633 7.2510409,112.04423 6.6182284,111.08745 6.3988567,110.50684 5.8474394,109.04739 5.8484816,71.323724 6.3999817,69.868163 6.6199706,69.287546 7.1684081,68.414074 7.6187317,67.927106 8.0690557,67.440143 25.104595,58.70733 45.475487,48.520856 77.783014,32.365465 82.727479,30 84.189127,30 c 1.467196,0 7.776316,3.050686 50.712013,24.521077 26.97,13.486594 49.40481,24.919407 49.85513,25.40625 0.45036,0.48684 0.99876,1.360219 1.21875,1.940836 0.55152,1.455561 0.55248,39.179237 0.001,40.638677 -0.21936,0.58068 -0.85212,1.53748 -1.40624,2.12638 -0.6516,0.69252 -13.95618,7.54653 -37.67045,19.40625 -34.97645,17.49205 -36.75738,18.33553 -38.71361,18.33553 -1.96311,0 -4.12564,-1.03776 -50.711949,-24.33575 z m 86.901879,0.3354 35.99923,-18.00038 V 102.28018 84.186139 L 132.28126,60.140171 84.1875,36.0942 48.09375,54.139943 12,72.185684 V 90.28005 108.37442 L 59.90625,132.354 c 26.348437,13.18878 48.03316,23.98891 48.18827,24.0003 0.15511,0.0114 16.48168,-8.07947 36.28125,-17.97968 z M 114.375,135.27904 V 124.30808 L 129.1875,116.90466 144,109.50124 v 5.06302 5.06301 l 12,-6.00227 12,-6.00227 v -5.05718 -5.05718 l 2.99167,-1.504186 C 172.6371,95.176883 174.07147,94.5 174.17917,94.5 c 0.108,0 0.19584,4.936433 0.19584,10.96985 v 10.96985 l -29.81313,14.90515 c -16.39722,8.19783 -29.89722,14.90515 -30,14.90515 -0.10284,0 -0.18688,-4.93693 -0.18688,-10.97096 z"
       id="path819"
       inkscape:connector-curvature="0" />
  </g>
</svg>
