<?xml version="1.0" encoding="UTF-8" standalone="no"?>
<!-- Created with Inkscape (http://www.inkscape.org/) -->

<svg
   xmlns:dc="http://purl.org/dc/elements/1.1/"
   xmlns:cc="http://creativecommons.org/ns#"
   xmlns:rdf="http://www.w3.org/1999/02/22-rdf-syntax-ns#"
   xmlns:svg="http://www.w3.org/2000/svg"
   xmlns="http://www.w3.org/2000/svg"
   xmlns:sodipodi="http://sodipodi.sourceforge.net/DTD/sodipodi-0.dtd"
   xmlns:inkscape="http://www.inkscape.org/namespaces/inkscape"
   version="1.1"
   id="svg2"
   width="192"
   height="192"
   viewBox="0 0 192 192"
   sodipodi:docname="EXTERNAL_DRIVE.svg"
   inkscape:version="0.92.4 (5da689c313, 2019-01-14)">
  <metadata
     id="metadata8">
    <rdf:RDF>
      <cc:Work
         rdf:about="">
        <dc:format>image/svg+xml</dc:format>
        <dc:type
           rdf:resource="http://purl.org/dc/dcmitype/StillImage" />
        <dc:title></dc:title>
      </cc:Work>
    </rdf:RDF>
  </metadata>
  <defs
     id="defs6" />
  <sodipodi:namedview
     pagecolor="#ffffff"
     bordercolor="#666666"
     borderopacity="1"
     objecttolerance="10"
     gridtolerance="10"
     guidetolerance="10"
     inkscape:pageopacity="0"
     inkscape:pageshadow="2"
     inkscape:window-width="828"
     inkscape:window-height="480"
     id="namedview4"
     showgrid="false"
     fit-margin-top="0"
     fit-margin-left="0"
     fit-margin-right="0"
     fit-margin-bottom="0"
     inkscape:zoom="0.921875"
     inkscape:cx="-38.097039"
     inkscape:cy="37.663883"
     inkscape:window-x="0"
     inkscape:window-y="0"
     inkscape:window-maximized="0"
     inkscape:current-layer="svg2" />
  <g
     id="EXTERNAL_DRIVE">
    <path
       style="fill:#ffffff;stroke-width:0.375"
       d="M 0,96 V 0 h 96 96 v 96 96 H 96 0 Z m 146.89945,72.03947 c 23.71427,-11.85972 37.01885,-18.71369 37.67044,-19.40625 0.55404,-0.58884 1.18692,-1.54576 1.40625,-2.12638 0.5514,-1.45946 0.55044,-39.18311 -10e-4,-40.63868 -0.21996,-0.58062 -0.76848,-1.45399 -1.21875,-1.94083 C 184.30594,103.44048 161.87114,92.007671 134.90114,78.521077 91.988839,57.062384 85.655744,54 84.190913,54 82.737904,54 78.656396,55.92951 53.258516,68.623136 L 24,83.246273 V 59.623136 36 h 42 42 v 3.186364 3.186363 L 119.90625,48.280114 131.8125,54.1875 149.90626,54.086651 168,53.985799 V 47.992901 42 h 6 6 V 30 18 h -6 -6 V 12 6 H 150.18901 132.37802 L 120.18901,12.091066 108,18.182131 V 21.091066 24 H 60 12 v 32.618681 32.618685 l -1.78125,0.906696 c -2.0439004,1.040388 -3.24618,2.212868 -3.8187706,3.7241 -0.5514984,1.455561 -0.55254,39.179218 -0.00113,40.638678 0.219372,0.58068 0.8521848,1.53739 1.40625,2.12616 0.6575496,0.69876 17.9063606,9.52174 49.6687856,25.40625 46.586305,23.29799 48.748835,24.33575 50.711945,24.33575 1.95624,0 3.73717,-0.84348 38.71362,-18.33553 z"
       id="path837"
       inkscape:connector-curvature="0" />
    <path
       style="fill:#fefefe;stroke-width:0.375"
       d="M 119.90625,48.354127 108,42.372679 V 30.277405 18.182131 L 120.18901,12.091066 132.37802,6 H 150.18901 168 v 24 24 h -17.59433 c -9.67688,0 -17.81907,0.07548 -18.09375,0.167796 -0.27468,0.09228 -5.85723,-2.523866 -12.40567,-5.813669 z M 162,30 V 12 H 148.12232 134.24465 L 124.12232,17.06384 114,22.12768 v 8.158354 8.158355 l 9.46876,4.756541 9.46874,4.756537 14.53126,0.02124 L 162,48 Z"
       id="path835"
       inkscape:connector-curvature="0" />
    <path
       style="fill:#98cbfe;stroke-width:0.375"
       d="M 60.09375,120.42646 C 33.848437,107.30204 12.375,96.437179 12.375,96.282326 c 0,-0.154848 16.157767,-8.360782 35.906149,-18.235402 L 84.187297,60.093071 132.09365,84.046826 C 158.44214,97.22139 180,108.12743 180,108.28247 c 0,0.30463 -70.63368,35.71634 -71.60215,35.89724 -0.32194,0.0601 -22.058787,-10.62883 -48.3041,-23.75325 z M 12,56.627209 V 24 h 48 48 v 6 6 H 66 24 V 59.622791 83.245583 L 18,86.25 12,89.254417 Z"
       id="path833"
       inkscape:connector-curvature="0" />
    <path
       style="fill:#fefe00;stroke-width:0.375"
       d="M 168,30 V 18 h 6 6 v 12 12 h -6 -6 z"
       id="path831"
       inkscape:connector-curvature="0" />
    <path
       style="fill:#6598cb;stroke-width:0.375"
       d="M 59.90625,156.33324 12,132.37441 12.0057,114.09346 c 0.0031,-10.05453 0.12972,-18.089934 0.281244,-17.856464 0.395988,0.610128 95.583606,48.142404 95.858646,47.867364 0.12615,-0.12612 0.22936,7.8888 0.22936,17.81102 0,9.9222 -0.12657,18.11604 -0.28125,18.20852 -0.15469,0.0924 -21.83906,-10.6133 -48.187491,-23.79066 z"
       id="path829"
       inkscape:connector-curvature="0" />
    <path
       style="fill:#676767;stroke-width:0.375"
       d="m 108.375,180.18763 c 0,-0.24564 71.29494,-35.89269 71.45868,-35.72895 0.0696,0.0696 -15.98065,8.17861 -35.6664,18.02084 -19.68576,9.84223 -35.79228,17.81088 -35.79228,17.70811 z m 71.7984,-54.00013 c 7e-5,-9.9 0.048,-13.89615 0.108,-8.88033 0.0588,5.01583 0.0588,13.11583 -1.3e-4,18.00001 -0.0588,4.88418 -0.108,0.78036 -0.108,-9.11968 z"
       id="path827"
       inkscape:connector-curvature="0" />
    <path
       style="fill:#656565;stroke-width:0.375"
       d="m 108.375,162.18635 v -17.81057 l 35.62422,-17.81288 c 19.59332,-9.7971 35.70572,-17.8129 35.80532,-17.8129 0.0996,0 0.22656,7.97344 0.282,17.71876 l 0.1008,17.71874 -35.90624,17.9047 -35.90626,17.9047 z m 36.18688,-6.8415 29.81312,-14.90515 v -10.96985 c 0,-6.03342 -0.084,-10.96985 -0.18684,-10.96985 -0.1032,0 -13.60278,6.70732 -30,14.90515 L 114.375,148.3103 v 10.96985 c 0,6.03342 0.0841,10.96985 0.18688,10.96985 0.10284,0 13.60278,-6.70732 30,-14.90515 z"
       id="path825"
       inkscape:connector-curvature="0" />
    <path
       style="fill:#fe0000;stroke-width:0.375"
       d="m 144,138.56692 v -5.0625 l 6,-3.00442 6,-3.00442 v 5.0625 5.0625 l -6,3.00442 -6,3.00442 z"
       id="path823"
       inkscape:connector-curvature="0" />
    <path
       style="fill:#00fe00;stroke-width:0.375"
       d="m 156,132.56692 v -5.0625 l 6,-3.00442 6,-3.00442 v 5.0625 5.0625 l -6,3.00442 -6,3.00442 z"
       id="path821"
       inkscape:connector-curvature="0" />
    <path
       style="fill:#323232;stroke-width:0.375"
       d="M 57.473891,162.03925 C 25.711468,146.15474 8.4626557,137.33174 7.8051067,136.633 7.2510409,136.04423 6.6182284,135.08746 6.3988567,134.50684 5.8474394,133.04738 5.8484816,95.323724 6.3999817,93.868163 6.6199706,93.287546 7.1684081,92.414074 7.6187317,91.927106 8.0690557,91.440143 25.104595,82.70733 45.475487,72.520856 77.783014,56.365466 82.727479,54 84.189127,54 c 1.467196,0 7.776316,3.050686 50.712013,24.521077 26.97,13.486594 49.40481,24.919403 49.85513,25.406253 0.45036,0.48684 0.99876,1.36022 1.21875,1.94083 0.55152,1.45557 0.55248,39.17924 0.001,40.63868 -0.21936,0.58068 -0.85212,1.53748 -1.40624,2.12638 -0.6516,0.69252 -13.95618,7.54653 -37.67045,19.40625 -34.97645,17.49205 -36.75738,18.33553 -38.71361,18.33553 -1.96311,0 -4.12564,-1.03776 -50.711949,-24.33575 z m 86.901879,0.3354 35.99923,-18.00038 V 126.28018 108.18614 L 132.28126,84.140171 84.1875,60.0942 48.09375,78.139943 12,96.185686 v 18.094364 18.09436 L 59.90625,156.354 c 26.348437,13.18878 48.03316,23.98891 48.18827,24.0003 0.15511,0.0114 16.48168,-8.07947 36.28125,-17.97968 z M 114.375,159.27904 V 148.30808 L 129.1875,140.90466 144,133.50125 v 5.06301 5.06301 l 12,-6.00227 12,-6.00227 v -5.05718 -5.05719 l 2.99167,-1.50417 c 1.64543,-0.82731 3.0798,-1.50419 3.1875,-1.50419 0.108,0 0.19584,4.93643 0.19584,10.96985 v 10.96985 l -29.81312,14.90515 c -16.39723,8.19783 -29.89723,14.90515 -30.00001,14.90515 -0.10284,0 -0.18688,-4.93693 -0.18688,-10.97096 z M 123.46876,43.20093 114,38.444389 V 30.286034 22.12768 L 124.12232,17.06384 134.24465,12 H 148.12232 162 v 18 18 l -14.53124,-0.02124 -14.53126,-0.02124 -9.46874,-4.756537 z"
       id="path819"
       inkscape:connector-curvature="0" />
  </g>
</svg>
