<?xml version="1.0" encoding="UTF-8" standalone="no"?>
<!-- Created with Inkscape (http://www.inkscape.org/) -->

<svg
   xmlns:dc="http://purl.org/dc/elements/1.1/"
   xmlns:cc="http://creativecommons.org/ns#"
   xmlns:rdf="http://www.w3.org/1999/02/22-rdf-syntax-ns#"
   xmlns:svg="http://www.w3.org/2000/svg"
   xmlns="http://www.w3.org/2000/svg"
   xmlns:sodipodi="http://sodipodi.sourceforge.net/DTD/sodipodi-0.dtd"
   xmlns:inkscape="http://www.inkscape.org/namespaces/inkscape"
   version="1.1"
   id="svg2"
   width="192"
   height="192"
   viewBox="0 0 192 192"
   sodipodi:docname="FILE_FOLDER.svg"
   inkscape:version="0.92.4 (5da689c313, 2019-01-14)">
  <metadata
     id="metadata8">
    <rdf:RDF>
      <cc:Work
         rdf:about="">
        <dc:format>image/svg+xml</dc:format>
        <dc:type
           rdf:resource="http://purl.org/dc/dcmitype/StillImage" />
        <dc:title></dc:title>
      </cc:Work>
    </rdf:RDF>
  </metadata>
  <defs
     id="defs6" />
  <sodipodi:namedview
     pagecolor="#ffffff"
     bordercolor="#666666"
     borderopacity="1"
     objecttolerance="10"
     gridtolerance="10"
     guidetolerance="10"
     inkscape:pageopacity="0"
     inkscape:pageshadow="2"
     inkscape:window-width="828"
     inkscape:window-height="480"
     id="namedview4"
     showgrid="false"
     fit-margin-top="0"
     fit-margin-left="0"
     fit-margin-right="0"
     fit-margin-bottom="0"
     inkscape:zoom="5.2149125"
     inkscape:cx="15.730868"
     inkscape:cy="26.266539"
     inkscape:window-x="0"
     inkscape:window-y="0"
     inkscape:window-maximized="0"
     inkscape:current-layer="svg2" />
  <g
     id="FILE_FOLDER">
    <path
       style="fill:#ffffff;stroke-width:0.375"
       d="M 0,96 V 0 h 96 96 v 96 96 H 96 0 Z m 179.91173,22.59375 -0.0996,-61.40625 -0.92856,-1.875 c -1.12925,-2.281016 -3.42528,-4.643171 -5.44607,-5.603276 -3.47831,-1.652595 -4.1985,-1.682205 -41.2522,-1.69605 L 96.933104,48 84.9375,36 72.941894,24 h -18.75 -18.749998 L 23.720947,35.716518 12,47.433034 V 113.71652 180 h 84.005479 84.005481 z"
       id="path827"
       inkscape:connector-curvature="0" />
    <path
       style="fill:#fefefe;stroke-width:0.375"
       d="M 18.375,87 V 84 H 96.1875 174 v 3 3 H 96.1875 18.375 Z"
       id="path825"
       inkscape:connector-curvature="0" />
    <path
       style="fill:#f8e242;stroke-width:0.375"
       d="M 18.147564,128.99999 18.107629,90 H 96.053813 174 v 39 39 l -77.90625,-1e-5 -77.90625,-3e-5 z M 18.375,63.653644 V 49.682291 L 28.408807,39.653644 38.442614,29.625 h 15.779322 15.779325 l 11.932263,12.031294 c 6.562745,6.617209 12.339072,12.185959 12.83628,12.375 0.524916,0.199572 16.029606,0.34458 36.973356,0.345804 25.02587,0.0015 36.52322,0.1281 37.55175,0.413652 1.89563,0.526284 3.76305,2.393722 4.28935,4.28935 0.24288,0.874968 0.41244,4.978235 0.41364,10.013656 L 174,77.625 H 96.1875 18.375 Z"
       id="path823"
       inkscape:connector-curvature="0" />
    <path
       style="fill:#b1831d;stroke-width:0.375"
       d="m 18.375,171 v -3 H 96.1875 174 v 3 3 H 96.1875 18.375 Z m 0,-90.1875 V 77.625 H 96.1875 174 V 80.8125 84 H 96.1875 18.375 Z"
       id="path821"
       inkscape:connector-curvature="0" />
    <path
       style="fill:#4c380c;stroke-width:0.375"
       d="M 12,113.71652 V 47.433034 L 23.720947,35.716518 35.441896,24 h 18.749998 18.75 L 84.9375,36 96.933104,48 132.1853,48.0132 c 37.0537,0.0138 37.77389,0.04344 41.2522,1.69605 2.02079,0.960108 4.31682,3.32226 5.44645,5.603276 l 0.92856,1.875 0.0996,61.406254 L 180.01096,180 H 96.005479 12 Z m 161.99791,3.56473 c -10e-4,-40.015193 -0.1233,-57.155314 -0.41365,-58.201156 -0.5263,-1.895628 -2.39372,-3.76306 -4.28935,-4.28935 -1.02853,-0.285551 -12.52588,-0.4122 -37.55175,-0.413651 -20.94375,-0.0011 -36.448434,-0.146224 -36.973354,-0.345799 -0.49721,-0.189041 -6.273537,-5.757791 -12.83628,-12.375 L 70.001261,29.625 H 54.216776 38.432291 L 28.390368,39.672094 18.348444,49.719184 18.21072,107.45334 c -0.07572,31.75379 -0.0438,59.71697 0.07092,62.14042 L 18.490258,174 H 96.24513 174 l -0.002,-56.71875 z"
       id="path819"
       inkscape:connector-curvature="0" />
  </g>
</svg>
