<?xml version="1.0" encoding="UTF-8" standalone="no"?>
<!-- Created with Inkscape (http://www.inkscape.org/) -->

<svg
   xmlns:dc="http://purl.org/dc/elements/1.1/"
   xmlns:cc="http://creativecommons.org/ns#"
   xmlns:rdf="http://www.w3.org/1999/02/22-rdf-syntax-ns#"
   xmlns:svg="http://www.w3.org/2000/svg"
   xmlns="http://www.w3.org/2000/svg"
   xmlns:sodipodi="http://sodipodi.sourceforge.net/DTD/sodipodi-0.dtd"
   xmlns:inkscape="http://www.inkscape.org/namespaces/inkscape"
   version="1.1"
   id="svg2"
   width="192"
   height="192"
   viewBox="0 0 192 192"
   sodipodi:docname="FILE_GREY.svg"
   inkscape:version="0.92.4 (5da689c313, 2019-01-14)">
  <metadata
     id="metadata8">
    <rdf:RDF>
      <cc:Work
         rdf:about="">
        <dc:format>image/svg+xml</dc:format>
        <dc:type
           rdf:resource="http://purl.org/dc/dcmitype/StillImage" />
        <dc:title></dc:title>
      </cc:Work>
    </rdf:RDF>
  </metadata>
  <defs
     id="defs6" />
  <sodipodi:namedview
     pagecolor="#ffffff"
     bordercolor="#666666"
     borderopacity="1"
     objecttolerance="10"
     gridtolerance="10"
     guidetolerance="10"
     inkscape:pageopacity="0"
     inkscape:pageshadow="2"
     inkscape:window-width="828"
     inkscape:window-height="480"
     id="namedview4"
     showgrid="false"
     fit-margin-top="0"
     fit-margin-left="0"
     fit-margin-right="0"
     fit-margin-bottom="0"
     inkscape:zoom="14.75"
     inkscape:cx="9.220339"
     inkscape:cy="12.677966"
     inkscape:window-x="0"
     inkscape:window-y="0"
     inkscape:window-maximized="0"
     inkscape:current-layer="svg2" />
  <g
     id="FILE_GREY">
    <path
       style="fill:#ffffff;stroke-width:0.375"
       d="M 0,96 V 0 h 96 96 v 96 96 H 96 0 Z m 159.23062,89.03933 c 0.56952,-0.42528 1.38346,-1.23913 1.80871,-1.80863 0.77256,-1.03464 0.77328,-1.08792 0.96072,-68.78933 0.13968,-50.455769 0.078,-68.04109 -0.24264,-68.87887 -0.2526,-0.660564 -8.30287,-8.971157 -19.5,-20.130541 C 125.99154,9.220929 122.99459,6.3930469 121.87507,6.1994651 121.15315,6.0746411 95.642112,6.0208847 65.183772,6.0800051 9.9196447,6.1872731 9.8028289,6.1890971 8.7694433,6.9606695 8.1999017,7.3859135 7.3859864,8.1998408 6.9607429,8.7693968 L 6.1875,9.8049551 6.0806509,94.996226 c -0.058764,46.855194 -0.00987,85.734744 0.108672,86.398974 0.268182,1.50282 1.8440412,3.41889 3.3545862,4.07882 0.9418839,0.41148 14.1523779,0.4854 74.8973679,0.41904 l 73.753783,-0.0804 z"
       id="path825"
       inkscape:connector-curvature="0" />
    <path
       style="fill:#fefefe;stroke-width:0.375"
       d="m 9.5439086,185.47402 c -1.510545,-0.65988 -3.0864042,-2.576 -3.3545862,-4.0788 -0.118536,-0.6642 -0.1674384,-39.5438 -0.108672,-86.398994 L 6.1874984,9.8049551 6.9606692,8.7693983 c 0.425244,-0.569556 1.239159,-1.3834837 1.8087004,-1.8087274 1.033386,-0.77157 1.1502012,-0.773394 56.4143294,-0.8806644 30.45834,-0.059124 55.969431,-0.00537 56.691301,0.11946 1.11948,0.1935816 4.11647,3.0214639 20.38234,19.2324935 11.19712,11.159384 19.24742,19.469982 19.5,20.130541 0.3204,0.83778 0.38232,18.423101 0.24264,68.878869 -0.18732,67.70136 -0.18804,67.75467 -0.96072,68.78933 -0.42528,0.56952 -1.23917,1.38338 -1.80872,1.80863 l -1.0356,0.77316 -73.753784,0.0804 c -60.74499,0.066 -73.955486,-0.008 -74.897369,-0.41904 z M 156.09168,113.99855 156.1875,47.997097 138.18606,29.998548 120.18463,12 H 66.092314 12 v 84 84 h 71.997926 71.997924 z"
       id="path823"
       inkscape:connector-curvature="0" />
    <path
       style="fill:#989898;stroke-width:0.375"
       d="M 114,33 V 12 h 3 3 v 18 18 h 18 18 v 3 3 h -21 -21 z"
       id="path821"
       inkscape:connector-curvature="0" />
    <path
       style="fill:#656565;stroke-width:0.375"
       d="M 12,96 V 12 h 51 51 v 21 21 h 21 21 v 63 63 H 84 12 Z M 120,29.907715 V 11.81543 l 18,17.99707 c 9.9,9.898387 18,18.039919 18,18.092284 C 156,47.957153 147.9,48 138,48 h -18 z"
       id="path819"
       inkscape:connector-curvature="0" />
  </g>
</svg>
