<?xml version="1.0" encoding="UTF-8" standalone="no"?>
<!-- Created with Inkscape (http://www.inkscape.org/) -->

<svg
   xmlns:dc="http://purl.org/dc/elements/1.1/"
   xmlns:cc="http://creativecommons.org/ns#"
   xmlns:rdf="http://www.w3.org/1999/02/22-rdf-syntax-ns#"
   xmlns:svg="http://www.w3.org/2000/svg"
   xmlns="http://www.w3.org/2000/svg"
   xmlns:sodipodi="http://sodipodi.sourceforge.net/DTD/sodipodi-0.dtd"
   xmlns:inkscape="http://www.inkscape.org/namespaces/inkscape"
   version="1.1"
   id="svg2"
   width="192"
   height="192"
   viewBox="0 0 192 192"
   sodipodi:docname="NETWORK_DRIVE.svg"
   inkscape:version="0.92.4 (5da689c313, 2019-01-14)">
  <metadata
     id="metadata8">
    <rdf:RDF>
      <cc:Work
         rdf:about="">
        <dc:format>image/svg+xml</dc:format>
        <dc:type
           rdf:resource="http://purl.org/dc/dcmitype/StillImage" />
        <dc:title></dc:title>
      </cc:Work>
    </rdf:RDF>
  </metadata>
  <defs
     id="defs6" />
  <sodipodi:namedview
     pagecolor="#ffffff"
     bordercolor="#666666"
     borderopacity="1"
     objecttolerance="10"
     gridtolerance="10"
     guidetolerance="10"
     inkscape:pageopacity="0"
     inkscape:pageshadow="2"
     inkscape:window-width="828"
     inkscape:window-height="480"
     id="namedview4"
     showgrid="false"
     fit-margin-top="0"
     fit-margin-left="0"
     fit-margin-right="0"
     fit-margin-bottom="0"
     inkscape:zoom="14.75"
     inkscape:cx="8.4745763"
     inkscape:cy="10.237288"
     inkscape:window-x="0"
     inkscape:window-y="0"
     inkscape:window-maximized="0"
     inkscape:current-layer="svg2" />
  <g
     id="NETWORK_DRIVE">
    <path
       style="fill:#ffffff;stroke-width:0.375"
       d="M 0,96 V 0 L 13.78125,0.0246792 C 26.521117,0.04749348 27.40983,0.09041652 25.542122,0.59270604 16.061875,3.1422637 10.151793,12.996679 12.559375,22.240013 c 1.290079,4.952947 4.720806,9.349362 9.03745,11.581333 l 2.400401,1.241154 0.0014,24.092044 L 24,83.246587 16.21875,87.146126 c -7.8287677,3.923351 -9.0839666,4.782675 -9.8187706,6.722037 -0.5514984,1.455561 -0.55254,39.179237 -0.00113,40.638677 0.219372,0.58068 0.8521848,1.53739 1.40625,2.12616 0.6575496,0.69876 17.9063606,9.52174 49.6687856,25.40625 46.586305,23.29799 48.748835,24.33575 50.711945,24.33575 1.95624,0 3.73717,-0.84348 38.71362,-18.33553 23.71427,-11.85972 37.01884,-18.71369 37.67043,-19.40625 0.55404,-0.58884 1.18692,-1.54576 1.40625,-2.12638 0.55044,-1.45686 0.55044,-39.18182 0,-40.63868 -0.21937,-0.58061 -0.80306,-1.47753 -1.29708,-1.99316 -0.49402,-0.51562 -12.54891,-6.758396 -26.78863,-13.872826 L 132,77.066846 l 0.001,-21.00217 0.001,-21.002176 2.4004,-1.241154 c 4.31642,-2.231971 7.74715,-6.628386 9.03722,-11.581333 2.4147,-9.270639 -3.4975,-19.0920519 -13.03982,-21.66191588 -1.73316,-0.46676244 1.76196,-0.53163156 29.81796,-0.55341792 L 192,0 v 96 96 H 96 0 Z M 36.001387,56.157014 36.002774,35.0625 38.403176,33.821346 C 42.71982,31.589375 46.150544,27.19296 47.440624,22.240013 49.848206,12.996679 43.938124,3.1422637 34.457878,0.59270604 32.629961,0.10111752 34.491536,0.04935828 54,0.04935828 c 19.508464,0 21.370039,0.05175924 19.542124,0.54334776 C 64.061876,3.1422637 58.151794,12.996679 60.559376,22.240013 c 1.290078,4.952947 4.720804,9.349362 9.037448,11.581333 l 2.400402,1.241154 0.0014,12.092986 L 72,59.24847 54,68.25 36,77.25153 Z M 102.64156,62.41524 C 93.403789,57.786859 85.430351,54 84.922807,54 H 84 l 0.0015,-9.46875 0.0015,-9.46875 2.400401,-1.241154 C 90.720044,31.589375 94.15077,27.19296 95.440849,22.240013 97.848431,12.996679 91.938349,3.1422637 82.458101,0.59270604 80.630186,0.1011174 82.491776,0.04935828 102.00022,0.04935828 c 19.50847,0 21.37004,0.05175912 19.54213,0.54334776 C 113.71639,2.69731 108,10.045259 108,18 c 0,6.387446 3.95191,12.90258 9.59682,15.821346 l 2.40041,1.241154 0.001,17.90625 c 7.5e-4,9.848437 -0.12518,17.896234 -0.27987,17.88399 -0.15469,-0.01223 -7.83942,-3.809114 -17.07719,-8.4375 z"
       id="path833"
       inkscape:connector-curvature="0" />
    <path
       style="fill:#fefefe;stroke-width:0.375"
       d="M 24,59.119643 V 34.984865 l 1.956724,0.507564 c 2.494298,0.647016 5.592254,0.647016 8.086554,0 L 36,34.984865 V 56.115224 77.245583 L 30,80.25 24,83.254417 Z M 125.71876,73.952887 120,71.073859 V 53.029361 34.984865 l 1.95672,0.507564 c 2.4943,0.647016 5.59226,0.647016 8.08656,0 L 132,34.984865 v 20.945069 c 0,11.519786 -0.1266,20.935372 -0.28128,20.923522 -0.15468,-0.01185 -2.85469,-1.317105 -6,-2.900569 z M 72,47.108497 V 34.984865 l 1.956724,0.507564 C 75.032921,35.771594 76.852394,36 78,36 c 1.147604,0 2.967079,-0.228406 4.043276,-0.507568 L 84,34.984865 v 9.507569 C 84,53.550323 83.966629,54 83.294453,54 c -0.388056,0 -3.08805,1.177236 -6,2.616064 L 72,59.232131 Z"
       id="path831"
       inkscape:connector-curvature="0" />
    <path
       style="fill:#98fefe;stroke-width:0.375"
       d="M 60.09375,120.42646 C 33.848437,107.30204 12.375,96.437179 12.375,96.282326 c 0,-0.154848 16.157767,-8.360782 35.906149,-18.235402 L 84.187297,60.093071 132.09365,84.046826 C 158.44214,97.22139 180,108.12743 180,108.28247 c 0,0.30463 -70.63368,35.71634 -71.60215,35.89724 -0.32194,0.0601 -22.058787,-10.62883 -48.3041,-23.75325 z M 25.542122,35.407294 C 16.0337,32.85016 10.151361,23.00498 12.574196,13.703083 15.082973,4.0712411 24.913142,-1.8699656 34.296917,0.57419712 43.900504,3.0756131 49.869524,12.91483 47.440624,22.240013 44.908924,31.959874 34.962241,37.940681 25.542122,35.407294 Z M 36,18 v -6 h -6 -6 v 6 6 h 6 6 z M 73.542124,35.407294 C 64.033699,32.85016 58.151359,23.00498 60.574196,13.703083 63.082973,4.0712411 72.913144,-1.8699656 82.296919,0.57419712 91.900504,3.0756131 97.869524,12.91483 95.440624,22.240013 92.908924,31.959874 82.96224,37.940681 73.542124,35.407294 Z M 84,18 v -6 h -6 -6 v 6 6 h 6 6 z m 37.54212,17.407294 C 112.0337,32.85016 106.15136,23.00498 108.5742,13.703083 111.08297,4.0712411 120.91314,-1.8699656 130.29692,0.57419712 139.9005,3.0756131 145.86953,12.91483 143.44062,22.240013 c -2.5317,9.719861 -12.47838,15.700668 -21.8985,13.167281 z M 132,18 v -6 h -6 -6 v 6 6 h 6 6 z"
       id="path829"
       inkscape:connector-curvature="0" />
    <path
       style="fill:#329898;stroke-width:0.375"
       d="M 59.90625,156.33324 12,132.37441 12.0057,114.09346 c 0.0031,-10.05453 0.12972,-18.089934 0.281244,-17.856464 0.395988,0.610128 95.583606,48.142404 95.858646,47.867364 0.12615,-0.12612 0.22936,7.8888 0.22936,17.81102 0,9.9222 -0.12657,18.11604 -0.28125,18.20852 -0.15469,0.0924 -21.83906,-10.6133 -48.187491,-23.79066 z"
       id="path827"
       inkscape:connector-curvature="0" />
    <path
       style="fill:#656565;stroke-width:0.375"
       d="m 108.28835,162.37193 0.1008,-18.00325 35.71164,-17.85366 c 19.64141,-9.81952 35.83563,-18.04466 35.98716,-18.27809 0.15156,-0.23344 0.27804,7.80196 0.28128,17.85643 l 0.006,18.28087 -35.99923,18.00039 c -19.79957,9.90021 -36.04175,18.00042 -36.09374,18.00048 -0.052,4e-5 -0.0491,-8.10137 0.006,-18.00317 z m 36.27353,-7.02708 29.81312,-14.90515 v -10.96985 c 0,-6.03342 -0.084,-10.96985 -0.18684,-10.96985 -0.1032,0 -13.60278,6.70732 -30,14.90515 L 114.375,148.3103 v 10.96985 c 0,6.03342 0.0841,10.96985 0.18688,10.96985 0.10284,0 13.60278,-6.70732 30,-14.90515 z"
       id="path825"
       inkscape:connector-curvature="0" />
    <path
       style="fill:#fe0000;stroke-width:0.375"
       d="m 144,138.56692 v -5.0625 l 6,-3.00442 6,-3.00442 v 5.0625 5.0625 l -6,3.00442 -6,3.00442 z"
       id="path823"
       inkscape:connector-curvature="0" />
    <path
       style="fill:#00fe00;stroke-width:0.375"
       d="m 156,132.56692 v -5.0625 l 6,-3.00442 6,-3.00442 v 5.0625 5.0625 l -6,3.00442 -6,3.00442 z"
       id="path821"
       inkscape:connector-curvature="0" />
    <path
       style="fill:#323232;stroke-width:0.375"
       d="M 57.473891,162.03925 C 25.711468,146.15474 8.4626557,137.33174 7.8051067,136.633 7.2510409,136.04423 6.6182284,135.08746 6.3988567,134.50684 5.8474394,133.04738 5.8484816,95.323724 6.3999817,93.868163 6.6199706,93.287546 7.1684081,92.414074 7.6187317,91.927106 8.0690557,91.440143 25.104595,82.70733 45.475487,72.520856 77.783014,56.365466 82.727479,54 84.189127,54 c 1.467196,0 7.776316,3.050686 50.712013,24.521077 26.97,13.486594 49.40481,24.919403 49.85513,25.406253 0.45036,0.48684 0.99876,1.36022 1.21875,1.94083 0.55152,1.45557 0.55248,39.17924 0.001,40.63868 -0.21936,0.58068 -0.85212,1.53748 -1.40624,2.12638 -0.6516,0.69252 -13.95618,7.54653 -37.67045,19.40625 -34.97645,17.49205 -36.75738,18.33553 -38.71361,18.33553 -1.96311,0 -4.12564,-1.03776 -50.711949,-24.33575 z m 86.901879,0.3354 35.99923,-18.00038 V 126.28018 108.18614 L 132.28126,84.140171 84.1875,60.0942 48.09375,78.139943 12,96.185686 v 18.094364 18.09436 L 59.90625,156.354 c 26.348437,13.18878 48.03316,23.98891 48.18827,24.0003 0.15511,0.0114 16.48168,-8.07947 36.28125,-17.97968 z M 114.375,159.27904 V 148.30808 L 129.1875,140.90466 144,133.50125 v 5.06301 5.06301 l 12,-6.00227 12,-6.00227 v -5.05718 -5.05719 l 2.99167,-1.50417 c 1.64543,-0.82731 3.0798,-1.50419 3.1875,-1.50419 0.108,0 0.19584,4.93643 0.19584,10.96985 v 10.96985 l -29.81312,14.90515 c -16.39723,8.19783 -29.89723,14.90515 -30.00001,14.90515 -0.10284,0 -0.18688,-4.93693 -0.18688,-10.97096 z M 24,18 v -6 h 6 6 v 6 6 h -6 -6 z m 48,0 v -6 h 6 6 v 6 6 h -6 -6 z m 48,0 v -6 h 6 6 v 6 6 h -6 -6 z"
       id="path819"
       inkscape:connector-curvature="0" />
  </g>
</svg>
