<?xml version="1.0" encoding="UTF-8" standalone="no"?>
<!-- Created with Inkscape (http://www.inkscape.org/) -->

<svg
   xmlns:dc="http://purl.org/dc/elements/1.1/"
   xmlns:cc="http://creativecommons.org/ns#"
   xmlns:rdf="http://www.w3.org/1999/02/22-rdf-syntax-ns#"
   xmlns:svg="http://www.w3.org/2000/svg"
   xmlns="http://www.w3.org/2000/svg"
   xmlns:sodipodi="http://sodipodi.sourceforge.net/DTD/sodipodi-0.dtd"
   xmlns:inkscape="http://www.inkscape.org/namespaces/inkscape"
   version="1.1"
   id="svg2"
   width="16"
   height="16"
   viewBox="0 0 16 16"
   sodipodi:docname="assign.svg"
   inkscape:version="0.92.4 (5da689c313, 2019-01-14)">
  <metadata
     id="metadata8">
    <rdf:RDF>
      <cc:Work
         rdf:about="">
        <dc:format>image/svg+xml</dc:format>
        <dc:type
           rdf:resource="http://purl.org/dc/dcmitype/StillImage" />
        <dc:title></dc:title>
      </cc:Work>
    </rdf:RDF>
  </metadata>
  <defs
     id="defs6" />
  <sodipodi:namedview
     pagecolor="#ffffff"
     bordercolor="#666666"
     borderopacity="1"
     objecttolerance="10"
     gridtolerance="10"
     guidetolerance="10"
     inkscape:pageopacity="0"
     inkscape:pageshadow="2"
     inkscape:window-width="1130"
     inkscape:window-height="783"
     id="namedview4"
     showgrid="false"
     fit-margin-top="0"
     fit-margin-left="0"
     fit-margin-right="0"
     fit-margin-bottom="0"
     inkscape:zoom="46.09375"
     inkscape:cx="6.6022931"
     inkscape:cy="7.710999"
     inkscape:window-x="0"
     inkscape:window-y="0"
     inkscape:window-maximized="0"
     inkscape:current-layer="svg2" />
  <g
     id="ASSIGN">
    <path
       style="fill:#ffffff;stroke-width:0.03125"
       d="M 0,8 V 0 h 8 8 v 8 8 H 8 0 Z m 9.109375,6.909049 c 0.7544932,-0.127974 1.314626,-0.308399 2,-0.644225 1.80832,-0.886058 3.180183,-2.581338 3.668712,-4.5336125 C 14.943943,9.0684081 14.98301,8.7383737 14.98301,8 14.98301,7.2616263 14.94394,6.9315919 14.778087,6.2687885 14.163732,3.8136862 12.186313,1.8362677 9.7312115,1.2219136 9.0684081,1.0560565 8.7383737,1.0169903 8,1.0169903 c -0.7383737,0 -1.0684081,0.039066 -1.7312115,0.2049233 C 3.8136862,1.8362677 1.8362677,3.8136862 1.2219136,6.2687885 1.0560565,6.9315919 1.0169903,7.2616263 1.0169903,8 c 0,0.7383737 0.039066,1.0684081 0.2049233,1.7312115 0.6143541,2.4551015 2.5917726,4.4325205 5.0468749,5.0468755 0.3333581,0.08342 0.8063922,0.166584 1.1530865,0.202729 0.3141513,0.03275 1.3246525,-0.01022 1.6875,-0.07177 z"
       id="path825"
       inkscape:connector-curvature="0" />
    <path
       style="fill:#fefefe;stroke-width:0.03125"
       d="M 7.578125,14.230899 C 6.2571178,14.092296 5.208556,13.695338 4.2278644,12.962581 2.6956862,11.817762 1.7684455,9.9467881 1.7684455,8 c 0,-1.9467881 0.9272407,-3.8177615 2.4594189,-4.9625811 C 5.3452394,2.2025341 6.635606,1.7684455 8,1.7684455 c 1.1478969,0 2.246877,0.3086343 3.249745,0.9126489 1.837802,1.106884 2.98181,3.1475468 2.98181,5.3189056 0,1.9467881 -0.927242,3.817762 -2.459419,4.962581 -1.072736,0.801531 -2.307351,1.233104 -3.631511,1.269431 -0.240625,0.0066 -0.49375,0.0061 -0.5625,-0.0011 z m -1,-2.853992 C 6.7262287,11.318773 6.8221125,11.246822 7.0344675,11.034468 7.383055,10.68588 7.4449706,10.541632 7.4621494,10.038077 7.4688242,9.8424375 7.4598682,9.6444865 7.4420307,9.5933141 l -0.032146,-0.092214 2.4747452,-0.00836 2.4747451,-0.00836 0.1875,-0.074908 c 0.146749,-0.058628 0.24593,-0.1333372 0.456343,-0.34375 0.368454,-0.368455 0.418657,-0.4943753 0.418657,-1.0500925 0,-0.5557172 -0.0502,-0.6816375 -0.418657,-1.0500925 C 12.792805,6.7551197 12.693624,6.68041 12.546875,6.6217825 l -0.1875,-0.074908 -2.4747451,-0.00836 -2.4747452,-0.00836 0.032146,-0.092214 C 7.4598693,6.3867635 7.4688237,6.1888122 7.4621494,5.9931731 7.4449706,5.4896182 7.383055,5.34537 7.0344675,4.9967825 6.6660125,4.6283278 6.5400922,4.578125 5.984375,4.578125 5.3152815,4.578125 5.4298172,4.4992334 3.9489003,5.9801503 2.4679834,7.4610672 2.546875,7.3465315 2.546875,8.015625 c 0,0.66491 -0.069733,0.5619162 1.339851,1.9789209 0.6552696,0.6587191 1.2323933,1.2273461 1.2824974,1.2636151 0.050104,0.03627 0.1766666,0.09833 0.28125,0.137902 0.1666506,0.06306 0.2364982,0.07088 0.5651516,0.0632 0.3059125,-0.0071 0.4095437,-0.02232 0.5625,-0.08236 z"
       id="path823"
       inkscape:connector-curvature="0" />
    <path
       style="fill:#0afe00;stroke-width:0.03125"
       d="M 5.671875,10.658768 C 5.4977969,10.577146 3.3950497,8.4650284 3.3292378,8.3056912 3.2631528,8.1456922 3.2688912,7.8574104 3.3412325,7.703125 3.4228544,7.5290469 5.5349716,5.4262997 5.6943088,5.3604878 c 0.1494284,-0.061719 0.4315762,-0.06149 0.5801324,4.687e-4 0.1536207,0.064073 0.3132629,0.218937 0.3849385,0.3734164 0.071719,0.1545724 0.077131,0.4434643 0.011289,0.6025662 -0.028675,0.06929 -0.2145406,0.2833052 -0.4605034,0.5302463 l -0.4124221,0.4140625 3.1714406,6.835e-4 c 3.0228332,6.543e-4 3.1772982,0.0034 3.2964412,0.058684 0.263695,0.12235 0.421875,0.3754388 0.421875,0.6750047 0,0.299566 -0.15818,0.5526547 -0.421875,0.6750047 -0.119143,0.05528 -0.273608,0.05803 -3.2964412,0.058684 L 5.7977435,8.7499925 6.2101656,9.164055 C 6.4561284,9.4109959 6.641994,9.6250109 6.670669,9.6943013 6.736511,9.8534023 6.731098,10.142295 6.65938,10.296867 c -0.071676,0.15448 -0.2313178,0.309343 -0.3849385,0.373416 -0.1594928,0.06652 -0.4478762,0.06101 -0.6025662,-0.01152 z"
       id="path821"
       inkscape:connector-curvature="0" />
    <path
       style="fill:#000000;stroke-width:0.03125"
       d="M 7.421875,14.980816 C 7.0751807,14.944671 6.6021466,14.861504 6.2687885,14.778087 3.8136862,14.163732 1.8362677,12.186313 1.2219136,9.7312115 1.0560565,9.0684081 1.0169903,8.7383737 1.0169903,8 c 0,-0.7383737 0.039066,-1.0684081 0.2049233,-1.7312115 C 1.8362677,3.8136862 3.8136862,1.8362677 6.2687885,1.2219136 6.9315919,1.0560565 7.2616263,1.0169903 8,1.0169903 c 0.7383737,0 1.0684081,0.039066 1.7312115,0.2049233 C 12.186313,1.8362677 14.163732,3.8136862 14.778087,6.2687885 14.943943,6.9315919 14.98301,7.2616263 14.98301,8 c 0,0.7383737 -0.03907,1.0684081 -0.204923,1.7312115 -0.488529,1.9522745 -1.860392,3.6475545 -3.668712,4.5336125 -0.997415,0.488723 -1.8652369,0.698733 -2.96875,0.718428 -0.3265625,0.0058 -0.65,0.0047 -0.71875,-0.0024 z m 1.53125,-0.823089 c 1.075816,-0.178681 1.960717,-0.553842 2.819011,-1.195146 C 13.304313,11.817762 14.231555,9.9467881 14.231555,8 c 0,-1.9467881 -0.927242,-3.8177615 -2.459419,-4.9625811 C 10.654761,2.2025341 9.364394,1.7684455 8,1.7684455 c -1.1478969,0 -2.2468769,0.3086343 -3.2497453,0.9126489 C 2.9124527,3.7879784 1.7684455,5.8286412 1.7684455,8 c 0,1.9467881 0.9272407,3.817762 2.4594189,4.962581 0.9806916,0.732757 2.0292534,1.129715 3.3502606,1.268318 0.2581072,0.02708 1.013376,-0.01311 1.375,-0.07317 z M 5.4504734,11.396063 C 5.34589,11.356486 5.2193275,11.294431 5.1692234,11.258161 5.1191193,11.221892 4.5419956,10.653265 3.886726,9.9945459 2.477142,8.5775412 2.546875,8.680535 2.546875,8.015625 2.546875,7.3465315 2.4679834,7.4610672 3.9489003,5.9801503 5.4298172,4.4992334 5.3152815,4.578125 5.984375,4.578125 c 0.5557172,0 0.6816375,0.050203 1.0500925,0.4186575 0.3485875,0.3485875 0.4105031,0.4928357 0.4276819,0.9963906 0.00667,0.1956391 -0.00228,0.3935904 -0.020119,0.4447628 l -0.032146,0.092214 2.4747452,0.00836 2.4747454,0.00836 0.1875,0.074908 c 0.146749,0.058628 0.24593,0.1333372 0.456343,0.34375 0.368454,0.368455 0.418657,0.4943753 0.418657,1.0500925 0,0.5557172 -0.0502,0.6816375 -0.418657,1.0500925 -0.210413,0.2104128 -0.309594,0.2851225 -0.456343,0.34375 l -0.1875,0.074908 -2.4747454,0.00836 -2.4747452,0.00836 0.032146,0.092214 c 0.017839,0.051172 0.026793,0.2491236 0.020119,0.4447631 -0.017179,0.503555 -0.079094,0.647803 -0.4276819,0.996391 -0.3554894,0.355489 -0.4922175,0.412496 -1.0188425,0.424795 -0.3286534,0.0077 -0.398501,-9.8e-5 -0.5651516,-0.0632 z M 6.2744412,10.670291 C 6.4280619,10.606218 6.5877041,10.451354 6.6593797,10.296875 6.7310984,10.142303 6.7365109,9.8534102 6.670669,9.6943088 6.641994,9.6250185 6.4561284,9.4110034 6.2101656,9.1640625 L 5.7977435,8.75 8.9691841,8.7493164 C 11.992017,8.7486621 12.146482,8.7459164 12.265625,8.6906324 12.52932,8.5682824 12.6875,8.3151937 12.6875,8.0156277 12.6875,7.7160618 12.52932,7.462973 12.265625,7.340623 12.146482,7.285343 11.992017,7.282593 8.9691841,7.281939 L 5.7977435,7.28125 6.2101656,6.8671875 C 6.4561284,6.6202466 6.641994,6.4062315 6.670669,6.3369412 6.7365109,6.1778394 6.7310984,5.8889475 6.6593797,5.734375 6.5877041,5.5798956 6.4280619,5.4250322 6.2744412,5.3609588 6.125885,5.2989979 5.8437372,5.2987687 5.6943088,5.36049 5.5349716,5.4263019 3.4228544,7.529049 3.3412325,7.7031271 c -0.072341,0.1542854 -0.07808,0.4425672 -0.011995,0.6025664 0.065812,0.1593372 2.1685591,2.2714535 2.3426372,2.3530765 0.15469,0.07253 0.4430734,0.07804 0.6025662,0.01152 z"
       id="path819"
       inkscape:connector-curvature="0" />
  </g>
</svg>
