<?xml version="1.0" encoding="UTF-8" standalone="no"?>
<!-- Created with Inkscape (http://www.inkscape.org/) -->

<svg
   xmlns:dc="http://purl.org/dc/elements/1.1/"
   xmlns:cc="http://creativecommons.org/ns#"
   xmlns:rdf="http://www.w3.org/1999/02/22-rdf-syntax-ns#"
   xmlns:svg="http://www.w3.org/2000/svg"
   xmlns="http://www.w3.org/2000/svg"
   xmlns:sodipodi="http://sodipodi.sourceforge.net/DTD/sodipodi-0.dtd"
   xmlns:inkscape="http://www.inkscape.org/namespaces/inkscape"
   version="1.1"
   id="svg2"
   width="16"
   height="16"
   viewBox="0 0 16 16"
   sodipodi:docname="DISCLOSURE_TRI_RIGHT.svg"
   inkscape:version="0.92.4 (5da689c313, 2019-01-14)">
  <metadata
     id="metadata8">
    <rdf:RDF>
      <cc:Work
         rdf:about="">
        <dc:format>image/svg+xml</dc:format>
        <dc:type
           rdf:resource="http://purl.org/dc/dcmitype/StillImage" />
        <dc:title></dc:title>
      </cc:Work>
    </rdf:RDF>
  </metadata>
  <defs
     id="defs6" />
  <sodipodi:namedview
     pagecolor="#ffffff"
     bordercolor="#666666"
     borderopacity="1"
     objecttolerance="10"
     gridtolerance="10"
     guidetolerance="10"
     inkscape:pageopacity="0"
     inkscape:pageshadow="2"
     inkscape:window-width="828"
     inkscape:window-height="561"
     id="namedview4"
     showgrid="false"
     inkscape:zoom="14.75"
     inkscape:cx="8"
     inkscape:cy="8"
     inkscape:window-x="0"
     inkscape:window-y="0"
     inkscape:window-maximized="0"
     inkscape:current-layer="svg2" />
  <g
     id="DISCLOSURE_TRI_RIGHT">
    <path
       style="fill:#ffffff;stroke-width:0.03125"
       d="M 0,8 V 0 h 8 8 v 8 8 H 8 0 Z m 8.3380031,3.922768 C 9.9518034,11.606314 11.269393,10.441345 11.779705,8.8797275 11.940767,8.3868594 11.982236,8.1043544 11.982236,7.5 c 0,-0.6043544 -0.04147,-0.8868594 -0.202531,-1.3797275 C 11.552114,5.4238172 11.199422,4.8515381 10.673942,4.3260581 10.020158,3.6722741 9.2383066,3.2557469 8.3209344,3.0725062 c -0.3807881,-0.076061 -1.2610807,-0.076061 -1.6418688,0 C 5.7616934,3.2557469 4.9798419,3.6722741 4.3260581,4.3260581 3.6722741,4.9798419 3.2557469,5.7616934 3.0725062,6.6790656 c -0.076061,0.3807882 -0.076061,1.2610807 0,1.6418688 0.3036297,1.520084 1.3135788,2.7591516 2.7214494,3.3388406 0.3256803,0.134098 0.7979344,0.262684 1.1279194,0.307111 0.3075862,0.04141 1.1069628,0.01651 1.4161281,-0.04412 z"
       id="path823"
       inkscape:connector-curvature="0" />
    <path
       style="fill:#fefefe;stroke-width:0.03125"
       d="M 7.046875,11.466949 C 5.1460356,11.210481 3.7346881,9.7577813 3.5271284,7.8440753 3.3980022,6.6535247 3.9636216,5.2678175 4.8981844,4.4851344 5.7388103,3.7811219 6.8510387,3.4194244 7.8440753,3.5271284 9.8060919,3.7399278 11.260072,5.1939081 11.472872,7.1559247 11.595463,8.2862284 11.083888,9.6200663 10.225775,10.407496 9.8130628,10.786213 9.2412209,11.120236 8.7070622,11.294603 8.2033863,11.459019 7.5165537,11.53032 7.046875,11.466949 Z M 8,9 V 8 h 1 1 V 7.5 7 H 9 8 V 6 5 H 7.5 7 V 6 7 H 6 5 V 7.5 8 h 1 1 v 1 1 H 7.5 8 Z"
       id="path821"
       inkscape:connector-curvature="0" />
    <path
       style="fill:#000000;stroke-width:0.03125"
       d="M 6.921875,11.966886 C 4.9967844,11.707706 3.4578466,10.250093 3.0725062,8.3209344 c -0.076061,-0.3807881 -0.076061,-1.2610807 0,-1.6418688 C 3.2557469,5.7616934 3.6722741,4.9798419 4.3260581,4.3260581 4.9798419,3.6722741 5.7616934,3.2557469 6.6790656,3.0725062 c 0.3807881,-0.076061 1.2610806,-0.076061 1.6418688,0 1.638905,0.3273638 2.9462336,1.4793432 3.4587706,3.0477663 0.161062,0.4928681 0.202531,0.7753731 0.202531,1.3797275 0,0.6043544 -0.04147,0.8868594 -0.202531,1.3797275 -0.227591,0.6964553 -0.580283,1.2687345 -1.105763,1.7942145 -0.650144,0.650144 -1.4421482,1.073561 -2.3359389,1.248826 -0.3091653,0.06062 -1.1085419,0.08553 -1.4161281,0.04412 z M 8.2102203,11.422009 C 8.9403547,11.28244 9.6755809,10.91237 10.225775,10.407496 11.083888,9.6200662 11.595463,8.2862284 11.472872,7.1559247 11.260072,5.1939081 9.8060919,3.7399278 7.8440753,3.5271284 6.8510387,3.4194244 5.7388103,3.7811219 4.8981844,4.4851344 3.9636216,5.2678175 3.3980022,6.6535247 3.5271284,7.8440753 3.7346881,9.7577812 5.1460356,11.210481 7.046875,11.466949 c 0.2849919,0.03845 0.8390581,0.01705 1.1633453,-0.04494 z M 7,9 V 8 H 6 5 V 7.5 7 H 6 7 V 6 5 H 7.5 8 v 1 1 h 1 1 V 7.5 8 H 9 8 v 1 1 H 7.5 7 Z"
       id="path819"
       inkscape:connector-curvature="0" />
  </g>
</svg>
