<?xml version="1.0" encoding="UTF-8" standalone="no"?>
<!-- Created with Inkscape (http://www.inkscape.org/) -->

<svg
   version="1.1"
   id="svg2"
   width="16"
   height="16"
   viewBox="0 0 16 16"
   sodipodi:docname="INTERNET_OFFLINE.svg"
   inkscape:version="1.2.2 (732a01da63, 2022-12-09)"
   xmlns:inkscape="http://www.inkscape.org/namespaces/inkscape"
   xmlns:sodipodi="http://sodipodi.sourceforge.net/DTD/sodipodi-0.dtd"
   xmlns="http://www.w3.org/2000/svg"
   xmlns:svg="http://www.w3.org/2000/svg">
  <defs
     id="defs6" />
  <sodipodi:namedview
     id="namedview4"
     pagecolor="#ffffff"
     bordercolor="#000000"
     borderopacity="0.25"
     inkscape:showpageshadow="2"
     inkscape:pageopacity="0.0"
     inkscape:pagecheckerboard="0"
     inkscape:deskcolor="#d1d1d1"
     showgrid="false"
     inkscape:zoom="47.375"
     inkscape:cx="8.0105541"
     inkscape:cy="8"
     inkscape:window-width="2560"
     inkscape:window-height="1377"
     inkscape:window-x="-8"
     inkscape:window-y="-8"
     inkscape:window-maximized="1"
     inkscape:current-layer="g8" />
  <g
     inkscape:groupmode="layer"
     inkscape:label="Image"
     id="g8">
    <g
       id="INTERNET_OFFLINE">
      <path
         style="fill:#ffffff;stroke-width:0.03125"
         d="M 0,8 V 0 h 8 8 v 8 8 H 8 0 Z m 8.421875,6.953145 c 0.7429125,-0.155441 1.3758291,-0.788358 1.5312703,-1.53127 0.2971207,-1.420052 -0.9549681,-2.672141 -2.3750203,-2.37502 -0.5674259,0.118723 -1.1000541,0.530633 -1.3550772,1.047953 -0.2954,0.599225 -0.2954,1.211159 0,1.810384 0.3931413,0.797496 1.3092084,1.23409 2.1988272,1.047953 z m -2.71875,-4.639462 c 0.06875,-0.03297 0.1636719,-0.09527 0.2109375,-0.13844 L 6,10.096748 V 9.2514991 C 6,8.7866119 5.9927344,8.40625 5.9838544,8.40625 c -0.035754,0 -0.6956269,0.3460244 -0.8159807,0.4278838 -0.1688134,0.1148199 -0.4067115,0.3815184 -0.4652134,0.5215334 -0.060326,0.1443812 -0.059316,0.4278972 0.00205,0.5750241 0.064073,0.1536207 0.2189369,0.3132627 0.3734163,0.3849387 0.1679296,0.07792 0.460364,0.077 0.625,-0.0019 z m 5.227566,0.01286 C 11.204079,10.212515 11.373714,9.949745 11.373494,9.640625 11.373213,9.2273531 11.103307,8.9435641 10.35213,8.5666756 10.176271,8.4784416 10.025099,8.40625 10.016193,8.40625 c -0.0089,0 -0.01617,0.3832031 -0.01613,0.8515625 l 6.3e-5,0.8515625 0.148377,0.10031 c 0.08161,0.05517 0.183533,0.114044 0.226502,0.130831 0.121268,0.04738 0.427031,0.03969 0.555691,-0.01397 z M 9,5.5 V 1 H 8 7 V 5.5 10 h 1 1 z m 3.805691,2.4515412 c 0.273282,-0.1139824 0.442937,-0.3767037 0.442937,-0.6859162 0,-0.3399375 -0.177955,-0.5815394 -0.672761,-0.9133822 C 12.117581,6.0448922 11.09024,5.5473022 10.51669,5.354885 10.242276,5.2628231 10.01376,5.1875 10.008878,5.1875 10.003995,5.1875 10,5.5449472 10,5.9818272 v 0.7943272 l 0.210938,0.069234 c 0.33287,0.109255 1.340105,0.6331404 1.617187,0.841135 0.1375,0.103216 0.30625,0.2156638 0.375,0.2498847 0.153516,0.076413 0.438483,0.08357 0.602566,0.015133 z M 3.8945822,7.8775675 C 3.9655088,7.8453597 4.0332747,7.8032556 4.0451738,7.7840028 4.1295013,7.6475578 5.3521119,6.9897206 5.7890625,6.8456866 L 6,6.7761544 V 5.9818272 C 6,5.5449472 5.9960053,5.1875 5.9911225,5.1875 5.98624,5.1875 5.7577244,5.2628216 5.48331,5.3548812 5.1501666,5.4666431 4.7818853,5.6231112 4.375,5.8257584 3.7751794,6.1244959 3.09375,6.5422922 3.09375,6.6113147 c 0,0.019387 -0.030111,0.062037 -0.066914,0.094779 -0.1699418,0.1511922 -0.2368066,0.542115 -0.1346277,0.7870971 0.064073,0.1536207 0.2189369,0.3132629 0.3734162,0.3849385 0.1659328,0.07699 0.4587528,0.076728 0.6289577,-5.618e-4 z M 14.711941,5.5765412 c 0.153621,-0.064073 0.313263,-0.2189368 0.384939,-0.3734162 0.07651,-0.1649062 0.07677,-0.4591541 5.47e-4,-0.625 C 14.942302,4.2406084 14.259979,3.7711113 13.027709,3.1539791 12.256998,2.7680003 12.051072,2.6797439 11.457982,2.4812215 11.082528,2.3555474 10.625497,2.2230848 10.442357,2.1868599 10.259217,2.1506351 10.084766,2.1139184 10.054688,2.1052674 10.003645,2.0905866 10,2.1415133 10,2.8693459 v 0.7798075 l 0.148438,0.021454 c 0.08164,0.0118 0.429687,0.1137128 0.773437,0.2264734 0.963532,0.3160685 2.255149,0.9778128 2.921875,1.4969879 0.09453,0.073611 0.221094,0.1551334 0.28125,0.1811612 0.142862,0.061812 0.440292,0.062477 0.586941,0.00131 z M 2.0088162,5.4577525 C 2.0641235,5.4345162 2.2851563,5.2955475 2.5,5.1489328 2.7544571,4.9752853 3.1629606,4.7463656 3.671875,4.4922306 4.32417,4.1664963 4.5562891,4.0682594 5.078125,3.8970809 5.421875,3.7843203 5.7699219,3.6824075 5.8515625,3.6706075 L 6,3.6491534 V 2.8693459 C 6,2.1415133 5.996355,2.0905866 5.9453125,2.1052674 5.9152344,2.1139184 5.7407831,2.1506351 5.5576431,2.1868599 5.3745031,2.2230848 4.9174719,2.3555474 4.5420181,2.4812215 3.9484813,2.6798935 3.7431206,2.7679366 2.96875,3.15572 2.3649978,3.4580625 1.9472707,3.6904506 1.671875,3.8771919 1.1280966,4.2459194 1,4.4153037 1,4.765625 c 0,0.2995659 0.1581795,0.5526547 0.421875,0.6750047 0.1492141,0.069233 0.4425402,0.07779 0.5869412,0.017123 z"
         id="path853" />
      <path
         style="fill:#fefefe;stroke-width:0.03125"
         d="M 5.078125,10.31563 C 4.9236456,10.243954 4.7687822,10.084312 4.7047087,9.9306912 4.6433441,9.7835644 4.6423341,9.5000484 4.7026588,9.3556672 4.7611606,9.2156522 4.9990588,8.9489537 5.1678722,8.8341337 5.2882275,8.7522744 5.9481006,8.40625 5.9838544,8.40625 5.9927344,8.40625 6,8.7866119 6,9.2514991 v 0.8452489 l -0.085937,0.0785 C 5.6962147,10.374225 5.3351144,10.434868 5.078125,10.31563 Z M 10.375,10.34052 c -0.04297,-0.01679 -0.144895,-0.07566 -0.226502,-0.130831 l -0.148377,-0.10031 -6.3e-5,-0.8515625 c -3.1e-5,-0.4683594 0.0072,-0.8515625 0.01613,-0.8515625 0.0089,0 0.160078,0.072192 0.335937,0.1604256 0.751177,0.3768885 1.021071,0.6606775 1.021364,1.0739494 2.19e-4,0.30912 -0.169415,0.57189 -0.442803,0.685916 -0.12866,0.05366 -0.434423,0.06135 -0.555691,0.01397 z m 1.828125,-2.4041079 c -0.06875,-0.034221 -0.2375,-0.1466687 -0.375,-0.2498847 -0.277082,-0.2079947 -1.284317,-0.73188 -1.617187,-0.841135 L 10,6.7761544 V 5.9818272 C 10,5.5449472 10.004,5.1875 10.0089,5.1875 c 0.0049,0 0.233398,0.075323 0.507812,0.167385 0.57355,0.1924172 1.600891,0.6900072 2.059177,0.9973578 0.494806,0.3318428 0.672761,0.5734447 0.672761,0.9133822 0,0.3092125 -0.169655,0.5719338 -0.442937,0.6859162 -0.164083,0.068437 -0.44905,0.06128 -0.602566,-0.015133 z m -8.9375,-0.058278 C 3.1111457,7.8064541 2.9562821,7.6468119 2.8922088,7.4931912 2.7900299,7.2482091 2.8568947,6.8572862 3.0268365,6.7060941 3.0636389,6.6733522 3.09375,6.6307016 3.09375,6.6113147 3.09375,6.5422922 3.7751794,6.1244959 4.375,5.8257584 4.7818853,5.6231112 5.1501666,5.4666431 5.48331,5.3548812 5.7577244,5.2628216 5.98624,5.1875 5.9911225,5.1875 5.9960053,5.1875 6,5.5449472 6,5.9818272 V 6.7761544 L 5.7890625,6.8456866 C 5.3521119,6.9897206 4.1295012,7.6475578 4.0451737,7.7840028 4.0332747,7.8032556 3.9655087,7.8453597 3.8945822,7.8775675 3.7243778,7.9548578 3.4315578,7.9551194 3.265625,7.87813 Z M 14.125,5.57523 C 14.064844,5.5492022 13.938281,5.4676794 13.84375,5.3940688 13.46165,5.09653 13.067241,4.8619966 12.325695,4.4913634 11.674993,4.1661353 11.444061,4.0683741 10.921875,3.8970809 10.578125,3.7843203 10.230078,3.6824075 10.148438,3.6706075 L 10,3.6491534 V 2.8693459 c 0,-0.7278326 0.0036,-0.7787593 0.05469,-0.7640785 0.03008,0.00865 0.204529,0.045368 0.387669,0.081593 0.18314,0.036225 0.640171,0.1686875 1.015625,0.2943616 0.59309,0.1985224 0.799016,0.2867788 1.569726,0.6727576 1.232271,0.6171322 1.914593,1.0866293 2.069718,1.4241459 0.07622,0.1658459 0.07597,0.4600938 -5.47e-4,0.625 -0.07167,0.1544794 -0.231317,0.3093428 -0.384938,0.3734162 -0.146649,0.061166 -0.44408,0.060501 -0.586941,-0.00131 z M 1.421875,5.4406297 C 1.1581795,5.3182797 1,5.0651909 1,4.765625 1,4.4153037 1.1280966,4.2459194 1.671875,3.8771919 1.9472707,3.6904506 2.3649978,3.4580625 2.96875,3.15572 3.7431206,2.7679366 3.9484813,2.6798935 4.5420181,2.4812215 4.9174719,2.3555474 5.3745031,2.2230847 5.5576431,2.1868599 5.7407831,2.1506351 5.9152344,2.1139184 5.9453125,2.1052674 5.996355,2.0905866 6,2.1415132 6,2.8693459 V 3.6491534 L 5.8515625,3.6706075 C 5.7699219,3.6824075 5.421875,3.7843203 5.078125,3.8970809 4.5562891,4.0682594 4.32417,4.1664962 3.671875,4.4922306 3.1629606,4.7463656 2.7544571,4.9752853 2.5,5.1489328 2.2851563,5.2955475 2.0641235,5.4345162 2.0088162,5.4577525 1.8644152,5.5184194 1.5710891,5.5098622 1.421875,5.4406297 Z"
         id="path851" />
      <path
         style="fill:#fe0000;stroke-width:0.03125"
         d="M 7.5625,14.951405 C 6.8323191,14.794581 6.2007041,14.157179 6.0468547,13.421875 5.7497344,12.001823 7.0018228,10.749734 8.421875,11.046855 c 0.7429125,0.155441 1.3758291,0.788358 1.5312703,1.53127 0.2981897,1.425161 -0.9652462,2.67942 -2.3906453,2.37328 z M 7,5.5 V 1 H 8 9 V 5.5 10 H 8 7 Z"
         id="path849" />
    </g>
  </g>
</svg>
