<?xml version="1.0" encoding="UTF-8" standalone="no"?>
<!-- Created with Inkscape (http://www.inkscape.org/) -->

<svg
   xmlns:dc="http://purl.org/dc/elements/1.1/"
   xmlns:cc="http://creativecommons.org/ns#"
   xmlns:rdf="http://www.w3.org/1999/02/22-rdf-syntax-ns#"
   xmlns:svg="http://www.w3.org/2000/svg"
   xmlns="http://www.w3.org/2000/svg"
   xmlns:sodipodi="http://sodipodi.sourceforge.net/DTD/sodipodi-0.dtd"
   xmlns:inkscape="http://www.inkscape.org/namespaces/inkscape"
   version="1.1"
   id="svg2"
   width="16"
   height="16"
   viewBox="0 0 16 16"
   sodipodi:docname="X.svg"
   inkscape:version="0.92.4 (5da689c313, 2019-01-14)">
  <metadata
     id="metadata8">
    <rdf:RDF>
      <cc:Work
         rdf:about="">
        <dc:format>image/svg+xml</dc:format>
        <dc:type
           rdf:resource="http://purl.org/dc/dcmitype/StillImage" />
        <dc:title></dc:title>
      </cc:Work>
    </rdf:RDF>
  </metadata>
  <defs
     id="defs6" />
  <sodipodi:namedview
     pagecolor="#ffffff"
     bordercolor="#666666"
     borderopacity="1"
     objecttolerance="10"
     gridtolerance="10"
     guidetolerance="10"
     inkscape:pageopacity="0"
     inkscape:pageshadow="2"
     inkscape:window-width="828"
     inkscape:window-height="767"
     id="namedview4"
     showgrid="false"
     inkscape:zoom="14.75"
     inkscape:cx="8"
     inkscape:cy="8"
     inkscape:window-x="0"
     inkscape:window-y="0"
     inkscape:window-maximized="0"
     inkscape:current-layer="svg2" />
  <g
     id="X">
    <path
       style="fill:#ffffff;stroke-width:0.03125"
       d="M 0,8 V 0 h 8 8 v 8 8 H 8 0 Z m 4.8125,5.886233 C 4.9771772,13.83627 5.0475184,13.771176 6.4921875,12.331846 L 8,10.829605 9.5078125,12.331846 c 1.4830555,1.477575 1.5108905,1.503196 1.6953125,1.56043 0.232264,0.07208 0.416965,0.07166 0.657739,-0.0015 0.180039,-0.05471 0.214704,-0.08522 1.079699,-0.95021 0.864995,-0.864995 0.895503,-0.899661 0.95021,-1.079699 0.07316,-0.240775 0.07359,-0.425475 0.0015,-0.65774 -0.05723,-0.184421 -0.08285,-0.212256 -1.56043,-1.6953121 L 10.829605,8 12.331846,6.4921875 c 1.477575,-1.4830559 1.503196,-1.5108909 1.56043,-1.6953125 0.07208,-0.2322644 0.07166,-0.416965 -0.0015,-0.6577394 -0.05471,-0.1800384 -0.08522,-0.214704 -0.95021,-1.0796988 -0.864995,-0.8649947 -0.899661,-0.895503 -1.079699,-0.9502099 -0.240775,-0.073162 -0.425475,-0.073584 -0.65774,-0.0015 -0.184421,0.057234 -0.212256,0.082855 -1.6953121,1.5604301 L 8,5.1703953 6.4921875,3.6681544 C 5.0091316,2.1905789 4.9812966,2.1649583 4.796875,2.1077243 4.5646106,2.0356426 4.37991,2.0360646 4.1391356,2.1092268 3.9590972,2.1639337 3.9244316,2.194442 3.0594368,3.0594367 2.1944421,3.9244314 2.1639338,3.9590971 2.1092269,4.1391355 c -0.073162,0.2407744 -0.073584,0.425475 -0.0015,0.6577394 0.057234,0.1844215 0.082855,0.2122565 1.5604301,1.6953125 L 5.1703954,7.9999999 3.6681545,9.5078124 C 2.190579,10.990868 2.1649584,11.018703 2.1077244,11.203125 c -0.072197,0.232636 -0.071657,0.417376 0.00192,0.657739 0.054805,0.179032 0.089204,0.218514 0.9168693,1.052353 0.476867,0.480424 0.9095811,0.890158 0.9713936,0.919807 0.278399,0.133535 0.5017509,0.148125 0.8145906,0.05321 z"
       id="path823"
       inkscape:connector-curvature="0" />
    <path
       style="fill:#fefefe;stroke-width:0.03125"
       d="M 3.7499216,12.234297 3.0472392,11.531093 4.8125784,9.7655466 6.5779175,8 4.8124909,6.2343659 3.0470646,4.4687322 3.7578984,3.7578984 4.4687322,3.0470646 6.2343659,4.8124909 8,6.5779175 9.7656341,4.8124909 11.531268,3.0470646 12.242102,3.7578984 12.952935,4.4687322 11.187509,6.2343659 9.4220825,8 11.187509,9.7656341 12.952935,11.531268 12.242102,12.242102 11.531268,12.952935 9.7656341,11.187509 8,9.4220825 6.2420847,11.179791 C 5.2752312,12.146531 4.4770672,12.9375 4.4683869,12.9375 c -0.00868,0 -0.33199,-0.316442 -0.7184653,-0.703203 z"
       id="path821"
       inkscape:connector-curvature="0" />
    <path
       style="fill:#000000;stroke-width:0.03125"
       d="M 4.265625,13.924334 C 4.1796875,13.903519 4.0592156,13.86243 3.9979094,13.833024 3.9360969,13.803375 3.5033828,13.393641 3.0265158,12.913217 2.1988503,12.079378 2.1644515,12.039896 2.1096465,11.860864 2.036067,11.620502 2.0355271,11.435761 2.1077243,11.203125 2.1649583,11.018703 2.1905789,10.990868 3.6681544,9.5078125 L 5.1703953,8 3.6681544,6.4921875 C 2.1905789,5.0091316 2.1649583,4.9812966 2.1077243,4.796875 2.0356426,4.5646106 2.0360646,4.37991 2.1092268,4.1391356 2.1639337,3.9590972 2.194442,3.9244316 3.0594367,3.0594368 3.9244314,2.1944421 3.9590971,2.1639338 4.1391355,2.1092269 c 0.2407744,-0.073162 0.425475,-0.073584 0.6577394,-0.0015 0.1844215,0.057234 0.2122565,0.082855 1.6953125,1.5604301 L 7.9999999,5.1703954 9.5078124,3.6681545 C 10.990868,2.190579 11.018703,2.1649584 11.203125,2.1077244 c 0.232264,-0.072082 0.416965,-0.07166 0.657739,0.0015 0.180039,0.054707 0.214704,0.085215 1.079699,0.9502099 0.864995,0.8649948 0.895503,0.8996604 0.95021,1.0796988 0.07316,0.2407744 0.07358,0.425475 0.0015,0.6577394 -0.05723,0.1844216 -0.08285,0.2122566 -1.56043,1.6953125 L 10.829605,8 12.331846,9.5078125 c 1.477576,1.4830555 1.503196,1.5108905 1.56043,1.6953125 0.07208,0.232264 0.07166,0.416965 -0.0015,0.657739 -0.05471,0.180039 -0.08521,0.214704 -0.95021,1.079699 -0.864995,0.864995 -0.89966,0.895503 -1.079699,0.95021 -0.240774,0.07316 -0.425475,0.07359 -0.657739,0.0015 -0.184422,-0.05723 -0.212257,-0.08285 -1.6953126,-1.56043 L 8,10.829605 6.4921875,12.331846 C 5.0475184,13.771176 4.9771772,13.83627 4.8125,13.886233 c -0.2406338,0.07301 -0.3665366,0.08178 -0.546875,0.0381 z M 6.2420847,11.179791 8,9.4220825 9.7656341,11.187509 11.531268,12.952935 12.242102,12.242102 12.952935,11.531268 11.187509,9.7656341 9.4220825,8 11.187509,6.2343659 12.952935,4.4687322 12.242102,3.7578984 11.531268,3.0470646 9.7656341,4.8124909 8,6.5779175 6.2343659,4.8124909 4.4687322,3.0470646 3.7578984,3.7578984 3.0470646,4.4687322 4.8124909,6.2343659 6.5779175,8 4.8125784,9.7655466 3.0472392,11.531093 3.7499216,12.234297 c 0.3864753,0.386761 0.7097846,0.703203 0.7184653,0.703203 0.00868,0 0.8068443,-0.790969 1.7736978,-1.757709 z"
       id="path819"
       inkscape:connector-curvature="0" />
  </g>
</svg>
