<?xml version="1.0" encoding="UTF-8" standalone="no"?>
<!-- Created with Inkscape (http://www.inkscape.org/) -->

<svg
   xmlns:dc="http://purl.org/dc/elements/1.1/"
   xmlns:cc="http://creativecommons.org/ns#"
   xmlns:rdf="http://www.w3.org/1999/02/22-rdf-syntax-ns#"
   xmlns:svg="http://www.w3.org/2000/svg"
   xmlns="http://www.w3.org/2000/svg"
   xmlns:sodipodi="http://sodipodi.sourceforge.net/DTD/sodipodi-0.dtd"
   xmlns:inkscape="http://www.inkscape.org/namespaces/inkscape"
   version="1.1"
   id="svg2"
   width="16"
   height="16"
   viewBox="0 0 16 16"
   sodipodi:docname="ENVELOPE_MODIFIER.svg"
   inkscape:version="0.92.4 (5da689c313, 2019-01-14)">
  <metadata
     id="metadata8">
    <rdf:RDF>
      <cc:Work
         rdf:about="">
        <dc:format>image/svg+xml</dc:format>
        <dc:type
           rdf:resource="http://purl.org/dc/dcmitype/StillImage" />
        <dc:title></dc:title>
      </cc:Work>
    </rdf:RDF>
  </metadata>
  <defs
     id="defs6" />
  <sodipodi:namedview
     pagecolor="#ffffff"
     bordercolor="#666666"
     borderopacity="1"
     objecttolerance="10"
     gridtolerance="10"
     guidetolerance="10"
     inkscape:pageopacity="0"
     inkscape:pageshadow="2"
     inkscape:window-width="1045"
     inkscape:window-height="683"
     id="namedview4"
     showgrid="false"
     inkscape:zoom="14.75"
     inkscape:cx="8"
     inkscape:cy="8"
     inkscape:window-x="0"
     inkscape:window-y="0"
     inkscape:window-maximized="0"
     inkscape:current-layer="svg2" />
  <g
     id="ENVELOPE_MODIFIER">
    <path
       style="fill:#ffffff;stroke-width:0.03125"
       d="m 0,13 v -3 h 8 8 v 3 3 H 8 0 Z M 0,3 V 0 h 8 8 V 3 6 H 8 0 Z"
       id="path823"
       inkscape:connector-curvature="0" />
    <path
       style="fill:#fdfdfd;stroke-width:0.03125"
       d="M 0,9.5 V 9 H 2 4 V 8 7 H 2 0 V 6.5 6 h 8 8 V 6.5 7 h -2 -2 v 1 1 h 2 2 V 9.5 10 H 8 0 Z M 10,8 V 7 H 8 6 v 1 1 h 2 2 z"
       id="path821"
       inkscape:connector-curvature="0" />
    <path
       style="fill:#000000;stroke-width:0.03125"
       d="M 0,8 V 7 H 2 4 V 8 9 H 2 0 Z M 6,8 V 7 h 2 2 V 8 9 H 8 6 Z m 6,0 V 7 h 2 2 v 1 1 h -2 -2 z"
       id="path819"
       inkscape:connector-curvature="0" />
  </g>
</svg>
