<?xml version="1.0" encoding="UTF-8" standalone="no"?>
<!-- Created with Inkscape (http://www.inkscape.org/) -->

<svg
   xmlns:dc="http://purl.org/dc/elements/1.1/"
   xmlns:cc="http://creativecommons.org/ns#"
   xmlns:rdf="http://www.w3.org/1999/02/22-rdf-syntax-ns#"
   xmlns:svg="http://www.w3.org/2000/svg"
   xmlns="http://www.w3.org/2000/svg"
   xmlns:sodipodi="http://sodipodi.sourceforge.net/DTD/sodipodi-0.dtd"
   xmlns:inkscape="http://www.inkscape.org/namespaces/inkscape"
   version="1.1"
   id="svg2"
   width="16"
   height="16"
   viewBox="0 0 16 16"
   sodipodi:docname="GROUP_BONE.svg"
   inkscape:version="0.92.4 (5da689c313, 2019-01-14)">
  <metadata
     id="metadata8">
    <rdf:RDF>
      <cc:Work
         rdf:about="">
        <dc:format>image/svg+xml</dc:format>
        <dc:type
           rdf:resource="http://purl.org/dc/dcmitype/StillImage" />
        <dc:title></dc:title>
      </cc:Work>
    </rdf:RDF>
  </metadata>
  <defs
     id="defs6" />
  <sodipodi:namedview
     pagecolor="#ffffff"
     bordercolor="#666666"
     borderopacity="1"
     objecttolerance="10"
     gridtolerance="10"
     guidetolerance="10"
     inkscape:pageopacity="0"
     inkscape:pageshadow="2"
     inkscape:window-width="950"
     inkscape:window-height="767"
     id="namedview4"
     showgrid="false"
     inkscape:zoom="14.75"
     inkscape:cx="8"
     inkscape:cy="8"
     inkscape:window-x="0"
     inkscape:window-y="0"
     inkscape:window-maximized="0"
     inkscape:current-layer="svg2" />
  <g
     id="GROUP_BONE">
    <path
       style="fill:#ffffff;stroke-width:0.03125"
       d="M 0,8 V 0 h 8 8 v 8 8 H 8 0 Z m 9.8650469,7.432694 C 10.107779,15.341876 10.341876,15.107779 10.432694,14.865047 10.493801,14.701724 10.5,14.624353 10.5,14.025012 c 0,-0.534146 -0.01013,-0.69228 -0.05308,-0.828519 l -0.05307,-0.168375 1.311935,-1.311935 1.311935,-1.311935 0.135694,0.04788 c 0.10635,0.03752 0.28665,0.04788 0.833719,0.04788 0.835934,0 0.951062,-0.02787 1.218031,-0.294837 C 15.471241,9.9390853 15.5,9.8215303 15.5,9 15.5,8.1784697 15.471241,8.0609147 15.205163,7.7948369 14.940334,7.5300078 14.791137,7.4873912 14.085938,7.4751406 L 13.5,7.4649619 V 6.8742781 C 13.5,6.1582562 13.463922,6.0223459 13.205163,5.7635869 12.939085,5.4975091 12.82153,5.46875 12,5.46875 c -0.612386,0 -0.703193,0.00675 -0.854987,0.063542 -0.23888,0.089376 -0.434614,0.2729331 -0.557927,0.523215 l -0.102711,0.2084672 -0.0095,0.6829253 c -0.01063,0.7620837 0.0068,0.8642147 0.195573,1.1446969 L 10.772553,8.2433563 9.5034638,9.5091763 8.234375,10.774996 8.1139859,10.68542 C 8.0477719,10.63615 7.9152166,10.566519 7.8194188,10.530677 7.6587863,10.470577 7.5915322,10.466237 6.9546119,10.474937 l -0.6906288,0.0094 -0.2084715,0.102711 C 5.8052253,10.710398 5.6216697,10.90613 5.5322922,11.145013 5.4754987,11.296807 5.46875,11.387614 5.46875,12 c 0,0.82153 0.028759,0.939085 0.2948369,1.205163 C 6.0223459,13.463922 6.1582562,13.5 6.8742781,13.5 h 0.5906838 l 0.010179,0.585938 c 0.012252,0.705273 0.054854,0.854383 0.3198063,1.119335 0.2655362,0.265536 0.3701056,0.291161 1.1960684,0.293099 0.6364625,0.0015 0.7090878,-0.004 0.8740316,-0.06568 z m -5.01006,-4.964986 C 5.09387,10.37833 5.2896019,10.194775 5.4129141,9.9444884 L 5.515625,9.7360169 5.5250584,9.0453881 C 5.5337581,8.4084678 5.5294241,8.3412138 5.4693234,8.1805813 5.4334809,8.0847834 5.3638462,7.9522281 5.3145797,7.8860141 L 5.2250041,7.765625 6.4908238,6.4965363 7.7566437,5.2274475 7.9084034,5.3295741 c 0.2804822,0.1887506 0.3826132,0.2062 1.1446969,0.1955734 L 9.7360256,5.515625 9.9444928,5.4129141 C 10.194775,5.2896013 10.378332,5.0938666 10.467708,4.8549869 10.524501,4.7031931 10.53125,4.6123856 10.53125,4 10.53125,3.1784697 10.50249,3.0609147 10.236413,2.794837 9.9776541,2.5360779 9.8417437,2.5 9.1257219,2.5 H 8.5350381 L 8.5248594,1.9140625 C 8.5126088,1.2088627 8.4699922,1.059666 8.2051631,0.79483697 7.9390853,0.52875919 7.8215303,0.5 7,0.5 6.1784697,0.5 6.0609147,0.52875919 5.7948369,0.79483697 5.5305587,1.0591152 5.5,1.1814333 5.5,1.9749882 5.5,2.5091341 5.51013,2.6672684 5.553076,2.8035066 L 5.6061509,2.9718815 4.2942159,4.2838166 2.982281,5.5957516 2.8465865,5.5478759 C 2.7402373,5.5103537 2.5599377,5.5 2.0128683,5.5 1.1769342,5.5 1.0618059,5.5278678 0.79483697,5.7948369 0.52875919,6.0609147 0.5,6.1784697 0.5,7 0.5,7.8215303 0.52875919,7.9390853 0.79483697,8.2051631 1.059666,8.4699922 1.2088627,8.5126088 1.9140625,8.5248594 L 2.5,8.5350381 v 0.5906838 c 0,0.7160959 0.036065,0.8519187 0.2949469,1.1108011 0.2655363,0.265536 0.3701056,0.291161 1.1960684,0.293099 0.6238447,0.0015 0.7113391,-0.0048 0.8639716,-0.06191 z"
       id="path823"
       inkscape:connector-curvature="0" />
    <path
       style="fill:#fefefe;stroke-width:0.03125"
       d="M 8.2791194,14.927573 C 8.1790403,14.87465 8.1209141,14.813908 8.0632669,14.702006 7.987185,14.554319 7.9840372,14.524899 7.9748941,13.875995 L 7.9654131,13.203125 7.8672013,13.101563 7.7689897,13 H 7.07691 C 6.4147309,13 6.3789509,12.9969 6.2487506,12.92804 6.1557406,12.87886 6.0898956,12.813011 6.0407106,12.72 5.9730191,12.591993 5.96875,12.549279 5.96875,12 c 0,-0.550768 0.00412,-0.591714 0.0726,-0.721208 0.054302,-0.102688 0.1142716,-0.159059 0.2379434,-0.223665 0.1625516,-0.08492 0.17465,-0.08637 0.7164625,-0.08569 0.6541791,8.16e-4 0.7016982,0.01557 1.0200863,0.316697 0.1152825,0.109033 0.2158347,0.198242 0.2234494,0.198242 0.00761,0 0.7445375,-0.730617 1.6376059,-1.6235922 L 11.500659,8.2371906 11.351892,8.0828175 C 11.27007,7.9979122 11.177271,7.9011119 11.145671,7.8677056 10.996972,7.7105056 10.970161,7.5778547 10.969436,6.9957559 10.968761,6.4539434 10.970208,6.441845 11.055127,6.2792934 11.119733,6.1556216 11.176104,6.0956525 11.278792,6.04135 11.408286,5.9728719 11.449232,5.96875 12,5.96875 c 0.549279,0 0.591993,0.00427 0.719999,0.071961 0.09301,0.049185 0.158855,0.1150297 0.20804,0.20804 C 12.996891,6.3789509 13,6.4147309 13,7.07691 v 0.6920797 l 0.101563,0.098212 0.101562,0.098212 0.67287,0.00948 c 0.648904,0.00914 0.678324,0.012291 0.826011,0.088373 0.111902,0.057647 0.172644,0.1157734 0.225567,0.2158525 C 14.995838,8.4082103 15,8.4496331 15,9 15,9.5492791 14.9957,9.5919925 14.92804,9.7199994 14.87886,9.8130094 14.813011,9.8788544 14.72,9.9280394 14.591852,9.9958056 14.549538,10 13.994081,10 13.337236,10 13.276957,9.9869059 13.069029,9.7990556 L 12.943655,9.6857884 12.879141,9.7882066 C 12.794305,9.9228859 9.7715356,12.9375 9.7213281,12.9375 c -0.021284,0 0.010853,0.05789 0.071416,0.128643 C 9.9723009,13.275916 10,13.404986 10,14.031902 c 0,0.515979 -0.0047,0.560902 -0.071961,0.688097 -0.049185,0.09301 -0.1150297,0.158855 -0.20804,0.20804 C 9.5919925,14.995731 9.5492791,15 9,15 8.4496331,15 8.4082103,14.995838 8.2791194,14.927573 Z M 3.2800006,9.9592894 C 3.1869903,9.9101044 3.1211456,9.8442597 3.0719606,9.7512494 3.003109,9.6210491 3,9.5852691 3,8.92309 V 8.2310103 L 2.8984375,8.1327988 2.796875,8.0345869 2.1240052,8.0251059 C 1.4751012,8.0159628 1.4456808,8.012815 1.2979943,7.9367331 1.1860921,7.8790859 1.1253497,7.8209597 1.0724266,7.7208806 1.0041617,7.5917897 1,7.5503669 1,7 1,6.4507209 1.004269,6.4080075 1.0719606,6.2800006 1.1211456,6.1869903 1.1869904,6.1211456 1.2800007,6.0719606 1.4081482,6.0041944 1.4504615,6 2.0059188,6 2.6627643,6 2.7230436,6.0130941 2.9309712,6.2009444 L 3.0563447,6.3142116 3.1208592,6.2117934 C 3.2056953,6.0771141 6.2284644,3.0625 6.2786719,3.0625 6.2999559,3.0625 6.2678189,3.004611 6.2072559,2.9338566 6.0276991,2.7240843 6,2.5950144 6,1.9680983 6,1.4521189 6.0046981,1.4071963 6.0719606,1.2800007 6.1211456,1.1869904 6.1869903,1.1211456 6.2800006,1.0719606 6.4080075,1.004269 6.4507209,1 7,1 7.5503669,1 7.5917897,1.00416 7.7208806,1.072427 7.8209597,1.12535 7.8790859,1.1860925 7.9367331,1.2979947 c 0.076082,0.1476865 0.07923,0.1771069 0.088373,0.8260109 L 8.0345869,2.796875 8.1327988,2.8984375 8.2310103,3 H 8.92309 c 0.6621791,0 0.6979591,0.00311 0.8281594,0.071961 0.09301,0.049185 0.158855,0.1150297 0.20804,0.20804 C 10.026981,3.4080075 10.03125,3.4507209 10.03125,4 c 0,0.5507678 -0.0041,0.5917144 -0.0726,0.7212084 C 9.904347,4.8238962 9.8443784,4.8802666 9.7207066,4.9448734 9.558155,5.0297914 9.5460566,5.0312384 9.0042441,5.0305634 8.3533153,5.0297544 8.3015369,5.0140419 7.9953187,4.7244231 7.8861747,4.6211956 7.7828125,4.5347962 7.765625,4.5324244 7.7484375,4.5300525 7.0064925,5.2559191 6.1168581,6.1454609 L 4.4993413,7.7628094 4.6481081,7.9171825 c 0.081822,0.084905 0.1746213,0.1817056 0.206221,0.2151119 0.148699,0.1572 0.1755097,0.2898509 0.1762347,0.8719497 6.75e-4,0.5418125 -7.719e-4,0.5539109 -0.08569,0.7164625 C 4.8802666,9.8443784 4.8238963,9.9043475 4.7212084,9.95865 4.5917144,10.027128 4.5507678,10.03125 4,10.03125 c -0.5492791,0 -0.5919925,-0.0043 -0.7199994,-0.071961 z"
       id="path821"
       inkscape:connector-curvature="0" />
    <path
       style="fill:#323232;stroke-width:0.03125"
       d="M 8.1260784,15.431176 C 7.893985,15.342077 7.6579563,15.103272 7.5599656,14.858407 7.4923022,14.689324 7.4843672,14.617064 7.4751406,14.085937 L 7.4649619,13.5 H 6.8742781 C 6.1582562,13.5 6.0223459,13.463922 5.7635869,13.205163 5.4975091,12.939085 5.46875,12.82153 5.46875,12 c 0,-0.612386 0.00675,-0.703193 0.063542,-0.854987 0.089378,-0.238883 0.2729331,-0.434615 0.5232194,-0.557927 l 0.2084715,-0.102711 0.6906288,-0.0094 c 0.6369203,-0.0087 0.7041744,-0.0044 0.8648069,0.05574 0.095798,0.03584 0.2283531,0.105477 0.2945671,0.154743 L 8.234375,10.774996 9.5034638,9.5091763 10.772553,8.2433563 10.670426,8.0915966 C 10.481675,7.8111144 10.464226,7.7089834 10.474852,6.9468997 l 0.0095,-0.6829253 0.102711,-0.2084672 c 0.123336,-0.2502819 0.31907,-0.4338388 0.55795,-0.523215 C 11.296807,5.4754987 11.387614,5.46875 12,5.46875 c 0.82153,0 0.939085,0.028759 1.205163,0.2948369 C 13.463922,6.0223459 13.5,6.1582562 13.5,6.8742781 v 0.5906838 l 0.585938,0.010179 c 0.705199,0.012251 0.854396,0.054867 1.119225,0.3196963 C 15.471241,8.0609147 15.5,8.1784697 15.5,9 15.5,9.8215303 15.47124,9.9390853 15.205163,10.205163 14.938194,10.472132 14.823066,10.5 13.987132,10.5 c -0.547069,0 -0.727369,-0.01035 -0.833719,-0.04788 l -0.135694,-0.04788 -1.311935,1.311935 -1.311935,1.311935 0.05307,0.168375 c 0.04295,0.136239 0.05308,0.294373 0.05308,0.828519 0,0.793555 -0.03056,0.915873 -0.294837,1.180151 -0.2673324,0.267332 -0.3825611,0.295159 -1.2141477,0.293209 -0.6275256,-0.0015 -0.7105312,-0.0079 -0.8649369,-0.0672 z m 1.593921,-0.503137 c 0.09301,-0.04918 0.158855,-0.115029 0.20804,-0.20804 C 9.9953019,14.592804 10,14.547881 10,14.031902 10,13.404986 9.9723009,13.275916 9.7927438,13.066143 9.7321809,12.99539 9.7000441,12.9375 9.7213281,12.9375 c 0.050208,0 3.0729769,-3.0146141 3.1578129,-3.1492934 l 0.06451,-0.1024182 0.125374,0.1132672 C 13.276957,9.9869059 13.337236,10 13.994081,10 c 0.555457,0 0.597771,-0.00419 0.725918,-0.071961 0.09301,-0.049185 0.158855,-0.1150297 0.20804,-0.20804 C 14.995731,9.5919925 15,9.5492791 15,9 15,8.4496331 14.995838,8.4082103 14.927573,8.2791194 14.87465,8.1790403 14.813908,8.1209141 14.702006,8.0632669 14.554319,7.987185 14.524899,7.9840372 13.875995,7.9748941 L 13.203125,7.9654131 13.101563,7.8672013 13,7.7689897 V 7.07691 C 13,6.4147309 12.9969,6.3789509 12.92804,6.2487506 12.87886,6.1557406 12.813011,6.0898956 12.72,6.0407106 12.591993,5.9730191 12.549279,5.96875 12,5.96875 c -0.550768,0 -0.591714,0.00412 -0.721208,0.0726 -0.102688,0.054302 -0.159059,0.1142716 -0.223665,0.2379434 -0.08492,0.1625516 -0.08637,0.17465 -0.08569,0.7164625 7.25e-4,0.5820988 0.02754,0.7147497 0.176235,0.8719497 0.0316,0.033406 0.124399,0.1302066 0.206221,0.2151119 L 11.500659,8.2371906 9.8768975,9.8607828 C 8.9838291,10.753758 8.2469063,11.484375 8.2392916,11.484375 c -0.00761,0 -0.1081669,-0.08921 -0.2234494,-0.198242 C 7.6974541,10.985004 7.649935,10.970251 6.9957559,10.969436 6.4539434,10.968761 6.441845,10.970208 6.2792934,11.055127 6.1556216,11.119733 6.0956525,11.176104 6.04135,11.278792 5.9728719,11.408286 5.96875,11.449232 5.96875,12 c 0,0.549279 0.00427,0.591993 0.071961,0.719999 0.049185,0.09301 0.1150297,0.158855 0.20804,0.20804 C 6.3789509,12.996891 6.4147309,13 7.07691,13 h 0.6920797 l 0.098212,0.101563 0.098212,0.101562 0.00948,0.67287 c 0.00914,0.648904 0.012291,0.678324 0.088373,0.826011 0.057647,0.111902 0.1157734,0.172644 0.2158525,0.225567 C 8.4082103,14.995838 8.4496331,15 9,15 9.5492791,15 9.5919925,14.9957 9.7199994,14.928039 Z M 3.1260784,10.462426 C 2.892368,10.372706 2.6559235,10.133148 2.5673059,9.8962969 2.5071166,9.7354263 2.5,9.6539491 2.5,9.1257219 V 8.5350381 L 1.9140625,8.5248594 C 1.2088627,8.5126088 1.059666,8.4699922 0.79483697,8.2051631 0.52875919,7.9390853 0.5,7.8215303 0.5,7 0.5,6.1784697 0.52875919,6.0609147 0.79483697,5.7948369 1.0618059,5.5278678 1.1769342,5.5 2.0128683,5.5 c 0.5470694,0 0.727369,0.010354 0.8337182,0.047876 L 2.982281,5.5957516 4.2942159,4.2838166 5.6061509,2.9718815 5.5530756,2.8035066 C 5.5101303,2.6672684 5.5,2.5091341 5.5,1.9749882 5.5,1.1814333 5.5305587,1.0591152 5.7948369,0.79483697 6.0609147,0.52875919 6.1784697,0.5 7,0.5 7.8215303,0.5 7.9390853,0.52875919 8.2051631,0.79483697 8.4699922,1.059666 8.5126088,1.2088627 8.5248594,1.9140625 L 8.5350381,2.5 H 9.1257219 C 9.8417437,2.5 9.9776541,2.536078 10.236413,2.794837 10.502491,3.0609147 10.53125,3.1784697 10.53125,4 c 0,0.6123856 -0.0067,0.7031931 -0.06354,0.8549869 -0.08938,0.2388797 -0.272933,0.4346143 -0.5232152,0.5579272 L 9.7360256,5.515625 9.0531003,5.5251475 C 8.2910166,5.5357741 8.1888856,5.5183247 7.9084034,5.3295741 L 7.7566437,5.2274475 6.4908237,6.4965362 5.2250041,7.765625 5.3145797,7.8860141 c 0.049266,0.066214 0.1189012,0.1987693 0.1547437,0.2945672 0.060101,0.1606325 0.064435,0.2278865 0.055735,0.8648068 L 5.515625,9.7360169 5.4129141,9.9444884 C 5.2896019,10.194775 5.09387,10.37833 4.8549869,10.467708 c -0.1526325,0.05711 -0.2401269,0.06338 -0.8639716,0.06191 -0.6275256,-0.0015 -0.7105312,-0.0079 -0.8649369,-0.0672 z M 4.7212084,9.95865 C 4.8238962,9.9043475 4.8802666,9.8443784 4.9448734,9.7207066 5.0297912,9.558155 5.0312384,9.5460566 5.0305637,9.0042441 5.0298387,8.4221453 5.0030281,8.2894944 4.8543291,8.1322944 4.8227294,8.0988881 4.72993,8.0020878 4.6481081,7.9171825 L 4.4993412,7.7628094 6.1168581,6.1454609 C 7.0064925,5.2559191 7.7484375,4.5300528 7.765625,4.5324244 c 0.017188,0.00237 0.1205497,0.088771 0.2296937,0.1919987 0.3062182,0.2896188 0.3579966,0.30533 1.0089254,0.3061406 0.5418125,6.75e-4 0.5539109,-7.718e-4 0.7164625,-0.08569 C 9.8443784,4.8802666 9.9043475,4.8238962 9.95865,4.7212084 10.027128,4.5917144 10.03125,4.5507678 10.03125,4 10.03125,3.4507209 10.02695,3.4080075 9.959289,3.2800006 9.910104,3.1869906 9.8442593,3.1211456 9.751249,3.0719606 9.6210491,3.003109 9.5852691,3 8.92309,3 H 8.2310103 L 8.1327988,2.8984375 8.0345869,2.796875 8.0251059,2.1240052 C 8.0159628,1.4751012 8.012815,1.4456808 7.9367331,1.2979943 7.8790859,1.1860921 7.8209597,1.1253497 7.7208806,1.0724266 7.5917897,1.0041617 7.5503669,1 7,1 6.4507209,1 6.4080075,1.004269 6.2800006,1.0719606 6.1869903,1.1211456 6.1211456,1.1869904 6.0719606,1.2800007 6.0046981,1.4071962 6,1.4521189 6,1.9680983 c 0,0.6269161 0.027699,0.755986 0.2072563,0.9657583 0.060563,0.070754 0.0927,0.1286434 0.071416,0.1286434 -0.050207,0 -3.0729766,3.0146141 -3.1578127,3.1492934 L 3.0563447,6.3142116 2.9309712,6.2009444 C 2.7230436,6.0130941 2.6627643,6 2.0059188,6 1.4504615,6 1.4081482,6.0041944 1.2800007,6.0719606 1.1869904,6.1211456 1.1211456,6.1869903 1.0719606,6.2800006 1.004269,6.4080075 1,6.4507209 1,7 1,7.5503669 1.00416,7.5917897 1.072427,7.7208806 1.12535,7.8209597 1.1860925,7.8790859 1.2979947,7.9367331 c 0.1476865,0.076082 0.1771069,0.07923 0.8260109,0.088373 L 2.796875,8.0345869 2.8984375,8.1327988 3,8.2310103 V 8.92309 c 0,0.6621791 0.00311,0.6979591 0.071961,0.8281594 0.049185,0.09301 0.1150297,0.158855 0.20804,0.20804 C 3.4080075,10.026981 3.4507209,10.03125 4,10.03125 c 0.5507678,0 0.5917144,-0.0041 0.7212084,-0.0726 z"
       id="path819"
       inkscape:connector-curvature="0" />
  </g>
</svg>
