<?xml version="1.0" encoding="UTF-8" standalone="no"?>
<!-- Created with Inkscape (http://www.inkscape.org/) -->

<svg
   xmlns:dc="http://purl.org/dc/elements/1.1/"
   xmlns:cc="http://creativecommons.org/ns#"
   xmlns:rdf="http://www.w3.org/1999/02/22-rdf-syntax-ns#"
   xmlns:svg="http://www.w3.org/2000/svg"
   xmlns="http://www.w3.org/2000/svg"
   xmlns:sodipodi="http://sodipodi.sourceforge.net/DTD/sodipodi-0.dtd"
   xmlns:inkscape="http://www.inkscape.org/namespaces/inkscape"
   version="1.1"
   id="svg2"
   width="16"
   height="16"
   viewBox="0 0 16 16"
   sodipodi:docname="LIBRARY_DATA_INDIRECT.svg"
   inkscape:version="0.92.4 (5da689c313, 2019-01-14)">
  <metadata
     id="metadata8">
    <rdf:RDF>
      <cc:Work
         rdf:about="">
        <dc:format>image/svg+xml</dc:format>
        <dc:type
           rdf:resource="http://purl.org/dc/dcmitype/StillImage" />
        <dc:title></dc:title>
      </cc:Work>
    </rdf:RDF>
  </metadata>
  <defs
     id="defs6" />
  <sodipodi:namedview
     pagecolor="#ffffff"
     bordercolor="#666666"
     borderopacity="1"
     objecttolerance="10"
     gridtolerance="10"
     guidetolerance="10"
     inkscape:pageopacity="0"
     inkscape:pageshadow="2"
     inkscape:window-width="1239"
     inkscape:window-height="919"
     id="namedview4"
     showgrid="false"
     inkscape:zoom="14.75"
     inkscape:cx="8"
     inkscape:cy="8"
     inkscape:window-x="0"
     inkscape:window-y="0"
     inkscape:window-maximized="0"
     inkscape:current-layer="svg2" />
  <g
     id="LIBRARY_DATA_INDIRECT">
    <path
       style="fill:#ffffff;stroke-width:0.03125"
       d="M 0,8 V 0 h 8 8 v 8 8 H 8 0 Z m 13.994486,1.9609375 -0.01123,-5.0390625 -0.06792,-0.125 C 13.87798,4.728125 13.761298,4.5827416 13.656043,4.4738006 L 13.46467,4.2757262 13.7589,3.9725072 c 0.370129,-0.3814356 0.441516,-0.5361488 0.441516,-0.9568822 0,-0.3859889 -0.08135,-0.5895235 -0.338306,-0.8464847 -0.256962,-0.2569613 -0.460496,-0.3383058 -0.846485,-0.3383058 -0.419347,0 -0.576958,0.072209 -0.950271,0.4353583 L 11.769513,2.5539799 11.064444,1.8366138 C 10.676656,1.4420626 10.307201,1.0924171 10.243433,1.0596239 10.131104,1.0018587 10.000804,1 6.063745,1 H 2 v 5.6712172 5.6712168 l -0.078125,0.23273 c -0.1006538,0.299843 -0.1006538,0.518579 0,0.818422 C 1.9957794,13.613743 2,13.663421 2,14.313158 V 15 h 6.0028575 6.0028575 z"
       id="path831"
       inkscape:connector-curvature="0" />
    <path
       style="fill:#fefefe;stroke-width:0.03125"
       d="M 5.2184244,12.515625 6.7039928,11.03125 h 0.6475706 0.6475707 l 0.00825,1.000854 0.00825,1.000855 1.9999999,-1.74974 c 1.1,-0.962357 2,-1.7643049 2,-1.7821071 0,-0.017803 -0.452037,-0.4241728 -1.004527,-0.9030457 L 10.006571,7.7273881 10.870679,6.8636941 11.734786,6 H 12.367393 13 v 4 4 H 8.3664278 3.7328559 Z M 3,11.178382 V 11.03125 h 0.140625 c 0.077344,0 0.140625,0.0041 0.140625,0.0091 0,0.005 -0.063281,0.07122 -0.140625,0.147132 L 3,11.325513 Z M 3,5 V 2 H 6 9 V 3.6645134 5.3290269 L 8.5946047,5.7335222 8.1892094,6.1380175 8.0946047,6.0680731 8,5.9981291 v 0.165215 0.165215 L 7.1638494,7.1642797 6.3276987,8 H 4.6638494 3 Z M 10,3.2723047 V 2.2171948 l 0.507813,0.5189112 c 0.279296,0.2854012 0.511368,0.5284493 0.515713,0.5401065 0.0043,0.011657 -0.224169,0.2529469 -0.507812,0.5361987 L 10,4.3274147 Z"
       id="path829"
       inkscape:connector-curvature="0" />
    <path
       style="fill:#989898;stroke-width:0.03125"
       d="M 8,12.033518 V 11.03125 H 7.3516741 6.7033481 L 8.34375,9.390625 C 9.2459709,8.4882813 9.9952281,7.75 10.008766,7.75 c 0.03027,0 2.022484,1.7248453 2.022484,1.7510534 0,0.016357 -3.76902,3.3269326 -3.9593756,3.4777776 L 8,13.035786 Z M 3,9.515625 V 8 H 4.6639416 6.3278834 L 4.8125,9.515625 3.2971166,11.03125 H 3.1485584 3 Z M 8,6.1553144 V 5.9981291 l 0.093877,0.069406 0.093877,0.069406 -0.084098,0.087779 C 8.0574009,6.2729991 8.0151566,6.3125 8.0097784,6.3125 8.0044003,6.3125 8,6.2417666 8,6.1553144 Z"
       id="path827"
       inkscape:connector-curvature="0" />
    <path
       style="fill:#909090;stroke-width:0.03125"
       d="M 12.234375,5.5 C 12.723174,5.0104834 12.736435,5 12.866821,5 H 13 V 5.5 6 H 12.367554 11.735108 Z M 9,3.6636963 V 2 H 9.5 10 V 3.1644288 4.3288575 L 9.5,4.828125 9,5.3273925 Z"
       id="path825"
       inkscape:connector-curvature="0" />
    <path
       style="fill:#fe0000;stroke-width:0.03125"
       d="M 2.8346027,13.638496 C 2.5102681,13.535817 2.294638,13.165854 2.3743402,12.848812 c 0.020144,-0.08013 0.06304,-0.187875 0.095326,-0.239437 0.032286,-0.05156 2.3339594,-2.367376 5.1148301,-5.1462516 l 5.0561287,-5.0525018 0.182438,-0.052078 c 0.150958,-0.043092 0.207578,-0.04585 0.328125,-0.015989 0.291048,0.072098 0.463324,0.244545 0.536972,0.5375067 0.03046,0.1211654 0.02786,0.1763937 -0.01545,0.328125 L 13.620629,3.390625 8.5525022,8.4616388 C 5.1242656,11.891828 3.4439288,13.552217 3.359375,13.593116 3.18207,13.67888 3.0093443,13.693817 2.8346027,13.638496 Z"
       id="path823"
       inkscape:connector-curvature="0" />
    <path
       style="fill:#323232;stroke-width:0.03125"
       d="m 2,14.315393 v -0.684606 l 0.1953125,0.195154 c 0.2618944,0.261681 0.4629995,0.342923 0.8515625,0.344013 0.2364941,6.63e-4 0.3139641,-0.0128 0.4868269,-0.08458 L 3.7392788,14 H 8.3696394 13 V 9.5017969 5.0035937 l -0.125849,-0.00961 -0.12585,-0.00961 0.356958,-0.3556084 0.356959,-0.3556088 0.192599,0.1993588 c 0.10593,0.1096472 0.223163,0.2556084 0.260519,0.3243584 l 0.06792,0.125 0.01123,5.0390625 L 14.005715,15 H 8.0028575 2 Z M 2,6.6677472 V 1 h 4.063745 c 3.939708,0 4.067284,0.00182 4.179688,0.059732 C 10.35093,1.115113 11.75,2.5047044 11.75,2.556092 c 0,0.012679 -0.158985,0.1815861 -0.353299,0.3753495 l -0.3533,0.3522974 -0.5217,-0.5331058 C 10.048977,2.267576 10,2.2073168 10,2.1087638 V 2 H 6.5 3 L 2.9994711,6.6640625 2.9989423,11.328125 2.4994711,11.83181 2,12.335494 Z"
       id="path821"
       inkscape:connector-curvature="0" />
    <path
       style="fill:#7f0000;stroke-width:0.03125"
       d="M 2.6823866,14.129393 C 2.4437626,14.050575 2.3106485,13.963756 2.1436649,13.77803 1.940002,13.551508 1.8620845,13.331892 1.8620845,12.984375 c 0,-0.219137 0.015972,-0.322658 0.072322,-0.46875 0.06961,-0.180468 0.266462,-0.38164 5.2486452,-5.3638231 4.9821833,-4.9821832 5.1833553,-5.1790355 5.3638233,-5.2486452 0.266412,-0.1027599 0.674805,-0.1020135 0.9375,0.00171 0.257387,0.1016309 0.540374,0.3846181 0.642005,0.642005 0.103727,0.2626951 0.104473,0.6710884 0.0017,0.9375 -0.0696,0.1804712 -0.26645,0.3816431 -5.2486328,5.3638265 -5.0202616,5.0202628 -5.181975,5.1784338 -5.3638222,5.2463398 -0.2590369,0.09673 -0.6024221,0.111094 -0.8332384,0.03486 z M 3.359375,13.593116 c 0.084554,-0.0409 1.7648906,-1.701288 5.1931272,-5.1314772 L 13.620629,3.390625 13.672707,3.2081866 C 13.716019,3.0564553 13.71862,3.001227 13.68816,2.8800616 13.614512,2.5870999 13.442236,2.4146527 13.151188,2.3425549 13.030641,2.3126931 12.974021,2.3154521 12.823063,2.3585436 L 12.640625,2.4106216 7.5844966,7.4631234 C 4.8036259,10.241999 2.5019524,12.557813 2.4696665,12.609375 c -0.1746874,0.278986 -0.1368393,0.629702 0.092729,0.859271 0.2144201,0.21442 0.5142216,0.261242 0.7969795,0.12447 z"
       id="path819"
       inkscape:connector-curvature="0" />
  </g>
</svg>
