<?xml version="1.0" encoding="UTF-8" standalone="no"?>
<!-- Created with Inkscape (http://www.inkscape.org/) -->

<svg
   xmlns:dc="http://purl.org/dc/elements/1.1/"
   xmlns:cc="http://creativecommons.org/ns#"
   xmlns:rdf="http://www.w3.org/1999/02/22-rdf-syntax-ns#"
   xmlns:svg="http://www.w3.org/2000/svg"
   xmlns="http://www.w3.org/2000/svg"
   xmlns:sodipodi="http://sodipodi.sourceforge.net/DTD/sodipodi-0.dtd"
   xmlns:inkscape="http://www.inkscape.org/namespaces/inkscape"
   version="1.1"
   id="svg2"
   width="16.000002"
   height="16"
   viewBox="0 0 16.000002 16"
   sodipodi:docname="NODE_COMPOSITING.svg"
   inkscape:version="0.92.4 (5da689c313, 2019-01-14)">
  <metadata
     id="metadata8">
    <rdf:RDF>
      <cc:Work
         rdf:about="">
        <dc:format>image/svg+xml</dc:format>
        <dc:type
           rdf:resource="http://purl.org/dc/dcmitype/StillImage" />
        <dc:title></dc:title>
      </cc:Work>
    </rdf:RDF>
  </metadata>
  <defs
     id="defs6" />
  <sodipodi:namedview
     pagecolor="#ffffff"
     bordercolor="#666666"
     borderopacity="1"
     objecttolerance="10"
     gridtolerance="10"
     guidetolerance="10"
     inkscape:pageopacity="0"
     inkscape:pageshadow="2"
     inkscape:window-width="1288"
     inkscape:window-height="980"
     id="namedview4"
     showgrid="false"
     inkscape:zoom="30.405588"
     inkscape:cx="6.6032342"
     inkscape:cy="9.0018186"
     inkscape:window-x="0"
     inkscape:window-y="0"
     inkscape:window-maximized="0"
     inkscape:current-layer="svg2"
     fit-margin-top="0"
     fit-margin-left="0"
     fit-margin-right="0"
     fit-margin-bottom="0" />
  <g
     id="NODE_COMPOSITING"
     transform="translate(0,-530.1333)">
    <path
       style="fill:#ffffff;stroke-width:0.03125"
       d="m 0,538.1333 v -8 h 8.0000009 8.0000011 v 8 8 H 8.0000009 0 Z m 15.000002,2 v -5 h -1 -1 v -1 -1 h -1.000001 -1 v -1 -1 H 6.0000007 1.0000001 v 5 5 h 1.0000001 1 v 1 1 h 1.0000001 1.0000004 v 1 1 h 5.0000003 5.000001 z"
       id="path855"
       inkscape:connector-curvature="0" />
    <path
       style="fill:#f7f7f7;stroke-width:0.03125"
       d="m 8.0937509,535.11664 c 0,-0.0701 0.1940543,-0.37136 0.3329848,-0.51702 0.3700688,-0.38798 0.9252488,-0.55029 1.4313419,-0.41847 0.4037324,0.10516 0.7888034,0.40698 0.9664174,0.75748 0.04497,0.0887 0.08176,0.16884 0.08176,0.17801 0,0.009 -0.632812,0.0167 -1.4062499,0.0167 -0.7734376,0 -1.4062502,-0.007 -1.4062502,-0.0167 z"
       id="path853"
       inkscape:connector-curvature="0" />
    <path
       style="fill:#dfdfdf;stroke-width:0.03125"
       d="m 4.0000003,540.6333 v -1.5 h 0.5000002 0.5000002 v 1.5 1.5 H 4.5000005 4.0000003 Z"
       id="path851"
       inkscape:connector-curvature="0" />
    <path
       style="fill:#afafaf;stroke-width:0.03125"
       d="m 3.5000004,538.1333 v -4.5 h 4.5000005 4.5000001 v 0.75 0.75 l -0.789062,-1.2e-4 -0.789063,-1.1e-4 -0.103429,-0.20004 c -0.243231,-0.47039 -0.786159,-0.79971 -1.3184459,-0.79971 -0.5322874,0 -1.0752151,0.32932 -1.3184454,0.79973 l -0.1034297,0.20004 -1.5390627,1.1e-4 -1.5390626,1.2e-4 v 2 2 H 4.5000005 4.0000003 v 1.5 1.5 h 0.5000002 0.5000002 v 0.25 0.25 H 4.2500005 3.5000004 Z"
       id="path849"
       inkscape:connector-curvature="0" />
    <path
       style="fill:#65a4fe;stroke-width:0.03125"
       d="m 5.5000005,540.1333 v -4.5 h 4.5000005 4.5 v 4.5 4.5 h -4.5 -4.5000005 z m 8.5000015,2.5 v -1.5 H 10.000001 6.0000007 v 1.5 1.5 h 4.0000003 4.000001 z m -2.141924,-3.54785 c 0.538975,-0.14038 0.954157,-0.55689 1.095309,-1.09881 0.202408,-0.7771 -0.29501,-1.59704 -1.095309,-1.80549 -0.781981,-0.20368 -1.601162,0.29142 -1.810227,1.09407 -0.2785275,1.06934 0.740888,2.08876 1.810227,1.81023 z"
       id="path847"
       inkscape:connector-curvature="0" />
    <path
       style="fill:#fefe00;stroke-width:0.03125"
       d="m 11.128512,539.08391 c -0.792369,-0.2131 -1.2825642,-1.03353 -1.080661,-1.80869 0.209065,-0.80265 1.028246,-1.29775 1.810227,-1.09407 0.800299,0.20845 1.297717,1.02839 1.095309,1.80549 -0.210975,0.80998 -1.039866,1.30838 -1.824875,1.09727 z m -5.0347613,-5.96727 c 0,-0.0701 0.1940544,-0.37136 0.3329846,-0.51702 0.3700688,-0.38798 0.9252491,-0.55029 1.4313421,-0.41847 0.4037318,0.10516 0.7888036,0.40698 0.9664177,0.75748 0.044966,0.0887 0.081756,0.16884 0.081756,0.17801 0,0.009 -0.6328126,0.0167 -1.4062502,0.0167 -0.7734373,0 -1.40625,-0.007 -1.4062502,-0.0167 z"
       id="path845"
       inkscape:connector-curvature="0" />
    <path
       style="fill:#59fe42;stroke-width:0.03125"
       d="m 6.0000007,542.6333 v -1.5 h 4.0000003 4.000001 v 1.5 1.5 H 10.000001 6.0000007 Z"
       id="path843"
       inkscape:connector-curvature="0" />
    <path
       style="fill:#fe8800;stroke-width:0.03125"
       d="m 2.0000002,538.6333 v -1.5 h 0.5000001 0.4999999 v 1.5 1.5 H 2.5000003 2.0000002 Z"
       id="path841"
       inkscape:connector-curvature="0" />
    <path
       style="fill:#23fe00;stroke-width:0.03125"
       d="m 1.5000002,536.1333 v -4.5 h 4.5000005 4.5000003 v 0.75 0.75 l -0.7890623,-1.2e-4 -0.7890629,-1.1e-4 -0.1034297,-0.20004 c -0.2432303,-0.47041 -0.786158,-0.79973 -1.3184454,-0.79973 -0.5322871,0 -1.0752151,0.32932 -1.3184454,0.79973 l -0.1034298,0.20004 -1.5390626,1.1e-4 -1.5390627,1.2e-4 v 2 2 H 2.5000003 2.0000002 v 1.5 1.5 h 0.5000001 0.4999999 v 0.25 0.25 h -0.75 -0.75 z"
       id="path839"
       inkscape:connector-curvature="0" />
    <path
       style="fill:#000000;stroke-width:0.03125"
       d="m 5.0000007,544.1333 v -1 H 4.0000003 3.0000002 v -1 -1 h -1 -1.0000001 v -5 -5 h 5.0000006 5.0000003 v 1 1 h 1 1.000001 v 1 1 h 1 1 v 5 5 H 10.000001 5.0000007 Z m 9.5000003,-4 v -4.5 h -4.5 -4.5000005 v 4.5 4.5 h 4.5000005 4.5 z m -9.5000003,-1.25 v -3.75 h 3.7500003 3.75 v -0.75 -0.75 H 8.0000009 3.5000004 v 4.5 4.5 h 0.7500001 0.7500002 z m -2.0000005,-2 v -3.75 h 3.7500007 3.7500001 v -0.75 -0.75 H 6.0000007 1.5000002 v 4.5 4.5 h 0.75 0.75 z"
       id="path837"
       inkscape:connector-curvature="0" />
  </g>
</svg>
