<?xml version="1.0" encoding="UTF-8" standalone="no"?>
<!-- Created with Inkscape (http://www.inkscape.org/) -->

<svg
   xmlns:dc="http://purl.org/dc/elements/1.1/"
   xmlns:cc="http://creativecommons.org/ns#"
   xmlns:rdf="http://www.w3.org/1999/02/22-rdf-syntax-ns#"
   xmlns:svg="http://www.w3.org/2000/svg"
   xmlns="http://www.w3.org/2000/svg"
   xmlns:sodipodi="http://sodipodi.sourceforge.net/DTD/sodipodi-0.dtd"
   xmlns:inkscape="http://www.inkscape.org/namespaces/inkscape"
   version="1.1"
   id="svg2"
   width="16"
   height="16"
   viewBox="0 0 16 16"
   sodipodi:docname="POSE_FROM_BREAKDOWN.svg"
   inkscape:version="0.92.4 (5da689c313, 2019-01-14)">
  <metadata
     id="metadata8">
    <rdf:RDF>
      <cc:Work
         rdf:about="">
        <dc:format>image/svg+xml</dc:format>
        <dc:type
           rdf:resource="http://purl.org/dc/dcmitype/StillImage" />
        <dc:title></dc:title>
      </cc:Work>
    </rdf:RDF>
  </metadata>
  <defs
     id="defs6" />
  <sodipodi:namedview
     pagecolor="#ffffff"
     bordercolor="#666666"
     borderopacity="1"
     objecttolerance="10"
     gridtolerance="10"
     guidetolerance="10"
     inkscape:pageopacity="0"
     inkscape:pageshadow="2"
     inkscape:window-width="828"
     inkscape:window-height="480"
     id="namedview4"
     showgrid="false"
     inkscape:zoom="7.375"
     inkscape:cx="0.54216635"
     inkscape:cy="8.8676979"
     inkscape:window-x="0"
     inkscape:window-y="0"
     inkscape:window-maximized="0"
     inkscape:current-layer="svg2" />
  <g
     id="POSE_FROM_BREAKDOWN">
    <path
       style="fill:#ffffff;stroke-width:0.03125"
       d="M 0,8 V 0 h 8 8 v 8 8 L 11.585938,15.9985 C 7.5320034,15.9971 7.1833344,15.993 7.3123316,15.94787 c 0.3105503,-0.108652 0.5369593,-0.339912 0.6392,-0.652895 0.044618,-0.136586 0.049411,-0.379208 0.041633,-2.107481 l -0.00879,-1.953126 -0.077379,-0.15625 C 7.8080872,10.878402 7.6205944,10.691207 7.421875,10.593774 c -0.22434,-0.109995 -0.61941,-0.109995 -0.84375,0 -0.1987194,0.09743 -0.3862122,0.284628 -0.4851206,0.484351 l -0.077379,0.15625 -0.00879,1.953125 c -0.00778,1.728273 -0.00298,1.970895 0.041633,2.107481 0.1022407,0.312983 0.3286497,0.544243 0.6392,0.652894 0.1293682,0.04526 -0.1290687,0.04926 -3.2736059,0.05063 L 0,16 Z m 12.428376,6.902936 c 0.212432,-0.101903 0.369942,-0.262438 0.483148,-0.492432 0.105941,-0.215232 0.103349,-0.61709 -0.0053,-0.826691 -0.110657,-0.213415 -2.794236,-2.896115 -2.9968736,-2.995894 -0.2111963,-0.103993 -0.6129256,-0.101163 -0.8311944,0.0059 -0.5692706,0.279115 -0.7439856,0.961755 -0.38342,1.498082 0.1591472,0.236725 2.635687,2.703441 2.808806,2.797664 0.300911,0.163776 0.602301,0.168148 0.924865,0.01342 z M 8.421875,10.403763 c 0.1971844,-0.09357 0.3854078,-0.280541 0.4851206,-0.481888 l 0.077379,-0.15625 0.00983,-1.796875 c 0.00915,-1.6724356 0.013194,-1.7871478 0.058445,-1.6564184 0.1071765,0.3096262 0.3390969,0.536864 0.6523722,0.6392 0.1365856,0.044618 0.3792072,0.049411 2.1074802,0.041633 l 1.953125,-0.00879 0.15625,-0.077379 C 14.121598,6.8080872 14.308793,6.6205944 14.406226,6.421875 14.469276,6.2932819 14.482836,6.2186084 14.482836,6 c 0,-0.2186084 -0.01356,-0.2932819 -0.07661,-0.421875 C 14.308793,5.3794056 14.121598,5.1919128 13.921875,5.0930044 L 13.765625,5.015625 11.8125,5.0068353 C 10.084227,4.9990578 9.841605,5.0038509 9.7050194,5.0484684 9.3932006,5.1503287 9.1477366,5.3905053 9.0564187,5.6830978 9.0342063,5.7542691 9.0088178,5.8125 9,5.8125 8.99118,5.8125 8.965794,5.754269 8.943581,5.6830978 8.85428,5.3969666 8.6121806,5.1554931 8.3123316,5.0534809 L 8.171875,5.0056959 8.265625,4.9871403 C 8.8864297,4.8642656 9.1946547,4.7118697 9.5656487,4.3443684 9.8640506,4.0487759 10.022997,3.7951341 10.150262,3.4114578 10.219633,3.2023216 10.229732,3.1182627 10.229732,2.75 c 0,-0.3682627 -0.0101,-0.4523215 -0.07947,-0.6614578 C 10.026614,1.7157711 9.8624744,1.4507288 9.5808728,1.1691272 9.2992713,0.88752572 9.0342291,0.72338628 8.6614578,0.59973794 8.4523216,0.53036731 8.3682625,0.52026822 8,0.52026822 c -0.3682625,0 -0.4523216,0.0100991 -0.6614578,0.0794697 C 6.9657709,0.72338628 6.7007287,0.88752572 6.4191272,1.1691272 6.1375256,1.4507288 5.9733862,1.7157711 5.8497378,2.0885422 5.7803672,2.2976785 5.7702681,2.3817373 5.7702681,2.75 c 0,0.3682627 0.010099,0.4523216 0.07947,0.6614578 0.1272656,0.3836763 0.2862116,0.6373181 0.5846134,0.9329106 0.3709941,0.3675013 0.6792191,0.5198972 1.3000238,0.6427719 l 0.09375,0.018556 -0.1404566,0.047785 C 7.3878194,5.1554931 7.14572,5.3969666 7.0564188,5.6830978 7.0148725,5.8162172 6.9694272,5.8545625 6.9678697,5.7578125 6.9652322,5.5940484 6.7709706,5.3763263 5.4405694,4.0460741 4.4445334,3.0501496 4.0124681,2.6387092 3.9093194,2.5879189 3.703525,2.486586 3.2959356,2.4868628 3.0894961,2.5884758 2.8582338,2.7023068 2.6992172,2.8591543 2.5898541,3.0813023 2.5044479,3.2547869 2.4895833,3.3191728 2.4895833,3.515625 c 0,0.42754 0.011922,0.442865 1.4854842,1.9094282 0.7098066,0.7064353 1.3538388,1.3269531 1.4311825,1.3789284 0.5823175,0.3913194 1.3143859,0.1578506 1.5416253,-0.49165 0.045811,-0.1309391 0.049242,-0.022479 0.050633,1.6006387 0.00164,1.9112191 -2.5e-4,1.8900544 0.1937653,2.1720777 0.2581725,0.375283 0.8093391,0.518146 1.2296014,0.318715 z"
       id="path827"
       inkscape:connector-curvature="0" />
    <path
       style="fill:#00fefe;stroke-width:0.03125"
       d="m 6.828125,15.441227 c -0.1486819,-0.06827 -0.21531,-0.137965 -0.2800581,-0.292929 -0.041386,-0.09905 -0.047972,-0.363831 -0.047381,-1.905107 6.407e-4,-1.674973 0.00441,-1.798261 0.058574,-1.917522 0.1037213,-0.228371 0.3494528,-0.360643 0.5481622,-0.295063 0.1561597,0.05154 0.2674628,0.150066 0.3333172,0.295063 0.054201,0.119339 0.057888,0.241883 0.057888,1.924331 0,1.677458 -0.00381,1.805182 -0.0574,1.921875 -0.068275,0.148682 -0.1379653,0.21531 -0.2929297,0.280058 -0.1445175,0.06038 -0.1669991,0.05963 -0.3201725,-0.01071 z m 1,-5.4999998 C 7.6794431,9.8729522 7.612815,9.8032619 7.5480669,9.6482975 c -0.072189,-0.1727712 -0.072189,-3.6238238 0,-3.796595 0.075697,-0.1811691 0.179139,-0.2717634 0.3816206,-0.3342244 L 8,5.4957881 v 2.252106 C 8,8.9865525 7.9894531,9.9996913 7.9765625,9.9993138 7.9636719,9.9989356 7.896875,9.9727972 7.828125,9.9412272 Z M 5.8291791,6.4534741 C 5.7329244,6.4189112 5.4105606,6.1136872 4.386285,5.0872966 3.2556403,3.9543172 3.0626206,3.7476384 3.0343023,3.6396397 2.9420453,3.2877953 3.2594275,2.9716314 3.6103603,3.0657933 3.7151388,3.0939074 3.9370859,3.3010294 5.0412397,4.4010969 5.760015,5.1172125 6.3704894,5.7453125 6.3978491,5.796875 6.5941328,6.1667944 6.2232819,6.5949872 5.8291791,6.4534741 Z M 7.7227737,4.4648084 C 7.3663572,4.4055975 6.9492656,4.1763378 6.7161516,3.9115059 6.4245081,3.5801819 6.2699753,3.177895 6.2699753,2.75 c 0,-0.8889878 0.6570584,-1.6092961 1.5815872,-1.7338343 L 8,0.99617044 V 2.7480852 C 8,4.3971337 7.99679,4.4997856 7.945313,4.4963469 7.915235,4.4943369 7.8150924,4.4801449 7.7227737,4.4648084 Z"
       id="path825"
       inkscape:connector-curvature="0" />
    <path
       style="fill:#fecb32;stroke-width:0.03125"
       d="m 11.829179,14.453474 c -0.09625,-0.03456 -0.418618,-0.339787 -1.442894,-1.366177 -1.1306447,-1.13298 -1.3236644,-1.339659 -1.3519828,-1.447657 -0.092257,-0.351845 0.2251253,-0.668009 0.5760581,-0.573847 0.1047785,0.02812 0.3267256,0.235236 1.4308797,1.335304 0.718775,0.716116 1.329249,1.344216 1.356609,1.395778 0.196284,0.369919 -0.174567,0.798112 -0.56867,0.656599 z M 8,7.75 V 5.4957881 l 0.070312,0.02169 c 0.2024816,0.062461 0.3059234,0.1530553 0.3816206,0.3342244 0.072189,0.1727712 0.072189,3.6238238 0,3.796595 C 8.3762356,9.8294666 8.2727936,9.9200609 8.070312,9.9825219 L 8,10.004212 Z M 9.8256688,6.4407397 C 9.5972975,6.3370184 9.4650256,6.0912869 9.5306056,5.8925775 9.5821431,5.7364178 9.6806722,5.6251147 9.8256688,5.5592603 9.9450084,5.5050591 10.067552,5.5013725 11.75,5.5013725 c 1.682448,0 1.804992,0.00369 1.924331,0.057888 0.228372,0.1037213 0.360643,0.3494528 0.295063,0.5481622 -0.05154,0.1561597 -0.150066,0.2674628 -0.295063,0.3333172 -0.119339,0.054201 -0.241883,0.057888 -1.924331,0.057888 -1.682448,0 -1.8049916,-0.00369 -1.9243312,-0.057888 z M 8,2.75 V 0.99617044 l 0.1484375,0.0199953 c 0.7433856,0.1001374 1.3229347,0.5863402 1.5265931,1.2807093 0.072296,0.2464923 0.072296,0.6597577 0,0.90625 C 9.4713722,3.8974941 8.8918231,4.3836969 8.1484375,4.4838344 L 8,4.5038297 Z"
       id="path823"
       inkscape:connector-curvature="0" />
    <path
       style="fill:#0065cb;stroke-width:0.03125"
       d="M 6.6876684,15.94977 C 6.3736906,15.835684 6.1503653,15.606912 6.0484684,15.294981 6.0038506,15.158395 5.9990578,14.915773 6.0068353,13.1875 l 0.00879,-1.953125 0.077379,-0.15625 C 6.1919128,10.878402 6.3794056,10.691207 6.578125,10.593774 6.7067181,10.530724 6.7813916,10.517164 7,10.517164 c 0.2186084,0 0.2932819,0.01356 0.421875,0.07661 0.1987194,0.09743 0.3862122,0.284628 0.4851206,0.484351 l 0.077379,0.15625 V 13.25 15.265625 l -0.077379,0.15625 c -0.099713,0.201347 -0.2879362,0.388316 -0.4851206,0.481888 -0.2039866,0.0968 -0.5369916,0.117666 -0.7342066,0.04601 z m 0.4606291,-0.497837 c 0.1549644,-0.06475 0.2246547,-0.131376 0.2929297,-0.280058 0.053586,-0.116693 0.0574,-0.244417 0.0574,-1.921875 0,-1.682448 -0.00369,-1.804992 -0.057888,-1.924331 -0.1037213,-0.228372 -0.3494528,-0.360643 -0.5481622,-0.295063 -0.1561597,0.05154 -0.2674628,0.150066 -0.3333172,0.295063 -0.054166,0.119261 -0.057932,0.242549 -0.058574,1.917522 -7.282e-4,1.903113 -6.25e-5,1.912601 0.1489431,2.080391 0.05579,0.06283 0.2741969,0.174544 0.3435619,0.175732 0.022036,3.78e-4 0.091834,-0.02094 0.1551062,-0.04738 z M 7.6876684,10.447875 C 7.3801869,10.340297 7.155945,10.113461 7.0507591,9.8035953 7.0063869,9.6728809 6.9998122,9.4349859 6.9985081,7.9129703 6.9971175,6.2898528 6.9936866,6.1813925 6.9478753,6.3123316 6.8402972,6.6198131 6.6134606,6.844055 6.3035953,6.9492409 6.012425,7.0480809 5.6924019,6.9962766 5.40625,6.8039816 5.3289062,6.7520062 4.6848741,6.1314884 3.9750675,5.4250531 2.8511034,4.3064272 2.6719289,4.1151719 2.5870467,3.9434469 2.3382304,3.4400669 2.5567845,2.850685 3.0894961,2.5884757 3.2959356,2.4868628 3.703525,2.486586 3.9093194,2.5879188 c 0.1031487,0.05079 0.535214,0.4622308 1.53125,1.4581552 1.3304012,1.3302522 1.524664,1.5479744 1.5273003,1.7117385 0.00156,0.09675 0.047003,0.058405 0.088549,-0.074715 C 7.14572,5.3969665 7.3878194,5.1554931 7.6876684,5.0534809 L 7.828125,5.0056959 7.734375,4.9871403 C 7.1135703,4.8642656 6.8053453,4.7118697 6.4343513,4.3443684 6.1359494,4.0487759 5.9770034,3.795134 5.8497378,3.4114578 5.7803672,3.2023215 5.7702681,3.1182626 5.7702681,2.75 c 0,-0.3682627 0.010099,-0.4523215 0.07947,-0.6614579 C 5.9733863,1.7157711 6.1375256,1.4507287 6.4191272,1.1691272 6.80472,0.78353453 7.2565113,0.56518581 7.7743366,0.51416062 L 8,0.49192434 V 0.74404741 0.99617044 L 7.8515625,1.0161657 C 7.2594184,1.0959301 6.7604731,1.4227076 6.4925228,1.90625 6.333965,2.1923829 6.2699753,2.4349883 6.2699753,2.75 c 0,0.8889878 0.6570584,1.6092962 1.5815872,1.7338344 L 8,4.5038297 V 4.9994912 5.4951531 L 7.8925775,5.5306056 C 7.7364178,5.5821431 7.6251147,5.6806722 7.5592603,5.8256687 7.5050591,5.9450084 7.5013725,6.0675516 7.5013725,7.75 c 0,1.6824484 0.00369,1.8049916 0.057888,1.9243312 0.065854,0.1449966 0.1771575,0.2435257 0.3333172,0.2950632 L 8,10.004847 V 10.252423 10.5 L 7.914063,10.4985 C 7.866797,10.497679 7.7649199,10.4749 7.6876689,10.44787 Z M 6.2332694,6.4098603 C 6.4273,6.2994937 6.5070116,6.0026044 6.3978491,5.796875 6.3704894,5.7453125 5.760015,5.1172125 5.0412397,4.4010969 3.9370859,3.3010294 3.7151388,3.0939074 3.6103603,3.0657933 c -0.3509328,-0.094162 -0.668315,0.222002 -0.576058,0.5738464 0.028318,0.1079987 0.221338,0.3146775 1.3519827,1.4476569 1.3831,1.3859556 1.440935,1.43447 1.66059,1.3929722 0.051563,-0.00974 0.13544,-0.041425 0.1863944,-0.070409 z"
       id="path821"
       inkscape:connector-curvature="0" />
    <path
       style="fill:#cb6500;stroke-width:0.03125"
       d="m 11.788204,14.99896 c -0.2858,-0.05825 -0.405653,-0.161446 -1.7167,-1.478111 -0.7045418,-0.707561 -1.3241015,-1.350608 -1.376799,-1.428993 -0.3605656,-0.536327 -0.1858506,-1.218967 0.38342,-1.498082 0.2182687,-0.107018 0.6199981,-0.109848 0.8311944,-0.0059 0.2026376,0.09978 2.8862166,2.782479 2.9968736,2.995894 0.10868,0.209601 0.111272,0.611459 0.0053,0.826691 -0.213017,0.432772 -0.681936,0.678417 -1.12332,0.588456 z m 0.445065,-0.5891 c 0.194031,-0.110366 0.273743,-0.407256 0.16458,-0.612985 -0.02736,-0.05156 -0.637834,-0.679662 -1.356609,-1.395778 -1.1041541,-1.100068 -1.3261012,-1.307189 -1.4308797,-1.335304 -0.3509328,-0.09416 -0.668315,0.222002 -0.5760581,0.573847 0.028318,0.107998 0.2213381,0.314677 1.3519828,1.447657 1.3831,1.385955 1.440935,1.43447 1.66059,1.392972 0.05156,-0.0097 0.13544,-0.04143 0.186394,-0.07041 z M 8,10.256671 V 10.004847 L 8.1074225,9.9693944 C 8.2635822,9.9178569 8.3748853,9.8193278 8.4407397,9.6743313 8.4949409,9.5549916 8.4986275,9.4324484 8.4986275,7.75 c 0,-1.6824484 -0.00369,-1.8049916 -0.057888,-1.9243313 C 8.3748853,5.6806722 8.2635822,5.5821431 8.1074225,5.5306056 L 8,5.4951531 V 4.9994912 4.5038297 L 8.1484375,4.4838344 C 8.7405816,4.40407 9.2395269,4.0772925 9.5074772,3.59375 9.666035,3.3076172 9.7300247,3.0650117 9.7300247,2.75 c 0,-0.8889878 -0.6570585,-1.6092961 -1.5815872,-1.7338343 L 8,0.99617044 V 0.74404741 0.49192434 l 0.2256634,0.0222363 c 0.5178253,0.0510252 0.9696166,0.2693739 1.3552094,0.65496666 0.2816016,0.2816015 0.4457412,0.5466438 0.5693892,0.9194149 0.06937,0.2091363 0.07947,0.2931951 0.07947,0.6614578 0,0.3682627 -0.0101,0.4523216 -0.07947,0.6614578 C 10.022997,3.7951341 9.8640506,4.0487759 9.5656487,4.3443684 9.1946547,4.7118697 8.8864297,4.8642656 8.265625,4.9871403 l -0.09375,0.018556 0.1404566,0.047785 C 8.6121806,5.1554931 8.85428,5.3969666 8.9435812,5.6830978 8.9657938,5.7542691 8.9911822,5.8125 9,5.8125 9.00882,5.8125 9.034206,5.754269 9.056419,5.6830978 9.1477366,5.3905053 9.3932006,5.1503287 9.7050194,5.0484684 9.841605,5.0038506 10.084227,4.9990578 11.8125,5.0068353 l 1.953125,0.00879 0.15625,0.077379 c 0.199723,0.098908 0.386918,0.2864012 0.484351,0.4851206 0.06305,0.1285931 0.07661,0.2032666 0.07661,0.421875 0,0.2186084 -0.01356,0.2932819 -0.07661,0.421875 -0.09743,0.1987194 -0.284628,0.3862122 -0.484351,0.4851206 l -0.15625,0.077379 -1.953125,0.00879 C 10.084227,7.0009422 9.841605,6.9961491 9.7050194,6.9515316 9.3917441,6.8491956 9.1598237,6.6219578 9.0526472,6.3123316 9.0073956,6.1816022 9.0033481,6.2963144 8.9942019,7.96875 l -0.00983,1.796875 -0.077379,0.15625 c -0.148362,0.299588 -0.4523288,0.524302 -0.7676826,0.567526 L 8,10.508495 Z M 13.674331,6.4407397 C 13.819328,6.3748853 13.917857,6.2635822 13.969394,6.1074225 14.034974,5.9087131 13.902703,5.6629816 13.674331,5.5592603 13.554992,5.5050591 13.432448,5.5013725 11.75,5.5013725 c -1.682448,0 -1.8049916,0.00369 -1.9243312,0.057888 -0.2283713,0.1037213 -0.3606432,0.3494528 -0.2950632,0.5481622 0.051538,0.1561597 0.1500666,0.2674628 0.2950632,0.3333172 0.1193396,0.054201 0.2418832,0.057888 1.9243312,0.057888 1.682448,0 1.804992,-0.00369 1.924331,-0.057888 z"
       id="path819"
       inkscape:connector-curvature="0" />
  </g>
</svg>
