<?xml version="1.0" encoding="UTF-8" standalone="no"?>
<!-- Created with Inkscape (http://www.inkscape.org/) -->

<svg
   xmlns:dc="http://purl.org/dc/elements/1.1/"
   xmlns:cc="http://creativecommons.org/ns#"
   xmlns:rdf="http://www.w3.org/1999/02/22-rdf-syntax-ns#"
   xmlns:svg="http://www.w3.org/2000/svg"
   xmlns="http://www.w3.org/2000/svg"
   xmlns:sodipodi="http://sodipodi.sourceforge.net/DTD/sodipodi-0.dtd"
   xmlns:inkscape="http://www.inkscape.org/namespaces/inkscape"
   version="1.1"
   id="svg2"
   width="16"
   height="16"
   viewBox="0 0 16 16"
   sodipodi:docname="POSE_RELAX_TO_BREAKDOWN.svg"
   inkscape:version="0.92.4 (5da689c313, 2019-01-14)">
  <metadata
     id="metadata8">
    <rdf:RDF>
      <cc:Work
         rdf:about="">
        <dc:format>image/svg+xml</dc:format>
        <dc:type
           rdf:resource="http://purl.org/dc/dcmitype/StillImage" />
        <dc:title></dc:title>
      </cc:Work>
    </rdf:RDF>
  </metadata>
  <defs
     id="defs6" />
  <sodipodi:namedview
     pagecolor="#ffffff"
     bordercolor="#666666"
     borderopacity="1"
     objecttolerance="10"
     gridtolerance="10"
     guidetolerance="10"
     inkscape:pageopacity="0"
     inkscape:pageshadow="2"
     inkscape:window-width="828"
     inkscape:window-height="480"
     id="namedview4"
     showgrid="false"
     inkscape:zoom="14.75"
     inkscape:cx="8"
     inkscape:cy="8"
     inkscape:window-x="0"
     inkscape:window-y="0"
     inkscape:window-maximized="0"
     inkscape:current-layer="svg2" />
  <g
     id="POSE_RELAX_TO_BREAKDOWN">
    <path
       style="fill:#ffffff;stroke-width:0.03125"
       d="M 0,8 V 0 h 8 8 v 8 8 L 12.585938,15.9985 C 9.4414003,15.9971 9.1829634,15.9931 9.3123316,15.94787 c 0.3105503,-0.108652 0.5369593,-0.339912 0.6392,-0.652895 0.044618,-0.136586 0.04941,-0.379208 0.041633,-2.107481 l -0.00879,-1.953126 -0.077379,-0.15625 C 9.8080872,10.878402 9.6205944,10.691207 9.421875,10.593774 9.2932819,10.530724 9.2186084,10.517164 9,10.517164 c -0.2186084,0 -0.2932819,0.01356 -0.421875,0.07661 -0.1987194,0.09743 -0.3862122,0.284628 -0.4851206,0.484351 l -0.077379,0.15625 -0.00879,1.953125 c -0.00778,1.728273 -0.00298,1.970895 0.041633,2.107481 0.1022407,0.312983 0.3286497,0.544243 0.6392,0.652894 0.1289972,0.04513 -0.2196718,0.04926 -4.2736059,0.05063 L 0,16 Z m 4.453125,6.905743 c 0.1615981,-0.07778 0.3649347,-0.268535 1.4719281,-1.38081 0.7064353,-0.709807 1.3275444,-1.354692 1.3802419,-1.433077 0.3605656,-0.536327 0.1858506,-1.218967 -0.38342,-1.498082 -0.2182688,-0.107018 -0.6199981,-0.109848 -0.8311944,-0.0059 -0.2026378,0.09978 -2.8862162,2.782479 -2.9968737,2.995894 -0.1086803,0.209601 -0.1112719,0.611459 -0.00533,0.826691 0.1030721,0.209404 0.2568696,0.375923 0.4385156,0.474787 0.3070721,0.16713 0.6076262,0.173767 0.9261337,0.02045 z m 3.96875,-4.50198 c 0.1971844,-0.09357 0.3854078,-0.280541 0.4851206,-0.481888 l 0.077379,-0.15625 0.00983,-1.796875 c 0.00915,-1.6724356 0.013194,-1.7871478 0.058445,-1.6564184 0.1061156,0.3065618 0.3335966,0.5316231 0.6437575,0.6369093 0.2911703,0.09884 0.6111929,0.047036 0.8973449,-0.1452593 0.07734,-0.051975 0.721376,-0.6724932 1.431183,-1.3789285 1.123964,-1.1186259 1.303138,-1.3098812 1.38802,-1.4816062 0.248817,-0.50338 0.03026,-1.0927619 -0.502449,-1.3549712 -0.20644,-0.1016129 -0.614029,-0.1018897 -0.819823,-5.569e-4 -0.103149,0.05079 -0.535214,0.4622308 -1.53125,1.4581552 -1.3304012,1.3302522 -1.524664,1.5479744 -1.5273003,1.7117385 -0.00156,0.09675 -0.047003,0.058405 -0.088549,-0.074715 C 8.85428,5.3969665 8.6121806,5.1554931 8.3123316,5.0534809 L 8.171875,5.0056959 8.265625,4.9871403 C 8.8864297,4.8642656 9.1946547,4.7118697 9.5656487,4.3443684 9.8640506,4.0487759 10.022997,3.795134 10.150262,3.4114578 10.219633,3.2023215 10.229732,3.1182626 10.229732,2.75 c 0,-0.3682627 -0.0101,-0.4523215 -0.07947,-0.6614579 C 10.026614,1.7157711 9.8624744,1.4507288 9.5808728,1.1691272 9.2992713,0.88752572 9.0342291,0.72338628 8.6614578,0.59973794 8.4523216,0.53036731 8.3682625,0.52026822 8,0.52026822 c -0.3682625,0 -0.4523216,0.0100991 -0.6614578,0.0794697 C 6.9657709,0.72338628 6.7007287,0.88752572 6.4191272,1.1691272 6.1375256,1.4507288 5.9733862,1.7157711 5.8497378,2.0885422 5.7803672,2.2976785 5.7702681,2.3817373 5.7702681,2.75 c 0,0.3682627 0.010099,0.4523216 0.07947,0.6614578 0.1272656,0.3836763 0.2862116,0.6373181 0.5846134,0.9329106 0.3709941,0.3675013 0.6792191,0.5198972 1.3000238,0.6427719 l 0.09375,0.018556 -0.1404566,0.047785 C 7.3878194,5.1554931 7.14572,5.3969666 7.0564188,5.6830978 7.0342063,5.7542691 7.0088178,5.8125 7,5.8125 6.99118,5.8125 6.965794,5.754269 6.943581,5.6830978 6.7713622,5.1312884 6.0935097,4.8399737 5.5810972,5.0975547 5.3724209,5.2024528 2.6885838,7.8862428 2.5879189,8.0906806 2.486586,8.296475 2.4868628,8.7040644 2.5884758,8.9105037 c 0.113831,0.2312625 0.2706785,0.3902791 0.4928265,0.4996422 0.1734846,0.085406 0.2378705,0.1002707 0.4343227,0.1002707 0.42754,0 0.442865,-0.011922 1.9094282,-1.4854841 0.7064353,-0.7098066 1.32701,-1.3539144 1.3790543,-1.4313509 0.052045,-0.077436 0.11674,-0.2039988 0.1437678,-0.28125 0.045811,-0.1309391 0.049242,-0.022479 0.050633,1.6006387 0.00164,1.9112191 -2.5e-4,1.8900544 0.1937653,2.1720777 0.2581725,0.375283 0.809339,0.518146 1.2296014,0.318715 z"
       id="path827"
       inkscape:connector-curvature="0" />
    <path
       style="fill:#82fe7f;stroke-width:0.03125"
       d="M 3.859375,14.453395 C 3.6260131,14.370159 3.5022216,14.13357 3.5654291,13.89161 3.5936997,13.78339 3.7863959,13.57757 4.9319828,12.431983 6.0775697,11.286396 6.28339,11.0937 6.3916103,11.065429 c 0.3520106,-0.09196 0.6679919,0.22531 0.5738463,0.576181 -0.028114,0.104779 -0.235236,0.326726 -1.3353035,1.43088 C 4.9140375,13.791265 4.2929687,14.397775 4.25,14.420288 c -0.1315425,0.06892 -0.2597469,0.07979 -0.390625,0.03311 z M 7.828125,9.9412272 C 7.6794431,9.8729522 7.612815,9.8032619 7.5480669,9.6482975 c -0.072189,-0.1727712 -0.072189,-3.6238237 0,-3.796595 0.075697,-0.1811691 0.179139,-0.2717634 0.3816206,-0.3342244 L 8,5.4957881 v 2.252106 C 8,8.9865525 7.9894531,9.9996913 7.9765625,9.9993138 7.9636719,9.9989356 7.896875,9.9727972 7.828125,9.9412272 Z M 3.359375,8.953395 C 3.1260131,8.8701591 3.0022215,8.6335703 3.0654292,8.3916103 3.0936998,8.28339 3.2863959,8.0775697 4.4319828,6.9319828 5.5775697,5.7863959 5.78339,5.5936997 5.8916103,5.5654291 6.2436209,5.4734725 6.5596022,5.7907394 6.4654566,6.1416103 6.4373425,6.2463888 6.2302206,6.4683359 5.1301531,7.5724897 4.4140375,8.291265 3.7929687,8.8977747 3.75,8.9202884 3.6184575,8.9892113 3.4902531,9.0000769 3.359375,8.953395 Z M 7.7227737,4.4648084 C 7.3663572,4.4055975 6.9492656,4.1763378 6.7161516,3.9115059 6.4245081,3.5801819 6.2699753,3.177895 6.2699753,2.75 c 0,-0.8889878 0.6570584,-1.6092961 1.5815872,-1.7338343 L 8,0.99617044 V 2.7480852 C 8,4.3971337 7.99679,4.4997856 7.945313,4.4963469 7.915235,4.4943369 7.8150924,4.4801449 7.7227737,4.4648084 Z"
       id="path825"
       inkscape:connector-curvature="0" />
    <path
       style="fill:#00fefe;stroke-width:0.03125"
       d="m 8.828125,15.441227 c -0.1486819,-0.06827 -0.21531,-0.137965 -0.2800581,-0.292929 -0.041386,-0.09905 -0.047972,-0.363831 -0.047381,-1.905107 6.438e-4,-1.674973 0.00441,-1.798261 0.058574,-1.917522 0.065854,-0.144997 0.1771575,-0.243526 0.3333172,-0.295063 0.1987094,-0.06558 0.4444409,0.06669 0.5481622,0.295063 0.054201,0.119339 0.057888,0.241883 0.057888,1.924331 0,1.677458 -0.00381,1.805182 -0.0574,1.921875 -0.068275,0.148682 -0.1379653,0.21531 -0.2929297,0.280058 -0.1445175,0.06038 -0.1669991,0.05963 -0.3201725,-0.01071 z M 8,7.75 V 5.4957881 l 0.070312,0.02169 c 0.2024816,0.062461 0.3059234,0.1530553 0.3816206,0.3342244 0.072189,0.1727712 0.072189,3.6238238 0,3.796595 C 8.3762356,9.8294666 8.2727936,9.9200609 8.070312,9.9825219 L 8,10.004212 Z M 9.859375,6.453395 C 9.6260131,6.3701591 9.5022216,6.1335703 9.5654291,5.8916103 9.5936997,5.78339 9.7863959,5.5775697 10.931983,4.4319828 12.07757,3.2863959 12.28339,3.0936998 12.39161,3.0654292 12.743621,2.9734726 13.059602,3.2907394 12.965457,3.6416103 12.937343,3.7463888 12.730221,3.9683359 11.630153,5.0724897 10.914037,5.791265 10.292969,6.3977747 10.25,6.4202884 10.118458,6.4892113 9.9902531,6.5000769 9.859375,6.453395 Z M 8,2.75 V 0.99617044 l 0.1484375,0.0199953 c 0.7433856,0.1001374 1.3229347,0.5863402 1.5265931,1.2807093 0.072296,0.2464923 0.072296,0.6597577 0,0.90625 C 9.4713722,3.8974941 8.8918231,4.3836969 8.1484375,4.4838344 L 8,4.5038297 Z"
       id="path823"
       inkscape:connector-curvature="0" />
    <path
       style="fill:#0065cb;stroke-width:0.03125"
       d="M 8.6876684,15.94977 C 8.3736906,15.835684 8.1503653,15.606912 8.0484684,15.294981 8.0038506,15.158395 7.9990578,14.915773 8.0068353,13.1875 l 0.00879,-1.953125 0.077379,-0.15625 C 8.1919128,10.878402 8.3794056,10.691207 8.578125,10.593774 8.7067181,10.530724 8.7813916,10.517164 9,10.517164 c 0.2186084,0 0.2932819,0.01356 0.421875,0.07661 0.1987194,0.09743 0.3862122,0.284628 0.4851206,0.484351 l 0.077379,0.15625 V 13.25 15.265625 l -0.077379,0.15625 c -0.099713,0.201347 -0.2879362,0.388316 -0.4851206,0.481888 -0.2039866,0.0968 -0.5369916,0.117666 -0.7342066,0.04601 z m 0.4606291,-0.497837 c 0.1549644,-0.06475 0.2246547,-0.131376 0.2929297,-0.280058 0.053586,-0.116693 0.0574,-0.244417 0.0574,-1.921875 0,-1.682448 -0.00369,-1.804992 -0.057888,-1.924331 -0.065854,-0.144997 -0.1771575,-0.243526 -0.3333172,-0.295063 -0.1987094,-0.06558 -0.4444409,0.06669 -0.5481622,0.295063 -0.054166,0.119261 -0.057932,0.242549 -0.058574,1.917522 -7.281e-4,1.903113 -6.25e-5,1.912601 0.1489432,2.080391 0.05579,0.06283 0.2741968,0.174544 0.3435618,0.175732 0.022036,3.78e-4 0.091834,-0.02094 0.1551063,-0.04738 z M 8,10.256671 V 10.004847 L 8.1074225,9.9693944 C 8.2635822,9.9178569 8.3748853,9.8193278 8.4407397,9.6743313 8.4949409,9.5549916 8.4986275,9.4324484 8.4986275,7.75 c 0,-1.6824484 -0.00369,-1.8049916 -0.057888,-1.9243313 C 8.3748853,5.6806722 8.2635822,5.5821431 8.1074225,5.5306056 L 8,5.4951531 V 4.9994912 4.5038297 L 8.1484375,4.4838344 C 8.7405816,4.40407 9.2395269,4.0772925 9.5074772,3.59375 9.666035,3.3076172 9.7300247,3.0650117 9.7300247,2.75 c 0,-0.8889878 -0.6570585,-1.6092961 -1.5815872,-1.7338343 L 8,0.99617044 V 0.74404741 0.49192434 l 0.2256634,0.0222363 c 0.5178253,0.0510252 0.9696166,0.2693739 1.3552094,0.65496666 0.2816016,0.2816015 0.4457412,0.5466438 0.5693892,0.9194149 0.06937,0.2091363 0.07947,0.2931951 0.07947,0.6614578 0,0.3682627 -0.0101,0.4523216 -0.07947,0.6614578 C 10.022997,3.7951341 9.8640506,4.0487759 9.5656487,4.3443684 9.1946547,4.7118697 8.8864297,4.8642656 8.265625,4.9871403 l -0.09375,0.018556 0.1404566,0.047785 c 0.299849,0.1020122 0.5419484,0.3434857 0.6312496,0.6296169 0.041546,0.1331194 0.086992,0.1714647 0.088549,0.074715 0.00264,-0.1637641 0.1968991,-0.3814862 1.5273008,-1.7117384 0.996036,-0.9959245 1.428101,-1.4073649 1.53125,-1.4581552 0.205794,-0.1013329 0.613383,-0.1010561 0.819823,5.569e-4 0.231262,0.113831 0.390279,0.2706785 0.499642,0.4928265 0.08541,0.1734846 0.100271,0.2378705 0.100271,0.4343227 0,0.42754 -0.01192,0.442865 -1.485485,1.9094282 C 11.315126,6.1314884 10.671094,6.7520062 10.59375,6.8039816 10.011469,7.1952762 9.2771903,6.9610228 9.0526472,6.3123316 9.0073956,6.1816022 9.0033481,6.2963144 8.9942019,7.96875 l -0.00983,1.796875 -0.077379,0.15625 c -0.148362,0.299588 -0.4523288,0.524302 -0.7676826,0.567526 L 8,10.508495 Z M 10.25,6.4202884 C 10.292969,6.3977747 10.914037,5.791265 11.630153,5.0724897 12.730221,3.9683359 12.937343,3.7463888 12.965457,3.6416103 13.059602,3.2907394 12.743621,2.9734726 12.39161,3.0654292 12.28339,3.0936998 12.07757,3.2863959 10.931983,4.4319828 9.7863959,5.5775697 9.5936997,5.78339 9.5654291,5.8916103 9.4593969,6.2975028 9.8736956,6.6174562 10.25,6.4202884 Z"
       id="path821"
       inkscape:connector-curvature="0" />
    <path
       style="fill:#009800;stroke-width:0.03125"
       d="M 3.8194538,14.99896 C 3.5133684,14.936575 3.2385016,14.7153 3.0884757,14.410504 c -0.1059407,-0.215232 -0.1033491,-0.61709 0.00533,-0.826691 0.1106575,-0.213415 2.7942359,-2.896115 2.9968737,-2.995894 0.2111963,-0.103993 0.6129256,-0.101163 0.8311944,0.0059 0.5692706,0.279115 0.7439856,0.961755 0.38342,1.498082 -0.052697,0.07839 -0.6738066,0.72327 -1.3802419,1.433077 -1.1069934,1.112275 -1.31033,1.303025 -1.4719281,1.38081 -0.2098038,0.100946 -0.4338335,0.133902 -0.63367,0.09317 z M 4.25,14.420288 C 4.2929687,14.397775 4.9140375,13.791265 5.6301531,13.07249 6.7302206,11.968336 6.9373425,11.746389 6.9654566,11.64161 7.0596022,11.290739 6.7436209,10.973473 6.3916103,11.065429 6.28339,11.0937 6.0775697,11.286396 4.9319828,12.431983 3.7863959,13.57757 3.5936997,13.78339 3.5654291,13.89161 3.4593969,14.297503 3.8736956,14.617456 4.25,14.420288 Z M 7.6876684,10.447875 C 7.3801869,10.340297 7.155945,10.113461 7.0507591,9.8035953 7.0063869,9.6728809 6.9998122,9.4349859 6.9985081,7.9129703 6.9971175,6.2898528 6.9936866,6.1813925 6.9478753,6.3123316 6.9208475,6.3895828 6.8561522,6.5161453 6.8041075,6.5935816 6.7520631,6.6710181 6.1314884,7.3151259 5.4250531,8.0249325 4.3064272,9.1488966 4.1151719,9.3280713 3.9434469,9.4129534 3.4400669,9.6617697 2.850685,9.4432156 2.5884757,8.9105038 2.4868628,8.7040644 2.486586,8.296475 2.5879188,8.0906806 2.6885838,7.8862428 5.3724209,5.2024528 5.5810972,5.0975547 6.0935097,4.8399738 6.7713622,5.1312884 6.9435812,5.6830978 6.9657937,5.7542691 6.9911822,5.8125 7,5.8125 7.00882,5.8125 7.034206,5.754269 7.056419,5.6830978 7.14572,5.3969666 7.3878194,5.1554931 7.6876684,5.0534809 L 7.828125,5.0056959 7.734375,4.9871403 C 7.1135703,4.8642656 6.8053453,4.7118697 6.4343512,4.3443684 6.1359494,4.0487759 5.9770034,3.7951341 5.8497378,3.4114578 5.7803672,3.2023216 5.7702681,3.1182627 5.7702681,2.75 c 0,-0.3682627 0.010099,-0.4523215 0.07947,-0.6614578 C 5.9733862,1.7157711 6.1375256,1.4507288 6.4191272,1.1691272 6.80472,0.78353456 7.2565112,0.56518584 7.7743366,0.51416066 L 8,0.49192434 V 0.74404741 0.99617044 L 7.8515625,1.0161657 C 7.2594184,1.0959301 6.7604731,1.4227076 6.4925228,1.90625 6.333965,2.1923829 6.2699753,2.4349883 6.2699753,2.75 c 0,0.8889878 0.6570584,1.6092962 1.5815872,1.7338344 L 8,4.5038297 V 4.9994912 5.4951531 L 7.8925775,5.5306056 C 7.7364178,5.5821431 7.6251147,5.6806722 7.5592603,5.8256687 7.5050591,5.9450084 7.5013725,6.0675516 7.5013725,7.75 c 0,1.6824484 0.00369,1.8049916 0.057888,1.9243312 0.065854,0.1449966 0.1771575,0.2435257 0.3333172,0.2950632 L 8,10.004847 V 10.252423 10.5 L 7.914063,10.4985 C 7.866797,10.497679 7.7649199,10.4749 7.6876689,10.44787 Z M 3.75,8.9202884 C 3.7929688,8.8977747 4.4140375,8.291265 5.1301531,7.5724897 6.2302206,6.4683359 6.4373425,6.2463888 6.4654566,6.1416103 6.5596022,5.7907394 6.2436209,5.4734725 5.8916103,5.5654291 5.78339,5.5936997 5.5775697,5.7863959 4.4319828,6.9319828 3.2863959,8.0775697 3.0936998,8.28339 3.0654292,8.3916103 2.959397,8.7975028 3.3736956,9.1174563 3.75,8.9202884 Z"
       id="path819"
       inkscape:connector-curvature="0" />
  </g>
</svg>
