<?xml version="1.0" encoding="UTF-8" standalone="no"?>
<!-- Created with Inkscape (http://www.inkscape.org/) -->

<svg
   xmlns:dc="http://purl.org/dc/elements/1.1/"
   xmlns:cc="http://creativecommons.org/ns#"
   xmlns:rdf="http://www.w3.org/1999/02/22-rdf-syntax-ns#"
   xmlns:svg="http://www.w3.org/2000/svg"
   xmlns="http://www.w3.org/2000/svg"
   xmlns:sodipodi="http://sodipodi.sourceforge.net/DTD/sodipodi-0.dtd"
   xmlns:inkscape="http://www.inkscape.org/namespaces/inkscape"
   version="1.1"
   id="svg2"
   width="16"
   height="16"
   viewBox="0 0 16 16"
   sodipodi:docname="RENDER_RESULT.svg"
   inkscape:version="0.92.4 (5da689c313, 2019-01-14)">
  <metadata
     id="metadata8">
    <rdf:RDF>
      <cc:Work
         rdf:about="">
        <dc:format>image/svg+xml</dc:format>
        <dc:type
           rdf:resource="http://purl.org/dc/dcmitype/StillImage" />
        <dc:title></dc:title>
      </cc:Work>
    </rdf:RDF>
  </metadata>
  <defs
     id="defs6" />
  <sodipodi:namedview
     pagecolor="#ffffff"
     bordercolor="#666666"
     borderopacity="1"
     objecttolerance="10"
     gridtolerance="10"
     guidetolerance="10"
     inkscape:pageopacity="0"
     inkscape:pageshadow="2"
     inkscape:window-width="1270"
     inkscape:window-height="964"
     id="namedview4"
     showgrid="false"
     inkscape:zoom="14.75"
     inkscape:cx="8"
     inkscape:cy="8"
     inkscape:window-x="0"
     inkscape:window-y="0"
     inkscape:window-maximized="0"
     inkscape:current-layer="svg2" />
  <g
     id="RENDER_RESULT">
    <path
       style="fill:#ffffff;stroke-width:0.03125"
       d="M 15,8 V 0 h 0.5 0.5 v 8 8 H 15.5 15 Z"
       id="path837"
       inkscape:connector-curvature="0" />
    <path
       style="fill:#fefefe;stroke-width:0.03125"
       d="M 1,8 V 1 H 7.5 14 v 7 7 H 7.5 1 Z M 13,7.5 V 2 H 7.5 2 V 7.5 13 H 7.5 13 Z M 6.6285103,11.450608 C 5.8361416,11.237513 5.3459466,10.417082 5.5478497,9.6419234 5.7569144,8.83927 6.5760953,8.3441694 7.3580766,8.5478497 8.1583753,8.7563013 8.6557937,9.5762359 8.4533853,10.353334 8.2424103,11.163323 7.41352,11.661723 6.6285103,11.450608 Z M 7.5,5 V 4.5 H 9 10.5 V 5 5.5 H 9 7.5 Z"
       id="path835"
       inkscape:connector-curvature="0" />
    <path
       style="fill:#98cbfe;stroke-width:0.03125"
       d="m 3.0020566,8.3515625 c 0.0018,-3.1985563 0.00749,-3.6282634 0.046118,-3.4848297 C 3.2629631,5.6642772 4.08064,6.1546469 4.8580766,5.9521503 5.66073,5.7430856 6.1558306,4.9239047 5.9521503,4.1419234 5.8135578,3.6098313 5.3982272,3.1913125 4.8667328,3.0481747 4.7232991,3.0095463 5.1530062,3.0038596 8.3515625,3.0020566 L 12,3 V 7.5 12 L 9.6640625,11.9979 C 7.5701516,11.9961 7.3459331,11.991227 7.5,11.950907 7.5945312,11.926168 7.784375,11.850805 7.921875,11.783434 8.2613263,11.617112 8.6371591,11.238202 8.7953562,10.902801 8.9256184,10.626625 9,10.353413 9,10.151119 V 10.00287 L 9.8415294,9.99362 C 10.634928,9.9849 10.68799,9.980688 10.769286,9.919942 c 0.04743,-0.035437 0.115221,-0.103265 0.150658,-0.1507291 0.0639,-0.085593 0.06443,-0.1082347 0.06443,-2.7692153 0,-2.6609806 -5.28e-4,-2.6836225 -0.06443,-2.769215 C 10.884507,4.1833209 10.816679,4.1154928 10.769215,4.0800559 10.684554,4.0168472 10.650991,4.015625 9,4.015625 c -1.6509909,0 -1.6845541,0.00122 -1.769215,0.064431 C 7.183321,4.115493 7.1154928,4.1833117 7.0800559,4.2307639 7.0169249,4.3153009 7.0154529,4.3541782 7.0070869,6.1585204 L 6.9985481,8 H 6.8495897 C 6.6361103,8 6.3657997,8.0759341 6.078125,8.2167153 5.8799334,8.3137056 5.7748078,8.3936878 5.5708441,8.6026669 5.1710784,9.0122625 5,9.4310347 5,10 5,10.582176 5.1854516,11.021953 5.6026669,11.429156 5.8822297,11.702009 6.1492178,11.857047 6.5,11.95023 6.6563512,11.99176 6.50605,11.99607 4.8359375,11.99794 L 3,12 Z m 0,-4.703125 L 3,3 3.6484375,3.00206 C 4.2648984,3.00402 4.2888069,3.00629 4.1332672,3.048178 3.6086881,3.1894503 3.1895975,3.6071722 3.0493922,4.1285103 3.0057675,4.2907234 3.0040381,4.2731831 3.0020566,3.6484375 Z"
       id="path833"
       inkscape:connector-curvature="0" />
    <path
       style="fill:#fefe00;stroke-width:0.03125"
       d="M 4,4.5 V 4 H 4.5 5 V 4.5 5 H 4.5 4 Z"
       id="path831"
       inkscape:connector-curvature="0" />
    <path
       style="fill:#fecb32;stroke-width:0.03125"
       d="M 4.1285103,5.9506078 C 3.3361416,5.7375131 2.8459467,4.9170816 3.0478497,4.1419234 3.2569144,3.33927 4.0760953,2.8441695 4.8580766,3.0478498 5.6583753,3.2563013 6.1557937,4.0762359 5.9533853,4.8533344 5.7424103,5.6633228 4.91352,6.1617234 4.1285103,5.9506078 Z M 5,4.5 V 4 H 4.5 4 V 4.5 5 H 4.5 5 Z"
       id="path829"
       inkscape:connector-curvature="0" />
    <path
       style="fill:#6598cb;stroke-width:0.03125"
       d="M 8.9048806,9.3828125 C 8.7226206,8.8127375 8.1872625,8.2773794 7.6171875,8.0951194 L 7.5,8.0576531 V 6.7788266 5.5 H 9 10.5 v 2 2 H 9.7211734 8.9423469 Z"
       id="path827"
       inkscape:connector-curvature="0" />
    <path
       style="fill:#0065fe;stroke-width:0.03125"
       d="m 6.6816406,11.978653 c 0.022559,-0.009 0.049512,-0.0079 0.059896,0.0025 0.010384,0.01038 -0.00807,0.01777 -0.041016,0.01641 -0.036405,-0.0015 -0.043809,-0.0089 -0.01888,-0.01888 z m 0.59375,0 c 0.022559,-0.009 0.049512,-0.0079 0.059896,0.0025 0.010384,0.01038 -0.00807,0.01777 -0.041016,0.01641 -0.036405,-0.0015 -0.043809,-0.0089 -0.01888,-0.01888 z m -1.4981268,-0.37709 c -0.038871,-0.04957 -0.037766,-0.05067 0.011799,-0.0118 0.030078,0.02359 0.054687,0.0482 0.054687,0.05469 0,0.02572 -0.025662,0.0092 -0.066486,-0.04289 z m 2.3789862,0.04289 c 0,-0.0065 0.024609,-0.0311 0.054687,-0.05469 0.049564,-0.03887 0.05067,-0.03777 0.011799,0.0118 -0.040824,0.05205 -0.066486,0.06861 -0.066486,0.04289 z m -2.7852362,-0.44914 c -0.038871,-0.04957 -0.037766,-0.05067 0.011799,-0.0118 0.030078,0.02359 0.054687,0.0482 0.054687,0.05469 0,0.02572 -0.025662,0.0092 -0.066486,-0.04289 z M 8.5625,11.238201 c 0,-0.0065 0.024609,-0.0311 0.054687,-0.05469 0.049564,-0.03887 0.05067,-0.03777 0.011799,0.0118 -0.040824,0.05205 -0.066486,0.06861 -0.066486,0.04289 z m -3.5600328,-0.94393 c 0.0015,-0.03641 0.0089,-0.04381 0.01888,-0.01888 0.00903,0.02256 0.00792,0.04951 -0.00247,0.0599 -0.010384,0.01038 -0.01777,-0.0081 -0.016413,-0.04102 z m 3.96875,0 c 0.0015,-0.03641 0.0089,-0.04381 0.01888,-0.01888 0.00903,0.02256 0.00792,0.04951 -0.00247,0.0599 -0.010384,0.01038 -0.01777,-0.0081 -0.016413,-0.04102 z m -3.96875,-0.5937501 c 0.0015,-0.036405 0.0089,-0.043809 0.01888,-0.01888 0.00903,0.022559 0.00792,0.049512 -0.00247,0.059896 -0.010384,0.010384 -0.01777,-0.00807 -0.016413,-0.041016 z M 5.34375,8.8319513 c 0,-0.00649 0.024609,-0.031099 0.054687,-0.054687 0.049564,-0.038871 0.05067,-0.037766 0.011799,0.011799 C 5.369412,8.8411183 5.34375,8.8576723 5.34375,8.8319523 Z M 5.75,8.4257013 c 0,-0.00649 0.024609,-0.031099 0.054687,-0.054687 0.049564,-0.038871 0.05067,-0.037766 0.011799,0.011799 C 5.7756622,8.4348672 5.75,8.4514212 5.75,8.4257013 Z M 6.6816406,8.0099028 c 0.022559,-0.00903 0.049512,-0.00792 0.059896,0.00247 0.010384,0.010384 -0.00807,0.01777 -0.041016,0.016413 -0.036405,-0.0015 -0.043809,-0.0089 -0.01888,-0.01888 z"
       id="path825"
       inkscape:connector-curvature="0" />
    <path
       style="fill:#0032fe;stroke-width:0.03125"
       d="M 8.988005,9.7986788 C 8.9765016,9.6864 8.9589275,9.573265 8.9489516,9.5472678 8.9330584,9.5058509 9.0279316,9.5 9.7154066,9.5 H 10.5 V 7 4.5 H 9 7.5 V 6.2845934 C 7.5,7.8646503 7.49458,8.0671078 7.452732,8.0510484 7.426735,8.0410725 7.3139106,8.0235303 7.2020116,8.0120656 L 6.9985587,7.9912216 7.0070919,6.1541309 C 7.0154522,4.3542187 7.0169291,4.3152947 7.0800559,4.2307637 7.1154928,4.1833116 7.1833209,4.1154928 7.230785,4.0800559 7.3154459,4.0168472 7.3490091,4.015625 9,4.015625 c 1.650991,0 1.684554,0.00122 1.769215,0.064431 0.04746,0.035437 0.115292,0.103265 0.150729,0.1507291 0.0639,0.085592 0.06443,0.1082344 0.06443,2.769215 0,2.6609806 -5.28e-4,2.6836225 -0.06443,2.769215 -0.03544,0.047464 -0.103233,0.1152922 -0.150658,0.1507291 -0.08127,0.060724 -0.134387,0.064961 -0.9232966,0.073655 L 9.00892,10.002822 Z"
       id="path823"
       inkscape:connector-curvature="0" />
    <path
       style="fill:#656565;stroke-width:0.03125"
       d="M 2,7.5 V 2 H 7.5 13 V 7.5 13 H 7.5 2 Z m 10,0 V 3 H 7.5 3 V 7.5 12 H 7.5 12 Z"
       id="path821"
       inkscape:connector-curvature="0" />
    <path
       style="fill:#323232;stroke-width:0.03125"
       d="M 0,8 V 0 H 7.5 15 v 8 8 H 7.5 0 Z M 14,8 V 1 H 7.5 1 v 7 7 H 7.5 14 Z M 6.5625,11.951405 C 5.8323191,11.794581 5.2007041,11.157179 5.0468547,10.421875 4.7497344,9.0018228 6.0018228,7.7497344 7.421875,8.0468547 8.1647875,8.2022959 8.7977041,8.8352125 8.9531453,9.578125 9.2513347,11.003286 7.9878991,12.257545 6.5625,11.951405 Z M 7.3580766,11.45215 C 7.8970516,11.311765 8.3122331,10.895254 8.4533853,10.353334 8.6557938,9.5762359 8.1583753,8.7563013 7.3580766,8.5478497 6.5760953,8.3441694 5.7569144,8.83927 5.5478497,9.6419234 5.2693225,10.711262 6.2887378,11.730678 7.3580766,11.45215 Z"
       id="path819"
       inkscape:connector-curvature="0" />
  </g>
</svg>
