<?xml version="1.0" encoding="UTF-8" standalone="no"?>
<!-- Created with Inkscape (http://www.inkscape.org/) -->

<svg
   xmlns:dc="http://purl.org/dc/elements/1.1/"
   xmlns:cc="http://creativecommons.org/ns#"
   xmlns:rdf="http://www.w3.org/1999/02/22-rdf-syntax-ns#"
   xmlns:svg="http://www.w3.org/2000/svg"
   xmlns="http://www.w3.org/2000/svg"
   xmlns:sodipodi="http://sodipodi.sourceforge.net/DTD/sodipodi-0.dtd"
   xmlns:inkscape="http://www.inkscape.org/namespaces/inkscape"
   version="1.1"
   id="svg2"
   width="16.168421"
   height="16.168421"
   viewBox="0 0 16.168421 16.168421"
   sodipodi:docname="LAMP_AREA.svg"
   inkscape:version="0.92.4 (5da689c313, 2019-01-14)">
  <metadata
     id="metadata8">
    <rdf:RDF>
      <cc:Work
         rdf:about="">
        <dc:format>image/svg+xml</dc:format>
        <dc:type
           rdf:resource="http://purl.org/dc/dcmitype/StillImage" />
        <dc:title></dc:title>
      </cc:Work>
    </rdf:RDF>
  </metadata>
  <defs
     id="defs6" />
  <sodipodi:namedview
     pagecolor="#ffffff"
     bordercolor="#666666"
     borderopacity="1"
     objecttolerance="10"
     gridtolerance="10"
     guidetolerance="10"
     inkscape:pageopacity="0"
     inkscape:pageshadow="2"
     inkscape:window-width="811"
     inkscape:window-height="617"
     id="namedview4"
     showgrid="false"
     inkscape:zoom="14.596354"
     inkscape:cx="8.0842104"
     inkscape:cy="8.0842104"
     inkscape:window-x="0"
     inkscape:window-y="0"
     inkscape:window-maximized="0"
     inkscape:current-layer="svg2" />
  <g
     id="LAMP_AREA">
    <path
       style="fill:#ffffff;stroke-width:0.03157895"
       d="M 0,8.0842105 V 0 H 8.0842105 16.168421 V 8.0842105 16.168421 H 8.0842105 0 Z m 14.605263,7.1674855 c 0.259314,-0.0992 0.545141,-0.384004 0.648763,-0.646433 0.104968,-0.265839 0.105603,-0.678371 0.0015,-0.947368 -0.06958,-0.179713 -0.187851,-0.304184 -2.295789,-2.41609 L 10.737264,9.0151885 12.82439,6.9312783 C 14.025119,5.7324 14.930306,4.8042117 14.955759,4.7457511 c 0.05236,-0.1202681 0.05736,-0.3168568 0.01121,-0.4410637 -0.04412,-0.1187568 -3.615997,-3.69792445 -3.747537,-3.75518738 -0.08237,-0.0358595 -0.382491,-0.0442369 -1.584786,-0.0442369 -0.9538727,0 -1.5148939,0.0117799 -1.5720669,0.0330092 -0.1195453,0.0443891 -7.45521521,7.37262618 -7.5130626,7.50545008 -0.065183,0.1496672 -0.0652006,3.0259846 -1.948e-5,3.1757126 0.0572629,0.13154 3.63643058,3.703416 3.75518738,3.747537 0.1242069,0.04615 0.3207956,0.04115 0.4410637,-0.01121 0.058461,-0.02545 0.9866909,-0.930681 2.1856324,-2.131473 l 2.0840147,-2.087231 2.2107218,2.206968 c 1.215897,1.213832 2.246248,2.22526 2.289669,2.247618 0.331213,0.170544 0.741537,0.193163 1.089474,0.06006 z"
       id="path827"
       inkscape:connector-curvature="0" />
    <path
       style="fill:#fefefe;stroke-width:0.03157895"
       d="M 13.910526,14.791579 C 13.763102,14.745902 13.546848,14.537081 10.649236,11.642382 8.3595638,9.3550114 7.5277206,8.5048446 7.4767367,8.4 7.2811891,7.9978721 7.5115977,7.5281176 7.9567648,7.4213236 c 0.1300734,-0.031204 0.1856669,-0.02875 0.3388908,0.014958 0.183264,0.052278 0.1837689,0.052763 3.3153244,3.1843174 3.131554,3.131555 3.13204,3.13206 3.184317,3.315324 0.04371,0.153224 0.04616,0.208818 0.01496,0.338891 -0.09855,0.410788 -0.499151,0.640877 -0.899729,0.516765 z"
       id="path825"
       inkscape:connector-curvature="0" />
    <path
       style="fill:#7fb3fe;stroke-width:0.03157895"
       d="M 1.1434171,11.138278 1.0105263,11.002873 V 9.6303322 8.2577918 L 4.6342617,4.634159 8.2579973,1.0105263 h 1.3749528 1.3749519 l 0.140101,0.1427524 0.140101,0.1427524 -4.9887511,4.9888265 C 3.5555394,9.0287122 1.3028852,11.273684 1.2934546,11.273684 c -0.00943,0 -0.076948,-0.06093 -0.1500375,-0.135406 z"
       id="path823"
       inkscape:connector-curvature="0" />
    <path
       style="fill:#fdfe00;stroke-width:0.03157895"
       d="M 3.0788878,13.073624 1.6580388,11.652512 6.6553197,6.6552316 11.6526,1.6579508 13.081496,3.0868467 14.510392,4.5157427 12.442742,6.5835732 10.375093,8.6514038 9.5691252,7.8509952 C 8.6305026,6.9188466 8.6055458,6.9027379 8.1,6.9027379 c -0.3900518,0 -0.595729,0.082201 -0.8553951,0.341867 C 6.9849388,7.504271 6.9027379,7.7099482 6.9027379,8.1 c 0,0.5055458 0.016109,0.5305026 0.9482573,1.4691252 l 0.8004086,0.8059678 -2.0600021,2.059822 c -1.1330012,1.132902 -2.0671263,2.059822 -2.0758336,2.059822 -0.00871,0 -0.6552133,-0.639501 -1.4366803,-1.421113 z"
       id="path821"
       inkscape:connector-curvature="0" />
    <path
       style="fill:#000000;stroke-width:0.03157895"
       d="m 13.768421,15.290008 c -0.09553,-0.03175 -0.209211,-0.07601 -0.252632,-0.09837 -0.04342,-0.02236 -1.073772,-1.033786 -2.289669,-2.247618 L 9.0153982,10.737054 6.9313835,12.824285 C 5.732442,14.025077 4.804212,14.930306 4.7457511,14.955758 4.625483,15.00812 4.4288943,15.013118 4.3046874,14.966972 4.1859306,14.922851 0.60676295,11.350975 0.54950002,11.219435 0.48431889,11.069707 0.48433651,8.1933897 0.5495195,8.0437225 0.60736689,7.9108986 7.9430368,0.58266145 8.0625821,0.53827238 c 0.057173,-0.0212293 0.6181942,-0.0330092 1.5720669,-0.0330092 1.202295,0 1.502413,0.008377 1.584786,0.0442369 0.13154,0.0572629 3.703416,3.63643062 3.747537,3.75518742 0.04615,0.1242069 0.04115,0.3207956 -0.01121,0.4410637 -0.02545,0.058461 -0.930639,0.9866489 -2.131368,2.1855272 L 10.737268,9.0151886 12.9597,11.241805 c 2.107938,2.111906 2.226211,2.236377 2.295788,2.41609 0.104145,0.268997 0.10351,0.681529 -0.0015,0.947368 -0.103621,0.262429 -0.389449,0.54723 -0.648763,0.646433 -0.25844,0.09887 -0.60664,0.11481 -0.836842,0.03831 z m 0.68968,-0.54818 c 0.1675,-0.08066 0.302382,-0.259539 0.352154,-0.467014 0.0312,-0.130073 0.02875,-0.185667 -0.01496,-0.338891 C 14.74302,13.752659 14.742534,13.752154 11.61098,10.620599 8.4794245,7.4890446 8.4789196,7.4885592 8.2956556,7.4362816 8.1424317,7.3925734 8.0868382,7.3901194 7.9567648,7.4213236 7.5115977,7.5281176 7.2811891,7.9978721 7.4767367,8.4 c 0.050984,0.1048446 0.8828271,0.9550114 3.1724993,3.242382 2.897612,2.894699 3.113866,3.10352 3.26129,3.149197 0.186329,0.05773 0.356492,0.04227 0.547575,-0.04975 z M 6.5914017,12.434915 8.6514038,10.375093 7.8509952,9.5691252 C 6.9188466,8.6305026 6.9027379,8.6055458 6.9027379,8.1 c 0,-0.3900518 0.082201,-0.595729 0.341867,-0.8553951 C 7.504271,6.9849388 7.7099482,6.9027379 8.1,6.9027379 c 0.5055458,0 0.5305026,0.016109 1.4691252,0.9482573 L 10.375093,8.6514038 12.442742,6.5835732 14.510392,4.5157427 13.081496,3.0868467 11.6526,1.6579508 6.6553197,6.6552316 1.6580388,11.652512 l 1.420849,1.421112 c 0.781467,0.781612 1.427973,1.421113 1.4366803,1.421113 0.00871,0 0.9428324,-0.92692 2.0758336,-2.059822 z M 6.2993529,6.2848576 11.288104,1.2960311 11.148003,1.1532787 11.007902,1.0105263 H 9.6329501 8.2579973 L 4.6342617,4.634159 1.0105263,8.2577918 v 1.3725404 1.3725408 l 0.1328908,0.135405 c 0.07309,0.07447 0.1406068,0.135406 0.1500375,0.135406 0.00943,0 2.2620848,-2.2449718 5.0058983,-4.9888264 z"
       id="path819"
       inkscape:connector-curvature="0" />
  </g>
</svg>
