<?xml version="1.0" encoding="UTF-8" standalone="no"?>
<!-- Created with Inkscape (http://www.inkscape.org/) -->

<svg
   xmlns:dc="http://purl.org/dc/elements/1.1/"
   xmlns:cc="http://creativecommons.org/ns#"
   xmlns:rdf="http://www.w3.org/1999/02/22-rdf-syntax-ns#"
   xmlns:svg="http://www.w3.org/2000/svg"
   xmlns="http://www.w3.org/2000/svg"
   xmlns:sodipodi="http://sodipodi.sourceforge.net/DTD/sodipodi-0.dtd"
   xmlns:inkscape="http://www.inkscape.org/namespaces/inkscape"
   version="1.1"
   id="svg2"
   width="16"
   height="16"
   viewBox="0 0 16 16"
   sodipodi:docname="DOWNARROW_HLT.svg"
   inkscape:version="0.92.4 (5da689c313, 2019-01-14)">
  <metadata
     id="metadata8">
    <rdf:RDF>
      <cc:Work
         rdf:about="">
        <dc:format>image/svg+xml</dc:format>
        <dc:type
           rdf:resource="http://purl.org/dc/dcmitype/StillImage" />
        <dc:title></dc:title>
      </cc:Work>
    </rdf:RDF>
  </metadata>
  <defs
     id="defs6" />
  <sodipodi:namedview
     pagecolor="#ffffff"
     bordercolor="#666666"
     borderopacity="1"
     objecttolerance="10"
     gridtolerance="10"
     guidetolerance="10"
     inkscape:pageopacity="0"
     inkscape:pageshadow="2"
     inkscape:window-width="1241"
     inkscape:window-height="921"
     id="namedview4"
     showgrid="false"
     inkscape:zoom="14.75"
     inkscape:cx="8"
     inkscape:cy="8"
     inkscape:window-x="0"
     inkscape:window-y="0"
     inkscape:window-maximized="0"
     inkscape:current-layer="svg2" />
  <g
     id="DOWNARROW_HLT">
    <path
       style="fill:#ffffff;stroke-width:0.03125"
       d="M 0,8 V 0 h 8 8 v 8 8 H 8 0 Z m 8.484375,3.866627 c 0.2110566,-0.109554 5.192021,-5.092892 5.301601,-5.304127 0.06061,-0.1168434 0.07295,-0.1881881 0.07295,-0.421875 0,-0.2344275 -0.01222,-0.3046612 -0.0734,-0.421875 -0.100009,-0.1916006 -0.270125,-0.3639297 -0.4574,-0.4633497 -0.135714,-0.072048 -0.193214,-0.08295 -0.4375,-0.08295 -0.245022,0 -0.301377,0.010757 -0.4375,0.083509 -0.113984,0.060919 -0.735271,0.6631318 -2.296792,2.2262768 L 8.0157919,9.6250041 5.7969584,7.4091181 C 4.2735178,5.8877009 3.5340525,5.1703678 3.4375,5.1202775 3.3206134,5.0596384 3.2493981,5.0473341 3.015625,5.0473869 c -0.2442143,6.25e-5 -0.3018254,0.010986 -0.4375,0.083013 -0.1872746,0.09942 -0.3573909,0.2717491 -0.4574001,0.4633497 -0.061202,0.1172531 -0.073391,0.1873687 -0.073338,0.421875 5.63e-5,0.2449578 0.01084,0.3014122 0.083578,0.4375 0.061437,0.1149447 0.7635538,0.8349897 2.6559623,2.7237809 2.6322181,2.6271875 2.6623122,2.6549705 2.9943228,2.7643945 0.042969,0.01416 0.1835937,0.0214 0.3125,0.01609 0.1781847,-0.0073 0.2718353,-0.0291 0.390625,-0.09076 z"
       id="path821"
       inkscape:connector-curvature="0" />
    <path
       style="fill:#fefefe;stroke-width:0.03125"
       d="M 7.78125,11.9413 C 7.4492394,11.831876 7.4191453,11.804093 4.7869272,9.1769059 2.8945187,7.2881147 2.1924019,6.5680697 2.1309649,6.453125 2.0582271,6.3170372 2.0474423,6.2605828 2.0473868,6.015625 2.0473337,5.7811187 2.0595225,5.7110031 2.1207249,5.59375 2.2207341,5.4021494 2.3908504,5.2298203 2.578125,5.1304003 c 0.1356746,-0.072027 0.1932857,-0.082958 0.4375,-0.083013 0.2337731,-6.25e-5 0.3049884,0.012251 0.421875,0.072891 0.096553,0.05009 0.8360178,0.7674234 2.3594584,2.2888406 l 2.2188335,2.215886 2.1405411,-2.1427678 c 1.561521,-1.563145 2.182808,-2.1653575 2.296792,-2.2262769 0.136123,-0.072752 0.192478,-0.083509 0.4375,-0.083509 0.244286,0 0.301786,0.010902 0.4375,0.08295 0.187275,0.09942 0.357391,0.2717491 0.4574,0.4633497 0.06118,0.1172138 0.0734,0.1874475 0.0734,0.421875 0,0.2336869 -0.01234,0.3050316 -0.07295,0.421875 -0.10958,0.211235 -5.0905444,5.1945731 -5.301601,5.3041271 -0.1187897,0.06166 -0.2124403,0.08342 -0.390625,0.09076 -0.1289063,0.0053 -0.2695313,-0.0019 -0.3125,-0.01609 z"
       id="path819"
       inkscape:connector-curvature="0" />
  </g>
</svg>
