<?xml version="1.0" encoding="UTF-8" standalone="no"?>
<!-- Created with Inkscape (http://www.inkscape.org/) -->

<svg
   version="1.1"
   id="svg2"
   width="16"
   height="16"
   viewBox="0 0 16 16"
   sodipodi:docname="INSTANCE_TRANSFORM_GET.svg"
   inkscape:version="1.2.2 (732a01da63, 2022-12-09)"
   xmlns:inkscape="http://www.inkscape.org/namespaces/inkscape"
   xmlns:sodipodi="http://sodipodi.sourceforge.net/DTD/sodipodi-0.dtd"
   xmlns="http://www.w3.org/2000/svg"
   xmlns:svg="http://www.w3.org/2000/svg">
  <defs
     id="defs6" />
  <sodipodi:namedview
     id="namedview4"
     pagecolor="#ffffff"
     bordercolor="#000000"
     borderopacity="0.25"
     inkscape:showpageshadow="2"
     inkscape:pageopacity="0.0"
     inkscape:pagecheckerboard="0"
     inkscape:deskcolor="#d1d1d1"
     showgrid="false"
     inkscape:zoom="47.375"
     inkscape:cx="8.0527704"
     inkscape:cy="8"
     inkscape:window-width="2560"
     inkscape:window-height="1377"
     inkscape:window-x="-8"
     inkscape:window-y="-8"
     inkscape:window-maximized="1"
     inkscape:current-layer="g8" />
  <g
     inkscape:groupmode="layer"
     inkscape:label="Image"
     id="g8">
    <g
       id="INSTANCE_TRANSFORM_GET">
      <path
         style="fill:#ffffff;stroke-width:0.03125"
         d="M 5,15.125 V 14.25 h 3 3 V 15.125 16 H 8 5 Z m 0,-3.25 V 11 H 4.125 3.25 V 10 9 H 2.5 1.75 v 1 1 H 0.875 0 V 5.5 0 H 5.5 11 V 0.875 1.75 H 10 9 V 2.5 3.25 h 1 1 V 4.125 5 h 0.875 0.875 v 3 3 H 11.875 11 v 0.875 0.875 H 8 5 Z M 2,5 V 2 H 5 8 V 1.5 1 H 4.5 1 V 4.5 8 H 1.5 2 Z M 4,6 V 4 H 6 8 V 3.5 3 H 5.5 3 V 5.5 8 H 3.5 4 Z M 6,7 V 6 H 7 8 V 5.5 5 H 6.5 5 V 6.5 8 H 5.5 6 Z m 8.25,1 V 5 H 15.125 16 v 3 3 H 15.125 14.25 Z"
         id="path855" />
      <path
         style="fill:#fefefe;stroke-width:0.03125"
         d="M 1,4.5 V 1 H 4.5 8 V 1.5 2 H 5 2 V 5 8 H 1.5 1 Z m 2,1 V 3 H 5.5 8 V 3.5 4 H 6 4 V 6 8 H 3.5 3 Z m 2,1 V 5 H 6.5 8 V 5.5 6 H 7 6 V 7 8 H 5.5 5 Z"
         id="path853" />
      <path
         style="fill:#c9fcfc;stroke-width:0.03125"
         d="M 1,13.5 V 12 H 2.5 4 V 13.5 15 H 2.5 1 Z m 11,0 V 12 H 13.5 15 V 13.5 15 H 13.5 12 Z m -7,0 V 13 h 3 3 V 13.5 14 H 8 5 Z M 2,10 V 9 H 2.5 3 v 1 1 H 2.5 2 Z M 13,8 V 5 h 0.5 0.5 v 3 3 H 13.5 13 Z M 12,2.5 V 1 H 13.5 15 V 2.5 4 H 13.5 12 Z m -3,0 V 2 h 1 1 V 2.5 3 H 10 9 Z"
         id="path851" />
      <path
         style="fill:#323232;stroke-width:0.03125"
         d="M 0,13.5 V 11 H 0.875 1.75 V 10 9 H 1.875 2 v 1 1 H 2.5 3 V 10 9 H 3.125 3.25 v 1 1 H 4.125 5 v 0.875 0.875 h 3 3 V 11.875 11 h 0.875 0.875 V 8 5 H 11.875 11 V 4.125 3.25 H 10 9 V 3.125 3 h 1 1 V 2.5 2 H 10 9 V 1.875 1.75 h 1 1 V 0.875 0 H 13.5 16 V 2.5 5 H 15.125 14.25 v 3 3 H 15.125 16 V 13.5 16 H 13.5 11 V 15.125 14.25 H 8 5 V 15.125 16 H 2.5 0 Z m 4,0 V 12 H 2.5 1 V 13.5 15 H 2.5 4 Z m 11,0 V 12 H 13.5 12 v 1.5 1.5 h 1.5 1.5 z m -4,0 V 13 H 8 5 v 0.5 0.5 h 3 3 z M 14,8 V 5 H 13.5 13 v 3 3 H 13.5 14 Z M 15,2.5 V 1 H 13.5 12 V 2.5 4 h 1.5 1.5 z"
         id="path849" />
    </g>
  </g>
</svg>
