<?xml version="1.0" encoding="UTF-8" standalone="no"?>
<!-- Created with Inkscape (http://www.inkscape.org/) -->

<svg
   xmlns:dc="http://purl.org/dc/elements/1.1/"
   xmlns:cc="http://creativecommons.org/ns#"
   xmlns:rdf="http://www.w3.org/1999/02/22-rdf-syntax-ns#"
   xmlns:svg="http://www.w3.org/2000/svg"
   xmlns="http://www.w3.org/2000/svg"
   xmlns:sodipodi="http://sodipodi.sourceforge.net/DTD/sodipodi-0.dtd"
   xmlns:inkscape="http://www.inkscape.org/namespaces/inkscape"
   version="1.1"
   id="svg2"
   width="16"
   height="16"
   viewBox="0 0 16 16"
   sodipodi:docname="PANEL_CLOSE.svg"
   inkscape:version="0.92.4 (5da689c313, 2019-01-14)">
  <metadata
     id="metadata8">
    <rdf:RDF>
      <cc:Work
         rdf:about="">
        <dc:format>image/svg+xml</dc:format>
        <dc:type
           rdf:resource="http://purl.org/dc/dcmitype/StillImage" />
        <dc:title></dc:title>
      </cc:Work>
    </rdf:RDF>
  </metadata>
  <defs
     id="defs6" />
  <sodipodi:namedview
     pagecolor="#ffffff"
     bordercolor="#666666"
     borderopacity="1"
     objecttolerance="10"
     gridtolerance="10"
     guidetolerance="10"
     inkscape:pageopacity="0"
     inkscape:pageshadow="2"
     inkscape:window-width="1280"
     inkscape:window-height="830"
     id="namedview4"
     showgrid="false"
     inkscape:zoom="14.75"
     inkscape:cx="-1.0169492"
     inkscape:cy="8"
     inkscape:window-x="0"
     inkscape:window-y="0"
     inkscape:window-maximized="0"
     inkscape:current-layer="svg2" />
  <g
     id="PANEL_CLOSE">
    <path
       style="fill:#ffffff;stroke-width:0.03125"
       d="M 0,8 V 0 h 8 8 v 8 8 H 8 0 Z m 5.59375,5.172212 c 0.060156,-0.03022 0.6261719,-0.569933 1.2578125,-1.199359 L 8,10.828442 9.1484375,11.973454 c 0.7574409,0.755182 1.1909955,1.164743 1.2734375,1.202966 0.175287,0.08127 0.637252,0.08126 0.8125,-1.8e-5 0.180725,-0.08382 1.841807,-1.740131 1.931948,-1.926402 0.09154,-0.189163 0.09704,-0.640591 0.0101,-0.828125 -0.03822,-0.08244 -0.447784,-0.5159966 -1.202966,-1.2734375 L 10.828442,8 11.973454,6.8515625 C 12.728636,6.0941216 13.138197,5.6605675 13.17642,5.578125 13.263368,5.3905912 13.257864,4.9391631 13.166323,4.75 13.076182,4.5637294 11.4151,2.9074157 11.234375,2.8235982 c -0.175248,-0.081277 -0.637213,-0.081288 -0.8125,-1.85e-5 -0.08244,0.038224 -0.5159966,0.4477847 -1.2734375,1.2029665 L 8,5.1715581 6.8515625,4.0265462 C 6.0941216,3.2713644 5.6605675,2.8618032 5.578125,2.8235797 5.3905912,2.736632 4.9391631,2.7421362 4.75,2.8336769 4.5637294,2.9238178 2.9074157,4.5849003 2.8235982,4.765625 c -0.081277,0.1752478 -0.081288,0.6372134 -1.85e-5,0.8125 0.038224,0.082442 0.4477847,0.5159966 1.2029665,1.2734375 L 5.1715581,8 4.0265462,9.1484375 c -0.7551818,0.7574409 -1.164743,1.1909955 -1.2029665,1.2734375 -0.081269,0.175287 -0.081259,0.637252 1.85e-5,0.8125 0.080361,0.173271 1.7415102,1.843568 1.9107768,1.921299 0.2016831,0.09262 0.2068519,0.09349 0.484375,0.08225 0.1724131,-0.007 0.3040062,-0.03005 0.375,-0.06571 z"
       id="path823"
       inkscape:connector-curvature="0" />
    <path
       style="fill:#fefefe;stroke-width:0.03125"
       d="M 4.4608516,11.539148 3.7500416,10.828338 5.1639544,9.4141691 6.5778675,8 5.1639544,6.5858309 3.7500416,5.1716619 4.4608516,4.4608516 5.1716619,3.7500416 6.5858309,5.1639544 8,6.5778675 9.4141691,5.1639544 10.828338,3.7500416 l 0.71081,0.71081 0.71081,0.7108103 -1.413912,1.414169 L 9.4221325,8 l 1.4139135,1.4141691 1.413912,1.4141689 -0.71081,0.71081 -0.71081,0.71081 L 9.4141691,10.836046 8,9.4221325 6.5858309,10.836046 5.1716619,12.249958 Z"
       id="path821"
       inkscape:connector-curvature="0" />
    <path
       style="fill:#000000;stroke-width:0.03125"
       d="m 4.90625,13.230881 c -0.2376366,-0.09026 -0.3582928,-0.194422 -1.1607769,-1.002058 -0.55291,-0.55646 -0.8847712,-0.914446 -0.9218749,-0.994448 -0.081277,-0.175248 -0.081288,-0.637213 -1.85e-5,-0.8125 0.038224,-0.08244 0.4477847,-0.5159966 1.2029665,-1.2734375 L 5.1715581,8 4.0265462,6.8515625 C 3.2713644,6.0941216 2.8618032,5.6605675 2.8235797,5.578125 2.7423103,5.4028384 2.7423208,4.9408728 2.8235982,4.765625 2.9074157,4.5849003 4.5637294,2.9238178 4.75,2.8336769 4.9391631,2.7421362 5.3905912,2.736632 5.578125,2.8235797 5.6605675,2.8618032 6.0941216,3.2713644 6.8515625,4.0265462 L 8,5.1715581 9.1484375,4.0265462 c 0.7574409,-0.7551818 1.1909955,-1.164743 1.2734375,-1.2029665 0.175287,-0.081269 0.637252,-0.081259 0.8125,1.85e-5 0.180725,0.083817 1.841807,1.7401312 1.931948,1.9264018 0.09154,0.1891631 0.09704,0.6405912 0.0101,0.828125 -0.03822,0.082442 -0.447784,0.5159966 -1.202966,1.2734375 L 10.828442,8 11.973454,9.1484375 c 0.755182,0.7574409 1.164743,1.1909955 1.202966,1.2734375 0.08695,0.187534 0.08144,0.638962 -0.0101,0.828125 -0.09014,0.186271 -1.751223,1.842584 -1.931948,1.926402 -0.175248,0.08128 -0.637213,0.08129 -0.8125,1.8e-5 C 10.339432,13.1382 9.9058754,12.728636 9.1484345,11.973454 L 8,10.828442 6.8515625,11.972853 c -0.6316406,0.629426 -1.1976562,1.169138 -1.2578125,1.199359 -0.1097766,0.05515 -0.5890822,0.09605 -0.6875,0.05867 z m 4.5079191,-2.394835 1.4141689,1.413912 0.71081,-0.71081 0.71081,-0.71081 L 10.836046,9.4141691 9.4221325,8 10.836046,6.5858309 12.249958,5.1716619 11.539148,4.4608516 10.828338,3.7500416 9.4141691,5.1639544 8,6.5778675 6.5858309,5.1639544 5.1716619,3.7500416 4.4608516,4.4608516 3.7500416,5.1716619 5.1639544,6.5858309 6.5778675,8 5.1639544,9.4141691 3.7500416,10.828338 l 0.71081,0.71081 0.7108103,0.71081 1.414169,-1.413912 L 8,9.4221325 Z"
       id="path819"
       inkscape:connector-curvature="0" />
  </g>
</svg>
