<?xml version="1.0" encoding="UTF-8" standalone="no"?>
<!-- Created with Inkscape (http://www.inkscape.org/) -->

<svg
   xmlns:dc="http://purl.org/dc/elements/1.1/"
   xmlns:cc="http://creativecommons.org/ns#"
   xmlns:rdf="http://www.w3.org/1999/02/22-rdf-syntax-ns#"
   xmlns:svg="http://www.w3.org/2000/svg"
   xmlns="http://www.w3.org/2000/svg"
   xmlns:sodipodi="http://sodipodi.sourceforge.net/DTD/sodipodi-0.dtd"
   xmlns:inkscape="http://www.inkscape.org/namespaces/inkscape"
   version="1.1"
   id="svg2"
   width="16"
   height="16"
   viewBox="0 0 16 16"
   sodipodi:docname="BATCH_GENERATE_CLEAR.svg"
   inkscape:version="0.92.4 (5da689c313, 2019-01-14)">
  <metadata
     id="metadata8">
    <rdf:RDF>
      <cc:Work
         rdf:about="">
        <dc:format>image/svg+xml</dc:format>
        <dc:type
           rdf:resource="http://purl.org/dc/dcmitype/StillImage" />
        <dc:title></dc:title>
      </cc:Work>
    </rdf:RDF>
  </metadata>
  <defs
     id="defs6" />
  <sodipodi:namedview
     pagecolor="#ffffff"
     bordercolor="#666666"
     borderopacity="1"
     objecttolerance="10"
     gridtolerance="10"
     guidetolerance="10"
     inkscape:pageopacity="0"
     inkscape:pageshadow="2"
     inkscape:window-width="828"
     inkscape:window-height="480"
     id="namedview4"
     showgrid="false"
     inkscape:zoom="14.75"
     inkscape:cx="8"
     inkscape:cy="8"
     inkscape:window-x="0"
     inkscape:window-y="0"
     inkscape:window-maximized="0"
     inkscape:current-layer="svg2" />
  <g
     id="BATCH_GENERATE_CLEAR">
    <path
       style="fill:#ffffff;stroke-width:0.03125"
       d="M 0,8 V 0 h 8 8 v 8 8 H 8 0 Z m 9.6650663,7.675902 c 0.055307,-0.02357 0.1346506,-0.07982 0.1763184,-0.125 0.055486,-0.06017 0.1066125,-0.08215 0.1910473,-0.08215 0.18531,0 0.434307,-0.057 0.619621,-0.141837 0.124247,-0.05688 0.273154,-0.178519 0.534323,-0.436471 l 0.362072,-0.357613 0.2481,0.443253 c 0.352009,0.628894 0.468626,0.742668 0.761228,0.742668 0.408875,0 1.610747,-0.703616 1.743149,-1.020497 0.02355,-0.05637 0.04281,-0.176775 0.0428,-0.267562 -2.8e-5,-0.188711 -0.07234,-0.35952 -0.37194,-0.878558 -0.104794,-0.18155 -0.190535,-0.339487 -0.190535,-0.350971 0,-0.01149 0.06382,-0.116882 0.141823,-0.234214 0.078,-0.117334 0.189893,-0.317374 0.248645,-0.444535 l 0.106822,-0.231201 0.625054,-0.02088 c 0.646219,-0.02159 0.747884,-0.03965 0.873966,-0.155221 0.17465,-0.160094 0.189818,-0.249194 0.189818,-1.115106 0,-0.708761 -0.0064,-0.810697 -0.05769,-0.921875 C 15.808273,9.8583931 15.641296,9.75 15.404216,9.75 c -0.08196,0 -0.122966,-0.013968 -0.122966,-0.041884 0,-0.1132691 -0.202927,-0.4317735 -0.388827,-0.6102838 -0.24249,-0.23285 -0.470873,-0.3442994 -0.802702,-0.3917113 l -0.244498,-0.034934 0.14362,-0.249656 C 14.26125,7.9480034 14.34375,7.7501056 14.34375,7.5701903 c 0,-0.091271 -0.01927,-0.2120706 -0.04283,-0.2684428 C 14.168523,6.9848662 12.966651,6.28125 12.557776,6.28125 c -0.29389,0 -0.4066,0.1108341 -0.769249,0.7564478 -0.141782,0.2524103 -0.271734,0.4675484 -0.288781,0.4780844 -0.02031,0.012551 -0.031,-0.4379535 -0.031,-1.3065475 0,-0.7598269 -0.01344,-1.3965791 -0.03149,-1.4917456 C 11.387329,4.4542019 11.267163,4.2312137 11.057609,4.0129856 10.818241,3.7637078 10.565577,3.6315334 10.238298,3.5843841 9.7566916,3.5150016 9.3534281,3.6453625 9.0029375,3.9837325 L 8.7918713,4.1875 H 8.5375069 8.2831425 L 8.1740197,3.9513175 C 8.1140019,3.8214175 8.0010762,3.6191356 7.9230734,3.5018025 7.8450706,3.3844697 7.78125,3.2790731 7.78125,3.2675884 7.78125,3.2561034 7.866991,3.0981667 7.971785,2.9166172 8.2713847,2.3975792 8.3436972,2.2267699 8.3437253,2.0380588 8.3437388,1.9472724 8.3244788,1.8268698 8.3009247,1.7704975 8.1685234,1.4536163 6.9666506,0.75 6.5577756,0.75 6.4035313,0.75 6.2566841,0.81186309 6.15625,0.91915297 6.1132812,0.96505478 5.9515625,1.2222813 5.796875,1.4907674 L 5.515625,1.978924 H 5 4.484375 L 4.203125,1.4907674 C 4.0484375,1.2222813 3.8867188,0.96505478 3.84375,0.91915297 3.7424753,0.81096525 3.5962134,0.75 3.4379347,0.75 3.1671197,0.75 2.2842321,1.1920376 1.925463,1.507253 1.7137999,1.6932207 1.6562401,1.8067215 1.6562747,2.0380588 1.6563028,2.2267699 1.7286155,2.3975792 2.0282151,2.9166172 2.1330093,3.0981667 2.21875,3.2561037 2.21875,3.2675884 c 0,0.011485 -0.06382,0.1168813 -0.1418233,0.2342141 C 1.9989238,3.6191356 1.8870384,3.8191656 1.8282924,3.9463134 L 1.7214815,4.1774916 1.0985354,4.1975941 C 0.45589109,4.2183322 0.34935356,4.2373088 0.22244004,4.3536441 0.04778966,4.5137375 0.03262262,4.6028381 0.03262262,5.46875 c 0,0.8659119 0.01516704,0.9550125 0.18981742,1.1151059 0.12608187,0.1155728 0.22774684,0.1336294 0.87396606,0.1552213 l 0.6250541,0.020885 0.1068215,0.2312012 c 0.058752,0.1271607 0.1706421,0.327201 0.248645,0.4445341 0.078003,0.1173328 0.1418233,0.2233822 0.1418233,0.235665 0,0.012283 -0.078284,0.1553478 -0.1739638,0.3179222 C 1.6604978,8.6422463 1.5861953,8.8968431 1.7002537,9.1698231 1.8254911,9.4695584 3.0395448,10.1875 3.4211659,10.1875 3.5959434,10.1875 3.7399013,10.12958 3.84375,10.017464 3.886719,9.971076 4.0493534,9.7126231 4.2051606,9.4431238 4.4375581,9.0411463 4.5007116,8.9535259 4.5567231,8.9553572 c 0.037552,0.00123 0.1968794,0.00474 0.35406,0.00781 L 5.1965659,8.96875 5.0340919,9.1405425 C 4.7385397,9.4530456 4.6123522,9.8754347 4.6781341,10.332048 c 0.066637,0.462551 0.064998,0.46053 1.692284,2.086334 l 1.4665928,1.465256 -0.090356,0.190994 c -0.1021906,0.216009 -0.1196131,0.451221 -0.046402,0.626441 0.060072,0.143774 0.384796,0.40438 0.7914179,0.635151 0.6443462,0.365688 0.9230237,0.44636 1.1733955,0.339678 z M 11.46875,10.317531 c 0,-0.176245 0.0052,-0.191934 0.05504,-0.165275 0.03027,0.0162 0.07932,0.05629 0.109,0.08908 0.05165,0.05707 0.04929,0.06416 -0.05504,0.165275 l -0.109,0.105646 z M 4.7919922,6.4362056 C 4.5968247,6.3975931 4.4341375,6.3028687 4.2848731,6.1409362 4.0901425,5.9296781 4.0205006,5.7526087 4.0205006,5.46875 c 0,-0.2882231 0.071215,-0.4649353 0.2752966,-0.6831147 C 4.4922387,4.5756234 4.6963887,4.4898847 5,4.4898847 c 0.3036113,0 0.5077612,0.085739 0.7042028,0.2957506 0.2040813,0.2181794 0.2752966,0.3948916 0.2752966,0.6831147 0,0.2838587 -0.069642,0.4609281 -0.2643725,0.6721862 -0.1613875,0.1750844 -0.2965647,0.2483163 -0.54217,0.2937191 -0.2041231,0.037734 -0.1981957,0.03771 -0.3809647,0.00155 z"
       id="path825"
       inkscape:connector-curvature="0" />
    <path
       style="fill:#fefefe;stroke-width:0.03125"
       d="M 12.457144,15.085938 C 12.175956,14.599292 11.9375,14.173586 11.9375,14.158236 c 0,-0.0099 0.380931,-0.397635 0.846514,-0.861578 0.644779,-0.642508 0.823964,-0.806297 0.75189,-0.687283 -0.05204,0.08594 -0.158755,0.231226 -0.237139,0.322864 -0.07838,0.09164 -0.142316,0.183044 -0.142072,0.203125 2.5e-4,0.02008 0.148373,0.296667 0.329176,0.614636 0.180803,0.317969 0.337302,0.611704 0.347775,0.652745 0.02088,0.08183 -2.18e-4,0.103617 -0.302394,0.312222 -0.240054,0.165715 -0.554401,0.336756 -0.78498,0.42712 -0.107591,0.04217 -0.199393,0.07666 -0.204003,0.07666 -0.0046,0 -0.04292,-0.05977 -0.08512,-0.132812 z M 8.6716944,14.841394 C 8.3721716,14.666363 8.15625,14.496982 8.15625,14.437051 c 0,-0.02756 0.017578,-0.07414 0.039063,-0.103504 0.034843,-0.04763 0.076137,-0.01621 0.3822797,0.290902 0.1887694,0.189366 0.3362022,0.344301 0.3276291,0.344301 -0.00857,0 -0.1136607,-0.05731 -0.2335274,-0.127356 z m 6.0354216,-3.470367 c 0.466253,-0.47496 0.555191,-0.619008 0.619794,-1.003839 0.02023,-0.120525 0.08823,-0.158023 0.122872,-0.06776 0.02754,0.07177 0.02238,1.365569 -0.0056,1.409611 -0.01595,0.02508 -0.206276,0.04411 -0.585459,0.05853 l -0.561827,0.02136 z M 8.336055,10.289063 8.1269109,10.078125 8.2453209,9.8125 C 8.3104463,9.6664063 8.4081869,9.4765625 8.4625216,9.390625 l 0.098791,-0.15625 5.938e-4,0.6328125 C 8.5622313,10.215234 8.5586072,10.5 8.5538494,10.5 8.5490916,10.5 8.4510841,10.405078 8.336055,10.289063 Z M 11.942498,9.8332813 C 11.887037,9.77606 11.757755,9.6891397 11.655205,9.6401253 L 11.46875,9.5510081 V 8.7933869 8.0357659 l 0.164471,0.016975 0.164471,0.016975 0.340644,-0.59838 c 0.187354,-0.3291087 0.355962,-0.6193297 0.374686,-0.6449353 0.02966,-0.040561 0.05946,-0.036594 0.231456,0.03081 0.23222,0.091007 0.546131,0.2617019 0.786772,0.4278228 0.30235,0.20872 0.323301,0.2303638 0.30223,0.3122219 -0.01056,0.041041 -0.171306,0.3418072 -0.357202,0.6683697 L 13.138284,8.859375 12.59081,9.3983475 12.043336,9.9373197 Z M 3.0625,9.5216169 C 2.5552697,9.2639478 2.15625,8.9965072 2.15625,8.9142088 2.15625,8.8563868 2.243916,8.6878297 2.5710652,8.1166359 2.892021,7.5562559 2.8883469,7.6127491 2.6243108,7.2979212 2.4633727,7.1060238 2.2128532,6.6395978 2.1424266,6.4007322 L 2.1025918,6.265625 1.3427846,6.2431291 C 0.77962269,6.2264553 0.5764075,6.2102797 0.55759222,6.1806291 0.52418691,6.1279862 0.52460669,4.8088578 0.55804566,4.7561375 0.57747275,4.7255081 0.77230519,4.71 1.3432381,4.6936375 L 2.1025921,4.671875 2.1424268,4.5367678 C 2.2128532,4.2979022 2.4633727,3.8314762 2.6243109,3.6395788 2.888508,3.3245588 2.8952794,3.3910878 2.5343184,2.7554036 2.3593791,2.4473199 2.1993983,2.1506143 2.1788056,2.0960579 2.1428487,2.0007972 2.1463054,1.9926622 2.2659947,1.8908717 2.4267528,1.7541539 3.0054745,1.4239538 3.2573029,1.325263 3.4277873,1.2584508 3.4573123,1.2545797 3.4869785,1.2951504 3.5057017,1.320756 3.6739632,1.6103671 3.8608932,1.9387308 l 0.3398722,0.5970248 0.266805,-0.02569 c 0.3396463,-0.032704 0.7252131,-0.032704 1.0648594,0 l 0.266805,0.02569 L 6.139107,1.9387308 C 6.326037,1.6103671 6.4942985,1.320756 6.5130217,1.2951504 c 0.029659,-0.040561 0.05946,-0.036594 0.2314559,0.03081 0.3097812,0.1214022 0.7445619,0.3765547 1.0365487,0.6083019 0.071394,0.056665 0.074762,0.070148 0.040314,0.1614091 -0.020673,0.054769 -0.1807194,0.3516481 -0.3556587,0.6597318 -0.360961,0.6356842 -0.3541894,0.5691552 -0.089993,0.8841752 0.1609371,0.1918959 0.4114559,0.6583196 0.4818853,0.897189 l 0.039836,0.1351072 0.3518647,0.00887 0.3518647,0.00887 -0.01932,0.096599 C 8.5711938,4.8393434 8.5625,5.1899541 8.5625,5.5653491 v 0.6825365 l -0.3325488,0.00887 -0.332549,0.00887 -0.039832,0.1351072 c -0.070418,0.2388553 -0.32094,0.7052875 -0.4818815,0.897189 -0.2641969,0.31502 -0.2709685,0.248491 0.089993,0.8841751 C 7.640621,8.4901806 7.8006676,8.78706 7.8213404,8.8418287 7.8637454,8.9541725 7.8654184,8.9522034 7.5282573,9.1866753 L 7.3533897,9.3082828 7.1532572,9.1057506 C 6.8534672,8.8023663 6.5083237,8.65625 6.0914844,8.65625 5.9486072,8.65625 5.9381103,8.65022 5.8699963,8.5290281 L 5.7984938,8.4018063 5.5320594,8.4274656 c -0.3382335,0.032574 -0.72418,0.03268 -1.0633094,2.813e-4 L 4.203125,8.4023778 3.8389634,9.0371219 C 3.6386747,9.3862313 3.4558622,9.6755622 3.4327134,9.6800794 3.409565,9.6846059 3.2429688,9.6132938 3.0625,9.5216169 Z M 5.3478459,6.9237422 C 5.6479678,6.8601281 5.8316331,6.7539125 6.070955,6.5055597 6.3198931,6.2472281 6.4322919,6.0251284 6.4793319,5.6986081 6.5212169,5.4078694 6.4774475,5.0772494 6.3643762,4.8302687 6.2553972,4.5922275 5.9152997,4.2406125 5.6776678,4.1203053 5.2946912,3.9264134 4.7053087,3.9264134 4.3223322,4.1203053 4.0997075,4.233015 3.7603872,4.5761609 3.6435369,4.8067537 3.4618047,5.165385 3.4618422,5.7720631 3.6436306,6.1310159 3.7679331,6.3764756 4.1197509,6.7250797 4.3453441,6.8263197 4.6668019,6.9705816 4.9822512,7.0012362 5.3478578,6.9237422 Z M 8.3624178,7.9835381 C 8.2609663,7.8010194 8.1718416,7.6196759 8.1643628,7.5805534 8.1533447,7.5229172 8.1883425,7.4811528 8.34882,7.3604322 l 0.198055,-0.1489885 0.00901,0.2864838 c 0.00495,0.1575662 0.00495,0.4059541 0,0.5519734 l -0.00901,0.2654897 z"
       id="path823"
       inkscape:connector-curvature="0" />
    <path
       style="fill:#fe9832;stroke-width:0.03125"
       d="M 9.8170866,14.936056 C 9.7422653,14.920849 9.6227341,14.873702 9.5514616,14.831284 9.4801888,14.788866 8.4978375,13.828615 7.3684581,12.697393 5.0880787,10.413292 5.1774606,10.519049 5.1772156,10.104713 5.1769031,9.5778525 5.5794794,9.1773475 6.109375,9.1773475 c 0.3940863,0 0.3895088,-0.00354 1.7421875,1.3469615 0.84579,0.844428 1.2115388,1.190304 1.2129319,1.147027 0.0011,-0.03408 0.00461,-1.594773 0.00781,-3.468211 l 0.00582,-3.40625 0.086868,-0.1768919 C 9.3335081,4.2768316 9.63995,4.0835975 10.015625,4.0835975 c 0.375675,0 0.682117,0.1932341 0.850632,0.5363856 l 0.08687,0.1768919 0.0058,3.40625 c 0.0032,1.873438 0.0067,3.434129 0.0078,3.468204 0.0014,0.04328 0.36225,-0.297711 1.197307,-1.131397 1.335557,-1.3333664 1.332922,-1.3313345 1.726562,-1.3313345 0.373893,0 0.682573,0.1935459 0.848028,0.5317228 0.06767,0.1383063 0.08424,0.2162344 0.08413,0.3956427 -2.5e-4,0.414428 0.08925,0.308574 -2.191242,2.591664 -1.630273,1.632125 -2.085615,2.071163 -2.209667,2.130543 -0.18229,0.08726 -0.41269,0.116928 -0.6047884,0.07789 z"
       id="path821"
       inkscape:connector-curvature="0" />
    <path
       style="fill:#323232;stroke-width:0.03125"
       d="m 9.0470541,15.621942 c -0.5910203,-0.25571 -1.2599975,-0.71312 -1.3468003,-0.920869 -0.073212,-0.17522 -0.055789,-0.410432 0.046401,-0.626441 L 7.8370109,13.883638 6.3704181,12.418382 C 4.7431319,10.792578 4.7447713,10.794599 4.6781341,10.332048 4.6123522,9.8754347 4.7385397,9.4530456 5.0340919,9.1405425 L 5.1965659,8.96875 4.9107831,8.9631697 c -0.1571806,-0.00307 -0.3165078,-0.00658 -0.35406,-0.00781 -0.056012,-0.00183 -0.119165,0.085789 -0.3515625,0.4877666 C 4.0493534,9.7126231 3.8867188,9.9710763 3.84375,10.017464 3.7399013,10.129575 3.5959434,10.1875 3.4211659,10.1875 3.0395448,10.1875 1.8254911,9.4695584 1.7002537,9.1698231 1.5861953,8.8968431 1.6604977,8.6422463 2.0447862,7.9892847 2.1404663,7.8267103 2.21875,7.6836453 2.21875,7.6713625 2.21875,7.6590795 2.15493,7.5530303 2.0769267,7.4356975 1.9989238,7.3183644 1.8870336,7.1183241 1.8282817,6.9911634 L 1.7214602,6.7599622 1.0964061,6.7390772 C 0.45018688,6.7174853 0.34852191,6.6994287 0.22244004,6.5838559 0.04778966,6.4237625 0.03262262,6.3346619 0.03262262,5.46875 c 0,-0.8659119 0.01516704,-0.9550125 0.18981742,-1.1151059 C 0.34935356,4.2373087 0.45589109,4.2183322 1.0985354,4.1975941 L 1.7214815,4.1774916 1.8282924,3.9463134 C 1.8870384,3.8191656 1.9989238,3.6191356 2.0769267,3.5018025 2.1549295,3.3844697 2.21875,3.2790731 2.21875,3.2675884 2.21875,3.2561037 2.1330093,3.0981667 2.0282151,2.9166172 1.7286155,2.3975792 1.6563028,2.2267699 1.6562747,2.0380588 1.6562401,1.8067215 1.7137999,1.6932207 1.925463,1.507253 2.2842321,1.1920376 3.1671197,0.75 3.4379347,0.75 3.5962134,0.75 3.7424753,0.81096525 3.84375,0.91915297 3.8867188,0.96505478 4.0484375,1.2222813 4.203125,1.4907674 L 4.484375,1.978924 H 5 5.515625 L 5.796875,1.4907674 C 5.9515625,1.2222813 6.1132812,0.96505478 6.15625,0.91915297 6.2566841,0.81186309 6.4035313,0.75 6.5577756,0.75 c 0.408875,0 1.6107478,0.7036163 1.7431491,1.0204975 0.023554,0.056372 0.042814,0.1767749 0.042801,0.2675613 C 8.3436972,2.2267699 8.2713847,2.3975792 7.971785,2.9166172 7.8669906,3.0981667 7.78125,3.2561037 7.78125,3.2675884 c 0,0.011485 0.063821,0.1168813 0.1418234,0.2342141 0.078003,0.1173331 0.1909285,0.319615 0.2509463,0.449515 L 8.2831425,4.1875 H 8.5375069 8.7918713 L 9.0029375,3.9837325 c 0.3504906,-0.33837 0.7537541,-0.4687309 1.2353605,-0.3993484 0.588785,0.084823 1.089991,0.5584981 1.198963,1.133105 0.01805,0.095167 0.03149,0.7319187 0.03149,1.4917456 0,0.868594 0.01069,1.3190987 0.031,1.3065475 0.01705,-0.010536 0.146999,-0.2256741 0.288781,-0.4780844 0.362649,-0.6456137 0.475359,-0.7564478 0.769249,-0.7564478 0.408875,0 1.610747,0.7036162 1.743149,1.0204975 0.02355,0.056372 0.04283,0.1771716 0.04283,0.2684428 0,0.1799153 -0.0825,0.3778131 -0.354907,0.8513406 l -0.14362,0.249656 0.244498,0.034934 c 0.331829,0.047412 0.560212,0.1588613 0.802702,0.3917116 0.1859,0.1785103 0.388827,0.4970147 0.388827,0.6102838 0,0.027916 0.04101,0.041884 0.122966,0.041884 0.23708,0 0.404057,0.1083931 0.50547,0.3281247 0.05131,0.111178 0.05769,0.213114 0.05769,0.921875 0,0.865912 -0.01517,0.955013 -0.189818,1.115106 -0.126082,0.115573 -0.227747,0.133629 -0.873966,0.155221 l -0.625054,0.02088 -0.106822,0.231201 c -0.05875,0.127161 -0.170642,0.327201 -0.248645,0.444535 -0.078,0.117332 -0.141823,0.222729 -0.141823,0.234214 0,0.01148 0.08574,0.169421 0.190535,0.350971 0.2996,0.519038 0.371912,0.689847 0.37194,0.878558 1.4e-5,0.09079 -0.01925,0.211189 -0.0428,0.267562 -0.132402,0.316881 -1.334274,1.020497 -1.743149,1.020497 -0.292602,0 -0.409219,-0.113774 -0.761228,-0.742667 l -0.2481,-0.443254 -0.362072,0.357613 c -0.261169,0.257952 -0.410076,0.379589 -0.534323,0.436471 -0.185314,0.08484 -0.434311,0.141837 -0.619621,0.141837 -0.084435,0 -0.1355617,0.02199 -0.1910473,0.08215 -0.178326,0.193374 -0.4544972,0.218073 -0.7943306,0.07104 z M 12.74627,15.142087 c 0.230579,-0.09036 0.544926,-0.261405 0.78498,-0.42712 0.302183,-0.208605 0.323279,-0.230387 0.302394,-0.312222 -0.01047,-0.04104 -0.166972,-0.334776 -0.347775,-0.652745 -0.180803,-0.317969 -0.328932,-0.594555 -0.329176,-0.614636 -2.5e-4,-0.02008 0.06369,-0.111487 0.142072,-0.203125 0.07838,-0.09164 0.185096,-0.236926 0.237139,-0.322864 0.07207,-0.119014 -0.107111,0.04477 -0.75189,0.687283 -0.465583,0.463943 -0.846514,0.851653 -0.846514,0.861578 0,0.0099 0.09965,0.192834 0.221452,0.406466 0.328957,0.576986 0.374121,0.654048 0.383315,0.654048 0.0046,0 0.09641,-0.0345 0.204003,-0.07666 z M 8.5775922,14.624449 C 8.2714491,14.31734 8.2301556,14.285917 8.1953125,14.333547 c -0.067447,0.0922 -0.043665,0.1501 0.1096903,0.26705 0.139926,0.106709 0.5661713,0.368153 0.6002185,0.368153 0.00857,0 -0.1388597,-0.154935 -0.3276291,-0.344301 z m 1.8442828,0.233721 c 0.124052,-0.05938 0.579394,-0.498418 2.209667,-2.130543 2.280497,-2.28309 2.190997,-2.177236 2.191242,-2.591664 3.13e-4,-0.5268605 -0.402263,-0.9273655 -0.932159,-0.9273655 -0.39364,0 -0.391005,-0.00203 -1.726562,1.3313345 -0.835057,0.833686 -1.195914,1.174679 -1.197307,1.131397 -0.0011,-0.03407 -0.0046,-1.594766 -0.0078,-3.468204 l -0.0058,-3.40625 -0.08687,-0.1768919 C 10.697742,4.2768316 10.3913,4.0835975 10.015625,4.0835975 c -0.375675,0 -0.6821169,0.1932341 -0.8506319,0.5363856 l -0.086868,0.1768919 -0.00582,3.40625 c -0.0032,1.873438 -0.00672,3.434133 -0.00781,3.468211 -0.00139,0.04328 -0.3671419,-0.302599 -1.2129319,-1.147027 C 6.4988838,9.1738087 6.5034613,9.1773475 6.109375,9.1773475 c -0.3738931,0 -0.6825731,0.1935459 -0.8480275,0.5317228 -0.067667,0.1383063 -0.084238,0.2162344 -0.084132,0.3956427 2.5e-4,0.414336 -0.089137,0.308579 2.1912425,2.59268 1.1293794,1.131222 2.1117307,2.091473 2.1830035,2.133891 0.2550443,0.15179 0.5879875,0.162074 0.8704135,0.02689 z m 5.022286,-3.149128 c 0.028,-0.04404 0.03316,-1.33784 0.0056,-1.409611 -0.03464,-0.09027 -0.10264,-0.05277 -0.122872,0.06776 -0.0646,0.384831 -0.153541,0.528879 -0.619794,1.003839 l -0.410241,0.417902 0.561827,-0.02136 c 0.379183,-0.01442 0.56951,-0.03344 0.585459,-0.05853 z M 8.5619063,9.8671875 8.5613125,9.234375 8.4625216,9.390625 C 8.4081869,9.4765625 8.3104463,9.6664063 8.2453209,9.8125 l -0.11841,0.265625 0.2091441,0.210938 C 8.4510841,10.405078 8.5490916,10.5 8.5538494,10.5 c 0.00476,0 0.00838,-0.284766 0.00806,-0.6328125 z m 3.0708807,0.3741515 c -0.02968,-0.0328 -0.07873,-0.07288 -0.109,-0.08908 -0.04981,-0.02666 -0.05504,-0.01097 -0.05504,0.165275 v 0.194729 l 0.109,-0.105646 c 0.104327,-0.101118 0.106686,-0.108203 0.05504,-0.165275 z M 13.476278,8.265625 C 13.662174,7.9390625 13.822915,7.6382962 13.83348,7.5972553 13.85455,7.5153973 13.833605,7.4937534 13.53125,7.2850334 13.290609,7.1189125 12.976698,6.9482172 12.744477,6.8572106 c -0.171996,-0.067405 -0.201796,-0.071372 -0.231455,-0.03081 -0.01872,0.025606 -0.187332,0.3158266 -0.374686,0.6449353 l -0.340644,0.59838 -0.164471,-0.016975 -0.164471,-0.016975 v 0.757621 0.7576212 l 0.186455,0.089117 c 0.10255,0.049014 0.231832,0.1359347 0.287292,0.193156 L 12.043336,9.9373197 12.59081,9.3983475 13.138284,8.859375 Z M 3.8389634,9.0371309 4.203125,8.4023869 4.46875,8.4277559 c 0.3391294,0.032389 0.7250759,0.032284 1.0633094,-2.812e-4 l 0.2664344,-0.025659 0.071503,0.1272219 c 0.068114,0.1211925 0.078611,0.1272219 0.2214881,0.1272219 0.4168394,0 0.7619828,0.1461162 1.0617728,0.4495006 L 7.3533897,9.3082919 7.5282572,9.1866837 C 7.8654188,8.9522119 7.8637453,8.9541809 7.8213403,8.8418372 7.8006675,8.7870684 7.6406209,8.4901891 7.4656816,8.1821053 7.1047206,7.5464212 7.1114922,7.6129503 7.3756891,7.2979303 7.5366306,7.1060287 7.7871522,6.6395966 7.8575706,6.4007412 L 7.8974022,6.265625 8.2299512,6.2567553 8.5625,6.2478856 V 5.5653491 c 0,-0.375395 0.00869,-0.7260057 0.01932,-0.7791347 L 8.6011394,4.6896159 8.2492747,4.6807456 7.89741,4.671875 7.8575744,4.5367678 C 7.787145,4.2978984 7.5366262,3.8314747 7.3756891,3.6395788 7.1114922,3.3245588 7.1047206,3.3910878 7.4656816,2.7554036 7.6406209,2.4473199 7.8006675,2.1504405 7.8213403,2.0956718 7.8557878,2.0044102 7.8524203,1.9909275 7.7810262,1.9342627 7.4890394,1.7025155 7.0542587,1.447363 6.7444775,1.3259608 6.5724812,1.258556 6.5426809,1.2545891 6.5130216,1.2951504 6.4942984,1.320756 6.3260369,1.6103671 6.1391069,1.9387307 l -0.3398722,0.5970249 -0.266805,-0.02569 c -0.3396463,-0.032704 -0.7252131,-0.032704 -1.0648594,0 L 4.2007653,2.5357556 3.8608931,1.9387307 C 3.6739631,1.6103671 3.5057016,1.320756 3.4869784,1.2951504 3.4573122,1.2545797 3.4277872,1.2584507 3.2573028,1.325263 3.0054744,1.4239538 2.4267527,1.7541539 2.2659946,1.8908717 2.1463053,1.9926622 2.1428486,2.0007972 2.1788055,2.0960579 2.1993982,2.1506143 2.359379,2.4473199 2.5343183,2.7554036 2.8952793,3.3910878 2.8885079,3.3245587 2.6243108,3.6395787 2.4633726,3.8314762 2.2128531,4.2979022 2.1424267,4.5367678 L 2.102592,4.671875 1.343238,4.6936375 C 0.77230509,4.71 0.57747266,4.7255081 0.55804556,4.7561375 c -0.0334389,0.05272 -0.0338587,1.3718487 -4.5344e-4,1.4244916 0.0188153,0.029651 0.22203047,0.045826 0.78519238,0.0625 l 0.7598073,0.022496 0.039835,0.1351072 C 2.2128531,6.6395978 2.4633726,7.1060238 2.6243107,7.2979212 2.8883468,7.6127491 2.8920209,7.5562559 2.5710651,8.1166359 2.2439161,8.6878297 2.15625,8.8563869 2.15625,8.9142088 c 0,0.043671 0.1984745,0.2037943 0.4375,0.3529631 0.2340223,0.1460465 0.7940553,0.4216806 0.8389634,0.4129165 0.023149,-0.00452 0.2059613,-0.2938481 0.40625,-0.6429575 z M 4.6636206,6.9356303 C 4.3938959,6.8824522 4.1697319,6.7530147 3.9439544,6.5200781 3.8249656,6.3973166 3.6898144,6.2222384 3.6436188,6.1310159 3.4618422,5.7720631 3.4618047,5.165385 3.643525,4.8067538 3.7603753,4.5761609 4.0996956,4.233015 4.3223203,4.1203053 c 0.3829766,-0.1938919 0.9723591,-0.1938919 1.3553356,0 0.2376319,0.1203072 0.5777294,0.4719222 0.6867085,0.7099634 0.1721156,0.3759507 0.1721156,0.9010119 0,1.2769625 C 6.2625653,6.3295894 5.9158319,6.6964175 5.7072091,6.8024716 5.4256369,6.9456097 4.9937397,7.0007175 4.6636087,6.9356303 Z M 5.1729569,6.4346553 C 5.4185622,6.3892525 5.5537394,6.3160206 5.7151269,6.1409362 5.9098575,5.9296781 5.9794994,5.7526087 5.9794994,5.46875 5.9794994,5.1805269 5.9082841,5.0038147 5.7042028,4.7856353 5.5077613,4.5756234 5.3036113,4.4898847 5,4.4898847 c -0.3036112,0 -0.5077612,0.085739 -0.7042028,0.2957506 C 4.0917159,5.0038147 4.0205006,5.1805269 4.0205006,5.46875 c 0,0.2838587 0.069642,0.4609281 0.2643725,0.6721862 0.1492644,0.1619325 0.3119516,0.2566569 0.5071191,0.2952694 0.1827691,0.03616 0.1768416,0.036184 0.3809647,-0.00155 z M 8.5558813,7.4979275 8.546875,7.2114437 8.34882,7.3604322 c -0.1604775,0.1207206 -0.1954753,0.162485 -0.1844572,0.2201212 0.00748,0.039122 0.096604,0.220466 0.198055,0.4029847 L 8.546875,8.3153906 8.555885,8.0499009 c 0.00495,-0.1460193 0.00495,-0.3944072 0,-0.5519734 z"
       id="path819"
       inkscape:connector-curvature="0" />
  </g>
</svg>
