<?xml version="1.0" encoding="UTF-8" standalone="no"?>
<!-- Created with Inkscape (http://www.inkscape.org/) -->

<svg
   xmlns:dc="http://purl.org/dc/elements/1.1/"
   xmlns:cc="http://creativecommons.org/ns#"
   xmlns:rdf="http://www.w3.org/1999/02/22-rdf-syntax-ns#"
   xmlns:svg="http://www.w3.org/2000/svg"
   xmlns="http://www.w3.org/2000/svg"
   xmlns:sodipodi="http://sodipodi.sourceforge.net/DTD/sodipodi-0.dtd"
   xmlns:inkscape="http://www.inkscape.org/namespaces/inkscape"
   version="1.1"
   id="svg2"
   width="16"
   height="16"
   viewBox="0 0 16 16"
   sodipodi:docname="DATABLOCK_CLEAR.svg"
   inkscape:version="0.92.4 (5da689c313, 2019-01-14)">
  <metadata
     id="metadata8">
    <rdf:RDF>
      <cc:Work
         rdf:about="">
        <dc:format>image/svg+xml</dc:format>
        <dc:type
           rdf:resource="http://purl.org/dc/dcmitype/StillImage" />
        <dc:title></dc:title>
      </cc:Work>
    </rdf:RDF>
  </metadata>
  <defs
     id="defs6" />
  <sodipodi:namedview
     pagecolor="#ffffff"
     bordercolor="#666666"
     borderopacity="1"
     objecttolerance="10"
     gridtolerance="10"
     guidetolerance="10"
     inkscape:pageopacity="0"
     inkscape:pageshadow="2"
     inkscape:window-width="828"
     inkscape:window-height="480"
     id="namedview4"
     showgrid="false"
     inkscape:zoom="14.75"
     inkscape:cx="8"
     inkscape:cy="8"
     inkscape:window-x="0"
     inkscape:window-y="0"
     inkscape:window-maximized="0"
     inkscape:current-layer="svg2" />
  <g
     id="DATABLOCK_CLEAR">
    <path
       style="fill:#ffffff;stroke-width:0.03125"
       d="M 0,8 V 0 h 8 8 v 8 8 H 8 0 Z m 10.540137,7.374864 c 0.09942,-0.03721 0.246557,-0.117881 0.326973,-0.179264 0.110599,-0.08442 0.211187,-0.126071 0.412988,-0.171 0.373076,-0.08306 1.021217,-0.28195 1.408503,-0.432214 1.182858,-0.458939 1.980226,-1.092422 2.222222,-1.765484 0.05965,-0.165894 0.06864,-0.271233 0.08219,-0.962691 l 0.01522,-0.776415 0.102359,-0.152104 c 0.162997,-0.242213 0.216339,-0.438249 0.216339,-0.795067 0,-0.3583159 -0.05331,-0.5528075 -0.21902,-0.7990509 L 15.00287,9.185485 14.993623,6.14743 14.984375,3.109375 14.914112,2.9230979 C 14.239931,1.1357603 10.076417,-0.00323058 6.0603381,0.50101759 3.4197525,0.83256256 1.4549406,1.8008312 1.0756771,2.9574823 1.0175111,3.1348728 1.015625,3.2893228 1.015625,7.875 c 0,4.585677 0.00189,4.740127 0.060052,4.917518 0.4820373,1.470083 3.4905201,2.587522 6.9502463,2.581525 0.303711,-5.25e-4 0.7252719,-0.01354 0.9368025,-0.02891 0.3179116,-0.02311 0.4041054,-0.0198 0.4970847,0.01905 0.2922891,0.122125 0.7699655,0.126849 1.0803265,0.01068 z"
       id="path829"
       inkscape:connector-curvature="0" />
    <path
       style="fill:#fefefe;stroke-width:0.03125"
       d="M 7.078125,5.3540031 C 5.81656,5.2481284 4.7732884,5.0517328 3.921875,4.7598397 3.4399059,4.5946047 2.7730959,4.2527413 2.482638,4.0219647 2.2404868,3.8295691 2.0484428,3.5950075 2.0110308,3.4459459 1.9364852,3.1489325 2.4078474,2.6887603 3.171875,2.3126596 c 0.8762741,-0.431355 1.8858422,-0.6949302 3.3125,-0.864818 0.6656391,-0.079265 2.3656109,-0.079265 3.03125,0 1.426658,0.1698878 2.436226,0.433463 3.3125,0.864818 0.638696,0.3144049 1.08703,0.6972949 1.160844,0.9913945 0.103002,0.4103922 -0.834731,1.1003406 -2.028208,1.4922784 C 11.724335,4.8739747 11.518416,4.9375 11.503162,4.9375 c -0.01525,0 -0.04316,-0.087891 -0.06202,-0.1953125 C 11.389576,4.4484453 11.25162,4.1977197 11.018264,3.9736406 10.676465,3.6454278 10.268605,3.5158594 9.7929522,3.5843841 9.4656734,3.6315334 9.2130094,3.7637078 8.9736406,4.0129856 8.6727394,4.3263428 8.5625,4.6256519 8.5625,5.1292653 V 5.375 L 7.8828125,5.3697469 C 7.5089844,5.3668562 7.146875,5.3597728 7.078125,5.3540031 Z"
       id="path827"
       inkscape:connector-curvature="0" />
    <path
       style="fill:#cdcfcc;stroke-width:0.03125"
       d="M 7.078125,14.354003 C 5.8152191,14.248016 4.7688494,14.050903 3.921875,13.759435 3.2200059,13.517902 2.4328918,13.061302 2.1937177,12.756942 2.0006608,12.511267 2,12.507624 2,11.689052 2,11.275698 2.0047867,10.9375 2.0106371,10.9375 c 0.00585,0 0.1288973,0.07122 0.2734375,0.158256 0.8717495,0.52496 2.1079454,0.921747 3.4971754,1.122502 l 0.453125,0.06548 1.0468172,1.045631 L 8.3280094,14.375 7.7655672,14.3697 C 7.4562241,14.3668 7.146875,14.3597 7.078125,14.35396 Z m 6.15625,-1.509263 0.75,-0.751983 0.0093,0.170987 c 0.01508,0.276405 -0.130168,0.497496 -0.519659,0.790986 -0.222234,0.167458 -0.682018,0.427423 -0.898614,0.508083 -0.06072,0.02261 0.158829,-0.216638 0.658942,-0.718073 z M 4.5625,10.952909 C 3.2869659,10.609583 2.3197096,10.065631 2.0511567,9.5406144 2.0079715,9.4561878 2,9.3234928 2,8.6890519 2,8.2756984 2.0047867,7.9375 2.0106371,7.9375 c 0.00585,0 0.1288973,0.071215 0.2734375,0.1582559 0.6321999,0.3807054 1.6489188,0.7624866 2.536642,0.9525172 l 0.2425915,0.051931 -0.098807,0.1125346 c -0.3766888,0.429025 -0.4036588,1.2429813 -0.05704,1.7214743 0.051112,0.07056 0.082295,0.127286 0.069297,0.126062 C 4.96376,11.059051 4.7773437,11.010737 4.5625,10.952909 Z M 7.984375,9.9375 7.4225262,9.375 H 7.9925131 8.5625 V 9.9375 C 8.5625,10.246875 8.55884,10.5 8.55436,10.5 8.54988,10.5 8.29339,10.246875 7.9843731,9.9375 Z M 11.468886,9.7492003 11.469011,8.984375 11.836063,8.8781631 C 12.56323,8.6677456 13.219571,8.3945616 13.715914,8.0957256 13.860466,8.0087016 13.983513,7.9375 13.989363,7.9375 13.995213,7.9375 14,8.10625 14,8.3125 v 0.375 h -0.120735 c -0.19082,0 -0.437927,0.056176 -0.626979,0.1425347 -0.14303,0.065336 -0.317997,0.2229509 -0.978848,0.8817737 L 11.46875,10.514026 11.468875,9.7492003 Z M 7.078125,8.3540031 C 5.8152191,8.2480159 4.7688494,8.0509028 3.921875,7.7594353 3.2200059,7.5179022 2.4328918,7.0613022 2.1937177,6.7569416 2.0006608,6.5112669 2,6.5076244 2,5.6890519 2,5.2756984 2.0047867,4.9375 2.0106371,4.9375 c 0.00585,0 0.1288973,0.071215 0.2734375,0.1582559 C 3.6191475,5.8997253 5.7495016,6.375 8.0181109,6.375 H 8.5625 v 1 1 L 7.8828125,8.3697469 C 7.5089844,8.3668563 7.146875,8.3597728 7.078125,8.3540031 Z M 11.468886,6.9609375 11.469011,5.984375 11.836063,5.8781631 C 12.56323,5.6677456 13.219571,5.3945616 13.715914,5.0957256 13.860454,5.0087016 13.983501,4.9375 13.989352,4.9375 c 0.0059,0 0.01064,0.3381984 0.01064,0.7515519 0,0.8185725 -6.6e-4,0.822215 -0.193718,1.0678897 C 13.547648,7.0860519 12.74431,7.5382028 11.959164,7.7965678 11.723611,7.8740803 11.516902,7.9375 11.499812,7.9375 c -0.01994,0 -0.03102,-0.3499709 -0.03094,-0.9765625 z"
       id="path825"
       inkscape:connector-curvature="0" />
    <path
       style="fill:#fe9832;stroke-width:0.03125"
       d="M 9.8170866,14.936056 C 9.7422653,14.920849 9.6227341,14.873702 9.5514616,14.831284 9.4801888,14.788866 8.4978375,13.828615 7.3684581,12.697393 5.0880787,10.413292 5.1774606,10.519049 5.1772156,10.104713 5.1769031,9.5778525 5.5794794,9.1773475 6.109375,9.1773475 c 0.3940863,0 0.3895088,-0.00354 1.7421875,1.3469615 0.84579,0.844428 1.2115388,1.190304 1.2129319,1.147027 0.0011,-0.03408 0.00461,-1.594773 0.00781,-3.468211 l 0.00582,-3.40625 0.086868,-0.1768919 C 9.3335081,4.2768316 9.63995,4.0835975 10.015625,4.0835975 c 0.375675,0 0.682117,0.1932341 0.850632,0.5363856 l 0.08687,0.1768919 0.0058,3.40625 c 0.0032,1.873438 0.0067,3.434129 0.0078,3.468204 0.0014,0.04328 0.36225,-0.297711 1.197307,-1.131397 1.335557,-1.3333664 1.332922,-1.3313345 1.726562,-1.3313345 0.373893,0 0.682573,0.1935459 0.848028,0.5317228 0.06767,0.1383063 0.08424,0.2162344 0.08413,0.3956427 -2.5e-4,0.414428 0.08925,0.308574 -2.191242,2.591664 -1.630273,1.632125 -2.085615,2.071163 -2.209667,2.130543 -0.18229,0.08726 -0.41269,0.116928 -0.6047884,0.07789 z"
       id="path823"
       inkscape:connector-curvature="0" />
    <path
       style="fill:#323232;stroke-width:0.03125"
       d="M 9.6982447,15.436206 C 9.3157653,15.360535 9.3855141,15.422183 7.0689478,13.112302 4.6699547,10.720233 4.7469584,10.80978 4.6781341,10.332048 4.6096094,9.8563947 4.7391778,9.448535 5.0673906,9.1067356 5.4068978,8.7531737 5.8527463,8.6030087 6.3393531,8.6783284 6.7692634,8.7448722 6.8381772,8.7948744 7.7421875,9.6961887 L 8.5625,10.514055 V 7.6987928 C 8.5625,5.9383862 8.574299,4.8213162 8.593989,4.7174891 8.64392,4.4542019 8.7640871,4.2312137 8.9736405,4.0129856 9.3149215,3.6575769 9.7585862,3.5091953 10.251745,3.5855291 c 0.581574,0.090019 1.077766,0.5637956 1.185516,1.13196 0.01969,0.1038271 0.03149,1.2208925 0.03149,2.981289 v 2.8152479 l 0.804688,-0.8022176 c 0.886908,-0.8841859 0.958434,-0.9358618 1.387209,-1.00223 0.467262,-0.072326 0.891618,0.061618 1.232617,0.3890622 0.355409,0.341281 0.503791,0.7849457 0.427457,1.2781044 -0.07231,0.467184 -0.0041,0.388116 -2.374042,2.75118 -1.87597,1.870512 -2.17067,2.15223 -2.313618,2.211699 -0.293988,0.122304 -0.629563,0.156975 -0.9348164,0.09658 z M 10.421875,14.85817 c 0.124052,-0.05938 0.579394,-0.498418 2.209667,-2.130543 2.280497,-2.28309 2.190997,-2.177236 2.191242,-2.591664 3.13e-4,-0.5268605 -0.402263,-0.9273655 -0.932159,-0.9273655 -0.39364,0 -0.391005,-0.00203 -1.726562,1.3313345 -0.835057,0.833686 -1.195914,1.174679 -1.197307,1.131397 -0.0011,-0.03407 -0.0046,-1.594766 -0.0078,-3.468204 l -0.0058,-3.40625 -0.08687,-0.1768919 C 10.697742,4.2768316 10.3913,4.0835975 10.015625,4.0835975 c -0.375675,0 -0.6821169,0.1932341 -0.8506319,0.5363856 l -0.086868,0.1768919 -0.00582,3.40625 c -0.0032,1.873438 -0.00672,3.434133 -0.00781,3.468211 -0.00139,0.04328 -0.3671419,-0.302599 -1.2129319,-1.147027 C 6.4988838,9.1738087 6.5034613,9.1773475 6.109375,9.1773475 c -0.3738931,0 -0.6825731,0.1935459 -0.8480275,0.5317228 -0.067667,0.1383063 -0.084238,0.2162344 -0.084132,0.3956427 2.5e-4,0.414336 -0.089137,0.308579 2.1912425,2.59268 1.1293794,1.131222 2.1117307,2.091473 2.1830035,2.133891 0.2550443,0.15179 0.5879875,0.162074 0.8704135,0.02689 z"
       id="path821"
       inkscape:connector-curvature="0" />
    <path
       style="fill:#000000;stroke-width:0.03125"
       d="M 6.90625,15.34148 C 4.9114459,15.192353 3.19538,14.70486 2.09375,13.974365 1.599237,13.646452 1.2059939,13.189949 1.0756771,12.792518 1.0175111,12.615127 1.015625,12.460677 1.015625,7.875 c 0,-4.5856772 0.00189,-4.7401272 0.060052,-4.9175177 C 1.6627518,1.1670633 5.8974962,-0.00650602 9.9396619,0.50101759 12.555651,0.82947422 14.477336,1.7651511 14.914112,2.9230979 l 0.07026,0.1862771 0.0093,3.0446903 0.0093,3.0446903 -0.153257,-0.1433531 C 14.638673,8.8580734 14.426136,8.7562044 14.117188,8.7043403 L 14,8.6846678 V 8.3110841 C 14,8.1056128 13.995213,7.9375 13.989363,7.9375 c -0.0059,0 -0.128897,0.071215 -0.273438,0.1582559 -0.318608,0.1918632 -0.623053,0.3385185 -1.040286,0.5011188 -0.301401,0.11746 -1.104261,0.3718753 -1.173528,0.3718753 -0.02229,0 -0.03329,-0.1685612 -0.03316,-0.5078125 L 11.469136,7.953125 11.929875,7.8044016 C 12.731847,7.5455303 13.541945,7.09331 13.806271,6.7569416 13.999339,6.5112669 14,6.5076244 14,5.6890519 14,5.2756984 13.995213,4.9375 13.989363,4.9375 c -0.0059,0 -0.128897,0.071215 -0.273438,0.1582559 -0.318608,0.1918632 -0.623053,0.3385185 -1.040286,0.5011188 -0.301401,0.11746 -1.104261,0.3718753 -1.173528,0.3718753 -0.02229,0 -0.03329,-0.1685613 -0.03316,-0.5078125 l 1.88e-4,-0.5078125 0.460739,-0.1482866 c 1.059531,-0.3410012 1.951336,-0.9295478 2.059094,-1.3588925 0.07455,-0.2970134 -0.396817,-0.7571856 -1.160844,-1.1332863 -0.876274,-0.431355 -1.885842,-0.6949302 -3.3125,-0.864818 -0.6656391,-0.079265 -2.3656109,-0.079265 -3.03125,0 -1.4266578,0.1698878 -2.4362259,0.433463 -3.3125,0.864818 C 2.5331789,2.6270645 2.0848451,3.0099545 2.0110308,3.3040541 1.9364852,3.6010675 2.4078474,4.0612397 3.171875,4.4373403 4.3462669,5.0154472 5.8784181,5.3278397 7.7265625,5.3660025 L 8.5625,5.3832637 V 5.8791319 6.375 H 8.0181109 C 5.7495016,6.375 3.6191475,5.8997253 2.2840746,5.0957559 2.1395344,5.0087153 2.0164875,4.9375 2.0106371,4.9375 2.0047867,4.9375 2,5.2756984 2,5.6890519 2,6.5076244 2.0006606,6.5112669 2.1937177,6.7569416 2.4328918,7.0613022 3.2200059,7.5179022 3.921875,7.7594353 5.0038697,8.13178 6.2865103,8.3362666 7.7265625,8.3660025 L 8.5625,8.3832638 V 8.8791319 9.375 H 7.9943209 7.4261419 L 7.1700512,9.1250363 C 6.8773816,8.8393684 6.6743316,8.7301781 6.3393531,8.6783284 5.9227647,8.6138466 5.4674756,8.7351513 5.1920056,8.9840219 L 5.0633872,9.1002213 4.8207559,9.0482819 C 3.9329869,8.8582403 2.9162859,8.4764681 2.2840746,8.0957559 2.1395344,8.0087153 2.0164875,7.9375 2.0106371,7.9375 2.0047867,7.9375 2,8.2756984 2,8.6890519 c 0,0.8185725 6.606e-4,0.822215 0.1937177,1.0678897 0.1532856,0.1950631 0.5775417,0.4884664 1.007441,0.6967174 0.4788947,0.231986 0.8138769,0.353214 1.3925913,0.503972 l 0.421875,0.109901 0.60041,0.597595 c 0.3302256,0.328677 0.5965253,0.601479 0.5917772,0.606228 -0.00475,0.0047 -0.2046203,-0.02 -0.4441603,-0.055 C 4.3841225,12.014813 3.1505497,11.61754 2.2840746,11.095756 2.1395344,11.008715 2.0164875,10.9375 2.0106371,10.9375 2.0047867,10.9375 2,11.275698 2,11.689052 c 0,0.818572 6.606e-4,0.822215 0.1937177,1.06789 0.2391741,0.30436 1.0262882,0.76096 1.7281573,1.002493 1.0424966,0.358752 2.3457947,0.572783 3.6875,0.60557 l 0.71875,0.01756 0.4573469,0.449341 c 0.2515406,0.247137 0.4765406,0.450231 0.5,0.451321 0.023459,0.0011 0.0075,0.01632 -0.035472,0.03385 -0.1055753,0.04307 -1.8509909,0.06124 -2.34375,0.0244 z m 4.814045,-0.983651 0.731029,-0.731526 0.37959,-0.186494 c 0.208775,-0.102572 0.493074,-0.272007 0.631777,-0.376522 C 13.859374,12.764377 14,12.553877 14,12.258998 v -0.181605 l 0.502925,-0.499634 0.502926,-0.499634 -0.01403,0.78125 c -0.01254,0.698369 -0.02113,0.801012 -0.081,0.967527 -0.241996,0.673062 -1.039364,1.306545 -2.222222,1.765484 -0.391803,0.152016 -1.036514,0.349394 -1.420531,0.434894 l -0.278804,0.06208 z"
       id="path819"
       inkscape:connector-curvature="0" />
  </g>
</svg>
