<?xml version="1.0" encoding="UTF-8" standalone="no"?>
<!-- Created with Inkscape (http://www.inkscape.org/) -->

<svg
   xmlns:dc="http://purl.org/dc/elements/1.1/"
   xmlns:cc="http://creativecommons.org/ns#"
   xmlns:rdf="http://www.w3.org/1999/02/22-rdf-syntax-ns#"
   xmlns:svg="http://www.w3.org/2000/svg"
   xmlns="http://www.w3.org/2000/svg"
   xmlns:sodipodi="http://sodipodi.sourceforge.net/DTD/sodipodi-0.dtd"
   xmlns:inkscape="http://www.inkscape.org/namespaces/inkscape"
   version="1.1"
   id="svg2"
   width="16"
   height="16"
   viewBox="0 0 16 16"
   sodipodi:docname="SEQ_RELOAD_ADJUST_LENGTH.svg"
   inkscape:version="0.92.4 (5da689c313, 2019-01-14)">
  <metadata
     id="metadata8">
    <rdf:RDF>
      <cc:Work
         rdf:about="">
        <dc:format>image/svg+xml</dc:format>
        <dc:type
           rdf:resource="http://purl.org/dc/dcmitype/StillImage" />
        <dc:title></dc:title>
      </cc:Work>
    </rdf:RDF>
  </metadata>
  <defs
     id="defs6" />
  <sodipodi:namedview
     pagecolor="#ffffff"
     bordercolor="#666666"
     borderopacity="1"
     objecttolerance="10"
     gridtolerance="10"
     guidetolerance="10"
     inkscape:pageopacity="0"
     inkscape:pageshadow="2"
     inkscape:window-width="828"
     inkscape:window-height="480"
     id="namedview4"
     showgrid="false"
     inkscape:zoom="14.75"
     inkscape:cx="8"
     inkscape:cy="8"
     inkscape:window-x="0"
     inkscape:window-y="0"
     inkscape:window-maximized="0"
     inkscape:current-layer="svg2" />
  <g
     id="SEQ_RELOAD_ADJUST_LENGTH">
    <path
       style="fill:#ffffff;stroke-width:0.03125"
       d="M 0,15.5 V 15 h 3.6523616 3.6523615 l 0.167951,0.07415 c 1.229899,0.543 2.9495899,0.62582 4.2624359,0.205278 0.15923,-0.05101 0.391373,-0.134744 0.515873,-0.186083 C 12.470474,15.002834 12.492763,15 12.985195,15 h 0.507849 l 0.02035,0.108455 c 0.02554,0.136119 0.155613,0.293256 0.288834,0.348919 0.07405,0.03094 0.2653,0.04263 0.697772,0.04263 0.432472,0 0.623718,-0.01168 0.697775,-0.04263 0.133221,-0.05566 0.263298,-0.2128 0.288834,-0.348919 L 15.506956,15 H 15.753478 16 V 15.5 16 H 8 0 Z M 0,2.5 V 0 h 8 8 V 2.5 5 H 14.347638 12.695277 L 12.527326,4.92585 C 11.297427,4.38285 9.5777363,4.3000303 8.26489,4.7205725 8.10566,4.7715784 7.8735172,4.8553156 7.7490172,4.9066553 7.5295256,4.9971662 7.5072369,5 7.0148047,5 H 6.5069556 L 6.4866094,4.891545 C 6.4610731,4.7554256 6.3309959,4.5982891 6.1977753,4.5426259 c -0.1442216,-0.06026 -1.2513291,-0.06026 -1.3955506,0 C 4.6690041,4.5982891 4.5389269,4.7554256 4.5133906,4.891545 L 4.4930444,5 H 2.2465222 0 Z m 2,1 V 3 h 6 6 V 3.5 4 H 14.5 15 V 2.5 1 H 14.5 14 V 1.5 2 H 8 2 V 1.5 1 H 1.5 1 V 2.5 4 H 1.5 2 Z"
       id="path831"
       inkscape:connector-curvature="0" />
    <path
       style="fill:#fefefe;stroke-width:0.03125"
       d="M 1,13.5 V 13 H 2 3 V 13.5 14 H 2 1 Z m 4,0.05625 c 0,-0.244062 0.01121,-0.430391 0.024911,-0.414062 0.013701,0.01633 0.09456,0.113821 0.1796875,0.216651 0.085127,0.10283 0.2514863,0.289158 0.3696869,0.414062 L 5.7891956,14 H 5.3945978 5 Z m 4.6966122,-0.548203 c 0.1167303,-0.006 0.2995428,-0.006 0.4062498,9.4e-5 0.106707,0.0061 0.0112,0.01102 -0.212237,0.01096 -0.2234375,-6.2e-5 -0.3107434,-0.005 -0.1940128,-0.01106 z M 1,10 V 8 h 1.7481059 1.748106 l 0.00971,0.5915638 c 0.01062,0.64723 0.017835,0.6738087 0.2248666,0.8283803 C 4.8160184,9.48358 4.8440144,9.484375 7,9.484375 c 2.1559856,0 2.1839816,-7.937e-4 2.269215,-0.064431 C 9.4762466,9.2653725 9.4834616,9.2387938 9.4940816,8.5915638 L 9.5037881,8 l 1.5684189,1.25e-4 1.568418,1.25e-4 0.144422,0.1795709 c 0.206241,0.2564363 0.340565,0.4764432 0.520689,0.8528247 0.182805,0.3819825 0.335097,0.5445697 0.646654,0.6903647 0.293693,0.1374356 0.698553,0.1542656 0.992992,0.041278 C 14.995516,9.7450506 15,9.7743381 15,10.121028 v 0.377697 l -2.091476,0.0085 c -2.056938,0.0083 -2.0929,0.0095 -2.177756,0.07289 -0.207019,0.154592 -0.21423,0.18116 -0.22485,0.82838 L 10.496212,12 8.9277934,11.999875 7.359375,11.99975 7.2149534,11.820179 C 7.0087125,11.563743 6.8743881,11.343736 6.6942641,10.967354 6.5102466,10.582838 6.3603541,10.424006 6.0368628,10.270749 c -0.1912766,-0.09062 -0.2350144,-0.09889 -0.5228584,-0.09889 -0.2997688,0 -0.3249103,0.0053 -0.5502675,0.11671 -0.2844169,0.140567 -0.4615803,0.321524 -0.5992207,0.612052 -0.091311,0.192738 -0.098711,0.232692 -0.096548,0.521238 0.00157,0.208754 0.019261,0.356592 0.053301,0.445313 L 4.3722275,12 H 2.6861138 1 Z M 1,6.5 V 6 H 2 3 V 6.5 7 H 2 1 Z m 8.9153622,0.4767969 c 0.1167298,-0.00603 0.2995428,-0.00598 0.4062498,9.37e-5 0.106707,0.00608 0.0112,0.011017 -0.212237,0.010962 C 9.8859375,6.98779 9.7986316,6.9828203 9.9153622,6.9767912 Z M 14.854838,6.7109375 c -0.07079,-0.090234 -0.244142,-0.2871094 -0.38522,-0.4375 L 14.213113,6 H 14.606557 15 v 0.4375 c 0,0.240625 -0.0037,0.4375 -0.0082,0.4375 -0.0045,0 -0.06615,-0.073828 -0.136938,-0.1640625 z M 1,2.5 V 1 H 1.5 2 V 1.5 2 h 6 6 V 1.5 1 H 14.5 15 V 2.5 4 H 14.5 14 V 3.5 3 H 8 2 V 3.5 4 H 1.5 1 Z"
       id="path829"
       inkscape:connector-curvature="0" />
    <path
       style="fill:#1bfe1b;stroke-width:0.03125"
       d="m 4.79286,11.649753 c -0.012831,-0.02076 -0.023329,-0.123964 -0.023329,-0.229342 0,-0.453969 0.4204247,-0.815616 0.8644157,-0.743566 0.1839215,0.02985 0.4252525,0.194299 0.5174112,0.352585 0.044449,0.07634 0.065947,0.129616 0.047773,0.118383 -0.018174,-0.01123 -0.3340682,0.105603 -0.7019879,0.259633 -0.3679193,0.15403 -0.6716465,0.280054 -0.6749497,0.280054 -0.0033,0 -0.016503,-0.01699 -0.029334,-0.03775 z m 9.546603,-2.3269174 c -0.154262,-0.025844 -0.405936,-0.2064718 -0.490821,-0.3522659 -0.04445,-0.076343 -0.0659,-0.1295885 -0.04768,-0.1183235 0.01823,0.011265 0.283392,-0.084476 0.589257,-0.2127571 C 14.696088,8.5112075 14.958414,8.40625 14.97317,8.40625 14.987927,8.40625 15,8.572765 15,8.7762834 v 0.3700335 l -0.148437,0.080351 c -0.150576,0.081509 -0.362286,0.121266 -0.5121,0.096168 z"
       id="path827"
       inkscape:connector-curvature="0" />
    <path
       style="fill:#00fe00;stroke-width:0.03125"
       d="M 9.46875,15.027223 C 7.8275366,14.923443 6.2826366,14.048093 5.3500916,12.693564 5.1777247,12.4432 4.7963803,11.724453 4.8222081,11.698625 4.8354797,11.685354 6.1611322,11.125 6.1792575,11.125 c 0.0041,0 0.058379,0.101953 0.1206172,0.226563 0.2769897,0.554571 0.7439862,1.113429 1.2001253,1.436197 0.4713919,0.333561 1.0986191,0.594999 1.671875,0.696862 0.3677572,0.06535 1.067363,0.06523 1.4375,-2.19e-4 0.847014,-0.149812 1.57033,-0.531655 2.186298,-1.154163 l 0.311298,-0.314615 -1.053485,-0.0082 L 11,11.999169 V 11.499584 11 h 2 2 v 2 2 H 14.5 14 v -0.864328 -0.864329 l -0.195312,0.185346 c -1.211922,1.150076 -2.664512,1.676223 -4.335938,1.570534 z M 5,7 V 5 H 5.5 6 v 0.8662094 0.866209 L 6.1796875,6.5580997 C 6.6389569,6.1125519 7.1110453,5.78046 7.6584591,5.5178531 8.5640522,5.0834197 9.4825281,4.9083766 10.514988,4.9734556 c 1.66252,0.1047935 3.196916,0.9705219 4.13492,2.3329807 0.172367,0.250364 0.553712,0.9691106 0.527884,0.9949384 C 15.16452,8.3146462 13.838868,8.875 13.820743,8.875 c -0.0041,0 -0.05838,-0.1019531 -0.120618,-0.2265625 C 13.423136,8.0938663 12.956139,7.5350084 12.5,7.21224 12.028608,6.8786788 11.401381,6.6172412 10.828125,6.5153784 10.460368,6.4500309 9.7607616,6.4501434 9.390625,6.5155972 8.5436109,6.6654088 7.8202953,7.0472525 7.2043269,7.66976 L 6.8930291,7.9843628 7.9465144,7.9925909 9,8.0008191 V 8.5004034 8.9999878 H 7 5 v -2 z"
       id="path825"
       inkscape:connector-curvature="0" />
    <path
       style="fill:#00fd00;stroke-width:0.03125"
       d="M 15.000994,8.7628288 15,8.3850322 15.082879,8.34727 c 0.117563,-0.053565 0.147688,-0.00795 0.147042,0.2226519 -5.41e-4,0.1927097 -0.05516,0.347264 -0.179606,0.5082031 -0.0444,0.057418 -0.04841,0.031783 -0.04932,-0.3152962 z"
       id="path823"
       inkscape:connector-curvature="0" />
    <path
       style="fill:#323232;stroke-width:0.03125"
       d="M 0,10 V 5 H 2.25 4.5 V 6.5 8 H 2.75 1 v 2 2 h 1.6872151 1.6872152 l 0.1605978,0.320313 c 0.088329,0.176171 0.2290819,0.427185 0.3127847,0.557809 L 5,13.115618 V 13.557809 14 h 0.3988034 0.3988038 l 0.242519,0.202434 c 0.3228972,0.269528 0.5678247,0.433365 0.9442488,0.631629 l 0.3125,0.164596 -3.6484375,6.72e-4 L 0,15 Z m 3,3.5 V 13 H 2 1 v 0.5 0.5 h 1 1 z m 0,-7 V 6 H 2 1 V 6.5 7 h 1 1 z m 9.806183,8.329311 c 0.176995,-0.09314 0.387932,-0.216615 0.46875,-0.274387 0.08082,-0.05777 0.16452,-0.115687 0.186005,-0.128701 0.03017,-0.01828 0.03906,0.0443 0.03906,0.275058 V 15 l -0.507812,-6.72e-4 -0.507813,-6.72e-4 0.321808,-0.169347 z M 15.5,12.952121 c 0,-1.658911 -0.0081,-2.067255 -0.04263,-2.149896 -0.05566,-0.133221 -0.2128,-0.263298 -0.348919,-0.288834 L 15,10.493044 V 10.113656 9.7342678 l 0.14067,-0.074625 C 15.590819,9.4208388 15.845024,8.7934675 15.70804,8.2593841 15.650394,8.0346309 15.371897,7.4646947 15.152201,7.1218784 L 15,6.8843819 V 6.4421909 6 H 14.601197 14.202393 L 13.959874,5.7975656 C 13.636977,5.5280384 13.392049,5.3642009 13.015625,5.1659366 L 12.703125,5.0013412 14.351563,5.0006694 16,5 v 5 5 H 15.75 15.5 Z M 9.015625,12.923605 C 8.4363178,12.772579 7.9328009,12.505727 7.484375,12.112078 l -0.125,-0.109731 1.5668347,-0.0012 L 10.493044,12 l 0.02035,0.108455 c 0.02176,0.116011 0.138371,0.274862 0.247792,0.337562 0.04025,0.02306 0.247647,0.04459 0.520067,0.05398 l 0.453125,0.01563 -0.109375,0.07037 c -0.173204,0.11143 -0.547913,0.257658 -0.868889,0.339081 -0.261044,0.06622 -0.363012,0.07475 -0.8773054,0.07339 -0.5066515,-0.0013 -0.6183134,-0.01102 -0.8631806,-0.07486 z M 9.4866094,7.891545 C 9.4648456,7.7755337 9.3482381,7.6166822 9.2388169,7.5539831 9.1985713,7.5309222 8.99117,7.5093937 8.71875,7.5 L 8.265625,7.484375 8.375,7.4140091 C 8.5477547,7.3028684 8.9221372,7.1566225 9.2476947,7.0731069 9.5278,7.0012509 9.5877197,6.9971128 10.1875,7.0082047 c 0.58942,0.0109 0.663105,0.018673 0.921875,0.097244 0.480798,0.1459872 1.03289,0.4509004 1.390625,0.768025 L 12.640625,7.998135 11.07379,7.9990662 9.5069556,8 Z M 6.5,5.2987194 V 5 L 7.0078125,5.0006719 7.515625,5.0013437 7.1938169,5.1706912 C 7.0168225,5.2638322 6.805885,5.3873066 6.7250669,5.4450784 6.6442487,5.5028506 6.5605469,5.5607659 6.5390625,5.5737797 6.5088866,5.5920581 6.5,5.5294831 6.5,5.2987219 Z"
       id="path821"
       inkscape:connector-curvature="0" />
    <path
       style="fill:#006500;stroke-width:0.03125"
       d="M 9.34375,15.530021 C 8.1186597,15.443014 6.8454956,14.910865 5.9172106,14.097818 5.3339872,13.586997 4.8700825,12.988428 4.5270437,12.304109 4.295005,11.841221 4.2364259,11.62437 4.2597728,11.314716 c 0.034476,-0.457263 0.3036444,-0.839774 0.7346144,-1.04395 0.1910534,-0.09051 0.2352131,-0.09889 0.5212378,-0.09889 0.2860247,0 0.3301844,0.0084 0.5212378,0.09889 0.3240816,0.153537 0.4735009,0.312057 0.6566103,0.696605 0.3831844,0.804726 0.8135919,1.269251 1.5326378,1.654127 0.91699,0.490826 2.0776371,0.540841 3.0574441,0.131752 0.127639,-0.05329 0.281289,-0.128558 0.341445,-0.167259 L 11.734375,12.515625 11.275607,12.5 c -0.497794,-0.01695 -0.548453,-0.03376 -0.695551,-0.230785 -0.06048,-0.081 -0.06443,-0.128213 -0.06443,-0.769215 0,-0.751626 0.0022,-0.760928 0.21516,-0.919944 0.08523,-0.06364 0.113229,-0.06443 2.269215,-0.06443 2.155986,0 2.183982,7.94e-4 2.269215,0.06443 0.04746,0.03544 0.115292,0.103265 0.150729,0.150729 0.06364,0.08523 0.06443,0.113229 0.06443,2.269215 0,2.155986 -7.94e-4,2.183982 -0.06443,2.269215 -0.159016,0.212984 -0.168318,0.21516 -0.919944,0.21516 -0.641002,0 -0.688213,-0.004 -0.769215,-0.06443 C 13.540306,15.277731 13.516883,15.214342 13.5,14.795379 l -0.01563,-0.38775 -0.202752,0.141248 c -0.434285,0.302545 -1.207132,0.646717 -1.82155,0.811191 -0.577477,0.154585 -1.401248,0.220739 -2.116323,0.169953 z m 1.275883,-0.533673 c 1.15353,-0.129526 2.26555,-0.667078 3.185055,-1.539659 L 14,13.271343 V 14.135672 15 h 0.5 0.5 v -2 -2 h -2 -2 v 0.499584 0.499585 l 1.053486,0.0082 1.053485,0.0082 -0.311298,0.314603 c -0.485911,0.491069 -0.957641,0.787702 -1.587544,0.998277 -0.449028,0.150109 -0.804106,0.20559 -1.317504,0.205861 C 9.3756888,13.534647 9.0247403,13.479481 8.5663259,13.326231 7.9727572,13.127799 7.4765269,12.822947 7.0455397,12.39196 6.7171169,12.063537 6.5294863,11.795056 6.2808994,11.297833 6.088905,10.913807 6.0682181,10.885341 5.9142781,10.793352 5.6330413,10.625294 5.3966119,10.625223 5.1197513,10.793102 c -0.2258879,0.136978 -0.35022,0.36121 -0.35022,0.631616 0,0.174982 0.019238,0.235377 0.1800634,0.56528 0.6477281,1.328692 1.7505737,2.298082 3.1410528,2.760952 0.8226353,0.273844 1.6020509,0.349471 2.5289855,0.245388 z M 14.175554,9.8109806 C 13.97766,9.7612766 13.69635,9.594715 13.559437,9.4461822 13.487232,9.3678491 13.370477,9.1757825 13.291405,9.0052584 12.939021,8.2453163 12.485966,7.7596475 11.773889,7.3785025 10.856899,6.8876756 9.6962525,6.8376606 8.7164447,7.2467497 8.5888063,7.3000412 8.4351563,7.3753078 8.375,7.4140091 L 8.265625,7.484375 8.7243934,7.5 c 0.4977935,0.016954 0.5484525,0.033763 0.6955507,0.230785 0.060476,0.081002 0.064431,0.1282134 0.064431,0.769215 0,0.7516262 -0.00217,0.7609284 -0.21516,0.9199441 C 9.1839816,9.48358 9.1559856,9.484375 7,9.484375 4.8440144,9.484375 4.8160184,9.4835813 4.730785,9.4199441 4.6833209,9.3845072 4.6154928,9.3166791 4.5800559,9.269215 4.51642,9.1839816 4.515625,9.1559856 4.515625,7 c 0,-2.1559856 7.937e-4,-2.1839816 0.064431,-2.269215 C 4.7390716,4.5178006 4.7483737,4.515625 5.5,4.515625 c 0.6410016,0 0.6882134,0.00395 0.769215,0.064431 C 6.4596944,4.7222691 6.4831172,4.7856578 6.5,5.2046206 L 6.515625,5.5923706 6.71875,5.4498709 C 7.2183609,5.0993753 8.179525,4.7029956 8.8679806,4.5635381 9.3241575,4.4711325 10.033453,4.4320409 10.582507,4.4690453 c 2.109986,0.1422056 3.95414,1.3590269 4.890449,3.2268459 0.232039,0.4628876 0.290618,0.6797385 0.267271,0.9893925 -0.01356,0.1798675 -0.04248,0.2826929 -0.128388,0.4565172 -0.20833,0.4215269 -0.588124,0.6686594 -1.058416,0.6887122 -0.141101,0.00602 -0.311142,-0.00277 -0.377869,-0.019532 z m 0.683821,-0.5896772 c 0.275797,-0.1526787 0.427906,-0.49363 0.358464,-0.803494 C 15.175358,8.2282506 14.860919,7.6129309 14.649908,7.3064362 13.711904,5.9439775 12.177508,5.0782491 10.514988,4.9734556 8.8572819,4.8689653 7.3547044,5.4181894 6.1796875,6.5580997 L 6,6.7324184 V 5.8662094 5 H 5.5 5 V 7 9 H 7 9 V 8.5004156 8.0008313 L 7.9465144,7.9926031 6.8930291,7.984375 7.2043269,7.6697722 C 7.6902381,7.1787025 8.1619684,6.8820697 8.7918709,6.671495 9.2408988,6.5213863 9.5959772,6.465905 10.109375,6.4656338 c 0.514936,-2.813e-4 0.865885,0.054885 1.324299,0.208135 0.593569,0.1984325 1.089799,0.5032837 1.520786,0.9342709 0.328423,0.3284228 0.516054,0.5969044 0.764641,1.0941269 0.193354,0.3867468 0.211794,0.4119628 0.370713,0.5069272 0.09198,0.054964 0.204323,0.1061481 0.249649,0.1137418 0.15454,0.02589 0.363425,-0.014902 0.519912,-0.1015322 z"
       id="path819"
       inkscape:connector-curvature="0" />
  </g>
</svg>
