<?xml version="1.0" encoding="UTF-8" standalone="no"?>
<!-- Created with Inkscape (http://www.inkscape.org/) -->

<svg
   xmlns:dc="http://purl.org/dc/elements/1.1/"
   xmlns:cc="http://creativecommons.org/ns#"
   xmlns:rdf="http://www.w3.org/1999/02/22-rdf-syntax-ns#"
   xmlns:svg="http://www.w3.org/2000/svg"
   xmlns="http://www.w3.org/2000/svg"
   xmlns:sodipodi="http://sodipodi.sourceforge.net/DTD/sodipodi-0.dtd"
   xmlns:inkscape="http://www.inkscape.org/namespaces/inkscape"
   version="1.1"
   id="svg2"
   width="16"
   height="16"
   viewBox="0 0 16 16"
   sodipodi:docname="SEQ_RELOAD_STRIPS.svg"
   inkscape:version="0.92.4 (5da689c313, 2019-01-14)">
  <metadata
     id="metadata8">
    <rdf:RDF>
      <cc:Work
         rdf:about="">
        <dc:format>image/svg+xml</dc:format>
        <dc:type
           rdf:resource="http://purl.org/dc/dcmitype/StillImage" />
        <dc:title></dc:title>
      </cc:Work>
    </rdf:RDF>
  </metadata>
  <defs
     id="defs6" />
  <sodipodi:namedview
     pagecolor="#ffffff"
     bordercolor="#666666"
     borderopacity="1"
     objecttolerance="10"
     gridtolerance="10"
     guidetolerance="10"
     inkscape:pageopacity="0"
     inkscape:pageshadow="2"
     inkscape:window-width="828"
     inkscape:window-height="480"
     id="namedview4"
     showgrid="false"
     inkscape:zoom="14.75"
     inkscape:cx="8"
     inkscape:cy="8"
     inkscape:window-x="0"
     inkscape:window-y="0"
     inkscape:window-maximized="0"
     inkscape:current-layer="svg2" />
  <g
     id="SEQ_RELOAD_STRIPS">
    <path
       style="fill:#ffffff;stroke-width:0.03125"
       d="m 0,15 v -1 h 2.8988036 2.8988036 l 0.2496337,0.20867 c 0.6943104,0.580375 1.6577904,1.035128 2.5994647,1.226921 0.7022691,0.143033 1.7816374,0.143412 2.4853134,8.72e-4 0.688456,-0.139459 1.64962,-0.535838 2.149231,-0.886334 l 0.203125,-0.1425 0.01563,0.38775 c 0.01688,0.418963 0.04031,0.482352 0.230785,0.624565 0.081,0.06048 0.128213,0.06443 0.769215,0.06443 0.641002,0 0.688213,-0.004 0.769215,-0.06443 0.207032,-0.154571 0.214247,-0.18115 0.224867,-0.82838 L 15.503788,14 H 15.751894 16 v 1 1 H 8 0 Z M 0,1 V 0 h 8 8 V 1 2 H 8 0 Z"
       id="path831"
       inkscape:connector-curvature="0" />
    <path
       style="fill:#fefefe;stroke-width:0.03125"
       d="M 1,12.5 V 12 H 2 3 V 12.5 13 H 2 1 Z M 9.1484375,12.961675 9,12.930739 V 12.465369 12 h 0.7435188 0.7435182 l 0.03644,0.136257 c 0.04386,0.163995 0.207408,0.320213 0.366477,0.350055 L 11,12.506956 v 0.181418 0.181419 l -0.277306,0.0651 c -0.232424,0.05457 -0.370248,0.06451 -0.8515624,0.06141 -0.315841,-0.002 -0.6410535,-0.01762 -0.7226941,-0.03463 z M 1,8 V 5 h 1.7493541 1.749354 l 0.00846,2.0914756 c 0.00832,2.0569388 0.00952,2.0929 0.072889,2.1777566 0.035437,0.047454 0.103265,0.115275 0.1507291,0.1507119 C 4.8160184,9.48358 4.8440144,9.484375 7,9.484375 c 2.1559856,0 2.1839816,-7.937e-4 2.269215,-0.064431 C 9.4821994,9.2609284 9.484375,9.2516263 9.484375,8.5 9.484375,7.8589984 9.480425,7.8117866 9.419944,7.730785 9.2728459,7.5337628 9.2221869,7.5169541 8.7243934,7.5 L 8.265625,7.484375 8.375,7.4140091 C 8.7458547,7.1754219 9.3845991,7.0006809 9.96875,6.9780078 c 0.660167,-0.025623 1.256023,0.1065756 1.805139,0.4004947 0.719046,0.3848753 1.149454,0.8494003 1.532638,1.6541263 0.181905,0.3820196 0.333721,0.5442956 0.645863,0.6903646 0.293693,0.1374357 0.698553,0.1542657 0.992992,0.041279 C 14.995519,9.7450325 15,9.7743525 15,10.121657 V 10.5 h -2.047879 c -1.658911,0 -2.067255,0.0081 -2.149896,0.04263 -0.133221,0.05566 -0.263298,0.2128 -0.288834,0.348919 L 10.493044,11 H 8.6077297 6.722415 L 6.6224438,10.812435 C 6.4960581,10.575311 6.3032675,10.396978 6.0368628,10.270766 5.8458094,10.180253 5.8016497,10.171875 5.515625,10.171875 c -0.2860247,0 -0.3301844,0.0084 -0.5212378,0.09889 -0.2664047,0.126212 -0.4591953,0.304545 -0.5855809,0.541669 L 4.308835,11 H 2.6544175 1 Z M 14.908384,6.7774528 C 14.742247,6.55274 14.342624,6.1298531 14.07925,5.90005 13.719478,5.5861356 13.416195,5.3766219 13.018848,5.1675028 L 12.703125,5.0013412 13.851563,5.0006706 15,5 v 0.9375 c 0,0.515625 -0.0044,0.9375 -0.0097,0.9375 -0.0054,0 -0.0422,-0.043896 -0.08187,-0.097547 z M 6.5,5.2987194 V 5 L 7.0078125,5.0006719 7.515625,5.0013437 7.1938169,5.1706912 C 7.0168225,5.2638322 6.805885,5.3873066 6.7250669,5.4450784 6.6442487,5.5028506 6.5605469,5.5607659 6.5390625,5.5737797 6.5088866,5.5920581 6.5,5.5294831 6.5,5.2987219 Z M 1,3.5 V 3 H 2 3 V 3.5 4 H 2 1 Z m 4,0 V 3 H 6 7 V 3.5 4 H 6 5 Z m 4,0 V 3 h 1 1 V 3.5 4 H 10 9 Z m 4,0 V 3 h 1 1 V 3.5 4 h -1 -1 z"
       id="path829"
       inkscape:connector-curvature="0" />
    <path
       style="fill:#1bfe1b;stroke-width:0.03125"
       d="m 4.9436316,10.932219 c 0.024752,-0.03728 0.1201384,-0.110228 0.2119687,-0.162109 0.1358353,-0.07674 0.2029588,-0.09433 0.3600247,-0.09433 0.1570659,0 0.2241894,0.01759 0.3600247,0.09433 0.09183,0.05188 0.1872162,0.12483 0.2119687,0.162109 L 6.1326231,11 H 5.515625 4.8986269 Z M 14.339463,9.3228356 c -0.154262,-0.025844 -0.405936,-0.2064718 -0.490821,-0.3522659 -0.04445,-0.076343 -0.0659,-0.1295884 -0.04768,-0.1183234 0.01823,0.011265 0.283392,-0.084476 0.589257,-0.2127572 C 14.696088,8.5112075 14.958414,8.40625 14.97317,8.40625 14.987927,8.40625 15,8.572765 15,8.7762834 v 0.3700335 l -0.148437,0.080351 c -0.150576,0.081509 -0.362286,0.121266 -0.5121,0.096168 z"
       id="path827"
       inkscape:connector-curvature="0" />
    <path
       style="fill:#00fe00;stroke-width:0.03125"
       d="M 9.46875,15.027223 C 7.8275366,14.923443 6.2826366,14.048093 5.3500916,12.693564 5.1777247,12.4432 4.7963803,11.724453 4.8222081,11.698625 4.8354797,11.685354 6.1611322,11.125 6.1792575,11.125 c 0.0041,0 0.058379,0.101953 0.1206172,0.226563 0.2769897,0.554571 0.7439862,1.113429 1.2001253,1.436197 0.4713919,0.333561 1.0986191,0.594999 1.671875,0.696862 0.3677572,0.06535 1.067363,0.06523 1.4375,-2.19e-4 0.847014,-0.149812 1.57033,-0.531655 2.186298,-1.154163 l 0.311298,-0.314615 -1.053485,-0.0082 L 11,11.999169 V 11.499584 11 h 2 2 v 2 2 H 14.5 14 v -0.864328 -0.864329 l -0.195312,0.185346 c -1.211922,1.150076 -2.664512,1.676223 -4.335938,1.570534 z M 5,7 V 5 H 5.5 6 v 0.8662094 0.866209 L 6.1796875,6.5580997 C 6.6389569,6.1125519 7.1110453,5.78046 7.6584591,5.5178531 8.5640522,5.0834197 9.4825281,4.9083766 10.514988,4.9734556 c 1.66252,0.1047935 3.196916,0.9705219 4.13492,2.3329807 0.172367,0.250364 0.553712,0.9691106 0.527884,0.9949384 C 15.16452,8.3146462 13.838868,8.875 13.820743,8.875 c -0.0041,0 -0.05838,-0.1019531 -0.120618,-0.2265625 C 13.423136,8.0938663 12.956139,7.5350084 12.5,7.21224 12.028608,6.8786788 11.401381,6.6172412 10.828125,6.5153784 10.460368,6.4500309 9.7607616,6.4501434 9.390625,6.5155972 8.5436109,6.6654088 7.8202953,7.0472525 7.2043269,7.66976 L 6.8930291,7.9843628 7.9465144,7.9925909 9,8.0008191 V 8.5004034 8.9999878 H 7 5 v -2 z"
       id="path825"
       inkscape:connector-curvature="0" />
    <path
       style="fill:#00fd00;stroke-width:0.03125"
       d="m 4.7936872,11.651092 c -0.046487,-0.07522 -0.027322,-0.389133 0.031755,-0.520143 L 4.8844922,11 H 5.515355 6.1462178 l 0.036503,0.08012 c 0.020077,0.04406 0.024548,0.07273 0.00994,0.0637 -0.014613,-0.009 -0.3275932,0.109604 -0.6955129,0.263634 -0.3679193,0.15403 -0.6716465,0.280054 -0.6749497,0.280054 -0.0033,0 -0.016131,-0.01638 -0.028506,-0.03641 z M 15.000994,8.7628288 15,8.3850322 15.082879,8.34727 c 0.117563,-0.053565 0.147688,-0.00795 0.147042,0.2226519 -5.41e-4,0.1927097 -0.05516,0.347264 -0.179606,0.5082031 -0.0444,0.057418 -0.04841,0.031783 -0.04932,-0.3152962 z"
       id="path823"
       inkscape:connector-curvature="0" />
    <path
       style="fill:#323232;stroke-width:0.03125"
       d="M 0,8 V 2 h 8 8 v 6 6 H 15.75 15.5 v -1.547879 c 0,-1.236619 -0.0086,-1.568393 -0.04263,-1.649896 -0.05566,-0.133221 -0.2128,-0.263298 -0.348919,-0.288834 L 15,10.493044 V 10.113656 9.7342678 l 0.14067,-0.074625 C 15.590819,9.4208388 15.845024,8.7934675 15.70804,8.2593841 15.650394,8.0346309 15.371897,7.4646947 15.152201,7.1218784 L 15,6.8843819 V 5.9421909 5 H 13.847638 C 12.702946,5 12.694159,4.9995062 12.527326,4.9258497 11.297427,4.38285 9.5777363,4.3000303 8.26489,4.7205725 8.10566,4.7715784 7.8735172,4.8553156 7.7490172,4.9066553 7.5295256,4.9971662 7.5072369,5 7.0148047,5 H 6.5069556 L 6.4866094,4.891545 C 6.4610731,4.7554256 6.3309959,4.5982891 6.1977753,4.5426259 c -0.1442216,-0.06026 -1.2513291,-0.06026 -1.3955506,0 C 4.6690041,4.5982891 4.5389269,4.7554256 4.5133906,4.891545 L 4.4930444,5 H 2.7465222 1 v 3 3 h 1.6595934 c 1.567926,0 1.6584053,0.003 1.6380838,0.05469 -0.01183,0.03008 -0.029137,0.153124 -0.038459,0.273437 -0.022622,0.29196 0.038536,0.518458 0.2590431,0.959366 0.2950863,0.59003 0.562721,0.966706 1.0557913,1.485947 L 5.7891956,14 H 2.8945978 0 Z m 3,4.5 V 12 H 2 1 v 0.5 0.5 h 1 1 z m 0,-9 V 3 H 2 1 V 3.5 4 h 1 1 z m 4,0 V 3 H 6 5 V 3.5 4 h 1 1 z m 4,0 V 3 H 10 9 V 3.5 4 h 1 1 z m 4,0 V 3 H 14 13 V 3.5 4 h 1 1 z m -5.3033878,9.508047 c 0.1167303,-0.006 0.2995428,-0.006 0.4062498,9.4e-5 0.106707,0.0061 0.0112,0.01102 -0.212237,0.01096 -0.2234375,-6.2e-5 -0.3107434,-0.005 -0.1940128,-0.01106 z M 8.65625,12.81545 C 8.0340006,12.58245 7.4838784,12.185642 7.1303419,11.714798 6.9983669,11.539033 6.71875,11.069868 6.71875,11.024194 6.71875,11.010888 7.5695312,11 8.609375,11 H 10.5 V 11.5 12 H 9.75 9 v 0.453125 c 0,0.525744 0.024293,0.500138 -0.34375,0.362325 z M 11,12.675263 V 12.5 h 0.361219 c 0.260606,0 0.355139,0.0098 0.33939,0.03532 -0.0254,0.0411 -0.488337,0.262387 -0.614671,0.293822 L 11,12.850526 Z"
       id="path821"
       inkscape:connector-curvature="0" />
    <path
       style="fill:#006500;stroke-width:0.03125"
       d="M 9.34375,15.530021 C 8.1186597,15.443014 6.8454956,14.910865 5.9172106,14.097818 5.3339872,13.586997 4.8700825,12.988428 4.5270437,12.304109 4.295005,11.841221 4.2364259,11.62437 4.2597728,11.314716 c 0.034476,-0.457263 0.3036444,-0.839774 0.7346144,-1.04395 0.1910534,-0.09051 0.2352131,-0.09889 0.5212378,-0.09889 0.2860247,0 0.3301844,0.0084 0.5212378,0.09889 0.3240816,0.153537 0.4735009,0.312057 0.6566103,0.696605 0.3831844,0.804726 0.8135919,1.269251 1.5326378,1.654127 0.91699,0.490826 2.0776371,0.540841 3.0574441,0.131752 0.127639,-0.05329 0.281289,-0.128558 0.341445,-0.167259 L 11.734375,12.515625 11.275607,12.5 c -0.497794,-0.01695 -0.548453,-0.03376 -0.695551,-0.230785 -0.06048,-0.081 -0.06443,-0.128213 -0.06443,-0.769215 0,-0.751626 0.0022,-0.760928 0.21516,-0.919944 0.08523,-0.06364 0.113229,-0.06443 2.269215,-0.06443 2.155986,0 2.183982,7.94e-4 2.269215,0.06443 0.04746,0.03544 0.115292,0.103265 0.150729,0.150729 0.06364,0.08523 0.06443,0.113229 0.06443,2.269215 0,2.155986 -7.94e-4,2.183982 -0.06443,2.269215 -0.159016,0.212984 -0.168318,0.21516 -0.919944,0.21516 -0.641002,0 -0.688213,-0.004 -0.769215,-0.06443 C 13.540306,15.277731 13.516883,15.214342 13.5,14.795379 l -0.01563,-0.38775 -0.202752,0.141248 c -0.434285,0.302545 -1.207132,0.646717 -1.82155,0.811191 -0.577477,0.154585 -1.401248,0.220739 -2.116323,0.169953 z m 1.275883,-0.533673 c 1.15353,-0.129526 2.26555,-0.667078 3.185055,-1.539659 L 14,13.271343 V 14.135672 15 h 0.5 0.5 v -2 -2 h -2 -2 v 0.499584 0.499585 l 1.053486,0.0082 1.053485,0.0082 -0.311298,0.314603 c -0.485911,0.491069 -0.957641,0.787702 -1.587544,0.998277 -0.449028,0.150109 -0.804106,0.20559 -1.317504,0.205861 C 9.3756888,13.534647 9.0247403,13.479481 8.5663259,13.326231 7.9727572,13.127799 7.4765269,12.822947 7.0455397,12.39196 6.7171169,12.063537 6.5294863,11.795056 6.2808994,11.297833 6.088905,10.913807 6.0682181,10.885341 5.9142781,10.793352 5.6330413,10.625294 5.3966119,10.625223 5.1197513,10.793102 c -0.2258879,0.136978 -0.35022,0.36121 -0.35022,0.631616 0,0.174982 0.019238,0.235377 0.1800634,0.56528 0.6477281,1.328692 1.7505737,2.298082 3.1410528,2.760952 0.8226353,0.273844 1.6020509,0.349471 2.5289855,0.245388 z M 14.175554,9.8109806 C 13.97766,9.7612766 13.69635,9.594715 13.559437,9.4461822 13.487232,9.3678491 13.370477,9.1757825 13.291405,9.0052584 12.939021,8.2453163 12.485966,7.7596475 11.773889,7.3785025 10.856899,6.8876756 9.6962525,6.8376606 8.7164447,7.2467497 8.5888063,7.3000412 8.4351563,7.3753078 8.375,7.4140091 L 8.265625,7.484375 8.7243934,7.5 c 0.4977935,0.016954 0.5484525,0.033763 0.6955507,0.230785 0.060476,0.081002 0.064431,0.1282134 0.064431,0.769215 0,0.7516262 -0.00217,0.7609284 -0.21516,0.9199441 C 9.1839816,9.48358 9.1559856,9.484375 7,9.484375 4.8440144,9.484375 4.8160184,9.4835813 4.730785,9.4199441 4.6833209,9.3845072 4.6154928,9.3166791 4.5800559,9.269215 4.51642,9.1839816 4.515625,9.1559856 4.515625,7 c 0,-2.1559856 7.937e-4,-2.1839816 0.064431,-2.269215 C 4.7390716,4.5178006 4.7483737,4.515625 5.5,4.515625 c 0.6410016,0 0.6882134,0.00395 0.769215,0.064431 C 6.4596944,4.7222691 6.4831172,4.7856578 6.5,5.2046206 L 6.515625,5.5923706 6.71875,5.4498709 C 7.2183609,5.0993753 8.179525,4.7029956 8.8679806,4.5635381 9.3241575,4.4711325 10.033453,4.4320409 10.582507,4.4690453 c 2.109986,0.1422056 3.95414,1.3590269 4.890449,3.2268459 0.232039,0.4628876 0.290618,0.6797385 0.267271,0.9893925 -0.01356,0.1798675 -0.04248,0.2826929 -0.128388,0.4565172 -0.20833,0.4215269 -0.588124,0.6686594 -1.058416,0.6887122 -0.141101,0.00602 -0.311142,-0.00277 -0.377869,-0.019532 z m 0.683821,-0.5896772 c 0.275797,-0.1526787 0.427906,-0.49363 0.358464,-0.803494 C 15.175358,8.2282506 14.860919,7.6129309 14.649908,7.3064362 13.711904,5.9439775 12.177508,5.0782491 10.514988,4.9734556 8.8572819,4.8689653 7.3547044,5.4181894 6.1796875,6.5580997 L 6,6.7324184 V 5.8662094 5 H 5.5 5 V 7 9 H 7 9 V 8.5004156 8.0008313 L 7.9465144,7.9926031 6.8930291,7.984375 7.2043269,7.6697722 C 7.6902381,7.1787025 8.1619684,6.8820697 8.7918709,6.671495 9.2408988,6.5213863 9.5959772,6.465905 10.109375,6.4656338 c 0.514936,-2.813e-4 0.865885,0.054885 1.324299,0.208135 0.593569,0.1984325 1.089799,0.5032837 1.520786,0.9342709 0.328423,0.3284228 0.516054,0.5969044 0.764641,1.0941269 0.193354,0.3867468 0.211794,0.4119628 0.370713,0.5069272 0.09198,0.054964 0.204323,0.1061481 0.249649,0.1137418 0.15454,0.02589 0.363425,-0.014902 0.519912,-0.1015322 z"
       id="path819"
       inkscape:connector-curvature="0" />
  </g>
</svg>
