<?xml version="1.0" encoding="UTF-8" standalone="no"?>
<!-- Created with Inkscape (http://www.inkscape.org/) -->

<svg
   xmlns:dc="http://purl.org/dc/elements/1.1/"
   xmlns:cc="http://creativecommons.org/ns#"
   xmlns:rdf="http://www.w3.org/1999/02/22-rdf-syntax-ns#"
   xmlns:svg="http://www.w3.org/2000/svg"
   xmlns="http://www.w3.org/2000/svg"
   xmlns:sodipodi="http://sodipodi.sourceforge.net/DTD/sodipodi-0.dtd"
   xmlns:inkscape="http://www.inkscape.org/namespaces/inkscape"
   version="1.1"
   id="svg2"
   width="16"
   height="16"
   viewBox="0 0 16 16"
   sodipodi:docname="LINK_DATA.svg"
   inkscape:version="0.92.4 (5da689c313, 2019-01-14)">
  <metadata
     id="metadata8">
    <rdf:RDF>
      <cc:Work
         rdf:about="">
        <dc:format>image/svg+xml</dc:format>
        <dc:type
           rdf:resource="http://purl.org/dc/dcmitype/StillImage" />
        <dc:title></dc:title>
      </cc:Work>
    </rdf:RDF>
  </metadata>
  <defs
     id="defs6" />
  <sodipodi:namedview
     pagecolor="#ffffff"
     bordercolor="#666666"
     borderopacity="1"
     objecttolerance="10"
     gridtolerance="10"
     guidetolerance="10"
     inkscape:pageopacity="0"
     inkscape:pageshadow="2"
     inkscape:window-width="811"
     inkscape:window-height="542"
     id="namedview4"
     showgrid="false"
     inkscape:zoom="14.75"
     inkscape:cx="8"
     inkscape:cy="8"
     inkscape:window-x="0"
     inkscape:window-y="0"
     inkscape:window-maximized="0"
     inkscape:current-layer="svg2" />
  <g
     id="LINK_DATA">
    <path
       style="fill:#ffffff;stroke-width:0.03125"
       d="M 0.0014617,12.132813 C 0.0029181,8.2796697 0.00314235,8.2661859 0.06320995,8.4200384 0.13489964,8.6036588 0.37236162,8.859145 0.546875,8.9404153 c 0.11873194,0.055293 0.25506919,0.058247 2.7188878,0.058898 l 2.5938878,6.875e-4 1.3196191,1.3203122 1.319619,1.320312 0.00837,1.771169 c 0.00819,1.733454 0.00974,1.773007 0.072799,1.857445 0.035437,0.04745 0.103265,0.115269 0.1507291,0.150706 0.085839,0.06409 0.1032397,0.06443 3.2692152,0.06443 3.165975,0 3.183376,-3.45e-4 3.269215,-0.06443 0.04746,-0.03544 0.115292,-0.103266 0.150729,-0.150729 0.0644,-0.08626 0.06443,-0.08826 0.06443,-4.769216 0,-4.6809599 -2.7e-5,-4.6829533 -0.06443,-4.7692155 C 15.384507,5.6833209 15.316679,5.6154928 15.269215,5.5800559 15.183376,5.5159678 15.165975,5.515625 12,5.515625 c -3.1659753,0 -3.1833762,3.437e-4 -3.269215,0.064431 C 8.5430725,5.7202034 8.5168547,5.7883453 8.5,6.1798794 L 8.484375,6.5428478 7.6300384,4.8106163 C 7.1601534,3.8578887 6.7632847,3.0707103 6.7481078,3.0613306 6.7329312,3.0519509 6.4333747,2.4612675 6.0824262,1.7487008 5.4959719,0.55796109 5.43065,0.43979309 5.2751709,0.28836795 5.1763903,0.19216295 5.0416922,0.0985031 4.9514391,0.06326715 4.7977972,0.00328348 4.8303,0.00291468 10.398438,0.0014617 L 16,0 v 8 8 H 8 0 Z M 0.00209049,3.8046875 0,0 2.0859375,0.0014617 4.171875,0.0029234 4.0174616,0.06320995 C 3.9325188,0.09637364 3.7938816,0.19061662 3.70931,0.27268575 3.5732106,0.40475797 3.4823666,0.57052112 2.9175288,1.7174508 2.5666053,2.4300175 2.267448,3.0206425 2.2527349,3.0299508 2.2154959,3.0535102 0.09600739,7.3305612 0.04534935,7.484375 0.01080999,7.5892472 0.00384437,6.9967375 0.00209049,3.8046875 Z"
       id="path835"
       inkscape:connector-curvature="0" />
    <path
       style="fill:#fefefe;stroke-width:0.03125"
       d="M 11.035193,13.951165 C 10.908456,13.907998 10.746738,13.832027 10.675818,13.782341 10.524069,13.676027 3.3207241,6.4670925 3.2246375,6.3253794 3.1027184,6.1455672 3,5.7752966 3,5.515625 3,5.2553372 3.1030402,4.8846453 3.2250853,4.7058706 3.6339078,4.1070162 4.3340466,3.8588231 4.9917447,4.079605 c 0.1304265,0.043783 0.2805622,0.1090475 0.3336347,0.1450325 0.1418581,0.096185 7.3507056,7.2995145 7.4571236,7.4514155 0.04977,0.07105 0.126105,0.235247 0.169623,0.364885 0.188316,0.560985 0.03679,1.164345 -0.394632,1.571395 -0.201337,0.189962 -0.303661,0.251332 -0.565749,0.339312 -0.321641,0.107971 -0.638614,0.107812 -0.956552,-4.78e-4 z m 0.827739,-0.483257 c 0.143971,-0.04862 0.228686,-0.104911 0.364477,-0.242188 0.290574,-0.293753 0.374971,-0.664321 0.240679,-1.056765 C 12.406281,11.988336 12.325985,11.905419 8.7263234,8.3050609 5.1064009,4.6844381 5.0447512,4.6247441 4.8615428,4.5628734 4.4643809,4.42875 4.0920487,4.51417 3.8038412,4.80553 3.5133172,5.0992322 3.4294928,5.4665813 3.5628734,5.8615428 c 0.06187,0.1832056 0.1216207,0.2449169 3.7421875,3.8649419 3.4827671,3.4822453 3.6884961,3.6820073 3.8511891,3.7394813 0.225942,0.07982 0.47406,0.0805 0.706682,0.0019 z"
       id="path833"
       inkscape:connector-curvature="0" />
    <path
       style="fill:#fefecb;stroke-width:0.03125"
       d="m 9,13.570538 v -1.429462 l 0.8046875,0.799982 c 0.4425785,0.43999 0.8481105,0.829457 0.9011835,0.865482 0.179642,0.121939 0.549982,0.22471 0.809754,0.22471 0.260288,0 0.63098,-0.10304 0.809754,-0.225085 0.598264,-0.408419 0.847021,-1.109042 0.626747,-1.765227 -0.04352,-0.129638 -0.119839,-0.293836 -0.169602,-0.364885 -0.04976,-0.07105 -0.921189,-0.958821 -1.936501,-1.9728286 L 9,7.8595737 V 6.9297869 6 h 3 3 V 10.5 15 H 12 9 Z"
       id="path831"
       inkscape:connector-curvature="0" />
    <path
       style="fill:#fefe00;stroke-width:0.03125"
       d="M 0.64464638,8.31158 C 0.60083369,8.2595116 0.55568287,8.1673153 0.54431125,8.1066994 0.49097178,7.8223756 0.51504031,7.7624153 1.3936589,5.9907719 1.8556926,5.0591284 2.2439305,4.2893128 2.2564097,4.2800703 2.2688889,4.2708278 2.6729017,3.4686063 3.1542159,2.4973558 3.63553,1.5261053 4.0614047,0.70140103 4.1006038,0.66467956 4.1799656,0.59033406 4.31621,0.53125 4.4082844,0.53125 c 0.054525,0 0.060466,0.0235181 0.060466,0.23939228 V 1.0100346 L 3.6077344,2.7472048 C 3.1341756,3.7026484 2.72382,4.5194022 2.6958329,4.5622131 2.6071752,4.69783 1.03125,7.8819653 1.03125,7.9254803 c 0,0.049107 -0.2561755,0.4784791 -0.28628456,0.4798375 -0.0113628,5.125e-4 -0.0565063,-0.041669 -0.10031906,-0.093738 z"
       id="path829"
       inkscape:connector-curvature="0" />
    <path
       style="fill:#fe9832;stroke-width:0.03125"
       d="m 1.03125,7.9419337 c 0,-0.054681 1.5553748,-3.2126687 1.6645829,-3.3797206 C 2.72382,4.5194022 3.1341756,3.7026484 3.6077344,2.7472048 L 4.46875,1.0100346 V 0.77064228 C 4.46875,0.53783063 4.47084,0.53125 4.544841,0.53125 c 0.1137131,0 0.2414431,0.0563715 0.3393241,0.14975519 0.053449,0.0509935 0.4246981,0.76414021 0.957619,1.83952861 0.4786813,0.9659371 0.8859357,1.7748328 0.90501,1.7975453 C 6.7658681,4.3407919 7.0636009,4.9289063 7.4084225,5.625 L 8.0353706,6.890625 6.7286228,5.5903825 C 6.0099116,4.8752487 5.3784519,4.2606806 5.3253794,4.224675 5.1456547,4.1027453 4.7753481,4 4.515625,4 4.2553372,4 3.8846453,4.1030403 3.7058706,4.2250853 3.1070163,4.6339078 2.8588231,5.3340466 3.0796051,5.9917447 c 0.043783,0.1304265 0.1090808,0.2805622 0.1451068,0.3336347 0.036026,0.053072 0.4184597,0.4515737 0.8498525,0.8855581 L 4.8589153,8 H 2.9450827 C 1.1007953,8 1.03125,7.99789 1.03125,7.9419337 Z"
       id="path827"
       inkscape:connector-curvature="0" />
    <path
       style="fill:#986532;stroke-width:0.03125"
       d="M 8.796875,15.456122 C 8.6818363,15.404703 8.5776463,15.294613 8.5333316,15.177653 8.5111888,15.119212 8.5,14.511034 8.5,13.365886 V 11.642091 L 8.75,11.890625 9,12.139159 V 13.569579 15 h 3 3 V 10.5 6 H 12 9 V 6.9289544 7.8579087 L 8.7487666,7.6086419 8.4975334,7.359375 8.5065791,6.5881509 C 8.5165303,5.7397294 8.5164531,5.7400778 8.730785,5.5800559 8.8166238,5.5159678 8.8340247,5.515625 12,5.515625 c 3.165975,0 3.183376,3.437e-4 3.269215,0.064431 0.04746,0.035437 0.115292,0.103265 0.150729,0.1507291 0.0644,0.086262 0.06443,0.088256 0.06443,4.7692149 0,4.680959 -2.7e-5,4.682953 -0.06443,4.769215 -0.03544,0.04746 -0.103261,0.115292 -0.150721,0.150729 -0.08567,0.06397 -0.108916,0.06448 -3.232444,0.07126 -2.5745031,0.0056 -3.1631881,-7.87e-4 -3.239904,-0.03508 z"
       id="path825"
       inkscape:connector-curvature="0" />
    <path
       style="fill:#00fe00;stroke-width:0.03125"
       d="M 11.359375,12.994167 C 11.29896,12.973449 9.9859528,11.68356 7.6666847,9.3664944 4.472065,6.1749075 4.0635675,5.7560516 4.0305628,5.6381703 3.9304669,5.2806634 4.2917919,4.9257478 4.6473875,5.0322869 c 0.1069728,0.03205 0.6643438,0.5767106 3.7203572,3.6355178 2.9262943,2.9289703 3.6015603,3.6201053 3.6323293,3.7176923 0.07527,0.238741 -0.08441,0.524813 -0.340675,0.610312 -0.125247,0.04179 -0.17416,0.04152 -0.300024,-0.0016 z"
       id="path823"
       inkscape:connector-curvature="0" />
    <path
       style="fill:#009800;stroke-width:0.03125"
       d="M 11.15625,13.465966 C 10.993557,13.408492 10.787828,13.20873 7.3050609,9.7264847 3.6844941,6.1064597 3.6247431,6.0447484 3.5628734,5.8615428 3.4294928,5.4665813 3.5133172,5.0992322 3.8038413,4.80553 4.0920488,4.51417 4.4643809,4.42875 4.8615428,4.5628734 c 0.1832085,0.061871 0.2448581,0.1215647 3.8647806,3.7421875 3.5996616,3.6003581 3.6799576,3.6832751 3.7417646,3.8638941 0.134292,0.392444 0.04989,0.763012 -0.240679,1.056765 -0.135792,0.137277 -0.220506,0.193568 -0.364477,0.242188 -0.232622,0.07856 -0.48074,0.07788 -0.706682,-0.0019 z m 0.503149,-0.470157 c 0.256265,-0.0855 0.415949,-0.371571 0.340675,-0.610312 C 11.969305,12.28791 11.294039,11.596775 8.3677447,8.6678047 5.3117312,5.6089975 4.7543603,5.0643366 4.6473875,5.0322869 4.2917919,4.9257478 3.9304669,5.2806634 4.0305628,5.6381703 4.0635675,5.7560516 4.472065,6.1749075 7.6666847,9.3664944 9.9859528,11.68356 11.29896,12.973449 11.359375,12.994167 c 0.125864,0.04316 0.174777,0.04343 0.300024,0.0016 z"
       id="path821"
       inkscape:connector-curvature="0" />
    <path
       style="fill:#653200;stroke-width:0.03125"
       d="M 0.546875,8.9412756 C 0.478125,8.9097322 0.35021972,8.8077116 0.26264106,8.7145631 0.03957176,8.4773072 -0.00978545,8.3145172 0.00453847,7.8632891 L 0.01567206,7.5125616 1.1207439,5.2797184 C 1.7285334,4.0516544 2.2379233,3.0392396 2.2527213,3.0299073 2.2675193,3.0205751 2.5622393,2.4369814 2.9076547,1.7330323 3.4613616,0.60458941 3.5547606,0.43365756 3.6968972,0.28862103 3.9148169,0.06625503 4.0955881,0 4.484375,0 c 0.3966478,0 0.5678725,0.06486429 0.8029872,0.30419248 0.162355,0.16526465 0.2290044,0.28614999 0.8050106,1.46008982 0.3454003,0.7039491 0.6403522,1.2875428 0.6554491,1.296875 0.015097,0.00933 0.4155128,0.8031418 0.8898134,1.7640211 L 8.5,6.5722319 V 6.9649653 7.3576988 L 8.2781391,7.1397869 C 8.0573184,6.9228969 8.0532884,6.9158659 7.4188562,5.640625 7.0682744,4.9359375 6.7658372,4.3407919 6.7467741,4.3180791 6.7277106,4.2953666 6.320465,3.4864709 5.8417837,2.5205337 5.3088628,1.4451454 4.9376141,0.73199869 4.8841647,0.68100519 4.677085,0.48344013 4.3024053,0.47563359 4.1006038,0.66467956 4.0614047,0.70140103 3.63553,1.5261053 3.1542159,2.4973558 2.6729017,3.4686063 2.2688889,4.2708278 2.2564097,4.2800703 2.2439305,4.2893128 1.8550265,5.0604694 1.3921786,5.9937512 0.63530131,7.5199109 0.54930791,7.7090006 0.53742703,7.8732522 c -0.0156181,0.2159184 0.0290149,0.3714484 0.13523166,0.471234 0.0424022,0.039835 0.0819096,0.066512 0.0877942,0.059283 0.005885,-0.00723 0.0641889,-0.1010347 0.12956497,-0.2084566 L 1.0088835,8 H 2.9344956 4.8601075 L 5.359375,8.5 5.8586425,9 3.2652588,8.9993125 C 0.81654706,8.9986656 0.66490187,8.9954281 0.546875,8.9412756 Z"
       id="path819"
       inkscape:connector-curvature="0" />
  </g>
</svg>
