<?xml version="1.0" encoding="UTF-8" standalone="no"?>
<!-- Created with Inkscape (http://www.inkscape.org/) -->

<svg
   xmlns:dc="http://purl.org/dc/elements/1.1/"
   xmlns:cc="http://creativecommons.org/ns#"
   xmlns:rdf="http://www.w3.org/1999/02/22-rdf-syntax-ns#"
   xmlns:svg="http://www.w3.org/2000/svg"
   xmlns="http://www.w3.org/2000/svg"
   xmlns:sodipodi="http://sodipodi.sourceforge.net/DTD/sodipodi-0.dtd"
   xmlns:inkscape="http://www.inkscape.org/namespaces/inkscape"
   version="1.1"
   id="svg2"
   width="16"
   height="16"
   viewBox="0 0 16 16"
   sodipodi:docname="MAKE_SINGLE_USER.svg"
   inkscape:version="0.92.4 (5da689c313, 2019-01-14)">
  <metadata
     id="metadata8">
    <rdf:RDF>
      <cc:Work
         rdf:about="">
        <dc:format>image/svg+xml</dc:format>
        <dc:type
           rdf:resource="http://purl.org/dc/dcmitype/StillImage" />
        <dc:title></dc:title>
      </cc:Work>
    </rdf:RDF>
  </metadata>
  <defs
     id="defs6" />
  <sodipodi:namedview
     pagecolor="#ffffff"
     bordercolor="#666666"
     borderopacity="1"
     objecttolerance="10"
     gridtolerance="10"
     guidetolerance="10"
     inkscape:pageopacity="0"
     inkscape:pageshadow="2"
     inkscape:window-width="811"
     inkscape:window-height="686"
     id="namedview4"
     showgrid="false"
     inkscape:zoom="14.75"
     inkscape:cx="8"
     inkscape:cy="8"
     inkscape:window-x="0"
     inkscape:window-y="0"
     inkscape:window-maximized="0"
     inkscape:current-layer="svg2" />
  <g
     id="MAKE_SINGLE_USER">
    <path
       style="fill:#ffffff;stroke-width:0.03125"
       d="M 0,8 V 0 h 8 8 v 8 8 H 8 0 Z m 13.269218,7.419944 c 0.04746,-0.03544 0.115289,-0.103265 0.150726,-0.150729 l 0.06443,-0.0863 V 8 0.81708316 l -0.06443,-0.0862982 C 13.384504,0.68332096 13.316679,0.61549286 13.269215,0.5800559 L 13.182917,0.515625 H 8 2.8170832 L 2.730785,0.58005591 C 2.683321,0.61549288 2.6154929,0.68332019 2.5800559,0.73078319 l -0.064431,0.0862964 -0.0089,7.09927261 c -0.0049,3.9045998 -8.222e-4,7.1445618 0.00906,7.1999148 0.022346,0.125223 0.153658,0.284895 0.2795488,0.339925 0.078346,0.03425 1.0107896,0.04046 5.2414484,0.03492 5.1436299,-0.0067 5.1461919,-0.0068 5.2324439,-0.07117 z"
       id="path829"
       inkscape:connector-curvature="0" />
    <path
       style="fill:#fefecb;stroke-width:0.03125"
       d="M 3,8 V 1 h 5 5 v 7 7 H 8 3 Z m 8.930691,4.451716 c 0.180294,-0.07493 0.435052,-0.345226 0.507251,-0.538194 0.07526,-0.201161 0.08452,-0.667449 0.01752,-0.882272 C 12.406371,10.873851 10.288851,6.5877847 10.247025,6.5611572 10.232367,6.551825 9.9377731,5.9682313 9.5923728,5.2642822 9.0163666,4.0903425 8.9497172,3.9694572 8.7873622,3.8041925 8.5522475,3.5648644 8.3810228,3.5 7.984375,3.5 7.5955881,3.5 7.4148169,3.566255 7.1968972,3.7886209 7.0547606,3.9336575 6.9613616,4.1045894 6.4076547,5.2330322 6.0622394,5.9369813 5.7675194,6.520575 5.7527213,6.5299072 5.7379231,6.5392397 5.2285334,7.5516544 4.6207441,8.7797184 l -1.1050719,2.2328436 -0.011134,0.350727 c -0.014324,0.451228 0.035033,0.614018 0.2581025,0.851274 0.2931538,0.311798 -0.120295,0.283969 4.2305504,0.284751 3.3763599,6.06e-4 3.8348449,-0.0049 3.9374999,-0.0476 z"
       id="path827"
       inkscape:connector-curvature="0" />
    <path
       style="fill:#fefe00;stroke-width:0.03125"
       d="M 4.1446462,11.81158 C 4.1008338,11.759512 4.0556828,11.667315 4.0443112,11.606699 3.9909719,11.322376 4.0150403,11.262415 4.8936587,9.4907719 5.3556925,8.5591284 5.7439306,7.7893128 5.7564097,7.7800703 5.7688891,7.7708278 6.1729019,6.9686063 6.6542159,5.9973559 7.13553,5.0261053 7.5614047,4.2014009 7.6006038,4.1646797 7.6799656,4.0903341 7.81621,4.03125 7.9082844,4.03125 c 0.054525,0 0.060466,0.023518 0.060466,0.2393922 v 0.2393925 l -0.8610156,1.73717 C 6.6341756,7.2026484 6.22382,8.0194022 6.1958328,8.0622131 6.107175,8.19783 4.53125,11.381965 4.53125,11.42548 c 0,0.04911 -0.2561756,0.478479 -0.2862847,0.479838 -0.011362,5.12e-4 -0.056506,-0.04167 -0.1003191,-0.09374 z"
       id="path825"
       inkscape:connector-curvature="0" />
    <path
       style="fill:#fe9832;stroke-width:0.03125"
       d="M 11.622573,11.704257 11.484375,11.501488 8.0078125,11.500744 C 4.6408378,11.500023 4.53125,11.49817 4.53125,11.441934 c 0,-0.05468 1.5553747,-3.212669 1.6645828,-3.3797209 C 6.22382,8.0194022 6.6341756,7.2026484 7.1077344,6.2472047 L 7.96875,4.5100347 V 4.2706422 c 0,-0.2328116 0.00209,-0.2393922 0.076091,-0.2393922 0.1137132,0 0.2414432,0.056372 0.3393241,0.1497553 0.053469,0.051012 0.4262084,0.7671875 0.9620128,1.8483947 0.4810978,0.9708138 0.8847861,1.7726778 0.8970851,1.7819203 0.0123,0.00924 0.400879,0.7795256 0.86351,1.71174 0.71853,1.4478587 0.843187,1.7195347 0.855141,1.8636857 0.01646,0.198498 -0.02934,0.35888 -0.129311,0.452797 l -0.07183,0.06748 z"
       id="path823"
       inkscape:connector-curvature="0" />
    <path
       style="fill:#986532;stroke-width:0.03125"
       d="M 2.7953257,15.456192 C 2.6694349,15.401162 2.5381233,15.24149 2.5157769,15.116267 c -0.00988,-0.05535 -0.013953,-3.295315 -0.00906,-7.1999148 l 0.0089,-7.09927261 0.064431,-0.0862964 C 2.6154929,0.68332019 2.683321,0.61549288 2.730785,0.58005591 L 2.8170832,0.515625 H 8 13.182917 l 0.0863,0.0644309 c 0.04746,0.035437 0.115292,0.10326506 0.150729,0.15072906 l 0.06443,0.0862982 V 8 15.182917 l -0.06443,0.0863 c -0.03544,0.04746 -0.103263,0.115292 -0.150726,0.150729 -0.08625,0.0644 -0.08881,0.06443 -5.2324439,0.07117 -4.2306588,0.0055 -5.1631027,-6.75e-4 -5.2414484,-0.03492 z M 13,8 V 1 H 8 3 v 7 7 h 5 5 z"
       id="path821"
       inkscape:connector-curvature="0" />
    <path
       style="fill:#653200;stroke-width:0.03125"
       d="M 4.046875,12.441276 C 3.978125,12.409732 3.8502197,12.307712 3.7626409,12.214563 3.5395719,11.977307 3.4902147,11.814517 3.5045384,11.363289 L 3.5156722,11.012562 4.6207441,8.7797184 C 5.2285334,7.5516544 5.7379231,6.5392397 5.7527213,6.5299072 5.7675194,6.520575 6.0622394,5.9369812 6.4076547,5.2330322 6.9613616,4.1045894 7.0547606,3.9336575 7.1968972,3.7886209 7.4148169,3.566255 7.5955881,3.5 7.984375,3.5 c 0.3966478,0 0.5678725,0.064864 0.8029872,0.3041925 0.162355,0.1652647 0.2290044,0.28615 0.8050106,1.4600897 0.3454003,0.7039491 0.6399942,1.2875428 0.6546522,1.296875 0.04183,0.026628 2.159346,4.3126938 2.208438,4.4700928 0.067,0.214823 0.05774,0.681111 -0.01752,0.882272 -0.0722,0.192968 -0.326957,0.463267 -0.507251,0.538194 -0.102655,0.04266 -0.56114,0.0482 -3.9374998,0.0476 -3.6399137,-6.53e-4 -3.82725,-0.0034 -3.9463172,-0.05804 z M 4.3862316,11.702579 4.5068381,11.5 l 3.4887685,7.44e-4 3.4887684,7.44e-4 0.138198,0.202769 0.138197,0.20277 0.07183,-0.06748 c 0.09997,-0.09392 0.145773,-0.254299 0.129311,-0.452797 C 11.94996,11.242595 11.825303,10.970919 11.106773,9.5230603 10.644142,8.5908459 10.255562,7.8205628 10.243263,7.8113203 10.230964,7.8020778 9.8272753,7.0002138 9.3461775,6.0294 8.8103731,4.9481928 8.4376334,4.2320172 8.3841647,4.1810053 8.177085,3.98344 7.8024053,3.9756338 7.6006038,4.1646797 7.5614047,4.2014009 7.13553,5.0261053 6.6542159,5.9973559 6.1729019,6.9686063 5.7688891,7.7708278 5.7564097,7.7800703 5.7439306,7.7893128 5.3556925,8.5591284 4.8936588,9.4907719 4.0150403,11.262415 3.9909719,11.322376 4.0443113,11.606699 c 0.01904,0.101494 0.15244,0.300279 0.200654,0.299005 0.011363,-3.12e-4 0.074933,-0.09171 0.1412663,-0.203125 z"
       id="path819"
       inkscape:connector-curvature="0" />
  </g>
</svg>
