<?xml version="1.0" encoding="UTF-8" standalone="no"?>
<!-- Created with Inkscape (http://www.inkscape.org/) -->

<svg
   xmlns:dc="http://purl.org/dc/elements/1.1/"
   xmlns:cc="http://creativecommons.org/ns#"
   xmlns:rdf="http://www.w3.org/1999/02/22-rdf-syntax-ns#"
   xmlns:svg="http://www.w3.org/2000/svg"
   xmlns="http://www.w3.org/2000/svg"
   xmlns:sodipodi="http://sodipodi.sourceforge.net/DTD/sodipodi-0.dtd"
   xmlns:inkscape="http://www.inkscape.org/namespaces/inkscape"
   version="1.1"
   id="svg2"
   width="16"
   height="16"
   viewBox="0 0 16 16"
   sodipodi:docname="MAKE_LOCAL.svg"
   inkscape:version="0.92.4 (5da689c313, 2019-01-14)">
  <metadata
     id="metadata8">
    <rdf:RDF>
      <cc:Work
         rdf:about="">
        <dc:format>image/svg+xml</dc:format>
        <dc:type
           rdf:resource="http://purl.org/dc/dcmitype/StillImage" />
        <dc:title></dc:title>
      </cc:Work>
    </rdf:RDF>
  </metadata>
  <defs
     id="defs6" />
  <sodipodi:namedview
     pagecolor="#ffffff"
     bordercolor="#666666"
     borderopacity="1"
     objecttolerance="10"
     gridtolerance="10"
     guidetolerance="10"
     inkscape:pageopacity="0"
     inkscape:pageshadow="2"
     inkscape:window-width="1296"
     inkscape:window-height="854"
     id="namedview4"
     showgrid="false"
     inkscape:zoom="14.75"
     inkscape:cx="8"
     inkscape:cy="8"
     inkscape:window-x="0"
     inkscape:window-y="0"
     inkscape:window-maximized="0"
     inkscape:current-layer="svg2" />
  <g
     id="g817">
    <path
       style="fill:#ffffff;stroke-width:0.03125"
       d="m 0.0014617,15.632813 0.0014617,-0.367188 0.06028655,0.154413 c 0.07168969,0.183621 0.30915167,0.439107 0.48366505,0.520377 l 0.125,0.05821 -0.3359375,6.87e-4 L 0,16 Z M 8.4375,15.950426 c 0.1761106,-0.07588 0.4297734,-0.348027 0.5004416,-0.536904 0.075264,-0.201161 0.084524,-0.66745 0.017521,-0.882272 C 8.9063706,14.373851 6.7888506,10.087785 6.7470253,10.061157 6.7323669,10.051825 6.4377731,9.4682312 6.0923728,8.7642822 5.5163666,7.5903425 5.4497172,7.4694572 5.2873622,7.3041925 5.0522475,7.0648644 4.8810228,7 4.484375,7 4.0955881,7 3.9148169,7.066255 3.6968972,7.2886209 3.5547606,7.4336575 3.4613616,7.6045894 2.9076547,8.7330322 2.5622393,9.4369813 2.2675571,10.020575 2.2528053,10.029907 2.2155195,10.053495 0.0960686,14.330376 0.04534935,14.484375 0.01104051,14.588547 0.00383266,13.392258 0.00209049,7.3046875 L 0,0 5.5859375,0.0014617 C 11.136805,0.00291423 11.170906,0.0033019 11.017462,0.06320995 10.932519,0.09637364 10.793882,0.19061662 10.70931,0.27268575 10.573211,0.40475797 10.482367,0.57052112 9.9175287,1.7174508 9.5666053,2.4300175 9.2674103,3.0206425 9.2526509,3.0299508 9.2378916,3.0392591 8.7285334,4.0516544 8.1207441,5.2797184 L 7.0156722,7.5125616 7.0045384,7.8632891 C 6.9902147,8.3145172 7.0395719,8.4773072 7.2626409,8.7145631 7.5558503,9.02642 7.1412725,8.9986275 11.5,8.9986275 c 3.668562,0 3.833335,-0.00243 3.953125,-0.058212 0.174513,-0.08127 0.411975,-0.3367566 0.483665,-0.5203769 0.06007,-0.1538525 0.06029,-0.1403687 0.06175,3.7127734 L 16,16 12.164063,15.9988 C 8.7170022,15.9977 8.3392131,15.9928 8.4375,15.95045 Z M 15.953161,7.5314128 C 15.930201,7.4268928 13.788822,3.0878583 13.74704,3.0612008 13.73245,3.0518908 13.433375,2.4612675 13.082426,1.7487008 12.495972,0.55796109 12.43065,0.43979309 12.275171,0.28836795 12.17639,0.19216295 12.041692,0.0985031 11.951439,0.06326715 L 11.796875,0.0029234 13.898438,0.0014617 16,0 v 3.8125 c 0,2.096875 -0.0059,3.8125 -0.01314,3.8125 -0.0072,0 -0.02239,-0.042114 -0.0337,-0.093587 z"
       id="path825"
       inkscape:connector-curvature="0" />
    <path
       style="fill:#cbfefe;stroke-width:0.03125"
       d="M 0.64464638,15.31158 C 0.60083369,15.259512 0.55568287,15.167315 0.54431125,15.106699 0.49097178,14.822376 0.51504031,14.762415 1.3936589,12.990772 1.8556926,12.059128 2.2439305,11.289313 2.2564097,11.28007 2.2688889,11.270828 2.6729017,10.468606 3.1542159,9.4973559 3.63553,8.5261053 4.0614047,7.7014009 4.1006038,7.6646797 4.1799656,7.5903341 4.31621,7.53125 4.4082844,7.53125 c 0.054525,0 0.060466,0.023518 0.060466,0.2393922 v 0.2393925 l -0.8610156,1.73717 C 3.1341756,10.702648 2.72382,11.519402 2.6958329,11.562213 2.6071752,11.69783 1.03125,14.881965 1.03125,14.92548 c 0,0.04911 -0.2561755,0.478479 -0.28628456,0.479838 -0.0113628,5.12e-4 -0.0565063,-0.04167 -0.10031906,-0.09374 z m 6.99999982,-7 C 7.6008338,8.2595116 7.5556828,8.1673153 7.5443112,8.1066994 7.4909719,7.8223756 7.5150403,7.7624153 8.3936588,5.9907719 8.8556925,5.0591284 9.2439306,4.2893128 9.2564097,4.2800703 9.2688891,4.2708278 9.6729019,3.4686063 10.154216,2.4973558 10.63553,1.5261053 11.061405,0.70140103 11.100604,0.66467956 11.179966,0.59033406 11.31621,0.53125 11.408284,0.53125 c 0.05453,0 0.06047,0.0235181 0.06047,0.23939228 V 1.0100346 l -0.86102,1.7371702 C 10.134176,3.7026484 9.72382,4.5194022 9.6958328,4.5622131 9.607175,4.69783 8.03125,7.8819653 8.03125,7.9254803 c 0,0.049107 -0.2561756,0.4784791 -0.2862847,0.4798375 -0.011362,5.125e-4 -0.056506,-0.041669 -0.1003191,-0.093738 z"
       id="path823"
       inkscape:connector-curvature="0" />
    <path
       style="fill:#98cbfe;stroke-width:0.03125"
       d="M 8.1225725,15.204257 7.984375,15.001488 4.5078125,15.000744 C 1.1408377,15.000023 1.03125,14.99817 1.03125,14.941934 c 0,-0.05468 1.5553748,-3.212669 1.6645829,-3.379721 0.027987,-0.04281 0.4383427,-0.859565 0.9119015,-1.8150083 L 4.46875,8.0100347 V 7.7706422 c 0,-0.2328116 0.00209,-0.2393922 0.076091,-0.2393922 0.1137131,0 0.2414431,0.056372 0.3393241,0.1497553 0.053469,0.051012 0.4262084,0.7671875 0.9620128,1.8483947 0.4810978,0.970814 0.8847863,1.772678 0.8970853,1.78192 0.012299,0.0092 0.4008788,0.779526 0.86351,1.71174 0.7185306,1.447859 0.8431875,1.719535 0.8551416,1.863686 0.016461,0.198498 -0.029341,0.35888 -0.1293113,0.452797 L 8.26077,15.407027 Z M 15.122573,8.2042572 14.984375,8.0014875 11.507813,8.0007438 C 8.1408378,8.0000234 8.03125,7.9981697 8.03125,7.9419337 8.03125,7.8872528 9.5866247,4.729265 9.6958328,4.5622131 9.72382,4.5194022 10.134176,3.7026484 10.607734,2.7472048 L 11.46875,1.0100346 V 0.77064228 c 0,-0.23281165 0.0021,-0.23939228 0.07609,-0.23939228 0.113713,0 0.241443,0.0563715 0.339324,0.14975519 0.05347,0.0510119 0.426208,0.76718761 0.962013,1.84839481 0.481097,0.9708138 0.884786,1.7726778 0.897085,1.7819203 0.0123,0.00924 0.400879,0.7795256 0.86351,1.71174 0.71853,1.4478591 0.843187,1.7195347 0.855141,1.8636856 0.01646,0.1984982 -0.02934,0.3588803 -0.129311,0.4527972 l -0.07183,0.067483 z"
       id="path821"
       inkscape:connector-curvature="0" />
    <path
       style="fill:#3232fe;stroke-width:0.03125"
       d="M 0.546875,15.941276 C 0.478125,15.909732 0.35021972,15.807712 0.26264106,15.714563 0.03957176,15.477307 -0.00978545,15.314517 0.00453847,14.863289 L 0.01567206,14.512562 1.1207439,12.279718 C 1.7285334,11.051654 2.2379232,10.03924 2.2527213,10.029907 2.2675193,10.020575 2.5622393,9.4369812 2.9076547,8.7330322 3.4613616,7.6045894 3.5547606,7.4336575 3.6968972,7.2886209 3.9148169,7.066255 4.0955881,7 4.484375,7 c 0.3966478,0 0.5678725,0.064864 0.8029872,0.3041925 0.162355,0.1652647 0.2290044,0.28615 0.8050106,1.4600897 0.3454003,0.7039491 0.6399941,1.2875428 0.6546525,1.2968748 0.041825,0.02663 2.1593453,4.312694 2.2084375,4.470093 0.067003,0.214823 0.057742,0.681111 -0.017521,0.882272 -0.072199,0.192968 -0.3269569,0.463267 -0.5072503,0.538194 -0.1026554,0.04266 -0.5611404,0.0482 -3.9375,0.0476 -3.63991393,-6.54e-4 -3.82725021,-0.0034 -3.9463165,-0.05804 z M 0.88623162,15.202579 1.0068382,15 l 3.4887684,7.44e-4 3.4887684,7.44e-4 0.1381975,0.202769 0.1381975,0.20277 0.071833,-0.06748 C 8.432573,15.245627 8.4783755,15.085248 8.4619143,14.88675 8.4499603,14.742595 8.3253034,14.470919 7.6067728,13.02306 7.1441416,12.090846 6.7555622,11.320563 6.7432628,11.31132 6.7309638,11.302078 6.3272753,10.500214 5.8461775,9.5294 5.3103731,8.4481928 4.9376334,7.7320172 4.8841647,7.6810053 4.677085,7.48344 4.3024053,7.4756337 4.1006038,7.6646797 4.0614047,7.7014009 3.63553,8.5261053 3.1542159,9.4973559 2.6729017,10.468606 2.2688889,11.270828 2.2564097,11.28007 c -0.012479,0.0092 -0.4007171,0.779058 -0.8627508,1.710702 -0.87861859,1.771643 -0.90268712,1.831604 -0.84934765,2.115927 0.0190403,0.101494 0.15243994,0.300279 0.20065419,0.299005 0.0113627,-3.12e-4 0.0749325,-0.09171 0.14126618,-0.203125 z M 7.546875,8.9412756 C 7.478125,8.9097322 7.3502197,8.8077116 7.2626409,8.7145631 7.0395719,8.4773072 6.9902147,8.3145172 7.0045384,7.8632891 L 7.0156722,7.5125616 8.1207441,5.2797184 C 8.7285334,4.0516544 9.2379231,3.0392396 9.2527213,3.0299073 9.2675194,3.0205751 9.5622394,2.4369814 9.9076547,1.7330323 10.461362,0.60458941 10.554761,0.43365756 10.696897,0.28862103 10.914817,0.06625503 11.095588,0 11.484375,0 c 0.396648,0 0.567873,0.06486429 0.802987,0.30419248 0.162355,0.16526465 0.229005,0.28614999 0.805011,1.46008982 0.3454,0.7039491 0.639994,1.2875428 0.654652,1.296875 0.04183,0.026628 2.159346,4.3126939 2.208438,4.4700927 0.067,0.2148225 0.05774,0.6811109 -0.01752,0.8822719 -0.0722,0.1929681 -0.326957,0.4632675 -0.507251,0.538194 -0.102655,0.042662 -0.56114,0.048204 -3.9375,0.047598 C 7.8532775,8.9986606 7.6659412,8.9959047 7.546875,8.9412756 Z M 7.8862316,8.2025791 8.0068381,8 l 3.4887689,7.438e-4 3.488768,7.437e-4 0.138198,0.2027697 0.138197,0.2027694 0.07183,-0.067483 C 15.43257,8.2456266 15.478373,8.0852446 15.461911,7.8867464 15.44996,7.742595 15.325303,7.4709194 14.606773,6.0230603 14.144142,5.0908459 13.755562,4.3205628 13.743263,4.3113203 13.730964,4.3020778 13.327275,3.5002138 12.846178,2.5294 12.310373,1.4481928 11.937633,0.73201709 11.884165,0.68100519 11.677085,0.48344013 11.302405,0.47563359 11.100604,0.66467956 11.061405,0.70140103 10.63553,1.5261053 10.154216,2.4973558 9.6729019,3.4686063 9.2688891,4.2708278 9.2564097,4.2800703 9.2439306,4.2893128 8.8556925,5.0591284 8.3936588,5.9907719 7.5150403,7.7624153 7.4909719,7.8223756 7.5443113,8.1066994 c 0.01904,0.1014934 0.15244,0.3002787 0.200654,0.2990047 0.011363,-3.125e-4 0.074933,-0.091707 0.1412663,-0.203125 z"
       id="path819"
       inkscape:connector-curvature="0" />
  </g>
</svg>
