<?xml version="1.0" encoding="UTF-8" standalone="no"?>
<!-- Created with Inkscape (http://www.inkscape.org/) -->

<svg
   xmlns:dc="http://purl.org/dc/elements/1.1/"
   xmlns:cc="http://creativecommons.org/ns#"
   xmlns:rdf="http://www.w3.org/1999/02/22-rdf-syntax-ns#"
   xmlns:svg="http://www.w3.org/2000/svg"
   xmlns="http://www.w3.org/2000/svg"
   xmlns:sodipodi="http://sodipodi.sourceforge.net/DTD/sodipodi-0.dtd"
   xmlns:inkscape="http://www.inkscape.org/namespaces/inkscape"
   version="1.1"
   id="svg2"
   width="16"
   height="16"
   viewBox="0 0 16 16"
   sodipodi:docname="MAKE_PROXY.svg"
   inkscape:version="0.92.4 (5da689c313, 2019-01-14)">
  <metadata
     id="metadata8">
    <rdf:RDF>
      <cc:Work
         rdf:about="">
        <dc:format>image/svg+xml</dc:format>
        <dc:type
           rdf:resource="http://purl.org/dc/dcmitype/StillImage" />
        <dc:title></dc:title>
      </cc:Work>
    </rdf:RDF>
  </metadata>
  <defs
     id="defs6" />
  <sodipodi:namedview
     pagecolor="#ffffff"
     bordercolor="#666666"
     borderopacity="1"
     objecttolerance="10"
     gridtolerance="10"
     guidetolerance="10"
     inkscape:pageopacity="0"
     inkscape:pageshadow="2"
     inkscape:window-width="1187"
     inkscape:window-height="785"
     id="namedview4"
     showgrid="false"
     inkscape:zoom="14.75"
     inkscape:cx="8"
     inkscape:cy="8"
     inkscape:window-x="0"
     inkscape:window-y="0"
     inkscape:window-maximized="0"
     inkscape:current-layer="svg2" />
  <g
     id="MAKE_PROXY">
    <path
       style="fill:#ffffff;stroke-width:0.03125"
       d="m 0.0014617,15.632813 0.0014617,-0.367188 0.06028655,0.154413 c 0.07168969,0.183621 0.30915167,0.439107 0.48366505,0.520377 l 0.125,0.05821 -0.3359375,6.87e-4 L 0,16 Z M 8.4375,15.950426 c 0.1761106,-0.07588 0.4297734,-0.348027 0.5004416,-0.536904 0.074832,-0.200008 0.084577,-0.665238 0.018494,-0.882928 -0.023588,-0.0777 -0.3550769,-0.765532 -0.7366412,-1.528506 L 7.5260406,11.614861 8.8331934,10.307431 10.140346,9 l 2.59389,-6.875e-4 c 2.46382,-6.531e-4 2.600157,-0.00361 2.718889,-0.058898 0.174513,-0.08127 0.411975,-0.3367566 0.483665,-0.5203769 0.06007,-0.1538525 0.06029,-0.1403688 0.06175,3.7127734 L 16,16 12.164063,15.9988 C 8.7170022,15.9977 8.3392131,15.9928 8.4375,15.95045 Z M 0.00209049,7.3046875 0,0 5.5859375,0.0014617 C 11.136805,0.00291423 11.170906,0.0033019 11.017462,0.06320995 10.932519,0.09637364 10.793882,0.19061662 10.70931,0.27268575 10.573211,0.40475797 10.482367,0.57052112 9.9175287,1.7174508 9.5666053,2.4300175 9.2674103,3.0206425 9.2526509,3.0299508 9.2378916,3.0392591 8.7308781,4.0469175 8.1259544,5.2691919 7.1371522,7.2671091 7.0243684,7.5105291 7.0090131,7.6798725 L 6.9919328,7.8682362 6.5393466,8.3169306 C 6.2904241,8.5637125 6.0812516,8.7515625 6.0745187,8.734375 6.0677859,8.7171875 5.9279769,8.4289063 5.7638322,8.09375 5.5105462,7.5765825 5.4385259,7.4571106 5.2878694,7.3041925 5.0520719,7.0648553 4.8807631,7 4.484375,7 4.0955881,7 3.9148169,7.066255 3.6968972,7.2886209 3.5547606,7.4336575 3.4613616,7.6045894 2.9076547,8.7330322 2.5622393,9.4369813 2.2675571,10.020575 2.2528053,10.029907 2.2155195,10.053495 0.0960686,14.330376 0.04534935,14.484375 0.01104051,14.588547 0.00383266,13.392258 0.00209049,7.3046875 Z M 15.953161,7.5314128 C 15.930201,7.4268928 13.788822,3.0878583 13.74704,3.0612008 13.73245,3.0518908 13.433375,2.4612675 13.082426,1.7487008 12.495972,0.55796109 12.43065,0.43979309 12.275171,0.28836795 12.17639,0.19216295 12.041692,0.0985031 11.951439,0.06326715 L 11.796875,0.0029234 13.898438,0.0014617 16,0 v 3.8125 c 0,2.096875 -0.0059,3.8125 -0.01314,3.8125 -0.0072,0 -0.02239,-0.042114 -0.0337,-0.093587 z"
       id="path855"
       inkscape:connector-curvature="0" />
    <path
       style="fill:#fefefe;stroke-width:0.03125"
       d="M 4.0039434,13.951165 C 3.7425134,13.86212 3.5727928,13.753704 3.3876675,13.557494 3.1977047,13.356157 3.1363353,13.253833 3.0483551,12.991745 2.9028977,12.558435 2.9711243,12.027726 3.2174972,11.676053 3.323915,11.524152 10.532763,4.3208225 10.674621,4.2246375 c 0.05307,-0.035985 0.203208,-0.1012497 0.333634,-0.1450325 0.562501,-0.188825 1.165319,-0.037759 1.572827,0.3941506 0.189963,0.2013378 0.251333,0.3036616 0.339313,0.5657497 0.108444,0.32305 0.108444,0.6291894 0,0.9522394 -0.04378,0.1304266 -0.109048,0.2805622 -0.145032,0.3336347 -0.09619,0.1418581 -7.2995152,7.3507056 -7.4514164,7.4571236 -0.3513138,0.246121 -0.8903697,0.314999 -1.3200032,0.168662 z M 4.8310453,13.468088 C 5.0116641,13.406281 5.0945813,13.325985 8.6949391,9.7263234 12.315562,6.1064009 12.375256,6.0447512 12.437127,5.8615428 12.570507,5.4665812 12.486683,5.0992322 12.196159,4.80553 11.907951,4.51417 11.535619,4.42875 11.138457,4.5628734 10.955249,4.6247441 10.893599,4.6844381 7.2736766,8.3050609 3.6740153,11.905419 3.5937188,11.988336 3.5319122,12.168955 c -0.1350766,0.394736 -0.049062,0.770134 0.2425897,1.058742 0.2929719,0.289915 0.6646731,0.374487 1.0565434,0.240391 z"
       id="path853"
       inkscape:connector-curvature="0" />
    <path
       style="fill:#cbfefe;stroke-width:0.03125"
       d="M 8.5756706,5.625 C 8.9288091,4.9117188 9.2335234,4.3095419 9.2528134,4.2868291 9.2721038,4.2641166 9.6797122,3.4548638 10.15861,2.4884896 10.637507,1.5221155 11.061405,0.70140103 11.100604,0.66467956 11.179966,0.59033406 11.31621,0.53125 11.408284,0.53125 c 0.05453,0 0.06047,0.0235215 0.06047,0.23969506 V 1.0106402 L 10.570313,2.8096628 C 10.076172,3.7991253 9.5361697,4.8760281 9.3703075,5.2027803 L 9.06874,5.796875 l -0.5675697,0.5625 -0.5675697,0.5625 z"
       id="path851"
       inkscape:connector-curvature="0" />
    <path
       style="fill:#98cbfe;stroke-width:0.03125"
       d="M 15.122573,8.2042572 14.984375,8.0014875 13.06273,8.0007438 11.141085,8 11.925436,7.2109375 C 12.356828,6.7769531 12.739262,6.3784519 12.775288,6.3253794 12.811314,6.2723069 12.876612,6.1221712 12.920395,5.9917447 13.10922,5.4292441 12.958154,4.8264259 12.526244,4.4189175 12.324907,4.2289547 12.222583,4.1675853 11.960495,4.079605 11.788626,4.0219109 11.657577,4 11.484375,4 11.224593,4 10.854246,4.1027762 10.674621,4.2247175 10.621548,4.2607469 10.243371,4.62219 9.8342278,5.027925 l -0.7438972,0.7377 0.2766207,-0.5625 C 9.5190925,4.89375 9.6667797,4.6054687 9.695145,4.5625 9.7235106,4.5195312 10.134176,3.7026484 10.607734,2.7472048 L 11.46875,1.0100346 V 0.77064228 c 0,-0.23281165 0.0021,-0.23939228 0.07609,-0.23939228 0.113713,0 0.241443,0.0563715 0.339324,0.14975519 0.05347,0.0510119 0.426208,0.76718761 0.962013,1.84839481 0.481097,0.9708138 0.884786,1.7726778 0.897085,1.7819203 0.0123,0.00924 0.400879,0.7795256 0.86351,1.71174 0.71853,1.4478591 0.843187,1.7195347 0.855141,1.8636856 0.01646,0.1984982 -0.02934,0.3588803 -0.129311,0.4527972 l -0.07183,0.067483 z"
       id="path849"
       inkscape:connector-curvature="0" />
    <path
       style="fill:#fefe00;stroke-width:0.03125"
       d="M 0.64464638,15.31158 C 0.60083369,15.259512 0.55568287,15.167315 0.54431125,15.106699 0.49097178,14.822376 0.51504031,14.762415 1.3936589,12.990772 1.8556926,12.059128 2.2439305,11.289313 2.2564097,11.28007 2.2688889,11.270828 2.6729017,10.468606 3.1542159,9.4973559 3.63553,8.5261053 4.0614047,7.7014009 4.1006038,7.6646797 4.1799656,7.5903341 4.31621,7.53125 4.4082844,7.53125 c 0.054525,0 0.060466,0.023518 0.060466,0.2393922 v 0.2393925 l -0.8610156,1.73717 C 3.1341756,10.702648 2.72382,11.519402 2.6958329,11.562213 2.6071752,11.69783 1.03125,14.881965 1.03125,14.92548 c 0,0.04911 -0.2561755,0.478479 -0.28628456,0.479838 -0.0113628,5.12e-4 -0.0565063,-0.04167 -0.10031906,-0.09374 z"
       id="path847"
       inkscape:connector-curvature="0" />
    <path
       style="fill:#fe9832;stroke-width:0.03125"
       d="M 8.1225725,15.204257 7.984375,15.001488 4.5078125,15.000744 C 1.1408377,15.000023 1.03125,14.99817 1.03125,14.941934 c 0,-0.05468 1.5553748,-3.212669 1.6645829,-3.379721 0.027987,-0.04281 0.4383427,-0.859565 0.9119015,-1.8150083 L 4.46875,8.0100347 V 7.7706422 c 0,-0.2328116 0.00209,-0.2393922 0.076091,-0.2393922 0.1177425,0 0.2426697,0.057302 0.3494703,0.1602972 0.061646,0.059449 0.2217553,0.3519869 0.4358897,0.7964187 L 5.6686547,9.1904206 4.4637766,10.399898 C 3.8010938,11.06511 3.2294375,11.652798 3.1934294,11.705871 3.0714987,11.885585 2.96875,12.255896 2.96875,12.515625 c 0,0.260288 0.1030402,0.63098 0.2250853,0.809754 0.4088225,0.598855 1.1089613,0.847048 1.7666594,0.626266 0.1304265,-0.04378 0.2805622,-0.109077 0.3336347,-0.145098 0.053072,-0.03602 0.4836187,-0.450511 0.9567693,-0.921088 l 0.8602735,-0.855594 0.6683575,1.343864 c 0.566289,1.138635 0.6704969,1.369665 0.6823681,1.512815 0.016477,0.198687 -0.029295,0.359054 -0.1292947,0.452999 l -0.071833,0.06748 z"
       id="path845"
       inkscape:connector-curvature="0" />
    <path
       style="fill:#3232fe;stroke-width:0.03125"
       d="m 10.640625,8.5 0.499268,-0.5 1.922241,7.438e-4 1.922241,7.437e-4 0.138198,0.2027697 0.138197,0.2027694 0.07183,-0.067483 C 15.43257,8.2456266 15.478373,8.0852446 15.461911,7.8867464 15.44996,7.742595 15.325303,7.4709194 14.606773,6.0230603 14.144142,5.0908459 13.755562,4.3205628 13.743263,4.3113203 13.730964,4.3020778 13.327275,3.5002138 12.846178,2.5294 12.310373,1.4481928 11.937633,0.73201709 11.884165,0.68100519 11.677085,0.48344013 11.302405,0.47563359 11.100604,0.66467956 11.061405,0.70140103 10.637507,1.5221155 10.15861,2.4884896 9.6797122,3.4548638 9.2721163,4.2641166 9.2528413,4.2868291 9.2335663,4.3095419 8.9240981,4.91875 8.5651341,5.640625 L 7.9124725,6.953125 7.4526584,7.40625 6.9928444,7.859375 7.0104272,7.6735056 C 7.0260606,7.5082466 7.1498641,7.2414253 8.1269131,5.2672556 8.7313097,4.0460463 9.2379231,3.0392396 9.2527213,3.0299073 9.2675194,3.0205751 9.5622394,2.4369814 9.9076547,1.7330323 10.461362,0.60458941 10.554761,0.43365756 10.696897,0.28862103 10.914817,0.06625503 11.095588,0 11.484375,0 c 0.396648,0 0.567873,0.06486429 0.802987,0.30419248 0.162355,0.16526465 0.229005,0.28614999 0.805011,1.46008982 0.3454,0.7039491 0.639994,1.2875428 0.654652,1.296875 0.04183,0.026628 2.159346,4.3126939 2.208438,4.4700927 0.02414,0.077407 0.04401,0.270045 0.0442,0.4285153 C 16.00011,8.3407863 15.932773,8.5233534 15.71138,8.74141 15.429313,9.0192203 15.651063,9 12.727933,9 h -2.586575 z"
       id="path843"
       inkscape:connector-curvature="0" />
    <path
       style="fill:#00fe00;stroke-width:0.03125"
       d="M 4.328125,12.993696 C 4.0829547,12.908392 3.9264838,12.618429 3.9999263,12.385497 4.0306953,12.287909 4.7061556,11.59658 7.6333753,8.6666847 10.799166,5.4980003 11.244647,5.0633716 11.359672,5.0311669 11.716249,4.9313312 12.069018,5.2825022 11.969437,5.6381703 11.936431,5.7560566 11.528074,6.1747287 8.3333153,9.3661387 5.6827912,12.013884 4.7063816,12.970522 4.6281494,12.996278 4.5023803,13.037684 4.453335,13.037262 4.328125,12.993697 Z"
       id="path841"
       inkscape:connector-curvature="0" />
    <path
       style="fill:#009800;stroke-width:0.03125"
       d="M 4.1252219,13.46579 C 3.8771472,13.377785 3.6164934,13.112856 3.5320925,12.862932 3.4517434,12.625005 3.4516859,12.403401 3.531905,12.168955 3.5937116,11.988336 3.6740081,11.905419 7.2736694,8.3050609 10.893592,4.6844381 10.955242,4.6247441 11.13845,4.5628734 11.535612,4.42875 11.907944,4.51417 12.196152,4.80553 12.486676,5.0992322 12.5705,5.4665812 12.437119,5.8615428 12.375249,6.0447512 12.315555,6.1064009 8.6949319,9.7263234 5.0945741,13.325985 5.0116569,13.406281 4.8310381,13.468088 4.6014253,13.54666 4.35088,13.545844 4.1252147,13.465791 Z m 0.5029275,-0.469512 c 0.078232,-0.02576 1.0546418,-0.982394 3.7051659,-3.6301393 3.1947587,-3.19141 3.6031157,-3.6100821 3.6361217,-3.7279684 0.09958,-0.3556681 -0.253188,-0.7068391 -0.609765,-0.6070034 -0.115024,0.032205 -0.560506,0.4668334 -3.7262967,3.6355178 -2.9272197,2.9298953 -3.60268,3.6212243 -3.633449,3.7188123 -0.073442,0.232932 0.083028,0.522895 0.3281987,0.608199 0.12521,0.04357 0.1742553,0.04399 0.3000244,0.0026 z"
       id="path839"
       inkscape:connector-curvature="0" />
    <path
       style="fill:#653200;stroke-width:0.03125"
       d="M 0.546875,15.941276 C 0.478125,15.909732 0.35021972,15.807712 0.26264106,15.714563 0.03957176,15.477307 -0.00978545,15.314517 0.00453847,14.863289 L 0.01567206,14.512562 1.1207439,12.279718 C 1.7285334,11.051654 2.2379232,10.03924 2.2527213,10.029907 2.2675193,10.020575 2.5622393,9.4369812 2.9076547,8.7330322 3.4613616,7.6045894 3.5547606,7.4336575 3.6968972,7.2886209 3.9148169,7.066255 4.0955881,7 4.484375,7 4.8806641,7 5.0520053,7.0648519 5.2880625,7.3041925 5.4405037,7.4587541 5.5102737,7.5754687 5.7787284,8.125 L 6.0916837,8.765625 5.8817794,8.9779822 5.671875,9.1903394 5.3246719,8.4779822 C 4.9058662,7.6187181 4.8282316,7.53125 4.484375,7.53125 4.3208353,7.53125 4.1971209,7.5742631 4.1006038,7.6646797 4.0614047,7.7014009 3.63553,8.5261053 3.1542159,9.4973559 2.6729017,10.468606 2.2688889,11.270828 2.2564097,11.28007 c -0.012479,0.0092 -0.4013832,0.780399 -0.8642311,1.713681 -0.75687729,1.52616 -0.84287069,1.71525 -0.85475157,1.879501 -0.0156181,0.215919 0.0290149,0.371449 0.13523166,0.471234 0.0424022,0.03984 0.0819096,0.06651 0.0877942,0.05928 0.005885,-0.0072 0.0641889,-0.101035 0.12956497,-0.208457 L 1.0088835,15 l 3.4877459,7.44e-4 3.4877456,7.43e-4 0.1381975,0.20277 0.1381975,0.20277 0.071833,-0.06748 C 8.432602,15.245597 8.4783743,15.085235 8.4618977,14.886548 8.4500267,14.743399 8.3458218,14.512375 7.7795571,13.373788 L 7.1112274,12.02998 7.3186843,11.822523 7.5261411,11.615066 8.2198443,13.002192 c 0.3815365,0.762919 0.7130025,1.450702 0.7365909,1.528406 0.023588,0.0777 0.04304,0.270832 0.043227,0.429171 4.469e-4,0.381021 -0.066886,0.563588 -0.2882828,0.781645 -0.2861063,0.28179 0.091905,0.258678 -4.2181878,0.257904 -3.63991393,-6.54e-4 -3.82725021,-0.0034 -3.9463163,-0.05804 z"
       id="path837"
       inkscape:connector-curvature="0" />
  </g>
</svg>
