<?xml version="1.0" encoding="UTF-8" standalone="no"?>
<!-- Created with Inkscape (http://www.inkscape.org/) -->

<svg
   xmlns:dc="http://purl.org/dc/elements/1.1/"
   xmlns:cc="http://creativecommons.org/ns#"
   xmlns:rdf="http://www.w3.org/1999/02/22-rdf-syntax-ns#"
   xmlns:svg="http://www.w3.org/2000/svg"
   xmlns="http://www.w3.org/2000/svg"
   xmlns:sodipodi="http://sodipodi.sourceforge.net/DTD/sodipodi-0.dtd"
   xmlns:inkscape="http://www.inkscape.org/namespaces/inkscape"
   version="1.1"
   id="svg2"
   width="16"
   height="16"
   viewBox="0 0 16 16"
   sodipodi:docname="PARENT_CLEAR.svg"
   inkscape:version="0.92.4 (5da689c313, 2019-01-14)">
  <metadata
     id="metadata8">
    <rdf:RDF>
      <cc:Work
         rdf:about="">
        <dc:format>image/svg+xml</dc:format>
        <dc:type
           rdf:resource="http://purl.org/dc/dcmitype/StillImage" />
        <dc:title></dc:title>
      </cc:Work>
    </rdf:RDF>
  </metadata>
  <defs
     id="defs6" />
  <sodipodi:namedview
     pagecolor="#ffffff"
     bordercolor="#666666"
     borderopacity="1"
     objecttolerance="10"
     gridtolerance="10"
     guidetolerance="10"
     inkscape:pageopacity="0"
     inkscape:pageshadow="2"
     inkscape:window-width="811"
     inkscape:window-height="636"
     id="namedview4"
     showgrid="false"
     inkscape:zoom="14.75"
     inkscape:cx="8"
     inkscape:cy="8"
     inkscape:window-x="0"
     inkscape:window-y="0"
     inkscape:window-maximized="0"
     inkscape:current-layer="svg2" />
  <g
     id="PARENT_CLEAR">
    <path
       style="fill:#ffffff;stroke-width:0.03125"
       d="M 0.0014617,12.132813 C 0.0029181,8.2796697 0.00314235,8.2661859 0.06320995,8.4200384 0.13489964,8.6036588 0.37236162,8.859145 0.546875,8.9404153 c 0.11774819,0.054835 0.24010966,0.058252 2.1091539,0.058898 L 4.6401828,9 3.8199038,9.8207172 C 2.8910549,10.750063 2.875,10.773551 2.875,11.203125 c 0,0.418741 0.032643,0.4695 0.7888447,1.226609 0.7557975,0.756704 0.8060703,0.789016 1.2276175,0.789016 0.4472372,0 0.4011019,0.03525 1.8502228,-1.413558 l 1.2891191,-1.288839 0.3127228,0.31155 c 0.1719978,0.171352 0.3128644,0.325876 0.3130369,0.343386 1.874e-4,0.01751 -0.3689238,0.7754 -0.8202144,1.684201 l -0.8205278,1.652365 -0.011208,0.353081 c -0.014406,0.453814 0.034622,0.616013 0.2580278,0.853627 0.087579,0.09315 0.2154841,0.195169 0.2842341,0.226713 0.1220697,0.05601 0.035077,0.05737 -3.7109375,0.05804 L 0,16 Z m 15.4516633,3.807602 c 0.174513,-0.08127 0.411975,-0.336756 0.483665,-0.520377 l 0.06029,-0.154413 0.0015,0.367188 L 16,16 l -0.335937,-6.87e-4 -0.335938,-6.88e-4 z m 0.500036,-1.409002 C 15.930179,14.426779 13.788798,10.087842 13.74697,10.061157 13.732342,10.051825 13.437773,9.4682313 13.092373,8.7642822 12.516367,7.5903425 12.449717,7.4694572 12.287362,7.3041925 12.095863,7.1092622 11.871647,7 11.663129,7 H 11.547353 L 12.305125,6.2417547 C 13.164442,5.3819 13.1875,5.3474316 13.1875,4.9227122 13.1875,4.501165 13.15519,4.4508922 12.398484,3.6950947 11.641375,2.9388933 11.590616,2.90625 11.171875,2.90625 10.723689,2.90625 10.770203,2.8707358 9.3218238,4.3188 8.6133628,5.0271066 8.0272897,5.6002062 8.0194388,5.5923553 8.0115878,5.5845044 7.7293256,5.0161378 7.3921897,4.3293184 7.0550534,3.6424991 6.7660072,3.0723929 6.7498644,3.0624162 6.7337216,3.0524394 6.4333747,2.4612675 6.0824262,1.7487008 5.4959719,0.55796109 5.43065,0.43979309 5.2751709,0.28836795 5.1763903,0.19216295 5.0416922,0.0985031 4.9514391,0.06326715 4.7977972,0.00328348 4.8303,0.00291468 10.398438,0.0014617 L 16,0 v 7.3125 c 0,4.021875 -0.0059,7.3125 -0.01314,7.3125 -0.0072,0 -0.02239,-0.04211 -0.0337,-0.09359 z M 0.00209049,3.8046875 0,0 2.0859375,0.0014617 4.171875,0.0029234 4.0174616,0.06320995 C 3.9325188,0.09637364 3.7938816,0.19061662 3.70931,0.27268575 3.5732106,0.40475797 3.4823666,0.57052112 2.9175288,1.7174508 2.5666053,2.4300175 2.267448,3.0206425 2.2527349,3.0299508 2.2154959,3.0535102 0.09600739,7.3305612 0.04534935,7.484375 0.01080999,7.5892472 0.00384437,6.9967375 0.00209049,3.8046875 Z"
       id="path831"
       inkscape:connector-curvature="0" />
    <path
       style="fill:#fefefe;stroke-width:0.03125"
       d="M 4.4848928,13.155039 C 4.3568325,13.105053 4.2109769,12.97621 3.6640494,12.429939 2.907308,11.674104 2.875,11.623838 2.875,11.202288 2.875,10.755045 2.839728,10.801211 4.2887813,9.3518422 L 5.5778425,8.0625 4.2887813,6.7731578 C 2.8393477,5.3234087 2.875,5.3700937 2.875,4.921875 2.875,4.5031337 2.9076433,4.4523753 3.6638447,3.6952663 4.4196422,2.9385615 4.469915,2.90625 4.8914622,2.90625 c 0.4472431,0 0.4010769,-0.035272 1.8504456,1.4137812 L 8.03125,5.6090925 9.3205922,4.3200313 C 10.769961,2.870978 10.723795,2.90625 11.171038,2.90625 c 0.421547,0 0.47182,0.032312 1.227617,0.7890163 0.756202,0.757109 0.788845,0.8078674 0.788845,1.2266087 0,0.4482187 0.03565,0.4015338 -1.413781,1.8512828 L 10.484658,8.0625 11.773719,9.3518422 c 1.449053,1.4493688 1.413781,1.4032028 1.413781,1.8504458 0,0.421547 -0.03231,0.47182 -0.789016,1.227617 -0.757109,0.756202 -0.807868,0.788845 -1.226609,0.788845 -0.448219,0 -0.401534,0.03565 -1.8512828,-1.413781 L 8.03125,10.515908 6.7419078,11.804969 c -1.1446669,1.144418 -1.3077575,1.296059 -1.45346,1.351421 -0.2192881,0.08332 -0.5882166,0.0827 -0.803555,-0.0014 z M 5.0839031,12.6854 C 5.1322881,12.66706 5.8064897,12.020182 6.5821297,11.2479 7.35777,10.475618 8.0096003,9.84375 8.0306416,9.84375 c 0.021042,0 0.6731456,0.631825 1.4491203,1.404055 0.7759751,0.77223 1.4504501,1.419105 1.4988351,1.4375 0.111753,0.04249 0.273533,0.04277 0.386556,6.87e-4 0.117148,-0.04362 1.222956,-1.142749 1.278652,-1.270925 0.05209,-0.119885 0.05628,-0.284039 0.01034,-0.405219 -0.01834,-0.04838 -0.665218,-0.722586 -1.4375,-1.4982264 C 10.444368,8.73598 9.8125,8.0838759 9.8125,8.0625 c 0,-0.021376 0.631868,-0.67348 1.40415,-1.4491203 0.772282,-0.77564 1.419157,-1.4498419 1.4375,-1.4982266 0.04594,-0.1211797 0.04175,-0.2853334 -0.01034,-0.4052194 -0.0557,-0.1281753 -1.161504,-1.2273012 -1.278652,-1.2709246 -0.113023,-0.042087 -0.274803,-0.0418 -0.386556,6.875e-4 -0.04839,0.018395 -0.72286,0.66527 -1.4988351,1.4375 C 8.7037872,5.6494253 8.0516831,6.28125 8.0306416,6.28125 8.0096003,6.28125 7.35777,5.6493825 6.5821297,4.8771 5.8064897,4.1048178 5.1322878,3.4579428 5.0839031,3.4396 4.9720637,3.3972019 4.8102816,3.3969544 4.6973469,3.4390094 4.5801991,3.4826328 3.4743909,4.5817588 3.4186953,4.7099341 3.3666019,4.82982 3.3624109,4.9939738 3.40835,5.1151534 3.4266928,5.1635381 4.0735678,5.83774 4.84585,6.61338 5.6181325,7.3890203 6.25,8.0408506 6.25,8.0618919 c 0,0.021041 -0.6318247,0.6731456 -1.4040547,1.4491203 -0.77223,0.7759748 -1.419105,1.4504508 -1.4375,1.4988348 -0.042487,0.111753 -0.042774,0.273533 -6.875e-4,0.386556 0.041643,0.11183 1.1388928,1.220597 1.2641159,1.277385 0.1138782,0.05164 0.2931075,0.05669 0.4120282,0.01161 z"
       id="path829"
       inkscape:connector-curvature="0" />
    <path
       style="fill:#cbfefe;stroke-width:0.03125"
       d="m 7.6446462,15.31158 c -0.043812,-0.05207 -0.088963,-0.144265 -0.100335,-0.204881 -0.053464,-0.284986 -0.026542,-0.353025 0.7814463,-1.974882 l 0.7718138,-1.549246 0.1925312,0.192531 0.1925316,0.192532 -0.7264838,1.461495 c -0.3995662,0.803823 -0.7261275,1.478701 -0.7256922,1.49973 9.532e-4,0.04608 -0.2561353,0.475134 -0.2854928,0.476459 -0.011362,5.12e-4 -0.056506,-0.04167 -0.1003191,-0.09374 z m 3.2774998,-6.8113056 -0.185272,-0.187226 0.13828,-0.2821128 c 0.145815,-0.2974859 0.24011,-0.4118203 0.384693,-0.4664475 0.192643,-0.072786 0.208903,-0.05709 0.208903,0.2016575 0,0.2223913 -0.0092,0.2531669 -0.172136,0.578125 C 11.201939,8.5330469 11.12064,8.6875 11.115948,8.6875 c -0.0047,0 -0.0919,-0.084252 -0.193802,-0.1872256 z M 0.64464638,8.31158 C 0.60083369,8.2595116 0.55568287,8.1673153 0.54431125,8.1066994 0.49097178,7.8223756 0.51504031,7.7624153 1.3936589,5.9907719 1.8556926,5.0591284 2.2439305,4.2893128 2.2564097,4.2800703 2.2688889,4.2708278 2.6729017,3.4686063 3.1542159,2.4973558 3.63553,1.5261053 4.0614047,0.70140103 4.1006038,0.66467956 4.1799656,0.59033406 4.31621,0.53125 4.4082844,0.53125 c 0.054525,0 0.060466,0.0235181 0.060466,0.23939228 V 1.0100346 L 3.6077344,2.7472048 C 3.1341756,3.7026484 2.72382,4.5194022 2.6958329,4.5622131 2.6071752,4.69783 1.03125,7.8819653 1.03125,7.9254803 c 0,0.049107 -0.2561755,0.4784791 -0.28628456,0.4798375 -0.0113628,5.125e-4 -0.0565063,-0.041669 -0.10031906,-0.093738 z"
       id="path827"
       inkscape:connector-curvature="0" />
    <path
       style="fill:#98cbfe;stroke-width:0.03125"
       d="m 15.122573,15.204257 -0.138198,-0.202769 -3.476562,-7.44e-4 c -3.2895899,-7.03e-4 -3.4766055,-0.0037 -3.4773549,-0.05543 -4.343e-4,-0.03008 0.3261266,-0.712362 0.7256931,-1.516186 l 0.726485,-1.461497 0.5639218,0.563303 c 0.645488,0.644781 0.715898,0.687817 1.125317,0.687817 0.418741,0 0.4695,-0.03264 1.226609,-0.788845 0.756704,-0.755797 0.789016,-0.80607 0.789016,-1.227617 0,-0.436277 6.3e-5,-0.43618 -1.096305,-1.5329689 l -0.971638,-0.972006 0.174596,-0.3481359 c 0.1656,-0.3301975 0.174597,-0.3602397 0.174597,-0.5830316 0,-0.2280472 0.0022,-0.2348956 0.07609,-0.2348956 0.113713,0 0.241443,0.056372 0.339324,0.1497553 0.05347,0.051012 0.426208,0.7671875 0.962013,1.8483947 0.481097,0.970814 0.884786,1.772678 0.897085,1.78192 0.0123,0.0092 0.400879,0.779526 0.86351,1.71174 0.71853,1.447859 0.843187,1.719535 0.855141,1.863686 0.01646,0.198498 -0.02934,0.35888 -0.129311,0.452797 l -0.07183,0.06748 z M 1.03125,7.9419337 c 0,-0.054681 1.5553748,-3.2126687 1.6645829,-3.3797206 C 2.72382,4.5194022 3.1341756,3.7026484 3.6077344,2.7472048 L 4.46875,1.0100346 V 0.77064228 C 4.46875,0.53531409 4.47009,0.53125 4.547879,0.53125 c 0.117006,0 0.2693919,0.0740852 0.3616832,0.17583872 0.04479,0.0493825 0.4707134,0.87728628 0.9464959,1.83978628 l 0.8650588,1.75 -0.634501,-0.6330381 C 5.3632981,2.9421866 5.3065656,2.90625 4.890625,2.90625 4.4718837,2.90625 4.4211253,2.9388933 3.6640163,3.6950947 2.9073115,4.4508922 2.875,4.501165 2.875,4.9227122 c 0,0.4463772 -0.031775,0.4045662 1.3825256,1.8191903 L 5.5153356,8 H 3.2732928 C 1.1091492,8 1.03125,7.9979825 1.03125,7.9419337 Z"
       id="path825"
       inkscape:connector-curvature="0" />
    <path
       style="fill:#3232fe;stroke-width:0.03125"
       d="M 7.546875,15.941276 C 7.478125,15.909732 7.3502197,15.807712 7.2626409,15.714563 7.0392828,15.477 6.9902081,15.314717 7.0046025,14.861268 l 0.011198,-0.352748 0.8280375,-1.673529 0.8280372,-1.673528 0.2128625,0.210525 0.2128622,0.210525 -0.7733575,1.552345 C 7.626725,14.53497 7.5495769,14.705281 7.5375509,14.87154 c -0.015735,0.217538 0.02866,0.372944 0.1351079,0.472946 0.042402,0.03984 0.081909,0.06651 0.087794,0.05928 0.00588,-0.0072 0.064189,-0.101035 0.129565,-0.208457 L 8.0088834,15 l 3.4877456,7.44e-4 3.487746,7.43e-4 0.138198,0.20277 0.138197,0.20277 0.07183,-0.06748 c 0.09997,-0.09392 0.145773,-0.254299 0.129311,-0.452797 -0.01195,-0.144151 -0.136611,-0.415827 -0.855141,-1.863686 -0.462631,-0.932214 -0.851211,-1.702497 -0.86351,-1.71174 -0.0123,-0.0092 -0.415988,-0.811106 -0.897085,-1.78192 C 12.310373,8.4481928 11.937633,7.7320172 11.884165,7.6810053 11.77245,7.5744237 11.656317,7.53125 11.481337,7.53125 c -0.167004,0 -0.316292,0.058599 -0.407709,0.160035 -0.03685,0.040887 -0.128575,0.1977356 -0.203838,0.3485525 L 10.732948,8.31405 10.609575,8.187705 10.486203,8.0613603 11.016194,7.53068 C 11.512385,7.0338447 11.553607,7 11.662546,7 c 0.209082,0 0.433143,0.1090841 0.624816,0.3041925 0.162355,0.1652647 0.229005,0.28615 0.805011,1.4600897 0.3454,0.7039491 0.639994,1.2875428 0.654652,1.2968748 0.04183,0.02663 2.159346,4.312694 2.208438,4.470093 0.067,0.214823 0.05774,0.681111 -0.01752,0.882272 -0.0722,0.192968 -0.326957,0.463267 -0.507251,0.538194 -0.102655,0.04266 -0.56114,0.0482 -3.9375,0.0476 -3.6399135,-6.53e-4 -3.8272498,-0.0034 -3.946316,-0.05804 z m -7,-7.0000004 C 0.478125,8.9097322 0.35021972,8.8077116 0.26264106,8.7145631 0.03957176,8.4773072 -0.00978545,8.3145172 0.00453847,7.8632891 L 0.01567206,7.5125616 1.1207439,5.2797184 C 1.7285334,4.0516544 2.2379233,3.0392396 2.2527213,3.0299073 2.2675193,3.0205751 2.5622393,2.4369814 2.9076547,1.7330323 3.4613616,0.60458941 3.5547606,0.43365756 3.6968972,0.28862103 3.9148169,0.06625503 4.0955881,0 4.484375,0 4.8810228,0 5.0522475,0.06486429 5.2873622,0.30419248 5.4497172,0.46945713 5.5163666,0.59034247 6.0923728,1.7642823 6.4377731,2.4682314 6.7323194,3.0518251 6.7469203,3.0611573 6.7785038,3.0813442 6.9497175,3.4204987 7.5521634,4.65625 L 8.0015903,5.578125 7.3620616,4.938225 6.7225325,4.2983253 5.8471137,2.5314199 C 5.3098666,1.4470652 4.9379284,0.73229953 4.884285,0.68112031 4.6770856,0.48343994 4.3024616,0.47558075 4.1006038,0.66467956 4.0614047,0.70140103 3.63553,1.5261053 3.1542159,2.4973558 2.6729017,3.4686063 2.2688889,4.2708278 2.2564097,4.2800703 2.2439305,4.2893128 1.8550265,5.0604694 1.3921786,5.9937513 0.63530131,7.5199109 0.54930791,7.7090006 0.53742703,7.8732522 c -0.0156181,0.2159184 0.0290149,0.3714484 0.13523166,0.4712341 0.0424022,0.039835 0.0819096,0.066512 0.0877942,0.059283 0.005885,-0.00723 0.0641889,-0.1010347 0.12956497,-0.2084566 L 1.0088835,8 h 2.259339 c 1.6222959,0 2.2653859,0.00978 2.280785,0.034701 0.01245,0.020144 -0.1734194,0.2298919 -0.4430775,0.5 L 4.6414066,9 2.6566407,8.9993138 C 0.79834759,8.9986712 0.66390978,8.9949728 0.546875,8.9412756 Z"
       id="path823"
       inkscape:connector-curvature="0" />
    <path
       style="fill:#fe0000;stroke-width:0.03125"
       d="M 4.3827778,11.711143 3.8785606,11.206926 5.4080303,9.6653269 C 6.3898384,8.6757328 6.9375,8.1016281 6.9375,8.0620094 6.9375,8.0223816 6.3900325,7.4487187 5.4079447,6.4592681 L 3.8783894,4.9182453 4.3826922,4.4139422 4.8869953,3.9096394 6.4280181,5.4391947 C 7.4174687,6.4212825 7.9911316,6.96875 8.0307594,6.96875 c 0.039619,0 0.6137234,-0.5476616 1.6033175,-1.5294697 l 1.5415991,-1.5294697 0.504217,0.5042172 0.504218,0.5042175 -1.529556,1.5410228 C 9.6642941,7.4569534 9.125,8.0222247 9.125,8.0625 c 0,0.040275 0.5392941,0.6055466 1.529555,1.6032319 l 1.529556,1.5410231 -0.504218,0.504217 -0.504217,0.504217 L 9.6340769,10.68572 C 8.6444828,9.7039116 8.0703781,9.15625 8.0307594,9.15625 c -0.039628,0 -0.6132907,0.5474675 -1.6027413,1.529555 l -1.5410228,1.529556 z"
       id="path821"
       inkscape:connector-curvature="0" />
    <path
       style="fill:#650000;stroke-width:0.03125"
       d="M 4.671875,12.673788 C 4.5466519,12.617 3.4494019,11.508233 3.4077591,11.396403 c -0.042087,-0.113023 -0.0418,-0.274803 6.875e-4,-0.386556 0.018395,-0.04839 0.66527,-0.72286 1.4375,-1.4988351 C 5.6181753,8.7350372 6.25,8.0829331 6.25,8.0618916 6.25,8.0408503 5.6181325,7.38902 4.84585,6.6133797 4.0735678,5.8377397 3.4266928,5.1635378 3.40835,5.1151531 3.3624109,4.9939734 3.3666019,4.8298197 3.4186953,4.7099337 3.4743909,4.5817584 4.5801991,3.4826325 4.6973469,3.4390091 c 0.1129347,-0.042055 0.2747169,-0.041807 0.3865562,5.906e-4 0.048385,0.018343 0.7225866,0.6652178 1.4982266,1.4375 0.7756403,0.7722825 1.4274706,1.40415 1.4485119,1.40415 0.021042,0 0.6731456,-0.6318247 1.4491203,-1.4040547 0.7759751,-0.77223 1.4504501,-1.419105 1.4988351,-1.4375 0.111753,-0.042487 0.273533,-0.042774 0.386556,-6.875e-4 0.117148,0.043623 1.222956,1.1427494 1.278652,1.2709247 0.05209,0.1198859 0.05628,0.2840397 0.01034,0.4052194 -0.01834,0.048385 -0.665218,0.7225865 -1.4375,1.4982265 C 10.444368,7.38902 9.8125,8.0411241 9.8125,8.0625 c 0,0.021376 0.631868,0.67348 1.40415,1.4491203 0.772282,0.7756397 1.419157,1.4498417 1.4375,1.4982267 0.04594,0.12118 0.04175,0.285333 -0.01034,0.405219 -0.0557,0.128176 -1.161504,1.227301 -1.278652,1.270925 -0.113023,0.04209 -0.274803,0.0418 -0.386556,-6.88e-4 -0.04839,-0.01839 -0.72286,-0.66527 -1.4988351,-1.4375 C 8.7037872,10.475575 8.0516831,9.84375 8.0306416,9.84375 c -0.021041,0 -0.6728716,0.631868 -1.4485119,1.40415 -0.77564,0.772282 -1.4498419,1.419157 -1.4982266,1.4375 -0.1189206,0.04508 -0.29815,0.04003 -0.4120281,-0.01161 z M 8.0307594,9.15625 c 0.039619,0 0.6137234,0.5476616 1.6033175,1.52947 l 1.5415991,1.529469 0.504217,-0.504217 0.504218,-0.504217 -1.529556,-1.5410231 C 9.6642941,8.6680466 9.125,8.1027753 9.125,8.0625 9.125,8.022225 9.6642941,7.4569534 10.654555,6.4592681 L 12.184111,4.9182453 11.679893,4.4140278 11.175676,3.9098106 9.6340769,5.4392803 C 8.6444828,6.4210884 8.0703781,6.96875 8.0307594,6.96875 7.9911316,6.96875 7.4174687,6.4212825 6.4280181,5.4391947 L 4.8869953,3.9096394 4.3826922,4.4139422 3.8783894,4.9182453 5.4079447,6.4592681 C 6.3900325,7.4487187 6.9375,8.0223816 6.9375,8.0620094 c 0,0.039619 -0.5476616,0.6137234 -1.5294697,1.6033175 l -1.5294697,1.5415991 0.5042172,0.504217 0.5042175,0.504218 1.5410228,-1.529556 C 7.4174687,9.7037175 7.9911316,9.15625 8.0307594,9.15625 Z"
       id="path819"
       inkscape:connector-curvature="0" />
  </g>
</svg>
