<?xml version="1.0" encoding="UTF-8" standalone="no"?>
<!-- Created with Inkscape (http://www.inkscape.org/) -->

<svg
   xmlns:dc="http://purl.org/dc/elements/1.1/"
   xmlns:cc="http://creativecommons.org/ns#"
   xmlns:rdf="http://www.w3.org/1999/02/22-rdf-syntax-ns#"
   xmlns:svg="http://www.w3.org/2000/svg"
   xmlns="http://www.w3.org/2000/svg"
   xmlns:sodipodi="http://sodipodi.sourceforge.net/DTD/sodipodi-0.dtd"
   xmlns:inkscape="http://www.inkscape.org/namespaces/inkscape"
   version="1.1"
   id="svg2"
   width="16"
   height="16"
   viewBox="0 0 16 16"
   sodipodi:docname="PARENT_CLEAR.svg"
   inkscape:version="0.92.4 (5da689c313, 2019-01-14)">
  <metadata
     id="metadata8">
    <rdf:RDF>
      <cc:Work
         rdf:about="">
        <dc:format>image/svg+xml</dc:format>
        <dc:type
           rdf:resource="http://purl.org/dc/dcmitype/StillImage" />
        <dc:title></dc:title>
      </cc:Work>
    </rdf:RDF>
  </metadata>
  <defs
     id="defs6" />
  <sodipodi:namedview
     pagecolor="#ffffff"
     bordercolor="#666666"
     borderopacity="1"
     objecttolerance="10"
     gridtolerance="10"
     guidetolerance="10"
     inkscape:pageopacity="0"
     inkscape:pageshadow="2"
     inkscape:window-width="828"
     inkscape:window-height="480"
     id="namedview4"
     showgrid="false"
     inkscape:zoom="14.75"
     inkscape:cx="8"
     inkscape:cy="8"
     inkscape:window-x="0"
     inkscape:window-y="0"
     inkscape:window-maximized="0"
     inkscape:current-layer="svg2" />
  <g
     id="PARENT_CLEAR">
    <path
       style="fill:#ffffff;stroke-width:0.03125"
       d="M 0,8 V 0 h 8 8 v 8 8 H 8 0 Z m 10.308483,7.438262 c 0.41024,-0.0778 0.319095,0.002 2.638196,-2.310337 2.369958,-2.363064 2.301729,-2.283996 2.374042,-2.75118 0.07633,-0.4931587 -0.07205,-0.9368234 -0.427457,-1.2781044 -0.340999,-0.327444 -0.765355,-0.4613878 -1.232617,-0.3890622 -0.428775,0.066368 -0.500301,0.1180441 -1.387209,1.00223 L 11.46875,10.514026 V 7.6987781 c 0,-1.7603965 -0.0118,-2.8774619 -0.03149,-2.981289 C 11.387329,4.4542019 11.267163,4.2312137 11.057609,4.0129856 10.718311,3.6596416 10.286466,3.5132862 9.7929522,3.5843841 9.2041669,3.6692072 8.7029613,4.1428822 8.5939891,4.7174891 8.5742988,4.8213162 8.5625,5.9383862 8.5625,7.6987928 V 10.514055 L 7.7421875,9.6961887 C 6.8381772,8.7948744 6.7692634,8.7448722 6.3393531,8.6783284 5.8527462,8.6030087 5.4068978,8.7531738 5.0673906,9.1067356 4.7391778,9.448535 4.6096094,9.8563947 4.6781341,10.332048 c 0.068824,0.477732 -0.00818,0.388185 2.3908137,2.780254 1.9075903,1.902085 2.1853113,2.167455 2.3324219,2.228693 0.293939,0.122358 0.6011223,0.155297 0.9071133,0.09727 z M 7.3822719,7.9379416 C 7.6004266,7.8563194 7.8540825,7.6021034 7.9381619,7.3808244 7.9980575,7.2231919 8,7.1327241 8,4.5008372 8,1.3774148 8.0195428,1.5937374 7.7097262,1.2877692 7.3984475,0.98035709 7.6175406,1 4.5,1 1.3824592,1 1.6015526,0.98035709 1.2902738,1.2877692 0.98046291,1.5937317 1,1.37753 1,4.5 1,7.6225037 0.9804573,7.4062628 1.290307,7.7122634 c 0.3086455,0.3048116 0.082696,0.2846025 3.2007083,0.286275 2.6443213,0.00142 2.7303241,-3.843e-4 2.8912566,-0.060597 z"
       id="path829"
       inkscape:connector-curvature="0" />
    <path
       style="fill:#cbfefe;stroke-width:0.03125"
       d="M 1.6110609,7.9367328 C 1.3977378,7.8534487 1.1415392,7.5947028 1.0620585,7.3822719 1.0018952,7.2214709 1,7.1334488 1,4.5 1,1.37753 0.98046291,1.5937317 1.2902738,1.2877692 1.6015526,0.98035709 1.3824592,1 4.5,1 7.1327209,1 7.2231903,1.0019419 7.3808244,1.0618382 7.7048616,1.1849626 8,1.580574 8,1.8917973 V 2 H 5 2 V 5 8 L 1.8828125,7.9985375 C 1.8183594,7.9977344 1.6960712,7.9699209 1.6110609,7.9367319 Z"
       id="path827"
       inkscape:connector-curvature="0" />
    <path
       style="fill:#98cbfe;stroke-width:0.03125"
       d="M 2,4.5 V 2 H 4.5 7 V 4.5 7 H 4.5 2 Z"
       id="path825"
       inkscape:connector-curvature="0" />
    <path
       style="fill:#fe9832;stroke-width:0.03125"
       d="M 9.8170866,14.936056 C 9.7422653,14.920849 9.6227341,14.873702 9.5514616,14.831284 9.4801888,14.788866 8.4978375,13.828615 7.3684581,12.697393 5.0880787,10.413292 5.1774606,10.519049 5.1772156,10.104713 5.1769031,9.5778525 5.5794794,9.1773475 6.109375,9.1773475 c 0.3940863,0 0.3895088,-0.00354 1.7421875,1.3469615 0.84579,0.844428 1.2115388,1.190304 1.2129319,1.147027 0.0011,-0.03408 0.00461,-1.594773 0.00781,-3.468211 l 0.00582,-3.40625 0.086868,-0.1768919 C 9.3335081,4.2768316 9.63995,4.0835975 10.015625,4.0835975 c 0.375675,0 0.682117,0.1932341 0.850632,0.5363856 l 0.08687,0.1768919 0.0058,3.40625 c 0.0032,1.873438 0.0067,3.434129 0.0078,3.468204 0.0014,0.04328 0.36225,-0.297711 1.197307,-1.131397 1.335557,-1.3333664 1.332922,-1.3313345 1.726562,-1.3313345 0.373893,0 0.682573,0.1935459 0.848028,0.5317228 0.06767,0.1383063 0.08424,0.2162344 0.08413,0.3956427 -2.5e-4,0.414428 0.08925,0.308574 -2.191242,2.591664 -1.630273,1.632125 -2.085615,2.071163 -2.209667,2.130543 -0.18229,0.08726 -0.41269,0.116928 -0.6047884,0.07789 z"
       id="path823"
       inkscape:connector-curvature="0" />
    <path
       style="fill:#0032fe;stroke-width:0.03125"
       d="M 2,7.5 V 7 H 4.5 7 V 4.5 2 H 7.5 8 V 4.6090397 C 8,7.6025906 8.0188737,7.3992262 7.7122309,7.7097262 7.4070412,8.0187544 7.6075909,8 4.6082028,8 H 2 Z"
       id="path821"
       inkscape:connector-curvature="0" />
    <path
       style="fill:#323232;stroke-width:0.03125"
       d="M 9.6982447,15.436206 C 9.3157653,15.360535 9.3855141,15.422183 7.0689478,13.112302 4.6699547,10.720233 4.7469584,10.80978 4.6781341,10.332048 4.6096094,9.8563947 4.7391778,9.448535 5.0673906,9.1067356 5.4068978,8.7531737 5.8527463,8.6030087 6.3393531,8.6783284 6.7692634,8.7448722 6.8381772,8.7948744 7.7421875,9.6961887 L 8.5625,10.514055 V 7.6987928 C 8.5625,5.9383862 8.574299,4.8213162 8.593989,4.7174891 8.64392,4.4542019 8.7640871,4.2312137 8.9736405,4.0129856 9.3149215,3.6575769 9.7585862,3.5091953 10.251745,3.5855291 c 0.581574,0.090019 1.077766,0.5637956 1.185516,1.13196 0.01969,0.1038271 0.03149,1.2208925 0.03149,2.981289 v 2.8152479 l 0.804688,-0.8022176 c 0.886908,-0.8841859 0.958434,-0.9358618 1.387209,-1.00223 0.467262,-0.072326 0.891618,0.061618 1.232617,0.3890622 0.355409,0.341281 0.503791,0.7849457 0.427457,1.2781044 -0.07231,0.467184 -0.0041,0.388116 -2.374042,2.75118 -1.87597,1.870512 -2.17067,2.15223 -2.313618,2.211699 -0.293988,0.122304 -0.629563,0.156975 -0.9348164,0.09658 z M 10.421875,14.85817 c 0.124052,-0.05938 0.579394,-0.498418 2.209667,-2.130543 2.280497,-2.28309 2.190997,-2.177236 2.191242,-2.591664 3.13e-4,-0.5268605 -0.402263,-0.9273655 -0.932159,-0.9273655 -0.39364,0 -0.391005,-0.00203 -1.726562,1.3313345 -0.835057,0.833686 -1.195914,1.174679 -1.197307,1.131397 -0.0011,-0.03407 -0.0046,-1.594766 -0.0078,-3.468204 l -0.0058,-3.40625 -0.08687,-0.1768919 C 10.697742,4.2768316 10.3913,4.0835975 10.015625,4.0835975 c -0.375675,0 -0.6821169,0.1932341 -0.8506319,0.5363856 l -0.086868,0.1768919 -0.00582,3.40625 c -0.0032,1.873438 -0.00672,3.434133 -0.00781,3.468211 -0.00139,0.04328 -0.3671419,-0.302599 -1.2129319,-1.147027 C 6.4988838,9.1738087 6.5034613,9.1773475 6.109375,9.1773475 c -0.3738931,0 -0.6825731,0.1935459 -0.8480275,0.5317228 -0.067667,0.1383063 -0.084238,0.2162344 -0.084132,0.3956427 2.5e-4,0.414336 -0.089137,0.308579 2.1912425,2.59268 1.1293794,1.131222 2.1117307,2.091473 2.1830035,2.133891 0.2550443,0.15179 0.5879875,0.162074 0.8704135,0.02689 z"
       id="path819"
       inkscape:connector-curvature="0" />
  </g>
</svg>
