<?xml version="1.0" encoding="UTF-8" standalone="no"?>
<!-- Created with Inkscape (http://www.inkscape.org/) -->

<svg
   xmlns:dc="http://purl.org/dc/elements/1.1/"
   xmlns:cc="http://creativecommons.org/ns#"
   xmlns:rdf="http://www.w3.org/1999/02/22-rdf-syntax-ns#"
   xmlns:svg="http://www.w3.org/2000/svg"
   xmlns="http://www.w3.org/2000/svg"
   xmlns:sodipodi="http://sodipodi.sourceforge.net/DTD/sodipodi-0.dtd"
   xmlns:inkscape="http://www.inkscape.org/namespaces/inkscape"
   version="1.1"
   id="svg2"
   width="16"
   height="16"
   viewBox="0 0 16 16"
   sodipodi:docname="VERTEX_PARENT.svg"
   inkscape:version="0.92.4 (5da689c313, 2019-01-14)">
  <metadata
     id="metadata8">
    <rdf:RDF>
      <cc:Work
         rdf:about="">
        <dc:format>image/svg+xml</dc:format>
        <dc:type
           rdf:resource="http://purl.org/dc/dcmitype/StillImage" />
        <dc:title></dc:title>
      </cc:Work>
    </rdf:RDF>
  </metadata>
  <defs
     id="defs6" />
  <sodipodi:namedview
     pagecolor="#ffffff"
     bordercolor="#666666"
     borderopacity="1"
     objecttolerance="10"
     gridtolerance="10"
     guidetolerance="10"
     inkscape:pageopacity="0"
     inkscape:pageshadow="2"
     inkscape:window-width="811"
     inkscape:window-height="575"
     id="namedview4"
     showgrid="false"
     inkscape:zoom="14.75"
     inkscape:cx="8"
     inkscape:cy="8"
     inkscape:window-x="0"
     inkscape:window-y="0"
     inkscape:window-maximized="0"
     inkscape:current-layer="svg2" />
  <g
     id="VERTEX_PARENT">
    <path
       style="fill:#ffffff;stroke-width:0.03125"
       d="M 0,8 V 0 h 8 8 L 15.9978,7.3203125 C 15.9957,14.3961 15.9937,14.635406 15.93961,14.484375 15.87185,14.295306 13.784964,10.085228 13.747075,10.061157 13.732385,10.051857 13.437766,9.4682313 13.092366,8.7642822 12.516367,7.5903425 12.449718,7.4694572 12.287363,7.3041925 12.052248,7.0648644 11.881023,7 11.484375,7 10.853683,7 10.682528,7.1491241 10.216039,8.1050741 L 9.8978984,8.7570231 8.4567619,7.3161234 7.015625,5.8752237 7.0128906,5.4922994 C 7.0089016,4.9338784 6.881305,4.5029444 6.5925478,4.0726672 6.2661094,3.5862406 5.6859056,3.1844144 5.1037216,3.0415644 c -0.2883925,-0.070763 -0.9190482,-0.070763 -1.2074407,0 -0.901361,0.2211662 -1.6335491,0.9533544 -1.8547152,1.8547153 -0.070763,0.2883925 -0.070763,0.9190481 0,1.2074406 0.1835567,0.7480841 0.6989554,1.3668906 1.4134059,1.6969869 0.3339909,0.1543134 0.5960143,0.2083191 1.0393243,0.2142156 l 0.3849197,0.00512 1.791961,1.7917575 1.7919609,1.7917577 -0.7235725,1.449475 -0.7235725,1.449475 -0.011293,0.355754 c -0.014499,0.456754 0.034158,0.618284 0.2579428,0.856301 0.087579,0.09315 0.2154841,0.195169 0.2842341,0.226713 0.1220696,0.05601 0.035077,0.05737 -3.7109375,0.05804 L 0,16 Z m 15.453125,7.940415 c 0.174513,-0.08127 0.411975,-0.336756 0.483665,-0.520377 l 0.06029,-0.154413 0.0015,0.367188 L 16,16 l -0.335937,-6.87e-4 -0.335938,-6.88e-4 z"
       id="path833"
       inkscape:connector-curvature="0" />
    <path
       style="fill:#fefefe;stroke-width:0.03125"
       d="M 11.035193,13.951165 C 10.908456,13.907998 10.746738,13.83203 10.675818,13.782348 10.6049,13.732665 9.2686416,12.412738 7.7063559,10.849175 l -2.840519,-2.8428416 0.184269,-0.037787 c 0.1013482,-0.020783 0.2280197,-0.055831 0.2814925,-0.077884 l 0.097223,-0.040097 2.7773293,2.7774606 c 2.7226953,2.722824 2.7809923,2.778698 2.9635323,2.840342 0.397187,0.134132 0.769511,0.04872 1.057726,-0.242648 0.290531,-0.293709 0.374348,-0.661051 0.240959,-1.056037 -0.06164,-0.18254 -0.117518,-0.240837 -2.8403423,-2.963532 L 6.8505653,6.4288216 6.8906622,6.3315984 c 0.022053,-0.053473 0.057101,-0.1801443 0.077884,-0.2814925 l 0.037787,-0.184269 2.8428413,2.840519 c 1.5635635,1.5622861 2.8835635,2.8986491 2.9333345,2.9696971 0.04977,0.07105 0.126099,0.235247 0.169617,0.364885 0.188316,0.560985 0.03679,1.164345 -0.394632,1.571395 -0.201337,0.189962 -0.303661,0.251332 -0.565749,0.339312 -0.321641,0.107971 -0.638614,0.107812 -0.956552,-4.78e-4 z"
       id="path831"
       inkscape:connector-curvature="0" />
    <path
       style="fill:#82fe7f;stroke-width:0.03125"
       d="m 11.356083,12.993586 c -0.06643,-0.02142 -0.9423,-0.876585 -2.7766489,-2.711027 L 5.8998275,7.6028169 6.0058031,7.5373203 C 6.129885,7.4606334 6.50341,7.0803894 6.5609038,6.9722341 6.5994409,6.89974 6.6776772,6.9746841 9.2809166,9.5777916 12.20906,12.505787 12.07885,12.359 11.999487,12.642457 c -0.0428,0.152878 -0.186401,0.302076 -0.340088,0.353352 -0.123053,0.04106 -0.170137,0.04071 -0.303316,-0.0022 z"
       id="path829"
       inkscape:connector-curvature="0" />
    <path
       style="fill:#fefe00;stroke-width:0.03125"
       d="M 7.6446462,15.31158 C 7.6008342,15.25951 7.5556832,15.167315 7.5443112,15.106699 7.4917992,14.826787 7.5243862,14.74165 8.2162284,13.351216 l 0.6624254,-1.331312 0.1924968,0.192497 0.1924966,0.192496 -0.6168375,1.242864 c -0.3392606,0.683575 -0.61655,1.260069 -0.6161988,1.281098 7.719e-4,0.0462 -0.2563828,0.475139 -0.2856456,0.476459 -0.011362,5.12e-4 -0.056506,-0.04167 -0.1003191,-0.09374 z m 2.8667788,-5.9390722 -0.1917,-0.1927825 0.342125,-0.70705 C 10.850018,8.0837975 11.034721,7.7321719 11.0723,7.691285 11.14868,7.608187 11.308738,7.53125 11.405246,7.53125 c 0.05857,0 0.06333,0.018802 0.0612,0.2421875 l -0.0023,0.2421875 -0.380512,0.7748328 -0.380511,0.7748325 -0.1917,-0.1927825 z M 4.1485672,6.9368112 C 3.7477478,6.8356947 3.3540153,6.5026122 3.16339,6.10339 3.0497703,5.8654384 3.046875,5.850445 3.046875,5.5 c 0,-0.350445 0.0029,-0.3654384 0.116515,-0.60339 C 3.3202888,4.5680206 3.5680206,4.3202887 3.89661,4.16339 4.1345616,4.0497703 4.149555,4.046875 4.5,4.046875 c 0.350445,0 0.3654384,0.00289 0.60339,0.116515 0.3285894,0.1568987 0.5763213,0.4046306 0.73322,0.73322 0.1136197,0.2379516 0.116515,0.252945 0.116515,0.60339 0,0.350445 -0.00289,0.3654384 -0.116515,0.60339 C 5.6803316,6.4306803 5.4314969,6.6801597 5.10819,6.8336975 4.8926703,6.9360475 4.8390928,6.9482434 4.5673,6.9568213 4.4013787,6.9620578 4.2129491,6.9530531 4.1485672,6.9368112 Z"
       id="path827"
       inkscape:connector-curvature="0" />
    <path
       style="fill:#fe9832;stroke-width:0.03125"
       d="m 15.122573,15.204257 -0.138198,-0.202769 -3.476562,-7.44e-4 c -3.2896489,-7.03e-4 -3.4765974,-0.0037 -3.4772021,-0.05543 -3.5e-4,-0.03008 0.276946,-0.613992 0.616216,-1.297586 l 0.6168547,-1.242899 0.6728465,0.66809 c 0.3700659,0.367449 0.7162699,0.697571 0.7693429,0.733605 0.05307,0.03604 0.203208,0.101339 0.333634,0.145122 0.562501,0.188825 1.165319,0.03776 1.572828,-0.394151 0.189962,-0.201337 0.251332,-0.303661 0.339312,-0.565749 0.108444,-0.32305 0.108444,-0.62919 0,-0.95224 -0.04378,-0.130426 -0.109071,-0.280562 -0.145086,-0.333634 -0.03601,-0.05307 -0.523174,-0.556277 -1.082578,-1.118232 l -1.017098,-1.0217349 0.3818,-0.7907647 c 0.381503,-0.7901475 0.3818,-0.7909413 0.380934,-1.0173269 -8.41e-4,-0.2194553 0.0015,-0.2265625 0.07522,-0.2265625 0.113713,0 0.241443,0.056372 0.339324,0.1497553 0.05347,0.051012 0.426208,0.7671875 0.962012,1.8483947 0.481098,0.970814 0.884787,1.772678 0.897086,1.78192 0.0123,0.0092 0.400879,0.779526 0.86351,1.71174 0.71853,1.447859 0.843187,1.719535 0.855141,1.863686 0.01646,0.198498 -0.02934,0.35888 -0.129311,0.452797 l -0.07183,0.06748 z"
       id="path825"
       inkscape:connector-curvature="0" />
    <path
       style="fill:#407f3f;stroke-width:0.03125"
       d="M 11.156151,13.46625 C 10.993554,13.409459 10.83298,13.254968 8.2111134,10.63278 L 5.4380494,7.859375 5.6752384,7.7375319 5.9124278,7.6156888 8.5890263,10.288978 c 2.1681987,2.165517 2.6993677,2.680468 2.7964707,2.71109 0.349275,0.110142 0.725028,-0.264537 0.615007,-0.613248 C 11.969324,12.28799 11.46899,11.771738 9.2889775,9.5890263 L 6.6156888,6.9124278 6.7375319,6.6752384 6.859375,6.4380494 9.6324309,9.2107647 c 2.7185121,2.7181783 2.7742921,2.7763773 2.8359371,2.9589183 0.133389,0.394986 0.04957,0.762328 -0.240959,1.056037 -0.135791,0.137277 -0.220506,0.193567 -0.364477,0.242187 -0.231817,0.07829 -0.47956,0.0777 -0.706781,-0.0017 z"
       id="path823"
       inkscape:connector-curvature="0" />
    <path
       style="fill:#fe0000;stroke-width:0.03125"
       d="M 4.21875,8.0131469 C 4.1757812,8.0055153 4.05625,7.9841347 3.953125,7.9656337 3.3951691,7.8655359 2.7701345,7.4513853 2.4307987,6.9569341 2.1160927,6.4983712 1.9892774,6.0799056 1.9892774,5.5 c 0,-0.5631156 0.1253645,-0.9910144 0.418176,-1.4273328 0.3264385,-0.4864266 0.9066422,-0.8882528 1.4888263,-1.0311028 0.2883925,-0.070763 0.9190481,-0.070763 1.2074406,0 0.9013609,0.2211662 1.6335491,0.9533544 1.8547153,1.8547153 0.070763,0.2883925 0.070763,0.9190481 0,1.2074406 C 6.8978531,6.3506241 6.7378147,6.7108691 6.5925466,6.9273328 6.2690384,7.4093928 5.679795,7.8196744 5.1197387,7.9528272 4.9177994,8.0008381 4.35979,8.0381956 4.21875,8.0131469 Z M 5.10339,6.83605 C 5.4318225,6.67998 5.6794366,6.432555 5.83661,6.10339 5.9502297,5.8654384 5.953125,5.850445 5.953125,5.5 5.953125,5.149555 5.9502312,5.1345616 5.83661,4.89661 5.6797113,4.5680206 5.4319794,4.3202887 5.10339,4.16339 4.8654384,4.0497703 4.850445,4.046875 4.5,4.046875 4.149555,4.046875 4.1345616,4.049765 3.89661,4.16339 3.5680206,4.3202887 3.3202888,4.5680206 3.16339,4.89661 3.0497703,5.1345616 3.046875,5.149555 3.046875,5.5 c 0,0.350445 0.0029,0.3654384 0.116515,0.60339 0.1872288,0.3921091 0.5208041,0.6823778 0.945985,0.8231725 0.078643,0.026042 0.2408928,0.038435 0.4375,0.033417 C 4.83435,6.9526395 4.8789156,6.9427195 5.10339,6.83605 Z"
       id="path821"
       inkscape:connector-curvature="0" />
    <path
       style="fill:#653200;stroke-width:0.03125"
       d="M 7.546875,15.941276 C 7.478125,15.909732 7.3502197,15.807712 7.2626409,15.714563 7.0388941,15.476587 6.9901997,15.314989 7.0046897,14.858529 l 0.011285,-0.355488 0.7179812,-1.43902 C 8.1288456,12.272559 8.4596419,11.625 8.4690588,11.625 c 0.00942,0 0.1053471,0.08902 0.2131778,0.197814 l 0.1960562,0.197815 -0.6637544,1.333984 c -0.5936781,1.193147 -0.6651572,1.353372 -0.6770381,1.517624 -0.015687,0.216879 0.028804,0.372335 0.1351584,0.472249 0.042402,0.03984 0.081909,0.06651 0.087794,0.05928 0.00588,-0.0072 0.064189,-0.101035 0.129565,-0.208456 L 8.0088834,15 l 3.4877456,7.44e-4 3.487746,7.44e-4 0.138198,0.202769 0.138197,0.20277 0.07183,-0.06748 c 0.09997,-0.09392 0.145773,-0.254299 0.129311,-0.452797 -0.01195,-0.144151 -0.136611,-0.415827 -0.855141,-1.863686 -0.462631,-0.932214 -0.851211,-1.702497 -0.86351,-1.71174 -0.0123,-0.0092 -0.415988,-0.811106 -0.897085,-1.78192 C 12.310373,8.4481928 11.937633,7.7320172 11.884165,7.6810053 11.772964,7.5749138 11.656398,7.53125 11.484375,7.53125 c -0.169584,0 -0.288426,0.043515 -0.394098,0.1443025 -0.04488,0.042804 -0.233682,0.3934722 -0.419562,0.7792619 -0.185879,0.3857897 -0.346441,0.7014356 -0.356804,0.7014356 -0.01036,0 -0.108094,-0.090053 -0.217181,-0.2001178 L 9.8983913,8.7560144 10.216286,8.1045697 C 10.682498,7.1491841 10.853768,7 11.484375,7 c 0.396648,0 0.567873,0.064864 0.802987,0.3041925 0.162355,0.1652647 0.229005,0.28615 0.805011,1.4600897 0.3454,0.7039491 0.639994,1.2875428 0.654652,1.2968748 0.04183,0.02663 2.159346,4.312694 2.208438,4.470093 0.067,0.214823 0.05774,0.681111 -0.01752,0.882272 -0.0722,0.192968 -0.326957,0.463267 -0.507251,0.538194 -0.102655,0.04266 -0.56114,0.0482 -3.9375,0.0476 -3.6399135,-6.53e-4 -3.8272498,-0.0034 -3.946316,-0.05804 z"
       id="path819"
       inkscape:connector-curvature="0" />
  </g>
</svg>
