<?xml version="1.0" encoding="UTF-8" standalone="no"?>
<!-- Created with Inkscape (http://www.inkscape.org/) -->

<svg
   xmlns:dc="http://purl.org/dc/elements/1.1/"
   xmlns:cc="http://creativecommons.org/ns#"
   xmlns:rdf="http://www.w3.org/1999/02/22-rdf-syntax-ns#"
   xmlns:svg="http://www.w3.org/2000/svg"
   xmlns="http://www.w3.org/2000/svg"
   xmlns:sodipodi="http://sodipodi.sourceforge.net/DTD/sodipodi-0.dtd"
   xmlns:inkscape="http://www.inkscape.org/namespaces/inkscape"
   version="1.1"
   id="svg2"
   width="15.999999"
   height="15.999999"
   viewBox="0 0 15.999999 15.999999"
   sodipodi:docname="CON_ARMATURE.svg"
   inkscape:version="0.92.4 (5da689c313, 2019-01-14)">
  <metadata
     id="metadata8">
    <rdf:RDF>
      <cc:Work
         rdf:about="">
        <dc:format>image/svg+xml</dc:format>
        <dc:type
           rdf:resource="http://purl.org/dc/dcmitype/StillImage" />
        <dc:title></dc:title>
      </cc:Work>
    </rdf:RDF>
  </metadata>
  <defs
     id="defs6" />
  <sodipodi:namedview
     pagecolor="#ffffff"
     bordercolor="#666666"
     borderopacity="1"
     objecttolerance="10"
     gridtolerance="10"
     guidetolerance="10"
     inkscape:pageopacity="0"
     inkscape:pageshadow="2"
     inkscape:window-width="742"
     inkscape:window-height="480"
     id="namedview4"
     showgrid="false"
     fit-margin-top="0"
     fit-margin-left="0"
     fit-margin-right="0"
     fit-margin-bottom="0"
     inkscape:zoom="16.838623"
     inkscape:cx="7.007699"
     inkscape:cy="7.0076984"
     inkscape:window-x="0"
     inkscape:window-y="0"
     inkscape:window-maximized="0"
     inkscape:current-layer="svg2" />
  <g
     id="g817"
     transform="scale(1.1416015)">
    <path
       style="fill:#ffffff;stroke-width:0.02737382"
       d="M 0.00247048,9.3276306 C 0.0045428,5.3953835 0.01067175,4.6714447 0.04049868,4.8358168 0.1405489,5.3871793 0.4079503,5.8841168 0.81263388,6.2707491 1.1573852,6.6001225 1.5709399,6.8265582 2.0431052,6.944475 c 0.2603411,0.065017 0.9092228,0.065017 1.1695637,0 C 4.3393076,6.6631124 5.151469,5.7249052 5.2456145,4.596021 l 0.018031,-0.2162091 h 1.310008 1.3100078 v 1.5576417 1.5576418 l -0.1847733,0.0564 C 6.582699,7.8922028 5.1500604,9.2838191 4.2288674,10.922156 c -0.4321968,0.768659 -0.7250179,1.647803 -0.7250179,2.176737 0,0.273029 0.2079069,0.505898 0.4516681,0.505898 0.2472472,0 0.4696579,-0.250148 0.4418494,-0.496954 -0.033656,-0.298704 0.1569078,-0.902435 0.4883824,-1.547255 0.7343308,-1.4285 2.0154413,-2.7785495 2.9842251,-3.1448104 0.2733139,-0.1033299 0.6300222,-0.1033299 0.9033362,0 0.9687837,0.3662609 2.2498943,1.7163104 2.9842253,3.1448104 0.331474,0.64482 0.522038,1.248551 0.488382,1.547255 -0.02781,0.246806 0.194602,0.496954 0.44185,0.496954 0.243761,0 0.451668,-0.232869 0.451668,-0.505898 0,-0.528934 -0.292821,-1.408078 -0.725018,-2.176737 C 11.493225,9.2838191 10.060586,7.8922028 8.9443971,7.5514959 l -0.1847734,-0.0564 V 5.9374536 4.3798119 H 10.94953 13.139436 V 3.9418307 3.5038495 H 9.2004518 5.261468 L 5.2489771,2.8537212 C 5.2384762,2.3071797 5.2274125,2.1702426 5.1795406,1.9942812 4.9005179,0.96868713 4.1033573,0.2254908 3.0838921,0.04049868 2.9200964,0.01077633 3.8009998,0.00453554 8.4516682,0.00247048 L 14.015398,0 v 7.007699 7.007699 H 7.007699 0 Z M 8.740011,3.2123185 C 9.2271706,3.0701553 9.6420663,2.6494929 9.7889064,2.1488452 c 0.063329,-0.2159179 0.063329,-0.577923 0,-0.7938409 C 9.6765152,0.97180884 9.3976753,0.61814308 9.0607358,0.4314314 8.8100942,0.29254077 8.5975808,0.23648834 8.3216426,0.23648834 c -0.6747383,0 -1.2729568,0.45603038 -1.4672638,1.11851596 -0.063329,0.2159179 -0.063329,0.577923 0,0.7938409 0.2042497,0.6963854 0.8632083,1.1698439 1.5571463,1.1188021 0.1021301,-0.00751 0.2499487,-0.03241 0.3284859,-0.055329 z M 2.340462,6.093044 C 1.652128,5.9615092 1.1267517,5.4733036 0.93865823,4.7904192 0.89529782,4.6329968 0.88964929,4.484713 0.88964929,3.5038495 c 0,-1.2401016 0.003851,-1.2724652 0.19869151,-1.6698033 C 1.2279705,1.5492995 1.5492995,1.2279705 1.8340462,1.0883408 2.112487,0.95180333 2.3484461,0.89405404 2.6278871,0.89405404 c 0.788696,0 1.4722423,0.53544316 1.6892289,1.32322576 0.04336,0.1574225 0.049009,0.3057061 0.049009,1.2865697 0,1.2401016 -0.00385,1.2724651 -0.1986916,1.6698033 C 4.0277278,5.4585541 3.7064155,5.7798092 3.421728,5.9192249 3.0550154,6.0988097 2.6833213,6.1585616 2.340462,6.093044 Z M 0.00247048,1.1839179 0,0 1.1839179,0.00247048 C 2.2418934,0.00467816 2.3469907,0.00872351 2.1718823,0.04049868 1.0862924,0.23748977 0.23748977,1.0862924 0.04049868,2.1718823 0.00872351,2.3469907 0.00467816,2.2418934 0.00247048,1.1839179 Z"
       id="path821"
       inkscape:connector-curvature="0" />
    <path
       style="fill:#98cbfe;stroke-width:0.02737382"
       d="m 3.7491195,13.541756 c -0.1545956,-0.08175 -0.24527,-0.245475 -0.24527,-0.442863 0,-0.528934 0.2928211,-1.408078 0.7250179,-2.176737 C 5.1500604,9.2838191 6.582699,7.8922028 7.6988881,7.5514959 l 0.1847733,-0.0564 V 5.9374536 4.3798119 H 6.5736536 5.2636456 L 5.2456145,4.596021 C 5.1514671,5.7249296 4.3406703,6.6616495 3.2126689,6.9446992 2.9308228,7.0154231 2.2749461,7.0084411 1.9942812,6.9317295 1.1626012,6.7044135 0.49875825,6.1255241 0.19363253,5.3615141 0.01447534,4.9129193 0.01368691,4.90478 0.01368691,3.5038495 c 0,-1.1261722 0.0055585,-1.2945355 0.04822644,-1.4607443 C 0.31444194,1.0594045 1.0185097,0.34266884 1.9942812,0.07596955 2.2749461,-7.4219279e-4 2.9308228,-0.00772409 3.2126689,0.06299965 4.1896445,0.30815248 4.9144298,1.0198228 5.1795406,1.9942812 c 0.047872,0.1759614 0.058936,0.3128985 0.069437,0.85944 l 0.01249,0.6501283 H 9.2004518 13.139436 V 3.9418307 4.3798119 H 10.94953 8.7596237 v 1.5576417 1.5576418 l 0.1847734,0.0564 c 1.1161889,0.3407069 2.5488279,1.7323232 3.4700209,3.3706596 0.432197,0.768659 0.725018,1.647803 0.725018,2.176737 0,0.273029 -0.207907,0.505898 -0.451668,0.505898 -0.247248,0 -0.469658,-0.250148 -0.44185,-0.496954 0.03366,-0.298704 -0.156908,-0.902435 -0.488382,-1.547255 -0.734331,-1.4285 -2.0154416,-2.778549 -2.9842253,-3.1448099 -0.273314,-0.1033299 -0.6300223,-0.1033299 -0.9033362,0 -0.9687838,0.3662609 -2.2498943,1.7163099 -2.9842251,3.1448099 -0.3314746,0.64482 -0.5220385,1.248551 -0.4883824,1.547255 0.019966,0.177203 -0.072604,0.347803 -0.2354513,0.433919 -0.1507488,0.07972 -0.2620474,0.07972 -0.4127962,10e-7 z M 3.06001,6.0603096 C 3.6612192,5.9044701 4.1448196,5.4159516 4.317116,4.7904192 4.3604764,4.6329968 4.366125,4.484713 4.366125,3.5038495 4.366125,2.2637479 4.362274,2.2313843 4.1674334,1.8340462 4.0278037,1.5492995 3.7064747,1.2279705 3.421728,1.0883408 3.1432872,0.95180333 2.9073282,0.89405404 2.6278871,0.89405404 c -0.788696,0 -1.4722423,0.53544316 -1.68922887,1.32322576 -0.0433604,0.1574225 -0.0490089,0.3057061 -0.0490089,1.2865697 0,0.9808635 0.005649,1.1291473 0.0490089,1.2865697 C 1.2010566,5.7430724 2.1325856,6.300707 3.06001,6.0603096 Z M 8.0788028,3.2554559 C 7.3478059,3.126939 6.806206,2.4870566 6.806206,1.7519247 c 0,-0.6747383 0.4560304,-1.27295677 1.1185161,-1.46726389 0.099968,-0.0293207 0.2552987,-0.0481725 0.3969205,-0.0481725 0.2759382,0 0.4884516,0.0560524 0.7390932,0.19494306 0.3369395,0.18671168 0.6157794,0.54037744 0.7281706,0.92357293 0.063329,0.2159179 0.063329,0.577923 0,0.7938409 C 9.5711087,2.8914218 8.8099127,3.3839929 8.0788028,3.2554559 Z"
       id="path819"
       inkscape:connector-curvature="0" />
  </g>
</svg>
