<?xml version="1.0" encoding="UTF-8" standalone="no"?>
<!-- Created with Inkscape (http://www.inkscape.org/) -->

<svg
   xmlns:dc="http://purl.org/dc/elements/1.1/"
   xmlns:cc="http://creativecommons.org/ns#"
   xmlns:rdf="http://www.w3.org/1999/02/22-rdf-syntax-ns#"
   xmlns:svg="http://www.w3.org/2000/svg"
   xmlns="http://www.w3.org/2000/svg"
   xmlns:sodipodi="http://sodipodi.sourceforge.net/DTD/sodipodi-0.dtd"
   xmlns:inkscape="http://www.inkscape.org/namespaces/inkscape"
   version="1.1"
   id="svg2"
   width="16"
   height="16"
   viewBox="0 0 16 16"
   sodipodi:docname="LOAD_PLY.svg"
   inkscape:version="0.92.4 (5da689c313, 2019-01-14)">
  <metadata
     id="metadata8">
    <rdf:RDF>
      <cc:Work
         rdf:about="">
        <dc:format>image/svg+xml</dc:format>
        <dc:type
           rdf:resource="http://purl.org/dc/dcmitype/StillImage" />
        <dc:title></dc:title>
      </cc:Work>
    </rdf:RDF>
  </metadata>
  <defs
     id="defs6" />
  <sodipodi:namedview
     pagecolor="#ffffff"
     bordercolor="#666666"
     borderopacity="1"
     objecttolerance="10"
     gridtolerance="10"
     guidetolerance="10"
     inkscape:pageopacity="0"
     inkscape:pageshadow="2"
     inkscape:window-width="828"
     inkscape:window-height="480"
     id="namedview4"
     showgrid="false"
     inkscape:zoom="14.75"
     inkscape:cx="8"
     inkscape:cy="8"
     inkscape:window-x="0"
     inkscape:window-y="0"
     inkscape:window-maximized="0"
     inkscape:current-layer="svg2" />
  <g
     id="LOAD_PLY">
    <path
       style="fill:#ffffff;stroke-width:0.03125"
       d="M 0,8 V 0 h 8 8 v 8 8 H 8 0 Z m 14.269218,7.419944 c 0.04746,-0.03544 0.115289,-0.10326 0.150726,-0.150717 0.06388,-0.08555 0.06457,-0.114528 0.08023,-3.373069 0.01206,-2.5086014 0.02501,-3.3126299 0.05469,-3.3959517 0.05179,-0.1453816 0.04704,-0.4237569 -0.0099,-0.5783313 -0.03893,-0.1057397 -0.0453,-0.4310747 -0.04132,-2.1114188 0.0032,-1.3594012 -0.0058,-2.0055015 -0.02869,-2.046875 C 14.456606,3.7303303 13.726987,2.9904172 12.853601,2.1193299 11.498725,0.76802122 11.24957,0.53275856 11.15625,0.51662209 c -0.06016,-0.010402 -2.18608,-0.0148817 -4.724275,-0.009955 -4.6053439,0.008939 -4.6150786,0.009091 -4.7011941,0.0733887 -0.047462,0.035437 -0.115288,0.10326428 -0.150725,0.15072728 l -0.064431,0.0862964 -0.0089,7.09927263 c -0.0049,3.9045999 -8.222e-4,7.1445619 0.00906,7.1999149 0.022348,0.125235 0.1536701,0.284907 0.2795488,0.339901 0.07849,0.03429 1.1793649,0.04045 6.2414474,0.03492 l 6.1461489,-0.0067 z"
       id="path827"
       inkscape:connector-curvature="0" />
    <path
       style="fill:#fefefe;stroke-width:0.03125"
       d="M 2,14.203948 V 13.407895 L 1.8664419,13.27426 C 1.7929849,13.200761 1.6980631,13.070313 1.6555044,12.984375 L 1.578125,12.828125 V 10.375 7.921875 L 1.655504,7.765625 C 1.6980631,7.6796875 1.7929849,7.5492394 1.8664419,7.47574 L 2,7.3421053 V 4.1710525 1 H 6.25 10.5 V 2.75 4.5 H 12.25 14 l 5.62e-4,1.3984375 5.63e-4,1.3984375 0.153236,0.1001797 c 0.370258,0.2420603 0.532897,0.7447153 0.380893,1.1771931 -0.03217,0.09154 -0.165767,0.3309553 -0.296875,0.5320341 L 14,9.4718797 V 12.23594 15 H 8 2 Z m 10.998508,-0.83676 c -0.0014,-0.615092 -0.0029,-0.62888 -0.05063,-0.492356 -0.107578,0.307481 -0.334414,0.531723 -0.64428,0.636909 -0.198334,0.06733 -1.532902,0.07213 -1.717697,0.0062 -0.09891,-0.0353 -0.137271,-0.03493 -0.245502,0.0024 -0.105873,0.03648 -0.4346941,0.04266 -1.8827735,0.03539 l -1.7544975,-0.0088 -0.15625,-0.07738 C 6.3473503,13.370685 6.1601322,13.183286 6.0622244,12.984375 5.9906544,12.838972 5.9845706,12.788727 5.9745894,12.260613 L 5.9638637,11.6931 5.789645,11.770148 c -0.2062047,0.09119 -0.5978594,0.186223 -0.8882216,0.215515 l -0.2079512,0.02098 -0.012098,0.410741 c -0.010506,0.356696 -0.022109,0.431302 -0.088178,0.566992 -0.096888,0.198984 -0.2843418,0.386587 -0.4838209,0.484203 -0.1405906,0.0688 -0.2040112,0.07762 -0.6328125,0.088 L 3,13.568109 V 13.784055 14 h 5 5 L 12.9985,13.367188 Z M 3.6875,11.796875 V 11.03125 l 0.070312,-7.75e-4 c 0.038672,-4.25e-4 0.3097212,-0.01345 0.6023319,-0.02893 0.8075181,-0.04274 1.0674615,-0.120426 1.37444,-0.410753 C 6.0202294,10.320637 6.1448275,9.9655306 6.1168297,9.5013844 6.0931272,9.1084416 6.0065291,8.9068756 5.7528578,8.6542009 5.5931819,8.4951522 5.4984316,8.4297884 5.3313888,8.3634491 5.0408097,8.2480484 4.7882691,8.2253306 3.5859375,8.2064325 L 2.5625,8.1903462 V 10.376423 12.5625 H 3.125 3.6875 Z m 0,-2.1779812 V 8.9943906 l 0.4765625,0.010617 c 0.4318147,0.00962 0.4873578,0.01733 0.5915328,0.082108 C 4.9095262,9.1828334 5,9.3744031 5,9.60462 5,9.8332184 4.9441219,9.9642325 4.7937631,10.088171 4.6537434,10.203587 4.6155512,10.211217 4.0859375,10.229581 L 3.6875,10.243397 Z m 6.375,2.5217312 V 11.71875 H 9.078125 8.09375 V 9.953125 8.1875 h -0.5625 -0.5625 v 2.1875 2.1875 H 8.515625 10.0625 Z M 12,11.621366 v -0.941134 l 0.776122,-1.1916782 c 0.426867,-0.6554235 0.786291,-1.2092569 0.798719,-1.2307413 0.01775,-0.030688 -0.103424,-0.038749 -0.565184,-0.037602 l -0.587782,0.00146 -0.481507,0.7641647 C 11.675539,9.4061259 11.448405,9.75 11.435626,9.75 11.422846,9.75 11.197105,9.4109203 10.933978,8.9964894 10.670851,8.5820588 10.440481,8.2371906 10.422044,8.2301159 c -0.01844,-0.00707 -0.283457,-0.00901 -0.5889362,-0.0043 l -0.5554162,0.00856 0.6515834,1 c 0.358371,0.55 0.717765,1.0982871 0.798654,1.2184161 L 10.875,10.671208 V 11.616854 12.5625 H 11.4375 12 Z M 9.4164319,10.304688 C 9.2685019,10.076953 9.1353819,9.8772656 9.1206094,9.8609375 9.1054975,9.8442344 9.09375,10.025334 9.09375,10.275 v 0.44375 H 9.3895725 9.6853953 Z M 11.566813,7.6899962 C 11.784548,7.3410884 12.059543,7.21875 12.626092,7.21875 H 13 V 6.109375 5 H 11.5 10 V 3.5 2 H 6.5 3 v 2.5891181 2.5891185 l 0.2578125,0.020069 c 0.1417969,0.011038 0.5601563,0.020588 0.9296875,0.021222 0.9591709,0.00164 1.2246931,0.047055 1.7282294,0.2955666 L 6.1283337,7.6200213 6.2594794,7.4889525 c 0.07213,-0.072088 0.2014581,-0.1658894 0.2873956,-0.2084481 0.1513075,-0.074932 0.1803084,-0.077691 0.9168394,-0.087227 0.8056219,-0.010431 0.977104,0.011544 1.1586375,0.148475 0.073652,0.055555 0.07883,0.054997 0.2342947,-0.025283 0.1572484,-0.081201 0.1674268,-0.082201 0.9352928,-0.091911 0.6544946,-0.00828 0.8021116,-0.0017 0.9407086,0.041892 0.214682,0.067526 0.443451,0.2429285 0.579852,0.4445857 0.06016,0.088936 0.116406,0.161575 0.125,0.16142 0.0086,-1.563e-4 0.06678,-0.082262 0.129313,-0.1824599 z m 0.941,-3.6821765 L 11,3.9993997 V 2.4920082 0.98461663 L 12.515625,2.5 c 0.833594,0.8334609 1.515625,1.5189534 1.515625,1.5233166 0,0.00436 -0.0035,0.00456 -0.0078,4.281e-4 -0.0043,-0.00413 -0.686329,-0.011294 -1.515625,-0.015925 z"
       id="path825"
       inkscape:connector-curvature="0" />
    <path
       style="fill:#cb9865;stroke-width:0.03125"
       d="m 3,13.784055 v -0.215946 l 0.4765625,-0.01153 c 0.4288013,-0.01038 0.4922219,-0.0192 0.6328125,-0.088 0.1994791,-0.09762 0.3869334,-0.285219 0.4838209,-0.484203 0.066069,-0.13569 0.077672,-0.210296 0.088178,-0.566992 l 0.012098,-0.410741 0.2079512,-0.02098 C 5.1917853,11.956373 5.58344,11.861342 5.7896447,11.770148 l 0.1742187,-0.07705 0.010726,0.567512 c 0.00998,0.528115 0.016065,0.57836 0.087635,0.723763 0.097908,0.198911 0.2851259,0.38631 0.4846506,0.485121 l 0.15625,0.07738 1.7544975,0.0088 c 1.4480794,0.0073 1.7769005,0.0011 1.8827735,-0.03539 0.108231,-0.03729 0.146593,-0.03766 0.245502,-0.0024 0.184795,0.06595 1.519363,0.06114 1.717697,-0.0062 0.309866,-0.105186 0.536702,-0.329428 0.64428,-0.63691 0.04777,-0.136523 0.04918,-0.122735 0.05063,0.492356 L 13,14 H 8 3 Z M 9.09375,10.275 c 0,-0.249666 0.011748,-0.4307656 0.026859,-0.4140625 0.014773,0.016328 0.1478925,0.2160155 0.2958225,0.4437505 L 9.6853953,10.71875 H 9.3895725 9.09375 Z M 11.3125,7.7110366 C 11.176099,7.5093794 10.94733,7.3339769 10.732648,7.2664509 10.594051,7.2228569 10.446434,7.2162831 9.7919394,7.2245587 9.0240734,7.2342681 9.013895,7.2352684 8.8566466,7.3164694 8.7011819,7.3967491 8.6960034,7.3973078 8.6223519,7.3417525 8.4408184,7.2048216 8.2693363,7.1828469 7.4637144,7.1932775 6.7271834,7.2028134 6.6981825,7.2055725 6.546875,7.2805044 6.4609375,7.3230631 6.3316094,7.4168647 6.2594794,7.4889525 L 6.1283337,7.6200212 5.9157294,7.5150941 C 5.4121931,7.2665828 5.1466709,7.2211725 4.1875,7.2195275 3.8179688,7.2188931 3.3996094,7.2093441 3.2578125,7.1983059 L 3,7.1782366 V 4.5891181 2 H 6.5 10 V 3.5 5 H 11.5 13 V 6.109375 7.21875 h -0.373908 c -0.566549,0 -0.841544,0.1223384 -1.059279,0.4712462 -0.06253,0.1001979 -0.120719,0.1823051 -0.129313,0.1824604 -0.0086,1.562e-4 -0.06484,-0.072484 -0.125,-0.16142 z"
       id="path823"
       inkscape:connector-curvature="0" />
    <path
       style="fill:#656565;stroke-width:0.03125"
       d="M 10.5,2.75 V 1 H 10.75 11 V 2.5 4 H 12.5 14 V 4.25 4.5 H 12.25 10.5 Z"
       id="path821"
       inkscape:connector-curvature="0" />
    <path
       style="fill:#323232;stroke-width:0.03125"
       d="m 1.7953257,15.456168 c -0.1258787,-0.05499 -0.2572003,-0.214666 -0.2795488,-0.3399 -0.00988,-0.05535 -0.013953,-3.295316 -0.00906,-7.1999158 l 0.0089,-7.09927261 0.064431,-0.0862964 c 0.035437,-0.047463 0.1032633,-0.11529031 0.150725,-0.15072728 0.086116,-0.0642975 0.09585,-0.0644495 4.7011941,-0.0733887 2.538195,-0.004927 4.664119,-4.4719e-4 4.724275,0.009955 0.09329,0.0161318 0.343039,0.25178866 1.698528,1.60270779 0.924023,0.920908 1.604338,1.6230335 1.625434,1.6775451 0.02678,0.069191 0.03208,0.5999391 0.02022,2.0260441 l -0.01606,1.932294 -0.09675,-0.1373172 C 14.334404,7.542371 14.225263,7.4392454 14.145083,7.388727 l -0.145782,-0.091852 0.0014,-1.6550562 0.0014,-1.6550563 L 12.509007,2.4933812 11.015869,1 H 6.5079347 2 V 4.1710525 7.3421053 L 1.8664419,7.47574 C 1.7929849,7.5492394 1.6980631,7.6796875 1.6555044,7.765625 L 1.578125,7.921875 V 10.375 12.828125 l 0.077379,0.15625 c 0.042559,0.08594 0.1374805,0.216386 0.2109375,0.289885 L 2,13.407895 V 14.203948 15 h 6 6 V 12.236362 9.4727238 l 0.250259,-0.3847994 0.25026,-0.3847994 -0.0081,3.239904 c -0.008,3.217244 -0.0085,3.240507 -0.0725,3.326194 -0.03544,0.04746 -0.103264,0.115284 -0.150726,0.150721 l -0.0863,0.06443 -6.1461489,0.0067 c -5.0620825,0.0055 -6.1629571,-6.3e-4 -6.2414474,-0.03492 z M 2.5625,10.376423 V 8.1903463 l 1.0234375,0.016087 c 1.2023316,0.018898 1.4548722,0.041616 1.7454513,0.1570166 0.1670428,0.066339 0.2617931,0.1317031 0.421469,0.2907519 0.2536713,0.2526746 0.3402694,0.4542406 0.3639719,0.8471834 0.027998,0.4641462 -0.0966,0.8192528 -0.3822453,1.0894038 -0.3069785,0.290327 -0.5669219,0.368012 -1.37444,0.410753 -0.2926107,0.01549 -0.56366,0.02851 -0.6023319,0.02893 L 3.6875,11.03125 V 11.796875 12.5625 H 3.125 2.5625 Z M 4.5789434,10.201529 C 4.7027275,10.182894 4.9027316,10.016053 4.9570072,9.8861534 4.9806531,9.8295606 5,9.7028706 5,9.60462 5,9.3744031 4.9095262,9.1828334 4.7555953,9.0871159 4.6514203,9.0223378 4.5958772,9.0146281 4.1640625,9.0050078 L 3.6875,8.9943906 v 0.6245032 0.6245032 l 0.3984375,-0.01382 c 0.2191406,-0.0076 0.4409934,-0.02022 0.4930059,-0.02805 z M 6.96875,10.375 V 8.1875 h 0.5625 0.5625 V 9.953125 11.71875 H 9.078125 10.0625 V 12.140625 12.5625 H 8.515625 6.96875 Z M 10.875,11.616854 V 10.671208 L 10.727929,10.452791 C 10.64704,10.332663 10.287646,9.784375 9.929275,9.234375 l -0.6515834,-1 0.5554162,-0.00856 c 0.3054792,-0.00471 0.5705002,-0.00277 0.5889362,0.0043 0.01844,0.00707 0.248807,0.3519429 0.511934,0.7663735 C 11.197105,9.4109203 11.422846,9.75 11.435626,9.75 c 0.01278,0 0.239913,-0.3438741 0.504742,-0.7641647 l 0.481507,-0.7641647 0.587782,-0.00146 c 0.46176,-0.00115 0.582937,0.00691 0.565184,0.037602 -0.01243,0.021484 -0.371852,0.5753178 -0.798719,1.2307413 L 12,10.680233 V 11.621366 12.5625 H 11.4375 10.875 Z"
       id="path819"
       inkscape:connector-curvature="0" />
  </g>
</svg>
