<?xml version="1.0" encoding="UTF-8" standalone="no"?>
<!-- Created with Inkscape (http://www.inkscape.org/) -->

<svg
   xmlns:dc="http://purl.org/dc/elements/1.1/"
   xmlns:cc="http://creativecommons.org/ns#"
   xmlns:rdf="http://www.w3.org/1999/02/22-rdf-syntax-ns#"
   xmlns:svg="http://www.w3.org/2000/svg"
   xmlns="http://www.w3.org/2000/svg"
   xmlns:sodipodi="http://sodipodi.sourceforge.net/DTD/sodipodi-0.dtd"
   xmlns:inkscape="http://www.inkscape.org/namespaces/inkscape"
   version="1.1"
   id="svg2"
   width="16"
   height="16"
   viewBox="0 0 16 16"
   sodipodi:docname="LOAD_BVH.svg"
   inkscape:version="0.92.4 (5da689c313, 2019-01-14)">
  <metadata
     id="metadata8">
    <rdf:RDF>
      <cc:Work
         rdf:about="">
        <dc:format>image/svg+xml</dc:format>
        <dc:type
           rdf:resource="http://purl.org/dc/dcmitype/StillImage" />
        <dc:title></dc:title>
      </cc:Work>
    </rdf:RDF>
  </metadata>
  <defs
     id="defs6" />
  <sodipodi:namedview
     pagecolor="#ffffff"
     bordercolor="#666666"
     borderopacity="1"
     objecttolerance="10"
     gridtolerance="10"
     guidetolerance="10"
     inkscape:pageopacity="0"
     inkscape:pageshadow="2"
     inkscape:window-width="983"
     inkscape:window-height="750"
     id="namedview4"
     showgrid="false"
     inkscape:zoom="14.75"
     inkscape:cx="8"
     inkscape:cy="8"
     inkscape:window-x="0"
     inkscape:window-y="0"
     inkscape:window-maximized="0"
     inkscape:current-layer="svg2" />
  <g
     id="LOAD_BVH">
    <path
       style="fill:#ffffff;stroke-width:0.03125"
       d="M 0,8 V 0 h 8 8 v 8 8 H 8 0 Z m 14.269218,7.419944 c 0.215384,-0.160812 0.214221,-0.155402 0.224431,-1.043957 l 0.0093,-0.80708 0.113494,-0.02129 c 0.299839,-0.05625 0.587026,-0.278418 0.728079,-0.563241 l 0.07738,-0.15625 V 10.375 7.921875 l -0.07738,-0.15625 C 15.202755,7.4794116 14.916312,7.258645 14.612821,7.2017097 l -0.117089,-0.021966 0.007,-1.67666 c 0.0048,-1.1630628 -0.0035,-1.6955443 -0.02708,-1.738309 C 14.456893,3.7308672 13.726987,2.9904172 12.853601,2.1193299 11.498725,0.76802122 11.24957,0.53275856 11.15625,0.51662209 c -0.06016,-0.010402 -2.18608,-0.0148817 -4.724275,-0.009955 -4.6053439,0.008939 -4.6150786,0.009091 -4.7011941,0.0733887 -0.047462,0.035437 -0.115288,0.10326146 -0.150725,0.15072103 -0.063958,0.0856561 -0.064492,0.10966953 -0.072678,3.26811028 l -0.00825,3.18182 -0.1145207,0.021484 C 1.0837281,7.2586375 0.79675441,7.4804028 0.65550441,7.765625 L 0.578125,7.921875 V 10.375 12.828125 l 0.0773794,0.15625 c 0.14133334,0.28539 0.428217,0.506986 0.7295405,0.563515 L 1.5,13.569456 v 0.760112 c 0,0.787604 0.011852,0.876372 0.1348941,1.010354 0.1533728,0.167008 -0.2115362,0.158391 6.401879,0.151167 l 6.1461489,-0.0067 z"
       id="path827"
       inkscape:connector-curvature="0" />
    <path
       style="fill:#fefefe;stroke-width:0.03125"
       d="M 2,14.284623 V 13.569245 L 1.6484375,13.556281 C 1.357592,13.545556 1.2698897,13.53026 1.140625,13.467716 0.94254337,13.371876 0.75474312,13.184765 0.65550441,12.984375 L 0.578125,12.828125 V 10.375 7.921875 L 0.6555044,7.765625 C 0.75474312,7.565235 0.94254337,7.3781238 1.140625,7.2822838 1.2698897,7.2197403 1.357592,7.2044444 1.6484375,7.1937191 L 2,7.1807547 V 4.0903772 1 H 6.25 10.5 V 2.75 4.5 H 12.25 14 v 1.3403772 1.3403775 l 0.351563,0.012964 c 0.290845,0.010725 0.378547,0.026021 0.507812,0.088565 0.198082,0.09584 0.385882,0.2829513 0.485121,0.4833413 l 0.07738,0.15625 V 10.375 12.828125 l -0.07738,0.15625 c -0.09924,0.20039 -0.287039,0.387501 -0.485121,0.483341 -0.129265,0.06254 -0.216967,0.07784 -0.507812,0.08857 L 14,13.569245 V 14.284623 15 H 8 2 Z m 11,-0.528609 v -0.243986 l -0.130368,-0.05752 c -0.0717,-0.03164 -0.187719,-0.115201 -0.257813,-0.185702 l -0.127444,-0.128183 -0.125,0.125746 c -0.06875,0.06916 -0.195312,0.160566 -0.28125,0.203125 -0.154397,0.07646 -0.166071,0.07738 -0.984375,0.07738 -0.818304,0 -0.829978,-9.19e-4 -0.984375,-0.07738 C 9.7516569,13.292343 9.5640994,12.993576 9.5342534,12.553362 L 9.515625,12.278599 9.3789369,12.647112 C 9.2219466,13.070361 9.1150347,13.242107 8.9287981,13.370227 8.6683625,13.549391 8.5805366,13.5625 7.640625,13.5625 c -0.9399116,0 -1.0277375,-0.01311 -1.2881731,-0.192273 -0.16903,-0.116283 -0.2878697,-0.292142 -0.4065682,-0.60164 -0.089774,-0.23408 -0.096799,-0.243196 -0.1339331,-0.17381 -0.075583,0.141228 -0.3297153,0.38528 -0.5554331,0.533403 C 4.7733647,13.445238 4.3024084,13.5625 3.5121728,13.5625 H 3 V 13.78125 14 h 5 5 z M 4.0805809,12.516135 c 0.4748694,-0.09086 0.8143282,-0.312743 0.9731475,-0.636092 0.080373,-0.163635 0.086897,-0.205073 0.086897,-0.551918 0,-0.347468 -0.00643,-0.388084 -0.087511,-0.553207 C 4.9533834,10.571827 4.709686,10.334982 4.5442841,10.280395 l -0.1098047,-0.03624 0.140851,-0.08933 C 4.8705866,9.9675847 4.9845809,9.7024647 4.9630919,9.2530012 4.9459272,8.8939906 4.8410994,8.6691725 4.60882,8.4932162 4.2680284,8.23506 3.9614534,8.1880369 2.6171875,8.1877359 L 1.5625,8.1875 v 2.1875 2.1875 h 1.137876 c 0.8761653,0 1.1936115,-0.01066 1.3802049,-0.04636 z M 2.6875,11.229599 v -0.582902 l 0.4577225,0.01855 c 0.3945384,0.01599 0.4770691,0.02851 0.5978753,0.09071 C 3.927515,10.850918 4,10.986666 4,11.237079 4,11.444663 3.93503,11.57886 3.7783719,11.694857 3.6818579,11.766317 3.3812253,11.810046 2.9765625,11.811478 L 2.6875,11.8125 Z m 0,-1.807724 V 8.9285188 l 0.4002984,0.016236 c 0.4321382,0.017526 0.5426188,0.050943 0.6594422,0.1994606 0.092702,0.1178509 0.092702,0.4374691 0,0.55532 C 3.6304172,9.8480522 3.5199366,9.8814691 3.0877984,9.8989956 L 2.6875,9.9152313 Z m 6.4355213,0.992143 C 9.5602141,9.2324019 9.9238281,8.2480469 9.9310522,8.2265625 9.9412453,8.1962478 9.8148556,8.1875 9.3666722,8.1875 H 8.7891575 L 8.5391719,8.8828125 C 8.40168,9.2652344 8.1437419,9.9828847 7.9659759,10.477591 7.750775,11.076477 7.6357831,11.358182 7.6218712,11.320574 7.5888525,11.231316 6.5576728,8.3690919 6.5240728,8.2734375 L 6.4938859,8.1875 H 5.9165266 c -0.4664657,0 -0.5754188,0.00803 -0.5672554,0.041831 0.00556,0.023007 0.3686975,1.0073622 0.8069788,2.187456 l 0.796875,2.145624 h 0.6875 0.6875 z M 11.65625,11.640625 V 10.71875 h 0.828125 0.828125 v 0.921875 0.921875 h 0.5625 0.5625 V 10.375 8.1875 H 13.875 13.3125 V 9.03125 9.875 H 12.484375 11.65625 V 9.03125 8.1875 h -0.5625 -0.5625 v 2.1875 2.1875 h 0.5625 0.5625 z M 7.967915,7.6105887 C 8.0829919,7.44333 8.2750566,7.3047441 8.4862694,7.2365659 8.6209269,7.1930991 8.8499925,7.1877859 10.28125,7.1949328 l 1.640625,0.00819 0.15625,0.077409 c 0.08594,0.042575 0.2125,0.1339812 0.28125,0.203125 l 0.125,0.1257159 0.127295,-0.1281172 c 0.07001,-0.070465 0.186028,-0.1540303 0.257813,-0.1857016 L 13,7.2379719 V 6.1189859 5 H 11.5 10 V 3.5 2 H 6.5 3 V 4.59375 7.1875 h 0.4334066 c 0.4567587,0 0.8407746,0.051403 1.1308331,0.1513697 0.1663906,0.057346 0.1767928,0.057539 0.25,0.00466 C 5.0001653,7.2092278 5.1544094,7.1875 5.921875,7.1875 c 0.5935309,0 0.7605081,0.00961 0.8817203,0.050759 0.3544509,0.120321 0.5516038,0.3477416 0.7320694,0.8444594 L 7.6395162,8.3685619 7.7555337,8.0596053 C 7.8193431,7.8896794 7.9149147,7.6876219 7.967915,7.6105887 Z M 12.507813,4.0078197 11,3.9993997 V 2.4920082 0.98461663 L 12.515625,2.5 c 0.833594,0.8334609 1.515625,1.5189534 1.515625,1.5233166 0,0.00436 -0.0035,0.00456 -0.0078,4.281e-4 -0.0043,-0.00413 -0.686329,-0.011294 -1.515625,-0.015925 z"
       id="path825"
       inkscape:connector-curvature="0" />
    <path
       style="fill:#cbfecb;stroke-width:0.03125"
       d="M 3,13.78125 V 13.5625 h 0.5121728 c 0.7902356,0 1.2611919,-0.117262 1.7443447,-0.43432 0.2257178,-0.148123 0.4798503,-0.392175 0.5554331,-0.533403 0.037134,-0.06939 0.044159,-0.06027 0.1339331,0.173811 0.1186985,0.309497 0.2375382,0.485356 0.4065682,0.601639 0.2604356,0.179164 0.3482615,0.192273 1.2881731,0.192273 0.9399116,0 1.0277375,-0.01311 1.2881731,-0.192273 0.1862366,-0.12812 0.2931485,-0.299866 0.4501388,-0.723115 l 0.1366881,-0.368513 0.018628,0.274763 c 0.029846,0.440214 0.2174035,0.738981 0.575122,0.916134 0.154397,0.07646 0.166071,0.07738 0.984375,0.07738 0.818304,0 0.829978,-9.19e-4 0.984375,-0.07738 0.08594,-0.04256 0.2125,-0.133965 0.28125,-0.203125 l 0.125,-0.125746 0.127444,0.128183 c 0.07009,0.0705 0.18611,0.154067 0.257813,0.185702 L 13,13.512028 V 13.756014 14 H 8 3 Z M 7.5356647,8.0827184 C 7.3551991,7.5860006 7.1580462,7.35858 6.8035953,7.2382591 6.6823831,7.1971125 6.5154059,7.1875 5.921875,7.1875 c -0.7674656,0 -0.9217097,0.021728 -1.1076353,0.1560287 -0.073207,0.05288 -0.083609,0.052687 -0.25,-0.00466 C 4.2741812,7.2389031 3.8901653,7.1875 3.4334066,7.1875 H 3 V 4.59375 2 H 6.5 10 V 3.5 5 h 1.5 1.5 v 1.1189859 1.118986 l -0.130517,0.057584 c -0.07179,0.031671 -0.187801,0.1152369 -0.257813,0.1857016 l -0.127295,0.1281172 -0.125,-0.1257159 c -0.06875,-0.069144 -0.195312,-0.16055 -0.28125,-0.203125 L 11.921875,7.203125 10.28125,7.1949328 C 8.4762422,7.1859197 8.4781934,7.1857478 8.1980962,7.37846 8.0161925,7.5036128 7.8932775,7.6927909 7.7555337,8.0596053 L 7.6395162,8.3685619 Z"
       id="path823"
       inkscape:connector-curvature="0" />
    <path
       style="fill:#656565;stroke-width:0.03125"
       d="M 10.5,2.75 V 1 H 10.75 11 V 2.5 4 H 12.5 14 V 4.25 4.5 H 12.25 10.5 Z"
       id="path821"
       inkscape:connector-curvature="0" />
    <path
       style="fill:#323232;stroke-width:0.03125"
       d="M 1.796875,15.456011 C 1.6818888,15.404752 1.5776699,15.294675 1.5333316,15.177653 1.5130323,15.124078 1.5,14.791124 1.5,14.326091 V 13.5625 H 1.75 2 V 14.28125 15 h 6 6 V 14.28125 13.5625 h 0.25148 0.251479 l -0.0093,0.810283 c -0.01023,0.892143 -0.009,0.886281 -0.224449,1.047161 l -0.0863,0.06443 -6.1461489,0.0067 c -5.0744435,0.0055 -6.1624953,-5.73e-4 -6.2398981,-0.03508 z M 1.5625,10.375 V 8.1875 l 1.0546875,2.5e-4 c 1.3442659,3.125e-4 1.6508409,0.047324 1.9916325,0.3054803 0.2322794,0.1759563 0.3371072,0.4007744 0.3542719,0.759785 0.021489,0.4494635 -0.092505,0.7145835 -0.3877622,0.9018297 l -0.140851,0.08933 0.1098047,0.03624 c 0.1654019,0.05459 0.4090988,0.291432 0.5088303,0.494524 0.081086,0.165122 0.087511,0.205738 0.087511,0.553206 0,0.346845 -0.00652,0.388283 -0.086897,0.551918 -0.106575,0.216981 -0.2812959,0.37937 -0.5368553,0.498961 C 4.1706353,12.541028 3.9580722,12.5625 2.700376,12.5625 H 1.5625 Z m 1.9189969,1.407645 C 3.834525,11.737166 4,11.563054 4,11.237079 4,10.986666 3.927515,10.850918 3.7430978,10.755957 3.6222916,10.693751 3.5397609,10.681229 3.1452225,10.665243 L 2.6875,10.646698 v 0.582901 0.582901 l 0.2890625,-10e-4 c 0.1589844,-5.62e-4 0.3862047,-0.01354 0.5049344,-0.02883 z M 3.5850391,9.8326297 C 3.75473,9.7448791 3.8125,9.6405563 3.8125,9.421875 3.8125,9.2717534 3.7975594,9.2081847 3.7472406,9.144215 3.6304172,8.9956978 3.5199366,8.9622809 3.0877984,8.9447544 L 2.6875,8.9285188 V 9.421875 9.9152313 L 3.0877984,9.8989956 C 3.3673725,9.8876569 3.5173331,9.8676416 3.5850391,9.8326297 Z M 6.15625,10.416787 C 5.7179687,9.2366931 5.3548281,8.2523381 5.3492712,8.2293309 5.3411078,8.1955344 5.4500609,8.1875 5.9165266,8.1875 h 0.5773593 l 0.030187,0.085937 c 0.0336,0.095654 1.0647797,2.957878 1.0977984,3.047137 0.013912,0.03761 0.1289038,-0.244097 0.3441047,-0.842983 C 8.1437419,9.9828847 8.40168,9.2652344 8.5391719,8.8828125 L 8.7891575,8.1875 h 0.5775147 c 0.4481834,0 0.5745731,0.00875 0.56438,0.039063 -0.00722,0.021484 -0.3708381,1.0058394 -0.8080309,2.187456 L 8.328125,12.562411 h -0.6875 -0.6875 z m 4.375,-0.04179 V 8.1875 h 0.5625 0.5625 V 9.03125 9.875 H 12.484375 13.3125 V 9.03125 8.1875 h 0.5625 0.5625 v 2.1875 2.1875 H 13.875 13.3125 V 11.640625 10.71875 H 12.484375 11.65625 v 0.921875 0.921875 h -0.5625 -0.5625 z M 1.5073766,4.0022834 c 0.00819,-3.16186996 0.00872,-3.18584874 0.072679,-3.27150646 0.035437,-0.0474596 0.1032633,-0.11528407 0.150725,-0.15072103 0.086116,-0.0642975 0.09585,-0.0644495 4.7011941,-0.0733887 2.538195,-0.004927 4.6641193,-4.4719e-4 4.7242753,0.009955 0.09329,0.0161318 0.343039,0.25178866 1.698528,1.60270779 0.918998,0.9158996 1.604553,1.6233301 1.625672,1.6775451 0.02672,0.06858 0.03364,0.5363244 0.02581,1.7421875 L 14.495557,7.1875 H 14.247239 13.99892 L 14.00057,5.5871694 14.00222,3.9868388 12.509045,2.4934193 11.015869,1 H 6.5079347 2 V 4.09375 7.1875 H 1.7495641 1.4991283 Z"
       id="path819"
       inkscape:connector-curvature="0" />
  </g>
</svg>
