<?xml version="1.0" encoding="UTF-8" standalone="no"?>
<!-- Created with Inkscape (http://www.inkscape.org/) -->

<svg
   xmlns:dc="http://purl.org/dc/elements/1.1/"
   xmlns:cc="http://creativecommons.org/ns#"
   xmlns:rdf="http://www.w3.org/1999/02/22-rdf-syntax-ns#"
   xmlns:svg="http://www.w3.org/2000/svg"
   xmlns="http://www.w3.org/2000/svg"
   xmlns:sodipodi="http://sodipodi.sourceforge.net/DTD/sodipodi-0.dtd"
   xmlns:inkscape="http://www.inkscape.org/namespaces/inkscape"
   version="1.1"
   id="svg2"
   width="16"
   height="16"
   viewBox="0 0 16 16"
   sodipodi:docname="LOAD_DAE.svg"
   inkscape:version="0.92.4 (5da689c313, 2019-01-14)">
  <metadata
     id="metadata8">
    <rdf:RDF>
      <cc:Work
         rdf:about="">
        <dc:format>image/svg+xml</dc:format>
        <dc:type
           rdf:resource="http://purl.org/dc/dcmitype/StillImage" />
        <dc:title></dc:title>
      </cc:Work>
    </rdf:RDF>
  </metadata>
  <defs
     id="defs6" />
  <sodipodi:namedview
     pagecolor="#ffffff"
     bordercolor="#666666"
     borderopacity="1"
     objecttolerance="10"
     gridtolerance="10"
     guidetolerance="10"
     inkscape:pageopacity="0"
     inkscape:pageshadow="2"
     inkscape:window-width="828"
     inkscape:window-height="480"
     id="namedview4"
     showgrid="false"
     inkscape:zoom="14.75"
     inkscape:cx="8"
     inkscape:cy="8"
     inkscape:window-x="0"
     inkscape:window-y="0"
     inkscape:window-maximized="0"
     inkscape:current-layer="svg2" />
  <g
     id="LOAD_DAE">
    <path
       style="fill:#ffffff;stroke-width:0.03125"
       d="M 0,8 V 0 h 8 8 v 8 8 H 8 0 Z m 14.269218,7.419944 c 0.215768,-0.161099 0.214221,-0.153814 0.224395,-1.057026 l 0.0092,-0.820143 0.115762,-0.04144 c 0.178194,-0.06379 0.37022,-0.20822 0.470364,-0.35379 0.167403,-0.243339 0.192273,-0.373583 0.192273,-1.006923 0,-0.616603 -0.02573,-0.762594 -0.17248,-0.978552 -0.05941,-0.08744 -0.0665,-0.121977 -0.04182,-0.203979 0.01634,-0.0543 0.02672,-0.394031 0.02308,-0.754969 -0.006,-0.590535 -6.31e-4,-0.6687672 0.05323,-0.78125 0.05337,-0.1114556 0.05985,-0.1994947 0.05986,-0.8125 1.2e-5,-0.6686769 -0.0021,-0.6917781 -0.07737,-0.84375 -0.09902,-0.1999559 -0.287986,-0.3885356 -0.47944,-0.4784703 l -0.150569,-0.070729 0.0069,-1.695069 c 0.0048,-1.1751706 -0.0035,-1.7139566 -0.02708,-1.7566503 -0.0187,-0.03387 -0.74859,-0.7742894 -1.621976,-1.6453767 C 11.498725,0.76802122 11.24957,0.53275856 11.15625,0.51662209 c -0.06016,-0.010402 -2.18608,-0.0148817 -4.724275,-0.009955 -4.6053439,0.008939 -4.6150786,0.009091 -4.7011941,0.0733887 -0.047462,0.035437 -0.115288,0.10326146 -0.150725,0.15072103 -0.063958,0.0856561 -0.064492,0.10966953 -0.072678,3.26811028 l -0.00825,3.18182 -0.1145207,0.021484 C 1.0837281,7.2586375 0.79675441,7.4804028 0.65550441,7.765625 L 0.578125,7.921875 V 10.375 12.828125 l 0.0773794,0.15625 c 0.14133334,0.28539 0.428217,0.506986 0.7295405,0.563515 L 1.5,13.569456 v 0.760112 c 0,0.787604 0.011852,0.876372 0.1348941,1.010354 0.1533728,0.167008 -0.2115362,0.158391 6.401879,0.151167 l 6.1461489,-0.0067 z"
       id="path827"
       inkscape:connector-curvature="0" />
    <path
       style="fill:#fefefe;stroke-width:0.03125"
       d="M 2,14.284623 V 13.569245 L 1.6484375,13.556281 C 1.357592,13.545556 1.2698897,13.53026 1.140625,13.467716 0.94254337,13.371876 0.75474312,13.184765 0.65550441,12.984375 L 0.578125,12.828125 V 10.375 7.921875 L 0.6555044,7.765625 C 0.75474312,7.565235 0.94254337,7.3781238 1.140625,7.2822838 1.2698897,7.2197403 1.357592,7.2044444 1.6484375,7.1937191 L 2,7.1807547 V 4.0903772 1 H 6.25 10.5 V 2.75 4.5 H 12.25 14 v 1.3397347 1.339735 l 0.242188,0.014826 c 0.404084,0.024737 0.711225,0.2233416 0.883558,0.5713288 0.07526,0.1519719 0.07738,0.1750731 0.07737,0.84375 -10e-6,0.6130053 -0.0065,0.7010444 -0.05986,0.8125 -0.05386,0.1124828 -0.05919,0.190715 -0.05323,0.7812505 0.0036,0.360938 -0.0067,0.700673 -0.02308,0.754969 -0.02475,0.08226 -0.01755,0.116598 0.04316,0.205939 0.15378,0.226309 0.176788,0.371392 0.165437,1.043215 -0.0099,0.58587 -0.01484,0.629687 -0.08758,0.777127 -0.177818,0.360402 -0.479471,0.548928 -0.91452,0.571551 L 14,13.570145 V 14.285073 15 H 8 2 Z m 11,-0.50181 v -0.217186 l -1.054687,-0.01243 C 9.1158216,13.519857 9.2200544,13.523982 9.046875,13.438498 8.8472084,13.33994 8.6267838,13.119585 8.5379044,12.929688 L 8.4684297,12.78125 H 8.296875 8.1253203 l -0.069475,0.148438 c -0.088879,0.189897 -0.309304,0.410252 -0.5089706,0.50881 -0.1540047,0.07602 -0.1679259,0.07713 -0.96875,0.07713 -0.8016775,0 -0.8145813,-10e-4 -0.96875,-0.07738 -0.085937,-0.04256 -0.2151644,-0.13626 -0.2871709,-0.208224 L 5.1912834,13.099178 4.9159541,13.217428 C 4.4613347,13.41268 3.8378584,13.529377 3.2421875,13.530708 L 3,13.53125 V 13.765625 14 h 5 5 z M 2.890625,12.532305 c 0.9507056,-0.03385 1.3022597,-0.09383 1.703125,-0.290589 0.6686119,-0.328181 1.0625,-1.010963 1.0625,-1.841782 0,-0.6514493 -0.1904922,-1.1623834 -0.5745369,-1.5410109 C 4.8282887,8.6090738 4.4814291,8.4119063 4.15625,8.3328572 3.8864572,8.2672719 3.3116369,8.2263288 2.3515625,8.2043128 L 1.5625,8.1862184 V 10.374359 12.5625 l 0.2734375,-0.0012 c 0.1503906,-6.56e-4 0.625,-0.01371 1.0546875,-0.029 z M 2.6875,10.364088 V 9.0026147 l 0.3203125,0.016038 C 3.6923197,9.0529269 3.94735,9.1360387 4.20139,9.4076281 4.2820925,9.4939053 4.3858097,9.6449062 4.4318731,9.7431853 4.5106425,9.911245 4.515625,9.9488312 4.515625,10.375 c 0,0.447309 -0.0013,0.455775 -0.1010212,0.659583 -0.1239569,0.253333 -0.3168347,0.437351 -0.596491,0.569092 -0.19921,0.09384 -0.2297775,0.09887 -0.6696753,0.110109 L 2.6875,11.725562 Z m 11.59375,1.776537 V 11.71875 H 13.296875 12.3125 v -0.5 -0.5 h 0.890625 0.890625 V 10.296875 9.875 H 13.203125 12.3125 V 9.453125 9.03125 h 0.953125 0.953125 V 8.609375 8.1875 H 12.703125 11.1875 v 2.1875 2.1875 h 1.546875 1.546875 z m -7.0207778,0.0078 0.1274184,-0.367188 H 8.296875 9.2058594 l 0.1274184,0.367188 0.1274184,0.367187 0.5545278,0.0085 c 0.520269,0.008 0.553162,0.0051 0.53242,-0.04687 C 10.494213,12.343344 9.2720903,9.0643044 9.1208162,8.6490197 L 8.953125,8.1886647 8.59375,8.1882441 C 8.3960938,8.1880253 8.0986763,8.19681 7.9328225,8.2077941 L 7.6312697,8.2277647 6.8505181,10.32482 c -0.4294131,1.15338 -0.7910493,2.121996 -0.8036356,2.152478 -0.02148,0.05202 0.011128,0.0549 0.5316438,0.04687 l 0.5545274,-0.0085 z M 7.6875,10.948897 c 0,-0.02112 0.4354731,-1.2896536 0.5376175,-1.5660845 0.033343,-0.090234 0.07016,-0.1640066 0.081815,-0.1639381 0.016718,9.37e-5 0.5528256,1.5430266 0.5937959,1.7089556 0.00807,0.03268 -0.1131081,0.04092 -0.6015625,0.04092 -0.3364162,0 -0.6116662,-0.0089 -0.6116662,-0.01985 z M 6.5416106,8.2427741 C 6.7348769,7.7294731 6.845545,7.5447638 7.0399519,7.4110234 7.29765,7.2337422 7.4111,7.2141206 8.28617,7.1954872 9.1756575,7.1765466 9.2804509,7.1916953 9.5519038,7.37846 9.7443903,7.5108941 9.8461059,7.6794131 10.019038,8.1523941 l 0.152837,0.418019 0.01808,-0.324269 c 0.01405,-0.25189 0.03481,-0.359145 0.093,-0.4805191 0.09478,-0.1976594 0.281825,-0.3856603 0.482662,-0.4851206 0.155463,-0.07699 0.161481,-0.077427 1.195313,-0.086755 L 13,7.1843728 V 6.0921866 5 H 11.5 10 V 3.5 2 H 6.5 3 V 4.609375 7.21875 l 0.1953125,3.219e-4 C 3.5489878,7.2196562 4.1360578,7.2820919 4.40625,7.3478578 5.1059044,7.5181569 5.7776266,7.9857859 6.1606584,8.5692141 6.2928063,8.7705 6.3286853,8.8075363 6.3463659,8.7609128 6.3584194,8.7291291 6.4462794,8.4959663 6.5416106,8.2427734 Z M 12.507813,4.0078197 11,3.9993997 V 2.4920082 0.98461663 L 12.515625,2.5 c 0.833594,0.8334609 1.515625,1.5189534 1.515625,1.5233166 0,0.00436 -0.0035,0.00456 -0.0078,4.281e-4 -0.0043,-0.00413 -0.686329,-0.011294 -1.515625,-0.015925 z"
       id="path825"
       inkscape:connector-curvature="0" />
    <path
       style="fill:#98fefe;stroke-width:0.03125"
       d="M 3,13.765625 V 13.53125 l 0.2421875,-5.41e-4 c 0.5956709,-0.0013 1.2191472,-0.118028 1.6737666,-0.31328 l 0.2753293,-0.11825 0.1309207,0.130844 c 0.072006,0.07196 0.2012334,0.165665 0.2871709,0.208224 0.1541687,0.07635 0.1670725,0.07738 0.96875,0.07738 0.8008241,0 0.8147453,-0.0011 0.96875,-0.07713 0.1996666,-0.09856 0.4200913,-0.318913 0.5089706,-0.508811 l 0.069475,-0.148437 H 8.296875 8.4684297 l 0.069475,0.148437 c 0.088879,0.189898 0.309304,0.410253 0.5089706,0.508811 0.1731794,0.08548 0.068947,0.08136 2.8984377,0.114701 L 13,13.565628 v 0.217186 0.217187 H 8 3 V 13.765626 Z M 6.1606584,8.5692147 C 5.7776266,7.9857866 5.1059044,7.5181575 4.40625,7.3478584 4.1360578,7.2820925 3.5489878,7.2196562 3.1953125,7.2190725 L 3,7.21875 V 4.609375 2 H 6.5 10 V 3.5 5 h 1.5 1.5 v 1.0921866 1.0921862 l -1.039062,0.00938 c -1.033832,0.00933 -1.03985,0.00977 -1.195313,0.086755 -0.200837,0.09946 -0.387886,0.2874612 -0.482662,0.4851206 -0.0582,0.1213741 -0.07896,0.2286291 -0.093,0.4805191 l -0.01808,0.324269 -0.152837,-0.418019 C 9.8461059,7.6794131 9.7443903,7.5108941 9.5519037,7.37846 9.2804509,7.1916953 9.1756575,7.1765466 8.28617,7.1954872 7.4111,7.2141206 7.29765,7.2337422 7.0399519,7.4110234 6.845545,7.5447638 6.7348769,7.7294731 6.5416106,8.2427741 6.4462794,8.4959669 6.3584194,8.7291297 6.3463659,8.7609134 c -0.017681,0.046624 -0.05356,0.00959 -0.1857075,-0.1916987 z"
       id="path823"
       inkscape:connector-curvature="0" />
    <path
       style="fill:#656565;stroke-width:0.03125"
       d="M 10.5,2.75 V 1 H 10.75 11 V 2.5 4 H 12.5 14 V 4.25 4.5 H 12.25 10.5 Z"
       id="path821"
       inkscape:connector-curvature="0" />
    <path
       style="fill:#323232;stroke-width:0.03125"
       d="M 1.796875,15.456011 C 1.6818888,15.404752 1.5776699,15.294675 1.5333316,15.177653 1.5130323,15.124078 1.5,14.791124 1.5,14.326091 V 13.5625 H 1.75 2 V 14.28125 15 h 6 6 v -0.71637 -0.716371 l 0.251486,-0.01019 0.251486,-0.01019 -0.0093,0.818093 c -0.01024,0.900899 -0.0088,0.893929 -0.224455,1.054976 l -0.0863,0.06443 -6.1461489,0.0067 C 2.9623246,15.496578 1.8742728,15.490505 1.79687,15.455998 Z M 1.5625,10.374359 V 8.1862184 l 0.7890625,0.018094 c 1.4684334,0.033673 1.8205797,0.081504 2.2578125,0.3066656 0.6774281,0.3488563 1.046875,1.0154772 1.046875,1.888956 0,1.07116 -0.6152384,1.828339 -1.65625,2.038359 -0.3129516,0.06314 -1.3001159,0.119252 -2.1640625,0.123016 L 1.5625,12.5625 Z m 2.2556128,1.229316 C 4.0977691,11.471934 4.2906469,11.287916 4.4146037,11.034583 4.5143284,10.830775 4.515625,10.822309 4.515625,10.375 4.515625,9.9488313 4.510645,9.911245 4.431873,9.7431853 4.3858097,9.6449063 4.2820925,9.4939053 4.20139,9.4076281 3.94735,9.1360388 3.6923197,9.0529269 3.0078125,9.0186528 L 2.6875,9.0026147 v 1.3614733 1.361474 l 0.4609375,-0.01178 c 0.4398978,-0.01124 0.4704653,-0.01627 0.6696753,-0.110109 z M 11.1875,10.375 V 8.1875 h 1.515625 1.515625 V 8.609375 9.03125 H 13.265625 12.3125 V 9.453125 9.875 h 0.890625 0.890625 v 0.421875 0.421875 H 13.203125 12.3125 v 0.5 0.5 h 0.984375 0.984375 V 12.140625 12.5625 H 12.734375 11.1875 Z M 6.0468825,12.477298 C 6.0594687,12.446816 6.421105,11.4782 6.8505181,10.32482 L 7.6312697,8.2277647 7.9328225,8.2077941 C 8.0986763,8.19681 8.3960938,8.1880125 8.59375,8.1882441 l 0.359375,4.218e-4 0.1676913,0.460355 c 0.151274,0.4152847 1.3733967,3.6943251 1.4268277,3.8282791 0.02074,0.052 -0.01215,0.0549 -0.53242,0.04687 L 9.4606963,12.515625 9.3332778,12.148438 9.2058594,11.78125 H 8.296875 7.3878906 l -0.1274184,0.367188 -0.1274185,0.367187 -0.5545275,0.0085 c -0.5205153,0.008 -0.553124,0.0051 -0.5316437,-0.04687 z M 8.9007287,10.92783 C 8.8597584,10.761901 8.3236503,9.2189725 8.3069328,9.2188744 8.2952772,9.2188119 8.2584603,9.2925781 8.2251175,9.3828125 8.1229731,9.6592434 7.6875,10.92778 7.6875,10.948897 c 0,0.01092 0.27525,0.01985 0.6116663,0.01985 0.4884543,0 0.6096312,-0.0082 0.6015624,-0.04092 z m 5.3096703,-3.7322656 -0.211476,-0.010945 0.0016,-1.5988903 0.0017,-1.5988906 L 12.509045,2.4934193 11.015869,1 H 6.5079347 2 V 4.09375 7.1875 H 1.7495641 1.4991283 l 0.00825,-3.1852166 c 0.00819,-3.16186996 0.00872,-3.18584874 0.072679,-3.27150646 0.035437,-0.0474596 0.1032633,-0.11528407 0.150725,-0.15072103 0.086116,-0.0642975 0.09585,-0.0644495 4.7011941,-0.0733887 2.538195,-0.004927 4.6641186,-4.4719e-4 4.7242746,0.009955 0.09329,0.0161318 0.343039,0.25178866 1.698528,1.60270779 0.919469,0.9163694 1.604533,1.6233023 1.62565,1.6775451 0.05227,0.1342697 0.03137,3.4245669 -0.02169,3.4157544 -0.02027,-0.00337 -0.132022,-0.011046 -0.248334,-0.017065 z"
       id="path819"
       inkscape:connector-curvature="0" />
  </g>
</svg>
