<?xml version="1.0" encoding="UTF-8" standalone="no"?>
<!-- Created with Inkscape (http://www.inkscape.org/) -->

<svg
   xmlns:dc="http://purl.org/dc/elements/1.1/"
   xmlns:cc="http://creativecommons.org/ns#"
   xmlns:rdf="http://www.w3.org/1999/02/22-rdf-syntax-ns#"
   xmlns:svg="http://www.w3.org/2000/svg"
   xmlns="http://www.w3.org/2000/svg"
   xmlns:sodipodi="http://sodipodi.sourceforge.net/DTD/sodipodi-0.dtd"
   xmlns:inkscape="http://www.inkscape.org/namespaces/inkscape"
   version="1.1"
   id="svg2"
   width="16"
   height="16"
   viewBox="0 0 16 16"
   sodipodi:docname="LOAD_OBJ.svg"
   inkscape:version="0.92.4 (5da689c313, 2019-01-14)">
  <metadata
     id="metadata8">
    <rdf:RDF>
      <cc:Work
         rdf:about="">
        <dc:format>image/svg+xml</dc:format>
        <dc:type
           rdf:resource="http://purl.org/dc/dcmitype/StillImage" />
        <dc:title></dc:title>
      </cc:Work>
    </rdf:RDF>
  </metadata>
  <defs
     id="defs6" />
  <sodipodi:namedview
     pagecolor="#ffffff"
     bordercolor="#666666"
     borderopacity="1"
     objecttolerance="10"
     gridtolerance="10"
     guidetolerance="10"
     inkscape:pageopacity="0"
     inkscape:pageshadow="2"
     inkscape:window-width="828"
     inkscape:window-height="480"
     id="namedview4"
     showgrid="false"
     inkscape:zoom="14.75"
     inkscape:cx="8"
     inkscape:cy="8"
     inkscape:window-x="0"
     inkscape:window-y="0"
     inkscape:window-maximized="0"
     inkscape:current-layer="svg2" />
  <g
     id="LOAD_OBJ">
    <path
       style="fill:#ffffff;stroke-width:0.03125"
       d="M 0,8 V 0 h 8 8 v 8 8 H 8 0 Z m 14.269218,7.419944 c 0.04746,-0.03544 0.115289,-0.103261 0.150726,-0.150719 0.06438,-0.08622 0.06444,-0.09066 0.08006,-5.7324444 0.01164,-4.2046472 0.0065,-5.6700906 -0.02022,-5.7399056 -0.02105,-0.055047 -0.691906,-0.7475964 -1.625,-1.6775451 -1.355489,-1.35091915 -1.605235,-1.58657599 -1.698528,-1.60270781 -0.06016,-0.010402 -2.18608,-0.0148817 -4.724275,-0.009955 -4.6053439,0.008939 -4.6150786,0.009091 -4.7011941,0.0733887 -0.047462,0.035437 -0.115288,0.10326046 -0.150725,0.15071884 -0.06414,0.0858986 -0.064505,0.10542194 -0.080871,4.32619397 -0.01595,4.1133626 -0.018281,4.2455026 -0.078125,4.4274063 -0.054046,0.1642819 -0.061671,0.2745675 -0.061575,0.8906251 10e-5,0.632065 0.0072,0.728917 0.070312,0.958332 C 1.4986948,11.583794 1.5,11.621084 1.5,13.33911 c 0,1.164114 0.011166,1.780043 0.033332,1.838543 0.044338,0.117022 0.1485572,0.227099 0.2635434,0.278358 0.077403,0.0345 1.1654546,0.04062 6.2398981,0.03508 l 6.1461485,-0.0067 z"
       id="path827"
       inkscape:connector-curvature="0" />
    <path
       style="fill:#fefefe;stroke-width:0.03125"
       d="M 2,13.759624 V 12.519248 L 1.8450822,12.283061 C 1.6691758,12.014876 1.5293741,11.694537 1.4286631,11.328888 1.3668823,11.104582 1.3595952,11.00394 1.3595952,10.375 c 0,-0.6289403 0.00729,-0.7295825 0.069068,-0.9538881 C 1.5293741,9.0554625 1.6691758,8.7351241 1.8450822,8.4669387 L 2,8.2307522 V 4.6153762 1 H 6.25 10.5 V 2.75 4.5 H 12.25 14 v 1.4524909 1.4524913 l 0.121378,0.1603681 c 0.216563,0.2861284 0.222692,0.3308016 0.219834,1.6023006 -0.0014,0.6210735 -0.01382,1.6846931 -0.02761,2.3635991 -0.02295,1.13029 -0.03077,1.25392 -0.09277,1.466169 -0.03724,0.127486 -0.102159,0.304624 -0.14427,0.39364 C 14.002176,13.548306 14,13.57347 14,14.276453 V 15 H 8 2 Z m 8.348762,-0.0018 c -0.0065,-0.133203 -0.01381,-0.243472 -0.01623,-0.245041 -0.0024,-0.0016 -0.6357466,0.0099 -1.4073862,0.02555 -1.5533979,0.03145 -1.5655219,0.03036 -1.8520476,-0.166779 C 6.9452438,13.283575 6.75,13.041492 6.75,12.970932 c 0,-0.04824 0.00167,-0.04906 -0.2702322,0.132931 -0.2779075,0.186014 -0.6156062,0.336366 -0.9742856,0.433776 -0.1908219,0.05182 -0.3623897,0.06808 -0.839226,0.07953 -0.6813206,0.01635 -0.9234499,-0.01727 -1.3928187,-0.19338 L 3,13.321193 V 13.660597 14 H 6.6802947 10.36059 l -0.01183,-0.242187 z m 1.385613,-0.03992 c 0.353149,-0.03293 0.730338,-0.119383 0.89711,-0.205625 0.140153,-0.07248 0.352643,-0.278729 0.457784,-0.444351 0.187043,-0.294632 0.197427,-0.374353 0.224577,-1.72417 0.01365,-0.678906 0.02597,-1.6667969 0.02737,-2.1953125 L 13.34375,8.1875 h -0.5625 -0.5625 v 2.126245 c 0,2.028536 -0.0027,2.131573 -0.05946,2.242188 -0.110745,0.215949 -0.323363,0.349901 -0.556725,0.350744 -0.266059,9.59e-4 -0.258816,-0.01137 -0.258816,0.440718 0,0.221433 0.01055,0.402593 0.02344,0.402579 0.01289,-1.5e-5 0.178125,-0.01445 0.367187,-0.03208 z m -6.46875,-1.16788 C 5.9815987,12.356634 6.4651,11.884329 6.6924419,11.15625 6.7574697,10.947993 6.765625,10.860932 6.765625,10.375 6.765625,9.8890678 6.757465,9.8020066 6.692442,9.59375 6.4669606,8.8716291 6.0136053,8.4199219 5.3119897,8.2183166 5.0107269,8.1317506 4.4345669,8.1017747 4.1022756,8.1553791 3.2338703,8.2954678 2.6510782,8.8104972 2.4216152,9.640625 c -0.080592,0.2915588 -0.097727,0.976552 -0.032511,1.299675 0.1821038,0.902255 0.7401773,1.463069 1.6444951,1.65257 0.2116259,0.04435 1.0123094,0.0165 1.2320253,-0.04285 z M 4.1648306,11.79206 C 4.0922062,11.766344 3.9650647,11.684416 3.8822938,11.609998 3.6036147,11.359442 3.4698353,10.958874 3.4698353,10.375 c 0,-0.9578612 0.3793469,-1.46875 1.0905813,-1.46875 0.1152193,0 0.2803006,0.021029 0.3668475,0.04673 0.3110643,0.092376 0.5795018,0.4323953 0.6808678,0.8624281 0.061759,0.2620069 0.061759,0.8571769 0,1.1191839 -0.101366,0.430032 -0.3698035,0.770051 -0.6808678,0.862428 -0.1981594,0.05885 -0.5894238,0.0563 -0.7624335,-0.005 z m 0.4780466,-1.221138 c 0.025284,-0.202369 -0.00203,-0.514169 -0.05346,-0.6102673 l -0.036239,-0.067714 -0.030553,0.076967 c -0.03873,0.097566 -0.04662,0.5997303 -0.012005,0.7640723 0.024084,0.114344 0.029725,0.119847 0.068501,0.06682 0.023241,-0.03178 0.051931,-0.135228 0.063757,-0.229876 z m 5.1877544,1.944849 c 0.9358764,-0.04316 1.4267424,-0.49686 1.3805644,-1.27604 -0.0096,-0.162363 -0.0389,-0.309068 -0.0804,-0.402847 -0.08756,-0.197863 -0.296571,-0.418571 -0.488505,-0.515831 l -0.15709,-0.0796 0.07771,-0.04923 c 0.04274,-0.02708 0.143131,-0.113174 0.223088,-0.191325 0.190275,-0.1859754 0.260503,-0.4086186 0.23701,-0.7513804 C 10.986694,8.7196388 10.747732,8.4524531 10.169919,8.2956572 9.9869213,8.2459988 8.9186134,8.1929591 8.0234375,8.1890878 L 7.65625,8.1875 v 2.187557 2.187556 l 0.9296875,-0.01616 c 0.5113281,-0.0089 1.0714406,-0.0227 1.2446941,-0.03068 z M 8.78125,11.234375 v -0.598588 l 0.4296875,0.01291 c 0.6133722,0.01843 0.7523328,0.0668 0.8632235,0.300487 0.0656,0.138245 0.0656,0.432135 0,0.57038 -0.1108907,0.233685 -0.2498513,0.282057 -0.8632235,0.300487 L 8.78125,11.832963 Z m 0,-1.8131247 V 8.9316397 l 0.4453125,0.010812 c 0.3739,0.00908 0.45935,0.020315 0.5328472,0.070071 0.1257041,0.085098 0.1782484,0.2084897 0.1769828,0.4156131 C 9.9351425,9.6326986 9.9002915,9.7126149 9.7665091,9.817688 9.6807711,9.885027 9.639395,9.891402 9.2274466,9.900743 L 8.78125,9.9108609 Z M 6.7789741,7.712575 C 6.8420625,7.5700487 7.0520984,7.3707728 7.234375,7.2805044 L 7.390625,7.203125 8.625,7.2110028 c 0.6789063,0.00433 1.346875,0.022909 1.484375,0.04128 0.340033,0.045432 0.793197,0.2001547 1.02496,0.349951 l 0.191657,0.1238731 0.04674,-0.073991 c 0.08348,-0.1321518 0.270949,-0.2955006 0.427404,-0.37242 0.139444,-0.068556 0.199328,-0.0762 0.676425,-0.08634 L 13,7.1822319 V 6.0911159 5 H 11.5 10 V 3.5 2 H 6.5 3 v 2.7067697 c 0,2.5635031 0.00289,2.7058722 0.054687,2.6898112 0.030078,-0.00933 0.1566559,-0.052704 0.2812841,-0.096393 0.419674,-0.1471197 0.7118615,-0.1832009 1.3508834,-0.1668153 0.5030363,0.012899 0.6171803,0.025667 0.8723088,0.097579 0.3520899,0.099242 0.7373628,0.277581 0.9720862,0.4499703 0.094531,0.069427 0.1789891,0.1274347 0.1876841,0.128905 0.00869,0.00147 0.035713,-0.042292 0.06004,-0.097251 z M 12.507813,4.0078197 11,3.9993997 V 2.4920082 0.98461663 L 12.515625,2.5 c 0.833594,0.8334609 1.515625,1.5189534 1.515625,1.5233166 0,0.00436 -0.0035,0.00456 -0.0078,4.281e-4 -0.0043,-0.00413 -0.686329,-0.011294 -1.515625,-0.015925 z"
       id="path825"
       inkscape:connector-curvature="0" />
    <path
       style="fill:#32fe32;stroke-width:0.03125"
       d="m 3,13.660597 v -0.339404 l 0.2734375,0.102596 c 0.4693688,0.176111 0.7114981,0.209728 1.3928187,0.193376 0.4768363,-0.01145 0.6484041,-0.0277 0.839226,-0.07953 0.3586794,-0.09741 0.6963781,-0.247762 0.9742856,-0.433776 C 6.7516703,12.921869 6.75,12.92269 6.75,12.970932 c 0,0.07056 0.1952438,0.312643 0.3230962,0.400608 0.2865257,0.197135 0.2986497,0.198227 1.8520476,0.166779 0.7716396,-0.01562 1.4049632,-0.02712 1.4073862,-0.02555 0.0024,0.0016 0.0097,0.111838 0.01623,0.245042 L 10.36059,14 H 6.6802947 3 Z M 4.51062,10.73398 C 4.4760053,10.569638 4.4838953,10.067474 4.522625,9.9699078 l 0.030553,-0.076967 0.036239,0.067714 C 4.676653,10.123657 4.669875,10.676683 4.57912,10.800798 4.540344,10.853828 4.534703,10.848328 4.510619,10.733978 Z M 6.53125,7.6809212 C 6.2965266,7.5085319 5.9112537,7.3301925 5.5591637,7.2309509 5.3040353,7.1590394 5.1898912,7.1462709 4.686855,7.1333722 4.0478331,7.1169866 3.7556456,7.1530678 3.3359716,7.3001875 3.2113434,7.3438769 3.0847656,7.3872537 3.0546875,7.3965809 3.0028946,7.4126419 3,7.2702728 3,4.7067697 V 2 H 6.5 10 V 3.5 5 h 1.5 1.5 v 1.0911159 1.091116 l -0.523437,0.011124 c -0.477098,0.01014 -0.536982,0.017784 -0.676426,0.08634 -0.156455,0.076919 -0.34392,0.2402682 -0.427404,0.37242 l -0.04674,0.073991 -0.191657,-0.1238732 C 10.902572,7.4524375 10.449408,7.2977144 10.109375,7.2522828 9.971875,7.2339116 9.3039063,7.2153356 8.625,7.2110028 L 7.390625,7.203125 7.234375,7.2805044 C 7.0520984,7.3707728 6.8420625,7.5700487 6.7789741,7.712575 6.7546471,7.767534 6.7276291,7.811297 6.7189341,7.809826 6.7102341,7.808356 6.6257811,7.750349 6.53125,7.6809212 Z"
       id="path823"
       inkscape:connector-curvature="0" />
    <path
       style="fill:#656565;stroke-width:0.03125"
       d="M 10.5,2.75 V 1 H 10.75 11 V 2.5 4 H 12.5 14 V 4.25 4.5 H 12.25 10.5 Z"
       id="path821"
       inkscape:connector-curvature="0" />
    <path
       style="fill:#323232;stroke-width:0.03125"
       d="m 1.7953257,15.456168 c -0.1258577,-0.05498 -0.2571882,-0.214647 -0.2795848,-0.3399 -0.0099,-0.05535 -0.013973,-0.866844 -0.00906,-1.803311 l 0.00894,-1.702668 0.085855,0.218293 c 0.04722,0.120061 0.1561688,0.323762 0.2421082,0.452668 l 0.1562534,0.234375 7.82e-5,1.242188 L 2,15 h 6 6 v -0.723547 c 0,-0.702983 0.0022,-0.728147 0.07657,-0.885394 0.04211,-0.08902 0.107032,-0.266154 0.14427,-0.39364 0.062,-0.212249 0.06982,-0.335879 0.09277,-1.466169 0.01379,-0.678906 0.02621,-1.7425256 0.02761,-2.3635991 0.0029,-1.2719212 -0.0032,-1.3160956 -0.220342,-1.6029715 L 13.998984,7.40364 14.000537,5.6951744 14.00209,3.9867084 12.50898,2.4933543 11.015869,1 H 6.5079347 2 L 1.9999219,4.6171875 1.9998438,8.234375 1.8435903,8.46875 C 1.757651,8.5976563 1.6487023,8.8013472 1.6014821,8.9213963 L 1.515625,9.1396678 1.5067642,5.0620212 C 1.5018907,2.8193159 1.5059659,0.93908584 1.5158201,0.88373241 1.5387049,0.75518328 1.671214,0.59736556 1.8022247,0.54262581 1.8868223,0.50727862 2.6911477,0.5 6.5125869,0.5 c 3.1305709,0 4.6365551,0.0104825 4.6963161,0.032689 0.1189,0.0441812 3.22448,3.1435166 3.270764,3.264186 0.02684,0.069983 0.032,1.5251291 0.02033,5.7399056 -0.01561,5.6417804 -0.01567,5.6462224 -0.08006,5.7324444 -0.03544,0.04746 -0.103264,0.115282 -0.150726,0.150719 l -0.0863,0.06443 -6.1461489,0.0067 c -5.0620825,0.0055 -6.1629571,-6.3e-4 -6.2414474,-0.03492 z M 11.34375,13.347395 c 0,-0.452092 -0.0072,-0.439758 0.258816,-0.440718 0.233362,-8.44e-4 0.44598,-0.134795 0.556725,-0.350745 0.05673,-0.110614 0.05946,-0.213651 0.05946,-2.242187 V 8.1875 h 0.5625 0.5625 l -0.0025,0.9609375 c -0.0014,0.5285156 -0.01371,1.5164065 -0.02737,2.1953125 -0.02715,1.349817 -0.03753,1.429538 -0.224576,1.72417 -0.105142,0.165622 -0.317631,0.371876 -0.457784,0.444351 -0.166772,0.08624 -0.543961,0.172696 -0.89711,0.205625 -0.189063,0.01763 -0.354297,0.03206 -0.367188,0.03208 -0.01289,1.4e-5 -0.02344,-0.181147 -0.02344,-0.402579 z M 4.0335997,12.59287 C 3.1292819,12.403369 2.5712084,11.842555 2.3891046,10.9403 2.3238881,10.617177 2.3410228,9.9321838 2.4216152,9.640625 2.705798,8.6125375 3.5187559,8.0774428 4.7109481,8.1337694 5.7418725,8.1824766 6.40414,8.6704406 6.6924419,9.59375 c 0.065028,0.2082566 0.073183,0.2953178 0.073183,0.78125 0,0.485932 -0.00816,0.572993 -0.073183,0.78125 -0.1802457,0.57725 -0.5079385,0.98501 -0.9756344,1.214017 -0.1450253,0.07101 -0.3480575,0.151902 -0.4511825,0.179757 -0.2197159,0.05935 -1.0203994,0.08719 -1.2320253,0.04285 z m 0.8936644,-0.79585 c 0.3110643,-0.09238 0.5795018,-0.432396 0.6808678,-0.862428 0.061759,-0.262007 0.061759,-0.857177 0,-1.1191836 C 5.5067659,9.3853756 5.2383284,9.0453566 4.9272641,8.9529803 4.8407172,8.9272787 4.6756359,8.90625 4.5604166,8.90625 c -0.7112344,0 -1.0905813,0.5108888 -1.0905813,1.46875 0,0.583874 0.1337794,0.984442 0.4124585,1.234998 0.082771,0.07442 0.2099124,0.156346 0.2825368,0.182062 0.1730097,0.06126 0.5642741,0.06381 0.7624335,0.005 z M 7.65625,10.375057 V 8.1875 l 0.3671875,0.00159 c 0.8951759,0.00387 1.9634838,0.056911 2.1464815,0.1065694 0.577813,0.1567959 0.816775,0.4239815 0.853093,0.9538543 0.02349,0.3427619 -0.04673,0.5654051 -0.23701,0.7513803 -0.07996,0.07815 -0.180347,0.164247 -0.223088,0.191324 l -0.07771,0.04923 0.15709,0.0796 c 0.191934,0.09726 0.40095,0.317969 0.488505,0.515832 0.0415,0.09378 0.07078,0.240484 0.0804,0.402847 0.04618,0.77918 -0.444688,1.232881 -1.3805644,1.27604 -0.1732535,0.008 -0.733366,0.0218 -1.2446941,0.03068 L 7.65625,12.562612 Z m 2.0974828,1.403407 C 9.9967863,11.716843 10.125,11.528946 10.125,11.234375 c 0,-0.294571 -0.1282137,-0.482468 -0.3712672,-0.544089 -0.062209,-0.01577 -0.3064672,-0.03449 -0.5427953,-0.04159 L 8.78125,10.635787 v 0.598588 0.598588 l 0.4296875,-0.01291 c 0.2363281,-0.0071 0.4805859,-0.02581 0.5427953,-0.04159 z M 9.7665091,9.8176878 C 9.9002913,9.7126147 9.9351428,9.6326984 9.9363925,9.4281356 9.9376581,9.2210122 9.8851138,9.0976206 9.7594097,9.0125225 9.6859125,8.9627669 9.6004625,8.95153 9.2265625,8.9424519 L 8.78125,8.9316397 v 0.4896106 0.4896106 l 0.4461966,-0.010118 c 0.4119484,-0.00934 0.4533247,-0.015716 0.5390625,-0.083055 z"
       id="path819"
       inkscape:connector-curvature="0" />
  </g>
</svg>
