<?xml version="1.0" encoding="UTF-8" standalone="no"?>
<!-- Created with Inkscape (http://www.inkscape.org/) -->

<svg
   xmlns:dc="http://purl.org/dc/elements/1.1/"
   xmlns:cc="http://creativecommons.org/ns#"
   xmlns:rdf="http://www.w3.org/1999/02/22-rdf-syntax-ns#"
   xmlns:svg="http://www.w3.org/2000/svg"
   xmlns="http://www.w3.org/2000/svg"
   xmlns:sodipodi="http://sodipodi.sourceforge.net/DTD/sodipodi-0.dtd"
   xmlns:inkscape="http://www.inkscape.org/namespaces/inkscape"
   version="1.1"
   id="svg2"
   width="16"
   height="16"
   viewBox="0 0 16 16"
   sodipodi:docname="LOAD_WRL.svg"
   inkscape:version="0.92.4 (5da689c313, 2019-01-14)">
  <metadata
     id="metadata8">
    <rdf:RDF>
      <cc:Work
         rdf:about="">
        <dc:format>image/svg+xml</dc:format>
        <dc:type
           rdf:resource="http://purl.org/dc/dcmitype/StillImage" />
        <dc:title></dc:title>
      </cc:Work>
    </rdf:RDF>
  </metadata>
  <defs
     id="defs6" />
  <sodipodi:namedview
     pagecolor="#ffffff"
     bordercolor="#666666"
     borderopacity="1"
     objecttolerance="10"
     gridtolerance="10"
     guidetolerance="10"
     inkscape:pageopacity="0"
     inkscape:pageshadow="2"
     inkscape:window-width="828"
     inkscape:window-height="480"
     id="namedview4"
     showgrid="false"
     inkscape:zoom="14.75"
     inkscape:cx="8"
     inkscape:cy="8"
     inkscape:window-x="0"
     inkscape:window-y="0"
     inkscape:window-maximized="0"
     inkscape:current-layer="svg2" />
  <g
     id="LOAD_WRL">
    <path
       style="fill:#ffffff;stroke-width:0.03125"
       d="m 0.00246711,12.695313 c 0.0013569,-1.817579 0.00775227,-3.2906255 0.01421191,-3.273438 0.0064597,0.017188 0.18945281,0.790009 0.40665148,1.717381 0.21719866,0.927372 0.42492091,1.750028 0.46160497,1.828125 0.0859994,0.183084 0.27917593,0.375159 0.46518953,0.462537 l 0.1470001,0.06905 0.00925,0.842045 c 0.00872,0.793917 0.012933,0.846973 0.073681,0.928272 0.035437,0.04743 0.1032651,0.115221 0.1507291,0.150658 l 0.086298,0.06443 H 8 14.182917 l 0.0863,-0.06443 c 0.215411,-0.160828 0.214223,-0.155296 0.224439,-1.044833 l 0.0093,-0.807955 0.615721,-0.01014 c 0.557343,-0.0092 0.628314,-0.01654 0.748534,-0.07762 L 16,13.411922 V 14.705961 16 H 8 0 Z M 15.859375,10.801527 c -0.113145,-0.06034 -0.183651,-0.06765 -0.74341,-0.07708 l -0.618411,-0.01042 0.0038,-3.4479877 c 0.0025,-2.2868447 -0.0069,-3.46734 -0.02799,-3.5054522 C 14.455885,3.7289838 13.726987,2.9904172 12.853601,2.1193299 11.498725,0.76802122 11.24957,0.53275856 11.15625,0.51662209 c -0.06016,-0.010402 -2.18608,-0.0148817 -4.724275,-0.009955 -4.6053439,0.008939 -4.6150786,0.009091 -4.7011941,0.0733887 -0.047462,0.035437 -0.115288,0.1032615 -0.150725,0.15072112 -0.063965,0.0856662 -0.064491,0.10945372 -0.072678,3.28962359 L 1.4991303,7.2237337 1.0812504,7.2015884 C 0.58741069,7.1754178 0.41874259,7.2133559 0.16072893,7.4086391 L 0,7.5302903 V 3.7651453 0 h 8 8 v 5.4375 c 0,2.990625 -0.0035,5.435968 -0.0078,5.434094 -0.0043,-0.0019 -0.06406,-0.0334 -0.132813,-0.07007 z"
       id="path827"
       inkscape:connector-curvature="0" />
    <path
       style="fill:#fefefe;stroke-width:0.03125"
       d="M 2,14.26964 V 13.53928 L 1.7578125,13.524454 C 1.3584822,13.500007 1.0394841,13.2964 0.88489522,12.967295 0.848189,12.889151 0.63407141,12.041763 0.40907831,11.084211 L 0,9.3432072 V 8.4395038 7.5358003 L 0.11622803,7.4399953 C 0.18015345,7.3873025 0.29616907,7.3124506 0.37404053,7.2736578 0.51108456,7.2053869 0.539426,7.2034578 1.2578125,7.2135028 L 2,7.2238809 V 4.1119403 1 H 6.25 10.5 V 2.75 4.5 H 12.25 14 l 3.88e-4,1.4140625 3.87e-4,1.4140625 0.106613,0.069043 c 0.131712,0.085297 0.274685,0.2888638 0.341854,0.4867366 0.04373,0.1288291 0.05076,0.3350775 0.05076,1.4898419 v 1.3403125 l 0.617188,0.0104 c 0.541743,0.0091 0.632467,0.01804 0.742187,0.0729 l 0.125,0.0625 v 1.280758 1.280758 l -0.125,0.06275 c -0.114565,0.05751 -0.197389,0.06355 -0.992187,0.07237 l -0.867188,0.0096 V 14.283061 15 h -5.9999997 -6 V 14.26964 Z M 13,13.78125 V 13.5625 l -0.398437,-0.0018 c -0.233594,-0.001 -0.443689,-0.01785 -0.507813,-0.04063 -0.07238,-0.02572 -0.144339,-0.02975 -0.212738,-0.0119 -0.05685,0.01484 -0.4506,0.02257 -0.875,0.0172 C 10.261769,13.51597 10.228944,13.5129 10.081387,13.4397 9.997244,13.39796 9.8769166,13.313584 9.8139931,13.2522 l -0.1144059,-0.111607 -0.123231,0.125716 c -0.067777,0.06914 -0.1935437,0.16055 -0.2794812,0.203125 -0.1513641,0.07499 -0.1800941,0.07772 -0.9187881,0.08727 -0.6424913,0.0083 -0.7873247,0.0018 -0.9199807,-0.04163 -0.2099009,-0.06865 -0.4106846,-0.210759 -0.5101437,-0.361052 -0.044697,-0.06754 -0.089946,-0.12227 -0.1005528,-0.121618 -0.010607,6.53e-4 -0.056752,0.0554 -0.102545,0.121657 C 6.6418234,13.303186 6.4359262,13.447685 6.2324806,13.513685 6.0977625,13.557389 5.9727697,13.56042 5.25,13.537507 4.3323412,13.508417 4.2753869,13.495999 4.0108694,13.267342 L 3.8913672,13.16404 3.7571322,13.282198 C 3.5819147,13.436431 3.3724419,13.532806 3.1661566,13.554096 L 3,13.571244 V 13.785622 14 h 5 5 z M 3.3009463,11.578125 C 3.7143556,9.8331688 3.8523916,9.28125 3.8753991,9.28125 c 0.021275,0 0.2501875,0.910715 0.6362415,2.53125 l 0.1675031,0.703125 0.6213657,0.01727 c 0.3417509,0.0095 0.6302981,0.0095 0.6412156,0 0.010917,-0.0095 0.2403969,-0.95946 0.5099544,-2.111023 C 6.7212369,9.2703125 6.9487987,8.3035156 6.9573728,8.2734375 6.9717709,8.2229275 6.9334131,8.21875 6.4552309,8.21875 6.1704787,8.21875 5.9375,8.23034 5.9375,8.244507 c 0,0.026989 -0.6555644,2.73959 -0.7192038,2.975928 -0.026044,0.09672 -0.043989,0.123048 -0.061841,0.09073 C 5.1426234,11.286116 4.974485,10.604688 4.7828147,9.796875 4.5911444,8.9890625 4.4270591,8.3035156 4.4181806,8.2734375 4.4036341,8.2241563 4.3499775,8.21875 3.8753991,8.21875 H 3.3487597 L 3.299595,8.4349097 C 3.1453163,9.1132222 2.6196461,11.297021 2.6077926,11.308874 c -0.00772,0.0077 -0.021461,0.0066 -0.030528,-0.0024 C 2.5592778,11.288444 2.2845202,10.188945 2.0321396,9.125 1.9444823,8.7554688 1.8590575,8.4018609 1.8423067,8.3392047 L 1.8118506,8.2252844 1.3043628,8.2124766 C 1.0252445,8.2054366 0.79255003,8.2024276 0.78726397,8.2057966 0.78197797,8.2091666 1.0059236,9.1832628 1.2849211,10.37045 l 0.5072681,2.158523 0.2679679,0.01079 c 0.1473824,0.0059 0.4352122,0.01 0.639622,0.0089 l 0.3716541,-0.0018 0.2295131,-0.96875 z M 8.875,11.734375 V 10.90625 h 0.2792156 c 0.1535688,0 0.3188032,0.01492 0.3671875,0.03317 0.2120191,0.07993 0.443521,0.425839 0.8091539,1.209021 l 0.178718,0.382812 h 0.573488 c 0.315418,0 0.573487,-0.0069 0.573487,-0.0153 0,-0.04273 -0.459454,-0.969326 -0.627191,-1.26488 -0.242901,-0.427996 -0.34076,-0.546279 -0.532221,-0.643299 -0.0842,-0.04267 -0.153036,-0.08789 -0.152972,-0.100487 6.2e-5,-0.0126 0.09176,-0.0703 0.203761,-0.128213 C 10.930459,10.181115 11.125,9.8436031 11.125,9.3773803 11.125,8.7326025 10.742288,8.3426006 10.020234,8.2515709 9.8973862,8.2360834 9.3363281,8.2157419 8.7734375,8.2063672 L 7.75,8.1893225 V 10.375911 12.5625 H 8.3125 8.875 Z m 0,-2.1875 V 8.9713647 l 0.3203125,0.015763 c 0.4700041,0.023129 0.572685,0.040328 0.6624875,0.1109666 0.1262141,0.09928 0.17345,0.2214972 0.17345,0.4487809 0,0.2272838 -0.047236,0.3495006 -0.17345,0.4487809 -0.089802,0.070638 -0.1924834,0.087837 -0.6624875,0.1109669 L 8.875,10.122385 Z m 6.59375,2.59375 V 11.71875 H 14.484375 13.5 V 9.953125 8.1875 H 12.9375 12.375 v 2.1875 2.1875 h 1.546875 1.546875 z M 11.788726,7.3806169 C 12.013239,7.226165 12.177764,7.1875 12.610467,7.1875 H 13 V 6.09375 5 H 11.5 10 V 3.5 2 H 6.5 3 V 4.6384434 7.2768872 L 3.1013562,7.2478184 C 3.1571022,7.2318309 3.5070497,7.21875 3.8790175,7.21875 c 0.7665759,0 0.8849278,0.022397 1.1408103,0.2158841 L 5.171875,7.5496056 5.3237969,7.4346747 C 5.5784956,7.2419912 5.6996197,7.21875 6.4491075,7.21875 c 0.3633741,0 0.7083547,0.013673 0.7666237,0.030384 0.079019,0.022662 0.1438288,0.017993 0.2550132,-0.018374 0.1318537,-0.043127 0.3036512,-0.045183 1.4876,-0.017807 1.2227006,0.028273 1.3586306,0.03677 1.5708036,0.098191 0.281966,0.081625 0.62987,0.2415075 0.798977,0.3671768 l 0.125,0.092892 0.101226,-0.1494984 c 0.05567,-0.082224 0.161142,-0.1907181 0.234375,-0.2410975 z M 12.507813,4.0078197 11,3.9993997 V 2.4920082 0.98461663 L 12.515625,2.5 c 0.833594,0.8334609 1.515625,1.5189534 1.515625,1.5233166 0,0.00436 -0.0035,0.00456 -0.0078,4.281e-4 -0.0043,-0.00413 -0.686329,-0.011294 -1.515625,-0.015925 z"
       id="path825"
       inkscape:connector-curvature="0" />
    <path
       style="fill:#0098fe;stroke-width:0.03125"
       d="m 3,13.785622 v -0.214378 l 0.1661566,-0.01715 c 0.2062853,-0.02129 0.4157581,-0.117665 0.5909756,-0.271898 l 0.134235,-0.118158 0.1195022,0.103302 c 0.2645175,0.228657 0.3214718,0.241074 1.2391306,0.270165 0.7227697,0.02291 0.8477625,0.01988 0.9824806,-0.02382 0.2034456,-0.066 0.4093428,-0.210499 0.5123841,-0.359591 0.045793,-0.06626 0.091938,-0.121005 0.102545,-0.121657 0.010607,-6.53e-4 0.055855,0.05408 0.1005528,0.121618 0.099459,0.150293 0.3002428,0.292397 0.5101437,0.361052 0.132656,0.04339 0.2774894,0.04994 0.9199807,0.04163 0.738694,-0.0096 0.767424,-0.01229 0.9187881,-0.08727 0.085937,-0.04258 0.2117041,-0.133981 0.2794813,-0.203125 l 0.1232309,-0.125716 0.1144059,0.111607 c 0.062924,0.06138 0.1832507,0.145759 0.2673939,0.1875 0.147557,0.0732 0.180382,0.07624 0.924625,0.08567 0.4244,0.0054 0.81815,-0.0024 0.875,-0.0172 0.0684,-0.01785 0.140361,-0.01383 0.212738,0.01189 0.06412,0.02279 0.274219,0.0396 0.507813,0.04063 L 13,13.5625 V 13.78125 14 H 8 3 Z M 11.328125,7.6783212 C 11.159018,7.5526519 10.811114,7.3927697 10.529148,7.3111444 10.316975,7.2497231 10.181045,7.2412262 8.9583444,7.2129534 7.7743956,7.1855769 7.6025981,7.1876334 7.4707444,7.2307603 7.35956,7.2671272 7.2947503,7.2717966 7.2157312,7.2491344 7.1574622,7.2324228 6.8124816,7.21875 6.4491075,7.21875 c -0.7494878,0 -0.8706119,0.023241 -1.1253106,0.2159247 L 5.171875,7.5496056 5.0198278,7.4346341 C 4.7639453,7.2411466 4.6455934,7.21875 3.8790175,7.21875 c -0.3719678,0 -0.7219153,0.013081 -0.7776613,0.029068 L 3,7.2768872 V 4.6384434 2 H 6.5 10 V 3.5 5 H 11.5 13 V 6.09375 7.1875 h -0.389533 c -0.562876,0 -0.83897,0.1135137 -1.056116,0.4342147 l -0.101226,0.1494984 z"
       id="path823"
       inkscape:connector-curvature="0" />
    <path
       style="fill:#656565;stroke-width:0.03125"
       d="M 10.5,2.75 V 1 H 10.75 11 V 2.5 4 H 12.5 14 V 4.25 4.5 H 12.25 10.5 Z"
       id="path821"
       inkscape:connector-curvature="0" />
    <path
       style="fill:#323232;stroke-width:0.03125"
       d="M 1.796875,15.456011 C 1.6818888,15.404752 1.5776699,15.294675 1.5333316,15.177653 1.5128877,15.123696 1.5,14.780946 1.5,14.291196 v -0.798485 l 0.070312,0.01884 c 0.038672,0.01036 0.1511719,0.01904 0.25,0.01927 L 2,13.53125 V 14.265625 15 h 6 6 V 14.28125 13.5625 h 0.25148 0.251479 l -0.0093,0.810283 c -0.01023,0.892143 -0.009,0.886281 -0.224449,1.047161 l -0.0863,0.06443 -6.1461489,0.0067 c -5.0744435,0.0055 -6.1624953,-5.73e-4 -6.2398981,-0.03508 z M 2.0601571,12.539762 1.7921892,12.528976 1.2849211,10.370453 C 1.0059236,9.1832656 0.78197791,8.2091716 0.78726397,8.2057994 c 0.005286,-0.00337 0.23798053,-3.688e-4 0.51709883,0.00668 l 0.5074878,0.012808 0.030456,0.1139203 c 0.016751,0.062656 0.1021756,0.416264 0.1898329,0.7857953 0.2523806,1.063945 0.5271382,2.163444 0.545125,2.181431 0.00907,0.0091 0.022805,0.01017 0.030528,0.0024 0.011854,-0.01185 0.5375236,-2.1956519 0.6918024,-2.8739644 L 3.3487597,8.21875 h 0.5266394 c 0.4745784,0 0.528235,0.00541 0.5427815,0.054687 0.00888,0.030078 0.1729638,0.715625 0.3646341,1.5234375 0.1916703,0.8078125 0.3598087,1.4892405 0.3736409,1.5142865 0.017851,0.03232 0.035796,0.006 0.061841,-0.09073 C 5.2819356,10.984097 5.9375,8.2714956 5.9375,8.2445066 c 0,-0.014166 0.2329787,-0.025757 0.5177309,-0.025757 0.4781822,0 0.51654,0.00418 0.5021419,0.054687 -0.00857,0.030078 -0.2361359,0.996875 -0.5056934,2.1484374 -0.2695575,1.151563 -0.4990369,2.101523 -0.5099544,2.111023 -0.010917,0.0095 -0.2994647,0.0095 -0.6412156,0 L 4.6791437,12.515625 4.5116406,11.8125 C 4.1255866,10.191965 3.8966741,9.28125 3.8753991,9.28125 c -0.023008,0 -0.1610435,0.5519188 -0.5744528,2.296875 l -0.2295131,0.96875 -0.3716541,0.0018 c -0.2044098,0.001 -0.4922396,-0.003 -0.639622,-0.0089 z M 7.75,10.375911 V 8.1893225 l 1.0234375,0.017045 c 0.5628906,0.00937 1.1239488,0.029716 1.2467965,0.045204 0.722054,0.09103 1.104766,0.4810316 1.104766,1.1258094 0,0.4662228 -0.194541,0.8037351 -0.577373,1.0016921 -0.112005,0.05792 -0.203698,0.115613 -0.203761,0.128214 -6.3e-5,0.0126 0.06877,0.05782 0.152972,0.100487 0.191461,0.09702 0.28932,0.215303 0.532221,0.643299 0.167737,0.295554 0.627191,1.222154 0.627191,1.26488 0,0.0084 -0.258069,0.0153 -0.573488,0.0153 H 10.509275 L 10.330557,12.148438 C 9.9649241,11.365256 9.7334222,11.019351 9.5214031,10.939417 9.4730188,10.921175 9.3077844,10.90625 9.1542156,10.90625 H 8.875 V 11.734375 12.5625 H 8.3125 7.75 Z M 9.6462381,10.075095 C 9.9034894,10.044045 10.03125,9.8687628 10.03125,9.546875 10.03125,9.3195913 9.9840141,9.1973744 9.8578,9.0980941 9.7679975,9.0274556 9.6653166,9.0102566 9.1953125,8.9871275 L 8.875,8.9713647 v 0.5755103 0.57551 l 0.3203125,-0.01576 c 0.1761719,-0.0087 0.3790884,-0.02286 0.4509256,-0.03153 z M 12.375,10.375 V 8.1875 H 12.9375 13.5 v 1.765625 1.765625 h 0.984375 0.984375 V 12.140625 12.5625 H 13.921875 12.375 Z m 2.068785,-2.5035544 c -0.05503,-0.176585 -0.20692,-0.3904815 -0.33679,-0.4742775 l -0.107006,-0.069043 0.0011,-1.6706903 0.0011,-1.6706906 L 12.508998,2.4933721 11.015869,1 H 6.5079347 2 V 4.109375 7.21875 H 1.7495662 1.4991323 l 0.00825,-3.2008413 c 0.00819,-3.1776537 0.00871,-3.20146654 0.072677,-3.28713167 0.035437,-0.0474596 0.1032633,-0.11528415 0.150725,-0.15072112 0.086116,-0.0642975 0.09585,-0.0644495 4.7011941,-0.0733887 2.538195,-0.004927 4.6641186,-4.4719e-4 4.7242746,0.009955 0.09329,0.0161318 0.343039,0.25178866 1.698528,1.60270779 0.926805,0.9236806 1.604219,1.6228695 1.625302,1.6775451 0.02664,0.069098 0.03196,0.6342656 0.02022,2.1492853 -0.01355,1.7482066 -0.022,2.0360613 -0.05652,1.9252853 z"
       id="path819"
       inkscape:connector-curvature="0" />
  </g>
</svg>
