<?xml version="1.0" encoding="UTF-8" standalone="no"?>
<!-- Created with Inkscape (http://www.inkscape.org/) -->

<svg
   xmlns:dc="http://purl.org/dc/elements/1.1/"
   xmlns:cc="http://creativecommons.org/ns#"
   xmlns:rdf="http://www.w3.org/1999/02/22-rdf-syntax-ns#"
   xmlns:svg="http://www.w3.org/2000/svg"
   xmlns="http://www.w3.org/2000/svg"
   xmlns:sodipodi="http://sodipodi.sourceforge.net/DTD/sodipodi-0.dtd"
   xmlns:inkscape="http://www.inkscape.org/namespaces/inkscape"
   version="1.1"
   id="svg2"
   width="16"
   height="16"
   viewBox="0 0 16 16"
   sodipodi:docname="MIRROR_Z.svg"
   inkscape:version="0.92.4 (5da689c313, 2019-01-14)">
  <metadata
     id="metadata8">
    <rdf:RDF>
      <cc:Work
         rdf:about="">
        <dc:format>image/svg+xml</dc:format>
        <dc:type
           rdf:resource="http://purl.org/dc/dcmitype/StillImage" />
        <dc:title></dc:title>
      </cc:Work>
    </rdf:RDF>
  </metadata>
  <defs
     id="defs6" />
  <sodipodi:namedview
     pagecolor="#ffffff"
     bordercolor="#666666"
     borderopacity="1"
     objecttolerance="10"
     gridtolerance="10"
     guidetolerance="10"
     inkscape:pageopacity="0"
     inkscape:pageshadow="2"
     inkscape:window-width="828"
     inkscape:window-height="480"
     id="namedview4"
     showgrid="false"
     inkscape:zoom="14.75"
     inkscape:cx="8"
     inkscape:cy="8"
     inkscape:window-x="0"
     inkscape:window-y="0"
     inkscape:window-maximized="0"
     inkscape:current-layer="svg2" />
  <g
     id="MIRROR_Z">
    <path
       style="fill:#ffffff;stroke-width:0.03125"
       d="M 0,8 V 0 H 3.5 7 V 0.765625 1.53125 H 4.8498178 c -2.1021046,0 -2.1545292,0.00147 -2.3445986,0.065656 -0.3974884,0.1342339 -0.7740798,0.5108253 -0.9083137,0.9083137 -0.091838,0.2719483 -0.091838,0.7488633 0,1.0208114 0.1342339,0.3974885 0.5108253,0.77408 0.9083137,0.9083138 C 2.6952886,4.4985319 2.7477133,4.5 4.8498178,4.5 H 7 V 5.0742987 C 7,5.5742384 6.9932037,5.6541503 6.9475091,5.6914862 6.9012756,5.7292622 6.1073253,6.7163669 5.8125,7.1026234 5.5321566,7.4699069 3.3163941,10.22233 3.1815484,10.370795 c -0.083759,0.09222 -0.2182023,0.260968 -0.2987638,0.375 -0.080561,0.114031 -0.3156607,0.415152 -0.5224425,0.669157 -0.7984493,0.980791 -0.8034919,0.990267 -0.8224576,1.54559 -0.010176,0.29795 -0.00173,0.382016 0.055748,0.55473 0.1349531,0.405534 0.5096924,0.783351 0.9115867,0.919072 C 2.6952886,14.498532 2.7477133,14.5 4.8498178,14.5 H 7 V 15.25 16 H 3.5 0 Z m 8,7.5 V 15 H 11.5 15 V 8 1 H 11.5 8 V 0.5 0 h 4 4 v 8 8 H 12 8 Z M 6.1758475,11.492188 c 0.012807,-0.02149 0.1366841,-0.176432 0.2752816,-0.344327 0.1385978,-0.167895 0.3187928,-0.390191 0.4004334,-0.49399 L 7,10.465145 v 0.533053 0.533052 H 6.5762806 c -0.3305612,0 -0.4185997,-0.0086 -0.4004331,-0.03906 z"
       id="path831"
       inkscape:connector-curvature="0" />
    <path
       style="fill:#98cbfe;stroke-width:0.03125"
       d="M 8,14.75 V 14.5 h 2.165807 c 2.11798,0 2.170101,-0.0015 2.360224,-0.06566 0.397488,-0.134233 0.77408,-0.510825 0.908313,-0.908313 0.09184,-0.271948 0.09184,-0.748863 0,-1.020812 -0.134233,-0.397488 -0.510825,-0.77408 -0.908313,-0.908313 -0.190124,-0.06421 -0.242244,-0.06566 -2.360224,-0.06566 H 8 V 10.987893 10.444537 L 8.4525847,9.8863309 C 8.7015066,9.5793175 8.9769638,9.24375 9.0647119,9.140625 9.15246,9.0375 9.2996263,8.8476563 9.3917475,8.71875 9.4838691,8.5898438 9.6830213,8.3340222 9.8343081,8.1502578 10.5533,7.2769156 10.88879,6.8582678 11.019461,6.6713416 c 0.0783,-0.1120113 0.208833,-0.2772454 0.29007,-0.3671869 0.149921,-0.1659847 0.794712,-0.9635788 1.080662,-1.3367572 0.08618,-0.1124628 0.335882,-0.4277938 0.554903,-0.7007356 0.487007,-0.6069013 0.531464,-0.703876 0.54827,-1.1959539 0.01018,-0.2979499 0.0017,-0.3820157 -0.05575,-0.5547299 C 13.302664,2.110444 12.927925,1.7326273 12.526031,1.5969055 12.335907,1.5326999 12.283787,1.53125 10.165807,1.53125 H 8 V 1.265625 1 h 3.5 3.5 v 7 7 H 11.5 8 Z M 8,5.0656238 V 4.5 H 8.4388469 8.8776937 L 8.7098266,4.7109375 C 8.6174994,4.8269531 8.5085275,4.9710937 8.4676669,5.03125 8.4268059,5.0914063 8.304865,5.251015 8.1966872,5.3859363 L 8,5.6312472 Z"
       id="path829"
       inkscape:connector-curvature="0" />
    <path
       style="fill:#fecb35;stroke-width:0.03125"
       d="M 2.6769445,13.951609 C 2.4151657,13.855597 2.1713476,13.607971 2.0779535,13.343264 2.0507273,13.266097 2.0332168,13.118045 2.0359662,12.988258 L 2.0406823,12.765625 2.0618744,13 c 0.041194,0.455592 0.259571,0.738704 0.7139496,0.925592 0.1966678,0.08089 0.1116934,0.103249 -0.09888,0.02602 z M 2.3625311,12.225868 c 0.07883,-0.06483 0.75139,-0.906727 0.958272,-1.199551 C 3.40165,10.911886 3.5077016,10.778292 3.5564734,10.729442 3.6052453,10.680593 4.1775703,9.9726563 4.8283069,9.15625 5.4790431,8.3398438 6.0517284,7.631465 6.1009403,7.5820753 6.1501525,7.5326853 6.2443594,7.4131541 6.3102891,7.3164503 6.3762187,7.2197462 6.558375,6.9806722 6.7150806,6.7851744 L 7,6.4297237 V 8.0242384 9.6187528 L 6.8028972,9.8640637 C 6.6944906,9.998985 6.5609459,10.175118 6.5061316,10.255471 6.4513172,10.335824 6.3607166,10.450311 6.3047969,10.509886 6.2488775,10.569461 5.95,10.935996 5.640625,11.324409 l -0.5625,0.706205 -1.1288834,3.18e-4 c -1.2193573,3.44e-4 -1.2832386,0.0077 -1.4996981,0.172807 -0.1140687,0.087 -0.1891088,0.106089 -0.087012,0.02213 z"
       id="path827"
       inkscape:connector-curvature="0" />
    <path
       style="fill:#fecb32;stroke-width:0.03125"
       d="m 2.775824,13.925592 c -0.3472215,-0.142814 -0.6001517,-0.39862 -0.6815312,-0.689279 -0.050818,-0.181505 -0.02839,-0.532972 0.043483,-0.681405 0.076994,-0.15901 0.2725269,-0.348407 0.4498847,-0.435767 L 2.734375,12.046875 4.8671875,12.03843 7,12.029984 V 13.014992 14 L 4.9765625,13.999259 2.953125,13.998519 2.775824,13.925594 Z M 2.6769445,3.9516094 C 2.4021023,3.8508056 2.13937,3.5714278 2.0630428,3.2988134 2.0069298,3.0983978 2.0336236,2.7652141 2.1200185,2.5876603 2.2108551,2.4009779 2.3998084,2.21167 2.5876603,2.1191413 L 2.734375,2.046875 4.8671875,2.0384296 7,2.0299843 V 3.0149921 4 L 4.8984375,3.9978 C 3.173465,3.9959906 2.775384,3.9877125 2.6769445,3.9516081 Z"
       id="path825"
       inkscape:connector-curvature="0" />
    <path
       style="fill:#fe9832;stroke-width:0.03125"
       d="m 8,13.015625 v -0.985632 l 2.148438,0.0084 2.148437,0.0084 0.146715,0.07227 c 0.187258,0.09224 0.376282,0.281261 0.468519,0.468519 0.0593,0.120393 0.07227,0.197174 0.07227,0.427965 0,0.230791 -0.01296,0.307572 -0.07227,0.427965 -0.09224,0.187258 -0.281261,0.376282 -0.468519,0.468519 l -0.146715,0.07227 -2.148437,0.0084 L 8,14.001257 Z M 8,8.0110309 V 6.4283119 L 8.1147306,6.2844684 C 8.1778325,6.2053547 8.2529356,6.1195312 8.2816263,6.09375 8.3498788,6.0324187 8.7965278,5.4697269 8.9513716,5.25 9.1001469,5.0388844 9.4294978,4.6261662 9.5,4.5625 9.5682569,4.5008609 9.9375,4.0413806 9.9375,4.0180816 9.9375,4.0081369 9.5015625,4 8.96875,4 H 8 V 3.0149964 2.0299927 l 2.148438,0.00844 2.148437,0.00844 0.146715,0.072266 c 0.330995,0.1630356 0.531737,0.4687392 0.551219,0.8394333 0.01795,0.3414498 -0.03688,0.4635063 -0.431814,0.9612641 C 12.374938,4.15686 12.201883,4.3667816 12.178429,4.3863309 12.154975,4.40588 12.081678,4.4992187 12.015547,4.59375 11.862985,4.8118303 11.050132,5.8259844 10.91917,5.9616416 10.864871,6.0178881 10.758891,6.1502494 10.683659,6.2557775 10.500635,6.5125087 9.8157016,7.3818259 9.7627209,7.4246325 9.7068387,7.4697834 9.0937078,8.2427212 8.8684809,8.5519478 8.7703641,8.6866578 8.6340259,8.8569928 8.5655072,8.93047 8.4969884,9.0039472 8.3464803,9.1832441 8.2310444,9.3289075 8.1156088,9.4745709 8.0164,9.59375 8.0105806,9.59375 8.0047613,9.59375 8,8.8815266 8,8.0110309 Z"
       id="path823"
       inkscape:connector-curvature="0" />
    <path
       style="fill:#00fe00;stroke-width:0.03125"
       d="M 7,8 V 0 H 7.5 8 v 8 8 H 7.5 7 Z"
       id="path821"
       inkscape:connector-curvature="0" />
    <path
       style="fill:#653200;stroke-width:0.03125"
       d="M 2.4770194,14.424346 C 2.0793452,14.276593 1.7259681,13.91294 1.5936325,13.515272 c -0.057476,-0.172714 -0.065924,-0.25678 -0.055748,-0.55473 0.018966,-0.555323 0.024008,-0.564799 0.8224576,-1.54559 0.2067818,-0.254005 0.441881,-0.555126 0.5224425,-0.669157 0.080561,-0.114032 0.2150052,-0.282782 0.2987638,-0.375 C 3.3163941,10.22233 5.5321566,7.4699069 5.8125,7.1026234 6.1073253,6.7163669 6.9012756,5.7292622 6.9475091,5.6914863 6.9961516,5.6517419 7,5.6772328 7,6.0391606 V 6.4297237 L 6.7150806,6.7851744 C 6.558375,6.9806722 6.3762187,7.2197462 6.3102891,7.3164503 6.2443594,7.4131541 6.1501525,7.5326853 6.1009403,7.5820753 6.0517284,7.631465 5.4790431,8.3398438 4.8283069,9.15625 4.1775703,9.9726563 3.6052453,10.680593 3.5564734,10.729442 c -0.048772,0.04885 -0.1548234,0.182444 -0.2356703,0.296875 -0.183334,0.259494 -0.8614401,1.108888 -0.9995315,1.252012 -0.056491,0.05855 -0.1413402,0.185112 -0.1885538,0.28125 -0.074317,0.151327 -0.085843,0.212558 -0.085843,0.456046 0,0.230791 0.012965,0.307572 0.072266,0.427965 0.092236,0.187258 0.281261,0.376282 0.468519,0.468519 l 0.1467147,0.07227 2.1328125,0.0084 L 7,14.001266 V 14.250633 14.5 L 4.8359375,14.4984 2.671875,14.4968 2.4770194,14.4244 Z M 8,14.250629 v -0.249372 l 2.148438,-0.0084 2.148437,-0.0084 0.146715,-0.07227 c 0.187258,-0.09224 0.376282,-0.281261 0.468519,-0.468519 0.0593,-0.120393 0.07227,-0.197174 0.07227,-0.427965 0,-0.328552 -0.06361,-0.493752 -0.269302,-0.699448 -0.06862,-0.06862 -0.19079,-0.157289 -0.271483,-0.197036 l -0.146715,-0.07227 -2.148437,-0.0084 L 8,12.029993 V 11.780621 11.53125 h 2.165807 c 2.11798,0 2.170101,0.0015 2.360224,0.06566 0.397488,0.134233 0.77408,0.510825 0.908313,0.908313 0.09184,0.271948 0.09184,0.748863 0,1.020812 -0.134233,0.397488 -0.510825,0.77408 -0.908313,0.908313 C 12.335907,14.49855 12.283787,14.5 10.165807,14.5 H 8 Z M 5.1136938,11.992188 c 0.045877,-0.07583 1.1484765,-1.446174 1.2132109,-1.507813 0.036101,-0.03438 0.11362,-0.132812 0.1722641,-0.21875 0.058644,-0.08594 0.1953218,-0.26664 0.3037284,-0.4015612 L 7,9.6187528 v 0.4231962 0.423196 l -0.1484375,0.188367 c -0.081641,0.103602 -0.2731531,0.33996 -0.4255834,0.52524 l -0.277146,0.336873 0.4255835,0.0087 L 7,11.533014 v 0.249118 0.249118 H 6.0450306 c -0.7557459,0 -0.950039,-0.0081 -0.9313368,-0.03906 z M 8,10.030527 V 9.6165175 L 8.241105,9.3160713 C 8.3737128,9.1508259 8.5266447,8.9695728 8.5809531,8.9132866 8.6352619,8.8570003 8.7623112,8.6975644 8.8632856,8.5589844 9.0930388,8.2436641 9.7063247,7.4701987 9.7627209,7.4246325 9.8157016,7.3818259 10.500635,6.5125087 10.683659,6.2557775 10.758891,6.1502494 10.864871,6.0178881 10.91917,5.9616416 11.050132,5.8259844 11.862985,4.8118303 12.015547,4.59375 12.081678,4.4992187 12.154975,4.40588 12.178429,4.3863309 12.201883,4.3667816 12.374938,4.15686 12.562995,3.9198388 12.957925,3.4220809 13.012755,3.3000244 12.994809,2.9585746 12.975327,2.5878805 12.774585,2.2821769 12.44359,2.1191413 L 12.296875,2.046875 10.148438,2.0384339 8,2.0299927 V 1.7806214 1.53125 h 2.165807 c 2.11798,0 2.170101,0.00145 2.360224,0.065656 0.401894,0.1357218 0.776633,0.5135385 0.911587,0.9190726 0.05748,0.1727142 0.06592,0.25678 0.05575,0.5547299 -0.01681,0.4920779 -0.06126,0.5890526 -0.54827,1.1959539 -0.219021,0.2729419 -0.468728,0.5882728 -0.554903,0.7007356 -0.28595,0.3731784 -0.930741,1.1707725 -1.080662,1.3367572 -0.08124,0.089942 -0.211769,0.2551756 -0.29007,0.3671869 C 10.88879,6.8582678 10.5533,7.2769156 9.8343081,8.1502578 9.6830213,8.3340222 9.4838691,8.5898438 9.3917475,8.71875 9.2996262,8.8476563 9.15246,9.0375 9.0647119,9.140625 8.9769638,9.24375 8.7015066,9.5793175 8.4525847,9.8863309 L 8,10.444537 Z M 8.0010469,6.0265613 8,5.6312472 8.1966872,5.3859363 C 8.304865,5.251015 8.4268059,5.0914063 8.4676669,5.03125 8.5085275,4.9710937 8.6174994,4.8269531 8.7098266,4.7109375 L 8.8776938,4.5 H 8.4388469 8 V 4.25 4 H 8.96875 C 9.5015625,4 9.9375,4.0081369 9.9375,4.0180816 9.9375,4.0413806 9.5682569,4.5008609 9.5,4.5625 9.4294978,4.6261662 9.1001469,5.0388844 8.9513716,5.25 8.8017925,5.4622562 8.3543697,6.0245056 8.2673069,6.1096228 c -0.0353,0.034511 -0.1094135,0.1188863 -0.1646966,0.1875 L 8.0020956,6.421875 8.0010488,6.0265613 Z M 2.4770194,4.4243462 C 2.0836996,4.2782109 1.7284805,3.9156456 1.5969055,3.5260306 c -0.091838,-0.2719481 -0.091838,-0.7488631 0,-1.0208114 C 1.7311394,2.1077308 2.1077308,1.7311394 2.5052192,1.5969055 2.6952886,1.532718 2.7477133,1.53125 4.8498178,1.53125 H 7 v 0.2493671 0.2493672 l -2.1328125,0.00845 -2.1328125,0.00845 -0.1467147,0.072266 c -0.187258,0.092236 -0.3762828,0.281261 -0.468519,0.468519 -0.059301,0.1203924 -0.072266,0.1971742 -0.072266,0.4279647 0,0.3285522 0.063605,0.4937525 0.2693015,0.6994484 0.068623,0.068623 0.1907906,0.1572888 0.2714838,0.1970354 L 2.734375,3.984375 4.8671875,3.9928203 7,4.0012656 V 4.2506328 4.5 L 4.8359375,4.4983719 2.671875,4.4967437 2.4770194,4.4243466 Z"
       id="path819"
       inkscape:connector-curvature="0" />
  </g>
</svg>
