<?xml version="1.0" encoding="UTF-8" standalone="no"?>
<!-- Created with Inkscape (http://www.inkscape.org/) -->

<svg
   xmlns:dc="http://purl.org/dc/elements/1.1/"
   xmlns:cc="http://creativecommons.org/ns#"
   xmlns:rdf="http://www.w3.org/1999/02/22-rdf-syntax-ns#"
   xmlns:svg="http://www.w3.org/2000/svg"
   xmlns="http://www.w3.org/2000/svg"
   xmlns:sodipodi="http://sodipodi.sourceforge.net/DTD/sodipodi-0.dtd"
   xmlns:inkscape="http://www.inkscape.org/namespaces/inkscape"
   version="1.1"
   id="svg2"
   width="16"
   height="16"
   viewBox="0 0 16 16"
   sodipodi:docname="MIRROR_X.svg"
   inkscape:version="0.92.4 (5da689c313, 2019-01-14)">
  <metadata
     id="metadata8">
    <rdf:RDF>
      <cc:Work
         rdf:about="">
        <dc:format>image/svg+xml</dc:format>
        <dc:type
           rdf:resource="http://purl.org/dc/dcmitype/StillImage" />
        <dc:title></dc:title>
      </cc:Work>
    </rdf:RDF>
  </metadata>
  <defs
     id="defs6" />
  <sodipodi:namedview
     pagecolor="#ffffff"
     bordercolor="#666666"
     borderopacity="1"
     objecttolerance="10"
     gridtolerance="10"
     guidetolerance="10"
     inkscape:pageopacity="0"
     inkscape:pageshadow="2"
     inkscape:window-width="828"
     inkscape:window-height="480"
     id="namedview4"
     showgrid="false"
     inkscape:zoom="14.75"
     inkscape:cx="8"
     inkscape:cy="8"
     inkscape:window-x="0"
     inkscape:window-y="0"
     inkscape:window-maximized="0"
     inkscape:current-layer="svg2" />
  <g
     id="MIRROR_X">
    <path
       style="fill:#ffffff;stroke-width:0.03125"
       d="M 0,8 V 0 H 3.5 7 L 6.9996531,2.7734375 6.9993062,5.546875 6.9137153,5.4378669 C 6.8666403,5.3779125 6.7718744,5.2651709 6.7031244,5.18733 6.6343744,5.1094894 6.4494137,4.8843244 6.2921006,4.6869631 6.1347884,4.4896022 5.6306637,3.8570313 5.1718241,3.28125 4.7129847,2.7054688 4.2914666,2.1775093 4.2351169,2.1080069 4.0970475,1.9377102 3.8338938,1.7613514 3.5807425,1.6694625 3.2978078,1.5667627 2.8243029,1.5622025 2.5364692,1.6594055 2.1345749,1.7951273 1.7598356,2.172944 1.6248825,2.5784781 c -0.057476,0.1727142 -0.065924,0.25678 -0.055748,0.55473 0.016876,0.4941263 0.061635,0.5915085 0.5509642,1.1987319 0.2199172,0.2729016 0.559355,0.7000912 0.7543061,0.94931 0.1949512,0.2492187 0.4155621,0.5234375 0.4902461,0.609375 0.074684,0.085937 0.2657685,0.3199297 0.4246316,0.5199825 0.1588634,0.2000528 0.4790972,0.6008341 0.7116303,0.890625 C 5.0617594,8.0001781 5.0726987,8.0163022 5.0344969,8.0876831 5.0174003,8.1196281 4.9790238,8.1657025 4.9492153,8.19007 4.9017822,8.2288456 4.1152538,9.2061631 3.8125,9.6025197 3.7523438,9.6812747 3.2877213,10.263473 2.7800058,10.896293 1.6270183,12.333385 1.6934636,12.24345 1.6053424,12.486221 c -0.1010246,0.27832 -0.104886,0.754208 -0.00844,1.03981 0.1342339,0.397488 0.5108253,0.77408 0.9083137,0.908313 C 2.652712,14.484154 2.7770233,14.5 3.0202713,14.5 3.5809978,14.5 3.8802706,14.341889 4.3139484,13.816529 4.4505647,13.651032 4.6339278,13.43125 4.7214228,13.328125 4.8089175,13.225 4.9558762,13.035156 5.0479975,12.90625 c 0.092122,-0.128906 0.29496,-0.389062 0.4507528,-0.578125 0.4886285,-0.592977 1.0115963,-1.248133 1.1496472,-1.440239 0.073025,-0.101619 0.1814813,-0.241011 0.2410141,-0.309761 l 0.1082418,-0.125 0.00117,2.773438 L 7,16 H 3.5 0 Z m 8,7.5 V 15 H 11.5 15 V 8 1 H 11.5 8 V 0.5 0 h 4 4 v 8 8 H 12 8 Z"
       id="path829"
       inkscape:connector-curvature="0" />
    <path
       style="fill:#98cbfe;stroke-width:0.03125"
       d="m 8.0013325,12.710938 0.00133,-2.289063 0.1242006,0.140625 c 0.06831,0.07734 0.1837262,0.223767 0.25648,0.325386 0.1368356,0.191125 0.6553756,0.841012 1.1491544,1.440239 0.1557928,0.189063 0.3586312,0.449219 0.4507528,0.578125 0.092121,0.128906 0.2390807,0.31875 0.3265747,0.421875 0.0875,0.103125 0.270858,0.322907 0.407475,0.488404 0.433678,0.52536 0.732951,0.683471 1.293678,0.683471 0.243248,0 0.367559,-0.01585 0.515052,-0.06566 0.397488,-0.134233 0.77408,-0.510825 0.908313,-0.908313 0.09645,-0.285602 0.09259,-0.76149 -0.0084,-1.03981 -0.08812,-0.242771 -0.02168,-0.152836 -1.174663,-1.589928 C 11.743529,10.263473 11.278906,9.6812747 11.21875,9.6025197 10.915996,9.2061631 10.129468,8.2288456 10.082035,8.19007 10.052226,8.1657025 10.01385,8.1196281 9.9967531,8.0876831 9.9585512,8.0163022 9.9694906,8.0001781 10.530337,7.3012325 c 0.232533,-0.2897909 0.552767,-0.6905722 0.71163,-0.890625 0.158864,-0.2000528 0.349948,-0.434045 0.424632,-0.5199825 0.07468,-0.085937 0.295295,-0.3601563 0.490246,-0.609375 0.194951,-0.2492188 0.534389,-0.6764084 0.754306,-0.94931 0.48933,-0.6072234 0.534089,-0.7046056 0.550965,-1.1987319 0.01018,-0.29795 0.0017,-0.3820159 -0.05575,-0.55473 C 13.271414,2.172944 12.896675,1.7951273 12.494781,1.6594055 12.206947,1.5622025 11.733442,1.5667627 11.450508,1.6694625 11.197356,1.7613514 10.934203,1.9377102 10.796133,2.1080069 10.739783,2.1775093 10.318265,2.7054688 9.8594259,3.28125 9.4005863,3.8570313 8.8964616,4.4896022 8.7391488,4.6869631 8.5818356,4.8843244 8.396875,5.1097303 8.328125,5.1878659 8.259375,5.2660012 8.1578934,5.3857741 8.1026103,5.4540275 L 8.0020956,5.578125 8.0010478,3.2890625 8,1 h 3.5 3.5 v 7 7 H 11.5 8 l 0.00133,-2.289062 z"
       id="path827"
       inkscape:connector-curvature="0" />
    <path
       style="fill:#fecb32;stroke-width:0.03125"
       d="M 2.6769445,13.951609 C 2.4021023,13.850806 2.13937,13.571428 2.0630428,13.298813 2.0040861,13.088241 2.0329517,12.7589 2.1257046,12.583878 2.2008132,12.44215 3.8577019,10.340946 4.0813125,10.103849 4.1424344,10.039041 4.2541406,9.8977569 4.3295494,9.7898841 4.4879856,9.5632384 5.2075081,8.6571322 5.269195,8.6065728 5.2920456,8.5878441 5.4087925,8.4499525 5.5286325,8.3001472 5.7389944,8.0371853 5.7445666,8.0258166 5.6898937,7.9711438 5.6587475,7.9399975 5.5716391,7.8318094 5.4963197,7.7307256 5.2927619,7.4575375 4.5252556,6.4891916 4.4836997,6.453125 4.4362947,6.4119819 4.10845,6.0005416 3.942335,5.77372 3.8700709,5.6750475 3.770355,5.5527909 3.7207434,5.5020394 3.6711319,5.4512875 3.4904794,5.2296759 3.3192931,5.0095691 3.1481069,4.7894625 2.8169558,4.372125 2.583402,4.0821525 2.0986151,3.4802581 2.0489301,3.3780309 2.0676906,3.0210746 2.0817457,2.7536495 2.1660471,2.5600558 2.3474265,2.3786765 2.5531226,2.1729803 2.7183228,2.109375 3.046875,2.109375 c 0.2446797,0 0.3043847,0.011361 0.4591712,0.087372 0.097857,0.048055 0.227016,0.1394608 0.2870201,0.203125 0.060004,0.063664 0.4783193,0.5798157 0.9295893,1.1470032 1.1179985,1.4051787 1.541405,1.9313572 1.6379913,2.0355756 0.044941,0.048493 0.2071809,0.2534072 0.3605322,0.4553663 L 7,6.405015 6.9998125,8.02282 6.999625,9.640625 6.8275294,9.8562188 C 6.7328766,9.9747953 6.6368109,10.087295 6.61405,10.106219 c -0.055011,0.04574 -0.3827238,0.459546 -0.534585,0.675031 -0.1487741,0.211105 -0.6051066,0.784326 -0.6614525,0.830883 -0.055732,0.04605 -0.6720025,0.82355 -0.8935438,1.127315 -0.098246,0.13471 -0.2246628,0.294146 -0.2809256,0.354302 -0.056263,0.06016 -0.1979028,0.227824 -0.3147553,0.372595 -0.2345687,0.290613 -0.3860016,0.416547 -0.5855503,0.486952 -0.1639722,0.05785 -0.5063472,0.05699 -0.6663196,-0.0017 z"
       id="path825"
       inkscape:connector-curvature="0" />
    <path
       style="fill:#fe9832;stroke-width:0.03125"
       d="M 11.676944,13.953131 C 11.486121,13.880722 11.330407,13.748784 11.102436,13.466345 10.985583,13.321574 10.843943,13.153906 10.78768,13.09375 10.731418,13.033594 10.605001,12.874158 10.506755,12.739448 10.285213,12.435683 9.6689434,11.658182 9.6132109,11.612133 9.556865,11.565576 9.1005325,10.992355 8.9517584,10.78125 8.7968169,10.561394 8.4738134,10.154643 8.4058097,10.09375 8.3770181,10.067969 8.2739325,9.9468822 8.1767306,9.8246691 L 8,9.6024631 V 8.0253119 6.4481606 L 8.2937431,6.0600178 C 8.4553016,5.8465394 8.6245725,5.6319166 8.6699003,5.5830788 8.7670131,5.4784456 9.1865559,4.9571313 10.308594,3.546875 c 0.45127,-0.5671875 0.869585,-1.0833389 0.92959,-1.1470032 0.06,-0.063664 0.189163,-0.1550705 0.28702,-0.203125 0.154786,-0.076011 0.214491,-0.087372 0.459171,-0.087372 0.328552,0 0.493752,0.063605 0.699448,0.2693015 0.18138,0.1813793 0.265681,0.374973 0.279736,0.6423981 0.01876,0.3569563 -0.03092,0.4591835 -0.515711,1.0610779 -0.233554,0.2899725 -0.564705,0.70731 -0.735891,0.9274166 -0.171186,0.2201068 -0.351839,0.4417184 -0.40145,0.4924703 -0.04961,0.050751 -0.149328,0.1730081 -0.221592,0.2716806 -0.166115,0.2268216 -0.49396,0.6382619 -0.541365,0.679405 -0.04156,0.036067 -0.8090619,1.0044125 -1.0126197,1.2776006 -0.075319,0.1010838 -0.1624278,0.2092719 -0.1935741,0.2404181 -0.054673,0.054673 -0.049101,0.066042 0.1612613,0.3290035 0.11984,0.1498053 0.2365869,0.2876969 0.2594375,0.3064256 0.061687,0.050559 0.781209,0.9566656 0.939646,1.1833113 0.07541,0.1078728 0.187115,0.2491571 0.248237,0.3139651 0.224898,0.238462 1.880715,2.338709 1.956312,2.481398 0.06667,0.125844 0.07813,0.18881 0.07813,0.429544 0,0.231662 -0.01292,0.308309 -0.07227,0.428799 -0.09234,0.187473 -0.281471,0.376474 -0.468519,0.4682 -0.183057,0.08977 -0.582284,0.111297 -0.766646,0.04134 z"
       id="path823"
       inkscape:connector-curvature="0" />
    <path
       style="fill:#00fe00;stroke-width:0.03125"
       d="M 7,8 V 0 H 7.5 8 v 8 8 H 7.5 7 Z"
       id="path821"
       inkscape:connector-curvature="0" />
    <path
       style="fill:#653200;stroke-width:0.03125"
       d="m 2.4770194,14.424346 c -0.3933198,-0.146135 -0.7485389,-0.5087 -0.8801139,-0.898315 -0.096449,-0.285602 -0.092588,-0.76149 0.00844,-1.03981 0.088121,-0.242771 0.021676,-0.152836 1.1746634,-1.589928 C 3.2877213,10.263473 3.7523438,9.6812747 3.8125,9.6025197 4.1152537,9.2061631 4.9017822,8.2288456 4.9492153,8.19007 4.9790237,8.1657025 5.0174003,8.1196281 5.0344969,8.0876831 5.0726987,8.0163022 5.0617594,8.0001781 4.5009128,7.3012325 4.2683797,7.0114416 3.9481459,6.6106603 3.7892825,6.4106075 3.6304194,6.2105547 3.439335,5.9765625 3.3646509,5.890625 3.2899669,5.8046875 3.069356,5.5304687 2.8744048,5.28125 2.6794537,5.0320312 2.3400159,4.6048416 2.1200987,4.33194 1.6307692,3.7247166 1.5860102,3.6273344 1.5691345,3.1332081 1.5589587,2.8352581 1.5674069,2.7511923 1.6248825,2.5784781 1.7598356,2.172944 2.1345749,1.7951273 2.5364692,1.6594055 c 0.2878337,-0.097203 0.7613386,-0.092643 1.0442733,0.010057 0.2531513,0.091889 0.516305,0.2682477 0.6543744,0.4385444 0.05635,0.069502 0.4777687,0.5974619 0.9364868,1.1732431 0.7234425,0.9080622 1.1265725,1.4088409 1.6965251,2.1074687 L 7.0018825,5.5526694 6.9931288,5.9701103 6.984375,6.3875509 6.7141628,6.0297128 C 6.5655459,5.8329022 6.4068222,5.6319166 6.3614431,5.5830788 6.26436,5.4785959 5.8465834,4.9595062 4.7226556,3.546875 4.2713856,2.9796875 3.8530706,2.4635361 3.7930663,2.3998718 3.7330622,2.3362076 3.6039031,2.2448013 3.5060462,2.1967468 3.3512597,2.1207358 3.2915547,2.109375 3.046875,2.109375 c -0.3285522,0 -0.4937524,0.063605 -0.6994485,0.2693015 -0.1813794,0.1813793 -0.2656808,0.374973 -0.2797359,0.6423981 -0.01876,0.3569563 0.030924,0.4591835 0.5157114,1.0610779 0.2335538,0.2899725 0.5647049,0.70731 0.7358911,0.9274166 0.1711863,0.2201068 0.3518388,0.4417184 0.4014503,0.4924703 0.049612,0.050751 0.1493275,0.1730081 0.2215916,0.2716806 0.166115,0.2268216 0.4939597,0.6382619 0.5413647,0.679405 0.041556,0.036067 0.8090622,1.0044125 1.01262,1.2776006 0.075319,0.1010838 0.1624278,0.2092719 0.1935741,0.2404181 0.054673,0.054673 0.049101,0.066042 -0.1612613,0.3290035 C 5.4087925,8.4499525 5.2920456,8.5878441 5.269195,8.6065728 5.2075081,8.6571322 4.4879856,9.5632384 4.3295494,9.7898841 4.2541406,9.8977569 4.1424344,10.039041 4.0813125,10.103849 3.8564138,10.342311 2.2005973,12.442558 2.125,12.585247 c -0.066673,0.125844 -0.078125,0.18881 -0.078125,0.429544 0,0.329462 0.063435,0.494416 0.2693015,0.700282 0.1769787,0.176979 0.375531,0.265077 0.6307254,0.279854 0.4082084,0.02364 0.6341922,-0.09773 0.9801934,-0.526433 0.1177978,-0.145953 0.2602113,-0.314588 0.3164744,-0.374744 0.056263,-0.06016 0.1826794,-0.219592 0.2809256,-0.354302 0.2215413,-0.303765 0.8378113,-1.081266 0.8935438,-1.127315 0.056346,-0.04656 0.5126784,-0.619778 0.6614525,-0.830883 0.1492612,-0.211796 0.4692015,-0.612183 0.5773562,-0.722529 0.044152,-0.04505 0.1359088,-0.1549057 0.2039025,-0.2441297 l 0.1236247,-0.1622257 0.00876,0.3938694 0.00876,0.393869 -0.1819981,0.225261 C 6.71979,10.789258 6.5727025,10.982031 6.4930278,11.09375 6.4133531,11.205469 6.2241244,11.447283 6.0725197,11.631116 5.4543603,12.380683 5.1623984,12.744696 5.0247178,12.9375 4.9449397,13.049219 4.8082684,13.225 4.7210041,13.328125 4.6337394,13.43125 4.4505647,13.651032 4.3139484,13.816529 3.8756525,14.347484 3.5809341,14.501168 3.006391,14.498372 2.7363107,14.497056 2.6343412,14.482798 2.4770194,14.424346 Z m 9.0029636,0.0011 C 11.205381,14.323354 11.000954,14.160149 10.717302,13.816531 10.580685,13.651032 10.397511,13.43125 10.310246,13.328125 10.222982,13.225 10.08631,13.049219 10.006532,12.9375 9.8688516,12.744696 9.5768897,12.380683 8.9587303,11.631116 8.8071256,11.447283 8.618045,11.205469 8.5385512,11.09375 8.4590575,10.982031 8.3049434,10.781623 8.1960753,10.648398 l -0.1979422,-0.242227 0.00875,-0.394775 0.00875,-0.3947757 0.1560538,0.1995025 c 0.085829,0.1097263 0.1848928,0.2276272 0.2201403,0.2620022 0.086723,0.08458 0.4109381,0.491698 0.5599393,0.703125 0.1487741,0.211105 0.6051066,0.784326 0.6614525,0.830883 0.055732,0.04605 0.672002,0.82355 0.893544,1.127315 0.09825,0.13471 0.224662,0.294146 0.280925,0.354302 0.05626,0.06016 0.198677,0.228791 0.316475,0.374744 0.346001,0.4287 0.571985,0.550069 0.980193,0.526433 0.255195,-0.01478 0.453747,-0.102875 0.630725,-0.279854 0.205867,-0.205866 0.269302,-0.37082 0.269302,-0.700282 0,-0.240734 -0.01145,-0.3037 -0.07813,-0.429544 -0.0756,-0.142689 -1.731414,-2.242936 -1.956312,-2.481398 -0.06113,-0.06481 -0.172832,-0.2060921 -0.24824,-0.3139649 C 10.543264,9.5632384 9.8237419,8.6571322 9.762055,8.6065728 9.7392044,8.5878441 9.6224575,8.4499525 9.5026175,8.3001472 9.2922556,8.0371853 9.2866834,8.0258166 9.3413562,7.9711438 9.3725025,7.9399975 9.4596109,7.8318094 9.5349303,7.7307256 9.7384881,7.4575375 10.505994,6.4891916 10.54755,6.453125 10.59496,6.411982 10.9228,6.0005416 11.088915,5.77372 c 0.07226,-0.098673 0.17198,-0.2209291 0.221592,-0.2716806 0.04961,-0.050752 0.230264,-0.2723635 0.40145,-0.4924703 C 11.883143,4.7894625 12.214294,4.372125 12.447848,4.0821525 12.932635,3.4802581 12.98232,3.3780309 12.963559,3.0210746 12.949504,2.7536495 12.865203,2.5600558 12.683823,2.3786765 12.478127,2.1729803 12.312927,2.109375 11.984375,2.109375 c -0.24468,0 -0.304385,0.011361 -0.459171,0.087372 -0.09786,0.048055 -0.227016,0.1394608 -0.28702,0.203125 -0.06001,0.063664 -0.47832,0.5798157 -0.92959,1.1470032 C 9.1790031,4.9666241 8.7734381,5.4704812 8.6623013,5.5921603 8.6100953,5.6493184 8.4432363,5.8611131 8.2915034,6.062815 L 8.015625,6.4295456 8.0069141,6.0091016 7.9982031,5.5886575 8.1475391,5.4070156 C 8.5544022,4.9121362 9.1027488,4.2313047 9.8596463,3.28125 10.318364,2.7054687 10.739783,2.1775093 10.796133,2.1080069 c 0.13807,-0.1702967 0.401223,-0.3466555 0.654375,-0.4385444 0.282934,-0.1026998 0.756439,-0.10726 1.044273,-0.010057 0.401894,0.1357218 0.776633,0.5135385 0.911587,0.9190726 0.05748,0.1727142 0.06592,0.25678 0.05575,0.55473 -0.01688,0.4941263 -0.06164,0.5915085 -0.550965,1.1987319 -0.219917,0.2729016 -0.559355,0.7000912 -0.754306,0.94931 -0.194951,0.2492187 -0.415562,0.5234375 -0.490246,0.609375 -0.07468,0.085937 -0.265768,0.3199297 -0.424631,0.5199825 -0.158864,0.2000528 -0.479098,0.6008341 -0.711631,0.890625 -0.5608464,0.6989456 -0.5717857,0.7150697 -0.5335839,0.7864506 0.017097,0.031945 0.055473,0.078019 0.085282,0.1023869 0.04743,0.038776 0.833961,1.0160931 1.136715,1.4124497 0.06016,0.078755 0.524779,0.6609533 1.032494,1.2937733 1.152988,1.437092 1.086543,1.347157 1.174664,1.589928 0.101024,0.27832 0.104886,0.754208 0.0084,1.03981 -0.134233,0.397488 -0.510825,0.77408 -0.908313,0.908313 -0.280557,0.09475 -0.778562,0.0905 -1.046048,-0.0089 z"
       id="path819"
       inkscape:connector-curvature="0" />
  </g>
</svg>
