<?xml version="1.0" encoding="UTF-8" standalone="no"?>
<!-- Created with Inkscape (http://www.inkscape.org/) -->

<svg
   xmlns:dc="http://purl.org/dc/elements/1.1/"
   xmlns:cc="http://creativecommons.org/ns#"
   xmlns:rdf="http://www.w3.org/1999/02/22-rdf-syntax-ns#"
   xmlns:svg="http://www.w3.org/2000/svg"
   xmlns="http://www.w3.org/2000/svg"
   xmlns:sodipodi="http://sodipodi.sourceforge.net/DTD/sodipodi-0.dtd"
   xmlns:inkscape="http://www.inkscape.org/namespaces/inkscape"
   version="1.1"
   id="svg2"
   width="16"
   height="16"
   viewBox="0 0 16 16"
   sodipodi:docname="MIRROR_Y.svg"
   inkscape:version="0.92.4 (5da689c313, 2019-01-14)">
  <metadata
     id="metadata8">
    <rdf:RDF>
      <cc:Work
         rdf:about="">
        <dc:format>image/svg+xml</dc:format>
        <dc:type
           rdf:resource="http://purl.org/dc/dcmitype/StillImage" />
        <dc:title></dc:title>
      </cc:Work>
    </rdf:RDF>
  </metadata>
  <defs
     id="defs6" />
  <sodipodi:namedview
     pagecolor="#ffffff"
     bordercolor="#666666"
     borderopacity="1"
     objecttolerance="10"
     gridtolerance="10"
     guidetolerance="10"
     inkscape:pageopacity="0"
     inkscape:pageshadow="2"
     inkscape:window-width="828"
     inkscape:window-height="480"
     id="namedview4"
     showgrid="false"
     inkscape:zoom="14.75"
     inkscape:cx="8"
     inkscape:cy="8"
     inkscape:window-x="0"
     inkscape:window-y="0"
     inkscape:window-maximized="0"
     inkscape:current-layer="svg2" />
  <g
     id="MIRROR_Y">
    <path
       style="fill:#ffffff;stroke-width:0.03125"
       d="M 0,8 V 0 H 3.5 7 V 2.7845315 5.5690631 L 6.728655,5.2298441 C 6.5794153,5.0432734 6.3908262,4.8170366 6.3095684,4.7270953 6.2283106,4.6371537 6.0977622,4.4719197 6.0194606,4.3599084 5.9411591,4.2478972 5.7043575,3.9445012 5.4932347,3.6856953 4.6763,2.6842528 4.4794019,2.437804 4.3374641,2.2390676 4.0370572,1.818449 3.6501738,1.625 3.109375,1.625 2.5791375,1.625 2.1907411,1.8144211 1.8937432,2.2178642 1.6953628,2.4873449 1.625,2.7210697 1.625,3.1105507 c 0,0.3478762 0.051171,0.5488374 0.2081908,0.8176249 0.079133,0.1354591 0.720404,0.9460488 1.292942,1.6343244 0.1215272,0.1460938 0.2963503,0.3710937 0.3884953,0.5 0.092145,0.1289062 0.2672028,0.3539062 0.3890166,0.5 0.4616459,0.5536606 0.9629631,1.1793481 1.1016859,1.375 0.079212,0.1117188 0.2299485,0.3001331 0.3349703,0.4186984 L 5.53125,8.5717716 v 2.3799214 c 0,2.335524 0.00122,2.383548 0.065656,2.574338 C 5.7743072,14.051346 6.3514553,14.5 6.8498178,14.5 H 7 V 15.25 16 H 3.5 0 Z m 8,7.5 V 15 H 11.5 15 V 8 1 H 11.5 8 V 0.5 0 h 4 4 v 8 8 H 12 8 Z"
       id="path829"
       inkscape:connector-curvature="0" />
    <path
       style="fill:#98cbfe;stroke-width:0.03125"
       d="M 8,14.75 V 14.5 h 0.1658072 c 0.5141375,0 1.0885637,-0.441038 1.2685372,-0.973969 C 9.4987813,13.335224 9.5,13.287316 9.5,10.945514 V 8.5594131 l 0.3203125,-0.390685 c 0.1761719,-0.2148769 0.4726545,-0.5762915 0.6588495,-0.803144 0.186196,-0.2268525 0.416326,-0.522076 0.511399,-0.6560522 0.09507,-0.1339763 0.238969,-0.3167888 0.319767,-0.40625 0.149285,-0.1652907 0.794611,-0.9636135 1.079865,-1.3358844 0.08618,-0.1124628 0.335882,-0.4277938 0.554903,-0.7007356 0.487007,-0.6069013 0.531464,-0.703876 0.54827,-1.1959539 0.01018,-0.2979499 0.0017,-0.3820158 -0.05575,-0.5547299 C 13.302664,2.110444 12.927925,1.7326273 12.526031,1.5969055 12.378538,1.5470964 12.254227,1.53125 12.010979,1.53125 c -0.567914,0 -0.867046,0.1608887 -1.29979,0.6990956 -0.139977,0.1740912 -0.324149,0.3937308 -0.409271,0.4880882 -0.08512,0.094357 -0.229341,0.2771698 -0.320488,0.40625 C 9.8902838,3.2537641 9.6601762,3.5492188 9.47008,3.78125 8.8759384,4.5064594 8.5205341,4.9519575 8.3833453,5.1434675 8.3105916,5.2450291 8.1951756,5.3914062 8.1268653,5.46875 L 8.0026647,5.609375 8.0013334,3.3046875 8,1 h 3.5 3.5 v 7 7 H 11.5 8 Z"
       id="path827"
       inkscape:connector-curvature="0" />
    <path
       style="fill:#fecb32;stroke-width:0.03125"
       d="M 6.6769444,13.951609 C 6.5124862,13.891291 6.3252431,13.74839 6.2159697,13.599802 6.0247662,13.339805 6.03125,13.43845 6.03125,10.78947 V 8.3680488 L 5.8986569,8.2074619 C 5.8257306,8.1191391 5.7270788,8.0069072 5.6794306,7.9580575 5.6317825,7.9092078 5.52665,7.7756141 5.4458031,7.6611825 5.2685538,7.4103012 4.5744037,6.5345512 4.5006397,6.46875 4.4304116,6.4061031 4.1022766,5.9953878 3.9513716,5.78125 3.7963084,5.5612119 3.3473822,4.9952206 3.2913794,4.9491541 3.1777925,4.85572 2.3132329,3.7312816 2.2325545,3.5720556 2.1510641,3.4112275 2.140625,3.3586875 2.140625,3.109375 2.140625,2.8785845 2.15359,2.8018027 2.212891,2.6814103 2.305352,2.4936956 2.4945954,2.3047248 2.68141,2.2135657 2.8560392,2.1283527 3.2153566,2.0994015 3.39583,2.1560027 c 0.20058,0.062908 0.4109353,0.2247774 0.5485619,0.4221218 0.1616428,0.2317818 0.7333016,0.9518191 0.8063344,1.015625 0.065485,0.057212 0.7437468,0.9163487 0.9329328,1.1817225 0.075232,0.1055281 0.1813169,0.2378894 0.2357456,0.2941359 0.054428,0.056247 0.3198288,0.3781685 0.5897781,0.7153822 L 7,6.3981062 V 10.199053 14 L 6.8984375,13.9978 C 6.8425785,13.9966 6.7429062,13.9758 6.6769444,13.95161 Z"
       id="path825"
       inkscape:connector-curvature="0" />
    <path
       style="fill:#fe9832;stroke-width:0.03125"
       d="M 8,10.218132 V 6.4283119 L 8.1147306,6.2844684 C 8.1778325,6.2053547 8.2529356,6.1195312 8.2816263,6.09375 8.3498788,6.0324187 8.7965278,5.4697269 8.9513716,5.25 9.1022766,5.0358622 9.4304116,4.6251469 9.5006397,4.5625 9.5729478,4.4979975 10.266188,3.6241675 10.442725,3.375 c 0.07915,-0.1117188 0.184122,-0.2453125 0.233263,-0.296875 0.04914,-0.051563 0.213792,-0.2483366 0.36589,-0.4372758 0.411332,-0.5109628 0.615326,-0.6292587 1.04247,-0.6045257 0.510152,0.029539 0.883415,0.4076361 0.910461,0.9222511 0.01795,0.3414498 -0.03688,0.4635063 -0.431814,0.9612641 C 12.374938,4.15686 12.201883,4.3667816 12.178429,4.3863309 12.154975,4.40588 12.081678,4.4992187 12.015547,4.59375 11.862985,4.8118303 11.050132,5.8259844 10.91917,5.9616416 10.864871,6.0178881 10.758891,6.1502494 10.683659,6.2557775 10.50014,6.5132031 9.8156275,7.3818903 9.7624819,7.4248072 9.7392009,7.4436075 9.5583644,7.6613806 9.3606225,7.9087475 L 9.0010922,8.3585056 8.9927337,10.82769 8.984375,13.296875 8.9121088,13.44359 C 8.766245,13.739722 8.4558,13.964155 8.1516119,13.993384 L 8,14.007952 Z"
       id="path823"
       inkscape:connector-curvature="0" />
    <path
       style="fill:#00fe00;stroke-width:0.03125"
       d="M 7,8 V 0 H 7.5 8 v 8 8 H 7.5 7 Z"
       id="path821"
       inkscape:connector-curvature="0" />
    <path
       style="fill:#653200;stroke-width:0.03125"
       d="M 6.4770194,14.424346 C 6.0836997,14.278211 5.7284803,13.915646 5.5969056,13.526031 5.5324747,13.335241 5.53125,13.287217 5.53125,10.951693 V 8.5717716 L 5.3403009,8.3561984 C 5.2352791,8.2376331 5.0845422,8.0492188 5.0053306,7.9375 4.8666078,7.7418481 4.3652906,7.1161606 3.9036447,6.5625 3.7818309,6.4164062 3.6067734,6.1914062 3.5146281,6.0625 3.4224831,5.9335937 3.24766,5.7085938 3.1261328,5.5625 2.5535948,4.8742244 1.9123233,4.0636347 1.8331908,3.9281756 1.6761705,3.6593881 1.625,3.4584269 1.625,3.1105507 1.625,2.7210697 1.6953628,2.4873449 1.8937432,2.2178642 2.1907411,1.8144211 2.5791375,1.625 3.109375,1.625 c 0.5407988,0 0.9276822,0.193449 1.2280891,0.6140676 0.1419378,0.1987364 0.3388359,0.4451852 1.1557706,1.4466277 0.2111228,0.258806 0.4479244,0.5622019 0.5262259,0.6742131 0.078302,0.1120113 0.20885,0.2772453 0.2901078,0.3671869 0.081258,0.089941 0.2698469,0.3161781 0.4190866,0.5027488 L 7,5.5690631 V 5.9787278 C 7,6.3254456 6.99348,6.3813619 6.9575675,6.3426341 6.9342294,6.3174666 6.7132562,6.04375 6.4665159,5.734375 6.2197756,5.425 5.97347,5.125855 5.9191703,5.0696084 5.8648706,5.0133619 5.7588909,4.8810006 5.6836594,4.7754725 5.4944734,4.5100987 4.8162119,3.6509616 4.7507266,3.59375 4.6776938,3.5299441 4.106035,2.8099068 3.9443922,2.578125 3.8067656,2.3807806 3.5964103,2.2189109 3.3958303,2.1560032 3.2153569,2.0994015 2.8560395,2.1283526 2.6814103,2.2135657 2.4945957,2.3047248 2.3053525,2.4936956 2.2128913,2.6814103 2.1535904,2.8018027 2.140625,2.8785845 2.140625,3.109375 c 0,0.2493125 0.010439,0.3018525 0.091929,0.4626806 0.080678,0.159226 0.945238,1.2836644 1.0588249,1.3770985 0.056003,0.046066 0.504929,0.6120578 0.6599922,0.8320959 0.150905,0.2141378 0.47904,0.6248531 0.5492681,0.6875 0.073764,0.065801 0.767914,0.9415512 0.9451634,1.1924325 0.080847,0.1144316 0.1859794,0.2480253 0.2336275,0.296875 0.047648,0.04885 0.1460494,0.1607822 0.2186691,0.2487388 l 0.1320359,0.1599215 0.00837,2.4650782 0.00837,2.465079 0.072266,0.146715 C 6.2614,13.732403 6.5688041,13.959526 6.862205,13.992597 L 7,14.008128 V 14.254064 14.5 L 6.8359375,14.4984 C 6.7451925,14.4975 6.5847966,14.46442 6.4770194,14.42437 Z M 8,14.253976 v -0.246024 l 0.1516119,-0.01457 C 8.4558,13.964155 8.766245,13.739722 8.9121088,13.44359 l 0.072266,-0.146715 0.00836,-2.469185 0.00836,-2.4691844 0.3595303,-0.4497581 C 9.5583644,7.6613806 9.7392009,7.4436075 9.7624819,7.4248072 9.8156275,7.3818903 10.50014,6.5132031 10.683659,6.2557775 10.758891,6.1502494 10.864871,6.0178881 10.91917,5.9616416 11.050132,5.8259844 11.862985,4.8118303 12.015547,4.59375 12.081678,4.4992187 12.154975,4.40588 12.178429,4.3863309 12.201883,4.3667816 12.374938,4.15686 12.562995,3.9198388 12.957925,3.4220809 13.012755,3.3000244 12.994809,2.9585746 12.967763,2.4439596 12.5945,2.0658629 12.084348,2.0363235 11.657204,2.0115905 11.45321,2.1298864 11.041878,2.6408493 10.88978,2.8297884 10.725129,3.0265625 10.675988,3.078125 10.626847,3.1296875 10.521878,3.2632813 10.442725,3.375 10.266188,3.6241675 9.5729478,4.4979975 9.5006397,4.5625 9.4304116,4.6251469 9.1022766,5.0358622 8.9513716,5.25 8.8017925,5.4622562 8.3543697,6.0245056 8.2673069,6.1096228 c -0.0353,0.034511 -0.1094135,0.1188863 -0.1646966,0.1875 L 8.0020956,6.421875 8.0010478,6.0223487 8,5.6228225 8.1970088,5.3817237 C 8.3053634,5.2491194 8.4590388,5.0492187 8.5385091,4.9375 8.6179797,4.8257813 8.7824791,4.6148438 8.9040628,4.46875 9.3850788,3.8907675 9.8685606,3.2866106 10.007785,3.0895446 c 0.08056,-0.1140318 0.214521,-0.2827818 0.297687,-0.375 0.08317,-0.092218 0.26574,-0.3101078 0.405717,-0.484199 0.432744,-0.5382069 0.731876,-0.6990956 1.29979,-0.6990956 0.243248,0 0.367559,0.015846 0.515052,0.065656 0.401894,0.1357218 0.776633,0.5135385 0.911586,0.9190726 0.05748,0.1727142 0.06592,0.25678 0.05575,0.5547299 -0.01681,0.4920779 -0.06126,0.5890526 -0.54827,1.1959539 -0.219021,0.2729419 -0.468728,0.5882728 -0.554903,0.7007356 -0.285254,0.3722709 -0.93058,1.1705938 -1.079865,1.3358844 -0.0808,0.089461 -0.224693,0.2722737 -0.319767,0.40625 -0.09507,0.1339762 -0.325203,0.4291997 -0.511399,0.6560522 -0.186195,0.2268525 -0.4826776,0.5882672 -0.6588495,0.803144 L 9.5,8.5594131 v 2.3861009 c 0,2.341802 -0.00122,2.38971 -0.065656,2.580517 C 9.2543709,14.058962 8.6799447,14.5 8.1658072,14.5 H 8 Z"
       id="path819"
       inkscape:connector-curvature="0" />
  </g>
</svg>
