<?xml version="1.0" encoding="UTF-8" standalone="no"?>
<!-- Created with Inkscape (http://www.inkscape.org/) -->

<svg
   xmlns:dc="http://purl.org/dc/elements/1.1/"
   xmlns:cc="http://creativecommons.org/ns#"
   xmlns:rdf="http://www.w3.org/1999/02/22-rdf-syntax-ns#"
   xmlns:svg="http://www.w3.org/2000/svg"
   xmlns="http://www.w3.org/2000/svg"
   xmlns:sodipodi="http://sodipodi.sourceforge.net/DTD/sodipodi-0.dtd"
   xmlns:inkscape="http://www.inkscape.org/namespaces/inkscape"
   version="1.1"
   id="svg2"
   width="16"
   height="16"
   viewBox="0 0 16 16"
   sodipodi:docname="SAVE_FBX.svg"
   inkscape:version="0.92.4 (5da689c313, 2019-01-14)">
  <metadata
     id="metadata8">
    <rdf:RDF>
      <cc:Work
         rdf:about="">
        <dc:format>image/svg+xml</dc:format>
        <dc:type
           rdf:resource="http://purl.org/dc/dcmitype/StillImage" />
        <dc:title></dc:title>
      </cc:Work>
    </rdf:RDF>
  </metadata>
  <defs
     id="defs6" />
  <sodipodi:namedview
     pagecolor="#ffffff"
     bordercolor="#666666"
     borderopacity="1"
     objecttolerance="10"
     gridtolerance="10"
     guidetolerance="10"
     inkscape:pageopacity="0"
     inkscape:pageshadow="2"
     inkscape:window-width="828"
     inkscape:window-height="480"
     id="namedview4"
     showgrid="false"
     inkscape:zoom="14.75"
     inkscape:cx="8"
     inkscape:cy="8"
     inkscape:window-x="0"
     inkscape:window-y="0"
     inkscape:window-maximized="0"
     inkscape:current-layer="svg2" />
  <g
     id="SAVE_FBX">
    <path
       style="fill:#ffffff;stroke-width:0.03125"
       d="M 0,14.007905 V 12.01581 L 1.984375,14 C 3.0757813,15.091305 3.96875,15.987747 3.96875,15.992095 3.96875,15.996443 3.0757813,16 1.984375,16 H 0 Z"
       id="path829"
       inkscape:connector-curvature="0" />
    <path
       style="fill:#fefefe;stroke-width:0.03125"
       d="M 1.2501684,8.5113709 C 0.93778394,8.3998628 0.71290253,8.1697834 0.61105078,7.8574806 0.56622284,7.7200269 0.56166403,7.4413506 0.56941778,5.3125 L 0.578125,2.921875 0.65550441,2.765625 C 0.75416037,2.5664118 0.94141184,2.3791604 1.140625,2.2805044 l 0.15625,-0.077379 h 1.78125 c 1.7632016,0 1.7825956,6.838e-4 1.9140625,0.067477 L 5.125,2.3380782 5.2578125,2.2706016 C 5.3880862,2.2044148 5.4142206,2.2032756 6.625,2.2110028 c 0.6789062,0.00433 1.346875,0.022844 1.484375,0.041137 0.2642344,0.035153 0.7478847,0.1822643 0.9076869,0.2760909 l 0.095187,0.055888 0.1184369,-0.1023804 C 9.4393816,2.3013344 9.6029259,2.245203 10.015625,2.212332 c 0.20625,-0.016428 0.571875,-0.024725 0.8125,-0.018439 0.386306,0.010092 0.455708,0.020325 0.593109,0.087456 0.153655,0.075072 0.379301,0.2764715 0.500715,0.4469101 l 0.06243,0.087633 0.109375,-0.1490219 c 0.142785,-0.194543 0.374622,-0.3671161 0.579952,-0.4317003 0.138448,-0.043547 0.28493,-0.05018 0.925084,-0.041892 0.736531,0.00954 0.765532,0.012295 0.916839,0.087227 0.340697,0.1687226 0.545172,0.4790027 0.571105,0.8666231 0.02237,0.3343334 -0.03682,0.4751466 -0.443687,1.0554637 -0.49272,0.7027785 -0.74721,1.08612 -0.74721,1.1255338 0,0.039165 0.239663,0.4003428 0.778943,1.1738859 0.439856,0.6309288 0.497021,0.7635682 0.474454,1.1008616 -0.02593,0.3876203 -0.230408,0.6979006 -0.571105,0.8666231 -0.151307,0.074932 -0.180308,0.077691 -0.916839,0.087227 -0.634768,0.00822 -0.787271,0.00145 -0.921875,-0.04094 C 12.512526,8.4443378 12.303998,8.2820956 12.132312,8.0434378 11.985427,7.8392556 11.984864,7.8388719 11.937813,7.9107084 c -0.213251,0.3255841 -0.444426,0.5220778 -0.713969,0.6068597 -0.151316,0.047595 -0.25861,0.05209 -0.849258,0.03558 C 9.6346691,8.5324669 9.5026266,8.5067828 9.2528634,8.3349597 L 9.1151019,8.2401872 8.9716134,8.2962113 C 8.8926947,8.3270241 8.715625,8.3871272 8.578125,8.4297731 8.33528,8.5050925 8.2879816,8.508165 6.9255041,8.5371344 5.6543959,8.5641609 5.50807,8.5621122 5.3648984,8.5152831 5.0438784,8.4102828 4.8151063,8.1845366 4.7070091,7.8660953 4.6685272,7.7527331 4.65625,7.5958928 4.65625,7.2176578 V 6.71875 H 4.1744056 3.6925616 l -0.01088,0.5546875 C 3.6715994,7.7874978 3.6651744,7.8395694 3.5939594,7.984375 3.4961566,8.1832431 3.3089434,8.3706638 3.109375,8.4694956 c -0.1522299,0.075389 -0.1763503,0.077568 -0.9375,0.084696 -0.6511258,0.0061 -0.8046443,-0.00103 -0.9217066,-0.042821 z M 2.6875,6.640625 V 5.71875 H 3.578125 4.46875 V 5.296875 4.875 H 3.578125 2.6875 V 4.453125 4.03125 H 3.640625 4.59375 V 3.609375 3.1875 H 3.078125 1.5625 V 5.375 7.5625 H 2.125 2.6875 Z M 7.8376697,7.5153403 C 8.5553044,7.48201 9.0108284,7.2045788 9.1612941,6.7092038 9.2433269,6.4391278 9.2301194,6.0613391 9.1307978,5.8368844 9.0432428,5.6390213 8.8342269,5.4183128 8.6422934,5.3210525 L 8.4852025,5.2414487 8.5629138,5.1922166 C 8.605655,5.1651391 8.7060447,5.0790428 8.7860019,5.0008922 8.9762766,4.8149166 9.0465053,4.5922734 9.0230119,4.2495116 8.9866938,3.7196387 8.7477322,3.4524531 8.1699191,3.2956572 7.9869212,3.2459987 6.9186134,3.1929591 6.0234375,3.1890878 L 5.65625,3.1875 V 5.3750566 7.5626128 L 6.5859375,7.5464553 C 7.0972656,7.5375684 7.660545,7.5235666 7.8376697,7.5153403 Z M 6.78125,6.234375 V 5.6357872 l 0.4296875,0.012911 c 0.6133722,0.01843 0.7523328,0.066802 0.8632234,0.3004872 0.065602,0.1382447 0.065602,0.4321347 0,0.5703794 C 7.9632703,6.7532497 7.8243097,6.8016216 7.2109375,6.8200519 L 6.78125,6.8329628 Z m 0,-1.8131247 V 3.9316397 l 0.4453125,0.010812 c 0.3739,0.00908 0.45935,0.020315 0.5328472,0.070071 0.125704,0.085098 0.1782484,0.2084897 0.1769828,0.4156131 C 7.9351425,4.6326986 7.9002915,4.7126149 7.7665091,4.817688 7.6807711,4.885027 7.639395,4.891402 7.2274466,4.900743 L 6.78125,4.9108609 Z m 4.249739,3.0084372 c 0.05071,-0.073047 0.278936,-0.4060003 0.507169,-0.7398963 0.228232,-0.3338962 0.428221,-0.608115 0.444421,-0.609375 0.0162,-0.00126 0.256647,0.3281775 0.534329,0.7320838 l 0.504875,0.734375 0.567233,0.00852 c 0.311979,0.00468 0.567234,0.00203 0.567234,-0.0059 0,-0.00793 -0.145214,-0.2226993 -0.322697,-0.4772675 C 13.157114,6.1019982 12.657228,5.3361507 12.677773,5.301521 12.751093,5.1779328 13.598987,3.9189128 13.823307,3.6005388 13.97205,3.3894282 14.09375,3.2101313 14.09375,3.2021013 c 0,-0.00803 -0.253415,-0.0146 -0.563144,-0.0146 h -0.563144 l -0.09205,0.1328125 c -0.05063,0.073047 -0.264792,0.3848459 -0.475918,0.6928869 -0.211126,0.3080406 -0.397927,0.5643203 -0.415115,0.56951 -0.01719,0.00519 -0.243047,-0.3030935 -0.501909,-0.6850741 l -0.470659,-0.6945103 -0.232466,-0.0084 c -0.127856,-0.00462 -0.376365,0.00241 -0.552243,0.015625 L 9.9073216,3.234375 10.609513,4.2782044 11.311705,5.3220337 11.24347,5.4344544 C 11.205941,5.4962856 10.875052,5.9898438 10.50816,6.53125 L 9.8410853,7.515625 10.06898,7.5334325 c 0.125342,0.00979 0.372325,0.020341 0.548852,0.023437 l 0.320956,0.00563 z"
       id="path827"
       inkscape:connector-curvature="0" />
    <path
       style="fill:#cbcbcb;stroke-width:0.03125"
       d="M 4,13.5 V 11 h 4 4 V 13.5 16 H 8 4 Z m 3,0 V 12 H 6 5 v 1.5 1.5 h 1 1 z"
       id="path825"
       inkscape:connector-curvature="0" />
    <path
       style="fill:#9898cb;stroke-width:0.03125"
       d="M 2,9.2840547 V 8.5681094 L 2.4765625,8.5565747 C 2.9053639,8.5461963 2.9687844,8.5373772 3.109375,8.4685781 3.3083528,8.3712069 3.4958594,8.1838481 3.5939594,7.984375 3.6651744,7.8395694 3.6715994,7.7874978 3.6816819,7.2734375 L 3.6925616,6.71875 H 4.1744056 4.65625 v 0.4989078 c 0,0.378235 0.012277,0.5350753 0.050759,0.6484375 0.1080972,0.3184413 0.3368693,0.5441875 0.6578893,0.6491878 0.1431716,0.046829 0.2894975,0.048878 1.5606057,0.021851 1.3624776,-0.028969 1.409776,-0.032042 1.652621,-0.107361 0.1375,-0.042646 0.3145697,-0.102749 0.3934884,-0.1335619 l 0.1434885,-0.056024 0.1377615,0.094773 c 0.2497632,0.1718231 0.3818057,0.1975072 1.1217226,0.2181887 0.590648,0.016509 0.697942,0.012014 0.849258,-0.03558 0.269543,-0.084782 0.500718,-0.2812756 0.713969,-0.6068597 0.04704,-0.071819 0.04765,-0.071397 0.195907,0.1346863 0.16396,0.2279181 0.354336,0.3796144 0.578693,0.4611181 0.117834,0.042806 0.259999,0.053646 0.717275,0.054687 L 14,8.5625 V 9.28125 10 H 8 2 Z M 13.930348,5.4121794 c -0.04898,-0.082918 -0.0485,-0.09295 0.0087,-0.1796875 l 0.06056,-0.091867 2.19e-4,0.1796875 C 13.999932,5.4191406 13.996013,5.5 13.991126,5.5 c -0.0049,0 -0.03223,-0.039519 -0.06076,-0.087821 z M 11.864726,2.6595456 C 11.730882,2.4732439 11.530148,2.3202516 11.318837,2.2434872 11.205553,2.2023339 11.068035,2.1901136 10.71875,2.1901618 9.7845434,2.1902899 9.5043216,2.2451983 9.2306853,2.4817382 L 9.1122484,2.5841186 9.0170619,2.5282305 C 8.8572597,2.4344039 8.3736094,2.2872921 8.109375,2.2521396 7.971875,2.2338472 7.3039062,2.2153357 6.625,2.2110028 5.4142206,2.2032756 5.3880862,2.2044148 5.2578125,2.2706016 L 5.125,2.3380782 4.9921875,2.2706016 C 4.8627028,2.2048158 4.8235513,2.2028994 3.4296875,2.1941199 L 2,2.1851149 V 1.5925574 1 h 6 6 v 0.5914874 0.5914874 l -0.648437,0.010253 c -0.615792,0.00974 -0.656305,0.014139 -0.804688,0.087428 -0.155365,0.076738 -0.429729,0.3231065 -0.519015,0.4660572 l -0.04674,0.074839 z"
       id="path823"
       inkscape:connector-curvature="0" />
    <path
       style="fill:#0065cb;stroke-width:0.03125"
       d="M 1.9921875,14.007817 0,12.015443 V 7.5077216 3 h 0.28050455 0.28050454 l 0.008558,2.4140625 0.008558,2.4140625 0.0773794,0.15625 c 0.0992387,0.20039 0.28703897,0.3875013 0.48512061,0.4833413 0.1292647,0.062543 0.216967,0.077839 0.5078125,0.088565 L 2,8.5692453 V 9.2846228 10 h 6 6 V 9.2854491 8.5708978 l 0.210938,-0.015498 C 14.738841,8.5166122 15.113547,8.1362222 15.14923,7.6028725 15.17203,7.2621044 15.116632,7.1365169 14.643157,6.4555959 13.960614,5.4740088 14,5.5430525 14,5.328125 14,5.1136075 13.969549,5.1673584 14.611388,4.2489375 15.051934,3.6185513 15.109365,3.4854313 15.08673,3.1471275 15.052089,2.6293623 14.681899,2.2406519 14.180111,2.1951513 L 14,2.1788195 V 1.5894097 1 H 7 0 V 0.5 0 h 8 8 v 8 8 H 14 12 V 13.5 11 H 8.0001859 4.0003719 l -0.008,2.500095 -0.008,2.500095 z"
       id="path821"
       inkscape:connector-curvature="0" />
    <path
       style="fill:#323232;stroke-width:0.03125"
       d="M 5,13.5 V 12 H 6 7 V 13.5 15 H 6 5 Z M 1.5625,5.375 V 3.1875 H 3.078125 4.59375 V 3.609375 4.03125 H 3.640625 2.6875 V 4.453125 4.875 H 3.578125 4.46875 V 5.296875 5.71875 H 3.578125 2.6875 V 6.640625 7.5625 H 2.125 1.5625 Z m 4.09375,6.25e-5 V 3.1875059 l 0.3671875,0.00159 c 0.8951759,0.00387 1.9634837,0.056911 2.1464816,0.1065694 0.5778131,0.156796 0.8167747,0.4239816 0.8530928,0.9538544 0.023493,0.3427619 -0.046735,0.565405 -0.23701,0.7513806 -0.079957,0.078151 -0.1803469,0.1642469 -0.2230881,0.1913244 l -0.077711,0.049232 0.1570909,0.079604 c 0.1919335,0.09726 0.4009494,0.3179688 0.4885044,0.5158319 0.041498,0.093779 0.070776,0.2404841 0.080398,0.4028469 0.045968,0.7756428 -0.4459903,1.2325297 -1.3735265,1.275609 -0.1771247,0.00823 -0.7404041,0.022228 -1.2517322,0.031115 L 5.65625,7.5626184 Z M 7.7537328,6.7784703 C 7.9967863,6.7168428 8.125,6.5289462 8.125,6.234375 8.125,5.9398037 7.9967863,5.7519072 7.7537328,5.6902856 7.6915234,5.6745134 7.4472656,5.6557991 7.2109375,5.6486981 L 6.78125,5.6357872 V 6.234375 6.8329628 l 0.4296875,-0.012911 c 0.2363281,-0.0071 0.4805859,-0.025815 0.5427953,-0.041588 z M 7.7665091,4.8176937 C 7.9002912,4.7126206 7.9351428,4.6327044 7.9363925,4.4281416 7.9376581,4.2210181 7.8851138,4.0976266 7.7594097,4.0125284 7.6859125,3.9627728 7.6004625,3.9515359 7.2265625,3.9424578 L 6.78125,3.9316456 V 4.4212562 4.9108669 L 7.2274466,4.9007487 C 7.639395,4.8914075 7.6807712,4.8850325 7.7665091,4.8176937 Z M 10.06898,7.5334384 9.8410853,7.5156309 10.50816,6.5312559 C 10.875052,5.9898497 11.205941,5.4962916 11.24347,5.4344603 L 11.311705,5.3220397 10.609513,4.2782103 9.9073216,3.2343809 10.227098,3.2103578 c 0.175878,-0.013213 0.424387,-0.020244 0.552243,-0.015625 l 0.232466,0.0084 0.470659,0.6945104 c 0.258862,0.3819806 0.484722,0.6902637 0.501909,0.685074 0.01719,-0.00519 0.203989,-0.2614694 0.415115,-0.56951 0.211126,-0.3080409 0.425289,-0.61984 0.475918,-0.6928869 l 0.09205,-0.1328125 h 0.563144 c 0.309729,0 0.563144,0.00657 0.563144,0.0146 0,0.00803 -0.1217,0.1873269 -0.270443,0.3984375 -0.22432,0.3183741 -1.072212,1.5773941 -1.145534,1.7009822 -0.02055,0.03463 0.479341,0.8004772 1.155779,1.7707066 0.177484,0.2545681 0.322698,0.4693384 0.322698,0.4772675 0,0.00793 -0.255255,0.010584 -0.567234,0.0059 L 13.021783,7.546875 12.516908,6.8125 c -0.277682,-0.4039063 -0.51813,-0.7333441 -0.534329,-0.7320838 -0.0162,0.00126 -0.216189,0.2754788 -0.444421,0.609375 -0.228233,0.333896 -0.456459,0.6668494 -0.507169,0.7398963 L 10.938788,7.5625 10.617832,7.55687 C 10.441305,7.55377 10.194322,7.543227 10.06898,7.533433 Z M 0,2 V 1 H 1 2 V 1.59375 2.1875 H 1.7042171 C 1.3721852,2.1875 1.1849305,2.23704 0.97745187,2.3797733 0.82338984,2.485759 0.67609278,2.6874057 0.61891881,2.8705978 L 0.57853259,3 H 0.28926629 0 Z"
       id="path819"
       inkscape:connector-curvature="0" />
  </g>
</svg>
