<?xml version="1.0" encoding="UTF-8" standalone="no"?>
<!-- Created with Inkscape (http://www.inkscape.org/) -->

<svg
   xmlns:dc="http://purl.org/dc/elements/1.1/"
   xmlns:cc="http://creativecommons.org/ns#"
   xmlns:rdf="http://www.w3.org/1999/02/22-rdf-syntax-ns#"
   xmlns:svg="http://www.w3.org/2000/svg"
   xmlns="http://www.w3.org/2000/svg"
   xmlns:sodipodi="http://sodipodi.sourceforge.net/DTD/sodipodi-0.dtd"
   xmlns:inkscape="http://www.inkscape.org/namespaces/inkscape"
   version="1.1"
   id="svg2"
   width="16"
   height="16"
   viewBox="0 0 16 16"
   sodipodi:docname="SAVE_WRL.svg"
   inkscape:version="0.92.4 (5da689c313, 2019-01-14)">
  <metadata
     id="metadata8">
    <rdf:RDF>
      <cc:Work
         rdf:about="">
        <dc:format>image/svg+xml</dc:format>
        <dc:type
           rdf:resource="http://purl.org/dc/dcmitype/StillImage" />
        <dc:title></dc:title>
      </cc:Work>
    </rdf:RDF>
  </metadata>
  <defs
     id="defs6" />
  <sodipodi:namedview
     pagecolor="#ffffff"
     bordercolor="#666666"
     borderopacity="1"
     objecttolerance="10"
     gridtolerance="10"
     guidetolerance="10"
     inkscape:pageopacity="0"
     inkscape:pageshadow="2"
     inkscape:window-width="828"
     inkscape:window-height="480"
     id="namedview4"
     showgrid="false"
     inkscape:zoom="14.75"
     inkscape:cx="8"
     inkscape:cy="8"
     inkscape:window-x="0"
     inkscape:window-y="0"
     inkscape:window-maximized="0"
     inkscape:current-layer="svg2" />
  <g
     id="SAVE_WRL">
    <path
       style="fill:#ffffff;stroke-width:0.03125"
       d="M 0,14.007905 V 12.01581 L 1.984375,14 C 3.0757813,15.091305 3.96875,15.987747 3.96875,15.992095 3.96875,15.996443 3.0757813,16 1.984375,16 H 0 Z"
       id="path829"
       inkscape:connector-curvature="0" />
    <path
       style="fill:#fefefe;stroke-width:0.03125"
       d="M 1.828125,8.5326813 C 1.5968103,8.5161666 1.4750324,8.4909503 1.359375,8.4356184 1.164003,8.3421497 0.97191716,8.1525562 0.88489522,7.967295 0.848189,7.8891512 0.63407141,7.0417634 0.40907831,6.0842112 L 0,4.3432072 V 3.4395038 2.5358003 L 0.11622803,2.4399953 C 0.18015345,2.3873026 0.29616907,2.3124506 0.37404053,2.2736577 0.51047666,2.2056898 0.54176047,2.2034486 1.234375,2.2120242 2.0484156,2.2221032 2.1768518,2.2460358 2.4252086,2.4339219 L 2.578125,2.5496058 2.7301721,2.4346342 C 2.9863202,2.2409459 3.1040246,2.21875 3.875,2.21875 c 0.7709753,0 0.8886797,0.022196 1.1448278,0.2158842 L 5.171875,2.5496058 5.3237969,2.4346747 C 5.5784956,2.2419913 5.6996197,2.21875 6.4491075,2.21875 c 0.3633741,0 0.7083547,0.013673 0.7666237,0.030384 0.079019,0.022662 0.1438288,0.017993 0.2550132,-0.018374 0.1318537,-0.043127 0.3036512,-0.045184 1.4876,-0.017807 1.2163746,0.028127 1.3594246,0.037004 1.5674796,0.09727 0.294489,0.085304 0.599108,0.223914 0.783992,0.3567398 l 0.146233,0.1050581 0.09872,-0.1491829 c 0.115628,-0.1747385 0.307713,-0.315781 0.528339,-0.387944 0.132656,-0.04339 0.27749,-0.049944 0.919981,-0.041633 0.738593,0.00955 0.767445,0.012294 0.918788,0.087243 0.199213,0.098656 0.386465,0.2859074 0.485121,0.4851206 l 0.07738,0.15625 0.009,1.3961062 0.009,1.3961066 0.615978,0.010389 c 0.540547,0.00912 0.631285,0.018043 0.740978,0.07289 l 0.125,0.062501 V 7.140625 8.4213831 l -0.125,0.062746 c -0.120048,0.06026 -0.194505,0.063095 -1.879497,0.071547 -1.401897,0.00703 -1.778889,3.969e-4 -1.875863,-0.033013 -0.0825,-0.028423 -0.154917,-0.033119 -0.226135,-0.014665 -0.05762,0.014932 -0.450984,0.022756 -0.874137,0.017388 -0.741854,-0.00941 -0.774839,-0.012475 -0.922356,-0.085653 C 9.997203,8.3979921 9.8768756,8.3136168 9.8139521,8.2522331 L 9.6995872,8.140625 9.5763563,8.2663409 C 9.5085791,8.3354847 9.3828125,8.4268909 9.296875,8.4694659 9.1455109,8.5444544 9.1167809,8.5471834 8.3780869,8.5567387 7.7355956,8.5650497 7.5907622,8.558495 7.4581063,8.5151059 7.2482053,8.4464506 7.0474216,8.3043469 6.9479625,8.1540537 6.903265,8.0865119 6.8580166,8.0317837 6.8474097,8.0324359 6.8368031,8.0330891 6.7906578,8.0878338 6.7448647,8.1540928 6.6418234,8.303185 6.4359263,8.4476837 6.2324806,8.5136837 6.0977625,8.5573881 5.9727697,8.5604187 5.25,8.5375062 4.3323413,8.5084153 4.2753869,8.4959978 4.0108694,8.2673406 L 3.8913672,8.1640387 3.7571322,8.2821972 C 3.4815072,8.5248119 3.4021609,8.5456337 2.734375,8.5505875 2.4078125,8.5530094 2,8.5449522 1.828125,8.5326813 Z M 3.3009463,6.578125 C 3.7143556,4.8331688 3.8523916,4.28125 3.8753991,4.28125 c 0.021275,0 0.2501875,0.9107147 0.6362415,2.53125 l 0.1675031,0.703125 0.6213657,0.017272 c 0.3417509,0.0095 0.6302981,0.0095 0.6412156,0 C 5.952642,7.523397 6.1821219,6.573437 6.4516794,5.4218745 6.7212369,4.2703125 6.9487987,3.3035156 6.9573728,3.2734375 6.9717709,3.2229275 6.9334131,3.21875 6.4552309,3.21875 6.1704787,3.21875 5.9375,3.23034 5.9375,3.244507 c 0,0.026989 -0.6555644,2.7395903 -0.7192038,2.9759287 -0.026044,0.096721 -0.043989,0.1230478 -0.061841,0.090726 C 5.1426234,6.2861162 4.974485,5.6046875 4.7828147,4.796875 4.5911444,3.9890625 4.4270591,3.3035156 4.4181806,3.2734375 4.4036341,3.2241563 4.3499775,3.21875 3.8753991,3.21875 H 3.3487597 L 3.299595,3.4349097 C 3.1453163,4.1132222 2.6196461,6.2970206 2.6077926,6.3088741 c -0.00772,0.00772 -0.021461,0.00662 -0.030528,-0.00244 C 2.5592778,6.2884444 2.2845202,5.188945 2.0321396,4.125 1.9444823,3.7554688 1.8590575,3.4018609 1.8423067,3.3392047 L 1.8118506,3.2252844 1.3043628,3.2124766 c -0.2791183,-0.00704 -0.51181277,-0.010049 -0.51709883,-0.00668 -0.005286,0.00337 0.21865963,0.9774662 0.49765713,2.164654 l 0.5072681,2.1585229 0.2679679,0.010785 c 0.1473824,0.00593 0.4352122,0.00996 0.639622,0.00895 l 0.3716541,-0.00184 0.2295131,-0.96875 z M 8.875,6.734375 V 5.90625 h 0.2792156 c 0.1535688,0 0.3188032,0.014925 0.3671875,0.033167 0.2120191,0.079934 0.443521,0.4258396 0.8091539,1.2090209 L 10.509275,7.53125 h 0.573488 c 0.315418,0 0.573487,-0.00688 0.573487,-0.015298 0,-0.042727 -0.459454,-0.9693266 -0.627191,-1.26488 -0.242901,-0.4279966 -0.34076,-0.5462791 -0.532221,-0.6432994 -0.0842,-0.042667 -0.153036,-0.087886 -0.152972,-0.1004869 6.2e-5,-0.012601 0.09176,-0.070297 0.203761,-0.1282134 C 10.930459,5.1811153 11.125,4.8436031 11.125,4.3773803 11.125,3.7326025 10.742288,3.3426006 10.020234,3.2515709 9.8973862,3.2360834 9.3363281,3.2157419 8.7734375,3.2063672 L 7.75,3.1893225 V 5.3759112 7.5625 H 8.3125 8.875 Z m 0,-2.1875 V 3.9713647 l 0.3203125,0.015763 c 0.4700041,0.023129 0.572685,0.040328 0.6624875,0.1109666 0.1262141,0.09928 0.17345,0.2214971 0.17345,0.4487809 0,0.2272837 -0.047236,0.3495006 -0.17345,0.4487809 -0.089802,0.070639 -0.1924834,0.087838 -0.6624875,0.1109666 L 8.875,5.1223853 Z m 6.59375,2.59375 V 6.71875 H 14.484375 13.5 V 4.953125 3.1875 H 12.9375 12.375 V 5.375 7.5625 h 1.546875 1.546875 z"
       id="path827"
       inkscape:connector-curvature="0" />
    <path
       style="fill:#cbcbcb;stroke-width:0.03125"
       d="M 4,13.5 V 11 h 4 4 V 13.5 16 H 8 4 Z m 3,0 V 12 H 6 5 v 1.5 1.5 h 1 1 z"
       id="path825"
       inkscape:connector-curvature="0" />
    <path
       style="fill:#0098fe;stroke-width:0.03125"
       d="m 1.9999909,9.2734375 -9.2e-6,-0.7265625 h 0.6640717 c 0.633836,0 0.6707822,-0.00334 0.8114575,-0.07326 C 3.5565729,8.433322 3.6833028,8.3471841 3.7571322,8.2821969 L 3.8913672,8.1640388 4.0108694,8.2673406 C 4.2753869,8.4959978 4.3323413,8.5084153 5.25,8.5375063 c 0.7227697,0.022913 0.8477625,0.019882 0.9824806,-0.023822 0.2034456,-0.066 0.4093428,-0.2104988 0.5123841,-0.359591 0.045793,-0.066259 0.091938,-0.1210047 0.102545,-0.1216569 0.010607,-6.531e-4 0.055855,0.054076 0.1005528,0.1216179 0.099459,0.1502931 0.3002428,0.2923968 0.5101437,0.3610521 0.132656,0.043389 0.2774894,0.049944 0.9199807,0.041633 0.738694,-0.00956 0.767424,-0.012284 0.9187881,-0.087273 0.085937,-0.042575 0.2117041,-0.1339812 0.2794813,-0.203125 L 9.6995872,8.140625 9.8139931,8.2522322 c 0.062924,0.061384 0.1832507,0.1457587 0.2673939,0.1875 0.147557,0.073198 0.180382,0.07624 0.924625,0.085672 0.4244,0.00538 0.81815,-0.00236 0.875,-0.017197 0.0684,-0.017851 0.140361,-0.013827 0.212738,0.011895 0.07704,0.027381 0.374948,0.039392 1.007813,0.040635 L 14,8.5625 V 9.28125 10 H 8 2 Z M 11.328125,2.6783213 C 11.159018,2.5526518 10.811114,2.3927697 10.529148,2.3111443 10.316975,2.2497233 10.181045,2.2412263 8.9583444,2.2129535 7.7743956,2.1855768 7.6025981,2.1876333 7.4707444,2.2307605 7.35956,2.267127 7.2947503,2.2717966 7.2157312,2.2491343 7.1574622,2.2324229 6.8124816,2.21875 6.4491075,2.21875 c -0.7494878,0 -0.8706119,0.023241 -1.1253106,0.2159247 L 5.171875,2.5496058 5.0198278,2.4346342 C 4.7636797,2.2409459 4.6459753,2.21875 3.875,2.21875 c -0.7709922,0 -0.8889339,0.022242 -1.1449531,0.2159247 L 2.578125,2.5496058 2.4234769,2.4326684 C 2.3384204,2.3683528 2.2083423,2.2978714 2.1344144,2.2760431 L 2,2.2363553 V 1.6181777 1 h 6 6 V 1.6538848 2.3077696 L 13.828906,2.2476348 C 13.679132,2.1949936 13.568284,2.1875 12.939373,2.1875 c -0.580839,0 -0.747078,0.00972 -0.867968,0.050759 -0.213644,0.072523 -0.400201,0.2108764 -0.517054,0.3834556 l -0.101226,0.1494986 z"
       id="path823"
       inkscape:connector-curvature="0" />
    <path
       style="fill:#0065cb;stroke-width:0.03125"
       d="M 1.9920623,14.007691 -2.5045563e-4,12.015193 0.00768727,8.2110134 0.015625,4.4068344 0.41655463,6.1153094 C 0.63706591,7.0549709 0.84766791,7.8880425 0.88455903,7.96658 1.0394899,8.2964113 1.3581518,8.4999872 1.7578125,8.5244537 L 2,8.5392803 V 9.2696403 10 h 6 6 V 9.2830606 8.5661209 l 0.867188,-0.00962 c 0.81627,-0.00906 0.874985,-0.013585 1,-0.0771 L 16,8.4119219 V 12.205961 16 H 14 12 V 13.5 11 H 8.0001859 4.0003719 l -0.008,2.500095 -0.008,2.500095 z M 15.859375,5.8015272 c -0.113119,-0.060325 -0.183664,-0.06765 -0.742187,-0.077065 L 14.5,5.7140587 V 4.3737466 C 14.5,3.2189822 14.493,3.0127339 14.44924,2.8839046 14.382072,2.6860318 14.239099,2.4824648 14.107387,2.3971682 L 14.000774,2.328125 14.000387,1.6640625 14,1 H 7 0 V 0.5 0 h 8 8 v 2.9375 c 0,1.615625 -0.0035,2.9359675 -0.0078,2.9340944 -0.0043,-0.00187 -0.06406,-0.033404 -0.132813,-0.070067 z"
       id="path821"
       inkscape:connector-curvature="0" />
    <path
       style="fill:#323232;stroke-width:0.03125"
       d="M 5,13.5 V 12 H 6 7 V 13.5 15 H 6 5 Z M 2.0601571,7.5397616 1.7921892,7.5289763 1.2849211,5.3704534 C 1.0059236,4.1832656 0.78197791,3.2091716 0.78726397,3.2057994 c 0.005286,-0.00337 0.23798053,-3.657e-4 0.51709883,0.00668 l 0.5074878,0.012808 0.030456,0.1139203 c 0.016751,0.062656 0.1021756,0.416264 0.1898329,0.7857953 0.2523806,1.063945 0.5271382,2.1634444 0.545125,2.1814312 0.00907,0.00907 0.022805,0.010166 0.030528,0.00244 C 2.6196461,6.2970216 3.1453162,4.1132231 3.299595,3.4349106 L 3.3487597,3.21875 h 0.5266394 c 0.4745784,0 0.528235,0.00541 0.5427815,0.054687 0.00888,0.030078 0.1729638,0.715625 0.3646341,1.5234375 0.1916703,0.8078125 0.3598087,1.4892412 0.3736409,1.5142859 0.017851,0.032322 0.035796,0.006 0.061841,-0.090726 C 5.2819356,5.9840969 5.9375,3.2714956 5.9375,3.2445066 c 0,-0.014166 0.2329787,-0.025757 0.5177309,-0.025757 0.4781822,0 0.51654,0.00418 0.5021419,0.054687 -0.00857,0.030078 -0.2361359,0.996875 -0.5056934,2.1484375 -0.2695575,1.1515625 -0.4990369,2.1015225 -0.5099544,2.1110225 -0.010917,0.0095 -0.2994647,0.0095 -0.6412156,0 L 4.6791437,7.515625 4.5116406,6.8125 C 4.1255866,5.1919647 3.8966741,4.28125 3.8753991,4.28125 c -0.023008,0 -0.1610435,0.5519188 -0.5744528,2.296875 L 3.0714332,7.546875 2.6997791,7.548715 C 2.4953693,7.549725 2.2075395,7.545695 2.0601571,7.539765 Z M 7.75,5.3759112 V 3.1893225 l 1.0234375,0.017045 c 0.5628906,0.00937 1.1239488,0.029716 1.2467965,0.045204 0.722054,0.09103 1.104766,0.4810316 1.104766,1.1258094 0,0.4662228 -0.194541,0.803735 -0.577373,1.0016922 -0.112005,0.057917 -0.203698,0.1156125 -0.203761,0.1282134 -6.3e-5,0.012601 0.06877,0.05782 0.152972,0.1004869 0.191461,0.09702 0.28932,0.2153028 0.532221,0.6432994 0.167737,0.2955534 0.627191,1.2221534 0.627191,1.26488 0,0.00841 -0.258069,0.015298 -0.573488,0.015298 H 10.509275 L 10.330557,7.1484375 C 9.9649241,6.3652562 9.7334222,6.0193509 9.5214031,5.9394166 9.4730188,5.921175 9.3077844,5.90625 9.1542156,5.90625 H 8.875 V 6.734375 7.5625 H 8.3125 7.75 Z M 9.6462381,5.075095 C 9.9034894,5.044045 10.03125,4.8687628 10.03125,4.546875 10.03125,4.3195912 9.9840141,4.1973744 9.8578,4.0980941 9.7679975,4.0274556 9.6653166,4.0102566 9.1953125,3.9871275 L 8.875,3.9713647 V 4.546875 5.1223853 L 9.1953125,5.1066225 C 9.3714844,5.0979531 9.5744009,5.0837656 9.6462381,5.075095 Z M 12.375,5.375 V 3.1875 H 12.9375 13.5 V 4.953125 6.71875 h 0.984375 0.984375 V 7.140625 7.5625 H 13.921875 12.375 Z M 0,1.7651452 V 1 H 1 2 V 1.6142976 2.2285952 L 1.3178106,2.2074915 C 0.53629953,2.1833152 0.43512934,2.2009533 0.15973436,2.409392 L 0,2.5302904 Z"
       id="path819"
       inkscape:connector-curvature="0" />
  </g>
</svg>
