<?xml version="1.0" encoding="UTF-8" standalone="no"?>
<!-- Created with Inkscape (http://www.inkscape.org/) -->

<svg
   xmlns:dc="http://purl.org/dc/elements/1.1/"
   xmlns:cc="http://creativecommons.org/ns#"
   xmlns:rdf="http://www.w3.org/1999/02/22-rdf-syntax-ns#"
   xmlns:svg="http://www.w3.org/2000/svg"
   xmlns="http://www.w3.org/2000/svg"
   xmlns:sodipodi="http://sodipodi.sourceforge.net/DTD/sodipodi-0.dtd"
   xmlns:inkscape="http://www.inkscape.org/namespaces/inkscape"
   version="1.1"
   id="svg2"
   width="16"
   height="16"
   viewBox="0 0 16 16"
   sodipodi:docname="SAVE_BVH.svg"
   inkscape:version="0.92.4 (5da689c313, 2019-01-14)">
  <metadata
     id="metadata8">
    <rdf:RDF>
      <cc:Work
         rdf:about="">
        <dc:format>image/svg+xml</dc:format>
        <dc:type
           rdf:resource="http://purl.org/dc/dcmitype/StillImage" />
        <dc:title></dc:title>
      </cc:Work>
    </rdf:RDF>
  </metadata>
  <defs
     id="defs6" />
  <sodipodi:namedview
     pagecolor="#ffffff"
     bordercolor="#666666"
     borderopacity="1"
     objecttolerance="10"
     gridtolerance="10"
     guidetolerance="10"
     inkscape:pageopacity="0"
     inkscape:pageshadow="2"
     inkscape:window-width="828"
     inkscape:window-height="480"
     id="namedview4"
     showgrid="false"
     inkscape:zoom="14.75"
     inkscape:cx="8"
     inkscape:cy="8"
     inkscape:window-x="0"
     inkscape:window-y="0"
     inkscape:window-maximized="0"
     inkscape:current-layer="svg2" />
  <g
     id="SAVE_BVH">
    <path
       style="fill:#ffffff;stroke-width:0.03125"
       d="M 0,14.007905 V 12.01581 L 1.984375,14 C 3.0757813,15.091305 3.96875,15.987747 3.96875,15.992095 3.96875,15.996443 3.0757813,16 1.984375,16 H 0 Z"
       id="path829"
       inkscape:connector-curvature="0" />
    <path
       style="fill:#fefefe;stroke-width:0.03125"
       d="M 1.2501684,8.5103753 C 0.93957041,8.4017069 0.71308322,8.1703375 0.61105078,7.8574806 0.56622284,7.7200269 0.56166403,7.4413506 0.56941778,5.3125 L 0.578125,2.921875 0.65550441,2.765625 C 0.75416037,2.5664118 0.94141184,2.3791604 1.140625,2.2805044 l 0.15625,-0.077379 1.25,-0.00972 c 1.3273222,-0.01032 1.5734675,0.00625 1.9718597,0.1327658 0.2122084,0.067389 0.2252272,0.068105 0.296915,0.01633 C 5.0000713,2.2093083 5.1557144,2.1875 5.921875,2.1875 c 0.5935309,0 0.7605081,0.00961 0.8817203,0.050759 0.3544509,0.120321 0.5516038,0.3477415 0.7320694,0.8444595 L 7.6395162,3.3685619 7.7555337,3.0596054 C 7.8932775,2.6927908 8.0161925,2.5036128 8.1980962,2.3784598 8.4781934,2.1857479 8.4762422,2.1859198 10.28125,2.1949328 l 1.640625,0.00819 0.15625,0.077409 c 0.08594,0.042575 0.2125,0.1339812 0.28125,0.203125 l 0.125,0.1257159 0.125,-0.1257456 c 0.06875,-0.06916 0.195313,-0.1605663 0.28125,-0.203125 0.154397,-0.076462 0.166071,-0.077379 0.984375,-0.077379 0.818304,0 0.829978,9.175e-4 0.984375,0.077379 0.199213,0.098656 0.386465,0.2859074 0.485121,0.4851206 l 0.07738,0.15625 V 5.375 7.828125 l -0.07738,0.15625 c -0.09866,0.1992131 -0.285908,0.3864647 -0.485121,0.4851206 -0.154397,0.076462 -0.166071,0.077379 -0.984375,0.077379 -0.818304,0 -0.829978,-9.187e-4 -0.984375,-0.077379 -0.08594,-0.042559 -0.2125,-0.133965 -0.28125,-0.203125 l -0.125,-0.1257456 -0.125,0.1257159 c -0.06875,0.069144 -0.195312,0.16055 -0.28125,0.203125 -0.154416,0.076501 -0.165969,0.077409 -0.984375,0.077409 -0.818304,0 -0.829978,-9.187e-4 -0.984375,-0.077379 C 9.7516569,8.2923434 9.5640994,7.9935759 9.5342534,7.5533622 L 9.515625,7.2785991 9.3789369,7.6471122 C 9.2219466,8.0703609 9.1150347,8.2421069 8.9287981,8.3702266 8.6683625,8.5493909 8.5805366,8.5625 7.640625,8.5625 6.7007134,8.5625 6.6128875,8.5493909 6.3524519,8.3702266 6.1834219,8.2539438 6.0645822,8.0780853 5.9458837,7.7685875 5.8561094,7.5345075 5.8490847,7.5253909 5.8119506,7.5947766 5.6736744,7.8531481 5.2007847,8.2113509 4.7877675,8.3705712 4.3300459,8.5470253 4.1593356,8.5626528 2.7074854,8.5610081 1.5930403,8.5597456 1.3690353,8.5519628 1.2501684,8.5103753 Z M 4.0805809,7.5161347 C 4.5554503,7.4252772 4.8949091,7.2033919 5.0537284,6.8800425 5.1341009,6.7164078 5.140625,6.67497 5.140625,6.328125 5.140625,5.9806572 5.1342,5.9400413 5.0531137,5.7749184 4.9533822,5.5718272 4.7096853,5.3349822 4.5442834,5.2803947 L 4.4344787,5.2441559 4.5753297,5.1548309 C 4.8705866,4.9675847 4.9845809,4.7024647 4.9630919,4.2530013 4.9459272,3.8939906 4.8410994,3.6691725 4.60882,3.4932163 4.2680284,3.23506 3.9614534,3.1880369 2.6171875,3.1877359 L 1.5625,3.1875 V 5.375 7.5625 h 1.137876 c 0.8761653,0 1.1936115,-0.010664 1.3802049,-0.046365 z M 2.6875,6.2295987 V 5.6466975 l 0.4577225,0.018546 c 0.3945384,0.015986 0.4770691,0.028508 0.5978753,0.090714 C 3.927515,5.8509175 4,5.9866662 4,6.2370787 4,6.4446634 3.9350303,6.5788597 3.7783719,6.6948569 3.6818578,6.76632 3.3812253,6.8100462 2.9765625,6.8114775 L 2.6875,6.8125 Z m 0,-1.8077237 V 3.9285187 l 0.4002984,0.016236 c 0.4321382,0.017527 0.5426188,0.050943 0.6594422,0.1994606 0.092702,0.1178509 0.092702,0.4374691 0,0.55532 C 3.6304172,4.8480522 3.5199366,4.8814691 3.0877984,4.8989956 L 2.6875,4.9152312 Z M 9.1230213,5.4140181 C 9.5602141,4.2324019 9.9238281,3.2480469 9.9310522,3.2265625 9.9412453,3.1962478 9.8148556,3.1875 9.3666722,3.1875 H 8.7891575 L 8.5391719,3.8828125 C 8.40168,4.2652344 8.1437419,4.9828847 7.9659759,5.4775912 7.750775,6.0764769 7.6357831,6.3581819 7.6218712,6.3205744 7.5888525,6.2313159 6.5576728,3.3690919 6.5240728,3.2734375 L 6.4938859,3.1875 H 5.9165266 c -0.4664657,0 -0.5754188,0.00803 -0.5672554,0.041831 0.00556,0.023007 0.3686975,1.0073622 0.8069788,2.1874557 L 6.953125,7.562411 h 0.6875 0.6875 z M 11.65625,6.640625 V 5.71875 H 12.484375 13.3125 V 6.640625 7.5625 h 0.5625 0.5625 V 5.375 3.1875 H 13.875 13.3125 V 4.03125 4.875 H 12.484375 11.65625 V 4.03125 3.1875 h -0.5625 -0.5625 V 5.375 7.5625 h 0.5625 0.5625 z"
       id="path827"
       inkscape:connector-curvature="0" />
    <path
       style="fill:#cbfecb;stroke-width:0.03125"
       d="M 2,9.28125 V 8.5625 H 3.0121729 C 4.1318772,8.5625 4.35148,8.5387625 4.7877675,8.3705712 5.2007847,8.2113509 5.6736744,7.8531481 5.8119506,7.5947766 5.8490847,7.5253909 5.8561094,7.5345075 5.9458837,7.7685875 6.0645822,8.0780853 6.1834219,8.2539438 6.3524519,8.3702266 6.6128875,8.5493909 6.7007134,8.5625 7.640625,8.5625 8.5805366,8.5625 8.6683625,8.5493909 8.9287981,8.3702266 9.1150347,8.2421069 9.2219466,8.0703609 9.3789369,7.6471122 L 9.515625,7.2785991 9.5342534,7.5533622 c 0.029846,0.4402137 0.2174035,0.7389812 0.5751216,0.9161334 0.154397,0.076462 0.166071,0.077379 0.984375,0.077379 0.818304,0 0.829978,-9.188e-4 0.984375,-0.077379 0.08594,-0.042559 0.2125,-0.133965 0.28125,-0.203125 l 0.125,-0.1257456 0.125,0.1257159 c 0.06875,0.069144 0.195313,0.1601372 0.28125,0.2022078 0.140615,0.068838 0.203935,0.077646 0.632813,0.088026 L 14,8.5681094 V 9.2840547 10 H 8 2 Z M 7.5356647,3.0827185 C 7.3551991,2.5860005 7.1580462,2.35858 6.8035953,2.238259 6.6823831,2.1971126 6.5154059,2.1875 5.921875,2.1875 c -0.7674656,0 -0.9217097,0.021728 -1.1076353,0.1560289 -0.073207,0.05288 -0.083609,0.052686 -0.25,-0.00466 C 4.2036809,2.2146058 3.9116478,2.1875 2.9334066,2.1875 H 2 V 1.59375 1 h 6 6 v 0.5909453 0.5909454 l -0.476562,0.011535 c -0.428878,0.01038 -0.492198,0.019188 -0.632813,0.088026 -0.08594,0.04207 -0.2125,0.1330639 -0.28125,0.2022077 l -0.125,0.1257159 -0.125,-0.1257456 c -0.06875,-0.06916 -0.195312,-0.1605663 -0.28125,-0.203125 l -0.15625,-0.07738 -1.640625,-0.00819 C 8.4762422,2.1859198 8.4781934,2.1857479 8.1980962,2.3784598 8.0161925,2.5036128 7.8932775,2.6927908 7.7555337,3.0596054 L 7.6395162,3.3685619 Z"
       id="path825"
       inkscape:connector-curvature="0" />
    <path
       style="fill:#cbcbcb;stroke-width:0.03125"
       d="M 4,13.5 V 11 h 4 4 V 13.5 16 H 8 4 Z m 3,0 V 12 H 6 5 v 1.5 1.5 h 1 1 z"
       id="path823"
       inkscape:connector-curvature="0" />
    <path
       style="fill:#0065cb;stroke-width:0.03125"
       d="M 1.9921875,14.007817 0,12.015443 V 7.5077216 3 h 0.28050455 0.28050454 l 0.008558,2.4140625 0.008558,2.4140625 0.0773794,0.15625 c 0.0992387,0.20039 0.28703897,0.3875013 0.48512061,0.4833413 0.1292647,0.062543 0.216967,0.077839 0.5078125,0.088565 L 2,8.5692453 V 9.2846228 10 h 6 6 V 9.2846228 8.5692453 l 0.351563,-0.012964 c 0.290845,-0.010725 0.378547,-0.026021 0.507812,-0.088565 0.198082,-0.09584 0.385882,-0.2829513 0.485121,-0.4833413 l 0.07738,-0.15625 V 5.375 2.921875 l -0.07738,-0.15625 C 15.245257,2.5652351 15.057457,2.3781237 14.859375,2.2822837 14.73011,2.2197402 14.642408,2.2044445 14.351563,2.1937191 L 14,2.1807546 V 1.5903773 1 H 7 0 V 0.5 0 h 8 8 v 8 8 H 14 12 V 13.5 11 H 8.0001859 4.0003719 l -0.008,2.500095 -0.008,2.500095 z"
       id="path821"
       inkscape:connector-curvature="0" />
    <path
       style="fill:#323232;stroke-width:0.03125"
       d="M 5,13.5 V 12 H 6 7 V 13.5 15 H 6 5 Z M 1.5625,5.375 V 3.1875 l 1.0546875,2.5e-4 C 3.9614534,3.1880625 4.2680284,3.235074 4.60882,3.4932303 4.8410994,3.6691866 4.9459272,3.8940047 4.9630919,4.2530153 4.9845809,4.7024787 4.8705869,4.9675987 4.5753297,5.154845 L 4.4344787,5.24417 4.5442834,5.280409 c 0.1654019,0.054588 0.4090988,0.2914325 0.5088303,0.4945238 0.081086,0.1651228 0.087511,0.2057387 0.087511,0.5532066 0,0.346845 -0.00652,0.3882828 -0.086897,0.5519175 C 4.9471534,7.0970384 4.7724325,7.2594269 4.5168731,7.3790175 4.1706353,7.5410275 3.9580722,7.5625 2.700376,7.5625 H 1.5625 Z M 3.4814969,6.782645 C 3.834525,6.7371659 4,6.5630537 4,6.2370787 4,5.9866662 3.927515,5.8509175 3.7430978,5.7559572 3.6222916,5.6937512 3.5397609,5.6812291 3.1452225,5.6652434 L 2.6875,5.6466975 V 6.2295987 6.8125 L 2.9765625,6.81148 C 3.1355469,6.8109156 3.3627672,6.7979412 3.4814969,6.7826456 Z M 3.5850391,4.8326297 C 3.75473,4.7448791 3.8125,4.6405563 3.8125,4.421875 3.8125,4.2717534 3.7975594,4.2081847 3.7472406,4.144215 3.6304172,3.9956978 3.5199366,3.9622809 3.0877984,3.9447544 L 2.6875,3.9285187 V 4.421875 4.9152312 L 3.0877984,4.8989956 C 3.3673725,4.8876569 3.5173331,4.8676416 3.5850391,4.8326297 Z M 6.15625,5.4167866 C 5.7179687,4.2366931 5.3548281,3.2523381 5.3492712,3.2293309 5.3411078,3.1955344 5.4500609,3.1875 5.9165266,3.1875 h 0.5773593 l 0.030187,0.085937 c 0.0336,0.095654 1.0647797,2.9578784 1.0977984,3.0471369 C 7.6357831,6.3581819 7.750775,6.0764769 7.9659759,5.4775912 8.1437419,4.9828847 8.40168,4.2652344 8.5391719,3.8828125 L 8.7891575,3.1875 h 0.5775147 c 0.4481834,0 0.5745731,0.00875 0.56438,0.039063 -0.00722,0.021484 -0.3708381,1.0058394 -0.8080309,2.1874556 L 8.328125,7.5624109 h -0.6875 -0.6875 z M 10.53125,5.375 V 3.1875 h 0.5625 0.5625 V 4.03125 4.875 H 12.484375 13.3125 V 4.03125 3.1875 h 0.5625 0.5625 V 5.375 7.5625 H 13.875 13.3125 V 6.640625 5.71875 H 12.484375 11.65625 V 6.640625 7.5625 h -0.5625 -0.5625 z M 0,2 V 1 H 1 2 V 1.59375 2.1875 H 1.7042171 C 1.3721852,2.1875 1.1849305,2.23704 0.97745187,2.3797733 0.82338984,2.485759 0.67609278,2.6874057 0.61891881,2.8705978 L 0.57853259,3 H 0.28926629 0 Z"
       id="path819"
       inkscape:connector-curvature="0" />
  </g>
</svg>
