<?xml version="1.0" encoding="UTF-8" standalone="no"?>
<!-- Created with Inkscape (http://www.inkscape.org/) -->

<svg
   xmlns:dc="http://purl.org/dc/elements/1.1/"
   xmlns:cc="http://creativecommons.org/ns#"
   xmlns:rdf="http://www.w3.org/1999/02/22-rdf-syntax-ns#"
   xmlns:svg="http://www.w3.org/2000/svg"
   xmlns="http://www.w3.org/2000/svg"
   xmlns:sodipodi="http://sodipodi.sourceforge.net/DTD/sodipodi-0.dtd"
   xmlns:inkscape="http://www.inkscape.org/namespaces/inkscape"
   version="1.1"
   id="svg2"
   width="16"
   height="16"
   viewBox="0 0 16 16"
   sodipodi:docname="SAVE_STL.svg"
   inkscape:version="0.92.4 (5da689c313, 2019-01-14)">
  <metadata
     id="metadata8">
    <rdf:RDF>
      <cc:Work
         rdf:about="">
        <dc:format>image/svg+xml</dc:format>
        <dc:type
           rdf:resource="http://purl.org/dc/dcmitype/StillImage" />
        <dc:title></dc:title>
      </cc:Work>
    </rdf:RDF>
  </metadata>
  <defs
     id="defs6" />
  <sodipodi:namedview
     pagecolor="#ffffff"
     bordercolor="#666666"
     borderopacity="1"
     objecttolerance="10"
     gridtolerance="10"
     guidetolerance="10"
     inkscape:pageopacity="0"
     inkscape:pageshadow="2"
     inkscape:window-width="828"
     inkscape:window-height="480"
     id="namedview4"
     showgrid="false"
     inkscape:zoom="14.75"
     inkscape:cx="8"
     inkscape:cy="8"
     inkscape:window-x="0"
     inkscape:window-y="0"
     inkscape:window-maximized="0"
     inkscape:current-layer="svg2" />
  <g
     id="SAVE_STL">
    <path
       style="fill:#ffffff;stroke-width:0.03125"
       d="M 0,14.007905 V 12.01581 L 1.984375,14 C 3.0757813,15.091305 3.96875,15.987747 3.96875,15.992095 3.96875,15.996443 3.0757813,16 1.984375,16 H 0 Z"
       id="path829"
       inkscape:connector-curvature="0" />
    <path
       style="fill:#fefefe;stroke-width:0.03125"
       d="M 3.390625,8.6046384 C 3.1493934,8.5670669 2.5765901,8.4276947 2.3152024,8.3429706 1.8498867,8.1921478 1.6356663,8.0010616 1.5136326,7.6279653 1.4674562,7.4867891 1.4621341,7.3805691 1.4769316,6.8954847 1.4962452,6.2623569 1.528971,6.1158522 1.7067095,5.8668287 L 1.8129118,5.7180322 1.7363787,5.6012037 C 1.6942855,5.5369478 1.6203725,5.371875 1.5721275,5.234375 1.4896525,4.9993181 1.4844084,4.953555 1.4843922,4.46875 1.4843761,3.98472 1.4899017,3.9362634 1.5745698,3.6779456 1.8367211,2.8781358 2.503791,2.3215948 3.3842616,2.1681069 3.8445138,2.0878736 4.8214394,2.1232548 5.375,2.2402054 l 0.421875,0.089129 0.125,-0.063105 C 6.044815,2.204165 6.0988906,2.203125 9.203125,2.203125 h 3.15625 l 0.15625,0.077379 c 0.199213,0.098656 0.386465,0.2859074 0.485121,0.4851206 l 0.07738,0.15625 0.009,1.3961062 0.009,1.3961066 0.615978,0.010431 c 0.580706,0.00983 0.624925,0.014846 0.772228,0.087523 0.199028,0.098198 0.38637,0.285429 0.485121,0.4848328 0.07526,0.1519694 0.07738,0.1750847 0.07738,0.84375 0,0.6686653 -0.0021,0.6917806 -0.07738,0.84375 -0.09866,0.1992131 -0.285908,0.3864647 -0.485121,0.4851206 l -0.15625,0.077379 h -1.8125 -1.8125 l -0.15625,-0.077379 C 10.341023,8.3675522 10.152973,8.1756303 10.062253,7.9748953 c -0.094992,-0.210185 -0.1545136,-0.210185 -0.2495055,0 C 9.7220266,8.1756303 9.5339766,8.3675522 9.328125,8.4694956 9.1737281,8.5459572 9.1620541,8.546875 8.34375,8.546875 7.5254459,8.546875 7.5137719,8.5459562 7.359375,8.4694956 7.1591478,8.3703375 6.9720147,8.1826109 6.8757875,7.984375 6.8107884,7.8504716 6.7971534,7.765555 6.7804503,7.390625 6.7697306,7.15 6.7584938,6.97531 6.75548,7.0024247 6.7436725,7.1086506 6.5829828,7.4566894 6.4692456,7.6223816 6.2258406,7.9769741 5.8752616,8.2526431 5.4579781,8.4175672 5.0541506,8.5771728 4.9062825,8.5992487 4.171875,8.6095741 3.79375,8.6148903 3.4421875,8.6126678 3.390625,8.6046384 Z M 4.8540325,7.54916 C 5.5285884,7.36529 5.84375,6.9372225 5.84375,6.2048784 5.84375,5.8882262 5.7538462,5.6111709 5.5910959,5.4262769 5.4023094,5.2118037 5.1223816,5.0914953 4.35464,4.8948678 3.9947688,4.8027006 3.6689303,4.7077912 3.6305541,4.6839581 3.5921781,4.660125 3.532245,4.581805 3.4973694,4.5099141 3.3804634,4.2689291 3.5038131,4.03976 3.7981,3.9511928 c 0.3302984,-0.099405 1.0060144,-0.040381 1.4808681,0.129355 0.1645363,0.058813 0.3026725,0.1069378 0.3069694,0.1069428 0.0043,5.3e-6 0.00781,-0.1944565 0.00781,-0.4321372 V 3.3232066 L 5.1640625,3.2370406 C 4.3518612,3.0741687 3.5670687,3.0964888 3.1488119,3.2943559 2.916403,3.4043028 2.6534271,3.6878597 2.5605952,3.9286069 2.4569386,4.1974269 2.4425904,4.5905041 2.5264157,4.8649725 2.6740751,5.3484522 2.9481003,5.5196453 4.046875,5.8148556 4.4984925,5.9361928 4.5582147,5.9603659 4.6640625,6.0646694 4.7724344,6.17146 4.78125,6.1936297 4.78125,6.359375 c 0,0.1657462 -0.0089,0.1881281 -0.1183203,0.2975484 C 4.4991931,6.8206597 4.3508897,6.8547541 3.890625,6.8344731 3.4799687,6.8163781 3.2260063,6.7566481 2.786932,6.5748928 2.6421372,6.5149547 2.5183493,6.4712341 2.5118478,6.4777356 c -0.0065,0.0065 -0.020901,0.201155 -0.031999,0.4325635 L 2.45967,7.3310419 2.8157725,7.4307131 C 3.4125206,7.5977394 3.6169441,7.6249462 4.171875,7.6111987 4.4950722,7.6031922 4.7362869,7.5812547 4.8540325,7.54916 Z M 8.90625,5.796875 V 4.03125 H 9.640625 10.375 V 3.609375 3.1875 H 8.34375 6.3125 V 3.609375 4.03125 H 7.046875 7.78125 V 5.796875 7.5625 h 0.5625 0.5625 z m 5.15625,1.34375 V 6.71875 H 13.078125 12.09375 V 4.953125 3.1875 h -0.5625 -0.5625 V 5.375 7.5625 h 1.546875 1.546875 z"
       id="path827"
       inkscape:connector-curvature="0" />
    <path
       style="fill:#cbcbcb;stroke-width:0.03125"
       d="M 4,13.5 V 11 h 4 4 V 13.5 16 H 8 4 Z m 3,0 V 12 H 6 5 v 1.5 1.5 h 1 1 z"
       id="path825"
       inkscape:connector-curvature="0" />
    <path
       style="fill:#0065cb;stroke-width:0.03125"
       d="M 1.9921875,14.007817 0,12.015443 V 7.5077216 3 h 0.953125 c 0.5242187,0 0.953125,0.00656 0.953125,0.014571 0,0.00801 -0.054334,0.098636 -0.1207427,0.2013831 C 1.7190988,3.3187003 1.6241769,3.5265969 1.5745698,3.6779456 1.4899017,3.9362634 1.4843761,3.98472 1.4843922,4.46875 c 1.62e-5,0.484805 0.00526,0.5305681 0.087735,0.765625 0.048245,0.1375 0.122158,0.3025728 0.1642512,0.3668287 L 1.8129117,5.7180322 1.7067095,5.8668287 C 1.528971,6.1158522 1.4962452,6.2623569 1.4769316,6.8954847 c -0.014797,0.4850844 -0.00948,0.5913044 0.036701,0.7324806 0.071003,0.2170794 0.2115036,0.4171938 0.3635635,0.5178222 L 2,8.2270553 V 9.1135278 10 h 6 6 V 9.2856219 8.5712441 l 0.166157,-0.017149 c 0.335495,-0.034626 0.648155,-0.2563612 0.803339,-0.56972 0.07526,-0.1519694 0.07738,-0.1750847 0.07738,-0.84375 0,-0.6686653 -0.0021,-0.6917806 -0.07738,-0.84375 C 14.814312,5.9835162 14.501652,5.7617812 14.166157,5.727155 L 14,5.7100059 V 3.3550031 1 H 7 0 V 0.5 0 h 8 8 v 8 8 H 14 12 V 13.5 11 H 8.0001859 4.0003719 l -0.008,2.500095 -0.008,2.500095 z"
       id="path823"
       inkscape:connector-curvature="0" />
    <path
       style="fill:#980000;stroke-width:0.03125"
       d="M 2,9.125 C 2,8.64375 2.00638,8.25 2.014186,8.25 c 0.0078,0 0.1438915,0.042042 0.3024209,0.093426 0.1585294,0.051384 0.450974,0.1320663 0.6498769,0.1792935 0.3406118,0.080874 0.4043459,0.08589 1.0960165,0.086262 C 4.8618853,8.6094091 4.9960375,8.5916991 5.421875,8.4295156 5.8668556,8.2600416 6.2164791,7.9906119 6.4692456,7.6223816 6.5829828,7.4566894 6.7436725,7.1086506 6.75548,7.0024247 6.7584925,6.97531 6.7697306,7.15 6.7804503,7.390625 c 0.016703,0.37493 0.030338,0.4598466 0.095337,0.59375 0.096227,0.1982359 0.2833603,0.3859625 0.4835875,0.4851206 0.1543969,0.076462 0.1660709,0.077379 0.984375,0.077379 0.8183041,0 0.8299781,-9.187e-4 0.984375,-0.077379 0.2058516,-0.1019434 0.3939016,-0.2938653 0.4846225,-0.4946003 0.094992,-0.210185 0.1545131,-0.210185 0.2495057,0 0.09072,0.200735 0.27877,0.3926569 0.484622,0.4946003 l 0.15625,0.077379 1.648438,0.00887 L 14,8.564605 V 9.2823025 10 H 8 2 Z m 11.087153,-4.8046875 -0.009,-1.3984375 -0.07738,-0.15625 C 12.90209,2.5664118 12.714838,2.3791604 12.515625,2.2805044 l -0.15625,-0.077379 h -3.15625 c -3.1042344,0 -3.15831,0.00104 -3.28125,0.063105 l -0.125,0.063105 L 5.375,2.2402054 C 4.8214394,2.1232548 3.8445138,2.0878736 3.3842616,2.1681069 2.8751333,2.2568606 2.4939557,2.442105 2.1640625,2.7610982 L 2,2.91974 V 1.95987 1 h 6 6 V 3.359375 5.71875 h -0.451909 -0.45191 z"
       id="path821"
       inkscape:connector-curvature="0" />
    <path
       style="fill:#323232;stroke-width:0.03125"
       d="M 5,13.5 V 12 H 6 7 V 13.5 15 H 6 5 Z M 3.421875,7.5769847 C 3.284375,7.5513544 3.0116289,7.4855319 2.8157725,7.4307131 L 2.45967,7.3310419 2.4798485,6.9102991 c 0.011098,-0.2314085 0.025498,-0.4260622 0.031999,-0.4325635 0.0065,-0.0065 0.1302894,0.037219 0.2750842,0.097157 C 3.2260063,6.7566481 3.4799688,6.8163781 3.890625,6.8344731 4.3508897,6.8547541 4.4991931,6.8206597 4.6629297,6.6569234 4.7723497,6.5475031 4.78125,6.5251212 4.78125,6.359375 4.78125,6.1936297 4.7724344,6.17146 4.6640625,6.0646694 4.5582147,5.9603659 4.4984925,5.9361928 4.046875,5.8148556 2.9481003,5.5196453 2.6740751,5.3484522 2.5264157,4.8649725 2.4425904,4.5905041 2.4569386,4.1974269 2.5605953,3.9286069 2.6534271,3.6878597 2.916403,3.4043028 3.1488119,3.2943559 3.5670687,3.0964888 4.3518612,3.0741687 5.1640625,3.2370406 L 5.59375,3.3232066 v 0.4321468 c 0,0.2376807 -0.00352,0.4321425 -0.00781,0.4321372 -0.0043,-5e-6 -0.1424331,-0.048129 -0.3069694,-0.1069428 C 4.9390609,3.9590484 4.6187187,3.90625 4.2214553,3.90625 c -0.4604556,0 -0.688784,0.1063647 -0.7548269,0.3516287 -0.027471,0.1020219 -0.022581,0.1421204 0.030741,0.2520354 0.034876,0.071891 0.094809,0.1502109 0.1331847,0.174044 0.038376,0.023833 0.3642147,0.1187425 0.7240859,0.2109097 0.7677416,0.1966275 1.0476694,0.316936 1.2364559,0.5314091 C 5.7538462,5.6111709 5.84375,5.8882262 5.84375,6.2048784 5.84375,6.9372225 5.5285884,7.36529 4.8540325,7.54916 4.5897972,7.6211847 3.7468553,7.6375619 3.421875,7.5769847 Z M 7.78125,5.796875 V 4.03125 H 7.046875 6.3125 V 3.609375 3.1875 H 8.34375 10.375 V 3.609375 4.03125 H 9.640625 8.90625 V 5.796875 7.5625 H 8.34375 7.78125 Z M 10.96875,5.375 V 3.1875 h 0.5625 0.5625 V 4.953125 6.71875 H 13.078125 14.0625 V 7.140625 7.5625 H 12.515625 10.96875 Z M 0,2 V 1 h 1 1 v 0.9625 c 0,0.7069444 -0.00996,0.9724567 -0.0375,1 C 1.9349567,2.9900433 1.6694444,3 0.9625,3 H 0 Z"
       id="path819"
       inkscape:connector-curvature="0" />
  </g>
</svg>
