<?xml version="1.0" encoding="UTF-8" standalone="no"?>
<!-- Created with Inkscape (http://www.inkscape.org/) -->

<svg
   xmlns:dc="http://purl.org/dc/elements/1.1/"
   xmlns:cc="http://creativecommons.org/ns#"
   xmlns:rdf="http://www.w3.org/1999/02/22-rdf-syntax-ns#"
   xmlns:svg="http://www.w3.org/2000/svg"
   xmlns="http://www.w3.org/2000/svg"
   xmlns:sodipodi="http://sodipodi.sourceforge.net/DTD/sodipodi-0.dtd"
   xmlns:inkscape="http://www.inkscape.org/namespaces/inkscape"
   version="1.1"
   id="svg2"
   width="16"
   height="16"
   viewBox="0 0 16 16"
   sodipodi:docname="SAVE_ALEMBIC.svg"
   inkscape:version="0.92.4 (5da689c313, 2019-01-14)">
  <metadata
     id="metadata8">
    <rdf:RDF>
      <cc:Work
         rdf:about="">
        <dc:format>image/svg+xml</dc:format>
        <dc:type
           rdf:resource="http://purl.org/dc/dcmitype/StillImage" />
        <dc:title></dc:title>
      </cc:Work>
    </rdf:RDF>
  </metadata>
  <defs
     id="defs6" />
  <sodipodi:namedview
     pagecolor="#ffffff"
     bordercolor="#666666"
     borderopacity="1"
     objecttolerance="10"
     gridtolerance="10"
     guidetolerance="10"
     inkscape:pageopacity="0"
     inkscape:pageshadow="2"
     inkscape:window-width="828"
     inkscape:window-height="480"
     id="namedview4"
     showgrid="false"
     inkscape:zoom="14.75"
     inkscape:cx="8"
     inkscape:cy="8"
     inkscape:window-x="0"
     inkscape:window-y="0"
     inkscape:window-maximized="0"
     inkscape:current-layer="svg2" />
  <g
     id="SAVE_ALEMBIC">
    <path
       style="fill:#ffffff;stroke-width:0.03125"
       d="M 0,14.007905 V 12.01581 L 1.984375,14 C 3.0757813,15.091305 3.96875,15.987747 3.96875,15.992095 3.96875,15.996443 3.0757813,16 1.984375,16 H 0 Z"
       id="path829"
       inkscape:connector-curvature="0" />
    <path
       style="fill:#fefefe;stroke-width:0.03125"
       d="M 12.28125,8.5652506 C 11.706603,8.4391875 11.168376,8.1677172 10.811308,7.8238434 L 10.669492,7.6872669 10.530058,7.8309759 C 10.245385,8.1243788 9.8630387,8.331205 9.375,8.4557931 9.1544219,8.5121028 9.0035775,8.515625 6.8125,8.515625 H 4.484375 L 4.328125,8.4384978 C 4.1207878,8.3361534 3.90395,8.1152913 3.8128016,7.91361 3.7409006,7.7545178 3.7352834,7.75 3.609375,7.75 3.4834666,7.75 3.4778494,7.7545178 3.4059484,7.91361 3.3148,8.1152913 3.0979623,8.3361534 2.890625,8.4384978 c -0.1544536,0.076241 -0.1659504,0.077127 -1,0.077127 -0.8349305,0 -0.8453833,-8.094e-4 -1,-0.077379 C 0.691173,8.3394713 0.50394678,8.1521059 0.40586484,7.953125 0.33918484,7.81785 0.32901241,7.7549253 0.33008625,7.484375 l 0.00124,-0.3125 L 1.1613714,4.9493684 C 1.7012173,3.5038913 2.0260045,2.6765898 2.0903475,2.5830703 2.2058208,2.4152357 2.3921335,2.278472 2.6026546,2.207009 c 0.2201694,-0.074738 1.7932713,-0.074738 2.0134407,0 0.3628872,0.1231847 0.5497053,0.3446063 0.7481638,0.886741 L 5.484375,3.421875 5.5032137,3.15625 C 5.5338144,2.7247846 5.7241069,2.4245742 6.078125,2.2492544 l 0.15625,-0.077379 h 1.40625 c 1.3720941,0 1.4127016,0.00176 1.671875,0.072252 0.4562956,0.1241158 0.76161,0.2920183 1.044402,0.5743505 l 0.247526,0.2471245 0.174349,-0.170453 c 0.332856,-0.3254192 0.828347,-0.5952589 1.371991,-0.747173 0.214538,-0.05995 0.320674,-0.067174 1.005482,-0.068438 0.853968,-0.00158 1.00213,0.022464 1.559613,0.2530588 0.330975,0.1369033 0.5073,0.2577612 0.624427,0.4279994 0.176403,0.2563934 0.196589,0.3782068 0.185287,1.1181471 -0.0097,0.6371 -0.01379,0.6753888 -0.08746,0.8243816 -0.09861,0.1994519 -0.286007,0.38671 -0.484992,0.4846353 C 14.820692,5.2529344 14.751623,5.2647291 14.5,5.26514 14.203413,5.2656244 14.202805,5.265465 13.873341,5.0999397 13.521806,4.9233266 13.260628,4.8649141 13.131493,4.9340247 c -0.173683,0.092952 -0.173683,0.7264981 0,0.8194506 0.129135,0.069111 0.390313,0.010698 0.741848,-0.165915 C 14.202805,5.4220356 14.203413,5.4218756 14.5,5.42236 c 0.251623,4.094e-4 0.320692,0.012206 0.453125,0.077379 0.198985,0.097925 0.386381,0.2851834 0.484994,0.4846356 0.07366,0.1489928 0.07773,0.1872816 0.08746,0.8243816 0.0113,0.7399403 -0.0089,0.8617537 -0.185287,1.1181471 -0.16057,0.2333813 -0.524843,0.4295754 -1.105915,0.5956366 -0.257517,0.073594 -0.340583,0.081246 -0.984375,0.090679 -0.596759,0.00874 -0.743308,0.00149 -0.96875,-0.047969 z m 1.524755,-0.9898065 c 0.132478,-0.027256 0.349854,-0.092524 0.483058,-0.145041 L 14.53125,7.3349178 V 6.8679797 c 0,-0.256816 -0.01055,-0.4622506 -0.02344,-0.4565213 -0.01289,0.00573 -0.142969,0.07011 -0.289063,0.1430694 -0.374379,0.1869647 -0.595158,0.2358978 -0.997869,0.2211663 -0.272434,-0.00997 -0.360598,-0.026137 -0.503557,-0.09236 C 12.234083,6.4594809 12,6.0223366 12,5.34375 c 0,-0.6785866 0.234083,-1.1157309 0.717324,-1.3395841 0.142959,-0.066223 0.231123,-0.082394 0.503557,-0.09236 0.402711,-0.014731 0.62349,0.034202 0.997869,0.2211663 0.146094,0.072959 0.276172,0.1373403 0.289063,0.1430694 0.01289,0.00573 0.02344,-0.1997054 0.02344,-0.4565213 V 3.3525822 l -0.24219,-0.095666 C 13.883367,3.0966633 13.591594,3.0528357 13.050463,3.070864 12.5088,3.0889101 12.320938,3.1304416 11.942178,3.3158775 11.458923,3.5524731 11.095563,3.9766116 10.914354,4.515625 c -0.07919,0.2355569 -0.08405,0.2833994 -0.08405,0.828125 0,0.5439703 0.0049,0.5928947 0.08374,0.828125 0.246888,0.7370812 0.836805,1.2513462 1.612714,1.4058978 0.298232,0.059404 0.985268,0.058153 1.279245,-0.00233 z M 2.6087603,7.140625 l 0.1326234,-0.375 h 0.8690926 0.8690928 l 0.131699,0.375 0.1316991,0.375 0.5854703,0.00852 c 0.5566703,0.0081 0.5847256,0.00567 0.5703378,-0.04935 C 5.8904525,7.442965 5.5279481,6.4582734 5.0932103,5.2865875 L 4.3027775,3.15625 H 3.609375 2.9159725 L 2.1255398,5.2865875 c -0.434738,1.1716859 -0.7972422,2.1563775 -0.805565,2.1882038 -0.014388,0.05502 0.013672,0.057447 0.570515,0.04935 L 2.476137,7.515625 Z M 3.0395419,5.8984375 C 3.0477802,5.8769531 3.1777788,5.5007812 3.3284275,5.0625 3.4790762,4.6242187 3.6049062,4.2622934 3.60805,4.2582216 c 0.00314,-0.00407 0.1268541,0.3474903 0.2749122,0.78125 0.1480581,0.4337593 0.2786531,0.8132628 0.2902106,0.8433409 0.019553,0.050884 -0.019662,0.054687 -0.5637978,0.054687 -0.4550047,0 -0.5814871,-0.00867 -0.5698331,-0.039062 z M 9.051885,7.4823478 C 9.5254303,7.3845348 9.8583388,7.1581988 10.00433,6.834805 10.0684,6.6928853 10.0779,6.6235175 10.078,6.296875 10.078125,5.9574184 10.0704,5.9053281 9.996252,5.7472975 9.8948553,5.5310716 9.7260128,5.3587178 9.5238253,5.2650431 9.3874013,5.2018369 9.3774094,5.1909472 9.4381497,5.1716687 9.5430625,5.1383706 9.7464712,4.9411866 9.8225756,4.7990066 9.8816316,4.6886769 9.890625,4.6223141 9.890625,4.296875 9.890625,3.9635009 9.8824462,3.9062653 9.8169437,3.78125 9.6692247,3.4993194 9.4607162,3.3446316 9.0764234,3.2318744 8.9180059,3.1853925 8.7144734,3.1754647 7.6953125,3.1645084 L 6.5,3.1516584 V 5.3414544 7.53125 h 1.1575675 c 0.9285806,0 1.2044006,-0.00967 1.3943175,-0.048902 z M 7.625,6.1983487 V 5.6154475 l 0.4577225,0.018546 c 0.3945384,0.015986 0.4770691,0.028508 0.5978753,0.090714 C 8.865015,5.8196675 8.9375,5.9554165 8.9375,6.205829 8.9375,6.4134137 8.87253,6.54761 8.7158719,6.6636072 8.6193578,6.73507 8.3187253,6.7787962 7.9140625,6.7802275 L 7.625,6.78125 Z m 0,-1.8077237 V 3.8972687 l 0.4002984,0.016236 C 8.4574366,3.9310309 8.5679172,3.9644478 8.6847406,4.112965 8.7350594,4.1769347 8.75,4.2405034 8.75,4.390625 8.75,4.5407466 8.7350594,4.6043153 8.6847406,4.668285 8.5679172,4.8168022 8.4574366,4.8502191 8.0252984,4.8677456 L 7.625,4.8839812 Z"
       id="path827"
       inkscape:connector-curvature="0" />
    <path
       style="fill:#cbcbcb;stroke-width:0.03125"
       d="M 4,13.5 V 11 h 4 4 V 13.5 16 H 8 4 Z m 3,0 V 12 H 6 5 v 1.5 1.5 h 1 1 z"
       id="path825"
       inkscape:connector-curvature="0" />
    <path
       style="fill:#989898;stroke-width:0.03125"
       d="M 2,9.2689166 V 8.5378328 L 2.3671875,8.5250806 C 2.6748627,8.5143953 2.7596994,8.5000953 2.890625,8.4368497 3.0967593,8.3372734 3.3143053,8.1163856 3.4059484,7.91361 3.4778494,7.7545178 3.4834666,7.75 3.609375,7.75 c 0.1259084,0 0.1315256,0.00452 0.2034266,0.16361 0.091148,0.2016813 0.3079862,0.4225434 0.5153234,0.5248878 l 0.15625,0.077127 H 6.8125 c 2.1910775,0 2.3419219,-0.00352 2.5625,-0.059832 0.4880387,-0.1245881 0.870385,-0.3314143 1.155058,-0.6248172 l 0.139434,-0.143709 0.141816,0.1377053 c 0.302538,0.2937659 0.81578,0.5677219 1.33946,0.7149697 0.216877,0.060981 0.316951,0.067538 1.04455,0.068438 l 0.804693,9.969e-4 -6e-6,0.6953125 L 14,10 H 8 2 Z M 13.118418,5.7502353 C 12.956134,5.649405 12.966177,5.0224997 13.131493,4.9340247 13.243165,4.87426 13.522033,4.9234397 13.772004,5.0469825 L 14,5.1596641 V 5.34375 5.5278359 l -0.229942,0.1136435 c -0.244966,0.121069 -0.54991,0.1719628 -0.65164,0.1087559 z M 5.3642591,3.09375 C 5.1641269,2.5470425 4.9744434,2.3246813 4.6051816,2.2039018 4.4715306,2.1601869 4.3157869,2.1540733 3.5445759,2.1622688 2.6597835,2.1716714 2.6373825,2.1734835 2.4876371,2.2477679 2.3312775,2.3253334 2.1477989,2.485362 2.0551267,2.625 2.0061675,2.6987715 2.0031869,2.6556716 2.0016391,1.8515625 L 2,1 h 6 6 l 5e-6,0.5390625 6e-6,0.5390625 -0.804693,9.953e-4 c -0.727599,9e-4 -0.827673,0.00746 -1.04455,0.068438 -0.545618,0.1534164 -1.039504,0.4225321 -1.371991,0.7475909 L 10.604428,3.0656023 10.356902,2.8184778 C 10.07411,2.5361454 9.7687956,2.3682429 9.3125,2.2441271 9.0533266,2.1736299 9.0127191,2.171875 7.640625,2.171875 H 6.234375 L 6.078125,2.249254 C 5.7241069,2.4245742 5.5338144,2.7247846 5.5032137,3.15625 L 5.484375,3.421875 Z"
       id="path823"
       inkscape:connector-curvature="0" />
    <path
       style="fill:#0065cb;stroke-width:0.03125"
       d="M 1.9921875,14.007817 0,12.015443 V 7.5077216 3 H 0.94114472 C 1.8225594,3 1.8813033,3.00347 1.8667504,3.054687 1.8582004,3.084765 1.5092833,4.023437 1.0913714,5.1406245 l -0.75983987,2.03125 -0.001343,0.3125 c -0.001163,0.2706741 0.008966,0.3334128 0.0756761,0.46875 0.0983805,0.1995866 0.28589788,0.3868884 0.48476016,0.4842031 0.14059061,0.068799 0.20401111,0.077618 0.63281251,0.087997 L 2,8.5368594 V 9.2684297 10 h 6 6 V 9.2862228 8.5724456 l 0.179688,-0.039 c 0.249812,-0.05422 0.762572,-0.2622172 0.929422,-0.3770134 0.166861,-0.1148031 0.304613,-0.3063713 0.374961,-0.521445 0.0431,-0.1317663 0.05001,-0.2693816 0.04151,-0.8262306 -0.0097,-0.6371 -0.01379,-0.6753888 -0.08746,-0.8243816 C 15.338611,5.7831119 15.150392,5.5960978 14.953125,5.5024869 14.744134,5.4033122 14.403637,5.3794681 14.190751,5.4490994 14.10516,5.4770947 14.027227,5.5 14.017566,5.5 14.007905,5.5 14,5.4296875 14,5.34375 14,5.257813 14.0079,5.1875 14.01757,5.1875 c 0.0097,0 0.08759,0.022905 0.173185,0.050901 0.212886,0.069631 0.553383,0.045787 0.762374,-0.053388 0.197267,-0.093611 0.385486,-0.280625 0.484994,-0.4818881 0.07366,-0.1489928 0.07773,-0.1872816 0.08746,-0.8243816 0.0085,-0.556849 0.0016,-0.6944643 -0.04151,-0.8262306 C 15.413723,2.8374391 15.275971,2.6458709 15.10911,2.5310677 14.94226,2.4162716 14.4295,2.2082743 14.179688,2.1540543 L 14,2.1150544 V 1.5575272 1 H 7 0 V 0.5 0 h 8 8 v 8 8 H 14 12 V 13.5 11 H 8.0001859 4.0003719 l -0.008,2.500095 -0.008,2.500095 z"
       id="path821"
       inkscape:connector-curvature="0" />
    <path
       style="fill:#323232;stroke-width:0.03125"
       d="M 5,13.5 V 12 H 6 7 V 13.5 15 H 6 5 Z M 12.52676,7.5777728 C 12.093446,7.4914619 11.703979,7.2853269 11.408942,6.9861397 11.177725,6.7516703 11.022957,6.4970256 10.914046,6.171875 10.835255,5.9366447 10.830308,5.8877203 10.830308,5.34375 c 0,-0.5447256 0.0049,-0.5925681 0.08405,-0.828125 0.181209,-0.5390134 0.544569,-0.9631519 1.027824,-1.1997475 0.37876,-0.1854359 0.566622,-0.2269674 1.108285,-0.2450135 0.541131,-0.018028 0.832904,0.025799 1.2386,0.1860522 l 0.242187,0.095666 v 0.4669381 c 0,0.2568159 -0.01055,0.4622506 -0.02344,0.4565213 -0.01289,-0.00573 -0.142969,-0.07011 -0.289063,-0.1430694 -0.374379,-0.1869647 -0.595158,-0.2358978 -0.997869,-0.2211663 -0.272434,0.00997 -0.360598,0.026137 -0.503557,0.09236 C 12.234083,4.2280191 12,4.6651634 12,5.34375 c 0,0.6785866 0.234083,1.1157309 0.717324,1.3395841 0.142959,0.066223 0.231123,0.082394 0.503557,0.09236 0.402711,0.014731 0.62349,-0.034202 0.997869,-0.2211663 0.146094,-0.072959 0.276172,-0.1373403 0.289063,-0.1430694 0.01289,-0.00573 0.02344,0.1997053 0.02344,0.4565213 v 0.4669381 l -0.242187,0.095485 c -0.133204,0.052517 -0.35058,0.117785 -0.483058,0.145041 -0.293977,0.060482 -0.981013,0.061733 -1.279245,0.00233 z M 1.3199748,7.4747912 c 0.00832,-0.031826 0.370827,-1.0165178 0.805565,-2.1882037 L 2.9159725,3.15625 H 3.609375 4.3027775 l 0.7904328,2.1303375 c 0.4347378,1.1716859 0.7972422,2.1563775 0.805565,2.1882037 0.014388,0.055019 -0.013667,0.057447 -0.5703378,0.04935 l -0.5854703,-0.00852 -0.1316991,-0.375 -0.131699,-0.375 H 3.6104762 2.7413837 l -0.1326234,0.375 -0.1326233,0.375 -0.5856472,0.00852 c -0.556843,0.0081 -0.584903,0.00567 -0.570515,-0.04935 z M 4.1731728,5.8828125 C 4.1616153,5.8527344 4.0310203,5.4732309 3.8829622,5.0394716 3.7349041,4.6057119 3.6111934,4.2541494 3.60805,4.2582216 3.6049063,4.2622934 3.4790763,4.6242187 3.3284275,5.0625 3.1777788,5.5007812 3.0477802,5.8769531 3.0395419,5.8984375 3.0278879,5.9288297 3.1543703,5.9375 3.609375,5.9375 c 0.5441356,0 0.5833503,-0.0038 0.5637978,-0.054687 z M 6.5,5.3414544 v -2.189796 l 1.1953125,0.01285 c 1.0191609,0.010956 1.2226934,0.020884 1.3811109,0.067366 0.3842929,0.1127572 0.5928013,0.267445 0.7405204,0.5493756 0.065502,0.1250153 0.073681,0.1822509 0.073681,0.515625 0,0.3254391 -0.00899,0.3918019 -0.068049,0.5021316 -0.076104,0.14218 -0.2795131,0.339364 -0.3844259,0.3726621 -0.06074,0.019279 -0.050748,0.030168 0.085676,0.093374 0.2021875,0.093675 0.37103,0.2660285 0.4724303,0.4822544 0.074109,0.1580306 0.081857,0.2101209 0.081748,0.5495775 -9.4e-5,0.3266425 -0.0096,0.3960103 -0.07367,0.53793 C 9.9132853,7.0364834 9.6786178,7.2609769 9.4558697,7.3594869 9.1118028,7.5116494 8.9065916,7.53125 7.6575675,7.53125 H 6.5 Z M 8.4189969,6.751395 C 8.772025,6.7059159 8.9375,6.5318037 8.9375,6.2058287 8.9375,5.9554162 8.865015,5.8196675 8.6805978,5.7247072 8.5597916,5.6625012 8.4772609,5.6499791 8.0827225,5.6339934 L 7.625,5.6154475 V 6.1983487 6.78125 L 7.9140625,6.78023 C 8.0730469,6.7796656 8.3002672,6.7666912 8.4189969,6.7513956 Z M 8.5225391,4.8013797 C 8.69223,4.7136291 8.75,4.6093063 8.75,4.390625 8.75,4.2405034 8.7350594,4.1769347 8.6847406,4.112965 8.5679172,3.9644478 8.4574366,3.9310309 8.0252984,3.9135044 L 7.625,3.8972687 V 4.390625 4.8839812 L 8.0252984,4.8677456 C 8.3048725,4.8564069 8.4548331,4.8363916 8.5225391,4.8013797 Z M 0,2 V 1 h 1 1 l 1.531e-4,0.8515625 c 1.313e-4,0.7232694 -0.00786,0.8739255 -0.053048,1 L 1.8939035,3 H 0.94695175 0 Z"
       id="path819"
       inkscape:connector-curvature="0" />
  </g>
</svg>
