<?xml version="1.0" encoding="UTF-8" standalone="no"?>
<!-- Created with Inkscape (http://www.inkscape.org/) -->

<svg
   xmlns:dc="http://purl.org/dc/elements/1.1/"
   xmlns:cc="http://creativecommons.org/ns#"
   xmlns:rdf="http://www.w3.org/1999/02/22-rdf-syntax-ns#"
   xmlns:svg="http://www.w3.org/2000/svg"
   xmlns="http://www.w3.org/2000/svg"
   xmlns:sodipodi="http://sodipodi.sourceforge.net/DTD/sodipodi-0.dtd"
   xmlns:inkscape="http://www.inkscape.org/namespaces/inkscape"
   version="1.1"
   id="svg2"
   width="16"
   height="16"
   viewBox="0 0 16 16"
   sodipodi:docname="SAVE_DAE.svg"
   inkscape:version="0.92.4 (5da689c313, 2019-01-14)">
  <metadata
     id="metadata8">
    <rdf:RDF>
      <cc:Work
         rdf:about="">
        <dc:format>image/svg+xml</dc:format>
        <dc:type
           rdf:resource="http://purl.org/dc/dcmitype/StillImage" />
        <dc:title></dc:title>
      </cc:Work>
    </rdf:RDF>
  </metadata>
  <defs
     id="defs6" />
  <sodipodi:namedview
     pagecolor="#ffffff"
     bordercolor="#666666"
     borderopacity="1"
     objecttolerance="10"
     gridtolerance="10"
     guidetolerance="10"
     inkscape:pageopacity="0"
     inkscape:pageshadow="2"
     inkscape:window-width="828"
     inkscape:window-height="480"
     id="namedview4"
     showgrid="false"
     inkscape:zoom="14.75"
     inkscape:cx="8"
     inkscape:cy="8"
     inkscape:window-x="0"
     inkscape:window-y="0"
     inkscape:window-maximized="0"
     inkscape:current-layer="svg2" />
  <g
     id="SAVE_DAE">
    <path
       style="fill:#ffffff;stroke-width:0.03125"
       d="M 0,14.007905 V 12.01581 L 1.984375,14 C 3.0757813,15.091305 3.96875,15.987747 3.96875,15.992095 3.96875,15.996443 3.0757813,16 1.984375,16 H 0 Z"
       id="path829"
       inkscape:connector-curvature="0" />
    <path
       style="fill:#fefefe;stroke-width:0.03125"
       d="M 1.2501684,8.5126947 C 0.93535713,8.3973538 0.71266394,8.1690519 0.61105078,7.8574806 0.56622284,7.7200269 0.56166403,7.4413506 0.56941778,5.3125 L 0.578125,2.921875 0.65550441,2.765625 C 0.75416037,2.5664118 0.94141184,2.3791604 1.140625,2.2805044 l 0.15625,-0.077379 1.015625,0.00808 c 1.6063766,0.012782 2.0776178,0.070351 2.6130884,0.3192268 0.517065,0.2403208 0.9498282,0.6043054 1.23507,1.0387813 C 6.2928063,3.7705006 6.3286853,3.8075369 6.3463659,3.7609134 6.3584194,3.7291297 6.4462794,3.4959669 6.5416106,3.2427741 6.7348769,2.7294732 6.845545,2.5447638 7.0399519,2.4110233 7.29765,2.2337421 7.4111,2.2141207 8.28617,2.1954871 c 0.8894875,-0.01894 0.9942809,-0.00379 1.2657338,0.1829727 0.1924865,0.1324344 0.2942021,0.3009534 0.4671342,0.7739343 l 0.152837,0.418019 0.01808,-0.324269 c 0.01405,-0.2518901 0.03481,-0.3591451 0.093,-0.4805191 0.09478,-0.1976595 0.281825,-0.3856602 0.482662,-0.4851206 l 0.15625,-0.077379 h 1.78125 1.78125 l 0.15625,0.077379 c 0.199213,0.098656 0.386465,0.2859074 0.485121,0.4851206 0.07526,0.151972 0.07738,0.1750731 0.07737,0.84375 -10e-6,0.6130053 -0.0065,0.7010444 -0.05986,0.8125 -0.05386,0.1124828 -0.05919,0.190715 -0.05323,0.78125 0.0036,0.3609375 -0.0067,0.7006734 -0.02308,0.7549687 -0.02475,0.082257 -0.01755,0.1165988 0.04316,0.2059397 0.15378,0.2263085 0.176788,0.3713913 0.165437,1.0432141 -0.0099,0.5858703 -0.01484,0.6296875 -0.08758,0.7771275 -0.0982,0.1990275 -0.285429,0.3863703 -0.484833,0.4851206 l -0.15625,0.077379 -1.78125,-0.00127 C 11.785937,8.5449094 10.583594,8.5378772 10.09375,8.5299812 9.2241203,8.5159634 9.1994416,8.5138069 9.046875,8.4384978 8.8472084,8.33994 8.6267838,8.1195847 8.5379044,7.9296875 L 8.4684297,7.78125 H 8.296875 8.1253203 L 8.0558456,7.9296875 C 7.9669662,8.1195847 7.7465416,8.33994 7.546875,8.4384978 7.3928703,8.5145166 7.3789491,8.515625 6.578125,8.515625 5.7764475,8.515625 5.7635437,8.514595 5.609375,8.438246 5.5234375,8.3956869 5.3942106,8.3019862 5.3222041,8.2300222 L 5.1912834,8.0991781 4.9159541,8.2174278 C 4.3374878,8.46587 3.93104,8.5197284 2.4375,8.5458475 1.5132576,8.5620106 1.3741717,8.5581272 1.2501684,8.5126947 Z M 2.890625,7.5323047 C 3.8413306,7.4984587 4.1928847,7.4384762 4.59375,7.2417159 5.2623619,6.9135353 5.65625,6.2307531 5.65625,5.3999337 5.65625,4.7484847 5.4657578,4.2375506 5.0817131,3.8589231 4.8282887,3.6090737 4.4814291,3.4119063 4.15625,3.3328572 3.8864572,3.2672719 3.3116369,3.2263288 2.3515625,3.2043128 L 1.5625,3.1862184 V 5.3743594 7.5625 L 1.8359375,7.56131 c 0.1503906,-6.563e-4 0.625,-0.013707 1.0546875,-0.029004 z M 2.6875,5.3640884 V 4.0026147 l 0.3203125,0.016038 C 3.6923197,4.0529269 3.94735,4.1360387 4.20139,4.4076281 4.2820925,4.4939053 4.3858097,4.6449062 4.4318731,4.7431853 4.5106425,4.911245 4.515625,4.9488312 4.515625,5.375 c 0,0.4473091 -0.0013,0.455775 -0.1010212,0.6595834 -0.1239569,0.2533329 -0.3168347,0.4373507 -0.596491,0.5690913 -0.19921,0.093844 -0.2297775,0.09887 -0.6696753,0.1101097 L 2.6875,6.7255622 Z M 14.28125,7.140625 V 6.71875 H 13.296875 12.3125 v -0.5 -0.5 h 0.890625 0.890625 V 5.296875 4.875 H 13.203125 12.3125 V 4.453125 4.03125 h 0.953125 0.953125 V 3.609375 3.1875 H 12.703125 11.1875 V 5.375 7.5625 h 1.546875 1.546875 z M 7.2604722,7.1484375 7.3878906,6.78125 H 8.296875 9.2058594 l 0.1274184,0.3671875 0.1274184,0.3671875 0.5545278,0.00855 c 0.520269,0.00802 0.553162,0.00512 0.53242,-0.046875 C 10.494213,7.3433444 9.2720903,4.0643044 9.1208162,3.6490197 L 8.953125,3.1886647 8.59375,3.1882441 C 8.3960938,3.1880253 8.0986763,3.19681 7.9328225,3.2077941 L 7.6312697,3.2277647 6.8505181,5.3248197 C 6.421105,6.4782003 6.0594688,7.4468156 6.0468825,7.4772984 c -0.02148,0.052024 0.011128,0.054899 0.5316438,0.046875 L 7.1330537,7.515625 Z M 7.6875,5.9488969 c 0,-0.021117 0.4354731,-1.2896535 0.5376175,-1.5660844 0.033343,-0.090234 0.07016,-0.1640066 0.081815,-0.1639381 0.016718,9.37e-5 0.5528256,1.5430265 0.5937959,1.7089553 0.00807,0.032678 -0.1131081,0.04092 -0.6015625,0.04092 C 7.96275,5.96875 7.6875,5.9598159 7.6875,5.9488969 Z"
       id="path827"
       inkscape:connector-curvature="0" />
    <path
       style="fill:#98fefe;stroke-width:0.03125"
       d="M 2,9.2860947 V 8.5721894 l 0.426816,-0.02047 C 2.6615648,8.5404613 2.9955492,8.5310063 3.1690034,8.5307084 3.8385891,8.5295584 4.44054,8.4216109 4.9159541,8.2174278 L 5.1912834,8.0991781 5.3222041,8.2300222 c 0.072006,0.071964 0.2012334,0.1656647 0.2871709,0.2082234 0.1541687,0.076349 0.1670725,0.077379 0.96875,0.077379 0.8008241,0 0.8147453,-0.00111 0.96875,-0.077127 C 7.7465416,8.33994 7.9669663,8.1195847 8.0558456,7.9296875 L 8.1253203,7.78125 H 8.296875 8.4684297 l 0.069475,0.1484375 c 0.088879,0.1898972 0.309304,0.4102525 0.5089706,0.5088103 0.1520319,0.075045 0.1790278,0.07748 0.9999997,0.090203 0.464063,0.00719 1.543359,0.018242 2.398438,0.024556 L 14,8.5647362 V 9.2823681 10 H 8 2 Z m 4.1606584,-5.71688 C 5.7776266,2.9857864 5.1059044,2.5181575 4.40625,2.3478585 4.075275,2.2672977 3.5289281,2.2194926 2.9344024,2.2190724 2.68348,2.2188951 2.3705894,2.2096553 2.2390899,2.1985395 L 2,2.178329 V 1.5891645 1 h 6 6 v 0.5926319 0.5926318 l -1.539062,0.00893 -1.539063,0.00893 -0.15625,0.077379 c -0.200837,0.09946 -0.387886,0.2874611 -0.482662,0.4851206 -0.0582,0.121374 -0.07896,0.228629 -0.093,0.4805191 l -0.01808,0.324269 -0.152837,-0.418019 C 9.8461059,2.6794132 9.7443903,2.5108942 9.5519037,2.3784598 9.2804509,2.1916954 9.1756575,2.1765466 8.28617,2.1954871 7.4111,2.2141207 7.29765,2.2337421 7.0399519,2.4110233 6.845545,2.5447638 6.7348769,2.7294732 6.5416106,3.2427741 6.4462794,3.4959669 6.3584194,3.7291297 6.3463659,3.7609134 c -0.017681,0.046623 -0.05356,0.00959 -0.1857075,-0.1916987 z"
       id="path825"
       inkscape:connector-curvature="0" />
    <path
       style="fill:#cbcbcb;stroke-width:0.03125"
       d="M 4,13.5 V 11 h 4 4 V 13.5 16 H 8 4 Z m 3,0 V 12 H 6 5 v 1.5 1.5 h 1 1 z"
       id="path823"
       inkscape:connector-curvature="0" />
    <path
       style="fill:#0065cb;stroke-width:0.03125"
       d="M 1.9921875,14.007817 0,12.015443 V 7.5077216 3 h 0.28050455 0.28050454 l 0.008558,2.4140625 0.008558,2.4140625 0.0773794,0.15625 c 0.0992387,0.20039 0.28703897,0.3875013 0.48512061,0.4833413 0.1292647,0.062543 0.216967,0.077839 0.5078125,0.088565 L 2,8.5692453 V 9.2846228 10 h 6 6 V 9.2850725 8.570145 l 0.273438,-0.014219 c 0.435049,-0.022623 0.736702,-0.2111487 0.91452,-0.5715509 0.07274,-0.14744 0.07768,-0.1912572 0.08758,-0.7771275 0.01135,-0.6718228 -0.01166,-0.8169056 -0.165437,-1.0432141 -0.06071,-0.089341 -0.06791,-0.1236828 -0.04316,-0.2059396 0.01634,-0.054295 0.02672,-0.3940313 0.02308,-0.7549688 -0.006,-0.590535 -6.31e-4,-0.6687672 0.05323,-0.78125 0.05337,-0.1114556 0.05985,-0.1994947 0.05986,-0.8125 1.2e-5,-0.6686769 -0.0021,-0.691778 -0.07737,-0.84375 C 14.953413,2.4176378 14.646272,2.2190337 14.242188,2.1942961 L 14,2.1794697 V 1.5897348 1 H 7 0 V 0.5 0 h 8 8 v 8 8 H 14 12 V 13.5 11 H 8.0001859 4.0003719 l -0.008,2.500095 -0.008,2.500095 z"
       id="path821"
       inkscape:connector-curvature="0" />
    <path
       style="fill:#323232;stroke-width:0.03125"
       d="M 5,13.5 V 12 H 6 7 V 13.5 15 H 6 5 Z M 1.5625,5.3743594 v -2.188141 l 0.7890625,0.018094 C 3.8199959,3.2379863 4.1721422,3.2858163 4.609375,3.5109784 5.2868031,3.8598347 5.65625,4.5264556 5.65625,5.3999337 5.65625,6.4710937 5.0410116,7.2282725 4,7.4382931 3.6870484,7.5014303 2.6998841,7.5575453 1.8359375,7.5613087 L 1.5625,7.5625 Z M 3.8181128,6.6036747 C 4.0977691,6.4719341 4.2906469,6.2879163 4.4146037,6.0345834 4.5143284,5.830775 4.515625,5.8223091 4.515625,5.375 4.515625,4.9488312 4.510645,4.911245 4.431873,4.7431853 4.3858097,4.6449062 4.2820925,4.4939053 4.20139,4.4076281 3.94735,4.1360387 3.6923197,4.0529269 3.0078125,4.0186528 L 2.6875,4.0026147 V 5.3640884 6.7255622 L 3.1484375,6.7137844 C 3.5883353,6.7025447 3.6189028,6.6975184 3.8181128,6.6036747 Z M 11.1875,5.375 V 3.1875 h 1.515625 1.515625 V 3.609375 4.03125 H 13.265625 12.3125 V 4.453125 4.875 h 0.890625 0.890625 V 5.296875 5.71875 H 13.203125 12.3125 v 0.5 0.5 h 0.984375 0.984375 V 7.140625 7.5625 H 12.734375 11.1875 Z M 6.0468825,7.4772984 C 6.0594687,7.4468156 6.421105,6.4782003 6.8505181,5.3248197 L 7.6312697,3.2277647 7.9328225,3.2077941 C 8.0986763,3.19681 8.3960938,3.1880125 8.59375,3.1882441 l 0.359375,4.218e-4 0.1676913,0.460355 c 0.151274,0.4152847 1.3733967,3.6943247 1.4268277,3.8282788 0.02074,0.051999 -0.01215,0.054895 -0.53242,0.046875 L 9.4606963,7.515625 9.3332778,7.1484375 9.2058594,6.78125 H 8.296875 7.3878906 L 7.2604722,7.1484375 7.1330537,7.515625 6.5785262,7.5241734 c -0.5205153,0.00802 -0.553124,0.00515 -0.5316437,-0.046875 z M 8.9007287,5.9278297 C 8.8597584,5.7619009 8.3236503,4.2189725 8.3069328,4.2188744 8.2952772,4.2188119 8.2584603,4.2925781 8.2251175,4.3828125 8.1229731,4.6592434 7.6875,5.92778 7.6875,5.9488969 c 0,0.010919 0.27525,0.019853 0.6116663,0.019853 0.4884543,0 0.6096312,-0.00824 0.6015624,-0.04092 z M 0,2 V 1 H 1 2 V 1.59375 2.1875 H 1.7042171 C 1.3721852,2.1875 1.1849305,2.23704 0.97745187,2.3797733 0.82338984,2.485759 0.67609278,2.6874057 0.61891881,2.8705978 L 0.57853259,3 H 0.28926629 0 Z"
       id="path819"
       inkscape:connector-curvature="0" />
  </g>
</svg>
