<?xml version="1.0" encoding="UTF-8" standalone="no"?>
<!-- Created with Inkscape (http://www.inkscape.org/) -->

<svg
   xmlns:dc="http://purl.org/dc/elements/1.1/"
   xmlns:cc="http://creativecommons.org/ns#"
   xmlns:rdf="http://www.w3.org/1999/02/22-rdf-syntax-ns#"
   xmlns:svg="http://www.w3.org/2000/svg"
   xmlns="http://www.w3.org/2000/svg"
   xmlns:sodipodi="http://sodipodi.sourceforge.net/DTD/sodipodi-0.dtd"
   xmlns:inkscape="http://www.inkscape.org/namespaces/inkscape"
   version="1.1"
   id="svg2"
   width="16"
   height="16"
   viewBox="0 0 16 16"
   sodipodi:docname="SAVE_OBJ.svg"
   inkscape:version="0.92.4 (5da689c313, 2019-01-14)">
  <metadata
     id="metadata8">
    <rdf:RDF>
      <cc:Work
         rdf:about="">
        <dc:format>image/svg+xml</dc:format>
        <dc:type
           rdf:resource="http://purl.org/dc/dcmitype/StillImage" />
        <dc:title></dc:title>
      </cc:Work>
    </rdf:RDF>
  </metadata>
  <defs
     id="defs6" />
  <sodipodi:namedview
     pagecolor="#ffffff"
     bordercolor="#666666"
     borderopacity="1"
     objecttolerance="10"
     gridtolerance="10"
     guidetolerance="10"
     inkscape:pageopacity="0"
     inkscape:pageshadow="2"
     inkscape:window-width="828"
     inkscape:window-height="480"
     id="namedview4"
     showgrid="false"
     inkscape:zoom="14.75"
     inkscape:cx="8"
     inkscape:cy="8"
     inkscape:window-x="0"
     inkscape:window-y="0"
     inkscape:window-maximized="0"
     inkscape:current-layer="svg2" />
  <g
     id="SAVE_OBJ">
    <path
       style="fill:#ffffff;stroke-width:0.03125"
       d="M 0,14.007905 V 12.01581 L 1.984375,14 C 3.0757813,15.091305 3.96875,15.987747 3.96875,15.992095 3.96875,15.996443 3.0757813,16 1.984375,16 H 0 Z"
       id="path829"
       inkscape:connector-curvature="0" />
    <path
       style="fill:#fefefe;stroke-width:0.03125"
       d="M 11.031418,9.6978753 C 10.602712,9.5478847 10.34375,9.1718666 10.34375,8.6993666 V 8.4946675 l -0.226562,0.018107 C 9.9925781,8.5227334 9.328125,8.53448 8.640625,8.5388781 l -1.25,0.008 -0.15625,-0.077379 C 7.0135272,8.3601256 6.8482406,8.1873894 6.7326356,7.9451422 6.7305387,7.9407516 6.6168644,8.0120997 6.4800222,8.1036931 6.2047803,8.2879231 5.8702547,8.4375541 5.5054822,8.5395984 5.2921409,8.59928 5.1861675,8.6067316 4.546875,8.6070009 3.8500831,8.6072822 3.8196278,8.6046728 3.5499878,8.5211769 2.4266358,8.1733231 1.7414277,7.4663297 1.4298827,6.333665 1.3666534,6.1037866 1.3595952,6.0075169 1.3595952,5.375 c 0,-0.6325169 0.00706,-0.7287866 0.070288,-0.958665 C 1.6412353,3.6479334 2.043394,3.0562981 2.625243,2.6577821 2.9409654,2.4415396 3.2110234,2.3203529 3.6156419,2.2133472 3.8627413,2.1479992 3.9587541,2.140625 4.5625,2.140625 c 0.6367206,0 0.6878719,0.00447 0.9776091,0.085475 0.376359,0.1052196 0.7109653,0.2573786 0.9808121,0.4460149 0.1128554,0.078892 0.2075163,0.1392365 0.2103579,0.1340998 0.00284,-0.00514 0.025794,-0.051356 0.051006,-0.1027089 C 6.8520071,2.561493 7.0600507,2.366835 7.2343751,2.2805047 L 7.390625,2.203125 8.625,2.2110028 c 0.6789063,0.00433 1.346875,0.022909 1.484375,0.04128 0.340033,0.045432 0.793197,0.2001544 1.02496,0.3499506 l 0.191657,0.1238734 0.04674,-0.073991 c 0.08318,-0.1316702 0.270693,-0.295358 0.427404,-0.3730981 0.15038,-0.074599 0.167105,-0.075893 0.981113,-0.075893 0.818304,0 0.829978,9.175e-4 0.984375,0.077379 0.199213,0.098656 0.386465,0.2859074 0.485121,0.4851206 l 0.07738,0.15625 -0.008,2.265625 c -0.0045,1.2794344 -0.0215,2.3652591 -0.03907,2.4945194 -0.108194,0.7959268 -0.648267,1.5222603 -1.341276,1.8038547 -0.544244,0.2211462 -1.559806,0.3339631 -1.908401,0.2120012 z m 0.702957,-0.9799797 c 0.353149,-0.032929 0.730338,-0.1193831 0.89711,-0.2056243 0.140153,-0.072476 0.352643,-0.2787297 0.457784,-0.444351 0.187043,-0.2946325 0.197427,-0.3743531 0.224577,-1.7241703 0.01365,-0.6789062 0.02597,-1.6667969 0.02737,-2.1953125 L 13.34375,3.1875 h -0.5625 -0.5625 v 2.126245 c 0,2.0285362 -0.0027,2.1315728 -0.05946,2.2421875 -0.110745,0.2159494 -0.323363,0.3499016 -0.556725,0.3507441 -0.266059,9.593e-4 -0.258816,-0.011374 -0.258816,0.4407181 0,0.2214328 0.01055,0.4025934 0.02344,0.402579 0.01289,-1.43e-5 0.178125,-0.014449 0.367187,-0.032078 z M 5.265625,7.5500241 C 5.9815987,7.3566338 6.4651,6.8843294 6.6924419,6.15625 6.7574697,5.9479934 6.765625,5.8609322 6.765625,5.375 6.765625,4.8890678 6.757465,4.8020066 6.692442,4.59375 6.4669606,3.8716291 6.0136053,3.4199219 5.3119897,3.2183166 5.0107269,3.1317506 4.4345669,3.1017748 4.1022756,3.1553791 3.2338703,3.2954678 2.6510782,3.8104972 2.4216152,4.640625 2.3410228,4.9321837 2.3238881,5.6171772 2.3891046,5.9403003 2.5712084,6.8425553 3.1292819,7.4033687 4.0335997,7.5928697 4.2452256,7.6372162 5.0459091,7.6093712 5.265625,7.5500241 Z M 4.1648306,6.7920597 C 4.0922062,6.7663441 3.9650647,6.6844162 3.8822938,6.6099981 3.6036147,6.3594416 3.4698353,5.9588744 3.4698353,5.375 c 0,-0.9578612 0.3793469,-1.46875 1.0905813,-1.46875 0.1152193,0 0.2803006,0.021029 0.3668475,0.04673 0.3110643,0.092376 0.5795018,0.4323953 0.6808678,0.8624281 0.061759,0.2620066 0.061759,0.8571766 0,1.1191832 C 5.5067659,6.3646244 5.2383284,6.7046434 4.9272641,6.7970197 4.7291047,6.8558669 4.3378403,6.8533212 4.1648306,6.7920597 Z M 4.6428772,5.5709216 c 0.025284,-0.2023691 -0.00203,-0.5141688 -0.05346,-0.6102669 l -0.036239,-0.067714 -0.030553,0.076967 c -0.03873,0.097566 -0.04662,0.59973 -0.012005,0.7640725 0.024084,0.1143441 0.029725,0.1198466 0.068501,0.066818 0.023241,-0.031783 0.051931,-0.1352278 0.063757,-0.2298765 z M 9.8306316,7.5157709 C 10.766508,7.4726125 11.257374,7.0189113 11.211196,6.2397313 11.201574,6.0773684 11.172295,5.9306631 11.130798,5.8368844 11.043243,5.6390213 10.834227,5.4183128 10.642293,5.3210525 l -0.15709,-0.079604 0.07771,-0.049232 c 0.04274,-0.027077 0.143131,-0.1131738 0.223088,-0.1913244 0.190275,-0.1859756 0.260503,-0.4086188 0.23701,-0.7513806 C 10.986694,3.7196388 10.747732,3.4524531 10.169919,3.2956572 9.9869213,3.2459988 8.9186134,3.1929591 8.0234375,3.1890878 L 7.65625,3.1875 v 2.1875566 2.1875562 l 0.9296875,-0.016158 c 0.5113281,-0.00889 1.0714406,-0.022695 1.2446941,-0.030684 z M 8.78125,6.234375 V 5.6357872 l 0.4296875,0.012911 c 0.6133722,0.01843 0.7523328,0.066802 0.8632235,0.3004872 0.0656,0.1382447 0.0656,0.4321347 0,0.5703794 C 9.9632703,6.7532497 9.8243097,6.8016216 9.2109375,6.8200519 L 8.78125,6.8329628 Z m 0,-1.8131247 V 3.9316397 l 0.4453125,0.010812 c 0.3739,0.00908 0.45935,0.020315 0.5328472,0.070071 0.1257041,0.085098 0.1782484,0.2084897 0.1769828,0.4156131 C 9.9351425,4.6326986 9.9002915,4.7126149 9.7665091,4.817688 9.6807711,4.885027 9.639395,4.891402 9.2274466,4.900743 L 8.78125,4.9108609 Z"
       id="path827"
       inkscape:connector-curvature="0" />
    <path
       style="fill:#cbcbcb;stroke-width:0.03125"
       d="M 4,13.5 V 11 h 4 4 V 13.5 16 H 8 4 Z m 3,0 V 12 H 6 5 v 1.5 1.5 h 1 1 z"
       id="path825"
       inkscape:connector-curvature="0" />
    <path
       style="fill:#32fe32;stroke-width:0.03125"
       d="M 2,8.7638438 V 7.5276875 l 0.1711875,0.1849028 c 0.3201009,0.3457472 0.8078646,0.6317925 1.3788003,0.8085866 0.26964,0.083496 0.3000953,0.086118 0.9968872,0.085824 C 5.1861675,8.6067197 5.2921409,8.59928 5.5054822,8.5395984 5.8702547,8.4375541 6.2047803,8.2879231 6.4800222,8.1036931 6.6168644,8.0120997 6.7305403,7.9407516 6.7326356,7.9451422 6.8482406,8.1873894 7.0135272,8.3601256 7.234375,8.4694956 l 0.15625,0.077379 1.25,-0.008 c 0.6875,-0.0044 1.3501356,-0.015974 1.472524,-0.025725 l 0.222523,-0.017729 0.01464,0.2601003 c 0.03166,0.5626512 0.394776,0.9475281 0.930943,0.9867265 0.463247,0.033867 1.239618,-0.086142 1.658569,-0.2563771 0.347704,-0.1412844 0.775236,-0.4993838 0.9625,-0.8061866 C 13.94166,8.6152344 13.979732,8.5625 13.986924,8.5625 13.994116,8.5625 14,8.8859375 14,9.28125 V 10 H 8 2 Z M 4.51062,5.7339803 C 4.4760053,5.5696378 4.4838953,5.0674737 4.522625,4.9699078 l 0.030553,-0.076967 0.036239,0.067714 C 4.676653,5.123657 4.669875,5.6766835 4.57912,5.8007982 4.540344,5.8538272 4.534703,5.8483242 4.510619,5.7339802 Z M 2,2.1147004 V 1 h 6 6 v 0.703125 c 0,0.3867188 -0.0084,0.703125 -0.01861,0.703125 -0.01024,0 -0.05623,-0.026783 -0.102199,-0.059518 -0.202478,-0.1441772 -0.352475,-0.1639621 -1.163525,-0.1534708 -0.734496,0.0095 -0.768164,0.012655 -0.915526,0.085757 -0.156711,0.07774 -0.344225,0.2414279 -0.427404,0.3730981 L 11.325992,2.726107 11.134335,2.6022336 C 10.902572,2.4524374 10.449408,2.2977145 10.109375,2.252283 9.971875,2.2339117 9.3039063,2.2153357 8.625,2.2110028 l -1.234375,-0.00788 -0.15625,0.077379 C 7.0600506,2.3668318 6.8520066,2.5614901 6.782285,2.7035029 6.757073,2.7548559 6.73412,2.8010749 6.731279,2.8062118 6.728439,2.8113518 6.633776,2.7510038 6.5209211,2.672112 6.2510744,2.4834783 5.9164681,2.3313193 5.5401091,2.2260997 5.2503719,2.1450973 5.1992206,2.140625 4.5625,2.140625 3.8257584,2.140625 3.6065834,2.176411 3.1236588,2.3755531 2.8286861,2.49719 2.3777353,2.8119898 2.1706425,3.0408347 L 2,3.2294009 Z"
       id="path823"
       inkscape:connector-curvature="0" />
    <path
       style="fill:#0065cb;stroke-width:0.03125"
       d="M 1.9921875,14.007817 0,12.015443 V 7.5077216 3 H 1 2 V 3.1153761 C 2,3.2010994 1.9601847,3.2914544 1.8450822,3.4669388 1.6691758,3.7351241 1.5293741,4.0554625 1.4286631,4.4211119 1.3668823,4.6454175 1.3595952,4.7460597 1.3595952,5.375 c 0,0.6289403 0.00729,0.7295825 0.069068,0.9538881 0.100711,0.3656494 0.2405127,0.6859878 0.4164191,0.9541731 L 2,7.5192478 V 8.7596237 10 h 6 6 V 9.2764528 C 14,8.57347 14.0022,8.5483059 14.07657,8.3910591 14.11868,8.3020431 14.183602,8.124905 14.22084,7.9974188 14.28284,7.7851703 14.29066,7.6615403 14.31361,6.53125 14.3274,5.8523437 14.33982,4.7887244 14.34122,4.1676509 14.34412,2.896152 14.33792,2.8514788 14.121386,2.5653504 L 14,2.4049821 V 1.7024911 1 H 7 0 V 0.5 0 h 8 8 v 8 8 H 14 12 V 13.5 11 H 8.0001859 4.0003719 l -0.008,2.500095 -0.008,2.500095 z"
       id="path821"
       inkscape:connector-curvature="0" />
    <path
       style="fill:#323232;stroke-width:0.03125"
       d="M 5,13.5 V 12 H 6 7 V 13.5 15 H 6 5 Z m 6.34375,-5.1526053 c 0,-0.4520919 -0.0072,-0.4397575 0.258816,-0.4407181 0.233362,-8.438e-4 0.44598,-0.1347947 0.556725,-0.3507441 0.05673,-0.1106147 0.05946,-0.2136513 0.05946,-2.2421875 V 3.1875 h 0.5625 0.5625 l -0.0025,0.9609375 c -0.0014,0.5285156 -0.01371,1.5164062 -0.02737,2.1953125 -0.02715,1.3498172 -0.03753,1.4295378 -0.224576,1.7241703 -0.105142,0.1656213 -0.317631,0.3718753 -0.457784,0.444351 -0.166772,0.086241 -0.543961,0.1726956 -0.89711,0.2056243 -0.189063,0.017629 -0.354297,0.032064 -0.367188,0.032078 -0.01289,1.44e-5 -0.02344,-0.1811462 -0.02344,-0.402579 z M 4.0335997,7.5928697 C 3.1292819,7.4033687 2.5712084,6.8425553 2.3891046,5.9403003 2.3238881,5.6171772 2.3410228,4.9321837 2.4216152,4.640625 2.705798,3.6125375 3.5187559,3.0774427 4.7109481,3.1337694 5.7418725,3.1824766 6.40414,3.6704406 6.6924419,4.59375 6.7574697,4.8020066 6.765625,4.8890678 6.765625,5.375 c 0,0.4859322 -0.00816,0.5729934 -0.073183,0.78125 C 6.5121962,6.7335003 6.1845034,7.1412603 5.7168075,7.3702672 5.5717822,7.4412784 5.36875,7.5221691 5.265625,7.5500241 5.0459091,7.6093712 4.2452256,7.6372162 4.0335997,7.5928697 Z m 0.8936644,-0.79585 c 0.3110643,-0.092376 0.5795018,-0.4323953 0.6808678,-0.8624281 0.061759,-0.2620066 0.061759,-0.8571766 0,-1.1191832 C 5.5067659,4.3853756 5.2383284,4.0453566 4.9272641,3.9529803 4.8407172,3.9272788 4.6756359,3.90625 4.5604166,3.90625 c -0.7112344,0 -1.0905813,0.5108888 -1.0905813,1.46875 0,0.5838744 0.1337794,0.9844416 0.4124585,1.2349981 0.082771,0.074418 0.2099124,0.156346 0.2825368,0.1820616 0.1730097,0.061262 0.5642741,0.063807 0.7624335,0.00496 z M 7.65625,5.3750566 V 3.1875 l 0.3671875,0.00159 c 0.8951759,0.00387 1.9634838,0.056911 2.1464815,0.1065694 0.577813,0.1567959 0.816775,0.4239815 0.853093,0.9538543 0.02349,0.3427619 -0.04673,0.565405 -0.23701,0.7513807 -0.07996,0.078151 -0.180347,0.1642468 -0.223088,0.1913243 l -0.07771,0.049232 0.15709,0.079604 c 0.191934,0.09726 0.40095,0.3179687 0.488505,0.5158319 0.0415,0.093779 0.07078,0.240484 0.0804,0.4028468 0.04618,0.77918 -0.444688,1.2328813 -1.3805644,1.2760397 -0.1732535,0.00799 -0.733366,0.021797 -1.2446941,0.030684 L 7.65625,7.5626125 V 5.3750562 Z M 9.7537328,6.7784644 C 9.9967863,6.7168428 10.125,6.5289462 10.125,6.234375 10.125,5.9398037 9.9967863,5.7519072 9.7537328,5.6902856 9.6915234,5.6745134 9.4472656,5.6557991 9.2109375,5.6486981 L 8.78125,5.6357872 V 6.234375 6.8329628 l 0.4296875,-0.012911 c 0.2363281,-0.0071 0.4805859,-0.025815 0.5427953,-0.041587 z M 9.7665091,4.8176878 C 9.9002913,4.7126147 9.9351428,4.6326984 9.9363925,4.4281356 9.9376581,4.2210122 9.8851138,4.0976206 9.7594097,4.0125225 9.6859125,3.9627669 9.6004625,3.95153 9.2265625,3.9424519 L 8.78125,3.9316397 V 4.4212503 4.9108609 L 9.2274466,4.9007428 C 9.639395,4.8914016 9.6807713,4.8850266 9.7665091,4.8176878 Z M 0,2 V 1 H 1 2 V 2 3 H 1 0 Z"
       id="path819"
       inkscape:connector-curvature="0" />
  </g>
</svg>
