<?xml version="1.0" encoding="UTF-8" standalone="no"?>
<!-- Created with Inkscape (http://www.inkscape.org/) -->

<svg
   xmlns:dc="http://purl.org/dc/elements/1.1/"
   xmlns:cc="http://creativecommons.org/ns#"
   xmlns:rdf="http://www.w3.org/1999/02/22-rdf-syntax-ns#"
   xmlns:svg="http://www.w3.org/2000/svg"
   xmlns="http://www.w3.org/2000/svg"
   xmlns:sodipodi="http://sodipodi.sourceforge.net/DTD/sodipodi-0.dtd"
   xmlns:inkscape="http://www.inkscape.org/namespaces/inkscape"
   version="1.1"
   id="svg2"
   width="16"
   height="16"
   viewBox="0 0 16 16"
   sodipodi:docname="SAVE_3DS.svg"
   inkscape:version="0.92.4 (5da689c313, 2019-01-14)">
  <metadata
     id="metadata8">
    <rdf:RDF>
      <cc:Work
         rdf:about="">
        <dc:format>image/svg+xml</dc:format>
        <dc:type
           rdf:resource="http://purl.org/dc/dcmitype/StillImage" />
        <dc:title></dc:title>
      </cc:Work>
    </rdf:RDF>
  </metadata>
  <defs
     id="defs6" />
  <sodipodi:namedview
     pagecolor="#ffffff"
     bordercolor="#666666"
     borderopacity="1"
     objecttolerance="10"
     gridtolerance="10"
     guidetolerance="10"
     inkscape:pageopacity="0"
     inkscape:pageshadow="2"
     inkscape:window-width="828"
     inkscape:window-height="480"
     id="namedview4"
     showgrid="false"
     inkscape:zoom="14.75"
     inkscape:cx="8"
     inkscape:cy="8"
     inkscape:window-x="0"
     inkscape:window-y="0"
     inkscape:window-maximized="0"
     inkscape:current-layer="svg2" />
  <g
     id="SAVE_3DS">
    <path
       style="fill:#ffffff;stroke-width:0.03125"
       d="M 0,14.007905 V 12.01581 L 1.984375,14 C 3.0757813,15.091305 3.96875,15.987747 3.96875,15.992095 3.96875,15.996443 3.0757813,16 1.984375,16 H 0 Z"
       id="path829"
       inkscape:connector-curvature="0" />
    <path
       style="fill:#fefefe;stroke-width:0.03125"
       d="M 2.140625,8.6115972 C 1.7853456,8.5432012 1.4088367,8.4390328 1.2539686,8.3662863 1.0680583,8.2789584 0.87851553,8.0885359 0.78050441,7.890625 0.70493706,7.7380341 0.703125,7.7175434 0.703125,7.015625 c 0,-0.7019184 0.001812,-0.7224091 0.0773794,-0.875 C 0.88244794,5.9347734 1.0743696,5.7467234 1.2751046,5.6560025 L 1.4375,5.5826091 V 5.3084306 5.0342525 L 1.2977644,4.9381119 C 1.1302286,4.8228444 0.99259881,4.6315322 0.92205544,4.4158581 0.87912709,4.2846122 0.87202253,4.1506916 0.88071031,3.6365025 0.89060919,3.0506323 0.89554738,3.0068151 0.96829225,2.859375 1.0652817,2.6627958 1.2551343,2.4712404 1.4382048,2.3852478 1.5159362,2.3487355 1.76203,2.2717273 1.9850798,2.2141184 L 2.390625,2.109375 h 0.78125 c 0.667435,0 0.8153197,0.00872 1.0151106,0.059842 0.321191,0.082189 0.5746003,0.1880407 0.8024813,0.3352046 L 5.1820591,2.6287962 5.3175919,2.49334 C 5.3921353,2.4188391 5.5234375,2.3230631 5.609375,2.2805044 l 0.15625,-0.077379 1.125,-0.00958 c 1.4850656,-0.012643 1.8758459,0.032332 2.4744259,0.2847806 0.2258697,0.09526 0.5848016,0.3179355 0.8042761,0.4989596 l 0.0912,0.075224 0.198698,-0.2106305 c 0.335019,-0.355135 0.706275,-0.5594528 1.253689,-0.6899561 0.246101,-0.05867 0.338607,-0.063262 0.990211,-0.049152 0.617577,0.013373 0.772494,0.027034 1.10056,0.097052 0.647683,0.1382322 0.858665,0.2396472 1.036605,0.4982737 0.176403,0.2563934 0.196589,0.3782069 0.185287,1.1181471 -0.0096,0.6258619 -0.01481,0.6774166 -0.08305,0.8148938 l -0.07284,0.1467622 0.09852,0.1431887 c 0.258019,0.3750191 0.344438,0.7062344 0.343829,1.3177975 -5.53e-4,0.5567422 -0.04166,0.7594635 -0.234666,1.1573844 -0.306012,0.6308956 -0.893613,1.0511087 -1.697614,1.21402 -0.212369,0.043032 -0.386543,0.050166 -0.952634,0.039019 C 11.811142,8.6371804 11.693089,8.6261134 11.36183,8.5494404 10.64771,8.3841503 10.271068,8.2134156 10.115492,7.984465 L 10.043085,7.8779078 9.8106047,8.0325328 C 9.5183675,8.2269037 9.1294531,8.3836481 8.71351,8.4746959 8.4070891,8.54177 8.3236997,8.5454122 7.078125,8.5461244 l -1.3125,7.5e-4 -0.15625,-0.076988 C 5.5234375,8.4275431 5.3864809,8.3248094 5.3050269,8.2415894 L 5.1569284,8.09028 5.0140094,8.1886109 C 4.8128241,8.32703 4.513515,8.4572287 4.1781137,8.5522228 3.9100931,8.6281334 3.8387787,8.6343266 3.125,8.6436781 2.5749774,8.6508841 2.2977743,8.64185 2.140625,8.6115966 Z M 3.9324575,7.5652225 C 4.4824087,7.4046084 4.7788312,7.1521053 4.9205328,6.7235459 4.9963119,6.4943606 4.977475,6.014975 4.8845837,5.808675 4.7875937,5.5932716 4.6136891,5.4205484 4.3721269,5.2996997 l -0.2154797,-0.1078 0.163864,-0.07533 C 4.5550409,5.0087541 4.6705216,4.899215 4.7794366,4.6812566 4.8625956,4.5148406 4.875,4.4569091 4.875,4.2349506 4.875,4.0836472 4.8547609,3.920485 4.8252491,3.8338731 4.7539256,3.62455 4.5343222,3.3942587 4.3021291,3.2852934 3.9799284,3.1340888 3.8206106,3.1093419 3.171875,3.1097322 2.6196116,3.1100643 2.5535606,3.1164036 2.2265625,3.2004591 L 1.875,3.2908284 v 0.4204294 c 0,0.3877341 0.00425,0.4187635 0.054687,0.3990116 C 2.4948526,3.8889328 3.1645125,3.8267078 3.4420775,3.9697375 3.8218313,4.1654253 3.837005,4.6376928 3.4696422,4.8276634 3.3506847,4.8891787 3.017979,4.9361062 2.6953125,4.9368809 L 2.4375,4.9375 v 0.3545478 0.3545478 l 0.3984375,0.019316 c 0.5706256,0.027663 0.8183234,0.1187344 0.9346234,0.3436335 0.065301,0.1262794 0.065301,0.3858812 0,0.5121606 C 3.5524484,6.9434881 2.6516108,6.9690462 1.7421875,6.5792531 1.6915389,6.5575444 1.6875,6.5893237 1.6875,7.0095556 v 0.4537425 l 0.3359375,0.079147 c 0.467089,0.1100466 0.4565915,0.1091041 1.1015625,0.0989 0.4802528,-0.0076 0.6169494,-0.020485 0.8074575,-0.076123 z m 9.4852395,-0.013835 c 0.412723,-0.1420988 0.611216,-0.3112547 0.773991,-0.6595966 0.09116,-0.1950787 0.10305,-0.2535287 0.114976,-0.5650997 0.0098,-0.257059 4.56e-4,-0.3915772 -0.03605,-0.5167906 C 14.117331,5.2841287 13.774112,5.0692362 12.725267,4.8423419 12.213874,4.7317134 12.107788,4.6933644 12.002604,4.5811081 c -0.0918,-0.097979 -0.103292,-0.3150472 -0.02314,-0.437369 0.192543,-0.2938572 1.046793,-0.2943069 1.82614,-9.625e-4 0.111012,0.041786 0.207197,0.075973 0.213745,0.075973 0.0065,0 0.0119,-0.2091044 0.0119,-0.4646766 V 3.2893972 L 13.710938,3.2228394 C 13.217646,3.1203383 12.987871,3.0950406 12.544061,3.094369 11.71565,3.093119 11.224068,3.3354537 10.974377,3.8681853 c -0.07686,0.1639828 -0.08375,0.2108856 -0.08375,0.5698675 0,0.3791794 0.0032,0.3975903 0.102875,0.6002506 0.192275,0.3907616 0.466026,0.5504553 1.302008,0.7595319 0.307806,0.076981 0.608908,0.1645075 0.669115,0.1945028 0.158322,0.078875 0.233294,0.1968278 0.233294,0.3670369 0,0.35958 -0.36243,0.5212078 -1.008508,0.44975 C 11.858429,6.7725178 11.503045,6.6700959 11.159662,6.5123509 11.032632,6.4539953 10.923647,6.40625 10.917474,6.40625 c -0.0062,0 -0.01122,0.2157522 -0.01122,0.4794494 v 0.479449 l 0.273438,0.082982 c 0.248033,0.075272 0.590004,0.1523428 0.835937,0.1883981 0.05156,0.00756 0.332812,0.010538 0.625,0.00662 0.485798,-0.00652 0.552282,-0.014366 0.777072,-0.09176 z M 8.5225016,7.4755313 C 9.3625431,7.2888791 9.9309641,6.734045 10.109699,5.9262719 10.152482,5.7329209 10.16064,5.5899787 10.148044,5.2543969 10.126459,4.6793363 10.037076,4.4093019 9.7355344,4.0081622 9.4655722,3.6490334 9.0244925,3.3835972 8.5,3.2646334 8.3116997,3.2219238 8.0460016,3.2084822 7.1484375,3.1962575 L 6.03125,3.1810419 v 2.1937343 2.1937347 l 1.1015625,-0.01448 C 8.0937437,7.5414 8.2711587,7.5313781 8.5225016,7.4755313 Z M 7.15625,5.3790153 V 4.03125 l 0.1484375,8.062e-4 c 0.3094853,0.00168 0.7554303,0.06168 0.9221966,0.1240751 C 8.7258709,4.3428259 8.96875,4.7435128 8.96875,5.3800156 8.96875,5.9078584 8.7954034,6.269085 8.4375,6.4870572 8.2109588,6.6250263 7.9967703,6.6766141 7.5363875,6.7040922 L 7.15625,6.7267806 Z"
       id="path827"
       inkscape:connector-curvature="0" />
    <path
       style="fill:#fe98cb;stroke-width:0.03125"
       d="M 2,9.2957988 V 8.5915972 l 0.1640625,0.024514 c 0.090234,0.013483 0.5085938,0.024248 0.9296875,0.023923 0.7341544,-5.657e-4 0.7780547,-0.00404 1.0680153,-0.084585 0.346995,-0.096384 0.6465766,-0.2253353 0.8522441,-0.3668381 l 0.142919,-0.09833 0.1480985,0.1513094 c 0.081454,0.08322 0.2184106,0.1859538 0.3043481,0.2282972 l 0.15625,0.076988 1.3125,-7.5e-4 C 8.3236997,8.5454125 8.4070891,8.5417706 8.71351,8.4746966 9.1294531,8.3836488 9.5183675,8.2269044 9.8106047,8.0325334 l 0.2324803,-0.154625 0.07241,0.1065572 c 0.154955,0.2280372 0.525059,0.3963428 1.24634,0.566776 0.358568,0.084727 0.403022,0.08803 1.185043,0.088041 0.883317,1.28e-5 0.769615,0.015551 1.398438,-0.1910997 C 13.996421,8.4313872 14,8.4815741 14,9.2151059 V 10 H 8 2 Z M 10.169327,2.9772874 C 9.9498525,2.7962633 9.5909206,2.5735875 9.3650509,2.4783278 8.7664709,2.2258787 8.3756906,2.180904 6.890625,2.1935472 l -1.125,0.00958 -0.15625,0.077379 C 5.5234375,2.3230631 5.3921353,2.4188391 5.3175919,2.49334 L 5.1820591,2.6287962 4.9894669,2.5044218 C 4.7615859,2.3572579 4.5081766,2.2514063 4.1869856,2.1692172 3.9868128,2.1179953 3.8405856,2.109458 3.171875,2.1099512 2.560011,2.1104024 2.3482785,2.1213524 2.1953125,2.1604552 L 2,2.210383 V 1.6051915 1 h 6 6 v 0.6199563 0.6199563 l -0.289062,-0.060174 c -0.216156,-0.044997 -0.470346,-0.064255 -1.007813,-0.076353 -0.652791,-0.014694 -0.743662,-0.01024 -0.990211,0.048537 -0.547414,0.1305033 -0.91867,0.3348211 -1.253688,0.6899578 l -0.198698,0.2106305 z"
       id="path825"
       inkscape:connector-curvature="0" />
    <path
       style="fill:#cbcbcb;stroke-width:0.03125"
       d="M 4,13.5 V 11 h 4 4 V 13.5 16 H 8 4 Z m 3,0 V 12 H 6 5 v 1.5 1.5 h 1 1 z"
       id="path823"
       inkscape:connector-curvature="0" />
    <path
       style="fill:#0065cb;stroke-width:0.03125"
       d="M 1.9921875,14.007817 0,12.015443 V 7.5077216 3 l 0.4453125,-3.13e-5 0.4453125,-3.12e-5 -0.0102025,0.628722 c -0.008453,0.5209231 -0.001315,0.6558937 0.041633,0.7871997 0.0705434,0.215674 0.2081732,0.4069862 0.375709,0.5222537 L 1.4375,5.0342535 v 0.2741782 0.2741784 l -0.1623954,0.073393 c -0.200735,0.09072 -0.39265666,0.2787699 -0.49460019,0.4846215 -0.0755674,0.1525909 -0.0773794,0.1730816 -0.0773794,0.875 0,0.7019184 0.001812,0.7224091 0.0773794,0.875 0.0937355,0.1892775 0.28464949,0.3861512 0.45387059,0.4680391 0.06875,0.033269 0.265625,0.097532 0.4375,0.1428072 l 0.3125,0.082319 0.0084,0.708105 L 2.0011734,10 H 8.0005866 14 V 9.2052309 8.4104619 l 0.07031,-0.022202 c 0.138592,-0.043762 0.513477,-0.3222734 0.689049,-0.5119125 0.206153,-0.2226697 0.430886,-0.6546428 0.504691,-0.9700975 0.06544,-0.2797169 0.06548,-1.0658672 6.2e-5,-1.3183219 -0.06207,-0.2395515 -0.17134,-0.4857872 -0.295907,-0.66684 l -0.09852,-0.1431887 0.07297,-0.1467622 C 15.01288,4.4898953 15.015625,4.4567516 15.015625,3.75 c 0,-0.7185449 -0.0017,-0.7377431 -0.07738,-0.890625 C 14.790487,2.5610115 14.533539,2.369528 14.164063,2.2824378 L 14,2.2437662 V 1.6218831 1 H 7 0 V 0.5 0 h 8 8 v 8 8 H 14 12 V 13.5 11 H 8.0001859 4.0003719 l -0.008,2.500095 -0.008,2.500095 z"
       id="path821"
       inkscape:connector-curvature="0" />
    <path
       style="fill:#323232;stroke-width:0.03125"
       d="M 5,13.5 V 12 H 6 7 V 13.5 15 H 6 5 Z M 2.453125,7.6360419 C 2.4015625,7.6280944 2.2082031,7.5859759 2.0234375,7.542445 L 1.6875,7.4632981 V 7.0095556 c 0,-0.4202319 0.00404,-0.4520112 0.054687,-0.4303025 0.9094233,0.3897931 1.8102609,0.364235 2.0283734,-0.057548 0.065301,-0.1262794 0.065301,-0.3858812 0,-0.5121606 C 3.6542609,5.7846456 3.4065631,5.6935744 2.8359375,5.6659112 L 2.4375,5.6465956 V 5.2920478 4.9375 L 2.6953125,4.9368812 C 3.017979,4.9361062 3.3506847,4.8891791 3.4696422,4.8276637 3.837005,4.6376931 3.8218312,4.1654256 3.4420775,3.9697378 3.1645125,3.8267078 2.4948526,3.8889328 1.9296875,4.1102694 1.8792528,4.1300213 1.875,4.0989919 1.875,3.7112578 V 3.2908284 L 2.2265625,3.2004591 C 2.5535606,3.1164036 2.6196116,3.1100643 3.171875,3.1097322 3.8206106,3.1093418 3.9799284,3.1340888 4.3021291,3.2852934 4.5343222,3.3942588 4.7539256,3.62455 4.8252491,3.8338731 4.8547609,3.920485 4.875,4.0836472 4.875,4.2349506 c 0,0.2219585 -0.012404,0.27989 -0.095563,0.446306 C 4.6705216,4.899215 4.5550409,5.0087541 4.3205112,5.1165697 l -0.163864,0.07533 0.2154797,0.1078 C 4.6136891,5.4205484 4.7875937,5.5932716 4.8845837,5.808675 4.977475,6.014975 4.9963119,6.4943606 4.9205328,6.7235459 4.7788312,7.1521053 4.4824087,7.4046084 3.9324575,7.5652225 3.7419494,7.6208606 3.6052528,7.6337478 3.125,7.6413453 c -0.3179688,0.00503 -0.6203125,0.00264 -0.671875,-0.0053 z m 9.5625,4.875e-4 C 11.769692,7.6004741 11.427721,7.5234031 11.179688,7.4481313 L 10.90625,7.3651497 V 6.8857006 c 0,-0.2636984 0.0051,-0.4794506 0.01122,-0.4794506 0.0062,0 0.115158,0.047745 0.242188,0.1061009 0.343383,0.157745 0.698767,0.2601669 1.029747,0.2967741 0.646078,0.071458 1.008508,-0.09017 1.008508,-0.44975 0,-0.1702091 -0.07497,-0.2881616 -0.233294,-0.3670369 C 12.904416,5.9623428 12.603314,5.8748166 12.295508,5.7978353 11.459526,5.5887587 11.185775,5.429065 10.9935,5.0383034 10.89378,4.8356431 10.890625,4.8172322 10.890625,4.4380528 c 0,-0.3589819 0.0069,-0.4058847 0.08375,-0.5698675 0.249691,-0.5327316 0.741273,-0.7750699 1.569684,-0.7738163 0.44381,6.716e-4 0.673585,0.025969 1.166877,0.1284704 l 0.320312,0.066558 v 0.4646762 c 0,0.2555722 -0.0054,0.4646766 -0.0119,0.4646766 -0.0065,0 -0.102733,-0.034187 -0.213745,-0.075972 C 13.191031,3.9114538 12.43689,3.854342 12.125205,4.0155201 11.919941,4.1216667 11.854592,4.423141 12.002606,4.5811085 c 0.105183,0.1122563 0.21127,0.1506053 0.722663,0.2612338 1.048845,0.2268943 1.392064,0.4417868 1.545348,0.9675584 0.03651,0.1252134 0.04589,0.2597316 0.03605,0.5167906 -0.01193,0.311571 -0.02382,0.370021 -0.114976,0.5650997 -0.162775,0.3483419 -0.361268,0.5174978 -0.773991,0.6595966 -0.22479,0.077394 -0.291274,0.085245 -0.777072,0.09176 -0.292188,0.00392 -0.573438,9.406e-4 -0.625,-0.00662 z M 6.03125,5.3747762 V 3.1810419 l 1.1171875,0.015216 C 8.0460016,3.2084822 8.3116997,3.2219238 8.5,3.2646334 c 0.5244925,0.1189638 0.9655722,0.3844 1.2355344,0.7435288 0.3015416,0.4011397 0.3909246,0.6711741 0.4125096,1.2462347 0.0126,0.3355818 0.0044,0.478524 -0.03834,0.671875 C 9.9309641,6.734045 9.3625431,7.2888791 8.5225016,7.4755313 8.2711588,7.5313781 8.0937438,7.5414 7.1328125,7.5540313 L 6.03125,7.5685109 Z M 8.091075,6.6365684 C 8.6600547,6.4904194 8.96875,6.0484656 8.96875,5.3800156 8.96875,4.7435128 8.7258709,4.3428259 8.2268841,4.1561313 8.0601178,4.0937359 7.6141728,4.0337372 7.3046875,4.0320562 L 7.15625,4.03125 V 5.3790153 6.7267806 L 7.5363875,6.7040922 C 7.7454628,6.6916134 7.9950722,6.6612278 8.091075,6.6365684 Z M 0,2 V 1 H 1 2 V 1.6047368 2.2094737 L 1.7890625,2.2656022 C 1.3580767,2.3802834 1.1146682,2.5556297 0.97565681,2.8515625 L 0.90592981,3 H 0.45296491 0 Z"
       id="path819"
       inkscape:connector-curvature="0" />
  </g>
</svg>
