<?xml version="1.0" encoding="UTF-8" standalone="no"?>
<!-- Created with Inkscape (http://www.inkscape.org/) -->

<svg
   xmlns:dc="http://purl.org/dc/elements/1.1/"
   xmlns:cc="http://creativecommons.org/ns#"
   xmlns:rdf="http://www.w3.org/1999/02/22-rdf-syntax-ns#"
   xmlns:svg="http://www.w3.org/2000/svg"
   xmlns="http://www.w3.org/2000/svg"
   xmlns:sodipodi="http://sodipodi.sourceforge.net/DTD/sodipodi-0.dtd"
   xmlns:inkscape="http://www.inkscape.org/namespaces/inkscape"
   version="1.1"
   id="svg2"
   width="16"
   height="16"
   viewBox="0 0 16 16"
   sodipodi:docname="SAVE_WRL.svg"
   inkscape:version="0.92.4 (5da689c313, 2019-01-14)">
  <metadata
     id="metadata8">
    <rdf:RDF>
      <cc:Work
         rdf:about="">
        <dc:format>image/svg+xml</dc:format>
        <dc:type
           rdf:resource="http://purl.org/dc/dcmitype/StillImage" />
        <dc:title></dc:title>
      </cc:Work>
    </rdf:RDF>
  </metadata>
  <defs
     id="defs6" />
  <sodipodi:namedview
     pagecolor="#ffffff"
     bordercolor="#666666"
     borderopacity="1"
     objecttolerance="10"
     gridtolerance="10"
     guidetolerance="10"
     inkscape:pageopacity="0"
     inkscape:pageshadow="2"
     inkscape:window-width="828"
     inkscape:window-height="481"
     id="namedview4"
     showgrid="false"
     inkscape:zoom="14.75"
     inkscape:cx="8"
     inkscape:cy="8"
     inkscape:window-x="0"
     inkscape:window-y="-1"
     inkscape:window-maximized="0"
     inkscape:current-layer="svg2" />
  <g
     id="SAVE_WRL">
    <path
       style="fill:#ffffff;stroke-width:0.03125"
       d="M 0,14.007905 V 12.01581 L 1.984375,14 C 3.0757813,15.091305 3.96875,15.987747 3.96875,15.992095 3.96875,15.996443 3.0757813,16 1.984375,16 H 0 Z"
       id="path827"
       inkscape:connector-curvature="0" />
    <path
       style="fill:#fefefe;stroke-width:0.03125"
       d="m 2,9.2696403 v -0.73036 L 1.7578125,8.5244538 C 1.3584822,8.5000072 1.0394841,8.2963997 0.88489522,7.967295 0.848189,7.8891512 0.63407141,7.0417634 0.40907831,6.0842112 L 0,4.3432072 V 3.4395038 2.5358003 L 0.11622803,2.4399953 C 0.18015345,2.3873026 0.29616907,2.3124506 0.37404053,2.2736577 0.51108456,2.2053869 0.539426,2.2034578 1.2578125,2.2135029 L 2,2.2238809 V 1.6119404 1 h 6 6 l 3.88e-4,0.6640625 3.87e-4,0.6640625 0.106613,0.069043 C 14.2391,2.4824648 14.382073,2.6860318 14.449242,2.8839046 14.492973,3.0127339 14.5,3.2189822 14.5,4.3737466 v 1.3403121 l 0.617188,0.010403 c 0.541743,0.00913 0.632467,0.018043 0.742187,0.072904 l 0.125,0.062501 V 7.140625 8.4213831 l -0.125,0.062746 c -0.114566,0.057508 -0.197389,0.063549 -0.992187,0.072369 L 14,8.5661209 V 9.2830606 10 H 8 2 Z M 3.3009463,6.578125 C 3.7143556,4.8331688 3.8523916,4.28125 3.8753991,4.28125 c 0.021275,0 0.2501875,0.9107147 0.6362415,2.53125 l 0.1675031,0.703125 0.6213657,0.017272 c 0.3417509,0.0095 0.6302981,0.0095 0.6412156,0 C 5.952642,7.523397 6.1821219,6.573437 6.4516794,5.4218745 6.7212369,4.2703125 6.9487987,3.3035156 6.9573728,3.2734375 6.9717709,3.2229275 6.9334131,3.21875 6.4552309,3.21875 6.1704787,3.21875 5.9375,3.23034 5.9375,3.244507 c 0,0.026989 -0.6555644,2.7395903 -0.7192038,2.9759287 -0.026044,0.096721 -0.043989,0.1230478 -0.061841,0.090726 C 5.1426234,6.2861162 4.974485,5.6046875 4.7828147,4.796875 4.5911444,3.9890625 4.4270591,3.3035156 4.4181806,3.2734375 4.4036341,3.2241563 4.3499775,3.21875 3.8753991,3.21875 H 3.3487597 L 3.299595,3.4349097 C 3.1453163,4.1132222 2.6196461,6.2970206 2.6077926,6.3088741 c -0.00772,0.00772 -0.021461,0.00662 -0.030528,-0.00244 C 2.5592778,6.2884444 2.2845202,5.188945 2.0321396,4.125 1.9444823,3.7554688 1.8590575,3.4018609 1.8423067,3.3392047 L 1.8118506,3.2252844 1.3043628,3.2124766 c -0.2791183,-0.00704 -0.51181277,-0.010049 -0.51709883,-0.00668 -0.005286,0.00337 0.21865963,0.9774662 0.49765713,2.164654 l 0.5072681,2.1585229 0.2679679,0.010785 c 0.1473824,0.00593 0.4352122,0.00996 0.639622,0.00895 l 0.3716541,-0.00184 0.2295131,-0.96875 z M 8.875,6.734375 V 5.90625 h 0.2792156 c 0.1535688,0 0.3188032,0.014925 0.3671875,0.033167 0.2120191,0.079934 0.443521,0.4258396 0.8091539,1.2090209 L 10.509275,7.53125 h 0.573488 c 0.315418,0 0.573487,-0.00688 0.573487,-0.015298 0,-0.042727 -0.459454,-0.9693266 -0.627191,-1.26488 -0.242901,-0.4279966 -0.34076,-0.5462791 -0.532221,-0.6432994 -0.0842,-0.042667 -0.153036,-0.087886 -0.152972,-0.1004869 6.2e-5,-0.012601 0.09176,-0.070297 0.203761,-0.1282134 C 10.930459,5.1811153 11.125,4.8436031 11.125,4.3773803 11.125,3.7326025 10.742288,3.3426006 10.020234,3.2515709 9.8973862,3.2360834 9.3363281,3.2157419 8.7734375,3.2063672 L 7.75,3.1893225 V 5.3759112 7.5625 H 8.3125 8.875 Z m 0,-2.1875 V 3.9713647 l 0.3203125,0.015763 c 0.4700041,0.023129 0.572685,0.040328 0.6624875,0.1109666 0.1262141,0.09928 0.17345,0.2214971 0.17345,0.4487809 0,0.2272837 -0.047236,0.3495006 -0.17345,0.4487809 -0.089802,0.070639 -0.1924834,0.087838 -0.6624875,0.1109666 L 8.875,5.1223853 Z m 6.59375,2.59375 V 6.71875 H 14.484375 13.5 V 4.953125 3.1875 H 12.9375 12.375 V 5.375 7.5625 h 1.546875 1.546875 z"
       id="path825"
       inkscape:connector-curvature="0" />
    <path
       style="fill:#0098fe;stroke-width:0.03125"
       d="M 4,13.5 V 11 h 4 4 V 13.5 16 H 8 4 Z m 3,0 V 12 H 6 5 v 1.5 1.5 h 1 1 z"
       id="path823"
       inkscape:connector-curvature="0" />
    <path
       style="fill:#0065cb;stroke-width:0.03125"
       d="M 1.9920623,14.007691 -2.5045563e-4,12.015193 0.00768727,8.2110134 0.015625,4.4068344 0.41655463,6.1153094 C 0.63706591,7.0549709 0.84766791,7.8880425 0.88455903,7.96658 1.0394899,8.2964113 1.3581518,8.4999872 1.7578125,8.5244537 L 2,8.5392803 V 9.2696403 10 h 6 6 V 9.2830606 8.5661209 l 0.867188,-0.00962 c 0.81627,-0.00906 0.874985,-0.013585 1,-0.0771 L 16,8.4119219 V 12.205961 16 H 14 12 V 13.5 11 H 8.0001859 4.0003719 l -0.008,2.500095 -0.008,2.500095 z M 15.859375,5.8015272 c -0.113119,-0.060325 -0.183664,-0.06765 -0.742187,-0.077065 L 14.5,5.7140587 V 4.3737466 C 14.5,3.2189822 14.493,3.0127339 14.44924,2.8839046 14.382072,2.6860318 14.239099,2.4824648 14.107387,2.3971682 L 14.000774,2.328125 14.000387,1.6640625 14,1 H 7 0 V 0.5 0 h 8 8 v 2.9375 c 0,1.615625 -0.0035,2.9359675 -0.0078,2.9340944 -0.0043,-0.00187 -0.06406,-0.033404 -0.132813,-0.070067 z"
       id="path821"
       inkscape:connector-curvature="0" />
    <path
       style="fill:#323232;stroke-width:0.03125"
       d="M 5,13.5 V 12 H 6 7 V 13.5 15 H 6 5 Z M 2.0601571,7.5397616 1.7921892,7.5289763 1.2849211,5.3704534 C 1.0059236,4.1832656 0.78197791,3.2091716 0.78726397,3.2057994 c 0.005286,-0.00337 0.23798053,-3.657e-4 0.51709883,0.00668 l 0.5074878,0.012808 0.030456,0.1139203 c 0.016751,0.062656 0.1021756,0.416264 0.1898329,0.7857953 0.2523806,1.063945 0.5271382,2.1634444 0.545125,2.1814312 0.00907,0.00907 0.022805,0.010166 0.030528,0.00244 C 2.6196461,6.2970216 3.1453162,4.1132231 3.299595,3.4349106 L 3.3487597,3.21875 h 0.5266394 c 0.4745784,0 0.528235,0.00541 0.5427815,0.054687 0.00888,0.030078 0.1729638,0.715625 0.3646341,1.5234375 0.1916703,0.8078125 0.3598087,1.4892412 0.3736409,1.5142859 0.017851,0.032322 0.035796,0.006 0.061841,-0.090726 C 5.2819356,5.9840969 5.9375,3.2714956 5.9375,3.2445066 c 0,-0.014166 0.2329787,-0.025757 0.5177309,-0.025757 0.4781822,0 0.51654,0.00418 0.5021419,0.054687 -0.00857,0.030078 -0.2361359,0.996875 -0.5056934,2.1484375 -0.2695575,1.1515625 -0.4990369,2.1015225 -0.5099544,2.1110225 -0.010917,0.0095 -0.2994647,0.0095 -0.6412156,0 L 4.6791437,7.515625 4.5116406,6.8125 C 4.1255866,5.1919647 3.8966741,4.28125 3.8753991,4.28125 c -0.023008,0 -0.1610435,0.5519188 -0.5744528,2.296875 L 3.0714332,7.546875 2.6997791,7.548715 C 2.4953693,7.549725 2.2075395,7.545695 2.0601571,7.539765 Z M 7.75,5.3759112 V 3.1893225 l 1.0234375,0.017045 c 0.5628906,0.00937 1.1239488,0.029716 1.2467965,0.045204 0.722054,0.09103 1.104766,0.4810316 1.104766,1.1258094 0,0.4662228 -0.194541,0.803735 -0.577373,1.0016922 -0.112005,0.057917 -0.203698,0.1156125 -0.203761,0.1282134 -6.3e-5,0.012601 0.06877,0.05782 0.152972,0.1004869 0.191461,0.09702 0.28932,0.2153028 0.532221,0.6432994 0.167737,0.2955534 0.627191,1.2221534 0.627191,1.26488 0,0.00841 -0.258069,0.015298 -0.573488,0.015298 H 10.509275 L 10.330557,7.1484375 C 9.9649241,6.3652562 9.7334222,6.0193509 9.5214031,5.9394166 9.4730188,5.921175 9.3077844,5.90625 9.1542156,5.90625 H 8.875 V 6.734375 7.5625 H 8.3125 7.75 Z M 9.6462381,5.075095 C 9.9034894,5.044045 10.03125,4.8687628 10.03125,4.546875 10.03125,4.3195912 9.9840141,4.1973744 9.8578,4.0980941 9.7679975,4.0274556 9.6653166,4.0102566 9.1953125,3.9871275 L 8.875,3.9713647 V 4.546875 5.1223853 L 9.1953125,5.1066225 C 9.3714844,5.0979531 9.5744009,5.0837656 9.6462381,5.075095 Z M 12.375,5.375 V 3.1875 H 12.9375 13.5 V 4.953125 6.71875 h 0.984375 0.984375 V 7.140625 7.5625 H 13.921875 12.375 Z M 0,1.7651452 V 1 H 1 2 V 1.6142976 2.2285952 L 1.3178106,2.2074915 C 0.53629953,2.1833152 0.43512934,2.2009533 0.15973436,2.409392 L 0,2.5302904 Z"
       id="path819"
       inkscape:connector-curvature="0" />
  </g>
</svg>
