<?xml version="1.0" encoding="UTF-8" standalone="no"?>
<!-- Created with Inkscape (http://www.inkscape.org/) -->

<svg
   xmlns:dc="http://purl.org/dc/elements/1.1/"
   xmlns:cc="http://creativecommons.org/ns#"
   xmlns:rdf="http://www.w3.org/1999/02/22-rdf-syntax-ns#"
   xmlns:svg="http://www.w3.org/2000/svg"
   xmlns="http://www.w3.org/2000/svg"
   xmlns:sodipodi="http://sodipodi.sourceforge.net/DTD/sodipodi-0.dtd"
   xmlns:inkscape="http://www.inkscape.org/namespaces/inkscape"
   version="1.1"
   id="svg2"
   width="16"
   height="16"
   viewBox="0 0 16 16"
   sodipodi:docname="SAVE_PLY.svg"
   inkscape:version="0.92.4 (5da689c313, 2019-01-14)">
  <metadata
     id="metadata8">
    <rdf:RDF>
      <cc:Work
         rdf:about="">
        <dc:format>image/svg+xml</dc:format>
        <dc:type
           rdf:resource="http://purl.org/dc/dcmitype/StillImage" />
        <dc:title></dc:title>
      </cc:Work>
    </rdf:RDF>
  </metadata>
  <defs
     id="defs6" />
  <sodipodi:namedview
     pagecolor="#ffffff"
     bordercolor="#666666"
     borderopacity="1"
     objecttolerance="10"
     gridtolerance="10"
     guidetolerance="10"
     inkscape:pageopacity="0"
     inkscape:pageshadow="2"
     inkscape:window-width="828"
     inkscape:window-height="480"
     id="namedview4"
     showgrid="false"
     inkscape:zoom="14.75"
     inkscape:cx="8"
     inkscape:cy="8"
     inkscape:window-x="0"
     inkscape:window-y="0"
     inkscape:window-maximized="0"
     inkscape:current-layer="svg2" />
  <g
     id="SAVE_PLY">
    <path
       style="fill:#ffffff;stroke-width:0.03125"
       d="M 0,14.007905 V 12.01581 L 1.984375,14 C 3.0757813,15.091305 3.96875,15.987747 3.96875,15.992095 3.96875,15.996443 3.0757813,16 1.984375,16 H 0 Z"
       id="path829"
       inkscape:connector-curvature="0" />
    <path
       style="fill:#fefefe;stroke-width:0.03125"
       d="M 2.2501684,8.5113709 C 1.9377839,8.3998628 1.7129025,8.1697834 1.6110508,7.8574806 1.5662228,7.7200269 1.561664,7.4413506 1.5694178,5.3125 l 0.00871,-2.390625 0.077379,-0.15625 C 1.7541604,2.5664118 1.9414118,2.3791604 2.140625,2.2805044 l 0.15625,-0.077379 1.265625,0.00956 c 0.6960937,0.00526 1.3734503,0.022296 1.5052369,0.037863 0.2792037,0.032979 0.5498978,0.117427 0.8479925,0.2645463 L 6.1283337,2.6200214 6.2594794,2.4889526 c 0.07213,-0.072088 0.2014581,-0.1658895 0.2873956,-0.2084482 0.1513075,-0.074932 0.1803084,-0.077691 0.9168394,-0.087227 0.8056219,-0.010431 0.977104,0.011544 1.1586375,0.1484752 0.073652,0.055555 0.07883,0.054997 0.2342947,-0.025283 0.1572484,-0.081201 0.1674268,-0.082201 0.9352928,-0.09191 0.6544946,-0.00828 0.8021116,-0.0017 0.9407086,0.041892 0.214682,0.067526 0.443451,0.2429283 0.579852,0.4445855 0.06016,0.088936 0.116406,0.1615751 0.125,0.1614199 0.0086,-1.562e-4 0.06678,-0.082262 0.129313,-0.1824602 0.127552,-0.2043943 0.311118,-0.3465212 0.54735,-0.4237888 0.132913,-0.043474 0.280126,-0.049917 0.95123,-0.041633 0.772194,0.00953 0.79827,0.011924 0.950232,0.08718 0.46283,0.2292063 0.691258,0.7774544 0.522721,1.2545744 -0.03679,0.1041503 -0.359483,0.632114 -0.792393,1.2964471 L 13.015625,5.9835191 13,6.9058222 c -0.0153,0.903139 -0.01723,0.9255494 -0.093,1.0785528 -0.09866,0.1992131 -0.285908,0.3864647 -0.485121,0.4851206 -0.151465,0.07501 -0.179749,0.077678 -0.923633,0.087124 -0.607613,0.00772 -0.794669,3.437e-4 -0.898438,-0.035407 -0.113402,-0.03907 -0.148337,-0.039197 -0.259369,-9.438e-4 -0.105923,0.036493 -0.4344828,0.042672 -1.8828125,0.035407 L 6.703125,8.546875 6.546875,8.4694956 C 6.3473503,8.3706853 6.1601322,8.1832856 6.0622244,7.984375 5.9906544,7.8389722 5.9845706,7.7887269 5.9745894,7.2606125 L 5.9638637,6.6931003 5.789645,6.7701481 C 5.5834403,6.8613416 5.1917856,6.9563712 4.9014234,6.9856631 L 4.6934722,7.0066416 4.6813741,7.4173831 C 4.6708678,7.7740787 4.659265,7.8486847 4.5931959,7.984375 4.4966013,8.1827581 4.3094481,8.3704138 4.109375,8.4694956 c -0.15223,0.075389 -0.1763503,0.077568 -0.9375,0.084696 -0.6511258,0.0061 -0.8046443,-0.00103 -0.9217066,-0.042821 z M 3.6875,6.796875 V 6.03125 L 3.757812,6.030475 C 3.7964844,6.03005 4.0675337,6.0170287 4.3601444,6.0015409 5.1676625,5.9587997 5.4276059,5.881115 5.7345844,5.5907878 6.0202294,5.3206366 6.1448275,4.9655306 6.1168297,4.5013844 6.0931272,4.1084416 6.0065291,3.9068756 5.7528578,3.6542009 5.5931819,3.4951522 5.4984316,3.4297884 5.3313888,3.3634491 5.0408097,3.2480484 4.7882691,3.2253306 3.5859375,3.2064325 L 2.5625,3.1903463 V 5.3764231 7.5625 H 3.125 3.6875 Z m 0,-2.1779813 V 3.9943906 l 0.4765625,0.010617 c 0.4318147,0.00962 0.4873578,0.01733 0.5915328,0.082108 C 4.9095262,4.1828334 5,4.3744031 5,4.60462 5,4.8332184 4.9441219,4.9642325 4.7937631,5.0881709 4.6537434,5.2035869 4.6155512,5.2112172 4.0859375,5.2295813 L 3.6875,5.2433969 Z m 6.375,2.5217313 V 6.71875 H 9.078125 8.09375 V 4.953125 3.1875 H 7.53125 6.96875 V 5.375 7.5625 H 8.515625 10.0625 Z M 12,6.6213663 V 5.6802325 l 0.776122,-1.1916787 c 0.426867,-0.6554235 0.786291,-1.2092569 0.798719,-1.2307413 0.01775,-0.030687 -0.103424,-0.038749 -0.565184,-0.037602 l -0.587782,0.00146 -0.481507,0.7641647 C 11.675539,4.4061259 11.448405,4.75 11.435626,4.75 11.422846,4.75 11.197105,4.4109203 10.933978,3.9964894 10.670851,3.5820587 10.440481,3.2371906 10.422044,3.2301159 c -0.01844,-0.00707 -0.283457,-0.00901 -0.5889362,-0.0043 l -0.5554162,0.00856 0.6515834,1 c 0.358371,0.55 0.717765,1.0982875 0.798654,1.2184162 L 10.875,5.6712078 V 6.6168537 7.5625 H 11.4375 12 Z M 9.4164319,5.3046875 C 9.2685019,5.0769531 9.1353819,4.8772656 9.1206094,4.8609375 9.1054975,4.8442344 9.09375,5.0253341 9.09375,5.275 v 0.44375 h 0.2958225 0.2958228 z"
       id="path827"
       inkscape:connector-curvature="0" />
    <path
       style="fill:#cbcbcb;stroke-width:0.03125"
       d="M 4,13.5 V 11 h 4 4 V 13.5 16 H 8 4 Z m 3,0 V 12 H 6 5 v 1.5 1.5 h 1 1 z"
       id="path825"
       inkscape:connector-curvature="0" />
    <path
       style="fill:#cb9865;stroke-width:0.03125"
       d="M 2,9.203125 C 2,8.7648438 2.00439,8.40625 2.00976,8.40625 c 0.00537,0 0.072162,0.031641 0.1484375,0.070312 0.1334484,0.067659 0.1699353,0.070312 0.9668072,0.070312 0.8183041,0 0.8299781,-9.187e-4 0.984375,-0.077379 C 4.3094481,8.3704138 4.4966013,8.1827581 4.5931959,7.984375 4.659265,7.8486847 4.6708678,7.7740787 4.6813741,7.4173831 L 4.6934722,7.0066416 4.9014234,6.9856631 C 5.1917856,6.9563712 5.5834403,6.8613416 5.789645,6.7701481 l 0.1742187,-0.077048 0.010726,0.5675122 c 0.00998,0.5281144 0.016065,0.5783597 0.087635,0.7237625 0.097908,0.1989106 0.2851259,0.3863103 0.4846506,0.4851206 l 0.15625,0.077379 1.7544975,0.0088 c 1.4483297,0.00726 1.7768892,0.00109 1.8828122,-0.035407 0.111032,-0.038253 0.145967,-0.038126 0.259369,9.438e-4 0.103769,0.035751 0.290825,0.043123 0.898438,0.035407 0.743884,-0.00945 0.772168,-0.012114 0.923633,-0.087124 0.199213,-0.098656 0.386465,-0.2859075 0.485121,-0.4851206 0.07623,-0.1539331 0.07752,-0.1698122 0.08693,-1.0708966 l 0.0096,-0.9146468 0.485339,-0.7416032 C 13.755755,4.8493466 13.979972,4.5097656 13.987079,4.5026041 13.994185,4.4954428 14,5.7294272 14,7.2447916 V 10 H 8 2 Z M 9.09375,5.275 c 0,-0.2496659 0.011748,-0.4307656 0.026859,-0.4140625 0.014773,0.016328 0.1478925,0.2160156 0.2958225,0.44375 L 9.6853953,5.71875 H 9.3895725 9.09375 Z M 11.3125,2.7110365 C 11.176099,2.5093793 10.94733,2.333977 10.732648,2.266451 10.594051,2.2228569 10.446434,2.2162831 9.7919394,2.2245589 9.0240734,2.2342682 9.013895,2.2352684 8.8566466,2.3164693 8.7011819,2.3967491 8.6960034,2.397308 8.6223519,2.3417526 8.4408184,2.2048216 8.2693363,2.1828468 7.4637144,2.1932774 6.7271834,2.2028135 6.6981825,2.2055726 6.546875,2.2805044 6.4609375,2.3230631 6.3316094,2.4168648 6.2594794,2.4889526 L 6.1283337,2.6200214 5.9157294,2.5150942 C 5.6176347,2.3679749 5.3469406,2.283527 5.0677369,2.2505479 4.9359503,2.2349814 4.2585937,2.2179432 3.5625,2.2126851 2.3027193,2.2031692 2.2962346,2.2034497 2.1581928,2.2734375 2.0819176,2.3121094 2.0151208,2.34375 2.0097553,2.34375 2.0043899,2.34375 2,2.0414063 2,1.671875 V 1 h 6 6 v 0.6525676 0.6525675 l -0.117187,-0.041821 c -0.185253,-0.066111 -1.581466,-0.061253 -1.780158,0.00619 -0.23023,0.078153 -0.410477,0.2195969 -0.535842,0.4204872 -0.06253,0.1001979 -0.120719,0.1823051 -0.129313,0.1824602 -0.0086,1.563e-4 -0.06484,-0.072484 -0.125,-0.1614199 z"
       id="path823"
       inkscape:connector-curvature="0" />
    <path
       style="fill:#0065cb;stroke-width:0.03125"
       d="M 1.9921875,14.007817 0,12.015443 V 7.5077216 3 H 0.78050456 1.5610091 l 0.00856,2.4140625 0.00856,2.4140625 0.077379,0.15625 C 1.6980671,8.070312 1.7929886,8.2007606 1.8664456,8.27426 L 2,8.4078947 V 9.2039475 10 h 6 6 V 7.23594 4.4718797 L 14.238377,4.1062819 C 14.369485,3.9052031 14.503078,3.6657878 14.535252,3.5742478 14.687256,3.14177 14.524617,2.639115 14.154359,2.3970547 L 14.001123,2.296875 14.000562,1.6484375 14,1 H 7 0 V 0.5 0 h 8 8 v 8 8 H 14 12 V 13.5 11 H 8.0001859 4.0003719 l -0.008,2.500095 -0.008,2.500095 z"
       id="path821"
       inkscape:connector-curvature="0" />
    <path
       style="fill:#323232;stroke-width:0.03125"
       d="M 5,13.5 V 12 H 6 7 V 13.5 15 H 6 5 Z M 2.5625,5.3764231 V 3.1903463 l 1.0234375,0.016087 c 1.2023316,0.018898 1.4548722,0.041616 1.7454513,0.1570166 0.1670428,0.066339 0.2617931,0.1317031 0.421469,0.2907519 0.2536713,0.2526746 0.3402694,0.4542406 0.3639719,0.8471834 0.027998,0.4641462 -0.0966,0.8192522 -0.3822453,1.0894034 C 5.4276059,5.8811153 5.1676625,5.9588 4.3601444,6.0015413 4.0675337,6.0170291 3.7964844,6.0300494 3.7578125,6.0304753 L 3.6875,6.03125 V 6.796875 7.5625 H 3.125 2.5625 Z M 4.5789434,5.2015288 C 4.7027275,5.1828938 4.9027316,5.0160534 4.9570072,4.8861534 4.9806531,4.8295606 5,4.7028706 5,4.60462 5,4.3744031 4.9095262,4.1828334 4.7555953,4.0871159 4.6514203,4.0223378 4.5958772,4.0146281 4.1640625,4.0050078 L 3.6875,3.9943906 v 0.6245031 0.6245032 l 0.3984375,-0.013816 c 0.2191406,-0.0076 0.4409934,-0.020222 0.4930059,-0.028052 z M 6.96875,5.375 V 3.1875 h 0.5625 0.5625 V 4.953125 6.71875 H 9.078125 10.0625 V 7.140625 7.5625 H 8.515625 6.96875 Z M 10.875,6.6168537 V 5.6712078 L 10.727929,5.4527912 C 10.64704,5.3326625 10.287646,4.784375 9.929275,4.234375 l -0.6515834,-1 0.5554162,-0.00856 c 0.3054792,-0.00471 0.5705002,-0.00277 0.5889362,0.0043 0.01844,0.00707 0.248807,0.3519428 0.511934,0.7663735 C 11.197105,4.4109203 11.422846,4.75 11.435626,4.75 c 0.01278,0 0.239913,-0.3438741 0.504742,-0.7641647 l 0.481507,-0.7641647 0.587782,-0.00146 c 0.46176,-0.00115 0.582937,0.00691 0.565184,0.037602 -0.01243,0.021484 -0.371852,0.5753179 -0.798719,1.2307413 L 12,5.6802325 V 6.6213662 7.5625 H 11.4375 10.875 Z M 0,2 V 1 h 1 1 v 0.6839059 0.683906 l -0.076294,0.04999 C 1.8210786,2.4850457 1.6685089,2.7117054 1.6189188,2.8705978 L 1.5785326,3 H 0.78926628 0 Z"
       id="path819"
       inkscape:connector-curvature="0" />
  </g>
</svg>
