<?xml version="1.0" encoding="UTF-8" standalone="no"?>
<!-- Created with Inkscape (http://www.inkscape.org/) -->

<svg
   xmlns:dc="http://purl.org/dc/elements/1.1/"
   xmlns:cc="http://creativecommons.org/ns#"
   xmlns:rdf="http://www.w3.org/1999/02/22-rdf-syntax-ns#"
   xmlns:svg="http://www.w3.org/2000/svg"
   xmlns="http://www.w3.org/2000/svg"
   xmlns:sodipodi="http://sodipodi.sourceforge.net/DTD/sodipodi-0.dtd"
   xmlns:inkscape="http://www.inkscape.org/namespaces/inkscape"
   version="1.1"
   id="svg2"
   width="16"
   height="16"
   viewBox="0 0 16 16"
   sodipodi:docname="BETWEEN_MARKERS.svg"
   inkscape:version="0.92.4 (5da689c313, 2019-01-14)">
  <metadata
     id="metadata8">
    <rdf:RDF>
      <cc:Work
         rdf:about="">
        <dc:format>image/svg+xml</dc:format>
        <dc:type
           rdf:resource="http://purl.org/dc/dcmitype/StillImage" />
        <dc:title></dc:title>
      </cc:Work>
    </rdf:RDF>
  </metadata>
  <defs
     id="defs6" />
  <sodipodi:namedview
     pagecolor="#ffffff"
     bordercolor="#666666"
     borderopacity="1"
     objecttolerance="10"
     gridtolerance="10"
     guidetolerance="10"
     inkscape:pageopacity="0"
     inkscape:pageshadow="2"
     inkscape:window-width="1231"
     inkscape:window-height="772"
     id="namedview4"
     showgrid="false"
     inkscape:zoom="14.75"
     inkscape:cx="8"
     inkscape:cy="8"
     inkscape:window-x="0"
     inkscape:window-y="0"
     inkscape:window-maximized="0"
     inkscape:current-layer="svg2" />
  <g
     id="BETWEEN_MARKERS">
    <path
       style="fill:#fefefe;stroke-width:0.03125"
       d="M 0,8 V 0 h 8 8 v 8 8 H 15.5 C 15.066288,16 15,15.9935 15,15.95089 c 0,-0.04464 -0.0045,-0.04464 -0.04911,0 C 14.906525,15.995261 14.182765,16 7.4508928,16 H 0 Z m 11.730785,7.831639 c 0.05708,-0.02385 0.485466,-0.270511 0.951973,-0.54814 0.637493,-0.379385 0.859876,-0.527367 0.895219,-0.595712 0.107681,-0.208232 0.08762,-0.263162 -0.593602,-1.625287 -0.352344,-0.704524 -0.640625,-1.295082 -0.640625,-1.312351 0,-0.02044 0.388108,-0.0314 1.112366,-0.0314 1.218871,0 1.22559,-9.5e-4 1.336523,-0.188745 0.06935,-0.117408 0.06511,-0.335773 -0.0088,-0.45188 -0.03282,-0.05156 -1.208883,-1.33125 -2.61348,-2.84375 L 9.6165569,5.484375 12.39975,5.46875 C 15.149736,5.453312 15.183973,5.452356 15.269228,5.388694 15.441299,5.2602046 15.483282,5.170124 15.495393,4.9034152 15.516627,4.4358537 15.673688,4.6316475 13.646326,2.5983668 12.601623,1.5506143 11.785345,0.75627656 11.727566,0.73117931 11.608238,0.67934703 11.444231,0.67489884 11.322347,0.72018897 11.273962,0.73816791 10.529658,1.4568953 9.6683375,2.3173609 8.1052297,3.8789172 8.1021022,3.8818031 7.9964625,3.8600022 7.9101309,3.8421859 7.6055347,3.5538506 6.34375,2.2955197 5.4929687,1.4470672 4.7572878,0.73816856 4.7089031,0.72018941 4.5870197,0.67489884 4.4230128,0.67934687 4.3036837,0.73117931 4.2459047,0.75627656 3.4296272,1.5506143 2.3849242,2.5983668 0.35756147,4.6316475 0.51462347,4.4358537 0.53585656,4.9034153 c 0.012112,0.2667122 0.0540968,0.3567959 0.22617107,0.4852788 0.0857289,0.064011 0.10805246,0.064484 3.42775677,0.07266 l 3.3414656,0.00823 v 4.4400744 c 0,4.9080315 -0.015211,4.5437525 0.1949069,4.6678715 0.108269,0.06396 0.3026231,0.06906 0.3965534,0.01041 0.036167,-0.02258 0.4464088,-0.438325 0.9116485,-0.923871 0.4652396,-0.485547 0.8552562,-0.88262 0.8667034,-0.882384 0.011447,2.5e-4 0.3231568,0.654787 0.6926878,1.454556 0.369531,0.79977 0.701678,1.482333 0.738103,1.516806 0.05652,0.0535 0.184253,0.109771 0.270713,0.119273 0.01344,0.0015 0.07114,-0.01683 0.128219,-0.04068 z m 0.02501,-1.040449 c -0.01646,-0.03125 -0.334946,-0.717752 -0.707745,-1.525565 -0.756429,-1.639098 -0.756977,-1.63997 -1.031248,-1.641507 l -0.15743,-8.83e-4 -0.7569566,0.77432 -0.7569562,0.77432 -8.563e-4,-3.9211647 -8.559e-4,-3.921165 0.073581,0.077415 c 0.040469,0.042578 0.9650788,1.0399525 2.054687,2.2163875 1.089609,1.176435 2.210158,2.3858102 2.490109,2.6875002 l 0.509001,0.548527 -0.962126,0.01563 c -0.645338,0.01048 -0.982706,0.02754 -1.024627,0.05182 -0.128527,0.07443 -0.210353,0.19419 -0.225698,0.330338 -0.01438,0.127556 0.02973,0.226164 0.706744,1.579937 0.397143,0.79414 0.722079,1.449173 0.722079,1.455628 0,0.0065 -0.172266,0.114363 -0.382812,0.239795 -0.210547,0.125433 -0.413446,0.247731 -0.450887,0.271774 -0.06032,0.03874 -0.07148,0.03725 -0.098,-0.0131 z m 3.235054,-6.8611381 c -0.0075,-0.038872 -0.01387,-0.014427 -0.01422,0.054323 -3.47e-4,0.06875 0.0058,0.1005547 0.01359,0.070677 0.0078,-0.029878 0.0081,-0.086128 6.32e-4,-0.125 z M 7.6477866,0.04361979 C 7.6374022,0.03323568 7.6104491,0.03212548 7.5878906,0.0411527 c -0.024929,0.0099758 -0.017524,0.01738071 0.01888,0.0188802 0.032942,0.0013569 0.0514,-0.006029 0.041016,-0.01641311 z m 0.25,0 C 7.8874022,0.03323568 7.8604491,0.03212548 7.8378906,0.0411527 c -0.024929,0.0099758 -0.017524,0.01738071 0.01888,0.0188802 0.032942,0.0013569 0.0514,-0.006029 0.041016,-0.01641311 z m 0.25,0 C 8.1374025,0.03323568 8.1104491,0.03212548 8.0878906,0.0411527 c -0.024929,0.0099758 -0.017524,0.01738071 0.01888,0.0188802 0.032942,0.0013569 0.0514,-0.006029 0.041016,-0.01641311 z m 0.25,0 C 8.3874025,0.03323568 8.3604491,0.03212548 8.3378906,0.0411527 c -0.024929,0.0099758 -0.017524,0.01738071 0.01888,0.0188802 0.032942,0.0013569 0.0514,-0.006029 0.041016,-0.01641311 z m 0.25,0 C 8.6374025,0.03323568 8.6104491,0.03212548 8.5878906,0.0411527 c -0.024929,0.0099758 -0.017524,0.01738071 0.01888,0.0188802 0.032942,0.0013569 0.0514,-0.006029 0.041016,-0.01641311 z m 0.25,0 C 8.8874025,0.03323568 8.8604491,0.03212548 8.8378906,0.0411527 c -0.024929,0.0099758 -0.017524,0.01738071 0.01888,0.0188802 0.032942,0.0013569 0.0514,-0.006029 0.041016,-0.01641311 z m 0.25,0 C 9.1374025,0.03323568 9.1104491,0.03212548 9.0878906,0.0411527 c -0.024929,0.0099758 -0.017524,0.01738071 0.01888,0.0188802 0.032942,0.0013569 0.0514,-0.006029 0.041016,-0.01641311 z m 6.5000004,0 c -0.01038,-0.01038411 -0.03734,-0.01149431 -0.0599,-0.0024671 -0.02493,0.0099758 -0.01753,0.01738071 0.01888,0.0188802 0.03294,0.0013569 0.0514,-0.006029 0.04102,-0.0164131 z m 0.25,0 c -0.01038,-0.01038411 -0.03734,-0.01149431 -0.0599,-0.0024671 -0.02493,0.0099758 -0.01753,0.01738071 0.01888,0.0188802 0.03294,0.0013569 0.0514,-0.006029 0.04102,-0.0164131 z"
       id="path827"
       inkscape:connector-curvature="0" />
    <path
       style="fill:#cfcecc;stroke-width:0.03125"
       d="m 7.5878906,0.04115269 c 0.022559,-0.0090272 0.049512,-0.007917 0.059896,0.0024671 0.010384,0.01038412 -0.00807,0.01777001 -0.041016,0.0164131 -0.036405,-0.0014995 -0.043809,-0.0089044 -0.01888,-0.0188802 z m 0.25,0 c 0.022559,-0.0090272 0.049512,-0.007917 0.059896,0.0024671 0.010384,0.01038412 -0.00807,0.01777001 -0.041016,0.0164131 -0.036405,-0.0014995 -0.043809,-0.0089044 -0.01888,-0.0188802 z m 0.25,0 c 0.022559,-0.0090272 0.049512,-0.007917 0.059896,0.0024671 0.010384,0.01038412 -0.00807,0.01777001 -0.041016,0.0164131 -0.036405,-0.0014995 -0.043809,-0.0089044 -0.01888,-0.0188802 z m 0.25,0 c 0.022559,-0.0090272 0.049512,-0.007917 0.059896,0.0024671 0.010384,0.01038412 -0.00807,0.01777001 -0.041016,0.0164131 -0.036405,-0.0014995 -0.043809,-0.0089044 -0.01888,-0.0188802 z m 0.25,0 c 0.022559,-0.0090272 0.049512,-0.007917 0.059896,0.0024671 0.010384,0.01038412 -0.00807,0.01777001 -0.041016,0.0164131 -0.036405,-0.0014995 -0.043809,-0.0089044 -0.01888,-0.0188802 z m 0.25,0 c 0.022559,-0.0090272 0.049512,-0.007917 0.059896,0.0024671 0.010384,0.01038412 -0.00807,0.01777001 -0.041016,0.0164131 -0.036405,-0.0014995 -0.043809,-0.0089044 -0.01888,-0.0188802 z m 0.25,0 c 0.022559,-0.0090272 0.049512,-0.007917 0.059896,0.0024671 0.010384,0.01038412 -0.00807,0.01777001 -0.041016,0.0164131 -0.036405,-0.0014995 -0.043809,-0.0089044 -0.01888,-0.0188802 z m 6.5000004,0 c 0.02256,-0.0090272 0.04951,-0.007917 0.0599,0.0024671 0.01038,0.01038412 -0.0081,0.01777001 -0.04102,0.0164131 -0.03641,-0.0014995 -0.04381,-0.0089044 -0.01888,-0.0188802 z m 0.25,0 c 0.02256,-0.0090272 0.04951,-0.007917 0.0599,0.0024671 0.01038,0.01038412 -0.0081,0.01777001 -0.04102,0.0164131 -0.03641,-0.0014995 -0.04381,-0.0089044 -0.01888,-0.0188802 z"
       id="path825"
       inkscape:connector-curvature="0" />
    <path
       style="fill:#fe9832;stroke-width:0.03125"
       d="M 1.03125,4.8202078 V 4.6716656 L 2.7735498,2.9295743 4.5158494,1.1874829 6.0235497,2.6954235 7.53125,4.2033641 V 4.5860572 4.96875 h -3.25 -3.25 z M 8.7990594,4.6052369 8.4616394,4.2417234 9.9885206,2.7146038 11.515402,1.1874841 13.257701,2.9295749 15,4.6716656 V 4.8202078 4.96875 H 12.06824 9.1364797 Z"
       id="path823"
       inkscape:connector-curvature="0" />
    <path
       style="fill:#313131;stroke-width:0.03125"
       d="M 0.828125,5.4246362 C 0.71319747,5.3735562 0.60894619,5.2634941 0.56458162,5.1464031 0.52179912,5.0334875 0.52137184,4.5931569 0.5639335,4.4785969 0.60759981,4.3610638 4.1734927,0.78795262 4.3036836,0.73127641 c 0.1282735,-0.0558414 0.2955985,-0.0558442 0.4238825,-6.94e-6 0.057021,0.0248191 0.7616438,0.70625043 1.627461,1.57389613 L 7.8819292,3.8352922 7.7615524,3.8942084 C 7.6897774,3.9293375 7.6152327,3.9998913 7.5769211,4.0689553 L 7.5126667,4.1847856 6.0142587,2.6861337 4.5158509,1.1874816 2.7735504,2.9295737 1.03125,4.6716656 V 4.8202078 4.96875 h 3.25 3.25 v 0.25 0.25 L 4.2265625,5.4675281 C 1.5423759,5.4665334 0.90427213,5.45848 0.828125,5.4246362 Z M 9.3762578,5.2270541 9.1526419,4.984375 12.076321,4.9764022 15,4.9684297 V 4.8202559 4.6720825 L 13.257924,2.9297981 11.515848,1.1875138 9.9938019,2.7093222 8.4717556,4.2311306 8.287825,4.0556903 8.1038941,3.8802503 9.6691347,2.3165641 C 10.530017,1.4565367 11.273962,0.73816791 11.322347,0.72018897 c 0.121884,-0.0452901 0.285891,-0.0408419 0.405219,0.0109903 0.05778,0.0250972 0.874057,0.81943503 1.91876,1.86718753 2.027362,2.0332807 1.870301,1.8374869 1.849067,2.3050485 -0.01211,0.2667106 -0.0541,0.3567928 -0.226168,0.4852788 -0.08544,0.0638 -0.113637,0.064512 -2.877819,0.072735 l -2.7915323,0.0083 z"
       id="path821"
       inkscape:connector-curvature="0" />
    <path
       style="fill:#000000;stroke-width:0.03125"
       d="m 14.924116,15.976563 c 0.01556,-0.01289 0.03878,-0.0375 0.0516,-0.05469 0.01331,-0.01783 0.02353,-0.0078 0.0238,0.02344 2.81e-4,0.0304 -0.02265,0.05469 -0.05161,0.05469 -0.02865,0 -0.03936,-0.01055 -0.0238,-0.02344 z m -3.441463,-0.13572 c -0.05251,-0.01483 -0.1247,-0.05892 -0.160423,-0.09797 -0.03572,-0.03905 -0.365417,-0.721322 -0.732653,-1.516164 -0.367236,-0.794842 -0.6771958,-1.445233 -0.6887995,-1.445313 -0.011603,-9.3e-5 -0.4042319,0.39947 -0.8725078,0.887888 -0.4682756,0.488418 -0.8848341,0.903262 -0.9256853,0.921875 -0.040852,0.01861 -0.1315178,0.03384 -0.2014813,0.03384 -0.1060978,0 -0.1473381,-0.02013 -0.2485297,-0.121323 L 7.53125,14.382353 V 9.2582978 4.1342428 L 7.602059,4.0291687 c 0.040133,-0.059553 0.1218131,-0.1244865 0.1885378,-0.1498818 0.2619319,-0.099692 0.05014,-0.3071466 3.6680912,3.5929734 1.818815,1.9606669 3.324017,3.5951717 3.344892,3.6322317 0.02088,0.03706 0.03845,0.135834 0.03906,0.219497 9.87e-4,0.13571 -0.01198,0.165198 -0.120216,0.273438 L 14.6011,11.71875 h -1.128676 c -0.735184,0 -1.128677,0.01095 -1.128677,0.0314 0,0.01727 0.288281,0.607827 0.640625,1.312351 0.680818,1.361321 0.701233,1.417152 0.593991,1.624533 -0.03482,0.06733 -0.258509,0.216214 -0.882812,0.587578 -0.459899,0.273569 -0.864304,0.511594 -0.898679,0.528946 -0.10437,0.05268 -0.213779,0.06567 -0.314222,0.03729 z m 0.822035,-1.308327 c 0.210546,-0.125432 0.382812,-0.23334 0.382812,-0.239795 0,-0.0065 -0.323438,-0.658492 -0.71875,-1.448971 -0.496909,-0.993634 -0.718714,-1.468622 -0.718633,-1.538929 1.56e-4,-0.123821 0.09189,-0.281739 0.207869,-0.357811 0.07673,-0.05032 0.18973,-0.05807 1.051084,-0.07201 L 13.474184,10.859375 12.560043,9.875 C 12.057265,9.3335938 10.943076,8.13125 10.084067,7.203125 9.2250581,6.275 8.4820741,5.4737078 8.4329913,5.4224759 l -0.089241,-0.093149 9.75e-4,3.921274 9.75e-4,3.9212741 0.7568378,-0.774228 0.7568381,-0.774227 0.1406248,9.06e-4 c 0.208269,0.0013 0.319855,0.08467 0.432418,0.322913 0.05259,0.111313 0.364973,0.783956 0.694178,1.494762 0.329204,0.710805 0.612183,1.31794 0.628842,1.349188 0.02684,0.05034 0.03804,0.05183 0.09836,0.0131 0.03744,-0.02404 0.24034,-0.146341 0.450886,-0.271773 z m 2.671943,-6.548141 c 3.47e-4,-0.06875 0.0067,-0.093195 0.01422,-0.054323 0.0075,0.038872 0.0072,0.095122 -6.31e-4,0.125 -0.0078,0.029878 -0.01394,-0.00193 -0.01359,-0.070677 z"
       id="path819"
       inkscape:connector-curvature="0" />
  </g>
</svg>
