<?xml version="1.0" encoding="UTF-8" standalone="no"?>
<!-- Created with Inkscape (http://www.inkscape.org/) -->

<svg
   xmlns:dc="http://purl.org/dc/elements/1.1/"
   xmlns:cc="http://creativecommons.org/ns#"
   xmlns:rdf="http://www.w3.org/1999/02/22-rdf-syntax-ns#"
   xmlns:svg="http://www.w3.org/2000/svg"
   xmlns="http://www.w3.org/2000/svg"
   xmlns:sodipodi="http://sodipodi.sourceforge.net/DTD/sodipodi-0.dtd"
   xmlns:inkscape="http://www.inkscape.org/namespaces/inkscape"
   version="1.1"
   id="svg2"
   width="16"
   height="16"
   viewBox="0 0 16 16"
   sodipodi:docname="WORLD.svg"
   inkscape:version="0.92.4 (5da689c313, 2019-01-14)">
  <metadata
     id="metadata8">
    <rdf:RDF>
      <cc:Work
         rdf:about="">
        <dc:format>image/svg+xml</dc:format>
        <dc:type
           rdf:resource="http://purl.org/dc/dcmitype/StillImage" />
        <dc:title></dc:title>
      </cc:Work>
    </rdf:RDF>
  </metadata>
  <defs
     id="defs6" />
  <sodipodi:namedview
     pagecolor="#ffffff"
     bordercolor="#666666"
     borderopacity="1"
     objecttolerance="10"
     gridtolerance="10"
     guidetolerance="10"
     inkscape:pageopacity="0"
     inkscape:pageshadow="2"
     inkscape:window-width="1291"
     inkscape:window-height="882"
     id="namedview4"
     showgrid="false"
     inkscape:zoom="14.75"
     inkscape:cx="8"
     inkscape:cy="8"
     inkscape:window-x="0"
     inkscape:window-y="0"
     inkscape:window-maximized="0"
     inkscape:current-layer="svg2" />
  <g
     id="WORLD">
    <path
       style="fill:#ffffff;stroke-width:0.03125"
       d="M 0,8 V 0 h 8 8 v 8 8 H 8 0 Z m 9.109375,6.909049 c 0.7544931,-0.127973 1.314626,-0.308399 2,-0.644225 1.808321,-0.886059 3.180183,-2.581338 3.668712,-4.5336124 C 14.943943,9.0684081 14.98301,8.7383738 14.98301,8 14.98301,7.2616262 14.94394,6.9315919 14.778087,6.2687884 14.163732,3.8136863 12.186314,1.8362677 9.7312116,1.2219136 9.0684081,1.0560565 8.7383737,1.0169904 8,1.0169904 c -0.7383738,0 -1.0684081,0.039066 -1.7312116,0.2049232 C 3.8136863,1.8362677 1.8362677,3.8136863 1.2219136,6.2687884 1.0560565,6.9315919 1.0169904,7.2616262 1.0169904,8 c 0,0.7383738 0.039066,1.0684081 0.2049232,1.7312116 0.6143541,2.4551024 2.5917727,4.4325204 5.0468748,5.0468754 0.3333582,0.08342 0.8063922,0.166584 1.1530866,0.202729 0.3141512,0.03275 1.3246525,-0.01022 1.6875,-0.07177 z"
       id="path831"
       inkscape:connector-curvature="0" />
    <path
       style="fill:#fefefe;stroke-width:0.03125"
       d="M 7.671875,13.980741 C 6.7436866,13.884531 5.8857525,13.637566 5.21875,13.274585 4.9644831,13.136214 4.4587991,12.811607 4.4746119,12.796911 c 0.067396,-0.06264 0.4023097,-0.23427 0.4572575,-0.234331 0.039872,-3.1e-5 0.1383097,0.0452 0.21875,0.100547 0.080441,0.05534 0.148295,0.09402 0.1507872,0.08594 0.00249,-0.0081 0.030617,0.0085 0.0625,0.03689 0.050798,0.0452 0.2522103,0.142272 0.3163481,0.152472 0.012579,0.002 0.068573,0.03188 0.1244328,0.06641 0.055859,0.03452 0.1015625,0.05297 0.1015625,0.041 0,-0.01197 0.035156,0.0013 0.078125,0.02942 0.042969,0.02815 0.078125,0.04347 0.078125,0.03404 0,-0.0094 0.038672,0.0027 0.085937,0.02686 0.1134703,0.05811 0.5901853,0.189036 0.8100534,0.222483 0.037327,0.0057 0.1145163,0.02057 0.1715332,0.03309 0.1854212,0.04073 0.4086653,0.05478 0.8699759,0.05478 0.4613106,0 0.6845547,-0.01406 0.8699759,-0.05478 0.057017,-0.01252 0.1342066,-0.02742 0.1715332,-0.03309 0.2198681,-0.03345 0.6965831,-0.164378 0.8100534,-0.222483 0.047266,-0.0242 0.085937,-0.03629 0.085937,-0.02686 0,0.0094 0.035156,-0.0059 0.078125,-0.03404 0.04297,-0.02815 0.07813,-0.04139 0.07813,-0.02942 0,0.01197 0.05273,-0.01082 0.117188,-0.05066 0.06445,-0.03983 0.120447,-0.06972 0.124432,-0.06641 0.01689,0.01403 0.24756,-0.09552 0.300723,-0.142815 0.03188,-0.02837 0.06704,-0.0498 0.07813,-0.04764 0.01109,0.0022 0.07894,-0.03651 0.150788,-0.08594 0.07185,-0.04943 0.163252,-0.08984 0.203125,-0.0898 0.05495,6.3e-5 0.389861,0.171694 0.457257,0.234331 0.01581,0.0147 -0.489871,0.339303 -0.744138,0.477674 -0.551949,0.30037 -1.2750359,0.535189 -1.984375,0.644418 -0.3320725,0.05113 -0.9174016,0.08326 -1.125,0.06174 z m -3,-10.6559901 C 4.56875,3.2628275 4.4799816,3.2080797 4.4746119,3.2030891 4.4587991,3.1883928 4.9644831,2.8637861 5.21875,2.7254147 6.0137019,2.2928042 7.0898494,2.0197691 8,2.0197691 c 0.9101506,0 1.9862981,0.2730351 2.78125,0.7056456 0.254267,0.1383714 0.759951,0.4629781 0.744138,0.4776744 -0.05575,0.051813 -0.397446,0.234269 -0.438844,0.2343306 C 11.0568,3.4374509 10.952333,3.3862409 10.854396,3.3235913 9.9671884,2.7560517 8.6385369,2.4280634 7.6171875,2.5244605 7.1496059,2.5685918 6.7062881,2.656801 6.3125,2.7840608 5.9754975,2.8929693 5.4101375,3.1543716 5.1456044,3.3235912 5.0476672,3.3862409 4.9432,3.4374637 4.9134556,3.4374197 4.8837112,3.4373884 4.775,3.3866747 4.671875,3.3247509 Z"
       id="path829"
       inkscape:connector-curvature="0" />
    <path
       style="fill:#0098fe;stroke-width:0.03125"
       d="M 4.0943019,12.507807 C 3.6024069,12.097212 3.0865231,11.44666 2.7251527,10.78125 2.157703,9.7363753 1.9000774,8.332385 2.0743179,7.234375 2.2705053,5.9980634 2.7102068,5.0296853 3.5097134,4.0731272 3.7557856,3.7787175 4.3792131,3.2187662 4.4609375,3.2187553 4.4824219,3.2187525 4.5,3.2539063 4.5,3.296875 4.5,3.3398438 4.4859375,3.375 4.46875,3.375 4.4515625,3.375 4.4375,3.403125 4.4375,3.4375 4.4375,3.471875 4.4234375,3.5 4.40625,3.5 4.3890625,3.5 4.375,3.528125 4.375,3.5625 4.375,3.596875 4.360938,3.625 4.34375,3.625 4.326562,3.625 4.3125,3.68125 4.3125,3.75 c 0,0.06875 0.014062,0.125 0.03125,0.125 0.017188,0 0.03125,0.022098 0.03125,0.049107 0,0.062083 0.074874,0.1383928 0.1357887,0.1383928 0.025577,0 0.052813,0.017578 0.060525,0.039063 0.00951,0.026497 0.034147,0.016444 0.076582,-0.03125 C 4.6828359,4.0310425 4.7467784,4 4.7927281,4 4.8602609,4 4.875,4.0143959 4.875,4.0803572 c 0,0.044196 0.020089,0.1004462 0.044643,0.125 C 4.9701184,4.2558325 5.1875,4.2667016 5.1875,4.21875 5.1875,4.2015625 5.215625,4.1875 5.25,4.1875 5.284375,4.1875 5.3125,4.173438 5.3125,4.15625 5.3125,4.139062 5.334233,4.125 5.360795,4.125 5.42331,4.125 5.5625,3.98581 5.5625,3.9232953 5.5625,3.8967328 5.5765625,3.875 5.59375,3.875 5.6109784,3.875 5.625,3.7939663 5.625,3.6943988 5.625,3.5496466 5.6125937,3.5048556 5.5625,3.46875 5.528125,3.4439738 5.5,3.4017862 5.5,3.375 5.5,3.3482138 5.471875,3.3060263 5.4375,3.28125 5.403125,3.2564738 5.375,3.2254016 5.375,3.2122 5.375,3.183421 5.8265234,2.9539091 5.9375,2.9262783 5.980469,2.9155803 5.998047,2.9149003 5.976563,2.9247683 5.9550781,2.934635 5.9375,2.983724 5.9375,3.0338542 5.9375,3.0839844 5.9234375,3.125 5.90625,3.125 5.8880209,3.125 5.875,3.2291666 5.875,3.375 c 0,0.1458334 0.013021,0.25 0.03125,0.25 0.017188,0 0.03125,0.022098 0.03125,0.049107 0,0.069955 0.077691,0.1383928 0.157105,0.1383928 0.037301,0 0.1072284,-0.042187 0.155395,-0.09375 C 6.3159284,3.6481734 6.3653744,3.625 6.4500378,3.625 6.5416668,3.625 6.5625,3.636578 6.5625,3.6875 c 0,0.034375 0.014062,0.0625 0.03125,0.0625 0.017188,0 0.03125,0.035795 0.03125,0.079545 0,0.087701 0.1257684,0.2329547 0.2017047,0.2329547 0.026563,0 0.048295,0.014062 0.048295,0.03125 0,0.017188 0.042187,0.03125 0.09375,0.03125 0.051563,0 0.09375,-0.014062 0.09375,-0.03125 0,-0.017188 0.028125,-0.03125 0.0625,-0.03125 0.048611,0 0.0625,-0.020833 0.0625,-0.09375 C 7.1875,3.9171875 7.2015625,3.875 7.21875,3.875 7.2359375,3.875 7.25,3.846875 7.25,3.8125 7.25,3.778125 7.2640625,3.75 7.28125,3.75 7.2984375,3.75 7.3125,3.7078125 7.3125,3.65625 7.3125,3.6046875 7.3265625,3.5625 7.34375,3.5625 7.3609375,3.5625 7.375,3.4921875 7.375,3.40625 7.375,3.3203125 7.3609375,3.25 7.34375,3.25 7.3265625,3.25 7.3125,3.2249794 7.3125,3.1943988 7.3125,3.1638181 7.284375,3.1185261 7.25,3.09375 7.1854478,3.0472235 7.1635031,2.9375 7.21875,2.9375 7.2359375,2.9375 7.25,2.909375 7.25,2.875 7.25,2.840625 7.264062,2.8125 7.28125,2.8125 7.298438,2.8125 7.3125,2.784375 7.3125,2.75 7.3125,2.715625 7.326562,2.6875 7.34375,2.6875 7.360938,2.6875 7.375,2.659643 7.375,2.625595 7.375,2.586437 7.400836,2.558474 7.445312,2.549494 7.6252256,2.5131704 7.75,2.5065035 7.75,2.5332147 7.75,2.5493216 7.7359375,2.5625 7.71875,2.5625 7.701562,2.5625 7.6875,2.587521 7.6875,2.618101 7.6875,2.648682 7.659375,2.693974 7.625,2.7187497 7.5125262,2.7998157 7.542204,2.9500985 7.702303,3.1101971 7.8220934,3.2299881 7.8603194,3.25 7.9693481,3.25 c 0.094059,0 0.1476172,0.020374 0.2053678,0.078125 L 8.2528409,3.40625 8.1747159,3.484375 C 8.1207628,3.5383281 8.0623106,3.5625 7.9857953,3.5625 7.8958334,3.5625 7.875,3.5742522 7.875,3.625 c 0,0.034375 -0.014062,0.0625 -0.03125,0.0625 -0.055247,0 -0.033302,0.1097234 0.03125,0.15625 0.036702,0.026453 0.0625,0.080897 0.0625,0.1318988 0,0.066018 -0.014992,0.086851 -0.0625,0.086851 -0.034375,0 -0.0625,-0.014062 -0.0625,-0.03125 0,-0.047426 -0.1546228,-0.037342 -0.2053572,0.013393 C 7.5825894,4.0691966 7.5625,4.1113841 7.5625,4.1383928 7.5625,4.1654019 7.5484375,4.1875 7.53125,4.1875 7.5140625,4.1875 7.5,4.215625 7.5,4.25 7.5,4.284375 7.4859375,4.3125 7.46875,4.3125 7.4515625,4.3125 7.4375,4.3486606 7.4375,4.3928572 7.4375,4.5183366 7.3689303,4.5625 7.1741072,4.5625 7.0783481,4.5625 7,4.5484375 7,4.53125 7,4.5135869 6.9107144,4.5 6.7946428,4.5 6.5933859,4.5 6.5,4.4606391 6.5,4.3758116 6.5,4.3305141 6.3569859,4.1875 6.3116884,4.1875 6.2403691,4.1875 6.1875,4.2806253 6.1875,4.40625 6.1875,4.5610319 6.1326703,4.625 6,4.625 5.8863059,4.625 5.8125,4.6860362 5.8125,4.7800594 5.8125,4.8559597 5.6190178,5.0625 5.5479166,5.0625 5.5215625,5.0625 5.5,5.0765625 5.5,5.09375 5.5,5.1109375 5.4578125,5.125 5.40625,5.125 5.354687,5.125 5.3125,5.139062 5.3125,5.15625 c 0,0.017188 -0.021733,0.03125 -0.048295,0.03125 -0.026562,0 -0.082812,0.034517 -0.125,0.076705 C 5.080265,5.323144 5.0625,5.3738078 5.0625,5.482955 c 0,0.078125 0.014062,0.1420453 0.03125,0.1420453 0.017188,0 0.03125,0.042187 0.03125,0.09375 0,0.051563 0.014062,0.09375 0.03125,0.09375 0.06098,0 0.030088,0.1602528 -0.045455,0.2357953 C 5.0477987,6.1112922 5.0031216,6.125 4.8607953,6.125 4.7654828,6.125 4.6875,6.1390625 4.6875,6.15625 4.6875,6.1734375 4.6654019,6.1875 4.6383928,6.1875 4.5752353,6.1875 4.5,6.2627353 4.5,6.3258928 4.5,6.3529019 4.4859375,6.375 4.46875,6.375 4.4511,6.375 4.4375,6.464015 4.4375,6.5795453 c 0,0.1755053 0.01089,0.2154356 0.076705,0.28125 C 4.5731441,6.919735 4.6238075,6.9375 4.7329547,6.9375 4.8110797,6.9375 4.875,6.9515625 4.875,6.96875 4.875,6.9859375 4.93125,7 5,7 5.06875,7 5.125,6.9859375 5.125,6.96875 5.125,6.9515625 5.153125,6.9375 5.1875,6.9375 5.221875,6.9375 5.25,6.9234375 5.25,6.90625 5.25,6.8890625 5.2720981,6.875 5.2991072,6.875 5.3593378,6.875 5.4375,6.8007341 5.4375,6.7435059 5.4375,6.7202912 5.465625,6.6810263 5.5,6.65625 5.534375,6.6314737 5.5625,6.5892862 5.5625,6.5625 5.5625,6.5357137 5.590625,6.4935263 5.625,6.46875 5.659375,6.4439737 5.6875,6.3986819 5.6875,6.3681012 5.6875,6.3356328 5.7106328,6.3125 5.7431012,6.3125 5.7736819,6.3125 5.8189737,6.284375 5.84375,6.25 5.8685263,6.215625 5.9138181,6.1875 5.9443988,6.1875 5.9749794,6.1875 6,6.1734375 6,6.15625 6,6.1390625 6.0776494,6.125 6.1725544,6.125 c 0.1674072,0 0.1776609,0.00511 0.34375,0.1711956 C 6.6104619,6.3903531 6.6875,6.4823987 6.6875,6.5007412 6.6875,6.5514378 6.8344506,6.6875 6.8892047,6.6875 6.9157672,6.6875 6.9375,6.7015625 6.9375,6.71875 6.9375,6.7359375 6.965625,6.75 7,6.75 c 0.034375,0 0.0625,-0.014062 0.0625,-0.03125 0,-0.017188 0.028125,-0.03125 0.0625,-0.03125 0.052083,0 0.0625,-0.020833 0.0625,-0.125 0,-0.091072 -0.012907,-0.125 -0.047554,-0.125 -0.026155,0 -0.1250647,-0.077511 -0.2198,-0.1722456 L 6.7479003,6.0930087 6.8256547,6.0152544 C 6.8684197,5.9724894 6.9183712,5.9375 6.9366581,5.9375 6.9883206,5.9375 7.375,6.33671 7.375,6.3900462 c 0,0.0261 0.014062,0.047454 0.03125,0.047454 0.045511,0 0.038358,0.1797403 -0.00781,0.1963134 -0.026497,0.00951 -0.016444,0.034147 0.03125,0.076582 C 7.4683594,6.7448037 7.5,6.7895237 7.5,6.8097734 7.5,6.8761434 7.6516769,7 7.7329547,7 7.7916666,7 7.8125,6.9836309 7.8125,6.9375 7.8125,6.903125 7.8265625,6.875 7.84375,6.875 7.8609375,6.875 7.875,6.846875 7.875,6.8125 7.875,6.7617522 7.8958334,6.75 7.9857953,6.75 8.1360316,6.75 8.25,6.6360316 8.25,6.4857953 8.25,6.4248578 8.2359375,6.375 8.21875,6.375 8.1492353,6.375 8.1905547,6.2097219 8.28125,6.125 8.3328125,6.0768334 8.375,6.0180459 8.375,5.9943609 8.375,5.9706759 8.403125,5.9310262 8.4375,5.90625 8.471875,5.8814737 8.5,5.8361819 8.5,5.8056012 8.5,5.7597131 8.5272956,5.75 8.65625,5.75 c 0.085937,0 0.15625,0.014062 0.15625,0.03125 0,0.017188 0.028125,0.03125 0.0625,0.03125 0.034375,0 0.0625,0.014062 0.0625,0.03125 0,0.017188 0.028125,0.03125 0.0625,0.03125 0.034375,0 0.0625,0.014062 0.0625,0.03125 0,0.017188 0.028125,0.03125 0.0625,0.03125 0.034375,0 0.0625,0.014062 0.0625,0.03125 C 9.1875,5.9859375 9.215625,6 9.25,6 c 0.034375,0 0.0625,0.014062 0.0625,0.03125 0,0.017188 0.028125,0.03125 0.0625,0.03125 0.034375,0 0.0625,0.014062 0.0625,0.03125 0,0.017188 0.028125,0.03125 0.0625,0.03125 0.034375,0 0.0625,0.014062 0.0625,0.03125 0,0.017188 0.022098,0.03125 0.049107,0.03125 0.068451,0 0.1663012,0.1000722 0.1146762,0.1172806 C 9.7049525,6.3118909 9.6875,6.3587241 9.6875,6.4088541 9.6875,6.4589844 9.6734375,6.5 9.65625,6.5 9.6390625,6.5 9.625,6.5220981 9.625,6.5491072 c 0,0.027009 -0.020089,0.069196 -0.044643,0.09375 C 9.5296228,6.6935916 9.375,6.7036756 9.375,6.65625 9.375,6.6373106 9.2395834,6.625 9.03125,6.625 8.8229166,6.625 8.6875,6.6126894 8.6875,6.59375 8.6875,6.5765625 8.6660363,6.5625 8.6398025,6.5625 8.5777881,6.5625 8.3125,6.8277881 8.3125,6.8898025 c 0,0.026234 -0.014062,0.047697 -0.03125,0.047697 -0.057288,0 -0.032203,0.095638 0.045455,0.1732953 0.068839,0.06884 0.1027134,0.076705 0.3303569,0.076705 0.1781656,0 0.2669384,0.013286 0.2982956,0.044643 C 9.0065722,7.2833578 9.0151637,7.375 8.96875,7.375 8.951562,7.375 8.9375,7.417187 8.9375,7.46875 8.9375,7.520313 8.923438,7.5625 8.90625,7.5625 8.889062,7.5625 8.875,7.598661 8.875,7.642857 c 0,0.044196 -0.020089,0.1004462 -0.044643,0.125 C 8.7798816,7.8183325 8.5625,7.8292016 8.5625,7.78125 8.5625,7.7640625 8.50625,7.75 8.4375,7.75 8.36875,7.75 8.3125,7.7359375 8.3125,7.71875 8.3125,7.7015625 8.2703125,7.6875 8.21875,7.6875 8.1671875,7.6875 8.125,7.6734375 8.125,7.65625 8.125,7.6390625 8.06875,7.625 8,7.625 7.93125,7.625 7.875,7.6109375 7.875,7.59375 7.875,7.5765625 7.8107144,7.5625 7.7321428,7.5625 7.5934978,7.5625 7.5,7.6125181 7.5,7.6866884 7.5,7.7058847 7.4654828,7.7561078 7.4232953,7.7982953 7.3044994,7.9170916 7.1766603,7.9013431 7.03125,7.75 6.965195,7.68125 6.895615,7.625 6.8766275,7.625 6.8061987,7.625 6.5625,7.3468366 6.5625,7.2664475 6.5625,7.2230262 6.5484375,7.1875 6.53125,7.1875 6.5140625,7.1875 6.5,7.1654019 6.5,7.1383928 6.5,7.044245 6.4157916,7 6.2366072,7 6.1408481,7 6.0625,7.0140625 6.0625,7.03125 6.0625,7.048611 5.979167,7.0625 5.875,7.0625 5.7708334,7.0625 5.6875,7.076389 5.6875,7.09375 5.6875,7.110938 5.617188,7.125 5.53125,7.125 5.445313,7.125 5.375,7.139062 5.375,7.15625 5.375,7.173438 5.31875,7.1875 5.25,7.1875 5.18125,7.1875 5.125,7.201562 5.125,7.21875 5.125,7.2359375 5.096875,7.25 5.0625,7.25 5.028125,7.25 5,7.2640625 5,7.28125 5,7.2984375 4.971875,7.3125 4.9375,7.3125 4.903125,7.3125 4.875,7.3265625 4.875,7.34375 4.875,7.3609375 4.8499794,7.375 4.8193988,7.375 4.7888181,7.375 4.7435263,7.403125 4.71875,7.4375 4.6939737,7.471875 4.6552444,7.5 4.6326847,7.5 4.5828625,7.5 4.375,7.7027997 4.375,7.7514084 4.375,7.7705162 4.31875,7.840195 4.25,7.90625 4.18125,7.972305 4.125,8.0485462 4.125,8.075675 4.125,8.1028038 4.1109375,8.125 4.09375,8.125 4.0765625,8.125 4.0625,8.153125 4.0625,8.1875 4.0625,8.221875 4.0484375,8.25 4.03125,8.25 4.0140625,8.25 4,8.278125 4,8.3125 4,8.346875 3.9859375,8.375 3.96875,8.375 3.9515625,8.375 3.9375,8.4171875 3.9375,8.46875 3.9375,8.5203125 3.9234375,8.5625 3.90625,8.5625 3.8890625,8.5625 3.875,8.6046875 3.875,8.65625 3.875,8.7078125 3.8609375,8.75 3.84375,8.75 3.8252316,8.75 3.8125,8.8645834 3.8125,9.03125 3.8125,9.1979166 3.7997684,9.3125 3.78125,9.3125 3.7640625,9.3125 3.75,9.3546875 3.75,9.40625 3.75,9.4578125 3.7640625,9.5 3.78125,9.5 c 0.017187,0 0.03125,0.05625 0.03125,0.125 0,0.06875 0.014063,0.125 0.03125,0.125 0.017187,0 0.03125,0.025021 0.03125,0.055601 0,0.030581 0.028125,0.075873 0.0625,0.1006487 C 3.971875,9.9310263 4,9.9702913 4,9.9935059 4,10.044647 4.0759428,10.125 4.1242763,10.125 c 0.019245,0 0.1320706,0.09844 0.2507237,0.21875 0.1549984,0.157166 0.2381519,0.21875 0.2953666,0.21875 0.043798,0 0.079633,0.01406 0.079633,0.03125 0,0.01989 0.25,0.03125 0.6875,0.03125 0.4375,0 0.6875,0.01136 0.6875,0.03125 0,0.01719 0.021733,0.03125 0.048295,0.03125 0.062515,0 0.2017047,0.13919 0.2017047,0.201705 0,0.02656 0.014062,0.04829 0.03125,0.04829 0.017188,0 0.03125,0.04219 0.03125,0.09375 0,0.05156 0.014062,0.09375 0.03125,0.09375 0.017188,0 0.03125,0.04219 0.03125,0.09375 0,0.05156 0.014062,0.09375 0.03125,0.09375 0.017188,0 0.03125,0.05625 0.03125,0.125 0,0.06875 0.012647,0.125 0.028103,0.125 0.015457,0 0.033044,0.06212 0.039082,0.13804 0.00604,0.07592 0.00616,0.133226 2.813e-4,0.127341 -0.00589,-0.0059 -0.076207,0.01763 -0.1562697,0.05226 -0.1386422,0.05997 -0.1685032,0.06957 -0.3199407,0.102918 -0.035748,0.0079 -0.095513,0.02413 -0.1328125,0.03613 -0.037299,0.012 -0.095941,0.0259 -0.1303159,0.03088 -0.082095,0.0119 -0.1951897,0.03695 -0.2606791,0.05773 -0.1449256,0.046 -0.3900225,0.0679 -0.8354687,0.07467 l -0.3305253,0.005 0.092846,0.07813 c 0.051066,0.04297 0.1048788,0.07865 0.1195853,0.0793 0.050459,0.0022 0.2773947,0.21664 0.2298638,0.217192 -0.025781,3.13e-4 -0.1284388,0.04973 -0.2281275,0.10984 -0.099689,0.06011 -0.1981263,0.109292 -0.21875,0.10929 -0.020624,-3e-6 -0.1849053,-0.12305 -0.3650706,-0.273438 z m 7.3572611,0.244291 c -0.01633,-0.01603 -0.109835,-0.07116 -0.207793,-0.122498 l -0.178105,-0.09335 0.114346,-0.08844 c 0.06289,-0.04864 0.131438,-0.09547 0.152329,-0.104064 0.15364,-0.0632 0.960316,-0.871376 1.008447,-1.010322 0.007,-0.0201 0.0597,-0.09425 0.117187,-0.164771 0.05749,-0.07052 0.104526,-0.1383 0.104526,-0.15062 0,-0.01232 0.04044,-0.08118 0.08988,-0.153031 0.04943,-0.07185 0.09262,-0.144694 0.09598,-0.161881 0.0034,-0.01719 0.02479,-0.05234 0.04764,-0.07813 0.03814,-0.04304 0.134907,-0.251536 0.141677,-0.305255 0.0016,-0.01258 0.0243,-0.05556 0.05047,-0.0955 0.02618,-0.03995 0.05328,-0.102197 0.06024,-0.138331 0.01937,-0.1005625 0.06225,-0.1270581 0.117017,-0.07229 0.0536,0.0536 0.272098,0.06776 0.272098,0.01763 0,-0.01719 0.0221,-0.03125 0.04911,-0.03125 0.08792,0 0.138393,-0.084673 0.138393,-0.2321428 0,-0.078572 0.01406,-0.1428572 0.03125,-0.1428572 0.01719,0 0.03125,-0.042188 0.03125,-0.09375 0,-0.051562 0.01406,-0.09375 0.03125,-0.09375 0.01719,0 0.03125,-0.028125 0.03125,-0.0625 0,-0.034375 0.01406,-0.0625 0.03125,-0.0625 0.04485,0 0.04024,0.033898 -0.04662,0.3428406 -0.228278,0.8119074 -0.771337,1.7634724 -1.403049,2.4584644 -0.202791,0.223106 -0.738697,0.667445 -0.804988,0.667445 -0.02494,0 -0.0587,-0.01312 -0.07503,-0.02915 z M 9.5988663,9.7547794 C 9.54449,9.7039841 9.5,9.6399413 9.5,9.6124622 9.5,9.5849831 9.4859375,9.5625 9.46875,9.5625 9.4515625,9.5625 9.4375,9.5203125 9.4375,9.46875 9.4375,9.4171875 9.4234375,9.375 9.40625,9.375 9.3890625,9.375 9.375,9.346875 9.375,9.3125 9.375,9.278125 9.3609375,9.25 9.34375,9.25 9.3265625,9.25 9.3125,9.221875 9.3125,9.1875 9.3125,9.153125 9.2984375,9.125 9.28125,9.125 9.2640625,9.125 9.25,9.096875 9.25,9.0625 9.25,9.028125 9.2359375,9 9.21875,9 9.2015625,9 9.1875,8.971875 9.1875,8.9375 9.1875,8.903125 9.1734375,8.875 9.15625,8.875 9.1390625,8.875 9.125,8.8328125 9.125,8.78125 9.125,8.7296875 9.1109375,8.6875 9.09375,8.6875 9.0765625,8.6875 9.0625,8.659375 9.0625,8.625 9.0625,8.590625 9.0484375,8.5625 9.03125,8.5625 9.0140625,8.5625 9,8.534375 9,8.5 9,8.465625 8.9859375,8.4375 8.96875,8.4375 8.9515625,8.4375 8.9375,8.409375 8.9375,8.375 8.9375,8.340625 8.923438,8.3125 8.90625,8.3125 8.859836,8.3125 8.868428,8.220858 8.919643,8.1696428 8.9893163,8.0999697 9.125,8.1117681 9.125,8.1875 c 0,0.034375 0.014062,0.0625 0.03125,0.0625 0.017188,0 0.03125,0.025021 0.03125,0.055601 0,0.030581 0.028125,0.075873 0.0625,0.1006487 0.034375,0.024776 0.0625,0.070068 0.0625,0.1006488 0,0.030581 0.014062,0.055601 0.03125,0.055601 0.017188,0 0.03125,0.028125 0.03125,0.0625 0,0.034375 0.014062,0.0625 0.03125,0.0625 0.017188,0 0.03125,0.028125 0.03125,0.0625 0,0.034375 0.014062,0.0625 0.03125,0.0625 0.017188,0 0.03125,0.028125 0.03125,0.0625 0,0.034375 0.014062,0.0625 0.03125,0.0625 0.017188,0 0.03125,0.028125 0.03125,0.0625 0,0.034375 0.014062,0.0625 0.03125,0.0625 0.017188,0 0.03125,0.028125 0.03125,0.0625 0,0.034375 0.014062,0.0625 0.03125,0.0625 0.017188,0 0.03125,0.021562 0.03125,0.047917 0,0.066661 0.1969506,0.2570397 0.2790481,0.2697375 0.060197,0.00931 0.049054,0.028838 -0.1005584,0.1762256 L 9.6977328,9.8471344 Z M 10.6875,8.53125 C 10.6875,8.5140625 10.659375,8.5 10.625,8.5 10.58333,8.5 10.5625,8.479167 10.5625,8.4375 10.5625,8.403125 10.54844,8.375 10.53125,8.375 10.51406,8.375 10.5,8.332812 10.5,8.28125 10.5,8.229688 10.48594,8.1875 10.46875,8.1875 c -0.01719,0 -0.03125,-0.028125 -0.03125,-0.0625 0,-0.034375 -0.01406,-0.0625 -0.03125,-0.0625 -0.05729,0 -0.0322,-0.095638 0.04546,-0.1732953 0.09287,-0.092875 0.206005,-0.098893 0.267045,-0.014205 0.02478,0.034375 0.06696,0.0625 0.09375,0.0625 0.02679,0 0.06897,0.028125 0.09375,0.0625 0.02478,0.034375 0.06856,0.0625 0.09731,0.0625 0.05696,0 0.103517,0.081828 0.06138,0.10787 -0.01435,0.00887 -0.04995,0.066416 -0.07912,0.1278878 -0.02917,0.061472 -0.07658,0.1204878 -0.105362,0.1311475 -0.02878,0.01066 -0.07507,0.044967 -0.102867,0.076238 -0.05623,0.063261 -0.09008,0.072883 -0.09008,0.025607 z m 0,-1.5 C 10.6875,7.0140625 10.623214,7 10.544643,7 10.4625,7 10.382813,6.9810269 10.357143,6.9553572 10.306668,6.9048816 10.295798,6.6875 10.34375,6.6875 c 0.01719,0 0.03125,-0.05625 0.03125,-0.125 0,-0.06875 -0.01406,-0.125 -0.03125,-0.125 -0.01719,0 -0.03125,-0.028125 -0.03125,-0.0625 0,-0.034375 -0.01406,-0.0625 -0.03125,-0.0625 C 10.26406,6.3125 10.25,6.284375 10.25,6.25 c 0,-0.034375 -0.01406,-0.0625 -0.03125,-0.0625 -0.01719,0 -0.03125,-0.028125 -0.03125,-0.0625 0,-0.034375 -0.01406,-0.0625 -0.03125,-0.0625 -0.04641,0 -0.03782,-0.091642 0.01339,-0.1428572 0.02455,-0.024553 0.06674,-0.044643 0.09375,-0.044643 0.02701,0 0.04911,-0.014062 0.04911,-0.03125 0,-0.017188 0.02812,-0.03125 0.0625,-0.03125 0.03438,0 0.0625,-0.014062 0.0625,-0.03125 0,-0.017188 0.02502,-0.03125 0.0556,-0.03125 0.03058,0 0.07587,-0.028125 0.100649,-0.0625 0.08586,-0.1191244 0.28125,-0.053994 0.28125,0.09375 0,0.078667 -0.06872,0.15625 -0.138393,0.15625 -0.03555,0 -0.04911,0.031057 -0.04911,0.1124622 0,0.084663 0.02317,0.1341094 0.09375,0.2000378 0.05156,0.048167 0.09375,0.1100588 0.09375,0.1375378 0,0.027479 0.01406,0.049962 0.03125,0.049962 0.01719,0 0.03125,0.05625 0.03125,0.125 0,0.06875 -0.01406,0.125 -0.03125,0.125 -0.01719,0 -0.03125,0.064286 -0.03125,0.1428572 0,0.082143 -0.01897,0.1618303 -0.04464,0.1875 -0.05121,0.051215 -0.142857,0.059806 -0.142857,0.013393 z"
       id="path827"
       inkscape:connector-curvature="0" />
    <path
       style="fill:#98cb32;stroke-width:0.03125"
       d="m 6.625,11.688569 c 0,-0.06934 -0.014062,-0.126069 -0.03125,-0.126069 -0.017188,0 -0.03125,-0.05625 -0.03125,-0.125 0,-0.06875 -0.014062,-0.125 -0.03125,-0.125 C 6.5140625,11.3125 6.5,11.270312 6.5,11.21875 6.5,11.167188 6.4859375,11.125 6.46875,11.125 6.451562,11.125 6.4375,11.08281 6.4375,11.03125 6.4375,10.97969 6.423438,10.9375 6.40625,10.9375 6.389062,10.9375 6.375,10.91577 6.375,10.88921 6.375,10.82669 6.23581,10.6875 6.1732953,10.6875 6.1467328,10.6875 6.125,10.673438 6.125,10.65625 6.125,10.636364 5.875,10.625 5.4375,10.625 5,10.625 4.75,10.613636 4.75,10.59375 4.75,10.576563 4.714165,10.5625 4.6703666,10.5625 4.6131519,10.5625 4.5299984,10.500916 4.375,10.34375 4.2563469,10.223437 4.1435212,10.125 4.1242763,10.125 4.0759428,10.125 4,10.044647 4,9.9935059 4,9.9702913 3.971875,9.9310263 3.9375,9.90625 3.903125,9.8814738 3.875,9.8361819 3.875,9.8056013 3.875,9.7750206 3.8609375,9.75 3.84375,9.75 3.8265625,9.75 3.8125,9.69375 3.8125,9.625 3.8125,9.55625 3.7984375,9.5 3.78125,9.5 3.7640625,9.5 3.75,9.4578125 3.75,9.40625 3.75,9.3546875 3.7640625,9.3125 3.78125,9.3125 3.7997684,9.3125 3.8125,9.1979166 3.8125,9.03125 3.8125,8.8645834 3.8252316,8.75 3.84375,8.75 3.8609375,8.75 3.875,8.7078125 3.875,8.65625 3.875,8.6046875 3.8890625,8.5625 3.90625,8.5625 3.9234375,8.5625 3.9375,8.5203125 3.9375,8.46875 3.9375,8.4171875 3.9515625,8.375 3.96875,8.375 3.9859375,8.375 4,8.346875 4,8.3125 4,8.278125 4.0140625,8.25 4.03125,8.25 4.0484375,8.25 4.0625,8.221875 4.0625,8.1875 4.0625,8.153125 4.0765625,8.125 4.09375,8.125 4.1109375,8.125 4.125,8.1028038 4.125,8.075675 4.125,8.0485463 4.18125,7.972305 4.25,7.90625 4.31875,7.840195 4.375,7.7705162 4.375,7.7514084 4.375,7.7027997 4.5828625,7.5 4.6326847,7.5 4.6552444,7.5 4.6939738,7.471875 4.71875,7.4375 4.7435263,7.403125 4.7888181,7.375 4.8193988,7.375 4.8499794,7.375 4.875,7.3609375 4.875,7.34375 4.875,7.3265625 4.903125,7.3125 4.9375,7.3125 4.971875,7.3125 5,7.2984375 5,7.28125 5,7.2640625 5.028125,7.25 5.0625,7.25 5.096875,7.25 5.125,7.2359375 5.125,7.21875 5.125,7.2015625 5.18125,7.1875 5.25,7.1875 5.31875,7.1875 5.375,7.173438 5.375,7.15625 5.375,7.139062 5.445312,7.125 5.53125,7.125 5.617187,7.125 5.6875,7.110938 5.6875,7.09375 5.6875,7.076389 5.770833,7.0625 5.875,7.0625 5.9791666,7.0625 6.0625,7.048611 6.0625,7.03125 6.0625,7.0140625 6.1408481,7 6.2366072,7 6.4157916,7 6.5,7.044245 6.5,7.1383928 c 0,0.027009 0.014062,0.049107 0.03125,0.049107 0.017188,0 0.03125,0.035526 0.03125,0.078947 0,0.08039 0.2436987,0.3585532 0.3141275,0.3585532 0.018988,0 0.088567,0.05625 0.1546225,0.125 C 7.1766603,7.9013431 7.3044994,7.9170916 7.4232953,7.798295 7.4654828,7.7561078 7.5,7.7058847 7.5,7.6866884 7.5,7.6125181 7.5934978,7.5625 7.7321428,7.5625 7.8107144,7.5625 7.875,7.5765625 7.875,7.59375 7.875,7.6109375 7.93125,7.625 8,7.625 c 0.06875,0 0.125,0.014062 0.125,0.03125 0,0.017188 0.042188,0.03125 0.09375,0.03125 0.051562,0 0.09375,0.014062 0.09375,0.03125 0,0.017188 0.05625,0.03125 0.125,0.03125 0.06875,0 0.125,0.014062 0.125,0.03125 0,0.047952 0.2173816,0.037083 0.2678572,-0.013393 0.024553,-0.024554 0.044643,-0.080804 0.044643,-0.125 0,-0.044197 0.014062,-0.080357 0.03125,-0.080357 0.017188,0 0.03125,-0.042187 0.03125,-0.09375 0,-0.051563 0.014062,-0.09375 0.03125,-0.09375 0.046414,0 0.037822,-0.091642 -0.013393,-0.1428572 C 8.924,7.2007856 8.8352272,7.1875 8.6570616,7.1875 8.4294181,7.1875 8.3955441,7.179635 8.3267047,7.1107953 8.2490475,7.0331384 8.2239622,6.9375 8.28125,6.9375 c 0.017188,0 0.03125,-0.021464 0.03125,-0.047697 0,-0.062014 0.2652881,-0.3273025 0.3273025,-0.3273025 0.026234,0 0.047697,0.014062 0.047697,0.03125 0,0.018939 0.1354166,0.03125 0.34375,0.03125 0.2083334,0 0.34375,0.012311 0.34375,0.03125 0,0.047426 0.1546228,0.037342 0.2053572,-0.013393 C 9.6049106,6.6183034 9.625,6.5761159 9.625,6.5491072 9.625,6.5220981 9.6390625,6.5 9.65625,6.5 9.673438,6.5 9.6875,6.458984 9.6875,6.408854 9.6875,6.358724 9.704952,6.311891 9.726283,6.3047805 9.7779084,6.2875722 9.6800584,6.1875 9.6116072,6.1875 9.5845981,6.1875 9.5625,6.1734375 9.5625,6.15625 9.5625,6.1390625 9.534375,6.125 9.5,6.125 9.465625,6.125 9.4375,6.1109375 9.4375,6.09375 9.4375,6.0765625 9.409375,6.0625 9.375,6.0625 9.340625,6.0625 9.3125,6.0484375 9.3125,6.03125 9.3125,6.0140625 9.284375,6 9.25,6 9.215625,6 9.1875,5.9859375 9.1875,5.96875 9.1875,5.9515625 9.159375,5.9375 9.125,5.9375 9.090625,5.9375 9.0625,5.9234375 9.0625,5.90625 9.0625,5.8890625 9.034375,5.875 9,5.875 8.965625,5.875 8.9375,5.8609375 8.9375,5.84375 8.9375,5.8265625 8.909375,5.8125 8.875,5.8125 8.840625,5.8125 8.8125,5.7984375 8.8125,5.78125 8.8125,5.7640625 8.7421875,5.75 8.65625,5.75 8.5272956,5.75 8.5,5.7597131 8.5,5.8056012 8.5,5.8361819 8.471875,5.8814737 8.4375,5.90625 8.403125,5.9310263 8.375,5.9706759 8.375,5.9943609 8.375,6.0180459 8.3328125,6.0768334 8.28125,6.125 8.1905547,6.2097219 8.1492353,6.375 8.21875,6.375 8.2359375,6.375 8.25,6.4248578 8.25,6.4857953 8.25,6.6360316 8.1360316,6.75 7.9857953,6.75 7.8958334,6.75 7.875,6.7617522 7.875,6.8125 7.875,6.846875 7.8609375,6.875 7.84375,6.875 7.8265625,6.875 7.8125,6.903125 7.8125,6.9375 7.8125,6.9836309 7.7916666,7 7.7329547,7 7.6516769,7 7.5,6.8761434 7.5,6.8097734 7.5,6.7895234 7.468359,6.7448034 7.429688,6.7103954 7.381994,6.6679604 7.371941,6.6433244 7.398438,6.6338134 7.4446081,6.6172403 7.4517609,6.4375 7.40625,6.4375 7.3890625,6.4375 7.375,6.4161459 7.375,6.3900462 7.375,6.33671 6.9883206,5.9375 6.9366581,5.9375 c -0.018287,0 -0.068238,0.034989 -0.1110034,0.077754 L 6.7479007,6.093008 6.920146,6.2652537 c 0.094735,0.094735 0.193645,0.1722456 0.2198,0.1722456 0.034647,0 0.047554,0.033928 0.047554,0.125 0,0.1041666 -0.010417,0.125 -0.0625,0.125 -0.034375,0 -0.0625,0.014062 -0.0625,0.03125 C 7.0625,6.7359375 7.034375,6.75 7,6.75 6.965625,6.75 6.9375,6.7359375 6.9375,6.71875 6.9375,6.7015625 6.9157672,6.6875 6.8892047,6.6875 6.8344506,6.6875 6.6875,6.5514378 6.6875,6.5007412 6.6875,6.4823987 6.6104619,6.3903531 6.5163044,6.2961956 6.3502153,6.1301066 6.3399616,6.125 6.1725544,6.125 6.0776494,6.125 6,6.1390625 6,6.15625 6,6.1734375 5.9749794,6.1875 5.9443988,6.1875 5.9138181,6.1875 5.8685263,6.215625 5.84375,6.25 5.8189737,6.284375 5.7736819,6.3125 5.7431012,6.3125 5.7106328,6.3125 5.6875,6.3356328 5.6875,6.3681012 5.6875,6.3986819 5.659375,6.4439737 5.625,6.46875 5.590625,6.4935263 5.5625,6.5357137 5.5625,6.5625 5.5625,6.5892862 5.534375,6.6314737 5.5,6.65625 5.465625,6.6810263 5.4375,6.7202912 5.4375,6.7435059 5.4375,6.8007341 5.3593378,6.875 5.2991072,6.875 5.2720981,6.875 5.25,6.8890625 5.25,6.90625 5.25,6.9234375 5.221875,6.9375 5.1875,6.9375 5.153125,6.9375 5.125,6.9515625 5.125,6.96875 5.125,6.9859375 5.06875,7 5,7 4.93125,7 4.875,6.9859375 4.875,6.96875 4.875,6.9515625 4.8110797,6.9375 4.7329547,6.9375 4.6238075,6.9375 4.5731441,6.919735 4.5142047,6.8607953 4.44839,6.7949809 4.4375,6.7550506 4.4375,6.5795453 4.4375,6.464015 4.4510997,6.375 4.46875,6.375 4.4859375,6.375 4.5,6.3529019 4.5,6.3258928 4.5,6.2627353 4.5752353,6.1875 4.6383928,6.1875 c 0.027009,0 0.049107,-0.014062 0.049107,-0.03125 0,-0.017188 0.077983,-0.03125 0.1732953,-0.03125 0.1423263,0 0.1870034,-0.013708 0.25,-0.076705 C 5.1863381,5.9727528 5.21723,5.8125 5.15625,5.8125 5.1390625,5.8125 5.125,5.7703125 5.125,5.71875 5.125,5.6671875 5.1109375,5.625 5.09375,5.625 5.076562,5.625 5.0625,5.56108 5.0625,5.4829547 c 0,-0.1091472 0.017765,-0.1598106 0.076705,-0.21875 0.042188,-0.042187 0.098438,-0.076705 0.125,-0.076705 0.026563,0 0.048295,-0.014062 0.048295,-0.03125 C 5.3125,5.1390625 5.3546875,5.125 5.40625,5.125 5.4578125,5.125 5.5,5.1109375 5.5,5.09375 5.5,5.0765625 5.5215625,5.0625 5.5479166,5.0625 5.6190178,5.0625 5.8125,4.8559597 5.8125,4.7800594 5.8125,4.6860363 5.8863059,4.625 6,4.625 6.1326703,4.625 6.1875,4.5610319 6.1875,4.40625 6.1875,4.2806253 6.2403691,4.1875 6.3116884,4.1875 6.3569859,4.1875 6.5,4.3305141 6.5,4.3758116 6.5,4.4606391 6.5933859,4.5 6.7946428,4.5 6.9107144,4.5 7,4.5135869 7,4.53125 7,4.5484375 7.0783481,4.5625 7.1741072,4.5625 7.3689303,4.5625 7.4375,4.5183366 7.4375,4.3928572 7.4375,4.3486606 7.4515625,4.3125 7.46875,4.3125 7.4859375,4.3125 7.5,4.284375 7.5,4.25 7.5,4.215625 7.514062,4.1875 7.53125,4.1875 7.548438,4.1875 7.5625,4.165402 7.5625,4.138393 7.5625,4.111384 7.582589,4.069197 7.607143,4.044643 7.6578772,3.9939084 7.8125,3.9838244 7.8125,4.03125 c 0,0.017188 0.028125,0.03125 0.0625,0.03125 0.047508,0 0.0625,-0.020833 0.0625,-0.086851 C 7.9375,3.9246466 7.9117022,3.8702034 7.875,3.84375 7.8104478,3.7972234 7.7885031,3.6875 7.84375,3.6875 7.8609375,3.6875 7.875,3.659375 7.875,3.625 c 0,-0.050748 0.020833,-0.0625 0.1107953,-0.0625 0.076515,0 0.1349675,-0.024172 0.1889206,-0.078125 L 8.2528409,3.40625 8.1747159,3.328125 C 8.1169653,3.2703744 8.0634072,3.25 7.9693481,3.25 7.8603194,3.25 7.8220934,3.2299881 7.7023025,3.1101974 7.5422041,2.9500988 7.5125262,2.7998164 7.625,2.71875 7.659375,2.693974 7.6875,2.654709 7.6875,2.631494 c 0,-0.093378 0.087849,-0.1314958 0.3024553,-0.1312377 0.4778053,5.747e-4 1.2091603,0.1230709 1.7066238,0.2858459 0.3317029,0.1085366 0.8987989,0.3717974 1.1578169,0.537489 0.09794,0.06265 0.202404,0.1138725 0.232148,0.1138284 0.02975,-3.13e-5 0.135645,-0.049263 0.235334,-0.109375 0.09969,-0.060112 0.198126,-0.1092922 0.21875,-0.1092894 0.08042,1.13e-5 0.705897,0.5627269 0.949659,0.8543719 0.283184,0.3388119 0.58858,0.7847534 0.78456,1.1456228 0.432916,0.7971509 0.705384,1.8714603 0.705384,2.78125 0,0.5540522 -0.116385,1.3125 -0.201404,1.3125 -0.01586,0 -0.02883,0.028125 -0.02883,0.0625 0,0.034375 -0.01406,0.0625 -0.03125,0.0625 -0.01719,0 -0.03125,0.042188 -0.03125,0.09375 0,0.051562 -0.01406,0.09375 -0.03125,0.09375 -0.01719,0 -0.03125,0.064286 -0.03125,0.1428572 C 13.625,9.9153266 13.574522,10 13.486607,10 c -0.02701,0 -0.04911,0.01406 -0.04911,0.03125 0,0.04971 -0.218279,0.03619 -0.271274,-0.01681 -0.05277,-0.052766 -0.05185,-0.059217 0.06412,-0.451941 0.0769,-0.2604206 0.107644,-0.3852722 0.12829,-0.5209909 0.0057,-0.037327 0.02057,-0.1145163 0.03309,-0.1715332 0.07708,-0.3509234 0.07708,-1.3890284 0,-1.7399518 -0.01252,-0.057017 -0.02742,-0.1342066 -0.03309,-0.1715332 -0.03345,-0.2198681 -0.164378,-0.6965831 -0.222483,-0.8100534 -0.0242,-0.047266 -0.03629,-0.085937 -0.02686,-0.085937 0.0094,0 -0.0059,-0.035156 -0.03404,-0.078125 -0.02815,-0.042969 -0.04139,-0.078125 -0.02942,-0.078125 0.01197,0 -0.01082,-0.052734 -0.05066,-0.1171875 -0.03984,-0.064453 -0.06972,-0.1204478 -0.06641,-0.1244328 0.01241,-0.014937 -0.09288,-0.2446016 -0.132775,-0.2896297 -0.02285,-0.025781 -0.04428,-0.060937 -0.04764,-0.078125 -0.0034,-0.017188 -0.04655,-0.090034 -0.09598,-0.1618806 -0.04943,-0.071847 -0.08988,-0.140711 -0.08988,-0.1530313 0,-0.012321 -0.04922,-0.082466 -0.109375,-0.1558787 -0.06016,-0.073413 -0.109375,-0.1431438 -0.109375,-0.1549575 0,-0.011814 -0.03516,-0.06326 -0.07813,-0.114326 l -0.07813,-0.092846 -0.005,0.3305225 c -0.0068,0.4454462 -0.02867,0.6905431 -0.07467,0.8354687 -0.02079,0.065489 -0.04583,0.1785838 -0.05773,0.2606791 -0.005,0.034375 -0.01888,0.093017 -0.03088,0.1303159 -0.012,0.037299 -0.02826,0.097065 -0.03613,0.1328125 -0.03198,0.1452447 -0.04266,0.1794863 -0.09287,0.2976632 -0.02881,0.067811 -0.0589,0.1521856 -0.06686,0.1875 -0.008,0.035315 -0.01794,0.078271 -0.02217,0.095458 -0.0042,0.017188 -0.03182,0.076806 -0.06131,0.132485 -0.02949,0.055679 -0.05472,0.1119294 -0.05606,0.125 -0.0013,0.013071 -0.01814,0.05189 -0.03732,0.086265 -0.01918,0.034375 -0.03575,0.069531 -0.03681,0.078125 -0.0011,0.00859 -0.0431,0.1 -0.09342,0.203125 -0.05031,0.103125 -0.09221,0.1945312 -0.0931,0.203125 -8.91e-4,0.00859 -0.03667,0.071875 -0.07951,0.140625 -0.137266,0.2202859 -0.188642,0.3112041 -0.207494,0.3671875 -0.01966,0.058389 -0.07362,0.075568 -0.07362,0.023437 0,-0.017188 -0.02502,-0.03125 -0.0556,-0.03125 -0.03058,0 -0.07587,-0.028125 -0.100649,-0.0625 -0.02478,-0.034375 -0.06696,-0.0625 -0.09375,-0.0625 -0.02679,0 -0.06897,-0.028125 -0.09375,-0.0625 -0.06104,-0.084688 -0.17417,-0.078671 -0.267045,0.014205 -0.07766,0.077657 -0.102743,0.1732953 -0.04546,0.1732953 0.01719,0 0.03125,0.028125 0.03125,0.0625 0,0.034375 0.01406,0.0625 0.03125,0.0625 0.01719,0 0.03125,0.042188 0.03125,0.09375 0,0.051562 0.01406,0.09375 0.03125,0.09375 0.01719,0 0.03125,0.028125 0.03125,0.0625 0,0.040761 0.02083,0.0625 0.0599,0.0625 0.03294,0 0.06621,0.017578 0.07392,0.039063 0.0094,0.026095 0.03623,0.014058 0.08093,-0.03626 0.121997,-0.1373453 0.108818,-0.03836 -0.01501,0.1127597 -0.06688,0.08162 -0.121602,0.1580475 -0.121602,0.1698397 0,0.011792 -0.09492,0.127079 -0.210937,0.2561937 C 10.313672,9.1707103 10.21875,9.2872294 10.21875,9.3005272 10.21875,9.3563994 10.045064,9.5 9.9774869,9.5 9.8951744,9.5 9.6875,9.3105184 9.6875,9.2354166 9.6875,9.2090625 9.6734375,9.1875 9.65625,9.1875 9.6390625,9.1875 9.625,9.159375 9.625,9.125 9.625,9.090625 9.6109375,9.0625 9.59375,9.0625 9.5765625,9.0625 9.5625,9.034375 9.5625,9 9.5625,8.965625 9.5484375,8.9375 9.53125,8.9375 9.5140625,8.9375 9.5,8.909375 9.5,8.875 9.5,8.840625 9.4859375,8.8125 9.46875,8.8125 9.4515625,8.8125 9.4375,8.784375 9.4375,8.75 9.4375,8.715625 9.4234375,8.6875 9.40625,8.6875 9.3890625,8.6875 9.375,8.659375 9.375,8.625 9.375,8.590625 9.3609375,8.5625 9.34375,8.5625 9.3265625,8.5625 9.3125,8.5374794 9.3125,8.5068988 9.3125,8.4763181 9.284375,8.4310263 9.25,8.40625 9.215625,8.3814738 9.1875,8.3361819 9.1875,8.3056013 9.1875,8.2750206 9.1734375,8.25 9.15625,8.25 9.1390625,8.25 9.125,8.221875 9.125,8.1875 9.125,8.1117681 8.9893163,8.0999697 8.9196428,8.1696428 8.8684278,8.2208578 8.8598363,8.3125 8.90625,8.3125 c 0.017188,0 0.03125,0.028125 0.03125,0.0625 0,0.034375 0.014062,0.0625 0.03125,0.0625 C 8.9859375,8.4375 9,8.465625 9,8.5 c 0,0.034375 0.014062,0.0625 0.03125,0.0625 0.017188,0 0.03125,0.028125 0.03125,0.0625 0,0.034375 0.014062,0.0625 0.03125,0.0625 0.017188,0 0.03125,0.042188 0.03125,0.09375 0,0.051562 0.014062,0.09375 0.03125,0.09375 0.017188,0 0.03125,0.028125 0.03125,0.0625 C 9.1875,8.971875 9.2015625,9 9.21875,9 9.2359375,9 9.25,9.028125 9.25,9.0625 c 0,0.034375 0.014062,0.0625 0.03125,0.0625 0.017188,0 0.03125,0.028125 0.03125,0.0625 0,0.034375 0.014062,0.0625 0.03125,0.0625 0.017188,0 0.03125,0.028125 0.03125,0.0625 0,0.034375 0.014062,0.0625 0.03125,0.0625 0.017188,0 0.03125,0.042188 0.03125,0.09375 0,0.051562 0.014062,0.09375 0.03125,0.09375 0.017188,0 0.03125,0.022483 0.03125,0.049962 0,0.027479 0.0445,0.091532 0.098889,0.1423381 l 0.098889,0.092376 -0.1838481,0.1857869 c -0.1011166,0.102183 -0.1959378,0.185787 -0.2107144,0.185787 -0.014776,0 -0.1277162,0.09062 -0.2509781,0.201375 -0.1232616,0.110757 -0.2311434,0.199387 -0.2397372,0.196956 -0.00859,-0.0024 -0.1070312,0.06996 -0.21875,0.160864 -0.1117187,0.09091 -0.2242187,0.173314 -0.25,0.183128 -0.025781,0.0098 -0.088865,0.0472 -0.1401853,0.08307 -0.05132,0.03588 -0.1216328,0.0806 -0.15625,0.09939 -0.166575,0.09042 -0.3202344,0.181452 -0.3910647,0.231685 -0.042969,0.03047 -0.088831,0.05662 -0.1019162,0.05809 -0.013085,0.0015 -0.1044916,0.04132 -0.203125,0.08854 -0.098634,0.04722 -0.186365,0.08673 -0.1949588,0.08779 -0.00859,0.0011 -0.050781,0.02139 -0.09375,0.04517 -0.042969,0.02378 -0.081788,0.04057 -0.086265,0.03732 -0.00448,-0.0033 -0.053696,0.01825 -0.109375,0.04779 -0.055679,0.02954 -0.1328756,0.05843 -0.1715475,0.0642 C 6.63228,11.813551 6.625,11.801584 6.625,11.688569 Z m 4.205357,-4.6707118 c 0.02567,-0.02567 0.04464,-0.1053572 0.04464,-0.1875 0,-0.078572 0.01406,-0.1428572 0.03125,-0.1428572 0.01719,0 0.03125,-0.05625 0.03125,-0.125 0,-0.06875 -0.01406,-0.125 -0.03125,-0.125 -0.01719,0 -0.03125,-0.022483 -0.03125,-0.049962 0,-0.027479 -0.04219,-0.089371 -0.09375,-0.1375378 -0.07058,-0.065928 -0.09375,-0.1153744 -0.09375,-0.2000378 0,-0.081405 0.01356,-0.1124622 0.04911,-0.1124622 0.06968,0 0.138393,-0.077583 0.138393,-0.15625 0,-0.1477441 -0.19539,-0.2128744 -0.28125,-0.09375 -0.02478,0.034375 -0.07007,0.0625 -0.100649,0.0625 -0.03058,0 -0.0556,0.014062 -0.0556,0.03125 0,0.017188 -0.02812,0.03125 -0.0625,0.03125 -0.03438,0 -0.0625,0.014062 -0.0625,0.03125 0,0.017188 -0.0221,0.03125 -0.04911,0.03125 -0.02701,0 -0.0692,0.020089 -0.09375,0.044643 -0.05122,0.051215 -0.05981,0.1428572 -0.01339,0.1428572 0.01719,0 0.03125,0.028125 0.03125,0.0625 0,0.034375 0.01406,0.0625 0.03125,0.0625 0.01719,0 0.03125,0.028125 0.03125,0.0625 0,0.034375 0.01406,0.0625 0.03125,0.0625 0.01719,0 0.03125,0.028125 0.03125,0.0625 0,0.034375 0.01406,0.0625 0.03125,0.0625 0.01719,0 0.03125,0.05625 0.03125,0.125 0,0.06875 -0.01406,0.125 -0.03125,0.125 -0.04795,0 -0.03708,0.2173816 0.01339,0.2678572 C 10.382813,6.9810269 10.4625,7 10.544643,7 c 0.07857,0 0.142857,0.014062 0.142857,0.03125 0,0.046414 0.09164,0.037822 0.142857,-0.013393 z M 4.9140625,4.2032553 C 4.8925781,4.1788531 4.875,4.1231381 4.875,4.0794441 4.875,4.0144691 4.8600156,4 4.7927281,4 4.7467781,4 4.6828359,4.031042 4.6478956,4.070312 4.6054606,4.118006 4.5808246,4.128059 4.5713136,4.101562 4.5636016,4.0800781 4.5363653,4.0625 4.5107887,4.0625 4.4498741,4.0625 4.375,3.98619 4.375,3.9241072 4.375,3.8970981 4.3609375,3.875 4.34375,3.875 4.3265625,3.875 4.3125,3.81875 4.3125,3.75 4.3125,3.68125 4.3265625,3.625 4.34375,3.625 4.3609375,3.625 4.375,3.596875 4.375,3.5625 4.375,3.528125 4.3890625,3.5 4.40625,3.5 4.4234375,3.5 4.4375,3.471875 4.4375,3.4375 4.4375,3.403125 4.4515625,3.375 4.46875,3.375 4.4859375,3.375 4.5,3.3402681 4.5,3.2978178 v -0.077182 l 0.1796875,0.1083519 c 0.098828,0.059593 0.2037316,0.1083881 0.2331191,0.1084322 0.029387,3.12e-5 0.1403212,-0.054859 0.2465203,-0.1220072 l 0.193089,-0.1220875 0.073792,0.073792 C 5.4667934,3.3077028 5.5,3.3595375 5.5,3.3823059 5.5,3.4050741 5.528125,3.4439738 5.5625,3.46875 5.6125938,3.5048556 5.625,3.5496466 5.625,3.6943988 5.625,3.7939663 5.6109784,3.875 5.59375,3.875 5.5765625,3.875 5.5625,3.8967328 5.5625,3.9232953 5.5625,3.98581 5.42331,4.125 5.3607953,4.125 5.3342328,4.125 5.3125,4.1390625 5.3125,4.15625 5.3125,4.173438 5.284375,4.1875 5.25,4.1875 c -0.034375,0 -0.0625,0.014062 -0.0625,0.03125 0,0.047815 -0.2291294,0.034831 -0.2734375,-0.015495 z M 6.875,4.09375 C 6.875,4.0765625 6.8532672,4.0625 6.8267047,4.0625 6.7507684,4.0625 6.625,3.9172466 6.625,3.8295453 6.625,3.7857953 6.6109375,3.75 6.59375,3.75 6.5765625,3.75 6.5625,3.721875 6.5625,3.6875 6.5625,3.6365778 6.5416666,3.625 6.4500378,3.625 6.3653744,3.625 6.3159284,3.6481734 6.25,3.71875 6.2018334,3.7703125 6.1319056,3.8125 6.094605,3.8125 6.0151909,3.8125 5.9375,3.7440625 5.9375,3.6741072 5.9375,3.6470981 5.9234375,3.625 5.90625,3.625 5.8880209,3.625 5.875,3.5208334 5.875,3.375 c 0,-0.1458334 0.013021,-0.25 0.03125,-0.25 0.017188,0 0.03125,-0.036161 0.03125,-0.080357 0,-0.1168911 0.050335,-0.1521398 0.3680894,-0.2577646 C 6.5991022,2.6893114 7.5901497,2.4789517 7.4140625,2.5515937 7.3925781,2.5604568 7.375,2.5946615 7.375,2.6276042 7.375,2.6605469 7.3609375,2.6875 7.34375,2.6875 7.3265625,2.6875 7.3125,2.715625 7.3125,2.75 7.3125,2.784375 7.298438,2.8125 7.28125,2.8125 7.264062,2.8125 7.25,2.840625 7.25,2.875 c 0,0.034375 -0.014062,0.0625 -0.03125,0.0625 -0.055247,0 -0.033302,0.1097235 0.03125,0.15625 0.034375,0.024776 0.0625,0.070068 0.0625,0.1006488 0,0.030581 0.014062,0.055601 0.03125,0.055601 0.017188,0 0.03125,0.070312 0.03125,0.15625 0,0.085937 -0.014062,0.15625 -0.03125,0.15625 -0.017188,0 -0.03125,0.042187 -0.03125,0.09375 C 7.3125,3.7078125 7.2984375,3.75 7.28125,3.75 7.2640625,3.75 7.25,3.778125 7.25,3.8125 7.25,3.846875 7.235938,3.875 7.21875,3.875 7.201562,3.875 7.1875,3.917187 7.1875,3.96875 7.1875,4.041667 7.173611,4.0625 7.125,4.0625 7.090625,4.0625 7.0625,4.076562 7.0625,4.09375 7.0625,4.110938 7.020313,4.125 6.96875,4.125 6.9171875,4.125 6.875,4.1109375 6.875,4.09375 Z"
       id="path825"
       inkscape:connector-curvature="0" />
    <path
       style="fill:#3232fe;stroke-width:0.03125"
       d="m 8.9375,13.350038 c 0,-0.01306 0.028125,-0.04401 0.0625,-0.06879 0.034375,-0.02478 0.0625,-0.07007 0.0625,-0.100649 0,-0.03058 0.014062,-0.0556 0.03125,-0.0556 0.017188,0 0.03125,-0.02187 0.03125,-0.04861 0,-0.02673 0.084375,-0.131423 0.1875,-0.232644 L 9.5,12.659711 v -0.236105 c 0,-0.136571 0.013174,-0.236106 0.03125,-0.236106 0.018939,0 0.03125,-0.135417 0.03125,-0.34375 0,-0.208333 0.012311,-0.34375 0.03125,-0.34375 0.017188,0 0.03125,-0.02812 0.03125,-0.0625 0,-0.03438 0.014062,-0.0625 0.03125,-0.0625 0.017188,0 0.03125,-0.0214 0.03125,-0.04755 0,-0.05356 0.324131,-0.389946 0.375741,-0.389946 0.0474,0 0.186759,-0.145362 0.186759,-0.194806 0,-0.02277 0.02812,-0.06167 0.0625,-0.08644 0.03438,-0.02478 0.0625,-0.07007 0.0625,-0.100649 0,-0.03058 0.01406,-0.0556 0.03125,-0.0556 0.01719,0 0.03125,-0.04219 0.03125,-0.09375 0,-0.05156 0.01406,-0.09375 0.03125,-0.09375 0.01736,0 0.03125,-0.08333 0.03125,-0.1875 0,-0.1639494 -0.0075,-0.1875 -0.0599,-0.1875 -0.03294,0 -0.0681,-0.017578 -0.07813,-0.039063 -0.01458,-0.03125 -0.02187,-0.03125 -0.03646,0 C 10.29918,9.954872 9.7913309,9.952064 9.7344449,9.895176 9.6988497,9.8595641 9.7215403,9.8237334 9.8773131,9.6695859 9.9791659,9.5687959 10.0625,9.5034694 10.0625,9.5244156 c 0,0.021483 0.04087,0.038084 0.09375,0.038084 0.05156,0 0.09375,-0.014062 0.09375,-0.03125 0,-0.017188 0.02812,-0.03125 0.0625,-0.03125 0.03438,0 0.0625,-0.014062 0.0625,-0.03125 0,-0.017188 0.02812,-0.03125 0.0625,-0.03125 0.03438,0 0.0625,-0.014062 0.0625,-0.03125 0,-0.017188 0.02502,-0.03125 0.0556,-0.03125 0.03058,0 0.07587,-0.028125 0.100649,-0.0625 0.02478,-0.034375 0.07007,-0.0625 0.100649,-0.0625 0.03058,0 0.0556,-0.014062 0.0556,-0.03125 0,-0.017188 0.02812,-0.03125 0.0625,-0.03125 0.03438,0 0.0625,-0.014062 0.0625,-0.03125 0,-0.017188 0.02173,-0.03125 0.04829,-0.03125 0.07594,0 0.201705,-0.1452534 0.201705,-0.2329547 0,-0.04375 -0.01406,-0.079545 -0.03125,-0.079545 -0.01719,0 -0.03125,-0.035625 -0.03125,-0.079167 0,-0.048716 -0.04181,-0.1209771 -0.108699,-0.1878653 l -0.108698,-0.1086987 0.07404,-0.1318203 c 0.08287,-0.1475375 0.173812,-0.2198428 0.196853,-0.1565116 0.0081,0.022182 0.0671,0.039063 0.136607,0.039063 0.06732,0 0.122396,0.014062 0.122396,0.03125 0,0.017361 0.08333,0.03125 0.1875,0.03125 0.104167,0 0.1875,0.013889 0.1875,0.03125 0,0.017188 0.07031,0.03125 0.15625,0.03125 0.08594,0 0.15625,0.014062 0.15625,0.03125 0,0.017188 0.0214,0.03125 0.04755,0.03125 0.05418,0 0.389946,0.3244188 0.389946,0.3767706 0,0.018909 0.05625,0.088424 0.125,0.1544794 0.06875,0.066055 0.125,0.1422962 0.125,0.169425 0,0.027129 0.01406,0.049325 0.03125,0.049325 0.01719,0 0.03125,0.042188 0.03125,0.09375 0,0.051562 0.01406,0.09375 0.03125,0.09375 0.01719,0 0.03125,0.042188 0.03125,0.09375 0,0.051562 0.01406,0.09375 0.03125,0.09375 0.0172,0 0.03126,0.042188 0.03126,0.09375 0,0.051562 0.01406,0.09375 0.03125,0.09375 0.01719,0 0.03125,0.042188 0.03125,0.09375 0,0.051562 0.01282,0.09375 0.02848,0.09375 0.03578,0 0.02678,0.057402 -0.02327,0.148438 -0.02126,0.03867 -0.02999,0.07031 -0.01939,0.07031 0.0106,0 -0.009,0.0457 -0.0435,0.101563 -0.03452,0.05586 -0.06598,0.115625 -0.06991,0.132812 -0.01712,0.07494 -0.100885,0.253939 -0.138931,0.296875 -0.02285,0.02578 -0.03944,0.05391 -0.03689,0.0625 0.0026,0.0086 -0.04063,0.08144 -0.09598,0.161881 -0.05534,0.08044 -0.100627,0.156336 -0.100627,0.168656 0,0.01232 -0.04704,0.0801 -0.104526,0.15062 -0.05749,0.07052 -0.110223,0.144667 -0.117187,0.164771 -0.04864,0.140415 -0.867425,0.959504 -1.006986,1.007359 -0.02031,0.007 -0.09462,0.0597 -0.165144,0.117187 -0.07052,0.05749 -0.1383,0.104526 -0.15062,0.104526 -0.01232,0 -0.08118,0.04044 -0.153031,0.08988 -0.07185,0.04943 -0.139702,0.0881 -0.150788,0.08594 -0.01109,-0.0022 -0.04624,0.01927 -0.07813,0.04764 -0.0508,0.0452 -0.25221,0.142272 -0.316348,0.152472 -0.01258,0.002 -0.06857,0.03188 -0.124433,0.06641 -0.05586,0.03452 -0.101562,0.05297 -0.101562,0.041 0,-0.01197 -0.03516,0.0013 -0.07813,0.02942 -0.042969,0.02815 -0.078125,0.04347 -0.078125,0.03404 0,-0.0094 -0.038672,0.0027 -0.085937,0.02686 C 9.6612416,13.23361 8.9375,13.402963 8.9375,13.350038 Z m -2.5,-0.113059 c -0.1289063,-0.03798 -0.2660156,-0.08624 -0.3046875,-0.107243 -0.038672,-0.021 -0.070312,-0.03033 -0.070312,-0.02074 0,0.0096 -0.035156,-0.0056 -0.078125,-0.03374 -0.042969,-0.02815 -0.078125,-0.04139 -0.078125,-0.02942 0,0.01197 -0.045703,-0.0065 -0.1015625,-0.041 -0.055859,-0.03452 -0.1118541,-0.06441 -0.1244328,-0.06641 -0.064138,-0.0102 -0.2655503,-0.107276 -0.3163481,-0.152472 -0.031883,-0.02837 -0.060008,-0.04496 -0.0625,-0.03689 -0.00249,0.0081 -0.070347,-0.03059 -0.1507872,-0.08594 -0.08044,-0.05534 -0.156336,-0.100627 -0.1686563,-0.100627 -0.012321,0 -0.082466,-0.04922 -0.1558787,-0.109375 -0.073413,-0.06016 -0.1431438,-0.109375 -0.1549575,-0.109375 -0.011814,0 -0.06326,-0.03516 -0.114326,-0.07813 l -0.092846,-0.07813 0.3305225,-0.005 c 0.4454462,-0.0068 0.6905431,-0.02867 0.8354687,-0.07467 0.065489,-0.02079 0.1785838,-0.04583 0.2606791,-0.05773 0.034375,-0.005 0.093017,-0.01888 0.1303159,-0.03088 0.037299,-0.012 0.097065,-0.02826 0.1328125,-0.03613 0.1452447,-0.03198 0.1794863,-0.04266 0.2976632,-0.09287 0.24853,-0.105587 0.2360834,-0.123003 0.2360834,0.330354 0,0.248804 -0.012026,0.404456 -0.03125,0.404456 -0.017188,0 -0.03125,0.05625 -0.03125,0.125 0,0.06875 0.014062,0.125 0.03125,0.125 0.017361,0 0.03125,0.08333 0.03125,0.1875 0,0.104167 0.013889,0.1875 0.03125,0.1875 0.017188,0 0.03125,0.01406 0.03125,0.03125 0,0.04197 -0.038146,0.03656 -0.3125,-0.04427 z"
       id="path823"
       inkscape:connector-curvature="0" />
    <path
       style="fill:#009800;stroke-width:0.03125"
       d="m 7.5526206,13.448454 c -0.00776,-0.0078 -0.082689,-0.01857 -0.1665165,-0.02403 -0.083827,-0.0055 -0.1990632,-0.02017 -0.25608,-0.0327 C 7.0730072,13.379205 6.9958175,13.36409 6.9584909,13.358139 6.7288812,13.321529 6.6875,13.274339 6.6875,13.049107 6.6875,12.953348 6.6734375,12.875 6.65625,12.875 6.6390625,12.875 6.625,12.81875 6.625,12.75 c 0,-0.06875 0.013654,-0.125 0.030343,-0.125 0.017659,0 0.033988,-0.173092 0.039063,-0.414062 0.0048,-0.227735 0.015751,-0.408152 0.024345,-0.400927 0.00859,0.0072 0.075391,-0.02459 0.1484375,-0.0707 C 6.9402344,11.693194 7,11.663168 7,11.672583 c 0,0.0094 0.031641,-4.6e-4 0.070312,-0.02194 0.038672,-0.02148 0.077344,-0.03993 0.085937,-0.04099 0.00859,-0.0011 0.092969,-0.03899 0.1875,-0.08427 0.094531,-0.04528 0.1859375,-0.08512 0.203125,-0.08854 0.017188,-0.0034 0.066406,-0.03115 0.109375,-0.06162 0.07083,-0.05023 0.2244897,-0.141268 0.3910647,-0.231685 0.034617,-0.01879 0.1049297,-0.06352 0.15625,-0.09939 0.051321,-0.03588 0.1144041,-0.07326 0.1401853,-0.08307 0.025781,-0.0098 0.1382813,-0.09222 0.25,-0.183129 0.1117188,-0.09091 0.2053675,-0.158991 0.2081084,-0.151301 0.00274,0.0077 0.1106225,-0.08094 0.2397372,-0.196957 C 9.1707103,10.313672 9.2884794,10.21875 9.3033047,10.21875 9.31813,10.21875 9.4066431,10.141406 9.5,10.046875 9.6594431,9.8854266 9.75,9.8344881 9.75,9.90625 c 0,0.048099 0.552932,0.040593 0.575521,-0.00781 0.01458,-0.03125 0.02187,-0.03125 0.03646,0 0.01003,0.021484 0.04518,0.039063 0.07813,0.039063 0.05237,0 0.0599,0.023551 0.0599,0.1875 0,0.104167 -0.01389,0.1875 -0.03125,0.1875 -0.01719,0 -0.03125,0.04219 -0.03125,0.09375 0,0.05156 -0.01406,0.09375 -0.03125,0.09375 -0.01719,0 -0.03125,0.02502 -0.03125,0.0556 0,0.03058 -0.02812,0.07587 -0.0625,0.100649 -0.03438,0.02478 -0.0625,0.06368 -0.0625,0.08644 0,0.04944 -0.139358,0.194806 -0.186759,0.194806 -0.05161,0 -0.375741,0.336385 -0.375741,0.389946 0,0.02615 -0.014062,0.04755 -0.03125,0.04755 -0.017188,0 -0.03125,0.02812 -0.03125,0.0625 0,0.03438 -0.014062,0.0625 -0.03125,0.0625 -0.018939,0 -0.03125,0.135417 -0.03125,0.34375 0,0.208333 -0.012311,0.34375 -0.03125,0.34375 -0.018076,0 -0.03125,0.09953 -0.03125,0.236106 v 0.236105 L 9.3125,12.84375 c -0.103125,0.101221 -0.1875,0.205911 -0.1875,0.232644 0,0.02673 -0.014062,0.04861 -0.03125,0.04861 -0.017188,0 -0.03125,0.02248 -0.03125,0.04996 0,0.06867 -0.1791203,0.230314 -0.2611175,0.235644 -0.036854,0.0024 -0.1232575,0.01023 -0.1920075,0.01742 -0.1911572,0.01998 -1.0407753,0.03641 -1.0567544,0.02043 z M 13.0625,9.78125 C 13.0625,9.729688 13.04844,9.6875 13.03125,9.6875 13.014063,9.6875 13,9.6453125 13,9.59375 13,9.5421875 12.985938,9.5 12.96875,9.5 12.95156,9.5 12.9375,9.457812 12.9375,9.40625 12.9375,9.354688 12.92344,9.3125 12.90625,9.3125 12.88906,9.3125 12.875,9.270312 12.875,9.21875 12.875,9.167188 12.86094,9.125 12.84375,9.125 12.82656,9.125 12.8125,9.102804 12.8125,9.075675 12.8125,9.048546 12.75625,8.972305 12.6875,8.90625 12.61875,8.840195 12.5625,8.7706794 12.5625,8.7517706 12.5625,8.6994188 12.226737,8.375 12.172554,8.375 c -0.02615,0 -0.04755,-0.014062 -0.04755,-0.03125 0,-0.017188 -0.07031,-0.03125 -0.15625,-0.03125 -0.08594,0 -0.15625,-0.014062 -0.15625,-0.03125 0,-0.017361 -0.08333,-0.03125 -0.1875,-0.03125 -0.104167,0 -0.1875,-0.013889 -0.1875,-0.03125 0,-0.017188 -0.05022,-0.03125 -0.111607,-0.03125 -0.147807,0 -0.227271,-0.075585 -0.17219,-0.1637847 0.02182,-0.034941 0.06812,-0.1143359 0.102895,-0.1764344 0.03477,-0.062098 0.09316,-0.1550934 0.129752,-0.2066559 0.03659,-0.051563 0.06432,-0.1007813 0.06162,-0.109375 -0.0027,-0.00859 0.03214,-0.092969 0.07742,-0.1875 0.04528,-0.094531 0.0832,-0.1789063 0.08427,-0.1875 0.0011,-0.00859 0.02139,-0.050781 0.04517,-0.09375 0.02378,-0.042969 0.04057,-0.081788 0.03732,-0.086265 -0.0033,-0.00448 0.01821,-0.053696 0.0477,-0.109375 0.02949,-0.055679 0.05708,-0.1152975 0.06131,-0.132485 0.0042,-0.017188 0.01421,-0.060144 0.02217,-0.095458 0.008,-0.035314 0.03805,-0.1196894 0.06686,-0.1875 0.05021,-0.1181769 0.06089,-0.1524185 0.09287,-0.2976632 0.0079,-0.035748 0.02413,-0.095513 0.03613,-0.1328125 0.012,-0.037299 0.0259,-0.095941 0.03088,-0.1303159 0.0119,-0.082095 0.03695,-0.1951897 0.05773,-0.2606791 0.046,-0.1449256 0.0679,-0.3900225 0.07467,-0.8354687 l 0.005,-0.3305225 0.07813,0.092846 c 0.04297,0.051066 0.07813,0.1025122 0.07813,0.114326 0,0.011814 0.04922,0.081545 0.109375,0.1549575 0.06016,0.073412 0.109375,0.1435581 0.109375,0.1558787 0,0.01232 0.04044,0.081185 0.08988,0.1530313 0.04943,0.071847 0.09262,0.1446931 0.09598,0.1618806 0.0034,0.017188 0.02479,0.052344 0.04764,0.078125 0.0399,0.045028 0.145185,0.2746931 0.132775,0.2896297 -0.0033,0.00399 0.02657,0.05998 0.06641,0.1244328 0.03983,0.064453 0.06263,0.1171875 0.05066,0.1171875 -0.01197,0 0.0013,0.035156 0.02942,0.078125 0.02815,0.042969 0.04347,0.078125 0.03404,0.078125 -0.0094,0 0.0027,0.038672 0.02686,0.085937 0.05811,0.1134703 0.189036,0.5901853 0.222483,0.8100534 0.0057,0.037327 0.02057,0.1145163 0.03309,0.1715332 0.07708,0.3509234 0.07708,1.3890284 0,1.7399518 -0.01252,0.057017 -0.02742,0.1342066 -0.03309,0.1715332 -0.02934,0.1928584 -0.16268,0.6943215 -0.207087,0.7788034 -0.04438,0.084422 -0.08905,0.064825 -0.08905,-0.039063 z m -3,-0.2601778 c 0,-0.022785 0.03516,-0.074455 0.07813,-0.1148222 0.04297,-0.040367 0.07813,-0.086108 0.07813,-0.1016475 0,-0.015539 0.09492,-0.1338922 0.210938,-0.2630069 0.116015,-0.1291147 0.210937,-0.2444018 0.210937,-0.2561937 0,-0.011792 0.05576,-0.091378 0.123911,-0.1768585 0.06815,-0.08548 0.126979,-0.1603403 0.130729,-0.1663559 0.0038,-0.00602 0.05697,0.039219 0.118277,0.1005209 0.06912,0.069115 0.111458,0.1415335 0.111458,0.190625 0,0.043542 0.01406,0.079167 0.03125,0.079167 0.01719,0 0.03125,0.035795 0.03125,0.079545 0,0.087701 -0.125768,0.2329547 -0.201705,0.2329547 -0.02656,0 -0.04829,0.014062 -0.04829,0.03125 0,0.017188 -0.02812,0.03125 -0.0625,0.03125 -0.03438,0 -0.0625,0.014062 -0.0625,0.03125 0,0.017188 -0.02502,0.03125 -0.0556,0.03125 -0.03058,0 -0.07587,0.028125 -0.100649,0.0625 -0.02478,0.034375 -0.07007,0.0625 -0.100649,0.0625 -0.03058,0 -0.0556,0.014062 -0.0556,0.03125 0,0.017188 -0.02812,0.03125 -0.0625,0.03125 -0.03438,0 -0.0625,0.014062 -0.0625,0.03125 0,0.017188 -0.02812,0.03125 -0.0625,0.03125 -0.03438,0 -0.0625,0.014062 -0.0625,0.03125 0,0.017188 -0.04219,0.03125 -0.09375,0.03125 -0.05702,0 -0.09375,-0.01623 -0.09375,-0.041428 z"
       id="path821"
       inkscape:connector-curvature="0" />
    <path
       style="fill:#003265;stroke-width:0.03125"
       d="M 7.421875,14.980816 C 7.0751806,14.944671 6.6021466,14.861504 6.2687884,14.778087 3.8136863,14.163732 1.8362677,12.186314 1.2219136,9.7312116 1.0560565,9.0684081 1.0169904,8.7383737 1.0169904,8 c 0,-0.7383738 0.039066,-1.0684081 0.2049232,-1.7312116 C 1.8362677,3.8136863 3.8136863,1.8362677 6.2687884,1.2219136 6.9315919,1.0560565 7.2616262,1.0169904 8,1.0169904 c 0.7383738,0 1.0684081,0.039066 1.7312116,0.2049232 C 12.186314,1.8362677 14.163732,3.8136863 14.778087,6.2687884 14.943943,6.9315919 14.98301,7.2616263 14.98301,8 c 0,0.7383738 -0.03907,1.0684081 -0.204923,1.7312116 -0.488529,1.9522744 -1.860391,3.6475534 -3.668712,4.5336124 -0.997415,0.488723 -1.8652369,0.698733 -2.96875,0.718428 -0.3265625,0.0058 -0.65,0.0047 -0.71875,-0.0024 z m 1.375,-1.061813 c 1.1894428,-0.183159 2.18159,-0.636 3.129692,-1.428471 0.472214,-0.394701 0.992722,-1.054575 1.34828,-1.709282 0.56745,-1.0448747 0.825076,-2.448865 0.650835,-3.546875 C 13.729517,5.9982 13.28975,5.0296063 12.490532,4.0734334 12.095831,3.6012188 11.435957,3.0807106 10.78125,2.7251527 9.7363753,2.157703 8.332385,1.9000774 7.234375,2.0743179 5.9982,2.2704836 5.0296063,2.7102503 4.0734334,3.5094678 3.2368119,4.2087584 2.5005706,5.4052441 2.2220714,6.5181662 c -0.2715004,1.0849541 -0.2715004,1.8787135 0,2.9636676 0.2784992,1.1129222 1.0147405,2.3094082 1.851362,3.0086982 1.060821,0.886688 2.157496,1.34085 3.5984416,1.490209 0.2075984,0.02152 0.7929275,-0.0106 1.125,-0.06174 z"
       id="path819"
       inkscape:connector-curvature="0" />
  </g>
</svg>
