<?xml version="1.0" encoding="UTF-8" standalone="no"?>
<!-- Created with Inkscape (http://www.inkscape.org/) -->

<svg
   xmlns:dc="http://purl.org/dc/elements/1.1/"
   xmlns:cc="http://creativecommons.org/ns#"
   xmlns:rdf="http://www.w3.org/1999/02/22-rdf-syntax-ns#"
   xmlns:svg="http://www.w3.org/2000/svg"
   xmlns="http://www.w3.org/2000/svg"
   xmlns:sodipodi="http://sodipodi.sourceforge.net/DTD/sodipodi-0.dtd"
   xmlns:inkscape="http://www.inkscape.org/namespaces/inkscape"
   version="1.1"
   id="svg2"
   width="16.010424"
   height="16.010424"
   viewBox="0 0 16.010424 16.010424"
   sodipodi:docname="CLEAR_MASK.svg"
   inkscape:version="0.92.4 (5da689c313, 2019-01-14)">
  <metadata
     id="metadata8">
    <rdf:RDF>
      <cc:Work
         rdf:about="">
        <dc:format>image/svg+xml</dc:format>
        <dc:type
           rdf:resource="http://purl.org/dc/dcmitype/StillImage" />
        <dc:title></dc:title>
      </cc:Work>
    </rdf:RDF>
  </metadata>
  <defs
     id="defs6" />
  <sodipodi:namedview
     pagecolor="#ffffff"
     bordercolor="#666666"
     borderopacity="1"
     objecttolerance="10"
     gridtolerance="10"
     guidetolerance="10"
     inkscape:pageopacity="0"
     inkscape:pageshadow="2"
     inkscape:window-width="947"
     inkscape:window-height="721"
     id="namedview4"
     showgrid="false"
     inkscape:zoom="14.740397"
     inkscape:cx="8.0052118"
     inkscape:cy="8.0052118"
     inkscape:window-x="0"
     inkscape:window-y="0"
     inkscape:window-maximized="0"
     inkscape:current-layer="svg2" />
  <g
     id="CLEAR_MASK">
    <path
       style="fill:#ffffff;stroke-width:0.03127036"
       d="M 0,8.005212 V 0 h 8.005212 8.005212 v 8.005212 8.005212 H 8.005212 0 Z m 10.553746,7.893329 c 0.360307,-0.09656 0.495597,-0.185322 0.962162,-0.631236 0.751618,-0.718351 2.586451,-2.548086 3.316932,-3.307717 0.919494,-0.956186 0.988887,-1.084575 0.989591,-1.830914 2.81e-4,-0.3100454 -0.01263,-0.4315902 -0.06076,-0.571475 C 15.546288,8.9311721 15.044772,8.4422931 14.446906,8.2755618 14.043819,8.1631498 13.553069,8.1844834 13.192587,8.3300885 L 13.00847,8.4044569 V 5.0946067 c 0,-3.8179968 0.0252,-3.503306 -0.305824,-3.8190493 C 12.41959,1.0055679 12.370737,0.99612743 11.313334,1.0070798 l -0.888873,0.00921 -0.232426,0.1207641 C 9.2943429,1.603475 9.0747152,1.6888165 8.4215834,1.8250025 7.8591116,1.9422848 7.5020441,1.9817937 7.0045605,1.9817937 6.5070769,1.9817937 6.1500094,1.9422848 5.5875376,1.8250025 4.9344052,1.6888165 4.7148119,1.6034883 3.8170827,1.1370508 L 3.5846542,1.0162867 2.6882638,1.0071377 C 1.6145779,0.99617915 1.5606257,1.0076111 1.2755574,1.3064754 0.97358894,1.6230578 0.99854175,1.1192106 1.0079908,6.7091835 l 0.0083,4.9077555 0.089707,0.265798 c 0.1164494,0.345033 0.2897184,0.687512 0.467396,0.923844 0.2101594,0.279537 0.8453776,0.881348 1.1316174,1.072105 0.7632372,0.508637 1.9141462,0.913939 3.0487386,1.073638 0.3201113,0.04506 2.1535106,0.06019 2.3367277,0.01929 0.09622,-0.02148 0.1183145,-0.0059 0.4766566,0.335597 0.4317642,0.411497 0.7067257,0.57073 1.126681,0.65247 0.1416332,0.02757 0.6687929,-0.0099 0.8599349,-0.06114 z"
       id="path829"
       inkscape:connector-curvature="0" />
    <path
       style="fill:#cbe5fe;stroke-width:0.03127036"
       d="M 6.4104237,13.988624 C 5.3717881,13.889092 4.5758292,13.686031 3.866241,13.339566 2.875006,12.855583 2.2546976,12.206818 2.0617129,11.452255 2.0033553,11.22408 2.001303,11.059525 2.001303,6.608679 V 2.001303 h 0.6291952 0.629195 l 0.2698279,0.1555011 c 0.8408922,0.4846043 1.8972134,0.7703317 3.0820495,0.8336727 l 0.3929899,0.021009 V 5.6923361 8.3731866 L 6.8204434,8.2988182 C 6.7191791,8.2579159 6.5256937,8.2090503 6.390476,8.1902284 5.7642942,8.1030651 5.1811946,8.2970861 4.7390649,8.7397202 4.4199781,9.059171 4.1902282,9.5260656 4.1902282,9.8550586 c 0,0.1474374 -0.00249,0.1514564 -0.093811,0.1514564 -0.081582,0 -0.093763,0.01121 -0.09344,0.08599 6.223e-4,0.144124 0.081598,0.401442 0.1839632,0.584586 0.053404,0.09555 0.1412523,0.252742 0.1952174,0.349324 0.068461,0.122525 0.4172307,0.502963 1.1538644,1.258632 0.5806599,0.595666 1.1486238,1.174088 1.262142,1.285383 0.1822368,0.178667 0.2063963,0.216185 0.2063963,0.320521 v 0.118167 l -0.2423453,-0.005 c -0.1332899,-0.0028 -0.2915961,-0.0097 -0.3517915,-0.01549 z M 5.4254074,6.9082609 c 0.1978103,-0.093869 0.3861298,-0.2812306 0.4846668,-0.482202 0.1100663,-0.2244862 0.1100663,-0.6198136 0,-0.8442998 C 5.8123293,5.3824034 5.6247631,5.1948372 5.4254074,5.0970923 5.2009212,4.987026 4.8055938,4.987026 4.5811076,5.0970923 3.7682525,5.4956381 3.8360147,6.6437334 4.6907225,6.9542978 c 0.1973434,0.071706 0.5305654,0.050826 0.7346849,-0.046037 z"
       id="path827"
       inkscape:connector-curvature="0" />
    <path
       style="fill:#6598fe;stroke-width:0.03127036"
       d="m 7.0045605,13.89354 v -0.11558 l 0.1094463,0.10608 c 0.060195,0.05834 0.1094462,0.110355 0.1094462,0.11558 0,0.0052 -0.049251,0.0095 -0.1094462,0.0095 -0.1053411,0 -0.1094463,-0.0043 -0.1094463,-0.115581 z M 7.6925084,8.9323463 C 7.5119221,8.7551428 7.2832576,8.5564831 7.1843651,8.4908801 L 7.0045605,8.3716018 V 5.6915438 3.0114859 L 7.3975504,2.9904768 C 8.5823865,2.9271358 9.6387077,2.6414084 10.4796,2.1568041 L 10.749428,2.001303 h 0.629195 0.629195 l -0.0073,3.6351793 c -0.0071,3.5338301 -0.0078,3.5697929 -0.02345,1.2899023 C 11.959328,4.3506348 11.975377,4.5589911 11.762156,4.1366042 11.514012,3.6450335 11.025764,3.2513419 10.506841,3.124399 10.258807,3.063723 9.7210057,3.0719048 9.4905541,3.1398602 8.8702443,3.3227768 8.3953294,3.7820208 8.139466,4.4463671 8.0890503,4.5772711 8.0291939,5.4731159 8.0353979,6.003909 8.0627226,8.3416545 8.065546,9.2558903 8.0454391,9.2552806 8.0319134,9.2548703 7.8730947,9.1095498 7.6925084,8.9323463 Z"
       id="path825"
       inkscape:connector-curvature="0" />
    <path
       style="fill:#fb7e00;stroke-width:0.03127036"
       d="M 9.6460444,14.873412 C 9.521159,14.815257 9.158486,14.472915 7.8823295,13.208571 6.1634632,11.505614 5.4276929,10.742931 5.281872,10.512995 5.201844,10.386804 5.19088,10.340711 5.19088,10.130469 c 0,-0.2040496 0.014,-0.2670622 0.095626,-0.4304101 0.1640027,-0.3281984 0.4034595,-0.478303 0.797557,-0.4999521 0.4115198,-0.022606 0.357019,-0.064511 1.9118057,1.4699552 0.5538184,0.54658 1.0199644,0.993782 1.0358794,0.993782 0.017476,0 0.034408,-1.359283 0.04275,-3.4319219 L 9.0883106,4.8000002 9.1704363,4.6402887 C 9.2867529,4.4140855 9.3828524,4.3102841 9.5739609,4.2044233 c 0.1500552,-0.08312 0.1949422,-0.092371 0.4481891,-0.092371 0.253247,0 0.298134,0.00925 0.448189,0.092371 0.191305,0.1059693 0.287515,0.2099796 0.403179,0.4358654 l 0.08178,0.1597115 0.01436,3.4319219 c 0.0089,2.1168869 0.02565,3.4319219 0.04383,3.4319219 0.01621,0 0.475226,-0.440228 1.020042,-0.978284 1.534025,-1.5149911 1.48421,-1.4767728 1.895439,-1.4541828 0.394097,0.021649 0.633554,0.1717537 0.797557,0.4999521 0.08163,0.1633479 0.09563,0.2263605 0.09563,0.4304097 0,0.307354 -0.04327,0.377327 -0.602279,0.974022 -0.567121,0.60535 -3.436097,3.452428 -3.64413,3.616315 -0.0911,0.07176 -0.21774,0.144954 -0.281433,0.162644 -0.203577,0.05654 -0.4753242,0.03922 -0.6482636,-0.04131 z"
       id="path823"
       inkscape:connector-curvature="0" />
    <path
       style="fill:#0032fe;stroke-width:0.03127036"
       d="m 6.1602608,14.991297 c -0.060195,-0.0069 -0.243127,-0.02778 -0.4065147,-0.04643 C 4.7173445,14.826513 3.475712,14.3923 2.7050075,13.878686 2.4187677,13.687929 1.7835495,13.086118 1.5733901,12.806581 1.3957125,12.570249 1.2224435,12.22777 1.1059941,11.882737 l -0.089707,-0.265798 -0.0083,-4.9077555 C 0.99854175,1.1192106 0.97358894,1.6230578 1.2755574,1.3064754 1.5606257,1.0076111 1.6145779,0.99617915 2.6882638,1.0071377 l 0.8963904,0.00915 0.2324285,0.1207641 c 0.8977292,0.4664375 1.1173225,0.5517657 1.7704549,0.6879517 0.5624718,0.1172823 0.9195393,0.1567912 1.4170229,0.1567912 0.4974836,0 0.8545511,-0.039509 1.4170229,-0.1567912 C 9.0747152,1.6888165 9.2943429,1.603475 10.192035,1.1370508 l 0.232426,-0.1207641 0.888873,-0.00921 c 1.057403,-0.0109524 1.106256,-0.00151 1.389312,0.2684776 0.331019,0.3157394 0.305824,0.00116 0.305824,3.8182569 V 8.4028691 L 12.829287,8.52184 c -0.09855,0.065434 -0.323698,0.2595724 -0.500326,0.4314187 L 12.007818,9.2657099 V 5.6335063 2.001303 H 11.378623 10.749428 L 10.4796,2.1568041 C 9.7984839,2.5493297 8.9904025,2.8053703 7.9895768,2.945768 c -0.3659783,0.05134 -1.6040543,0.05134 -1.9700326,0 C 5.0187185,2.8053703 4.2106371,2.5493297 3.5295211,2.1568041 L 3.2596932,2.001303 H 2.6304982 2.001303 v 4.607376 c 0,4.450846 0.00205,4.615401 0.06041,4.843576 0.3137787,1.226863 1.7943546,2.185191 3.8327498,2.480813 0.171987,0.02494 0.5472119,0.05441 0.8338332,0.06549 l 0.52113,0.02014 0.4595223,0.460289 c 0.3270898,0.327636 0.4477784,0.467548 0.4187726,0.485475 -0.041758,0.02581 -1.7701941,0.04939 -1.96746,0.02684 z M 4.1704131,10.655375 c -0.092773,-0.182599 -0.1668699,-0.431689 -0.1674359,-0.562867 -3.227e-4,-0.07478 0.011857,-0.08599 0.09344,-0.08599 h 0.093811 v 0.260828 c 0,0.143456 0.01973,0.326387 0.043845,0.406515 0.024115,0.08013 0.038424,0.145686 0.031797,0.145686 -0.00663,0 -0.049582,-0.07388 -0.095457,-0.164169 z M 4.6907225,6.9542978 C 3.9822127,6.6968555 3.7753452,5.8231632 4.2989283,5.2995798 4.5043855,5.0941226 4.6903159,5.0204327 5.0032575,5.0204327 c 0.3129416,0 0.498872,0.07369 0.7043292,0.2791471 0.2054572,0.2054572 0.2791471,0.3913876 0.2791471,0.7043292 0,0.3129416 -0.07369,0.498872 -0.2791471,0.7043292 C 5.4506557,6.9651689 5.0124594,7.0712033 4.6907225,6.9542978 Z M 8.024756,6.2188927 C 7.999053,6.0903769 8.005066,5.8518428 8.036482,5.7537461 c 0.016307,-0.050918 0.026123,0.033581 0.028153,0.2423453 0.00171,0.1762867 -0.00216,0.3205212 -0.00861,0.3205212 -0.00645,0 -0.020521,-0.043974 -0.03127,-0.09772 z"
       id="path821"
       inkscape:connector-curvature="0" />
    <path
       style="fill:#000000;stroke-width:0.03127036"
       d="M 9.6938114,15.95968 C 9.5391917,15.929585 9.2995769,15.84369 9.1207198,15.754243 8.9035306,15.645627 8.203184,14.982885 6.6432324,13.409782 4.5888536,11.338084 4.4824037,11.223139 4.3360006,10.91842 L 4.2058633,10.647557 4.195198,10.187327 C 4.1865995,9.816288 4.1949165,9.6950866 4.2381362,9.5619202 4.4031618,9.053402 4.7613841,8.6209823 5.2081203,8.3910269 5.5319308,8.2243469 5.7287658,8.1792513 6.1289904,8.1800511 c 0.6050402,0.00121 0.9525246,0.1652564 1.5339681,0.7241837 0.2012798,0.1934854 0.3747003,0.3517916 0.3853788,0.3517916 0.010678,0 0.019415,-1.0320642 0.019415,-2.2934761 0,-2.1913883 0.00271,-2.3013546 0.060896,-2.4704731 0.2329079,-0.6769586 0.7233622,-1.1639238 1.3619055,-1.352217 0.2304516,-0.067955 0.7682532,-0.076137 1.0162872,-0.015461 0.646255,0.1580916 1.167365,0.6659031 1.411492,1.3754704 0.05471,0.1590058 0.05821,0.3074499 0.05821,2.4626809 0,1.2614119 0.0087,2.2934761 0.01931,2.2934761 0.01062,0 0.1771,-0.1512704 0.369954,-0.3361564 0.572504,-0.5488517 0.919087,-0.7088346 1.533863,-0.7080325 0.237393,3.127e-4 0.402108,0.017682 0.531596,0.056068 0.625595,0.1854539 1.113204,0.6579956 1.330402,1.2892935 0.04813,0.1398848 0.06105,0.2614296 0.06076,0.5714748 -7.04e-4,0.746339 -0.0701,0.874728 -0.989591,1.830914 -0.730481,0.759631 -2.565314,2.589366 -3.316932,3.307717 -0.466565,0.445914 -0.601855,0.534672 -0.962162,0.631236 -0.191142,0.05123 -0.7183017,0.08871 -0.8599349,0.06114 z m 0.6004966,-1.04496 c 0.06369,-0.01769 0.190338,-0.09088 0.281433,-0.162644 0.208033,-0.163887 3.077009,-3.010965 3.64413,-3.616315 0.559012,-0.596695 0.602279,-0.666668 0.602279,-0.974022 0,-0.2040492 -0.014,-0.2670618 -0.09563,-0.4304097 -0.164003,-0.3281984 -0.40346,-0.478303 -0.797557,-0.4999521 -0.411229,-0.02259 -0.361414,-0.060808 -1.895439,1.4541828 -0.544816,0.538056 -1.003836,0.978284 -1.020042,0.978284 -0.01818,0 -0.03497,-1.315035 -0.04383,-3.4319219 L 10.955297,4.8000002 10.873518,4.6402887 C 10.757854,4.4144029 10.661644,4.3103926 10.470339,4.2044233 c -0.150055,-0.08312 -0.194942,-0.092371 -0.448189,-0.092371 -0.2532469,0 -0.2981339,0.00925 -0.4481891,0.092371 -0.1911085,0.1058608 -0.287208,0.2096622 -0.4035246,0.4358654 l -0.082126,0.1597115 -0.013813,3.4319219 c -0.00834,2.0726389 -0.025274,3.4319219 -0.04275,3.4319219 -0.015915,0 -0.482061,-0.447202 -1.0358794,-0.993782 C 6.4410814,9.1355961 6.4955822,9.1775009 6.0840624,9.2001068 5.6899649,9.2217559 5.4505081,9.3718605 5.2865054,9.7000589 c -0.081626,0.1633479 -0.095626,0.2263605 -0.095626,0.4304101 0,0.210242 0.010964,0.256335 0.090992,0.382526 0.1458209,0.229936 0.8815912,0.992619 2.6004575,2.695576 1.7619068,1.745598 1.752607,1.737932 2.1085503,1.738181 0.1031918,6.2e-5 0.2397348,-0.01434 0.3034278,-0.03203 z"
       id="path819"
       inkscape:connector-curvature="0" />
  </g>
</svg>
