<?xml version="1.0" encoding="UTF-8" standalone="no"?>
<!-- Created with Inkscape (http://www.inkscape.org/) -->

<svg
   xmlns:dc="http://purl.org/dc/elements/1.1/"
   xmlns:cc="http://creativecommons.org/ns#"
   xmlns:rdf="http://www.w3.org/1999/02/22-rdf-syntax-ns#"
   xmlns:svg="http://www.w3.org/2000/svg"
   xmlns="http://www.w3.org/2000/svg"
   xmlns:sodipodi="http://sodipodi.sourceforge.net/DTD/sodipodi-0.dtd"
   xmlns:inkscape="http://www.inkscape.org/namespaces/inkscape"
   version="1.1"
   id="svg2"
   width="16.010424"
   height="16.010424"
   viewBox="0 0 16.010424 16.010424"
   sodipodi:docname="COPYDOWN.svg"
   inkscape:version="0.92.4 (5da689c313, 2019-01-14)">
  <metadata
     id="metadata8">
    <rdf:RDF>
      <cc:Work
         rdf:about="">
        <dc:format>image/svg+xml</dc:format>
        <dc:type
           rdf:resource="http://purl.org/dc/dcmitype/StillImage" />
        <dc:title></dc:title>
      </cc:Work>
    </rdf:RDF>
  </metadata>
  <defs
     id="defs6" />
  <sodipodi:namedview
     pagecolor="#ffffff"
     bordercolor="#666666"
     borderopacity="1"
     objecttolerance="10"
     gridtolerance="10"
     guidetolerance="10"
     inkscape:pageopacity="0"
     inkscape:pageshadow="2"
     inkscape:window-width="828"
     inkscape:window-height="480"
     id="namedview4"
     showgrid="false"
     inkscape:zoom="14.740397"
     inkscape:cx="8.0052118"
     inkscape:cy="8.0052118"
     inkscape:window-x="0"
     inkscape:window-y="0"
     inkscape:window-maximized="0"
     inkscape:current-layer="svg2" />
  <g
     id="COPYDOWN">
    <path
       style="fill:#ffffff;stroke-width:0.03127036"
       d="M 0,8.005212 V 0 h 8.005212 8.005212 v 8.005212 8.005212 H 8.005212 0 Z m 8.2746086,7.424778 c 0.047492,-0.03546 0.1153611,-0.103316 0.1508211,-0.150791 0.062432,-0.08359 0.064751,-0.128802 0.073254,-1.428271 l 0.00878,-1.341952 3.3426793,-0.0082 c 3.320893,-0.0082 3.343241,-0.0087 3.429025,-0.07271 0.04749,-0.03546 0.11536,-0.103333 0.15082,-0.150828 l 0.06447,-0.08635 V 7.0045605 1.818267 L 15.42999,1.7319126 C 15.39453,1.6844177 15.326674,1.6165454 15.279199,1.5810853 15.195619,1.518658 15.150377,1.516334 13.853253,1.5078359 l -1.339627,-0.00878 -0.01056,-0.3408339 c -0.01141,-0.36826317 -0.03869,-0.43804785 -0.225859,-0.57779159 -0.08472,-0.0632498 -0.118301,-0.0644729 -1.770367,-0.0644729 -1.6520668,0 -1.6856518,0.001223 -1.7703679,0.0644729 C 8.5493016,0.72017755 8.5220225,0.78996223 8.5106142,1.1582254 L 8.5000552,1.4990593 7.160428,1.5078393 C 5.863304,1.516334 5.8180627,1.518658 5.7344826,1.5810853 5.6870074,1.6165454 5.6191513,1.6844091 5.5836913,1.7318936 5.5203904,1.8166594 5.519064,1.8540582 5.5107135,3.7890054 L 5.5022089,5.7597819 5.3796804,5.6490845 C 5.3122896,5.5882012 5.2105794,5.5299629 5.1536573,5.5196659 c -0.056922,-0.010297 -1.0558249,-0.01461 -2.2197849,-0.00958 -2.08143305,0.00899 -2.11771267,0.010199 -2.20262815,0.07361 -0.0474857,0.03546 -0.11535038,0.1033304 -0.15081044,0.1508232 -0.0643367,0.086168 -0.0644918,0.096069 -0.073437,4.6886219 -0.00493,2.53125 -8.5243e-4,4.64759 0.009062,4.70298 0.0224286,0.125304 0.15381436,0.285062 0.27978525,0.340203 0.0780315,0.03416 0.75840164,0.04051 3.74388904,0.03494 3.6309296,-0.0068 3.6489442,-0.0071 3.7348757,-0.07127 z"
       id="path831"
       inkscape:connector-curvature="0" />
    <path
       style="fill:#fefefe;stroke-width:0.03127036"
       d="M 1.0006515,10.506841 V 6.003909 H 2.7517916 4.5029317 V 7.7550491 9.5061893 H 6.2540719 8.005212 v 2.7517917 2.751792 H 4.5029317 1.0006515 Z M 6.5120523,9.0136883 5.0032575,9.0052628 V 7.4968892 5.9885155 l 1.5166124,1.5163707 c 0.8341369,0.834004 1.5166125,1.5199431 1.5166125,1.5243091 0,0.00437 -0.00352,0.00456 -0.00782,4.284e-4 -0.0043,-0.00413 -0.6867753,-0.011302 -1.5166125,-0.015935 z"
       id="path829"
       inkscape:connector-curvature="0" />
    <path
       style="fill:#cbcbcb;stroke-width:0.03127036"
       d="M 8.005212,3.5022803 V 3.0019545 h 2.501629 2.501629 V 3.5022803 4.002606 H 10.506841 8.005212 Z M 9.0058635,1.5009772 V 1.0006515 h 1.5009775 1.500977 V 1.5009772 2.001303 H 10.506841 9.0058635 Z"
       id="path827"
       inkscape:connector-curvature="0" />
    <path
       style="fill:#fecb32;stroke-width:0.03127036"
       d="m 8.5057535,10.452118 c 0.00279,-0.8556356 0.00388,-1.5834401 0.00243,-1.6173434 C 8.506574,8.797293 8.0152748,8.2823162 7.2547234,7.5209076 L 6.003909,6.2686836 V 4.1349934 2.001303 h 1.2508144 1.2508144 v 0.2473962 0.2473962 l -0.3417929,0.010584 c -0.3693164,0.011437 -0.4389264,0.038605 -0.5787506,0.2258844 -0.060516,0.081054 -0.064473,0.128297 -0.064473,0.7697162 0,0.7521159 0.00218,0.7614241 0.2153002,0.9205434 0.085648,0.063946 0.1083049,0.064473 2.7710195,0.064473 2.662714,0 2.685371,-5.285e-4 2.771019,-0.064473 0.213123,-0.1591193 0.2153,-0.1684275 0.2153,-0.9205434 0,-0.6414192 -0.004,-0.688662 -0.06447,-0.7697162 C 13.288863,2.5452849 13.219253,2.5181162 12.849937,2.5066797 L 12.508144,2.4960954 V 2.2486992 2.001303 h 1.250814 1.250815 V 7.0045605 12.007818 H 11.755227 8.5006808 Z"
       id="path825"
       inkscape:connector-curvature="0" />
    <path
       style="fill:#989898;stroke-width:0.03127036"
       d="M 9.0058635,2.5016288 V 2.001303 h 1.5009775 1.500977 V 2.5016288 3.0019545 H 10.506841 9.0058635 Z"
       id="path823"
       inkscape:connector-curvature="0" />
    <path
       style="fill:#656565;stroke-width:0.03127036"
       d="M 4.5029317,7.7550491 V 6.003909 H 4.7530946 5.0032575 V 7.5048862 9.0058635 H 6.5042347 8.005212 V 9.2560264 9.5061893 H 6.2540719 4.5029317 Z"
       id="path821"
       inkscape:connector-curvature="0" />
    <path
       style="fill:#323232;stroke-width:0.03127036"
       d="M 0.79584387,15.466319 C 0.66987298,15.411178 0.53848719,15.25142 0.51605862,15.126116 c -0.009914,-0.05539 -0.0139921,-2.17173 -0.009062,-4.70298 0.008945,-4.592552 0.0091,-4.6024535 0.073437,-4.6886215 0.0354601,-0.047493 0.10332477,-0.1153632 0.15081044,-0.1508232 0.0849155,-0.063411 0.1211951,-0.064623 2.20262814,-0.07361 1.16396,-0.00503 2.1628631,-7.129e-4 2.2197849,0.00958 0.056922,0.010297 0.1586323,0.068535 0.2260231,0.1294186 l 0.1225285,0.1106974 0.0085,-1.9707765 c 0.00835,-1.9349472 0.00968,-1.972346 0.072978,-2.0571118 0.03546,-0.047484 0.1033161,-0.1153482 0.1507913,-0.1508083 0.08358,-0.062427 0.1288214,-0.064751 1.4259456,-0.073249 l 1.3396272,-0.00878 0.010559,-0.3408339 c 0.011408,-0.36826317 0.038687,-0.43804785 0.2258589,-0.57779159 0.084716,-0.0632498 0.1183011,-0.0644729 1.7703683,-0.0644729 1.652066,0 1.685651,0.001223 1.770367,0.0644729 0.187172,0.13974374 0.214451,0.20952842 0.225859,0.57779159 l 0.01056,0.3408339 1.339627,0.00878 c 1.297124,0.0085 1.342366,0.010822 1.425946,0.073249 0.04748,0.03546 0.115331,0.1033324 0.150791,0.1508273 l 0.06447,0.086354 v 5.1862935 5.1862935 l -0.06447,0.08635 c -0.03546,0.04749 -0.103329,0.115368 -0.15082,0.150828 -0.08578,0.06405 -0.108132,0.06453 -3.429025,0.07271 l -3.3426795,0.0082 -0.00878,1.341952 c -0.0085,1.299469 -0.010823,1.344685 -0.073254,1.428271 -0.03546,0.04748 -0.1033295,0.115331 -0.1508211,0.150791 -0.085932,0.06416 -0.1039461,0.06451 -3.7348757,0.07127 -2.9854874,0.0056 -3.66585749,-7.85e-4 -3.74388902,-0.03494 z M 8.0127194,12.007694 8.0208472,9.0056152 6.5197502,7.5047621 5.0186535,6.003909 H 3.0096524 1.0006515 v 4.502932 4.502932 h 3.50197 3.5019701 z M 15.009773,7.0045605 V 2.001303 h -1.250815 -1.250814 v 0.2473962 0.2473962 l 0.341793,0.010584 c 0.369316,0.011437 0.438926,0.038605 0.57875,0.2258844 0.06052,0.081054 0.06447,0.128297 0.06447,0.7697162 0,0.7521159 -0.0022,0.7614241 -0.2153,0.9205434 -0.08565,0.063946 -0.108305,0.064473 -2.771019,0.064473 -2.6627145,0 -2.6853711,-5.285e-4 -2.7710194,-0.064473 C 7.5226985,4.2637044 7.5205214,4.2543962 7.5205214,3.5022803 c 0,-0.6414192 0.00396,-0.688662 0.064473,-0.7697162 C 7.7248185,2.5452849 7.7944285,2.5181162 8.1637449,2.5066797 L 8.5055378,2.4960954 V 2.2486992 2.001303 H 7.2547234 6.003909 v 2.1336904 2.1336902 l 1.2508144,1.252224 c 0.7605514,0.7614086 1.2518506,1.2763854 1.2534586,1.313867 0.00145,0.033903 3.627e-4,0.7617078 -0.00243,1.6173434 l -0.00507,1.5557 h 3.254546 3.254546 z M 13.00847,3.5022803 V 3.0019545 H 12.508144 12.007818 V 2.001303 1.0006515 H 10.506841 9.0058635 V 2.001303 3.0019545 H 8.5055378 8.005212 V 3.5022803 4.002606 h 2.501629 2.501629 z"
       id="path819"
       inkscape:connector-curvature="0" />
  </g>
</svg>
