<?xml version="1.0" encoding="UTF-8" standalone="no"?>
<!-- Created with Inkscape (http://www.inkscape.org/) -->

<svg
   xmlns:dc="http://purl.org/dc/elements/1.1/"
   xmlns:cc="http://creativecommons.org/ns#"
   xmlns:rdf="http://www.w3.org/1999/02/22-rdf-syntax-ns#"
   xmlns:svg="http://www.w3.org/2000/svg"
   xmlns="http://www.w3.org/2000/svg"
   xmlns:sodipodi="http://sodipodi.sourceforge.net/DTD/sodipodi-0.dtd"
   xmlns:inkscape="http://www.inkscape.org/namespaces/inkscape"
   version="1.1"
   id="svg2"
   width="16.010424"
   height="16.010424"
   viewBox="0 0 16.010424 16.010424"
   sodipodi:docname="HOOK_REMOVE.svg"
   inkscape:version="0.92.4 (5da689c313, 2019-01-14)">
  <metadata
     id="metadata8">
    <rdf:RDF>
      <cc:Work
         rdf:about="">
        <dc:format>image/svg+xml</dc:format>
        <dc:type
           rdf:resource="http://purl.org/dc/dcmitype/StillImage" />
        <dc:title></dc:title>
      </cc:Work>
    </rdf:RDF>
  </metadata>
  <defs
     id="defs6" />
  <sodipodi:namedview
     pagecolor="#ffffff"
     bordercolor="#666666"
     borderopacity="1"
     objecttolerance="10"
     gridtolerance="10"
     guidetolerance="10"
     inkscape:pageopacity="0"
     inkscape:pageshadow="2"
     inkscape:window-width="1014"
     inkscape:window-height="763"
     id="namedview4"
     showgrid="false"
     inkscape:zoom="14.740397"
     inkscape:cx="8.0052118"
     inkscape:cy="8.0052118"
     inkscape:window-x="0"
     inkscape:window-y="0"
     inkscape:window-maximized="0"
     inkscape:current-layer="svg2" />
  <g
     id="HOOK_REMOVE">
    <path
       style="fill:#ffffff;stroke-width:0.03127036"
       d="M 0,8.005212 V 0 h 8.005212 8.005212 l -0.0025,5.6677526 c -0.0021,4.7499304 -0.0091,5.6373694 -0.04342,5.4801304 -0.05656,-0.259206 -0.187346,-0.639821 -0.314207,-0.914395 C 15.486322,9.878567 15.275895,9.5837191 14.932623,9.2278796 14.583964,8.8664565 14.253034,8.6051004 13.93736,8.4418575 L 13.727919,8.3335508 13.727794,7.0596192 C 13.727669,5.5811272 13.728473,5.586102 13.439722,5.2937204 13.164023,5.0145442 13.10899,5.0032575 12.023453,5.0032575 c -1.085536,0 -1.140569,0.011287 -1.416278,0.2904629 -0.279007,0.282517 -0.287956,0.3276777 -0.287956,1.453142 V 7.7080373 L 9.1704951,6.5593137 8.0217712,5.4105899 9.290546,4.135914 c 1.449294,-1.4560352 1.41831,-1.4152093 1.41831,-1.8688129 0,-0.4258545 -0.03281,-0.4774137 -0.7777263,-1.2223346 C 9.1862087,0.29984555 9.1346495,0.26704035 8.7087951,0.26704035 c -0.4535932,0 -0.4128197,-0.0309424 -1.868404,1.41790175 L 5.566124,2.9533086 4.2918568,1.6849421 C 2.8362724,0.2360979 2.8770461,0.26704035 2.4234529,0.26704035 c -0.4258545,0 -0.4774137,0.0328052 -1.2223346,0.77772615 -0.74492094,0.7449209 -0.77772614,0.7964801 -0.77772614,1.2223346 0,0.4535932 -0.0309425,0.4128195 1.41790174,1.8684039 L 3.1096604,5.4097722 1.8412939,6.6840393 c -1.4488442,1.4555843 -1.41790174,1.4148109 -1.41790174,1.868404 0,0.4258544 0.0328052,0.4774136 0.77772614,1.2223346 0.7449209,0.7449211 0.7964801,0.7777261 1.2223346,0.7777261 0.4535932,0 0.4128195,0.03094 1.8684039,-1.4179017 L 5.566124,7.8662356 6.8403911,9.1346023 c 1.4555843,1.4488447 1.4148108,1.4179017 1.868404,1.4179017 0.4095075,0 0.4872013,-0.04592 1.1022802,-0.6514505 L 10.319219,9.4007959 v 0.6741721 c 0,0.5102 0.01107,0.705551 0.04552,0.803185 l 0.04552,0.129014 H 9.5989487 c -0.9569052,0 -1.0274862,0.01559 -1.3032738,0.287956 -0.2445221,0.241485 -0.2905992,0.388486 -0.28992,0.924943 3.127e-4,0.243915 0.019215,0.51687 0.04385,0.633071 0.099236,0.468089 0.3216835,1.007485 0.5709714,1.384503 0.1917508,0.289999 0.7074397,0.824031 1.0236515,1.060063 0.3870592,0.288914 0.9830652,0.553219 1.5036552,0.66681 0.157239,0.03431 -0.7302,0.04134 -5.4801305,0.04342 L 0,16.010424 Z m 12.867753,7.959301 c 0.52059,-0.113591 1.116596,-0.377896 1.503655,-0.66681 0.316212,-0.236032 0.831901,-0.770064 1.023652,-1.060063 0.244443,-0.369691 0.469174,-0.910309 0.569453,-1.369887 0.03567,-0.163488 0.04126,0.02657 0.04342,1.477524 l 0.0025,1.665147 -1.665147,-0.0025 c -1.450957,-0.0022 -1.641012,-0.0078 -1.477524,-0.04342 z"
       id="path829"
       inkscape:connector-curvature="0" />
    <path
       style="fill:#fefefe;stroke-width:0.03127036"
       d="M 11.147883,15.964513 C 10.627293,15.850922 10.031287,15.586617 9.6442279,15.297703 9.3280161,15.061671 8.8123272,14.527639 8.6205764,14.23764 8.3712885,13.860622 8.1488405,13.321226 8.049605,12.853137 8.024946,12.736823 8.006064,12.463858 8.005755,12.219228 8.0050826,11.688097 8.050098,11.543757 8.2931686,11.297629 8.5638427,11.023551 8.6375463,11.007167 9.5997862,11.007167 h 0.8104688 l -0.04552,-0.129014 c -0.03445,-0.09763 -0.04552,-0.292985 -0.04552,-0.803185 V 9.4007959 L 9.8110753,9.9010535 C 9.1959964,10.506587 9.1183026,10.552504 8.7087951,10.552504 c -0.4535932,0 -0.4128197,0.03094 -1.868404,-1.4179017 L 5.566124,7.8662356 4.2918568,9.1346023 C 2.8362724,10.583447 2.8770461,10.552504 2.4234529,10.552504 c -0.4258545,0 -0.4774137,-0.03281 -1.2223346,-0.7777261 C 0.45619736,9.0298569 0.42339216,8.9782977 0.42339216,8.5524433 c 0,-0.4535931 -0.0309425,-0.4128197 1.41790174,-1.868404 L 3.1096604,5.4097722 1.8412939,4.135505 C 0.3924497,2.6799206 0.42339216,2.7206943 0.42339216,2.2671011 c 0,-0.4258545 0.0328052,-0.4774137 0.77772614,-1.2223346 0.7449209,-0.74492095 0.7964801,-0.77772615 1.2223346,-0.77772615 0.4535932,0 0.4128195,-0.0309424 1.8684039,1.41790175 L 5.566124,2.9533086 6.8403911,1.6849421 c 1.4555843,-1.4488442 1.4148108,-1.41790175 1.868404,-1.41790175 0.4258544,0 0.4774136,0.0328052 1.2223346,0.77772615 0.7449213,0.7449209 0.7777263,0.7964801 0.7777263,1.2223346 0,0.4536036 0.03098,0.4127777 -1.41831,1.8688129 L 8.0217712,5.4105899 9.1704951,6.5593137 10.319219,7.7080373 V 6.7468624 c 0,-1.1254643 0.0089,-1.170625 0.287956,-1.453142 0.275709,-0.2791762 0.330742,-0.2904629 1.416278,-0.2904629 1.085537,0 1.14057,0.011287 1.416278,0.2904629 0.28875,0.2923816 0.287938,0.2874068 0.288072,1.7658988 l 1.26e-4,1.2739316 0.20944,0.1083067 c 0.115192,0.059569 0.315661,0.1876194 0.445487,0.2845569 0.30624,0.228662 0.823212,0.765741 1.012213,1.0515818 0.249288,0.3770178 0.471736,0.9164138 0.570971,1.3845028 0.05921,0.279298 0.05921,1.41134 0,1.690638 -0.09924,0.468089 -0.321683,1.007485 -0.570971,1.384503 -0.191751,0.289999 -0.70744,0.824031 -1.023651,1.060063 -0.393741,0.293901 -0.989847,0.556301 -1.518272,0.668328 -0.270023,0.05724 -1.440717,0.0562 -1.705254,-0.0015 z m 1.798046,-0.547788 c 0.64625,-0.194574 1.083541,-0.454356 1.54999,-0.920806 0.471032,-0.471031 0.73046,-0.910381 0.924473,-1.565625 0.06786,-0.229189 0.07407,-0.306531 0.07407,-0.922476 0,-0.615945 -0.0062,-0.693287 -0.07407,-0.922476 C 15.226379,10.430098 14.966951,9.9907485 14.495919,9.5197168 14.148914,9.1727118 13.844577,8.9563384 13.481616,8.798582 L 13.242997,8.6948695 13.227362,7.257831 c -0.01512,-1.3899187 -0.01775,-1.4398687 -0.08011,-1.5233527 -0.03546,-0.047473 -0.103332,-0.115327 -0.150827,-0.150787 -0.08247,-0.061571 -0.126267,-0.064473 -0.972974,-0.064473 -0.846707,0 -0.890506,0.0029 -0.972973,0.064473 -0.04749,0.03546 -0.115368,0.1033323 -0.150828,0.1508273 -0.06383,0.085498 -0.06447,0.110648 -0.06447,2.5364915 0,2.4258439 6.37e-4,2.4509929 0.06447,2.5364919 0.147934,0.19814 0.195686,0.213596 0.727381,0.235437 0.269627,0.01107 0.532847,0.03382 0.584933,0.05055 0.296169,0.09513 0.497593,0.260426 0.63295,0.519438 0.119844,0.229329 0.119844,0.560447 0,0.789776 -0.04609,0.0882 -0.128363,0.204922 -0.182826,0.259384 -0.05446,0.05446 -0.171185,0.136734 -0.259384,0.182826 -0.229329,0.119844 -0.560447,0.119844 -0.789776,0 -0.310048,-0.162027 -0.462641,-0.385354 -0.557169,-0.815442 -0.06229,-0.283416 -0.174846,-0.438904 -0.356381,-0.49232 -0.07351,-0.02163 -0.429112,-0.03015 -0.9955255,-0.02384 -0.8329489,0.0093 -0.8858833,0.01334 -0.9674489,0.07428 -0.1995181,0.149079 -0.2153246,0.198145 -0.214232,0.665011 0.00112,0.479589 0.050094,0.702496 0.2628927,1.196623 0.3740317,0.868517 1.1772596,1.598464 2.0970187,1.905701 0.412875,0.137917 0.547204,0.153858 1.203909,0.142868 0.539708,-0.009 0.657544,-0.02014 0.859935,-0.08108 z M 2.6168569,10.035684 C 2.665273,10.017329 3.3399142,9.3700328 4.1160596,8.5972475 4.8922052,7.8244618 5.5447341,7.1921827 5.566124,7.1921827 c 0.02139,0 0.6739187,0.6322791 1.4500644,1.4050648 0.7761453,0.7727853 1.4507864,1.4200815 1.4992026,1.4384365 0.1119123,0.04243 0.2737999,0.04267 0.3868081,5.91e-4 0.1172242,-0.043652 1.2237529,-1.1434939 1.2794849,-1.2717527 0.05213,-0.119964 0.05632,-0.2842247 0.01035,-0.4054834 C 10.173681,8.3106227 9.5263846,7.6359816 8.7535993,6.8598363 7.9808136,6.0836909 7.3485345,5.431162 7.3485345,5.4097722 c 0,-0.02139 0.6322791,-0.6739188 1.4050648,-1.4500644 C 9.5263846,3.1835624 10.173681,2.5089212 10.192036,2.4605051 10.238005,2.3392466 10.233811,2.1749859 10.181684,2.0550218 10.125952,1.9267627 9.0194233,0.82692083 8.9021991,0.7832689 8.7891909,0.74118694 8.6273033,0.74143454 8.515391,0.78386054 8.4669748,0.80221505 7.7923337,1.4495115 7.0161884,2.2222971 6.2400427,2.9950826 5.5875138,3.6273617 5.566124,3.6273617 5.5447341,3.6273617 4.8922052,2.9950826 4.1160596,2.222297 3.3399142,1.4495114 2.665273,0.80221499 2.6168569,0.78386048 2.5049446,0.74143454 2.343057,0.74118694 2.2300488,0.78326884 2.1128246,0.82692076 1.0062961,1.9267627 0.9505643,2.0550217 0.8984368,2.1749858 0.8942432,2.3392465 0.9402123,2.460505 c 0.0183545,0.048416 0.6656509,0.7230574 1.4384365,1.4992027 0.7727855,0.7761457 1.4050647,1.4286746 1.4050647,1.4500645 0,0.02139 -0.6322792,0.6739187 -1.4050647,1.4500644 C 1.6058632,7.6359819 0.95856679,8.310623 0.94021227,8.3590392 0.89778634,8.4709515 0.89753874,8.6328391 0.93962064,8.7458473 0.98129077,8.8577496 2.0792554,9.9672391 2.2045603,10.024065 c 0.1139522,0.05168 0.2932986,0.05673 0.4122965,0.01162 z"
       id="path827"
       inkscape:connector-curvature="0" />
    <path
       style="fill:#b5cfe5;stroke-width:0.03127036"
       d="M 11.398046,14.965099 C 10.252312,14.700973 9.425589,13.920545 9.0937513,12.789841 9.0609006,12.677904 9.0256192,12.456157 9.0153484,12.297069 L 8.9966747,12.007818 H 9.763852 10.53103 l 0.03849,0.204004 c 0.1182,0.626432 0.562023,1.081663 1.193617,1.224295 0.187298,0.0423 0.254241,0.04413 0.434684,0.01188 0.633049,-0.113132 1.094464,-0.558601 1.238294,-1.1955 0.0423,-0.187298 0.04413,-0.254241 0.01188,-0.434684 -0.08391,-0.469524 -0.384864,-0.890848 -0.778153,-1.08938 -0.278873,-0.140775 -0.526144,-0.189328 -0.966912,-0.18986 l -0.38306,-4.62e-4 V 8.2710101 6.003909 h 0.703289 0.703288 l 0.0081,1.5361292 0.0081,1.5361292 0.21804,0.07343 c 0.981222,0.3304505 1.693684,1.0969356 1.973709,2.1233676 0.08564,0.313899 0.08564,1.155807 0,1.469706 -0.150402,0.5513 -0.410661,1.005405 -0.798502,1.393247 -0.377284,0.377283 -0.79068,0.619312 -1.346077,0.788081 -0.267958,0.08142 -1.109122,0.106265 -1.391795,0.0411 z"
       id="path825"
       inkscape:connector-curvature="0" />
    <path
       style="fill:#fe0000;stroke-width:0.03127036"
       d="M 1.9151892,9.060707 1.4105577,8.5560753 2.9411095,7.0140486 C 3.932016,6.0157132 4.4716614,5.4500737 4.4716614,5.4097722 c 0,-0.040302 -0.5396454,-0.6059411 -1.5305519,-1.6042764 L 1.4105577,2.263469 1.9151892,1.7588374 2.4198208,1.2542059 3.9618476,2.7847577 c 0.9983353,0.9909065 1.5639748,1.5305519 1.6042764,1.5305519 0.040301,0 0.605941,-0.5396454 1.6042763,-1.5305519 L 8.7124271,1.2542059 9.2170588,1.7588374 9.7216902,2.263469 8.1911384,3.8054958 C 7.200232,4.8038311 6.6605865,5.3694706 6.6605865,5.4097722 c 0,0.040301 0.5396455,0.605941 1.5305519,1.6042764 L 9.7216902,8.5560753 9.2170588,9.060707 8.7124271,9.5653384 7.1704003,8.0347866 C 6.172065,7.0438802 5.6064255,6.5042347 5.566124,6.5042347 c -0.040302,0 -0.6059411,0.5396455 -1.6042764,1.5305519 L 2.4198208,9.5653384 Z"
       id="path823"
       inkscape:connector-curvature="0" />
    <path
       style="fill:#980000;stroke-width:0.03127036"
       d="M 2.2045603,10.024065 C 2.0792555,9.9672391 0.98129083,8.8577496 0.9396207,8.7458473 0.89753874,8.6328391 0.89778634,8.4709515 0.94021234,8.3590392 0.95856685,8.310623 1.6058633,7.6359819 2.3786489,6.8598366 3.1514343,6.0836909 3.7837135,5.431162 3.7837135,5.4097722 c 0,-0.02139 -0.6322792,-0.6739188 -1.4050647,-1.4500644 C 1.6058632,3.1835624 0.95856679,2.5089212 0.94021227,2.4605051 0.89424319,2.3392466 0.89843676,2.1749859 0.9505643,2.0550218 1.0062961,1.9267627 2.1128246,0.82692083 2.2300488,0.7832689 2.343057,0.74118694 2.5049446,0.74143454 2.6168569,0.78386054 2.665273,0.80221505 3.3399142,1.4495115 4.1160596,2.2222971 4.8922052,2.9950826 5.5447341,3.6273617 5.566124,3.6273617 c 0.02139,0 0.6739187,-0.6322791 1.4500644,-1.4050647 C 7.7923337,1.4495114 8.4669748,0.80221499 8.515391,0.78386048 8.6273033,0.74143454 8.7891909,0.74118694 8.9021991,0.78326884 9.0194233,0.82692076 10.125952,1.9267627 10.181684,2.0550217 c 0.05213,0.1199641 0.05632,0.2842248 0.01035,0.4054833 -0.01835,0.048416 -0.6656514,0.7230574 -1.4384367,1.4992027 -0.7727857,0.7761457 -1.4050648,1.4286746 -1.4050648,1.4500645 0,0.02139 0.6322791,0.6739187 1.4050648,1.4500644 0.7727853,0.7761453 1.4200817,1.4507864 1.4384367,1.4992026 0.04597,0.1212587 0.04177,0.2855194 -0.01035,0.4054834 C 10.125952,8.8927814 9.0194233,9.9926235 8.9021991,10.036275 8.7891909,10.078357 8.6273033,10.07811 8.515391,10.035684 8.4669748,10.01733 7.7923337,9.3700331 7.0161884,8.5972478 6.2400427,7.8244618 5.5875138,7.1921827 5.566124,7.1921827 c -0.02139,0 -0.6739188,0.6322791 -1.4500644,1.4050648 C 3.3399142,9.3700328 2.665273,10.017329 2.6168569,10.035684 2.497859,10.080796 2.3185125,10.075742 2.2045603,10.024065 Z M 5.566124,6.5042347 c 0.040301,0 0.605941,0.5396455 1.6042763,1.5305519 L 8.7124271,9.5653384 9.2170588,9.060707 9.7216902,8.5560753 8.1911384,7.0140486 C 7.200232,6.0157132 6.6605865,5.4500737 6.6605865,5.4097722 c 0,-0.040302 0.5396455,-0.6059411 1.5305519,-1.6042764 L 9.7216902,2.263469 9.2170588,1.7588374 8.7124271,1.2542059 7.1704003,2.7847577 C 6.172065,3.7756642 5.6064255,4.3153096 5.566124,4.3153096 c -0.040302,0 -0.6059411,-0.5396454 -1.6042764,-1.5305519 L 2.4198208,1.2542059 1.9151892,1.7588374 1.4105577,2.263469 2.9411095,3.8054958 c 0.9909065,0.9983353 1.5305519,1.5639748 1.5305519,1.6042764 0,0.040301 -0.5396454,0.605941 -1.5305519,1.6042764 L 1.4105577,8.5560753 1.9151892,9.060707 2.4198208,9.5653384 3.9618476,8.0347866 C 4.9601829,7.0438802 5.5258224,6.5042347 5.566124,6.5042347 Z"
       id="path821"
       inkscape:connector-curvature="0" />
    <path
       style="fill:#000000;stroke-width:0.03127036"
       d="M 11.272965,15.46555 C 10.1567,15.211393 9.2154196,14.448532 8.7850663,13.449234 8.5722678,12.955107 8.5232962,12.7322 8.5221736,12.252611 c -0.00109,-0.466866 0.014714,-0.515932 0.214232,-0.665011 0.081566,-0.06095 0.1345,-0.06501 0.9674489,-0.07428 0.5664135,-0.0063 0.9220125,0.0022 0.9955255,0.02384 0.181535,0.05342 0.294089,0.208904 0.356381,0.49232 0.09453,0.430088 0.247121,0.653415 0.557169,0.815442 0.229329,0.119844 0.560447,0.119844 0.789776,0 0.0882,-0.04609 0.204922,-0.128363 0.259384,-0.182826 0.05446,-0.05446 0.136734,-0.171185 0.182826,-0.259384 0.119844,-0.229329 0.119844,-0.560447 0,-0.789776 -0.135357,-0.259012 -0.336781,-0.424313 -0.63295,-0.519438 -0.05209,-0.01673 -0.315306,-0.03948 -0.584933,-0.05055 -0.531695,-0.02184 -0.579447,-0.0373 -0.727381,-0.235437 -0.06383,-0.0855 -0.06447,-0.110648 -0.06447,-2.5364919 0,-2.4258435 6.37e-4,-2.4509933 0.06447,-2.5364915 0.03546,-0.047495 0.103333,-0.1153673 0.150828,-0.1508273 0.08247,-0.061571 0.126266,-0.064473 0.972973,-0.064473 0.846707,0 0.890507,0.0029 0.972974,0.064473 0.04749,0.03546 0.115367,0.1033142 0.150827,0.150787 0.06236,0.083484 0.06499,0.133434 0.08011,1.5233527 l 0.01564,1.4370385 0.238619,0.1037125 c 0.362961,0.1577564 0.667298,0.3741298 1.014303,0.7211348 0.471032,0.4710317 0.73046,0.9103812 0.924473,1.5656252 0.06786,0.229189 0.07407,0.306531 0.07407,0.922476 0,0.615945 -0.0062,0.693287 -0.07407,0.922476 -0.194013,0.655244 -0.453441,1.094594 -0.924473,1.565625 -0.356158,0.356158 -0.655501,0.566232 -1.046685,0.734547 -0.531607,0.228734 -0.669229,0.255722 -1.36324,0.267337 -0.449621,0.0075 -0.678143,-0.0015 -0.813029,-0.03225 z m 1.516876,-0.541551 c 0.555397,-0.168769 0.968793,-0.410798 1.346077,-0.788081 0.387841,-0.387842 0.6481,-0.841947 0.798502,-1.393247 0.08564,-0.313899 0.08564,-1.155807 0,-1.469706 -0.280025,-1.026432 -0.992487,-1.7929168 -1.973709,-2.1233673 l -0.21804,-0.07343 -0.0081,-1.5361292 -0.0081,-1.5361292 H 12.023159 11.31987 v 2.2671011 2.2671006 l 0.383062,4.63e-4 c 0.440768,5.32e-4 0.688039,0.04908 0.966912,0.18986 0.393289,0.198532 0.694244,0.619856 0.778153,1.08938 0.10027,0.561075 -0.26134,1.220397 -0.814811,1.485641 -0.324187,0.155362 -0.590032,0.195898 -0.870047,0.132663 -0.631594,-0.142632 -1.075417,-0.597863 -1.193617,-1.224295 L 10.53103,12.007818 H 9.763852 8.9966747 l 0.018674,0.289251 c 0.010271,0.159088 0.045552,0.380835 0.078403,0.492772 0.3318377,1.130704 1.1585603,1.911132 2.3042943,2.175258 0.282673,0.06517 1.123837,0.04032 1.391795,-0.0411 z"
       id="path819"
       inkscape:connector-curvature="0" />
  </g>
</svg>
