<?xml version="1.0" encoding="UTF-8" standalone="no"?>
<!-- Created with Inkscape (http://www.inkscape.org/) -->

<svg
   xmlns:dc="http://purl.org/dc/elements/1.1/"
   xmlns:cc="http://creativecommons.org/ns#"
   xmlns:rdf="http://www.w3.org/1999/02/22-rdf-syntax-ns#"
   xmlns:svg="http://www.w3.org/2000/svg"
   xmlns="http://www.w3.org/2000/svg"
   xmlns:sodipodi="http://sodipodi.sourceforge.net/DTD/sodipodi-0.dtd"
   xmlns:inkscape="http://www.inkscape.org/namespaces/inkscape"
   version="1.1"
   id="svg2"
   width="16.010424"
   height="16.010424"
   viewBox="0 0 16.010424 16.010424"
   sodipodi:docname="HOOK_SELECT.svg"
   inkscape:version="0.92.4 (5da689c313, 2019-01-14)">
  <metadata
     id="metadata8">
    <rdf:RDF>
      <cc:Work
         rdf:about="">
        <dc:format>image/svg+xml</dc:format>
        <dc:type
           rdf:resource="http://purl.org/dc/dcmitype/StillImage" />
        <dc:title></dc:title>
      </cc:Work>
    </rdf:RDF>
  </metadata>
  <defs
     id="defs6" />
  <sodipodi:namedview
     pagecolor="#ffffff"
     bordercolor="#666666"
     borderopacity="1"
     objecttolerance="10"
     gridtolerance="10"
     guidetolerance="10"
     inkscape:pageopacity="0"
     inkscape:pageshadow="2"
     inkscape:window-width="828"
     inkscape:window-height="480"
     id="namedview4"
     showgrid="false"
     inkscape:zoom="14.740397"
     inkscape:cx="8.0052118"
     inkscape:cy="8.0052118"
     inkscape:window-x="0"
     inkscape:window-y="0"
     inkscape:window-maximized="0"
     inkscape:current-layer="svg2" />
  <g
     id="HOOK_SELECT">
    <path
       style="fill:#ffffff;stroke-width:0.03127036"
       d="M 0,8.005212 V 0 h 8.005212 8.005212 l -0.0025,5.6677526 c -0.0021,4.7499304 -0.0091,5.6373694 -0.04342,5.4801304 -0.05656,-0.259206 -0.187346,-0.639821 -0.314207,-0.914395 C 15.486322,9.878567 15.275895,9.5837191 14.932623,9.2278796 14.583964,8.8664565 14.253034,8.6051004 13.93736,8.4418575 L 13.727919,8.3335508 13.727794,7.0596192 C 13.727669,5.5811272 13.728473,5.586102 13.439722,5.2937204 13.164023,5.0145442 13.10899,5.0032575 12.023453,5.0032575 c -1.085536,0 -1.140569,0.011287 -1.416278,0.2904629 -0.305855,0.3097025 -0.287956,0.1248653 -0.287956,2.9736936 0,2.092434 0.0071,2.501964 0.04552,2.610739 l 0.04552,0.129014 H 9.5989487 c -0.9569052,0 -1.0274862,0.01559 -1.3032738,0.287956 -0.2445221,0.241485 -0.2905992,0.388486 -0.28992,0.924943 3.127e-4,0.243915 0.019215,0.51687 0.04385,0.633071 0.099236,0.468089 0.3216835,1.007485 0.5709714,1.384503 0.1917508,0.289999 0.7074397,0.824031 1.0236515,1.060063 0.3870592,0.288914 0.9830652,0.553219 1.5036552,0.66681 0.157239,0.03431 -0.7302,0.04134 -5.4801305,0.04342 L 0,16.010424 Z m 8.0047333,4.948534 c -2.815e-4,-0.03123 -0.010498,-0.0413 -0.023817,-0.02345 -0.012836,0.0172 -0.036073,0.04182 -0.051638,0.05472 -0.015566,0.0129 -0.00485,0.02345 0.023816,0.02345 0.028971,0 0.051905,-0.0243 0.051639,-0.05472 z M 4.7350388,12.839509 c 0.05776,-0.02413 0.4863035,-0.27072 0.9523204,-0.54797 0.6394407,-0.380426 0.8589139,-0.526542 0.8946302,-0.59561 0.1080591,-0.208963 0.088229,-0.2633 -0.5937156,-1.626873 C 5.6357005,9.364073 5.3472315,8.7731301 5.3472315,8.7558495 c 0,-0.020457 0.3883603,-0.031419 1.1130906,-0.031419 1.2196647,0 1.2263882,-9.507e-4 1.3373942,-0.1888677 C 7.8573986,8.4345281 7.8632371,8.2070184 7.808664,8.1089449 7.7877751,8.0714051 6.2822508,6.4360328 4.4630542,4.4747844 0.84044504,0.56930366 1.0550477,0.77940508 0.79111239,0.87985957 0.72434426,0.90527171 0.64261029,0.9702477 0.60245168,1.0298391 l -0.0708556,0.1051425 v 5.1110722 c 0,4.6752892 0.004361,5.1184542 0.051144,5.1976522 0.1031648,0.174644 0.37973164,0.252276 0.54071592,0.151778 0.036198,-0.0226 0.446945,-0.438611 0.9127707,-0.924474 0.4658257,-0.485863 0.8560899,-0.8831943 0.8672539,-0.8829579 0.011164,2.502e-4 0.3228387,0.6552129 0.6926107,1.4555039 0.369772,0.80029 0.702135,1.483298 0.738584,1.517794 0.056561,0.05353 0.1843732,0.109842 0.2708895,0.11935 0.013451,0.0015 0.071715,-0.01706 0.129474,-0.04119 z M 7.9960579,4.9332638 c -0.00748,-0.038898 -0.013883,-0.014436 -0.014231,0.054359 -3.471e-4,0.068795 0.00577,0.1006202 0.013599,0.070723 0.00783,-0.029897 0.00811,-0.086184 6.32e-4,-0.125082 z M 12.867753,15.964513 c 0.52059,-0.113591 1.116596,-0.377896 1.503655,-0.66681 0.316212,-0.236032 0.831901,-0.770064 1.023652,-1.060063 0.244443,-0.369691 0.469174,-0.910309 0.569453,-1.369887 0.03567,-0.163488 0.04126,0.02657 0.04342,1.477524 l 0.0025,1.665147 -1.665147,-0.0025 c -1.450957,-0.0022 -1.641012,-0.0078 -1.477524,-0.04342 z"
       id="path825"
       inkscape:connector-curvature="0" />
    <path
       style="fill:#fefefe;stroke-width:0.03127036"
       d="M 11.147883,15.964513 C 10.627293,15.850922 10.031287,15.586617 9.6442279,15.297703 9.3280161,15.061671 8.8123272,14.527639 8.6205764,14.23764 8.3712885,13.860622 8.1488405,13.321226 8.049605,12.853137 8.024946,12.736823 8.006064,12.463858 8.005755,12.219228 8.0050826,11.688097 8.050098,11.543757 8.2931686,11.297629 8.5638427,11.023551 8.6375463,11.007167 9.5997862,11.007167 h 0.8104688 l -0.04552,-0.129014 c -0.03838,-0.108775 -0.04552,-0.518305 -0.04552,-2.610739 0,-2.8488283 -0.0179,-2.6639911 0.287956,-2.9736936 0.275709,-0.2791762 0.330742,-0.2904629 1.416278,-0.2904629 1.085537,0 1.14057,0.011287 1.416278,0.2904629 0.28875,0.2923816 0.287938,0.2874068 0.288072,1.7658988 l 1.26e-4,1.2739316 0.20944,0.1083067 c 0.115192,0.059569 0.315661,0.1876194 0.445487,0.2845569 0.30624,0.228662 0.823212,0.765741 1.012213,1.0515818 0.249288,0.3770178 0.471736,0.9164138 0.570971,1.3845028 0.05921,0.279298 0.05921,1.41134 0,1.690638 -0.09924,0.468089 -0.321683,1.007485 -0.570971,1.384503 -0.191751,0.289999 -0.70744,0.824031 -1.023651,1.060063 -0.393741,0.293901 -0.989847,0.556301 -1.518272,0.668328 -0.270023,0.05724 -1.440717,0.0562 -1.705254,-0.0015 z m 1.798046,-0.547788 c 0.64625,-0.194574 1.083541,-0.454356 1.54999,-0.920806 0.471032,-0.471031 0.73046,-0.910381 0.924473,-1.565625 0.06786,-0.229189 0.07407,-0.306531 0.07407,-0.922476 0,-0.615945 -0.0062,-0.693287 -0.07407,-0.922476 C 15.226379,10.430098 14.966951,9.9907485 14.495919,9.5197168 14.148914,9.1727118 13.844577,8.9563384 13.481616,8.798582 L 13.242997,8.6948695 13.227362,7.257831 c -0.01512,-1.3899187 -0.01775,-1.4398687 -0.08011,-1.5233527 -0.03546,-0.047473 -0.103332,-0.115327 -0.150827,-0.150787 -0.08247,-0.061571 -0.126267,-0.064473 -0.972974,-0.064473 -0.846707,0 -0.890506,0.0029 -0.972973,0.064473 -0.04749,0.03546 -0.115368,0.1033323 -0.150828,0.1508273 -0.06383,0.085498 -0.06447,0.110648 -0.06447,2.5364915 0,2.4258439 6.37e-4,2.4509929 0.06447,2.5364919 0.147934,0.19814 0.195686,0.213596 0.727381,0.235437 0.269627,0.01107 0.532847,0.03382 0.584933,0.05055 0.296169,0.09513 0.497593,0.260426 0.63295,0.519438 0.119844,0.229329 0.119844,0.560447 0,0.789776 -0.04609,0.0882 -0.128363,0.204922 -0.182826,0.259384 -0.05446,0.05446 -0.171185,0.136734 -0.259384,0.182826 -0.229329,0.119844 -0.560447,0.119844 -0.789776,0 -0.310048,-0.162027 -0.462641,-0.385354 -0.557169,-0.815442 -0.06229,-0.283416 -0.174846,-0.438904 -0.356381,-0.49232 -0.07351,-0.02163 -0.429112,-0.03015 -0.9955255,-0.02384 -0.8329489,0.0093 -0.8858833,0.01334 -0.9674489,0.07428 -0.1995181,0.149079 -0.2153246,0.198145 -0.214232,0.665011 0.00112,0.479589 0.050094,0.702496 0.2628927,1.196623 0.3740317,0.868517 1.1772596,1.598464 2.0970187,1.905701 0.412875,0.137917 0.547204,0.153858 1.203909,0.142868 0.539708,-0.009 0.657544,-0.02014 0.859935,-0.08108 z M 4.7588959,11.798872 C 4.7424242,11.767603 4.4237317,11.080652 4.0506904,10.272313 3.2937686,8.6321474 3.2932201,8.6312746 3.0187709,8.6297361 L 2.8612379,8.628853 2.1037883,9.4036775 1.3463386,10.178502 1.345482,6.2547827 1.3446255,2.3310632 l 0.073629,0.077465 c 0.040496,0.042606 0.9657077,1.0406301 2.0560262,2.2178315 1.0903186,1.1772015 2.2115971,2.3873644 2.4917304,2.6892509 l 0.5093332,0.5488846 -0.9627534,0.015635 c -0.645758,0.010487 -0.9833456,0.02756 -1.0252941,0.051852 -0.128611,0.074477 -0.2104896,0.1943166 -0.2258452,0.3305528 -0.014387,0.1276393 0.029752,0.226312 0.7072048,1.5809671 0.3974019,0.7946579 0.7225492,1.4501169 0.7225492,1.4565759 0,0.0065 -0.1723778,0.114438 -0.3830619,0.239952 -0.210684,0.125514 -0.4137153,0.247892 -0.4511806,0.27195 -0.060363,0.03876 -0.071529,0.03727 -0.098067,-0.01311 z"
       id="path823"
       inkscape:connector-curvature="0" />
    <path
       style="fill:#b5cfe5;stroke-width:0.03127036"
       d="M 11.398046,14.965099 C 10.252312,14.700973 9.425589,13.920545 9.0937513,12.789841 9.0609006,12.677904 9.0256192,12.456157 9.0153484,12.297069 L 8.9966747,12.007818 H 9.763852 10.53103 l 0.03849,0.204004 c 0.1182,0.626432 0.562023,1.081663 1.193617,1.224295 0.187298,0.0423 0.254241,0.04413 0.434684,0.01188 0.633049,-0.113132 1.094464,-0.558601 1.238294,-1.1955 0.0423,-0.187298 0.04413,-0.254241 0.01188,-0.434684 -0.08391,-0.469524 -0.384864,-0.890848 -0.778153,-1.08938 -0.278873,-0.140775 -0.526144,-0.189328 -0.966912,-0.18986 l -0.38306,-4.62e-4 V 8.2710101 6.003909 h 0.703289 0.703288 l 0.0081,1.5361292 0.0081,1.5361292 0.21804,0.07343 c 0.981222,0.3304505 1.693684,1.0969356 1.973709,2.1233676 0.08564,0.313899 0.08564,1.155807 0,1.469706 -0.150402,0.5513 -0.410661,1.005405 -0.798502,1.393247 -0.377284,0.377283 -0.79068,0.619312 -1.346077,0.788081 -0.267958,0.08142 -1.109122,0.106265 -1.391795,0.0411 z"
       id="path821"
       inkscape:connector-curvature="0" />
    <path
       style="fill:#000000;stroke-width:0.03127036"
       d="M 11.272965,15.46555 C 10.1567,15.211393 9.2154196,14.448532 8.7850663,13.449234 8.5722678,12.955107 8.5232962,12.7322 8.5221736,12.252611 c -0.00109,-0.466866 0.014714,-0.515932 0.214232,-0.665011 0.081566,-0.06095 0.1345,-0.06501 0.9674489,-0.07428 0.5664135,-0.0063 0.9220125,0.0022 0.9955255,0.02384 0.181535,0.05342 0.294089,0.208904 0.356381,0.49232 0.09453,0.430088 0.247121,0.653415 0.557169,0.815442 0.229329,0.119844 0.560447,0.119844 0.789776,0 0.0882,-0.04609 0.204922,-0.128363 0.259384,-0.182826 0.05446,-0.05446 0.136734,-0.171185 0.182826,-0.259384 0.119844,-0.229329 0.119844,-0.560447 0,-0.789776 -0.135357,-0.259012 -0.336781,-0.424313 -0.63295,-0.519438 -0.05209,-0.01673 -0.315306,-0.03948 -0.584933,-0.05055 -0.531695,-0.02184 -0.579447,-0.0373 -0.727381,-0.235437 -0.06383,-0.0855 -0.06447,-0.110648 -0.06447,-2.5364919 0,-2.4258435 6.37e-4,-2.4509933 0.06447,-2.5364915 0.03546,-0.047495 0.103333,-0.1153673 0.150828,-0.1508273 0.08247,-0.061571 0.126266,-0.064473 0.972973,-0.064473 0.846707,0 0.890507,0.0029 0.972974,0.064473 0.04749,0.03546 0.115367,0.1033142 0.150827,0.150787 0.06236,0.083484 0.06499,0.133434 0.08011,1.5233527 l 0.01564,1.4370385 0.238619,0.1037125 c 0.362961,0.1577564 0.667298,0.3741298 1.014303,0.7211348 0.471032,0.4710317 0.73046,0.9103812 0.924473,1.5656252 0.06786,0.229189 0.07407,0.306531 0.07407,0.922476 0,0.615945 -0.0062,0.693287 -0.07407,0.922476 -0.194013,0.655244 -0.453441,1.094594 -0.924473,1.565625 -0.356158,0.356158 -0.655501,0.566232 -1.046685,0.734547 -0.531607,0.228734 -0.669229,0.255722 -1.36324,0.267337 -0.449621,0.0075 -0.678143,-0.0015 -0.813029,-0.03225 z m 1.516876,-0.541551 c 0.555397,-0.168769 0.968793,-0.410798 1.346077,-0.788081 0.387841,-0.387842 0.6481,-0.841947 0.798502,-1.393247 0.08564,-0.313899 0.08564,-1.155807 0,-1.469706 -0.280025,-1.026432 -0.992487,-1.7929168 -1.973709,-2.1233673 l -0.21804,-0.07343 -0.0081,-1.5361292 -0.0081,-1.5361292 H 12.023159 11.31987 v 2.2671011 2.2671006 l 0.383062,4.63e-4 c 0.440768,5.32e-4 0.688039,0.04908 0.966912,0.18986 0.393289,0.198532 0.694244,0.619856 0.778153,1.08938 0.10027,0.561075 -0.26134,1.220397 -0.814811,1.485641 -0.324187,0.155362 -0.590032,0.195898 -0.870047,0.132663 -0.631594,-0.142632 -1.075417,-0.597863 -1.193617,-1.224295 L 10.53103,12.007818 H 9.763852 8.9966747 l 0.018674,0.289251 c 0.010271,0.159088 0.045552,0.380835 0.078403,0.492772 0.3318377,1.130704 1.1585603,1.911132 2.3042943,2.175258 0.282673,0.06517 1.123837,0.04032 1.391795,-0.0411 z M 7.9292782,12.985017 c 0.015565,-0.0129 0.038803,-0.03752 0.051638,-0.05472 0.013318,-0.01785 0.023543,-0.0078 0.023817,0.02345 2.814e-4,0.03042 -0.022668,0.05472 -0.051639,0.05472 -0.028664,0 -0.039382,-0.01055 -0.023816,-0.02345 z M 4.4855736,12.849209 C 4.4330297,12.834364 4.3607923,12.790248 4.3250456,12.751174 4.2892992,12.7121 3.9593904,12.029382 3.5919152,11.234022 3.22444,10.438662 2.9142786,9.7878476 2.9026675,9.7877679 2.8910564,9.7876741 2.4981721,10.187498 2.0295912,10.676234 1.5610104,11.16497 1.1441805,11.580085 1.1033026,11.59871 c -0.040878,0.01863 -0.13160348,0.03386 -0.20161241,0.03386 -0.10616709,0 -0.14743405,-0.02014 -0.24869151,-0.121403 L 0.53159611,11.389768 V 6.2623751 1.1349816 L 0.60245168,1.0298391 C 0.64261029,0.9702477 0.72434426,0.90527171 0.79111239,0.87985957 1.0532148,0.78010266 0.84128505,0.57251291 4.4615933,4.475174 6.2815932,6.4371182 7.7877751,8.0726875 7.808664,8.1097723 7.8295533,8.146857 7.8471428,8.2456948 7.847752,8.3294121 7.8487401,8.4652106 7.8357682,8.4947173 7.7274577,8.6030278 L 7.6060549,8.7244303 H 6.4766433 c -0.7356627,0 -1.1294118,0.010954 -1.1294118,0.031419 0,0.017281 0.288469,0.6082235 0.6410423,1.3132067 0.681262,1.362207 0.7016894,1.418075 0.5943783,1.625592 -0.03484,0.06737 -0.2586782,0.216354 -0.8833877,0.58796 -0.4601981,0.273747 -0.8648668,0.511928 -0.8992642,0.52929 -0.104438,0.05272 -0.2139187,0.06571 -0.3144266,0.03731 z M 5.3081435,11.54003 c 0.2106841,-0.125514 0.3830619,-0.233492 0.3830619,-0.239952 0,-0.0065 -0.3236482,-0.658921 -0.7192183,-1.4499148 C 4.4747543,8.8558818 4.2528048,8.3805842 4.2528858,8.3102312 4.2530422,8.1863299 4.3448304,8.0283086 4.4608906,7.9521878 4.5376681,7.9018316 4.6507436,7.8940846 5.5126595,7.8801306 L 6.478402,7.8644954 5.5636649,6.8794791 C 5.0605595,6.3377201 3.9456445,5.134593 3.0860762,4.2058633 2.2265078,3.2771337 1.4830397,2.4753196 1.433925,2.4240542 l -0.089299,-0.09321 9.751e-4,3.9238287 9.752e-4,3.9238291 0.757331,-0.7747325 0.7573311,-0.774732 0.1407166,9.069e-4 c 0.2084047,0.00134 0.3200631,0.084726 0.4327002,0.3231232 0.052627,0.1113859 0.3652106,0.7844667 0.6946294,1.4957364 0.3294192,0.711268 0.6125823,1.318799 0.6292519,1.350067 0.026855,0.05037 0.03807,0.05187 0.098427,0.01311 0.037465,-0.02406 0.2404966,-0.146437 0.45118,-0.271951 z M 7.9818274,4.9876223 c 3.471e-4,-0.068795 0.00675,-0.093256 0.014231,-0.054359 0.00748,0.038898 0.0072,0.095184 -6.316e-4,0.1250814 -0.00783,0.029897 -0.013947,-0.00193 -0.013599,-0.070722 z"
       id="path819"
       inkscape:connector-curvature="0" />
  </g>
</svg>
