<?xml version="1.0" encoding="UTF-8" standalone="no"?>
<!-- Created with Inkscape (http://www.inkscape.org/) -->

<svg
   xmlns:dc="http://purl.org/dc/elements/1.1/"
   xmlns:cc="http://creativecommons.org/ns#"
   xmlns:rdf="http://www.w3.org/1999/02/22-rdf-syntax-ns#"
   xmlns:svg="http://www.w3.org/2000/svg"
   xmlns="http://www.w3.org/2000/svg"
   xmlns:sodipodi="http://sodipodi.sourceforge.net/DTD/sodipodi-0.dtd"
   xmlns:inkscape="http://www.inkscape.org/namespaces/inkscape"
   version="1.1"
   id="svg2"
   width="16.010424"
   height="16.010424"
   viewBox="0 0 16.010424 16.010424"
   sodipodi:docname="MAKE_REGULAR.svg"
   inkscape:version="0.92.4 (5da689c313, 2019-01-14)">
  <metadata
     id="metadata8">
    <rdf:RDF>
      <cc:Work
         rdf:about="">
        <dc:format>image/svg+xml</dc:format>
        <dc:type
           rdf:resource="http://purl.org/dc/dcmitype/StillImage" />
        <dc:title></dc:title>
      </cc:Work>
    </rdf:RDF>
  </metadata>
  <defs
     id="defs6" />
  <sodipodi:namedview
     pagecolor="#ffffff"
     bordercolor="#666666"
     borderopacity="1"
     objecttolerance="10"
     gridtolerance="10"
     guidetolerance="10"
     inkscape:pageopacity="0"
     inkscape:pageshadow="2"
     inkscape:window-width="989"
     inkscape:window-height="950"
     id="namedview4"
     showgrid="false"
     inkscape:zoom="14.740397"
     inkscape:cx="8.0052118"
     inkscape:cy="8.0052118"
     inkscape:window-x="0"
     inkscape:window-y="0"
     inkscape:window-maximized="0"
     inkscape:current-layer="svg2" />
  <g
     id="MAKE_REGULAR">
    <path
       style="fill:#ffffff;stroke-width:0.03127036"
       d="M 0,15.510098 V 15.009773 H 7.5048862 15.009773 V 7.5048862 0 h 0.500325 0.500326 v 8.005212 8.005212 H 8.005212 0 Z"
       id="path827"
       inkscape:connector-curvature="0" />
    <path
       style="fill:#cbfefe;stroke-width:0.03127036"
       d="M 5.0032575,12.508144 V 10.006515 H 2.5016288 0 V 7.5048862 5.0032575 H 2.5016288 5.0032575 V 2.5016288 0 h 2.5016287 2.5016288 v 2.5016288 2.5016287 h 2.501629 2.501629 v 2.5016287 2.5016288 h -2.501629 -2.501629 v 2.501629 2.501629 H 7.5048862 5.0032575 Z M 7.8631961,13.96124 C 8.4025222,13.820763 8.8179743,13.403981 8.9592184,12.861708 9.1617587,12.084104 8.6640162,11.263635 7.8631961,11.055047 7.0807054,10.851234 6.2609908,11.346658 6.0517899,12.149834 5.7730812,13.219869 6.7931607,14.239949 7.8631961,13.96124 Z M 10.006515,7.5048862 V 5.0032575 H 7.5048862 5.0032575 V 7.5048862 10.006515 H 7.5048862 10.006515 Z M 2.8599385,8.9579826 C 3.3992647,8.8175059 3.8147168,8.4007236 3.9559609,7.8584508 4.1585012,7.0808461 3.6607587,6.2603772 2.8599385,6.0517899 2.0774478,5.8479769 1.2577333,6.3434 1.0485324,7.1465764 0.76982365,8.2166118 1.7899032,9.2366913 2.8599385,8.9579826 Z m 10.0065155,0 C 13.40578,8.8175059 13.821232,8.4007236 13.962476,7.8584508 14.165016,7.0808461 13.667274,6.2603772 12.866454,6.0517899 12.083963,5.8479769 11.264248,6.3434 11.055047,7.1465764 10.776339,8.2166118 11.796418,9.2366913 12.866454,8.9579826 Z M 7.8631961,3.9547251 C 8.4025222,3.8142484 8.8179743,3.3974661 8.9592184,2.8551934 9.1617587,2.0775885 8.6640162,1.2571196 7.8631961,1.0485324 7.0807054,0.84471951 6.2609908,1.3401426 6.0517899,2.143319 5.7730812,3.2133543 6.7931607,4.2334338 7.8631961,3.9547251 Z"
       id="path825"
       inkscape:connector-curvature="0" />
    <path
       style="fill:#fefe00;stroke-width:0.03127036"
       d="m 2.001303,12.508144 v -0.500326 h 0.5003258 0.5003257 v 0.500326 0.500326 H 2.5016288 2.001303 Z m 5.0032575,0 V 12.007818 H 7.5048862 8.005212 v 0.500326 0.500326 H 7.5048862 7.0045605 Z m 5.0032575,0 v -0.500326 h 0.500326 0.500326 v 0.500326 0.500326 H 12.508144 12.007818 Z M 2.001303,7.5048862 V 7.0045605 H 2.5016288 3.0019545 V 7.5048862 8.005212 H 2.5016288 2.001303 Z m 10.006515,0 V 7.0045605 h 0.500326 0.500326 V 7.5048862 8.005212 H 12.508144 12.007818 Z M 2.001303,2.5016288 V 2.001303 H 2.5016288 3.0019545 V 2.5016288 3.0019545 H 2.5016288 2.001303 Z m 5.0032575,0 V 2.001303 H 7.5048862 8.005212 V 2.5016288 3.0019545 H 7.5048862 7.0045605 Z m 5.0032575,0 V 2.001303 h 0.500326 0.500326 v 0.5003258 0.5003257 h -0.500326 -0.500326 z"
       id="path823"
       inkscape:connector-curvature="0" />
    <path
       style="fill:#989898;stroke-width:0.03127036"
       d="M 0,12.508144 V 10.006515 H 2.5016288 5.0032575 V 7.5048862 5.0032575 H 2.5016288 0 V 2.5016288 0 H 2.5016288 5.0032575 V 2.5016288 5.0032575 H 7.5048862 10.006515 V 2.5016288 0 h 2.501629 2.501629 v 2.5016288 2.5016287 h -2.501629 -2.501629 v 2.5016287 2.5016288 h 2.501629 2.501629 v 2.501629 2.501629 H 12.508144 10.006515 V 12.508144 10.006515 H 7.5048862 5.0032575 v 2.501629 2.501629 H 2.5016288 0 Z M 2.8599385,13.96124 C 3.6607587,13.752653 4.1585012,12.932184 3.9559609,12.154579 3.8147168,11.612306 3.3992647,11.195524 2.8599385,11.055047 2.0774478,10.851234 1.2577333,11.346658 1.0485324,12.149834 0.76982365,13.219869 1.7899032,14.239949 2.8599385,13.96124 Z m 10.0065155,0 c 0.539326,-0.140477 0.954778,-0.557259 1.096022,-1.099532 0.20254,-0.777604 -0.295202,-1.598073 -1.096022,-1.806661 -0.782491,-0.203813 -1.602206,0.291611 -1.811407,1.094787 -0.278708,1.070035 0.741371,2.090115 1.811407,1.811406 z M 2.8599385,3.9547251 C 3.3992647,3.8142484 3.8147168,3.3974661 3.9559609,2.8551934 4.1585012,2.0775885 3.6607587,1.2571196 2.8599385,1.0485324 2.0774478,0.84471951 1.2577333,1.3401426 1.0485324,2.143319 0.76982365,3.2133543 1.7899032,4.2334338 2.8599385,3.9547251 Z m 10.0065155,0 c 0.539326,-0.1404767 0.954778,-0.557259 1.096022,-1.0995317 0.20254,-0.7776049 -0.295202,-1.5980738 -1.096022,-1.806661 -0.782491,-0.20381289 -1.602206,0.2916102 -1.811407,1.0947866 -0.278708,1.0700353 0.741371,2.0901148 1.811407,1.8114061 z"
       id="path821"
       inkscape:connector-curvature="0" />
    <path
       style="fill:#fe0000;stroke-width:0.03127036"
       d="m 2.1298969,13.959697 c -0.7928847,-0.213234 -1.28339905,-1.0342 -1.0813645,-1.809863 0.2092009,-0.803176 1.0289154,-1.2986 1.8114061,-1.094787 0.8008202,0.208588 1.2985627,1.029057 1.0960224,1.806661 -0.2111124,0.810516 -1.0405426,1.309242 -1.826064,1.097989 z M 3.0019545,12.508144 V 12.007818 H 2.5016288 2.001303 v 0.500326 0.500326 h 0.5003258 0.5003257 z m 4.1312,1.451553 c -0.7928849,-0.213234 -1.2833993,-1.0342 -1.0813646,-1.809863 0.2092009,-0.803176 1.0289155,-1.2986 1.8114062,-1.094787 0.8008201,0.208588 1.2985626,1.029057 1.0960223,1.806661 C 8.748106,13.672224 7.9186757,14.17095 7.1331545,13.959697 Z M 8.005212,12.508144 V 12.007818 H 7.5048862 7.0045605 v 0.500326 0.500326 H 7.5048862 8.005212 Z m 4.1312,1.451553 c -0.792885,-0.213234 -1.283399,-1.0342 -1.081365,-1.809863 0.209201,-0.803176 1.028916,-1.2986 1.811407,-1.094787 0.80082,0.208588 1.298562,1.029057 1.096022,1.806661 -0.211113,0.810516 -1.040543,1.309242 -1.826064,1.097989 z m 0.872058,-1.451553 v -0.500326 h -0.500326 -0.500326 v 0.500326 0.500326 h 0.500326 0.500326 z M 2.1298969,8.9564391 C 1.3370122,8.7432056 0.84649785,7.9222395 1.0485324,7.1465764 1.2577333,6.3434 2.0774478,5.8479769 2.8599385,6.0517899 3.6607587,6.2603772 4.1585012,7.0808461 3.9559609,7.8584508 3.7448485,8.668967 2.9154183,9.1676923 2.1298969,8.9564391 Z M 3.0019545,7.5048862 V 7.0045605 H 2.5016288 2.001303 V 7.5048862 8.005212 H 2.5016288 3.0019545 Z M 12.136412,8.9564391 C 11.343527,8.7432056 10.853013,7.9222395 11.055047,7.1465764 11.264248,6.3434 12.083963,5.8479769 12.866454,6.0517899 c 0.80082,0.2085873 1.298562,1.0290562 1.096022,1.8066609 -0.211113,0.8105162 -1.040543,1.3092415 -1.826064,1.0979883 z M 13.00847,7.5048862 V 7.0045605 H 12.508144 12.007818 V 7.5048862 8.005212 h 0.500326 0.500326 z M 2.1298969,3.9531816 C 1.3370122,3.7399481 0.84649785,2.9189822 1.0485324,2.143319 1.2577333,1.3401426 2.0774478,0.84471951 2.8599385,1.0485324 3.6607587,1.2571196 4.1585012,2.0775885 3.9559609,2.8551934 3.7448485,3.6657095 2.9154183,4.1644348 2.1298969,3.9531816 Z M 3.0019545,2.5016288 V 2.001303 H 2.5016288 2.001303 v 0.5003258 0.5003257 h 0.5003258 0.5003257 z m 4.1312,1.4515528 C 6.3402696,3.7399481 5.8497552,2.9189822 6.0517899,2.143319 6.2609908,1.3401426 7.0807054,0.84471951 7.8631961,1.0485324 8.6640162,1.2571196 9.1617587,2.0775885 8.9592184,2.8551934 8.748106,3.6657095 7.9186757,4.1644348 7.1331545,3.9531816 Z M 8.005212,2.5016288 V 2.001303 H 7.5048862 7.0045605 V 2.5016288 3.0019545 H 7.5048862 8.005212 Z m 4.1312,1.4515528 C 11.343527,3.7399481 10.853013,2.9189822 11.055047,2.143319 c 0.209201,-0.8031764 1.028916,-1.29859949 1.811407,-1.0947866 0.80082,0.2085872 1.298562,1.0290561 1.096022,1.806661 -0.211113,0.8105161 -1.040543,1.3092414 -1.826064,1.0979882 z M 13.00847,2.5016288 V 2.001303 h -0.500326 -0.500326 v 0.5003258 0.5003257 h 0.500326 0.500326 z"
       id="path819"
       inkscape:connector-curvature="0" />
  </g>
</svg>
