<?xml version="1.0" encoding="UTF-8" standalone="no"?>
<!-- Created with Inkscape (http://www.inkscape.org/) -->

<svg
   xmlns:dc="http://purl.org/dc/elements/1.1/"
   xmlns:cc="http://creativecommons.org/ns#"
   xmlns:rdf="http://www.w3.org/1999/02/22-rdf-syntax-ns#"
   xmlns:svg="http://www.w3.org/2000/svg"
   xmlns="http://www.w3.org/2000/svg"
   xmlns:sodipodi="http://sodipodi.sourceforge.net/DTD/sodipodi-0.dtd"
   xmlns:inkscape="http://www.inkscape.org/namespaces/inkscape"
   version="1.1"
   id="svg2"
   width="16.010424"
   height="16.010424"
   viewBox="0 0 16.010424 16.010424"
   sodipodi:docname="PASTEFLIPDOWN.svg"
   inkscape:version="0.92.4 (5da689c313, 2019-01-14)">
  <metadata
     id="metadata8">
    <rdf:RDF>
      <cc:Work
         rdf:about="">
        <dc:format>image/svg+xml</dc:format>
        <dc:type
           rdf:resource="http://purl.org/dc/dcmitype/StillImage" />
        <dc:title></dc:title>
      </cc:Work>
    </rdf:RDF>
  </metadata>
  <defs
     id="defs6" />
  <sodipodi:namedview
     pagecolor="#ffffff"
     bordercolor="#666666"
     borderopacity="1"
     objecttolerance="10"
     gridtolerance="10"
     guidetolerance="10"
     inkscape:pageopacity="0"
     inkscape:pageshadow="2"
     inkscape:window-width="828"
     inkscape:window-height="480"
     id="namedview4"
     showgrid="false"
     inkscape:zoom="14.740397"
     inkscape:cx="8.0052118"
     inkscape:cy="8.0052118"
     inkscape:window-x="0"
     inkscape:window-y="0"
     inkscape:window-maximized="0"
     inkscape:current-layer="svg2" />
  <g
     id="PASTEFLIPDOWN">
    <path
       style="fill:#ffffff;stroke-width:0.03127036"
       d="M 0,8.005212 V 0 l 6.918567,0.00149273 c 6.331534,0.00136608 6.906642,0.00566504 6.778019,0.05066602 -0.307682,0.107648 -0.53207,0.33463249 -0.637324,0.64469955 -0.07571,0.22301608 -0.07571,2.3858733 0,2.6088893 0.104874,0.3089462 0.343029,0.5499812 0.63275,0.6404029 0.07122,0.022227 0.129487,0.047632 0.129487,0.056456 0,0.00882 -0.05827,0.034229 -0.129487,0.056456 -0.289721,0.090422 -0.527876,0.3314567 -0.63275,0.6404029 -0.04099,0.1207499 -0.05079,0.2866138 -0.05079,0.8594249 V 6.268687 L 12.656678,5.91898 C 12.463193,5.7266413 12.265273,5.554493 12.216857,5.5364281 12.163693,5.5165917 11.807916,5.5035832 11.318561,5.5035832 H 10.508294 L 10.49975,3.6609038 C 10.491378,1.8553862 10.489905,1.8164834 10.426733,1.7318913 10.391273,1.6844081 10.323417,1.6165454 10.275941,1.5810853 10.192361,1.518658 10.14712,1.516334 8.8499958,1.5078359 L 7.5103686,1.4990593 7.4998098,1.1582254 C 7.4884015,0.78996223 7.4611224,0.72017755 7.2739509,0.58043381 7.1892348,0.51718401 7.1556498,0.51596093 5.5035832,0.51596093 c -1.6520665,0 -1.6856515,0.001223 -1.7703676,0.0644729 C 3.5460441,0.72017755 3.518765,0.78996223 3.5073567,1.1582254 l -0.010559,0.3408339 -1.3396271,0.00878 c -1.29712431,0.0085 -1.34236571,0.010822 -1.42594559,0.073249 -0.0474752,0.03546 -0.11533134,0.1033324 -0.1507914,0.1508273 l -0.0644729,0.086354 v 6.6716356 6.6716358 l 0.0644729,0.08635 c 0.0354601,0.0475 0.10333234,0.115367 0.15082727,0.150827 0.0858883,0.06412 0.10346323,0.06447 3.25570972,0.06447 3.1522464,0 3.1698216,-3.47e-4 3.2557097,-0.06447 0.2125387,-0.158683 0.2153002,-0.17029 0.2153002,-0.904908 0,-0.734602 -0.00275,-0.746187 -0.2152686,-0.904909 -0.083882,-0.06265 -0.127563,-0.06472 -1.5446726,-0.0732 L 4.2396897,13.50697 4.738371,13.007557 5.2370522,12.508144 h 1.132952 1.132952 l 0.00878,1.342368 c 0.0085,1.299889 0.010823,1.3451 0.073256,1.428687 0.03546,0.04748 0.1033273,0.115331 0.1508164,0.150791 0.085406,0.06377 0.1152441,0.06457 2.7498594,0.07307 l 2.663516,0.0086 0.06909,0.10629 c 0.0835,0.128454 0.287376,0.273515 0.478312,0.340317 0.128623,0.045 -0.446485,0.0493 -6.7780191,0.05067 L 0,16.010424 Z m 15.322308,7.953053 c 0.0773,-0.02705 0.200028,-0.0901 0.272725,-0.140114 0.153778,-0.105802 0.293501,-0.296535 0.363232,-0.495843 l 0.04917,-0.140549 0.0015,0.414333 0.0015,0.414332 -0.414332,-0.0015 -0.414333,-0.0015 0.140549,-0.04917 z m 0.63166,-3.266904 c -0.05482,-0.175645 -0.206977,-0.389915 -0.336413,-0.473738 -0.09536,-0.06175 -0.106682,-0.08403 -0.106682,-0.209805 0,-0.125777 0.01133,-0.148051 0.106682,-0.209805 0.128714,-0.08335 0.273779,-0.287007 0.34071,-0.478311 0.0471,-0.134612 0.04924,-0.105876 0.05067,0.680298 8.23e-4,0.451466 -0.0021,0.820847 -0.0065,0.820847 -0.0044,0 -0.02621,-0.05827 -0.04844,-0.129486 z m 0,-4.0026061 c -0.05761,-0.1845918 -0.204906,-0.3852962 -0.362179,-0.4935023 -0.07448,-0.051245 -0.19369,-0.1113581 -0.264908,-0.1335851 -0.07122,-0.022227 -0.129486,-0.047632 -0.129486,-0.056456 0,-0.00882 0.05827,-0.034229 0.129486,-0.056456 0.285543,-0.089118 0.525586,-0.3292656 0.631384,-0.631661 0.0471,-0.1346113 0.04924,-0.1058751 0.05067,0.6802989 8.23e-4,0.4514658 -0.0021,0.8208469 -0.0065,0.8208469 -0.0044,0 -0.02621,-0.058269 -0.04844,-0.1294864 z m 0,-4.002606 c -0.05761,-0.1845918 -0.204906,-0.3852962 -0.362179,-0.4935023 -0.07448,-0.051245 -0.19369,-0.1113581 -0.264908,-0.1335851 -0.07122,-0.022227 -0.129486,-0.047632 -0.129486,-0.056456 0,-0.00882 0.05827,-0.034229 0.129486,-0.056456 0.285543,-0.089118 0.525586,-0.3292656 0.631384,-0.631661 0.0471,-0.1346113 0.04924,-0.1058751 0.05067,0.6802989 8.23e-4,0.4514658 -0.0021,0.8208469 -0.0065,0.8208469 -0.0044,0 -0.02621,-0.058269 -0.04844,-0.1294864 z m 0,-4.00260605 C 15.864851,0.39799994 15.624703,0.15795717 15.322308,0.05215875 L 15.181759,0.00298547 15.596092,0.00149273 16.010424,0 v 0.40651467 c 0,0.22358307 -0.0036,0.40651467 -0.008,0.40651467 -0.0044,0 -0.02621,-0.0582689 -0.04844,-0.12948649 z"
       id="path849"
       inkscape:connector-curvature="0" />
    <path
       style="fill:#fefefe;stroke-width:0.03127036"
       d="M 8.005212,12.394073 V 9.7783733 L 8.2733585,9.5002138 C 8.6313691,9.1288345 8.705037,8.97219 8.719083,8.5524433 8.7278118,8.2915906 8.7183763,8.2099147 8.6621766,8.0598698 8.5744414,7.8256279 8.3896254,7.5949161 8.1761999,7.4532095 L 8.005212,7.3396799 V 6.6717945 6.003909 h 1.7511401 1.7511399 v 1.7511401 1.7511402 h 0.750489 0.750489 v 0.8275717 c 0,0.681504 0.009,0.853981 0.05079,0.977199 0.104874,0.308946 0.343029,0.549981 0.63275,0.640402 0.07122,0.02223 0.129487,0.04763 0.129487,0.05646 0,0.0088 -0.05827,0.03423 -0.129487,0.05646 -0.289721,0.09042 -0.527876,0.331456 -0.63275,0.640402 -0.043,0.12667 -0.05079,0.314983 -0.05079,1.227362 v 1.077735 H 10.506841 8.005212 Z M 12.007818,7.4974351 V 5.9890068 l 0.500326,0.4995928 c 0.401785,0.4011962 0.500326,0.5163862 0.500326,0.5848598 0,0.126706 0.08947,0.3669205 0.192398,0.5165304 0.106055,0.1541622 0.307833,0.3015554 0.491144,0.3587667 0.07122,0.022227 0.129487,0.047632 0.129487,0.056456 0,0.00882 -0.05827,0.034228 -0.129487,0.056456 -0.183311,0.05721 -0.385089,0.2046035 -0.491144,0.3587657 C 13.10052,8.5663014 13.00847,8.8095128 13.00847,8.9287805 v 0.077083 h -0.500326 -0.500326 z"
       id="path847"
       inkscape:connector-curvature="0" />
    <path
       style="fill:#98cbfe;stroke-width:0.03127036"
       d="M 1.0006515,11.992183 V 9.0058635 H 1.5009772 2.001303 v 1.9684495 1.968449 L 4.5108247,10.431667 C 6.2591274,8.6822678 7.0630073,7.8985979 7.1609877,7.8481307 7.5233861,7.6614682 7.991463,7.8294013 8.1653525,8.2084693 c 0.075327,0.1642069 0.074738,0.4320545 -0.0013,0.5941369 -0.040119,0.085511 -0.8560436,0.9214152 -2.5791179,2.6422728 -1.3862401,1.384455 -2.5204354,2.527777 -2.5204354,2.540716 0,0.01294 0.8794789,0.02353 1.9543975,0.02353 h 1.9543974 v 0.484691 0.48469 H 3.9869708 1.0006515 Z"
       id="path845"
       inkscape:connector-curvature="0" />
    <path
       style="fill:#cbcbcb;stroke-width:0.03127036"
       d="M 3.0019545,3.5022803 V 3.0019545 H 5.5035832 8.005212 V 3.5022803 4.002606 H 5.5035832 3.0019545 Z M 4.002606,1.5009772 V 1.0006515 H 5.5035832 7.0045605 V 1.5009772 2.001303 H 5.5035832 4.002606 Z"
       id="path843"
       inkscape:connector-curvature="0" />
    <path
       style="fill:#c9cbcc;stroke-width:0.03127036"
       d="m 6.3947885,8.5368081 c 0.031129,-0.034397 0.063635,-0.062541 0.072234,-0.062541 0.0086,0 -0.00983,0.028143 -0.040964,0.062541 -0.031129,0.034397 -0.063635,0.062541 -0.072234,0.062541 -0.0086,0 0.00983,-0.028143 0.040964,-0.062541 z"
       id="path841"
       inkscape:connector-curvature="0" />
    <path
       style="fill:#a9acc9;stroke-width:0.03127036"
       d="m 8.0990231,9.6469059 c 0.058344,-0.060196 0.1131152,-0.1094463 0.1217145,-0.1094463 0.0086,0 -0.032101,0.049251 -0.090444,0.1094463 -0.058344,0.060195 -0.1131152,0.1094462 -0.1217145,0.1094462 -0.0086,0 0.032101,-0.049251 0.090444,-0.1094462 z"
       id="path839"
       inkscape:connector-curvature="0" />
    <path
       style="fill:#fecb32;stroke-width:0.03127036"
       d="M 14.009121,14.009121 V 13.00847 h 0.500326 0.500326 v 1.000651 1.000652 h -0.500326 -0.500326 z m -7.39544,-2.876873 c 0.4813331,-0.481564 0.8787634,-0.87557 0.8831781,-0.87557 0.00442,0 0.00803,0.394006 0.00803,0.87557 v 0.87557 H 6.6217081 5.7385297 Z M 2.4947325,10.265302 C 2.4862444,8.8641734 2.4841428,8.8202852 2.4215207,8.7364409 2.2668096,8.5292995 2.2402348,8.5220866 1.5926006,8.51146 L 1.0006515,8.5017472 V 5.2515251 2.001303 h 1.2508144 1.2508144 v 0.2473962 0.2473962 l -0.3417929,0.010584 c -0.3693163,0.011437 -0.4389265,0.038605 -0.5787506,0.2258844 -0.060516,0.081054 -0.064473,0.128297 -0.064473,0.7697162 0,0.7521159 0.00218,0.7614241 0.2153002,0.9205434 0.085648,0.063946 0.108305,0.064473 2.7710191,0.064473 2.6627143,0 2.6853709,-5.285e-4 2.7710192,-0.064473 C 8.4877254,4.2637041 8.4899025,4.2543959 8.4899025,3.50228 c 0,-0.6414192 -0.00396,-0.688662 -0.064473,-0.7697162 C 8.2856055,2.5452849 8.2159955,2.5181162 7.8466791,2.5066797 L 7.5048862,2.4960954 V 2.2486992 2.001303 h 1.2508144 1.2508144 v 1.7499856 1.749986 l -1.0922189,0.00897 c -1.0469742,0.0086 -1.0957938,0.011643 -1.1785239,0.073445 -0.2123695,0.1586474 -0.2143245,0.166915 -0.224675,0.950163 L 7.5016772,7.247007 7.3217741,7.267361 C 7.2228232,7.278557 7.0511683,7.3303736 6.9403146,7.3825106 6.7559361,7.4692277 6.5583253,7.6575397 4.6211168,9.5925733 L 2.5034715,11.707842 Z M 14.009121,10.006515 V 9.0058635 h 0.500326 0.500326 v 1.0006515 1.000652 h -0.500326 -0.500326 z m 0,-4.002606 V 5.0032575 h 0.500326 0.500326 V 6.003909 7.0045605 h -0.500326 -0.500326 z m 0,-4.002606 V 1.0006515 h 0.500326 0.500326 V 2.001303 3.0019545 h -0.500326 -0.500326 z"
       id="path837"
       inkscape:connector-curvature="0" />
    <path
       style="fill:#7ca4cc;stroke-width:0.03127036"
       d="M 7.7081436,9.3185671 C 7.827612,9.1981762 7.9323946,9.0996746 7.9409939,9.0996746 c 0.0086,0 -0.082111,0.098502 -0.20158,0.2188925 -0.1194684,0.1203909 -0.224251,0.2188925 -0.2328503,0.2188925 -0.0086,0 0.082112,-0.098502 0.20158,-0.2188925 z"
       id="path835"
       inkscape:connector-curvature="0" />
    <path
       style="fill:#8c92bb;stroke-width:0.03127036"
       d="m 8.3179156,9.4280134 c 0.058344,-0.060195 0.1131152,-0.1094463 0.1217146,-0.1094463 0.0086,0 -0.032101,0.049251 -0.090444,0.1094463 -0.058344,0.060195 -0.1131153,0.1094462 -0.1217146,0.1094462 -0.0086,0 0.032101,-0.049251 0.090444,-0.1094462 z"
       id="path833"
       inkscape:connector-curvature="0" />
    <path
       style="fill:#989898;stroke-width:0.03127036"
       d="M 4.002606,2.5016288 V 2.001303 H 5.5035832 7.0045605 V 2.5016288 3.0019545 H 5.5035832 4.002606 Z"
       id="path831"
       inkscape:connector-curvature="0" />
    <path
       style="fill:#8c7686;stroke-width:0.03127036"
       d="m 6.5980458,7.6181613 c 0,-0.00649 0.024625,-0.031119 0.054723,-0.054723 0.049597,-0.038896 0.050703,-0.03779 0.011806,0.011807 -0.040851,0.052089 -0.06653,0.068653 -0.06653,0.042917 z"
       id="path829"
       inkscape:connector-curvature="0" />
    <path
       style="fill:#655c8f;stroke-width:0.03127036"
       d="m 6.3166126,7.8957657 c 0.1454294,-0.1461889 0.271453,-0.265798 0.2800523,-0.265798 0.0086,0 -0.1033526,0.1196091 -0.2487819,0.265798 -0.1454294,0.146189 -0.271453,0.2657981 -0.2800524,0.2657981 -0.0086,0 0.1033526,-0.1196091 0.248782,-0.2657981 z"
       id="path827"
       inkscape:connector-curvature="0" />
    <path
       style="fill:#656565;stroke-width:0.03127036"
       d="M 11.507492,7.7550491 V 6.003909 h 0.250163 0.250163 v 1.5009772 1.5009773 h 0.500326 0.500326 v 0.2501629 0.2501629 h -0.750489 -0.750489 z"
       id="path825"
       inkscape:connector-curvature="0" />
    <path
       style="fill:#1d327c;stroke-width:0.03127036"
       d="m 7.8475534,9.9048863 c 0.076675,-0.081694 0.1435156,-0.1485342 0.1485342,-0.1485342 0.02348,0 -0.00134,0.028075 -0.1394098,0.1576586 L 7.7081436,10.053421 Z"
       id="path823"
       inkscape:connector-curvature="0" />
    <path
       style="fill:#003298;stroke-width:0.03127036"
       d="M 0.79584387,15.43508 C 0.66989984,15.37991 0.53850939,15.220173 0.51598479,15.094845 c -0.009955,-0.05539 -0.0140328,-1.489256 -0.009062,-3.186371 0.008965,-3.0606662 0.00956,-3.0863633 0.0735109,-3.1720093 0.15912986,-0.2131163 0.16843204,-0.2152918 0.92054341,-0.2152918 0.7520989,0 0.7613847,0.00217 0.9205435,0.215268 0.062617,0.083837 0.064724,0.1277616 0.073205,1.5255281 l 0.00873,1.439206 2.1306911,-2.1178662 C 7.0944991,7.1377691 6.9308309,7.2703586 7.4892511,7.2703586 c 0.2867964,0 0.3301668,0.00827 0.5234892,0.09985 C 8.2737997,7.4938741 8.5120539,7.7260753 8.6246469,7.9665684 8.7441515,8.221824 8.761102,8.6850102 8.6609639,8.958958 8.5950019,9.1394108 8.5092164,9.2298897 6.4159735,11.326775 l -2.1764079,2.180194 1.458412,0.0087 c 1.4171718,0.0085 1.4608527,0.01055 1.5447345,0.0732 0.2125128,0.158722 0.2152686,0.170307 0.2152686,0.904909 0,0.734614 -0.00276,0.746215 -0.215292,0.904908 -0.085718,0.064 -0.1091445,0.06452 -3.2189149,0.0713 -2.5565235,0.0056 -3.15010448,-8.51e-4 -3.22792993,-0.03494 z M 6.9732901,14.493812 V 14.009121 H 5.0188927 c -1.0749186,0 -1.9543975,-0.01188 -1.9543975,-0.0264 0,-0.01452 1.1344414,-1.156525 2.5209811,-2.537786 C 7.3947711,9.6425246 8.1228695,8.8974095 8.1645942,8.8055362 8.3261825,8.4497349 8.1579058,8.0049965 7.7963401,7.8322788 7.6258878,7.7508545 7.340296,7.756617 7.1609123,7.8450996 7.0586054,7.8955634 6.3352244,8.6016775 4.5107493,10.432004 L 2.001303,12.949499 V 10.977681 9.0058635 H 1.5009772 1.0006515 v 2.9863195 2.986319 h 2.9863193 2.9863193 z"
       id="path821"
       inkscape:connector-curvature="0" />
    <path
       style="fill:#323232;stroke-width:0.03127036"
       d="m 13.696586,15.959324 c -0.192187,-0.06869 -0.395284,-0.21364 -0.478312,-0.341376 l -0.06909,-0.10629 -2.663516,-0.0086 c -2.6346152,-0.0085 -2.6644531,-0.0093 -2.7498593,-0.07307 -0.047489,-0.03546 -0.1153564,-0.103316 -0.1508164,-0.150791 -0.062432,-0.08359 -0.064751,-0.128798 -0.073256,-1.428687 l -0.00878,-1.342368 H 6.3711043 5.2392524 L 5.4879481,12.257981 5.7366437,12.007818 H 6.620765 7.5048862 v -0.88675 -0.886749 L 7.7550491,10.008435 8.005212,9.7825504 v 2.6136106 2.613611 h 2.501629 2.501629 v -1.077734 c 0,-0.912379 0.0078,-1.100692 0.05079,-1.227362 0.104874,-0.308946 0.343029,-0.549981 0.63275,-0.640402 0.07122,-0.02223 0.129487,-0.04763 0.129487,-0.05646 0,-0.0088 -0.05827,-0.03423 -0.129487,-0.05646 -0.289721,-0.09042 -0.527876,-0.331456 -0.63275,-0.640402 -0.04326,-0.127432 -0.05079,-0.320927 -0.05079,-1.304445 0,-0.9835185 0.0075,-1.1770126 0.05079,-1.3044446 0.104874,-0.3089462 0.343029,-0.5499812 0.63275,-0.6404029 0.07122,-0.022227 0.129487,-0.047632 0.129487,-0.056456 0,-0.00882 -0.05827,-0.034229 -0.129487,-0.056456 C 13.508701,7.8915452 13.306923,7.744152 13.200868,7.5899898 13.097945,7.4403799 13.00847,7.2001654 13.00847,7.0734594 c 0,-0.06842 -0.09738,-0.1825066 -0.492864,-0.5774087 L 12.022742,6.003909 H 10.013977 8.005212 v 0.6756583 c 0,0.6310637 -0.00361,0.6741984 -0.054723,0.6535387 C 7.920391,7.32094 7.8071037,7.295346 7.6987391,7.276231 l -0.1970267,-0.034755 0.0094,-0.7103884 c 0.010328,-0.7801558 0.012383,-0.7888227 0.2246553,-0.9473972 0.08273,-0.061802 0.1315497,-0.064845 1.1785239,-0.073445 l 1.0922194,-0.00897 V 3.7512886 2.001303 H 8.7557006 7.5048862 v 0.2473962 0.2473962 l 0.3417929,0.010584 c 0.3693164,0.011437 0.4389264,0.038605 0.5787506,0.2258844 0.060516,0.081054 0.064473,0.128297 0.064473,0.7697162 0,0.7521159 -0.00218,0.7614241 -0.2153002,0.9205434 -0.085648,0.063946 -0.1083049,0.064473 -2.7710192,0.064473 -2.6627141,0 -2.6853708,-5.272e-4 -2.7710191,-0.064473 C 2.5194409,4.2637044 2.5172639,4.2543962 2.5172639,3.5022803 c 0,-0.6414192 0.00396,-0.688662 0.064473,-0.7697162 C 2.7215609,2.5452849 2.7911711,2.5181162 3.1604874,2.5066797 L 3.5022803,2.4960954 V 2.2486992 2.001303 H 2.2514659 1.0006515 V 5.2499403 8.4985776 L 0.89212575,8.5189371 C 0.75937432,8.5438414 0.60022901,8.672847 0.54409518,8.8010558 0.50900709,8.8811967 0.5034298,8.3315438 0.50915197,5.3573355 c 0.006773,-3.520379 0.00715,-3.5395381 0.0712818,-3.6254296 0.0354601,-0.047491 0.10331621,-0.1153605 0.1507914,-0.1508206 0.0835799,-0.062427 0.12882128,-0.064751 1.42594563,-0.073249 l 1.3396271,-0.00878 0.010559,-0.3408339 c 0.011408,-0.36826317 0.038687,-0.43804785 0.2258589,-0.57779159 0.084716,-0.0632498 0.1183011,-0.0644729 1.7703676,-0.0644729 1.6520666,0 1.6856516,0.001223 1.7703677,0.0644729 C 7.4611226,0.72017455 7.4884017,0.78995923 7.49981,1.1582224 l 0.010559,0.3408339 1.3396272,0.00878 c 1.2971238,0.0085 1.3423648,0.010822 1.4259448,0.073249 0.04748,0.03546 0.115332,0.1033228 0.150792,0.150806 0.06317,0.084592 0.06464,0.1234949 0.07302,1.9290125 l 0.0085,1.8426794 h 0.810267 c 0.489355,0 0.845132,0.013009 0.898296,0.032845 0.04842,0.018065 0.246336,0.1902132 0.439821,0.3825519 L 13.00847,6.268687 V 5.5588893 c 0,-0.5728111 0.0098,-0.738675 0.05079,-0.8594249 0.104874,-0.3089462 0.343029,-0.5499812 0.63275,-0.6404029 0.07122,-0.022227 0.129487,-0.047632 0.129487,-0.056456 0,-0.00882 -0.05827,-0.034229 -0.129487,-0.056456 C 13.39885,3.8546545 13.158996,3.6092586 13.05653,3.2959852 13.01238,3.1610099 13.00686,2.9809828 13.01487,1.9376203 l 0.0092,-1.20276785 0.07743,-0.1563518 C 13.20022,0.3791577 13.387594,0.19178424 13.586937,0.093064 c 0.153528,-0.07603145 0.170188,-0.07742982 0.922476,-0.07742982 0.752287,0 0.768947,0.0013984 0.922475,0.07742982 0.199343,0.09872024 0.386717,0.2860937 0.485437,0.48543665 l 0.07743,0.1563518 0.0092,1.20276785 c 0.008,1.0433625 0.0025,1.2233896 -0.04166,1.3583649 -0.102467,0.3132734 -0.342321,0.5586694 -0.635481,0.6501643 -0.07122,0.022227 -0.129486,0.047632 -0.129486,0.056456 0,0.00882 0.05827,0.034229 0.129486,0.056456 0.289722,0.090422 0.527877,0.3314567 0.632751,0.6404029 0.0757,0.2230161 0.0757,2.3858731 0,2.6088892 -0.104874,0.3089462 -0.343029,0.5499812 -0.632751,0.6404029 -0.07122,0.022227 -0.129486,0.047632 -0.129486,0.056456 0,0.00882 0.05827,0.034228 0.129486,0.056456 0.289722,0.090422 0.527877,0.3314567 0.632751,0.6404029 0.04326,0.127432 0.05079,0.3209261 0.05079,1.3044446 0,0.983518 -0.0075,1.177013 -0.05079,1.304445 -0.06721,0.198001 -0.210279,0.401701 -0.342077,0.487053 -0.09536,0.06175 -0.106682,0.08403 -0.106682,0.209805 0,0.125777 0.01133,0.148051 0.106682,0.209805 0.134398,0.08704 0.278854,0.295175 0.344807,0.496815 0.04415,0.134975 0.04967,0.315002 0.04166,1.358365 l -0.0092,1.202768 -0.07743,0.156351 c -0.09872,0.199343 -0.286094,0.386717 -0.485437,0.485437 -0.151068,0.07481 -0.180656,0.07768 -0.87557,0.08481 -0.594821,0.0061 -0.743528,-0.0013 -0.859766,-0.04285 z m 1.313187,-1.950203 V 13.00847 h -0.500326 -0.500326 v 1.000651 1.000652 h 0.500326 0.500326 z m 0,-4.002606 V 9.0058635 h -0.500326 -0.500326 v 1.0006515 1.000652 h 0.500326 0.500326 z m 0,-4.002606 V 5.0032575 H 14.509447 14.009121 V 6.003909 7.0045605 h 0.500326 0.500326 z M 8.005212,3.5022803 V 3.0019545 H 7.5048862 7.0045605 V 2.001303 1.0006515 H 5.5035832 4.002606 V 2.001303 3.0019545 H 3.5022803 3.0019545 V 3.5022803 4.002606 H 5.5035832 8.005212 Z M 15.009773,2.001303 V 1.0006515 H 14.509447 14.009121 V 2.001303 3.0019545 h 0.500326 0.500326 z"
       id="path819"
       inkscape:connector-curvature="0" />
  </g>
</svg>
