<?xml version="1.0" encoding="UTF-8" standalone="no"?>
<!-- Created with Inkscape (http://www.inkscape.org/) -->

<svg
   xmlns:dc="http://purl.org/dc/elements/1.1/"
   xmlns:cc="http://creativecommons.org/ns#"
   xmlns:rdf="http://www.w3.org/1999/02/22-rdf-syntax-ns#"
   xmlns:svg="http://www.w3.org/2000/svg"
   xmlns="http://www.w3.org/2000/svg"
   xmlns:sodipodi="http://sodipodi.sourceforge.net/DTD/sodipodi-0.dtd"
   xmlns:inkscape="http://www.inkscape.org/namespaces/inkscape"
   version="1.1"
   id="svg2"
   width="16.010424"
   height="16.010424"
   viewBox="0 0 16.010424 16.010424"
   sodipodi:docname="PASTEFLIPUP.svg"
   inkscape:version="0.92.4 (5da689c313, 2019-01-14)">
  <metadata
     id="metadata8">
    <rdf:RDF>
      <cc:Work
         rdf:about="">
        <dc:format>image/svg+xml</dc:format>
        <dc:type
           rdf:resource="http://purl.org/dc/dcmitype/StillImage" />
        <dc:title></dc:title>
      </cc:Work>
    </rdf:RDF>
  </metadata>
  <defs
     id="defs6" />
  <sodipodi:namedview
     pagecolor="#ffffff"
     bordercolor="#666666"
     borderopacity="1"
     objecttolerance="10"
     gridtolerance="10"
     guidetolerance="10"
     inkscape:pageopacity="0"
     inkscape:pageshadow="2"
     inkscape:window-width="828"
     inkscape:window-height="480"
     id="namedview4"
     showgrid="false"
     inkscape:zoom="14.740397"
     inkscape:cx="8.0052118"
     inkscape:cy="8.0052118"
     inkscape:window-x="0"
     inkscape:window-y="0"
     inkscape:window-maximized="0"
     inkscape:current-layer="svg2" />
  <g
     id="PASTEFLIPUP">
    <path
       style="fill:#ffffff;stroke-width:0.03127036"
       d="m 0.00149273,15.596092 0.00149274,-0.414333 0.04917328,0.140549 c 0.10616761,0.30345 0.33250707,0.52979 0.63595764,0.635957 l 0.14054813,0.04917 -0.41433226,0.0015 L 0,16.010424 Z m 2.31234537,0.362173 c 0.3076819,-0.107648 0.5320697,-0.334632 0.6373244,-0.644699 0.043264,-0.12745 0.050792,-0.321071 0.050792,-1.306319 0,-1.061367 -0.00496,-1.170801 -0.060174,-1.327897 l -0.060174,-0.171206 h 2.3106749 2.3106747 l 0.00878,1.342368 c 0.0085,1.299889 0.010823,1.3451 0.073256,1.428687 0.03546,0.04748 0.1033323,0.115331 0.1508273,0.150791 0.086074,0.06426 0.098309,0.06447 3.7716706,0.06447 3.673362,0 3.685597,-2.19e-4 3.771671,-0.06447 0.199718,-0.149111 0.214403,-0.195228 0.225435,-0.707992 0.0094,-0.434968 0.01585,-0.479723 0.08478,-0.58415 0.116599,-0.176652 0.181601,-0.480036 0.161102,-0.751916 -0.01366,-0.181234 -0.04247,-0.282809 -0.131031,-0.461993 l -0.113515,-0.229682 0.0043,-1.89892 c 0.0024,-1.0444059 0.0033,-1.9260987 0.0021,-1.9593178 -0.0013,-0.034324 -0.217368,-0.2773134 -0.500581,-0.5628665 l -0.498352,-0.5024684 -0.0098,-0.4747034 c -0.01066,-0.5168334 -0.02497,-0.562106 -0.22497,-0.7116381 -0.07665,-0.057312 -0.138956,-0.06553 -0.560934,-0.073994 L 13.242997,6.5008275 12.773942,6.0350064 C 12.515961,5.7788049 12.265273,5.5544251 12.216857,5.5363843 12.163775,5.5166052 11.807154,5.5035832 11.318561,5.5035832 H 10.508294 L 10.49975,3.6609038 C 10.491378,1.8553862 10.489905,1.8164834 10.426733,1.7318913 10.391273,1.6844081 10.323417,1.6165454 10.275941,1.5810853 10.192361,1.518658 10.14712,1.516334 8.8499958,1.5078359 L 7.5103686,1.4990593 7.4998098,1.1582254 C 7.4884015,0.78996223 7.4611224,0.72017755 7.2739509,0.58043381 7.1892348,0.51718401 7.1556498,0.51596093 5.5035832,0.51596093 c -1.6520665,0 -1.6856515,0.001223 -1.7703676,0.0644729 C 3.5459365,0.72025791 3.5187679,0.78986811 3.507331,1.1591843 L 3.496747,1.5009772 H 3.2493506 3.0019545 V 1.1737313 c 0,-0.219755 -0.016684,-0.37639417 -0.050792,-0.476873 C 2.8459078,0.38679124 2.62152,0.15980675 2.3138381,0.05215875 2.1852153,0.00715777 2.7603229,0.00285881 9.091857,0.00149273 L 16.010424,0 v 8.005212 8.005212 l -6.918567,-0.0015 c -6.3315341,-0.0014 -6.9066417,-0.0057 -6.7780189,-0.05067 z M 0.00298547,12.007818 c 0,-0.792314 0.00215707,-0.822499 0.04917328,-0.688116 0.06693126,0.191304 0.21199612,0.394956 0.34070976,0.478311 0.095357,0.06175 0.10668308,0.08403 0.10668308,0.209805 0,0.125777 -0.0113261,0.148051 -0.10668308,0.209805 -0.12871364,0.08336 -0.2737785,0.287007 -0.34070976,0.478311 -0.04701621,0.134383 -0.04917328,0.104198 -0.04917328,-0.688116 z m 0,-4.002606 c 0,-0.7923137 0.00215707,-0.8224993 0.04917328,-0.6881165 0.06693126,0.1913046 0.21199612,0.3949563 0.34070976,0.4783118 0.095357,0.061753 0.10668308,0.084028 0.10668308,0.2098047 0,0.1257772 -0.0113261,0.1480514 -0.10668308,0.2098047 C 0.26415487,8.2983722 0.11909001,8.5020239 0.05215875,8.6933285 0.00514254,8.8277113 0.00298547,8.7975257 0.00298547,8.005212 Z m 0,-4.002606 c 0,-0.7923137 0.00215707,-0.8224993 0.04917328,-0.6881165 0.06693126,0.1913046 0.21199612,0.3949563 0.34070976,0.4783118 0.095357,0.061753 0.10668308,0.084028 0.10668308,0.2098047 0,0.1257772 -0.0113261,0.1480514 -0.10668308,0.2098047 C 0.26415487,4.2957662 0.11909001,4.4994179 0.05215875,4.6907225 0.00514254,4.8251053 0.00298547,4.7949197 0.00298547,4.002606 Z M 0.00149273,0.41433226 0,0 0.41433226,0.00149273 0.82866452,0.00298547 0.68811639,0.05215875 C 0.38466582,0.15832636 0.15832636,0.38466582 0.05215875,0.68811639 L 0.00298547,0.82866452 Z"
       id="path847"
       inkscape:connector-curvature="0" />
    <path
       style="fill:#fefefe;stroke-width:0.03127036"
       d="m 8.005212,14.245544 v -0.764229 l 0.5919492,-0.0097 c 0.64763,-0.01063 0.6741998,-0.01784 0.82892,-0.224974 0.062395,-0.08353 0.064977,-0.133236 0.080108,-1.542031 l 0.015635,-1.455717 2.1346298,2.147844 c 2.461095,2.47633 2.264645,2.315979 2.837358,2.315979 0.189185,0 0.382671,-0.01208 0.429967,-0.02684 l 0.08599,-0.02684 v 0.175377 0.175377 H 11.507488 8.0052078 Z m 5.6443,-3.394729 -1.344353,-1.3446257 h 1.352307 1.352306 v 1.3446257 c 0,0.739544 -0.0036,1.344625 -0.008,1.344625 -0.0044,0 -0.612913,-0.605081 -1.352307,-1.344625 z M 13.516613,9.0136883 12.007818,9.0052628 V 8.7565546 8.5078464 l 1.091893,-0.00897 c 1.063969,-0.00874 1.094236,-0.010706 1.183543,-0.076769 l 0.09165,-0.067797 0.340354,0.3414123 c 0.187194,0.1877769 0.333558,0.3380329 0.325252,0.3339024 -0.0083,-0.00413 -0.69406,-0.011302 -1.523897,-0.015935 z m -2.118567,-0.4143395 -0.08988,-0.093811 h 0.09966 c 0.08989,0 0.09966,0.0092 0.09966,0.093811 0,0.051596 -0.0044,0.093811 -0.0098,0.093811 -0.0054,0 -0.05023,-0.042215 -0.09966,-0.093811 z M 8.005212,6.2540719 V 6.003909 H 9.7563521 11.507492 V 6.2540719 6.5042347 H 9.7563521 8.005212 Z m 4.002606,-0.00708 V 5.989741 l 0.250163,0.2486957 c 0.137589,0.1367825 0.250163,0.2525438 0.250163,0.2572469 0,0.0047 -0.112574,0.00855 -0.250163,0.00855 h -0.250163 z"
       id="path845"
       inkscape:connector-curvature="0" />
    <path
       style="fill:#c9e1fe;stroke-width:0.03127036"
       d="m 13.648778,13.6886 -0.249429,-0.257981 0.25798,0.24943 c 0.239605,0.231662 0.272237,0.266531 0.24943,0.266531 -0.0047,0 -0.120795,-0.116091 -0.257981,-0.25798 z M 14.45957,12.406515 14.4,12.336157 l 0.07036,0.05957 c 0.0387,0.03276 0.07036,0.06442 0.07036,0.07036 0,0.02502 -0.02517,0.0065 -0.08115,-0.05957 z"
       id="path843"
       inkscape:connector-curvature="0" />
    <path
       style="fill:#98cbfe;stroke-width:0.03127036"
       d="M 14.212378,14.167956 C 14.126867,14.127837 13.290963,13.311912 11.570106,11.588838 10.185651,10.2026 9.0423282,9.0684042 9.0293891,9.0684042 c -0.012939,0 -0.023526,0.8794789 -0.023526,1.9543978 v 1.954397 H 8.5211729 8.0364824 V 9.9908798 7.0045605 h 2.9863196 2.986319 V 7.5048862 8.005212 h -1.968449 -1.968449 l 2.511095,2.509522 c 1.749399,1.748302 2.533069,2.552182 2.583536,2.650163 0.186662,0.362398 0.01873,0.830475 -0.360339,1.004365 -0.164207,0.07533 -0.432054,0.07474 -0.594137,-0.0013 z"
       id="path841"
       inkscape:connector-curvature="0" />
    <path
       style="fill:#cbcbcb;stroke-width:0.03127036"
       d="M 3.0019545,3.5022803 V 3.0019545 H 5.5035832 8.005212 V 3.5022803 4.002606 H 5.5035832 3.0019545 Z M 4.002606,1.5009772 V 1.0006515 H 5.5035832 7.0045605 V 1.5009772 2.001303 H 5.5035832 4.002606 Z"
       id="path839"
       inkscape:connector-curvature="0" />
    <path
       style="fill:#a9acc9;stroke-width:0.03127036"
       d="m 13.210993,13.970033 -0.249429,-0.25798 0.25798,0.249429 c 0.239605,0.231662 0.272237,0.266532 0.24943,0.266532 -0.0047,0 -0.120795,-0.116092 -0.257981,-0.257981 z"
       id="path837"
       inkscape:connector-curvature="0" />
    <path
       style="fill:#fecb32;stroke-width:0.03127036"
       d="M 1.0006515,14.009121 V 13.00847 H 1.5009772 2.001303 v 1.000651 1.000652 H 1.5009772 1.0006515 Z M 2.3138381,11.955659 C 2.62152,11.848011 2.8459078,11.621027 2.9511625,11.31096 c 0.075705,-0.223017 0.075705,-2.3858735 0,-2.6088896 C 2.8462883,8.3931242 2.6081334,8.1520892 2.3184116,8.0616675 2.2471941,8.0394405 2.1889252,8.0140356 2.1889252,8.005212 c 0,-0.00882 0.058269,-0.034229 0.1294864,-0.056456 0.2931604,-0.091495 0.5330142,-0.3368909 0.6354807,-0.6501643 0.044148,-0.1349753 0.04967,-0.3150025 0.04166,-1.358365 -0.00874,-1.13854 -0.012637,-1.2094471 -0.072975,-1.3278492 L 2.8588359,4.4872966 h 2.6647097 c 2.6425612,0 2.6654276,-5.348e-4 2.7510605,-0.064473 0.2131201,-0.159124 0.2152965,-0.1684294 0.2152965,-0.9205434 0,-0.6414192 -0.00396,-0.688662 -0.064473,-0.7697162 C 8.2856055,2.5452849 8.2159955,2.5181162 7.8466791,2.5066797 L 7.5048862,2.4960954 V 2.2486992 2.001303 h 1.2508144 1.2508144 v 1.7499856 1.749986 l -1.0922189,0.00897 c -1.0469742,0.0086 -1.0957938,0.011643 -1.1785239,0.073445 -0.047468,0.03546 -0.1153179,0.1033286 -0.1507779,0.1508189 -0.063966,0.085667 -0.064538,0.1106598 -0.072739,3.1798268 l -0.00827,3.0934807 -2.6653494,-0.0015 c -2.4636805,-0.0014 -2.6547151,-0.0052 -2.5248013,-0.05067 z M 1.0006515,10.006515 V 9.0058635 H 1.5009772 2.001303 v 1.0006515 1.000652 H 1.5009772 1.0006515 Z m 0,-4.002606 V 5.0032575 H 1.5009772 2.001303 V 6.003909 7.0045605 H 1.5009772 1.0006515 Z M 2.4078177,4.0945343 C 2.3476222,4.0628246 2.273746,4.0362044 2.2436483,4.0353783 2.1429332,4.032614 2.1880632,3.9874599 2.3427518,3.9362222 l 0.1532117,-0.050749 0.010876,0.1367421 c 0.00598,0.075208 0.010774,0.135219 0.01065,0.1333575 -1.24e-4,-0.00186 -0.049476,-0.029329 -0.1096718,-0.061038 z M 1.0006515,2.001303 V 1.0006515 H 1.5009772 2.001303 V 2.001303 3.0019545 H 1.5009772 1.0006515 Z m 2.001303,0.2501629 V 2.001303 H 3.2521174 3.5022803 V 2.2514659 2.5016288 H 3.2521174 3.0019545 Z"
       id="path835"
       inkscape:connector-curvature="0" />
    <path
       style="fill:#8c92bb;stroke-width:0.03127036"
       d="m 13.569653,14.329642 -0.107763,-0.117264 0.117264,0.107763 c 0.06449,0.05927 0.117263,0.112039 0.117263,0.117264 0,0.02388 -0.02646,0.0014 -0.126764,-0.107763 z"
       id="path833"
       inkscape:connector-curvature="0" />
    <path
       style="fill:#989898;stroke-width:0.03127036"
       d="M 4.002606,2.5016288 V 2.001303 H 5.5035832 7.0045605 V 2.5016288 3.0019545 H 5.5035832 4.002606 Z"
       id="path831"
       inkscape:connector-curvature="0" />
    <path
       style="fill:#656faa;stroke-width:0.03127036"
       d="m 14.913595,12.140717 -0.07581,-0.08599 0.08599,0.07581 c 0.08037,0.07085 0.100334,0.09618 0.07581,0.09618 -0.0056,0 -0.0443,-0.0387 -0.08599,-0.08599 z"
       id="path829"
       inkscape:connector-curvature="0" />
    <path
       style="fill:#656565;stroke-width:0.03127036"
       d="M 11.905738,9.1070575 C 11.559858,8.7604078 11.507492,8.6946193 11.507492,8.6067318 v -0.101194 h 0.250163 0.250163 v 0.2501628 0.2501629 h 1.500977 1.500978 V 9.2560264 9.5061893 H 13.656878 12.303984 Z M 11.507492,6.2540719 V 6.003909 h 0.250163 0.250163 v 0.2501629 0.2501628 h -0.250163 -0.250163 z"
       id="path827"
       inkscape:connector-curvature="0" />
    <path
       style="fill:#163286;stroke-width:0.03127036"
       d="m 15.412298,12.641043 c -0.0389,-0.0496 -0.03779,-0.0507 0.01181,-0.01181 0.05209,0.04085 0.06865,0.06653 0.04292,0.06653 -0.0065,0 -0.03112,-0.02463 -0.05472,-0.05472 z"
       id="path825"
       inkscape:connector-curvature="0" />
    <path
       style="fill:#0d328f;stroke-width:0.03127036"
       d="m 15.180781,12.406515 -0.186644,-0.19544 0.19544,0.186644 c 0.181547,0.173375 0.209749,0.204236 0.186643,0.204236 -0.0048,0 -0.09279,-0.08795 -0.195439,-0.19544 z"
       id="path823"
       inkscape:connector-curvature="0" />
    <path
       style="fill:#003298;stroke-width:0.03127036"
       d="M 14.025426,14.651383 C 13.852243,14.57892 13.67899,14.413688 11.673244,12.408098 l -2.1652282,-2.16506 -0.00873,1.45863 c -0.00848,1.417392 -0.010554,1.461071 -0.073204,1.544953 -0.1587218,0.212513 -0.1703062,0.215269 -0.9049083,0.215269 -0.7346189,0 -0.7462252,-0.0028 -0.9049082,-0.2153 -0.064125,-0.08589 -0.064473,-0.103464 -0.064473,-3.2557102 0,-3.1522464 3.471e-4,-3.1698216 0.064473,-3.2557097 0.03546,-0.047495 0.1033323,-0.1153673 0.1508273,-0.1508273 0.085888,-0.064125 0.1034633,-0.064473 3.2557104,-0.064473 3.152246,0 3.169821,3.471e-4 3.255709,0.064473 0.213124,0.1591193 0.215301,0.1684275 0.215301,0.9205434 0,0.7520991 -0.0022,0.7613845 -0.215268,0.9205435 -0.08384,0.062616 -0.127762,0.064724 -1.525528,0.073205 l -1.439206,0.00873 2.117866,2.1306913 c 2.445539,2.460349 2.31295,2.296681 2.31295,2.855101 0,0.286796 -0.0083,0.330167 -0.09985,0.523489 -0.123638,0.261001 -0.355805,0.499255 -0.59636,0.611995 -0.153108,0.07176 -0.227417,0.0853 -0.507699,0.09251 -0.290901,0.0075 -0.349655,-4.66e-4 -0.515291,-0.06977 z m 0.781783,-0.481879 c 0.156512,-0.0711 0.300892,-0.213078 0.375497,-0.369255 0.08142,-0.170452 0.07566,-0.456044 -0.01282,-0.635428 -0.05046,-0.102307 -0.756578,-0.825688 -2.586905,-2.650163 L 10.065486,8.005212 h 1.971817 1.971818 V 7.5048862 7.0045605 H 11.022802 8.0364824 v 2.9863193 2.9863192 h 0.4846905 0.4846906 v -1.954397 c 0,-1.0749189 0.011881,-1.9543978 0.026402,-1.9543978 0.014521,0 1.1565255,1.1344418 2.5377865,2.5209808 1.802408,1.809295 2.547523,2.537394 2.639396,2.579118 0.165504,0.07516 0.433514,0.07561 0.597761,0.001 z"
       id="path821"
       inkscape:connector-curvature="0" />
    <path
       style="fill:#323232;stroke-width:0.03127036"
       d="M 0.68811639,15.959324 C 0.37854296,15.848682 0.15584427,15.623036 0.05079204,15.313566 c -0.07570452,-0.223017 -0.07570452,-2.385873 0,-2.60889 0.06721321,-0.198001 0.21027931,-0.401701 0.34207647,-0.487053 0.095357,-0.06175 0.10668308,-0.08403 0.10668308,-0.209805 0,-0.125777 -0.0113261,-0.148051 -0.10668308,-0.209805 -0.13179716,-0.08535 -0.27486326,-0.289052 -0.34207647,-0.487053 -0.07570452,-0.223017 -0.07570452,-2.3858735 0,-2.6088896 0.06721321,-0.1980017 0.21027931,-0.4017015 0.34207647,-0.4870537 0.095357,-0.061753 0.10668308,-0.084027 0.10668308,-0.2098047 0,-0.1257772 -0.0113261,-0.1480514 -0.10668308,-0.2098047 -0.13179716,-0.085352 -0.27486326,-0.289052 -0.34207647,-0.4870537 -0.07570452,-0.2230161 -0.07570452,-2.3858731 0,-2.6088892 C 0.11800525,4.5014627 0.26107135,4.2977629 0.39286851,4.2124107 0.4882255,4.1506574 0.49955159,4.1283832 0.49955159,4.002606 0.49955159,3.8768288 0.4882255,3.8545546 0.39286851,3.7928013 0.25847068,3.7057649 0.11401504,3.4976257 0.04806215,3.2959862 0.00391391,3.1610109 -0.0016074,2.9809838 0.00640205,1.9376213 L 0.01563518,0.73485345 0.093065,0.57850165 C 0.19178524,0.3791587 0.3791587,0.19178524 0.57850165,0.093065 0.73202976,0.01703355 0.74868955,0.01563518 1.5009772,0.01563518 c 0.7522878,0 0.7689475,0.0013984 0.9224757,0.07742982 0.2003525,0.09922021 0.3876082,0.28706646 0.4839106,0.48543665 0.06456,0.13298527 0.077781,0.21359976 0.088463,0.53941365 l 0.012559,0.3830619 H 3.2525661 3.496747 L 3.507331,1.1591843 C 3.518768,0.78986811 3.545936,0.72025791 3.7332156,0.58043381 c 0.084716,-0.0632498 0.1183011,-0.0644729 1.7703676,-0.0644729 1.6520666,0 1.6856516,0.001223 1.7703677,0.0644729 0.1871715,0.13974374 0.2144506,0.20952842 0.2258589,0.57779159 l 0.010559,0.3408339 1.3396272,0.00878 c 1.297124,0.0085 1.342365,0.010822 1.425945,0.073249 0.04748,0.03546 0.115332,0.1033228 0.150792,0.150806 0.06317,0.084592 0.06464,0.1234949 0.07302,1.9290125 l 0.0085,1.8426794 h 0.813307 c 0.627482,0 0.836298,0.00998 0.913932,0.043691 0.05534,0.02403 0.304481,0.2491766 0.55364,0.5003257 L 13.242147,6.504238 H 12.88225 12.522312 L 12.273616,6.2540719 12.02492,6.003909 H 10.015066 8.005212 v 0.2476781 0.2476785 l -0.09456,0.020769 C 7.7852006,6.5475886 7.631636,6.680227 7.5788103,6.8066565 c -0.06325,0.1513798 -0.06325,6.2170665 0,6.3684465 0.052826,0.12643 0.2063903,0.259068 0.3318417,0.286622 l 0.09456,0.02077 v 0.763639 0.76364 h 3.50228 3.502281 v -0.181831 c 0,-0.174251 0.0042,-0.183872 0.101628,-0.230796 0.0559,-0.02693 0.169542,-0.109072 0.252548,-0.182535 l 0.150919,-0.13357 -0.0102,0.456008 c -0.0111,0.49601 -0.02694,0.544693 -0.225503,0.692941 -0.08607,0.06426 -0.09831,0.06447 -3.771671,0.06447 -3.6733614,0 -3.6855962,-2.19e-4 -3.7716704,-0.06447 C 7.6883286,15.394531 7.6204563,15.326675 7.5849963,15.2792 7.5225643,15.19561 7.5202453,15.150402 7.5117403,13.850513 l -0.00878,-1.342368 H 5.1922815 2.8816066 l 0.061539,0.175091 c 0.057807,0.16447 0.060983,0.2484 0.052356,1.383713 l -0.00918,1.208623 -0.07743,0.156351 C 2.8101716,15.631266 2.6227979,15.81864 2.423455,15.91736 2.2723867,15.99217 2.242799,15.99504 1.5478849,16.00217 0.95306383,16.00827 0.80435717,16.00087 0.68811849,15.95932 Z M 2.001303,14.009121 V 13.00847 H 1.5009772 1.0006515 v 1.000651 1.000652 H 1.5009772 2.001303 Z M 7.5122551,8.914337 c 0.0082,-3.069167 0.00877,-3.0941595 0.072739,-3.1798268 0.03546,-0.04749 0.1033101,-0.1153589 0.1507779,-0.1508189 0.08273,-0.061802 0.1315497,-0.064845 1.1785239,-0.073445 l 1.0922191,-0.00897 V 3.7512886 2.001303 H 8.7557006 7.5048862 v 0.2473962 0.2473962 l 0.3417929,0.010584 c 0.3693164,0.011437 0.4389264,0.038605 0.5787506,0.2258844 0.060516,0.081054 0.064473,0.128297 0.064473,0.7697162 0,0.752114 -0.00218,0.7614194 -0.2152965,0.9205434 -0.085633,0.063937 -0.1084993,0.064473 -2.7510605,0.064473 H 2.8588359 l 0.063742,0.1250814 c 0.060338,0.1184021 0.064235,0.1893092 0.072975,1.3278492 0.00801,1.0433625 0.00249,1.2233897 -0.04166,1.358365 -0.1024665,0.3132734 -0.3423203,0.5586694 -0.6354807,0.6501643 -0.071217,0.022227 -0.1294864,0.047632 -0.1294864,0.056456 0,0.00882 0.058269,0.034228 0.1294864,0.056456 0.2897218,0.090422 0.5278767,0.3314567 0.6327509,0.6404029 0.075705,0.2230161 0.075705,2.3858728 0,2.6088898 -0.1052547,0.310067 -0.3296425,0.537051 -0.6373244,0.644699 -0.1299138,0.04545 0.061121,0.04929 2.5248013,0.05067 l 2.6653494,0.0015 z M 2.001303,10.006515 V 9.0058635 H 1.5009772 1.0006515 v 1.0006515 1.000652 H 1.5009772 2.001303 Z m 0,-4.002606 V 5.0032575 H 1.5009772 1.0006515 V 6.003909 7.0045605 H 1.5009772 2.001303 Z M 2.506839,4.0222156 2.4959635,3.8854735 2.3427518,3.9362222 c -0.1546886,0.051238 -0.1998186,0.096392 -0.099104,0.099156 0.041869,0.00115 0.2726595,0.1024482 0.273841,0.1201948 1.25e-4,0.00186 -0.00467,-0.058149 -0.01065,-0.1333574 z M 8.005212,3.5022803 V 3.0019545 H 7.5048862 7.0045605 V 2.001303 1.0006515 H 5.5035832 4.002606 V 2.001303 3.0019545 H 3.5022803 3.0019545 V 3.5022803 4.002606 H 5.5035832 8.005212 Z M 2.001303,2.001303 V 1.0006515 H 1.5009772 1.0006515 V 2.001303 3.0019545 H 1.5009772 2.001303 Z M 3.5022803,2.2514659 V 2.001303 H 3.2521174 3.0019545 V 2.2514659 2.5016288 H 3.2521174 3.5022803 Z M 15.251572,12.45877 l -0.242891,-0.25263 0.0017,-1.606307 0.0017,-1.6063069 L 14.697954,8.6784122 14.383913,8.3632986 14.44668,8.240184 C 14.4871,8.160907 14.50945,8.0555407 14.50945,7.9442679 V 7.7714664 l 0.472265,0.4686642 c 0.259746,0.2577656 0.488614,0.5108795 0.508596,0.5624756 0.02682,0.069249 0.03212,0.5932434 0.02024,2.0013028 l -0.01609,1.907492 z"
       id="path819"
       inkscape:connector-curvature="0" />
  </g>
</svg>
