<?xml version="1.0" encoding="UTF-8" standalone="no"?>
<!-- Created with Inkscape (http://www.inkscape.org/) -->

<svg
   xmlns:dc="http://purl.org/dc/elements/1.1/"
   xmlns:cc="http://creativecommons.org/ns#"
   xmlns:rdf="http://www.w3.org/1999/02/22-rdf-syntax-ns#"
   xmlns:svg="http://www.w3.org/2000/svg"
   xmlns="http://www.w3.org/2000/svg"
   xmlns:sodipodi="http://sodipodi.sourceforge.net/DTD/sodipodi-0.dtd"
   xmlns:inkscape="http://www.inkscape.org/namespaces/inkscape"
   version="1.1"
   id="svg2"
   width="16.11541"
   height="16.11541"
   viewBox="0 0 16.11541 16.11541"
   sodipodi:docname="PASTEDOWN.svg"
   inkscape:version="0.92.4 (5da689c313, 2019-01-14)">
  <metadata
     id="metadata8">
    <rdf:RDF>
      <cc:Work
         rdf:about="">
        <dc:format>image/svg+xml</dc:format>
        <dc:type
           rdf:resource="http://purl.org/dc/dcmitype/StillImage" />
        <dc:title></dc:title>
      </cc:Work>
    </rdf:RDF>
  </metadata>
  <defs
     id="defs6" />
  <sodipodi:namedview
     pagecolor="#ffffff"
     bordercolor="#666666"
     borderopacity="1"
     objecttolerance="10"
     gridtolerance="10"
     guidetolerance="10"
     inkscape:pageopacity="0"
     inkscape:pageshadow="2"
     inkscape:window-width="828"
     inkscape:window-height="480"
     id="namedview4"
     showgrid="false"
     inkscape:zoom="14.644368"
     inkscape:cx="8.0577049"
     inkscape:cy="8.0577049"
     inkscape:window-x="0"
     inkscape:window-y="0"
     inkscape:window-maximized="0"
     inkscape:current-layer="svg2" />
  <g
     id="PASTEDOWN">
    <path
       style="fill:#ffffff;stroke-width:0.03147541"
       d="M 0,8.057705 V 0 H 8.057705 16.11541 V 8.057705 16.11541 H 8.057705 0 Z m 15.37936,7.473465 c 0.0478,-0.03569 0.116118,-0.103998 0.15181,-0.15179 0.06429,-0.08608 0.06504,-0.116629 0.08063,-3.25576 C 15.62346,9.776681 15.6181,8.9302622 15.59132,8.860328 15.5447,8.7387882 12.416721,5.617097 12.296964,5.572597 12.243704,5.552808 11.882978,5.539672 11.392778,5.539672 H 10.5772 L 10.5686,3.6849097 C 10.5602,1.8675527 10.5587,1.8283947 10.4951,1.743248 10.45941,1.695453 10.391107,1.6271456 10.34332,1.591453 10.25919,1.528616 10.213654,1.526277 8.9080243,1.517723 L 7.5596167,1.5088892 7.5489887,1.1658203 C 7.5375055,0.79514229 7.5100477,0.7249 7.3216488,0.58423992 7.2363771,0.52057537 7.2025719,0.51934427 5.5396722,0.51934427 c -1.6628998,0 -1.696705,0.001231 -1.7819766,0.0648956 C 3.5692967,0.7249 3.5418388,0.79514229 3.5303557,1.1658203 l -0.010628,0.3430689 -1.3484116,0.00883 C 0.86568612,1.5262771 0.82014806,1.5286164 0.73602011,1.591453 0.68823361,1.6271456 0.6199325,1.695463 0.58423992,1.7432693 L 0.51934427,1.83019 v 5.2203019 5.2203021 l 0.0648956,0.08692 c 0.0356926,0.04781 0.10400659,0.116124 0.1518089,0.151817 0.0863472,0.06447 0.10883186,0.06495 3.45248163,0.07318 l 3.3655679,0.0083 v 1.303761 c 0,0.847091 0.011759,1.334797 0.033572,1.392367 0.044641,0.117821 0.1495904,0.228702 0.2654444,0.280447 0.077463,0.0346 0.7541537,0.04095 3.7668783,0.03533 3.654739,-0.0068 3.672872,-0.0072 3.759367,-0.07174 z"
       id="path831"
       inkscape:connector-curvature="0" />
    <path
       style="fill:#fefefe;stroke-width:0.03147541"
       d="M 8.057705,10.575738 V 6.0432788 h 1.762623 1.762623 v 1.7626229 1.762623 h 1.762623 1.762623 v 2.7698363 2.769836 H 11.582951 8.057705 Z m 5.547541,-1.5029438 -1.518688,-0.00848 V 7.5460489 6.0277843 l 1.526557,1.5263141 c 0.839606,0.8394728 1.526557,1.5299099 1.526557,1.5343045 0,0.00439 -0.0035,0.00459 -0.0079,4.312e-4 -0.0043,-0.00416 -0.691278,-0.011375 -1.526557,-0.01604 z"
       id="path829"
       inkscape:connector-curvature="0" />
    <path
       style="fill:#cbcbcb;stroke-width:0.03147541"
       d="M 3.0216394,3.5252459 V 3.0216394 H 5.5396722 8.057705 V 3.5252459 4.0288525 H 5.5396722 3.0216394 Z M 4.0288525,1.5108197 V 1.0072131 H 5.5396722 7.0504919 V 1.5108197 2.0144263 H 5.5396722 4.0288525 Z"
       id="path827"
       inkscape:connector-curvature="0" />
    <path
       style="fill:#fecb32;stroke-width:0.03147541"
       d="M 1.0072131,7.0504919 V 2.0144263 h 1.2590164 1.2590164 v 0.2490184 0.2490185 l -0.3440341,0.010654 c -0.371738,0.011512 -0.4418047,0.038858 -0.5825456,0.2273657 -0.060913,0.081586 -0.064896,0.1291383 -0.064896,0.7747634 0,0.7570479 0.00219,0.7664171 0.216712,0.9265798 0.08621,0.064365 0.1090152,0.064896 2.7891897,0.064896 2.6801746,0 2.7029798,-5.32e-4 2.7891897,-0.064896 0.2145206,-0.1601627 0.216712,-0.1695319 0.216712,-0.9265798 0,-0.6456251 -0.00398,-0.6931777 -0.064896,-0.7747634 C 8.3399371,2.5619752 8.2698707,2.5346284 7.8981325,2.5231168 L 7.5540984,2.5124632 V 2.2634447 2.0144263 h 1.2590164 1.2590162 v 1.7614608 1.7614613 l -1.0993807,0.00903 c -1.0538396,0.00866 -1.1029793,0.011719 -1.1862519,0.073927 -0.047779,0.035692 -0.1160741,0.1040061 -0.1517666,0.1518078 -0.064385,0.086229 -0.064961,0.1113855 -0.073216,3.2006781 l -0.00832,3.1137667 h -3.272991 -3.272991 z"
       id="path825"
       inkscape:connector-curvature="0" />
    <path
       style="fill:#989898;stroke-width:0.03147541"
       d="M 4.0288525,2.5180328 V 2.0144263 H 5.5396722 7.0504919 V 2.5180328 3.0216394 H 5.5396722 4.0288525 Z"
       id="path823"
       inkscape:connector-curvature="0" />
    <path
       style="fill:#656565;stroke-width:0.03147541"
       d="M 11.582951,7.8059017 V 6.0432788 h 0.251803 0.251804 v 1.5108196 1.5108197 h 1.510819 1.51082 v 0.2518033 0.2518033 h -1.762623 -1.762623 z"
       id="path821"
       inkscape:connector-curvature="0" />
    <path
       style="fill:#323232;stroke-width:0.03147541"
       d="m 7.8531148,15.567578 c -0.115854,-0.05174 -0.2208034,-0.162626 -0.2654444,-0.280447 -0.021813,-0.05757 -0.033572,-0.545276 -0.033572,-1.392367 v -1.303761 l -3.365568,-0.0083 c -3.34364972,-0.0082 -3.36613434,-0.0087 -3.45248158,-0.07318 -0.0478023,-0.03569 -0.11611632,-0.10401 -0.1518089,-0.151817 l -0.0648956,-0.08692 V 7.0504919 1.83019 L 0.58423992,1.743269 C 0.6199325,1.695463 0.68823361,1.6271456 0.73602011,1.591453 0.82014806,1.5286164 0.86568612,1.5262771 2.1713161,1.5177233 l 1.3484116,-0.00883 0.010628,-0.3430689 C 3.5418388,0.79514229 3.5692967,0.7249 3.7576956,0.58423992 c 0.085272,-0.0636646 0.1190768,-0.0648956 1.7819766,-0.0648956 1.6628997,0 1.6967049,0.001231 1.7819766,0.0648956 C 7.5100477,0.7249 7.5375055,0.79514229 7.5489887,1.1658203 l 0.010628,0.3430689 1.3484116,0.00883 c 1.3056297,0.00855 1.3511677,0.010893 1.4352957,0.07373 0.04779,0.035693 0.116088,0.1040003 0.15178,0.151795 0.06359,0.085147 0.06507,0.1243047 0.0735,1.9416617 l 0.0086,1.8547625 h 0.815581 c 0.4902,0 0.85093,0.013136 0.904186,0.032925 0.119757,0.0445 3.247739,3.1661912 3.294356,3.287731 0.02682,0.069934 0.03214,0.916353 0.02048,3.2632916 -0.01559,3.139131 -0.01635,3.169682 -0.08063,3.25576 -0.03569,0.04779 -0.104007,0.116098 -0.15181,0.15179 -0.08649,0.06458 -0.104628,0.06493 -3.759367,0.07174 -3.0127245,0.0056 -3.689415,-7.33e-4 -3.7668782,-0.03533 z m 7.2626382,-3.481145 0.0082,-3.0217648 -1.510941,-1.5106947 -1.51094,-1.5106947 H 10.07988 8.057705 v 4.5324592 4.532459 h 3.524934 3.524933 z M 7.5615156,8.9727915 c 0.00826,-3.0892926 0.00883,-3.114449 0.073216,-3.2006781 0.035692,-0.047802 0.1039875,-0.1161153 0.1517666,-0.1518078 0.083273,-0.062207 0.1324123,-0.06527 1.1862519,-0.073927 l 1.0993809,-0.00903 V 3.7758871 2.0144263 H 8.8131148 7.5540984 v 0.2490184 0.2490185 l 0.3440341,0.010654 c 0.3717382,0.011512 0.4418046,0.038858 0.5825457,0.2273657 0.060912,0.081586 0.064896,0.1291383 0.064896,0.7747634 0,0.7570479 -0.00219,0.7664171 -0.216712,0.9265798 -0.08621,0.064365 -0.1090151,0.064896 -2.7891897,0.064896 -2.6801745,0 -2.7029798,-5.307e-4 -2.7891897,-0.064896 C 2.5359618,4.291663 2.5337705,4.2822938 2.5337705,3.5252459 c 0,-0.6456251 0.00398,-0.6931777 0.064896,-0.7747634 C 2.7394071,2.5619752 2.8094738,2.5346284 3.1812118,2.5231168 L 3.5252459,2.5124632 V 2.2634447 2.0144263 H 2.2662295 1.0072131 v 5.0360656 5.0360661 h 3.272991 3.272991 z M 8.057705,3.5252459 V 3.0216394 H 7.5540984 7.0504919 V 2.0144263 1.0072131 H 5.5396722 4.0288525 V 2.0144263 3.0216394 H 3.5252459 3.0216394 V 3.5252459 4.0288525 H 5.5396722 8.057705 Z"
       id="path819"
       inkscape:connector-curvature="0" />
  </g>
</svg>
