<?xml version="1.0" encoding="UTF-8" standalone="no"?>
<!-- Created with Inkscape (http://www.inkscape.org/) -->

<svg
   xmlns:dc="http://purl.org/dc/elements/1.1/"
   xmlns:cc="http://creativecommons.org/ns#"
   xmlns:rdf="http://www.w3.org/1999/02/22-rdf-syntax-ns#"
   xmlns:svg="http://www.w3.org/2000/svg"
   xmlns="http://www.w3.org/2000/svg"
   xmlns:sodipodi="http://sodipodi.sourceforge.net/DTD/sodipodi-0.dtd"
   xmlns:inkscape="http://www.inkscape.org/namespaces/inkscape"
   version="1.1"
   id="svg2"
   width="16.152481"
   height="16.152481"
   viewBox="0 0 16.152481 16.152481"
   sodipodi:docname="RETOPO.svg"
   inkscape:version="0.92.4 (5da689c313, 2019-01-14)">
  <metadata
     id="metadata8">
    <rdf:RDF>
      <cc:Work
         rdf:about="">
        <dc:format>image/svg+xml</dc:format>
        <dc:type
           rdf:resource="http://purl.org/dc/dcmitype/StillImage" />
        <dc:title></dc:title>
      </cc:Work>
    </rdf:RDF>
  </metadata>
  <defs
     id="defs6" />
  <sodipodi:namedview
     pagecolor="#ffffff"
     bordercolor="#666666"
     borderopacity="1"
     objecttolerance="10"
     gridtolerance="10"
     guidetolerance="10"
     inkscape:pageopacity="0"
     inkscape:pageshadow="2"
     inkscape:window-width="828"
     inkscape:window-height="480"
     id="namedview4"
     showgrid="false"
     inkscape:zoom="14.610758"
     inkscape:cx="8.0762405"
     inkscape:cy="8.0762405"
     inkscape:window-x="0"
     inkscape:window-y="0"
     inkscape:window-maximized="0"
     inkscape:current-layer="svg2" />
  <g
     id="RETOPO">
    <path
       style="fill:#ffffff;stroke-width:0.03154781"
       d="m 0.00419635,11.570161 c 0.00245747,-2.68349 0.0151926,-4.4777375 0.03073285,-4.3299376 0.21089709,2.0057943 1.3576534,3.8357006 3.0677787,4.8953286 0.5843981,0.362105 1.4712927,0.72403 2.0395859,0.832317 0.1127834,0.02149 0.2088973,0.04201 0.2135862,0.04561 0.00469,0.0036 -0.041534,0.111944 -0.1027171,0.240779 -0.2775605,0.584464 -0.2707686,1.203841 0.019661,1.792985 0.2541015,0.51545 0.7924827,0.935966 1.3522172,1.056183 0.1803526,0.03873 -0.2064268,0.04434 -3.2099901,0.04655 L 0,16.152481 Z M 7.5083798,16.103423 C 7.6211633,16.0792 7.8336306,16.00004 7.9805292,15.927511 8.4329936,15.704115 8.8364472,15.235976 8.9897447,14.75649 l 0.037823,-0.118304 h 1.5724983 1.572497 l 0.03782,0.118304 c 0.153297,0.479486 0.556751,0.947625 1.009215,1.171021 0.146899,0.07253 0.359366,0.151689 0.472149,0.175912 0.180272,0.03872 -0.193468,0.04404 -3.091685,0.04404 -2.8982182,0 -3.2719582,-0.0053 -3.0916865,-0.04404 z m 7.0667102,0 c 0.729465,-0.15667 1.371663,-0.798868 1.528333,-1.528333 0.04166,-0.193947 0.04418,-0.156758 0.04655,0.686165 l 0.0025,0.891226 -0.891226,-0.0025 c -0.842923,-0.0024 -0.880112,-0.0049 -0.686165,-0.04655 z m 1.522836,-2.41941 c -0.02059,-0.108364 -0.09703,-0.317282 -0.169864,-0.464263 -0.224465,-0.452989 -0.692455,-0.856184 -1.171572,-1.009363 l -0.118304,-0.03782 V 10.600066 9.027568 L 14.75649,8.989745 c 0.479486,-0.1532975 0.947625,-0.5567511 1.171021,-1.0092155 0.07253,-0.1468986 0.151689,-0.3593659 0.175912,-0.4721494 0.03878,-0.1805383 0.04434,0.1882395 0.04655,3.0837989 0.0014,1.808873 -0.0013,3.288859 -0.006,3.288859 -0.0047,0 -0.0254,-0.08866 -0.046,-0.197025 z m 0,-7.0667106 C 15.996214,6.0820946 15.562151,5.5266597 15.04724,5.2728238 14.458096,4.9823943 13.838719,4.9756024 13.254255,5.2531629 13.12542,5.3143464 13.017069,5.3605693 13.013476,5.35588 13.009882,5.3511911 12.989359,5.2550772 12.967869,5.1422938 12.946378,5.0295103 12.865986,4.7460223 12.789221,4.5123202 11.984257,2.0617247 9.8068249,0.30479179 7.2402234,0.0349292 7.0924235,0.01938895 8.886671,0.00665382 11.570161,0.00419635 L 16.152481,0 v 3.407164 c 0,1.8739401 -0.0038,3.4071639 -0.0086,3.4071639 -0.0047,0 -0.0254,-0.088661 -0.046,-0.1970255 z M 0.00419635,3.068025 0,0 3.068025,0.00419635 C 4.9317591,0.00674551 6.0369822,0.01880907 5.8836674,0.0349292 4.9311222,0.13508355 3.9207106,0.4814877 3.1027079,0.98833851 1.3925826,2.0479663 0.24582629,3.8778731 0.0349292,5.8836674 0.01880907,6.0369822 0.00674551,4.9317591 0.00419635,3.068025 Z"
       id="path827"
       inkscape:connector-curvature="0" />
    <path
       style="fill:#fefefe;stroke-width:0.03154781"
       d="m 6.0571804,14.133421 v -1.00953 h 1.00953 1.0095301 v 1.00953 1.00953 h -1.0095301 -1.00953 z m 7.0667106,0 v -1.00953 h 1.00953 1.00953 v 1.00953 1.00953 h -1.00953 -1.00953 z M 5.9309891,12.078988 C 4.0363725,11.861289 2.372004,10.666873 1.5402623,8.9280315 0.75472521,7.2857854 0.85535722,5.2761152 1.8017062,3.7068682 2.254397,2.956211 2.9603011,2.2501569 3.7068682,1.8013013 c 1.7461065,-1.04980466 3.9640479,-1.04980466 5.7101544,0 0.7465674,0.4488556 1.4524714,1.1549097 1.9051624,1.9055669 0.47277,0.7839537 0.790473,1.8692402 0.791917,2.7052251 l 2.59e-4,0.1498521 H 10.570964 9.027568 L 8.9897447,6.4436411 C 8.9011796,6.1666261 8.7205156,5.8799047 8.4859381,5.6440791 7.6962304,4.8501689 6.4396522,4.8506412 5.6451467,5.6451454 4.8506412,6.4396509 4.8501689,7.6962291 5.6440804,8.4859368 5.8799059,8.7205144 6.1666273,8.9011783 6.4436424,8.9897434 l 0.1183043,0.037823 v 1.5433966 1.543396 l -0.1971739,-0.0041 C 6.2563272,12.108017 6.0611251,12.09394 5.9309904,12.078987 Z M 6.0571804,7.0667104 v -1.00953 h 1.00953 1.0095301 v 1.00953 1.0095301 h -1.0095301 -1.00953 z m 7.0667106,0 v -1.00953 h 1.00953 1.00953 v 1.00953 1.0095301 h -1.00953 -1.00953 z"
       id="path825"
       inkscape:connector-curvature="0" />
    <path
       style="fill:#98cbfe;stroke-width:0.03154781"
       d="M 9.0852229,14.03089 C 9.0841156,13.823804 8.9888746,13.479816 8.8605971,13.219602 8.6774485,12.848081 8.3520501,12.522683 7.9805292,12.339534 7.7203152,12.211257 7.3763273,12.116015 7.1692408,12.114908 L 7.0667104,12.114361 V 10.600066 9.0857706 l 0.1025304,-5.49e-4 C 7.3763273,9.0841143 7.7203152,8.9888733 7.9805292,8.8605958 8.3520501,8.6774472 8.6774485,8.3520488 8.8605971,7.9805279 8.9888746,7.720314 9.0841165,7.3763261 9.0852229,7.1692396 l 5.477e-4,-0.1025292 h 1.5142954 1.514295 l 5.49e-4,0.1025304 c 0.0011,0.2070865 0.09635,0.5510744 0.224625,0.8112884 0.183149,0.3715209 0.508547,0.6969193 0.880068,0.8800679 0.260214,0.1282775 0.604202,0.2235194 0.811289,0.2246258 l 0.102529,5.477e-4 v 1.5142954 1.514295 l -0.102531,5.49e-4 c -0.207086,0.0011 -0.551074,0.09635 -0.811288,0.224625 -0.371521,0.183149 -0.696919,0.508547 -0.880068,0.880068 -0.128277,0.260214 -0.223519,0.604202 -0.224626,0.811289 l -5.47e-4,0.102529 H 10.600066 9.0857706 l -5.49e-4,-0.102531 z"
       id="path823"
       inkscape:connector-curvature="0" />
    <path
       style="fill:#003298;stroke-width:0.03154781"
       d="m 9.0342356,14.590468 c 0.010071,-0.02624 0.027747,-0.139817 0.03928,-0.252383 l 0.020969,-0.204664 h 1.5055824 1.505582 l 0.02097,0.204664 c 0.01153,0.112566 0.02921,0.226138 0.03928,0.252383 0.01619,0.0422 -0.164816,0.04772 -1.56583,0.04772 -1.401015,0 -1.582025,-0.0055 -1.5658306,-0.04772 z M 6.5619454,10.600066 c 0,-1.4010148 0.00552,-1.5820248 0.047718,-1.5658304 0.026245,0.010071 0.1398171,0.027747 0.2523825,0.03928 l 0.2046642,0.020969 v 1.5055824 1.505582 l -0.2046642,0.02097 c -0.1125654,0.01153 -0.2261376,0.02921 -0.2523825,0.03928 -0.042202,0.01619 -0.047718,-0.164816 -0.047718,-1.56583 z m 7.8001976,1.535365 -0.228722,-0.03181 V 10.599055 9.0944838 l 0.204664,-0.020969 c 0.112566,-0.011533 0.226138,-0.029209 0.252383,-0.03928 0.0422,-0.016194 0.04772,0.1644531 0.04772,1.5624542 0,0.869422 -0.01065,1.578467 -0.02366,1.575657 -0.01301,-0.0028 -0.126586,-0.01942 -0.252382,-0.03692 z M 9.0735152,6.8620462 c -0.011533,-0.1125654 -0.029209,-0.2261376 -0.03928,-0.2523825 -0.016194,-0.042202 0.1648156,-0.047718 1.5658308,-0.047718 1.401014,0 1.582024,0.00552 1.56583,0.047718 -0.01007,0.026245 -0.02775,0.1398171 -0.03928,0.2523825 l -0.02097,0.2046642 h -1.50558 -1.5055822 z"
       id="path821"
       inkscape:connector-curvature="0" />
    <path
       style="fill:#323232;stroke-width:0.03154781"
       d="M 6.625041,16.103423 C 6.0653065,15.983206 5.5269253,15.56269 5.2728238,15.04724 4.9823943,14.458096 4.9756024,13.838719 5.2531629,13.254255 5.3143464,13.12542 5.3605693,13.017069 5.35588,13.013476 5.3511911,13.009882 5.2550772,12.989359 5.1422938,12.967869 5.0295103,12.946378 4.7460223,12.865986 4.5123202,12.789221 2.0408017,11.977385 0.30041083,9.8045418 0.03345369,7.1974462 -0.19165311,4.9990597 0.77603507,2.7422746 2.5225782,1.3924572 4.2718123,0.04056004 6.5274315,-0.35138047 8.6115706,0.33442273 10.597216,0.9878157 12.137471,2.5281627 12.789221,4.5123202 c 0.07676,0.2337021 0.157157,0.5171901 0.178648,0.6299736 0.02149,0.1127834 0.04201,0.2088973 0.04561,0.2135862 0.0036,0.00469 0.111944,-0.041534 0.240779,-0.1027171 1.517956,-0.7208745 3.194732,0.5962571 2.850925,2.239443 -0.190021,0.9081812 -1.037008,1.592069 -1.971759,1.592069 -0.747973,0 -1.468072,-0.4432244 -1.793887,-1.1041457 -0.200603,-0.4069287 -0.271585,-0.8663989 -0.194784,-1.2608447 0.01657,-0.085117 0.01602,-0.1461762 -0.0014,-0.152481 -0.01596,-0.00578 -0.02913,-0.076767 -0.02927,-0.1577391 -0.0011,-0.6397392 -0.2255,-1.5760222 -0.530476,-2.2136051 C 10.921681,2.8119896 9.7367906,1.7654075 8.2970752,1.2929342 6.5673152,0.72527662 4.73495,1.0211528 3.2494249,2.1079898 2.7384423,2.4818338 2.1416907,3.1407094 1.8013013,3.7068682 0.75151468,5.4529448 0.75167227,7.6758442 1.8017061,9.4170226 2.2543969,10.16768 2.960301,10.873734 3.7068681,11.322589 c 0.7862542,0.472717 1.869774,0.790049 2.7025962,0.791513 0.080973,1.58e-4 0.1519551,0.01332 0.1577391,0.02927 0.0063,0.0174 0.067364,0.01795 0.152481,0.0014 0.8339535,-0.162377 1.7602522,0.302674 2.1409126,1.074852 0.757117,1.53583 -0.5658522,3.242432 -2.235556,2.883822 z m 1.4511995,-1.970002 v -1.00953 h -1.0095301 -1.00953 v 1.00953 1.00953 h 1.00953 1.0095301 z M 15.142951,7.0667104 v -1.00953 h -1.00953 -1.00953 v 1.00953 1.0095301 h 1.00953 1.00953 z m -1.4512,9.0367126 c -0.737139,-0.158319 -1.374773,-0.801795 -1.530089,-1.544107 -0.299952,-1.433585 0.964069,-2.697606 2.397654,-2.397654 0.749993,0.156923 1.388941,0.795871 1.545864,1.545863 0.301031,1.438744 -0.974445,2.704955 -2.413429,2.395898 z m 1.4512,-1.970002 v -1.00953 h -1.00953 -1.00953 v 1.00953 1.00953 h 1.00953 1.00953 z M 6.625041,9.0367128 C 5.8879014,8.8783938 5.2502671,8.2349178 5.0949515,7.4926059 4.7949996,6.0590206 6.0590206,4.7949996 7.4926059,5.0949515 8.2425984,5.2518741 8.8815467,5.8908224 9.0384693,6.6408149 9.3395005,8.0795581 8.0640242,9.3457697 6.625041,9.0367128 Z M 8.0762405,7.0667104 v -1.00953 h -1.0095301 -1.00953 v 1.00953 1.0095301 h 1.00953 1.0095301 z"
       id="path819"
       inkscape:connector-curvature="0" />
  </g>
</svg>
