<?xml version="1.0" encoding="UTF-8" standalone="no"?>
<!-- Created with Inkscape (http://www.inkscape.org/) -->

<svg
   xmlns:dc="http://purl.org/dc/elements/1.1/"
   xmlns:cc="http://creativecommons.org/ns#"
   xmlns:rdf="http://www.w3.org/1999/02/22-rdf-syntax-ns#"
   xmlns:svg="http://www.w3.org/2000/svg"
   xmlns="http://www.w3.org/2000/svg"
   xmlns:sodipodi="http://sodipodi.sourceforge.net/DTD/sodipodi-0.dtd"
   xmlns:inkscape="http://www.inkscape.org/namespaces/inkscape"
   version="1.1"
   id="svg2"
   width="16"
   height="16"
   viewBox="0 0 16 16"
   sodipodi:docname="BREAKDOWNER_POSE.svg"
   inkscape:version="0.92.4 (5da689c313, 2019-01-14)">
  <metadata
     id="metadata8">
    <rdf:RDF>
      <cc:Work
         rdf:about="">
        <dc:format>image/svg+xml</dc:format>
        <dc:type
           rdf:resource="http://purl.org/dc/dcmitype/StillImage" />
        <dc:title></dc:title>
      </cc:Work>
    </rdf:RDF>
  </metadata>
  <defs
     id="defs6" />
  <sodipodi:namedview
     pagecolor="#ffffff"
     bordercolor="#666666"
     borderopacity="1"
     objecttolerance="10"
     gridtolerance="10"
     guidetolerance="10"
     inkscape:pageopacity="0"
     inkscape:pageshadow="2"
     inkscape:window-width="1038"
     inkscape:window-height="632"
     id="namedview4"
     showgrid="false"
     inkscape:zoom="14.75"
     inkscape:cx="8"
     inkscape:cy="8"
     inkscape:window-x="0"
     inkscape:window-y="0"
     inkscape:window-maximized="0"
     inkscape:current-layer="svg2" />
  <g
     id="BREAKDOWNER_POSE">
    <path
       style="fill:#ffffff;stroke-width:0.03125"
       d="M 0,8 V 0 h 8 8 v 8 8 L 12.585938,15.9985 C 9.4414003,15.9971 9.1829634,15.9931 9.3123316,15.94787 c 0.3105503,-0.108652 0.5369593,-0.339912 0.6392,-0.652895 0.044618,-0.136586 0.04941,-0.379208 0.041633,-2.107481 l -0.00879,-1.953126 -0.077379,-0.15625 C 9.7455691,10.752161 9.4300263,10.536502 9.0719853,10.507433 8.6239556,10.471058 8.1881547,10.761 8.0564188,11.183098 8.0342063,11.254269 8.0088178,11.3125 8,11.3125 7.99118,11.3125 7.965794,11.25427 7.943581,11.183098 7.8118453,10.761 7.3760444,10.471058 6.9280147,10.507433 c -0.358041,0.02907 -0.6735838,0.244728 -0.8350103,0.570692 l -0.077379,0.15625 -0.00879,1.953125 c -0.00778,1.728273 -0.00298,1.970895 0.041633,2.107481 0.1022407,0.312983 0.3286497,0.544243 0.6392,0.652894 0.1293682,0.04526 -0.1290687,0.04926 -3.2736059,0.05063 L 0,16 Z m 8.421875,2.403763 c 0.1971844,-0.09357 0.3854078,-0.280541 0.4851206,-0.481888 l 0.077379,-0.15625 0.00983,-1.796875 c 0.00915,-1.6724356 0.013194,-1.7871478 0.058445,-1.6564184 0.1061156,0.3065618 0.3335966,0.5316231 0.6437575,0.6369093 0.2911703,0.09884 0.6111929,0.047036 0.8973449,-0.1452593 0.07734,-0.051975 0.721376,-0.6724932 1.431183,-1.3789285 1.123964,-1.1186259 1.303138,-1.3098812 1.38802,-1.4816062 0.248817,-0.50338 0.03026,-1.0927619 -0.502449,-1.3549712 -0.20644,-0.1016129 -0.614029,-0.1018897 -0.819823,-5.569e-4 -0.103149,0.05079 -0.535214,0.4622308 -1.53125,1.4581552 -1.3304012,1.3302522 -1.524664,1.5479744 -1.5273003,1.7117385 -0.00156,0.09675 -0.047003,0.058405 -0.088549,-0.074715 C 8.85428,5.3969665 8.6121806,5.1554931 8.3123316,5.0534809 L 8.171875,5.0056959 8.265625,4.9871403 C 8.8864297,4.8642656 9.1946547,4.7118697 9.5656487,4.3443684 9.8640506,4.0487759 10.022997,3.795134 10.150262,3.4114578 10.219633,3.2023215 10.229732,3.1182626 10.229732,2.75 c 0,-0.3682627 -0.0101,-0.4523215 -0.07947,-0.6614579 C 10.026614,1.7157711 9.8624744,1.4507288 9.5808728,1.1691272 9.2992713,0.88752572 9.0342291,0.72338628 8.6614578,0.59973794 8.4523216,0.53036731 8.3682625,0.52026822 8,0.52026822 c -0.3682625,0 -0.4523216,0.0100991 -0.6614578,0.0794697 C 6.9657709,0.72338628 6.7007287,0.88752572 6.4191272,1.1691272 6.1375256,1.4507288 5.9733862,1.7157711 5.8497378,2.0885422 5.7803672,2.2976785 5.7702681,2.3817373 5.7702681,2.75 c 0,0.3682627 0.010099,0.4523216 0.07947,0.6614578 0.1272656,0.3836763 0.2862116,0.6373181 0.5846134,0.9329106 0.3709941,0.3675013 0.6792191,0.5198972 1.3000238,0.6427719 l 0.09375,0.018556 -0.1404566,0.047785 C 7.3878194,5.1554931 7.14572,5.3969666 7.0564188,5.6830978 7.0148725,5.8162172 6.9694272,5.8545625 6.9678697,5.7578125 6.9652322,5.5940484 6.7709706,5.3763263 5.4405694,4.0460741 4.4445334,3.0501496 4.0124681,2.6387092 3.9093194,2.5879189 3.6981231,2.4839261 3.2963938,2.4867559 3.078125,2.5937739 2.5088545,2.8728892 2.3341393,3.5555288 2.6947049,4.0918556 c 0.052698,0.078386 0.6738067,0.7232703 1.380242,1.4330769 1.4631506,1.4701328 1.4829709,1.4855994 1.9034812,1.4853519 0.4490063,-2.5e-4 0.8183916,-0.2662028 0.9694472,-0.6979528 0.045811,-0.1309391 0.049242,-0.022479 0.050633,1.6006387 0.00164,1.9112191 -2.5e-4,1.8900544 0.1937653,2.1720777 0.2581725,0.375283 0.8093391,0.518146 1.2296014,0.318715 z M 7.3123316,15.947875 C 7.61453,15.842146 7.8545216,15.602259 7.9435812,15.316902 7.9657937,15.245731 7.9911822,15.1875 8,15.1875 c 0.00882,0 0.034206,0.05823 0.056419,0.129402 0.08906,0.285357 0.3290512,0.525244 0.6312496,0.630973 0.1342954,0.04699 0.1041294,0.04914 -0.6876684,0.04914 -0.7917978,0 -0.8219637,-0.0022 -0.6876686,-0.04914 z"
       id="path823"
       inkscape:connector-curvature="0" />
    <path
       style="fill:#00fefe;stroke-width:0.03125"
       d="m 6.828125,15.441227 c -0.1486819,-0.06827 -0.21531,-0.137965 -0.2800581,-0.292929 -0.041386,-0.09905 -0.047972,-0.363831 -0.047381,-1.905107 6.407e-4,-1.674973 0.00441,-1.798261 0.058574,-1.917522 0.1037213,-0.228371 0.3494528,-0.360643 0.5481622,-0.295063 0.1561597,0.05154 0.2674628,0.150066 0.3333172,0.295063 0.054201,0.119339 0.057888,0.241883 0.057888,1.924331 0,1.677458 -0.00381,1.805182 -0.0574,1.921875 -0.068275,0.148682 -0.1379653,0.21531 -0.2929297,0.280058 -0.1445175,0.06038 -0.1669991,0.05963 -0.3201725,-0.01071 z m 2,0 c -0.1486819,-0.06827 -0.21531,-0.137965 -0.2800581,-0.292929 -0.041386,-0.09905 -0.047972,-0.363831 -0.047381,-1.905107 6.438e-4,-1.674973 0.00441,-1.798261 0.058574,-1.917522 0.065854,-0.144997 0.1771575,-0.243526 0.3333172,-0.295063 0.1987094,-0.06558 0.4444409,0.06669 0.5481622,0.295063 0.054201,0.119339 0.057888,0.241883 0.057888,1.924331 0,1.677458 -0.00381,1.805182 -0.0574,1.921875 -0.068275,0.148682 -0.1379653,0.21531 -0.2929297,0.280058 -0.1445175,0.06038 -0.1669991,0.05963 -0.3201725,-0.01071 z m -1,-5.4999998 C 7.6794431,9.8729522 7.612815,9.8032619 7.5480669,9.6482975 7.5066806,9.5492463 7.5000953,9.2844666 7.5006862,7.7431912 7.5013269,6.0682184 7.5050947,5.94493 7.5592603,5.8256687 7.6251147,5.6806722 7.7364178,5.5821431 7.8925775,5.5306056 c 0.1987094,-0.06558 0.4444409,0.066692 0.5481622,0.2950631 0.054201,0.1193397 0.057888,0.2418829 0.057888,1.9243313 0,1.6774581 -0.00381,1.8051822 -0.0574,1.921875 C 8.3729522,9.8205569 8.3032619,9.887185 8.1482975,9.9519331 8.00378,10.012316 7.9812984,10.011565 7.828125,9.9412272 Z M 5.8291791,6.4534741 C 5.7329244,6.4189112 5.4105606,6.1136872 4.386285,5.0872966 3.2556403,3.9543172 3.0626206,3.7476384 3.0343023,3.6396397 2.9420453,3.2877953 3.2594275,2.9716314 3.6103603,3.0657933 3.7151388,3.0939074 3.9370859,3.3010294 5.0412397,4.4010969 5.760015,5.1172125 6.3704894,5.7453125 6.3978491,5.796875 6.5941328,6.1667944 6.2232819,6.5949872 5.8291791,6.4534741 Z M 9.859375,6.453395 C 9.6260131,6.3701591 9.5022216,6.1335703 9.5654291,5.8916103 9.5936997,5.78339 9.7863959,5.5775697 10.931983,4.4319828 12.07757,3.2863959 12.28339,3.0936998 12.39161,3.0654292 12.743621,2.9734726 13.059602,3.2907394 12.965457,3.6416103 12.937343,3.7463888 12.730221,3.9683359 11.630153,5.0724897 10.914037,5.791265 10.292969,6.3977747 10.25,6.4202884 10.118458,6.4892113 9.9902531,6.5000769 9.859375,6.453395 Z M 7.7227737,4.4664334 C 6.8882666,4.3197184 6.2699753,3.5892278 6.2699753,2.75 c 0,-0.7702823 0.520605,-1.4532095 1.2768997,-1.6750308 C 7.6609991,1.0414967 7.8383244,1.0199754 8,1.0199754 c 0.7702822,0 1.4532094,0.520605 1.6750306,1.2768996 0.072296,0.2464923 0.072296,0.6597577 0,0.90625 C 9.4263925,4.0508516 8.55741,4.6131716 7.7227737,4.4664334 Z"
       id="path821"
       inkscape:connector-curvature="0" />
    <path
       style="fill:#0065cb;stroke-width:0.03125"
       d="M 6.6876684,15.947875 C 6.3771181,15.839224 6.1507091,15.607964 6.0484684,15.294981 6.0038506,15.158395 5.9990578,14.915773 6.0068353,13.1875 l 0.00879,-1.953125 0.077379,-0.15625 C 6.2544309,10.752161 6.5699738,10.536502 6.9280147,10.507433 7.3760444,10.471058 7.8118453,10.761 7.9435812,11.183098 7.9657937,11.254269 7.9911822,11.3125 8,11.3125 c 0.00882,0 0.034206,-0.05823 0.056419,-0.129402 0.1317359,-0.422098 0.5675368,-0.71204 1.0155665,-0.675665 0.358041,0.02907 0.6735838,0.244728 0.8350103,0.570692 l 0.077379,0.15625 V 13.25 15.265625 l -0.077379,0.15625 C 9.7455691,15.747839 9.4300263,15.963498 9.0719853,15.992567 8.6239556,16.028942 8.1881547,15.739 8.0564188,15.316902 8.0342063,15.245731 8.0088178,15.1875 8,15.1875 c -0.00882,0 -0.034206,0.05823 -0.056419,0.129402 -0.1584156,0.507582 -0.7537315,0.80667 -1.2559126,0.630973 z m 0.4606291,-0.495942 c 0.1549644,-0.06475 0.2246547,-0.131376 0.2929297,-0.280058 0.053586,-0.116693 0.0574,-0.244417 0.0574,-1.921875 0,-1.682448 -0.00369,-1.804992 -0.057888,-1.924331 -0.1037213,-0.228371 -0.3494528,-0.360643 -0.5481622,-0.295063 -0.1561597,0.05154 -0.2674628,0.150066 -0.3333172,0.295063 -0.054166,0.119261 -0.057932,0.242549 -0.058574,1.917522 -7.282e-4,1.903113 -6.25e-5,1.912601 0.1489431,2.080391 0.05579,0.06283 0.2741969,0.174544 0.3435619,0.175732 0.022036,3.78e-4 0.091834,-0.02094 0.1551062,-0.04738 z m 2,0 c 0.1549644,-0.06475 0.2246547,-0.131376 0.2929297,-0.280058 0.053586,-0.116693 0.0574,-0.244417 0.0574,-1.921875 0,-1.682448 -0.00369,-1.804992 -0.057888,-1.924331 -0.065854,-0.144997 -0.1771575,-0.243526 -0.3333172,-0.295063 -0.1987094,-0.06558 -0.4444409,0.06669 -0.5481622,0.295063 -0.054166,0.119261 -0.057932,0.242549 -0.058574,1.917522 -7.281e-4,1.903113 -6.25e-5,1.912601 0.1489432,2.080391 0.05579,0.06283 0.2741968,0.174544 0.3435618,0.175732 0.022036,3.78e-4 0.091834,-0.02094 0.1551063,-0.04738 z M 7.6876684,10.44977 C 7.3767744,10.336804 7.1555837,10.112396 7.0507591,9.8035953 7.0063869,9.6728809 6.9998122,9.4349859 6.9985081,7.9129703 6.9971175,6.2898528 6.9936866,6.1813925 6.9478753,6.3123316 6.7968197,6.7440816 6.4274344,7.0100203 5.9784281,7.0102844 5.5579178,7.0105344 5.5380975,6.9950653 4.0749469,5.5249325 3.3685116,4.8151259 2.7474026,4.1702412 2.6947049,4.0918556 2.3341393,3.5555288 2.5088545,2.8728892 3.078125,2.5937739 c 0.2182688,-0.107018 0.6199981,-0.1098478 0.8311944,-0.00585 0.1031487,0.05079 0.535214,0.4622307 1.53125,1.4581552 1.3304012,1.3302522 1.524664,1.5479743 1.5273003,1.7117384 0.00156,0.09675 0.047003,0.058405 0.088549,-0.074715 C 7.14572,5.3969666 7.3878194,5.1554931 7.6876684,5.0534809 L 7.828125,5.0056959 7.734375,4.9871403 C 7.1135703,4.8642656 6.8053453,4.7118697 6.4343513,4.3443684 6.1359494,4.0487759 5.9770034,3.7951341 5.8497378,3.4114578 5.7803672,3.2023216 5.7702681,3.1182627 5.7702681,2.75 c 0,-0.3682627 0.010099,-0.4523215 0.07947,-0.6614578 C 5.9733863,1.7157711 6.1375256,1.4507288 6.4191272,1.1691272 6.7007288,0.88752572 6.9657709,0.72338628 7.3385422,0.59973794 7.5476784,0.53036731 7.6317375,0.52026822 8,0.52026822 c 0.3682625,0 0.4523216,0.0100991 0.6614578,0.0794697 0.3727713,0.12364834 0.6378135,0.28778778 0.919415,0.56938928 0.2816016,0.2816016 0.4457412,0.5466439 0.5693892,0.919415 0.06937,0.2091363 0.07947,0.2931951 0.07947,0.6614578 0,0.3682627 -0.0101,0.4523216 -0.07947,0.6614578 C 10.022997,3.7951341 9.8640506,4.0487759 9.5656488,4.3443684 9.1946547,4.7118697 8.8864297,4.8642656 8.265625,4.9871403 l -0.09375,0.018556 0.1404566,0.047785 c 0.299849,0.1020122 0.5419484,0.3434857 0.6312497,0.6296169 0.041546,0.1331194 0.086991,0.1714647 0.088549,0.074715 0.00264,-0.1637641 0.1968991,-0.3814862 1.5273007,-1.7117384 0.996036,-0.9959245 1.428101,-1.4073649 1.53125,-1.4581552 0.205794,-0.1013329 0.613383,-0.1010561 0.819823,5.569e-4 0.231262,0.113831 0.390279,0.2706785 0.499642,0.4928265 0.08541,0.1734846 0.100271,0.2378705 0.100271,0.4343227 0,0.42754 -0.01192,0.442865 -1.485484,1.9094282 C 11.315126,6.1314884 10.671094,6.7520062 10.59375,6.8039816 10.011469,7.1952762 9.2771903,6.9610228 9.0526472,6.3123316 9.0073956,6.1816022 9.0033481,6.2963144 8.9942019,7.96875 l -0.00983,1.796875 -0.077379,0.15625 c -0.099713,0.201347 -0.2879362,0.388316 -0.4851206,0.481888 -0.2039866,0.0968 -0.5369916,0.117666 -0.7342066,0.04601 z M 8.1482975,9.9519331 C 8.3032619,9.887185 8.3729522,9.8205569 8.4412272,9.671875 c 0.053586,-0.1166928 0.0574,-0.2444169 0.0574,-1.921875 0,-1.6824484 -0.00369,-1.8049916 -0.057888,-1.9243313 C 8.3748853,5.6806722 8.2635822,5.5821431 8.1074225,5.5306056 7.9087131,5.4650256 7.6629816,5.5972975 7.5592603,5.8256687 7.5050947,5.94493 7.5013284,6.0682184 7.5006862,7.7431912 c -7.281e-4,1.9031126 -6.25e-5,1.9126007 0.1489432,2.080391 0.05579,0.062828 0.2741968,0.1745434 0.3435618,0.1757315 0.022036,3.782e-4 0.091834,-0.020944 0.1551063,-0.047381 z M 6.2332694,6.4098603 C 6.4273,6.2994937 6.5070116,6.0026044 6.3978491,5.796875 6.3704894,5.7453125 5.760015,5.1172125 5.0412397,4.4010969 3.9370859,3.3010294 3.7151388,3.0939074 3.6103603,3.0657933 c -0.3509328,-0.094162 -0.668315,0.222002 -0.576058,0.5738464 0.028318,0.1079987 0.221338,0.3146775 1.3519827,1.4476569 1.3831,1.3859556 1.440935,1.43447 1.66059,1.3929721 0.051563,-0.00974 0.13544,-0.041425 0.1863944,-0.070408 z M 10.25,6.4202884 C 10.292969,6.3977747 10.914037,5.791265 11.630153,5.0724897 12.730221,3.9683359 12.937343,3.7463888 12.965457,3.6416103 13.059602,3.2907394 12.743621,2.9734726 12.39161,3.0654292 12.28339,3.0936998 12.07757,3.2863959 10.931983,4.4319828 9.7863959,5.5775697 9.5936997,5.78339 9.5654291,5.8916103 9.4593969,6.2975028 9.8736956,6.6174562 10.25,6.4202884 Z M 8.47761,4.4171878 C 9.0337522,4.2548941 9.5073978,3.7746653 9.6750306,3.203125 c 0.072296,-0.2464923 0.072296,-0.6597577 0,-0.90625 C 9.5467247,1.8594185 9.2284006,1.4556731 8.84375,1.2425227 8.5576172,1.083965 8.3150116,1.0199754 8,1.0199754 c -0.7702822,0 -1.4532094,0.520605 -1.6750306,1.2768996 -0.072296,0.2464923 -0.072296,0.6597577 0,0.90625 0.2331718,0.7949947 0.98544,1.3354956 1.7776406,1.2772262 0.1165919,-0.00858 0.2853419,-0.036999 0.375,-0.063163 z"
       id="path819"
       inkscape:connector-curvature="0" />
  </g>
</svg>
