<?xml version="1.0" encoding="UTF-8" standalone="no"?>
<!-- Created with Inkscape (http://www.inkscape.org/) -->

<svg
   xmlns:dc="http://purl.org/dc/elements/1.1/"
   xmlns:cc="http://creativecommons.org/ns#"
   xmlns:rdf="http://www.w3.org/1999/02/22-rdf-syntax-ns#"
   xmlns:svg="http://www.w3.org/2000/svg"
   xmlns="http://www.w3.org/2000/svg"
   xmlns:sodipodi="http://sodipodi.sourceforge.net/DTD/sodipodi-0.dtd"
   xmlns:inkscape="http://www.inkscape.org/namespaces/inkscape"
   version="1.1"
   id="svg2"
   width="16"
   height="16"
   viewBox="0 0 16 16"
   sodipodi:docname="CHILD_RECURSIVE.svg"
   inkscape:version="0.92.4 (5da689c313, 2019-01-14)">
  <metadata
     id="metadata8">
    <rdf:RDF>
      <cc:Work
         rdf:about="">
        <dc:format>image/svg+xml</dc:format>
        <dc:type
           rdf:resource="http://purl.org/dc/dcmitype/StillImage" />
        <dc:title></dc:title>
      </cc:Work>
    </rdf:RDF>
  </metadata>
  <defs
     id="defs6" />
  <sodipodi:namedview
     pagecolor="#ffffff"
     bordercolor="#666666"
     borderopacity="1"
     objecttolerance="10"
     gridtolerance="10"
     guidetolerance="10"
     inkscape:pageopacity="0"
     inkscape:pageshadow="2"
     inkscape:window-width="1175"
     inkscape:window-height="817"
     id="namedview4"
     showgrid="false"
     inkscape:zoom="14.75"
     inkscape:cx="8"
     inkscape:cy="8"
     inkscape:window-x="0"
     inkscape:window-y="0"
     inkscape:window-maximized="0"
     inkscape:current-layer="svg2" />
  <g
     id="CHILD_RECURSIVE">
    <path
       style="fill:#ffffff;stroke-width:0.03125"
       d="M 0.0014617,12.132813 C 0.0029181,8.2796697 0.00314235,8.2661859 0.06320995,8.4200384 0.13489964,8.6036588 0.37236162,8.859145 0.546875,8.9404153 c 0.11873159,0.055293 0.25506244,0.058247 2.7186122,0.058898 l 2.5936122,6.875e-4 1.3020309,1.3017532 1.302031,1.301755 -0.723585,1.449499 -0.723585,1.4495 -0.011293,0.355755 c -0.014499,0.456753 0.034159,0.618284 0.2579428,0.8563 0.087579,0.09315 0.2154841,0.195169 0.2842341,0.226713 0.1220697,0.05601 0.035077,0.05737 -3.7109375,0.05804 L 0,16 Z m 15.4516633,3.807602 c 0.174513,-0.08127 0.411975,-0.336756 0.483665,-0.520377 l 0.06029,-0.154413 0.0015,0.367188 L 16,16 l -0.335937,-6.87e-4 -0.335938,-6.88e-4 z m 0.500036,-1.409002 C 15.931381,14.432233 13.790219,10.089151 13.749969,10.0625 13.726539,10.04699 13.21875,9.04663 13.21875,9.0159925 c 0,-0.0088 0.474609,-0.016301 1.054688,-0.016679 0.962355,-6.249e-4 1.06563,-0.00578 1.179687,-0.058898 0.174513,-0.08127 0.411975,-0.3367566 0.483665,-0.5203769 0.06018,-0.1541397 0.06029,-0.1487759 0.06175,3.0252734 8.04e-4,1.748829 -0.0045,3.179688 -0.01168,3.179688 -0.0072,0 -0.02239,-0.04211 -0.0337,-0.09359 z m 0,-7.0000002 C 15.930201,7.4268928 13.788822,3.0878583 13.74704,3.0612008 13.73245,3.0518908 13.433375,2.4612675 13.082426,1.7487008 12.495972,0.55796109 12.43065,0.43979309 12.275171,0.28836795 12.17639,0.19216295 12.041692,0.0985031 11.951439,0.06326715 L 11.796875,0.0029234 13.898438,0.0014617 16,0 v 3.8125 c 0,2.096875 -0.0059,3.8125 -0.01314,3.8125 -0.0072,0 -0.02239,-0.042114 -0.0337,-0.093587 z M 0.00209049,3.8046875 0,0 2.0859375,0.0014617 4.171875,0.0029234 4.0174616,0.06320995 C 3.9325188,0.09637364 3.7938816,0.19061662 3.70931,0.27268575 3.5732106,0.40475797 3.4823666,0.57052112 2.9175288,1.7174508 2.5666053,2.4300175 2.267448,3.0206425 2.2527349,3.0299508 2.2154959,3.0535102 0.09600739,7.3305612 0.04534935,7.484375 0.01080999,7.5892472 0.00384437,6.9967375 0.00209049,3.8046875 Z M 7.3889587,4.3225762 C 7.0633125,3.6578053 6.7782159,3.0952289 6.7554103,3.0724059 6.7326047,3.049583 6.4282837,2.4509081 6.0791422,1.7420173 5.4959106,0.5578355 5.4305956,0.43974003 5.2751709,0.28836795 5.1763903,0.19216295 5.0416922,0.0985031 4.9514391,0.06326715 4.7971387,0.00302634 4.8023122,0.0029234 7.984375,0.0029234 c 3.181017,0 3.187186,1.2261e-4 3.033087,0.06028655 -0.08494,0.03316369 -0.22358,0.12740667 -0.308152,0.2094758 C 10.573211,0.40475797 10.482367,0.57052112 9.9175287,1.7174508 9.5666053,2.4300175 9.2662091,3.0212322 9.2499819,3.0312612 9.2337547,3.0412902 8.9463016,3.6078903 8.6111972,4.2903728 8.2760928,4.9728553 7.99722,5.53125 7.9914794,5.53125 c -0.00574,0 -0.2768747,-0.5439031 -0.6025207,-1.2086738 z"
       id="path837"
       inkscape:connector-curvature="0" />
    <path
       style="fill:#fefefe;stroke-width:0.03125"
       d="M 11.035193,13.951165 C 10.908456,13.907998 10.746738,13.832027 10.675818,13.782341 10.524069,13.676027 3.3207241,6.4670925 3.2246375,6.3253794 3.1027184,6.1455672 3,5.7752966 3,5.515625 3,5.2553372 3.1030402,4.8846453 3.2250853,4.7058706 3.6339078,4.1070162 4.3340466,3.8588231 4.9917447,4.079605 c 0.1304265,0.043783 0.2805622,0.1090475 0.3336347,0.1450325 0.1418581,0.096185 7.3507056,7.2995145 7.4571236,7.4514155 0.04977,0.07105 0.126105,0.235247 0.169623,0.364885 0.188316,0.560985 0.03679,1.164345 -0.394632,1.571395 -0.201337,0.189962 -0.303661,0.251332 -0.565749,0.339312 -0.321641,0.107971 -0.638614,0.107812 -0.956552,-4.78e-4 z m 0.827739,-0.483257 c 0.143971,-0.04862 0.228686,-0.104911 0.364477,-0.242188 0.290574,-0.293753 0.374971,-0.664321 0.240679,-1.056765 C 12.406281,11.988336 12.325985,11.905419 8.7263234,8.3050609 5.1064009,4.6844381 5.0447512,4.6247441 4.8615428,4.5628734 4.4643809,4.42875 4.0920487,4.51417 3.8038412,4.80553 3.5133172,5.0992322 3.4294928,5.4665813 3.5628734,5.8615428 c 0.06187,0.1832056 0.1216207,0.2449169 3.7421875,3.8649419 3.4827671,3.4822453 3.6884961,3.6820073 3.8511891,3.7394813 0.225942,0.07982 0.47406,0.0805 0.706682,0.0019 z"
       id="path835"
       inkscape:connector-curvature="0" />
    <path
       style="fill:#cbfefe;stroke-width:0.03125"
       d="M 0.64464638,8.31158 C 0.60083369,8.2595116 0.55568287,8.1673153 0.54431125,8.1066994 0.49097178,7.8223756 0.51504031,7.7624153 1.3936589,5.9907719 1.8556926,5.0591284 2.2439305,4.2893128 2.2564097,4.2800703 2.2688889,4.2708278 2.6729017,3.4686063 3.1542159,2.4973558 3.63553,1.5261053 4.0614047,0.70140103 4.1006038,0.66467956 4.1799656,0.59033406 4.31621,0.53125 4.4082844,0.53125 c 0.054525,0 0.060466,0.0235181 0.060466,0.23939228 V 1.0100346 L 3.6077344,2.7472048 C 3.1341756,3.7026484 2.72382,4.5194022 2.6958329,4.5622131 2.6071752,4.69783 1.03125,7.8819653 1.03125,7.9254803 c 0,0.049107 -0.2561755,0.4784791 -0.28628456,0.4798375 -0.0113628,5.125e-4 -0.0565063,-0.041669 -0.10031906,-0.093738 z"
       id="path833"
       inkscape:connector-curvature="0" />
    <path
       style="fill:#fefe7f;stroke-width:0.03125"
       d="M 7.6446462,15.31158 C 7.6008342,15.25951 7.5556832,15.167315 7.5443112,15.106699 7.4917992,14.826787 7.5243862,14.74165 8.2162284,13.351216 l 0.6624254,-1.331312 0.1924968,0.192497 0.1924966,0.192496 -0.6168375,1.242864 c -0.3392606,0.683575 -0.61655,1.260069 -0.6161988,1.281098 7.719e-4,0.0462 -0.2563828,0.475139 -0.2856456,0.476459 -0.011362,5.12e-4 -0.056506,-0.04167 -0.1003191,-0.09374 z m 2.8667788,-5.9390722 -0.1917,-0.1927825 0.342125,-0.70705 C 10.850018,8.0837975 11.034721,7.7321719 11.0723,7.691285 11.14868,7.608187 11.308738,7.53125 11.405246,7.53125 c 0.05857,0 0.06333,0.018802 0.0612,0.2421875 l -0.0023,0.2421875 -0.380512,0.7748328 -0.380511,0.7748325 -0.1917,-0.1927825 z M 8.1671863,7.0274175 7.9749975,6.8349975 8.59634,5.5815612 C 8.9380784,4.8921713 9.2334784,4.3095419 9.2527847,4.2868291 9.2720906,4.2641166 9.6797122,3.4548638 10.15861,2.4884896 10.637507,1.5221155 11.061405,0.70140103 11.100604,0.66467956 11.179966,0.59033406 11.31621,0.53125 11.408284,0.53125 c 0.05453,0 0.06047,0.0235215 0.06047,0.23969506 V 1.0106402 L 10.578508,2.7943826 C 10.088876,3.7754409 9.3892663,5.1725103 9.0238209,5.8989812 L 8.359375,7.2198375 Z"
       id="path831"
       inkscape:connector-curvature="0" />
    <path
       style="fill:#95c7fe;stroke-width:0.03125"
       d="m 1.03125,7.9419337 c 0,-0.054681 1.5553748,-3.2126687 1.6645829,-3.3797206 C 2.72382,4.5194022 3.1341756,3.7026484 3.6077344,2.7472048 L 4.46875,1.0100346 V 0.77064228 C 4.46875,0.53783063 4.47084,0.53125 4.544841,0.53125 c 0.1137131,0 0.2414431,0.0563715 0.3393241,0.14975519 0.053449,0.0509935 0.4246981,0.76414021 0.957619,1.83952861 0.4786813,0.9659371 0.8860716,1.7748328 0.9053116,1.7975453 0.01924,0.022713 0.2369306,0.44982 0.4837566,0.9491268 L 7.6796262,6.1750372 7.6179778,6.2952019 7.5563297,6.4153669 6.4891022,5.3527659 C 5.9021272,4.7683353 5.3784519,4.2607 5.3253794,4.2246875 5.1456837,4.1027544 4.7753653,4 4.515625,4 4.2553372,4 3.8846453,4.1030403 3.7058706,4.2250853 3.1070163,4.6339078 2.8588231,5.3340466 3.0796051,5.9917447 c 0.043783,0.1304265 0.1090808,0.2805622 0.1451068,0.3336347 0.036026,0.053072 0.4184597,0.4515737 0.8498525,0.8855581 L 4.8589153,8 H 2.9450827 C 1.1007953,8 1.03125,7.99789 1.03125,7.9419337 Z"
       id="path829"
       inkscape:connector-curvature="0" />
    <path
       style="fill:#82fe7f;stroke-width:0.03125"
       d="M 11.359375,12.994167 C 11.29896,12.973449 9.9859528,11.68356 7.6666847,9.3664944 4.472065,6.1749075 4.0635675,5.7560516 4.0305628,5.6381703 3.9304669,5.2806634 4.2917919,4.9257478 4.6473875,5.0322869 c 0.1069728,0.03205 0.6643438,0.5767106 3.7203572,3.6355178 2.9262943,2.9289703 3.6015603,3.6201053 3.6323293,3.7176923 0.07527,0.238741 -0.08441,0.524813 -0.340675,0.610312 -0.125247,0.04179 -0.17416,0.04152 -0.300024,-0.0016 z"
       id="path827"
       inkscape:connector-curvature="0" />
    <path
       style="fill:#fea900;stroke-width:0.03125"
       d="m 15.122573,15.204257 -0.138198,-0.202769 -3.476562,-7.44e-4 c -3.2896489,-7.03e-4 -3.4765974,-0.0037 -3.4772021,-0.05543 -3.5e-4,-0.03008 0.276946,-0.613992 0.616216,-1.297586 l 0.6168547,-1.242899 0.6728465,0.66809 c 0.3700659,0.367449 0.7162699,0.697571 0.7693429,0.733605 0.05307,0.03604 0.203208,0.101339 0.333634,0.145122 0.562501,0.188825 1.165319,0.03776 1.572828,-0.394151 0.189962,-0.201337 0.251332,-0.303661 0.339312,-0.565749 0.108444,-0.32305 0.108444,-0.62919 0,-0.95224 -0.04378,-0.130426 -0.109071,-0.280562 -0.145086,-0.333634 -0.03601,-0.05307 -0.523174,-0.556277 -1.082578,-1.118232 l -1.017098,-1.0217349 0.3818,-0.7907647 c 0.381503,-0.7901475 0.3818,-0.7909413 0.380934,-1.0173269 -8.41e-4,-0.2194553 0.0015,-0.2265625 0.07522,-0.2265625 0.113713,0 0.241443,0.056372 0.339324,0.1497553 0.05347,0.051012 0.426208,0.7671875 0.962012,1.8483947 0.481098,0.970814 0.884787,1.772678 0.897086,1.78192 0.0123,0.0092 0.400879,0.779526 0.86351,1.71174 0.71853,1.447859 0.843187,1.719535 0.855141,1.863686 0.01646,0.198498 -0.02934,0.35888 -0.129311,0.452797 l -0.07183,0.06748 z m 0,-6.9999998 L 14.984375,8.0014875 13.851911,8.0007438 12.719447,8 12.591132,7.7421875 C 12.426656,7.4117203 12.176834,7.1488841 11.944629,7.062005 11.712107,6.9750075 11.255031,6.9756106 11.020864,7.0632237 10.789749,7.149695 10.553932,7.4043722 10.392181,7.7421875 L 10.268736,8 H 9.7042116 9.1396872 L 8.75013,7.6095053 8.3605728,7.2190106 9.0000159,5.9298178 C 9.3517097,5.2207619 9.6567591,4.6190212 9.6779034,4.5926166 9.6990481,4.5662119 10.110638,3.7493978 10.592549,2.7774747 L 11.46875,1.0103416 V 0.77079578 c 0,-0.23297428 0.0021,-0.23954578 0.07609,-0.23954578 0.113713,0 0.241443,0.0563715 0.339324,0.14975519 0.05347,0.0510119 0.426208,0.76718761 0.962013,1.84839481 0.481097,0.9708138 0.884786,1.7726778 0.897085,1.7819203 0.0123,0.00924 0.400879,0.7795256 0.86351,1.71174 0.71853,1.4478591 0.843187,1.7195347 0.855141,1.8636856 0.01646,0.1984982 -0.02934,0.3588803 -0.129311,0.4527972 l -0.07183,0.067483 z"
       id="path825"
       inkscape:connector-curvature="0" />
    <path
       style="fill:#007ffe;stroke-width:0.03125"
       d="M 0.546875,8.9412756 C 0.478125,8.9097322 0.35021972,8.8077116 0.26264106,8.7145631 0.03957176,8.4773072 -0.00978545,8.3145172 0.00453847,7.8632891 L 0.01567206,7.5125616 1.1207439,5.2797184 C 1.7285334,4.0516544 2.2379233,3.0392396 2.2527213,3.0299073 2.2675193,3.0205751 2.5622393,2.4369814 2.9076547,1.7330323 3.4613616,0.60458941 3.5547606,0.43365756 3.6968972,0.28862103 3.9148169,0.06625503 4.0955881,0 4.484375,0 4.8810228,0 5.0522475,0.06486429 5.2873622,0.30419248 5.4497172,0.46945713 5.5163666,0.59034247 6.0923728,1.7642823 6.4377731,2.4682314 6.7336263,3.0523805 6.7498247,3.0623916 6.7660228,3.0724027 7.0519675,3.6355069 7.3852575,4.3137344 L 7.9912391,5.546875 7.8348856,5.859375 7.6785322,6.171875 7.2303166,5.265625 C 6.9837981,4.7671875 6.7663538,4.3407919 6.7471072,4.3180791 6.7278606,4.2953666 6.320465,3.4864709 5.8417837,2.5205337 5.3088628,1.4451454 4.9376141,0.73199869 4.8841647,0.68100519 4.677085,0.48344012 4.3024053,0.47563359 4.1006038,0.66467956 4.0614047,0.70140103 3.63553,1.5261053 3.1542159,2.4973558 2.6729017,3.4686063 2.2688889,4.2708278 2.2564097,4.2800703 2.2439305,4.2893128 1.8550265,5.0604694 1.3921786,5.9937512 0.63530131,7.5199109 0.54930791,7.7090006 0.53742703,7.8732522 c -0.0156181,0.2159184 0.0290149,0.3714484 0.13523166,0.471234 0.0424022,0.039835 0.0819096,0.066512 0.0877942,0.059283 0.005885,-0.00723 0.0641889,-0.1010347 0.12956497,-0.2084566 L 1.0088835,8 H 2.9344956 4.8601075 L 5.359375,8.5 5.8586425,9 3.2652588,8.9993125 C 0.81654706,8.9986656 0.66490187,8.9954281 0.546875,8.9412756 Z"
       id="path823"
       inkscape:connector-curvature="0" />
    <path
       style="fill:#407f3f;stroke-width:0.03125"
       d="M 11.15625,13.465966 C 10.993557,13.408492 10.787828,13.20873 7.3050609,9.7264847 3.6844941,6.1064597 3.6247431,6.0447484 3.5628734,5.8615428 3.4294928,5.4665813 3.5133172,5.0992322 3.8038413,4.80553 4.0920488,4.51417 4.4643809,4.42875 4.8615428,4.5628734 c 0.1832085,0.061871 0.2448581,0.1215647 3.8647806,3.7421875 3.5996616,3.6003581 3.6799576,3.6832751 3.7417646,3.8638941 0.134292,0.392444 0.04989,0.763012 -0.240679,1.056765 -0.135792,0.137277 -0.220506,0.193568 -0.364477,0.242188 -0.232622,0.07856 -0.48074,0.07788 -0.706682,-0.0019 z m 0.503149,-0.470157 c 0.256265,-0.0855 0.415949,-0.371571 0.340675,-0.610312 C 11.969305,12.28791 11.294039,11.596775 8.3677447,8.6678047 5.3117312,5.6089975 4.7543603,5.0643366 4.6473875,5.0322869 4.2917919,4.9257478 3.9304669,5.2806634 4.0305628,5.6381703 4.0635675,5.7560516 4.472065,6.1749075 7.6666847,9.3664944 9.9859528,11.68356 11.29896,12.973449 11.359375,12.994167 c 0.125864,0.04316 0.174777,0.04343 0.300024,0.0016 z"
       id="path821"
       inkscape:connector-curvature="0" />
    <path
       style="fill:#7f5400;stroke-width:0.03125"
       d="M 7.546875,15.941276 C 7.478125,15.909732 7.3502197,15.807712 7.2626409,15.714563 7.0388941,15.476587 6.9901997,15.314989 7.0046897,14.858529 l 0.011285,-0.355488 0.7179812,-1.43902 C 8.1288456,12.272559 8.4596419,11.625 8.4690588,11.625 c 0.00942,0 0.1053471,0.08902 0.2131778,0.197814 l 0.1960562,0.197815 -0.6637544,1.333984 c -0.5936781,1.193147 -0.6651572,1.353372 -0.6770381,1.517624 -0.015687,0.216879 0.028804,0.372335 0.1351584,0.472249 0.042402,0.03984 0.081909,0.06651 0.087794,0.05928 0.00588,-0.0072 0.064189,-0.101035 0.129565,-0.208456 L 8.0088834,15 l 3.4877456,7.44e-4 3.487746,7.44e-4 0.138198,0.202769 0.138197,0.20277 0.07183,-0.06748 c 0.09997,-0.09392 0.145773,-0.254299 0.129311,-0.452797 -0.01195,-0.144151 -0.136611,-0.415827 -0.855141,-1.863686 -0.462631,-0.932214 -0.851211,-1.702497 -0.86351,-1.71174 -0.0123,-0.0092 -0.415988,-0.811106 -0.897085,-1.78192 C 12.310373,8.4481928 11.937633,7.7320172 11.884165,7.6810053 11.772964,7.5749138 11.656398,7.53125 11.484375,7.53125 c -0.169584,0 -0.288426,0.043515 -0.394098,0.1443025 -0.04488,0.042804 -0.233682,0.3934722 -0.419562,0.7792619 C 10.484836,8.8406041 10.324538,9.15625 10.314497,9.15625 10.304457,9.15625 10.03637,8.8960938 9.71875,8.578125 L 9.1412584,8 h 0.5637388 0.5637388 l 0.123445,-0.2578125 c 0.161751,-0.3378153 0.397568,-0.5924925 0.628683,-0.6789638 0.234167,-0.087613 0.691243,-0.088216 0.923765,-0.00122 0.232205,0.086879 0.482027,0.3497153 0.646503,0.6801825 L 12.719447,8 l 1.132464,7.438e-4 1.132464,7.437e-4 0.138197,0.2027697 0.138198,0.2027694 0.07183,-0.067483 C 15.43257,8.2456266 15.478373,8.0852446 15.461911,7.8867464 15.44996,7.742595 15.325303,7.4709194 14.606773,6.0230603 14.144142,5.0908459 13.755562,4.3205628 13.743263,4.3113203 13.730964,4.3020778 13.327275,3.5002138 12.846178,2.5294 12.310373,1.4481928 11.937633,0.73201709 11.884165,0.68100519 11.677085,0.48344013 11.302405,0.47563359 11.100604,0.66467956 11.061405,0.70140103 10.637507,1.5221155 10.15861,2.4884896 9.6797122,3.4548638 9.2720772,4.2641166 9.2527544,4.2868291 9.2334316,4.3095419 8.9423975,4.8835938 8.6060125,5.5625 8.2696272,6.2414063 7.9881103,6.8032553 7.9804191,6.8110531 7.9727281,6.8188513 7.8751141,6.7339103 7.7634994,6.6222956 L 7.5605634,6.4193597 8.3920928,4.7334559 C 8.8494337,3.8062091 9.2362231,3.0397646 9.2516244,3.0302461 9.2670256,3.0207276 9.5622394,2.4369814 9.9076547,1.7330323 10.461362,0.60458941 10.554761,0.43365756 10.696897,0.28862103 10.914817,0.06625503 11.095588,0 11.484375,0 c 0.396648,0 0.567873,0.06486429 0.802987,0.30419248 0.162355,0.16526465 0.229005,0.28614999 0.805011,1.46008982 0.3454,0.7039491 0.639994,1.2875428 0.654652,1.296875 0.04183,0.026628 2.159346,4.3126939 2.208438,4.4700927 0.02414,0.077407 0.04401,0.270045 0.0442,0.4285153 C 16.00011,8.3407863 15.932773,8.5233534 15.71138,8.74141 15.44537,9.0034059 15.464398,9 14.266629,9 13.690295,9 13.21875,9.0072 13.21875,9.015992 c 0,0.030706 0.50782,1.031015 0.531274,1.046508 0.04022,0.02657 2.158884,4.319486 2.205439,4.46875 0.067,0.214823 0.05774,0.681111 -0.01752,0.882272 -0.0722,0.192968 -0.326957,0.463267 -0.507251,0.538194 -0.102655,0.04266 -0.56114,0.0482 -3.9375,0.0476 -3.6399135,-6.53e-4 -3.8272498,-0.0034 -3.946316,-0.05804 z"
       id="path819"
       inkscape:connector-curvature="0" />
  </g>
</svg>
