<?xml version="1.0" encoding="UTF-8" standalone="no"?>
<!-- Created with Inkscape (http://www.inkscape.org/) -->

<svg
   xmlns:dc="http://purl.org/dc/elements/1.1/"
   xmlns:cc="http://creativecommons.org/ns#"
   xmlns:rdf="http://www.w3.org/1999/02/22-rdf-syntax-ns#"
   xmlns:svg="http://www.w3.org/2000/svg"
   xmlns="http://www.w3.org/2000/svg"
   xmlns:sodipodi="http://sodipodi.sourceforge.net/DTD/sodipodi-0.dtd"
   xmlns:inkscape="http://www.inkscape.org/namespaces/inkscape"
   version="1.1"
   id="svg2"
   width="16"
   height="16"
   viewBox="0 0 16 16"
   sodipodi:docname="KEYFRAMES_CLEAR.svg"
   inkscape:version="0.92.4 (5da689c313, 2019-01-14)">
  <metadata
     id="metadata8">
    <rdf:RDF>
      <cc:Work
         rdf:about="">
        <dc:format>image/svg+xml</dc:format>
        <dc:type
           rdf:resource="http://purl.org/dc/dcmitype/StillImage" />
        <dc:title></dc:title>
      </cc:Work>
    </rdf:RDF>
  </metadata>
  <defs
     id="defs6" />
  <sodipodi:namedview
     pagecolor="#ffffff"
     bordercolor="#666666"
     borderopacity="1"
     objecttolerance="10"
     gridtolerance="10"
     guidetolerance="10"
     inkscape:pageopacity="0"
     inkscape:pageshadow="2"
     inkscape:window-width="1121"
     inkscape:window-height="723"
     id="namedview4"
     showgrid="false"
     inkscape:zoom="14.75"
     inkscape:cx="8"
     inkscape:cy="8"
     inkscape:window-x="0"
     inkscape:window-y="0"
     inkscape:window-maximized="0"
     inkscape:current-layer="svg2" />
  <g
     id="KEYFRAMES_CLEAR">
    <path
       style="fill:#ffffff;stroke-width:0.03125"
       d="M 0,12.007935 V 8.0158691 L 1.4923083,9.5079347 C 2.3130779,10.328571 2.9987713,11 3.0160714,11 c 0.0173,0 0.2844333,-0.253362 0.5936292,-0.563027 L 4.171875,9.8739459 4.187665,10.257285 c 0.015274,0.370806 0.020037,0.39219 0.1456775,0.654027 0.1191769,0.248365 0.1770009,0.319229 0.7012422,0.859375 1.0145756,1.045356 2.6206106,2.656031 3.2676969,3.277137 0.6504306,0.624317 0.7679787,0.709583 1.1664684,0.846116 0.2290025,0.07846 0.773009,0.07816 1.0625,-5.97e-4 0.378302,-0.102915 0.507165,-0.186785 0.97716,-0.635977 0.751129,-0.717883 2.584767,-2.546427 3.314773,-3.305563 0.918895,-0.955563 0.988243,-1.083869 0.988946,-1.829722 4.91e-4,-0.5193554 -0.09271,-0.8019819 -0.391466,-1.1871379 L 15.285359,8.76051 15.642679,8.4042028 16,8.0478944 V 12.023947 16 H 8 0 Z M 0,2.0076917 V 0 h 8 8 V 1.9920654 3.9841309 L 14.507725,2.4920985 13.01545,1.0000662 11.906162,2.1087706 10.796875,3.217475 10.662747,3.1709381 c -0.07377,-0.025595 -0.235489,-0.06077 -0.359375,-0.078166 L 10.078125,3.0611423 9.0469759,2.0306132 8.0158266,1.0000842 6.7655813,2.2500439 5.5153356,3.5000034 4.2656134,2.2499883 3.0158911,0.99997309 1.5079455,2.5076782 0,4.0153834 Z"
       id="path829"
       inkscape:connector-curvature="0" />
    <path
       style="fill:#e5d200;stroke-width:0.03125"
       d="M 0,5.3670653 V 4.7341309 L 1.5,3.234375 3,1.7346192 V 3.8673097 6 H 1.5 0 Z M 5.859375,3.875 C 7.0280303,2.70625 7.9877572,1.75 7.9921012,1.75 7.9964456,1.75 8,2.70625 8,3.875 V 6 H 5.8672737 3.7345472 Z m 6.109375,1.4580172 c 0,-0.5795916 -0.008,-0.6901588 -0.06086,-0.8438647 C 11.807148,4.1963312 11.635673,3.9015828 11.439816,3.6845753 L 11.2546,3.4793584 12.1273,2.6070761 13,1.7347936 V 3.8673969 6 H 12.484375 11.96875 Z"
       id="path827"
       inkscape:connector-curvature="0" />
    <path
       style="fill:#fea900;stroke-width:0.03125"
       d="M 1.4921875,8.7890684 0,7.2966334 V 6.6483166 6 H 1.5 3 V 3.8517325 1.7034647 L 4.0781275,2.7812524 5.1562547,3.85904 4.0783284,4.9373325 3.0004024,6.015625 2.9923887,8.1485641 2.984375,10.281503 Z M 11.96875,7.625 V 6 H 12.484375 13 V 3.8516847 1.7033692 L 14.5,3.203125 16,4.7028809 V 5.3514403 6 H 14.5 13 V 7.1987006 8.3974013 L 12.820934,8.5162947 C 12.722447,8.5816859 12.499685,8.7735206 12.325907,8.9425941 12.152129,9.1116672 12.000677,9.25 11.989348,9.25 c -0.01133,0 -0.0206,-0.73125 -0.0206,-1.625 z M 7.6382003,8.8791578 C 7.0920563,8.35493 6.7323925,8.1827475 6.1685619,8.1755953 L 5.8752769,8.171875 4.7893684,7.0859375 3.7034597,6 H 5.85173 8 V 3.8518172 1.7036346 L 8.7164006,2.4195272 9.4328013,3.13542 9.1530797,3.2721597 C 8.6734681,3.5066147 8.3160759,3.9290034 8.1233563,4.4891525 8.0707256,4.6421266 8.0625,4.7532287 8.0625,5.3111422 c 0,0.3844144 -0.012512,0.65762 -0.030963,0.6760706 -0.019426,0.019426 -0.033981,0.6258853 -0.039063,1.6275953 l -0.0081,1.5966328 z"
       id="path825"
       inkscape:connector-curvature="0" />
    <path
       style="fill:#fb7e00;stroke-width:0.03125"
       d="M 9.6397641,14.863728 C 9.51496,14.805611 9.1525231,14.463492 7.8771975,13.199971 6.1594503,11.498122 5.4241591,10.735937 5.2784331,10.506151 5.1984569,10.380041 5.1875,10.333979 5.1875,10.123873 5.1875,9.9199566 5.201491,9.856985 5.283063,9.6937434 5.446959,9.3657588 5.6862599,9.2157519 6.0801008,9.1941169 c 0.4112519,-0.022591 0.3567866,-0.064469 1.910561,1.4689981 0.5534578,0.546224 1.0193003,0.993135 1.035205,0.993135 0.017464,0 0.034385,-1.358398 0.042722,-3.4296875 L 9.0823934,4.796875 9.1644656,4.6372675 C 9.2807066,4.4112116 9.3767434,4.3074778 9.5677275,4.2016859 9.717685,4.11862 9.7625428,4.109375 10.015625,4.109375 c 0.253082,0 0.29794,0.00924 0.447898,0.092311 0.191179,0.1059003 0.287327,0.2098428 0.402915,0.4355816 l 0.08173,0.1596075 0.01435,3.4296875 c 0.0089,2.1155094 0.02563,3.4296874 0.0438,3.4296874 0.0162,0 0.474917,-0.439941 1.019378,-0.977647 1.533027,-1.5140048 1.483244,-1.4758113 1.894205,-1.453236 0.393841,0.021635 0.633142,0.1716419 0.797038,0.4996265 0.08157,0.1632416 0.09556,0.2262132 0.09556,0.4301295 0,0.307154 -0.04324,0.377081 -0.601887,0.973388 -0.566752,0.604955 -3.43386,3.45018 -3.641757,3.61396 -0.09104,0.07172 -0.217599,0.14486 -0.28125,0.162538 -0.203445,0.0565 -0.4750151,0.0392 -0.6478419,-0.04128 z"
       id="path823"
       inkscape:connector-curvature="0" />
    <path
       style="fill:#996800;stroke-width:0.03125"
       d="M 1.4920654,9.5076916 0,8.0153834 V 7.6562513 7.2971191 L 1.5,8.796875 3,10.296631 V 8.1559581 6.0152853 L 4.0781263,4.9374987 5.1562525,3.8597122 4.0860834,2.789206 3.0159144,1.7186997 1.5079572,3.2264166 0,4.7341334 V 4.3747584 4.0153834 L 1.5079455,2.5076782 3.0158911,0.99997309 4.2656134,2.2499883 5.5153356,3.5000034 6.7656406,2.2499845 8.0159456,0.99996534 9.04328,2.0276536 10.070614,3.0553419 9.8424941,3.0782511 c -0.125466,0.0126 -0.2660357,0.033783 -0.3123772,0.047074 -0.078609,0.022545 -0.1321835,-0.023796 -0.799205,-0.6912905 L 8.0159641,1.7185795 5.8673972,3.8669772 3.71883,6.015375 4.7973528,7.0942278 5.8758753,8.1730806 5.6670556,8.2126934 C 5.1971419,8.3018353 4.6427903,8.7153475 4.4126513,9.1484022 4.2898275,9.3795213 4.1875,9.6659566 4.1875,9.7786466 4.1875,9.842515 4.0648106,9.9825634 3.6168791,10.430004 3.3030375,10.743502 3.0322793,11 3.0151944,11 2.9981094,11 2.3127014,10.328461 1.4920654,9.5076916 Z M 8,7.6268444 C 8,6.5784494 8.0110656,5.9968497 8.03125,5.984375 8.0519319,5.9715928 8.0625,6.5205087 8.0625,7.6075306 8.0625,8.6816769 8.0516869,9.25 8.03125,9.25 8.0108178,9.25 8,8.6881147 8,7.6268444 Z m 7.109375,0.9936262 C 14.587976,8.1956791 13.80221,8.0749581 13.183997,8.324665 L 13,8.398985 V 7.1994925 6 h 1.5 1.5 v 1.0239472 1.0239472 l -0.352052,0.3510528 c -0.193628,0.1930791 -0.358862,0.3505509 -0.367187,0.3499375 -0.0083,-6.125e-4 -0.08545,-0.0584 -0.171386,-0.1284141 z M 14.500161,3.2033913 13.015947,1.7188253 12.125161,2.6047923 11.234375,3.4907594 11.0625,3.3713331 c -0.09453,-0.065685 -0.189453,-0.1198556 -0.210937,-0.1203797 -0.02149,-5.25e-4 -0.03906,-0.011575 -0.03906,-0.024556 0,-0.012982 0.495767,-0.5192223 1.101705,-1.1249797 l 1.101705,-1.1013771 1.49313,1.4933734 1.493131,1.4933734 -0.0089,0.3505847 -0.0089,0.3505847 z"
       id="path821"
       inkscape:connector-curvature="0" />
    <path
       style="fill:#000000;stroke-width:0.03125"
       d="M 9.6875,15.949289 C 9.5329809,15.919213 9.2935222,15.833374 9.1147816,15.743986 8.8977337,15.635441 8.1978431,14.97313 6.6389072,13.401051 4.5858659,11.330702 4.4794853,11.215832 4.3331775,10.911312 L 4.203125,10.640625 4.1924666,10.180695 C 4.1838737,9.8098969 4.1921853,9.6887744 4.2353769,9.5556947 4.400295,9.0475075 4.7582841,8.6153694 5.2047294,8.3855638 5.5283291,8.2189922 5.7250359,8.1739259 6.125,8.1747253 6.7296462,8.1759347 7.0769044,8.3398741 7.6579694,8.8984375 7.8591181,9.0917969 8.0324256,9.25 8.0430972,9.25 8.0537688,9.25 8.0625,8.2186078 8.0625,6.9580172 8.0625,4.7680556 8.06521,4.6581609 8.123356,4.4891525 8.3561125,3.8126347 8.8462475,3.3259866 9.484375,3.1378159 9.7146766,3.0699048 10.252128,3.0617283 10.5,3.1223648 c 0.645834,0.1579886 1.166605,0.6654696 1.410573,1.3745749 0.05467,0.1589022 0.05818,0.3072497 0.05818,2.4610775 0,1.2605906 0.0087,2.2919828 0.0193,2.2919828 0.01061,0 0.176985,-0.1511719 0.369713,-0.3359375 0.572131,-0.5484944 0.918488,-0.7083731 1.532864,-0.7075716 0.237239,3.125e-4 0.401847,0.017671 0.53125,0.056032 0.625188,0.1853331 1.112479,0.6575672 1.329536,1.2884541 0.0481,0.1397937 0.06101,0.2612593 0.06072,0.571103 -7.03e-4,0.745853 -0.07005,0.874158 -0.988946,1.829722 -0.730006,0.759136 -2.563644,2.58768 -3.314773,3.305562 -0.466261,0.445624 -0.601462,0.534325 -0.961535,0.630826 -0.191018,0.05119 -0.7178341,0.08865 -0.859375,0.0611 z m 0.600106,-1.04428 c 0.06365,-0.01768 0.190214,-0.09082 0.28125,-0.162538 0.207896,-0.16378 3.075005,-3.009005 3.641757,-3.61396 0.558648,-0.596307 0.601887,-0.666234 0.601887,-0.973388 0,-0.2039164 -0.01399,-0.266888 -0.09556,-0.4301296 -0.163896,-0.3279846 -0.403197,-0.4779915 -0.797038,-0.4996265 -0.410961,-0.022575 -0.361178,-0.060769 -1.894205,1.4532361 -0.544461,0.537706 -1.003182,0.977647 -1.019378,0.977647 -0.01816,0 -0.03495,-1.314178 -0.0438,-3.4296875 L 10.948164,4.796875 10.866438,4.6372675 C 10.75085,4.4115288 10.654702,4.3075862 10.463522,4.2016859 10.313565,4.11862 10.268707,4.109375 10.015625,4.109375 c -0.2530822,0 -0.29794,0.00924 -0.4478975,0.092311 C 9.3767434,4.3074778 9.2807066,4.4112116 9.1644656,4.6372675 L 9.0823934,4.796875 9.0685894,8.2265625 c -0.00834,2.0712895 -0.025258,3.4296875 -0.042722,3.4296875 -0.015905,0 -0.4817472,-0.446911 -1.035205,-0.993135 C 6.4368878,9.1296481 6.4913531,9.1715256 6.0801012,9.1941169 5.6862603,9.2157519 5.4469594,9.3657588 5.2830634,9.6937434 5.2014906,9.856985 5.1875,9.9199566 5.1875,10.123873 c 0,0.210106 0.010957,0.256168 0.090933,0.382278 0.145726,0.229786 0.8810172,0.991972 2.5987644,2.69382 1.7607597,1.744462 1.7514659,1.736801 2.1071775,1.737049 0.1031251,6.3e-5 0.2395791,-0.01433 0.3032311,-0.03201 z"
       id="path819"
       inkscape:connector-curvature="0" />
  </g>
</svg>
