<?xml version="1.0" encoding="UTF-8" standalone="no"?>
<!-- Created with Inkscape (http://www.inkscape.org/) -->

<svg
   xmlns:dc="http://purl.org/dc/elements/1.1/"
   xmlns:cc="http://creativecommons.org/ns#"
   xmlns:rdf="http://www.w3.org/1999/02/22-rdf-syntax-ns#"
   xmlns:svg="http://www.w3.org/2000/svg"
   xmlns="http://www.w3.org/2000/svg"
   xmlns:sodipodi="http://sodipodi.sourceforge.net/DTD/sodipodi-0.dtd"
   xmlns:inkscape="http://www.inkscape.org/namespaces/inkscape"
   version="1.1"
   id="svg2"
   width="16"
   height="16"
   viewBox="0 0 16 16"
   sodipodi:docname="PARENT.svg"
   inkscape:version="0.92.4 (5da689c313, 2019-01-14)">
  <metadata
     id="metadata8">
    <rdf:RDF>
      <cc:Work
         rdf:about="">
        <dc:format>image/svg+xml</dc:format>
        <dc:type
           rdf:resource="http://purl.org/dc/dcmitype/StillImage" />
        <dc:title></dc:title>
      </cc:Work>
    </rdf:RDF>
  </metadata>
  <defs
     id="defs6" />
  <sodipodi:namedview
     pagecolor="#ffffff"
     bordercolor="#666666"
     borderopacity="1"
     objecttolerance="10"
     gridtolerance="10"
     guidetolerance="10"
     inkscape:pageopacity="0"
     inkscape:pageshadow="2"
     inkscape:window-width="892"
     inkscape:window-height="604"
     id="namedview4"
     showgrid="false"
     inkscape:zoom="14.75"
     inkscape:cx="8"
     inkscape:cy="8"
     inkscape:window-x="0"
     inkscape:window-y="0"
     inkscape:window-maximized="0"
     inkscape:current-layer="svg2" />
  <g
     id="PARENT">
    <path
       style="fill:#ffffff;stroke-width:0.03125"
       d="M 0.0014617,12.132813 C 0.0029181,8.2796697 0.00314235,8.2661859 0.06320995,8.4200384 0.13489964,8.6036588 0.37236162,8.859145 0.546875,8.9404153 c 0.11873159,0.055293 0.25506244,0.058247 2.7186122,0.058898 l 2.5936122,6.875e-4 1.3020309,1.3017532 1.302031,1.301755 -0.723585,1.449499 -0.723585,1.4495 -0.011293,0.355755 c -0.014499,0.456753 0.034159,0.618284 0.2579428,0.8563 0.087579,0.09315 0.2154841,0.195169 0.2842341,0.226713 0.1220697,0.05601 0.035077,0.05737 -3.7109375,0.05804 L 0,16 Z m 15.4516633,3.807602 c 0.174513,-0.08127 0.411975,-0.336756 0.483665,-0.520377 l 0.06029,-0.154413 0.0015,0.367188 L 16,16 l -0.335937,-6.87e-4 -0.335938,-6.88e-4 z m 0.500036,-1.409002 C 15.930179,14.426779 13.788798,10.087842 13.74697,10.061157 13.732342,10.051825 13.437773,9.4682313 13.092373,8.7642822 12.516367,7.5903425 12.449717,7.4694572 12.287362,7.3041925 12.052248,7.0648644 11.881023,7 11.484375,7 10.853714,7 10.682517,7.1491459 10.216128,8.1048916 L 9.8980769,8.7566581 9.4490384,8.3084206 C 9.0705572,7.9306147 8.9999469,7.8453891 8.9996619,7.7660291 8.9994744,7.7142444 8.9795863,7.6085938 8.9554628,7.53125 8.9064234,7.3740213 6.7888744,3.0878007 6.7470956,3.0612008 6.7324759,3.0518925 6.4333747,2.4612675 6.0824262,1.7487008 5.4959719,0.55796109 5.43065,0.43979309 5.2751709,0.28836795 5.1763903,0.19216295 5.0416922,0.0985031 4.9514391,0.06326715 4.7977972,0.00328348 4.8303,0.00291468 10.398438,0.0014617 L 16,0 v 7.3125 c 0,4.021875 -0.0059,7.3125 -0.01314,7.3125 -0.0072,0 -0.02239,-0.04211 -0.0337,-0.09359 z M 0.00209049,3.8046875 0,0 2.0859375,0.0014617 4.171875,0.0029234 4.0174616,0.06320995 C 3.9325188,0.09637364 3.7938816,0.19061662 3.70931,0.27268575 3.5732106,0.40475797 3.4823666,0.57052112 2.9175288,1.7174508 2.5666053,2.4300175 2.267448,3.0206425 2.2527349,3.0299508 2.2154959,3.0535102 0.09600739,7.3305612 0.04534935,7.484375 0.01080999,7.5892472 0.00384437,6.9967375 0.00209049,3.8046875 Z"
       id="path837"
       inkscape:connector-curvature="0" />
    <path
       style="fill:#fefefe;stroke-width:0.03125"
       d="M 11.035193,13.951165 C 10.908456,13.907998 10.746738,13.832027 10.675818,13.782341 10.524069,13.676027 3.3207241,6.4670925 3.2246375,6.3253794 3.1027184,6.1455672 3,5.7752966 3,5.515625 3,5.2553372 3.1030402,4.8846453 3.2250853,4.7058706 3.6339078,4.1070162 4.3340466,3.8588231 4.9917447,4.079605 c 0.1304265,0.043783 0.2805622,0.1090475 0.3336347,0.1450325 0.1418581,0.096185 7.3507056,7.2995145 7.4571236,7.4514155 0.04977,0.07105 0.126105,0.235247 0.169623,0.364885 0.188316,0.560985 0.03679,1.164345 -0.394632,1.571395 -0.201337,0.189962 -0.303661,0.251332 -0.565749,0.339312 -0.321641,0.107971 -0.638614,0.107812 -0.956552,-4.78e-4 z m 0.827739,-0.483257 c 0.143971,-0.04862 0.228686,-0.104911 0.364477,-0.242188 0.290574,-0.293753 0.374971,-0.664321 0.240679,-1.056765 C 12.406281,11.988336 12.325985,11.905419 8.7263234,8.3050609 5.1064009,4.6844381 5.0447512,4.6247441 4.8615428,4.5628734 4.4643809,4.42875 4.0920487,4.51417 3.8038412,4.80553 3.5133172,5.0992322 3.4294928,5.4665813 3.5628734,5.8615428 c 0.06187,0.1832056 0.1216207,0.2449169 3.7421875,3.8649419 3.4827671,3.4822453 3.6884961,3.6820073 3.8511891,3.7394813 0.225942,0.07982 0.47406,0.0805 0.706682,0.0019 z"
       id="path835"
       inkscape:connector-curvature="0" />
    <path
       style="fill:#cbfefe;stroke-width:0.03125"
       d="M 7.6446462,15.31158 C 7.6008342,15.25951 7.5556832,15.167315 7.5443112,15.106699 7.4917992,14.826787 7.5243862,14.74165 8.2162284,13.351216 l 0.6624254,-1.331312 0.1924968,0.192497 0.1924966,0.192496 -0.6168375,1.242864 c -0.3392606,0.683575 -0.61655,1.260069 -0.6161988,1.281098 7.719e-4,0.0462 -0.2563828,0.475139 -0.2856456,0.476459 -0.011362,5.12e-4 -0.056506,-0.04167 -0.1003191,-0.09374 z m 2.8667788,-5.9390722 -0.1917,-0.1927825 0.342125,-0.70705 C 10.850018,8.0837975 11.034721,7.7321719 11.0723,7.691285 11.14868,7.608187 11.308738,7.53125 11.405246,7.53125 c 0.05857,0 0.06333,0.018802 0.0612,0.2421875 l -0.0023,0.2421875 -0.380512,0.7748328 -0.380511,0.7748325 -0.1917,-0.1927825 z"
       id="path833"
       inkscape:connector-curvature="0" />
    <path
       style="fill:#fefe7f;stroke-width:0.03125"
       d="M 0.64464638,8.31158 C 0.60083369,8.2595116 0.55568287,8.1673153 0.54431125,8.1066994 0.49097178,7.8223756 0.51504031,7.7624153 1.3936589,5.9907719 1.8556926,5.0591284 2.2439305,4.2893128 2.2564097,4.2800703 2.2688889,4.2708278 2.6729017,3.4686063 3.1542159,2.4973558 3.63553,1.5261053 4.0614047,0.70140103 4.1006038,0.66467956 4.1799656,0.59033406 4.31621,0.53125 4.4082844,0.53125 c 0.054525,0 0.060466,0.0235181 0.060466,0.23939228 V 1.0100346 L 3.6077344,2.7472048 C 3.1341756,3.7026484 2.72382,4.5194022 2.6958329,4.5622131 2.6071752,4.69783 1.03125,7.8819653 1.03125,7.9254803 c 0,0.049107 -0.2561755,0.4784791 -0.28628456,0.4798375 -0.0113628,5.125e-4 -0.0565063,-0.041669 -0.10031906,-0.093738 z"
       id="path831"
       inkscape:connector-curvature="0" />
    <path
       style="fill:#95c7fe;stroke-width:0.03125"
       d="m 15.122573,15.204257 -0.138198,-0.202769 -3.476562,-7.44e-4 c -3.2896489,-7.03e-4 -3.4765974,-0.0037 -3.4772021,-0.05543 -3.5e-4,-0.03008 0.276946,-0.613992 0.616216,-1.297586 l 0.6168547,-1.242899 0.6728465,0.66809 c 0.3700659,0.367449 0.7162699,0.697571 0.7693429,0.733605 0.05307,0.03604 0.203208,0.101339 0.333634,0.145122 0.562501,0.188825 1.165319,0.03776 1.572828,-0.394151 0.189962,-0.201337 0.251332,-0.303661 0.339312,-0.565749 0.108444,-0.32305 0.108444,-0.62919 0,-0.95224 -0.04378,-0.130426 -0.109071,-0.280562 -0.145086,-0.333634 -0.03601,-0.05307 -0.523174,-0.556277 -1.082578,-1.118232 l -1.017098,-1.0217349 0.3818,-0.7907647 c 0.381503,-0.7901475 0.3818,-0.7909413 0.380934,-1.0173269 -8.41e-4,-0.2194553 0.0015,-0.2265625 0.07522,-0.2265625 0.113713,0 0.241443,0.056372 0.339324,0.1497553 0.05347,0.051012 0.426208,0.7671875 0.962012,1.8483947 0.481098,0.970814 0.884787,1.772678 0.897086,1.78192 0.0123,0.0092 0.400879,0.779526 0.86351,1.71174 0.71853,1.447859 0.843187,1.719535 0.855141,1.863686 0.01646,0.198498 -0.02934,0.35888 -0.129311,0.452797 l -0.07183,0.06748 z"
       id="path829"
       inkscape:connector-curvature="0" />
    <path
       style="fill:#82fe7f;stroke-width:0.03125"
       d="M 11.359375,12.994167 C 11.29896,12.973449 9.9859528,11.68356 7.6666847,9.3664944 4.472065,6.1749075 4.0635675,5.7560516 4.0305628,5.6381703 3.9304669,5.2806634 4.2917919,4.9257478 4.6473875,5.0322869 c 0.1069728,0.03205 0.6643438,0.5767106 3.7203572,3.6355178 2.9262943,2.9289703 3.6015603,3.6201053 3.6323293,3.7176923 0.07527,0.238741 -0.08441,0.524813 -0.340675,0.610312 -0.125247,0.04179 -0.17416,0.04152 -0.300024,-0.0016 z"
       id="path827"
       inkscape:connector-curvature="0" />
    <path
       style="fill:#fea900;stroke-width:0.03125"
       d="m 1.03125,7.9419337 c 0,-0.054681 1.5553748,-3.2126687 1.6645829,-3.3797206 C 2.72382,4.5194022 3.1341756,3.7026484 3.6077344,2.7472048 L 4.46875,1.0100346 V 0.77064228 C 4.46875,0.53783063 4.47084,0.53125 4.544841,0.53125 c 0.1137131,0 0.2414431,0.0563715 0.3393241,0.14975519 0.053449,0.0509935 0.4246981,0.76414021 0.957619,1.83952861 0.4786813,0.9659371 0.8859357,1.7748328 0.90501,1.7975453 C 6.7658681,4.3407919 7.0636009,4.9289063 7.4084225,5.625 L 8.0353706,6.890625 6.7286228,5.5903825 C 6.0099116,4.8752487 5.3784519,4.2606806 5.3253794,4.224675 5.1456547,4.1027453 4.7753481,4 4.515625,4 4.2553372,4 3.8846453,4.1030403 3.7058706,4.2250853 3.1070163,4.6339078 2.8588231,5.3340466 3.0796051,5.9917447 c 0.043783,0.1304265 0.1090808,0.2805622 0.1451068,0.3336347 0.036026,0.053072 0.4184597,0.4515737 0.8498525,0.8855581 L 4.8589153,8 H 2.9450827 C 1.1007953,8 1.03125,7.99789 1.03125,7.9419337 Z"
       id="path825"
       inkscape:connector-curvature="0" />
    <path
       style="fill:#007ffe;stroke-width:0.03125"
       d="M 7.546875,15.941276 C 7.478125,15.909732 7.3502197,15.807712 7.2626409,15.714563 7.0388941,15.476587 6.9901997,15.314989 7.0046897,14.858529 l 0.011285,-0.355488 0.7179812,-1.43902 C 8.1288456,12.272559 8.4596419,11.625 8.4690588,11.625 c 0.00942,0 0.1053471,0.08902 0.2131778,0.197814 l 0.1960562,0.197815 -0.6637544,1.333984 c -0.5936781,1.193147 -0.6651572,1.353372 -0.6770381,1.517624 -0.015687,0.216879 0.028804,0.372335 0.1351584,0.472249 0.042402,0.03984 0.081909,0.06651 0.087794,0.05928 0.00588,-0.0072 0.064189,-0.101035 0.129565,-0.208456 L 8.0088834,15 l 3.4877456,7.44e-4 3.487746,7.44e-4 0.138198,0.202769 0.138197,0.20277 0.07183,-0.06748 c 0.09997,-0.09392 0.145773,-0.254299 0.129311,-0.452797 -0.01195,-0.144151 -0.136611,-0.415827 -0.855141,-1.863686 -0.462631,-0.932214 -0.851211,-1.702497 -0.86351,-1.71174 -0.0123,-0.0092 -0.415988,-0.811106 -0.897085,-1.78192 C 12.310373,8.4481928 11.937633,7.7320172 11.884165,7.6810053 11.772964,7.5749138 11.656398,7.53125 11.484375,7.53125 c -0.169584,0 -0.288426,0.043515 -0.394098,0.1443025 -0.04488,0.042804 -0.233682,0.3934722 -0.419562,0.7792619 -0.185879,0.3857897 -0.346441,0.7014356 -0.356804,0.7014356 -0.01036,0 -0.108094,-0.090053 -0.217181,-0.2001178 L 9.8983913,8.7560144 10.216286,8.1045697 C 10.682498,7.1491841 10.853768,7 11.484375,7 c 0.396648,0 0.567873,0.064864 0.802987,0.3041925 0.162355,0.1652647 0.229005,0.28615 0.805011,1.4600897 0.3454,0.7039491 0.639994,1.2875428 0.654652,1.2968748 0.04183,0.02663 2.159346,4.312694 2.208438,4.470093 0.067,0.214823 0.05774,0.681111 -0.01752,0.882272 -0.0722,0.192968 -0.326957,0.463267 -0.507251,0.538194 -0.102655,0.04266 -0.56114,0.0482 -3.9375,0.0476 -3.6399135,-6.53e-4 -3.8272498,-0.0034 -3.946316,-0.05804 z"
       id="path823"
       inkscape:connector-curvature="0" />
    <path
       style="fill:#407f3f;stroke-width:0.03125"
       d="M 11.15625,13.465966 C 10.993557,13.408492 10.787828,13.20873 7.3050609,9.7264847 3.6844941,6.1064597 3.6247431,6.0447484 3.5628734,5.8615428 3.4294928,5.4665813 3.5133172,5.0992322 3.8038413,4.80553 4.0920488,4.51417 4.4643809,4.42875 4.8615428,4.5628734 c 0.1832085,0.061871 0.2448581,0.1215647 3.8647806,3.7421875 3.5996616,3.6003581 3.6799576,3.6832751 3.7417646,3.8638941 0.134292,0.392444 0.04989,0.763012 -0.240679,1.056765 -0.135792,0.137277 -0.220506,0.193568 -0.364477,0.242188 -0.232622,0.07856 -0.48074,0.07788 -0.706682,-0.0019 z m 0.503149,-0.470157 c 0.256265,-0.0855 0.415949,-0.371571 0.340675,-0.610312 C 11.969305,12.28791 11.294039,11.596775 8.3677447,8.6678047 5.3117312,5.6089975 4.7543603,5.0643366 4.6473875,5.0322869 4.2917919,4.9257478 3.9304669,5.2806634 4.0305628,5.6381703 4.0635675,5.7560516 4.472065,6.1749075 7.6666847,9.3664944 9.9859528,11.68356 11.29896,12.973449 11.359375,12.994167 c 0.125864,0.04316 0.174777,0.04343 0.300024,0.0016 z"
       id="path821"
       inkscape:connector-curvature="0" />
    <path
       style="fill:#7f5400;stroke-width:0.03125"
       d="M 0.546875,8.9412756 C 0.478125,8.9097322 0.35021972,8.8077116 0.26264106,8.7145631 0.03957176,8.4773072 -0.00978545,8.3145172 0.00453847,7.8632891 L 0.01567206,7.5125616 1.1207439,5.2797184 C 1.7285334,4.0516544 2.2379233,3.0392396 2.2527213,3.0299073 2.2675193,3.0205751 2.5622393,2.4369814 2.9076547,1.7330323 3.4613616,0.60458941 3.5547606,0.43365756 3.6968972,0.28862103 3.9148169,0.06625503 4.0955881,0 4.484375,0 c 0.3966478,0 0.5678725,0.06486429 0.8029872,0.30419248 0.162355,0.16526465 0.2290044,0.28614999 0.8050106,1.46008982 0.3454003,0.7039491 0.6399941,1.2875428 0.6546525,1.296875 0.041825,0.026628 2.1593453,4.3126939 2.2084375,4.4700927 0.024123,0.077344 0.044013,0.1826366 0.044199,0.2339844 3.156e-4,0.086963 -0.03198,0.061269 -0.4713438,-0.375 L 8.0566366,6.921875 7.4190356,5.640625 C 7.068355,4.9359375 6.7658372,4.3407919 6.7467741,4.3180791 6.7277106,4.2953666 6.320465,3.4864709 5.8417837,2.5205337 5.3088628,1.4451454 4.9376141,0.73199869 4.8841647,0.68100519 4.677085,0.48344012 4.3024053,0.47563359 4.1006037,0.66467956 4.0614047,0.70140103 3.63553,1.5261053 3.1542159,2.4973558 2.6729017,3.4686063 2.2688889,4.2708278 2.2564097,4.2800703 2.2439305,4.2893128 1.8550265,5.0604694 1.3921786,5.9937512 0.63530131,7.5199109 0.54930791,7.7090006 0.53742703,7.8732522 c -0.0156181,0.2159184 0.0290149,0.3714484 0.13523166,0.471234 0.0424022,0.039835 0.0819096,0.066512 0.0877942,0.059283 0.005885,-0.00723 0.0641889,-0.1010347 0.12956497,-0.2084566 L 1.0088835,8 H 2.9344956 4.8601075 L 5.359375,8.5 5.8586425,9 3.2652587,8.9993125 C 0.81654706,8.9986656 0.66490187,8.9954281 0.546875,8.9412756 Z"
       id="path819"
       inkscape:connector-curvature="0" />
  </g>
</svg>
