<?xml version="1.0" encoding="UTF-8" standalone="no"?>
<!-- Created with Inkscape (http://www.inkscape.org/) -->

<svg
   xmlns:dc="http://purl.org/dc/elements/1.1/"
   xmlns:cc="http://creativecommons.org/ns#"
   xmlns:rdf="http://www.w3.org/1999/02/22-rdf-syntax-ns#"
   xmlns:svg="http://www.w3.org/2000/svg"
   xmlns="http://www.w3.org/2000/svg"
   xmlns:sodipodi="http://sodipodi.sourceforge.net/DTD/sodipodi-0.dtd"
   xmlns:inkscape="http://www.inkscape.org/namespaces/inkscape"
   version="1.1"
   id="svg2"
   width="16"
   height="16"
   viewBox="0 0 16 16"
   sodipodi:docname="RELAX_POSE.svg"
   inkscape:version="0.92.4 (5da689c313, 2019-01-14)">
  <metadata
     id="metadata8">
    <rdf:RDF>
      <cc:Work
         rdf:about="">
        <dc:format>image/svg+xml</dc:format>
        <dc:type
           rdf:resource="http://purl.org/dc/dcmitype/StillImage" />
        <dc:title></dc:title>
      </cc:Work>
    </rdf:RDF>
  </metadata>
  <defs
     id="defs6" />
  <sodipodi:namedview
     pagecolor="#ffffff"
     bordercolor="#666666"
     borderopacity="1"
     objecttolerance="10"
     gridtolerance="10"
     guidetolerance="10"
     inkscape:pageopacity="0"
     inkscape:pageshadow="2"
     inkscape:window-width="943"
     inkscape:window-height="593"
     id="namedview4"
     showgrid="false"
     inkscape:zoom="14.75"
     inkscape:cx="8"
     inkscape:cy="8"
     inkscape:window-x="0"
     inkscape:window-y="0"
     inkscape:window-maximized="0"
     inkscape:current-layer="svg2" />
  <g
     id="RELAX_POSE">
    <path
       style="fill:#ffffff;stroke-width:0.03125"
       d="M 0,8 V 0 h 8 8 v 8 8 H 8 0 Z m 12.428376,7.027936 c 0.212432,-0.101903 0.369942,-0.262438 0.483148,-0.492432 0.105941,-0.215232 0.103349,-0.61709 -0.0053,-0.826691 -0.110657,-0.213415 -2.794236,-2.896115 -2.9968736,-2.995894 -0.2111963,-0.103993 -0.6129256,-0.101163 -0.8311944,0.0059 -0.5692706,0.279115 -0.7439856,0.961755 -0.38342,1.498082 0.1591472,0.236725 2.635687,2.703441 2.808806,2.797664 0.300911,0.163776 0.602301,0.168148 0.924865,0.01342 z m -8.1247807,0.04631 c 0.082241,-0.02792 0.2128109,-0.09328 0.2901547,-0.145259 0.077344,-0.05198 0.7213759,-0.672494 1.4311825,-1.378929 1.1239641,-1.118626 1.3031388,-1.309881 1.3880209,-1.481606 0.2488163,-0.50338 0.030262,-1.092762 -0.5024496,-1.354971 -0.2064394,-0.101613 -0.6140288,-0.10189 -0.8198232,-5.57e-4 -0.2044378,0.100665 -2.8882278,2.784503 -2.9931258,2.993179 -0.04426,0.08805 -0.080695,0.227266 -0.090082,0.344202 -0.056136,0.699339 0.6376781,1.247456 1.2961221,1.023942 z M 8.421875,10.528763 c 0.1971844,-0.09357 0.3854078,-0.280541 0.4851206,-0.481888 l 0.077379,-0.15625 0.00983,-1.796875 c 0.00915,-1.6724356 0.013194,-1.7871478 0.058445,-1.6564184 0.02674,0.077251 0.091201,0.2038137 0.1432453,0.28125 0.052044,0.077437 0.6726191,0.7215443 1.3790541,1.4313509 1.118626,1.1239641 1.309881,1.3031388 1.481606,1.3880209 0.50338,0.2488163 1.092762,0.030262 1.354971,-0.5024496 0.101613,-0.2064394 0.10189,-0.6140288 5.57e-4,-0.8198232 C 13.311416,8.0112428 10.627578,5.3274528 10.418902,5.2225547 9.9064897,4.9649738 9.2286372,5.2562884 9.0564181,5.8080978 9.0342063,5.8792691 9.0088178,5.9375 9,5.9375 8.99118,5.9375 8.965794,5.879269 8.943581,5.8080978 8.85428,5.5219666 8.6121806,5.2804931 8.3123316,5.1784809 L 8.171875,5.1306959 8.265625,5.1121403 C 8.8864297,4.9892656 9.1946547,4.8368697 9.5656487,4.4693684 9.8640506,4.1737759 10.022997,3.9201341 10.150262,3.5364578 10.219633,3.3273216 10.229732,3.2432625 10.229732,2.875 c 0,-0.3682627 -0.0101,-0.4523215 -0.07947,-0.6614578 C 10.026614,1.8407711 9.8624744,1.5757288 9.5808728,1.2941272 9.2992713,1.0125257 9.0342291,0.84838628 8.6614578,0.72473794 8.4523216,0.65536731 8.3682625,0.64526822 8,0.64526822 c -0.3682625,0 -0.4523216,0.0100991 -0.6614578,0.0794697 C 6.9657709,0.84838628 6.7007287,1.0125257 6.4191272,1.2941272 6.1375256,1.5757288 5.9733862,1.8407711 5.8497378,2.2135422 5.7803672,2.4226785 5.7702681,2.5067373 5.7702681,2.875 c 0,0.3682625 0.010099,0.4523216 0.07947,0.6614578 0.1272656,0.3836763 0.2862116,0.6373181 0.5846134,0.9329106 0.3709941,0.3675013 0.6792191,0.5198972 1.3000238,0.6427719 l 0.09375,0.018556 -0.1404566,0.047785 C 7.3887991,5.28016 7.1555494,5.5116263 7.0564078,5.804915 L 7.0115497,5.9376181 6.9371187,5.7580397 C 6.8479075,5.5428016 6.6400319,5.3251322 6.421875,5.2185216 6.1945572,5.1074341 5.7983466,5.1075688 5.5838125,5.2188028 5.3703984,5.3294603 2.6876976,8.0130388 2.5879189,8.2156766 2.4839261,8.4268728 2.4867559,8.8286022 2.5937739,9.0468709 2.8728892,9.6161416 3.5555287,9.7908566 4.0918556,9.4302909 4.1702412,9.3775934 4.8150081,8.7564844 5.5246706,8.0500491 6.6033131,6.9763116 6.8301419,6.7353272 6.9074831,6.5809422 L 7,6.3962675 v 1.6913991 c 0,1.857039 -0.00148,1.840745 0.1922734,2.1223814 0.2581725,0.375283 0.8093391,0.518146 1.2296016,0.318715 z"
       id="path823"
       inkscape:connector-curvature="0" />
    <path
       style="fill:#82fe7f;stroke-width:0.03125"
       d="M 3.859375,14.578395 C 3.6260131,14.495159 3.5022216,14.25857 3.5654291,14.01661 3.5936997,13.90839 3.7863959,13.70257 4.9319828,12.556983 6.0775697,11.411396 6.28339,11.2187 6.3916103,11.190429 c 0.3520106,-0.09196 0.6679919,0.22531 0.5738463,0.576181 -0.028114,0.104779 -0.235236,0.326726 -1.3353035,1.43088 C 4.9140375,13.916265 4.2929687,14.522775 4.25,14.545288 c -0.1315425,0.06892 -0.2597469,0.07979 -0.390625,0.03311 z m 7.969804,9.4e-5 c -0.09625,-0.03456 -0.418618,-0.339787 -1.442894,-1.366178 -1.1306447,-1.132979 -1.3236644,-1.339658 -1.3519828,-1.447657 -0.092257,-0.351844 0.2251253,-0.668008 0.5760581,-0.573846 0.1047785,0.02811 0.3267256,0.235236 1.4308797,1.335304 0.718775,0.716115 1.329249,1.344215 1.356609,1.395778 0.196284,0.369919 -0.174567,0.798112 -0.56867,0.656599 z M 7.828125,10.066227 C 7.6794431,9.9979522 7.612815,9.9282619 7.5480669,9.7732975 7.5066806,9.6742463 7.5000953,9.4094666 7.5006862,7.8681912 7.5013269,6.1932184 7.5050947,6.06993 7.5592603,5.9506687 7.6251147,5.8056722 7.7364178,5.7071431 7.8925775,5.6556056 c 0.1987094,-0.06558 0.4444409,0.066692 0.5481622,0.2950631 0.054201,0.1193397 0.057888,0.2418829 0.057888,1.9243313 0,1.6774581 -0.00381,1.8051822 -0.0574,1.921875 -0.068275,0.1486819 -0.1379653,0.21531 -0.2929297,0.280058 -0.1445175,0.06038 -0.1669991,0.05963 -0.3201725,-0.01071 z M 3.359375,9.078395 C 3.1260131,8.9951591 3.0022215,8.7585703 3.0654292,8.5166103 3.0936998,8.40839 3.2863959,8.2025697 4.4319828,7.0569828 5.5775697,5.9113959 5.78339,5.7186997 5.8916103,5.6904291 6.2436209,5.5984725 6.5596022,5.9157394 6.4654566,6.2666103 6.4373425,6.3713888 6.2302206,6.5933359 5.1301531,7.6974897 4.4140375,8.416265 3.7929687,9.0227747 3.75,9.0452884 3.6184575,9.1142113 3.4902531,9.1250769 3.359375,9.078395 Z m 8.969804,9.37e-5 C 12.232924,9.0439259 11.910561,8.7387019 10.886285,7.7123112 9.7556403,6.5793319 9.5626206,6.3726531 9.5343022,6.2646544 9.4420453,5.91281 9.7594275,5.5966459 10.11036,5.6908081 c 0.104779,0.028114 0.326726,0.235236 1.43088,1.3353035 0.718775,0.7161156 1.329249,1.3442156 1.356609,1.3957781 0.196284,0.3699194 -0.174567,0.7981122 -0.56867,0.656599 z M 7.7227737,4.5914334 C 6.8882666,4.4447184 6.2699753,3.7142278 6.2699753,2.875 c 0,-0.7702823 0.520605,-1.4532095 1.2768997,-1.6750308 C 7.6609991,1.1664967 7.8383244,1.1449754 8,1.1449754 c 0.7702822,0 1.4532094,0.520605 1.6750306,1.2768996 0.072296,0.2464923 0.072296,0.6597577 0,0.90625 C 9.4263925,4.1758516 8.55741,4.7381716 7.7227737,4.5914334 Z"
       id="path821"
       inkscape:connector-curvature="0" />
    <path
       style="fill:#009800;stroke-width:0.03125"
       d="m 11.788204,15.12396 c -0.2858,-0.05825 -0.405653,-0.161446 -1.7167,-1.478111 -0.7045418,-0.707561 -1.3241015,-1.350608 -1.376799,-1.428993 -0.3605656,-0.536327 -0.1858506,-1.218967 0.38342,-1.498082 0.2182687,-0.107018 0.6199981,-0.109848 0.8311944,-0.0059 0.2026376,0.09978 2.8862166,2.782479 2.9968736,2.995894 0.10868,0.209601 0.111272,0.611459 0.0053,0.826691 -0.213017,0.432772 -0.681936,0.678417 -1.12332,0.588456 z m 0.445065,-0.5891 c 0.194031,-0.110366 0.273743,-0.407256 0.16458,-0.612985 -0.02736,-0.05156 -0.637834,-0.679662 -1.356609,-1.395778 -1.1041541,-1.100068 -1.3261012,-1.307189 -1.4308797,-1.335304 -0.3509328,-0.09416 -0.668315,0.222002 -0.5760581,0.573847 0.028318,0.107998 0.2213381,0.314677 1.3519828,1.447657 1.3831,1.385955 1.440935,1.43447 1.66059,1.392972 0.05156,-0.0097 0.13544,-0.04143 0.186394,-0.07041 z M 3.6876684,15.072875 C 3.1200706,14.874291 2.8383383,14.221763 3.0975548,13.706097 c 0.104898,-0.208676 2.788688,-2.892513 2.9931258,-2.993178 0.2057944,-0.101333 0.6133838,-0.101056 0.8198231,5.56e-4 0.2312625,0.113831 0.3902791,0.270679 0.4996422,0.492827 0.085406,0.173484 0.1002707,0.23787 0.1002707,0.434322 0,0.42754 -0.011922,0.442865 -1.4854841,1.909429 C 5.3151259,14.256488 4.6710937,14.877006 4.59375,14.928982 4.3087859,15.120478 3.9751638,15.173461 3.6876684,15.072875 Z M 4.25,14.545288 C 4.2929687,14.522775 4.9140375,13.916265 5.6301531,13.19749 6.7302206,12.093336 6.9373425,11.871389 6.9654566,11.76661 7.0596022,11.415739 6.7436209,11.098473 6.3916103,11.190429 6.28339,11.2187 6.0775697,11.411396 4.9319828,12.556983 3.7863959,13.70257 3.5936997,13.90839 3.5654291,14.01661 3.4593969,14.422503 3.8736956,14.742456 4.25,14.545288 Z M 7.6876684,10.57477 C 7.3767744,10.461804 7.1555837,10.237396 7.0507591,9.9285953 7.0063806,9.7978625 7,9.5664478 7,8.0876666 V 6.3962675 L 6.9074831,6.5809462 C 6.8301419,6.7353312 6.6033131,6.9763156 5.5246706,8.0500531 4.8150081,8.7564884 4.1702412,9.3775975 4.0918556,9.430295 3.5555288,9.7908606 2.8728892,9.6161456 2.5937739,9.046875 2.4867559,8.8286063 2.4839261,8.4268769 2.5879189,8.2156806 2.6876976,8.0130428 5.3703984,5.3294644 5.5838125,5.2188069 5.7983466,5.1075687 6.1945572,5.1074341 6.421875,5.2185256 c 0.2181569,0.1066106 0.4260325,0.32428 0.5152438,0.5395181 l 0.074431,0.1795785 0.044858,-0.1327031 C 7.1555494,5.5116303 7.3887991,5.2801641 7.6876684,5.178485 L 7.828125,5.1307 7.734375,5.1121444 C 7.1135703,4.9892697 6.8053453,4.8368737 6.4343513,4.4693725 6.1359494,4.17378 5.9770034,3.9201381 5.8497378,3.5364619 5.7803672,3.3273256 5.7702681,3.2432666 5.7702681,2.8750041 c 0,-0.3682627 0.010099,-0.4523215 0.07947,-0.6614579 C 5.9733863,1.8407752 6.1375256,1.5757328 6.4191272,1.2941313 6.7007288,1.0125298 6.9657709,0.84839034 7.3385422,0.724742 7.5476784,0.65537137 7.6317375,0.64527228 8,0.64527228 c 0.3682625,0 0.4523216,0.0100991 0.6614578,0.0794697 0.3727713,0.12364834 0.6378135,0.28778782 0.919415,0.56938932 0.2816016,0.2816015 0.4457412,0.5466439 0.5693892,0.9194149 0.06937,0.2091364 0.07947,0.2931952 0.07947,0.6614579 0,0.3682625 -0.0101,0.4523215 -0.07947,0.6614578 C 10.022997,3.9201381 9.8640506,4.17378 9.5656488,4.4693725 9.1946547,4.8368737 8.8864297,4.9892697 8.265625,5.1121444 L 8.171875,5.1307 8.3123316,5.178485 C 8.6121806,5.2804972 8.85428,5.5219706 8.9435813,5.8081019 8.9657938,5.8792691 8.9911822,5.9375 9,5.9375 c 0.00882,0 0.034206,-0.058231 0.056419,-0.1294022 0.172219,-0.5518094 0.8500715,-0.8431241 1.362484,-0.5855431 0.208676,0.1048981 2.892513,2.7886881 2.993178,2.9931259 0.101333,0.2057944 0.101056,0.6133838 -5.56e-4,0.8198231 -0.113831,0.2312625 -0.270679,0.3902791 -0.492827,0.4996422 -0.173484,0.085406 -0.23787,0.1002707 -0.434322,0.1002707 -0.42754,0 -0.442865,-0.011922 -1.909428,-1.4854841 C 9.8685122,7.4401259 9.2479375,6.7960181 9.1958931,6.7185816 9.1438484,6.6411453 9.0793881,6.5145828 9.0526478,6.4373316 9.0073963,6.3066022 9.0033488,6.4213144 8.9942025,8.09375 l -0.00983,1.796875 -0.077379,0.15625 c -0.099713,0.201347 -0.2879363,0.388316 -0.4851207,0.481888 -0.2039865,0.0968 -0.5369915,0.117666 -0.7342065,0.04601 z m 0.4606291,-0.497837 c 0.1549644,-0.06475 0.2246547,-0.1313761 0.2929297,-0.280058 0.053586,-0.1166928 0.0574,-0.2444169 0.0574,-1.921875 0,-1.6824484 -0.00369,-1.8049916 -0.057888,-1.9243313 C 8.3370184,5.7222975 8.0912869,5.5900256 7.8925775,5.6556056 7.7364178,5.7071431 7.6251147,5.8056722 7.5592603,5.9506687 7.5050947,6.06993 7.5013284,6.1932184 7.5006862,7.8681912 c -7.281e-4,1.9031126 -6.25e-5,1.9126007 0.1489432,2.080391 0.05579,0.062829 0.2741968,0.1745438 0.3435618,0.1757318 0.022036,3.78e-4 0.091834,-0.02094 0.1551063,-0.04738 z M 3.75,9.0452884 C 3.7929688,9.0227747 4.4140375,8.416265 5.1301531,7.6974897 6.2302206,6.5933359 6.4373425,6.3713888 6.4654566,6.2666103 6.5596022,5.9157394 6.2436209,5.5984725 5.8916103,5.6904291 5.78339,5.7186997 5.5775697,5.9113959 4.4319828,7.0569828 3.2863959,8.2025697 3.0936998,8.40839 3.0654292,8.5166103 2.959397,8.9225028 3.3736956,9.2424563 3.75,9.0452884 Z m 8.983269,-0.010428 C 12.9273,8.9244938 13.007012,8.6276044 12.897849,8.421875 12.870489,8.3703125 12.260015,7.7422125 11.54124,7.0260969 10.437086,5.9260294 10.215139,5.7189075 10.11036,5.6907934 9.7594275,5.5966312 9.4420453,5.9127953 9.5343022,6.2646397 c 0.028318,0.1079987 0.2213381,0.3146775 1.3519828,1.4476569 1.3831,1.3859556 1.440935,1.43447 1.66059,1.3929722 0.05156,-0.00974 0.13544,-0.041425 0.186394,-0.070408 z M 8.47761,4.5421878 C 9.0337522,4.3798941 9.5073978,3.8996653 9.6750306,3.328125 c 0.072296,-0.2464923 0.072296,-0.6597577 0,-0.90625 C 9.5467247,1.9844185 9.2284006,1.5806731 8.84375,1.3675227 8.5576172,1.208965 8.3150116,1.1449754 8,1.1449754 c -0.7702822,0 -1.4532094,0.520605 -1.6750306,1.2768996 -0.072296,0.2464923 -0.072296,0.6597577 0,0.90625 0.2331718,0.7949947 0.98544,1.3354956 1.7776406,1.2772262 0.1165919,-0.00858 0.2853419,-0.036999 0.375,-0.063163 z"
       id="path819"
       inkscape:connector-curvature="0" />
  </g>
</svg>
