<?xml version="1.0" encoding="UTF-8" standalone="no"?>
<!-- Created with Inkscape (http://www.inkscape.org/) -->

<svg
   xmlns:dc="http://purl.org/dc/elements/1.1/"
   xmlns:cc="http://creativecommons.org/ns#"
   xmlns:rdf="http://www.w3.org/1999/02/22-rdf-syntax-ns#"
   xmlns:svg="http://www.w3.org/2000/svg"
   xmlns="http://www.w3.org/2000/svg"
   xmlns:sodipodi="http://sodipodi.sourceforge.net/DTD/sodipodi-0.dtd"
   xmlns:inkscape="http://www.inkscape.org/namespaces/inkscape"
   version="1.1"
   id="svg2"
   width="16"
   height="16"
   viewBox="0 0 16 16"
   sodipodi:docname="SIBLINGS.svg"
   inkscape:version="0.92.4 (5da689c313, 2019-01-14)">
  <metadata
     id="metadata8">
    <rdf:RDF>
      <cc:Work
         rdf:about="">
        <dc:format>image/svg+xml</dc:format>
        <dc:type
           rdf:resource="http://purl.org/dc/dcmitype/StillImage" />
        <dc:title></dc:title>
      </cc:Work>
    </rdf:RDF>
  </metadata>
  <defs
     id="defs6" />
  <sodipodi:namedview
     pagecolor="#ffffff"
     bordercolor="#666666"
     borderopacity="1"
     objecttolerance="10"
     gridtolerance="10"
     guidetolerance="10"
     inkscape:pageopacity="0"
     inkscape:pageshadow="2"
     inkscape:window-width="1267"
     inkscape:window-height="881"
     id="namedview4"
     showgrid="false"
     inkscape:zoom="14.75"
     inkscape:cx="8"
     inkscape:cy="8"
     inkscape:window-x="0"
     inkscape:window-y="0"
     inkscape:window-maximized="0"
     inkscape:current-layer="svg2" />
  <g
     id="SIBLINGS">
    <path
       style="fill:#ffffff;stroke-width:0.03125"
       d="m 0.0014617,13.632813 0.0014617,-2.367188 0.06028655,0.154413 c 0.07168969,0.183621 0.30915167,0.439107 0.48366505,0.520377 0.12081234,0.05626 0.37050091,0.05821 7.453125,0.05821 7.082624,0 7.332313,-0.002 7.453125,-0.05821 0.174513,-0.08127 0.411975,-0.336756 0.483665,-0.520377 l 0.06029,-0.154413 0.0015,2.367188 L 16,16 H 8 0 Z m 15.9516993,-3.1014 C 15.930179,10.426779 13.788798,6.0878419 13.74697,6.0611572 13.732342,6.051825 13.437773,5.4682312 13.092373,4.7642822 12.516367,3.5903425 12.449717,3.4694572 12.287362,3.3041925 12.052248,3.0648643 11.881023,3 11.484375,3 11.095588,3 10.914817,3.066255 10.696897,3.2886209 10.554816,3.4336009 10.461538,3.6042313 9.9109634,4.7262975 9.5673678,5.4265422 9.2675425,6.0184081 9.2446847,6.041555 9.2218269,6.0647019 9.154705,6.1843525 9.0955253,6.307445 L 8.9879256,6.53125 h -0.99357 -0.99357 L 6.8870363,6.3046875 C 6.8244741,6.1800781 6.7613813,6.0704897 6.74683,6.0611572 6.7322787,6.051825 6.4377731,5.4682313 6.0923728,4.7642822 5.5163666,3.5903425 5.4497172,3.4694572 5.2873622,3.3041925 5.0522475,3.0648643 4.8810228,3 4.484375,3 4.0955881,3 3.9148169,3.066255 3.6968972,3.2886209 3.5547606,3.4336575 3.4613616,3.6045894 2.9076547,4.7330322 2.5622393,5.4369813 2.2675571,6.020575 2.2528053,6.0299072 2.2155195,6.053495 0.0960686,10.330376 0.04534935,10.484375 0.01094599,10.588834 0.00383746,9.7376806 0.00209049,5.3046875 L 0,0 h 8 8 v 5.3125 c 0,2.921875 -0.0059,5.3125 -0.01314,5.3125 -0.0072,0 -0.02239,-0.04211 -0.0337,-0.09359 z"
       id="path831"
       inkscape:connector-curvature="0" />
    <path
       style="fill:#fefefe;stroke-width:0.03125"
       d="M 4.09375,9.4410706 C 3.9992187,9.4105078 3.865625,9.3560997 3.796875,9.3201638 3.6377988,9.2370134 3.3064866,8.897435 3.2253459,8.734375 3.0026009,8.2867472 3.00647,7.727285 3.2353953,7.28125 3.3233125,7.1099537 3.657315,6.7790931 3.828125,6.6940959 4.1696703,6.5241387 3.9861278,6.53125 8.03125,6.53125 c 4.045122,0 3.86158,-0.00711 4.203125,0.1628459 0.17081,0.084997 0.504813,0.4158578 0.59273,0.5871541 0.233097,0.4541628 0.233097,1.0145872 0,1.46875 -0.08792,0.1712962 -0.42192,0.5021569 -0.59273,0.5871541 C 11.892547,9.5072516 12.078653,9.5001384 8.0177656,9.4983194 4.50961,9.4967481 4.2544487,9.4930256 4.09375,9.4410706 Z m 7.831213,-0.528824 C 12.123908,8.8221894 12.318985,8.6258169 12.4121,8.421875 12.513072,8.2007253 12.512083,7.8311116 12.409909,7.602695 12.31927,7.4000656 12.094464,7.1857459 11.889745,7.1067947 11.739746,7.0489462 11.606364,7.046875 8.03125,7.046875 c -3.5751138,0 -3.7084959,0.00207 -3.8584947,0.05992 -0.2047191,0.078951 -0.429525,0.2932709 -0.5201644,0.4959003 -0.1022006,0.228475 -0.1031678,0.5980625 -0.00214,0.81918 0.079562,0.1741422 0.2539162,0.3700034 0.3964281,0.4453278 0.2486719,0.1314356 0.1819434,0.1293969 4.03125,0.1231535 l 3.6875,-0.00598 0.159338,-0.072128 z"
       id="path829"
       inkscape:connector-curvature="0" />
    <path
       style="fill:#fefe7f;stroke-width:0.03125"
       d="M 0.64464638,11.31158 C 0.60083369,11.259512 0.55568287,11.167315 0.54431125,11.106699 0.49097178,10.822376 0.51504031,10.762415 1.3936589,8.9907719 1.8556926,8.0591284 2.2439305,7.2893128 2.2564097,7.2800703 2.2688889,7.2708278 2.6729017,6.4686063 3.1542159,5.4973559 3.63553,4.5261053 4.0614047,3.7014009 4.1006038,3.6646797 4.1799656,3.5903341 4.31621,3.53125 4.4082844,3.53125 c 0.054525,0 0.060466,0.023518 0.060466,0.2393922 v 0.2393925 l -0.8610156,1.73717 C 3.1341756,6.7026484 2.72382,7.5194022 2.6958329,7.5622131 2.6071752,7.69783 1.03125,10.881965 1.03125,10.92548 c 0,0.04911 -0.2561755,0.478479 -0.28628456,0.479838 -0.0113628,5.12e-4 -0.0565063,-0.04167 -0.10031906,-0.09374 z m 6.99999982,0 C 7.6008338,11.259512 7.5556828,11.167315 7.5443112,11.106699 7.498965,10.864982 7.5441237,10.71301 7.84417,10.097906 L 8.1358131,9.5 H 8.4257759 8.7157388 L 8.3734944,10.194796 C 8.18526,10.576934 8.03125,10.90703 8.03125,10.928343 c 0,0.0471 -0.2572266,0.475664 -0.2862847,0.476975 -0.011362,5.12e-4 -0.056506,-0.04167 -0.1003191,-0.09374 z M 9.65625,6.5205303 c 0,-0.057127 1.387902,-2.8032437 1.442621,-2.8543862 0.08097,-0.075677 0.216799,-0.1348941 0.309413,-0.1348941 0.05446,0 0.06047,0.023485 0.06047,0.2364547 V 4.0041591 L 10.846167,5.2677047 10.223583,6.53125 H 9.9399166 C 9.7839,6.53125 9.65625,6.5264262 9.65625,6.5205303 Z"
       id="path827"
       inkscape:connector-curvature="0" />
    <path
       style="fill:#82fe7f;stroke-width:0.03125"
       d="M 4.390625,8.4526375 C 3.9626212,8.3025697 3.9867363,7.6838781 4.4251909,7.5658144 c 0.083402,-0.022458 1.2557838,-0.030757 3.6690007,-0.025972 3.5042534,0.00695 3.5477214,0.00779 3.6547024,0.070638 0.305613,0.1795407 0.305613,0.6307482 0,0.8102888 -0.107017,0.06287 -0.149449,0.063676 -3.670769,0.069651 -2.9877369,0.00507 -3.5826672,-0.00103 -3.6875,-0.037783 z"
       id="path825"
       inkscape:connector-curvature="0" />
    <path
       style="fill:#fea900;stroke-width:0.03125"
       d="m 15.122573,11.204257 -0.138198,-0.202769 -3.476562,-7.44e-4 c -3.3022811,-7.07e-4 -3.476563,-0.0035 -3.476563,-0.05595 0,-0.03036 0.15401,-0.367862 0.3422444,-0.75 L 8.7157388,9.5 h 1.5270832 c 1.632323,0 1.670585,-0.00313 1.991553,-0.1628459 C 12.405185,9.2521569 12.739188,8.9212962 12.827105,8.75 13.05603,8.303965 13.059899,7.7445028 12.837154,7.296875 12.752157,7.126065 12.421296,6.7920625 12.25,6.7041453 11.946198,6.5482206 11.823185,6.53125 10.996745,6.53125 H 10.223583 L 10.846167,5.2677047 11.46875,4.0041591 V 3.7677047 c 0,-0.2296991 0.0022,-0.2364547 0.07609,-0.2364547 0.113713,0 0.241443,0.056372 0.339324,0.1497553 0.05347,0.051012 0.426208,0.7671875 0.962013,1.8483947 0.481097,0.9708138 0.884786,1.7726778 0.897085,1.7819203 0.0123,0.00924 0.400879,0.7795256 0.86351,1.71174 0.71853,1.4478587 0.843187,1.7195347 0.855141,1.8636857 0.01646,0.198498 -0.02934,0.35888 -0.129311,0.452797 l -0.07183,0.06748 z M 1.03125,10.941934 c 0,-0.05468 1.5553748,-3.212669 1.6645829,-3.3797209 C 2.72382,7.5194022 3.1341756,6.7026484 3.6077344,5.7472047 L 4.46875,4.0100347 V 3.7706422 c 0,-0.2353281 0.00134,-0.2393922 0.079129,-0.2393922 0.1167747,0 0.2691819,0.073955 0.3623682,0.1758388 0.045167,0.049382 0.3851165,0.7050206 0.7554434,1.4569737 L 6.3390119,6.53125 H 5.3158028 C 4.2178866,6.53125 4.1295781,6.5414062 3.8125,6.7041453 3.6412037,6.7920625 3.3103431,7.126065 3.2253459,7.296875 3.0026009,7.7445028 3.00647,8.303965 3.2353953,8.75 3.3233125,8.9212962 3.657315,9.2521569 3.828125,9.3371541 4.1506384,9.4976406 4.1806022,9.5 5.8962969,9.5 6.7783337,9.5 7.5,9.5061688 7.5,9.5137081 7.5,9.5212478 7.3922259,9.7458959 7.2605025,10.012927 7.0343784,10.471325 7.0201941,10.512441 7.0064872,10.749218 L 6.9919697,11 h -2.98036 C 1.1279412,11 1.03125,10.998116 1.03125,10.941934 Z"
       id="path823"
       inkscape:connector-curvature="0" />
    <path
       style="fill:#407f3f;stroke-width:0.03125"
       d="M 4.265625,8.9565459 C 3.9761509,8.8643972 3.7712706,8.6863288 3.6504469,8.421875 3.5494231,8.2007575 3.5503903,7.83117 3.6525906,7.602695 3.74323,7.4000656 3.9680359,7.1857459 4.172755,7.1067947 4.3227541,7.0489462 4.4561362,7.046875 8.03125,7.046875 c 3.575114,0 3.708496,0.00207 3.858495,0.05992 0.204719,0.078951 0.429525,0.2932709 0.520164,0.4959003 0.102174,0.2284166 0.103163,0.5980303 0.0022,0.81918 -0.09312,0.2039419 -0.288193,0.4003144 -0.487137,0.4903716 l -0.159338,0.072128 -3.6875,0.00598 c -2.9130903,0.00473 -3.7137512,-0.00238 -3.8125,-0.03381 z m 7.483269,-0.5357765 c 0.305613,-0.1795406 0.305613,-0.6307482 0,-0.8102888 -0.106981,-0.062849 -0.150449,-0.063689 -3.6547024,-0.070638 -2.4132169,-0.00479 -3.5855985,0.00351 -3.6690007,0.025972 -0.3307118,0.089052 -0.4544634,0.5027078 -0.2284237,0.763539 0.1498865,0.1729569 0.021214,0.1676172 3.8813578,0.1610669 3.52132,-0.00598 3.563752,-0.00678 3.670769,-0.069651 z"
       id="path821"
       inkscape:connector-curvature="0" />
    <path
       style="fill:#7f5400;stroke-width:0.03125"
       d="M 0.546875,11.941276 C 0.478125,11.909732 0.35021972,11.807712 0.26264106,11.714563 0.03957176,11.477307 -0.00978545,11.314517 0.00453847,10.863289 L 0.01567206,10.512562 1.1207439,8.2797184 C 1.7285334,7.0516544 2.2379232,6.0392397 2.2527213,6.0299072 2.2675193,6.020575 2.5622393,5.4369812 2.9076547,4.7330322 3.4613616,3.6045894 3.5547606,3.4336575 3.6968972,3.2886209 3.9148169,3.066255 4.0955881,3 4.484375,3 c 0.3966478,0 0.5678725,0.064864 0.8029872,0.3041925 0.162355,0.1652647 0.2290044,0.28615 0.8050106,1.4600897 0.3454003,0.7039491 0.639906,1.2875428 0.6544572,1.296875 0.014551,0.00933 0.077644,0.1189209 0.1402063,0.2435303 L 7.0007856,6.53125 H 6.6698475 6.3389094 L 5.6563456,5.1484375 C 5.2357159,4.2962794 4.9398381,3.7334094 4.8853288,3.6816756 4.6764409,3.4834247 4.3027284,3.4753306 4.1006038,3.6646797 4.0614047,3.7014009 3.63553,4.5261053 3.1542159,5.4973559 2.6729017,6.4686063 2.2688889,7.2708278 2.2564097,7.2800703 2.2439305,7.2893128 1.8550265,8.0604694 1.3921786,8.9937513 0.63530131,10.519911 0.54930791,10.709001 0.53742703,10.873252 c -0.0156181,0.215919 0.0290149,0.371449 0.13523166,0.471234 0.0424022,0.03984 0.0819096,0.06651 0.0877942,0.05928 0.005885,-0.0072 0.0641888,-0.101035 0.12956496,-0.208456 L 1.0088835,11 h 2.9915431 2.9915431 l 0.014481,-0.250153 c 0.013688,-0.236463 0.02793,-0.27751 0.2602207,-0.7500004 L 7.5124113,9.5 H 7.8187056 C 7.9871675,9.5 8.125,9.5053481 8.125,9.511885 c 0,0.00654 -0.1293888,0.2766003 -0.2875306,0.600142 -0.3078944,0.629918 -0.3563078,0.81339 -0.2775788,1.051941 0.032835,0.09949 0.1757153,0.270325 0.2005622,0.239801 0.00588,-0.0072 0.064189,-0.101035 0.129565,-0.208457 L 8.0088834,11 l 3.4877456,7.44e-4 3.487746,7.43e-4 0.138198,0.20277 0.138197,0.20277 0.07183,-0.06748 c 0.09997,-0.09392 0.145773,-0.254299 0.129311,-0.452797 C 15.44996,10.742595 15.325303,10.470919 14.606773,9.0230603 14.144142,8.0908459 13.755562,7.3205628 13.743263,7.3113203 13.730964,7.3020778 13.327275,6.5002137 12.846178,5.5294 12.310373,4.4481928 11.937633,3.7320172 11.884165,3.6810053 11.77245,3.5744237 11.656317,3.53125 11.481337,3.53125 c -0.167189,0 -0.3166,0.058725 -0.407172,0.160035 -0.03655,0.040887 -0.37287,0.6966056 -0.747369,1.4571525 L 9.6458875,6.53125 H 9.3229438 C 9.1453247,6.53125 9,6.5238678 9,6.514845 9,6.4820575 9.2274366,6.0464109 9.25317,6.0299072 9.2677213,6.020575 9.5622394,5.4369813 9.9076547,4.7330322 10.461362,3.6045894 10.554761,3.4336575 10.696897,3.2886209 10.914817,3.066255 11.095588,3 11.484375,3 c 0.396648,0 0.567873,0.064864 0.802987,0.3041925 0.162355,0.1652647 0.229005,0.28615 0.805011,1.4600897 0.3454,0.7039491 0.639994,1.2875428 0.654652,1.296875 0.04183,0.026628 2.159346,4.3126938 2.208438,4.4700928 0.02414,0.07741 0.04401,0.270045 0.0442,0.428515 4.47e-4,0.381021 -0.06689,0.563588 -0.288283,0.781645 -0.290292,0.285912 0.524788,0.258676 -7.7181878,0.257904 -7.03519783,-6.6e-4 -7.32620123,-0.0029 -7.4463162,-0.05804 z"
       id="path819"
       inkscape:connector-curvature="0" />
  </g>
</svg>
