<?xml version="1.0" encoding="UTF-8" standalone="no"?>
<!-- Created with Inkscape (http://www.inkscape.org/) -->

<svg
   xmlns:dc="http://purl.org/dc/elements/1.1/"
   xmlns:cc="http://creativecommons.org/ns#"
   xmlns:rdf="http://www.w3.org/1999/02/22-rdf-syntax-ns#"
   xmlns:svg="http://www.w3.org/2000/svg"
   xmlns="http://www.w3.org/2000/svg"
   xmlns:sodipodi="http://sodipodi.sourceforge.net/DTD/sodipodi-0.dtd"
   xmlns:inkscape="http://www.inkscape.org/namespaces/inkscape"
   version="1.1"
   id="svg2"
   width="13.99943"
   height="13.99943"
   viewBox="0 0 13.99943 13.99943"
   sodipodi:docname="WORKSPACE.svg"
   inkscape:version="0.92.4 (5da689c313, 2019-01-14)">
  <metadata
     id="metadata8">
    <rdf:RDF>
      <cc:Work
         rdf:about="">
        <dc:format>image/svg+xml</dc:format>
        <dc:type
           rdf:resource="http://purl.org/dc/dcmitype/StillImage" />
        <dc:title></dc:title>
      </cc:Work>
    </rdf:RDF>
  </metadata>
  <defs
     id="defs6" />
  <sodipodi:namedview
     pagecolor="#ffffff"
     bordercolor="#666666"
     borderopacity="1"
     objecttolerance="10"
     gridtolerance="10"
     guidetolerance="10"
     inkscape:pageopacity="0"
     inkscape:pageshadow="2"
     inkscape:window-width="1193"
     inkscape:window-height="744"
     id="namedview4"
     showgrid="false"
     inkscape:zoom="16.85783"
     inkscape:cx="-0.88979426"
     inkscape:cy="6.9997149"
     inkscape:window-x="0"
     inkscape:window-y="0"
     inkscape:window-maximized="0"
     inkscape:current-layer="svg2" />
  <g
     id="WORKSPACE">
    <path
       style="fill:#ffffff;stroke-width:0.02734264"
       d="M 0,6.999715 V 0 h 6.999715 6.999715 v 6.999715 6.999715 h -1.09314 -1.093141 l -0.0074,-1.829967 c -0.0073,-1.799748 -0.0083,-1.831213 -0.06378,-1.905459 -0.03101,-0.04152 -0.09034,-0.100862 -0.131864,-0.131868 -0.07397,-0.05524 -0.107983,-0.05652 -1.6867183,-0.06384 L 8.3121616,10.06082 V 9.8008218 c 0,-0.157735 -0.014669,-0.2951068 -0.037296,-0.34926 C 8.2344048,9.3547256 8.0896168,9.21841 8.0161302,9.2079668 c -0.025163,-0.00358 1.1499329,-0.012804 2.6113248,-0.020507 2.630007,-0.013862 2.657845,-0.014579 2.732574,-0.07038 0.04152,-0.031006 0.100867,-0.090353 0.131873,-0.1318825 0.05635,-0.075476 0.05637,-0.07722 0.05637,-4.1728932 0,-4.09567281 -2.3e-5,-4.097417 -0.05637,-4.17289329 -0.03101,-0.0415293 -0.09035,-0.10087647 -0.131883,-0.13188256 l -0.07551,-0.0563747 H 6.999715 0.71491865 l -0.0755078,0.0563747 c -0.0415293,0.0310061 -0.10087647,0.0903532 -0.13188256,0.13188256 -0.0563512,0.0754763 -0.0563747,0.0772205 -0.0563747,4.17289329 0,4.0956727 2.357e-5,4.0974168 0.0563747,4.1728932 0.0310061,0.041529 0.0903488,0.1008765 0.13187261,0.1318825 0.0747287,0.055801 0.10256674,0.056517 2.7325743,0.07038 1.4613917,0.0077 2.636488,0.016931 2.6113246,0.020507 -0.073487,0.010443 -0.2182746,0.1467588 -0.2587352,0.243595 -0.022627,0.054153 -0.037296,0.191525 -0.037296,0.34926 V 10.06082 l -1.6112291,0.0075 c -1.578735,0.0073 -1.6127515,0.0086 -1.6867183,0.06384 -0.041519,0.03101 -0.1008579,0.09035 -0.131864,0.131868 -0.055444,0.07425 -0.056497,0.105711 -0.063776,1.905459 l -0.0074,1.829967 H 1.0931403 0 Z"
       id="path829"
       inkscape:connector-curvature="0" />
    <path
       style="fill:#fefefe;stroke-width:0.02734264"
       d="M 0.87496437,4.8123041 V 0.87496437 H 6.999715 13.124466 V 4.8123041 8.7496438 H 6.999715 0.87496437 Z m 11.37453663,0 V 1.7499287 H 6.999715 1.7499287 v 3.0623754 3.0623753 h 5.2497863 5.249786 z"
       id="path827"
       inkscape:connector-curvature="0" />
    <path
       style="fill:#75b6fe;stroke-width:0.02734264"
       d="m 4.1823303,12.651363 c -0.1350254,-0.0714 -0.2449906,-0.245644 -0.2449906,-0.38819 0,-0.142547 0.1099652,-0.316788 0.2449906,-0.388191 0.1176665,-0.06222 0.1302023,-0.06296 1.0674559,-0.06296 0.9372537,0 0.9497895,7.38e-4 1.067456,0.06296 0.1350254,0.0714 0.2449906,0.245644 0.2449906,0.388191 0,0.142546 -0.1099652,0.316787 -0.2449906,0.38819 -0.1176665,0.06222 -0.1302023,0.06296 -1.067456,0.06296 -0.9372536,0 -0.9497894,-7.38e-4 -1.0674559,-0.06296 z M 1.7499287,4.8123041 V 1.7499287 H 6.999715 12.249501 V 4.8123041 7.8746794 H 6.999715 1.7499287 Z"
       id="path825"
       inkscape:connector-curvature="0" />
    <path
       style="fill:#b8b8b8;stroke-width:0.02734264"
       d="M 2.6248931,12.249501 V 10.499572 H 4.3748219 6.1247506 V 10.06209 9.6246081 H 6.999715 7.8746794 v 0.4374819 0.437482 h 1.7499287 1.7499289 v 1.749929 1.749929 H 6.999715 2.6248931 Z m 7.4175529,1.255634 c 0.216809,-0.07244 0.39275,-0.184833 0.544172,-0.347615 0.249854,-0.268599 0.350437,-0.52922 0.350437,-0.908019 0,-0.378798 -0.100583,-0.639419 -0.350437,-0.908018 -0.255159,-0.274302 -0.56469,-0.404428 -0.9620099,-0.404428 -0.3973197,0 -0.7068509,0.130126 -0.9620094,0.404428 -0.249854,0.268599 -0.3504371,0.52922 -0.3504371,0.908018 0,0.587183 0.3271292,1.055163 0.8720504,1.247525 0.2440456,0.08615 0.6142034,0.08965 0.858234,0.0081 z M 6.999715,12.249501 V 11.374537 H 5.2497862 3.4998575 v 0.874964 0.874965 H 5.2497862 6.999715 Z"
       id="path823"
       inkscape:connector-curvature="0" />
    <path
       style="fill:#98fe65;stroke-width:0.02734264"
       d="M 9.3513291,13.080516 C 8.731812,12.85541 8.5509281,12.091458 9.0087464,11.63364 c 0.1796507,-0.179651 0.3422273,-0.244085 0.6158617,-0.244085 0.2736345,0 0.4362109,0.06443 0.6158619,0.244085 0.179651,0.17965 0.244085,0.342227 0.244085,0.615861 0,0.273635 -0.06443,0.436211 -0.244085,0.615862 -0.224659,0.224659 -0.6078158,0.317375 -0.8891409,0.215153 z"
       id="path821"
       inkscape:connector-curvature="0" />
    <path
       style="fill:#323232;stroke-width:0.02734264"
       d="m 2.1936814,12.169463 c 0.00728,-1.799748 0.00833,-1.831213 0.063776,-1.905459 0.031006,-0.04152 0.090345,-0.100862 0.131864,-0.131868 0.073967,-0.05524 0.1079833,-0.05652 1.6867183,-0.06384 l 1.6112291,-0.0075 V 9.8008218 c 0,-0.157735 0.014669,-0.2951068 0.037296,-0.34926 C 5.7650252,9.3547256 5.9098132,9.21841 5.9832998,9.2079668 6.0084632,9.2043906 4.8333669,9.1951625 3.3719752,9.1874598 0.7419676,9.1735973 0.71412957,9.1728804 0.63940086,9.1170798 0.59787702,9.0860738 0.53853434,9.0267266 0.50752825,8.9851973 c -0.0563512,-0.075476 -0.0563747,-0.07722 -0.0563747,-4.1728932 0,-4.09567281 2.357e-5,-4.097417 0.0563747,-4.17289329 0.0310061,-0.0415293 0.0903532,-0.10087647 0.13188256,-0.13188256 l 0.0755078,-0.0563747 H 6.999715 13.284511 l 0.07551,0.0563747 c 0.04153,0.0310061 0.100877,0.0903532 0.131883,0.13188256 0.05635,0.0754763 0.05637,0.0772205 0.05637,4.17289329 0,4.0956727 -2.3e-5,4.0974168 -0.05637,4.1728932 -0.03101,0.041529 -0.09035,0.1008765 -0.131873,0.1318825 -0.07473,0.055801 -0.102567,0.056517 -2.732574,0.07038 -1.4613919,0.0077 -2.6364882,0.016931 -2.6113248,0.020507 0.073487,0.010443 0.2182746,0.1467588 0.2587352,0.243595 0.022627,0.054153 0.037296,0.191525 0.037296,0.34926 V 10.06082 l 1.6112291,0.0075 c 1.5787355,0.0073 1.6127515,0.0086 1.6867185,0.06384 0.04152,0.03101 0.100858,0.09035 0.131864,0.131868 0.05544,0.07425 0.0565,0.105711 0.06378,1.905459 l 0.0074,1.829967 H 11.593843 11.374537 V 12.249501 10.499572 H 9.6246081 7.8746794 V 10.06209 9.6246081 H 6.999715 6.1247506 V 10.06209 10.499572 H 4.3748219 2.6248931 v 1.749929 1.749929 H 2.4055869 2.1862806 Z M 13.124466,4.8123041 V 0.87496437 H 6.999715 0.87496437 V 4.8123041 8.7496438 H 6.999715 13.124466 Z M 9.184212,13.497026 C 8.6392908,13.304664 8.3121616,12.836684 8.3121616,12.249501 c 0,-0.378798 0.1005831,-0.639419 0.3504371,-0.908018 0.2551585,-0.274302 0.5646897,-0.404428 0.9620094,-0.404428 0.3973199,0 0.7068509,0.130126 0.9620099,0.404428 0.249854,0.268599 0.350437,0.52922 0.350437,0.908018 0,0.378799 -0.100583,0.63942 -0.350437,0.908019 -0.257118,0.276407 -0.564782,0.404767 -0.9679829,0.403851 -0.194877,-4.43e-4 -0.2957103,-0.01538 -0.4344231,-0.06434 z m 0.8095217,-0.456764 c 0.1729643,-0.08208 0.3376303,-0.245907 0.4237903,-0.421635 0.09624,-0.19629 0.09624,-0.541962 0,-0.738251 -0.08547,-0.174316 -0.249475,-0.338323 -0.4237903,-0.42379 -0.1962895,-0.09624 -0.5419617,-0.09624 -0.7382512,0 -0.7107562,0.348486 -0.6515053,1.352374 0.095847,1.62393 0.1725561,0.0627 0.4639236,0.04444 0.6424046,-0.04025 z M 3.4998575,12.249501 V 11.374537 H 5.2497862 6.999715 v 0.874964 0.874965 H 5.2497862 3.4998575 Z m 2.8173847,0.401862 c 0.1350254,-0.0714 0.2449906,-0.245644 0.2449906,-0.38819 0,-0.142547 -0.1099652,-0.316788 -0.2449906,-0.388191 -0.1176665,-0.06222 -0.1302023,-0.06296 -1.067456,-0.06296 -0.9372536,0 -0.9497894,7.38e-4 -1.0674559,0.06296 -0.1350254,0.0714 -0.2449906,0.245644 -0.2449906,0.388191 0,0.142546 0.1099652,0.316787 0.2449906,0.38819 0.1176665,0.06222 0.1302023,0.06296 1.0674559,0.06296 0.9372537,0 0.9497895,-7.38e-4 1.067456,-0.06296 z"
       id="path819"
       inkscape:connector-curvature="0" />
  </g>
</svg>
