<?xml version="1.0" encoding="UTF-8" standalone="no"?>
<!-- Created with Inkscape (http://www.inkscape.org/) -->

<svg
   xmlns:dc="http://purl.org/dc/elements/1.1/"
   xmlns:cc="http://creativecommons.org/ns#"
   xmlns:rdf="http://www.w3.org/1999/02/22-rdf-syntax-ns#"
   xmlns:svg="http://www.w3.org/2000/svg"
   xmlns="http://www.w3.org/2000/svg"
   xmlns:sodipodi="http://sodipodi.sourceforge.net/DTD/sodipodi-0.dtd"
   xmlns:inkscape="http://www.inkscape.org/namespaces/inkscape"
   version="1.1"
   id="svg2"
   width="16"
   height="16"
   viewBox="0 0 16 16"
   sodipodi:docname="FACE_MAPS.svg"
   inkscape:version="0.92.4 (5da689c313, 2019-01-14)">
  <metadata
     id="metadata8">
    <rdf:RDF>
      <cc:Work
         rdf:about="">
        <dc:format>image/svg+xml</dc:format>
        <dc:type
           rdf:resource="http://purl.org/dc/dcmitype/StillImage" />
        <dc:title></dc:title>
      </cc:Work>
    </rdf:RDF>
  </metadata>
  <defs
     id="defs6" />
  <sodipodi:namedview
     pagecolor="#ffffff"
     bordercolor="#666666"
     borderopacity="1"
     objecttolerance="10"
     gridtolerance="10"
     guidetolerance="10"
     inkscape:pageopacity="0"
     inkscape:pageshadow="2"
     inkscape:window-width="1164"
     inkscape:window-height="764"
     id="namedview4"
     showgrid="false"
     inkscape:zoom="14.75"
     inkscape:cx="-1.0169492"
     inkscape:cy="8"
     inkscape:window-x="0"
     inkscape:window-y="0"
     inkscape:window-maximized="0"
     inkscape:current-layer="svg2" />
  <g
     id="FACE_MAPS">
    <path
       style="fill:#ffffff;stroke-width:0.03125"
       d="M 0,8 V 0 h 8 8 v 8 8 H 8 0 Z m 10.773723,6.937669 c 0.05602,-0.03415 0.129792,-0.107929 0.163946,-0.163946 0.06123,-0.100434 0.0621,-0.167108 0.06221,-4.8012724 L 11,5.2730262 10.863487,5.1365131 10.726974,5 6.0275494,5.000125 C 1.3933854,5.00025 1.3267107,5.0011031 1.2262769,5.062339 1.1702609,5.096493 1.0964848,5.170268 1.0623312,5.2262846 1.0010992,5.3267137 1.0002332,5.393228 1.0002332,10.000008 c 0,4.60678 8.653e-4,4.673294 0.062098,4.773723 0.034154,0.05602 0.1079292,0.129792 0.1639457,0.163946 0.100429,0.06123 0.1669433,0.0621 4.7737231,0.0621 4.60678,0 4.673294,-8.65e-4 4.773723,-0.0621 z M 15,6.7502441 V 2.0158692 L 13.5,3.515625 12,5.0153809 v 4.734375 4.7343751 L 13.5,12.984375 15,11.484619 Z M 12.484375,2.5 13.984131,1 H 9.2497559 4.5153809 L 3.015625,2.5 1.5158692,4 h 4.7343749 4.7343749 z"
       id="path825"
       inkscape:connector-curvature="0" />
    <path
       style="fill:#fefefe;stroke-width:0.03125"
       d="M 12,9.7497559 V 5.0153809 L 13.5,3.515625 15,2.0158692 v 4.7343749 4.7343749 l -1.5,1.499756 -1.5,1.499756 z"
       id="path823"
       inkscape:connector-curvature="0" />
    <path
       style="fill:#7fb3fe;stroke-width:0.03125"
       d="M 2,10 V 6 h 4 4 l -2.812e-4,3.8359375 c -1.563e-4,2.1097655 -0.00914,3.9097655 -0.019978,4.0000005 L 9.9600444,14 H 5.9800222 2 Z M 4.5,2.484375 4.9836187,2 H 8.2492438 11.514869 L 11.03125,2.484375 10.547631,2.96875 H 7.2820062 4.0163812 Z"
       id="path821"
       inkscape:connector-curvature="0" />
    <path
       style="fill:#464646;stroke-width:0.03125"
       d="M 1.2262769,14.937669 C 1.1702604,14.903515 1.0964848,14.82974 1.0623312,14.773723 1.0010989,14.673294 1.0002336,14.60678 1.0002336,10 c 0,-4.6067797 8.653e-4,-4.6732941 0.062098,-4.7737231 C 1.0964848,5.1702603 1.1702604,5.096485 1.2262769,5.0623312 1.3267107,5.0010959 1.3933854,5.0002319 6.0275494,5.0001169 L 10.726974,5 10.863487,5.1365131 11,5.2730263 10.999875,9.9724506 c -1.25e-4,4.6341644 -9.78e-4,4.7008384 -0.06221,4.8012724 -0.03415,0.05602 -0.107929,0.129792 -0.163946,0.163946 -0.100429,0.06123 -0.166943,0.0621 -4.7737231,0.0621 -4.6067798,0 -4.6732941,-8.65e-4 -4.7737231,-0.0621 z m 8.7534737,-1.101731 c 0.010839,-0.09023 0.019829,-1.890235 0.019978,-4.0000005 L 10,6 H 6 2 v 4 4 H 5.9800222 9.9600444 Z M 3.015625,2.5 4.5153809,1 h 4.734375 4.7343751 L 12.484375,2.5 10.984619,4 H 6.2502441 1.5158692 Z M 11.03125,2.484375 11.514869,2 H 8.2492438 4.9836187 L 4.5,2.484375 4.0163812,2.96875 h 3.265625 3.2656248 z"
       id="path819"
       inkscape:connector-curvature="0" />
  </g>
</svg>
