<?xml version="1.0" encoding="UTF-8" standalone="no"?>
<!-- Created with Inkscape (http://www.inkscape.org/) -->

<svg
   xmlns:dc="http://purl.org/dc/elements/1.1/"
   xmlns:cc="http://creativecommons.org/ns#"
   xmlns:rdf="http://www.w3.org/1999/02/22-rdf-syntax-ns#"
   xmlns:svg="http://www.w3.org/2000/svg"
   xmlns="http://www.w3.org/2000/svg"
   xmlns:sodipodi="http://sodipodi.sourceforge.net/DTD/sodipodi-0.dtd"
   xmlns:inkscape="http://www.inkscape.org/namespaces/inkscape"
   version="1.1"
   id="svg2"
   width="16"
   height="16"
   viewBox="0 0 16 16"
   sodipodi:docname="NODE_VOLUMEPRINCIPLED.svg"
   inkscape:version="0.92.4 (5da689c313, 2019-01-14)">
  <metadata
     id="metadata8">
    <rdf:RDF>
      <cc:Work
         rdf:about="">
        <dc:format>image/svg+xml</dc:format>
        <dc:type
           rdf:resource="http://purl.org/dc/dcmitype/StillImage" />
        <dc:title></dc:title>
      </cc:Work>
    </rdf:RDF>
  </metadata>
  <defs
     id="defs6" />
  <sodipodi:namedview
     pagecolor="#ffffff"
     bordercolor="#666666"
     borderopacity="1"
     objecttolerance="10"
     gridtolerance="10"
     guidetolerance="10"
     inkscape:pageopacity="0"
     inkscape:pageshadow="2"
     inkscape:window-width="1009"
     inkscape:window-height="838"
     id="namedview4"
     showgrid="false"
     inkscape:zoom="14.75"
     inkscape:cx="8"
     inkscape:cy="8"
     inkscape:window-x="0"
     inkscape:window-y="0"
     inkscape:window-maximized="0"
     inkscape:current-layer="svg2" />
  <g
     id="NODE_VOLUMEPRINCIPLED">
    <path
       style="fill:#ffffff;stroke-width:0.03125"
       d="M 0,8 V 0 h 8 8 v 8 8 H 8 0 Z m 9.234375,7.409887 c 1.307585,-0.224235 2.458183,-0.736795 3.453076,-1.538252 0.385636,-0.310656 1.050687,-0.995119 1.332897,-1.3718 0.733654,-0.979249 1.199262,-2.090798 1.407115,-3.35921 0.0802,-0.4894316 0.0802,-1.7918184 0,-2.28125 C 15.21961,5.5909634 14.754002,4.4794141 14.020348,3.5001647 13.738138,3.1234842 13.073087,2.4390213 12.687451,2.1283649 11.673813,1.3118082 10.494122,0.79433234 9.140625,0.57253706 c -0.4894316,-0.0802023 -1.7918184,-0.0802023 -2.28125,0 C 5.5058784,0.79433234 4.3261869,1.3118082 3.3125488,2.1283649 2.9269135,2.4390213 2.2618616,3.1234842 1.9796525,3.5001647 1.2459985,4.4794141 0.78038959,5.5909634 0.57253706,6.859375 c -0.0802023,0.4894316 -0.0802023,1.7918184 0,2.28125 0.22179528,1.353497 0.73927114,2.533188 1.55582784,3.546826 0.3106564,0.385636 0.9951193,1.050687 1.3717998,1.332897 1.0955928,0.820818 2.3782881,1.314176 3.7967103,1.460315 0.06875,0.0071 0.4484375,0.0085 0.84375,0.0032 0.5478163,-0.0074 0.8079328,-0.02497 1.09375,-0.07398 z"
       id="path827"
       inkscape:connector-curvature="0" />
    <path
       style="fill:#98cbfe;stroke-width:0.03125"
       d="M 7.421875,14.980816 C 7.0751806,14.944671 6.6021466,14.861504 6.2687884,14.778087 3.8136863,14.163732 1.8362677,12.186314 1.2219136,9.7312116 1.0560565,9.0684081 1.0169904,8.7383737 1.0169904,8 c 0,-0.7383738 0.039066,-1.0684081 0.2049232,-1.7312116 C 1.8362677,3.8136863 3.8136863,1.8362677 6.2687884,1.2219136 6.9315919,1.0560565 7.2616262,1.0169904 8,1.0169904 c 0.7383738,0 1.0684081,0.039066 1.7312116,0.2049232 C 12.186314,1.8362677 14.163732,3.8136863 14.778087,6.2687884 14.943943,6.9315919 14.98301,7.2616263 14.98301,8 c 0,0.7383738 -0.03907,1.0684081 -0.204923,1.7312116 C 14.657103,10.214688 14.5106,10.60789 14.264595,11.109375 14.06544,11.515355 13.661919,12.163393 13.617547,12.148507 13.571374,12.133017 8.0625,6.6094584 8.0625,6.5786522 8.0625,6.5613616 8.5335938,6.0759681 9.109375,5.5 L 10.15625,4.4527853 9.0789978,3.3758728 8.0017459,2.2989601 6.9713022,3.3291675 C 6.4045578,3.8957816 5.9171219,4.3642853 5.8881106,4.3702866 5.8545203,4.377235 5.7147378,4.2609472 5.5032394,4.0501044 L 5.1711159,3.7190106 4.4447756,4.4458444 3.7184353,5.1726781 4.0467178,5.4998431 C 4.2272731,5.6797841 4.375,5.8486309 4.375,5.8750587 4.375,5.9368716 3.8107866,6.5 3.7488544,6.5 3.7230891,6.5 3.5549313,6.3524206 3.37517,6.1720456 L 3.0483319,5.8440912 2.3214406,6.5698381 1.5945493,7.2955853 3.3829728,9.0852878 5.1713959,10.874991 5.8980784,10.148802 6.6247606,9.4226128 6.2811303,9.078005 C 6.0921338,8.8884706 5.9375,8.7192906 5.9375,8.7020497 5.9375,8.6613888 6.5382534,8.0625 6.5790413,8.0625 c 0.03055,0 5.5541027,5.509252 5.5694657,5.555047 0.01489,0.04437 -0.633152,0.447893 -1.039132,0.647048 -0.996134,0.488657 -1.8648722,0.698955 -2.96875,0.718657 -0.3265625,0.0058 -0.65,0.0047 -0.71875,-0.0024 z"
       id="path825"
       inkscape:connector-curvature="0" />
    <path
       style="fill:#5f85bf;stroke-width:0.03125"
       d="M 2.6725038,8.3742072 2.3312502,8.0282966 3.0405812,7.3189656 3.7499122,6.6096344 4.0937469,6.9534691 4.4375813,7.2973034 3.7256694,8.0087106 3.0137573,8.7201178 Z"
       id="path823"
       inkscape:connector-curvature="0" />
    <path
       style="fill:#cb6532;stroke-width:0.03125"
       d="M 9.7575656,11.210691 7.2810737,8.7340522 8.0078834,8.0077363 l 0.7268094,-0.726316 2.4764912,2.4766388 2.476492,2.4766389 -0.726809,0.726316 -0.72681,0.726316 z M 4.0552787,5.5182516 3.7199325,5.1701947 4.4459037,4.4451337 5.171875,3.7200731 5.5224028,4.0671494 c 0.2759378,0.2732212 0.344576,0.357865 0.3225588,0.3977759 -0.04482,0.081246 -1.392045,1.4105209 -1.4247113,1.4057291 C 4.4039562,5.8682637 4.2397191,5.7096831 4.0552787,5.5182516 Z"
       id="path821"
       inkscape:connector-curvature="0" />
    <path
       style="fill:#323232;stroke-width:0.03125"
       d="M 7.296875,15.480663 C 5.8784528,15.334524 4.5957575,14.841166 3.5001647,14.020348 3.1234842,13.738138 2.4390213,13.073087 2.1283649,12.687451 1.3118082,11.673813 0.79433234,10.494122 0.57253706,9.140625 c -0.0802023,-0.4894316 -0.0802023,-1.7918184 0,-2.28125 C 0.78038959,5.5909634 1.2459985,4.4794141 1.9796525,3.5001647 2.2618616,3.1234842 2.9269135,2.4390213 3.3125488,2.1283649 4.3261869,1.3118082 5.5058784,0.79433234 6.859375,0.57253706 c 0.4894316,-0.0802023 1.7918184,-0.0802023 2.28125,0 1.353497,0.22179528 2.533188,0.73927114 3.546826,1.55582784 0.385636,0.3106564 1.050687,0.9951193 1.332897,1.3717998 0.733654,0.9792494 1.199262,2.0907987 1.407115,3.3592103 0.0802,0.4894316 0.0802,1.7918184 0,2.28125 -0.207853,1.268412 -0.673461,2.379961 -1.407115,3.35921 -0.28221,0.376681 -0.947261,1.061144 -1.332897,1.3718 -0.994893,0.801457 -2.145491,1.314017 -3.453076,1.538252 -0.2858172,0.04901 -0.5459337,0.06661 -1.09375,0.07398 -0.3953125,0.0053 -0.775,0.0039 -0.84375,-0.0032 z m 1.8125,-0.571614 c 1.003214,-0.17016 1.944118,-0.535548 2.734375,-1.06186 0.210935,-0.140483 0.338963,-0.207789 0.358472,-0.188452 0.04185,0.04149 1.492789,-1.408908 1.454992,-1.454451 -0.01735,-0.02091 0.05338,-0.154978 0.190449,-0.360963 0.403684,-0.606659 0.750996,-1.395078 0.930424,-2.1121114 C 14.943943,9.0684081 14.98301,8.7383738 14.98301,8 14.98301,7.2616262 14.94394,6.9315919 14.778087,6.2687884 14.163732,3.8136863 12.186314,1.8362677 9.7312116,1.2219136 9.0684081,1.0560565 8.7383737,1.0169904 8,1.0169904 c -0.7383738,0 -1.0684081,0.039066 -1.7312116,0.2049232 C 3.8136863,1.8362677 1.8362677,3.8136863 1.2219136,6.2687884 1.0560565,6.9315919 1.0169904,7.2616262 1.0169904,8 c 0,0.7383738 0.039066,1.0684081 0.2049232,1.7312116 0.6143541,2.4551024 2.5917727,4.4325204 5.0468748,5.0468754 0.3333582,0.08342 0.8063922,0.166584 1.1530866,0.202729 0.3141512,0.03275 1.3246525,-0.01022 1.6875,-0.07177 z M 4.0939816,9.7966538 3.0169403,8.7179438 3.7273622,8.0070178 4.4377838,7.2960922 4.0937553,6.9531303 3.7497269,6.6101687 3.0542961,7.3050844 C 2.6718092,7.6872878 2.3446881,8 2.3273604,8 2.3100327,8 2.1379364,7.8416316 1.9449242,7.6480703 L 1.5939929,7.2961406 2.3211624,6.5701159 3.0483319,5.8440912 3.37517,6.1720456 C 3.5549313,6.3524206 3.7233534,6.50009 3.7494416,6.5002 3.77553,6.500325 3.9375,6.362575 4.109375,6.1941222 4.5597575,5.7527072 5.8528041,4.4573541 5.8959803,4.4043297 5.9161134,4.3796047 6.3981469,3.8957816 6.9671659,3.3291675 L 8.0017459,2.2989601 9.0789978,3.3758728 10.15625,4.4527853 9.109375,5.5 C 8.5335938,6.0759681 8.0625,6.5604306 8.0625,6.5765834 c 0,0.016153 0.1503875,0.181981 0.3341947,0.3685069 L 8.7308891,7.2842284 8.0160544,7.9995703 C 7.4594441,8.5565756 7.2903634,8.7088891 7.2521725,8.6877016 7.2251962,8.6727356 7.0698091,8.5259428 6.9068672,8.3614953 6.7439253,8.1970478 6.5960053,8.0625 6.5781559,8.0625 6.5372628,8.0625 5.9375,8.6622994 5.9375,8.703195 c 0,0.016611 0.1546338,0.1852756 0.3436303,0.37481 l 0.3436303,0.3446078 -0.726869,0.7263752 -0.7268688,0.726376 z"
       id="path819"
       inkscape:connector-curvature="0" />
  </g>
</svg>
