<?xml version="1.0" encoding="UTF-8" standalone="no"?>
<!-- Created with Inkscape (http://www.inkscape.org/) -->

<svg
   xmlns:dc="http://purl.org/dc/elements/1.1/"
   xmlns:cc="http://creativecommons.org/ns#"
   xmlns:rdf="http://www.w3.org/1999/02/22-rdf-syntax-ns#"
   xmlns:svg="http://www.w3.org/2000/svg"
   xmlns="http://www.w3.org/2000/svg"
   xmlns:sodipodi="http://sodipodi.sourceforge.net/DTD/sodipodi-0.dtd"
   xmlns:inkscape="http://www.inkscape.org/namespaces/inkscape"
   version="1.1"
   id="svg2"
   width="16"
   height="16"
   viewBox="0 0 16 16"
   sodipodi:docname="QUADVIEW.svg"
   inkscape:version="0.92.4 (5da689c313, 2019-01-14)">
  <metadata
     id="metadata8">
    <rdf:RDF>
      <cc:Work
         rdf:about="">
        <dc:format>image/svg+xml</dc:format>
        <dc:type
           rdf:resource="http://purl.org/dc/dcmitype/StillImage" />
        <dc:title></dc:title>
      </cc:Work>
    </rdf:RDF>
  </metadata>
  <defs
     id="defs6" />
  <sodipodi:namedview
     pagecolor="#ffffff"
     bordercolor="#666666"
     borderopacity="1"
     objecttolerance="10"
     gridtolerance="10"
     guidetolerance="10"
     inkscape:pageopacity="0"
     inkscape:pageshadow="2"
     inkscape:window-width="1113"
     inkscape:window-height="743"
     id="namedview4"
     showgrid="false"
     inkscape:zoom="14.75"
     inkscape:cx="8"
     inkscape:cy="8"
     inkscape:window-x="0"
     inkscape:window-y="0"
     inkscape:window-maximized="0"
     inkscape:current-layer="svg2" />
  <g
     id="QUADVIEW">
    <path
       style="fill:#ffffff;stroke-width:0.03125"
       d="M 0,8 V 0 h 8 8 v 8 8 H 8 0 Z M 15,8 V 1 H 8 1 v 7 7 h 7 7 z"
       id="path823"
       inkscape:connector-curvature="0" />
    <path
       style="fill:#fefefe;stroke-width:0.03125"
       d="M 1,8 V 1 h 7 7 v 7 7 H 8 1 Z m 6.53125,3.25 V 8.5 H 4.765625 2 V 11.25 14 H 4.765625 7.53125 Z M 14,11.25 V 8.5 H 11.25 8.5 V 11.25 14 H 11.25 14 Z M 7.53125,4.765625 V 2 H 4.765625 2 V 4.765625 7.53125 H 4.765625 7.53125 Z m 6.46875,0 V 2 H 11.25 8.5 V 4.765625 7.53125 H 11.25 14 Z"
       id="path821"
       inkscape:connector-curvature="0" />
    <path
       style="fill:#98cbfe;stroke-width:0.03125"
       d="M 2,11.25 V 8.5 H 4.765625 7.53125 V 11.25 14 H 4.765625 2 Z m 6.5,0 V 8.5 H 11.25 14 V 11.25 14 H 11.25 8.5 Z M 2,4.765625 V 2 H 4.765625 7.53125 V 4.765625 7.53125 H 4.765625 2 Z m 6.5,0 V 2 H 11.25 14 V 4.765625 7.53125 H 11.25 8.5 Z"
       id="path819"
       inkscape:connector-curvature="0" />
  </g>
</svg>
