<?xml version="1.0" encoding="UTF-8" standalone="no"?>
<!-- Created with Inkscape (http://www.inkscape.org/) -->

<svg
   xmlns:dc="http://purl.org/dc/elements/1.1/"
   xmlns:cc="http://creativecommons.org/ns#"
   xmlns:rdf="http://www.w3.org/1999/02/22-rdf-syntax-ns#"
   xmlns:svg="http://www.w3.org/2000/svg"
   xmlns="http://www.w3.org/2000/svg"
   xmlns:sodipodi="http://sodipodi.sourceforge.net/DTD/sodipodi-0.dtd"
   xmlns:inkscape="http://www.inkscape.org/namespaces/inkscape"
   version="1.1"
   id="svg2"
   width="16"
   height="16.03125"
   viewBox="0 0 16 16.03125"
   sodipodi:docname="ICON_NDOF_TURN.svg"
   inkscape:version="0.92.4 (5da689c313, 2019-01-14)">
  <metadata
     id="metadata8">
    <rdf:RDF>
      <cc:Work
         rdf:about="">
        <dc:format>image/svg+xml</dc:format>
        <dc:type
           rdf:resource="http://purl.org/dc/dcmitype/StillImage" />
        <dc:title />
      </cc:Work>
    </rdf:RDF>
  </metadata>
  <defs
     id="defs6" />
  <sodipodi:namedview
     pagecolor="#ffffff"
     bordercolor="#666666"
     borderopacity="1"
     objecttolerance="10"
     gridtolerance="10"
     guidetolerance="10"
     inkscape:pageopacity="0"
     inkscape:pageshadow="2"
     inkscape:window-width="828"
     inkscape:window-height="480"
     id="namedview4"
     showgrid="false"
     inkscape:zoom="14.721248"
     inkscape:cx="-6.8424918"
     inkscape:cy="8.0156252"
     inkscape:window-x="0"
     inkscape:window-y="0"
     inkscape:window-maximized="0"
     inkscape:current-layer="svg2" />
  <g
     id="NDOF_TURN">
    <path
       style="fill:#ffffff;stroke-width:0.03125"
       d="M 0,8.015625 V 0 h 8 8 V 8.015625 16.03125 H 8 0 Z m 12.462612,7.909695 c 0.658683,-0.100759 1.296271,-0.287805 1.738132,-0.509906 0.613089,-0.308169 1.026164,-0.742752 1.211204,-1.274269 l 0.08722,-0.25052 V 13 12.109375 l -0.08762,-0.251696 c -0.09488,-0.272553 -0.225218,-0.487397 -0.418041,-0.6891 l -0.122648,-0.128296 0.110046,-0.328914 C 15.202889,10.047861 15.224327,9.8829638 15.241411,8.7075231 15.257605,7.5932837 15.234769,7.1948887 15.124166,6.6620725 14.949497,5.8206366 14.541546,4.9774662 13.962691,4.26149 L 13.757227,4.0073547 14.100625,3.66774 c 0.18887,-0.1867884 0.363025,-0.3848666 0.387012,-0.4401737 0.05394,-0.1243725 0.06238,-1.2675726 0.01037,-1.4052194 C 14.446296,1.6854683 14.315977,1.5685263 14.159016,1.5181465 14.080151,1.4928332 12.911719,1.2519518 11.5625,0.98285456 8.9744959,0.46668556 8.8972075,0.45580353 8.7261656,0.58350481 8.5214519,0.73634572 8.5165125,0.75624703 8.5060638,1.4703247 l -0.00956,0.6534325 0.48781,2.445934 c 0.2682956,1.3452635 0.5085209,2.5104597 0.5338344,2.5893251 0.098543,0.3070178 0.4182303,0.4550678 0.7094198,0.3285384 0.05531,-0.024032 0.359645,-0.3043534 0.676305,-0.6229356 l 0.575746,-0.57924 0.205504,0.2207162 c 0.308386,0.3312138 0.55122,0.6654622 0.705027,0.9704313 0.140696,0.2789743 0.25881,0.6036825 0.230051,0.6324409 -0.0088,0.00879 -0.169504,-0.00761 -0.35715,-0.036429 C 11.828208,8.0057466 10.286774,7.9948666 9.859375,8.0555725 8.8405213,8.2002863 8.1681781,8.4506209 7.7957097,8.82394 7.5147131,9.1055784 7.5,9.1657934 7.5,10.034155 v 0.710522 l -0.1484375,0.109396 c -0.081641,0.06017 -0.1897403,0.152772 -0.2402216,0.205787 -0.050481,0.05301 -0.1235956,0.09639 -0.1624762,0.09639 -0.1644703,0 -0.775081,-0.139922 -1.1519897,-0.26398 C 4.4958209,10.464034 3.6057881,9.6760319 3.3609847,8.7356219 3.2971847,8.4905353 3.2997925,8.3723166 3.3755506,8.0753113 3.5039641,7.5718728 3.8329562,7.0237491 4.3220959,6.4983003 L 4.5348166,6.2697894 5.1345959,6.8677662 c 0.3298785,0.3288872 0.6393663,0.612716 0.687751,0.6307304 0.29014,0.108024 0.5952509,-0.041927 0.6907565,-0.3394804 0.025313,-0.078865 0.2655388,-1.2440615 0.5338344,-2.589325 l 0.48781,-2.4459339 -0.00956,-0.6534326 C 7.5147375,0.75624703 7.5097981,0.73634572 7.3050844,0.58350481 7.1340425,0.45580353 7.0567541,0.46668556 4.46875,0.98285456 3.1195313,1.2519518 1.9510989,1.4928332 1.8722338,1.5181465 1.7152726,1.5685262 1.5849544,1.6854683 1.5332381,1.8223469 c -0.043614,0.115435 -0.043959,1.2698495 -4.144e-4,1.3865562 0.018053,0.048385 0.188113,0.2441931 0.3779111,0.4351303 L 2.2558224,3.9911919 2.0438338,4.2534084 C 1.4581196,4.9779 1.0512805,5.8168891 0.87583453,6.6620725 0.76523075,7.1948888 0.74239475,7.5932838 0.75858925,8.7075231 c 0.0170872,1.1756613 0.0384996,1.3402719 0.26075095,2.0045569 0.397647,1.188523 1.2605689,2.198282 2.5092854,2.936271 0.7850681,0.463974 1.9218431,0.848163 2.9401244,0.993657 l 0.390625,0.05581 0.21875,0.207805 c 0.1203125,0.114292 0.2820312,0.250741 0.359375,0.30322 0.4997759,0.339103 1.4023344,0.634728 2.21875,0.726732 0.1632813,0.0184 0.346094,0.03899 0.40625,0.04576 0.291961,0.03285 2.094093,-0.0092 2.400112,-0.05602 z"
       id="path831"
       inkscape:connector-curvature="0" />
    <path
       style="fill:#fefefe;stroke-width:0.03125"
       d="m 10.1875,14.481484 c -0.06016,-0.0068 -0.2429687,-0.0275 -0.40625,-0.0459 C 8.8893666,14.33507 8.0428313,14.03832 7.5766659,13.662769 6.9457381,13.154483 6.8118356,12.310562 7.2608809,11.672535 7.3967178,11.479531 7.6489431,11.255806 7.8720878,11.130392 L 8,11.058501 v 0.755089 c 0,0.848855 0.00969,0.895833 0.219035,1.061636 1.0418122,0.82513 4.520238,0.825035 5.562122,-1.57e-4 0.227321,-0.180037 0.250093,-0.278181 0.250093,-1.077853 0,-0.386907 0.01173,-0.703466 0.02607,-0.703466 0.03568,0 0.375339,0.237529 0.485025,0.339186 C 14.8237,11.6937 15,12.104125 15,12.498358 c 0,0.997713 -0.91859,1.662392 -2.662388,1.926469 -0.306279,0.04638 -1.876794,0.08777 -2.150112,0.05666 z m 0.03125,-4.015206 C 9.5334022,10.401246 8.9637678,10.264666 8.5418309,10.064207 7.3495469,9.4977606 8.2231566,8.7212009 10.265625,8.53191 c 1.168175,-0.1082634 2.45801,0.054912 3.192544,0.4038834 1.192284,0.566446 0.318674,1.3430056 -1.723794,1.5322966 -0.391664,0.0363 -1.123216,0.03542 -1.515625,-0.0018 z"
       id="path829"
       inkscape:connector-curvature="0" />
    <path
       style="fill:#cbfefe;stroke-width:0.03125"
       d="M 6.1875,13.078164 C 4.0714066,12.651423 2.4961701,11.595436 1.7355902,10.09375 1.1971599,9.0306756 1.1042952,7.6261797 1.4879683,6.3486916 1.7369426,5.5197003 2.2164728,4.7675572 3.0325671,3.9259888 L 3.464965,3.4800938 2.7336603,2.7492858 C 2.3314427,2.3473413 2.0067439,2.0140895 2.0121073,2.008726 2.0280144,1.9928189 7.0102134,0.99979675 7.0208334,1.0104167 7.0261866,1.0157698 6.80572,2.1438823 6.5309081,3.5173334 6.2560962,4.8907844 6.03125,6.02169 6.03125,6.0304569 c 0,0.00877 -0.3421616,-0.3260082 -0.7603591,-0.7439441 L 4.5105319,4.5266287 4.4069225,4.6461269 C 4.3499375,4.7118509 4.1731769,4.9021322 4.0141213,5.0689741 3.1617988,5.9630219 2.8147604,6.7135931 2.760058,7.78125 c -0.064264,1.25427 0.4344423,2.2169509 1.5374767,2.96788 0.5013153,0.341288 1.3973525,0.70239 2.0618403,0.83092 0.1546875,0.02992 0.2852803,0.05748 0.2902062,0.06124 0.00493,0.0038 -0.026715,0.113096 -0.070312,0.242972 C 6.5074922,12.098076 6.5,12.16787 6.5,12.622697 c 0,0.571808 0.032138,0.524968 -0.3125,0.455467 z M 14.455168,9.1965675 C 14.352417,8.8706041 13.875991,8.4901231 13.387267,8.3437259 l -0.128358,-0.03845 -0.01787,-0.4417007 C 13.231211,7.6206403 13.200274,7.3044591 13.17229,7.1609503 13.027324,6.4175178 12.659863,5.7735444 11.968856,5.0519431 11.801599,4.8772806 11.628386,4.6921875 11.583937,4.640625 l -0.08082,-0.09375 -0.751561,0.7497559 C 10.338203,5.7089966 10,6.0392159 10,6.0304519 10,6.0216878 9.7751538,4.8907844 9.5003419,3.5173334 9.22553,2.1438823 9.0050634,1.0157698 9.0104166,1.0104167 9.0157697,1.0050635 10.143883,1.2255298 11.517333,1.5003418 12.890784,1.7751538 14.021688,2 14.030452,2 c 0.0088,0 -0.320419,0.3365732 -0.731519,0.7479404 l -0.747453,0.7479405 0.42513,0.4392694 c 1.103852,1.1405638 1.593989,2.1112884 1.740166,3.4464306 0.04176,0.3814228 0.04199,0.8026138 6.47e-4,1.1652941 C 14.680888,8.86735 14.568664,9.375 14.534352,9.375 c -0.01262,0 -0.04825,-0.080295 -0.07919,-0.1784325 z"
       id="path827"
       inkscape:connector-curvature="0" />
    <path
       style="fill:#989898;stroke-width:0.03125"
       d="M 10.1875,15.479516 C 8.6751637,15.334589 7.69935,14.950464 7.2608809,14.327465 7.04547,14.021398 6.9998197,13.833355 7.0010466,13.257156 l 0.00105,-0.491531 0.064354,0.187168 c 0.3094534,0.900025 1.5620128,1.461862 3.4257414,1.536618 L 11,14.50978 V 15.00489 15.5 L 10.648438,15.495 C 10.455078,15.4922 10.247656,15.4853 10.1875,15.47952 Z m 2.812737,-0.690453 2.5e-4,-0.492188 0.250881,-0.06987 c 0.898701,-0.250299 1.482338,-0.693152 1.683202,-1.277182 l 0.06335,-0.184195 10e-4,0.491531 c 8.84e-4,0.415025 -0.009,0.522034 -0.06365,0.6875 -0.131445,0.398186 -0.455697,0.741422 -0.936935,0.99179 -0.235054,0.122282 -0.846625,0.344804 -0.947657,0.344804 -0.04467,0 -0.0507,-0.0588 -0.05049,-0.492187 z M 6.28125,14.094152 C 3.8597066,13.635646 2.1036555,12.328873 1.5043667,10.539416 1.3383031,10.043555 1.2806296,9.69608 1.2644167,9.09375 c -0.0081,-0.3007812 -0.00813,-0.5328125 -7.19e-5,-0.515625 0.00806,0.017188 0.043545,0.1753769 0.078862,0.3515322 0.2826833,1.4099768 1.1088517,2.4948848 2.5268819,3.3182528 0.6141534,0.356604 1.6232437,0.709998 2.4189722,0.847149 l 0.2109375,0.03636 v 0.366825 c 0,0.224631 0.016985,0.423262 0.043817,0.512417 0.024099,0.08008 0.041677,0.144268 0.039063,0.142649 -0.00262,-0.0016 -0.1383478,-0.02824 -0.301629,-0.05916 z m 3.9375,-1.627874 C 9.1103869,12.361107 8.2222816,12.037103 8.0505834,11.675276 8.0072113,11.583876 8.0001016,11.426792 8.0007116,10.573402 8.0013834,9.6358047 8.0043459,9.5840547 8.0518556,9.6804428 8.1918347,9.9644334 8.8394703,10.25513 9.625,10.38656 c 0.3592206,0.0601 0.913368,0.113378 1.179688,0.113414 L 11,10.5 v 1 1 L 10.742188,12.4957 C 10.600391,12.4934 10.364844,12.4801 10.21875,12.46624 Z m 2.788632,-1.222654 0.0082,-1.003305 0.15625,-0.05318 c 0.425546,-0.144831 0.750381,-0.3808847 0.818596,-0.5948641 0.05019,-0.157435 0.05466,1.7624081 0.0046,1.9613441 -0.06236,0.24764 -0.357446,0.473648 -0.83127,0.636668 l -0.164634,0.05664 z m 1.525849,-1.3205465 c -0.0017,-0.3909631 0.01035,-0.5189316 0.07328,-0.78125 0.04139,-0.1725362 0.09007,-0.3769838 0.108164,-0.4543275 0.06793,-0.2903631 0.01224,0.9243906 -0.05756,1.2556081 -0.105123,0.4988059 -0.121697,0.4961259 -0.123884,-0.020031 z M 2.7643885,8.3015459 C 2.728638,8.2135197 2.7709228,7.4555116 2.8280156,7.1609503 2.9705123,6.4257613 3.3371819,5.7790528 4.0141212,5.0689741 4.1731769,4.9021322 4.3499375,4.7118509 4.4069225,4.6461269 l 0.1036094,-0.1194981 0.760359,0.759884 C 5.6890884,5.7044488 6.0319362,6.0324419 6.0327747,6.0153859 6.0336122,5.99833 6.2572269,4.8804688 6.5296937,3.53125 l 0.4953944,-2.453125 0.00308,0.4693039 0.00308,0.4693039 -0.5,2.4988922 c -0.275,1.3743906 -0.5,2.506065 -0.5,2.5148319 0,0.00877 -0.3421616,-0.3260081 -0.7603591,-0.7439441 L 4.5105319,5.5266288 4.4069225,5.6461269 C 4.3499375,5.7118509 4.1731769,5.9021322 4.0141213,6.0689741 3.35118,6.7643697 2.9920756,7.3855366 2.8435728,8.09375 2.804512,8.2800322 2.7808594,8.3421013 2.7643885,8.3015459 Z M 13.157663,8.0882569 C 13.025644,7.41722 12.634248,6.7467959 11.968856,6.0519431 11.801599,5.8772806 11.628386,5.6921875 11.583937,5.640625 l -0.08082,-0.09375 -0.751561,0.7497559 C 10.338203,6.7089966 10,7.0392159 10,7.0304519 10,7.0216878 9.775,5.8900156 9.5,4.515625 L 9,2.0167328 9.0030809,1.5474289 9.0061619,1.078125 9.5015563,3.53125 c 0.2724668,1.3492188 0.4960803,2.4670775 0.496919,2.4841309 8.375e-4,0.017053 0.3397277,-0.3063843 0.7530857,-0.71875 l 0.751561,-0.7497559 0.08082,0.09375 c 0.04445,0.051563 0.217662,0.2366556 0.384919,0.4113181 0.888291,0.92762 1.224232,1.6668885 1.272217,2.7996194 0.0198,0.4673791 -0.01731,0.5726803 -0.08341,0.2366944 z M 12.796739,3.7498628 12.547692,3.4993472 13.289471,2.7575683 14.03125,2.0157895 v 0.500284 0.5002841 L 13.538517,3.5083681 13.045785,4.0003784 Z M 2.4761844,3.4918209 2,3.014892 V 2.5155079 2.0161237 L 2.7341546,2.7497797 3.4683091,3.4834356 3.2270753,3.7260928 C 3.0943965,3.8595544 2.9783099,3.96875 2.969105,3.96875 c -0.0092,0 -0.2310192,-0.2146181 -0.4929206,-0.4769291 z"
       id="path825"
       inkscape:connector-curvature="0" />
    <path
       style="fill:#0065fe;stroke-width:0.03125"
       d="M 10.21875,13.466278 C 9.1103869,13.361107 8.2222816,13.037103 8.0505834,12.675276 c -0.040112,-0.08453 -0.050436,-0.209123 -0.049872,-0.601874 6.875e-4,-0.477446 0.00253,-0.491593 0.051144,-0.392959 0.1399791,0.28399 0.7876147,0.574687 1.5731444,0.706117 1.9257792,0.322212 4.1783632,-0.09666 4.3677042,-0.812182 0.02576,-0.09736 0.03272,-0.01803 0.03532,0.402525 0.0037,0.600595 -0.03112,0.7273 -0.246863,0.89817 -0.582233,0.461138 -2.164986,0.723806 -3.562407,0.591205 z"
       id="path823"
       inkscape:connector-curvature="0" />
    <path
       style="fill:#656565;stroke-width:0.03125"
       d="M 11,15.00489 V 14.5 l 0.289063,-2.6e-5 c 0.456367,-3.1e-5 1.084361,-0.06821 1.609375,-0.174688 L 13,14.304688 v 0.500029 0.500029 l -0.273437,0.05143 c -0.462323,0.08695 -0.691441,0.111992 -1.21875,0.133191 L 11,15.50978 Z m 0,-3.495264 v -1 l 0.407052,-0.0206 c 0.555962,-0.02814 1.2048,-0.123627 1.538261,-0.226385 C 12.996608,10.246833 13,10.307864 13,11.24669 v 1.000901 l -0.117187,0.03106 c -0.414324,0.109808 -0.923844,0.182442 -1.475761,0.210376 L 11,12.509626 Z"
       id="path821"
       inkscape:connector-curvature="0" />
    <path
       style="fill:#323232;stroke-width:0.03125"
       d="M 10.0625,15.981343 C 10.002344,15.974573 9.8195313,15.95398 9.65625,15.935579 8.8398344,15.843575 7.9372759,15.54795 7.4375,15.208847 7.3601562,15.156368 7.1984375,15.019919 7.078125,14.905627 L 6.859375,14.697822 6.46875,14.642008 C 5.4504687,14.496514 4.3136937,14.112325 3.5286256,13.648351 2.2799091,12.910362 1.4169872,11.900603 1.0193401,10.71208 0.79708878,10.047795 0.77567637,9.8831844 0.75858916,8.7075231 0.74239466,7.5932837 0.76523066,7.1948887 0.87583444,6.6620725 1.0512804,5.8168891 1.4581195,4.9779 2.0438337,4.2534084 L 2.2558223,3.9911919 1.9107347,3.6440334 C 1.7209366,3.4530963 1.5508766,3.2572878 1.5328236,3.2089031 1.4892786,3.0921964 1.4896237,1.9377819 1.5332381,1.8223469 1.5849544,1.6854683 1.7152726,1.5685262 1.8722338,1.5181465 1.9510989,1.4928332 3.1195313,1.2519518 4.46875,0.98285456 7.0567541,0.46668556 7.1340425,0.45580353 7.3050844,0.58350481 7.5097981,0.73634572 7.5147375,0.75624703 7.5251862,1.4703247 l 0.00956,0.6534325 -0.48781,2.445934 C 6.7786422,5.9149547 6.5384169,7.0801509 6.5131034,7.1590163 6.4175978,7.45657 6.1124869,7.6065206 5.8223469,7.4984966 5.7739622,7.4804822 5.4644744,7.1966534 5.1345959,6.8677663 L 4.5348166,6.2697894 4.3220959,6.4983003 c -0.4891396,0.5254488 -0.8181318,1.0735725 -0.9465453,1.577011 -0.075758,0.2970053 -0.078366,0.415224 -0.014566,0.6603106 0.2448034,0.94041 1.1348362,1.7284121 2.4358903,2.1566481 0.3769088,0.124058 0.9875194,0.26398 1.1519897,0.26398 0.038881,0 0.111995,-0.04338 0.1624762,-0.09639 0.050481,-0.05302 0.158581,-0.145619 0.2402216,-0.205787 L 7.5,10.744677 V 10.034155 C 7.5,9.1657934 7.5147131,9.1055784 7.7957097,8.82394 8.1681781,8.4506209 8.8405213,8.2002863 9.859375,8.0555725 c 0.427399,-0.060706 1.968833,-0.049826 2.403674,0.016966 0.187646,0.028823 0.348364,0.045216 0.35715,0.036429 0.02876,-0.028758 -0.08935,-0.3534666 -0.230051,-0.6324409 C 12.236341,7.1715575 11.993507,6.8373091 11.685121,6.5060953 l -0.205504,-0.2207162 -0.575746,0.57924 C 10.587211,7.1832013 10.282873,7.4635222 10.227566,7.4875547 9.9363769,7.6140841 9.61669,7.4660341 9.5181466,7.1590163 9.4928331,7.0801509 9.2526078,5.9149547 8.9843122,4.5696913 l -0.48781,-2.445934 0.00956,-0.6534326 C 8.5165125,0.75624703 8.5214519,0.73634572 8.7261656,0.58350481 8.8972075,0.45580353 8.9744959,0.46668556 11.5625,0.98285456 c 1.349219,0.26909724 2.517651,0.50997874 2.596516,0.53529194 0.156962,0.05038 0.28728,0.1673218 0.338996,0.3042004 0.05201,0.1376468 0.04357,1.2808469 -0.01037,1.4052194 C 14.463652,3.2828733 14.2895,3.4809516 14.10063,3.66774 L 13.757227,4.0073547 13.962691,4.26149 c 0.578855,0.7159763 0.986807,1.5591466 1.161475,2.4005825 0.110603,0.5328163 0.133439,0.9312113 0.117245,2.0454506 -0.01708,1.1754407 -0.03852,1.3403379 -0.260513,2.0038459 l -0.110046,0.328914 0.122648,0.128296 c 0.192823,0.201703 0.323158,0.416547 0.418041,0.6891 l 0.08762,0.251696 V 13 13.890625 l -0.08722,0.25052 c -0.18504,0.531517 -0.598115,0.9661 -1.211204,1.274269 -0.441861,0.222101 -1.079449,0.409147 -1.738132,0.509906 -0.306019,0.04681 -2.108151,0.08888 -2.400112,0.05602 z m 2.275112,-0.556516 C 13.797735,15.203709 14.68694,14.697039 14.935309,13.944656 14.993493,13.768399 15,13.673216 15,12.998358 15,12.323683 14.9935,12.228782 14.9357,12.057141 14.815577,11.700564 14.563034,11.400072 14.196204,11.177245 l -0.163176,-0.09912 -8.88e-4,-0.761999 C 14.031549,9.8073019 14.01852,9.5116394 13.99294,9.4262506 13.835136,8.8995453 12.544205,8.5000522 11.000003,8.5000522 c -1.1885571,0 -2.3103749,0.2520075 -2.7809652,0.6247222 C 8.0077497,9.2921153 8,9.33166 8,10.242468 v 0.811149 L 7.8203125,11.164985 C 7.4319944,11.40566 7.1859666,11.695996 7.0643053,12.057141 7.0064837,12.228782 7,12.323683 7,12.998358 c 0,0.862628 0.026078,0.995486 0.2608809,1.329107 0.390105,0.554281 1.3497238,0.976191 2.5203691,1.108114 0.1632813,0.0184 0.346094,0.03906 0.40625,0.0459 0.273318,0.03111 1.843833,-0.01028 2.150112,-0.05666 z M 6.5438166,14.010658 C 6.5107512,13.900791 6.5,13.651022 6.5,12.992731 6.5,12.141778 6.50194,12.114607 6.579269,11.884258 6.622866,11.754382 6.654507,11.645045 6.649581,11.641286 6.644651,11.637486 6.5140623,11.609976 6.3593748,11.580046 5.9495528,11.500779 5.2210966,11.252143 4.8444097,11.062962 3.8643459,10.570751 3.2368219,9.92517 2.9404061,9.1041703 2.792034,8.6932156 2.7673712,8.4913825 2.8267837,8.1743184 2.965466,7.4342181 3.3317303,6.7847716 4.0141212,6.0689741 4.1731769,5.9021322 4.3499375,5.7118509 4.4069225,5.6461269 L 4.5105319,5.5266287 5.2708909,6.2865128 C 5.6890884,6.7044487 6.03125,7.0392237 6.03125,7.0304569 c 0,-0.00877 0.225,-1.1404413 0.5,-2.5148319 l 0.5,-2.4988922 V 1.5083664 C 7.03125,1.2287649 7.027485,1 7.0228837,1 7.0182822,1 5.8900156,1.225 4.515625,1.5 3.1412344,1.775 2.0129679,2 2.0083664,2 2.0037649,2 2,2.2286858 2,2.5081906 V 3.0163813 L 2.4821007,3.4977291 2.9642013,3.9790772 2.7294984,4.2428731 C 1.9856317,5.0789472 1.5497127,5.9085441 1.3628446,6.84375 1.2716247,7.3002719 1.2474275,7.7284206 1.2595264,8.671875 c 0.013239,1.0323347 0.044171,1.2683491 0.2447118,1.867157 0.5994261,1.789867 2.3552437,3.096571 4.7770118,3.55512 0.1632812,0.03092 0.2990144,0.05754 0.3016291,0.05916 0.00262,0.0016 -0.014964,-0.06257 -0.039063,-0.142649 z M 14.661018,9.9271878 C 14.719359,9.6522256 14.730072,9.4829716 14.740473,8.671875 14.755843,7.4734259 14.710092,7.0081594 14.512032,6.3486916 14.298275,5.6369625 13.866829,4.9072559 13.256701,4.2255444 L 13.051421,3.9961806 13.541336,3.5055475 14.03125,3.0149143 V 2.5074571 C 14.03125,2.2283557 14.027485,2 14.022884,2 14.018282,2 12.890016,1.775 11.515625,1.5 10.141234,1.225 9.0129678,1 9.0083663,1 9.003765,1 9,1.2287649 9,1.5083664 V 2.0167328 L 9.5,4.515625 c 0.275,1.3743906 0.5,2.5060628 0.5,2.5148269 0,0.00876 0.338203,-0.3214553 0.751561,-0.733821 l 0.751561,-0.7497559 0.08082,0.09375 c 0.04445,0.051563 0.217662,0.2366556 0.384919,0.4113181 0.664912,0.6943513 1.056803,1.3653516 1.188562,2.0350716 l 0.03773,0.1917509 0.160241,0.052506 c 0.328171,0.1075315 0.652333,0.2956481 0.848965,0.4926684 0.276763,0.2773094 0.326272,0.4399728 0.328882,1.0805653 0.0022,0.5383097 0.01779,0.5410787 0.127787,0.022683 z"
       id="path819"
       inkscape:connector-curvature="0" />
  </g>
</svg>
