<?xml version="1.0" encoding="UTF-8" standalone="no"?>
<!-- Created with Inkscape (http://www.inkscape.org/) -->

<svg
   xmlns:dc="http://purl.org/dc/elements/1.1/"
   xmlns:cc="http://creativecommons.org/ns#"
   xmlns:rdf="http://www.w3.org/1999/02/22-rdf-syntax-ns#"
   xmlns:svg="http://www.w3.org/2000/svg"
   xmlns="http://www.w3.org/2000/svg"
   xmlns:sodipodi="http://sodipodi.sourceforge.net/DTD/sodipodi-0.dtd"
   xmlns:inkscape="http://www.inkscape.org/namespaces/inkscape"
   version="1.1"
   id="svg2"
   width="16"
   height="16.03125"
   viewBox="0 0 16 16.03125"
   sodipodi:docname="ICON_NDOF_FLY.svg"
   inkscape:version="0.92.4 (5da689c313, 2019-01-14)">
  <metadata
     id="metadata8">
    <rdf:RDF>
      <cc:Work
         rdf:about="">
        <dc:format>image/svg+xml</dc:format>
        <dc:type
           rdf:resource="http://purl.org/dc/dcmitype/StillImage" />
        <dc:title />
      </cc:Work>
    </rdf:RDF>
  </metadata>
  <defs
     id="defs6" />
  <sodipodi:namedview
     pagecolor="#ffffff"
     bordercolor="#666666"
     borderopacity="1"
     objecttolerance="10"
     gridtolerance="10"
     guidetolerance="10"
     inkscape:pageopacity="0"
     inkscape:pageshadow="2"
     inkscape:window-width="828"
     inkscape:window-height="480"
     id="namedview4"
     showgrid="false"
     inkscape:zoom="14.721248"
     inkscape:cx="-6.8424918"
     inkscape:cy="8.0156252"
     inkscape:window-x="0"
     inkscape:window-y="0"
     inkscape:window-maximized="0"
     inkscape:current-layer="svg2" />
  <g
     id="NDOF_FLY">
    <path
       style="fill:#ffffff;stroke-width:0.03125"
       d="M 0,8.015625 V 0 h 8 8 V 8.015625 16.03125 H 8 0 Z m 12.462612,7.878445 c 0.658683,-0.100759 1.296271,-0.287805 1.738132,-0.509906 0.613089,-0.308169 1.026164,-0.742752 1.211204,-1.274269 l 0.08722,-0.25052 V 12.96875 12.078125 l -0.08722,-0.25052 C 15.300675,11.507978 15.12586,11.2516 14.834454,10.980667 c -0.13996,-0.130128 -0.245489,-0.256988 -0.267247,-0.321268 -0.02203,-0.06508 -0.03596,-0.332068 -0.03596,-0.6892443 0,-0.7479531 -0.03919,-0.8891863 -0.32667,-1.1772341 C 14.095921,8.6840466 13.930257,8.5594434 13.820505,8.5040409 13.646033,8.4159675 13.62414,8.3938503 13.592421,8.2736206 13.573124,8.2004731 13.522333,8.0773437 13.479554,8 13.436774,7.9226562 13.373532,7.775 13.339016,7.671875 13.304499,7.56875 13.221132,7.3737622 13.153754,7.2385687 13.086377,7.1033756 13.03125,6.9753919 13.03125,6.9541606 c 0,-0.021231 -0.03339,-0.1014022 -0.0742,-0.1781578 -0.147577,-0.2775534 -0.19811,-0.1959169 0.668971,-1.0807269 0.790105,-0.8062593 0.919049,-0.9676303 1.017518,-1.2734009 0.02768,-0.085937 0.08941,-0.26875 0.137187,-0.40625 0.0994,-0.2860487 0.07706,-0.21968 0.424077,-1.2601837 0.25085,-0.7521563 0.263949,-0.8050311 0.263949,-1.0654203 0,-0.3117652 -0.06572,-0.5459358 -0.213247,-0.75980469 -0.131756,-0.19100731 -0.17924,-0.22589897 -0.458628,-0.33700615 -0.232026,-0.0922721 -0.270221,-0.0983557 -0.53125,-0.0846174 -0.300603,0.0158212 -0.245136,-8.3375e-4 -2.15202,0.64617944 -0.410174,0.1391735 -0.803924,0.2872657 -0.875,0.3290939 -0.07108,0.041828 -0.487182,0.4352261 -0.924678,0.8742176 C 9.87643,2.7970752 9.5050094,3.15625 9.4885472,3.15625 9.4720852,3.15625 9.4011302,3.12299 9.3308706,3.08234 9.2606106,3.0416891 9.146875,2.9902655 9.078125,2.9680652 9.009375,2.9458649 8.8137466,2.8595933 8.6433953,2.7763505 8.4730441,2.6931077 8.3125609,2.625 8.2867659,2.625 8.2609709,2.625 8.1823806,2.5918716 8.1121206,2.5513813 8.0418606,2.5108909 7.9140625,2.4527205 7.828125,2.4221135 7.7421875,2.3915066 7.5302881,2.2980725 7.3572375,2.2144823 7.1841866,2.130892 7.0203028,2.0625 6.9930509,2.0625 6.9411284,2.0625 6.5853012,1.9044842 6.1090412,1.6699285 5.9541703,1.5936553 5.8104641,1.53125 5.7896944,1.53125 5.7689247,1.53125 5.6442328,1.4960937 5.5126016,1.453125 5.3772538,1.408943 5.1998794,1.375 5.1043472,1.375 4.9892653,1.375 4.8884403,1.3514827 4.7880237,1.301218 4.7069544,1.2606378 4.5421875,1.1955262 4.421875,1.1565253 4.3015625,1.1175245 4.1328125,1.0530387 4.046875,1.0132235 3.8416987,0.91816469 3.5685719,0.80824428 3.109375,0.63592491 2.7586489,0.50431056 2.7191682,0.49614472 2.4994493,0.509773 2.2126637,0.52756116 1.9083791,0.64585734 1.7452974,0.80296331 1.6698347,0.87566081 1.5972966,0.99870659 1.5310029,1.1664692 1.4379248,1.4020127 1.4316411,1.4413626 1.4427882,1.7188928 1.4527745,1.9675243 1.4694708,2.0477141 1.5422042,2.196376 1.6362896,2.3886796 1.888705,2.6356221 2.1888306,2.8289822 2.2809965,2.8883614 2.4414483,3.0079965 2.54539,3.0948379 2.7267728,3.24638 2.9662137,3.4276962 3.2042388,3.59375 c 0.061592,0.042969 0.2173968,0.1660156 0.3462325,0.2734375 0.1288353,0.1074219 0.2510443,0.1955253 0.271575,0.1957853 0.020531,2.5e-4 0.1403493,0.08815 0.2662631,0.1953125 C 4.3547766,4.4850681 4.4821662,4.5826428 4.71875,4.7411744 4.813281,4.8045184 4.9848069,4.9343706 5.0999178,5.029735 5.2150291,5.1251 5.3883466,5.259375 5.4850681,5.328125 5.6608694,5.453085 5.7336678,5.5090656 6.1367859,5.8292844 6.2549872,5.9231781 6.3652691,6 6.3818572,6 6.4163759,6 6.4893516,6.0551609 6.6985109,6.2393522 L 6.8461072,6.3693294 6.750155,6.5049772 C 6.6973812,6.5795834 6.6305525,6.6757812 6.6016469,6.71875 6.5727409,6.7617187 6.4776112,6.88125 6.3902472,6.984375 6.3028831,7.0875 6.2109784,7.2022709 6.1860144,7.2394213 6.0404941,7.4559775 5.8548969,7.7162669 5.7843725,7.8027003 5.7067884,7.8977859 5.5189762,8.1482428 5.3372825,8.3989166 5.1582856,8.64587 5.0733359,8.7589119 4.9373447,8.9311113 4.8599156,9.0291563 4.7546456,9.1726563 4.7034116,9.25 4.6521775,9.3273438 4.5457241,9.4679688 4.4668481,9.5625 4.3879722,9.6570312 4.2710816,9.8117188 4.2070909,9.90625 4.0432778,10.148247 3.9640072,10.255734 3.8412984,10.402251 L 3.734375,10.52992 3.5625,10.479173 c -0.094531,-0.02791 -0.2008238,-0.06965 -0.2362053,-0.09276 -0.035382,-0.02311 -0.1394885,-0.05627 -0.2313485,-0.07369 -0.09186,-0.01742 -0.2105675,-0.05362 -0.2637946,-0.08045 C 2.7779244,10.205458 2.565625,10.126436 2.359375,10.056678 2.0678591,9.9580806 1.9213471,9.9263394 1.7012615,9.9141003 1.276812,9.8904966 1.1161972,9.9465625 0.84710375,10.212262 0.67077678,10.386365 0.62339391,10.45599 0.56740656,10.623255 c -0.0983677,0.293878 -0.0909996,0.565726 0.0231194,0.853004 0.0905123,0.227852 0.0907957,0.228158 1.87798034,2.030388 1.7824006,1.797405 1.7881024,1.802772 2.0166765,1.897928 0.3243063,0.135008 0.64178,0.135445 0.9639525,0.0013 0.3020922,-0.125762 0.4551131,-0.284703 0.5831641,-0.605729 0.091616,-0.229682 0.096912,-0.263586 0.07675,-0.491345 -0.02409,-0.272144 -0.1062675,-0.563671 -0.3865572,-1.371325 -0.1043838,-0.300782 -0.1900269,-0.567969 -0.1903178,-0.59375 -2.813e-4,-0.02578 0.038053,-0.07118 0.08521,-0.100895 0.047157,-0.02971 0.1587084,-0.114086 0.2478919,-0.1875 0.089184,-0.07341 0.2551656,-0.203793 0.3688484,-0.28973 0.1136831,-0.08594 0.2586834,-0.198438 0.3222231,-0.25 0.06354,-0.05156 0.1631941,-0.127264 0.2214547,-0.168226 l 0.1059281,-0.07448 -0.103825,0.150905 c -0.057104,0.083 -0.143255,0.264167 -0.1914475,0.4026 l -0.087623,0.251697 v 0.890625 0.890625 l 0.087215,0.25052 c 0.1850406,0.531517 0.5981159,0.9661 1.2112043,1.274268 0.471431,0.236965 1.2303532,0.449548 1.8569941,0.520166 0.1632812,0.0184 0.3460935,0.03899 0.4062495,0.04576 0.291961,0.03285 2.094093,-0.0092 2.400112,-0.05602 z"
       id="path831"
       inkscape:connector-curvature="0" />
    <path
       style="fill:#fefefe;stroke-width:0.03125"
       d="M 4.6759647,14.924412 C 4.5562109,14.867758 4.1620612,14.48711 2.8253083,13.137151 1.8911355,12.193749 1.1264046,11.413969 1.1259062,11.404307 1.1254078,11.394645 1.096875,11.328527 1.0625,11.257379 0.949888,11.024299 1.004004,10.776317 1.2119992,10.572315 c 0.1426083,-0.13987 0.3237458,-0.19515 0.4992162,-0.152352 0.047113,0.01149 0.111909,0.02089 0.1439917,0.02088 0.032083,-6e-6 0.091107,0.02146 0.1311649,0.04771 0.040058,0.02625 0.07709,0.04568 0.082293,0.04319 0.0052,-0.0025 0.030554,0.0018 0.056335,0.0095 0.1131016,0.03396 0.3294845,0.09552 0.34375,0.0978 0.00859,0.0014 0.030269,0.01185 0.048166,0.02327 0.082548,0.05269 0.4407648,0.170269 0.4788854,0.157181 0.023472,-0.0081 0.051597,-9.5e-4 0.0625,0.0158 0.010903,0.01675 0.097167,0.05462 0.1916983,0.08417 0.094531,0.02954 0.2,0.06577 0.234375,0.0805 0.034375,0.01473 0.1398437,0.05093 0.234375,0.08044 0.094531,0.02951 0.19176,0.06103 0.2160637,0.07004 0.025125,0.0093 0.035652,0.0026 0.024401,-0.01563 -0.010884,-0.01761 0.014934,-0.06464 0.057373,-0.104508 0.042439,-0.03987 0.077162,-0.08559 0.077162,-0.101607 0,-0.01601 0.035156,-0.05677 0.078125,-0.09057 0.042969,-0.0338 0.078125,-0.0789 0.078125,-0.100214 0,-0.02132 0.042187,-0.07918 0.09375,-0.128578 0.051563,-0.0494 0.09375,-0.102909 0.09375,-0.118909 0,-0.02884 0.1322262,-0.197368 0.2508328,-0.31969 C 4.7222497,10.135797 4.75,10.090254 4.75,10.069571 4.75,10.028661 4.796711,9.9658009 4.9765625,9.7646812 5.0410155,9.6926062 5.09375,9.6198097 5.09375,9.6029112 c 0,-0.016898 0.028125,-0.056177 0.0625,-0.087286 0.034375,-0.031109 0.0625,-0.070051 0.0625,-0.086538 0,-0.016487 0.070312,-0.1111384 0.15625,-0.2103375 0.085937,-0.099199 0.15625,-0.1933994 0.15625,-0.2093344 0,-0.015935 0.042187,-0.069391 0.09375,-0.1187906 0.051563,-0.0494 0.09375,-0.1058297 0.09375,-0.1253994 0,-0.019569 0.035156,-0.068608 0.078125,-0.1089756 C 5.839844,8.6158827 5.875381,8.5677277 5.875846,8.54924 5.8763116,8.530752 5.939463,8.4453122 6.0161826,8.3593747 6.0929026,8.2734377 6.1559257,8.1890622 6.1562332,8.1718747 6.1565457,8.1546867 6.2058892,8.0888287 6.2658963,8.0255231 6.3259031,7.9622178 6.375,7.8976003 6.375,7.8819294 6.375,7.8662584 6.403125,7.8279841 6.4375,7.796875 6.471875,7.7657659 6.5,7.7213991 6.5,7.6982816 6.5,7.6751644 6.5137766,7.65625 6.530615,7.65625 c 0.016838,0 0.059072,-0.05578 0.093852,-0.123955 0.034781,-0.068175 0.091316,-0.1389828 0.1256353,-0.1573497 0.034319,-0.018367 0.062398,-0.048773 0.062398,-0.06757 0,-0.030674 0.1004863,-0.1608781 0.2802772,-0.3631656 0.03491,-0.039278 0.063473,-0.084434 0.063473,-0.1003463 0,-0.015912 0.063281,-0.106624 0.140625,-0.2015812 C 7.3742187,6.5473253 7.4375,6.4578231 7.4375,6.4433887 c 0,-0.014434 0.035135,-0.059252 0.078078,-0.099595 0.073171,-0.068741 0.074831,-0.076939 0.026407,-0.1304471 -0.028419,-0.031403 -0.070091,-0.057097 -0.092604,-0.057097 -0.022513,0 -0.055984,-0.028125 -0.074381,-0.0625 -0.018397,-0.034375 -0.05554,-0.0625 -0.082539,-0.0625 -0.027,0 -0.076744,-0.035156 -0.1105437,-0.078125 C 7.1481175,5.9101562 7.10616,5.875 7.0886775,5.875 7.071195,5.875 6.9773203,5.8040797 6.8800672,5.7173994 6.7828141,5.6307191 6.6723163,5.5520366 6.6345166,5.5425494 6.5967166,5.5330622 6.5436316,5.4914825 6.5165494,5.45015 6.4894672,5.4088175 6.4489909,5.375 6.4266019,5.375 6.4042128,5.375 6.3528672,5.3398437 6.3125,5.296875 6.2721328,5.2539062 6.2208841,5.21875 6.1986131,5.21875 6.1763425,5.21875 6.127035,5.1767041 6.0890412,5.1253144 6.0510472,5.0739247 5.9908606,5.0226888 5.9552931,5.0114562 5.9197256,5.0002241 5.8722494,4.9649263 5.8497906,4.9330169 5.8273316,4.9011075 5.7896803,4.875 5.7661213,4.875 5.7425619,4.875 5.6960075,4.8403206 5.6626669,4.7979347 5.6293259,4.7555487 5.5934762,4.7294403 5.5830009,4.7399159 5.5725253,4.7503912 5.4581584,4.6642753 5.3288522,4.5485469 5.1995459,4.4328184 5.09375,4.3490578 5.09375,4.3624122 5.09375,4.3757669 5.0515625,4.346275 5,4.296875 4.9484375,4.247475 4.90625,4.2187725 4.90625,4.2330916 c 0,0.014319 -0.034485,-0.011175 -0.076633,-0.056653 C 4.7874691,4.1309597 4.7393328,4.09375 4.7226478,4.09375 4.7059625,4.09375 4.6371722,4.0375 4.5697803,3.96875 4.5023884,3.9 4.4364606,3.84375 4.4232741,3.84375 4.4100878,3.84375 4.3321144,3.7875 4.25,3.71875 4.1678856,3.65 4.0845722,3.59375 4.0648591,3.59375 4.0451461,3.59375 3.9978781,3.566183 3.9598209,3.532491 3.6748575,3.2802106 3.5982166,3.21875 3.5685897,3.21875 3.5500027,3.21875 3.5132447,3.187984 3.4869067,3.150382 3.4605687,3.112779 3.4161127,3.078651 3.3881147,3.074542 3.3601177,3.070432 3.3167907,3.037917 3.2918327,3.002286 3.2668759,2.9666533 3.2262788,2.9375 3.2016178,2.9375 3.1769569,2.9375 3.1392153,2.909375 3.1177477,2.875 3.0962802,2.840625 3.0562804,2.8125 3.0288593,2.8125 3.0014382,2.8125 2.9291281,2.7569428 2.8681701,2.6890396 2.8072121,2.6211364 2.7510545,2.5718622 2.7433753,2.5795414 2.7356961,2.5872206 2.6964376,2.5584028 2.6561343,2.5155018 2.6158309,2.4726008 2.5663924,2.4375 2.5462711,2.4375 2.5261497,2.4375 2.4842339,2.409375 2.453125,2.375 2.4220161,2.340625 2.3847873,2.3125 2.3703943,2.3125 2.3388463,2.3125 2.2056041,2.2045657 2.0876725,2.0834782 1.9296131,1.9211888 1.8929335,1.6179953 2.0022112,1.3770539 2.1012855,1.1586096 2.1131534,1.1407122 2.1597627,1.1394602 2.1836119,1.1388196 2.2387342,1.1145995 2.2822567,1.085638 2.4008802,1.0067011 2.6252679,0.99810009 2.7670337,1.0670561 2.8325532,1.0989252 2.911774,1.125 2.94308,1.125 2.974386,1.125 3,1.1398924 3,1.1580943 c 0,0.018202 0.013491,0.024757 0.029979,0.014566 0.016488,-0.01019 0.05516,-0.00491 0.085937,0.011734 0.030777,0.016644 0.1016618,0.048678 0.1575212,0.071187 0.055859,0.022509 0.1015625,0.051555 0.1015625,0.064547 0,0.012992 0.010547,0.020574 0.023437,0.016848 0.037418,-0.010813 0.3203125,0.080774 0.3203125,0.1037007 0,0.011431 0.031641,0.0309 0.070312,0.043265 0.1087281,0.034765 0.1187206,0.038293 0.3515625,0.1241356 0.1203125,0.044356 0.2328125,0.083887 0.25,0.087847 0.017188,0.00396 0.039689,0.018682 0.050003,0.032715 0.010314,0.014033 0.038439,0.029451 0.0625,0.034261 0.06978,0.01395 0.223786,0.077069 0.3188022,0.1306607 0.049396,0.027861 0.1106847,0.039781 0.140625,0.027352 0.1010232,-0.04194 0.1985475,-0.040696 0.3052625,0.00389 0.05895,0.024631 0.1071819,0.035841 0.1071819,0.024913 0,-0.010929 0.017578,-0.00571 0.039063,0.011597 0.037373,0.030107 0.2204387,0.079524 0.2601381,0.070223 0.010445,-0.00245 0.038357,0.021096 0.062026,0.052319 0.023669,0.031223 0.043482,0.046841 0.044029,0.034708 5.469e-4,-0.012133 0.092602,0.026539 0.2045676,0.085937 C 6.0967894,2.2639008 6.2089231,2.3125 6.2340094,2.3125 c 0.025087,0 0.1553934,0.055356 0.2895706,0.1230128 0.1341775,0.067657 0.2799231,0.1278291 0.3238797,0.1337157 0.043957,0.00589 0.1158894,0.03427 0.1598506,0.063075 0.043961,0.028805 0.1165506,0.061563 0.1613097,0.072797 0.044759,0.011234 0.08138,0.033793 0.08138,0.050132 0,0.016339 0.012469,0.022 0.027709,0.012581 0.01524,-0.00942 0.043866,0.00234 0.063613,0.026137 0.019747,0.023794 0.088137,0.052805 0.1519784,0.064468 0.063841,0.011663 0.1477147,0.041583 0.1863866,0.066489 C 7.7183594,2.9498132 7.75,2.9606559 7.75,2.949002 c 0,-0.011654 0.024609,-0.00131 0.054687,0.022986 0.074641,0.060293 0.2598084,0.148155 0.3359375,0.1594026 0.034375,0.00508 0.1895169,0.073661 0.34476,0.1524047 0.1552428,0.078744 0.3286919,0.1524572 0.3854422,0.1638072 0.056751,0.01135 0.1406709,0.046341 0.1864903,0.077756 C 9.1413781,3.582995 9.4530784,3.709545 9.5893872,3.7413784 9.6530234,3.75624 9.7844419,3.6357478 10.546678,2.8636775 11.032618,2.3714674 11.444187,1.96875 11.461276,1.96875 c 0.01709,0 0.0482,-0.020644 0.06915,-0.045876 0.02094,-0.025232 0.04727,-0.044154 0.05851,-0.042049 0.01124,0.00211 0.07272,-0.019438 0.136624,-0.047874 0.0639,-0.028436 0.148663,-0.051701 0.188359,-0.051701 0.0397,0 0.102658,-0.021351 0.139915,-0.047446 0.03726,-0.026095 0.07906,-0.045017 0.09289,-0.042049 0.01383,0.00297 0.07437,-0.01651 0.134527,-0.043286 0.06016,-0.026776 0.165035,-0.057461 0.233064,-0.068189 0.06803,-0.010728 0.133254,-0.034982 0.144944,-0.053897 0.01169,-0.018915 0.03569,-0.02547 0.05333,-0.014567 0.01764,0.010903 0.03679,0.00852 0.04256,-0.0053 0.01077,-0.025827 0.379765,-0.1684306 0.463607,-0.1791697 0.02578,-0.0033 0.08617,-0.021944 0.134191,-0.041425 0.04802,-0.019482 0.125367,-0.044503 0.171875,-0.055604 0.04651,-0.011101 0.101083,-0.033154 0.121279,-0.049007 0.0202,-0.015853 0.07001,-0.032372 0.110697,-0.03671 0.04069,-0.00434 0.08744,-0.016073 0.103905,-0.026078 0.01646,-0.010005 0.100241,-0.038649 0.186178,-0.063653 0.194628,-0.0566284 0.41067,-0.049375 0.546419,0.018346 0.0571,0.028482 0.121237,0.051786 0.142539,0.051786 0.03503,0 0.08271,0.071282 0.08959,0.1339523 0.0015,0.013518 0.01797,0.034611 0.03664,0.046875 0.05359,0.035205 0.106681,0.2217674 0.106681,0.3748978 0,0.1457285 -0.05729,0.3848956 -0.09925,0.4143815 -0.01329,0.00934 -0.02944,0.044496 -0.03589,0.078125 -0.0064,0.033629 -0.01961,0.082237 -0.02926,0.1080184 -0.0096,0.025781 -0.03338,0.1149773 -0.05275,0.1982135 -0.01937,0.083236 -0.05739,0.1851894 -0.0845,0.2265625 -0.02711,0.041373 -0.03892,0.075224 -0.02624,0.075224 0.01267,0 0.0091,0.017578 -0.008,0.039063 -0.01705,0.021484 -0.04103,0.095312 -0.05329,0.1640625 -0.01986,0.1114155 -0.04081,0.1701863 -0.144755,0.40625 -0.01514,0.034375 -0.04222,0.1307938 -0.06019,0.2142641 -0.01797,0.08347 -0.05887,0.2059971 -0.0909,0.2722822 -0.03202,0.066285 -0.07522,0.1913509 -0.09599,0.2779237 -0.02077,0.086573 -0.05125,0.157405 -0.06774,0.157405 -0.01649,0 -0.02256,0.012005 -0.01349,0.026679 0.03971,0.064247 -0.217002,0.3571074 -1.019779,1.1633934 l -0.858197,0.8619472 0.08884,0.2312944 c 0.04886,0.1272118 0.08884,0.2434146 0.08884,0.2582287 0,0.014814 0.02607,0.064262 0.05794,0.1098834 0.03187,0.045622 0.0676,0.1228616 0.07941,0.1716438 0.0315,0.1301378 0.123684,0.3331803 0.151267,0.3331803 0.01313,0 0.02388,0.014963 0.02388,0.033252 0,0.018289 0.03516,0.1101119 0.07813,0.2040509 0.04297,0.093939 0.07862,0.1949913 0.07923,0.2245603 6.09e-4,0.029569 0.0212,0.088918 0.04577,0.1318863 0.02456,0.042969 0.04516,0.086826 0.04577,0.09746 6.09e-4,0.010634 -0.07975,3.125e-4 -0.17858,-0.022944 C 12.294238,8.020599 11.894712,7.9864437 11.015588,7.9854075 10.46709,7.9847606 10.035641,7.9992825 9.859338,8.0243235 8.8405213,8.1690363 8.1681781,8.4193709 7.7957097,8.79269 7.5343659,9.0546306 7.5,9.1647156 7.5,9.7399419 7.5,10.115808 7.49253,10.1875 7.45339,10.1875 c -0.025636,0 -0.064174,0.02812 -0.085642,0.0625 -0.021467,0.03438 -0.060356,0.0625 -0.086419,0.0625 -0.026063,0 -0.092558,0.04922 -0.1477675,0.109375 -0.055209,0.06016 -0.1124266,0.109375 -0.1271488,0.109375 -0.014722,0 -0.059744,0.0351 -0.1000472,0.078 -0.040303,0.0429 -0.079934,0.07135 -0.088069,0.06321 -0.00813,-0.0081 -0.059978,0.02356 -0.1152078,0.07044 -0.1865862,0.158359 -0.2349731,0.194601 -0.2598153,0.194601 -0.01362,0 -0.072468,0.04922 -0.1307731,0.109375 -0.058306,0.06016 -0.1218944,0.109375 -0.1413078,0.109375 -0.019414,0 -0.067918,0.03472 -0.1077875,0.07716 -0.039869,0.04244 -0.082272,0.07112 -0.094228,0.06373 -0.011956,-0.0074 -0.05252,0.0282 -0.090143,0.07909 -0.037623,0.05089 -0.086899,0.09252 -0.1095013,0.09252 -0.022603,0 -0.066549,0.02812 -0.097658,0.0625 -0.031109,0.03438 -0.074019,0.0625 -0.095356,0.0625 -0.021337,0 -0.082009,0.04922 -0.1348269,0.109375 -0.052818,0.06016 -0.1135456,0.109375 -0.1349506,0.109375 -0.021405,0 -0.067538,0.0269 -0.1025172,0.05978 -0.1760194,0.165448 -0.2578585,0.237821 -0.2769403,0.244909 -0.03235,0.01201 -0.03184,0.01521 0.023672,0.148065 0.064193,0.153637 0.1100957,0.350779 0.087043,0.373832 -0.00944,0.0094 6.25e-5,0.01717 0.021137,0.01717 0.021067,0 0.030212,0.01309 0.020324,0.02909 -0.00989,0.016 -0.00407,0.03769 0.012931,0.04819 0.031496,0.01947 0.1109266,0.262133 0.100315,0.306471 -0.00321,0.01341 0.013787,0.06263 0.037769,0.109375 0.052565,0.102461 0.1447416,0.367849 0.1649641,0.474953 0.00804,0.0426 0.024314,0.08479 0.036156,0.09375 0.023127,0.0175 0.03967,0.07624 0.046315,0.164444 0.00228,0.03023 0.013646,0.05497 0.025263,0.05497 0.011617,0 0.031812,0.05273 0.044878,0.117188 0.063569,0.313583 0.062901,0.44682 -0.00286,0.570358 -0.032008,0.06013 -0.059001,0.11636 -0.059985,0.124954 -0.011001,0.09612 -0.33821,0.250753 -0.525195,0.248199 -0.072537,-9.91e-4 -0.2003585,-0.0342 -0.2840466,-0.07379 z M 10.1875,14.450234 c -0.06016,-0.0068 -0.2429687,-0.0275 -0.40625,-0.0459 C 8.8893666,14.30382 8.0428313,14.00707 7.5766659,13.631519 6.9457381,13.123233 6.8118356,12.279312 7.2608809,11.641285 7.3967178,11.448281 7.6489431,11.224556 7.8720878,11.099142 L 8,11.027251 v 0.755089 c 0,0.848855 0.00969,0.895833 0.219035,1.061636 1.0418122,0.82513 4.520238,0.825035 5.562122,-1.57e-4 0.227321,-0.180037 0.250093,-0.278181 0.250093,-1.077853 0,-0.386907 0.01173,-0.703466 0.02607,-0.703466 0.03568,0 0.375339,0.237529 0.485025,0.339186 C 14.8237,11.66245 15,12.072875 15,12.467108 c 0,0.997713 -0.91859,1.662392 -2.662388,1.926469 -0.306279,0.04638 -1.876794,0.08777 -2.150112,0.05666 z m 0.03125,-4.015206 C 9.5334022,10.369996 8.9637678,10.233416 8.5418309,10.032957 7.3495469,9.4665106 8.2231566,8.6899509 10.265625,8.50066 c 1.168175,-0.1082634 2.45801,0.054912 3.192544,0.4038834 1.192284,0.566446 0.318674,1.3430056 -1.723794,1.5322966 -0.391664,0.0363 -1.123216,0.03542 -1.515625,-0.0018 z"
       id="path829"
       inkscape:connector-curvature="0" />
    <path
       style="fill:#989898;stroke-width:0.03125"
       d="M 10.1875,15.448266 C 8.6751637,15.303339 7.69935,14.919214 7.2608809,14.296215 7.04547,13.990148 6.9998197,13.802105 7.0010466,13.225906 l 0.00105,-0.491531 0.064354,0.187168 c 0.3094534,0.900025 1.5620128,1.461862 3.4257414,1.536618 L 11,14.47853 v 0.49511 0.49511 l -0.351562,-0.005 c -0.19336,-0.0028 -0.400782,-0.0097 -0.460938,-0.01548 z m 2.812737,-0.690453 2.5e-4,-0.492188 0.250881,-0.06987 C 14.150069,13.945453 14.733706,13.5026 14.93457,12.91857 l 0.06335,-0.184195 10e-4,0.491531 c 8.84e-4,0.415025 -0.009,0.522034 -0.06365,0.6875 -0.131445,0.398186 -0.455697,0.741422 -0.936935,0.99179 C 13.763333,15.027478 13.151762,15.25 13.05073,15.25 c -0.04467,0 -0.0507,-0.0588 -0.05049,-0.492187 z M 10.21875,12.435028 C 9.1103869,12.329857 8.2222816,12.005853 8.0505834,11.644026 8.0072113,11.552626 8.0001016,11.395542 8.0007116,10.542152 8.0013834,9.6045547 8.0043459,9.5528047 8.0518556,9.6491928 8.1918347,9.9331834 8.8394703,10.22388 9.625,10.35531 c 0.3592206,0.0601 0.913368,0.113378 1.179688,0.113414 L 11,10.46875 v 1 1 l -0.257812,-0.0043 c -0.141797,-0.0023 -0.377344,-0.0156 -0.523438,-0.02946 z m 2.788632,-1.222654 0.0082,-1.003305 0.15625,-0.05318 c 0.425546,-0.144831 0.750381,-0.3808847 0.818596,-0.5948641 0.05019,-0.157435 0.05466,1.7624081 0.0046,1.9613441 -0.06236,0.24764 -0.357446,0.473648 -0.83127,0.636668 l -0.164634,0.05664 z"
       id="path827"
       inkscape:connector-curvature="0" />
    <path
       style="fill:#0065fe;stroke-width:0.03125"
       d="M 10.21875,13.435028 C 9.1103869,13.329857 8.2222816,13.005853 8.0505834,12.644026 c -0.040112,-0.08453 -0.050436,-0.209123 -0.049872,-0.601874 6.875e-4,-0.477446 0.00253,-0.491593 0.051144,-0.392959 0.1399791,0.28399 0.7876147,0.574687 1.5731444,0.706117 1.9257792,0.322212 4.1783632,-0.09666 4.3677042,-0.812182 0.02576,-0.09736 0.03272,-0.01803 0.03532,0.402525 0.0037,0.600595 -0.03112,0.7273 -0.246863,0.89817 -0.582233,0.461138 -2.164986,0.723806 -3.562407,0.591205 z"
       id="path825"
       inkscape:connector-curvature="0" />
    <path
       style="fill:#656565;stroke-width:0.03125"
       d="m 11,14.97364 v -0.50489 l 0.289063,-2.6e-5 c 0.456367,-3.1e-5 1.084361,-0.06821 1.609375,-0.174688 L 13,14.273438 v 0.500029 0.500029 l -0.273437,0.05143 c -0.462323,0.08695 -0.691441,0.111992 -1.21875,0.133191 L 11,15.47853 Z m 0,-3.495264 v -1 l 0.407052,-0.0206 c 0.555962,-0.02814 1.2048,-0.123627 1.538261,-0.226385 C 12.996608,10.215583 13,10.276614 13,11.21544 v 1.000901 l -0.117187,0.03106 c -0.414324,0.109808 -0.923844,0.182442 -1.475761,0.210376 L 11,12.478376 Z"
       id="path823"
       inkscape:connector-curvature="0" />
    <path
       style="fill:#323232;stroke-width:0.03125"
       d="M 10.0625,15.950093 C 10.002344,15.943323 9.8195313,15.92273 9.65625,15.904329 9.0296091,15.833711 8.2706869,15.621128 7.7992559,15.384164 7.1861675,15.075995 6.7730922,14.641412 6.5880516,14.109895 l -0.087215,-0.25052 V 12.96875 12.078125 l 0.087215,-0.25052 c 0.047968,-0.137786 0.1445275,-0.334661 0.2145756,-0.4375 0.1287031,-0.188951 0.4092087,-0.473488 0.5958103,-0.604373 L 7.5,10.714494 V 10.003439 C 7.5,9.1344797 7.5146841,9.0743575 7.7957097,8.79269 8.1682169,8.4193322 8.8416834,8.1686116 9.859375,8.0244219 c 0.375604,-0.053217 1.905646,-0.053217 2.28125,0 1.336656,0.1893818 2.128972,0.5855125 2.322828,1.1613334 0.06129,0.1820506 0.0678,0.2664434 0.0678,0.8792187 v 0.677838 l 0.08594,0.05605 c 0.157701,0.102859 0.451364,0.402118 0.580185,0.591242 0.07005,0.102839 0.166607,0.299714 0.214575,0.4375 l 0.08722,0.25052 v 0.890625 0.890625 l -0.08722,0.25052 c -0.18504,0.531517 -0.598115,0.9661 -1.211204,1.274269 -0.441861,0.222101 -1.079449,0.409147 -1.738132,0.509906 -0.306019,0.04681 -2.108151,0.08888 -2.400112,0.05602 z m 2.275112,-0.556516 C 13.797735,15.172459 14.68694,14.665789 14.935309,13.913406 14.993493,13.737149 15,13.641966 15,12.967108 15,12.292433 14.9935,12.197532 14.9357,12.025891 14.815577,11.669314 14.563034,11.368822 14.196204,11.145995 l -0.163176,-0.09912 -8.88e-4,-0.761999 C 14.031549,9.7760519 14.01852,9.4803894 13.99294,9.3950006 13.835136,8.8682953 12.544205,8.4688022 11.000003,8.4688022 c -1.1885571,0 -2.3103749,0.2520075 -2.7809652,0.6247222 C 8.0077497,9.2608653 8,9.30041 8,10.211218 v 0.811149 L 7.8203125,11.133735 C 7.4319944,11.37441 7.1859666,11.664746 7.0643053,12.025891 7.0064837,12.197532 7,12.292433 7,12.967108 c 0,0.862628 0.026078,0.995486 0.2608809,1.329107 0.390105,0.554281 1.3497238,0.976191 2.5203691,1.108114 0.1632813,0.0184 0.346094,0.03906 0.40625,0.0459 0.273318,0.03111 1.843833,-0.01028 2.150112,-0.05666 z"
       id="path821"
       inkscape:connector-curvature="0" />
    <path
       style="fill:#000000;stroke-width:0.03125"
       d="M 4.4793966,15.403429 C 4.2588666,15.310206 4.2301156,15.283086 2.4683599,13.506499 0.68132566,11.704421 0.68103809,11.70411 0.59052597,11.476259 0.47640694,11.188981 0.46903891,10.917133 0.56740656,10.623255 0.62339391,10.45599 0.67077678,10.386365 0.84710375,10.212262 1.1161972,9.9465625 1.276812,9.8904966 1.7012615,9.9141003 c 0.2200856,0.012239 0.3665976,0.04398 0.6581135,0.1425777 0.20625,0.06976 0.4185494,0.14878 0.4717766,0.175604 0.053227,0.02682 0.1719346,0.06302 0.2637946,0.08045 0.09186,0.01742 0.1959666,0.05058 0.2313485,0.07369 0.035382,0.02311 0.141674,0.06485 0.2362053,0.09276 l 0.171875,0.05075 0.1069234,-0.127669 C 3.9640072,10.255734 4.0432778,10.148247 4.2070909,9.90625 4.2710816,9.8117188 4.3879722,9.6570312 4.4668481,9.5625 4.5457241,9.4679688 4.6521775,9.3273438 4.7034116,9.25 4.7546456,9.1726562 4.8599156,9.0291563 4.9373447,8.9311113 5.0733359,8.7589119 5.1582856,8.64587 5.3372825,8.3989166 5.5189763,8.1482428 5.7067884,7.8977859 5.7843725,7.8027003 5.8548969,7.7162669 6.0404941,7.4559775 6.1860144,7.2394212 6.2109784,7.2022709 6.3028831,7.0875 6.3902472,6.984375 6.4776113,6.88125 6.5727409,6.7617187 6.6016469,6.71875 6.6305525,6.6757812 6.6973813,6.5795834 6.750155,6.5049772 L 6.8461072,6.3693294 6.6985109,6.2393522 C 6.4893516,6.0551609 6.4163759,6 6.3818572,6 6.3652691,6 6.2549872,5.9231781 6.1367859,5.8292844 5.7336678,5.5090656 5.6608694,5.453085 5.4850681,5.328125 5.3883466,5.259375 5.2150291,5.1250997 5.0999178,5.029735 4.9848069,4.9343706 4.8132812,4.8045184 4.71875,4.7411744 4.4821662,4.5826428 4.3547766,4.4850681 4.0883094,4.2582853 3.9623956,4.1511231 3.8425772,4.0632325 3.8220462,4.0629728 3.8015156,4.0627228 3.6793066,3.9746094 3.5504712,3.8671875 3.4216356,3.7597656 3.2658309,3.6367188 3.2042387,3.59375 2.9662137,3.4276963 2.7267727,3.24638 2.54539,3.0948379 2.4414483,3.0079965 2.2809965,2.8883614 2.1888306,2.8289822 1.888705,2.6356221 1.6362896,2.3886796 1.5422042,2.196376 1.4694707,2.0477141 1.4527745,1.9675243 1.4427882,1.7188928 1.4316411,1.4413626 1.4379247,1.4020127 1.5310029,1.1664692 1.5972966,0.99870659 1.6698347,0.87566081 1.7452974,0.80296331 1.9083791,0.64585734 2.2126637,0.52756116 2.4994492,0.509773 2.7191682,0.4961447 2.7586489,0.504311 3.109375,0.63592491 c 0.4591969,0.17231937 0.7323237,0.28223978 0.9375,0.37729859 0.085937,0.039815 0.2546875,0.104301 0.375,0.1433018 C 4.5421875,1.1955262 4.7069544,1.2606378 4.7880237,1.301218 4.8884403,1.3514827 4.9892653,1.375 5.1043472,1.375 c 0.095532,0 0.2729066,0.033943 0.4082544,0.078125 0.1316312,0.042969 0.2563231,0.078125 0.2770928,0.078125 0.02077,0 0.1644759,0.062405 0.3193469,0.1386785 C 6.5853012,1.9044842 6.9411284,2.0625 6.9930509,2.0625 c 0.027252,0 0.1911357,0.068392 0.3641866,0.1519823 0.1730506,0.08359 0.38495,0.1770243 0.4708875,0.2076312 0.085937,0.030607 0.2137356,0.088777 0.2839956,0.1292678 0.07026,0.04049 0.1488503,0.073619 0.1746453,0.073619 0.025795,0 0.1862782,0.068108 0.3566294,0.1513505 0.1703513,0.083243 0.3659797,0.1695144 0.4347297,0.1917147 0.06875,0.0222 0.1824856,0.073624 0.2527456,0.1142745 0.07026,0.040651 0.1412144,0.07391 0.1576766,0.07391 0.016462,0 0.3878828,-0.3591748 0.8253798,-0.7981663 0.437496,-0.4389915 0.853601,-0.8323894 0.924678,-0.8742176 0.07108,-0.041828 0.464826,-0.1899204 0.875,-0.3290939 1.906884,-0.64701314 1.851417,-0.63035823 2.15202,-0.64617939 0.261029,-0.0137384 0.299224,-0.007655 0.53125,0.0846174 0.279388,0.11110718 0.326872,0.14599884 0.458628,0.33700615 0.147525,0.21386884 0.213247,0.44803944 0.213247,0.75980464 0,0.2603892 -0.0131,0.313264 -0.263949,1.0654203 -0.347016,1.0405037 -0.324681,0.9741349 -0.424077,1.2601837 -0.04778,0.1375 -0.109512,0.3203125 -0.137187,0.40625 -0.09847,0.3057706 -0.227413,0.4671416 -1.017518,1.2734009 -0.867081,0.88481 -0.816548,0.8031735 -0.668971,1.0807269 0.04081,0.076756 0.0742,0.1608353 0.0742,0.1868434 0,0.026008 0.03315,0.1047732 0.07366,0.1750332 0.04051,0.07026 0.119968,0.2472768 0.176568,0.3933706 0.0566,0.1460938 0.148987,0.3640625 0.205306,0.484375 0.05632,0.1203126 0.110038,0.2546828 0.119375,0.2986009 l 0.01698,0.079851 -0.324808,-0.1104252 C 13.006734,8.1845181 12.968482,8.1626628 12.924259,8.0699278 12.897167,8.0131137 12.875,7.9464297 12.875,7.9217409 c 0,-0.024689 -0.03516,-0.1217481 -0.07813,-0.2156875 -0.04297,-0.093939 -0.07813,-0.1857622 -0.07813,-0.2040509 0,-0.018289 -0.01075,-0.033252 -0.02388,-0.033252 -0.02758,0 -0.119765,-0.2030425 -0.151267,-0.3331803 -0.01181,-0.048782 -0.04754,-0.1260219 -0.07941,-0.1716438 -0.03187,-0.045622 -0.05794,-0.09507 -0.05794,-0.1098834 0,-0.014814 -0.03998,-0.1310169 -0.08884,-0.2582287 L 12.228563,6.3645199 13.08676,5.5025727 c 0.802777,-0.806286 1.059486,-1.0991463 1.019779,-1.1633934 -0.0091,-0.014673 -0.003,-0.026679 0.01349,-0.026679 0.01649,0 0.04697,-0.070832 0.06774,-0.157405 0.02077,-0.086573 0.06396,-0.2116384 0.09599,-0.2779237 0.03203,-0.066285 0.07293,-0.1888122 0.0909,-0.2722822 0.01797,-0.08347 0.04505,-0.1798891 0.06019,-0.2142641 0.103948,-0.2360637 0.12489,-0.2948345 0.144755,-0.40625 0.01226,-0.06875 0.03624,-0.1425781 0.05329,-0.1640625 0.01705,-0.021484 0.02063,-0.039063 0.008,-0.039063 -0.01267,0 -8.65e-4,-0.033851 0.02624,-0.075224 0.02711,-0.041373 0.06513,-0.1433262 0.0845,-0.2265625 0.01937,-0.083236 0.0431,-0.1724322 0.05275,-0.1982135 0.0096,-0.025781 0.02281,-0.07439 0.02926,-0.1080184 0.0064,-0.033629 0.0226,-0.068785 0.03589,-0.078125 0.04197,-0.029486 0.09925,-0.268653 0.09925,-0.4143815 0,-0.1531304 -0.05309,-0.3396925 -0.106681,-0.3748978 -0.01867,-0.012264 -0.03516,-0.033357 -0.03664,-0.046875 -0.0069,-0.06267 -0.0546,-0.1339521 -0.08963,-0.1339521 -0.0213,0 -0.08544,-0.023304 -0.142539,-0.051786 -0.135749,-0.067721 -0.351791,-0.0749744 -0.546419,-0.018346 -0.08594,0.025004 -0.169718,0.053648 -0.186178,0.063653 -0.01646,0.010005 -0.06322,0.02174 -0.103905,0.026078 -0.04069,0.00434 -0.0905,0.020858 -0.110697,0.03671 -0.0202,0.015853 -0.07477,0.037906 -0.121279,0.049007 -0.04651,0.011101 -0.123852,0.036123 -0.171875,0.055604 -0.04802,0.019481 -0.10841,0.038123 -0.134191,0.041425 -0.08384,0.010739 -0.452832,0.1533424 -0.463607,0.1791697 -0.0058,0.013819 -0.02492,0.016204 -0.04256,0.0053 -0.01764,-0.010903 -0.04164,-0.00435 -0.05333,0.014567 -0.01169,0.018915 -0.07691,0.043168 -0.144944,0.053897 -0.06803,0.010728 -0.172908,0.041414 -0.233064,0.068189 -0.06016,0.026776 -0.120693,0.046254 -0.134527,0.043286 -0.01383,-0.00297 -0.05563,0.015953 -0.09289,0.042049 -0.03726,0.026096 -0.100218,0.047446 -0.139914,0.047446 -0.0397,0 -0.124458,0.023266 -0.188359,0.051701 -0.0639,0.028436 -0.125382,0.049979 -0.136624,0.047874 -0.01124,-0.00211 -0.03757,0.016817 -0.05851,0.042049 -0.02094,0.025232 -0.05206,0.045876 -0.06915,0.045876 -0.01709,0 -0.428658,0.4027174 -0.914599,0.8949275 C 9.7844419,3.6357478 9.6530234,3.75624 9.5893872,3.7413784 9.4530784,3.709545 9.1413781,3.582995 9.0573175,3.5253591 9.0114981,3.4939434 8.9275778,3.4589531 8.8708272,3.4476028 8.8140769,3.4362528 8.6406278,3.3625397 8.485385,3.2837956 8.3301419,3.2050519 8.175,3.1364697 8.140625,3.1313909 8.0644959,3.1201433 7.8793281,3.0322811 7.8046875,2.9719883 7.7746094,2.9476921 7.75,2.9373482 7.75,2.949002 7.75,2.960656 7.718359,2.9498133 7.679688,2.924907 7.6410156,2.9000012 7.5571416,2.8700809 7.4933009,2.8584178 7.42946,2.8467547 7.36107,2.8177442 7.3413225,2.7939501 7.3215753,2.770156 7.2929491,2.7583945 7.2777091,2.7678133 7.2624691,2.7772322 7.25,2.7715706 7.25,2.755232 7.25,2.7388934 7.2133791,2.7163342 7.16862,2.7051004 7.1238609,2.6938667 7.0512716,2.661108 7.0073103,2.6323034 6.9633491,2.6034988 6.8914162,2.5751151 6.8474597,2.5692285 6.8035031,2.5633419 6.6577575,2.5031699 6.52358,2.4355128 6.3894028,2.3678558 6.2590959,2.3125 6.2340094,2.3125 c -0.025086,0 -0.13722,-0.048599 -0.2491856,-0.1079981 -0.1119657,-0.059399 -0.204021,-0.098071 -0.2045675,-0.085937 -5.469e-4,0.012133 -0.02036,-0.00349 -0.044029,-0.034708 -0.02367,-0.031223 -0.051582,-0.054766 -0.062027,-0.052319 C 5.6345013,2.0408379 5.451435,1.9914219 5.4140622,1.9613149 5.3925781,1.9440078 5.375,1.9387891 5.375,1.949718 5.375,1.960647 5.326768,1.9494367 5.2678181,1.924805 5.1611031,1.880217 5.0635788,1.878973 4.9625556,1.920915 4.9326156,1.933345 4.8713266,1.921424 4.8219306,1.893563 4.7269144,1.8399701 4.5729081,1.7768509 4.5031284,1.7629009 4.4790678,1.7580908 4.4509428,1.7426734 4.4406284,1.7286401 4.4303141,1.7146068 4.4078125,1.699885 4.390625,1.6959251 4.3734375,1.6919651 4.2609375,1.6524338 4.140625,1.6080777 3.9077831,1.5222349 3.8977906,1.5187066 3.7890625,1.4839421 3.7503906,1.4715773 3.71875,1.4521082 3.71875,1.4406776 3.71875,1.4177505 3.4358553,1.3261638 3.3984375,1.3369769 3.3855469,1.3407021 3.375,1.3331203 3.375,1.3201285 3.375,1.3071367 3.3292969,1.2780906 3.2734375,1.2555818 3.2175781,1.2330729 3.1466937,1.2010387 3.1159163,1.1843946 3.0851391,1.1677505 3.0464672,1.1624703 3.0299788,1.1726606 3.0134905,1.182851 3,1.1762961 3,1.1580943 3,1.1398924 2.974386,1.125 2.94308,1.125 2.911774,1.125 2.8325532,1.098925 2.7670337,1.067056 2.6252679,0.9981 2.4008803,1.006701 2.2822567,1.085638 2.2387347,1.114599 2.1836117,1.138819 2.1597627,1.13946 2.1128937,1.14072 2.1020337,1.157249 1.9981159,1.3855135 c -0.1282426,0.2816944 -0.03678,0.6551511 0.1965633,0.8026 0.064801,0.040948 0.1178208,0.085686 0.1178208,0.099418 0,0.013732 0.018914,0.024968 0.042032,0.024968 0.023117,0 0.067484,0.028125 0.098593,0.0625 0.031109,0.034375 0.073025,0.0625 0.093146,0.0625 0.020121,0 0.06956,0.035101 0.1098631,0.078002 0.040303,0.042901 0.079562,0.071719 0.087241,0.06404 0.00768,-0.00768 0.063837,0.041595 0.1247948,0.1094982 0.060958,0.067903 0.1332681,0.1234604 0.1606892,0.1234604 0.027421,0 0.067421,0.028125 0.088888,0.0625 0.021468,0.034375 0.059209,0.0625 0.08387,0.0625 0.024661,0 0.065258,0.029153 0.090216,0.064785 0.024958,0.035632 0.068284,0.068147 0.096282,0.072256 0.027998,0.00411 0.072454,0.038237 0.098792,0.07584 0.026338,0.037603 0.063095,0.068368 0.081683,0.068368 0.029627,0 0.1062678,0.061461 0.3912312,0.3137406 0.038057,0.033692 0.085325,0.061259 0.1050382,0.061259 0.019713,0 0.1030265,0.05625 0.1851409,0.125 0.082114,0.06875 0.1600878,0.125 0.1732741,0.125 0.013186,0 0.079114,0.05625 0.1465062,0.125 0.067392,0.06875 0.1361822,0.125 0.1528675,0.125 0.016685,0 0.064821,0.03721 0.1069694,0.082688 0.042148,0.045479 0.076633,0.070972 0.076633,0.056653 0,-0.014319 0.042187,0.014383 0.09375,0.063783 0.051563,0.0494 0.09375,0.078892 0.09375,0.065537 0,-0.013354 0.1057959,0.070406 0.2351022,0.1861347 0.1293062,0.1157284 0.2436731,0.2018443 0.2541487,0.191369 0.010475,-0.010476 0.046325,0.015633 0.079666,0.058019 0.033341,0.042386 0.079895,0.077065 0.1034543,0.077065 0.023559,0 0.06121,0.026108 0.083669,0.058017 0.022459,0.031909 0.069935,0.067207 0.1055025,0.078439 0.035568,0.011233 0.095754,0.062469 0.1337481,0.1138582 0.037994,0.05139 0.087301,0.093436 0.1095719,0.093436 0.022271,0 0.07352,0.035156 0.1138869,0.078125 0.040367,0.042969 0.091713,0.078125 0.1141019,0.078125 0.022389,0 0.062865,0.033817 0.089948,0.07515 0.027082,0.041333 0.080167,0.082912 0.1179672,0.092399 0.0378,0.00949 0.1482975,0.08817 0.2455506,0.17485 C 6.9773203,5.8040797 7.071195,5.875 7.0886775,5.875 c 0.017482,0 0.05944,0.035156 0.093239,0.078125 0.033799,0.042969 0.083544,0.078125 0.1105437,0.078125 0.027,0 0.064142,0.028125 0.082539,0.0625 0.018397,0.034375 0.051868,0.0625 0.074381,0.0625 0.022513,0 0.064184,0.025693 0.092604,0.057097 0.048424,0.053508 0.046764,0.061706 -0.026407,0.1304471 -0.042943,0.040343 -0.078078,0.085161 -0.078078,0.099595 0,0.014434 -0.063281,0.1039366 -0.140625,0.1988938 -0.077344,0.094957 -0.140625,0.1856687 -0.140625,0.2015812 0,0.015912 -0.028563,0.061068 -0.063473,0.1003463 C 6.9129863,7.1464975 6.8125,7.2767012 6.8125,7.3073756 c 0,0.018797 -0.028079,0.049203 -0.062398,0.06757 C 6.7157831,7.3933122 6.6592475,7.4641197 6.6244669,7.532295 6.5896866,7.6004703 6.5474531,7.65625 6.530615,7.65625 6.5137766,7.65625 6.5,7.6751644 6.5,7.6982816 c 0,0.023118 -0.028125,0.067484 -0.0625,0.098593 -0.034375,0.031109 -0.0625,0.069383 -0.0625,0.085054 0,0.015671 -0.049097,0.080288 -0.1091041,0.143594 -0.060007,0.063306 -0.1093556,0.1291641 -0.1096631,0.1463516 -3.125e-4,0.017188 -0.06333,0.1015625 -0.1400506,0.1875 C 5.9394622,8.4453125 5.8763106,8.5307519 5.8758456,8.5492403 5.87538,8.5677284 5.8398437,8.6158828 5.796875,8.65625 5.7539062,8.6966172 5.71875,8.7456563 5.71875,8.7652256 c 0,0.01957 -0.042187,0.075999 -0.09375,0.1253994 -0.051563,0.0494 -0.09375,0.1028559 -0.09375,0.1187906 0,0.015935 -0.070312,0.1101353 -0.15625,0.2093344 -0.085937,0.099199 -0.15625,0.1938509 -0.15625,0.2103375 0,0.016487 -0.028125,0.055428 -0.0625,0.086538 -0.034375,0.031109 -0.0625,0.070388 -0.0625,0.087286 0,0.016898 -0.052734,0.089695 -0.1171875,0.16177 C 4.7967113,9.9658009 4.75,10.028661 4.75,10.069571 c 0,0.02068 -0.02775,0.06623 -0.061667,0.101205 -0.1186068,0.122322 -0.250833,0.290847 -0.250833,0.31969 0,0.016 -0.042187,0.06951 -0.09375,0.118909 -0.051563,0.0494 -0.09375,0.10726 -0.09375,0.128578 0,0.02132 -0.035156,0.06642 -0.078125,0.100214 -0.042969,0.0338 -0.078125,0.07456 -0.078125,0.09057 0,0.01602 -0.034723,0.06174 -0.077162,0.101607 -0.042439,0.03987 -0.068257,0.0869 -0.057373,0.104508 0.011251,0.01821 7.25e-4,0.02495 -0.024401,0.01563 C 3.91051,11.141476 3.8132813,11.109957 3.71875,11.080445 3.6242188,11.050933 3.51875,11.014733 3.484375,11 3.45,10.985267 3.3445313,10.949041 3.25,10.919498 c -0.094531,-0.02954 -0.1807955,-0.06742 -0.1916983,-0.08417 -0.010903,-0.01675 -0.039028,-0.02386 -0.0625,-0.0158 -0.038121,0.01309 -0.3963375,-0.104486 -0.4788854,-0.157181 -0.017898,-0.01142 -0.039573,-0.0219 -0.048166,-0.02327 -0.00859,-0.0014 -0.078906,-0.02077 -0.15625,-0.04311 -0.1785893,-0.05158 -0.1976862,-0.05645 -0.2282101,-0.05823 -0.013797,-8.06e-4 -0.05786,-0.02294 -0.097918,-0.04919 -0.040058,-0.02625 -0.099082,-0.04772 -0.1311649,-0.04771 -0.032083,6e-6 -0.096879,-0.0094 -0.1439917,-0.02088 -0.1754704,-0.0428 -0.3566079,0.01248 -0.4992162,0.152352 -0.2079948,0.204002 -0.2621112,0.451984 -0.1494992,0.685064 0.034375,0.07115 0.062907,0.137266 0.063404,0.146928 4.969e-4,0.0097 0.7704189,0.792586 1.7109375,1.739831 C 4.649365,14.969623 4.6842391,15 4.9674834,15 5.1033978,15 5.4015772,14.877813 5.47162,14.793417 5.495823,14.764257 5.511824,14.735377 5.507179,14.729247 5.502529,14.723147 5.52228,14.672567 5.55106,14.616908 5.611022,14.500955 5.610276,14.361648 5.54805,14.05469 5.534985,13.99023 5.51479,13.9375 5.503173,13.9375 5.491556,13.9375 5.480188,13.91276 5.47791,13.88253 5.47127,13.79432 5.454722,13.735585 5.431595,13.718086 5.419753,13.709086 5.403483,13.666936 5.395439,13.624336 5.375216,13.517232 5.2830402,13.251845 5.2304749,13.149383 c -0.023982,-0.04675 -0.040978,-0.09596 -0.037769,-0.109375 0.010611,-0.04434 -0.068819,-0.287005 -0.100315,-0.306471 -0.017001,-0.01051 -0.02282,-0.03219 -0.012931,-0.04819 0.00989,-0.016 7.438e-4,-0.02909 -0.020324,-0.02909 -0.021067,0 -0.030578,-0.0077 -0.021137,-0.01717 0.022573,-0.02257 -0.022399,-0.219117 -0.083716,-0.36587 -0.054516,-0.130476 -0.057009,-0.144881 -0.026999,-0.156027 0.019082,-0.0071 0.1009209,-0.07946 0.2769403,-0.244909 0.034979,-0.03288 0.081112,-0.05978 0.1025172,-0.05978 0.021405,0 0.082133,-0.04922 0.1349506,-0.109375 0.052818,-0.06016 0.11349,-0.109375 0.1348269,-0.109375 0.021337,0 0.064247,-0.02812 0.095356,-0.0625 0.031109,-0.03438 0.075055,-0.0625 0.097658,-0.0625 0.022603,0 0.071878,-0.04163 0.1095013,-0.09252 0.037623,-0.05089 0.078187,-0.08648 0.090143,-0.07909 0.011956,0.0074 0.054358,-0.02129 0.094228,-0.06373 0.039869,-0.04244 0.088374,-0.07716 0.1077875,-0.07716 0.019413,0 0.083002,-0.04922 0.1413078,-0.109375 0.058306,-0.06016 0.1171535,-0.109375 0.1307731,-0.109375 0.024842,0 0.073229,-0.03624 0.2598154,-0.194601 0.05523,-0.04687 0.1070731,-0.07857 0.1152078,-0.07044 0.00814,0.0081 0.047766,-0.02031 0.088069,-0.06321 0.040304,-0.0429 0.085325,-0.078 0.1000472,-0.078 0.014722,0 0.071939,-0.04922 0.1271488,-0.109375 0.055209,-0.06016 0.1217047,-0.109375 0.1477675,-0.109375 0.026063,0 0.064951,-0.02812 0.086419,-0.0625 0.021467,-0.03438 0.060006,-0.0625 0.085642,-0.0625 0.037628,0 0.04661,0.05078 0.04661,0.263497 0,0.261869 -6.281e-4,0.263936 -0.1015625,0.334559 -0.055859,0.03908 -0.2303665,0.191214 -0.387794,0.338066 -0.1574275,0.146851 -0.3472713,0.313184 -0.421875,0.369626 -0.1945854,0.147217 -0.53237,0.4083 -0.7162744,0.553627 -0.087,0.06875 -0.1988288,0.153125 -0.2485088,0.1875 -0.04968,0.03438 -0.090542,0.08359 -0.090805,0.109375 -2.5e-4,0.02578 0.084928,0.292969 0.1893119,0.59375 0.2802897,0.807654 0.3624669,1.099181 0.3865572,1.371325 0.020161,0.227759 0.014865,0.261663 -0.07675,0.491345 -0.1280509,0.321026 -0.2810719,0.479968 -0.5831641,0.605729 -0.1909306,0.07949 -0.2664228,0.09395 -0.4860253,0.0931 C 4.74524,15.498162 4.6668838,15.482679 4.4793966,15.403429 Z M 14.554037,10.76237 c -0.01253,-0.01253 -0.0219,-0.05912 -0.02081,-0.103516 l 0.002,-0.08073 0.03016,0.07545 c 0.0325,0.0813 0.02577,0.145905 -0.01134,0.108797 z"
       id="path819"
       inkscape:connector-curvature="0" />
  </g>
</svg>
