<?xml version="1.0" encoding="UTF-8" standalone="no"?>
<!-- Created with Inkscape (http://www.inkscape.org/) -->

<svg
   xmlns:dc="http://purl.org/dc/elements/1.1/"
   xmlns:cc="http://creativecommons.org/ns#"
   xmlns:rdf="http://www.w3.org/1999/02/22-rdf-syntax-ns#"
   xmlns:svg="http://www.w3.org/2000/svg"
   xmlns="http://www.w3.org/2000/svg"
   xmlns:sodipodi="http://sodipodi.sourceforge.net/DTD/sodipodi-0.dtd"
   xmlns:inkscape="http://www.inkscape.org/namespaces/inkscape"
   version="1.1"
   id="svg2"
   width="16"
   height="16"
   viewBox="0 0 16 16"
   sodipodi:docname="ICON_NDOF_DOM.svg"
   inkscape:version="0.92.4 (5da689c313, 2019-01-14)">
  <metadata
     id="metadata8">
    <rdf:RDF>
      <cc:Work
         rdf:about="">
        <dc:format>image/svg+xml</dc:format>
        <dc:type
           rdf:resource="http://purl.org/dc/dcmitype/StillImage" />
        <dc:title />
      </cc:Work>
    </rdf:RDF>
  </metadata>
  <defs
     id="defs6" />
  <sodipodi:namedview
     pagecolor="#ffffff"
     bordercolor="#666666"
     borderopacity="1"
     objecttolerance="10"
     gridtolerance="10"
     guidetolerance="10"
     inkscape:pageopacity="0"
     inkscape:pageshadow="2"
     inkscape:window-width="828"
     inkscape:window-height="480"
     id="namedview4"
     showgrid="false"
     inkscape:zoom="14.75"
     inkscape:cx="-6.8135593"
     inkscape:cy="8"
     inkscape:window-x="0"
     inkscape:window-y="0"
     inkscape:window-maximized="0"
     inkscape:current-layer="svg2" />
  <g
     id="NDOF_DOM">
    <path
       style="fill:#ffffff;stroke-width:0.03125"
       d="M 0,8 V 0 h 8 8 L 15.9985,5.4140625 C 15.9971,10.377389 15.9929,10.816432 15.94787,10.687668 15.878211,10.48855 15.738569,10.297886 15.585049,10.192273 15.439276,10.091991 15.196223,10 15.077033,10 H 15 V 9.2549988 C 15,8.6191916 14.991087,8.4751491 14.93919,8.2722344 14.81036,7.7685119 14.561193,7.3465059 14.167505,6.965255 13.739035,6.5503212 13.256909,6.285455 12.59375,6.10068 12.309729,6.0215434 12.263048,6.0179112 11.515625,6.0167934 10.759893,6.0156622 10.724009,6.0184247 10.417027,6.1013559 9.7887625,6.2710803 9.2876431,6.5351756 8.9000294,6.9008312 8.6466006,7.1399028 8.7024616,7.1514119 8.1996319,6.7565262 8.0090322,6.6068431 7.7738856,6.428125 7.6770841,6.359375 l -0.1760025,-0.125 -0.00835,-2.7086566 C 7.4844622,0.84528403 7.4837037,0.81616266 7.4199441,0.73077425 7.3845072,0.68331616 7.3166791,0.61549288 7.269215,0.58005591 7.1856103,0.51763597 7.1459962,0.515625 6,0.515625 c -1.1459962,0 -1.1856103,0.002011 -1.269215,0.0644309 -0.047464,0.035437 -0.1152922,0.10335456 -0.1507291,0.15092793 -0.064112,0.0860691 -0.064378,0.0998965 -0.053696,2.79494397 l 0.010735,2.7084472 -0.1797569,0.125 C 4.2584716,6.428125 4.0427034,6.59012 3.8778531,6.7193641 3.7130025,6.8486078 3.4867188,7.0205519 3.375,7.1014619 3.2632813,7.1823716 3.0875,7.3125206 2.984375,7.3906819 2.7084627,7.5998028 2.2959712,7.9106772 2.046875,8.0972288 1.9265625,8.1873325 1.7591344,8.3136603 1.6748126,8.3779575 L 1.5215001,8.4948616 1.1691736,8.5052431 C 0.78816978,8.51647 0.72081172,8.5422578 0.58005591,8.730785 0.51763597,8.8143897 0.515625,8.8540038 0.515625,10 c 0,1.145996 0.002011,1.18561 0.0644309,1.269215 0.035437,0.04746 0.10326506,0.115292 0.15072906,0.150729 0.0836047,0.06242 0.12321878,0.06443 1.26921504,0.06443 1.1459963,0 1.1856103,-0.002 1.269215,-0.06443 0.1591356,-0.118812 0.2113906,-0.219768 0.2250869,-0.434863 0.012834,-0.201553 0.012999,-0.201859 0.1733347,-0.321506 0.088269,-0.06587 0.2708397,-0.203447 0.4057134,-0.30573 0.1348737,-0.102284 0.3411019,-0.256282 0.458285,-0.34222 C 4.9533766,9.7063356 5.1697803,9.542985 5.4652266,9.3109106 5.6304456,9.1811303 5.8207316,9.0375959 5.8880841,8.9919453 6.0072909,8.9111488 6.0129478,8.9103609 6.1010894,8.9622847 6.15089,8.9916219 6.30932,9.1102741 6.4531563,9.2259566 c 0.1438359,0.1156825 0.3451812,0.27037 0.447434,0.34375 0.1022525,0.07338 0.2975147,0.2187509 0.433916,0.3230462 l 0.2480021,0.1896282 -0.1481765,0.09805 C 7.2637341,10.293321 7.1235991,10.481827 7.0507591,10.696405 7.0058509,10.828698 7,11.094225 7,13 c 0,1.905775 0.00585,2.171302 0.050759,2.303595 0.1051859,0.309866 0.3294278,0.536702 0.6369093,0.64428 0.1291591,0.04519 -0.1743693,0.04926 -3.7736059,0.05063 L 0,16 Z m 15.312332,7.947875 c 0.07725,-0.02703 0.199897,-0.09004 0.272548,-0.140023 0.153678,-0.105733 0.293309,-0.296342 0.362995,-0.49552 l 0.04914,-0.140457 0.0015,0.414062 L 16,16 15.585938,15.9985 15.171875,15.997 15.312332,15.94786 Z M 11.5,9.515625 c 0,-0.5497044 -0.02149,-0.5151322 0.280035,-0.4504662 0.09648,0.020692 0.170167,0.056433 0.189038,0.091696 C 11.986083,9.1886372 12,9.3913469 12,9.6073206 V 10 H 11.75 11.5 Z"
       id="path853"
       inkscape:connector-curvature="0" />
    <path
       style="fill:#fefefe;stroke-width:0.03125"
       d="M 8,13 V 11 H 8.4973772 8.9947544 L 9.0071603,9.8359375 C 9.0188209,8.7418313 9.0236541,8.6596678 9.0875831,8.46875 9.2238706,8.0617388 9.5103328,7.6747803 9.8352656,7.4587653 10.293712,7.1539912 10.85052,7.0008209 11.5,7.0008209 c 1.253608,0 2.212218,0.6038319 2.452449,1.5448072 C 13.990722,8.6955388 14,8.9531631 14,9.8659406 V 11 h 0.5 0.5 v 2 2 H 11.5 8 Z m 6,0 V 12 H 11.5 9 v 1 1 H 11.5 14 Z M 12.994331,9.8984375 12.984375,8.796875 12.89222,8.6305141 C 12.744995,8.3647384 12.472307,8.188905 12.03125,8.0753469 11.762594,8.0061766 11.238318,8.0059303 10.970821,8.07485 c -0.232202,0.059825 -0.547589,0.19516 -0.598908,0.2569963 -0.01938,0.023357 -0.04643,0.035553 -0.06011,0.027102 -0.03508,-0.021678 -0.185693,0.1642835 -0.253454,0.3129279 -0.05165,0.1133134 -0.05705,0.2279878 -0.05767,1.2265625 L 10,11 h 1.502143 1.502143 z M 5.71875,8.0350563 C 5.4495866,7.946755 5.1930144,7.7268703 5.0579556,7.46875 4.994955,7.3483453 4.9843784,7.2831909 4.9843991,7.015625 4.9844206,6.7370766 4.9934712,6.6861494 5.0677056,6.546875 5.1679725,6.3587603 5.3709731,6.15817 5.5625,6.0579556 5.6828919,5.9949619 5.7480878,5.984375 6.015625,5.984375 c 0.2675372,0 0.3327331,0.010587 0.453125,0.073581 0.1915269,0.1002144 0.3945275,0.3008047 0.4947944,0.4889194 0.074234,0.1392744 0.083285,0.1902016 0.083306,0.46875 C 7.0468782,7.375177 6.9963534,7.5083351 6.7701689,7.7448188 6.5649534,7.9593787 6.3775016,8.0406156 6.0625,8.0515041 5.9164062,8.0565541 5.7617187,8.0491541 5.71875,8.0350563 Z"
       id="path851"
       inkscape:connector-curvature="0" />
    <path
       style="fill:#98cbfe;stroke-width:0.03125"
       d="M 5,2 V 1 H 6 7 V 2 3 H 6 5 Z"
       id="path849"
       inkscape:connector-curvature="0" />
    <path
       style="fill:#cacaca;stroke-width:0.03125"
       d="m 9,13 v -1 h 2.5 2.5 v 1 1 H 11.5 9 Z"
       id="path847"
       inkscape:connector-curvature="0" />
    <path
       style="fill:#3298fe;stroke-width:0.03125"
       d="M 5.0325012,4.8046875 5.03125,3 H 6.015625 7 L 6.99875,4.8046875 C 6.9976,6.4656053 6.9935819,6.6019066 6.9483309,6.515625 6.8702847,6.3668119 6.6542638,6.1582575 6.4843763,6.0677056 6.3450891,5.9934644 6.2942006,5.9844231 6.0156263,5.9844231 c -0.2785744,0 -0.3294629,0.00904 -0.46875,0.083283 -0.1698875,0.090552 -0.3859085,0.2991063 -0.4639547,0.4479194 -0.045251,0.086282 -0.049268,-0.05002 -0.050419,-1.7109375 z"
       id="path845"
       inkscape:connector-curvature="0" />
    <path
       style="fill:#fe6532;stroke-width:0.03125"
       d="M 1,10 V 9 h 1 1 v 1 1 H 2 1 Z"
       id="path843"
       inkscape:connector-curvature="0" />
    <path
       style="fill:#fe0000;stroke-width:0.03125"
       d="M 3,9.7506341 V 9.0012681 L 2.3542077,8.9928216 1.7084153,8.984375 1.8776452,8.8681878 C 1.9707216,8.8042847 2.159375,8.6662619 2.296875,8.5614706 2.434375,8.4566794 2.6664063,8.280795 2.8125,8.1706169 2.9585938,8.0604388 3.1625,7.9063428 3.265625,7.8281819 3.36875,7.7500206 3.5445313,7.6198716 3.65625,7.5389619 3.7679688,7.4580519 3.9945544,7.2861078 4.1597734,7.1568641 4.3249925,7.02762 4.5552059,6.8515625 4.6713588,6.765625 4.7875113,6.6796875 4.9182506,6.5819562 4.96189,6.5484444 l 0.079345,-0.060931 -0.02843,0.1390557 c -0.015636,0.076481 -0.027988,0.2656181 -0.027449,0.4203056 8.469e-4,0.2423256 0.012375,0.3028747 0.083307,0.4375 0.099186,0.1882506 0.3024441,0.3891066 0.4938369,0.4880009 0.1170447,0.060478 0.1893775,0.072816 0.4313706,0.073581 0.26637,8.406e-4 0.284976,0.00477 0.2219269,0.046871 -0.03785,0.025273 -0.1546233,0.114734 -0.2594955,0.1988012 C 5.8514297,8.3756959 5.7023437,8.488 5.625,8.5411934 5.5476562,8.5943869 5.3491956,8.7439884 5.1839766,8.8736419 4.8929059,9.102055 4.6951631,9.2513825 4.2510834,9.578125 3.9297678,9.8145409 3.5429916,10.106449 3.2762347,10.313864 3.14457,10.416239 3.0285543,10.5 3.0184221,10.5 3.00829,10.5 3,10.162785 3,9.7506341 Z"
       id="path841"
       inkscape:connector-curvature="0" />
    <path
       style="fill:#00cb00;stroke-width:0.03125"
       d="M 7.7760412,9.5725213 C 7.4353953,9.3261997 7.1656319,9.1234244 6.8472734,8.8743859 6.6820544,8.7451422 6.4554687,8.5732209 6.34375,8.4923391 5.9812144,8.2298719 6.0012172,8.2573778 6.109375,8.1700456 6.1609375,8.1284116 6.2945312,8.0509769 6.40625,7.9979684 6.6496475,7.8824812 6.8505522,7.6970122 6.9625869,7.484375 7.0335187,7.3497497 7.0450481,7.2892006 7.0458937,7.046875 7.0464344,6.8921875 7.0340816,6.70305 7.0184453,6.6265694 l -0.02843,-0.1390557 0.079345,0.060931 c 0.043639,0.033512 0.1742594,0.1312431 0.2902662,0.2171806 0.1160072,0.085937 0.3569032,0.2706406 0.5353247,0.4104512 0.1784219,0.139811 0.3553435,0.274745 0.3931594,0.2998541 l 0.068756,0.045653 -0.112646,0.2470209 C 8.0359969,8.225218 8.0225625,8.2959855 8.0026206,9.0412721 L 7.984375,9.7231675 Z"
       id="path839"
       inkscape:connector-curvature="0" />
    <path
       style="fill:#323232;stroke-width:0.03125"
       d="M 7.6876684,15.948135 C 7.3797256,15.839826 7.1558953,15.613314 7.0507591,15.303595 7.0058509,15.171302 7,14.905775 7,13 7,11.094225 7.00585,10.828698 7.050759,10.696405 7.123599,10.481827 7.263734,10.293321 7.4343318,10.180433 L 7.5825084,10.082381 7.3345062,9.8927528 C 7.198105,9.7884575 7.0028428,9.6430866 6.9005903,9.5697066 6.7983375,9.4963266 6.5969922,9.3416391 6.4531562,9.2259566 6.30932,9.1102741 6.15089,8.9916219 6.1010894,8.9622847 6.0129478,8.9103609 6.0072909,8.9111488 5.8880841,8.9919453 5.8207316,9.0375959 5.6304456,9.1811303 5.4652266,9.3109106 5.1697803,9.542985 4.9533766,9.7063356 4.531635,10.015625 4.4144519,10.101565 4.2082237,10.255561 4.07335,10.357845 3.9384762,10.460128 3.7559053,10.597707 3.6676366,10.663575 3.5073012,10.783222 3.5071359,10.783528 3.4943019,10.985081 3.4806059,11.200176 3.4283509,11.301132 3.269215,11.419944 3.18561,11.482364 3.1459963,11.484374 2,11.484374 c -1.14599625,0 -1.18561034,-0.002 -1.26921503,-0.06443 C 0.68332097,11.384507 0.61549288,11.316679 0.58005591,11.269215 0.51763597,11.18561 0.515625,11.145996 0.515625,10 0.515625,8.8540038 0.517636,8.8143897 0.5800559,8.730785 0.72081172,8.5422578 0.78816978,8.51647 1.1691736,8.5052431 L 1.5215001,8.4948616 1.6748126,8.3779575 C 1.7591344,8.3136603 1.9265625,8.1873325 2.046875,8.0972288 2.2959712,7.9106772 2.7084627,7.5998028 2.984375,7.3906819 3.0875,7.3125206 3.2632813,7.1823716 3.375,7.1014619 3.4867188,7.0205519 3.7130025,6.8486078 3.8778531,6.7193641 4.0427034,6.59012 4.2584716,6.428125 4.3573378,6.359375 L 4.5370947,6.234375 4.52636,3.5259278 C 4.5156781,0.83088034 4.5159437,0.81705294 4.5800559,0.73098384 4.6154928,0.68341047 4.6833209,0.61549288 4.730785,0.58005591 4.8143897,0.51763597 4.8540038,0.515625 6,0.515625 c 1.1459962,0 1.1856103,0.002011 1.269215,0.0644309 0.047464,0.035437 0.1152922,0.10326025 0.1507291,0.15071834 0.06376,0.0853884 0.064518,0.11450978 0.072784,2.79494416 l 0.00835,2.7086566 0.1760025,0.125 c 0.096801,0.06875 0.3319481,0.2474681 0.5225478,0.3971512 0.5028297,0.3948857 0.4469687,0.3833766 0.7003975,0.1443051 0.3876137,-0.3656557 0.8887331,-0.629751 1.5169981,-0.7994754 0.306982,-0.082931 0.342866,-0.085693 1.098598,-0.084562 0.747423,0.00112 0.794104,0.00475 1.078125,0.083887 0.663159,0.184775 1.145285,0.4496413 1.573755,0.864575 0.393688,0.3812509 0.642855,0.8032569 0.771685,1.3069794 C 14.991039,8.4749619 15,8.6191522 15,9.2507513 v 0.7407534 l 0.13931,0.019094 c 0.315354,0.04322 0.619321,0.267938 0.767686,0.567526 l 0.07738,0.15625 V 13 15.265625 l -0.07738,0.15625 c -0.04256,0.08594 -0.133965,0.212836 -0.203125,0.281996 -0.06916,0.06916 -0.196058,0.160566 -0.281996,0.203125 l -0.15625,0.07738 -3.71875,0.0066 c -3.3210269,0.0059 -3.7337719,0.0013 -3.8592066,-0.04282 z M 15,13 V 11 H 14.5 14 L 13.999628,9.8515625 C 13.999222,8.5918013 13.992721,8.5342163 13.808419,8.1576669 13.682353,7.9001025 13.347118,7.5586181 13.046874,7.3819266 12.798949,7.2360244 12.363557,7.0817975 12.062499,7.0332366 c -0.261141,-0.042123 -0.863859,-0.042123 -1.125,0 C 9.9874712,7.1864775 9.2484394,7.7723553 9.0461034,8.5326669 9.0104053,8.6668094 9.0006619,8.9477956 9.00037,9.8515625 L 9,11 H 8.5 8 v 2 2 h 3.5 3.5 z m -4.994331,-3.1015625 0.01,-1.1015625 0.08971,-0.1618603 C 10.320983,8.2459006 10.819943,8.0291428 11.5,8.0291428 c 0.680057,0 1.179017,0.2167578 1.394669,0.6058719 l 0.08971,0.1618603 0.01,1.1015625 L 13.004286,11 H 11.5 9.9957138 Z M 12,9.6073206 C 12,9.3913469 11.986083,9.1886372 11.969073,9.1568544 11.950202,9.1215922 11.876518,9.0858506 11.780035,9.0651588 11.478508,9.0004928 11.5,8.9659206 11.5,9.515625 V 10 H 11.75 12 Z M 3.0016943,10.757813 3.0033887,10.515625 3.259507,10.32208 C 3.8072363,9.9081694 4.0467298,9.7284834 4.2510835,9.578125 4.6893773,9.2556397 4.8919351,9.1028378 5.1839767,8.8743859 5.3491957,8.7451422 5.5809151,8.5693609 5.6989085,8.4837609 5.8169017,8.3981612 5.9369067,8.3108516 5.9655857,8.2897394 6.0220682,8.24816 6.074756,8.2830331 6.8281251,8.8606375 c 0.5328606,0.4085419 0.7013356,0.5352488 0.9375,0.7050762 l 0.21875,0.157305 0.018246,-0.6818218 c 0.019942,-0.7452038 0.03338,-0.8159885 0.2416,-1.2725932 L 8.3568667,7.5215828 8.2827879,7.4723962 C 8.2420444,7.4453437 8.0879213,7.3264047 7.9402919,7.2080875 7.7926625,7.08977 7.6085937,6.9495922 7.53125,6.8965806 7.4539062,6.8435694 7.3027344,6.7301291 7.1953125,6.6444906 L 7,6.4887847 V 3.7443925 1 H 5.9991437 4.9982872 L 5.0195437,3.7421875 5.0408,6.484375 4.8418372,6.640625 C 4.7324078,6.7265625 4.5650247,6.8516081 4.469875,6.9185044 4.374725,6.9854006 4.1984375,7.1196097 4.078125,7.2167466 3.9578125,7.3138834 3.7679688,7.4592191 3.65625,7.5397147 3.5445313,7.6202106 3.36875,7.7500206 3.265625,7.8281819 3.1625,7.9063428 2.9585938,8.0604791 2.8125,8.1707069 2.6664063,8.2809344 2.4295131,8.4598841 2.2860707,8.5683728 2.1426284,8.6768616 1.9527846,8.8176741 1.8641957,8.8812894 L 1.703125,8.9969538 1.3515625,8.9984769 1,9 v 1 1 h 1 1 l 0.00169,-0.242187 z"
       id="path837"
       inkscape:connector-curvature="0" />
  </g>
</svg>
