<?xml version="1.0" encoding="UTF-8" standalone="no"?>
<!-- Created with Inkscape (http://www.inkscape.org/) -->

<svg
   xmlns:dc="http://purl.org/dc/elements/1.1/"
   xmlns:cc="http://creativecommons.org/ns#"
   xmlns:rdf="http://www.w3.org/1999/02/22-rdf-syntax-ns#"
   xmlns:svg="http://www.w3.org/2000/svg"
   xmlns="http://www.w3.org/2000/svg"
   xmlns:sodipodi="http://sodipodi.sourceforge.net/DTD/sodipodi-0.dtd"
   xmlns:inkscape="http://www.inkscape.org/namespaces/inkscape"
   version="1.1"
   id="svg2"
   width="16"
   height="16.03125"
   viewBox="0 0 16 16.03125"
   sodipodi:docname="ICON_NDOF_TRANS.svg"
   inkscape:version="0.92.4 (5da689c313, 2019-01-14)">
  <metadata
     id="metadata8">
    <rdf:RDF>
      <cc:Work
         rdf:about="">
        <dc:format>image/svg+xml</dc:format>
        <dc:type
           rdf:resource="http://purl.org/dc/dcmitype/StillImage" />
        <dc:title></dc:title>
      </cc:Work>
    </rdf:RDF>
  </metadata>
  <defs
     id="defs6" />
  <sodipodi:namedview
     pagecolor="#ffffff"
     bordercolor="#666666"
     borderopacity="1"
     objecttolerance="10"
     gridtolerance="10"
     guidetolerance="10"
     inkscape:pageopacity="0"
     inkscape:pageshadow="2"
     inkscape:window-width="828"
     inkscape:window-height="480"
     id="namedview4"
     showgrid="false"
     inkscape:zoom="14.721248"
     inkscape:cx="-6.8424918"
     inkscape:cy="8.0156252"
     inkscape:window-x="0"
     inkscape:window-y="0"
     inkscape:window-maximized="0"
     inkscape:current-layer="svg2" />
  <g
     id="NDOF_TRANS">
    <path
       style="fill:#ffffff;stroke-width:0.03125"
       d="M 0,8.015625 V 0 h 8 8 V 8.015625 16.03125 H 8 0 Z M 6.4626122,15.89407 C 7.3147069,15.763724 8.0900884,15.499027 8.5625,15.177218 8.639844,15.124528 8.7856747,15.003338 8.8865688,14.907899 9.290495,14.525815 9.4988509,14.072583 9.4995819,13.574424 l 4.187e-4,-0.28495 0.1338207,0.13382 c 0.095206,0.09521 0.1695987,0.13981 0.2578125,0.154577 0.068196,0.01141 1.2138352,0.240421 2.5458672,0.508902 1.345338,0.271164 2.500747,0.48886 2.599313,0.48975 0.191974,0.0017 0.292163,-0.04989 0.414381,-0.213522 0.06046,-0.08094 0.06442,-0.128024 0.0642,-0.763694 L 15.515162,12.921875 15.010207,10.4375 C 14.732481,9.0710937 14.489071,7.9109375 14.469294,7.859375 14.365023,7.5875131 14.044535,7.4567047 13.772434,7.5749484 c -0.05531,0.024034 -0.367608,0.3123157 -0.694001,0.640625 -0.326392,0.3283097 -0.607642,0.5964504 -0.625,0.5958685 -0.01736,-5.813e-4 -0.120808,-0.07441 -0.229891,-0.1640625 C 12.114459,8.5577269 11.928968,8.4140625 11.811339,8.328125 11.033965,7.7601906 10.157447,7.1038262 10.078125,7.0302391 10.026563,6.9824047 9.8972103,6.8822041 9.7906756,6.8075712 9.4179309,6.5464447 8.1710175,5.6164153 8.078125,5.5302391 8.0265625,5.4824047 7.8972766,5.3822041 7.7908228,5.3075712 7.4832881,5.0919641 6.1186234,4.0712003 6.0187759,3.9820872 L 5.9281766,3.9012281 6.1968437,3.6303016 C 6.3446106,3.4812919 6.4803022,3.3197878 6.4983806,3.2714031 6.5419709,3.1547378 6.5416641,2.0003819 6.4980119,1.8848469 6.4462956,1.7479683 6.3159775,1.6310262 6.1590163,1.5806465 6.0801509,1.5553332 4.9117188,1.3144518 3.5625,1.0453546 0.97449603,0.52918556 0.89720753,0.51830353 0.72616553,0.64600481 0.52145175,0.79884572 0.51651241,0.81874703 0.50606362,1.5328247 l -0.009561,0.6534325 0.48781003,2.445934 C 1.2526078,5.9774547 1.4928332,7.1426509 1.5181465,7.2215163 1.6136518,7.5190691 1.9187562,7.6690172 2.2089031,7.5609991 2.2572877,7.5429862 2.5737399,7.25219 2.9121303,6.914785 l 0.6152553,-0.6134631 0.1289472,0.08936 c 0.070921,0.049148 0.1883706,0.1416675 0.2609997,0.2055978 0.072629,0.063931 0.2186637,0.1774053 0.3245222,0.2521662 0.1851725,0.1307754 1.4696056,1.0781904 1.5143419,1.1169988 0.012002,0.010412 -0.3465919,0.019247 -0.796875,0.019634 C 4.4766178,7.9854947 4.0252,8.0018888 3.859375,8.0250266 2.8486976,8.1660491 2.1684562,8.4190922 1.7957098,8.79269 1.5146841,9.0743575 1.5,9.1344797 1.5,10.003439 v 0.711055 l -0.1015625,0.07124 c -0.1866017,0.130885 -0.46710722,0.415422 -0.59581034,0.604373 -0.0700482,0.102839 -0.16660728,0.299714 -0.21457572,0.4375 l -0.0872153,0.25052 v 0.890625 0.890625 l 0.0872153,0.25052 c 0.18504081,0.531517 0.59811606,0.9661 1.21120436,1.274269 0.471431,0.236964 1.2303532,0.449547 1.8569942,0.520165 0.1632812,0.0184 0.3460937,0.03899 0.40625,0.04576 0.2919609,0.03285 2.0940934,-0.0092 2.4001122,-0.05602 z M 9.3942828,11.771233 C 9.2838516,11.45387 8.9153503,10.992703 8.6171875,10.798722 8.5321378,10.743389 8.53125,10.739303 8.53125,10.403149 v -0.339663 l 0.6640625,0.487864 c 0.3652344,0.268325 0.7097069,0.530961 0.7654944,0.583635 l 0.1014321,0.09577 -0.2811196,0.286662 C 9.6265038,11.675083 9.5,11.826239 9.5,11.853321 c 0,0.110841 -0.052869,0.06979 -0.1057172,-0.08209 z"
       id="path831"
       inkscape:connector-curvature="0" />
    <path
       style="fill:#fefefe;stroke-width:0.03125"
       d="m 4.1875,14.450234 c -0.060156,-0.0068 -0.2429688,-0.0275 -0.40625,-0.0459 C 2.8893665,14.30382 2.0428311,14.00707 1.576666,13.631519 0.94573812,13.123233 0.8118355,12.279312 1.2608808,11.641285 1.3967179,11.448281 1.6489431,11.224556 1.8720879,11.099142 L 2,11.027251 v 0.755089 c 0,0.848855 0.00969,0.895833 0.219035,1.061636 1.0418122,0.82513 4.5202381,0.825035 5.5621222,-1.57e-4 0.2273206,-0.180037 0.2500928,-0.278181 0.2500928,-1.077853 0,-0.386907 0.011731,-0.703466 0.026069,-0.703466 0.035681,0 0.3753387,0.237529 0.4850244,0.339186 C 8.8237003,11.66245 9,12.072875 9,12.467108 9,13.464821 8.0814103,14.1295 6.3376122,14.393577 6.0313325,14.439959 4.4608184,14.481343 4.1875,14.450234 Z m 0.03125,-4.015206 c -0.6853478,-0.06503 -1.2549821,-0.201612 -1.676919,-0.402071 -0.7160951,-0.3402123 -0.7160951,-0.7882017 0,-1.1284136 1.2227534,-0.5809218 3.6935846,-0.5809218 4.9163381,0 1.192284,0.566446 0.3186743,1.3430056 -1.7237941,1.5322966 -0.3916644,0.0363 -1.1232159,0.03542 -1.515625,-0.0018 z"
       id="path829"
       inkscape:connector-curvature="0" />
    <path
       style="fill:#cbfefe;stroke-width:0.03125"
       d="m 12.484375,12.565158 c -1.340625,-0.270149 -2.455162,-0.497306 -2.47675,-0.504794 -0.021933,-0.0076 0.283712,-0.336356 0.692784,-0.74515 l 0.732033,-0.731536 -0.378871,-0.284026 C 10.845192,10.143437 10.596721,9.9618066 10.501412,9.8960288 10.406104,9.8302509 10.285937,9.7370816 10.234375,9.6889859 10.142057,9.602875 8.8997069,8.6759044 8.5218244,8.4111788 8.4152897,8.3365459 8.2859375,8.2363453 8.234375,8.1885109 8.1414825,8.1023347 6.8945691,7.1723053 6.5218244,6.9111788 6.4152897,6.8365459 6.2859375,6.7363453 6.234375,6.6885109 6.1414825,6.6023347 4.8945691,5.6723053 4.5218244,5.4111788 4.4152897,5.3365459 4.2859375,5.2362931 4.234375,5.1883947 4.1828125,5.1404963 3.9933203,4.9938941 3.8132812,4.8626116 L 3.4859375,4.6239169 2.7429687,5.3664016 C 2.3343359,5.7747684 2,6.1017159 2,6.0929519 2,6.0841878 1.7751538,4.9532844 1.5003418,3.5798334 1.2255298,2.2063823 1.0050635,1.0782698 1.0104167,1.0729167 1.0157698,1.0675635 2.1438823,1.2880298 3.5173334,1.5628418 4.8907844,1.8376538 6.0216878,2.0625 6.0304519,2.0625 c 0.00876,0 -0.3179219,0.3340741 -0.7259688,0.7423869 L 4.5625794,3.5472738 4.9598325,3.8439494 c 0.2184891,0.1631715 0.4751116,0.350494 0.5702725,0.4162718 0.095161,0.065778 0.2152075,0.1589472 0.26677,0.2070429 0.092318,0.086111 1.3346681,1.0130815 1.7125506,1.2778072 0.1065347,0.074633 0.2358869,0.1748334 0.2874494,0.2226678 0.092892,0.086176 1.3398059,1.0162056 1.7125506,1.2773322 0.1065347,0.074633 0.2358869,0.1748334 0.2874494,0.2226678 0.092892,0.086176 1.339806,1.0162056 1.712551,1.2773322 0.106534,0.074633 0.235887,0.1747893 0.287449,0.22257 0.05156,0.047781 0.232753,0.1886212 0.402646,0.312979 l 0.308896,0.2261053 0.745791,-0.7453062 C 13.664394,8.3515009 14,8.0232841 14,8.0320481 c 0,0.00876 0.225,1.1404363 0.5,2.5148269 0.275,1.374391 0.5,2.502657 0.5,2.507259 0,0.01704 -0.127186,-0.0077 -2.515625,-0.488976 z"
       id="path827"
       inkscape:connector-curvature="0" />
    <path
       style="fill:#989898;stroke-width:0.03125"
       d="M 4.1875,15.448266 C 2.6751637,15.303339 1.6993499,14.919214 1.2608808,14.296215 1.0454699,13.990148 0.99981969,13.802105 1.0010467,13.225906 l 0.00105,-0.491531 0.064354,0.187168 c 0.3094533,0.900025 1.5620128,1.461862 3.4257405,1.536618 l 0.5078125,0.02037 v 0.49511 0.49511 l -0.3515625,-0.005 c -0.1933594,-0.0028 -0.4007813,-0.0097 -0.4609375,-0.01548 z m 2.8127369,-0.690453 2.5e-4,-0.492188 0.2508806,-0.06987 C 8.1500691,13.945453 8.7337059,13.5026 8.9345703,12.91857 l 0.06335,-0.184195 0.00105,0.491531 c 8.844e-4,0.415025 -0.00902,0.522034 -0.063645,0.6875 C 8.8038769,14.311592 8.479625,14.654828 7.9983866,14.905196 7.7633328,15.027478 7.1517619,15.25 7.0507297,15.25 c -0.044669,0 -0.050701,-0.0588 -0.050493,-0.492187 z m 7.9940461,-0.680196 c -0.01475,-0.01475 -4.75121,-0.970102 -4.924915,-0.993364 l -0.075405,-0.0101 0.00445,-0.496845 c 0.00245,-0.273265 0.00732,-0.499566 0.010831,-0.50289 0.0035,-0.0033 1.134894,0.219728 2.514191,0.49567 l 2.507812,0.501714 v 0.510973 c 0,0.281035 -0.0047,0.510973 -0.01042,0.510973 -0.0057,0 -0.01768,-0.0073 -0.02655,-0.01613 z M 4.21875,12.435028 C 3.1103868,12.329857 2.2222815,12.005853 2.0505833,11.644026 2.0072112,11.552626 2.0001014,11.395542 2.0007116,10.542152 2.0013819,9.6045547 2.0043459,9.5528047 2.0518555,9.6491928 2.1918346,9.9331834 2.8394702,10.22388 3.625,10.35531 c 0.3592206,0.0601 0.9133675,0.113378 1.1796875,0.113414 L 5,10.46875 v 1 1 L 4.7421875,12.46445 C 4.6003906,12.46215 4.3648438,12.44885 4.21875,12.43499 Z m 2.7886316,-1.222654 0.00824,-1.003305 0.15625,-0.05318 c 0.4255459,-0.144831 0.7503809,-0.3808847 0.8185962,-0.5948641 0.050189,-0.157435 0.054663,1.7624081 0.00457,1.9613441 -0.062357,0.24764 -0.3574457,0.473648 -0.8312697,0.636668 l -0.16463,0.05664 z M 10.732043,11.063706 C 10.500214,10.88224 8.786405,9.5957478 8.6281266,9.484375 8.5641594,9.4393644 8.5195594,9.36091 8.4687444,9.2040109 8.332065,8.781995 7.9228816,8.4798697 7.16147,8.2387694 6.9651184,8.1765947 6.7632159,8.0909459 6.708345,8.0465497 6.594455,7.9544006 6.4754728,7.8646047 5.4591772,7.1037991 5.0500059,6.7974909 4.6281309,6.4858119 4.5216772,6.4111788 4.4152234,6.3365459 4.2859375,6.2362931 4.234375,6.1883947 4.1828125,6.1404963 3.9933203,5.9938941 3.8132813,5.8626116 L 3.4859375,5.6239169 2.7429687,6.3664016 C 2.3343359,6.7747684 2,7.1017159 2,7.0929519 2,7.0841878 1.775,5.9525156 1.5,4.578125 L 1,2.0792328 1.0030809,1.6099289 1.0061619,1.140625 1.5015562,3.59375 C 1.774023,4.9429688 1.9976366,6.0608275 1.9984752,6.0778809 1.999314,6.0949341 2.3343359,5.7747684 2.7429687,5.3664016 L 3.4859375,4.6239169 3.8132812,4.8626116 c 0.1800391,0.1312825 0.3695313,0.2778846 0.4210938,0.3257831 0.051563,0.047898 0.1809147,0.1481512 0.2874494,0.222784 0.3727447,0.2611266 1.6196581,1.191156 1.7125506,1.2773322 0.051563,0.047834 0.1809147,0.148035 0.2874494,0.2226678 0.3727447,0.2611266 1.6196581,1.191156 1.7125506,1.2773322 0.051562,0.047834 0.1809147,0.148035 0.2874494,0.2226679 0.3778825,0.2647256 1.6202326,1.1916962 1.7125506,1.2778071 0.05156,0.048096 0.171729,0.141265 0.267038,0.2070428 0.09531,0.065778 0.343872,0.2474773 0.552365,0.4037763 l 0.379077,0.28418 -0.289072,0.28787 -0.289072,0.28787 z M 4.8506512,3.7588363 4.5608553,3.5490094 5.28824,2.8210677 6.015625,2.093126 6.024265,2.5846648 6.032905,3.0762035 5.5866753,3.5224334 5.1404456,3.9686631 Z"
       id="path825"
       inkscape:connector-curvature="0" />
    <path
       style="fill:#0065fe;stroke-width:0.03125"
       d="M 4.21875,13.435028 C 3.1103868,13.329857 2.2222815,13.005853 2.0505833,12.644026 c -0.040112,-0.08453 -0.050436,-0.209123 -0.049872,-0.601874 6.859e-4,-0.477446 0.00253,-0.491593 0.051144,-0.392959 0.1399791,0.28399 0.7876147,0.574687 1.5731445,0.706117 1.9257791,0.322212 4.1783625,-0.09666 4.3677044,-0.812182 0.025763,-0.09736 0.032722,-0.01803 0.035316,0.402525 0.0037,0.600595 -0.031122,0.7273 -0.2468631,0.89817 C 7.198924,13.304961 5.6161705,13.567629 4.21875,13.435028 Z"
       id="path823"
       inkscape:connector-curvature="0" />
    <path
       style="fill:#656565;stroke-width:0.03125"
       d="m 5,14.97364 v -0.50489 l 0.2890625,-2.6e-5 c 0.4563672,-3.1e-5 1.0843612,-0.06821 1.609375,-0.174688 L 7,14.273438 v 0.500029 0.500029 l -0.2734375,0.05143 c -0.4623222,0.08695 -0.6914406,0.111992 -1.21875,0.133191 L 5,15.47853 Z m 0,-3.495264 v -1 l 0.4070522,-0.0206 C 5.9630141,10.429637 6.6118519,10.334148 6.9453125,10.23139 6.9966084,10.215583 7,10.276614 7,11.21544 v 1.000901 l -0.1171875,0.03106 c -0.4143234,0.109806 -0.9238437,0.18244 -1.4757603,0.210374 L 5,12.478376 Z"
       id="path821"
       inkscape:connector-curvature="0" />
    <path
       style="fill:#323232;stroke-width:0.03125"
       d="M 4.0625,15.950093 C 4.0023437,15.943323 3.8195312,15.92273 3.65625,15.904329 3.029609,15.833711 2.2706868,15.621128 1.7992558,15.384164 1.1861675,15.075995 0.77309225,14.641412 0.58805144,14.109895 l -0.0872153,-0.25052 V 12.96875 12.078125 l 0.0872153,-0.25052 c 0.0479684,-0.137786 0.1445275,-0.334661 0.21457572,-0.4375 C 0.93133028,11.201154 1.2118358,10.916617 1.3984375,10.785732 L 1.5,10.714494 V 10.003439 C 1.5,9.1344797 1.5146841,9.0743575 1.7957098,8.79269 2.1684562,8.4190922 2.8486976,8.1660491 3.859375,8.0250266 4.0252,8.0018888 4.4766178,7.9854941 4.9593216,7.9850791 5.4096047,7.9846916 5.7681984,7.9758566 5.7561966,7.965445 5.7114603,7.9266366 4.4270272,6.9792216 4.2418547,6.8484462 4.1359962,6.7736853 3.9899613,6.6602106 3.9173325,6.59628 3.8447034,6.5323497 3.7272538,6.4398306 3.6563328,6.3906822 L 3.5273856,6.3013219 2.9121303,6.914785 C 2.5737399,7.25219 2.2572877,7.5429862 2.2089031,7.5609991 1.9187562,7.6690172 1.6136518,7.5190691 1.5181465,7.2215162 1.4928332,7.1426509 1.2526078,5.9774547 0.98431231,4.6321912 L 0.49650228,2.1862573 0.50606362,1.5328247 C 0.51651241,0.81874703 0.52145175,0.79884572 0.72616553,0.64600481 0.89720753,0.51830353 0.97449603,0.52918556 3.5625,1.0453546 c 1.3492188,0.2690972 2.5176509,0.5099786 2.5965163,0.5352919 0.1569612,0.05038 0.2872793,0.1673218 0.3389956,0.3042004 0.043652,0.115535 0.043959,1.2698909 3.687e-4,1.3865562 -0.018078,0.048385 -0.15377,0.2098888 -0.3015369,0.3588985 l -0.2686671,0.2709265 0.090599,0.080859 c 0.099848,0.089113 1.4645122,1.1098769 1.7720469,1.3254841 0.1064538,0.074633 0.2357397,0.1748334 0.2873022,0.2226678 0.092892,0.086176 1.3398059,1.0162056 1.7125506,1.2773322 0.1065347,0.074633 0.2358877,0.1748334 0.2874497,0.2226678 0.07932,0.073587 0.95584,0.7299515 1.733214,1.2978859 0.117629,0.085937 0.30312,0.2296019 0.412203,0.3192544 0.109083,0.089652 0.212534,0.1634806 0.229891,0.1640625 0.01736,5.812e-4 0.298608,-0.2675588 0.625,-0.5958685 0.326393,-0.3283093 0.638694,-0.6165906 0.694001,-0.640625 0.272101,-0.1182437 0.592589,0.012565 0.69686,0.2844266 0.01978,0.051563 0.263187,1.2117187 0.540913,2.5781251 l 0.504955,2.484375 2.19e-4,0.677432 c 2.18e-4,0.63567 -0.0037,0.682749 -0.0642,0.763694 -0.122218,0.16363 -0.222407,0.215255 -0.41438,0.213522 -0.09857,-8.91e-4 -1.253976,-0.218586 -2.599314,-0.48975 C 11.105456,13.818293 9.9598156,13.589286 9.89162,13.577871 9.803406,13.563101 9.7290138,13.518501 9.6338075,13.423294 L 9.5,13.289474 l -4.187e-4,0.28495 c -0.00108,0.738019 -0.4719525,1.394106 -1.2988379,1.80974 -0.4418612,0.222101 -1.079449,0.409147 -1.7381318,0.509906 -0.3060188,0.04681 -2.1081513,0.08888 -2.4001122,0.05602 z M 6.3376122,15.393577 C 7.797735,15.172459 8.6869397,14.665789 8.9353087,13.913406 8.9934931,13.737149 9,13.641966 9,12.967108 9,12.292433 8.9935162,12.197532 8.9356947,12.025891 8.8155725,11.669314 8.5630291,11.368822 8.1961987,11.145995 L 8.0330225,11.046875 8.032135,10.284876 C 8.0315444,9.7760519 8.0185194,9.4803894 7.9929363,9.3950006 7.8351316,8.8682953 6.5442009,8.4688022 4.9999988,8.4688022 c -1.1885569,0 -2.3103747,0.2520075 -2.780965,0.6247222 C 2.0077496,9.2608653 2,9.30041 2,10.211218 v 0.811149 L 1.8203125,11.133735 C 1.4319945,11.37441 1.1859664,11.664746 1.0643052,12.025891 1.0064838,12.197532 1,12.292433 1,12.967108 c 0,0.862628 0.026078,0.995486 0.2608808,1.329107 0.3901053,0.554281 1.3497238,0.976191 2.5203692,1.108114 0.1632812,0.0184 0.3460937,0.03906 0.40625,0.0459 0.2733184,0.03111 1.8438325,-0.01028 2.1501122,-0.05666 z M 15.023357,13.391321 C 15.013606,13.097619 14.937383,12.678658 14.50596,10.547429 14.227682,9.1727334 14,8.0408122 14,8.0320481 14,8.0232841 13.664394,8.3515009 13.254208,8.7614194 L 12.508417,9.5067256 12.199521,9.2806203 C 12.029628,9.1562625 11.848437,9.0154222 11.796875,8.9676413 11.745313,8.9198606 11.61596,8.8197041 11.509426,8.7450713 11.136681,8.4839447 9.8897675,7.5539153 9.796875,7.4677391 9.7453125,7.4199047 9.6159603,7.3197041 9.5094256,7.2450713 9.1366809,6.9839447 7.8897675,6.0539153 7.796875,5.9677391 7.7453125,5.9199047 7.6159603,5.8197041 7.5094256,5.7450713 7.1395925,5.4859844 5.8899653,4.5524466 5.7716575,4.4468656 5.7062253,4.3884725 5.5796628,4.2925238 5.4904075,4.2336463 5.4011522,4.1747684 5.2859375,4.0912638 5.234375,4.0480803 L 5.140625,3.9695644 5.5859375,3.5234538 6.03125,3.0773431 V 2.5699215 C 6.03125,2.2908397 6.02749,2.0625 6.02288,2.0625 c -0.0046,0 -1.1328681,-0.225 -2.5072587,-0.5 -1.3743907,-0.275 -2.5026571,-0.5 -2.5072586,-0.5 C 1.0037649,1.0625 1,1.2912649 1,1.5708664 V 2.0792328 L 1.5,4.578125 C 1.775,5.9525156 2,7.0841878 2,7.0929519 2,7.1017159 2.3343359,6.7747684 2.7429687,6.3664016 L 3.4859375,5.6239169 3.8132812,5.8626116 c 0.1800391,0.1312825 0.3695313,0.2778846 0.4210938,0.3257831 0.051563,0.047898 0.1808484,0.1481512 0.2873022,0.222784 0.1064537,0.074633 0.5283287,0.3863122 0.9375,0.6926204 1.0162956,0.7608056 1.1352778,0.8506015 1.2491678,0.9427506 0.054871,0.044396 0.2567734,0.130045 0.453125,0.1922197 0.5059937,0.1602225 0.8123322,0.3229956 1.0441431,0.5548065 0.1614981,0.1614985 0.2039566,0.227725 0.2631313,0.410435 0.050895,0.1571463 0.095356,0.2352825 0.1595328,0.2803641 0.2922403,0.2052875 1.5320668,1.13644 1.6323938,1.225983 0.06602,0.05893 0.179648,0.144942 0.252495,0.191141 0.07285,0.0462 0.179331,0.123445 0.23663,0.171659 l 0.104181,0.08766 -0.428634,0.429455 -0.4286324,0.429455 v 0.527396 0.527397 l 0.074031,0.0099 c 0.1943,0.02602 4.909789,0.979459 4.926146,0.996032 0.02729,0.02765 0.03961,-0.293253 0.02647,-0.689148 z M 9.5,11.853321 c 0,-0.02708 0.1265038,-0.178238 0.2811194,-0.335902 l 0.2811196,-0.286662 -0.1014321,-0.09577 c -0.055787,-0.05267 -0.40026,-0.31531 -0.7654944,-0.583635 L 8.53125,10.063486 v 0.339663 c 0,0.336154 8.875e-4,0.34024 0.085937,0.395573 0.2981628,0.19398 0.6666641,0.655148 0.7770953,0.97251 C 9.4471306,11.923109 9.5,11.964162 9.5,11.853321 Z"
       id="path819"
       inkscape:connector-curvature="0" />
  </g>
</svg>
