<?xml version="1.0" encoding="UTF-8" standalone="no"?>
<!-- Created with Inkscape (http://www.inkscape.org/) -->

<svg
   xmlns:dc="http://purl.org/dc/elements/1.1/"
   xmlns:cc="http://creativecommons.org/ns#"
   xmlns:rdf="http://www.w3.org/1999/02/22-rdf-syntax-ns#"
   xmlns:svg="http://www.w3.org/2000/svg"
   xmlns="http://www.w3.org/2000/svg"
   xmlns:sodipodi="http://sodipodi.sourceforge.net/DTD/sodipodi-0.dtd"
   xmlns:inkscape="http://www.inkscape.org/namespaces/inkscape"
   version="1.1"
   id="svg2"
   width="16.4004"
   height="16.304304"
   viewBox="0 0 16.4004 16.304304"
   sodipodi:docname="ICON_ORTHO.svg"
   inkscape:version="0.92.4 (5da689c313, 2019-01-14)">
  <metadata
     id="metadata8">
    <rdf:RDF>
      <cc:Work
         rdf:about="">
        <dc:format>image/svg+xml</dc:format>
        <dc:type
           rdf:resource="http://purl.org/dc/dcmitype/StillImage" />
        <dc:title />
      </cc:Work>
    </rdf:RDF>
  </metadata>
  <defs
     id="defs6" />
  <sodipodi:namedview
     pagecolor="#ffffff"
     bordercolor="#666666"
     borderopacity="1"
     objecttolerance="10"
     gridtolerance="10"
     guidetolerance="10"
     inkscape:pageopacity="0"
     inkscape:pageshadow="2"
     inkscape:window-width="828"
     inkscape:window-height="480"
     id="namedview4"
     showgrid="false"
     inkscape:zoom="14.474705"
     inkscape:cx="-6.8950987"
     inkscape:cy="8.1521518"
     inkscape:window-x="0"
     inkscape:window-y="0"
     inkscape:window-maximized="0"
     inkscape:current-layer="svg2" />
  <g
     id="ORTHO">
    <path
       style="fill:#ffffff;stroke-width:0.03203203"
       d="m 0.00254654,15.447447 c 0.0024212,-0.814683 0.0047475,-0.846609 0.04726438,-0.648648 0.12131462,0.564846 0.54596827,1.11059 1.06715118,1.37145 l 0.2678336,0.134055 H 0.69239782 0 Z m 2.98059136,0.722802 c 0.4568652,-0.228668 0.8649213,-0.70389 1.0194624,-1.187266 l 0.038404,-0.12012 h 1.5966334 1.5966334 l 0.038404,0.12012 c 0.1545411,0.483376 0.5625972,0.958598 1.0194624,1.187266 L 8.559971,16.304304 H 5.6376375 2.7153043 Z m 7.1751751,0 c 0.374329,-0.187357 0.704271,-0.518682 0.888332,-0.892054 0.302793,-0.614221 0.302793,-1.241469 0,-1.85569 C 10.820249,12.963255 10.344894,12.553511 9.8578576,12.3978 L 9.7377375,12.3594 V 11.048567 9.7377376 h 1.3108295 1.310829 l 0.0384,0.1201201 c 0.155711,0.4870363 0.565455,0.9623913 1.024705,1.1887873 0.614221,0.302793 1.241469,0.302793 1.85569,0 0.523362,-0.258001 0.950332,-0.804646 1.072394,-1.3729715 0.03935,-0.1831899 0.04502,0.2026702 0.04726,3.2112115 l 0.0025,3.419419 H 13.14544 9.8904794 Z M 0.00509308,10.762763 c 0,-2.9427018 0.00540574,-3.3221782 0.04471784,-3.1391395 C 0.07440574,7.738138 0.15478116,7.9538664 0.22842298,8.1030197 0.45524794,8.5624288 0.9305718,8.9720749 1.4174174,9.1277253 l 0.1201201,0.038404 v 1.5966337 1.596633 L 1.4174174,12.3978 C 0.9305718,12.55345 0.45524794,12.963096 0.22842298,13.422505 0.15478116,13.571659 0.07440574,13.787387 0.04981092,13.901902 0.01049882,14.08494 0.00509308,13.705464 0.00509308,10.762763 Z M 16.345008,8.7689192 C 16.324098,8.658892 16.246486,8.4467672 16.172536,8.297531 15.944626,7.8375885 15.469454,7.4282053 14.982983,7.2726748 l -0.12012,-0.038404 V 5.6376375 4.0410041 l 0.12012,-0.038404 c 0.486845,-0.1556504 0.962169,-0.5652965 1.188994,-1.0247056 0.07364,-0.1491534 0.154017,-0.3648817 0.178612,-0.4793962 0.03937,-0.1833095 0.04502,0.1911287 0.04726,3.131131 0.0014,1.8366366 -0.0014,3.3393393 -0.0061,3.3393393 -0.0048,0 -0.02579,-0.090022 -0.0467,-0.2000496 z M 0.00254654,3.4674674 0,0 3.4674674,0.00254654 c 3.049664,0.0022397 3.4423799,0.0079347 3.2592592,0.04726438 C 6.3711166,0.12618694 6.0103606,0.32809907 5.7317921,0.60666726 4.925092,1.4133674 4.9246125,2.6892321 5.7307094,3.4910609 5.9701546,3.7292389 6.2612768,3.9126758 6.5425437,4.0026003 l 0.1201201,0.038404 v 1.310829 1.3108292 H 5.3518346 4.0410054 L 4.0026015,6.5425424 C 3.8468903,6.0555063 3.4371459,5.5801509 2.9778959,5.3537546 2.363675,5.0509622 1.7364276,5.0509622 1.1222066,5.3537546 0.59884331,5.6117563 0.17187289,6.1584008 0.04981092,6.7267266 0.01048124,6.9098473 0.00478624,6.5171314 0.00254654,3.4674674 Z M 16.345008,1.5937442 C 16.324098,1.4837169 16.246486,1.2715922 16.172536,1.122356 15.912796,0.59817823 15.366643,0.17176953 14.798798,0.04981092 14.601874,0.00751667 14.639634,0.00495507 15.495495,0.00254654 L 16.4004,0 v 0.89689688 c 0,0.49329332 -0.0039,0.89689692 -0.0087,0.89689692 -0.0048,0 -0.02579,-0.090022 -0.0467,-0.2000496 z M 9.1277253,1.4174174 C 8.9720749,0.9305718 8.5624288,0.45524794 8.1030196,0.22842298 7.9538663,0.15478116 7.7381379,0.07440574 7.6236234,0.04981092 7.4405847,0.01049882 7.8200612,0.00509308 10.762763,0.00509308 c 2.942701,0 3.322177,0.00540574 3.139139,0.04471784 C 13.787387,0.07440574 13.571659,0.15478116 13.422505,0.22842298 12.963096,0.45524794 12.55345,0.9305718 12.3978,1.4174174 L 12.3594,1.5375375 H 10.762763 9.1661291 Z"
       id="path827"
       inkscape:connector-curvature="0" />
    <path
       style="fill:#fefefe;stroke-width:0.03203203"
       d="M 1.025025,14.35035 V 13.325325 H 2.05005 3.075075 v 1.025025 1.025025 H 2.05005 1.025025 Z m 7.175175,0 v -1.025025 h 1.025025 1.025025 v 1.025025 1.025025 H 9.225225 8.2002 Z M 4.0995439,14.246246 C 4.0984196,14.035981 4.0017168,13.686713 3.8714704,13.422505 3.6855107,13.045282 3.3551179,12.714889 2.9778947,12.52893 2.7136868,12.398683 2.364419,12.30198 2.1541541,12.300856 L 2.05005,12.3003 V 10.762763 9.2252251 L 2.1541541,9.2246677 C 2.364419,9.2235434 2.7136868,9.1268406 2.9778947,8.9965942 3.3551179,8.8106345 3.6855107,8.4802417 3.8714704,8.1030184 4.0017168,7.8388105 4.0984206,7.4895428 4.0995439,7.2792779 L 4.1001,7.175175 H 5.6376375 7.175175 l 5.574e-4,0.1041041 c 0.00112,0.210265 0.097827,0.5595327 0.2280735,0.8237406 C 7.5897656,8.480243 7.9201584,8.8106358 8.2973817,8.9965955 8.5615895,9.1268419 8.9108572,9.2235456 9.1211222,9.224669 L 9.225225,9.2252251 V 10.762763 12.3003 l -0.1041041,5.57e-4 c -0.210265,0.0011 -0.5595326,0.09783 -0.8237405,0.228074 -0.3772233,0.18596 -0.7076161,0.516352 -0.8935758,0.893576 -0.1302464,0.264208 -0.2269502,0.613475 -0.2280735,0.82374 L 7.175175,14.35035 H 5.6376375 4.1001 L 4.0995426,14.246246 Z M 13.325325,9.2252251 V 8.2002 h 1.025025 1.025025 V 9.2252251 10.25025 H 14.35035 13.325325 Z M 1.025025,7.175175 V 6.15015 H 2.05005 3.075075 V 7.175175 8.2002 H 2.05005 1.025025 Z m 7.175175,0 V 6.15015 H 9.225225 10.25025 V 7.175175 8.2002 H 9.225225 8.2002 Z M 6.15015,2.05005 V 1.025025 H 7.175175 8.2002 V 2.05005 3.075075 H 7.175175 6.15015 Z m 7.175175,0 V 1.025025 h 1.025025 1.025025 V 2.05005 3.075075 H 14.35035 13.325325 Z"
       id="path825"
       inkscape:connector-curvature="0" />
    <path
       style="fill:#cbcbcb;stroke-width:0.03203203"
       d="m 9.7377375,9.1956771 c 0,-0.016251 0.054054,-0.046829 0.1201201,-0.067952 C 10.139124,9.0378008 10.430247,8.854364 10.669692,8.6161859 11.475788,7.8143573 11.475308,6.5384923 10.668609,5.7317922 9.861909,4.925092 8.5860441,4.9246125 7.7842154,5.7307095 7.5460374,5.9701547 7.3626005,6.2612768 7.272676,6.5425437 7.2515538,6.6086098 7.2209754,6.6626638 7.2047242,6.6626638 7.1871729,6.6626625 7.175175,6.1424008 7.175175,5.3813813 V 4.1001 L 7.2792791,4.0995427 C 7.4895441,4.0984183 7.8388117,4.0017156 8.1030196,3.8714692 8.4802429,3.6855094 8.8106357,3.3551167 8.9965954,2.9778934 9.1268418,2.7136856 9.2235456,2.3644178 9.2246689,2.1541528 L 9.225225,2.05005 h 1.537538 1.537537 l 5.57e-4,0.1041041 c 0.0011,0.210265 0.09783,0.5595328 0.228074,0.8237406 0.18596,0.3772232 0.516352,0.707616 0.893576,0.8935757 0.264208,0.1302464 0.613475,0.2269502 0.82374,0.2280735 L 14.35035,4.1001 V 5.6376375 7.175175 l -0.104104,5.574e-4 c -0.210265,0.00112 -0.559533,0.097827 -0.823741,0.2280735 -0.377223,0.1859597 -0.707616,0.5163525 -0.893575,0.8935758 -0.130247,0.2642079 -0.226951,0.6134756 -0.228074,0.8237405 L 12.3003,9.2252251 h -1.281281 c -0.76102,0 -1.2812815,-0.011998 -1.2812815,-0.029548 z"
       id="path823"
       inkscape:connector-curvature="0" />
    <path
       style="fill:#656565;stroke-width:0.03203203"
       d="M 13.901902,11.225464 C 13.787387,11.200869 13.571659,11.120494 13.422505,11.046852 12.963096,10.820027 12.55345,10.344703 12.3978,9.8578577 L 12.3594,9.7377376 H 11.048567 9.7377375 V 9.4814813 9.2252251 H 11.019019 12.3003 l 5.57e-4,-0.1041041 c 0.0011,-0.210265 0.09783,-0.5595327 0.228074,-0.8237406 0.18596,-0.3772233 0.516352,-0.7076161 0.893576,-0.8935758 0.264208,-0.1302464 0.613475,-0.2269501 0.82374,-0.2280735 L 14.35035,7.175175 V 5.6376375 4.1001 L 14.246246,4.0995427 C 14.035981,4.0984183 13.686713,4.0017156 13.422505,3.8714692 13.045282,3.6855107 12.714889,3.3551179 12.52893,2.9778947 12.398683,2.7136869 12.301979,2.3644191 12.300856,2.1541541 L 12.3003,2.05005 H 10.762763 9.225225 L 9.2246676,2.1541541 C 9.2235433,2.3644191 9.1268405,2.7136869 8.9965941,2.9778947 8.8106344,3.3551179 8.4802416,3.6855107 8.1030183,3.8714704 7.8388105,4.0017168 7.4895428,4.0984206 7.2792778,4.0995439 L 7.175175,4.1001 V 5.3813813 6.6626625 H 6.9189188 6.6626625 V 5.3518333 4.0410041 L 6.5425424,4.0026003 C 6.2612755,3.9126758 5.9701534,3.7292389 5.7307082,3.4910609 4.9246125,2.6892321 4.925092,1.4133674 5.7317909,0.60666726 6.538491,-0.20003284 7.8143559,-0.20051244 8.6161846,0.60558298 8.8543626,0.84502844 9.0377995,1.1361505 9.127724,1.4174174 l 0.038405,0.1201201 h 1.596634 1.596633 l 0.0384,-0.1201201 c 0.08992,-0.2812669 0.273361,-0.57238893 0.511539,-0.81183439 0.801829,-0.80609545 2.077694,-0.80561585 2.884394,0.001084 0.8067,0.80670009 0.80718,2.08256479 0.0011,2.88439359 C 15.555383,3.7292387 15.264261,3.9126755 14.982994,4.0026 l -0.120118,0.038404 v 1.5966334 1.5966334 l 0.12012,0.038404 c 0.487036,0.1557112 0.962391,0.5654557 1.188787,1.0247056 0.768738,1.5594013 -0.574537,3.2921976 -2.269868,2.9280836 z M 15.375375,9.2252251 V 8.2002 H 14.35035 13.325325 V 9.2252251 10.25025 h 1.025025 1.025025 z M 8.2002,2.05005 V 1.025025 H 7.175175 6.15015 V 2.05005 3.075075 H 7.175175 8.2002 Z m 7.175175,0 V 1.025025 H 14.35035 13.325325 V 2.05005 3.075075 h 1.025025 1.025025 z"
       id="path821"
       inkscape:connector-curvature="0" />
    <path
       style="fill:#323232;stroke-width:0.03203203"
       d="M 1.1169621,16.170249 C 0.74263334,15.982892 0.41269076,15.651567 0.2286297,15.278195 c -0.30279236,-0.614221 -0.30279236,-1.241469 0,-1.85569 0.22639629,-0.45925 0.70175151,-0.868994 1.1887877,-1.024705 L 1.5375375,12.3594 V 10.762763 9.1661292 L 1.4174174,9.1277253 C 1.1361505,9.0378008 0.84502846,8.854364 0.60558301,8.6161859 -0.20051244,7.8143573 -0.20003284,6.5384923 0.60666729,5.7317922 1.4133674,4.925092 2.6892321,4.9246125 3.4910609,5.7307095 3.7292389,5.9701547 3.9126758,6.2612768 4.0026003,6.5425437 l 0.038404,0.1201201 h 1.5966334 1.5966334 l 0.038404,-0.1201201 c 0.089925,-0.2812669 0.2733613,-0.572389 0.5115393,-0.8118342 0.8018287,-0.8060957 2.0776937,-0.8056162 2.8843936,0.00108 0.8067,0.8067001 0.80718,2.0825651 0.0011,2.8843937 -0.239446,0.2381781 -0.530568,0.4216149 -0.8118343,0.5115394 l -0.1201189,0.038404 v 1.5966334 1.596633 l 0.1201201,0.0384 c 0.4870361,0.155711 0.9623911,0.565455 1.1887871,1.024705 0.302793,0.614221 0.302793,1.241469 0,1.85569 -0.184061,0.373372 -0.514003,0.704697 -0.888332,0.892054 L 9.8904794,16.304304 H 9.225225 8.5599706 L 8.2921371,16.170249 C 7.8352719,15.941581 7.4272158,15.466359 7.2726747,14.982983 l -0.038404,-0.12012 H 5.6376375 4.0410041 l -0.038404,0.12012 c -0.1545409,0.483376 -0.562597,0.958598 -1.0194622,1.187266 L 2.7153043,16.304304 H 2.05005 1.3847957 Z M 3.075075,14.35035 V 13.325325 H 2.05005 1.025025 v 1.025025 1.025025 H 2.05005 3.075075 Z m 7.175175,0 V 13.325325 H 9.225225 8.2002 v 1.025025 1.025025 H 9.225225 10.25025 Z M 7.1757311,14.246246 c 0.00112,-0.210265 0.097827,-0.559533 0.2280735,-0.823741 0.1859597,-0.377223 0.5163525,-0.707616 0.8935758,-0.893575 0.2642079,-0.130247 0.6134755,-0.22695 0.8237405,-0.228074 L 9.225225,12.3003 V 10.762763 9.2252251 L 9.1211209,9.2246677 C 8.9108559,9.2235434 8.5615883,9.1268406 8.2973804,8.9965942 7.9201571,8.8106345 7.5897643,8.4802417 7.4038046,8.1030184 7.2735582,7.8388105 7.1768544,7.4895428 7.1757311,7.2792779 L 7.175175,7.175175 H 5.6376375 4.1001 L 4.0995426,7.2792791 C 4.0984183,7.4895441 4.0017155,7.8388118 3.8714691,8.1030197 3.6855094,8.480243 3.3551166,8.8106358 2.9778934,8.9965955 2.7136856,9.1268419 2.3644178,9.2235456 2.1541528,9.224669 L 2.05005,9.2252251 V 10.762763 12.3003 l 0.1041041,5.57e-4 c 0.2102649,0.0011 0.5595327,0.09783 0.8237406,0.228074 0.3772232,0.18596 0.707616,0.516352 0.8935757,0.893576 0.1302464,0.264208 0.2269502,0.613475 0.2280735,0.82374 L 4.1001,14.35035 H 5.6376375 7.175175 l 5.574e-4,-0.104104 z M 3.075075,7.175175 V 6.15015 H 2.05005 1.025025 V 7.175175 8.2002 H 2.05005 3.075075 Z m 7.175175,0 V 6.15015 H 9.225225 8.2002 V 7.175175 8.2002 h 1.025025 1.025025 z"
       id="path819"
       inkscape:connector-curvature="0" />
  </g>
</svg>
