<?xml version="1.0" encoding="UTF-8" standalone="no"?>
<!-- Created with Inkscape (http://www.inkscape.org/) -->

<svg
   xmlns:dc="http://purl.org/dc/elements/1.1/"
   xmlns:cc="http://creativecommons.org/ns#"
   xmlns:rdf="http://www.w3.org/1999/02/22-rdf-syntax-ns#"
   xmlns:svg="http://www.w3.org/2000/svg"
   xmlns="http://www.w3.org/2000/svg"
   xmlns:sodipodi="http://sodipodi.sourceforge.net/DTD/sodipodi-0.dtd"
   xmlns:inkscape="http://www.inkscape.org/namespaces/inkscape"
   version="1.1"
   id="svg2"
   width="16"
   height="16"
   viewBox="0 0 16 16"
   sodipodi:docname="TRANSFORM_MIRROR.svg"
   inkscape:version="0.92.4 (5da689c313, 2019-01-14)">
  <metadata
     id="metadata8">
    <rdf:RDF>
      <cc:Work
         rdf:about="">
        <dc:format>image/svg+xml</dc:format>
        <dc:type
           rdf:resource="http://purl.org/dc/dcmitype/StillImage" />
        <dc:title></dc:title>
      </cc:Work>
    </rdf:RDF>
  </metadata>
  <defs
     id="defs6" />
  <sodipodi:namedview
     pagecolor="#ffffff"
     bordercolor="#666666"
     borderopacity="1"
     objecttolerance="10"
     gridtolerance="10"
     guidetolerance="10"
     inkscape:pageopacity="0"
     inkscape:pageshadow="2"
     inkscape:window-width="828"
     inkscape:window-height="584"
     id="namedview4"
     showgrid="false"
     inkscape:zoom="14.75"
     inkscape:cx="8"
     inkscape:cy="8"
     inkscape:window-x="0"
     inkscape:window-y="0"
     inkscape:window-maximized="0"
     inkscape:current-layer="svg2" />
  <g
     id="TRANSFORM_MIRROR">
    <path
       style="fill:#ffffff;stroke-width:0.03125"
       d="M 0,8 V 0 H 3.5 7 V 2.046875 C 7,3.1726563 6.99162,4.09375 6.981387,4.09375 6.954038,4.09375 6.8032063,3.9844425 6.465227,3.7196894 6.1736262,3.4912669 5.9732131,3.3400131 5.5323334,3.015625 5.3273737,2.8648209 5.0935344,2.6892443 4.53125,2.2639693 3.6106688,1.5677018 3.5352684,1.53125 3.015625,1.53125 2.7770977,1.53125 2.6519763,1.547345 2.5052192,1.596906 2.1077308,1.7311394 1.7311394,2.1077308 1.5969055,2.5052192 L 1.53125,2.6996357 v 5.3159893 5.315989 l 0.065656,0.194417 c 0.1342339,0.397488 0.5108253,0.77408 0.9083137,0.908313 0.2719483,0.09184 0.7488633,0.09184 1.0208114,0 0.3732803,-0.126058 0.7365797,-0.471455 0.8902722,-0.846401 L 4.484375,13.421875 4.5,9.7242159 4.515625,6.0265566 4.8475384,6.2867159 C 6.0916603,7.2618791 6.3900744,7.4375 6.8029428,7.4375 H 7 V 11.71875 16 H 3.5 0 Z m 8,7.5 V 15 H 11.5 15 V 8 1 H 11.5 8 V 0.5 0 h 4 4 v 8 8 H 12 8 Z"
       id="path829"
       inkscape:connector-curvature="0" />
    <path
       style="fill:#98cbfe;stroke-width:0.03125"
       d="M 8,11.21875 V 7.4375 h 0.1970572 c 0.4128684,0 0.7112825,-0.1756209 1.9554048,-1.1507841 L 10.484375,6.0265566 10.5,9.7242159 l 0.01563,3.6976591 0.06807,0.166068 c 0.153693,0.374946 0.516992,0.720343 0.890272,0.846401 0.271949,0.09184 0.748864,0.09184 1.020812,0 0.397488,-0.134233 0.77408,-0.510825 0.908313,-0.908313 l 0.06566,-0.194417 V 8.015625 2.6996357 L 13.403094,2.5052192 C 13.268861,2.1077308 12.892269,1.7311394 12.494781,1.5969055 12.348024,1.5473448 12.222902,1.53125 11.984375,1.53125 c -0.519643,0 -0.595044,0.036452 -1.515625,0.7327193 C 9.9064656,2.6892443 9.6726263,2.8648209 9.4676666,3.015625 9.0267869,3.3400131 8.8263738,3.4912669 8.5347734,3.7196894 8.1967941,3.9844425 8.0459625,4.09375 8.0186134,4.09375 8.0083759,4.09375 8,3.3976562 8,2.546875 V 1 h 3.5 3.5 v 7 7 H 11.5 8 Z"
       id="path827"
       inkscape:connector-curvature="0" />
    <path
       style="fill:#fecb32;stroke-width:0.03125"
       d="M 2.6769445,13.953131 C 2.4012793,13.848528 2.1379831,13.569397 2.0656158,13.305037 2.0383556,13.205454 2.0313967,11.85588 2.0380193,7.953125 l 0.00886,-5.21875 0.072266,-0.1467147 C 2.279468,2.2621652 2.5872763,2.0571469 2.9469019,2.0363235 3.3232756,2.0145302 3.3801059,2.0435384 4.25,2.7014693 4.8122844,3.1267444 5.0461237,3.3023209 5.2510834,3.453125 c 0.4156963,0.3058588 0.636195,0.4720369 0.9536947,0.71875 0.1769516,0.1375 0.428206,0.3273437 0.5583428,0.421875 l 0.2366125,0.171875 1.25e-4,1.0859375 1.25e-4,1.0859375 H 6.8632875 C 6.5723253,6.9375 6.4284791,6.8475941 5.1406084,5.8608006 4.9515459,5.7159372 4.6984209,5.5237887 4.5781084,5.4338044 4.4577959,5.34382 4.2890459,5.2164941 4.2031084,5.1508578 4.1171709,5.0852212 4.0364644,5.0314584 4.0237606,5.0313844 c -0.012704,-6.25e-5 -0.026766,1.8596312 -0.03125,4.1326781 l -0.00814,4.1328125 -0.072266,0.146715 c -0.092343,0.187473 -0.2814713,0.376474 -0.4685191,0.4682 -0.1830569,0.08977 -0.5822838,0.111297 -0.7666452,0.04134 z"
       id="path825"
       inkscape:connector-curvature="0" />
    <path
       style="fill:#fe9832;stroke-width:0.03125"
       d="M 11.645694,13.953131 C 11.479564,13.890092 11.29309,13.747163 11.18472,13.599802 10.988923,13.33356 11,13.602133 11,9.1210709 11,6.8716694 10.98945,5.0313106 10.97656,5.0313844 c -0.01289,6.25e-5 -0.09375,0.053837 -0.179688,0.1194734 -0.08594,0.065636 -0.254687,0.1929622 -0.375,0.2829466 -0.120313,0.089984 -0.373437,0.2821328 -0.5625,0.4269962 C 8.5715044,6.8475941 8.4276581,6.9375 8.1366959,6.9375 H 8 L 8.000125,5.8515625 8.00025,4.765625 8.2368625,4.59375 C 8.3669994,4.4992187 8.6182538,4.309375 8.7952053,4.171875 9.112705,3.9251619 9.3332038,3.7589838 9.7489,3.453125 9.9538597,3.3023209 10.187699,3.1267444 10.749983,2.7014693 c 0.869895,-0.6579309 0.926725,-0.6869391 1.303099,-0.6651458 0.359625,0.020823 0.667433,0.2258417 0.82776,0.5513368 l 0.07228,0.1467147 v 5.28125 5.28125 l -0.07227,0.146715 c -0.09234,0.187473 -0.281471,0.376474 -0.468519,0.4682 -0.183057,0.08977 -0.582284,0.111297 -0.766646,0.04134 z"
       id="path823"
       inkscape:connector-curvature="0" />
    <path
       style="fill:#00fe00;stroke-width:0.03125"
       d="M 7,8 V 0 H 7.5 8 v 8 8 H 7.5 7 Z"
       id="path821"
       inkscape:connector-curvature="0" />
    <path
       style="fill:#653200;stroke-width:0.03125"
       d="M 2.4770194,14.424346 C 2.0836996,14.278211 1.7284805,13.915646 1.5969055,13.526031 L 1.53125,13.331614 V 8.015625 2.6996357 L 1.5969055,2.5052192 C 1.7311394,2.1077308 2.1077308,1.7311394 2.5052192,1.5969055 2.6519763,1.5473448 2.7770977,1.53125 3.015625,1.53125 c 0.5196434,0 0.5950438,0.036452 1.515625,0.7327193 0.5622844,0.425275 0.7961237,0.6008516 1.0010834,0.7516557 0.4379469,0.32223 0.6410722,0.4758963 0.9638782,0.7291813 C 6.6787641,3.8880434 6.8667969,4.028185 6.9140625,4.0562316 6.9989362,4.1065941 7,4.1112041 7,4.4286128 7,4.6053756 6.9937134,4.75 6.98603,4.75 6.9693613,4.75 6.6743937,4.5315966 6.203125,4.1703116 5.7793116,3.8454069 5.5278578,3.6558781 5.25161,3.453125 5.0470581,3.3029931 4.8230584,3.1348931 4.25,2.7014693 3.3801059,2.0435384 3.3232756,2.0145302 2.9469019,2.0363235 2.5872763,2.0571469 2.279468,2.2621652 2.1191413,2.5876603 L 2.046875,2.734375 v 5.28125 5.28125 l 0.072266,0.146715 c 0.092236,0.187258 0.281261,0.376282 0.468519,0.468519 0.1203924,0.0593 0.1971742,0.07227 0.4279647,0.07227 0.2307906,0 0.3075722,-0.01296 0.4279647,-0.07227 0.1872581,-0.09224 0.3762828,-0.281261 0.4685191,-0.468519 l 0.072266,-0.146715 0.00815,-4.1328125 c 0.00448,-2.2730469 0.018546,-4.1327519 0.03125,-4.1326781 0.012704,6.25e-5 0.09341,0.053837 0.1793478,0.1194734 0.085937,0.065636 0.2546875,0.1929622 0.375,0.2829466 0.1203125,0.089984 0.3734375,0.2821328 0.5625,0.4269962 C 6.4284956,6.8475941 6.5723419,6.9375 6.8633041,6.9375 H 7 v 0.25 0.25 H 6.8029428 C 6.3900744,7.4375 6.0916603,7.2618791 4.8475384,6.2867159 L 4.515625,6.0265566 4.5,9.7242159 4.484375,13.421875 4.4163028,13.587943 c -0.1536925,0.374946 -0.5169919,0.720343 -0.8902722,0.846401 -0.2820744,0.09526 -0.7784496,0.09053 -1.0490112,-0.01 z m 8.9687496,0 c -0.369381,-0.137241 -0.71157,-0.469241 -0.862072,-0.836403 L 10.515625,13.421875 10.5,9.7242159 10.484375,6.0265566 10.152462,6.2867159 C 8.9083397,7.2618791 8.6099256,7.4375 8.1970572,7.4375 H 8 v -0.25 -0.25 h 0.1366959 c 0.2909622,0 0.4348085,-0.089906 1.7226791,-1.0766994 0.189063,-0.1448634 0.442187,-0.3370119 0.5625,-0.4269962 0.120313,-0.089984 0.289063,-0.2173103 0.375,-0.2829466 0.08594,-0.065637 0.166644,-0.1193994 0.179348,-0.1194734 0.0127,-6.25e-5 0.02677,1.8596312 0.03125,4.1326781 l 0.0082,4.1328125 0.07227,0.146715 c 0.03975,0.08069 0.128412,0.202861 0.197036,0.271483 0.205696,0.205697 0.370896,0.269302 0.699448,0.269302 0.230791,0 0.307572,-0.01296 0.427965,-0.07227 0.187258,-0.09224 0.376282,-0.281261 0.468519,-0.468519 l 0.07227,-0.146715 V 8.015625 2.734375 L 12.880859,2.5876603 C 12.720532,2.2621652 12.412724,2.0571469 12.053098,2.0363235 11.676724,2.0145302 11.619894,2.0435384 10.75,2.7014693 10.176942,3.1348931 9.9529419,3.3029931 9.74839,3.453125 9.4721422,3.6558781 9.2206884,3.8454069 8.796875,4.1703116 8.3256063,4.5315966 8.0306388,4.75 8.01397,4.75 8.0062866,4.75 8,4.6053756 8,4.4286128 8,4.1112041 8.0010625,4.1065941 8.0859375,4.0562316 8.1332031,4.028185 8.3212359,3.8880434 8.5037884,3.7448063 8.8265944,3.4915213 9.0297197,3.337855 9.4676666,3.015625 9.6726263,2.8648209 9.9064656,2.6892443 10.46875,2.2639693 11.389331,1.5677018 11.464732,1.53125 11.984375,1.53125 c 0.238527,0 0.363649,0.016095 0.510406,0.065656 0.397488,0.1342339 0.77408,0.5108253 0.908313,0.9083137 l 0.06566,0.1944165 v 5.3159893 5.3159895 l -0.06566,0.194417 c -0.134233,0.397487 -0.510825,0.77408 -0.908313,0.908313 -0.282075,0.09526 -0.77845,0.09053 -1.049012,-0.01 z"
       id="path819"
       inkscape:connector-curvature="0" />
  </g>
</svg>
