<?xml version="1.0" encoding="UTF-8" standalone="no"?>
<!-- Created with Inkscape (http://www.inkscape.org/) -->

<svg
   xmlns:dc="http://purl.org/dc/elements/1.1/"
   xmlns:cc="http://creativecommons.org/ns#"
   xmlns:rdf="http://www.w3.org/1999/02/22-rdf-syntax-ns#"
   xmlns:svg="http://www.w3.org/2000/svg"
   xmlns="http://www.w3.org/2000/svg"
   xmlns:sodipodi="http://sodipodi.sourceforge.net/DTD/sodipodi-0.dtd"
   xmlns:inkscape="http://www.inkscape.org/namespaces/inkscape"
   version="1.1"
   id="svg2"
   width="16"
   height="16"
   viewBox="0 0 16 16"
   sodipodi:docname="HOOK_ASSIGN.svg"
   inkscape:version="0.92.4 (5da689c313, 2019-01-14)">
  <metadata
     id="metadata8">
    <rdf:RDF>
      <cc:Work
         rdf:about="">
        <dc:format>image/svg+xml</dc:format>
        <dc:type
           rdf:resource="http://purl.org/dc/dcmitype/StillImage" />
        <dc:title></dc:title>
      </cc:Work>
    </rdf:RDF>
  </metadata>
  <defs
     id="defs6" />
  <sodipodi:namedview
     pagecolor="#ffffff"
     bordercolor="#666666"
     borderopacity="1"
     objecttolerance="10"
     gridtolerance="10"
     guidetolerance="10"
     inkscape:pageopacity="0"
     inkscape:pageshadow="2"
     inkscape:window-width="828"
     inkscape:window-height="578"
     id="namedview4"
     showgrid="false"
     inkscape:zoom="14.75"
     inkscape:cx="8"
     inkscape:cy="8"
     inkscape:window-x="0"
     inkscape:window-y="0"
     inkscape:window-maximized="0"
     inkscape:current-layer="svg2" />
  <g
     id="HOOK_ASSIGN">
    <path
       style="fill:#ffffff;stroke-width:0.03125"
       d="M 0,8 V 0 h 8 8 L 15.9975,5.6640625 C 15.9954,10.4109 15.9884,11.297762 15.9541,11.140625 15.89758,10.881587 15.766876,10.501221 15.640098,10.226826 15.47624,9.8721353 15.265949,9.5774794 14.9229,9.2218716 14.574468,8.8606838 14.243754,8.5994978 13.928285,8.4363613 L 13.718981,8.328125 13.718856,7.0550228 C 13.718731,5.5774934 13.719534,5.582465 13.430972,5.2902737 13.155452,5.0112794 13.100455,5 12.015625,5 10.930795,5 10.875798,5.0112794 10.600269,5.2902737 10.294613,5.5997747 10.3125,5.4150578 10.3125,8.2620313 c 0,2.0910717 0.0071,2.5003347 0.04549,2.6090397 L 10.403478,11 H 9.5926991 c -0.9562822,0 -1.0268172,0.01558 -1.3024253,0.287769 -0.2443629,0.241328 -0.29041,0.388234 -0.2897313,0.924341 3.125e-4,0.243756 0.019203,0.516534 0.043822,0.632658 0.099171,0.467785 0.321474,1.00683 0.5705997,1.383602 0.1916259,0.289811 0.706979,0.823495 1.022985,1.059373 0.3868068,0.288726 0.9824238,0.552859 1.5026758,0.666376 0.157137,0.03429 -0.729725,0.04131 -5.4765621,0.0434 L 0,16 Z m 6.4539091,2.763953 C 6.6813475,10.663368 6.9808634,10.362746 7.1080312,10.107413 7.158855,10.005367 7.2097891,9.9148438 7.2212181,9.90625 7.2492916,9.8851413 7.375,9.6055456 7.375,9.5642144 c 0,-0.01813 0.013874,-0.032964 0.030831,-0.032964 0.016957,0 0.052339,-0.045703 0.078628,-0.1015625 C 7.5107469,9.3738281 7.5947044,9.215625 7.6710309,9.078125 7.7473572,8.940625 7.8424597,8.7648438 7.88237,8.6875 7.9222803,8.6101562 7.9931991,8.4873887 8.0399672,8.4146834 8.0867353,8.3419781 8.125,8.2643831 8.125,8.2422503 8.125,8.2201173 8.15781,8.1530413 8.197912,8.0931916 8.238014,8.0333426 8.3047973,7.9140625 8.3463204,7.828125 8.3878434,7.742188 8.4304864,7.6648438 8.4410834,7.65625 8.4516804,7.64766 8.4979504,7.560753 8.5439066,7.4631313 8.5898626,7.3655093 8.6374556,7.2811344 8.6496691,7.2756313 8.6618825,7.2701278 8.7418959,7.125 8.8274769,6.953125 8.9130578,6.78125 9.0189434,6.584375 9.0627781,6.515625 9.1066125,6.446875 9.1746019,6.3273438 9.2138653,6.25 9.2531288,6.1726563 9.3321597,6.025 9.3894894,5.921875 9.4468194,5.81875 9.54952,5.6289063 9.6177134,5.5 9.6859066,5.3710938 9.7853775,5.1882813 9.8387594,5.09375 9.8921413,4.9992188 9.9746766,4.8445313 10.022171,4.75 c 0.04749,-0.094531 0.0952,-0.1789062 0.106016,-0.1875 0.01081,-0.00859 0.05726,-0.095497 0.10322,-0.1931187 0.04596,-0.097622 0.09355,-0.1819969 0.105762,-0.1875 C 10.366106,4.1688422 10.5,3.8944094 10.5,3.8481397 c 0,-0.019602 0.01055,-0.035801 0.02344,-0.035998 0.01289,-1.875e-4 0.051,-0.059963 0.08469,-0.1328125 0.03369,-0.07285 0.09739,-0.1887041 0.141551,-0.2574541 0.04416,-0.06875 0.112421,-0.1882812 0.151684,-0.265625 0.03926,-0.077344 0.118513,-0.225 0.17611,-0.328125 0.114346,-0.2047297 0.263357,-0.4858062 0.417389,-0.7873098 0.09232,-0.1807077 0.09889,-0.2151992 0.09889,-0.519465 0,-0.4017338 -0.05068,-0.53398689 -0.300272,-0.78357845 C 11.044869,0.48916294 10.911037,0.4375 10.515625,0.4375 c -0.252126,0 -0.350177,0.013269 -0.461309,0.0624279 C 9.9116113,0.56305319 9.5957266,0.85188869 9.5235856,0.98521241 9.5020197,1.0250683 9.4338362,1.1536846 9.3720666,1.2710264 9.209445,1.579953 9.0955837,1.7839454 9.0354463,1.8741111 9.0064612,1.9175687 8.9128006,2.09375 8.8273109,2.265625 8.7418212,2.4375 8.6618884,2.5856398 8.6496828,2.5948247 c -0.012206,0.00918 -0.076857,0.1216848 -0.14367,0.25 C 8.4392,2.9731398 8.3449625,3.1484375 8.2965963,3.234375 8.24823,3.3203125 8.1613628,3.4820313 8.1035581,3.59375 8.0457531,3.7054688 7.9507797,3.88125 7.8925056,3.984375 7.8342313,4.0875 7.7383688,4.2632813 7.6794778,4.375 7.6205866,4.4867187 7.5279872,4.6589844 7.4737016,4.7578125 7.103895,5.4310506 6.9633162,5.6914406 6.8705566,5.875 6.8314716,5.9523437 6.7826719,6.0367188 6.7621131,6.0625 6.7415541,6.0882812 6.6376656,6.278125 6.53125,6.484375 6.4248344,6.690625 6.3209459,6.8804688 6.3003869,6.90625 6.2798281,6.9320312 6.2295722,7.0234375 6.1887078,7.109375 6.1478431,7.1953125 6.1062447,7.2726562 6.0962669,7.28125 6.0862888,7.2898437 6.0304447,7.3882813 5.9721684,7.5 5.9138925,7.6117187 5.8386275,7.7557931 5.8049128,7.8201656 L 5.7436141,7.9372062 4.7168441,6.9095141 C 3.9711303,6.1631303 3.6490903,5.8616416 3.5403497,5.8080984 3.41184,5.7448209 3.3441319,5.734375 3.0625,5.734375 2.6728183,5.734375 2.5242564,5.79122 2.2827381,6.0327381 2.0412198,6.2742566 1.984375,6.4228181 1.984375,6.8125 c 0,0.2812 0.010494,0.3494353 0.073379,0.4771378 0.054616,0.1109116 0.4842089,0.5598428 1.6801307,1.7557647 1.8427675,1.8427675 1.7808028,1.7936375 2.2660397,1.7966655 0.2234415,0.0014 0.3004134,-0.01197 0.449985,-0.07811 z m 6.4054659,5.190166 c 0.520252,-0.113517 1.115869,-0.37765 1.502676,-0.666376 0.316006,-0.235878 0.831359,-0.769562 1.022985,-1.059373 0.244284,-0.36945 0.468869,-0.909716 0.569083,-1.368995 0.03565,-0.163382 0.04123,0.02655 0.0434,1.476563 L 16,16 14.335938,15.9975 c -1.450014,-0.0022 -1.639945,-0.0077 -1.476563,-0.0434 z"
       id="path829"
       inkscape:connector-curvature="0" />
    <path
       style="fill:#fefefe;stroke-width:0.03125"
       d="M 11.140625,15.954119 C 10.620373,15.840602 10.024756,15.576469 9.6379488,15.287743 9.3219428,15.051865 8.8065897,14.518181 8.6149637,14.22837 8.3658381,13.851598 8.143535,13.312553 8.0443641,12.844768 8.0197213,12.728531 8.0008516,12.455743 8.0005425,12.211273 7.9998706,11.680488 8.0448569,11.536242 8.2877691,11.290274 8.5582669,11.016374 8.6319225,11 9.5935359,11 h 0.8099421 l -0.04549,-0.128929 c -0.03835,-0.108705 -0.04549,-0.517968 -0.04549,-2.6090397 0,-2.8469735 -0.01789,-2.6622566 0.287769,-2.9717576 C 10.875798,5.0112794 10.930795,5 12.015625,5 c 1.08483,0 1.139827,0.011279 1.415356,0.2902737 0.288561,0.2921913 0.287751,0.2872197 0.287885,1.7647491 l 1.25e-4,1.2731022 0.209304,0.1082362 c 0.115117,0.05953 0.315456,0.1874972 0.445197,0.2843716 0.30604,0.2285131 0.822676,0.7652425 1.011554,1.0508972 0.249125,0.376772 0.471428,0.915817 0.570599,1.383602 0.05917,0.279116 0.05917,1.41042 0,1.689536 -0.09917,0.467784 -0.321474,1.00683 -0.570599,1.383602 -0.191626,0.289811 -0.706979,0.823495 -1.022985,1.059373 -0.393485,0.29371 -0.989202,0.555939 -1.517283,0.667893 -0.269848,0.05721 -1.43978,0.05617 -1.704144,-0.0015 z M 12.9375,15.406687 c 0.645829,-0.194447 1.082835,-0.45406 1.548981,-0.920206 0.470725,-0.470725 0.729984,-0.909789 0.923871,-1.564606 0.06782,-0.22904 0.07402,-0.306331 0.07402,-0.921875 0,-0.615544 -0.0062,-0.692835 -0.07402,-0.921875 C 15.216465,10.423307 14.957206,9.9842437 14.486481,9.5135187 14.139702,9.1667397 13.835563,8.9505072 13.472838,8.7928534 L 13.234375,8.6892084 13.21875,7.2531056 C 13.20364,5.8640919 13.20101,5.8141744 13.13869,5.7307447 13.10325,5.6833027 13.035425,5.6154928 12.987961,5.5800559 c -0.08241,-0.061531 -0.126184,-0.064431 -0.97234,-0.064431 -0.846156,0 -0.889927,0.0029 -0.97234,0.064431 -0.04746,0.035437 -0.115292,0.103265 -0.150729,0.1507291 -0.06379,0.085443 -0.06443,0.1105759 -0.06443,2.53484 0,2.424264 6.38e-4,2.449398 0.06443,2.53484 0.147837,0.198012 0.195558,0.213458 0.726907,0.235284 0.269452,0.01107 0.5325,0.0338 0.584552,0.05052 0.295976,0.09506 0.497269,0.260256 0.632538,0.519099 0.119766,0.22918 0.119766,0.560082 0,0.789262 -0.04606,0.08814 -0.12828,0.204788 -0.182707,0.259215 -0.05443,0.05443 -0.171073,0.136645 -0.259215,0.182707 -0.22918,0.119766 -0.560082,0.119766 -0.789262,0 -0.309846,-0.161922 -0.46234,-0.385103 -0.556806,-0.814911 -0.06225,-0.283232 -0.174732,-0.438618 -0.356149,-0.491999 -0.07346,-0.02162 -0.428833,-0.03013 -0.9948774,-0.02382 -0.8324066,0.0093 -0.8853066,0.01333 -0.9668191,0.07424 -0.1993881,0.148981 -0.2151844,0.198016 -0.2140925,0.664577 0.00112,0.479277 0.050062,0.702039 0.2627216,1.195844 0.3737881,0.867952 1.1764931,1.597423 2.0956534,1.904461 0.412606,0.137827 0.546848,0.153758 1.203125,0.142775 0.539357,-0.009 0.657116,-0.02013 0.859375,-0.08103 z"
       id="path827"
       inkscape:connector-curvature="0" />
    <path
       style="fill:#b5cfe5;stroke-width:0.03125"
       d="M 11.390625,14.955356 C 10.245637,14.691402 9.4194522,13.911482 9.0878306,12.781514 9.0550013,12.66965 9.0197428,12.448047 9.0094788,12.289063 L 8.9908172,12 h 0.7666778 0.766678 l 0.03847,0.203872 c 0.118122,0.626024 0.561657,1.080958 1.19284,1.223497 0.187176,0.04227 0.254075,0.0441 0.4344,0.01187 0.632637,-0.113058 1.093752,-0.558237 1.237488,-1.194722 0.04227,-0.187176 0.0441,-0.254075 0.01187,-0.4344 -0.08385,-0.469219 -0.384613,-0.890268 -0.777646,-1.088671 -0.278692,-0.140683 -0.525801,-0.189205 -0.966282,-0.189736 L 11.3125,10.53125 V 8.265625 6 h 0.702831 0.70283 l 0.0081,1.5351291 0.0081,1.535129 0.217897,0.073382 c 0.980583,0.3302353 1.692582,1.0962219 1.972425,2.1219849 0.08558,0.313695 0.08558,1.155055 0,1.46875 -0.150305,0.55094 -0.410394,1.00475 -0.797983,1.392339 -0.377038,0.377038 -0.790164,0.618909 -1.3452,0.787569 -0.267784,0.08137 -1.1084,0.106195 -1.390889,0.04107 z"
       id="path825"
       inkscape:connector-curvature="0" />
    <path
       style="fill:#78fe7f;stroke-width:0.03125"
       d="M 5.71875,10.4138 C 5.6553034,10.384244 4.9384859,9.6946778 4.0117037,8.7716516 2.3049962,7.0718609 2.34375,7.1175381 2.34375,6.805725 c 0,-0.2070309 0.054279,-0.3356353 0.2096969,-0.4968416 0.1959363,-0.2032328 0.4848815,-0.2715178 0.7622025,-0.1801268 0.075636,0.024926 0.4540378,0.381694 1.3140222,1.2388971 L 5.8374681,8.5715441 5.8943331,8.4654597 C 5.9256088,8.4071131 5.9680006,8.33125 5.9885369,8.296875 6.0090731,8.2625 6.0694388,8.15 6.1226825,8.046875 6.1759266,7.94375 6.2593256,7.7890625 6.3080141,7.703125 6.4278863,7.4915441 6.6131447,7.1493691 6.7309941,6.921875 6.7844159,6.81875 6.8362888,6.7273437 6.8462669,6.71875 6.8562469,6.71016 6.8978429,6.632813 6.9387079,6.546875 6.9795719,6.460938 7.0298279,6.3695312 7.050387,6.34375 7.070946,6.317969 7.174907,6.128125 7.2814114,5.921875 7.3879156,5.715625 7.4887681,5.5300837 7.5055278,5.5095609 7.5393488,5.4681472 7.6673419,5.2316803 7.798255,4.96875 7.8453222,4.8742187 7.9170006,4.7479075 7.9575406,4.6880584 7.9980809,4.6282091 8.03125,4.5600675 8.03125,4.5366325 c 0,-0.023435 0.026864,-0.080337 0.059698,-0.1264472 C 8.1541097,4.3214828 8.2535391,4.1458994 8.4294053,3.8125 8.4883363,3.7007812 8.583845,3.525 8.6416472,3.421875 8.6994491,3.31875 8.79429,3.1429687 8.8524044,3.03125 9.0384416,2.6736142 9.16218,2.4544568 9.2066747,2.4037893 9.2305038,2.3766548 9.25,2.3409563 9.25,2.3244594 9.25,2.2859571 9.3665153,2.0567474 9.3979616,2.0333884 9.4111141,2.0236185 9.5044969,1.8526914 9.6054791,1.6535503 9.826135,1.2184081 9.9575959,1.0311092 10.130029,0.90619953 10.248701,0.82023431 10.280529,0.8125 10.515625,0.8125 c 0.235196,0 0.266893,0.007711 0.385823,0.0938637 0.07127,0.051625 0.171813,0.1521724 0.223438,0.2234387 0.08527,0.1177086 0.09386,0.1519523 0.09386,0.373924 0,0.1901716 -0.01521,0.2740097 -0.06862,0.3781238 -0.03774,0.073576 -0.07642,0.140806 -0.08594,0.1493998 -0.0095,0.00859 -0.06098,0.1 -0.114355,0.203125 -0.181013,0.3497506 -0.300544,0.5623407 -0.344009,0.6118357 -0.02383,0.027135 -0.04332,0.065373 -0.04332,0.084975 0,0.034929 -0.03856,0.1097983 -0.24138,0.4686642 -0.05542,0.098051 -0.141568,0.2580381 -0.19145,0.3555263 -0.04988,0.097488 -0.117408,0.217019 -0.1500587,0.2656249 C 9.9469606,4.0696069 9.8503006,4.25 9.7648109,4.421875 9.6793212,4.59375 9.5993825,4.7388778 9.5871691,4.7443812 c -0.012213,0.0055 -0.059806,0.089878 -0.1057625,0.1875 C 9.4354503,5.0295028 9.3890016,5.1164062 9.3781872,5.125 9.3673728,5.1335937 9.3196656,5.2179687 9.2721709,5.3125 9.2246766,5.4070312 9.1421412,5.5617187 9.0887594,5.65625 9.0353775,5.7507812 8.9359066,5.9335937 8.8677134,6.0625 8.79952,6.1914062 8.6968194,6.38125 8.6394894,6.484375 8.5821597,6.5875 8.5031287,6.7351562 8.4638653,6.8125 8.4246019,6.8898437 8.3566125,7.009375 8.3127781,7.078125 8.2689434,7.146875 8.1630578,7.34375 8.0774769,7.515625 7.9918959,7.6875 7.9068425,7.8421875 7.8884694,7.859375 7.8700964,7.876563 7.8280984,7.953906 7.7951404,8.03125 7.7621824,8.108594 7.6963554,8.2301644 7.6488585,8.3014069 c -0.047497,0.071243 -0.086419,0.1415553 -0.086493,0.15625 -6.25e-5,0.014695 -0.042201,0.089999 -0.093616,0.1673431 -0.051415,0.077344 -0.093542,0.1584825 -0.093616,0.1803084 -6.25e-5,0.021826 -0.038016,0.09917 -0.084317,0.171875 C 7.1748241,9.1593241 7.0799453,9.3286363 6.9803294,9.53125 6.9338524,9.625781 6.8859994,9.7101563 6.8739884,9.71875 6.8619774,9.72734 6.8140824,9.815234 6.7675556,9.9140625 6.7210286,10.01289 6.6699196,10.09375 6.6539806,10.09375 c -0.015939,0 -0.028981,0.01359 -0.028981,0.03021 0,0.05214 -0.2014228,0.233 -0.3230972,0.290105 -0.1463837,0.0687 -0.4353931,0.06857 -0.5831528,-2.5e-4 z"
       id="path823"
       inkscape:connector-curvature="0" />
    <path
       style="fill:#191919;stroke-width:0.03125"
       d="M 5.5395059,10.746271 C 5.3675156,10.663205 5.1559922,10.46351 3.7378844,9.0454025 2.5419626,7.8494806 2.1123701,7.4005494 2.0577537,7.2896378 1.9948689,7.1619353 1.984375,7.0937 1.984375,6.8125 1.984375,6.4228181 2.04122,6.2742566 2.2827381,6.0327381 2.5242564,5.7912197 2.6728183,5.734375 3.0625,5.734375 c 0.2816319,0 0.34934,0.010446 0.4778497,0.073723 0.1087406,0.053543 0.4307806,0.3550319 1.1764944,1.1014157 l 1.02677,1.0276921 0.061299,-0.1170406 C 5.8386275,7.7557931 5.9138925,7.6117187 5.9721684,7.5 6.0304447,7.3882813 6.0862887,7.2898437 6.0962669,7.28125 6.1062447,7.2726562 6.1478431,7.1953125 6.1887078,7.109375 6.2295722,7.0234375 6.2798281,6.9320312 6.3003869,6.90625 6.3209459,6.8804688 6.4248344,6.690625 6.53125,6.484375 6.6376656,6.278125 6.7415541,6.0882812 6.7621131,6.0625 6.7826719,6.0367188 6.8314716,5.9523437 6.8705566,5.875 6.9633162,5.6914406 7.103895,5.4310506 7.4737016,4.7578125 7.5279872,4.6589844 7.6205866,4.4867187 7.6794778,4.375 7.7383687,4.2632813 7.8342312,4.0875 7.8925056,3.984375 7.9507797,3.88125 8.0457531,3.7054688 8.1035581,3.59375 8.1613628,3.4820313 8.24823,3.3203125 8.2965962,3.234375 8.3449625,3.1484375 8.4392,2.9731398 8.5060128,2.8448247 c 0.066813,-0.1283152 0.1314641,-0.2408152 0.14367,-0.25 C 8.6618884,2.5856398 8.7418212,2.4375 8.8273109,2.265625 8.9128006,2.09375 9.0064612,1.9175687 9.0354462,1.8741111 9.0955837,1.7839454 9.209445,1.579953 9.3720666,1.2710264 9.4338362,1.1536846 9.5020197,1.0250683 9.5235856,0.98521241 9.5957266,0.85188869 9.9116112,0.56305319 10.054316,0.49992787 10.165448,0.45076897 10.263499,0.4375 10.515625,0.4375 c 0.395412,0 0.529244,0.0516629 0.777853,0.30027175 0.249592,0.24959156 0.300272,0.38184465 0.300272,0.78357845 0,0.3042658 -0.0066,0.3387573 -0.09889,0.519465 -0.154032,0.3015036 -0.303043,0.58258 -0.417389,0.7873098 -0.0576,0.103125 -0.136846,0.2507812 -0.17611,0.328125 -0.03926,0.077344 -0.107521,0.196875 -0.151684,0.265625 -0.04416,0.06875 -0.107861,0.1846044 -0.141551,0.2574541 -0.03369,0.07285 -0.0718,0.1326153 -0.08469,0.1328125 -0.01289,1.875e-4 -0.02344,0.016396 -0.02344,0.035998 0,0.04627 -0.133894,0.3207025 -0.162831,0.3337415 -0.01221,0.0055 -0.05981,0.089878 -0.105762,0.1875 -0.04596,0.097622 -0.09241,0.184525 -0.10322,0.1931188 -0.01081,0.00859 -0.05852,0.092969 -0.106016,0.1875 C 9.9746766,4.8445312 9.8921412,4.9992187 9.8387594,5.09375 9.7853775,5.1882812 9.6859066,5.3710937 9.6177134,5.5 9.54952,5.6289062 9.4468194,5.81875 9.3894894,5.921875 9.3321597,6.025 9.2531287,6.1726562 9.2138653,6.25 9.1746019,6.3273437 9.1066125,6.446875 9.0627781,6.515625 9.0189434,6.584375 8.9130578,6.78125 8.8274769,6.953125 8.7418959,7.125 8.6618825,7.2701278 8.6496691,7.2756312 c -0.012213,0.0055 -0.059806,0.089878 -0.1057625,0.1875 C 8.4979506,7.5607532 8.4516796,7.6476562 8.4410834,7.65625 8.4304864,7.66484 8.3878434,7.742187 8.3463204,7.828125 8.3047975,7.9140625 8.2380137,8.0333425 8.1979122,8.0931916 8.1578103,8.1530409 8.125,8.2201172 8.125,8.2422503 8.125,8.2643833 8.086735,8.3419783 8.039967,8.4146834 7.9931991,8.4873887 7.9222803,8.6101562 7.88237,8.6875 7.8424597,8.7648437 7.7473572,8.940625 7.6710309,9.078125 7.5947044,9.215625 7.5107469,9.3738281 7.4844584,9.4296875 7.45817,9.4855469 7.4227875,9.53125 7.4058306,9.53125 c -0.016957,0 -0.030831,0.014834 -0.030831,0.032964 0,0.041331 -0.1257084,0.3209268 -0.1537819,0.3420356 -0.011429,0.00859 -0.062363,0.099117 -0.1131869,0.2011624 -0.1271678,0.255334 -0.4266837,0.555956 -0.6541221,0.65654 -0.1495716,0.06615 -0.2265435,0.07951 -0.449985,0.07812 -0.2337669,-0.0015 -0.2954175,-0.01418 -0.4644178,-0.0958 z M 6.3019028,10.414063 C 6.4235772,10.356958 6.625,10.176103 6.625,10.123958 c 0,-0.01661 0.013041,-0.03021 0.028981,-0.03021 0.015939,0 0.067048,-0.08086 0.113575,-0.1796875 C 6.814083,9.8152325 6.861978,9.7273417 6.8739888,9.718748 6.8859998,9.710158 6.9338528,9.625779 6.9803298,9.531248 7.0799458,9.3286343 7.1748245,9.1593221 7.290817,8.9771814 7.337118,8.9044764 7.375061,8.8271324 7.375134,8.8053064 7.3751965,8.7834804 7.417335,8.7023418 7.46875,8.624998 7.520165,8.547654 7.562292,8.4723499 7.562366,8.4576549 7.5624285,8.4429599 7.601361,8.3726479 7.648859,8.3014049 7.6963559,8.2301644 7.7621828,8.1085937 7.7951406,8.03125 7.8280984,7.9539062 7.8700966,7.8765625 7.8884694,7.859375 7.9068425,7.8421875 7.9918959,7.6875 8.0774769,7.515625 8.1630578,7.34375 8.2689434,7.146875 8.3127781,7.078125 8.3566125,7.009375 8.4246019,6.8898437 8.4638653,6.8125 8.5031288,6.7351562 8.5821597,6.5875 8.6394894,6.484375 8.6968194,6.38125 8.79952,6.1914062 8.8677134,6.0625 8.9359066,5.9335937 9.0353775,5.7507812 9.0887594,5.65625 9.1421413,5.5617187 9.2246766,5.4070312 9.2721709,5.3125 9.3196656,5.2179687 9.3673728,5.1335937 9.3781872,5.125 9.3890012,5.11641 9.4354502,5.029503 9.4814066,4.9318812 9.5273626,4.8342592 9.5749556,4.7498844 9.5871691,4.7443812 9.5993825,4.7388778 9.6793213,4.59375 9.7648109,4.421875 9.8503006,4.25 9.9469606,4.0696069 9.9796113,4.0210013 10.012262,3.9723953 10.079788,3.8528641 10.12967,3.7553763 10.179552,3.6578881 10.265704,3.4979013 10.32112,3.39985 10.523939,3.0409841 10.5625,2.9661146 10.5625,2.9311858 c 0,-0.019602 0.0195,-0.057841 0.04332,-0.084975 0.04347,-0.049495 0.162996,-0.2620851 0.344009,-0.6118357 0.05337,-0.103125 0.104832,-0.1945312 0.114355,-0.203125 0.0095,-0.00859 0.04819,-0.075824 0.08594,-0.1493998 0.05341,-0.1041141 0.06862,-0.1879522 0.06862,-0.3781238 0,-0.2219717 -0.0086,-0.2562154 -0.09386,-0.373924 C 11.073261,1.0585361 10.972714,0.95798869 10.901448,0.90636366 10.782518,0.82021137 10.750821,0.8125 10.515625,0.8125 c -0.235096,0 -0.266924,0.007734 -0.385596,0.0936995 C 9.9575959,1.0311092 9.826135,1.2184081 9.6054791,1.6535503 9.5044969,1.8526914 9.4111141,2.0236185 9.3979616,2.0333884 9.3665153,2.0567474 9.25,2.2859571 9.25,2.3244594 c 0,0.016497 -0.019496,0.052195 -0.043325,0.07933 C 9.16218,2.4544568 9.0384416,2.6736142 8.8524044,3.03125 8.79429,3.1429688 8.6994491,3.31875 8.6416472,3.421875 8.583845,3.525 8.4883362,3.7007813 8.4294053,3.8125 8.2535391,4.1458994 8.1541097,4.3214828 8.0909478,4.4101853 8.0581141,4.4562959 8.03125,4.5131972 8.03125,4.5366325 c 0,0.023435 -0.033169,0.091577 -0.073709,0.1514259 C 7.9170006,4.7479075 7.8453222,4.8742188 7.798255,4.96875 7.6673419,5.2316803 7.5393487,5.4681472 7.5055278,5.5095609 7.4887681,5.5300838 7.3879156,5.715625 7.2814112,5.921875 7.1749069,6.128125 7.0709459,6.3179688 7.0503869,6.34375 7.0298279,6.369531 6.9795719,6.4609375 6.9387078,6.546875 6.8978428,6.632812 6.8562448,6.7101563 6.8462668,6.71875 6.8362868,6.72734 6.7844158,6.81875 6.730994,6.921875 6.6131447,7.1493691 6.4278862,7.4915441 6.3080141,7.703125 6.2593256,7.7890625 6.1759266,7.94375 6.1226825,8.046875 6.0694387,8.15 6.0090731,8.2625 5.9885369,8.296875 5.9680006,8.33125 5.9256087,8.4071131 5.8943331,8.4654597 L 5.8374681,8.5715441 4.6296716,7.3676537 C 3.7696872,6.5104506 3.391285,6.1536822 3.3156494,6.1287566 3.0383284,6.0373656 2.7493832,6.1056506 2.5534469,6.3088834 2.3980288,6.4700897 2.34375,6.5986941 2.34375,6.805725 c 0,0.3118131 -0.038754,0.2661359 1.6679537,1.9659266 0.9267822,0.9230262 1.6435997,1.6125924 1.7070463,1.6421484 0.1477597,0.06883 0.4367691,0.06896 0.5831528,2.5e-4 z"
       id="path821"
       inkscape:connector-curvature="0" />
    <path
       style="fill:#000000;stroke-width:0.03125"
       d="M 11.265625,15.455481 C 10.150088,15.201489 9.2094197,14.439125 8.7793466,13.440478 8.5666866,12.946673 8.5177469,12.72391 8.516625,12.244633 c -0.00109,-0.466561 0.014704,-0.515596 0.2140925,-0.664577 0.081512,-0.06091 0.1344125,-0.06497 0.9668191,-0.07424 0.5660444,-0.0063 0.9214124,0.0022 0.9948774,0.02382 0.181417,0.05338 0.293898,0.208767 0.356149,0.491999 0.09447,0.429808 0.24696,0.652989 0.556806,0.814911 0.22918,0.119766 0.560082,0.119766 0.789262,0 0.08814,-0.04606 0.204788,-0.12828 0.259215,-0.182707 0.05443,-0.05443 0.136645,-0.171073 0.182707,-0.259215 0.119766,-0.22918 0.119766,-0.560082 0,-0.789262 -0.135269,-0.258843 -0.336562,-0.424037 -0.632538,-0.519099 -0.05205,-0.01672 -0.3151,-0.03945 -0.584552,-0.05052 -0.531349,-0.02183 -0.57907,-0.03727 -0.726907,-0.235284 -0.06379,-0.08544 -0.06443,-0.110576 -0.06443,-2.53484 0,-2.4242641 6.38e-4,-2.4493975 0.06443,-2.53484 0.03544,-0.047464 0.103265,-0.1152922 0.150729,-0.1507291 0.08241,-0.061531 0.126184,-0.064431 0.97234,-0.064431 0.846156,0 0.889927,0.0029 0.97234,0.064431 0.04746,0.035437 0.115292,0.1032469 0.150729,0.1506888 0.06232,0.08343 0.06494,0.1333472 0.08006,1.5223609 l 0.01563,1.4361028 0.238463,0.103645 c 0.362725,0.1576538 0.666864,0.3738863 1.013643,0.7206653 0.470725,0.470725 0.729984,0.9097893 0.923871,1.5646063 0.06782,0.22904 0.07402,0.306331 0.07402,0.921875 0,0.615544 -0.0062,0.692835 -0.07402,0.921875 -0.193887,0.654818 -0.453146,1.093881 -0.923871,1.564606 -0.355926,0.355926 -0.655074,0.565864 -1.046004,0.734069 -0.53126,0.228585 -0.668793,0.255556 -1.362352,0.267163 -0.449328,0.0075 -0.677702,-0.0015 -0.8125,-0.03223 z m 1.515889,-0.541198 c 0.555036,-0.16866 0.968162,-0.410531 1.3452,-0.787569 0.387589,-0.387589 0.647678,-0.841399 0.797983,-1.392339 0.08558,-0.313695 0.08558,-1.155055 0,-1.46875 C 14.644854,10.239862 13.932855,9.4738759 12.952272,9.1436406 L 12.734375,9.0702581 12.726268,7.5351291 12.718161,6 H 12.015331 11.3125 v 2.265625 2.265625 l 0.382813,4.62e-4 c 0.440481,5.32e-4 0.68759,0.04905 0.966282,0.189737 0.393033,0.198402 0.693792,0.619452 0.777646,1.08867 0.100205,0.56071 -0.26117,1.219603 -0.81428,1.484674 -0.323976,0.155262 -0.589648,0.195771 -0.86948,0.132577 -0.631183,-0.142539 -1.074718,-0.597474 -1.19284,-1.223498 L 10.524173,12 H 9.757495 8.9908172 l 0.018662,0.289063 c 0.010264,0.158984 0.045523,0.380587 0.078352,0.492451 0.3316216,1.129968 1.1578068,1.909888 2.3027948,2.173842 0.282489,0.06512 1.123105,0.0403 1.390889,-0.04107 z"
       id="path819"
       inkscape:connector-curvature="0" />
  </g>
</svg>
