<?xml version="1.0" encoding="UTF-8" standalone="no"?>
<!-- Created with Inkscape (http://www.inkscape.org/) -->

<svg
   xmlns:dc="http://purl.org/dc/elements/1.1/"
   xmlns:cc="http://creativecommons.org/ns#"
   xmlns:rdf="http://www.w3.org/1999/02/22-rdf-syntax-ns#"
   xmlns:svg="http://www.w3.org/2000/svg"
   xmlns="http://www.w3.org/2000/svg"
   xmlns:sodipodi="http://sodipodi.sourceforge.net/DTD/sodipodi-0.dtd"
   xmlns:inkscape="http://www.inkscape.org/namespaces/inkscape"
   version="1.1"
   id="svg2"
   width="16"
   height="16"
   viewBox="0 0 16 16"
   sodipodi:docname="HOOK_RECENTER.svg"
   inkscape:version="0.92.4 (5da689c313, 2019-01-14)">
  <metadata
     id="metadata8">
    <rdf:RDF>
      <cc:Work
         rdf:about="">
        <dc:format>image/svg+xml</dc:format>
        <dc:type
           rdf:resource="http://purl.org/dc/dcmitype/StillImage" />
        <dc:title></dc:title>
      </cc:Work>
    </rdf:RDF>
  </metadata>
  <defs
     id="defs6" />
  <sodipodi:namedview
     pagecolor="#ffffff"
     bordercolor="#666666"
     borderopacity="1"
     objecttolerance="10"
     gridtolerance="10"
     guidetolerance="10"
     inkscape:pageopacity="0"
     inkscape:pageshadow="2"
     inkscape:window-width="955"
     inkscape:window-height="711"
     id="namedview4"
     showgrid="false"
     inkscape:zoom="14.75"
     inkscape:cx="8"
     inkscape:cy="8"
     inkscape:window-x="0"
     inkscape:window-y="0"
     inkscape:window-maximized="0"
     inkscape:current-layer="svg2" />
  <g
     id="HOOK_RECENTER">
    <path
       style="fill:#ffffff;stroke-width:0.03125"
       d="M 0,8 V 0 h 8 8 L 15.9975,5.6640625 C 15.9954,10.4109 15.9884,11.297762 15.9541,11.140625 15.89758,10.881587 15.766876,10.501221 15.640098,10.226826 15.47624,9.8721353 15.265949,9.5774794 14.9229,9.2218716 14.574468,8.8606838 14.243754,8.5994978 13.928285,8.4363613 L 13.718981,8.328125 13.718856,7.0558597 c -9.3e-5,-1.2004463 -0.0037,-1.2818041 -0.06334,-1.441246 C 13.584646,5.4251866 13.287592,5.1122216 13.14461,5.0763353 13.09945,5.0649993 13.0625,5.0469783 13.0625,5.0362883 c 0,-0.01069 0.463362,-0.483775 1.029692,-1.0513 C 15.231302,2.843477 15.257725,2.808523 15.322758,2.3571098 15.392898,1.87026 15.244738,1.4361438 14.893264,1.0986405 14.550715,0.76970747 14.130502,0.63824494 13.645142,0.70816819 13.179715,0.77521972 13.186157,0.77012303 11.733959,2.2201518 L 10.421042,3.5311066 9.8904922,2.999867 C 9.5371753,2.6460911 9.32475,2.457013 9.2545941,2.4338594 9.1063219,2.3849253 8.8275453,2.4140638 8.7271975,2.4889844 8.6817066,2.5229482 8.6154928,2.589571 8.5800559,2.637035 8.5163606,2.7223478 8.515625,2.7493277 8.515625,5 c 0,2.2506722 7.344e-4,2.2776522 0.064431,2.362965 0.1594044,0.213505 0.16257,0.2142269 0.9846535,0.2245512 l 0.7477905,0.00939 v 0.4500431 0.4500431 l -0.7946596,0.00932 C 8.643242,8.5165654 8.6468882,8.5157724 8.486306,8.7307436 8.424297,8.8137546 8.42154,8.8612589 8.412971,9.9944377 l -0.0089,1.1774403 -0.1402522,0.142428 c -0.2166075,0.219969 -0.2639235,0.381174 -0.2632716,0.89697 3.125e-4,0.24447 0.019179,0.517258 0.043822,0.633495 0.099171,0.467784 0.321474,1.00683 0.5705997,1.383602 0.1916259,0.289811 0.706979,0.823495 1.022985,1.059373 0.3868071,0.288726 0.9824241,0.552859 1.5026761,0.666376 0.157137,0.03429 -0.729725,0.04131 -5.4765624,0.0434 L 0,16 Z m 2.4387609,7.312261 c 0.395403,-0.07499 0.4156104,-0.0916 1.8343391,-1.508214 l 1.319975,-1.318006 0.5394,0.535645 c 0.5857378,0.581661 0.6129266,0.598322 0.9199222,0.563719 0.1529244,-0.01724 0.2649665,-0.08504 0.3675469,-0.22244 0.063666,-0.08527 0.064431,-0.112761 0.064431,-2.31609 0,-2.2033291 -7.656e-4,-2.2308159 -0.064431,-2.31609 C 7.3845072,8.6833209 7.3166791,8.6154928 7.269215,8.5800559 7.1839409,8.5163897 7.1564541,8.515625 4.953125,8.515625 c -2.203329,0 -2.230816,7.656e-4 -2.31609,0.064431 -0.1373954,0.1025804 -0.2052036,0.2146225 -0.2224404,0.3675469 -0.03472,0.3080306 -0.019405,0.3327613 0.5793416,0.9355316 l 0.5513041,0.5550095 -1.3180216,1.31999 c -1.45690501,1.459082 -1.45200982,1.452906 -1.51872614,1.916006 -0.067563,0.468977 0.0637087,0.879172 0.39014804,1.219124 0.3584316,0.37327 0.8201072,0.517615 1.3401203,0.418997 z M 7.2692306,7.4199441 c 0.047455,-0.035437 0.1152766,-0.103265 0.1507135,-0.1507291 0.063666,-0.085274 0.064431,-0.1127609 0.064431,-2.31609 0,-2.203329 -7.656e-4,-2.230816 -0.064431,-2.31609 C 7.3845072,2.589571 7.3182934,2.5229482 7.2728025,2.4889844 7.1724547,2.4140638 6.8936781,2.3849253 6.7454059,2.4338594 6.67525,2.457013 6.4628247,2.6460911 6.1095078,2.999867 L 5.5789578,3.5311066 4.2660412,2.2201518 C 2.8138431,0.77012303 2.8202854,0.77521972 2.3548582,0.70816819 1.8497804,0.63540437 1.4085437,0.78270997 1.0673906,1.1379856 0.73994644,1.4789847 0.60600297,1.9033412 0.67832837,2.3706032 0.74856294,2.8243571 0.74535175,2.8203318 2.1963658,4.2735131 L 3.5147847,5.5939009 2.9932858,6.1172631 C 2.7064614,6.4051122 2.4570411,6.6802122 2.4390185,6.7285969 c -0.0738,0.1981268 -0.028542,0.4690403 0.1021256,0.611325 0.1489251,0.162165 0.094483,0.1587997 2.4487675,0.1513718 2.1607493,-0.00682 2.1943068,-0.00787 2.279319,-0.07135 z m 5.5901444,8.5341749 c 0.467435,-0.101993 1.041415,-0.343613 1.394887,-0.587185 0.114064,-0.0786 0.25428,-0.167156 0.311593,-0.196794 0.150179,-0.07766 0.458292,-0.38112 0.5535,-0.54514 0.04489,-0.07734 0.14317,-0.22479 0.218388,-0.327657 0.244847,-0.334853 0.51133,-0.956541 0.616376,-1.437968 0.03565,-0.163382 0.04123,0.02655 0.0434,1.476563 L 16,16 14.335938,15.9975 c -1.450014,-0.0022 -1.639945,-0.0077 -1.476563,-0.0434 z"
       id="path827"
       inkscape:connector-curvature="0" />
    <path
       style="fill:#fefefe;stroke-width:0.03125"
       d="M 11.140625,15.954119 C 10.620373,15.840602 10.024756,15.576469 9.6379488,15.287743 9.3219428,15.051865 8.8065897,14.518181 8.6149637,14.22837 8.3658381,13.851598 8.143535,13.312553 8.0443641,12.844768 8.0197213,12.728531 8.0008516,12.455743 8.0005425,12.211273 7.9998706,11.680488 8.0448569,11.536242 8.2877691,11.290274 8.44709,11.128949 8.6945956,11 8.8449222,11 8.9045816,11 8.90625,10.972795 8.90625,10 V 9 H 9.609375 10.3125 V 8.046875 7.09375 H 9.65625 9 V 5 C 9,3.3380956 9.00811,2.90625 9.039335,2.90625 c 0.021634,0 0.3413953,0.3023053 0.71058,0.67179 l 0.671245,0.6717897 1.453483,-1.451687 c 1.629256,-1.6272441 1.58214,-1.5898471 2.003899,-1.590524 0.195857,-3.144e-4 0.268562,0.014612 0.411267,0.08443 0.339309,0.1660082 0.532844,0.4742208 0.532844,0.8485759 0,0.3927177 -9.79e-4,0.3939919 -1.30008,1.6953125 L 12.360495,5 h 0.28733 c 0.381157,0 0.563079,0.067429 0.783156,0.2902737 0.288562,0.2921913 0.287751,0.2872197 0.287885,1.7647491 l 1.25e-4,1.2731022 0.209304,0.1082362 c 0.115117,0.05953 0.315456,0.1874972 0.445197,0.2843716 0.30604,0.2285131 0.822676,0.7652425 1.011554,1.0508972 0.249125,0.376772 0.471428,0.915817 0.570599,1.383602 0.05917,0.279116 0.05917,1.41042 0,1.689536 -0.09917,0.467784 -0.321474,1.00683 -0.570599,1.383602 -0.191626,0.289811 -0.706979,0.823495 -1.022985,1.059373 -0.393485,0.29371 -0.989202,0.555939 -1.517283,0.667893 -0.269848,0.05721 -1.43978,0.05617 -1.704144,-0.0015 z M 12.9375,15.406687 c 0.645829,-0.194447 1.082835,-0.45406 1.548981,-0.920206 0.470725,-0.470725 0.729984,-0.909789 0.923871,-1.564606 0.06782,-0.22904 0.07402,-0.306331 0.07402,-0.921875 0,-0.615544 -0.0062,-0.692835 -0.07402,-0.921875 C 15.216465,10.423307 14.957206,9.9842437 14.486481,9.5135187 14.139702,9.1667397 13.835563,8.9505072 13.472838,8.7928534 L 13.234375,8.6892084 13.21875,7.2531056 C 13.20364,5.8640919 13.20101,5.8141744 13.13869,5.7307447 13.10325,5.6833027 13.035425,5.6154928 12.987961,5.5800559 c -0.08241,-0.061531 -0.126184,-0.064431 -0.97234,-0.064431 -0.846156,0 -0.889927,0.0029 -0.97234,0.064431 -0.04746,0.035437 -0.115292,0.103265 -0.150729,0.1507291 -0.06379,0.085443 -0.06443,0.1105759 -0.06443,2.53484 0,2.424264 6.38e-4,2.449398 0.06443,2.53484 0.147837,0.198012 0.195558,0.213458 0.726907,0.235284 0.269452,0.01107 0.5325,0.0338 0.584552,0.05052 0.295976,0.09506 0.497269,0.260256 0.632538,0.519099 0.119766,0.22918 0.119766,0.560082 0,0.789262 -0.04606,0.08814 -0.12828,0.204788 -0.182707,0.259215 -0.05443,0.05443 -0.171073,0.136645 -0.259215,0.182707 -0.22918,0.119766 -0.560082,0.119766 -0.789262,0 -0.309846,-0.161922 -0.46234,-0.385103 -0.556806,-0.814911 -0.06225,-0.283232 -0.174732,-0.438618 -0.356149,-0.491999 -0.07346,-0.02162 -0.428833,-0.03013 -0.9948774,-0.02382 -0.8324066,0.0093 -0.8853066,0.01333 -0.9668191,0.07424 -0.1993881,0.148981 -0.2151844,0.198016 -0.2140925,0.664577 0.00112,0.479277 0.050062,0.702039 0.2627216,1.195844 0.3737881,0.867952 1.1764931,1.597423 2.0956534,1.904461 0.412606,0.137827 0.546848,0.153758 1.203125,0.142775 0.539357,-0.009 0.657116,-0.02013 0.859375,-0.08103 z M 1.9420864,14.811056 c -0.426012,-0.08658 -0.7334887,-0.472425 -0.7334887,-0.920431 0,-0.400072 -0.027822,-0.365365 1.5970849,-1.992279 L 4.2649097,10.437317 3.5855797,9.7574606 C 3.2119484,9.3835394 2.90625,9.0601431 2.90625,9.0388019 2.90625,9.0082944 3.3437878,9 4.953125,9 H 7 v 2.046875 c 0,1.609169 -0.0083,2.046875 -0.038796,2.046875 -0.021338,0 -0.3377044,-0.298666 -0.7030369,-0.663702 L 5.5939266,11.766347 4.1329009,13.225571 C 3.0010669,14.356008 2.64019,14.698487 2.53125,14.745567 2.3564772,14.821096 2.1205317,14.847323 1.9420864,14.811056 Z M 2.90625,6.9612041 c 0,-0.021338 0.2986656,-0.3377044 0.6637016,-0.7030369 L 4.2336534,5.5939266 2.7744295,4.1329009 C 1.1468991,2.5033607 1.1774554,2.5415641 1.1772155,2.1359625 1.1768996,1.601964 1.5792787,1.2080005 2.125,1.2080005 c 0.4173743,0 0.3726601,-0.035545 2.0003575,1.5901422 L 5.5788403,4.2498297 6.250085,3.57804 C 6.6192697,3.2085553 6.9390306,2.90625 6.960665,2.90625 6.9918781,2.90625 7,3.3288938 7,4.953125 V 7 H 4.953125 C 3.3439556,7 2.90625,6.9917037 2.90625,6.9612041 Z"
       id="path825"
       inkscape:connector-curvature="0" />
    <path
       style="fill:#b5cfe5;stroke-width:0.03125"
       d="M 11.390625,14.955356 C 10.245637,14.691402 9.4194522,13.911482 9.0878306,12.781514 9.0550013,12.66965 9.0197428,12.448047 9.0094788,12.289063 L 8.9908172,12 h 0.7666778 0.766678 l 0.03847,0.203872 c 0.118122,0.626024 0.561657,1.080958 1.19284,1.223497 0.187176,0.04227 0.254075,0.0441 0.4344,0.01187 0.632637,-0.113058 1.093752,-0.558237 1.237488,-1.194722 0.04227,-0.187176 0.0441,-0.254075 0.01187,-0.4344 -0.08385,-0.469219 -0.384613,-0.890268 -0.777646,-1.088671 -0.278692,-0.140683 -0.525801,-0.189205 -0.966282,-0.189736 L 11.3125,10.53125 V 8.265625 6 h 0.702831 0.70283 l 0.0081,1.5351291 0.0081,1.535129 0.217897,0.073382 c 0.980583,0.3302353 1.692582,1.0962219 1.972425,2.1219849 0.08558,0.313695 0.08558,1.155055 0,1.46875 -0.150305,0.55094 -0.410394,1.00475 -0.797983,1.392339 -0.377038,0.377038 -0.790164,0.618909 -1.3452,0.787569 -0.267784,0.08137 -1.1084,0.106195 -1.390889,0.04107 z"
       id="path823"
       inkscape:connector-curvature="0" />
    <path
       style="fill:#323232;stroke-width:0.03125"
       d="M 1.8125,15.309439 C 1.4352628,15.235767 0.99004022,14.878075 0.82391456,14.515208 0.65128528,14.138136 0.65180919,13.642841 0.82523987,13.262329 0.89866269,13.101238 1.0745731,12.912502 2.2272188,11.758134 L 3.5452403,10.438144 2.9939362,9.8831344 C 2.3951898,9.2803641 2.3798751,9.2556334 2.4145946,8.9476028 2.4318314,8.7946784 2.4996396,8.6826363 2.637035,8.5800559 2.722309,8.5163897 2.749796,8.515625 4.953125,8.515625 c 2.2033291,0 2.2308159,7.656e-4 2.31609,0.064431 0.047464,0.035437 0.1152922,0.103265 0.1507291,0.1507291 0.063666,0.085274 0.064431,0.1127609 0.064431,2.3160899 0,2.203329 -7.656e-4,2.230816 -0.064431,2.31609 -0.1025804,0.137395 -0.2146225,0.205203 -0.3675469,0.22244 -0.3069956,0.0346 -0.3341844,0.01794 -0.9199222,-0.563719 L 5.593075,12.486041 4.2731,13.804047 C 3.150305,14.925167 2.9271085,15.133908 2.7789637,15.201413 2.4837965,15.33591 2.1430619,15.373996 1.8125,15.309439 Z m 0.71875,-0.563872 c 0.10894,-0.04708 0.4698169,-0.389559 1.6016509,-1.519996 l 1.4610257,-1.459224 0.6642406,0.663701 C 6.6234997,12.795084 6.9398662,13.09375 6.9612041,13.09375 6.9917037,13.09375 7,12.656044 7,11.046875 V 9 H 4.953125 C 3.3437878,9 2.90625,9.00829 2.90625,9.038802 c 0,0.021341 0.3056984,0.3447375 0.6793297,0.7186587 l 0.67933,0.6798563 -1.4592271,1.461029 c -1.6249071,1.626914 -1.5970849,1.592207 -1.5970849,1.992279 0,0.688658 0.6841445,1.130878 1.3226523,0.854942 z m 12.296289,0.132881 c 0.171552,-0.173771 0.316488,-0.315948 0.322079,-0.315948 0.039,0 -0.134897,0.222992 -0.290243,0.372177 -0.329836,0.316754 -0.35543,0.27155 -0.03184,-0.05623 z M 8.4129841,9.9835719 C 8.4215369,8.8613588 8.4243253,8.8137141 8.4863059,8.7307406 8.6468881,8.5157688 8.6432419,8.5165622 9.5178403,8.5063094 L 10.3125,8.4969934 V 8.7484969 9 H 9.609375 8.90625 v 1 1 l -0.070312,7.41e-4 c -0.038672,4.09e-4 -0.1516572,0.03419 -0.2510784,0.07507 l -0.1807657,0.07433 0.00889,-1.1665774 z M 8.7953256,7.5497938 C 8.6696381,7.4950478 8.53821,7.3354272 8.5155609,7.2100175 8.5055641,7.1546641 8.5014888,6.1225084 8.5065047,4.9163384 8.5154834,2.757336 8.516625,2.7219625 8.5800559,2.6370192 8.6154928,2.5895639 8.6817066,2.5229482 8.7271975,2.4889844 8.8275453,2.4140638 9.1063219,2.3849253 9.2545941,2.4338594 9.32475,2.457013 9.5371753,2.6460911 9.8904922,2.999867 l 0.5305498,0.5312396 1.312917,-1.3109548 c 1.452198,-1.45002877 1.445756,-1.44493208 1.911183,-1.51198361 0.505078,-0.0727638 0.946314,0.0745418 1.287467,0.42981741 0.328213,0.3417994 0.457782,0.749659 0.389257,1.2253121 -0.06439,0.4469333 -0.108504,0.5047497 -1.250321,1.6385842 L 13.046875,5.0193887 12.706649,5.0067267 12.366423,4.9940647 13.525537,3.83297 C 14.82373,2.5325588 14.822549,2.5341033 14.822784,2.1359625 14.8231,1.601964 14.420721,1.2080005 13.875,1.2080005 c -0.417374,0 -0.37266,-0.035545 -2.000357,1.5901422 L 10.42116,4.2498297 9.749915,3.57804 C 9.3807303,3.2085553 9.0609694,2.90625 9.039335,2.90625 9.0081131,2.90625 9,3.3380956 9,5 v 2.09375 h 0.65625 0.65625 v 0.25 0.25 L 9.6015625,7.5925281 C 9.081425,7.5916344 8.8650488,7.5801647 8.7953256,7.549795 Z M 2.703125,7.4562156 C 2.588042,7.4046622 2.4838766,7.2945603 2.4395816,7.1776531 2.3970338,7.0653569 2.3967537,6.8420628 2.4390185,6.7285969 2.4570412,6.6802122 2.7064614,6.4051122 2.9932858,6.1172631 L 3.5147847,5.5939009 2.1963658,4.2735131 C 0.74535175,2.8203318 0.74856294,2.8243571 0.67832837,2.3706032 0.60600297,1.9033412 0.73994644,1.4789847 1.0673906,1.1379856 1.4085437,0.78270997 1.8497804,0.63540437 2.3548582,0.70816819 2.8202854,0.77521972 2.8138431,0.77012303 4.2660412,2.2201518 L 5.5789578,3.5311066 6.1095078,2.999867 C 6.4628247,2.6460911 6.67525,2.457013 6.7454059,2.4338594 c 0.1482722,-0.048934 0.4270488,-0.019796 0.5273966,0.055125 0.045491,0.033964 0.1117047,0.1005866 0.1471416,0.1480506 0.063666,0.085274 0.064431,0.112761 0.064431,2.31609 0,2.2033291 -7.656e-4,2.2308159 -0.064431,2.31609 -0.035437,0.047464 -0.1032582,0.1152922 -0.1507135,0.1507291 -0.085012,0.063482 -0.1185697,0.064533 -2.279319,0.07135 C 3.2096069,7.4969106 2.7792312,7.4903094 2.703125,7.4562156 Z M 7,4.953125 C 7,3.3288937 6.9918781,2.90625 6.960665,2.90625 c -0.021634,0 -0.3413953,0.3023053 -0.71058,0.67179 L 5.5788403,4.2498297 4.1253575,2.7981427 C 2.4976601,1.1724559 2.5423743,1.2080005 2.125,1.2080005 c -0.2755305,0 -0.455601,0.067568 -0.651332,0.244399 -0.1950116,0.1761813 -0.2966141,0.4104572 -0.2964525,0.683563 2.406e-4,0.4056016 -0.030316,0.3673982 1.597214,1.9969384 L 4.2336534,5.5939266 3.5699516,6.2581672 C 3.2049156,6.6234997 2.90625,6.9398662 2.90625,6.9612041 2.90625,6.9917037 3.3439556,7 4.953125,7 H 7 Z"
       id="path821"
       inkscape:connector-curvature="0" />
    <path
       style="fill:#000000;stroke-width:0.03125"
       d="M 11.265625,15.455481 C 10.150088,15.201489 9.2094197,14.439125 8.7793466,13.440478 8.5666866,12.946673 8.5177469,12.72391 8.516625,12.244633 c -0.00109,-0.466561 0.014704,-0.515596 0.2140925,-0.664577 0.081512,-0.06091 0.1344125,-0.06497 0.9668191,-0.07424 0.5660444,-0.0063 0.9214124,0.0022 0.9948774,0.02382 0.181417,0.05338 0.293898,0.208767 0.356149,0.491999 0.09447,0.429808 0.24696,0.652989 0.556806,0.814911 0.22918,0.119766 0.560082,0.119766 0.789262,0 0.08814,-0.04606 0.204788,-0.12828 0.259215,-0.182707 0.05443,-0.05443 0.136645,-0.171073 0.182707,-0.259215 0.119766,-0.22918 0.119766,-0.560082 0,-0.789262 -0.135269,-0.258843 -0.336562,-0.424037 -0.632538,-0.519099 -0.05205,-0.01672 -0.3151,-0.03945 -0.584552,-0.05052 -0.531349,-0.02183 -0.57907,-0.03727 -0.726907,-0.235284 -0.06379,-0.08544 -0.06443,-0.110576 -0.06443,-2.53484 0,-2.4242641 6.38e-4,-2.4493975 0.06443,-2.53484 0.03544,-0.047464 0.103265,-0.1152922 0.150729,-0.1507291 0.08241,-0.061531 0.126184,-0.064431 0.97234,-0.064431 0.846156,0 0.889927,0.0029 0.97234,0.064431 0.04746,0.035437 0.115292,0.1032469 0.150729,0.1506888 0.06232,0.08343 0.06494,0.1333472 0.08006,1.5223609 l 0.01563,1.4361028 0.238463,0.103645 c 0.362725,0.1576538 0.666864,0.3738863 1.013643,0.7206653 0.470725,0.470725 0.729984,0.9097893 0.923871,1.5646063 0.06782,0.22904 0.07402,0.306331 0.07402,0.921875 0,0.615544 -0.0062,0.692835 -0.07402,0.921875 -0.193887,0.654818 -0.453146,1.093881 -0.923871,1.564606 -0.355926,0.355926 -0.655074,0.565864 -1.046004,0.734069 -0.53126,0.228585 -0.668793,0.255556 -1.362352,0.267163 -0.449328,0.0075 -0.677702,-0.0015 -0.8125,-0.03223 z m 1.515889,-0.541198 c 0.555036,-0.16866 0.968162,-0.410531 1.3452,-0.787569 0.387589,-0.387589 0.647678,-0.841399 0.797983,-1.392339 0.08558,-0.313695 0.08558,-1.155055 0,-1.46875 C 14.644854,10.239862 13.932855,9.4738759 12.952272,9.1436406 L 12.734375,9.0702581 12.726268,7.5351291 12.718161,6 H 12.015331 11.3125 v 2.265625 2.265625 l 0.382813,4.62e-4 c 0.440481,5.32e-4 0.68759,0.04905 0.966282,0.189737 0.393033,0.198402 0.693792,0.619452 0.777646,1.08867 0.100205,0.56071 -0.26117,1.219603 -0.81428,1.484674 -0.323976,0.155262 -0.589648,0.195771 -0.86948,0.132577 -0.631183,-0.142539 -1.074718,-0.597474 -1.19284,-1.223498 L 10.524173,12 H 9.757495 8.9908172 l 0.018662,0.289063 c 0.010264,0.158984 0.045523,0.380587 0.078352,0.492451 0.3316216,1.129968 1.1578068,1.909888 2.3027948,2.173842 0.282489,0.06512 1.123105,0.0403 1.390889,-0.04107 z"
       id="path819"
       inkscape:connector-curvature="0" />
  </g>
</svg>
