<?xml version="1.0" encoding="UTF-8" standalone="no"?>
<!-- Created with Inkscape (http://www.inkscape.org/) -->

<svg
   xmlns:dc="http://purl.org/dc/elements/1.1/"
   xmlns:cc="http://creativecommons.org/ns#"
   xmlns:rdf="http://www.w3.org/1999/02/22-rdf-syntax-ns#"
   xmlns:svg="http://www.w3.org/2000/svg"
   xmlns="http://www.w3.org/2000/svg"
   xmlns:sodipodi="http://sodipodi.sourceforge.net/DTD/sodipodi-0.dtd"
   xmlns:inkscape="http://www.inkscape.org/namespaces/inkscape"
   version="1.1"
   id="svg2"
   width="16"
   height="16"
   viewBox="0 0 16 16"
   sodipodi:docname="HOOK_BONE.svg"
   inkscape:version="0.92.4 (5da689c313, 2019-01-14)">
  <metadata
     id="metadata8">
    <rdf:RDF>
      <cc:Work
         rdf:about="">
        <dc:format>image/svg+xml</dc:format>
        <dc:type
           rdf:resource="http://purl.org/dc/dcmitype/StillImage" />
        <dc:title />
      </cc:Work>
    </rdf:RDF>
  </metadata>
  <defs
     id="defs6" />
  <sodipodi:namedview
     pagecolor="#ffffff"
     bordercolor="#666666"
     borderopacity="1"
     objecttolerance="10"
     gridtolerance="10"
     guidetolerance="10"
     inkscape:pageopacity="0"
     inkscape:pageshadow="2"
     inkscape:window-width="866"
     inkscape:window-height="614"
     id="namedview4"
     showgrid="false"
     inkscape:zoom="14.75"
     inkscape:cx="-6.8135593"
     inkscape:cy="8"
     inkscape:window-x="0"
     inkscape:window-y="0"
     inkscape:window-maximized="0"
     inkscape:current-layer="svg2" />
  <g
     id="HOOK_BONE">
    <path
       style="fill:#ffffff;stroke-width:0.03125"
       d="M 0,8 V 0 h 8 8 L 15.9975,5.6640625 C 15.9954,10.4109 15.9884,11.297762 15.9541,11.140625 15.89758,10.881587 15.766876,10.501221 15.640098,10.226826 15.47624,9.8721353 15.265949,9.5774794 14.9229,9.2218716 14.574468,8.8606838 14.243754,8.5994978 13.928285,8.4363613 l -0.209304,-0.1082363 -9.3e-5,-0.59375 -9.4e-5,-0.59375 0.231536,-0.2399206 C 14.334286,6.5028231 14.5,6.0852653 14.5,5.515625 14.5,4.9288969 14.329941,4.5129763 13.924107,4.1071428 13.585436,3.7684713 13.256997,3.6108309 12.59375,3.4686134 12.42482,3.4323903 12.18796,3.3739869 12.012878,3.3253859 11.92543,3.3011113 11.830508,3.28125 11.801941,3.28125 c -0.03241,0 -0.05194,-0.025412 -0.05194,-0.067566 0,-0.037161 -0.02017,-0.1391143 -0.04482,-0.2265625 -0.02465,-0.087448 -0.06684,-0.2468872 -0.09375,-0.3543091 C 11.357512,1.6192223 11.296378,1.483874 10.922294,1.1071188 10.519792,0.70174125 10.103334,0.53125 9.515625,0.53125 8.9288969,0.53125 8.5129763,0.70130938 8.1071428,1.1071428 7.7013094,1.5129763 7.53125,1.9288968 7.53125,2.515625 c 0,0.3654028 0.051333,0.5976806 0.2002809,0.90625 C 7.8387722,3.6440425 7.9901831,3.99944 8.0224756,4.1047909 8.0362672,4.1497856 7.61342,4.5895572 6.1272203,6.0759044 L 4.2142125,7.9891019 3.5992938,7.7712306 C 2.9924879,7.5562337 2.9793898,7.5531728 2.6065198,7.5392278 2.3242686,7.5286719 2.1779928,7.5378153 2.0283948,7.5753669 1.3294681,7.7508072 0.75479734,8.3212016 0.57859475,9.0143781 c -0.0613061,0.2411766 -0.0613061,0.7613172 0,1.0024939 0.16273938,0.640212 0.70135625,1.213898 1.31203025,1.397455 0.1514572,0.04552 0.310476,0.08769 0.734375,0.194736 0.1117188,0.02821 0.2746735,0.07146 0.3621216,0.09611 0.087448,0.02465 0.1894012,0.04482 0.2265625,0.04482 0.042154,0 0.067566,0.01953 0.067566,0.05194 0,0.02857 0.019861,0.123489 0.044136,0.210937 0.048601,0.175082 0.1070044,0.411942 0.1432275,0.580872 0.1422175,0.663247 0.2998579,0.991686 0.6385294,1.330357 C 4.5129763,14.329941 4.9288969,14.5 5.515625,14.5 c 0.5867281,0 1.0026488,-0.170059 1.4084822,-0.575893 0.4014225,-0.401422 0.5759315,-0.823144 0.57585,-1.39161 -3.13e-5,-0.271324 -0.064851,-0.773024 -0.109115,-0.844645 -0.00991,-0.01604 -0.045267,-0.187914 -0.078565,-0.381945 -0.033298,-0.19403 -0.078025,-0.413016 -0.099393,-0.486634 L 7.1740328,10.68542 8.7432663,9.1161863 10.3125,7.5469528 v 1.5975947 c 0,1.3185645 0.0079,1.6201125 0.04549,1.7265235 L 10.403478,11 H 9.5926991 c -0.9562822,0 -1.0268172,0.01558 -1.3024253,0.287769 -0.2443629,0.241328 -0.29041,0.388234 -0.2897313,0.924341 3.125e-4,0.243756 0.019203,0.516534 0.043822,0.632658 0.099171,0.467785 0.321474,1.00683 0.5705997,1.383602 0.1916259,0.289811 0.706979,0.823495 1.022985,1.059373 0.3868068,0.288726 0.9824238,0.552859 1.5026758,0.666376 0.157137,0.03429 -0.729725,0.04131 -5.4765621,0.0434 L 0,16 Z m 12.859375,7.954119 c 0.520252,-0.113517 1.115869,-0.37765 1.502676,-0.666376 0.316006,-0.235878 0.831359,-0.769562 1.022985,-1.059373 0.244284,-0.36945 0.468869,-0.909716 0.569083,-1.368995 0.03565,-0.163382 0.04123,0.02655 0.0434,1.476563 L 16,16 14.335938,15.9975 c -1.450014,-0.0022 -1.639945,-0.0077 -1.476563,-0.0434 z"
       id="path829"
       inkscape:connector-curvature="0" />
    <path
       style="fill:#fefefe;stroke-width:0.03125"
       d="M 11.140625,15.954119 C 10.620373,15.840602 10.024756,15.576469 9.6379488,15.287743 9.3219428,15.051865 8.8065897,14.518181 8.6149637,14.22837 8.3658381,13.851598 8.143535,13.312553 8.0443641,12.844768 8.0197213,12.728531 8.0008516,12.455743 8.0005425,12.211273 7.9998706,11.680488 8.0448569,11.536242 8.2877691,11.290274 8.5582669,11.016374 8.6319225,11 9.5935359,11 h 0.8099421 l -0.04549,-0.128929 c -0.03843,-0.108928 -0.04515,-0.514937 -0.04329,-2.6171876 0.0012,-1.3685421 0.01296,-2.5157756 0.02611,-2.5494081 0.01944,-0.049714 0.003,-0.071299 -0.08813,-0.11542 C 10.108564,5.5192566 9.8065638,5.4062863 9.76403,5.4062656 9.7256987,5.4062475 5.6402272,9.4848594 5.6414431,9.5219313 c 0.00347,0.1057753 0.058785,0.41278 0.091043,0.5052907 0.021749,0.06237 0.056877,0.232934 0.078063,0.379028 0.021186,0.146094 0.057573,0.328906 0.080859,0.40625 0.073331,0.243556 0.1181497,0.619111 0.099885,0.836975 -0.046603,0.555882 -0.421419,1.050639 -0.9563184,1.262342 -0.1434013,0.05676 -0.2397775,0.06978 -0.5256,0.07103 -0.2406959,0.0011 -0.3622359,-0.01071 -0.3891803,-0.03765 -0.037836,-0.03784 -0.089794,-0.200167 -0.1474972,-0.46082 -0.01522,-0.06875 -0.044799,-0.195312 -0.065731,-0.28125 C 3.6869994,11.300051 3.710245,11.357375 3.5405566,11.299557 3.4605644,11.2723 3.3672169,11.25 3.3331172,11.25 3.2990178,11.25 3.1995697,11.22983 3.1121216,11.205178 3.0246735,11.180526 2.8617188,11.137274 2.75,11.109063 1.959708,10.909497 1.8985949,10.888314 1.6764499,10.736958 1.4505066,10.583013 1.2231485,10.297872 1.12183,10.041382 1.0193067,9.7818422 1.0180922,9.2523275 1.1194329,8.996275 1.273077,8.6080697 1.6088369,8.2717753 1.9929761,8.1213413 2.1359498,8.0653509 2.2377667,8.0508397 2.5,8.0490784 l 0.328125,-0.0022 0.7414359,0.2606672 c 0.4077897,0.1433669 0.7566328,0.2556016 0.7752075,0.24941 0.02663,-0.00888 3.9679032,-3.9316469 4.2228488,-4.2030241 L 8.6316402,4.2857815 8.5453632,4.025705 C 8.4979116,3.8826594 8.4417347,3.7375 8.4205263,3.703125 8.3993178,3.66875 8.3642619,3.584375 8.3426238,3.515625 8.3209859,3.446875 8.2637516,3.3202084 8.2154366,3.2341441 8.016445,2.8796756 7.9791322,2.3749051 8.1236888,1.9929761 8.2674494,1.6131503 8.6065488,1.2736789 8.996275,1.1194329 c 0.2560525,-0.1013407 0.7855672,-0.1001262 1.045107,0.0024 0.25649,0.1013185 0.541631,0.3286766 0.695575,0.5546198 0.150616,0.2210576 0.180763,0.3081124 0.374471,1.0813627 0.02691,0.1074218 0.0691,0.2668609 0.09375,0.3543091 0.02465,0.087448 0.04482,0.1868962 0.04482,0.2209956 0,0.0341 0.0223,0.1274471 0.04956,0.2074393 0.05782,0.1696885 4.93e-4,0.1464428 0.903568,0.3664097 0.08594,0.020932 0.2125,0.050511 0.28125,0.065731 0.260653,0.057703 0.422984,0.1096612 0.46082,0.1474971 0.03635,0.036353 0.04903,0.5973266 0.01835,0.8120785 -0.0088,0.061893 0.01292,0.081839 0.144149,0.1321181 0.212966,0.081596 0.469084,0.3397359 0.549003,0.5533369 0.05817,0.1554769 0.06207,0.2455597 0.06217,1.4381315 l 1.25e-4,1.2722654 0.209304,0.1082362 c 0.115117,0.05953 0.315456,0.1874972 0.445197,0.2843716 0.30604,0.2285131 0.822676,0.7652425 1.011554,1.0508972 0.249125,0.3767724 0.471428,0.9158184 0.570599,1.3836024 0.05917,0.279116 0.05917,1.41042 0,1.689536 -0.09917,0.467785 -0.321474,1.00683 -0.570599,1.383602 -0.191626,0.289811 -0.706979,0.823495 -1.022985,1.059373 -0.393485,0.29371 -0.989202,0.555939 -1.517283,0.667892 -0.269848,0.05721 -1.43978,0.05617 -1.704144,-0.0015 z M 12.9375,15.406687 c 0.645829,-0.194447 1.082835,-0.45406 1.548981,-0.920206 0.470725,-0.470725 0.729984,-0.909789 0.923871,-1.564606 0.06782,-0.22904 0.07402,-0.306331 0.07402,-0.921875 0,-0.615544 -0.0062,-0.692835 -0.07402,-0.921875 C 15.216465,10.423307 14.957206,9.9842437 14.486481,9.5135187 14.139702,9.1667397 13.835563,8.9505072 13.472838,8.7928534 L 13.234375,8.6892084 13.21875,7.2531056 C 13.20364,5.8640919 13.20101,5.8141744 13.13869,5.7307447 13.10325,5.6833027 13.035425,5.6154928 12.987961,5.5800559 c -0.08241,-0.061531 -0.126184,-0.064431 -0.97234,-0.064431 -0.846156,0 -0.889927,0.0029 -0.97234,0.064431 -0.04746,0.035437 -0.115292,0.103265 -0.150729,0.1507291 -0.06379,0.085443 -0.06443,0.1105759 -0.06443,2.53484 0,2.424264 6.38e-4,2.449398 0.06443,2.53484 0.147837,0.198012 0.195558,0.213458 0.726907,0.235284 0.269452,0.01107 0.5325,0.0338 0.584552,0.05052 0.295976,0.09506 0.497269,0.260256 0.632538,0.519099 0.119766,0.22918 0.119766,0.560082 0,0.789262 -0.04606,0.08814 -0.12828,0.204788 -0.182707,0.259215 -0.05443,0.05443 -0.171073,0.136645 -0.259215,0.182707 -0.22918,0.119766 -0.560082,0.119766 -0.789262,0 -0.309846,-0.161922 -0.46234,-0.385103 -0.556806,-0.814911 -0.06225,-0.283232 -0.174732,-0.438618 -0.356149,-0.491999 -0.07346,-0.02162 -0.428833,-0.03013 -0.9948774,-0.02382 -0.8324066,0.0093 -0.8853066,0.01333 -0.9668191,0.07424 -0.1993881,0.148981 -0.2151844,0.198016 -0.2140925,0.664577 0.00112,0.479277 0.050062,0.702039 0.2627216,1.195844 0.3737881,0.867952 1.1764931,1.597423 2.0956534,1.904461 0.412606,0.137827 0.546848,0.153758 1.203125,0.142775 0.539357,-0.009 0.657116,-0.02013 0.859375,-0.08103 z"
       id="path827"
       inkscape:connector-curvature="0" />
    <path
       style="fill:#b5cfe5;stroke-width:0.03125"
       d="M 11.390625,14.955356 C 10.245637,14.691402 9.4194522,13.911482 9.0878306,12.781514 9.0550013,12.66965 9.0197428,12.448047 9.0094788,12.289063 L 8.9908172,12 h 0.7666778 0.766678 l 0.03847,0.203872 c 0.118122,0.626024 0.561657,1.080958 1.19284,1.223497 0.187176,0.04227 0.254075,0.0441 0.4344,0.01187 0.632637,-0.113058 1.093752,-0.558237 1.237488,-1.194722 0.04227,-0.187176 0.0441,-0.254075 0.01187,-0.4344 -0.08385,-0.469219 -0.384613,-0.890268 -0.777646,-1.088671 -0.278692,-0.140683 -0.525801,-0.189205 -0.966282,-0.189736 L 11.3125,10.53125 V 8.265625 6 h 0.702831 0.70283 l 0.0081,1.5351291 0.0081,1.535129 0.217897,0.073382 c 0.980583,0.3302353 1.692582,1.0962219 1.972425,2.1219849 0.08558,0.313695 0.08558,1.155055 0,1.46875 -0.150305,0.55094 -0.410394,1.00475 -0.797983,1.392339 -0.377038,0.377038 -0.790164,0.618909 -1.3452,0.787569 -0.267784,0.08137 -1.1084,0.106195 -1.390889,0.04107 z"
       id="path825"
       inkscape:connector-curvature="0" />
    <path
       style="fill:#989898;stroke-width:0.03125"
       d="M 5.1282697,13.952527 C 4.6753366,13.825406 4.2342944,13.416838 4.1117794,13.01088 4.0922814,12.94627 4.0967384,12.94486 4.2254303,12.97475 4.4213962,13.02028 4.8296034,12.98654 5.0382741,12.90756 5.5629484,12.708977 5.9447206,12.204997 5.9912934,11.649475 6.0095584,11.431611 5.9647397,11.056056 5.8914087,10.8125 5.8681219,10.735156 5.831735,10.552344 5.8105494,10.40625 5.7893637,10.260156 5.7542356,10.089594 5.7324866,10.027222 5.7002281,9.9347112 5.6449119,9.6277066 5.6414431,9.5219312 5.6402275,9.4848594 9.7256987,5.4062475 9.76403,5.4062656 c 0.042534,2.06e-5 0.344534,0.112991 0.488646,0.1827897 0.0911,0.044121 0.107578,0.065706 0.08813,0.11542 -0.01315,0.033632 -0.02514,0.3002122 -0.02664,0.5923997 l -0.0027,0.53125 -1.8433185,1.8422616 C 7.264645,9.8731737 6.6294697,10.529436 6.638245,10.561012 c 0.00739,0.0266 0.022467,0.111644 0.0335,0.188988 0.011033,0.07734 0.039341,0.203906 0.062907,0.28125 0.023566,0.07734 0.05907,0.253125 0.078897,0.390625 0.019827,0.1375 0.054983,0.313281 0.078125,0.390625 0.073223,0.244722 0.1178437,0.619611 0.099621,0.836975 -0.046685,0.55686 -0.4272244,1.058143 -0.9563184,1.259756 -0.231201,0.0881 -0.6720607,0.109151 -0.9067054,0.0433 z M 13.718956,6.0871097 C 13.7188,5.8612231 13.702878,5.7411719 13.656692,5.6177281 13.576773,5.4041272 13.320655,5.1459872 13.107689,5.0643912 12.978328,5.0148278 12.954357,4.993285 12.96068,4.9322731 12.99587,4.5927494 13.00094,4.3381297 12.97476,4.2254303 12.94486,4.0967381 12.94628,4.0922812 13.01089,4.1117794 c 0.433683,0.1308822 0.859799,0.6193231 0.959737,1.1001119 0.07156,0.3442853 -0.01089,0.8175865 -0.189006,1.0849837 l -0.06245,0.09375 -2.19e-4,-0.3035153 z"
       id="path823"
       inkscape:connector-curvature="0" />
    <path
       style="fill:#323232;stroke-width:0.03125"
       d="M 5,14.450748 C 4.4813081,14.314524 3.9658897,13.899794 3.7407262,13.437476 3.6389509,13.228505 3.5368163,12.911822 3.4686134,12.59375 3.4323903,12.42482 3.3739869,12.18796 3.3253859,12.012878 3.3011113,11.92543 3.28125,11.830508 3.28125,11.801941 c 0,-0.03241 -0.025412,-0.05194 -0.067566,-0.05194 -0.037161,0 -0.1391143,-0.02017 -0.2265625,-0.04482 -0.087448,-0.02465 -0.2468872,-0.06684 -0.3543091,-0.09375 C 1.6192223,11.357512 1.483874,11.296378 1.1071188,10.922294 0.70174125,10.519792 0.53125,10.103334 0.53125,9.515625 c 0,-0.5867281 0.17005938,-1.0026487 0.5758928,-1.4084822 0.4340005,-0.4340003 0.851523,-0.5921444 1.499377,-0.567915 0.37287,0.013945 0.3859681,0.017006 0.992774,0.2320028 L 4.2142125,7.9891019 6.1272203,6.0759044 C 7.61342,4.5895572 8.0362672,4.1497856 8.0224756,4.1047909 7.9901831,3.99944 7.8387722,3.6440425 7.7315309,3.421875 7.6734556,3.3015625 7.6046344,3.1193111 7.5785947,3.0168719 c -0.061306,-0.2411767 -0.061306,-0.7613171 0,-1.0024938 0.1746531,-0.6870809 0.7487025,-1.26113023 1.4357834,-1.43578335 0.2411766,-0.0613061 0.7613172,-0.0613061 1.0024939,0 0.640212,0.16273937 1.213898,0.70135625 1.397455,1.31203025 0.04552,0.1514572 0.08769,0.310476 0.194736,0.734375 0.02821,0.1117188 0.07146,0.2746735 0.09611,0.3621216 0.02465,0.087448 0.04482,0.1894012 0.04482,0.2265625 0,0.042154 0.01953,0.067566 0.05194,0.067566 0.02857,0 0.123489,0.019861 0.210937,0.044136 0.175082,0.048601 0.411942,0.1070044 0.580872,0.1432275 0.663247,0.1422175 0.991686,0.2998579 1.330357,0.6385294 C 14.329941,4.5129763 14.5,4.9288969 14.5,5.515625 14.5,6.0644912 14.339351,6.4846284 13.98182,6.8707947 13.868288,6.9934203 13.762652,7.09375 13.747074,7.09375 c -0.01558,0 -0.02832,-0.1549006 -0.02832,-0.3442234 0,-0.3233957 0.0056,-0.3541216 0.09221,-0.5078125 C 14.136773,5.6636684 14.03545,4.9433206 13.56169,4.4695603 13.306928,4.2147984 13.034473,4.0899194 12.46875,3.9686134 12.408594,3.9557141 12.289063,3.9280034 12.203125,3.9070341 11.297523,3.6860588 11.35741,3.7103481 11.299557,3.5405566 11.2723,3.4605644 11.25,3.3672169 11.25,3.3331172 11.25,3.2990178 11.22983,3.1995697 11.205178,3.1121216 11.180526,3.0246735 11.138338,2.8652344 11.111428,2.7578125 10.91772,1.9845622 10.887573,1.8975075 10.736957,1.6764499 10.583013,1.4505066 10.297872,1.2231485 10.041382,1.12183 9.7818422,1.0193068 9.2523275,1.0180922 8.996275,1.1194328 8.6065487,1.2736788 8.2674494,1.6131502 8.1236888,1.992976 7.9791322,2.374905 8.016445,2.8796756 8.2154366,3.234144 c 0.048315,0.086064 0.1055493,0.2127309 0.1271872,0.2814809 0.021638,0.06875 0.056694,0.153125 0.077903,0.1875 0.021208,0.034375 0.077385,0.1795344 0.1248375,0.3225766 l 0.086277,0.2600766 -0.064023,0.06815 C 8.3126716,4.6253052 4.3713984,8.5480756 4.3447684,8.5569521 4.3261937,8.5631437 3.9773506,8.450909 3.5695609,8.3075421 L 2.828125,8.046875 2.5,8.0490784 c -0.2604889,0.00175 -0.3643213,0.016391 -0.5037252,0.071029 -0.3864321,0.1514587 -0.7230525,0.4870259 -0.8756077,0.8728687 -0.1025999,0.259496 -0.1020146,0.78721 0.00116,1.0484059 0.1013185,0.25649 0.3286766,0.541631 0.5546199,0.695576 0.2210576,0.150615 0.3081123,0.180762 1.0813626,0.37447 0.1074219,0.02691 0.266861,0.0691 0.3543091,0.09375 0.087448,0.02465 0.1868962,0.04482 0.2209956,0.04482 0.0341,0 0.1274472,0.0223 0.2074394,0.04956 0.1697915,0.05785 0.1455022,-0.002 0.3664775,0.903568 0.020969,0.08594 0.04868,0.205469 0.061579,0.265625 0.06238,0.290917 0.1689575,0.624187 0.2445191,0.764618 0.1178328,0.218993 0.3989134,0.489665 0.6266963,0.603489 0.9422503,0.470848 2.0643637,-0.14844 2.1514646,-1.187382 0.018265,-0.217864 -0.026554,-0.593419 -0.099885,-0.836975 -0.023287,-0.07734 -0.059674,-0.260156 -0.080859,-0.40625 -0.021186,-0.146094 -0.056314,-0.316656 -0.078063,-0.379028 -0.03224,-0.09246 -0.08756,-0.399419 -0.091044,-0.505184 -4.499e-4,-0.01366 0.8218382,-0.8477234 1.827307,-1.8534731 l 1.8281248,-1.8286356 0.0089,0.3522725 0.0089,0.3522728 -1.570303,1.5705334 -1.5703025,1.570534 0.038835,0.133791 c 0.021359,0.07359 0.066079,0.292544 0.099377,0.486574 0.033298,0.194031 0.068652,0.365906 0.078565,0.381945 0.00991,0.01604 0.038509,0.145568 0.063548,0.287842 0.058955,0.334998 0.058172,0.805508 -0.00173,1.041178 -0.1746531,0.687081 -0.7487025,1.26113 -1.4357834,1.435783 -0.2353325,0.05982 -0.7857638,0.05879 -1.0168719,-0.0019 z"
       id="path821"
       inkscape:connector-curvature="0" />
    <path
       style="fill:#000000;stroke-width:0.03125"
       d="M 11.265625,15.455481 C 10.150088,15.201489 9.2094197,14.439125 8.7793466,13.440478 8.5666866,12.946673 8.5177469,12.72391 8.516625,12.244633 c -0.00109,-0.466561 0.014704,-0.515596 0.2140925,-0.664577 0.081512,-0.06091 0.1344125,-0.06497 0.9668191,-0.07424 0.5660444,-0.0063 0.9214124,0.0022 0.9948774,0.02382 0.181417,0.05338 0.293898,0.208767 0.356149,0.491999 0.09447,0.429808 0.24696,0.652989 0.556806,0.814911 0.22918,0.119766 0.560082,0.119766 0.789262,0 0.08814,-0.04606 0.204788,-0.12828 0.259215,-0.182707 0.05443,-0.05443 0.136645,-0.171073 0.182707,-0.259215 0.119766,-0.22918 0.119766,-0.560082 0,-0.789262 -0.135269,-0.258843 -0.336562,-0.424037 -0.632538,-0.519099 -0.05205,-0.01672 -0.3151,-0.03945 -0.584552,-0.05052 -0.531349,-0.02183 -0.57907,-0.03727 -0.726907,-0.235284 -0.06379,-0.08544 -0.06443,-0.110576 -0.06443,-2.53484 0,-2.4242641 6.38e-4,-2.4493975 0.06443,-2.53484 0.03544,-0.047464 0.103265,-0.1152922 0.150729,-0.1507291 0.08241,-0.061531 0.126184,-0.064431 0.97234,-0.064431 0.846156,0 0.889927,0.0029 0.97234,0.064431 0.04746,0.035437 0.115292,0.1032469 0.150729,0.1506888 0.06232,0.08343 0.06494,0.1333472 0.08006,1.5223609 l 0.01563,1.4361028 0.238463,0.103645 c 0.362725,0.1576538 0.666864,0.3738863 1.013643,0.7206653 0.470725,0.470725 0.729984,0.9097893 0.923871,1.5646063 0.06782,0.22904 0.07402,0.306331 0.07402,0.921875 0,0.615544 -0.0062,0.692835 -0.07402,0.921875 -0.193887,0.654818 -0.453146,1.093881 -0.923871,1.564606 -0.355926,0.355926 -0.655074,0.565864 -1.046004,0.734069 -0.53126,0.228585 -0.668793,0.255556 -1.362352,0.267163 -0.449328,0.0075 -0.677702,-0.0015 -0.8125,-0.03223 z m 1.515889,-0.541198 c 0.555036,-0.16866 0.968162,-0.410531 1.3452,-0.787569 0.387589,-0.387589 0.647678,-0.841399 0.797983,-1.392339 0.08558,-0.313695 0.08558,-1.155055 0,-1.46875 C 14.644854,10.239862 13.932855,9.4738759 12.952272,9.1436406 L 12.734375,9.0702581 12.726268,7.5351291 12.718161,6 H 12.015331 11.3125 v 2.265625 2.265625 l 0.382813,4.62e-4 c 0.440481,5.32e-4 0.68759,0.04905 0.966282,0.189737 0.393033,0.198402 0.693792,0.619452 0.777646,1.08867 0.100205,0.56071 -0.26117,1.219603 -0.81428,1.484674 -0.323976,0.155262 -0.589648,0.195771 -0.86948,0.132577 -0.631183,-0.142539 -1.074718,-0.597474 -1.19284,-1.223498 L 10.524173,12 H 9.757495 8.9908172 l 0.018662,0.289063 c 0.010264,0.158984 0.045523,0.380587 0.078352,0.492451 0.3316216,1.129968 1.1578068,1.909888 2.3027948,2.173842 0.282489,0.06512 1.123105,0.0403 1.390889,-0.04107 z"
       id="path819"
       inkscape:connector-curvature="0" />
  </g>
</svg>
