<?xml version="1.0" encoding="UTF-8" standalone="no"?>
<!-- Created with Inkscape (http://www.inkscape.org/) -->

<svg
   xmlns:dc="http://purl.org/dc/elements/1.1/"
   xmlns:cc="http://creativecommons.org/ns#"
   xmlns:rdf="http://www.w3.org/1999/02/22-rdf-syntax-ns#"
   xmlns:svg="http://www.w3.org/2000/svg"
   xmlns="http://www.w3.org/2000/svg"
   xmlns:sodipodi="http://sodipodi.sourceforge.net/DTD/sodipodi-0.dtd"
   xmlns:inkscape="http://www.inkscape.org/namespaces/inkscape"
   version="1.1"
   id="svg2"
   width="16"
   height="16"
   viewBox="0 0 16 16"
   sodipodi:docname="HOOK_RESET.svg"
   inkscape:version="0.92.4 (5da689c313, 2019-01-14)">
  <metadata
     id="metadata8">
    <rdf:RDF>
      <cc:Work
         rdf:about="">
        <dc:format>image/svg+xml</dc:format>
        <dc:type
           rdf:resource="http://purl.org/dc/dcmitype/StillImage" />
        <dc:title></dc:title>
      </cc:Work>
    </rdf:RDF>
  </metadata>
  <defs
     id="defs6" />
  <sodipodi:namedview
     pagecolor="#ffffff"
     bordercolor="#666666"
     borderopacity="1"
     objecttolerance="10"
     gridtolerance="10"
     guidetolerance="10"
     inkscape:pageopacity="0"
     inkscape:pageshadow="2"
     inkscape:window-width="828"
     inkscape:window-height="651"
     id="namedview4"
     showgrid="false"
     inkscape:zoom="14.75"
     inkscape:cx="8"
     inkscape:cy="8"
     inkscape:window-x="0"
     inkscape:window-y="0"
     inkscape:window-maximized="0"
     inkscape:current-layer="svg2" />
  <g
     id="HOOK_RESET">
    <path
       style="fill:#ffffff;stroke-width:0.03125"
       d="M 0,8 V 0 h 8 8 L 15.9975,5.6640625 C 15.9954,10.4109 15.9884,11.297762 15.9541,11.140625 15.89758,10.881587 15.766876,10.501221 15.640098,10.226826 15.47624,9.8721353 15.265949,9.5774794 14.9229,9.2218716 14.574468,8.8606838 14.243754,8.5994978 13.928285,8.4363613 L 13.718981,8.328125 13.718856,7.0550228 C 13.718731,5.5774934 13.719534,5.582465 13.430972,5.2902737 13.155452,5.0112794 13.100455,5 12.015625,5 10.930795,5 10.875798,5.0112794 10.600269,5.2902737 10.294613,5.5997747 10.3125,5.4150578 10.3125,8.2620313 c 0,2.0910717 0.0071,2.5003347 0.04549,2.6090397 L 10.403478,11 H 9.5926991 c -0.9562822,0 -1.0268172,0.01558 -1.3024253,0.287769 -0.2443629,0.241328 -0.29041,0.388234 -0.2897313,0.924341 3.125e-4,0.243756 0.019203,0.516534 0.043822,0.632658 0.099171,0.467785 0.321474,1.00683 0.5705997,1.383602 0.1916259,0.289811 0.706979,0.823495 1.022985,1.059373 0.3868068,0.288726 0.9824238,0.552859 1.5026758,0.666376 0.157137,0.03429 -0.729725,0.04131 -5.4765621,0.0434 L 0,16 Z m 6.2587441,3.453451 C 6.8463834,11.350975 7.5555416,11.053728 8.046875,10.703945 8.3791053,10.467429 8.8942206,9.9539144 9.1291828,9.625 9.4907331,9.1188803 9.7869941,8.4173775 9.8909513,7.8212441 c 0.0623,-0.3572538 0.0623,-1.2852344 0,-1.6424882 C 9.7869941,5.5826225 9.4907331,4.8811197 9.1291828,4.375 8.8947978,4.0468937 8.3800025,3.5334106 8.046875,3.2954503 7.909375,3.1972312 7.6421875,3.0402472 7.453125,2.9465969 7.1349175,2.7889759 7.0960166,2.7772358 6.9296,2.7885997 6.8085791,2.7968637 6.7196975,2.82315 6.6576412,2.8690301 L 6.5654572,2.9371841 6.5561672,2.127059 C 6.5459362,1.2350921 6.5471878,1.2409295 6.331715,1.0800559 6.2501972,1.019194 6.2041259,1.015625 5.5,1.015625 c -0.7041259,0 -0.7501972,0.00357 -0.831715,0.064431 C 4.620821,1.115493 4.5529928,1.183287 4.5175559,1.2307094 4.4568509,1.3119464 4.4521569,1.3705606 4.4363789,2.2444035 4.4271689,2.7545129 4.4166219,3.1483448 4.4129419,3.1195853 4.4022784,3.0362599 4.2464847,2.870342 4.1352753,2.8238758 3.9384234,2.7416258 3.7854172,2.7683553 3.4186866,2.9490601 3.2313775,3.0413556 2.965625,3.1972313 2.828125,3.2954503 2.4949974,3.5334106 1.980202,4.0468937 1.7458171,4.375 1.3842669,4.8811197 1.0880058,5.5826225 0.98404887,6.1787559 c -0.0622998,0.3572538 -0.0622998,1.2852344 0,1.6424882 C 1.0880058,8.4173775 1.3842669,9.1188803 1.7458171,9.625 c 0.2343849,0.3281062 0.7491803,0.841589 1.0823079,1.07955 0.47449,0.338938 1.1989694,0.644407 1.7773278,0.74939 0.3188388,0.05788 1.3203028,0.05758 1.6532913,-4.89e-4 z M 4.96875,9.4026222 C 3.9880841,9.1988416 3.23182,8.4353853 3.0327559,7.4482163 c -0.079824,-0.395851 -0.079824,-0.5005816 0,-0.8964326 0.1156713,-0.57362 0.4464857,-1.1238131 0.869295,-1.4457662 0.3198241,-0.2435341 0.4722813,-0.3900872 0.4969116,-0.4776691 0.012602,-0.04481 0.029944,0.7366485 0.038538,1.7365753 0.015255,1.7749597 0.017152,1.8200932 0.080056,1.9043191 0.035437,0.047449 0.103265,0.1152644 0.1507291,0.1507013 0.081518,0.060862 0.1275891,0.064431 0.831715,0.064431 0.7041259,0 0.7501972,-0.00357 0.831715,-0.064431 C 6.3791791,8.3845072 6.4470072,8.31669 6.4824441,8.2692394 6.5454153,8.18492 6.5470697,8.144375 6.5554713,6.4795584 l 0.0086,-1.7034065 0.1049109,0.088486 c 0.057701,0.048668 0.1948766,0.1572882 0.3048347,0.2413791 0.4227275,0.3232819 0.7529341,0.8730106 0.868431,1.4457663 0.079824,0.3958509 0.079824,0.5005815 0,0.8964325 -0.201176,0.9976425 -0.9588853,1.7553518 -1.9565278,1.9565278 -0.3863125,0.0779 -0.5335094,0.07756 -0.9169663,-0.00212 z m 7.890625,6.5514968 c 0.520252,-0.113517 1.115869,-0.37765 1.502676,-0.666376 0.316006,-0.235878 0.831359,-0.769562 1.022985,-1.059373 0.244284,-0.36945 0.468869,-0.909716 0.569083,-1.368995 0.03565,-0.163382 0.04123,0.02655 0.0434,1.476563 L 16,16 14.335938,15.9975 c -1.450014,-0.0022 -1.639945,-0.0077 -1.476563,-0.0434 z"
       id="path827"
       inkscape:connector-curvature="0" />
    <path
       style="fill:#fefefe;stroke-width:0.03125"
       d="M 11.140625,15.954119 C 10.620373,15.840602 10.024756,15.576469 9.6379488,15.287743 9.3219428,15.051865 8.8065897,14.518181 8.6149637,14.22837 8.3658381,13.851598 8.143535,13.312553 8.0443641,12.844768 8.0197213,12.728531 8.0008516,12.455743 8.0005425,12.211273 7.9998706,11.680488 8.0448569,11.536242 8.2877691,11.290274 8.5582669,11.016374 8.6319225,11 9.5935359,11 h 0.8099421 l -0.04549,-0.128929 c -0.03835,-0.108705 -0.04549,-0.517968 -0.04549,-2.6090397 0,-2.8469735 -0.01789,-2.6622566 0.287769,-2.9717576 C 10.875798,5.0112794 10.930795,5 12.015625,5 c 1.08483,0 1.139827,0.011279 1.415356,0.2902737 0.288561,0.2921913 0.287751,0.2872197 0.287885,1.7647491 l 1.25e-4,1.2731022 0.209304,0.1082362 c 0.115117,0.05953 0.315456,0.1874972 0.445197,0.2843716 0.30604,0.2285131 0.822676,0.7652425 1.011554,1.0508972 0.249125,0.376772 0.471428,0.915817 0.570599,1.383602 0.05917,0.279116 0.05917,1.41042 0,1.689536 -0.09917,0.467784 -0.321474,1.00683 -0.570599,1.383602 -0.191626,0.289811 -0.706979,0.823495 -1.022985,1.059373 -0.393485,0.29371 -0.989202,0.555939 -1.517283,0.667893 -0.269848,0.05721 -1.43978,0.05617 -1.704144,-0.0015 z M 12.9375,15.406687 c 0.645829,-0.194447 1.082835,-0.45406 1.548981,-0.920206 0.470725,-0.470725 0.729984,-0.909789 0.923871,-1.564606 0.06782,-0.22904 0.07402,-0.306331 0.07402,-0.921875 0,-0.615544 -0.0062,-0.692835 -0.07402,-0.921875 C 15.216465,10.423307 14.957206,9.9842437 14.486481,9.5135187 14.139702,9.1667397 13.835563,8.9505072 13.472838,8.7928534 L 13.234375,8.6892084 13.21875,7.2531056 C 13.20364,5.8640919 13.20101,5.8141744 13.13869,5.7307447 13.10325,5.6833027 13.035425,5.6154928 12.987961,5.5800559 c -0.08241,-0.061531 -0.126184,-0.064431 -0.97234,-0.064431 -0.846156,0 -0.889927,0.0029 -0.97234,0.064431 -0.04746,0.035437 -0.115292,0.103265 -0.150729,0.1507291 -0.06379,0.085443 -0.06443,0.1105759 -0.06443,2.53484 0,2.424264 6.38e-4,2.449398 0.06443,2.53484 0.147837,0.198012 0.195558,0.213458 0.726907,0.235284 0.269452,0.01107 0.5325,0.0338 0.584552,0.05052 0.295976,0.09506 0.497269,0.260256 0.632538,0.519099 0.119766,0.22918 0.119766,0.560082 0,0.789262 -0.04606,0.08814 -0.12828,0.204788 -0.182707,0.259215 -0.05443,0.05443 -0.171073,0.136645 -0.259215,0.182707 -0.22918,0.119766 -0.560082,0.119766 -0.789262,0 -0.309846,-0.161922 -0.46234,-0.385103 -0.556806,-0.814911 -0.06225,-0.283232 -0.174732,-0.438618 -0.356149,-0.491999 -0.07346,-0.02162 -0.428833,-0.03013 -0.9948774,-0.02382 -0.8324066,0.0093 -0.8853066,0.01333 -0.9668191,0.07424 -0.1993881,0.148981 -0.2151844,0.198016 -0.2140925,0.664577 0.00112,0.479277 0.050062,0.702039 0.2627216,1.195844 0.3737881,0.867952 1.1764931,1.597423 2.0956534,1.904461 0.412606,0.137827 0.546848,0.153758 1.203125,0.142775 0.539357,-0.009 0.657116,-0.02013 0.859375,-0.08103 z M 4.734375,10.95459 C 3.0885199,10.65537 1.769334,9.3321903 1.4836642,7.6940384 1.4242471,7.353315 1.4242471,6.646685 1.4836642,6.3059616 1.6978466,5.0777491 2.5128512,3.9825066 3.6321881,3.4186719 3.7822353,3.34309 3.9123134,3.28125 3.9212506,3.28125 c 0.00894,0 0.016249,0.2589219 0.016249,0.5753819 V 4.4320137 L 3.7288622,4.5808947 C 3.1503747,4.9936947 2.729427,5.6109228 2.5559469,6.3007191 2.4571231,6.6936647 2.4573379,7.3064137 2.5564385,7.703125 2.7665792,8.5443431 3.3570778,9.2727941 4.140625,9.6574088 4.5901028,9.8780413 4.9134406,9.9513194 5.4375,9.9513194 c 0.5237525,0 0.8469822,-0.073189 1.296875,-0.2936506 C 7.5161462,9.2745763 8.1086034,8.5436119 8.3185616,7.703125 8.4176622,7.3064138 8.4178769,6.6936647 8.3190522,6.3007191 8.1455722,5.6109228 7.7246244,4.9936947 7.1461369,4.5808947 L 6.9375,4.4320138 V 3.8566319 c 0,-0.31646 0.00731,-0.5753819 0.016249,-0.5753819 0.00894,0 0.1390153,0.06184 0.2890625,0.1374219 1.1193368,0.5638347 1.9343415,1.6590772 2.1485237,2.8872897 0.059417,0.3407234 0.059417,1.0473534 0,1.3880768 C 9.1048241,9.3370178 7.7745178,10.667324 6.1315384,10.953836 5.8088981,11.0101 5.0419809,11.010514 4.734375,10.954589 Z M 4.9375,4.75 V 1.5 H 5.5 6.0625 V 4.75 8 H 5.5 4.9375 Z"
       id="path825"
       inkscape:connector-curvature="0" />
    <path
       style="fill:#b5cfe5;stroke-width:0.03125"
       d="M 11.390625,14.955356 C 10.245637,14.691402 9.4194522,13.911482 9.0878306,12.781514 9.0550013,12.66965 9.0197428,12.448047 9.0094788,12.289063 L 8.9908172,12 h 0.7666778 0.766678 l 0.03847,0.203872 c 0.118122,0.626024 0.561657,1.080958 1.19284,1.223497 0.187176,0.04227 0.254075,0.0441 0.4344,0.01187 0.632637,-0.113058 1.093752,-0.558237 1.237488,-1.194722 0.04227,-0.187176 0.0441,-0.254075 0.01187,-0.4344 -0.08385,-0.469219 -0.384613,-0.890268 -0.777646,-1.088671 -0.278692,-0.140683 -0.525801,-0.189205 -0.966282,-0.189736 L 11.3125,10.53125 V 8.265625 6 h 0.702831 0.70283 l 0.0081,1.5351291 0.0081,1.535129 0.217897,0.073382 c 0.980583,0.3302353 1.692582,1.0962219 1.972425,2.1219849 0.08558,0.313695 0.08558,1.155055 0,1.46875 -0.150305,0.55094 -0.410394,1.00475 -0.797983,1.392339 -0.377038,0.377038 -0.790164,0.618909 -1.3452,0.787569 -0.267784,0.08137 -1.1084,0.106195 -1.390889,0.04107 z"
       id="path823"
       inkscape:connector-curvature="0" />
    <path
       style="fill:#323232;stroke-width:0.03125"
       d="M 4.6054528,11.45394 C 4.0270944,11.348957 3.302615,11.043488 2.828125,10.70455 2.4949974,10.466589 1.980202,9.9531062 1.7458171,9.625 1.3842669,9.1188803 1.0880058,8.4173775 0.98404887,7.8212441 c -0.0622998,-0.3572538 -0.0622998,-1.2852344 0,-1.6424882 C 1.0880058,5.5826225 1.3842669,4.8811197 1.7458171,4.375 1.980202,4.0468937 2.4949974,3.5334106 2.828125,3.2954503 2.965625,3.1972312 3.2313775,3.0413556 3.4186866,2.9490601 3.7854172,2.7683553 3.9384234,2.7416258 4.1352753,2.8238758 4.2464847,2.870342 4.4022784,3.0362599 4.4129412,3.1195852 4.4166213,3.1483447 4.4271681,2.7545128 4.4363787,2.2444034 4.4521566,1.3705605 4.4568506,1.3119463 4.5175559,1.2307093 4.5529928,1.1832869 4.6208209,1.1154929 4.668285,1.0800559 4.7498028,1.019194 4.7958741,1.015625 5.5,1.015625 c 0.7041259,0 0.7501972,0.00357 0.831715,0.064431 0.2154728,0.1608736 0.2142212,0.1550362 0.2244513,1.0470034 l 0.00929,0.8101251 0.092184,-0.068154 c 0.062056,-0.04588 0.1509378,-0.072166 0.2719587,-0.08043 0.1664166,-0.011364 0.2053175,3.763e-4 0.523525,0.1579972 0.1890625,0.09365 0.45625,0.2506343 0.59375,0.3488534 0.3331275,0.2379603 0.8479228,0.7514434 1.0823078,1.0795497 0.3615503,0.5061197 0.6578113,1.2076225 0.7617685,1.8037559 0.0623,0.3572538 0.0623,1.2852344 0,1.6424882 C 9.7869941,8.4173775 9.4907331,9.1188803 9.1291828,9.625 8.8942206,9.9539144 8.3791053,10.467429 8.046875,10.703945 c -0.4913334,0.349783 -1.2004916,0.64703 -1.7881309,0.749506 -0.3329885,0.05807 -1.3344525,0.05837 -1.6532913,4.89e-4 z m 1.5260856,-0.500104 c 1.6429794,-0.286512 2.9732857,-1.6168182 3.2597972,-3.2597976 0.059417,-0.3407234 0.059417,-1.0473534 0,-1.3880768 C 9.1771534,5.0777491 8.3621487,3.9825066 7.2428119,3.4186719 7.0927647,3.34309 6.9626866,3.28125 6.9537494,3.28125 6.9448122,3.28125 6.9375,3.5401719 6.9375,3.8566319 v 0.5753819 l 0.2086378,0.1488809 c 0.5784875,0.4128 0.9994353,1.0300281 1.1729153,1.7198244 0.098824,0.3929456 0.098609,1.0056947 -4.906e-4,1.4024059 C 8.1086044,8.5436119 7.5161472,9.2745763 6.7343759,9.6576688 6.2844831,9.8781306 5.9612534,9.9513194 5.4375009,9.9513194 c -0.5240593,0 -0.8473972,-0.073278 -1.296875,-0.2939106 C 3.3570778,9.2727941 2.7665792,8.5443431 2.5564385,7.703125 2.4573379,7.3064137 2.4571231,6.6936647 2.5559469,6.3007191 2.729427,5.6109228 3.1503747,4.9936947 3.7288622,4.5808947 L 3.9375,4.4320138 V 3.8566319 c 0,-0.31646 -0.00731,-0.5753819 -0.016249,-0.5753819 -0.00894,0 -0.1390153,0.06184 -0.2890625,0.1374219 -1.1193369,0.5638347 -1.9343415,1.6590772 -2.1485239,2.8872897 -0.059417,0.3407234 -0.059417,1.0473534 0,1.3880768 0.2856698,1.6381519 1.6048557,2.9613316 3.2507108,3.2605516 0.3076059,0.05592 1.0745231,0.05551 1.3971634,-7.53e-4 z M 5.8857162,9.4047441 c 0.9976425,-0.201176 1.7553519,-0.9588853 1.9565279,-1.9565278 0.079824,-0.395851 0.079824,-0.5005816 0,-0.8964326 C 7.7267472,5.9790281 7.3965406,5.4292994 6.9738131,5.1060175 6.863855,5.0219266 6.7266794,4.9133059 6.6689784,4.8646384 l -0.1049109,-0.088486 -0.0086,1.7034065 C 6.5470697,8.144375 6.5454153,8.18492 6.4824441,8.2692394 6.4470072,8.31669 6.3791791,8.3845072 6.331715,8.4199441 6.2501972,8.4808059 6.2041259,8.484375 5.5,8.484375 4.7958741,8.484375 4.7498028,8.480805 4.668285,8.419944 4.6208209,8.3845072 4.5529928,8.3166916 4.5175559,8.2692428 4.4546522,8.1850169 4.4527547,8.1398834 4.4375,6.3649237 4.4289062,5.3649969 4.4115644,4.5835381 4.3989625,4.6283484 4.3743322,4.7159303 4.221875,4.8624834 3.9020509,5.1060175 3.4792416,5.4279706 3.1484272,5.9781637 3.0327559,6.5517837 c -0.079824,0.395851 -0.079824,0.5005816 0,0.8964325 0.1990641,0.9871691 0.9553282,1.7506254 1.9359941,1.954406 0.3834569,0.079682 0.5306537,0.080022 0.9169662,0.00212 z M 6.0625,4.75 V 1.5 H 5.5 4.9375 V 4.75 8 H 5.5 6.0625 Z"
       id="path821"
       inkscape:connector-curvature="0" />
    <path
       style="fill:#000000;stroke-width:0.03125"
       d="M 11.265625,15.455481 C 10.150088,15.201489 9.2094197,14.439125 8.7793466,13.440478 8.5666866,12.946673 8.5177469,12.72391 8.516625,12.244633 c -0.00109,-0.466561 0.014704,-0.515596 0.2140925,-0.664577 0.081512,-0.06091 0.1344125,-0.06497 0.9668191,-0.07424 0.5660444,-0.0063 0.9214124,0.0022 0.9948774,0.02382 0.181417,0.05338 0.293898,0.208767 0.356149,0.491999 0.09447,0.429808 0.24696,0.652989 0.556806,0.814911 0.22918,0.119766 0.560082,0.119766 0.789262,0 0.08814,-0.04606 0.204788,-0.12828 0.259215,-0.182707 0.05443,-0.05443 0.136645,-0.171073 0.182707,-0.259215 0.119766,-0.22918 0.119766,-0.560082 0,-0.789262 -0.135269,-0.258843 -0.336562,-0.424037 -0.632538,-0.519099 -0.05205,-0.01672 -0.3151,-0.03945 -0.584552,-0.05052 -0.531349,-0.02183 -0.57907,-0.03727 -0.726907,-0.235284 -0.06379,-0.08544 -0.06443,-0.110576 -0.06443,-2.53484 0,-2.4242641 6.38e-4,-2.4493975 0.06443,-2.53484 0.03544,-0.047464 0.103265,-0.1152922 0.150729,-0.1507291 0.08241,-0.061531 0.126184,-0.064431 0.97234,-0.064431 0.846156,0 0.889927,0.0029 0.97234,0.064431 0.04746,0.035437 0.115292,0.1032469 0.150729,0.1506888 0.06232,0.08343 0.06494,0.1333472 0.08006,1.5223609 l 0.01563,1.4361028 0.238463,0.103645 c 0.362725,0.1576538 0.666864,0.3738863 1.013643,0.7206653 0.470725,0.470725 0.729984,0.9097893 0.923871,1.5646063 0.06782,0.22904 0.07402,0.306331 0.07402,0.921875 0,0.615544 -0.0062,0.692835 -0.07402,0.921875 -0.193887,0.654818 -0.453146,1.093881 -0.923871,1.564606 -0.355926,0.355926 -0.655074,0.565864 -1.046004,0.734069 -0.53126,0.228585 -0.668793,0.255556 -1.362352,0.267163 -0.449328,0.0075 -0.677702,-0.0015 -0.8125,-0.03223 z m 1.515889,-0.541198 c 0.555036,-0.16866 0.968162,-0.410531 1.3452,-0.787569 0.387589,-0.387589 0.647678,-0.841399 0.797983,-1.392339 0.08558,-0.313695 0.08558,-1.155055 0,-1.46875 C 14.644854,10.239862 13.932855,9.4738759 12.952272,9.1436406 L 12.734375,9.0702581 12.726268,7.5351291 12.718161,6 H 12.015331 11.3125 v 2.265625 2.265625 l 0.382813,4.62e-4 c 0.440481,5.32e-4 0.68759,0.04905 0.966282,0.189737 0.393033,0.198402 0.693792,0.619452 0.777646,1.08867 0.100205,0.56071 -0.26117,1.219603 -0.81428,1.484674 -0.323976,0.155262 -0.589648,0.195771 -0.86948,0.132577 -0.631183,-0.142539 -1.074718,-0.597474 -1.19284,-1.223498 L 10.524173,12 H 9.757495 8.9908172 l 0.018662,0.289063 c 0.010264,0.158984 0.045523,0.380587 0.078352,0.492451 0.3316216,1.129968 1.1578068,1.909888 2.3027948,2.173842 0.282489,0.06512 1.123105,0.0403 1.390889,-0.04107 z"
       id="path819"
       inkscape:connector-curvature="0" />
  </g>
</svg>
