<?xml version="1.0" encoding="UTF-8" standalone="no"?>
<!-- Created with Inkscape (http://www.inkscape.org/) -->

<svg
   xmlns:dc="http://purl.org/dc/elements/1.1/"
   xmlns:cc="http://creativecommons.org/ns#"
   xmlns:rdf="http://www.w3.org/1999/02/22-rdf-syntax-ns#"
   xmlns:svg="http://www.w3.org/2000/svg"
   xmlns="http://www.w3.org/2000/svg"
   xmlns:sodipodi="http://sodipodi.sourceforge.net/DTD/sodipodi-0.dtd"
   xmlns:inkscape="http://www.inkscape.org/namespaces/inkscape"
   version="1.1"
   id="svg2"
   width="16"
   height="16"
   viewBox="0 0 16 16"
   sodipodi:docname="REDO_HISTORY.svg"
   inkscape:version="0.92.4 (5da689c313, 2019-01-14)">
  <metadata
     id="metadata8">
    <rdf:RDF>
      <cc:Work
         rdf:about="">
        <dc:format>image/svg+xml</dc:format>
        <dc:type
           rdf:resource="http://purl.org/dc/dcmitype/StillImage" />
        <dc:title></dc:title>
      </cc:Work>
    </rdf:RDF>
  </metadata>
  <defs
     id="defs6" />
  <sodipodi:namedview
     pagecolor="#ffffff"
     bordercolor="#666666"
     borderopacity="1"
     objecttolerance="10"
     gridtolerance="10"
     guidetolerance="10"
     inkscape:pageopacity="0"
     inkscape:pageshadow="2"
     inkscape:window-width="1013"
     inkscape:window-height="910"
     id="namedview4"
     showgrid="false"
     inkscape:zoom="14.75"
     inkscape:cx="8"
     inkscape:cy="8"
     inkscape:window-x="0"
     inkscape:window-y="0"
     inkscape:window-maximized="0"
     inkscape:current-layer="svg2" />
  <g
     id="REDO_HISTORY">
    <path
       style="fill:#ffffff;stroke-width:0.03125"
       d="M 0,8 V 0 h 8 8 v 8 8 H 8 0 Z m 4.2692603,7.419944 C 4.3166994,15.384507 4.3845072,15.316679 4.4199441,15.269215 4.4823641,15.18561 4.484375,15.145996 4.484375,14 c 0,-1.145996 -0.00201,-1.18561 -0.064431,-1.269215 C 4.3845072,12.683321 4.3166791,12.615493 4.269215,12.580056 4.1856103,12.517636 4.1459962,12.515625 3,12.515625 c -1.1459963,0 -1.1856103,0.002 -1.269215,0.06443 -0.047464,0.03544 -0.1152921,0.103243 -0.1507291,0.15068 -0.061764,0.08268 -0.06482,0.131744 -0.073832,1.185569 -0.00517,0.604626 -0.0011,1.144609 0.00906,1.199962 0.022973,0.12527 0.1542213,0.284785 0.2800457,0.340359 0.075272,0.03325 0.3361692,0.04059 1.2414905,0.03492 1.1030382,-0.0069 1.1494385,-0.0096 1.2324441,-0.0716 z m 5,0 C 9.3166994,15.384507 9.3845072,15.316679 9.4199441,15.269215 9.4823641,15.18561 9.484375,15.145996 9.484375,14 c 0,-1.145996 -0.00201,-1.18561 -0.064431,-1.269215 C 9.3845072,12.683321 9.3166791,12.615493 9.269215,12.580056 9.1856103,12.517636 9.1459963,12.515625 8,12.515625 c -1.1459962,0 -1.1856103,0.002 -1.269215,0.06443 -0.047464,0.03544 -0.1152922,0.103243 -0.1507291,0.15068 -0.061764,0.08268 -0.06482,0.131744 -0.073832,1.185569 -0.00517,0.604626 -0.0011,1.144609 0.00906,1.199962 0.022973,0.12527 0.1542213,0.284785 0.2800456,0.340359 0.075272,0.03325 0.3361694,0.04059 1.2414907,0.03492 1.1030381,-0.0069 1.1494384,-0.0096 1.232444,-0.0716 z m 4.9999997,0 c 0.04744,-0.03544 0.115247,-0.103265 0.150684,-0.150729 0.06242,-0.08361 0.06443,-0.123219 0.06443,-1.269215 0,-1.145996 -0.002,-1.18561 -0.06443,-1.269215 -0.03544,-0.04746 -0.103265,-0.115292 -0.150729,-0.150729 -0.08361,-0.06242 -0.123219,-0.06443 -1.269215,-0.06443 -1.145996,0 -1.18561,0.002 -1.269215,0.06443 -0.04746,0.03544 -0.115292,0.103243 -0.150729,0.15068 -0.06176,0.08268 -0.06482,0.131744 -0.07383,1.185569 -0.0052,0.604626 -0.0011,1.144609 0.0091,1.199962 0.02297,0.12527 0.154221,0.284785 0.280046,0.340359 0.07527,0.03325 0.336169,0.04059 1.24149,0.03492 1.103038,-0.0069 1.149439,-0.0096 1.232444,-0.0716 z M 7.2067269,11.486981 C 7.2649022,11.419664 7.3125,11.341617 7.3125,11.313543 c 0,-0.02807 0.012954,-0.0644 0.028787,-0.08073 C 7.3812847,11.191564 7.5,10.828926 7.5,10.747995 7.5,10.644565 7.3278784,10.375 7.2618372,10.375 7.2376997,10.375 6.75,9.8891378 6.75,9.8650916 6.75,9.8554753 6.7078125,9.8014181 6.65625,9.7449644 6.6046875,9.6885106 6.5625,9.62392 6.5625,9.6014297 6.5625,9.5789397 6.541406,9.5524437 6.515625,9.5425507 6.4898438,9.5326575 6.46875,9.5105291 6.46875,9.4933762 6.46875,9.4762231 6.4265625,9.3996791 6.375,9.3232778 6.3234375,9.2468769 6.28125,9.1657 6.28125,9.1428847 6.28125,9.1200697 6.2601562,9.0838966 6.234375,9.0625 6.2085938,9.0411034 6.1875,9.0000066 6.1875,8.9711737 6.1875,8.9423407 6.174894,8.9053907 6.159487,8.8890627 6.1332787,8.8612872 6.0466681,8.6582581 5.9535234,8.40625 5.8700584,8.1804316 5.7300256,7.6427341 5.7053009,7.453125 5.6963359,7.384375 5.6730878,7.2578125 5.6536387,7.171875 5.6040991,6.9529784 5.6048044,5.7250303 5.6546169,5.46875 5.6763316,5.3570312 5.7052994,5.1953125 5.7189897,5.109375 5.73268,5.0234375 5.773825,4.8476562 5.8104234,4.71875 5.8470216,4.5898437 5.8907634,4.4311653 5.9076275,4.3661316 5.9244912,4.3010975 5.9507303,4.2237537 5.9659363,4.1942566 5.9811425,4.1647591 6.0177275,4.0773437 6.0472369,4 6.2356594,3.5061456 6.5934484,2.9345373 6.9585822,2.5440234 7.1010556,2.3916467 7.3952819,2.166752 7.6026709,2.0517075 7.7697912,1.9590015 7.78125,1.9556836 7.78125,2 7.78125,2.017187 7.762416,2.03125 7.739396,2.03125 7.7018044,2.03125 7.5,2.2267625 7.5,2.2631821 7.5,2.2713521 7.462919,2.3174261 7.417598,2.3655774 7.2205056,2.5749757 7.1758347,2.7326149 7.2648241,2.9047013 7.3048091,2.9820239 7.4640759,3.1319897 7.7476969,3.359375 7.887415,3.4713903 8.53125,4.1275494 8.53125,4.1579269 c 0,0.016265 0.011169,0.029573 0.02482,0.029573 0.029476,0 0.418366,0.5170453 0.4507353,0.5992709 0.012337,0.031339 0.036946,0.056979 0.054687,0.056979 0.017741,0 0.032257,0.021094 0.032257,0.046875 0,0.025781 0.012357,0.046875 0.027459,0.046875 0.015102,0 0.044933,0.042187 0.066291,0.09375 0.021358,0.051563 0.051189,0.09375 0.066291,0.09375 0.015102,0 0.027459,0.012917 0.027459,0.028704 0,0.015787 0.080859,0.1676282 0.1796875,0.3374247 0.098828,0.1697966 0.2022966,0.3572707 0.2299303,0.4166088 0.2533934,0.5441206 0.2995919,0.6568137 0.4221519,1.0297628 0.207409,0.6311437 0.270959,0.8915294 0.339398,1.390625 0.05879,0.4287053 0.103088,0.5522919 0.226034,0.6305609 0.04795,0.030523 0.0942,0.064022 0.102798,0.074443 0.04091,0.04961 0.381885,0.1856212 0.465344,0.1856212 0.10897,0 0.245197,-0.055336 0.320778,-0.1303003 0.04916,-0.048757 0.509363,-0.7066416 0.625677,-0.8944344 0.135198,-0.2182803 0.521832,-0.9827944 0.619648,-1.2252653 0.03814,-0.094531 0.100455,-0.2421875 0.13849,-0.328125 0.03803,-0.085937 0.09237,-0.2335937 0.120747,-0.328125 0.02838,-0.094531 0.09329,-0.3054687 0.144246,-0.46875 0.130478,-0.4180762 0.25836,-1.0672069 0.320133,-1.625 0.04625,-0.4176559 0.04261,-0.9252975 -0.0112,-1.5600729 -0.0579,-0.6829388 -0.06939,-0.6899271 -1.135238,-0.6899271 -0.659665,0 -0.67271,-0.00126 -0.726114,-0.070312 C 11.570973,1.7784732 10.990798,1.2068819 10.86461,1.1111139 10.577901,0.89352187 10.338345,0.75728437 10.015625,0.62828844 9.4409372,0.39857728 9.2430609,0.37636338 7.7648053,0.37560756 6.4420309,0.37493125 6.1807309,0.3957045 5.75,0.53578384 5.3735325,0.658216 4.9197316,0.87637819 4.8656347,0.9609375 4.85189,0.98242188 4.8233834,1 4.8022866,1 4.7811897,1 4.7177394,1.0421875 4.6612856,1.09375 4.6048319,1.1453125 4.5489637,1.187875 4.5371337,1.1883334 4.5106656,1.1893589 3.84375,1.8585207 3.84375,1.8840524 c 0,0.010087 -0.042187,0.06453 -0.09375,0.1209833 -0.051563,0.056454 -0.09375,0.1210442 -0.09375,0.1435345 0,0.02249 -0.021094,0.048986 -0.046875,0.058879 -0.025781,0.00989 -0.046875,0.029841 -0.046875,0.044328 0,0.014487 -0.042187,0.08885 -0.09375,0.1652511 C 3.4171875,2.493429 3.375,2.5704733 3.375,2.5882374 c 0,0.017764 -0.018236,0.050881 -0.040525,0.073593 C 3.2778856,2.719494 3.0190287,3.2585091 2.9394555,3.484375 2.9031243,3.5875 2.8616664,3.7 2.8473269,3.734375 2.8329874,3.76875 2.7966977,3.88125 2.7666831,3.984375 2.7366685,4.0875 2.7014544,4.2 2.6884295,4.234375 2.6615426,4.3053341 2.5526668,4.8440928 2.4989736,5.171875 2.4792654,5.2921875 2.4557809,5.7210937 2.4467857,6.125 c -0.012886,0.5786253 -0.00509,0.8271622 0.036767,1.171875 0.05076,0.4180534 0.1429008,0.9246984 0.2045968,1.125 0.064847,0.2105328 0.1564948,0.4786472 0.2189798,0.640625 0.036467,0.094531 0.078394,0.2107675 0.093171,0.2583028 0.030862,0.099276 0.2708882,0.5794506 0.3707536,0.7416972 0.037027,0.06016 0.075796,0.133984 0.086154,0.164063 0.010358,0.03008 0.029548,0.05469 0.042646,0.05469 0.013098,0 0.041289,0.04219 0.062647,0.09375 0.021358,0.05156 0.051189,0.09375 0.066291,0.09375 0.015102,0 0.027459,0.02109 0.027459,0.04687 0,0.02578 0.012194,0.04687 0.027097,0.04687 0.014904,0 0.064193,0.05606 0.1095328,0.124568 0.1581541,0.238987 0.7985887,0.850441 0.9593562,0.915944 0.024551,0.01 0.5630566,0.01553 1.1966782,0.01228 l 1.1520394,-0.0059 z"
       id="path827"
       inkscape:connector-curvature="0" />
    <path
       style="fill:#cbfefe;stroke-width:0.03125"
       d="m 2,14 v -1 h 1 1 v 1 1 H 3 2 Z m 5,0 v -1 h 1 1 v 1 1 H 8 7 Z m 5,0 v -1 h 1 1 v 1 1 H 13 12 Z M 11.220029,8.5222941 C 11.181427,8.1867819 11.120838,7.8189 11.043938,7.453125 c -0.02529,-0.1203125 -0.05433,-0.2609375 -0.06452,-0.3125 -0.01019,-0.051563 -0.0293,-0.1078125 -0.04248,-0.125 C 10.923774,6.9984375 10.868882,6.8297666 10.814964,6.6408006 10.727776,6.3352341 10.651516,6.1318906 10.559987,5.9609225 10.54388,5.9308362 10.497162,5.8171144 10.45617,5.7082072 10.387807,5.5265844 10.267761,5.2844106 10.128344,5.046875 10.098081,4.9953125 10.01895,4.8493159 9.9524969,4.7224384 9.8860444,4.5955609 9.8063287,4.4619672 9.7753509,4.4255634 9.7443731,4.3891597 9.6089059,4.2025887 9.4743128,4.0109609 9.2206163,3.6497594 8.9855541,3.3728863 8.6071163,2.9895149 8.409595,2.7894186 8.0811806,2.4924893 7.9879272,2.4296875 7.8966372,2.3682082 8.0885428,2.3446482 8.6875,2.3438018 9.0398437,2.343304 9.3593991,2.334513 9.3976231,2.3242665 9.46468,2.3062909 9.46234,2.2994444 9.3310153,2.1293807 9.1772863,1.9303039 8.7066034,1.46875 8.6573181,1.46875 8.6395431,1.46875 8.625,1.4553155 8.625,1.4388956 8.625,1.4224756 8.5230469,1.349111 8.3984375,1.2758632 8.2738281,1.2026153 8.1648437,1.1351904 8.15625,1.1260301 8.1256294,1.0933908 7.998755,1.0304762 7.8675841,0.98288597 7.5490047,0.86730213 7.4379644,0.83714353 7.1875,0.79817503 6.9347281,0.7588475 6.9687513,0.75671147 7.890625,0.75403144 9.3190719,0.74987875 9.61244,0.80505628 10.3125,1.2095451 c 0.315655,0.182383 0.771948,0.5904931 1.038268,0.9286303 0.07199,0.091409 0.159945,0.1670696 0.207425,0.1784398 0.04534,0.010857 0.384776,0.021596 0.754307,0.023864 0.369531,0.00227 0.701198,0.011997 0.737038,0.02162 0.05884,0.0158 0.06865,0.054386 0.101109,0.3980108 0.06703,0.7095001 0.04332,1.3414258 -0.07349,1.9586395 -0.101195,0.5347437 -0.145707,0.7417587 -0.188142,0.875 -0.163875,0.5145503 -0.338679,1.0273719 -0.372824,1.09375 -0.0221,0.042969 -0.06191,0.1273437 -0.08846,0.1875 -0.130512,0.29572 -0.452779,0.9319347 -0.490709,0.96875 -0.0089,0.00859 -0.04401,0.075229 -0.07813,0.1480791 -0.03411,0.07285 -0.0698,0.1326153 -0.0793,0.1328125 -0.0095,1.875e-4 -0.100165,0.1269209 -0.201474,0.2816084 -0.101309,0.1546875 -0.195488,0.28125 -0.209287,0.28125 -0.0138,0 -0.02509,0.015067 -0.02509,0.033482 0,0.018415 -0.01957,0.053057 -0.0435,0.076982 -0.03717,0.037166 -0.04885,-0.00297 -0.08022,-0.2756696 z"
       id="path825"
       inkscape:connector-curvature="0" />
    <path
       style="fill:#98cbfe;stroke-width:0.03125"
       d="M 5.046875,10.718878 C 4.7208341,10.426782 4.4722678,10.171937 4.3846294,10.039904 4.3244281,9.9492066 4.2624775,9.875 4.2469612,9.875 4.231445,9.875 4.21875,9.8550781 4.21875,9.8307291 4.21875,9.8063801 4.207045,9.7817711 4.192739,9.7760421 4.1591772,9.7626016 3.90625,9.3278572 3.90625,9.2836103 3.90625,9.2651247 3.8921875,9.25 3.875,9.25 3.857813,9.25 3.84375,9.226498 3.84375,9.197773 3.84375,9.169048 3.825004,9.123345 3.802093,9.0962105 3.762725,9.0495853 3.5625,8.5409144 3.5625,8.4875247 3.5625,8.4738 3.5426884,8.4182578 3.5184747,8.3640978 3.4942606,8.3099378 3.4667597,8.2304688 3.4573613,8.1875 3.4479628,8.1445313 3.4109025,7.9828125 3.375005,7.828125 3.1767725,6.9739106 3.1696447,5.8010537 3.3570003,4.8655197 3.38386,4.7313991 3.4199919,4.5952141 3.4372931,4.5628866 3.4545944,4.5305587 3.46875,4.4688581 3.46875,4.4257737 c 0,-0.043084 0.012981,-0.086358 0.028846,-0.096163 0.015865,-0.00981 0.038574,-0.063369 0.050464,-0.1190318 0.028186,-0.1319563 0.2415893,-0.66064 0.2721084,-0.6741207 0.01297,-0.00573 0.023582,-0.03654 0.023582,-0.068468 0,-0.031928 0.012005,-0.065471 0.026677,-0.074539 0.014672,-0.00907 0.081469,-0.1239529 0.1484375,-0.2553 0.066968,-0.1313472 0.1393387,-0.2457936 0.1608231,-0.2543256 0.021484,-0.00853 0.039063,-0.035102 0.039063,-0.059044 0,-0.023942 0.010547,-0.043557 0.023437,-0.043588 0.012891,-3.07e-5 0.063394,-0.063302 0.1122306,-0.1406031 0.048836,-0.077301 0.1226644,-0.1671904 0.1640625,-0.1997542 0.041398,-0.032564 0.075269,-0.067745 0.075269,-0.078181 0,-0.025285 0.2240247,-0.2415948 0.3648572,-0.3522919 0.061918,-0.048669 0.1307131,-0.1060665 0.1528784,-0.1275509 0.022165,-0.021484 0.050744,-0.039063 0.063509,-0.039063 0.012765,0 0.04541,-0.020025 0.072545,-0.0445 C 5.3228803,1.731293 5.8460681,1.46875 5.9061491,1.46875 c 0.029149,0 0.093831,-0.019964 0.1437371,-0.044365 C 6.2214316,1.34051 6.7183969,1.3004418 7.0553184,1.34332 7.2225497,1.364603 7.4002075,1.401531 7.4501138,1.425383 7.5000198,1.449235 7.5678213,1.46875 7.6007834,1.46875 c 0.032962,0 0.081025,0.021094 0.106806,0.046875 0.039396,0.039396 0.039783,0.046875 0.00242,0.046875 -0.049926,0 -0.3049025,0.1305547 -0.4326968,0.2215521 -0.04611,0.032834 -0.091067,0.059698 -0.099904,0.059698 -0.074286,0 -0.6933865,0.6263902 -0.8815156,0.8918953 -0.084755,0.1196138 -0.1649097,0.2221672 -0.1781222,0.2278964 -0.013212,0.00573 -0.024023,0.036198 -0.024023,0.067708 0,0.03151 -0.013168,0.061979 -0.029263,0.067708 C 6.0278041,3.1120164 5.71875,3.7344544 5.71875,3.7952766 c 0,0.024632 -0.013628,0.053208 -0.030285,0.063502 -0.052796,0.03263 -0.2952259,0.8466453 -0.3445316,1.1568466 -0.013659,0.085937 -0.042826,0.2476563 -0.064815,0.359375 -0.051341,0.2608469 -0.050829,1.6625928 6.969e-4,1.90625 0.01999,0.094531 0.047528,0.2421875 0.061196,0.328125 0.046945,0.2951731 0.3016857,1.1598094 0.3506141,1.1900488 0.014919,0.00922 0.027126,0.049919 0.027126,0.090441 0,0.040522 0.010547,0.078364 0.023437,0.084093 0.012891,0.00573 0.05791,0.08776 0.1000422,0.1822916 0.042133,0.094531 0.1159607,0.2323456 0.1640625,0.3062541 0.048102,0.073908 0.087458,0.1406547 0.087458,0.1483247 0,0.026031 0.3218866,0.4672336 0.3485235,0.4777136 0.014562,0.0057 0.026477,0.02283 0.026477,0.038 0,0.03218 0.3819619,0.415294 0.5354954,0.537113 l 0.1051296,0.08341 -1.015625,-9.3e-5 c -0.5585937,-6.3e-5 -1.0296875,-0.01269 -1.046875,-0.02809 z"
       id="path823"
       inkscape:connector-curvature="0" />
    <path
       style="fill:#003265;stroke-width:0.03125"
       d="M 4.7512291,11.131408 C 4.6072444,11.011813 4.339025,10.742372 4.2004559,10.578125 4.0694181,10.422805 3.84375,10.096909 3.84375,10.062993 c 0,-0.01746 -0.013076,-0.03174 -0.029058,-0.03174 -0.015982,0 -0.061672,-0.066797 -0.1015335,-0.1484375 C 3.6732969,9.8011719 3.6336387,9.7273437 3.6250291,9.71875 3.5924016,9.6861828 3.4685803,9.4201641 3.4686631,9.3828125 3.4687256,9.3613281 3.4570469,9.34375 3.4427431,9.34375 3.4284391,9.34375 3.4015691,9.298047 3.3830311,9.2421875 3.3644928,9.1863281 3.3193878,9.0632812 3.2827975,8.96875 3.1682422,8.6727953 3.09375,8.4416853 3.09375,8.3822359 c 0,-0.03148 -0.012439,-0.070595 -0.027642,-0.086923 C 3.0249954,8.2511562 2.9143896,7.6674344 2.8561959,7.1875 2.7994548,6.7195447 2.8093309,5.6700437 2.8742812,5.265625 2.9349241,4.8880269 3.0021598,4.5532147 3.0531329,4.375 3.1427684,4.0616119 3.3447534,3.4861644 3.4072175,3.3662253 3.4410603,3.3012428 3.46875,3.2274147 3.46875,3.2021628 c 0,-0.025252 0.011132,-0.045913 0.024739,-0.045913 0.013606,0 0.045704,-0.045703 0.071327,-0.1015625 0.081865,-0.1784687 0.2312694,-0.4449615 0.2554966,-0.4557292 0.012891,-0.00573 0.023437,-0.029167 0.023437,-0.052083 0,-0.022917 0.010724,-0.046354 0.023831,-0.052083 C 3.8806875,2.4890625 3.9463128,2.4070313 4.0134144,2.3125 4.4793044,1.6561642 5.1537962,1.1378102 5.8360003,0.91182413 6.4827869,0.69757034 7.1556028,0.71343925 7.796875,0.95807294 7.9501816,1.0165566 8.1351716,1.1028594 8.15625,1.1257309 8.16484,1.1350509 8.2738281,1.2026149 8.3984375,1.2758632 8.5230469,1.349111 8.625,1.4224756 8.625,1.4388956 c 0,0.01642 0.014543,0.029854 0.032318,0.029854 0.049285,0 0.5199682,0.4615539 0.6736972,0.6606307 C 9.46234,2.2994444 9.46468,2.3062909 9.3976231,2.3242665 9.3593991,2.334513 9.2262909,2.3430886 9.1018272,2.3433233 8.9091031,2.3436867 8.8697388,2.3344775 8.8364978,2.28125 8.8150303,2.246875 8.7859934,2.21875 8.7719713,2.21875 8.7579493,2.21875 8.7085973,2.179146 8.6623009,2.130741 8.5527116,2.0161609 8.3277941,1.84375 8.2879088,1.84375 8.2707368,1.84375 8.2498828,1.826018 8.2415658,1.804345 8.2257006,1.7630011 7.7862428,1.53125 7.7237094,1.53125 7.7037941,1.53125 7.6875,1.5171875 7.6875,1.5 7.6875,1.4828125 7.6545044,1.46875 7.6141762,1.46875 7.5738481,1.46875 7.50002,1.4492348 7.4501137,1.425383 7.4002075,1.4015311 7.2225497,1.3646027 7.0553184,1.34332 6.7183969,1.3004415 6.2214316,1.3405103 6.0498862,1.4243847 5.99998,1.4487856 5.9352984,1.46875 5.9061491,1.46875 c -0.060081,0 -0.5832688,0.262543 -0.6586097,0.3304998 -0.027135,0.024475 -0.05978,0.0445 -0.072545,0.0445 -0.012765,0 -0.041344,0.017578 -0.063509,0.039063 -0.022165,0.021484 -0.09096,0.078882 -0.1528784,0.1275509 C 4.8177747,2.1210605 4.59375,2.3373699 4.59375,2.3626553 c 0,0.010436 -0.033871,0.045618 -0.075269,0.078181 -0.041398,0.032564 -0.1152262,0.1224532 -0.1640625,0.1997542 -0.048836,0.077301 -0.09934,0.1405724 -0.1122306,0.1406031 -0.012891,3.07e-5 -0.023437,0.019645 -0.023437,0.043588 0,0.023942 -0.017578,0.050512 -0.039063,0.059044 -0.021484,0.00853 -0.093855,0.1229783 -0.1608231,0.2543255 -0.066969,0.1313471 -0.1337653,0.2462321 -0.1484375,0.2553 -0.014672,0.00907 -0.026677,0.042611 -0.026677,0.074539 0,0.031928 -0.010612,0.062739 -0.023582,0.068468 -0.030519,0.013481 -0.2439219,0.5421644 -0.2721084,0.6741207 -0.01189,0.055662 -0.034598,0.1092265 -0.050464,0.1190318 -0.015865,0.00981 -0.028846,0.053079 -0.028846,0.096163 0,0.043084 -0.014156,0.104785 -0.031457,0.1371128 -0.017301,0.032328 -0.053433,0.1685125 -0.080293,0.3026331 -0.1873556,0.9355341 -0.1802278,2.1083909 0.018005,2.9626053 0.035898,0.1546875 0.072958,0.3164063 0.082356,0.359375 0.0094,0.042969 0.036899,0.1224378 0.061114,0.1765978 0.024214,0.05416 0.044025,0.1097022 0.044025,0.1234269 0,0.05339 0.200225,0.5620606 0.2395934,0.6086859 0.022911,0.027135 0.041657,0.072838 0.041657,0.1015625 0,0.028725 0.014063,0.052227 0.03125,0.052227 0.017187,0 0.03125,0.015125 0.03125,0.03361 0,0.044247 0.2529272,0.4789913 0.2864887,0.4924313 0.014306,0.00573 0.026011,0.030339 0.026011,0.054687 0,0.024349 0.012695,0.044271 0.028211,0.044271 0.015516,0 0.077383,0.073828 0.1374819,0.1640628 0.096433,0.144787 0.4461856,0.503124 0.6401128,0.655822 0.061667,0.04856 0.175081,0.05513 1.0789582,0.0625 l 1.0100471,0.0082 -0.095058,0.242188 -0.095058,0.242187 -1.01641,-0.0014 -1.0164097,-0.0014 -0.1393959,-0.115783 z m 6.3093859,-2.3898902 -0.17376,-0.096764 -0.05466,-0.3926894 c -0.03006,-0.2159794 -0.07367,-0.4630022 -0.09691,-0.5489397 -0.02323,-0.085937 -0.05175,-0.2159419 -0.06336,-0.2888987 -0.01161,-0.072957 -0.03395,-0.1405838 -0.04964,-0.1502819 -0.01569,-0.0097 -0.02853,-0.063209 -0.02853,-0.1189138 0,-0.055704 -0.01275,-0.11464 -0.02833,-0.1309681 C 10.549839,6.9977344 10.484894,6.8296875 10.421098,6.640625 10.357301,6.4515625 10.286972,6.2617188 10.264811,6.21875 10.24265,6.1757813 10.182082,6.0492188 10.130215,5.9375 9.8769097,5.3918919 9.83561,5.3125 9.8050897,5.3125 c -0.013112,0 -0.02384,-0.016122 -0.02384,-0.035828 0,-0.019706 -0.047364,-0.1075963 -0.1052531,-0.1953125 C 9.6181078,4.9936431 9.56091,4.8902344 9.5488909,4.8515625 9.5368719,4.8128906 9.5139234,4.78125 9.4978941,4.78125 9.481865,4.78125 9.46875,4.7601562 9.46875,4.734375 9.46875,4.7085938 9.4563394,4.6875 9.4411706,4.6875 9.4260019,4.6875 9.3540375,4.5960937 9.28125,4.484375 9.2084625,4.3726563 9.1364981,4.28125 9.1213294,4.28125 c -0.015169,0 -0.027579,-0.021094 -0.027579,-0.046875 0,-0.025781 -0.011031,-0.046875 -0.024512,-0.046875 -0.013482,0 -0.04777,-0.038672 -0.076196,-0.085937 C 8.9079247,3.9600363 8.2869875,3.3077094 8.0485969,3.109375 7.9659622,3.040625 7.8765331,2.9632813 7.8498659,2.9375 7.8231988,2.9117188 7.7527297,2.8519531 7.6932678,2.8046875 7.6338063,2.7574219 7.5986931,2.71875 7.6152388,2.71875 c 0.016546,0 0.085276,-0.07704 0.1527346,-0.1712011 0.1303732,-0.1819791 0.151316,-0.1950858 0.2132929,-0.1334864 0.021616,0.021484 0.1215484,0.109375 0.2220715,0.1953125 0.4349756,0.3718608 0.9350928,0.9233722 1.270975,1.4015859 0.1345931,0.1916279 0.2700603,0.3781988 0.3010381,0.4146025 0.030978,0.036404 0.1106935,0.1699975 0.177146,0.296875 0.066453,0.1268775 0.1455841,0.2728741 0.1758471,0.3244366 0.139417,0.2375356 0.259463,0.4797094 0.327826,0.6613322 0.04099,0.1089072 0.08771,0.2226291 0.103817,0.2527153 0.09153,0.1709681 0.167789,0.3743116 0.254977,0.6798781 0.05392,0.188966 0.10881,0.3576369 0.121983,0.3748244 0.01317,0.017188 0.03229,0.073437 0.04248,0.125 0.05396,0.2730438 0.110846,0.5469481 0.139551,0.671875 0.0368,0.1601644 0.140571,1.0009394 0.125387,1.0159253 -0.0055,0.00542 -0.08818,-0.033687 -0.183746,-0.086907 z"
       id="path821"
       inkscape:connector-curvature="0" />
    <path
       style="fill:#323232;stroke-width:0.03125"
       d="M 1.7953257,15.456626 C 1.6695013,15.401052 1.5382533,15.241537 1.51528,15.116267 1.505129,15.060917 1.501054,14.520931 1.50622,13.916305 c 0.00901,-1.053825 0.012067,-1.10289 0.073832,-1.185569 0.035437,-0.04744 0.1032651,-0.115243 0.1507291,-0.15068 0.083605,-0.06242 0.1232187,-0.06443 1.269215,-0.06443 1.1459962,0 1.1856103,0.002 1.269215,0.06443 0.047464,0.03544 0.1152922,0.103265 0.1507291,0.150729 0.06242,0.08361 0.064431,0.123219 0.064431,1.269215 0,1.145996 -0.00201,1.18561 -0.064431,1.269215 -0.035437,0.04746 -0.1032447,0.115292 -0.1506838,0.150729 -0.083006,0.06201 -0.1294059,0.0647 -1.2324441,0.0716 -0.9053213,0.0057 -1.1662182,-0.0017 -1.2414905,-0.03492 z M 4,14 V 13 H 3 2 v 1 1 h 1 1 z m 2.7953256,1.456626 C 6.6695013,15.401052 6.5382531,15.241537 6.51528,15.116267 6.505129,15.060917 6.501053,14.520931 6.50622,13.916305 c 0.00901,-1.053825 0.012068,-1.10289 0.073832,-1.185569 0.035437,-0.04744 0.103265,-0.115243 0.1507291,-0.15068 0.083605,-0.06242 0.1232188,-0.06443 1.269215,-0.06443 1.1459963,0 1.1856103,0.002 1.269215,0.06443 0.047464,0.03544 0.1152922,0.103265 0.1507291,0.150729 0.06242,0.08361 0.064431,0.123219 0.064431,1.269215 0,1.145996 -0.00201,1.18561 -0.064431,1.269215 -0.035437,0.04746 -0.1032447,0.115292 -0.1506838,0.150729 -0.083006,0.06201 -0.1294059,0.0647 -1.2324441,0.0716 -0.9053212,0.0057 -1.1662181,-0.0017 -1.2414906,-0.03492 z M 9,14 V 13 H 8 7 v 1 1 h 1 1 z m 2.795326,1.456626 c -0.125825,-0.05557 -0.257073,-0.215089 -0.280046,-0.340359 -0.01015,-0.05535 -0.01423,-0.595336 -0.0091,-1.199962 0.009,-1.053825 0.01207,-1.10289 0.07383,-1.185569 0.03544,-0.04744 0.103265,-0.115243 0.150729,-0.15068 0.08361,-0.06242 0.123219,-0.06443 1.269215,-0.06443 1.145996,0 1.18561,0.002 1.269215,0.06443 0.04746,0.03544 0.115292,0.103265 0.150729,0.150729 0.06242,0.08361 0.06443,0.123219 0.06443,1.269215 0,1.145996 -0.002,1.18561 -0.06443,1.269215 -0.03544,0.04746 -0.103245,0.115292 -0.150684,0.150729 -0.08301,0.06201 -0.129406,0.0647 -1.232444,0.0716 -0.905321,0.0057 -1.166218,-0.0017 -1.24149,-0.03492 z M 14,14 v -1 h -1 -1 v 1 1 h 1 1 z M 4.7522362,11.603012 C 4.5914687,11.537509 3.9510341,10.926055 3.79288,10.687068 3.7475406,10.618556 3.6982509,10.5625 3.6833472,10.5625 c -0.014903,0 -0.027097,-0.02109 -0.027097,-0.04687 0,-0.02578 -0.012357,-0.04687 -0.027459,-0.04687 -0.015102,0 -0.044933,-0.04219 -0.066291,-0.09375 -0.021358,-0.05156 -0.049549,-0.09375 -0.062647,-0.09375 -0.013098,0 -0.032288,-0.02461 -0.042646,-0.05469 C 3.44685,10.196484 3.4080809,10.122656 3.3710538,10.0625 3.2711884,9.9002534 3.0311625,9.4200788 3.0003002,9.3208028 2.9855227,9.2732675 2.9435957,9.1570312 2.9071291,9.0625 2.8446441,8.9005222 2.7529967,8.6324078 2.6881493,8.421875 2.6264533,8.2215734 2.5343129,7.7149284 2.4835525,7.296875 2.4416971,6.9521622 2.4338994,6.7036253 2.4467857,6.125 c 0.009,-0.4039063 0.03248,-0.8328125 0.052188,-0.953125 0.053693,-0.3277822 0.162569,-0.8665409 0.1894559,-0.9375 C 2.7014544,4.2 2.7366685,4.0875 2.7666831,3.984375 2.7966977,3.88125 2.8329874,3.76875 2.8473269,3.734375 2.8616664,3.7 2.9031243,3.5875 2.9394555,3.484375 3.0190287,3.2585091 3.2778856,2.719494 3.3344747,2.6618303 3.3567637,2.6391183 3.375,2.6060015 3.375,2.5882374 3.375,2.5704734 3.417187,2.4934294 3.46875,2.4170279 3.520313,2.3406269 3.5625,2.2662637 3.5625,2.2517768 c 0,-0.014487 0.021094,-0.034434 0.046875,-0.044328 0.025781,-0.00989 0.046875,-0.036389 0.046875,-0.058879 0,-0.02249 0.042187,-0.087081 0.09375,-0.1435345 C 3.801563,1.9485813 3.84375,1.8941391 3.84375,1.884052 3.84375,1.85852 4.5106656,1.1893585 4.5371337,1.188333 4.5489638,1.187875 4.6048319,1.1453125 4.6612856,1.09375 4.7177394,1.0421875 4.7811897,1 4.8022866,1 4.8233834,1 4.85189,0.98242188 4.8656347,0.9609375 4.9197316,0.87637819 5.3735325,0.658216 5.75,0.53578384 6.1807309,0.3957045 6.4420309,0.37493125 7.7648053,0.37560756 c 1.4782556,7.5594e-4 1.6761319,0.0229697 2.2508197,0.25268088 0.32272,0.12899593 0.562276,0.26523343 0.848985,0.48282546 0.126188,0.095768 0.706363,0.6673593 0.799147,0.7873236 0.0534,0.069049 0.06645,0.070312 0.726114,0.070312 1.065844,0 1.077343,0.00699 1.135238,0.6899271 0.05381,0.6347754 0.05746,1.142417 0.0112,1.5600729 -0.06177,0.5577931 -0.189655,1.2069237 -0.320133,1.625 -0.05096,0.1632812 -0.115869,0.3742187 -0.144246,0.46875 -0.02838,0.094531 -0.08271,0.2421875 -0.120747,0.328125 -0.03803,0.085937 -0.100355,0.2335937 -0.13849,0.328125 -0.09782,0.2424709 -0.48445,1.006985 -0.619648,1.2252653 -0.116314,0.1877928 -0.57652,0.8456772 -0.625677,0.8944344 -0.07558,0.074965 -0.211808,0.1303003 -0.320778,0.1303003 -0.08346,0 -0.424434,-0.1360116 -0.465344,-0.1856212 -0.0086,-0.010421 -0.05485,-0.04392 -0.102797,-0.074443 C 10.555506,8.8804169 10.511205,8.7568303 10.452418,8.328125 10.383979,7.8290294 10.320429,7.5686437 10.11302,6.9375 9.9904597,6.5645509 9.9442613,6.4518578 9.6908678,5.9077372 9.6632341,5.8483991 9.5597656,5.660925 9.4609375,5.4911284 9.3621094,5.3213319 9.28125,5.1694906 9.28125,5.1537037 9.28125,5.1379166 9.2688934,5.125 9.2537913,5.125 9.2386891,5.125 9.2088578,5.0828125 9.1875,5.03125 9.1661422,4.9796875 9.1363109,4.9375 9.1212087,4.9375 c -0.015102,0 -0.027459,-0.021094 -0.027459,-0.046875 0,-0.025781 -0.014516,-0.046875 -0.032257,-0.046875 -0.017741,0 -0.042351,-0.025641 -0.054687,-0.056979 C 8.9744363,4.7045453 8.5855463,4.1875 8.5560703,4.1875 8.5424191,4.1875 8.53125,4.1741922 8.53125,4.1579269 8.53125,4.1275494 7.887415,3.4713903 7.7476969,3.359375 7.4640759,3.1319897 7.3048091,2.9820239 7.2648241,2.9047013 7.1758347,2.7326149 7.2205056,2.5749757 7.4175975,2.3655774 7.4629191,2.3174263 7.5,2.2713484 7.5,2.2631821 7.5,2.2267625 7.7018044,2.03125 7.7393963,2.03125 7.7624159,2.03125 7.78125,2.0171875 7.78125,2 7.78125,1.955684 7.769791,1.959002 7.6026712,2.051708 7.3952822,2.166752 7.1010559,2.3916467 6.9585825,2.5440234 6.5934487,2.9345373 6.2356597,3.5061456 6.0472372,4 c -0.029509,0.077344 -0.066094,0.1647591 -0.081301,0.1942566 -0.015206,0.029497 -0.041445,0.1068409 -0.058309,0.171875 -0.016864,0.065034 -0.060606,0.2237121 -0.097204,0.3526184 -0.036598,0.1289062 -0.077743,0.3046875 -0.091434,0.390625 -0.01369,0.085937 -0.042658,0.2476563 -0.064373,0.359375 -0.049813,0.2562803 -0.050518,1.4842284 -9.781e-4,1.703125 0.019449,0.085937 0.042697,0.2125 0.051662,0.28125 0.024725,0.1896091 0.1647575,0.7273066 0.2482225,0.953125 0.093145,0.2520081 0.1797554,0.4550372 0.2059638,0.4828125 0.015407,0.016328 0.028013,0.053278 0.028013,0.082111 0,0.028833 0.021094,0.06993 0.046875,0.091326 0.025781,0.021397 0.046875,0.05757 0.046875,0.080385 0,0.022815 0.042187,0.1039922 0.09375,0.1803931 0.051563,0.076401 0.09375,0.1529453 0.09375,0.1700985 0,0.017153 0.021094,0.039281 0.046875,0.049175 0.025781,0.00989 0.046875,0.036389 0.046875,0.058879 0,0.02249 0.042187,0.087081 0.09375,0.1435347 0.051563,0.056454 0.09375,0.1105109 0.09375,0.1201272 C 6.75,9.8891378 7.2376997,10.375 7.2618372,10.375 7.3278784,10.375 7.5,10.644565 7.5,10.747995 c 0,0.08093 -0.1187153,0.443569 -0.1587128,0.484818 -0.015833,0.01633 -0.028787,0.05266 -0.028787,0.08073 0,0.02807 -0.047598,0.106121 -0.1057731,0.173438 l -0.1057731,0.122394 -1.1520394,0.0059 c -0.6336216,0.0033 -1.1721269,-0.0023 -1.1966782,-0.01228 z m 2.2691679,-0.595199 0.097959,-0.242188 -0.1104206,-0.09375 C 6.825465,10.516098 6.46875,10.155987 6.46875,10.126539 c 0,-0.01517 -0.011914,-0.03227 -0.026477,-0.038 C 6.4156366,10.078062 6.09375,9.6368594 6.09375,9.6108288 6.09375,9.6031588 6.054394,9.5364128 6.006292,9.4625041 5.9581903,9.3885956 5.8843622,9.2507812 5.8422297,9.15625 5.8000972,9.0617187 5.7550781,8.9796875 5.7421875,8.9739584 5.7292969,8.9682291 5.71875,8.9303872 5.71875,8.889865 5.71875,8.849343 5.706543,8.808644 5.691624,8.799424 5.6411941,8.7682562 5.3843919,7.8918469 5.3429206,7.609375 5.3303034,7.5234375 5.3018128,7.36875 5.2796078,7.265625 5.2249537,7.0118006 5.2246994,5.6531122 5.2792547,5.375 5.3011694,5.2632812 5.3302756,5.1015625 5.343935,5.015625 5.3932406,4.7054237 5.6356706,3.8914081 5.6884666,3.8587784 c 0.016655,-0.010294 0.030283,-0.03887 0.030283,-0.063502 0,-0.060822 0.3090541,-0.6832602 0.3457372,-0.6963183 0.016095,-0.00573 0.029263,-0.036198 0.029263,-0.067708 0,-0.03151 0.01081,-0.061979 0.024023,-0.067708 0.013212,-0.00573 0.093368,-0.108283 0.1781222,-0.2278968 C 6.4827947,2.4718751 7.1030419,1.84375 7.1766041,1.84375 c 0.00839,0 0.074044,-0.03982 0.1458903,-0.088489 C 7.3943412,1.7065923 7.4742187,1.6586505 7.5,1.6487239 7.525781,1.6387939 7.597303,1.6090799 7.6589375,1.5826849 7.7681828,1.5359009 7.7764319,1.5374489 7.9870625,1.6442769 8.1058969,1.7045479 8.2187378,1.774085 8.23782,1.798805 8.256903,1.823525 8.283004,1.84375 8.295823,1.84375 c 0.033309,0 0.2670825,0.1830692 0.3664778,0.2869908 0.046297,0.048405 0.095648,0.088009 0.1096704,0.088009 0.014022,0 0.043059,0.028125 0.064526,0.0625 0.038231,0.061217 0.03117,0.062507 -0.3440456,0.062844 C 7.9319913,2.344597 7.9124528,2.3501438 7.7678166,2.5497212 7.7004447,2.6426871 7.6317844,2.71875 7.6152387,2.71875 c -0.016546,0 0.018568,0.038672 0.078029,0.085937 0.059462,0.047266 0.1299309,0.1070313 0.1565981,0.1328125 0.026667,0.025781 0.1160963,0.103125 0.198731,0.171875 0.2383906,0.1983344 0.8593278,0.8506613 0.9444443,0.9921875 0.028426,0.047266 0.062715,0.085937 0.076197,0.085937 0.013482,0 0.024512,0.021094 0.024512,0.046875 0,0.025781 0.012411,0.046875 0.027579,0.046875 0.015169,0 0.087133,0.091406 0.1599206,0.203125 0.072788,0.1117187 0.1447519,0.203125 0.1599206,0.203125 0.015169,0 0.027579,0.021094 0.027579,0.046875 0,0.025781 0.013115,0.046875 0.029144,0.046875 0.016029,0 0.038978,0.031641 0.050997,0.070312 0.012019,0.038672 0.069217,0.1420806 0.127106,0.2297972 0.057889,0.087716 0.1052531,0.1756069 0.1052531,0.1953125 0,0.019705 0.010728,0.035828 0.02384,0.035828 0.03052,0 0.07182,0.079392 0.3251256,0.625 0.05187,0.1117187 0.112435,0.2382812 0.134596,0.28125 0.02216,0.042969 0.09249,0.2328125 0.156287,0.421875 0.0638,0.1890625 0.128741,0.3571094 0.144322,0.3734375 0.01558,0.016328 0.02833,0.075264 0.02833,0.1309681 0,0.055704 0.01284,0.1092156 0.02853,0.1189138 0.01569,0.0097 0.03803,0.077325 0.04964,0.1502818 0.01161,0.072957 0.04012,0.2029613 0.06336,0.2888988 0.02324,0.085937 0.06686,0.3330281 0.09693,0.5490906 l 0.05468,0.3928403 0.1822,0.1009313 c 0.160819,0.089087 0.187623,0.095507 0.228425,0.054704 0.02543,-0.025425 0.04623,-0.061294 0.04623,-0.079709 0,-0.018415 0.01129,-0.033482 0.02509,-0.033482 0.0138,0 0.107978,-0.1265625 0.209287,-0.28125 0.101309,-0.1546875 0.191972,-0.2814112 0.201474,-0.2816084 0.0095,-1.875e-4 0.04519,-0.059963 0.0793,-0.1328125 0.03411,-0.07285 0.06927,-0.1394853 0.07813,-0.1480791 0.03793,-0.036815 0.360197,-0.67303 0.490709,-0.96875 0.02655,-0.060156 0.06635,-0.1445312 0.08846,-0.1875 0.03415,-0.066378 0.208949,-0.5791997 0.372824,-1.09375 0.04244,-0.1332412 0.08695,-0.3402562 0.188142,-0.875 0.116802,-0.6172137 0.140511,-1.2491394 0.07349,-1.9586395 -0.03246,-0.3436246 -0.04226,-0.3822107 -0.101109,-0.3980108 -0.03584,-0.00962 -0.367507,-0.019352 -0.737038,-0.02162 -0.369531,-0.00227 -0.708969,-0.013007 -0.754307,-0.023864 -0.04748,-0.01137 -0.13543,-0.08703 -0.207425,-0.1784398 C 11.084448,1.8000382 10.628155,1.3919281 10.3125,1.2095451 9.6021856,0.79913147 9.3376622,0.75148063 7.7648053,0.75060756 6.5370103,0.74992606 6.2699016,0.77219653 5.84375,0.91077766 5.1592519,1.1333711 4.4825241,1.6516282 4.0134144,2.3125 3.9463128,2.4070313 3.8806875,2.4890625 3.8675806,2.4947917 3.8544738,2.5005208 3.84375,2.5239583 3.84375,2.546875 c 0,0.022917 -0.010547,0.046354 -0.023437,0.052083 -0.024227,0.010768 -0.1736319,0.2772605 -0.2554966,0.4557292 -0.025623,0.055859 -0.05772,0.1015625 -0.071327,0.1015625 -0.013607,0 -0.024739,0.020661 -0.024739,0.045913 0,0.025252 -0.02769,0.09908 -0.061533,0.1640625 C 3.3447534,3.4861644 3.1427684,4.0616119 3.0531329,4.375 3.0021598,4.5532147 2.9349241,4.8880269 2.8742812,5.265625 2.8093309,5.6700437 2.7994548,6.7195447 2.8561959,7.1875 c 0.058194,0.4799344 0.1687995,1.0636562 0.2099126,1.1078125 0.015203,0.016328 0.027642,0.055444 0.027642,0.086923 0,0.059449 0.074492,0.2905594 0.1890475,0.5865141 0.03659,0.094531 0.081695,0.2175781 0.1002334,0.2734375 0.018538,0.055859 0.045408,0.1015625 0.059712,0.1015625 0.014304,0 0.025968,0.017578 0.02592,0.039063 -9.37e-5,0.037352 0.1237385,0.3033703 0.156366,0.3359375 0.00861,0.00859 0.048268,0.082422 0.08813,0.1640625 0.039862,0.081641 0.085552,0.1484374 0.1015334,0.1484374 0.015982,0 0.029058,0.01428 0.029058,0.03174 0,0.03392 0.2256681,0.359812 0.3567059,0.515132 0.1385691,0.164247 0.4067885,0.433688 0.5507732,0.553283 l 0.1393959,0.115783 1.0164097,0.0014 1.01641,0.0014 0.097959,-0.242187 z"
       id="path819"
       inkscape:connector-curvature="0" />
  </g>
</svg>
