<?xml version="1.0" encoding="UTF-8" standalone="no"?>
<!-- Created with Inkscape (http://www.inkscape.org/) -->

<svg
   xmlns:dc="http://purl.org/dc/elements/1.1/"
   xmlns:cc="http://creativecommons.org/ns#"
   xmlns:rdf="http://www.w3.org/1999/02/22-rdf-syntax-ns#"
   xmlns:svg="http://www.w3.org/2000/svg"
   xmlns="http://www.w3.org/2000/svg"
   xmlns:sodipodi="http://sodipodi.sourceforge.net/DTD/sodipodi-0.dtd"
   xmlns:inkscape="http://www.inkscape.org/namespaces/inkscape"
   version="1.1"
   id="svg2"
   width="16"
   height="16"
   viewBox="0 0 16 16"
   sodipodi:docname="REDO.svg"
   inkscape:version="0.92.4 (5da689c313, 2019-01-14)">
  <metadata
     id="metadata8">
    <rdf:RDF>
      <cc:Work
         rdf:about="">
        <dc:format>image/svg+xml</dc:format>
        <dc:type
           rdf:resource="http://purl.org/dc/dcmitype/StillImage" />
        <dc:title></dc:title>
      </cc:Work>
    </rdf:RDF>
  </metadata>
  <defs
     id="defs6" />
  <sodipodi:namedview
     pagecolor="#ffffff"
     bordercolor="#666666"
     borderopacity="1"
     objecttolerance="10"
     gridtolerance="10"
     guidetolerance="10"
     inkscape:pageopacity="0"
     inkscape:pageshadow="2"
     inkscape:window-width="898"
     inkscape:window-height="638"
     id="namedview4"
     showgrid="false"
     inkscape:zoom="14.75"
     inkscape:cx="8"
     inkscape:cy="8"
     inkscape:window-x="0"
     inkscape:window-y="0"
     inkscape:window-maximized="0"
     inkscape:current-layer="svg2" />
  <g
     id="REDO">
    <path
       style="fill:#ffffff;stroke-width:0.03125"
       d="M 0,8 V 0 h 8 8 v 8 8 H 8 0 Z m 6.7588162,7.457152 c 0.055307,-0.02357 0.1314813,-0.07644 0.1692754,-0.117502 0.1324728,-0.143922 0.3849259,-0.797592 0.3837221,-0.993561 -0.00105,-0.171046 -0.1015553,-0.355562 -0.2668996,-0.49 C 6.4752544,13.392909 6.0164247,12.814403 5.6532612,12.10145 4.6254772,10.083733 4.5189919,7.4987325 5.3755316,5.359375 5.5025887,5.0420269 5.7160522,4.6091425 5.8233503,4.4512394 c 0.045595,-0.067099 0.0829,-0.1349841 0.0829,-0.1508563 0,-0.015872 0.033226,-0.07242 0.073834,-0.1256606 C 6.0206934,4.1214812 6.0918172,4.0217166 6.1381369,3.9530228 6.3098331,3.6983925 6.6754944,3.3014559 6.9199466,3.1043445 7.177515,2.8966568 7.6077094,2.625 7.6790341,2.625 c 0.070252,0 0.042364,0.047798 -0.04773,0.081805 -0.091951,0.034708 -0.58192,0.61643 -0.633525,0.7521609 -0.041738,0.1097797 -0.035758,0.2769375 0.014183,0.3964644 0.041167,0.098527 0.2680097,0.3130891 0.7608838,0.7196928 0.3132221,0.2583975 0.934084,0.9321153 1.254225,1.3610019 0.4426665,0.5930312 0.4606415,0.6197628 0.8099328,1.2045003 0.3702663,0.6198519 0.7354473,1.3981369 0.9604183,2.046875 0.191484,0.5521763 0.405765,1.4045087 0.451742,1.7968747 0.06328,0.540046 0.122141,0.763048 0.231675,0.877772 0.163753,0.171512 0.591088,0.396526 0.783338,0.412469 0.346609,0.02874 0.430224,-0.04228 0.964418,-0.819159 C 13.876777,10.512804 14.49261,9.2485422 14.83567,8.15625 15.055615,7.4559522 15.086204,7.3465684 15.141532,7.0625 15.16664,6.9335937 15.215868,6.6804687 15.250929,6.5 15.410832,5.6769269 15.451498,4.6925906 15.372286,3.5625 15.332129,2.9895913 15.311034,2.9076256 15.172431,2.7859299 15.012335,2.6453644 14.845627,2.625 13.855017,2.625 H 12.963111 L 12.879993,2.5240368 C 12.672204,2.2716357 12.086057,1.6953096 11.859375,1.52052 11.581541,1.3062877 11.272724,1.09375 11.239279,1.09375 c -0.01197,0 -0.07727,-0.035033 -0.145097,-0.077852 C 10.912735,0.90135503 10.465943,0.73018041 10.067968,0.62273569 9.6546409,0.51114594 9.2674,0.49445991 7.4126613,0.50831975 5.6431925,0.52154241 5.640195,0.52167472 5.34375,0.59964206 4.5353816,0.81224938 3.9392653,1.1189869 3.3089581,1.6466646 2.7573512,2.1084562 2.1476483,2.8339373 1.8767078,3.3508888 1.825105,3.4493466 1.7485731,3.5842556 1.7066368,3.6506869 1.3412145,4.2295534 0.89051519,5.5468862 0.72110925,6.53125 c -0.18869603,1.0964525 -0.19519784,2.6646834 -0.015353,3.703125 0.26889778,1.552642 0.82975765,2.902756 1.65505675,3.98409 0.3245046,0.425176 1.0989561,1.166975 1.3049664,1.249946 0.037727,0.0152 0.726469,0.02852 1.5305369,0.02961 1.1721371,0.0016 1.4818753,-0.0065 1.5624999,-0.04087 z"
       id="path827"
       inkscape:connector-curvature="0" />
    <path
       style="fill:#cbfefe;stroke-width:0.03125"
       d="m 12.331686,11.712347 c -0.01105,-0.03945 -0.04151,-0.289691 -0.06768,-0.556097 -0.02618,-0.266406 -0.06031,-0.533594 -0.07585,-0.59375 -0.0418,-0.161777 -0.119999,-0.528924 -0.143113,-0.671875 C 12.01936,9.73182 11.95374,9.4933725 11.842938,9.15625 11.794922,9.0101563 11.745743,8.8377353 11.733651,8.7730922 11.721558,8.7084494 11.699197,8.6478538 11.683958,8.6384356 11.668718,8.6290172 11.65625,8.5932447 11.65625,8.5589413 11.65625,8.5046528 11.625656,8.4227447 11.5,8.140625 11.484689,8.10625 11.442502,8.0078125 11.40625,7.921875 11.369998,7.8359375 11.327672,7.7375 11.312192,7.703125 11.296713,7.66875 11.246663,7.5492187 11.20097,7.4375 11.122775,7.2463097 11.044889,7.0954941 10.847955,6.7539322 10.802114,6.6744256 10.725115,6.5320312 10.676846,6.4375 10.527034,6.1441072 10.421474,5.9735109 10.304688,5.8360537 10.274609,5.8006519 10.25,5.7619278 10.25,5.75 10.25,5.738072 10.22214,5.694521 10.18808,5.653219 10.099736,5.5460809 10.091609,5.5347975 9.9535469,5.3275928 9.8850291,5.2247606 9.8214228,5.1335937 9.8122,5.125 9.8029772,5.1164062 9.7715194,5.0717666 9.7422937,5.0258009 9.7130681,4.979835 9.6219866,4.8685425 9.5398906,4.7784837 9.3649731,4.5866012 9.3182491,4.5338466 9.109375,4.2924053 8.8895044,4.0382522 8.6687837,3.8181906 8.4704128,3.6553503 8.3767962,3.5785012 8.2713275,3.4874291 8.2360378,3.4529672 8.2007484,3.4185053 8.1164081,3.3450659 8.0486153,3.2897684 7.9808225,3.2344709 7.9362619,3.1782922 7.9495912,3.1649262 7.9629209,3.1515606 8.4191691,3.1325281 8.9634759,3.1226318 9.5077831,3.1127356 9.9578516,3.1021887 9.9636281,3.0991943 9.969405,3.0962 9.9001716,2.9988281 9.8097759,2.8828125 9.6220169,2.6418382 9.1220262,2.1363991 8.890625,1.9536457 8.8046875,1.8857749 8.7273437,1.8216227 8.71875,1.8110852 8.7101563,1.8005477 8.6293113,1.7508522 8.5390944,1.7006506 8.4488775,1.650449 8.3750494,1.5988281 8.3750319,1.5859375 8.3750144,1.5730469 8.3589772,1.5625 8.3393937,1.5625 8.3198103,1.5625 8.2389509,1.5235525 8.1597062,1.4759501 7.8302694,1.2780565 7.2046384,1.0773612 6.7778759,1.0326746 6.6332225,1.0175278 7.0316422,1.0071026 7.84375,1.0047847 c 1.2950256,-0.0037 1.7160481,0.017108 2.0367631,0.1006435 0.3748299,0.097631 0.7549449,0.2433244 0.9666929,0.3705219 0.07925,0.047602 0.158932,0.08655 0.177084,0.08655 0.01815,0 0.03769,0.011146 0.04342,0.024769 0.0057,0.013623 0.06667,0.058336 0.135417,0.099362 0.34189,0.2040217 0.967307,0.7822112 1.289352,1.1919883 0.135751,0.1727332 0.181865,0.2099475 0.280314,0.2262186 0.06481,0.010711 0.504553,0.019784 0.977209,0.020163 0.472656,3.781e-4 0.909718,0.00902 0.971248,0.019195 l 0.111874,0.018508 0.0363,0.5045863 c 0.07363,1.0236243 0.03437,1.9208956 -0.11849,2.7077109 -0.03506,0.1804687 -0.08429,0.4335937 -0.109396,0.5625 -0.05946,0.3052522 -0.09647,0.4340962 -0.348203,1.2120297 -0.02383,0.073647 -0.04333,0.1482472 -0.04333,0.1657769 0,0.027605 -0.0397,0.1261447 -0.15625,0.3878184 -0.01531,0.034375 -0.0575,0.1328125 -0.09375,0.21875 -0.03625,0.085937 -0.07826,0.184375 -0.09334,0.21875 -0.01509,0.034375 -0.0481,0.1117188 -0.07337,0.171875 -0.08801,0.2095519 -0.238362,0.5170016 -0.35149,0.7187498 -0.06264,0.111719 -0.169322,0.306566 -0.237061,0.432993 -0.101379,0.189216 -0.68261,1.054976 -0.848408,1.263729 -0.04217,0.05309 -0.04563,0.05226 -0.06465,-0.01563 z"
       id="path825"
       inkscape:connector-curvature="0" />
    <path
       style="fill:#98cbfe;stroke-width:0.03125"
       d="M 3.953125,14.190179 C 3.7342331,14.013367 3.2947325,13.563947 3.1865,13.40625 3.1452125,13.346094 3.0969067,13.28102 3.0791535,13.261642 3.0614003,13.242263 3.0257813,13.194837 3,13.15625 2.9742188,13.117663 2.9382841,13.070237 2.9201452,13.050858 2.8226013,12.946649 2.25,11.878212 2.25,11.800411 2.25,11.786471 2.230097,11.730761 2.20577,11.676598 2.1546481,11.56278 1.99721,11.094629 1.9256855,10.84375 1.8012993,10.407453 1.7174468,9.9442544 1.6513134,9.328125 1.6124732,8.9662719 1.6358446,7.3956309 1.6829338,7.203125 1.6997508,7.134375 1.7300999,6.9585938 1.7503762,6.8125 1.7706525,6.6664062 1.7990889,6.5046875 1.8135682,6.453125 1.8280475,6.4015625 1.8694587,6.2398438 1.905593,6.09375 1.9417273,5.9476562 1.9833586,5.8 1.9981069,5.765625 2.0128553,5.73125 2.0561754,5.6046875 2.094374,5.484375 2.132573,5.3640625 2.174351,5.2515625 2.187215,5.234375 2.200079,5.217187 2.228321,5.146875 2.249975,5.078125 2.2877734,4.9581191 2.5598444,4.3760062 2.5932118,4.34375 2.6152228,4.3224719 2.6879964,4.194785 2.7535066,4.0625 2.797992,3.9726706 2.9735948,3.7168103 3.0859442,3.578125 3.0998679,3.5609375 3.1500109,3.4956691 3.1973731,3.4330844 3.3580691,3.2207394 3.6953394,2.875669 3.9184125,2.6953698 4.0406294,2.5965877 4.1476562,2.5079607 4.15625,2.4984209 4.1648437,2.4888811 4.228125,2.4474042 4.296875,2.40625 4.365625,2.3650958 4.4289062,2.3226908 4.4375,2.3120166 4.4692634,2.2725636 5.0649972,1.9958184 5.2404497,1.9390103 5.6759369,1.798008 5.8541334,1.7690486 6.296875,1.7673266 6.7374597,1.7656132 6.9178837,1.7911226 7.3125,1.9109227 7.6847934,2.0239458 7.6839003,2.0211875 7.3951966,2.166291 7.2551822,2.2366628 7.1335937,2.3026062 7.125,2.3128319 7.1164062,2.3230576 7.053125,2.3650958 6.984375,2.40625 6.915625,2.4474042 6.8523437,2.4888811 6.84375,2.4984209 6.8351562,2.5079607 6.7270987,2.5974309 6.6036222,2.6972435 6.37026,2.8858825 6.0094156,3.2571425 5.8425741,3.4802588 5.58166,3.8291784 5.4375,4.0433934 5.4375,4.0821803 c 0,0.023551 -0.010728,0.04282 -0.02384,0.04282 -0.013112,0 -0.037721,0.027064 -0.054687,0.060142 C 5.1893166,4.51591 4.96875,4.9669709 4.96875,4.9831516 c 0,0.011152 -0.028893,0.086303 -0.064206,0.1670003 C 4.8692303,5.2308497 4.8283088,5.325 4.8136069,5.359375 4.7198134,5.5786791 4.5045413,6.3947678 4.4261722,6.828125 c -0.1790809,0.990265 -0.1698744,2.3614363 0.022241,3.3125 0.078238,0.387315 0.1174669,0.560745 0.144906,0.640625 0.01476,0.04297 0.063645,0.204688 0.108634,0.359375 0.044989,0.154688 0.095297,0.305668 0.1117972,0.335513 0.0165,0.02984 0.03,0.06991 0.03,0.08903 0,0.113822 0.6027369,1.293026 0.7573591,1.481709 0.014085,0.01719 0.1041993,0.136719 0.2002547,0.265625 0.2007984,0.269472 0.6853118,0.77311 0.8606443,0.894616 0.065583,0.04545 0.1192419,0.09478 0.1192419,0.109634 0,0.01485 -0.5941406,0.02652 -1.3203125,0.02594 l -1.3203125,-0.0011 -0.1875,-0.151454 z"
       id="path823"
       inkscape:connector-curvature="0" />
    <path
       style="fill:#003265;stroke-width:0.03125"
       d="M 3.671875,14.841849 C 3.4361425,14.649133 2.9309335,14.123328 2.8029488,13.9375 2.7496801,13.860156 2.6913656,13.779785 2.6733609,13.758897 2.6012931,13.675289 2.5730433,13.635496 2.5006574,13.515625 2.4591416,13.446875 2.4158825,13.383594 2.4045261,13.375 2.3538095,13.336621 1.97932,12.618126 1.8100172,12.234375 1.7296707,12.052258 1.5413194,11.510807 1.4295405,11.140625 1.2122075,10.420875 1.078125,9.3835372 1.078125,8.421875 c 0,-0.83266 0.08795,-1.6031247 0.2746779,-2.40625 C 1.4373232,5.6520994 1.6969817,4.8665284 1.8331112,4.5625 1.9588082,4.2817712 2.0893694,4.0257872 2.2260179,3.7921497 2.3079581,3.6520506 2.375,3.5231444 2.375,3.5056913 c 0,-0.017453 0.010547,-0.03642 0.023437,-0.04215 C 2.4113281,3.4578125 2.4779351,3.36875 2.5464531,3.265625 2.614971,3.1625 2.6783323,3.0710938 2.6872559,3.0625 2.6961795,3.0539062 2.7452947,2.990625 2.7964009,2.921875 2.9208891,2.7544088 3.0064716,2.6580199 3.265625,2.3934028 3.4938044,2.1604127 3.9813537,1.75 4.0299547,1.75 4.0453997,1.75 4.0766187,1.731925 4.0993307,1.709834 4.157745,1.6530167 4.42163,1.4980458 4.6305522,1.3978653 5.5458387,0.9589755 6.5790606,0.88857322 7.5174797,1.2011542 c 0.2704015,0.090069 0.4939209,0.1857083 0.6422265,0.2747959 0.079245,0.047602 0.1601041,0.08655 0.1796875,0.08655 0.019583,0 0.035621,0.010547 0.035638,0.023437 1.75e-5,0.012891 0.073846,0.064512 0.1640625,0.1147131 0.090217,0.050202 0.1710618,0.099897 0.1796556,0.1104347 0.00859,0.010537 0.085937,0.07469 0.171875,0.1425604 0.2300547,0.1816899 0.7310238,0.6877079 0.9161,0.9253326 l 0.1613044,0.2071033 -0.097296,0.019459 C 9.8172206,3.1162433 9.6424288,3.125 9.4823069,3.125 H 9.1911759 L 9.0542169,2.9921875 C 8.8534084,2.7974585 8.7223122,2.6842961 8.546875,2.5542494 8.4609375,2.4905463 8.3765625,2.426887 8.359375,2.4127844 8.3157572,2.3769954 7.973425,2.1826502 7.8427531,2.1194933 7.3112437,1.8626022 6.8830131,1.7650469 6.296875,1.7673266 5.8541334,1.7690486 5.6759369,1.798008 5.2404497,1.9390103 5.0649972,1.9958184 4.4692634,2.2725636 4.4375,2.3120166 4.4289062,2.3226908 4.365625,2.3650958 4.296875,2.40625 4.228125,2.4474042 4.1648437,2.4888811 4.15625,2.4984209 4.1476562,2.5079607 4.0406294,2.5965877 3.9184125,2.6953698 3.6953394,2.875669 3.3580691,3.2207394 3.1973731,3.4330844 3.1500109,3.4956691 3.0998679,3.5609375 3.0859442,3.578125 2.9735947,3.7168103 2.797992,3.9726706 2.7535066,4.0625 2.6879964,4.194785 2.6152228,4.3224719 2.5932118,4.34375 2.5598444,4.3760062 2.2877734,4.9581191 2.2499756,5.078125 c -0.021654,0.06875 -0.049896,0.1390625 -0.06276,0.15625 -0.012864,0.017188 -0.054643,0.1296875 -0.092841,0.25 C 2.0561754,5.6046875 2.0128553,5.73125 1.9981069,5.765625 1.9833586,5.8 1.9417273,5.9476562 1.905593,6.09375 1.8694587,6.2398438 1.8280475,6.4015625 1.8135682,6.453125 1.7990889,6.5046875 1.7706525,6.6664062 1.7503762,6.8125 c -0.020276,0.1460938 -0.050625,0.321875 -0.067442,0.390625 -0.047089,0.1925059 -0.070461,1.7631469 -0.03162,2.125 0.066133,0.6161294 0.1499859,1.079328 0.2743721,1.515625 0.071524,0.250879 0.2289626,0.71903 0.2800847,0.832848 0.024326,0.05416 0.04423,0.109876 0.04423,0.123813 0,0.0778 0.5726013,1.146238 0.6701452,1.250447 0.018139,0.01938 0.054074,0.06681 0.079855,0.105392 0.025781,0.03859 0.0614,0.08601 0.079153,0.105392 0.017753,0.01938 0.066035,0.08445 0.1072918,0.144608 0.1105047,0.161123 0.5836381,0.641578 0.7877434,0.799932 L 4.1515028,14.34375 H 5.480615 6.8097275 l -0.046095,0.132813 c -0.025352,0.07305 -0.083088,0.220703 -0.1283019,0.328125 L 6.5531237,15 5.2062494,14.9976 3.859375,14.9952 3.671875,14.841915 Z m 8.402127,-3.193181 -0.222874,-0.131448 -0.03578,-0.203922 C 11.795668,11.20114 11.760342,10.961719 11.736844,10.78125 11.699266,10.492644 11.588013,9.9803181 11.502725,9.703125 11.48686,9.6515625 11.464071,9.5601563 11.452081,9.5 11.440092,9.4398438 11.420223,9.3765625 11.407927,9.359375 11.395632,9.3421875 11.346799,9.2085938 11.299412,9.0625 11.252024,8.9164063 11.193395,8.7525622 11.169126,8.6984022 11.144857,8.6442422 11.125,8.5854578 11.125,8.56777 11.125,8.5364438 11.037224,8.3359956 10.828479,7.890625 10.772088,7.7703125 10.687167,7.5875 10.639764,7.484375 10.592361,7.38125 10.536313,7.2757812 10.515214,7.25 10.494114,7.2242187 10.441913,7.1398437 10.399211,7.0625 10.356508,6.9851562 10.256248,6.8146253 10.17641,6.6835425 10.096572,6.5524597 10.03125,6.4358503 10.03125,6.4244109 c 0,-0.011439 -0.01432,-0.037783 -0.031829,-0.058542 C 9.9263203,6.2791853 9.8565034,6.1891288 9.8125,6.1247609 9.7578481,6.0448166 9.4510634,5.6239959 9.4139941,5.578125 9.4001044,5.5609375 9.3469766,5.4910891 9.2959325,5.4229059 9.2448884,5.3547231 9.1820313,5.2766034 9.15625,5.2493066 8.9790141,5.0616522 8.4510616,4.4914353 8.4379497,4.4735031 8.4223266,4.4521372 8.1219078,4.1917488 7.7834916,3.90625 7.5158097,3.680425 7.4578719,3.6250847 7.4876244,3.6236469 7.5030247,3.6229031 7.5929688,3.5180428 7.6875,3.390625 7.7820313,3.2632072 7.8687756,3.1583475 7.8802653,3.1576031 7.8997791,3.1563375 8.0849397,3.3108034 8.234515,3.453125 8.2706422,3.4875 8.3767963,3.5785013 8.4704128,3.6553503 c 0.198371,0.1628403 0.4190916,0.3829019 0.6389622,0.637055 0.2088741,0.2414413 0.2555981,0.2941959 0.4305156,0.4860785 0.082096,0.090059 0.1731775,0.2013512 0.2024032,0.2473171 0.029226,0.045966 0.060683,0.090605 0.069906,0.099199 0.00922,0.00859 0.072829,0.099761 0.1413469,0.2025928 0.1380623,0.2072047 0.1461893,0.2184881 0.2345323,0.3256263 0.03406,0.041302 0.06192,0.084853 0.06192,0.096781 0,0.011928 0.02461,0.050652 0.05469,0.086054 0.116786,0.1374571 0.222346,0.3080534 0.372158,0.6014462 0.04827,0.094531 0.125268,0.2369256 0.171109,0.3164322 0.196934,0.3415619 0.27482,0.4923775 0.353015,0.6835678 0.04569,0.1117187 0.09574,0.23125 0.111222,0.265625 0.01548,0.034375 0.05781,0.1328125 0.09406,0.21875 0.03625,0.085937 0.07844,0.184375 0.09375,0.21875 0.125656,0.2821197 0.15625,0.3640278 0.15625,0.4183163 0,0.034303 0.01247,0.070076 0.02771,0.079494 0.01524,0.00942 0.0376,0.070014 0.04969,0.1346566 0.01209,0.064643 0.06127,0.2370641 0.109287,0.3831578 0.110802,0.3371225 0.176422,0.57557 0.202099,0.734375 0.02311,0.1429511 0.101318,0.5100981 0.143113,0.6718751 0.01554,0.06016 0.04967,0.327344 0.07585,0.59375 0.02618,0.266406 0.05647,0.516016 0.06732,0.554688 0.02691,0.09594 -1.88e-4,0.08938 -0.257315,-0.06227 z"
       id="path821"
       inkscape:connector-curvature="0" />
    <path
       style="fill:#323232;stroke-width:0.03125"
       d="M 3.6657794,15.468411 C 3.4597691,15.38544 2.6853176,14.643641 2.360813,14.218465 1.6548111,13.293438 1.0762763,12.016134 0.81813538,10.8125 0.63617791,9.9640869 0.578125,9.3858506 0.578125,8.421875 c 0,-1.41948 0.17769997,-2.4488234 0.6393221,-3.7033319 C 1.3525272,4.3514481 1.5860177,3.84176 1.7066368,3.6506869 1.7485731,3.5842556 1.825105,3.4493466 1.8767078,3.3508887 2.1476483,2.8339373 2.7573512,2.1084562 3.3089581,1.6466646 3.9392653,1.1189869 4.5353816,0.81224938 5.34375,0.59964206 5.640195,0.52167472 5.6431925,0.52154241 7.4126612,0.50831975 9.2674,0.49445991 9.6546409,0.511146 10.067968,0.62273569 c 0.397975,0.10744472 0.844767,0.27861934 1.026214,0.39316211 0.06783,0.042819 0.133123,0.077852 0.145097,0.077852 0.03345,0 0.342262,0.2125377 0.620096,0.42677 0.226682,0.1747896 0.812829,0.7511157 1.020618,1.0035168 L 12.963111,2.625 h 0.891906 c 0.99061,0 1.157318,0.020364 1.317414,0.1609299 0.138603,0.1216957 0.159698,0.2036614 0.199855,0.7765701 0.07921,1.1300906 0.03855,2.1144269 -0.121357,2.9375 -0.181798,0.9357744 -0.153389,0.822465 -0.415259,1.65625 -0.34306,1.0922922 -0.958893,2.356554 -1.607074,3.299207 -0.534194,0.776882 -0.617808,0.847903 -0.964418,0.819159 -0.19225,-0.01594 -0.619585,-0.240957 -0.783338,-0.412469 C 11.371306,11.747423 11.312448,11.524421 11.249165,10.984375 11.203188,10.592009 10.988907,9.7396763 10.797423,9.1875 10.572452,8.5387619 10.207271,7.7604769 9.8370044,7.140625 9.4877131,6.5558875 9.4697381,6.5291559 9.0270716,5.9361247 8.7069306,5.5072381 8.0860688,4.8335203 7.7728466,4.5751228 7.2799725,4.1685191 7.0531297,3.9539569 7.0119628,3.85543 6.9620213,3.7359031 6.9560413,3.5687453 6.9977794,3.4589656 7.0493844,3.3232347 7.5393534,2.7415123 7.6313044,2.7068047 7.7213981,2.6727981 7.7492862,2.625 7.6790341,2.625 7.6077094,2.625 7.177515,2.8966568 6.9199466,3.1043445 6.6754944,3.3014559 6.3098331,3.6983925 6.1381369,3.9530228 6.0918172,4.0217166 6.0206934,4.1214812 5.9800844,4.1747225 5.9394756,4.2279634 5.90625,4.2845109 5.90625,4.3003831 c 0,0.015872 -0.037305,0.083757 -0.0829,0.1508563 C 5.6310128,4.7342897 5.3458075,5.38264 5.1833006,5.90625 c -0.4532912,1.4605394 -0.508355,2.9552775 -0.1634703,4.4375 0.3513241,1.509898 1.0476372,2.717595 2.0250838,3.512339 0.1653443,0.134439 0.2658487,0.318954 0.2668996,0.49 0.0012,0.195969 -0.2512493,0.849639 -0.3837221,0.993561 -0.1463013,0.158945 -0.1632482,0.160494 -1.7317754,0.158369 -0.8040678,-0.0011 -1.4928093,-0.01441 -1.5305368,-0.02961 z M 6.6353306,14.804688 C 6.6805444,14.697266 6.7387697,14.548223 6.76472,14.473481 L 6.811902,14.337586 6.7106385,14.254726 C 6.4777556,14.064182 5.9621134,13.530327 5.8005525,13.3125 5.7049434,13.183594 5.6151938,13.064063 5.6011091,13.046875 5.4464869,12.858192 4.84375,11.678988 4.84375,11.565166 c 0,-0.01912 -0.0135,-0.05918 -0.03,-0.08903 C 4.79725,11.446296 4.746941,11.295311 4.7019528,11.140623 4.6569644,10.985938 4.6085119,10.824219 4.5942806,10.78125 4.5630738,10.687026 4.4902278,10.356313 4.4256372,10.015625 4.2535559,9.1079716 4.2537184,7.7782291 4.4260278,6.828125 4.5048109,6.3937153 4.7200028,5.5782375 4.8136075,5.359375 4.8283094,5.325 4.8692309,5.2308497 4.9045444,5.1501519 4.9398574,5.0694539 4.9687504,4.9943041 4.9687504,4.9831516 4.9687504,4.9669706 5.189317,4.51591 5.3589732,4.1851419 5.3759397,4.1520638 5.4005491,4.125 5.4136609,4.125 c 0.013112,0 0.02384,-0.019269 0.02384,-0.04282 0,-0.038787 0.14416,-0.2530019 0.4050741,-0.6019215 0.1668412,-0.223116 0.5276856,-0.594376 0.7610478,-0.783015 0.1234766,-0.099813 0.2315341,-0.1892828 0.2401278,-0.1988226 0.00859,-0.00954 0.071875,-0.051017 0.140625,-0.092171 0.06875,-0.041154 0.1320313,-0.083015 0.140625,-0.093023 0.011912,-0.013873 0.4268741,-0.2246937 0.5335847,-0.2710863 0.030606,-0.013306 0.6344819,0.3062287 0.6851653,0.3625479 0.00859,0.00955 0.071875,0.055734 0.140625,0.1026315 0.06875,0.046898 0.1671875,0.1217662 0.21875,0.1663739 C 8.9755444,2.9093691 9.15625,3.0798126 9.15625,3.101086 9.15625,3.1142387 8.9261816,3.125 8.6449866,3.125 7.87362,3.125 7.8922069,3.1197985 7.6875,3.3929509 7.5929687,3.5190894 7.5030247,3.6229025 7.4876244,3.6236469 c -0.029752,0.00144 0.028185,0.056778 0.2958672,0.2826031 0.3384162,0.2854988 0.638835,0.5458872 0.6544581,0.5672531 0.013112,0.017932 0.5410644,0.5881491 0.7183003,0.7758035 0.025781,0.027297 0.088638,0.1054165 0.1396825,0.1735993 0.051044,0.068183 0.1041719,0.1380316 0.1180616,0.1552191 0.037069,0.045871 0.343854,0.4666916 0.3985059,0.5466359 0.044003,0.064368 0.1138203,0.1544244 0.1869206,0.2411075 0.017506,0.020759 0.031829,0.047103 0.031829,0.058542 0,0.011439 0.06532,0.1280488 0.14516,0.2591316 0.07984,0.1310828 0.180098,0.3016138 0.222801,0.3789575 0.0427,0.077344 0.0949,0.1617188 0.116003,0.1875 0.0211,0.025781 0.07715,0.13125 0.12455,0.234375 0.0474,0.103125 0.132324,0.2859375 0.188715,0.40625 0.208745,0.4453706 0.296521,0.6458188 0.296521,0.677145 0,0.017688 0.01986,0.076472 0.04413,0.1306322 0.02427,0.05416 0.0829,0.2180041 0.130286,0.3640978 0.04739,0.1460938 0.09622,0.2796875 0.108515,0.296875 0.0123,0.017188 0.03216,0.080469 0.04415,0.140625 0.01199,0.060156 0.03478,0.1515625 0.05064,0.203125 0.08529,0.2771931 0.196541,0.7895195 0.234119,1.0781255 0.0235,0.180469 0.05885,0.420016 0.07856,0.532327 l 0.03583,0.204203 0.225946,0.131735 c 0.12427,0.07245 0.239013,0.131735 0.254985,0.131735 0.01597,0 0.04668,-0.02461 0.06823,-0.05469 0.36177,-0.504768 0.747164,-1.080945 0.844342,-1.26232 0.06774,-0.126427 0.174416,-0.321274 0.237061,-0.432993 0.100591,-0.1793902 0.253466,-0.4896067 0.331102,-0.6718755 0.01464,-0.034375 0.04765,-0.1117187 0.07335,-0.171875 0.0257,-0.060156 0.07664,-0.1796875 0.113195,-0.265625 0.03655,-0.085937 0.07899,-0.184375 0.0943,-0.21875 C 14.210299,8.4414513 14.25,8.3429116 14.25,8.3153066 c 0,-0.01753 0.0195,-0.092129 0.04333,-0.1657769 0.251732,-0.7779334 0.288748,-0.9067775 0.348203,-1.2120297 0.02511,-0.1289062 0.07433,-0.3820312 0.109396,-0.5625 0.152859,-0.7868153 0.192124,-1.6840866 0.11849,-2.7077109 l -0.0363,-0.5045863 -0.111874,-0.018508 C 14.659718,3.1340163 14.235166,3.1255331 13.777799,3.1253441 12.649233,3.1248772 12.692546,3.1331959 12.49235,2.8784588 12.170431,2.4688383 11.544959,1.8906191 11.203125,1.6866305 11.134375,1.6456042 11.073438,1.6008913 11.067708,1.5872686 11.061979,1.5736459 11.042441,1.5625 11.02429,1.5625 11.00614,1.5625 10.92645,1.523553 10.847206,1.47595 10.635056,1.3485107 10.255371,1.2030662 9.8787647,1.1049728 9.5245431,1.0127098 9.0654819,0.99473125 7.4112878,1.0083371 5.6076094,1.0231725 5.622985,1.0217038 5.0211772,1.2366424 4.6817706,1.3578631 4.2147094,1.5976097 4.0993303,1.7098343 4.0766184,1.7319254 4.0453994,1.75 4.0299547,1.75 3.9813537,1.75 3.4938044,2.1604127 3.265625,2.3934028 3.0064716,2.6580199 2.9208891,2.7544088 2.7964009,2.921875 2.7452947,2.990625 2.6961795,3.0539062 2.6872559,3.0625 2.6783323,3.0710938 2.614971,3.1625 2.5464531,3.265625 2.4779351,3.36875 2.4113281,3.4578125 2.3984375,3.4635416 2.3855469,3.4692709 2.375,3.4882381 2.375,3.5056913 2.375,3.5231444 2.3079581,3.6520506 2.2260179,3.7921497 1.9197477,4.3158016 1.7022636,4.8290734 1.4825036,5.546875 1.2174229,6.4127078 1.078125,7.40307 1.078125,8.421875 c 0,1.2919303 0.1788576,2.319 0.6067813,3.484375 0.1149035,0.312919 0.1104153,0.302489 0.3025566,0.703125 0.155511,0.324258 0.3811251,0.73843 0.4170632,0.765625 0.011356,0.0086 0.054616,0.07188 0.096131,0.140625 0.072386,0.119871 0.1006357,0.159664 0.1727035,0.243272 0.018005,0.02089 0.076319,0.101259 0.1295879,0.178603 0.1279847,0.185828 0.6331937,0.711633 0.8689262,0.904349 l 0.1875,0.153285 1.3468744,0.0024 1.3468744,0.0024 0.082207,-0.195313 z"
       id="path819"
       inkscape:connector-curvature="0" />
  </g>
</svg>
