<?xml version="1.0" encoding="UTF-8" standalone="no"?>
<!-- Created with Inkscape (http://www.inkscape.org/) -->

<svg
   xmlns:dc="http://purl.org/dc/elements/1.1/"
   xmlns:cc="http://creativecommons.org/ns#"
   xmlns:rdf="http://www.w3.org/1999/02/22-rdf-syntax-ns#"
   xmlns:svg="http://www.w3.org/2000/svg"
   xmlns="http://www.w3.org/2000/svg"
   xmlns:sodipodi="http://sodipodi.sourceforge.net/DTD/sodipodi-0.dtd"
   xmlns:inkscape="http://www.inkscape.org/namespaces/inkscape"
   version="1.1"
   id="svg2"
   width="16"
   height="16"
   viewBox="0 0 16 16"
   sodipodi:docname="REPEAT.svg"
   inkscape:version="0.92.4 (5da689c313, 2019-01-14)">
  <metadata
     id="metadata8">
    <rdf:RDF>
      <cc:Work
         rdf:about="">
        <dc:format>image/svg+xml</dc:format>
        <dc:type
           rdf:resource="http://purl.org/dc/dcmitype/StillImage" />
        <dc:title />
      </cc:Work>
    </rdf:RDF>
  </metadata>
  <defs
     id="defs6" />
  <sodipodi:namedview
     pagecolor="#ffffff"
     bordercolor="#666666"
     borderopacity="1"
     objecttolerance="10"
     gridtolerance="10"
     guidetolerance="10"
     inkscape:pageopacity="0"
     inkscape:pageshadow="2"
     inkscape:window-width="828"
     inkscape:window-height="597"
     id="namedview4"
     showgrid="false"
     inkscape:zoom="14.75"
     inkscape:cx="-6.8135593"
     inkscape:cy="8"
     inkscape:window-x="0"
     inkscape:window-y="0"
     inkscape:window-maximized="0"
     inkscape:current-layer="svg2" />
  <g
     id="REPEAT">
    <path
       style="fill:#ffffff;stroke-width:0.03125"
       d="M 0,8 V 0 h 8 8 v 8 8 H 8 0 Z m 10.56932,6.579525 c 0.193905,-0.07657 0.528336,-0.211447 0.74318,-0.299719 0.214844,-0.08827 0.460938,-0.186336 0.546875,-0.21792 0.08594,-0.03158 0.332031,-0.130022 0.546875,-0.21875 0.214844,-0.08873 0.460938,-0.187048 0.546875,-0.218487 0.08594,-0.03144 0.296875,-0.116024 0.46875,-0.187966 0.171875,-0.07194 0.432031,-0.176517 0.578125,-0.232388 0.146094,-0.05587 0.455469,-0.179131 0.6875,-0.27391 0.232031,-0.09478 0.471704,-0.188334 0.532607,-0.207898 0.127546,-0.04097 0.416991,-0.321367 0.465646,-0.451084 0.04659,-0.124213 0.04099,-0.473261 -0.0095,-0.592719 C 15.631173,11.572087 15.309995,11.25 15.248764,11.25 c -0.03531,0 -0.448892,-0.159657 -0.889389,-0.343334 C 14.239062,10.856499 13.964844,10.745952 13.75,10.661006 12.901801,10.325642 12.379435,10.117012 12.140625,10.018233 12.003125,9.9613588 11.813281,9.8850344 11.71875,9.8486228 11.624219,9.8122116 11.335938,9.6966269 11.078125,9.5917678 10.356642,9.2983219 10.201083,9.25 9.9778978,9.25 9.8686375,9.25 9.7339913,9.2694878 9.6786837,9.2933059 9.5547853,9.3466634 9.3277066,9.5785762 9.2830653,9.6973469 9.2640731,9.7478766 9.25,10.037162 9.25,10.377034 V 10.96875 H 6.125 3 V 9.4111422 C 3,7.5823625 3.0051246,7.6178756 2.6961587,7.30553 2.4077493,7.0139656 2.0317523,6.9279769 1.6377047,7.0634656 1.3768077,7.1531722 1.1191602,7.4104966 1.0320924,7.6683184 0.97092506,7.849445 0.96875,7.9289737 0.96875,9.984375 c 0,2.055401 0.002175,2.13493 0.0633424,2.316057 0.094205,0.278955 0.34271,0.515088 0.6532244,0.620701 L 1.917197,13 H 5.5835984 9.25 v 0.576091 c 0,0.328412 0.0142,0.613912 0.033028,0.664062 0.042935,0.11436 0.30004,0.379956 0.4200969,0.433971 0.051562,0.0232 0.1882253,0.04273 0.3036951,0.0434 0.17663,0.001 0.265892,-0.02087 0.5625,-0.138002 z m 3.793612,-5.6428675 c 0.257821,-0.087068 0.515146,-0.3447153 0.604852,-0.6056122 0.06136,-0.1784587 0.06347,-0.2552012 0.06347,-2.3142447 0,-2.0565822 -0.0022,-2.1361015 -0.06334,-2.3172322 -0.0942,-0.2789559 -0.34271,-0.5150881 -0.653225,-0.6207008 L 14.082803,3 H 10.416402 6.75 V 2.4239094 C 6.75,2.0954967 6.7358003,1.8099971 6.7169719,1.7598469 6.6724547,1.6412728 6.4144656,1.378249 6.2900662,1.3246096 6.2347587,1.3007618 6.0980959,1.28125 5.9863709,1.28125 5.7726359,1.28125 5.6780009,1.3132313 4.6875,1.7201944 4.4726562,1.8084664 4.2265625,1.9065303 4.140625,1.9381143 4.0546875,1.9696982 3.8085938,2.0681358 3.59375,2.1568643 3.3789063,2.2455928 3.1328125,2.3439121 3.046875,2.3753514 2.9609375,2.4067908 2.75,2.4913754 2.578125,2.5633173 2.40625,2.6352592 2.1460938,2.7398337 2,2.795705 1.8539063,2.8515763 1.5445312,2.9748359 1.3125,3.0696153 1.0804688,3.1643947 0.84079569,3.2579488 0.77989322,3.2775134 0.65234647,3.3184875 0.36290181,3.59888 0.31424694,3.7285969 0.26765647,3.85281 0.27326011,4.2018581 0.32376247,4.3213162 0.36863359,4.4274541 0.68989422,4.75 0.75073806,4.75 0.77038922,4.75 0.99974662,4.8362294 1.2604212,4.9416209 1.5210958,5.0470125 1.8328125,5.1714647 1.953125,5.2181812 2.0734375,5.2648981 2.3195312,5.3631375 2.5,5.4364916 c 0.1804688,0.073354 0.5039063,0.2026293 0.71875,0.287279 0.2148438,0.084649 0.503125,0.2005947 0.640625,0.2576563 0.1375,0.057061 0.3273437,0.1335387 0.421875,0.1699503 0.094531,0.036411 0.3828125,0.1519959 0.640625,0.256855 C 5.6406456,6.700575 5.7993169,6.75 6.0190641,6.75 6.26802,6.75 6.3582212,6.7149937 6.5270066,6.5528722 6.73864,6.3495938 6.75,6.3023762 6.75,5.6260037 V 5.03125 H 9.875 13 v 1.5564322 c 0,1.8340247 -0.0047,1.8015431 0.305752,2.108765 0.293226,0.2901666 0.661479,0.3738403 1.05718,0.2402103 z"
       id="path825"
       inkscape:connector-curvature="0" />
    <path
       style="fill:#cbfefe;stroke-width:0.03125"
       d="M 9.8339716,14.131103 9.75,14.043455 V 13.271728 12.5 H 5.8961919 C 2.4172096,12.5 2.027405,12.495 1.8883793,12.44904 1.696877,12.385681 1.5509726,12.251558 1.5043825,12.096054 1.4543132,11.928938 1.454136,8.0218788 1.5041918,7.8718506 1.5904846,7.6132081 1.870466,7.4586816 2.1182756,7.5329272 2.2676769,7.5776888 2.4142938,7.7211891 2.4645601,7.8718506 2.4892893,7.9459734 2.5,8.5055416 2.5,9.7234131 V 11.46875 H 6.125 9.75 v -0.791428 c 0,-0.7868645 4.156e-4,-0.7918192 0.072327,-0.8593748 0.085302,-0.080137 0.182078,-0.085457 0.369056,-0.020288 0.121874,0.042477 0.191458,0.071089 0.417992,0.1718731 0.03438,0.015293 0.23125,0.092684 0.4375,0.1719817 0.20625,0.0793 0.419313,0.16427 0.473473,0.18883 0.05416,0.02456 0.107666,0.04466 0.118902,0.04466 0.01124,0 0.08645,0.02914 0.167152,0.06476 0.262463,0.115843 0.331233,0.143776 0.537348,0.218266 0.111719,0.04038 0.238281,0.09156 0.28125,0.113749 0.04297,0.02219 0.08944,0.04043 0.103277,0.04053 0.02175,1.56e-4 0.132569,0.04567 0.381098,0.15647 0.03438,0.01532 0.23125,0.09275 0.4375,0.172049 0.337475,0.129754 0.45273,0.176446 0.65625,0.265859 0.140282,0.06163 0.796356,0.312065 0.817527,0.312065 0.01254,0 0.06225,0.03779 0.110451,0.08397 0.05943,0.05694 0.08765,0.115422 0.08765,0.181653 0,0.09108 -0.13127,0.265625 -0.199769,0.265625 -0.01346,0 -0.188472,0.06413 -0.388915,0.142505 -0.328699,0.128528 -0.448348,0.177482 -0.645691,0.26418 -0.03438,0.0151 -0.23125,0.09234 -0.4375,0.171641 -0.340678,0.130987 -0.472566,0.184487 -0.65625,0.266207 -0.03438,0.01529 -0.23125,0.09268 -0.4375,0.171981 -0.34357,0.132091 -0.48458,0.189144 -0.65625,0.265519 -0.03438,0.01529 -0.23125,0.09244 -0.4375,0.17144 -0.20625,0.079 -0.403125,0.156174 -0.4375,0.1715 -0.239451,0.106756 -0.358716,0.156277 -0.376375,0.156277 -0.01124,0 -0.06474,0.02022 -0.118902,0.04492 -0.376695,0.171844 -0.4721382,0.180692 -0.592626,0.05493 z"
       id="path823"
       inkscape:connector-curvature="0" />
    <path
       style="fill:#98cbfe;stroke-width:0.03125"
       d="M 13.859375,8.4624462 C 13.722541,8.4148362 13.576476,8.2636281 13.535633,8.1273044 13.510808,8.0444475 13.5,7.4810356 13.5,6.2698119 V 4.53125 H 9.875 6.25 v 0.7914278 c 0,0.7868647 -4.156e-4,0.7918194 -0.072327,0.859375 C 6.092371,6.2621898 5.9955949,6.2675098 5.8086162,6.2023408 5.6867431,6.1598628 5.6171594,6.1312509 5.390625,6.0304672 5.35625,6.0151741 5.159375,5.9377825 4.953125,5.8584863 4.746875,5.7791897 4.5338122,5.6942159 4.4796522,5.6696556 4.4254922,5.645095 4.3719862,5.625 4.3607503,5.625 4.3495141,5.625 4.2742956,5.5958587 4.1935981,5.5602416 3.9275706,5.4428259 3.8614416,5.4161191 3.65625,5.3432275 3.5445312,5.3035409 3.4390625,5.2610191 3.421875,5.2487347 3.4046875,5.2364503 3.3554687,5.2159712 3.3125,5.2032262 3.2438309,5.1828578 3.0907133,5.1204297 2.890625,5.0312225 2.85625,5.0158966 2.659375,4.938475 2.453125,4.8591741 2.1156497,4.7294187 2.0003948,4.6827269 1.796875,4.5933153 1.6439383,4.5261262 0.99954422,4.28125 0.97567228,4.28125 0.91306694,4.28125 0.78125,4.1011581 0.78125,4.015625 0.78125,3.9289609 0.91336463,3.75 0.97734291,3.75 0.99282525,3.75 1.1694912,3.6858728 1.3699338,3.6074953 1.6986327,3.4789669 1.8182819,3.4300131 2.015625,3.3433153 2.05,3.3282134 2.246875,3.250975 2.453125,3.1716741 2.7938025,3.0406874 2.925691,2.987187 3.109375,2.9054673 3.14375,2.8901741 3.340625,2.8127826 3.546875,2.7334862 3.8904447,2.6013949 4.0314553,2.5443419 4.203125,2.4679673 4.2375,2.4526741 4.434375,2.375526 4.640625,2.296527 4.846875,2.2175281 5.04375,2.1403534 5.078125,2.1250276 5.3175756,2.018271 5.4368406,1.96875 5.4545003,1.96875 c 0.011236,0 0.064742,-0.020215 0.1189019,-0.044923 C 5.9500969,1.7519816 6.0455406,1.743135 6.1660284,1.868897 L 6.25,1.9565449 V 2.7282725 3.5 h 3.853808 c 3.478982,0 3.868787,0.00496 4.007813,0.050956 0.191502,0.063363 0.337407,0.197486 0.383997,0.3529897 0.05007,0.1671163 0.05025,4.0741756 1.87e-4,4.2242038 -0.04924,0.1475809 -0.196008,0.2938997 -0.337255,0.3362181 -0.139672,0.041847 -0.174022,0.041626 -0.299179,-0.00192 z"
       id="path821"
       inkscape:connector-curvature="0" />
    <path
       style="fill:#323232;stroke-width:0.03125"
       d="M 9.703125,14.674124 C 9.5830681,14.620109 9.3259631,14.354513 9.2830281,14.240153 9.2641997,14.190003 9.25,13.904503 9.25,13.576091 V 13 H 5.5835984 1.917197 L 1.6853168,12.921133 C 1.3748024,12.81552 1.1262973,12.579387 1.0320924,12.300432 0.97092506,12.119305 0.96875,12.039776 0.96875,9.984375 0.96875,7.9289737 0.970925,7.849445 1.0320924,7.6683184 1.1191602,7.4104966 1.3768077,7.1531722 1.6377047,7.0634656 2.0317523,6.9279769 2.4077493,7.0139656 2.6961587,7.30553 3.0051246,7.6178756 3,7.5823625 3,9.4111422 V 10.96875 H 6.125 9.25 V 10.377034 C 9.25,10.037162 9.264073,9.7478766 9.283065,9.6973469 9.327706,9.5785763 9.554785,9.3466634 9.6786834,9.2933059 9.7339912,9.2694878 9.8686375,9.25 9.9778978,9.25 c 0.2231852,0 0.3787442,0.048322 1.1002272,0.3417678 0.257813,0.1048591 0.546094,0.2204438 0.640625,0.256855 0.09453,0.036412 0.284375,0.112736 0.421875,0.1696102 0.23881,0.09878 0.761176,0.307409 1.609375,0.642773 0.214844,0.08495 0.489062,0.195493 0.609375,0.24566 0.440497,0.183677 0.85408,0.343334 0.889389,0.343334 0.06123,0 0.382409,0.322087 0.427473,0.428684 0.0505,0.119458 0.05611,0.468506 0.0095,0.592719 -0.04866,0.129717 -0.3381,0.410109 -0.465646,0.451084 -0.0609,0.01956 -0.300576,0.113118 -0.532607,0.207898 -0.232031,0.09478 -0.541406,0.218039 -0.6875,0.27391 -0.146094,0.05587 -0.40625,0.160446 -0.578125,0.232388 -0.171875,0.07194 -0.382813,0.156526 -0.46875,0.187966 -0.08594,0.03144 -0.332031,0.129758 -0.546875,0.218487 -0.214844,0.08873 -0.460938,0.187166 -0.546875,0.21875 -0.08594,0.03158 -0.332031,0.129647 -0.546875,0.21792 -1.002557,0.411916 -1.083393,0.439016 -1.30568,0.437721 -0.1154697,-6.72e-4 -0.2521325,-0.0202 -0.303695,-0.0434 z m 0.503996,-0.504201 c 0.06655,-0.02686 0.165317,-0.06904 0.219477,-0.09375 0.05416,-0.02471 0.107666,-0.04492 0.118902,-0.04492 0.01766,0 0.136924,-0.04952 0.376375,-0.156277 0.03438,-0.01533 0.23125,-0.0925 0.4375,-0.1715 0.20625,-0.079 0.403125,-0.156147 0.4375,-0.17144 0.17167,-0.07638 0.31268,-0.133428 0.65625,-0.265519 0.20625,-0.0793 0.403125,-0.156688 0.4375,-0.171981 0.183684,-0.08172 0.315573,-0.135221 0.65625,-0.266207 0.20625,-0.0793 0.403125,-0.156539 0.4375,-0.171641 0.197343,-0.0867 0.316992,-0.135652 0.645691,-0.26418 0.200443,-0.07838 0.375455,-0.142505 0.388915,-0.142505 0.0685,0 0.199769,-0.174544 0.199769,-0.265625 0,-0.06623 -0.02822,-0.124718 -0.08765,-0.181653 -0.04821,-0.04618 -0.09791,-0.08397 -0.110451,-0.08397 -0.02117,0 -0.677245,-0.250436 -0.817527,-0.312065 -0.20352,-0.08941 -0.318775,-0.136104 -0.65625,-0.265859 -0.20625,-0.0793 -0.403125,-0.156723 -0.4375,-0.172048 -0.248529,-0.110805 -0.359347,-0.156304 -0.381098,-0.156471 -0.01383,-9.3e-5 -0.06031,-0.01835 -0.103277,-0.04053 -0.04297,-0.02219 -0.169531,-0.07338 -0.28125,-0.11375 -0.206115,-0.07449 -0.274885,-0.102423 -0.537348,-0.218266 -0.0807,-0.03562 -0.155916,-0.06476 -0.167152,-0.06476 -0.01124,0 -0.06474,-0.02009 -0.118902,-0.04466 -0.05416,-0.02456 -0.267223,-0.109534 -0.473473,-0.18883 -0.20625,-0.0793 -0.403125,-0.1566881 -0.4375,-0.1719812 C 10.382841,9.8687491 10.313257,9.8401372 10.191383,9.7976597 10.004405,9.7324903 9.9076284,9.7378103 9.8223266,9.8179472 9.7504169,9.8855028 9.75,9.8904575 9.75,10.677322 V 11.46875 H 6.125 2.5 V 9.7234131 C 2.5,8.5055416 2.4892893,7.9459734 2.4645591,7.8718506 2.4142928,7.7211891 2.2676759,7.5776887 2.1182746,7.5329272 1.870465,7.4586816 1.5904837,7.6132081 1.5041909,7.8718506 c -0.050055,0.1500282 -0.049878,4.0570874 1.906e-4,4.2242034 0.04659,0.155504 0.1924945,0.289627 0.3839969,0.35299 C 2.027405,12.495044 2.4172096,12.5 5.8961919,12.5 H 9.75 v 0.771728 0.771727 l 0.083972,0.08765 c 0.0964,0.100619 0.194664,0.110842 0.373149,0.03882 z M 13.656472,8.9345397 C 13.408397,8.8465353 13.147743,8.5816063 13.063342,8.3316816 13.003078,8.1532278 13,8.0684903 13,6.5876822 V 5.03125 H 9.875 6.75 v 0.5947537 c 0,0.6763725 -0.01136,0.72359 -0.2229934,0.9268685 C 6.3582212,6.7149937 6.26802,6.75 6.0190641,6.75 5.7993169,6.75 5.6406456,6.700575 4.921875,6.4082322 4.6640625,6.3033731 4.3757812,6.1877884 4.28125,6.1513772 4.1867187,6.1149656 3.996875,6.0384881 3.859375,5.9814269 3.721875,5.9243653 3.4335938,5.80842 3.21875,5.7237706 3.0039063,5.6391209 2.6804688,5.5098453 2.5,5.4364916 2.3195312,5.3631375 2.0734375,5.2648981 1.953125,5.2181812 1.8328125,5.1714647 1.5210958,5.0470125 1.2604212,4.9416209 0.99974662,4.8362294 0.77038922,4.75 0.75073806,4.75 0.68989422,4.75 0.36863359,4.4274541 0.32376247,4.3213162 0.27326011,4.2018581 0.26765648,3.85281 0.31424694,3.7285969 0.36290181,3.59888 0.65234647,3.3184875 0.77989322,3.2775134 0.84079569,3.2579488 1.0804688,3.1643947 1.3125,3.0696153 1.5445312,2.9748359 1.8539063,2.8515763 2,2.795705 2.1460938,2.7398337 2.40625,2.6352592 2.578125,2.5633173 2.75,2.4913754 2.9609375,2.4067908 3.046875,2.3753514 3.1328125,2.3439121 3.3789063,2.2455928 3.59375,2.1568643 3.8085938,2.0681357 4.0546875,1.9696982 4.140625,1.9381143 4.2265625,1.9065303 4.4726562,1.8084664 4.6875,1.7201944 5.6780009,1.3132313 5.7726359,1.28125 5.9863709,1.28125 c 0.111725,0 0.2483878,0.019512 0.3036954,0.04336 C 6.4144656,1.378249 6.6724547,1.6412728 6.7169719,1.7598469 6.7358003,1.8099971 6.75,2.0954967 6.75,2.4239094 V 3 h 3.666402 3.666401 l 0.23188,0.078868 c 0.310514,0.1056127 0.55902,0.3417449 0.653224,0.6207008 0.06117,0.1811307 0.06334,0.26065 0.06334,2.3172322 0,2.0590435 -0.0021,2.135786 -0.06347,2.3142447 -0.08971,0.2608969 -0.347031,0.5185444 -0.604852,0.6056122 -0.232789,0.078614 -0.480983,0.07787 -0.70646,-0.00212 z m 0.502082,-0.4701722 c 0.141247,-0.042318 0.288017,-0.1886372 0.337255,-0.3362181 0.05006,-0.1500282 0.04988,-4.0570875 -1.87e-4,-4.2242038 C 14.449032,3.7484419 14.303127,3.6143187 14.111625,3.5509559 13.972595,3.5049559 13.58279,3.5 10.103808,3.5 H 6.25 V 2.7282725 1.9565449 L 6.1660284,1.8688975 C 6.0455406,1.7431354 5.9500969,1.751982 5.5734022,1.9238274 5.5192422,1.9485348 5.4657362,1.96875 5.4545003,1.96875 c -0.01766,0 -0.1369247,0.049521 -0.3763753,0.1562776 -0.034375,0.015326 -0.23125,0.0925 -0.4375,0.1714994 C 4.434375,2.375526 4.2375,2.4526741 4.203125,2.4679673 4.0314553,2.5443419 3.8904447,2.6013949 3.546875,2.7334862 3.340625,2.8127826 3.14375,2.8901741 3.109375,2.9054673 2.925691,2.987187 2.7938025,3.0406874 2.453125,3.1716741 2.246875,3.250975 2.05,3.3282134 2.015625,3.3433153 1.8182819,3.4300131 1.6986327,3.4789669 1.3699338,3.6074953 1.1694912,3.6858728 0.99282525,3.75 0.97734291,3.75 0.91336463,3.75 0.78125,3.9289609 0.78125,4.015625 c 0,0.085533 0.13181694,0.265625 0.19442228,0.265625 0.0238719,0 0.66826602,0.2448762 0.82120272,0.3120653 0.2035198,0.089412 0.3187748,0.1361034 0.65625,0.2658588 0.20625,0.079301 0.403125,0.1567225 0.4375,0.1720484 0.2000883,0.089207 0.3532059,0.1516353 0.421875,0.1720037 0.042969,0.012745 0.092188,0.033224 0.109375,0.045509 0.017187,0.012284 0.1226563,0.054806 0.234375,0.094493 0.2051916,0.072892 0.2713206,0.099598 0.5373481,0.2170141 0.080698,0.035617 0.155916,0.064758 0.1671522,0.064758 0.011236,0 0.064742,0.020095 0.1189019,0.044656 0.05416,0.02456 0.2672228,0.1095341 0.4734728,0.1888306 0.20625,0.079296 0.403125,0.1566879 0.4375,0.171981 C 5.6171594,6.1312516 5.6867431,6.1598635 5.8086166,6.202341 5.9955953,6.26751 6.0923716,6.26219 6.1776734,6.182053 6.2495831,6.1144972 6.25,6.1095425 6.25,5.3226778 V 4.53125 H 9.875 13.5 v 1.7385619 c 0,1.2112237 0.01081,1.7746356 0.03563,1.8574925 0.04084,0.1363237 0.186908,0.2875319 0.323742,0.3351418 0.125157,0.043548 0.159508,0.043768 0.299179,0.00192 z"
       id="path819"
       inkscape:connector-curvature="0" />
  </g>
</svg>
