<?xml version="1.0" encoding="UTF-8" standalone="no"?>
<!-- Created with Inkscape (http://www.inkscape.org/) -->

<svg
   xmlns:dc="http://purl.org/dc/elements/1.1/"
   xmlns:cc="http://creativecommons.org/ns#"
   xmlns:rdf="http://www.w3.org/1999/02/22-rdf-syntax-ns#"
   xmlns:svg="http://www.w3.org/2000/svg"
   xmlns="http://www.w3.org/2000/svg"
   xmlns:sodipodi="http://sodipodi.sourceforge.net/DTD/sodipodi-0.dtd"
   xmlns:inkscape="http://www.inkscape.org/namespaces/inkscape"
   version="1.1"
   id="svg2"
   width="16.036543"
   height="16.036543"
   viewBox="0 0 16.036543 16.036543"
   sodipodi:docname="SNAP_GRID.svg"
   inkscape:version="0.92.4 (5da689c313, 2019-01-14)">
  <metadata
     id="metadata8">
    <rdf:RDF>
      <cc:Work
         rdf:about="">
        <dc:format>image/svg+xml</dc:format>
        <dc:type
           rdf:resource="http://purl.org/dc/dcmitype/StillImage" />
        <dc:title></dc:title>
      </cc:Work>
    </rdf:RDF>
  </metadata>
  <defs
     id="defs6" />
  <sodipodi:namedview
     pagecolor="#ffffff"
     bordercolor="#666666"
     borderopacity="1"
     objecttolerance="10"
     gridtolerance="10"
     guidetolerance="10"
     inkscape:pageopacity="0"
     inkscape:pageshadow="2"
     inkscape:window-width="1165"
     inkscape:window-height="835"
     id="namedview4"
     showgrid="false"
     inkscape:zoom="14.716389"
     inkscape:cx="8.0182714"
     inkscape:cy="8.0182714"
     inkscape:window-x="0"
     inkscape:window-y="0"
     inkscape:window-maximized="0"
     inkscape:current-layer="svg2" />
  <g
     id="SNAP_GRID">
    <path
       style="fill:#ffffff;stroke-width:0.03132137"
       d="m 0,14.031975 v -2.004568 h 0.2470852 0.24708519 l 0.0203928,0.108703 c 0.0255945,0.13643 0.15596875,0.293926 0.28949374,0.349716 0.0807899,0.03376 0.37527877,0.04272 1.40309387,0.04272 h 1.300843 v 1.300843 c 0,1.027815 0.00897,1.322304 0.042723,1.403094 0.05579,0.133525 0.2132857,0.263899 0.3497159,0.289494 l 0.1087028,0.02039 v 0.247085 0.247085 H 2.0045679 0 Z m 5.0114197,1.757483 v -0.247085 l 0.1087027,-0.02039 c 0.1364303,-0.02559 0.2939257,-0.155969 0.349716,-0.289494 0.033756,-0.08079 0.042723,-0.375279 0.042723,-1.403094 v -1.300843 h 2.5057098 2.5057098 v 1.300843 c 0,1.027815 0.009,1.322304 0.04272,1.403094 0.05579,0.133525 0.213285,0.263899 0.349716,0.289494 l 0.108702,0.02039 v 0.247085 0.247085 H 8.0182715 5.0114197 Z m 7.0159873,0 v -0.247085 l 0.108703,-0.02039 c 0.13643,-0.02559 0.293926,-0.155969 0.349716,-0.289494 0.03376,-0.08079 0.04272,-0.375279 0.04272,-1.403094 v -1.300843 h 1.300843 c 1.027815,0 1.322304,-0.009 1.403094,-0.04272 0.133525,-0.05579 0.263899,-0.213286 0.289494,-0.349716 l 0.02039,-0.108703 h 0.247085 0.247085 v 2.004568 2.004568 H 14.031975 12.027407 Z M 0.00282693,8.0104412 0.00565386,4.995759 0.07699145,5.3402941 C 0.11622712,5.5297884 0.18645886,5.7975862 0.23306198,5.9354002 0.70790957,7.3396125 1.8643062,8.4498872 3.259081,8.8407297 l 0.2489128,0.06975 v 0.8067509 0.8067504 h -1.300843 c -1.0278151,0 -1.32230394,0.009 -1.40309388,0.04272 -0.13352499,0.05579 -0.26389929,0.213285 -0.28949374,0.349716 l -0.0203928,0.108702 H 0.2470852 0 Z M 15.52198,10.916421 c -0.02559,-0.136431 -0.155969,-0.293926 -0.289494,-0.349716 -0.08079,-0.03376 -0.375279,-0.04272 -1.403094,-0.04272 H 12.528549 V 8.0182715 5.5125617 h 1.300843 c 1.027815,0 1.322304,-0.00897 1.403094,-0.042723 0.133525,-0.05579 0.263899,-0.2132857 0.289494,-0.349716 L 15.54237,5.01142 h 0.247085 0.247085 V 8.0182715 11.025123 H 15.789458 15.542373 Z M 5.5125617,9.7096256 c 0,-0.6798401 0.00729,-0.8143557 0.044157,-0.8143557 0.024287,0 0.1741321,-0.042474 0.3329894,-0.094386 1.4299511,-0.467286 2.5549528,-1.6259836 2.9510216,-3.0394094 l 0.06975,-0.2489128 H 9.7172305 10.523981 V 8.0182715 10.523981 H 8.0182715 5.5125617 Z M 0.00282693,2.0123982 0,0 2.0123982,0.00282693 4.0247964,0.00565386 3.6802613,0.07699145 C 2.7305438,0.27363485 1.9903617,0.66781167 1.3290867,1.3290867 0.66781167,1.9903617 0.27363485,2.7305438 0.07699145,3.6802613 L 0.00565386,4.0247964 Z M 15.52198,3.900433 C 15.496385,3.7640028 15.366011,3.6065073 15.232486,3.5507171 15.151696,3.5169608 14.857207,3.5079938 13.829392,3.5079938 h -1.300843 v -1.300843 c 0,-1.0278151 -0.009,-1.32230394 -0.04272,-1.40309388 C 12.430036,0.67053193 12.27254,0.54015763 12.13611,0.51456318 L 12.027407,0.49417039 V 0.2470852 0 h 2.004568 2.004568 V 2.0045679 4.0091358 H 15.789458 15.542373 Z M 8.8407297,3.259081 C 8.4498872,1.8643062 7.3396125,0.70790957 5.9354002,0.23306198 5.7975862,0.18645886 5.5297884,0.11622712 5.3402941,0.07699145 L 4.995759,0.00565386 8.0104412,0.00282693 11.025123,0 v 0.2470852 0.24708519 l -0.108702,0.0203928 c -0.136431,0.0255945 -0.293926,0.15596875 -0.349716,0.28949374 -0.03376,0.0807899 -0.04272,0.37527877 -0.04272,1.40309387 v 1.300843 H 9.7172305 8.9104796 Z"
       id="path827"
       inkscape:connector-curvature="0" />
    <path
       style="fill:#fefefe;stroke-width:0.03132137"
       d="M 4.0091358,14.031975 V 12.027407 H 2.0045679 0 V 11.526265 11.025123 H 2.0045679 4.0091358 V 10.015009 9.0048948 h 0.5011419 0.501142 v 1.0101142 1.010114 H 8.0182715 11.025123 V 8.0182715 5.0114197 H 10.015009 9.0048948 V 4.5102777 4.0091358 h 1.0101142 1.010114 V 2.0045679 0 h 0.501142 0.501142 v 2.0045679 2.0045679 h 2.004568 2.004568 v 0.5011419 0.501142 h -2.004568 -2.004568 v 3.0068518 3.0068515 h 2.004568 2.004568 v 0.501142 0.501142 h -2.004568 -2.004568 v 2.004568 2.004568 H 11.526265 11.025123 V 14.031975 12.027407 H 8.0182715 5.0114197 v 2.004568 2.004568 H 4.5102777 4.0091358 Z M 4.2597067,8.0002846 C 4.2166398,7.992842 4.0756937,7.9711222 3.946493,7.952018 2.2983248,7.7083155 1.0212551,6.2057566 1.0212551,4.5102777 c 0,-1.918473 1.5705496,-3.4890226 3.4890226,-3.4890226 1.918473,0 3.4890228,1.5705496 3.4890228,3.4890226 0,1.6713824 -1.1999319,3.1155486 -2.8511546,3.4314798 -0.2451238,0.0469 -0.7596034,0.080792 -0.8884392,0.058527 z M 4.8691721,5.9657447 C 5.4093781,5.8250387 5.8255079,5.4075765 5.9669825,4.8644191 6.1698532,4.0855458 5.6712987,3.2637384 4.8691721,3.0548108 4.0854049,2.8506654 3.264353,3.3468967 3.0548108,4.1513833 2.7756474,5.2231644 3.7973911,6.244908 4.8691721,5.9657447 Z M 4.0091358,4.5102777 V 4.0091358 h 0.5011419 0.501142 v 0.5011419 0.501142 H 4.5102777 4.0091358 Z M 0.00494548,4.9487769 c 0,-0.043067 0.00710913,-0.060685 0.01579806,-0.039152 0.0086889,0.021534 0.0086889,0.05677 0,0.078304 -0.0086889,0.021533 -0.01579806,0.00392 -0.01579806,-0.039152 z m 0,-0.8769984 c 0,-0.043067 0.00710913,-0.060685 0.01579806,-0.039152 0.0086889,0.021533 0.0086889,0.05677 0,0.078303 -0.0086889,0.021533 -0.01579806,0.00392 -0.01579806,-0.039151 z M 4.0326268,0.01057783 c 0.021533,-0.00868893 0.05677,-0.00868893 0.078303,0 0.021533,0.0086889 0.00392,0.01579806 -0.039152,0.01579806 -0.043067,0 -0.060685,-0.0071091 -0.039151,-0.01579806 z m 0.8769984,0 c 0.021534,-0.00868893 0.05677,-0.00868893 0.078304,0 0.021533,0.0086889 0.00392,0.01579806 -0.039152,0.01579806 -0.043067,0 -0.060685,-0.0071091 -0.039152,-0.01579806 z"
       id="path825"
       inkscape:connector-curvature="0" />
    <path
       style="fill:#0065cb;stroke-width:0.03132137"
       d="M 4.1379396,5.9641986 C 3.3437611,5.7506172 2.8524467,4.9283119 3.0548108,4.1513833 3.264353,3.3468967 4.0854049,2.8506654 4.8691721,3.0548108 5.6712987,3.2637384 6.1698532,4.0855458 5.9669825,4.8644191 5.7555256,5.6762575 4.9247422,6.1757964 4.1379396,5.9641986 Z M 5.0114197,4.5102777 V 4.0091358 H 4.5102777 4.0091358 v 0.5011419 0.501142 h 0.5011419 0.501142 z"
       id="path823"
       inkscape:connector-curvature="0" />
    <path
       style="fill:#003265;stroke-width:0.03132137"
       d="M 3.9308323,8.9873654 C 2.0013449,8.7275941 0.45889232,7.2666516 0.07267177,5.3330871 c -0.07623444,-0.3816579 -0.07623444,-1.2639609 0,-1.6456187 C 0.25633112,2.768001 0.67380959,1.9843638 1.3290867,1.3290867 1.9843638,0.67380959 2.768001,0.25633112 3.6874684,0.07267177 c 0.3816578,-0.07623444 1.2639608,-0.07623444 1.6456187,0 1.6426481,0.32811135 2.952963,1.48272213 3.4666702,3.05472713 0.1614297,0.4939939 0.2029935,0.7771441 0.2029935,1.3828788 0,0.6057347 -0.041564,0.8888849 -0.2029935,1.3828787 C 8.5716466,6.5912024 8.2181492,7.1647885 7.6914687,7.6914687 7.0398404,8.3430973 6.2460268,8.7674816 5.3501948,8.9431475 5.0403234,9.0039109 4.2391211,9.0288713 3.9308323,8.9873654 Z M 5.1481459,7.9417575 C 6.7993686,7.6258263 7.9993005,6.1816601 7.9993005,4.5102777 c 0,-1.918473 -1.5705498,-3.4890226 -3.4890228,-3.4890226 -1.918473,0 -3.4890226,1.5705496 -3.4890226,3.4890226 0,1.6954789 1.2770697,3.1980378 2.9252379,3.4417403 0.1292007,0.019104 0.2701468,0.040824 0.3132137,0.048267 0.1288358,0.022265 0.6433154,-0.011627 0.8884392,-0.058528 z"
       id="path821"
       inkscape:connector-curvature="0" />
    <path
       style="fill:#323232;stroke-width:0.03132137"
       d="m 3.8055468,15.491187 c -0.11519,-0.0512 -0.2196793,-0.161511 -0.2641453,-0.278869 -0.021705,-0.05729 -0.033408,-0.542448 -0.033408,-1.385004 v -1.296832 l -1.3445582,-0.0088 C 0.86142605,12.513167 0.81614146,12.510845 0.73241811,12.44831 0.61195329,12.358333 0.53665364,12.248697 0.51324915,12.129202 L 0.49331163,12.027407 H 2.2512237 4.0091358 v 1.753997 c 0,1.65006 -0.00325,1.753924 -0.054813,1.752771 -0.030147,-6.73e-4 -0.097096,-0.02002 -0.1487765,-0.04299 z m 1.2058729,-1.705868 v -1.757912 h 3.0068518 3.0068515 v 1.757912 1.757912 l -0.101794,-0.01994 c -0.119496,-0.02341 -0.229132,-0.0987 -0.319109,-0.219169 -0.06253,-0.08372 -0.06486,-0.129008 -0.07338,-1.431018 l -0.0088,-1.344558 H 8.0182715 5.5144948 l -0.0088,1.344558 c -0.00852,1.30201 -0.010841,1.347295 -0.073375,1.431018 -0.089977,0.120465 -0.1996133,0.195764 -0.3191088,0.219169 l -0.1017944,0.01994 z m 7.0159873,0 v -1.757912 h 1.757912 1.757912 l -0.01994,0.101795 c -0.02341,0.119495 -0.0987,0.229131 -0.219169,0.319108 -0.08372,0.06253 -0.129016,0.06486 -1.430053,0.07337 l -1.343594,0.0088 -0.0088,1.343594 c -0.0085,1.301037 -0.01084,1.346332 -0.07337,1.430053 -0.08998,0.120465 -0.199613,0.195764 -0.319108,0.219169 l -0.101795,0.01994 z M 0.51324915,10.923329 c 0.0234045,-0.119496 0.0987041,-0.229132 0.21916896,-0.319109 0.0837233,-0.06253 0.12900794,-0.06486 1.43101749,-0.07338 l 1.3445582,-0.0088 V 9.7243198 c 0,-0.5397938 0.010708,-0.7977285 0.033118,-0.7977285 0.018215,0 0.1309722,0.01616 0.2505709,0.035911 l 0.2174528,0.035912 v 1.0133547 1.013354 H 2.2512237 0.49331163 Z M 5.0114197,10.011769 V 8.9984144 l 0.2174527,-0.035912 c 0.1195988,-0.019751 0.2323557,-0.035911 0.250571,-0.035911 0.022411,0 0.033118,0.2582219 0.033118,0.798695 V 10.523981 H 8.0182715 10.523981 V 8.0182715 5.5125617 H 9.7252863 c -0.5404731,0 -0.798695,-0.010707 -0.798695,-0.033118 0,-0.018215 0.01616,-0.1309722 0.035911,-0.250571 L 8.9984143,5.01142 h 1.0133547 1.013354 V 8.0182715 11.025123 H 8.0182715 5.0114197 Z M 12.027407,8.0182715 V 5.0114197 h 1.757912 1.757912 l -0.01994,0.1017944 c -0.02341,0.1194955 -0.0987,0.2291316 -0.219169,0.3191088 -0.08372,0.062534 -0.129008,0.064857 -1.431018,0.073375 l -1.344558,0.0088 v 2.5037767 2.5037764 l 1.344558,0.0088 c 1.30201,0.0085 1.347295,0.01084 1.431018,0.07338 0.120465,0.08998 0.195764,0.199613 0.219169,0.319109 l 0.01994,0.101794 H 13.785319 12.027407 Z M 8.9625028,3.791683 C 8.9427516,3.6720843 8.9265913,3.5593273 8.9265913,3.5411121 c 0,-0.02241 0.2579347,-0.033118 0.7977285,-0.033118 h 0.7977282 l 0.0088,-1.3445582 c 0.0085,-1.30200955 0.01084,-1.34729414 0.07338,-1.43101749 0.08998,-0.12046482 0.199613,-0.19576447 0.319109,-0.21916896 l 0.101794,-0.0199375 V 2.2512237 4.0091358 H 10.011769 8.9984144 Z M 12.027407,2.2512237 V 0.49331163 l 0.101795,0.0199375 c 0.119495,0.0234045 0.229131,0.0987041 0.319108,0.21916896 0.06253,0.0837209 0.06486,0.12901618 0.07337,1.43005311 l 0.0088,1.3435938 1.343594,0.00879 c 1.301037,0.00852 1.346332,0.01084 1.430053,0.073373 0.120465,0.089977 0.195764,0.1996133 0.219169,0.3191087 l 0.01994,0.1017945 h -1.757912 -1.757912 z"
       id="path819"
       inkscape:connector-curvature="0" />
  </g>
</svg>
