<?xml version="1.0" encoding="UTF-8" standalone="no"?>
<!-- Created with Inkscape (http://www.inkscape.org/) -->

<svg
   xmlns:dc="http://purl.org/dc/elements/1.1/"
   xmlns:cc="http://creativecommons.org/ns#"
   xmlns:rdf="http://www.w3.org/1999/02/22-rdf-syntax-ns#"
   xmlns:svg="http://www.w3.org/2000/svg"
   xmlns="http://www.w3.org/2000/svg"
   xmlns:sodipodi="http://sodipodi.sourceforge.net/DTD/sodipodi-0.dtd"
   xmlns:inkscape="http://www.inkscape.org/namespaces/inkscape"
   version="1.1"
   id="svg2"
   width="16"
   height="16"
   viewBox="0 0 16 16"
   sodipodi:docname="UNDO_HISTORY.svg"
   inkscape:version="0.92.4 (5da689c313, 2019-01-14)">
  <metadata
     id="metadata8">
    <rdf:RDF>
      <cc:Work
         rdf:about="">
        <dc:format>image/svg+xml</dc:format>
        <dc:type
           rdf:resource="http://purl.org/dc/dcmitype/StillImage" />
        <dc:title></dc:title>
      </cc:Work>
    </rdf:RDF>
  </metadata>
  <defs
     id="defs6" />
  <sodipodi:namedview
     pagecolor="#ffffff"
     bordercolor="#666666"
     borderopacity="1"
     objecttolerance="10"
     gridtolerance="10"
     guidetolerance="10"
     inkscape:pageopacity="0"
     inkscape:pageshadow="2"
     inkscape:window-width="1044"
     inkscape:window-height="932"
     id="namedview4"
     showgrid="false"
     inkscape:zoom="14.75"
     inkscape:cx="8.3050847"
     inkscape:cy="7.0508475"
     inkscape:window-x="0"
     inkscape:window-y="0"
     inkscape:window-maximized="0"
     inkscape:current-layer="svg2" />
  <g
     id="UNDO_HISTORY">
    <path
       style="fill:#ffffff;stroke-width:0.03125"
       d="M 0,8 V 0 h 8 8 v 8 8 H 15.5 15 V 14.5 13 H 8 1 V 14.5 16 H 0.5 0 Z m 11.421875,3.488136 c 0.207653,-0.161123 0.681949,-0.644977 0.785245,-0.801068 0.04534,-0.06851 0.09463,-0.124568 0.109533,-0.124568 0.0149,0 0.0271,-0.02109 0.0271,-0.04687 0,-0.02578 0.01236,-0.04687 0.02746,-0.04687 0.0151,0 0.04493,-0.04219 0.06629,-0.09375 0.02136,-0.05156 0.04955,-0.09375 0.06265,-0.09375 0.0131,0 0.03229,-0.02461 0.04265,-0.05469 0.01036,-0.03008 0.04913,-0.103907 0.08615,-0.164063 0.09987,-0.1622466 0.339891,-0.6424212 0.370754,-0.7416972 0.01478,-0.047535 0.0567,-0.1637715 0.09317,-0.2583028 0.06248,-0.1619778 0.154132,-0.4300922 0.21898,-0.640625 0.0617,-0.2003016 0.153836,-0.7069466 0.204596,-1.125 0.04186,-0.3447128 0.04965,-0.5932497 0.03677,-1.171875 -0.009,-0.4039063 -0.03248,-0.8328125 -0.05219,-0.953125 -0.05369,-0.3277822 -0.16257,-0.8665409 -0.189456,-0.9375 C 13.298546,4.2 13.263332,4.0875 13.233317,3.984375 13.203302,3.88125 13.167012,3.76875 13.152673,3.734375 13.138333,3.7 13.096876,3.5875 13.060544,3.484375 12.980971,3.2585091 12.722114,2.719494 12.665525,2.6618303 12.643236,2.6391183 12.625,2.6060015 12.625,2.5882374 c 0,-0.017764 -0.04219,-0.094808 -0.09375,-0.1712095 -0.05156,-0.076401 -0.09375,-0.1507642 -0.09375,-0.1652511 0,-0.014487 -0.02109,-0.034434 -0.04687,-0.044328 -0.02578,-0.00989 -0.04687,-0.036389 -0.04687,-0.058879 0,-0.02249 -0.04219,-0.087081 -0.09375,-0.1435345 C 12.19845,1.9485813 12.15626,1.8941391 12.15626,1.884052 12.15626,1.85852 11.489344,1.1893585 11.462876,1.188333 11.451036,1.187875 11.395168,1.1453125 11.338714,1.09375 11.282261,1.0421875 11.21881,1 11.197713,1 11.176617,1 11.14811,0.98242188 11.134365,0.9609375 11.080268,0.87637819 10.626468,0.658216 10.25,0.53578384 9.8192691,0.3957045 9.5579691,0.37493125 8.2351947,0.37560756 6.7569391,0.37636338 6.5590628,0.39857728 5.984375,0.62828844 5.661655,0.75728437 5.4220994,0.89352187 5.1353903,1.1111139 5.0092019,1.2068819 4.4290272,1.7784732 4.3362434,1.8984375 4.2828387,1.9674869 4.2697944,1.96875 3.6101294,1.96875 c -1.0658445,0 -1.0773435,0.00699 -1.1352385,0.6899271 -0.053812,0.6347754 -0.057458,1.142417 -0.011204,1.5600729 0.061773,0.5577931 0.1896552,1.2069237 0.3201333,1.625 0.050959,0.1632812 0.1158694,0.3742187 0.144246,0.46875 0.028377,0.094531 0.082713,0.2421875 0.1207473,0.328125 0.038034,0.085937 0.1003548,0.2335937 0.1384898,0.328125 0.097816,0.2424709 0.48445,1.006985 0.6196475,1.2252653 0.1163147,0.1877928 0.57652,0.8456772 0.6256775,0.8944344 0.075581,0.074965 0.2118075,0.1303003 0.3207775,0.1303003 0.083459,0 0.4244341,-0.1360116 0.4653444,-0.1856213 0.00859,-0.010421 0.054852,-0.04392 0.1027975,-0.074443 C 5.4444938,8.8804169 5.488795,8.7568303 5.5475819,8.328125 5.6160212,7.8290294 5.6795713,7.5686437 5.8869803,6.9375 6.0095403,6.5645509 6.0557388,6.4518578 6.3091322,5.9077372 6.3367659,5.8483991 6.4402344,5.660925 6.5390625,5.4911284 6.6378906,5.3213319 6.71875,5.1694906 6.71875,5.1537037 c 0,-0.015787 0.012357,-0.028704 0.027459,-0.028704 0.015102,0 0.044933,-0.042187 0.066291,-0.09375 0.021358,-0.051563 0.051189,-0.09375 0.066291,-0.09375 0.015102,0 0.027459,-0.021094 0.027459,-0.046875 0,-0.025781 0.014516,-0.046875 0.032257,-0.046875 0.017741,0 0.042351,-0.025641 0.054687,-0.056979 C 7.0255637,4.7045453 7.4144537,4.1875 7.4439297,4.1875 c 0.013651,0 0.02482,-0.013308 0.02482,-0.029573 0,-0.030377 0.643835,-0.6865366 0.7835531,-0.7985519 C 8.5359241,3.1319897 8.6951909,2.9820239 8.7351759,2.9047013 8.8241653,2.7326149 8.7794944,2.5749757 8.5824025,2.3655774 8.5370809,2.3174263 8.5,2.2713484 8.5,2.2631821 8.5,2.2267625 8.2981956,2.03125 8.2606038,2.03125 8.2375841,2.03125 8.21875,2.0171875 8.21875,2 c 0,-0.044316 0.011459,-0.040998 0.1785788,0.051708 0.207389,0.115044 0.5016153,0.3399387 0.6440887,0.4923154 C 9.4065513,2.9345373 9.7643403,3.5061456 9.9527628,4 c 0.029509,0.077344 0.066094,0.1647591 0.0813,0.1942566 0.01521,0.029497 0.04144,0.1068409 0.05831,0.171875 0.01686,0.065034 0.06061,0.2237121 0.0972,0.3526184 0.0366,0.1289062 0.07774,0.3046875 0.09143,0.390625 0.01369,0.085937 0.04266,0.2476563 0.06437,0.359375 0.04981,0.2562803 0.05052,1.4842284 9.78e-4,1.703125 -0.01945,0.085937 -0.0427,0.2125 -0.05166,0.28125 -0.02473,0.1896091 -0.164758,0.7273066 -0.248223,0.953125 -0.093144,0.2520081 -0.1797557,0.4550372 -0.2059641,0.4828125 -0.015407,0.016328 -0.028013,0.053278 -0.028013,0.082111 0,0.028833 -0.021094,0.06993 -0.046875,0.091326 -0.025781,0.021397 -0.046875,0.05757 -0.046875,0.080385 0,0.022815 -0.042188,0.1039922 -0.09375,0.1803931 -0.051562,0.076401 -0.09375,0.1529453 -0.09375,0.1700985 0,0.017153 -0.021094,0.039281 -0.046875,0.049175 -0.025781,0.00989 -0.046875,0.036389 -0.046875,0.058879 0,0.02249 -0.042188,0.087081 -0.09375,0.1435347 -0.051562,0.056454 -0.09375,0.1105109 -0.09375,0.1201272 C 9.25,9.8891378 8.7623003,10.375 8.7381628,10.375 8.6721216,10.375 8.5,10.644565 8.5,10.747995 c 0,0.08093 0.1187153,0.443569 0.1587128,0.484818 0.015833,0.01633 0.028787,0.05016 0.028787,0.07517 0,0.06565 0.1512022,0.254169 0.2298478,0.286576 0.036865,0.01519 0.5803084,0.02474 1.2076524,0.02122 l 1.140625,-0.0064 z"
       id="path829"
       inkscape:connector-curvature="0" />
    <path
       style="fill:#cbfefe;stroke-width:0.03125"
       d="M 4.6953125,8.7950422 C 4.6738281,8.7717197 4.65625,8.7379819 4.65625,8.7200691 4.65625,8.7021559 4.6449603,8.6875 4.6311616,8.6875 4.6173628,8.6875 4.5231841,8.5609375 4.421875,8.40625 4.3205659,8.2515625 4.2299028,8.1248388 4.2204009,8.1246416 4.2108991,8.1244541 4.1752131,8.0646788 4.1410984,7.9918291 4.1069838,7.9189794 4.0718275,7.8523438 4.0629734,7.84375 4.0250428,7.8069347 3.7027756,7.17072 3.5722644,6.875 3.5457153,6.8148438 3.5059088,6.7304688 3.4838053,6.6875 3.44966,6.6211219 3.2748556,6.1083003 3.1109808,5.59375 3.0685459,5.4605087 3.0240338,5.2534937 2.9228389,4.71875 2.8060375,4.1015362 2.7823285,3.4696106 2.8493535,2.7601105 2.8818149,2.4164859 2.8916172,2.3778998 2.9504624,2.3620997 c 0.035839,-0.00962 0.3675064,-0.019352 0.7370376,-0.02162 0.3695312,-0.00227 0.7089694,-0.013007 0.7543072,-0.023864 0.04748,-0.01137 0.13543,-0.08703 0.207425,-0.1784398 C 4.9155516,1.8000382 5.3718447,1.3919281 5.6875,1.2095451 6.38756,0.80505628 6.6809281,0.74987875 8.109375,0.75403144 9.0312488,0.75671144 9.0652719,0.7588475 8.8125,0.79817503 8.5620356,0.83714353 8.4509953,0.86730213 8.1324159,0.98288597 8.001245,1.0304762 7.8743706,1.0933908 7.84375,1.1260301 7.8351562,1.1351904 7.7261719,1.2026153 7.6015625,1.2758632 7.4769531,1.349111 7.375,1.4224756 7.375,1.4388956 c 0,0.01642 -0.014543,0.029854 -0.032318,0.029854 -0.049285,0 -0.5199682,0.4615539 -0.6736972,0.6606307 C 6.53766,2.2994444 6.53532,2.3062909 6.6023769,2.3242665 6.6406009,2.334513 6.9601562,2.3433039 7.3125,2.3438018 7.9114572,2.3446481 8.1033628,2.3682082 8.0120728,2.4296875 7.9188194,2.4924893 7.590405,2.7894186 7.3928837,2.9895149 7.0144459,3.3728862 6.7793837,3.6497594 6.5256872,4.0109609 6.3910941,4.2025888 6.2556269,4.3891597 6.2246491,4.4255634 6.1936712,4.4619672 6.1139556,4.5955609 6.0475031,4.7224384 5.9810503,4.8493159 5.9019191,4.9953125 5.8716556,5.046875 5.7322394,5.2844106 5.6121928,5.5265844 5.5438303,5.7082072 5.5028378,5.8171144 5.45612,5.9308363 5.4400131,5.9609225 5.3484841,6.1318906 5.2722237,6.3352341 5.1850363,6.6408006 5.1311184,6.8297666 5.0762259,6.9984375 5.0630531,7.015625 5.04988,7.0328125 5.0307656,7.0890625 5.0205766,7.140625 4.9666212,7.4136688 4.9097306,7.6875731 4.8810263,7.8125 4.863255,7.8898438 4.8252878,8.15 4.796655,8.390625 4.768022,8.63125 4.742296,8.8302222 4.739485,8.8327856 4.736675,8.8353456 4.716797,8.8183646 4.6953125,8.7950422 Z"
       id="path827"
       inkscape:connector-curvature="0" />
    <path
       style="fill:#98cbfe;stroke-width:0.03125"
       d="M 8.9957547,10.663652 C 9.1492881,10.541833 9.53125,10.158718 9.53125,10.126539 c 0,-0.01517 0.011914,-0.03227 0.026477,-0.038 0.026637,-0.01048 0.3485234,-0.4516826 0.3485234,-0.4777132 0,-0.00767 0.039356,-0.074416 0.087458,-0.1483247 C 10.04181,9.3885956 10.115638,9.2507812 10.15777,9.15625 10.1999,9.061719 10.24492,8.9796875 10.257813,8.9739584 c 0.01289,-0.00573 0.02344,-0.043571 0.02344,-0.084093 0,-0.040522 0.01221,-0.081221 0.02713,-0.090441 0.04893,-0.030239 0.303669,-0.8948756 0.350614,-1.1900487 0.01367,-0.085937 0.04121,-0.2335938 0.0612,-0.328125 0.05152,-0.2436572 0.05204,-1.6454031 6.97e-4,-1.90625 -0.02199,-0.1117188 -0.05116,-0.2734375 -0.06482,-0.359375 -0.04931,-0.3102013 -0.291735,-1.1242169 -0.344531,-1.1568466 -0.01666,-0.010294 -0.03029,-0.03887 -0.03029,-0.063502 0,-0.060822 -0.3090541,-0.6832602 -0.3457372,-0.6963183 C 9.9194181,3.0932292 9.90625,3.0627604 9.90625,3.03125 9.90625,2.99974 9.89544,2.969271 9.882227,2.963542 9.8690147,2.9578125 9.7888597,2.8552591 9.704105,2.7356453 9.5159759,2.4701402 8.8968756,1.84375 8.8225894,1.84375 c -0.00884,0 -0.053793,-0.026864 -0.099904,-0.059698 C 8.5948909,1.6930547 8.3399147,1.5625 8.2899884,1.5625 c -0.03736,0 -0.036974,-0.00748 0.00242,-0.046875 0.025781,-0.025781 0.073844,-0.046875 0.106806,-0.046875 0.032962,0 0.1007634,-0.019515 0.1506696,-0.043367 C 8.59979,1.401531 8.7774481,1.364603 8.9446794,1.34332 9.2816009,1.300441 9.7785662,1.34051 9.9501115,1.424385 10.000019,1.448786 10.064699,1.46875 10.093849,1.46875 c 0.06008,0 0.583268,0.262543 0.658609,0.3304998 0.02714,0.024475 0.05978,0.0445 0.07255,0.0445 0.01276,0 0.04134,0.017578 0.06351,0.039063 0.02217,0.021484 0.09096,0.078882 0.152879,0.1275509 0.140832,0.1106971 0.364857,0.3270065 0.364857,0.3522919 0,0.010436 0.03387,0.045618 0.07527,0.078181 0.0414,0.032564 0.115227,0.1224532 0.164063,0.1997542 0.04884,0.077301 0.09934,0.1405724 0.112231,0.1406031 0.01289,3.07e-5 0.02344,0.019645 0.02344,0.043588 0,0.023942 0.01758,0.050512 0.03906,0.059044 0.02148,0.00853 0.09385,0.1229783 0.160823,0.2543255 0.06697,0.1313471 0.133765,0.2462321 0.148437,0.2553 0.01467,0.00907 0.02668,0.042611 0.02668,0.074539 0,0.031928 0.01061,0.062739 0.02358,0.068468 0.03052,0.013481 0.243921,0.5421644 0.272108,0.6741207 0.01189,0.055662 0.0346,0.1092265 0.05046,0.1190318 0.01586,0.00981 0.02885,0.053079 0.02885,0.096163 0,0.043084 0.01416,0.104785 0.03146,0.1371128 0.0173,0.032328 0.05343,0.1685125 0.08029,0.3026331 0.187355,0.9355341 0.180228,2.1083909 -0.01801,2.9626053 -0.0359,0.1546875 -0.07296,0.3164063 -0.08236,0.359375 -0.0094,0.042969 -0.0369,0.1224378 -0.06111,0.1765978 -0.02421,0.05416 -0.04402,0.1097022 -0.04402,0.1234269 0,0.05339 -0.200225,0.5620606 -0.239593,0.6086859 -0.02291,0.027135 -0.04166,0.072838 -0.04166,0.1015625 0,0.028725 -0.01406,0.052227 -0.03125,0.052227 -0.01719,0 -0.03125,0.015125 -0.03125,0.03361 0,0.044247 -0.252927,0.4789913 -0.286489,0.4924313 -0.01431,0.00573 -0.02601,0.030339 -0.02601,0.054687 0,0.024349 -0.0127,0.044271 -0.02821,0.044271 -0.01552,0 -0.07738,0.073828 -0.137482,0.1640625 -0.09652,0.144911 -0.445953,0.502878 -0.640612,0.65625 -0.06294,0.04959 -0.163305,0.05455 -1.0768646,0.05322 l -1.0074553,-0.0015 0.1051297,-0.08341 z"
       id="path825"
       inkscape:connector-curvature="0" />
    <path
       style="fill:#fe9832;stroke-width:0.03125"
       d="m 1.5,14.5 v -1 H 8 14.5 v 1 1 H 8 1.5 Z"
       id="path823"
       inkscape:connector-curvature="0" />
    <path
       style="fill:#003265;stroke-width:0.03125"
       d="m 8.9814972,11.007813 -0.095058,-0.242188 1.0100471,-0.0082 c 0.9038767,-0.0074 1.0172907,-0.01394 1.0789577,-0.0625 0.193927,-0.152698 0.54368,-0.511035 0.640113,-0.655822 0.0601,-0.090235 0.121965,-0.164063 0.137482,-0.164063 0.01552,0 0.02821,-0.019922 0.02821,-0.044271 0,-0.024349 0.0117,-0.048958 0.02601,-0.054687 0.03356,-0.01344 0.286489,-0.4481844 0.286489,-0.4924313 0,-0.018486 0.01406,-0.03361 0.03125,-0.03361 0.01719,0 0.03125,-0.023502 0.03125,-0.052227 0,-0.028725 0.01875,-0.074428 0.04166,-0.1015625 0.03937,-0.046625 0.239593,-0.5552962 0.239593,-0.6086859 0,-0.013725 0.01981,-0.069267 0.04402,-0.1234269 0.02421,-0.05416 0.05171,-0.133629 0.06111,-0.1765978 0.0094,-0.042969 0.04646,-0.2046875 0.08236,-0.359375 0.198233,-0.8542144 0.20536,-2.0270713 0.01801,-2.9626053 -0.02686,-0.1341206 -0.06299,-0.2703056 -0.08029,-0.3026331 -0.0173,-0.032328 -0.03146,-0.094028 -0.03146,-0.1371129 0,-0.043084 -0.01298,-0.086358 -0.02885,-0.096163 -0.01586,-0.00981 -0.03857,-0.063369 -0.05046,-0.1190318 -0.02819,-0.1319563 -0.241589,-0.66064 -0.272108,-0.6741207 -0.01297,-0.00573 -0.02358,-0.03654 -0.02358,-0.068468 0,-0.031928 -0.01201,-0.065471 -0.02668,-0.074539 -0.01467,-0.00907 -0.08147,-0.1239529 -0.148437,-0.2553 -0.06697,-0.1313472 -0.139339,-0.2457936 -0.160823,-0.2543256 -0.02149,-0.00853 -0.03906,-0.035102 -0.03906,-0.059044 0,-0.023942 -0.01055,-0.043557 -0.02344,-0.043588 -0.01289,-3.07e-5 -0.06339,-0.063302 -0.112231,-0.1406031 -0.04884,-0.077301 -0.122664,-0.1671904 -0.164063,-0.1997542 -0.0414,-0.032564 -0.07527,-0.067745 -0.07527,-0.078181 0,-0.025285 -0.224025,-0.2415948 -0.364857,-0.3522919 -0.06192,-0.048669 -0.130713,-0.1060665 -0.152879,-0.1275509 -0.02217,-0.021484 -0.05074,-0.039063 -0.06351,-0.039063 -0.01277,0 -0.04541,-0.020025 -0.07254,-0.0445 C 10.67712,1.731293 10.153932,1.46875 10.093851,1.46875 c -0.02915,0 -0.09383,-0.019964 -0.1437372,-0.044365 C 9.7785684,1.3405102 9.2816031,1.3004415 8.9446816,1.34332 8.7774503,1.3646027 8.5997925,1.4015311 8.5498863,1.425383 8.49998,1.4492348 8.4261519,1.46875 8.3858238,1.46875 8.3454956,1.46875 8.3125,1.4828125 8.3125,1.5 c 0,0.017187 -0.016294,0.03125 -0.036209,0.03125 -0.062533,0 -0.5019912,0.2317511 -0.5178565,0.2730953 -0.00832,0.021673 -0.029171,0.039405 -0.046343,0.039405 -0.039885,0 -0.2648028,0.1724109 -0.3743921,0.2869908 -0.046297,0.048405 -0.095649,0.088009 -0.1096704,0.088009 -0.014022,0 -0.043059,0.028125 -0.064527,0.0625 C 7.130261,2.3344781 7.090897,2.3436871 6.8981726,2.3433231 6.7737091,2.3430889 6.6406009,2.334513 6.6023769,2.3242665 6.53532,2.3062909 6.53766,2.2994444 6.6689847,2.1293807 6.8227137,1.9303039 7.2933966,1.46875 7.3426819,1.46875 7.3604569,1.46875 7.375,1.4553155 7.375,1.4388956 7.375,1.4224756 7.4769531,1.349111 7.6015625,1.2758632 7.7261719,1.2026153 7.8351562,1.1350558 7.84375,1.1257309 7.8648284,1.1028594 8.0498184,1.0165566 8.203125,0.95807294 8.8443972,0.71343925 9.5172131,0.69757034 10.164,0.91182412 10.846204,1.1378102 11.520696,1.6561642 11.986586,2.3125 c 0.0671,0.094531 0.132727,0.1765625 0.145833,0.1822917 0.01311,0.00573 0.02383,0.029167 0.02383,0.052083 0,0.022917 0.01055,0.046354 0.02344,0.052083 0.02423,0.010768 0.173631,0.2772605 0.255496,0.4557292 0.02562,0.055859 0.05772,0.1015625 0.07133,0.1015625 0.01361,0 0.02474,0.020661 0.02474,0.045913 0,0.025252 0.02769,0.09908 0.06153,0.1640625 0.06246,0.1199391 0.264449,0.6953866 0.354084,1.0087747 0.05097,0.1782147 0.118209,0.5130269 0.178852,0.890625 0.06495,0.4044187 0.07483,1.4539197 0.01808,1.921875 -0.05819,0.4799344 -0.168799,1.0636562 -0.209912,1.1078125 -0.0152,0.016328 -0.02764,0.055444 -0.02764,0.086923 0,0.059449 -0.07449,0.2905594 -0.189047,0.5865141 -0.03659,0.094531 -0.0817,0.2175781 -0.100234,0.2734375 -0.01854,0.055859 -0.04541,0.1015625 -0.05971,0.1015625 -0.0143,0 -0.02597,0.017578 -0.02592,0.039063 9.4e-5,0.037352 -0.123739,0.3033703 -0.156366,0.3359375 -0.0086,0.00859 -0.04827,0.082422 -0.08813,0.1640625 -0.03986,0.081641 -0.08555,0.1484378 -0.101533,0.1484378 -0.01598,0 -0.02906,0.01428 -0.02906,0.03174 0,0.03392 -0.225668,0.359812 -0.356706,0.515132 -0.146767,0.173964 -0.410121,0.436762 -0.55586,0.554688 L 11.098857,11.25 H 10.087706 9.0765553 Z M 4.7500037,8.8059125 c 8.5e-6,-0.086908 0.1268357,-1.0336072 0.1416904,-1.0576425 0.00869,-0.014055 0.037096,-0.1354316 0.063132,-0.269725 0.026036,-0.1342934 0.055649,-0.2863575 0.065807,-0.33792 0.010158,-0.051563 0.029247,-0.1078125 0.04242,-0.125 C 5.0762259,6.9984375 5.1311184,6.8297666 5.1850362,6.6408006 5.2722237,6.3352341 5.3484841,6.1318906 5.4400131,5.9609225 5.45612,5.9308362 5.5028378,5.8171144 5.5438303,5.7082072 5.6121928,5.5265844 5.7322394,5.2844106 5.8716556,5.046875 5.9019191,4.9953125 5.9810503,4.8493159 6.0475031,4.7224384 6.1139556,4.5955609 6.1936712,4.4619672 6.2246491,4.4255634 6.2556269,4.3891597 6.3910941,4.2025887 6.5256872,4.0109609 6.8615694,3.5327472 7.3616866,2.9812358 7.7966622,2.609375 7.8971853,2.5234375 7.9971178,2.4355469 8.0187337,2.4140625 c 0.061977,-0.061599 0.08292,-0.048493 0.2132929,0.1334864 0.067458,0.094161 0.136189,0.1712011 0.1527347,0.1712011 0.016546,0 -0.018567,0.038672 -0.078029,0.085937 C 8.2472703,2.8519531 8.1768013,2.9117188 8.1501341,2.9375 8.1234669,2.9632813 8.0340378,3.040625 7.9514031,3.109375 7.7130125,3.3077094 7.0920753,3.9600363 7.0069587,4.1015625 6.9785325,4.1488281 6.9442441,4.1875 6.9307622,4.1875 c -0.013482,0 -0.024512,0.021094 -0.024512,0.046875 0,0.025781 -0.012411,0.046875 -0.027579,0.046875 -0.015169,0 -0.087133,0.091406 -0.1599206,0.203125 C 6.6459625,4.5960937 6.5739981,4.6875 6.5588294,4.6875 c -0.015169,0 -0.027579,0.021094 -0.027579,0.046875 0,0.025781 -0.013115,0.046875 -0.029144,0.046875 -0.016029,0 -0.038978,0.031641 -0.050997,0.070312 C 6.43909,4.8902344 6.3818922,4.9936431 6.3240031,5.0813597 6.2661137,5.1690759 6.21875,5.2569666 6.21875,5.2766722 c 0,0.019705 -0.010728,0.035828 -0.02384,0.035828 -0.03052,0 -0.07182,0.079392 -0.3251256,0.625 -0.051867,0.1117187 -0.112435,0.2382812 -0.134596,0.28125 -0.022161,0.042969 -0.09249,0.2328125 -0.1562862,0.421875 -0.063796,0.1890625 -0.1287416,0.3571094 -0.1443228,0.3734375 -0.015581,0.016328 -0.02833,0.075264 -0.02833,0.1309681 0,0.055704 -0.012839,0.1092156 -0.028531,0.1189138 -0.015692,0.0097 -0.038031,0.077325 -0.049643,0.1502818 -0.011611,0.072957 -0.040123,0.2029613 -0.063358,0.2888988 -0.023236,0.085937 -0.066855,0.3330281 -0.096932,0.5490906 L 5.1131016,8.6450559 4.9315506,8.7456281 C 4.8145444,8.810445 4.7500012,8.8318772 4.7500037,8.8059125 Z"
       id="path821"
       inkscape:connector-curvature="0" />
    <path
       style="fill:#323232;stroke-width:0.03125"
       d="M 1,14.5 V 13 h 7 7 V 14.5 16 H 8 1 Z m 13.5,0 v -1 H 8 1.5 v 1 1 H 8 14.5 Z M 8.9173478,11.594564 C 8.8387022,11.562157 8.6875,11.373637 8.6875,11.307988 c 0,-0.02502 -0.012954,-0.05885 -0.028787,-0.07517 C 8.6187153,11.191564 8.5,10.828926 8.5,10.747995 8.5,10.644565 8.6721216,10.375 8.7381628,10.375 8.7623003,10.375 9.25,9.8891378 9.25,9.8650916 9.25,9.8554753 9.2921875,9.8014181 9.34375,9.7449644 9.3953125,9.6885106 9.4375,9.62392 9.4375,9.6014297 c 0,-0.02249 0.021094,-0.048986 0.046875,-0.058879 0.025781,-0.00989 0.046875,-0.032022 0.046875,-0.049175 0,-0.017153 0.042188,-0.093697 0.09375,-0.1700984 0.051562,-0.076401 0.09375,-0.1575778 0.09375,-0.1803931 0,-0.022815 0.021094,-0.058988 0.046875,-0.080385 0.025781,-0.021397 0.046875,-0.062493 0.046875,-0.091326 0,-0.028833 0.012606,-0.065783 0.028013,-0.082111 0.026208,-0.027775 0.1128191,-0.2308044 0.205964,-0.4828125 0.08347,-0.2258184 0.223497,-0.7635159 0.248222,-0.953125 0.009,-0.06875 0.03221,-0.1953125 0.05166,-0.28125 0.04954,-0.2188966 0.04884,-1.4468447 -9.78e-4,-1.703125 -0.02172,-0.1117188 -0.05068,-0.2734375 -0.06437,-0.359375 -0.01369,-0.085937 -0.05484,-0.2617188 -0.09143,-0.390625 -0.0366,-0.1289063 -0.08034,-0.2875847 -0.0972,-0.3526184 -0.01686,-0.065034 -0.0431,-0.1423779 -0.05831,-0.171875 C 10.018857,4.1647591 9.9822722,4.0773437 9.9527628,4 9.7643403,3.5061456 9.4065513,2.9345373 9.0414175,2.5440234 8.8989441,2.3916467 8.6047178,2.166752 8.3973288,2.0517075 8.2302087,1.9590015 8.21875,1.9556836 8.21875,2 c 0,0.017187 0.018834,0.03125 0.041854,0.03125 0.037592,0 0.239396,0.1955125 0.239396,0.2319321 0,0.00817 0.037081,0.054244 0.082403,0.1023953 C 8.7794944,2.5749757 8.8241653,2.7326149 8.7351759,2.9047013 8.6951909,2.9820239 8.5359241,3.1319897 8.2523031,3.359375 8.112585,3.4713903 7.46875,4.1275494 7.46875,4.1579269 c 0,0.016265 -0.011169,0.029573 -0.02482,0.029573 -0.029476,0 -0.418366,0.5170453 -0.4507353,0.5992709 -0.012337,0.031339 -0.036946,0.056979 -0.054687,0.056979 -0.017741,0 -0.032257,0.021094 -0.032257,0.046875 0,0.025781 -0.012357,0.046875 -0.027459,0.046875 -0.015102,0 -0.044933,0.042187 -0.066291,0.09375 -0.021358,0.051563 -0.051189,0.09375 -0.066291,0.09375 -0.015102,0 -0.027459,0.012917 -0.027459,0.028704 0,0.015787 -0.080859,0.1676282 -0.1796875,0.3374247 C 6.4402344,5.660925 6.3367659,5.8483991 6.3091322,5.9077372 6.0557388,6.4518578 6.0095403,6.5645509 5.8869803,6.9375 5.6795713,7.5686437 5.6160212,7.8290294 5.5475819,8.328125 5.488795,8.7568303 5.4444938,8.8804169 5.3215475,8.9586859 5.2736025,8.9892084 5.2273437,9.0227078 5.21875,9.0331288 5.1778397,9.0827384 4.8368647,9.21875 4.7534056,9.21875 4.6444356,9.21875 4.5082087,9.1634144 4.4326281,9.0884497 4.3834706,9.0396925 3.9232653,8.3818081 3.8069506,8.1940153 3.6717531,7.975735 3.2851191,7.2112209 3.1873031,6.96875 3.1491681,6.8742187 3.0868477,6.7265625 3.0488133,6.640625 3.0107789,6.5546875 2.9564426,6.4070312 2.928066,6.3125 2.8996894,6.2179687 2.8347787,6.0070312 2.78382,5.84375 2.6533419,5.4256737 2.5254598,4.7765431 2.4636867,4.21875 2.4174331,3.8010941 2.4210789,3.2934525 2.4748909,2.6586771 2.5327859,1.9757383 2.5442849,1.96875 3.6101294,1.96875 c 0.659665,0 0.6727093,-0.00126 0.726114,-0.070312 C 4.4290272,1.7784732 5.0092019,1.2068819 5.1353903,1.1111139 5.4220994,0.89352187 5.661655,0.75728437 5.984375,0.62828844 6.5590628,0.39857728 6.7569391,0.37636337 8.2351947,0.37560756 9.5579691,0.37493131 9.8192691,0.3957045 10.25,0.53578384 10.626468,0.658216 11.080268,0.87637819 11.134365,0.9609375 11.14811,0.98242188 11.176617,1 11.197713,1 c 0.0211,0 0.08455,0.042188 0.141001,0.09375 0.05645,0.051562 0.112322,0.094125 0.124152,0.094583 0.02647,0.00103 0.693384,0.6701873 0.693384,0.695719 0,0.010087 0.04219,0.06453 0.09375,0.1209833 0.05156,0.056454 0.09375,0.1210442 0.09375,0.1435345 0,0.02249 0.02109,0.048986 0.04687,0.058879 0.02578,0.00989 0.04687,0.029841 0.04687,0.044328 0,0.014487 0.04219,0.08885 0.09375,0.1652511 0.05156,0.076401 0.09375,0.1534454 0.09375,0.1712095 0,0.017764 0.01824,0.050881 0.04053,0.073593 0.05659,0.057664 0.315446,0.5966788 0.395019,0.8225447 0.03633,0.103125 0.07779,0.215625 0.09213,0.25 0.01434,0.034375 0.05063,0.146875 0.08064,0.25 0.03002,0.103125 0.06523,0.215625 0.07825,0.25 0.02689,0.070959 0.135762,0.6097178 0.189456,0.9375 0.01971,0.1203125 0.04319,0.5492187 0.05219,0.953125 0.01289,0.5786253 0.0051,0.8271622 -0.03677,1.171875 -0.05076,0.4180534 -0.142901,0.9246984 -0.204597,1.125 -0.06485,0.2105328 -0.156495,0.4786472 -0.21898,0.640625 -0.03647,0.094531 -0.07839,0.2107675 -0.09317,0.2583028 -0.03086,0.099276 -0.270888,0.5794506 -0.370754,0.7416971 -0.03703,0.06016 -0.0758,0.133984 -0.08615,0.164063 -0.01036,0.03008 -0.02955,0.05469 -0.04265,0.05469 -0.0131,0 -0.04129,0.04219 -0.06265,0.09375 -0.02136,0.05156 -0.05119,0.09375 -0.06629,0.09375 -0.0151,0 -0.02746,0.02109 -0.02746,0.04687 0,0.02578 -0.01219,0.04687 -0.0271,0.04687 -0.0149,0 -0.06419,0.05606 -0.109533,0.124568 -0.103296,0.156091 -0.577592,0.639945 -0.785245,0.801068 l -0.15625,0.121239 -1.140625,0.0064 c -0.6273437,0.0035 -1.1707872,-0.006 -1.2076522,-0.02122 z m 2.3263362,-0.461751 c 0.145739,-0.117926 0.409093,-0.380724 0.55586,-0.554688 0.131038,-0.15532 0.356706,-0.481216 0.356706,-0.515132 0,-0.01746 0.01308,-0.03174 0.02906,-0.03174 0.01598,0 0.06167,-0.066797 0.101533,-0.1484375 0.03986,-0.081641 0.07952,-0.1554688 0.08813,-0.1640625 0.03263,-0.032567 0.156449,-0.2985859 0.156366,-0.3359375 -6.3e-5,-0.021484 0.01162,-0.039063 0.02592,-0.039063 0.0143,0 0.04117,-0.045703 0.05971,-0.1015625 0.01854,-0.055859 0.06364,-0.1789063 0.100234,-0.2734375 0.114555,-0.2959547 0.189047,-0.5270647 0.189047,-0.5865141 0,-0.03148 0.01244,-0.070595 0.02764,-0.086923 C 12.975,8.2511564 13.08561,7.6674344 13.143804,7.1875 13.200544,6.7195447 13.190674,5.6700438 13.125724,5.265625 13.065076,4.8880269 12.99784,4.5532147 12.946867,4.375 12.857232,4.0616119 12.655247,3.4861644 12.592782,3.3662253 12.55894,3.3012428 12.53125,3.2274147 12.53125,3.2021628 c 0,-0.025252 -0.01113,-0.045913 -0.02474,-0.045913 -0.01361,0 -0.0457,-0.045703 -0.07133,-0.1015625 -0.08186,-0.1784687 -0.231269,-0.4449615 -0.255496,-0.4557292 -0.01289,-0.00573 -0.02344,-0.029167 -0.02344,-0.052083 0,-0.022917 -0.01072,-0.046354 -0.02383,-0.052083 C 12.119313,2.4890625 12.053687,2.4070313 11.986586,2.3125 11.517476,1.6516282 10.840748,1.1333711 10.15625,0.91077766 9.7300984,0.77219653 9.4629897,0.74992606 8.2351947,0.75060756 6.6623378,0.75148063 6.3978144,0.79913147 5.6875,1.2095451 5.3718447,1.3919281 4.9155516,1.8000382 4.6492322,2.1381754 4.5772372,2.2295849 4.4892872,2.305245 4.4418072,2.3166152 4.3964694,2.3274723 4.0570312,2.3382112 3.6875,2.3404794 c -0.3695312,0.00227 -0.7011982,0.011997 -0.7370376,0.02162 -0.058845,0.0158 -0.068647,0.054386 -0.1011089,0.3980108 -0.067025,0.7095001 -0.043316,1.3414258 0.073485,1.9586395 0.1011949,0.5347437 0.145707,0.7417587 0.1881419,0.875 0.1638748,0.5145503 0.3386792,1.0273719 0.3728245,1.09375 0.022103,0.042969 0.06191,0.1273437 0.088459,0.1875 0.1305112,0.29572 0.4527784,0.9319347 0.490709,0.96875 0.00885,0.00859 0.04401,0.075229 0.078125,0.1480791 0.034115,0.07285 0.069801,0.1326153 0.079302,0.1328125 0.0095,1.875e-4 0.100165,0.1269209 0.2014741,0.2816084 0.1013091,0.1546875 0.1954878,0.28125 0.2092866,0.28125 0.013799,0 0.025088,0.015067 0.025088,0.033482 0,0.018415 0.020802,0.054284 0.046227,0.079709 0.040802,0.040802 0.067607,0.034384 0.2284256,-0.054704 L 5.1131016,8.6450559 5.1677862,8.2522156 c 0.030077,-0.2160625 0.073696,-0.4631531 0.096932,-0.5490906 0.023236,-0.085937 0.051747,-0.2159419 0.063358,-0.2888988 0.011612,-0.072957 0.033951,-0.1405837 0.049643,-0.1502818 0.015692,-0.0097 0.028531,-0.063209 0.028531,-0.1189138 0,-0.055704 0.012748,-0.11464 0.02833,-0.1309681 C 5.4501609,6.9977344 5.5151063,6.8296875 5.5789025,6.640625 5.6426991,6.4515625 5.7130278,6.2617187 5.7351887,6.21875 5.7573497,6.1757812 5.8179178,6.0492187 5.8697847,5.9375 6.1230903,5.3918919 6.16439,5.3125 6.1949103,5.3125 c 0.013112,0 0.02384,-0.016122 0.02384,-0.035828 0,-0.019706 0.047364,-0.1075963 0.1052531,-0.1953125 0.057889,-0.087717 0.1150869,-0.1911253 0.127106,-0.2297972 0.012019,-0.038672 0.034967,-0.070312 0.050997,-0.070312 0.016029,0 0.029144,-0.021094 0.029144,-0.046875 0,-0.025781 0.012411,-0.046875 0.027579,-0.046875 0.015169,0 0.087133,-0.091406 0.1599206,-0.203125 0.072787,-0.1117188 0.1447519,-0.203125 0.1599206,-0.203125 0.015169,0 0.027579,-0.021094 0.027579,-0.046875 0,-0.025781 0.011031,-0.046875 0.024512,-0.046875 0.013482,0 0.04777,-0.038672 0.076196,-0.085937 C 7.0920753,3.9600362 7.7130125,3.3077094 7.9514031,3.109375 8.0340378,3.040625 8.1234669,2.9632812 8.1501341,2.9375 8.1768012,2.9117187 8.2472703,2.8519531 8.3067322,2.8046875 8.3661937,2.7574219 8.4013069,2.71875 8.3847613,2.71875 8.3682156,2.71875 8.2995553,2.6426871 8.2321828,2.5497213 8.0875466,2.3501415 8.0680081,2.3445971 7.5075478,2.3440939 7.1323319,2.3437571 7.1252712,2.3424674 7.1635022,2.28125 c 0.021467,-0.034375 0.050504,-0.0625 0.064527,-0.0625 0.014022,0 0.063373,-0.039604 0.1096704,-0.088009 0.099395,-0.1039218 0.3331682,-0.286991 0.3664773,-0.286991 0.012819,0 0.038921,-0.020225 0.058003,-0.044945 0.019082,-0.02472 0.1319231,-0.094258 0.2507575,-0.1545281 0.2106306,-0.1068277 0.2188797,-0.1083761 0.328125,-0.061592 0.061634,0.026395 0.1331563,0.056113 0.1589375,0.066039 0.025781,0.00993 0.1056588,0.057868 0.1775056,0.1065372 0.071847,0.048669 0.1374972,0.088489 0.1458903,0.088489 0.073562,0 0.6938094,0.6281251 0.8807091,0.8918953 0.084755,0.1196138 0.1649097,0.2221672 0.1781222,0.2278964 0.013212,0.00573 0.024023,0.036198 0.024023,0.067708 0,0.03151 0.013168,0.061979 0.029263,0.067708 0.036683,0.013058 0.3457369,0.6354961 0.3457369,0.6963183 0,0.024632 0.01363,0.053208 0.03028,0.063502 0.0528,0.03263 0.295226,0.8466453 0.344531,1.1568466 0.01366,0.085937 0.04277,0.2476563 0.06468,0.359375 0.05455,0.2781122 0.0543,1.6368006 -3.54e-4,1.890625 -0.0222,0.103125 -0.05069,0.2578125 -0.06331,0.34375 -0.04147,0.2824719 -0.298274,1.1588813 -0.348704,1.1900488 -0.01492,0.00922 -0.02713,0.049919 -0.02713,0.090441 0,0.040522 -0.01055,0.078364 -0.02344,0.084093 -0.01289,0.00573 -0.05791,0.08776 -0.100042,0.1822916 -0.04213,0.094531 -0.115961,0.2323456 -0.1640626,0.3062541 -0.048102,0.073908 -0.087458,0.1406547 -0.087458,0.1483247 0,0.026031 -0.3218866,0.4672331 -0.3485235,0.4777131 -0.014562,0.0057 -0.026477,0.02283 -0.026477,0.038 0,0.02945 -0.356715,0.389559 -0.5401929,0.545336 l -0.1104206,0.09375 0.097959,0.242188 0.097959,0.242187 h 1.0111506 1.011151 l 0.144827,-0.117187 z"
       id="path819"
       inkscape:connector-curvature="0" />
  </g>
</svg>
