<?xml version="1.0" encoding="UTF-8" standalone="no"?>
<!-- Created with Inkscape (http://www.inkscape.org/) -->

<svg
   xmlns:dc="http://purl.org/dc/elements/1.1/"
   xmlns:cc="http://creativecommons.org/ns#"
   xmlns:rdf="http://www.w3.org/1999/02/22-rdf-syntax-ns#"
   xmlns:svg="http://www.w3.org/2000/svg"
   xmlns="http://www.w3.org/2000/svg"
   xmlns:sodipodi="http://sodipodi.sourceforge.net/DTD/sodipodi-0.dtd"
   xmlns:inkscape="http://www.inkscape.org/namespaces/inkscape"
   version="1.1"
   id="svg2"
   width="16"
   height="16"
   viewBox="0 0 16 16"
   sodipodi:docname="UNDO.svg"
   inkscape:version="0.92.4 (5da689c313, 2019-01-14)">
  <metadata
     id="metadata8">
    <rdf:RDF>
      <cc:Work
         rdf:about="">
        <dc:format>image/svg+xml</dc:format>
        <dc:type
           rdf:resource="http://purl.org/dc/dcmitype/StillImage" />
        <dc:title></dc:title>
      </cc:Work>
    </rdf:RDF>
  </metadata>
  <defs
     id="defs6" />
  <sodipodi:namedview
     pagecolor="#ffffff"
     bordercolor="#666666"
     borderopacity="1"
     objecttolerance="10"
     gridtolerance="10"
     guidetolerance="10"
     inkscape:pageopacity="0"
     inkscape:pageshadow="2"
     inkscape:window-width="828"
     inkscape:window-height="608"
     id="namedview4"
     showgrid="false"
     inkscape:zoom="14.75"
     inkscape:cx="8"
     inkscape:cy="8"
     inkscape:window-x="0"
     inkscape:window-y="0"
     inkscape:window-maximized="0"
     inkscape:current-layer="svg2" />
  <g
     id="UNDO">
    <path
       style="fill:#ffffff;stroke-width:0.03125"
       d="M 0,8 V 0 h 8 8 v 8 8 H 8 0 Z m 12.324875,7.469986 c 0.209929,-0.07981 0.978886,-0.812035 1.314312,-1.251521 0.706002,-0.925027 1.284537,-2.202331 1.542678,-3.405965 0.181957,-0.8484131 0.24001,-1.4266494 0.24001,-2.390625 0,-1.41948 -0.1777,-2.4488234 -0.639322,-3.7033319 C 14.647473,4.3514481 14.413982,3.84176 14.293363,3.6506869 14.251427,3.5842556 14.174895,3.4493466 14.123292,3.3508887 13.852352,2.8339373 13.242649,2.1084562 12.691042,1.6466646 12.060735,1.1189869 11.464618,0.81224938 10.65625,0.59964206 10.359805,0.52167472 10.356808,0.52154241 8.5873388,0.50831975 6.7326,0.49445991 6.3453591,0.511146 5.9320319,0.62273569 5.5340575,0.73018041 5.0872653,0.90135503 4.9058178,1.0158978 4.8379887,1.0587165 4.7726947,1.09375 4.7607206,1.09375 4.7272759,1.09375 4.4184591,1.3062877 4.140625,1.52052 3.9139431,1.6953096 3.3277959,2.2716357 3.1200072,2.5240368 L 3.0368894,2.625 H 2.1449828 c -0.99061,0 -1.15731824,0.020364 -1.31741349,0.1609299 C 0.68896556,2.9076256 0.66787112,2.9895913 0.62771394,3.5625 0.54850187,4.6925906 0.58916784,5.6769269 0.74907106,6.5 0.93086944,7.4357744 0.90246025,7.322465 1.1643299,8.15625 1.5073898,9.2485422 2.1232232,10.512804 2.7714038,11.455457 3.3055984,12.232339 3.3892125,12.30336 3.7358219,12.274616 3.9280722,12.258673 4.3554066,12.033659 4.51916,11.862147 4.6286941,11.747423 4.6875525,11.524421 4.750835,10.984375 4.7968125,10.592009 5.0110928,9.7396763 5.2025775,9.1875 5.4275481,8.5387619 5.7927287,7.7604769 6.1629956,7.140625 6.5122869,6.5558875 6.5302619,6.5291559 6.9729284,5.9361247 7.2930694,5.5072381 7.9139312,4.8335203 8.2271534,4.5751228 8.7200275,4.1685191 8.9468703,3.9539569 8.9880372,3.85543 9.0379788,3.7359031 9.0439588,3.5687453 9.0022206,3.4589656 8.9506156,3.3232347 8.4606466,2.7415123 8.3686956,2.7068047 8.2786019,2.6727981 8.2507137,2.625 8.3209659,2.625 c 0.071325,0 0.5015191,0.2716568 0.7590875,0.4793445 0.2444522,0.1971114 0.6101135,0.594048 0.7818097,0.8486783 0.04632,0.068694 0.1174435,0.1684584 0.1580529,0.2216997 0.04061,0.053241 0.07383,0.1097884 0.07383,0.1256606 0,0.015872 0.0373,0.083757 0.0829,0.1508563 0.192337,0.2830503 0.477542,0.9314006 0.640049,1.4550106 0.453292,1.4605394 0.508355,2.9552775 0.163471,4.4375 -0.351324,1.509898 -1.0476375,2.717595 -2.0250841,3.512339 -0.1653443,0.134439 -0.2658487,0.318954 -0.2668997,0.49 -0.0012,0.195994 0.2512785,0.849711 0.3837222,0.993518 0.1444513,0.156844 0.1554235,0.157862 1.7151196,0.15917 0.860176,7.22e-4 1.491301,-0.0111 1.537847,-0.02879 z"
       id="path827"
       inkscape:connector-curvature="0" />
    <path
       style="fill:#cbfefe;stroke-width:0.03125"
       d="M 3.5997506,11.726768 C 3.237945,11.22196 2.8524541,10.645646 2.7552608,10.464243 2.6875223,10.337816 2.5808449,10.142969 2.5181999,10.03125 2.4050717,9.8295016 2.2547196,9.5220519 2.1667097,9.3125 2.1414445,9.2523438 2.1084295,9.175 2.0933429,9.140625 2.0782563,9.10625 2.0362519,9.0078125 2,8.921875 1.9637481,8.8359375 1.9215606,8.7375 1.90625,8.703125 1.7897011,8.4414513 1.75,8.3429116 1.75,8.3153066 1.75,8.2977769 1.7305014,8.2231772 1.7066697,8.1495297 1.4549377,7.3715962 1.4179223,7.2427522 1.3584676,6.9375 1.3333602,6.8085937 1.2841318,6.5554687 1.2490711,6.375 1.0962118,5.5881847 1.056947,4.6909134 1.1305809,3.6672891 L 1.166878,3.1627028 1.2787515,3.1441953 C 1.3402819,3.1340163 1.7773437,3.1253784 2.25,3.125 2.7226563,3.1246216 3.1624003,3.1155485 3.2272088,3.1048374 3.3256581,3.0885663 3.3717716,3.051352 3.5075231,2.8786188 3.8295681,2.4688417 4.454985,1.8906522 4.796875,1.6866305 4.865625,1.6456042 4.9265625,1.6008913 4.9322916,1.5872686 4.9380209,1.5736459 4.9575594,1.5625 4.9757103,1.5625 c 0.018151,0 0.097839,-0.038947 0.1770835,-0.08655 C 5.3645416,1.3487526 5.7446566,1.2030591 6.1194869,1.1054282 6.4402019,1.0218925 6.8612244,1.0010883 8.15625,1.0047847 c 0.8121078,0.00232 1.2105275,0.012743 1.0658741,0.02789 C 8.7953616,1.0773612 8.1697306,1.2780565 7.8402938,1.4759501 7.7610491,1.5235525 7.6801897,1.5625 7.6606062,1.5625 c -0.019583,0 -0.035621,0.010547 -0.035638,0.023437 -1.75e-5,0.012891 -0.073846,0.064512 -0.1640625,0.1147131 -0.090217,0.050202 -0.1710619,0.099897 -0.1796556,0.1104347 -0.00859,0.010537 -0.085937,0.07469 -0.171875,0.1425604 C 6.8779737,2.1363991 6.3779831,2.6418382 6.1902241,2.8828125 6.0998284,2.9988281 6.030595,3.0962 6.0363719,3.0991943 c 0.00578,0.00299 0.455845,0.013541 1.0001522,0.023437 0.5443068,0.0099 1.000555,0.028929 1.0138846,0.042294 0.013329,0.013366 -0.031231,0.069545 -0.099024,0.1248422 -0.067793,0.055297 -0.1521331,0.1287369 -0.1874225,0.1631988 -0.03529,0.034462 -0.1407585,0.125534 -0.234375,0.2023831 C 7.3312162,3.8181906 7.1104956,4.0382522 6.890625,4.2924053 6.6817509,4.5338466 6.6350269,4.5866012 6.4601094,4.7784837 6.3780134,4.8685425 6.2869319,4.979835 6.2577062,5.0258009 6.2284806,5.0717666 6.1970228,5.1164062 6.1878,5.125 6.1785772,5.1335937 6.1149709,5.2247606 6.0464531,5.3275928 5.9083909,5.5347975 5.9002641,5.5460809 5.8119206,5.6532191 5.7778644,5.6945209 5.75,5.7380722 5.75,5.75 5.75,5.761928 5.725391,5.800652 5.695313,5.836054 5.5785256,5.9735109 5.4729656,6.1441072 5.3231541,6.4375 5.2748847,6.5320312 5.1978856,6.6744256 5.1520447,6.7539322 4.9551109,7.0954941 4.877225,7.2463097 4.7990297,7.4375 4.7533372,7.5492187 4.7032875,7.66875 4.6878078,7.703125 4.6723278,7.7375 4.6300019,7.8359375 4.59375,7.921875 4.5574981,8.0078125 4.5153106,8.10625 4.5,8.140625 4.3743444,8.4227447 4.34375,8.5046528 4.34375,8.5589413 c 0,0.034303 -0.012468,0.070076 -0.027707,0.079494 C 4.300804,8.6478553 4.278442,8.7084493 4.26635,8.7730919 4.2542572,8.8377353 4.2050775,9.0101563 4.1570616,9.15625 4.0462603,9.4933725 3.98064,9.73182 3.9549631,9.890625 3.9318494,10.033576 3.8536453,10.400723 3.8118503,10.5625 c -0.015541,0.06016 -0.049133,0.327621 -0.074649,0.594367 -0.025515,0.266745 -0.058028,0.516447 -0.07225,0.554892 -0.024115,0.06519 -0.028512,0.0662 -0.065201,0.01501 z"
       id="path825"
       inkscape:connector-curvature="0" />
    <path
       style="fill:#98cbfe;stroke-width:0.03125"
       d="m 9.21875,14.31675 c 0,-0.01485 0.053659,-0.06419 0.1192419,-0.109634 0.1753325,-0.121506 0.6598459,-0.625144 0.8606441,-0.894616 0.09606,-0.128906 0.18617,-0.248437 0.200255,-0.265625 0.154622,-0.188683 0.757359,-1.367887 0.757359,-1.481709 0,-0.01912 0.0135,-0.05918 0.03,-0.08903 0.0165,-0.02984 0.06681,-0.180825 0.111797,-0.335513 0.04499,-0.154687 0.09387,-0.316406 0.108634,-0.359375 0.02744,-0.07988 0.06667,-0.25331 0.144906,-0.640625 0.192115,-0.9510637 0.201322,-2.322235 0.02224,-3.3125 C 11.495459,6.3947678 11.280187,5.5786791 11.186393,5.359375 11.171691,5.325 11.13077,5.2308497 11.095456,5.1501519 11.060143,5.0694544 11.03125,4.9943041 11.03125,4.9831516 11.03125,4.9669709 10.810683,4.51591 10.641027,4.1851419 10.624061,4.1520637 10.599452,4.125 10.58634,4.125 10.57323,4.125 10.5625,4.105731 10.5625,4.08218 10.5625,4.043393 10.41834,3.8291781 10.157426,3.4802585 9.9905844,3.2571425 9.62974,2.8858825 9.3963778,2.6972435 9.2729013,2.5974309 9.1648437,2.5079607 9.15625,2.4984209 9.1476563,2.4888811 9.084375,2.4474042 9.015625,2.40625 8.946875,2.3650958 8.8835937,2.3230576 8.875,2.3128319 8.8664063,2.3026062 8.7448178,2.2366627 8.6048034,2.166291 8.3160997,2.0211875 8.3152066,2.0239458 8.6875,1.9109227 9.0821163,1.7911226 9.2625403,1.765613 9.703125,1.7673266 c 0.442742,0.00172 0.620938,0.030681 1.056425,0.1716837 0.175453,0.056808 0.771187,0.3335533 0.80295,0.3730063 0.0086,0.010674 0.07188,0.053079 0.140625,0.094233 0.06875,0.041154 0.132031,0.082631 0.140625,0.092171 0.0086,0.00954 0.115621,0.098167 0.237837,0.1969489 0.223074,0.1802992 0.560344,0.5253696 0.72104,0.7377146 0.04736,0.062585 0.0975,0.1278531 0.111429,0.1450406 0.112349,0.1386853 0.287952,0.3945456 0.332437,0.484375 0.06551,0.132285 0.138284,0.2599719 0.160295,0.28125 0.03337,0.032256 0.305439,0.6143691 0.343236,0.734375 0.02165,0.06875 0.0499,0.1390625 0.06276,0.15625 0.01286,0.017188 0.05464,0.1296875 0.09284,0.25 0.0382,0.1203125 0.08152,0.246875 0.09627,0.28125 0.01475,0.034375 0.05638,0.1820312 0.09251,0.328125 0.03613,0.1460938 0.07755,0.3078125 0.09202,0.359375 0.01448,0.051563 0.04292,0.2132812 0.06319,0.359375 0.02028,0.1460938 0.05063,0.321875 0.06744,0.390625 0.04709,0.1925059 0.07046,1.7631469 0.03162,2.125 -0.06613,0.6161294 -0.149986,1.0793283 -0.274373,1.5156253 -0.07152,0.250879 -0.228962,0.71903 -0.280084,0.832848 -0.02433,0.05416 -0.04423,0.109876 -0.04423,0.123813 0,0.0778 -0.572601,1.146238 -0.670145,1.250447 -0.01814,0.01938 -0.05407,0.06681 -0.07986,0.105392 -0.02578,0.03859 -0.0614,0.08601 -0.07915,0.105392 -0.01775,0.01938 -0.06603,0.08445 -0.107292,0.144608 -0.110505,0.161123 -0.583638,0.641578 -0.787744,0.799932 l -0.177314,0.137568 h -1.314873 c -0.7231809,0 -1.314874,-0.01215 -1.314874,-0.027 z"
       id="path823"
       inkscape:connector-curvature="0" />
    <path
       style="fill:#003265;stroke-width:0.03125"
       d="M 9.3646694,14.804688 C 9.3194556,14.697266 9.2617197,14.549609 9.2363675,14.476563 L 9.1902725,14.34375 h 1.3291125 1.329112 l 0.177314,-0.137568 c 0.204106,-0.158354 0.677239,-0.638809 0.787744,-0.799932 0.04126,-0.06016 0.08954,-0.12523 0.107292,-0.144608 0.01775,-0.01938 0.05337,-0.06681 0.07915,-0.105392 0.02578,-0.03859 0.06172,-0.08601 0.07986,-0.105392 0.09754,-0.104209 0.670145,-1.172646 0.670145,-1.250447 0,-0.01394 0.0199,-0.06965 0.04423,-0.123813 0.05112,-0.113818 0.20856,-0.581969 0.280084,-0.832848 0.124387,-0.436297 0.208239,-0.8994956 0.274373,-1.515625 0.03884,-0.3618531 0.01547,-1.9324941 -0.03162,-2.125 C 14.300249,7.134375 14.2699,6.9585938 14.249624,6.8125 14.229347,6.6664062 14.200911,6.5046875 14.186432,6.453125 14.171953,6.4015625 14.130541,6.2398438 14.094407,6.09375 14.058273,5.9476562 14.016642,5.8 14.001893,5.765625 c -0.01475,-0.034375 -0.05807,-0.1609375 -0.09627,-0.28125 -0.0382,-0.1203125 -0.07998,-0.2328125 -0.09284,-0.25 -0.01286,-0.017188 -0.04111,-0.0875 -0.06276,-0.15625 C 13.712227,4.9581191 13.440156,4.3760062 13.406788,4.34375 13.384777,4.3224719 13.312004,4.194785 13.246493,4.0625 13.202008,3.9726706 13.026405,3.7168103 12.914056,3.578125 12.900132,3.5609375 12.849989,3.4956691 12.802627,3.4330844 12.641931,3.2207394 12.304661,2.875669 12.081587,2.6953697 11.959371,2.5965877 11.852344,2.5079607 11.84375,2.4984209 11.835156,2.4888811 11.771875,2.4474042 11.703125,2.40625 11.634375,2.3650958 11.571094,2.3226908 11.5625,2.3120166 11.530737,2.2725636 10.935003,1.9958184 10.75955,1.9390103 10.324063,1.798008 10.145867,1.7690486 9.703125,1.7673266 9.1169869,1.7650469 8.6887563,1.8626022 8.1572469,2.1194933 8.026575,2.1826502 7.6842428,2.3769954 7.640625,2.4127844 7.6234375,2.426887 7.5390625,2.4905463 7.453125,2.5542494 7.2776878,2.6842961 7.1465916,2.7974585 6.9457831,2.9921875 L 6.8088241,3.125 H 6.5176931 C 6.3575713,3.125 6.1827794,3.11624 6.1292666,3.105541 L 6.0319706,3.0860816 6.193275,2.8789783 C 6.3783512,2.6413536 6.8793203,2.1353356 7.109375,1.9536457 7.1953125,1.8857749 7.2726562,1.8216227 7.28125,1.8110853 7.2898437,1.8005478 7.3706887,1.7508522 7.4609056,1.7006506 7.5511225,1.650449 7.6249506,1.5988281 7.6249681,1.5859375 7.6249856,1.5730469 7.6410228,1.5625 7.6606062,1.5625 7.6801892,1.5625 7.7610491,1.523553 7.8402937,1.47595 7.9885994,1.386862 8.2121188,1.291223 8.4825203,1.2011541 9.4209394,0.88857312 10.454161,0.9589754 11.369448,1.3978652 c 0.208922,0.1001805 0.472807,0.2551514 0.531222,0.311969 0.02271,0.022091 0.05393,0.040166 0.06938,0.040166 0.0486,0 0.536151,0.4104127 0.76433,0.6434028 0.259153,0.2646171 0.344736,0.361006 0.469224,0.5284722 0.05111,0.06875 0.100222,0.1320312 0.109145,0.140625 0.0089,0.00859 0.07228,0.1 0.140803,0.203125 0.06852,0.103125 0.135125,0.1921875 0.148016,0.1979166 0.01289,0.00573 0.02344,0.024696 0.02344,0.04215 0,0.017453 0.06704,0.1463593 0.148982,0.2864584 0.30627,0.5236519 0.523755,1.0369237 0.743514,1.7547253 0.265081,0.8658328 0.404379,1.856195 0.404379,2.875 0,1.2919303 -0.178858,2.3190005 -0.606781,3.4843755 -0.114904,0.312919 -0.110416,0.302489 -0.302557,0.703125 -0.155511,0.324258 -0.381125,0.73843 -0.417063,0.765625 -0.01136,0.0086 -0.05454,0.07188 -0.09595,0.140625 -0.04142,0.06875 -0.0899,0.14209 -0.107725,0.162978 -0.07272,0.08518 -0.101739,0.123788 -0.181698,0.241685 -0.133694,0.197129 -0.611985,0.696621 -0.858226,0.89627 L 12.125617,15 h -1.33937 -1.3393707 z m -5.6959863,-3.09375 c 0.010847,-0.03867 0.04114,-0.288282 0.067316,-0.554688 0.026177,-0.266406 0.06031,-0.533594 0.075851,-0.59375 0.041795,-0.161777 0.1199993,-0.528924 0.143113,-0.671875 C 3.98064,9.73182 4.0462603,9.4933725 4.1570616,9.15625 4.2050775,9.0101563 4.2542572,8.8377353 4.2663494,8.7730922 4.2784416,8.7084494 4.3008034,8.6478538 4.3160425,8.6384356 4.3312816,8.6290172 4.34375,8.5932447 4.34375,8.5589413 4.34375,8.5046528 4.3743444,8.4227447 4.5,8.140625 4.5153106,8.10625 4.5574981,8.0078125 4.59375,7.921875 4.6300019,7.8359375 4.6723278,7.7375 4.6878078,7.703125 4.7032875,7.66875 4.7533372,7.5492187 4.7990297,7.4375 4.877225,7.2463097 4.9551109,7.0954941 5.1520447,6.7539322 5.1978856,6.6744256 5.2748847,6.5320312 5.3231541,6.4375 5.4729656,6.1441072 5.5785256,5.9735109 5.6953125,5.8360537 5.7253906,5.8006519 5.75,5.7619278 5.75,5.75 5.75,5.738072 5.777864,5.694521 5.811921,5.653219 5.9002641,5.5460809 5.9083909,5.5347975 6.0464531,5.3275928 6.1149709,5.2247606 6.1785772,5.1335937 6.1878,5.125 6.19702,5.11641 6.228481,5.071767 6.257706,5.025801 6.2869319,4.979835 6.3780134,4.8685425 6.4601094,4.7784837 6.6350269,4.5866012 6.6817509,4.5338466 6.890625,4.2924053 7.1104956,4.0382522 7.3312162,3.8181906 7.5295872,3.6553503 7.6232037,3.5785012 7.7293578,3.4875 7.765485,3.453125 7.9150603,3.3108034 8.1002209,3.1563391 8.1197347,3.1576031 8.1312244,3.1583469 8.2179687,3.2632072 8.3125,3.390625 8.4070312,3.5180428 8.4969753,3.6229025 8.5123756,3.6236469 8.5421281,3.6250844 8.4841903,3.680425 8.2165084,3.90625 7.8780922,4.1917487 7.5776734,4.4521372 7.5620503,4.4735031 7.5489384,4.4914353 7.0209859,5.0616522 6.84375,5.2493066 6.8179688,5.2766034 6.7551116,5.3547231 6.7040675,5.4229059 6.6530234,5.4910891 6.5998956,5.5609375 6.5860059,5.578125 6.5489366,5.6239959 6.2421519,6.0448166 6.1875,6.1247609 6.1434966,6.1891287 6.0736797,6.2791853 6.0005794,6.3658684 5.9830731,6.3866275 5.96875,6.4129716 5.96875,6.4244109 c 0,0.011439 -0.065322,0.1280488 -0.14516,0.2591316 C 5.7437519,6.8146253 5.6434916,6.9851562 5.6007894,7.0625 5.5580869,7.1398437 5.5058856,7.2242187 5.4847859,7.25 5.4636866,7.2757812 5.4076394,7.38125 5.3602362,7.484375 5.3128334,7.5875 5.2279116,7.7703125 5.1715209,7.890625 4.9627759,8.3359956 4.875,8.5364438 4.875,8.56777 4.875,8.585458 4.855143,8.644242 4.830874,8.6984022 4.806605,8.7525622 4.7479763,8.9164063 4.7005884,9.0625 4.6532006,9.2085938 4.6043684,9.3421875 4.5920728,9.359375 4.5797772,9.3765625 4.5599078,9.4398438 4.5479188,9.5 4.5359294,9.5601563 4.5131397,9.6515625 4.497275,9.703125 4.4119872,9.9803181 4.3007338,10.492644 4.2631559,10.78125 c -0.023498,0.180469 -0.058848,0.420016 -0.078556,0.532327 l -0.035833,0.204203 -0.2259457,0.131735 c -0.1242703,0.07245 -0.2367265,0.131735 -0.2499031,0.131735 -0.013177,0 -0.015082,-0.03164 -0.00423,-0.07031 z"
       id="path821"
       inkscape:connector-curvature="0" />
    <path
       style="fill:#323232;stroke-width:0.03125"
       d="M 9.234375,15.455886 C 9.1828125,15.432969 9.1097025,15.380643 9.0719084,15.339607 8.9394647,15.1958 8.6869822,14.542082 8.6881862,14.346089 c 0.00105,-0.171046 0.1015554,-0.355561 0.2668997,-0.49 0.5696597,-0.46318 1.0284894,-1.041686 1.3916531,-1.754639 1.027784,-2.017717 1.134269,-4.6027175 0.277729,-6.742075 -0.127057,-0.3173481 -0.34052,-0.7502325 -0.447818,-0.9081356 -0.0456,-0.067099 -0.0829,-0.1349841 -0.0829,-0.1508563 0,-0.015872 -0.03323,-0.07242 -0.07383,-0.1256606 C 9.9793066,4.1214812 9.9081828,4.0217166 9.8618631,3.9530228 9.6901669,3.6983925 9.3245056,3.3014559 9.0800534,3.1043445 8.822485,2.8966568 8.3922906,2.625 8.3209659,2.625 c -0.070252,0 -0.042364,0.047798 0.04773,0.081805 0.091951,0.034708 0.58192,0.61643 0.633525,0.7521609 C 9.0439588,3.5687453 9.0379788,3.7359031 8.9880372,3.85543 8.9468703,3.9539569 8.7200275,4.1685191 8.2271534,4.5751228 7.9139313,4.8335203 7.2930694,5.5072381 6.9729284,5.9361247 6.5302619,6.5291559 6.5122869,6.5558875 6.1629956,7.140625 5.7927288,7.7604769 5.4275481,8.5387619 5.2025775,9.1875 5.0110928,9.7396763 4.7968125,10.592009 4.750835,10.984375 4.6875525,11.524421 4.6286941,11.747423 4.51916,11.862147 4.3554066,12.033659 3.9280722,12.258673 3.7358219,12.274616 3.3892125,12.30336 3.3055984,12.232339 2.7714038,11.455457 2.1232232,10.512804 1.5073898,9.2485422 1.1643299,8.15625 0.94438503,7.4559522 0.91379628,7.3465684 0.85846759,7.0625 0.83336022,6.9335937 0.78413178,6.6804687 0.74907106,6.5 0.58916784,5.6769269 0.54850187,4.6925906 0.62771394,3.5625 0.66787112,2.9895913 0.68896556,2.9076256 0.82756931,2.7859299 0.98766456,2.6453644 1.1543728,2.625 2.1449828,2.625 H 3.0368894 L 3.1200072,2.5240368 C 3.3277959,2.2716357 3.9139431,1.6953096 4.140625,1.52052 4.4184591,1.3062877 4.7272759,1.09375 4.7607206,1.09375 c 0.011974,0 0.077268,-0.035033 0.1450972,-0.077852 C 5.0872653,0.90135503 5.5340575,0.73018041 5.9320319,0.62273569 6.3453591,0.51114594 6.7326,0.49445991 8.5873388,0.50831975 c 1.7694692,0.0132227 1.7724662,0.013355 2.0689112,0.0913223 0.808368,0.21260732 1.404485,0.51934485 2.034792,1.04702255 0.551607,0.4617916 1.16131,1.1872727 1.43225,1.7042242 0.0516,0.098458 0.128135,0.2333668 0.170071,0.2997981 0.365423,0.5788665 0.816122,1.8961993 0.985528,2.8805631 0.188696,1.0964525 0.195198,2.6646834 0.01535,3.703125 -0.268898,1.552642 -0.829758,2.902756 -1.655057,3.98409 -0.335426,0.439486 -1.104383,1.171706 -1.314312,1.251521 -0.04655,0.0177 -0.677671,0.02951 -1.537847,0.02879 -1.1459405,-9.63e-4 -1.4790142,-0.01016 -1.552653,-0.04289 z m 3.117496,-0.639328 c 0.246241,-0.199649 0.724532,-0.699141 0.858226,-0.89627 0.07996,-0.117897 0.108981,-0.156501 0.181698,-0.241685 0.01783,-0.02089 0.06631,-0.09423 0.107725,-0.162978 0.04142,-0.06875 0.0846,-0.132031 0.09595,-0.140625 0.05072,-0.03838 0.425206,-0.756874 0.594509,-1.140625 0.08035,-0.182117 0.268698,-0.723568 0.380476,-1.09375 0.217333,-0.71975 0.351416,-1.7570878 0.351416,-2.71875 0,-0.83266 -0.08795,-1.6031247 -0.274678,-2.40625 C 14.562677,5.6520994 14.303018,4.8665284 14.166889,4.5625 14.041192,4.2817712 13.910631,4.0257872 13.773982,3.7921497 13.692042,3.6520506 13.625,3.5231444 13.625,3.5056913 c 0,-0.017453 -0.01055,-0.03642 -0.02344,-0.04215 C 13.588672,3.4578125 13.522065,3.36875 13.453547,3.265625 13.385029,3.1625 13.321668,3.0710938 13.312744,3.0625 13.303821,3.0539062 13.254705,2.990625 13.203599,2.921875 13.079111,2.7544088 12.993528,2.6580199 12.734375,2.3934028 12.506196,2.1604127 12.018646,1.75 11.970045,1.75 11.954605,1.75 11.923385,1.731925 11.900665,1.709834 11.785291,1.5976097 11.318229,1.3578631 10.978823,1.2366424 10.377015,1.0217038 10.392391,1.0231725 8.5887122,1.0083371 6.9345181,0.99473125 6.4754569,1.0127098 6.1212353,1.1049728 5.7446291,1.2030662 5.3649444,1.3485107 5.1527937,1.4759501 5.0735491,1.5235525 4.9938616,1.5625 4.9757103,1.5625 c -0.018151,0 -0.037689,0.011146 -0.043419,0.024769 C 4.9265613,1.600892 4.8656243,1.645605 4.7968747,1.686631 4.4550406,1.8906191 3.8295694,2.4688383 3.5076503,2.8784588 3.3074538,3.1331959 3.3507672,3.1248772 2.2222009,3.1253441 1.7648342,3.1255316 1.3402819,3.1340163 1.2787515,3.1441953 L 1.166878,3.1627028 1.1305809,3.6672891 C 1.056947,4.6909134 1.0962118,5.5881847 1.2490711,6.375 c 0.035061,0.1804687 0.084289,0.4335937 0.1093965,0.5625 0.059455,0.3052522 0.09647,0.4340962 0.3482021,1.2120297 0.023832,0.073647 0.04333,0.1488659 0.04333,0.1671522 0,0.018286 0.020077,0.07756 0.044617,0.1317203 0.024539,0.05416 0.074526,0.1687853 0.1110813,0.2547228 C 1.9422534,8.7890625 1.9846894,8.8875 2,8.921875 2.0153106,8.95625 2.0574981,9.0546875 2.09375,9.140625 2.1944886,9.3794322 2.2067178,9.4069503 2.3090096,9.625 c 0.05241,0.1117188 0.1465453,0.2945313 0.2091903,0.40625 0.062645,0.111719 0.1693224,0.306566 0.2370609,0.432993 0.097178,0.181375 0.4825726,0.757552 0.844342,1.26232 0.021557,0.03008 0.052262,0.05469 0.068233,0.05469 0.015972,0 0.1307143,-0.05928 0.2549846,-0.131735 L 4.1487666,11.51778 4.1845997,11.313577 C 4.2043078,11.201266 4.2396581,10.961719 4.2631559,10.78125 4.3007337,10.492644 4.4119872,9.9803181 4.497275,9.703125 4.5131397,9.6515625 4.5359294,9.5601563 4.5479187,9.5 4.5599078,9.4398438 4.5797772,9.3765625 4.5920728,9.359375 4.6043684,9.3421875 4.6532006,9.2085938 4.7005884,9.0625 4.7479762,8.9164063 4.806605,8.7525622 4.8308741,8.6984022 4.8551434,8.6442422 4.875,8.5854578 4.875,8.56777 4.875,8.5364438 4.9627759,8.3359956 5.1715209,7.890625 5.2279116,7.7703125 5.3128334,7.5875 5.3602362,7.484375 5.4076394,7.38125 5.4636866,7.2757813 5.4847859,7.25 5.5058856,7.2242188 5.5580869,7.1398438 5.6007894,7.0625 5.6434916,6.9851563 5.7437519,6.8146253 5.82359,6.6835425 5.9034278,6.5524597 5.96875,6.4358503 5.96875,6.4244109 c 0,-0.011439 0.014323,-0.037783 0.031829,-0.058542 C 6.0736797,6.2791853 6.1434966,6.1891288 6.1875,6.1247609 6.2421519,6.0448166 6.5489366,5.6239959 6.5860059,5.578125 6.5998956,5.5609375 6.6530234,5.4910891 6.7040675,5.4229059 6.7551116,5.3547231 6.8179687,5.2766034 6.84375,5.2493066 7.0209859,5.0616522 7.5489384,4.4914353 7.5620503,4.4735031 7.5776734,4.4521372 7.8780922,4.1917488 8.2165084,3.90625 8.4841903,3.680425 8.5421281,3.6250847 8.5123756,3.6236469 8.4969753,3.6229025 8.4070312,3.5190894 8.3125,3.3929509 8.1077931,3.1197985 8.12638,3.125 7.3550134,3.125 7.0738184,3.125 6.84375,3.1142387 6.84375,3.101086 c 0,-0.021273 0.1807056,-0.1917169 0.453125,-0.4273923 0.051563,-0.044608 0.15,-0.119476 0.21875,-0.1663739 C 7.584375,2.4604218 7.6476562,2.4142377 7.65625,2.4046883 7.7069334,2.3483691 8.3108094,2.0288345 8.3414153,2.0421404 8.4481259,2.088533 8.8630878,2.2993534 8.875,2.3132267 c 0.00859,0.010009 0.071875,0.051869 0.140625,0.093023 0.06875,0.041154 0.1320313,0.082631 0.140625,0.092171 0.00859,0.00954 0.1166513,0.09901 0.2401278,0.1988226 0.2333622,0.188639 0.5942066,0.559899 0.7610482,0.7830153 0.260914,0.3489196 0.405074,0.5631346 0.405074,0.6019215 0,0.023551 0.01073,0.04282 0.02384,0.04282 0.01311,0 0.03772,0.027064 0.05469,0.060142 0.169656,0.3307681 0.390223,0.781829 0.390223,0.7980097 0,0.011152 0.02889,0.086303 0.06421,0.1670003 0.03531,0.080698 0.07623,0.1748481 0.09094,0.2092231 0.09361,0.2188625 0.308797,1.0343403 0.38758,1.46875 0.172309,0.9501041 0.172471,2.2798466 3.9e-4,3.1874998 -0.06459,0.340688 -0.137436,0.671401 -0.168643,0.765625 -0.01423,0.04297 -0.06268,0.204688 -0.107672,0.359375 -0.04499,0.154688 -0.0953,0.305668 -0.111798,0.335513 -0.0165,0.02984 -0.03,0.06991 -0.03,0.08903 0,0.113822 -0.602737,1.293027 -0.757359,1.481709 -0.01409,0.01719 -0.103834,0.136719 -0.199443,0.265625 -0.161561,0.217827 -0.6772036,0.751682 -0.9100868,0.942231 l -0.1012634,0.08286 0.047182,0.135895 c 0.02595,0.07474 0.084176,0.223785 0.1293894,0.331207 L 9.4468763,15 h 1.3393707 1.33937 z"
       id="path819"
       inkscape:connector-curvature="0" />
  </g>
</svg>
