<?xml version="1.0" encoding="UTF-8" standalone="no"?>
<!-- Created with Inkscape (http://www.inkscape.org/) -->

<svg
   xmlns:dc="http://purl.org/dc/elements/1.1/"
   xmlns:cc="http://creativecommons.org/ns#"
   xmlns:rdf="http://www.w3.org/1999/02/22-rdf-syntax-ns#"
   xmlns:svg="http://www.w3.org/2000/svg"
   xmlns="http://www.w3.org/2000/svg"
   xmlns:sodipodi="http://sodipodi.sourceforge.net/DTD/sodipodi-0.dtd"
   xmlns:inkscape="http://www.inkscape.org/namespaces/inkscape"
   version="1.1"
   id="svg2"
   width="16"
   height="16"
   viewBox="0 0 16 16"
   sodipodi:docname="APPLYSCALE.svg"
   inkscape:version="0.92.4 (5da689c313, 2019-01-14)">
  <metadata
     id="metadata8">
    <rdf:RDF>
      <cc:Work
         rdf:about="">
        <dc:format>image/svg+xml</dc:format>
        <dc:type
           rdf:resource="http://purl.org/dc/dcmitype/StillImage" />
        <dc:title></dc:title>
      </cc:Work>
    </rdf:RDF>
  </metadata>
  <defs
     id="defs6" />
  <sodipodi:namedview
     pagecolor="#ffffff"
     bordercolor="#666666"
     borderopacity="1"
     objecttolerance="10"
     gridtolerance="10"
     guidetolerance="10"
     inkscape:pageopacity="0"
     inkscape:pageshadow="2"
     inkscape:window-width="1095"
     inkscape:window-height="794"
     id="namedview4"
     showgrid="false"
     inkscape:zoom="14.75"
     inkscape:cx="8"
     inkscape:cy="8"
     inkscape:window-x="0"
     inkscape:window-y="0"
     inkscape:window-maximized="0"
     inkscape:current-layer="svg2" />
  <g
     id="APPLYSCALE">
    <path
       style="fill:#ffffff;stroke-width:0.03125"
       d="M 0,8 V 0 h 8 8 v 8 8 H 8 0 Z m 3.5625,6.022501 c 1.3320312,-0.267506 2.47491,-0.495197 2.5397306,-0.505979 0.1405575,-0.02338 0.3275691,-0.17796 0.3867994,-0.319718 0.023221,-0.05558 0.042702,-0.161264 0.043292,-0.234863 l 0.00107,-0.133816 0.241116,-0.107236 c 0.2334594,-0.103832 0.2753497,-0.141226 1.3192406,-1.177668 l 1.078125,-1.070431 0.3562669,0.262266 c 0.1959469,0.144246 0.3963428,0.30066 0.4453247,0.347588 l 0.089057,0.08532 -0.2812614,0.286808 c -0.1546941,0.157744 -0.2828094,0.313311 -0.2847006,0.345704 -0.02254,0.386048 -0.00874,1.32644 0.02059,1.403135 0.051077,0.133561 0.2409791,0.289681 0.3806185,0.312909 0.064821,0.01078 1.2076995,0.23927 2.5397305,0.507751 1.345338,0.271164 2.500748,0.48886 2.599314,0.48975 0.191973,0.0017 0.292163,-0.04989 0.41438,-0.213522 0.06046,-0.08094 0.06442,-0.128024 0.0642,-0.763694 L 15.515161,12.859373 15.009982,10.37193 C 14.732134,9.0038378 14.484541,7.8359937 14.459776,7.7767225 14.435011,7.7174512 14.369871,7.631195 14.315021,7.5850412 l -0.09973,-0.083915 0.109076,-0.09577 c 0.06665,-0.058522 0.12744,-0.1529356 0.156292,-0.2427506 0.02597,-0.080839 0.266731,-1.2476506 0.535027,-2.5929141 l 0.48781,-2.4459339 -0.0096,-0.6534326 C 15.483488,0.75624703 15.478548,0.73634572 15.273834,0.58350481 15.102793,0.45580353 15.025504,0.46668556 12.4375,0.98285456 11.088281,1.2519518 9.9198491,1.4928332 9.8409838,1.5181465 9.6840225,1.5685262 9.5537044,1.6854683 9.5019881,1.8223469 c -0.043652,0.115535 -0.043959,1.2698909 -3.687e-4,1.3865562 0.018078,0.048385 0.15377,0.2098888 0.3015368,0.3588985 L 10.071823,3.8387281 9.981224,3.9195871 C 9.886855,4.0038109 8.5424,5.0105703 8.2149859,5.2421875 8.1117272,5.3152344 8.0149834,5.375 8,5.375 7.9850166,5.375 7.8882728,5.3152344 7.7850141,5.2421875 7.4576,5.0105703 6.113145,4.0038109 6.0187759,3.9195872 L 5.9281766,3.8387281 6.1968437,3.5678016 C 6.3446106,3.4187919 6.4803022,3.2572878 6.4983806,3.2089031 6.5419709,3.0922378 6.5416641,1.9378819 6.4980119,1.8223469 6.4462956,1.6854683 6.3159775,1.5685262 6.1590163,1.5181465 6.0801509,1.4928332 4.9117188,1.2519518 3.5625,0.98285456 0.97449603,0.46668556 0.89720753,0.45580353 0.72616553,0.58350481 0.52145175,0.73634572 0.51651241,0.75624703 0.50606362,1.4703247 l -0.009561,0.6534325 0.48781003,2.445934 C 1.2526078,5.9149547 1.4927852,7.0800062 1.5180397,7.1586947 1.5623467,7.2967466 1.5609323,7.308255 1.4777169,7.4868197 1.3993046,7.6550778 1.3896737,7.7158413 1.3716135,8.15625 1.3526502,8.6186794 1.3321541,8.7361947 0.91923122,10.75 l -0.4325191,2.109375 -0.0106618,0.59375 c -0.0123063,0.685329 -0.00317,0.759849 0.10958132,0.893847 C 0.69621612,14.478394 0.82905381,14.533921 1,14.520179 1.077344,14.513979 2.2304687,14.290006 3.5625,14.022501 Z M 12.21875,8.5794419 C 12.107031,8.4857959 11.920979,8.34434 11.8053,8.2650959 11.689622,8.1858516 11.588453,8.1104613 11.580481,8.0975622 c -0.008,-0.012899 0.29405,-0.3317591 0.671161,-0.7085775 l 0.685655,-0.6851241 0.39748,0.3902572 c 0.218613,0.2146416 0.401292,0.3912497 0.405952,0.3924625 0.02139,0.00557 -1.246414,1.2486925 -1.280381,1.2554606 -0.02116,0.00422 -0.129879,-0.068953 -0.241598,-0.162599 z M 4.0161569,7.4692828 C 3.4935428,6.9459894 3.40863,6.8824272 3.0797538,6.7683331 3.0271083,6.7500694 3.0532359,6.7128625 3.2731019,6.4929966 L 3.5273213,6.2387772 3.6563006,6.32816 c 0.070939,0.049161 0.1901932,0.1432653 0.2650097,0.2091216 0.074817,0.065856 0.211655,0.1723 0.3040853,0.2365412 0.298955,0.2077813 0.946211,0.6987181 0.9557153,0.7249 0.00508,0.013993 -0.093358,0.099695 -0.21875,0.1904481 -0.1253922,0.090753 -0.2708353,0.1973088 -0.3232068,0.2367897 l -0.095221,0.071784 z"
       id="path827"
       inkscape:connector-curvature="0" />
    <path
       style="fill:#cbfefe;stroke-width:0.03125"
       d="m 1,12.991479 c 0,-0.03056 0.7822267,-3.9091224 0.7899483,-3.916844 0.00531,-0.00531 0.7191388,0.6999497 1.5862958,1.567234 0.8671568,0.867285 1.5693509,1.576881 1.5604309,1.576881 -0.00892,0 -0.8944859,0.175781 -1.967925,0.390625 C 0.88103962,13.02722 1,13.004132 1,12.991479 Z m 11.484375,-0.488821 c -1.340625,-0.270149 -2.455162,-0.497306 -2.47675,-0.504794 -0.021933,-0.0076 0.283712,-0.336356 0.692784,-0.74515 l 0.732033,-0.731536 -0.378871,-0.284026 C 10.845192,10.080937 10.596721,9.8993066 10.501412,9.8335288 10.406104,9.7677509 10.282114,9.6697722 10.225879,9.6157984 L 10.123632,9.5176644 10.647409,8.9932072 C 10.935486,8.7047556 11.183473,8.46875 11.198491,8.46875 c 0.01502,0 0.07142,0.035962 0.125345,0.079916 0.05392,0.043954 0.177605,0.1388753 0.274852,0.2109375 0.09725,0.072062 0.341661,0.2556407 0.54314,0.4079528 L 12.508155,9.4444866 13.254078,8.69905 C 13.664335,8.2890597 14,7.9607841 14,7.9695481 c 0,0.00876 0.225,1.1404363 0.5,2.5148269 0.275,1.374391 0.5,2.502657 0.5,2.507259 0,0.01704 -0.127186,-0.0077 -2.515625,-0.488976 z M 5.4605928,8.9137275 C 5.1728919,8.6256525 4.9375,8.381065 4.9375,8.3701994 4.9375,8.3593341 5.2152344,8.1441056 5.5546875,7.8919144 6.2745231,7.3571241 6.5480947,7.1512572 6.65625,7.0629706 6.7335331,6.999885 6.7337016,6.9986944 6.671875,6.952495 6.6375,6.9268084 6.5179687,6.8365891 6.40625,6.7520078 5.8157837,6.30497 4.6904769,5.4670212 4.5216772,5.3486788 4.4152234,5.2740459 4.2859375,5.1737931 4.234375,5.1258947 4.1828125,5.0779963 3.9933203,4.9313941 3.8132813,4.8001116 L 3.4859375,4.5614169 2.7429687,5.3039016 C 2.3343359,5.7122684 2,6.0392159 2,6.0304519 2,6.0216878 1.7751538,4.8907844 1.5003418,3.5173334 1.2255298,2.1438823 1.0050635,1.0157698 1.0104167,1.0104167 1.0157698,1.0050635 2.1438823,1.2255298 3.5173334,1.5003418 4.8907844,1.7751538 6.0216878,2 6.0304519,2 6.0392159,2 5.71253,2.3340741 5.3044831,2.7423869 L 4.5625794,3.4847738 4.9598325,3.7814494 c 0.2184891,0.1631715 0.4751116,0.350494 0.5702725,0.4162718 0.095161,0.065778 0.2152075,0.1589472 0.26677,0.2070429 0.089099,0.083109 1.3022144,0.9890943 1.7112956,1.2780396 C 7.614015,5.7575647 7.7629253,5.8735803 7.8390822,5.9406162 7.9152391,6.0076522 7.9876522,6.0625 8,6.0625 8.012348,6.0625 8.084761,6.007652 8.1609178,5.9406162 8.2370747,5.8735803 8.385985,5.7575647 8.4918294,5.6828037 8.9009106,5.3938584 10.114026,4.4878728 10.203125,4.4047641 c 0.05156,-0.048096 0.171609,-0.141265 0.26677,-0.2070429 0.09516,-0.065778 0.351783,-0.2531003 0.570272,-0.4162718 L 11.437421,3.4847737 10.695517,2.7423869 C 10.28747,2.3340741 9.9607841,2 9.9695481,2 c 0.00876,0 1.1396679,-0.2248462 2.5131189,-0.4996582 1.373451,-0.274812 2.501587,-0.4952545 2.506969,-0.4898722 0.0095,0.00951 -0.51033,2.6521345 -0.537678,2.733272 -0.0083,0.024689 -0.08652,-0.037238 -0.199408,-0.1579172 C 13.93861,3.2502213 13.563096,3.1000927 13.129096,3.1366722 12.637233,3.1781288 12.809361,3.0298691 10,5.83186 8.6164063,7.2118237 7.4391194,8.3731703 7.3838069,8.41263 7.3284947,8.4520897 6.9951331,8.6988281 6.6430037,8.9609375 6.2908744,9.2230469 5.9984747,9.4375 5.9932269,9.4375 5.9879791,9.4375 5.7482937,9.2018025 5.4605928,8.9137275 Z M 13.889987,5.9368337 13.800155,5.8430694 13.937191,5.70344 c 0.07537,-0.076796 0.140415,-0.1362503 0.144546,-0.1321203 0.0089,0.00891 -0.07907,0.4364312 -0.0926,0.4499609 -0.0051,0.00512 -0.04974,-0.032876 -0.09915,-0.084447 z"
       id="path825"
       inkscape:connector-curvature="0" />
    <path
       style="fill:#989898;stroke-width:0.03125"
       d="m 0.96875,13.518641 v -0.509359 l 1.9875417,-0.397477 1.9875417,-0.397476 0.2276694,0.220759 c 0.2343678,0.227253 0.4653781,0.361585 0.6842031,0.397861 0.080215,0.0133 0.1263775,0.03941 0.1362238,0.07707 0.02007,0.07675 0.00415,0.102464 -0.070055,0.113164 -0.1672888,0.02412 -4.7926089,0.952279 -4.8671875,0.976691 L 0.96875,14.027999 Z m 14.025533,0.496476 c -0.01475,-0.01475 -4.75121,-0.970102 -4.924915,-0.993364 l -0.075405,-0.0101 0.00445,-0.496845 c 0.00245,-0.273265 0.00732,-0.499566 0.010831,-0.50289 0.0035,-0.0033 1.134894,0.219728 2.514191,0.49567 l 2.507812,0.501714 v 0.510973 c 0,0.281035 -0.0047,0.510973 -0.01042,0.510973 -0.0057,0 -0.01768,-0.0073 -0.02655,-0.01613 z m -4.26224,-3.014555 C 10.664576,10.947398 10.525,10.841002 10.421875,10.764128 9.8185137,10.314353 9.5625,10.115748 9.5625,10.097463 c 0,-0.01135 0.1263263,-0.1463821 0.2807253,-0.3000658 l 0.2807257,-0.2794247 0.102087,0.09798 c 0.05615,0.053889 0.180066,0.1517984 0.275374,0.2175762 0.09531,0.065778 0.343873,0.2474773 0.552366,0.4037763 l 0.379077,0.28418 -0.289072,0.28787 -0.289072,0.28787 z M 6.0811009,9.5343562 5.9942591,9.4437128 6.1768169,9.3093847 C 6.2772237,9.2355044 6.5760684,9.0126222 6.8409159,8.8140909 7.1057634,8.6155597 7.3518572,8.4331369 7.3877909,8.4087072 7.4237247,8.3842772 7.1720069,8.6479491 6.8284181,8.9946447 6.4848291,9.34134 6.1956631,9.625 6.1858272,9.625 c -0.00984,0 -0.056963,-0.04079 -0.1047263,-0.090644 z M 5.4349069,7.0226637 C 5.0811369,6.76098 4.7506681,6.5146369 4.7005319,6.4752344 4.6503956,6.4358322 4.5299112,6.3444259 4.4327891,6.2721094 4.3356669,6.1997931 4.0829903,6.0102244 3.8712856,5.8508459 L 3.4863678,5.5610669 2.8603713,6.1797987 C 2.3185116,6.7153706 2.0336953,6.9514119 1.9871761,6.9034591 1.9803284,6.8964003 1.7553989,5.79375 1.4873327,4.453125 l -0.48739314,-2.4375 0.003111,-0.46875 0.00311,-0.46875 0.4953942,2.453125 c 0.2724684,1.3492188 0.496082,2.4670775 0.4969206,2.4841309 8.388e-4,0.017053 0.3358607,-0.3031125 0.7444935,-0.7114793 L 3.4859375,4.5614169 3.8132812,4.8001116 c 0.1800391,0.1312825 0.3695313,0.2778846 0.4210938,0.3257831 0.051563,0.047898 0.1809147,0.1481512 0.2874494,0.222784 0.3698331,0.2590869 1.6194603,1.1926247 1.7377681,1.2982057 0.065432,0.058393 0.1963575,0.155675 0.2909453,0.2161822 0.094588,0.060507 0.1665275,0.1263628 0.1598663,0.1463462 -0.00666,0.019984 -0.1024304,0.097651 -0.2128203,0.1725941 C 6.3871941,7.2569503 6.2540181,7.3591572 6.2016372,7.4091337 6.1492566,7.45911 6.1000378,7.4996519 6.0922622,7.4992262 6.0844869,7.4988012 5.7886769,7.2843475 5.4349069,7.0226637 Z m 8.2047841,-0.3361003 -0.34155,-0.3426125 0.248264,-0.2497278 0.248263,-0.2497281 0.09976,0.096693 0.09976,0.096693 0.03677,-0.1830031 c 0.02022,-0.1006515 0.04369,-0.2128353 0.05216,-0.2492965 0.0085,-0.036461 0.07156,-0.1208363 0.140209,-0.1875 0.114762,-0.111441 0.12334,-0.1149119 0.10647,-0.043082 -0.01009,0.042969 -0.08833,0.4284212 -0.173862,0.8565609 -0.08553,0.4281397 -0.159829,0.782751 -0.165103,0.7880253 -0.0053,0.00527 -0.163287,-0.1445862 -0.35114,-0.3330228 z M 14.492094,3.9609375 14.441525,3.796875 14.717669,2.4375 l 0.276143,-1.359375 0.0044,0.453125 c 0.0043,0.4418968 -8.06e-4,0.4796468 -0.207269,1.5234375 C 14.674544,3.6433594 14.571037,4.125 14.560969,4.125 c -0.01007,0 -0.04106,-0.073828 -0.06888,-0.1640625 z M 4.8506512,3.6963363 4.5608553,3.4865094 5.28824,2.7585677 6.015625,2.030626 6.0242659,2.5221648 6.0329066,3.0137035 5.5866769,3.4599334 5.1404472,3.9061631 Z M 10.411171,3.4580544 9.9670959,3.0131861 l 0.00864,-0.49128 0.00864,-0.4912801 0.7277831,0.7283406 0.727784,0.7283406 -0.257196,0.1860337 c -0.141459,0.1023188 -0.273015,0.1958322 -0.292349,0.2078079 -0.02076,0.012858 -0.216989,-0.1603879 -0.479227,-0.4230944 z"
       id="path823"
       inkscape:connector-curvature="0" />
    <path
       style="fill:#00fe00;stroke-width:0.03125"
       d="M 5.967205,12.332793 C 5.889012,12.311513 5.7765116,12.263753 5.717205,12.22667 5.6578984,12.189587 4.7979259,11.346462 3.8061547,10.35306 2.4303943,8.9750378 1.9879334,8.5135394 1.9396535,8.40625 1.8306468,8.1640116 1.8663175,7.7542181 2.0088136,7.6117222 2.0320993,7.5884362 2.0854571,7.5291634 2.1273865,7.4800047 2.2497401,7.336555 2.484199,7.2382119 2.7026551,7.23871 3.0676273,7.2395412 3.0550161,7.22923 4.6952725,8.8681338 L 6.18742,10.359051 9.4765225,7.0731197 C 11.836774,4.7151434 12.804983,3.7675759 12.904994,3.7177394 c 0.206497,-0.1029 0.472782,-0.098044 0.699241,0.012752 0.390349,0.1909803 0.553053,0.5828281 0.429811,1.0351337 -0.04071,0.1493863 -0.2006,0.3145634 -3.639873,3.7601119 -3.2418911,3.247806 -3.6173664,3.614026 -3.800423,3.706747 -0.2416359,0.122391 -0.4329147,0.153015 -0.626545,0.100309 z"
       id="path821"
       inkscape:connector-curvature="0" />
    <path
       style="fill:#323232;stroke-width:0.03125"
       d="m 0.76407572,14.488634 c -0.12616738,-0.05673 -0.25711031,-0.216175 -0.28013797,-0.341117 -0.010202,-0.05535 -0.0137514,-0.367829 -0.007887,-0.694392 L 0.48671213,12.859375 0.91923122,10.75 C 1.3321541,8.7361947 1.3526502,8.6186794 1.3716135,8.15625 1.3896737,7.7158413 1.3993046,7.6550778 1.4777169,7.4868197 1.5609323,7.308255 1.5623467,7.2967466 1.5180398,7.1586947 1.4927852,7.0800062 1.2526078,5.9149547 0.98431231,4.5696912 L 0.49650228,2.1237573 0.50606362,1.4703247 C 0.51651241,0.75624703 0.52145175,0.73634572 0.72616553,0.58350481 0.89720753,0.45580353 0.97449603,0.46668556 3.5625,0.98285456 4.9117188,1.2519518 6.0801509,1.4928332 6.1590163,1.5181465 c 0.1569612,0.05038 0.2872793,0.1673218 0.3389956,0.3042004 0.043652,0.115535 0.043959,1.2698909 3.687e-4,1.3865562 -0.018078,0.048385 -0.15377,0.2098888 -0.3015369,0.3588985 l -0.2686671,0.2709265 0.090599,0.080859 C 6.113145,4.0038109 7.4576,5.0105703 7.7850141,5.2421875 7.8882728,5.3152344 7.9850166,5.375 8,5.375 8.0149834,5.375 8.1117272,5.3152344 8.2149859,5.2421875 8.5424,5.0105703 9.886855,4.0038109 9.9812241,3.9195872 L 10.071823,3.8387281 9.8031563,3.5678016 C 9.6553894,3.4187919 9.5196978,3.2572878 9.5016194,3.2089031 9.4580291,3.0922378 9.4583359,1.9378819 9.5019881,1.8223469 9.5537044,1.6854683 9.6840225,1.5685262 9.8409838,1.5181465 9.9198491,1.4928332 11.088281,1.2519518 12.4375,0.98285456 c 2.588004,-0.516169 2.665293,-0.52705103 2.836334,-0.39934975 0.204714,0.15284091 0.209654,0.17274222 0.220102,0.88681989 l 0.0096,0.6534325 -0.48781,2.445934 c -0.268296,1.3452635 -0.509058,2.512075 -0.535027,2.5929141 -0.02885,0.089815 -0.08964,0.1842288 -0.156292,0.2427506 l -0.109076,0.09577 0.09973,0.083915 c 0.05485,0.046154 0.11999,0.13241 0.144755,0.1916812 0.02477,0.059271 0.272358,1.2271153 0.550207,2.5952099 l 0.505179,2.487443 2.19e-4,0.677432 c 2.18e-4,0.63567 -0.0037,0.682749 -0.0642,0.763694 -0.122218,0.16363 -0.222407,0.215255 -0.41438,0.213522 -0.09857,-8.91e-4 -1.253976,-0.218586 -2.599314,-0.48975 -1.332031,-0.26848 -2.4749098,-0.496969 -2.5397304,-0.507751 -0.1396394,-0.02323 -0.329541,-0.179348 -0.3806185,-0.312909 -0.02933,-0.0767 -0.04313,-1.017087 -0.02059,-1.403135 0.00189,-0.03239 0.1300066,-0.18796 0.2847007,-0.345704 L 10.062551,11.167966 9.973494,11.082646 C 9.9244719,11.035716 9.7240759,10.879302 9.5281291,10.735056 L 9.171875,10.47279 8.09375,11.543221 c -1.0438909,1.036442 -1.0857813,1.073837 -1.3192406,1.177668 l -0.241116,0.107236 -0.00107,0.133816 c -5.907e-4,0.0736 -0.020071,0.179287 -0.043292,0.234863 -0.05923,0.141759 -0.2462419,0.296337 -0.3867994,0.319718 -0.064821,0.01078 -1.2076994,0.238473 -2.5397306,0.505979 -1.3320313,0.267505 -2.4851563,0.491461 -2.5625,0.497678 -0.0773438,0.0062 -0.18350967,-0.008 -0.23592429,-0.03155 z M 3.5,13.501965 C 4.7976562,13.243589 5.8875,13.028136 5.921875,13.023178 5.996079,13.012478 6.011999,12.986758 5.99193,12.910014 5.98208,12.872364 5.935922,12.846244 5.8557062,12.832944 5.5173775,12.776862 5.4949563,12.757277 3.5859375,10.850332 2.5933594,9.8588325 1.78125,9.0547912 1.78125,9.0635741 c 0,0.00878 -0.1787138,0.8945559 -0.3971418,1.9683849 l -0.39714179,1.952416 -0.0105235,0.522305 -0.0105235,0.522306 0.0873528,-0.02862 C 1.1013162,13.984619 2.2023437,13.760341 3.5,13.501965 Z M 15.023357,13.328821 C 15.013606,13.035119 14.937383,12.616158 14.50596,10.484929 14.227682,9.1102334 14,7.9783122 14,7.9695481 14,7.9607841 13.664335,8.2890597 13.254078,8.69905 L 12.508155,9.4444866 12.141828,9.1675559 C 11.940349,9.0152438 11.695936,8.831665 11.598688,8.7596031 11.501441,8.6875409 11.377758,8.5926191 11.323836,8.5486656 11.269915,8.5047119 11.213764,8.46875 11.199057,8.46875 c -0.0316,0 -1.636557,1.598974 -1.636557,1.630458 0,0.01184 0.1210475,0.10892 0.2689944,0.215724 0.1479469,0.106805 0.3342746,0.250821 0.4140626,0.320038 0.07979,0.06922 0.202441,0.162338 0.272563,0.206937 0.07012,0.0446 0.174377,0.120537 0.231676,0.168751 l 0.104181,0.08766 -0.428634,0.429455 -0.4286324,0.429455 v 0.527396 0.527397 l 0.074031,0.0099 c 0.1943,0.02602 4.909789,0.979459 4.926146,0.996032 0.02729,0.02765 0.03961,-0.293253 0.02647,-0.689148 z M 6.59375,12.232484 C 6.7768066,12.139763 7.1522819,11.773543 10.394173,8.5257369 13.833446,5.0801884 13.993341,4.9150112 14.034046,4.765625 14.157288,4.3133194 13.994584,3.9214716 13.604235,3.7304913 13.377776,3.6196956 13.111491,3.6148394 12.904994,3.7177394 12.804983,3.7675759 11.836774,4.7151434 9.4765225,7.0731197 L 6.18742,10.359051 4.6952725,8.8681338 C 3.0550161,7.2292297 3.0676273,7.2395422 2.7026551,7.23871 2.484199,7.2382131 2.2497401,7.336555 2.1273865,7.4800047 2.0854571,7.5291634 2.0320993,7.5884362 2.0088136,7.6117222 1.8663175,7.7542181 1.8306468,8.1640116 1.9396535,8.40625 c 0.04828,0.1072894 0.4907408,0.5687878 1.8665012,1.94681 0.9917712,0.993402 1.8517437,1.836527 1.9110503,1.87361 0.2718597,0.16999 0.5487878,0.171827 0.876545,0.0058 z M 9.3590175,6.4738556 C 12.297427,3.5405319 12.528869,3.3169519 12.707221,3.2393962 c 0.374849,-0.1630022 0.833187,-0.1386215 1.20572,0.064137 0.232075,0.1263109 0.509054,0.4386625 0.575276,0.6487419 0.02995,0.094999 0.06268,0.1727253 0.07275,0.1727253 0.01007,0 0.113575,-0.4816406 0.230015,-1.0703125 0.208263,-1.0528829 0.211689,-1.0783276 0.210363,-1.5625 C 15.000606,1.2214844 14.996235,1 14.991634,1 14.987032,1 13.858766,1.225 12.484375,1.5 11.109984,1.775 9.9817178,2 9.9771163,2 9.972515,2 9.96875,2.2283397 9.96875,2.5074215 v 0.5074216 l 0.445313,0.4461106 0.445312,0.4461107 -0.09375,0.078516 c -0.05156,0.043184 -0.166777,0.1266881 -0.256032,0.185566 -0.08926,0.058877 -0.215818,0.1548262 -0.28125,0.2132193 C 10.11416,4.4862653 8.8909113,5.4009213 8.4918294,5.6828038 8.385985,5.7575647 8.2370747,5.8735803 8.1609178,5.9406163 8.0847609,6.0076522 8.0123478,6.0625 8,6.0625 7.9876522,6.0625 7.9152391,6.0076522 7.8390822,5.9406162 7.7629253,5.8735803 7.614015,5.7575647 7.5081706,5.6828037 7.1090887,5.4009212 5.8858403,4.4862653 5.7716575,4.3843656 5.7062253,4.3259725 5.5796628,4.2300237 5.4904075,4.1711462 5.4011522,4.1122684 5.2859375,4.0287637 5.234375,3.9855803 L 5.140625,3.9070644 5.5859375,3.4609537 6.03125,3.0148431 V 2.5074215 C 6.03125,2.2283397 6.027485,2 6.0228837,2 6.0182822,2 4.8900156,1.775 3.515625,1.5 2.1412343,1.225 1.0129679,1 1.0083664,1 c -0.0046,0 -0.00838,0.2285156 -0.008397,0.5078125 l -3.022e-5,0.5078125 0.48739312,2.4375 C 1.7553989,5.79375 1.9803284,6.8964003 1.9871761,6.9034591 2.033692,6.9514084 2.3184852,6.7153969 2.8601793,6.1799906 l 0.6258041,-0.61854 0.327321,0.2386781 C 3.9933306,5.9314016 4.1828125,6.0779962 4.234375,6.1258947 4.285938,6.1737927 4.4152256,6.2740459 4.5216822,6.3486787 4.9010384,6.6146325 6.0470331,7.4729666 6.0559331,7.4978119 6.060915,7.5117191 5.8113056,7.7091678 5.5012456,7.9365866 5.1911853,8.1640053 4.9375,8.35907 4.9375,8.3700641 4.9375,8.3933438 6.1636734,9.625 6.1868494,9.625 c 0.00856,0 1.436034,-1.418015 3.1721681,-3.1511444 z m 3.7649945,1.6377247 c 0.343855,-0.3425369 0.621377,-0.6237869 0.616717,-0.625 -0.0047,-0.00121 -0.187339,-0.1778209 -0.405952,-0.3924625 l -0.39748,-0.3902572 -0.685655,0.6851241 c -0.377111,0.3768184 -0.679133,0.6956781 -0.671161,0.7085775 0.008,0.012899 0.109141,0.088289 0.224819,0.1675337 0.115679,0.079244 0.301731,0.2207 0.41345,0.314346 0.111719,0.093646 0.220438,0.1668156 0.241598,0.162599 0.02116,-0.00422 0.319809,-0.2879234 0.663664,-0.6304606 z M 4.9623609,7.6891709 C 5.0877531,7.5984178 5.1861906,7.5127159 5.1811109,7.4987228 5.1716066,7.4725409 4.5243506,6.9816041 4.2253956,6.7738228 4.1329653,6.7095816 3.9961272,6.6031378 3.9213103,6.5372816 3.8464938,6.4714253 3.7272391,6.3773206 3.6563006,6.32816 L 3.5273213,6.2387772 3.2731019,6.4929966 C 3.0532359,6.7128625 3.0271083,6.7500694 3.0797538,6.7683331 3.40863,6.8824272 3.4935428,6.9459894 4.0161569,7.4692828 l 0.5277759,0.5284616 0.095221,-0.071784 C 4.6915256,7.8864797 4.8369687,7.7799244 4.9623609,7.6891709 Z M 14.169381,6.1689722 c 0.09283,-0.462466 0.165859,-0.8438566 0.162285,-0.8475344 -0.0036,-0.00368 -0.237665,0.2247975 -0.520201,0.5077234 l -0.513702,0.5144107 0.341739,0.3428018 c 0.187957,0.188541 0.346094,0.3384469 0.351417,0.3331238 0.0053,-0.00532 0.08563,-0.3880591 0.178462,-0.8505253 z"
       id="path819"
       inkscape:connector-curvature="0" />
  </g>
</svg>
