<?xml version="1.0" encoding="UTF-8" standalone="no"?>
<!-- Created with Inkscape (http://www.inkscape.org/) -->

<svg
   xmlns:dc="http://purl.org/dc/elements/1.1/"
   xmlns:cc="http://creativecommons.org/ns#"
   xmlns:rdf="http://www.w3.org/1999/02/22-rdf-syntax-ns#"
   xmlns:svg="http://www.w3.org/2000/svg"
   xmlns="http://www.w3.org/2000/svg"
   xmlns:sodipodi="http://sodipodi.sourceforge.net/DTD/sodipodi-0.dtd"
   xmlns:inkscape="http://www.inkscape.org/namespaces/inkscape"
   version="1.1"
   id="svg2"
   width="16"
   height="16"
   viewBox="0 0 16 16"
   sodipodi:docname="APPLYROTATE.svg"
   inkscape:version="0.92.4 (5da689c313, 2019-01-14)">
  <metadata
     id="metadata8">
    <rdf:RDF>
      <cc:Work
         rdf:about="">
        <dc:format>image/svg+xml</dc:format>
        <dc:type
           rdf:resource="http://purl.org/dc/dcmitype/StillImage" />
        <dc:title></dc:title>
      </cc:Work>
    </rdf:RDF>
  </metadata>
  <defs
     id="defs6" />
  <sodipodi:namedview
     pagecolor="#ffffff"
     bordercolor="#666666"
     borderopacity="1"
     objecttolerance="10"
     gridtolerance="10"
     guidetolerance="10"
     inkscape:pageopacity="0"
     inkscape:pageshadow="2"
     inkscape:window-width="1045"
     inkscape:window-height="731"
     id="namedview4"
     showgrid="false"
     inkscape:zoom="14.75"
     inkscape:cx="8"
     inkscape:cy="8"
     inkscape:window-x="0"
     inkscape:window-y="0"
     inkscape:window-maximized="0"
     inkscape:current-layer="svg2" />
  <g
     id="APPLYROTATE">
    <path
       style="fill:#ffffff;stroke-width:0.03125"
       d="M 0,8 V 0 h 8 8 v 8 8 H 8 0 Z m 8.890625,6.717352 c 3.014869,-0.257294 5.349857,-1.792961 6.090035,-4.005272 0.222251,-0.664285 0.243664,-0.8288956 0.260751,-2.0045569 0.01619,-1.1142394 -0.0066,-1.5126344 -0.117245,-2.0454506 C 15.038192,6.2479112 14.868985,5.7626734 14.669969,5.3595663 L 14.498272,5.0117941 14.549877,4.8105847 C 14.645831,4.4364553 14.545636,3.9188328 14.328061,3.664645 L 14.221824,3.5405309 14.333388,3.4343281 c 0.184437,-0.1755737 0.197862,-0.2377006 0.197862,-0.915665 0,-0.3538476 -0.0139,-0.6451468 -0.03324,-0.6963162 C 14.446296,1.6854683 14.315978,1.5685262 14.159016,1.5181465 14.080151,1.4928332 12.911719,1.2519518 11.5625,0.98285456 8.9744959,0.46668556 8.8972075,0.45580353 8.7261656,0.58350481 8.5209253,0.73673884 8.5164391,0.75505697 8.5069131,1.4787609 L 8.4982009,2.140625 8.9314856,4.3021041 9.3647703,6.4635828 7.7761025,8.0520216 6.187435,9.6404603 4.9688197,8.4217928 3.7502044,7.203125 3.9297897,6.9649684 C 4.0285616,6.8339822 4.2050994,6.6239816 4.3220959,6.4983003 L 4.5348166,6.2697894 5.1345959,6.8677662 c 0.3298785,0.3288872 0.6393663,0.612716 0.687751,0.6307304 0.29014,0.108024 0.5952509,-0.041927 0.6907565,-0.3394804 0.025313,-0.078865 0.2655388,-1.2440615 0.5338344,-2.589325 l 0.48781,-2.4459339 -0.00956,-0.6534326 C 7.5147375,0.75624703 7.5097981,0.73634572 7.3050844,0.58350481 7.1340425,0.45580353 7.0567541,0.46668556 4.46875,0.98285456 3.1195313,1.2519518 1.9510989,1.4928332 1.8722338,1.5181465 1.7152726,1.5685262 1.5849544,1.6854683 1.5332381,1.8223469 c -0.043614,0.115435 -0.043959,1.2698495 -4.144e-4,1.3865562 0.018053,0.048385 0.188113,0.2441931 0.3779111,0.4351303 L 2.2558224,3.9911919 2.0438338,4.2534084 C 1.4581196,4.9779 1.0512805,5.8168891 0.87583453,6.6620725 0.76523075,7.1948888 0.74239475,7.5932838 0.75858925,8.7075231 c 0.0170872,1.1756613 0.0384996,1.3402719 0.26075095,2.0045569 0.3976471,1.188523 1.260569,2.198282 2.5092855,2.936271 0.9369522,0.553737 2.2658838,0.956297 3.5182494,1.065747 0.4465494,0.03903 1.4047712,0.04072 1.84375,0.0033 z M 10.359281,9.2847034 C 11.424853,8.2171791 12.305318,7.34375 12.315869,7.34375 c 0.03777,0 0.252173,0.5116709 0.311329,0.7429706 0.07297,0.2853257 0.07516,0.4055563 0.01182,0.6489013 -0.245352,0.9425184 -1.134451,1.7282801 -2.442882,2.1589521 -0.4422374,0.145564 -1.0879961,0.278293 -1.5130202,0.310988 l -0.2612378,0.02009 z"
       id="path827"
       inkscape:connector-curvature="0" />
    <path
       style="fill:#cbfefe;stroke-width:0.03125"
       d="M 7.171875,13.214098 C 4.3585128,12.968225 2.1794767,11.555272 1.5042382,9.5390322 1.1151807,8.3773191 1.1843483,6.9558534 1.6853285,5.8174416 1.9647736,5.1824394 2.3814956,4.5973834 3.0325671,3.9259888 L 3.464965,3.4800938 2.7336603,2.7492858 C 2.3314427,2.3473413 2.0067439,2.0140895 2.0121073,2.008726 2.0280144,1.9928189 7.0102134,0.99979675 7.0208334,1.0104167 7.0261866,1.0157698 6.80572,2.1438823 6.5309081,3.5173334 6.2560962,4.8907844 6.03125,6.02169 6.03125,6.0304569 c 0,0.00877 -0.3421616,-0.3260082 -0.7603591,-0.7439441 L 4.5105319,4.5266287 4.4069225,4.6461269 C 4.3499375,4.7118509 4.1731769,4.9021322 4.0141213,5.0689741 3.5185563,5.5887997 3.1662116,6.1120169 2.987308,6.59375 L 2.9350834,6.734375 2.7655277,6.7237347 C 2.5484139,6.71011 2.3154559,6.7605659 2.0784443,6.8725484 1.8373811,6.9864453 1.5362929,7.3212591 1.4374963,7.5852903 c -0.05754,0.1537731 -0.065868,0.230966 -0.056542,0.5240847 0.018468,0.5804588 -0.1190283,0.4075069 2.0664358,2.599295 1.2898122,1.293545 1.9537406,1.937628 2.0530435,1.991675 0.4058581,0.220896 0.8404009,0.225959 1.2844312,0.01497 0.2422381,-0.115106 0.3111438,-0.169927 0.6870659,-0.546624 L 7.8897566,11.75 l 0.2348093,-9.4e-5 c 0.6733688,-3.12e-4 1.5702513,-0.148589 2.2448761,-0.37115 1.489225,-0.491298 2.475313,-1.3884876 2.770139,-2.520401 0.158941,-0.6102166 0.131314,-1.496715 -0.06507,-2.0879725 L 13.023744,6.6175369 13.581859,6.058775 C 13.888822,5.7514428 14.14866,5.5 14.159277,5.5 c 0.03007,0 0.296834,0.6468137 0.367315,0.890625 0.366613,1.268205 0.268387,2.6555716 -0.262182,3.703125 -0.890738,1.75867 -2.903687,2.902132 -5.498785,3.123602 -0.43624,0.03723 -1.1471319,0.03578 -1.59375,-0.0033 z M 9.9543487,5.7785144 C 9.8992794,5.5496544 9.0022619,1.0185715 9.0104106,1.0104228 c 0.00536,-0.00536 1.1334714,0.215107 2.5069224,0.489919 C 12.890784,1.7751538 14.021655,2 14.030379,2 14.039103,2 13.786228,2.260703 13.468433,2.5793399 12.97948,3.0695893 12.861791,3.1713466 12.703125,3.24105 12.535873,3.314525 12.378309,3.4600525 11.244057,4.5886619 10.101477,5.7255584 9.9706491,5.8462566 9.9543487,5.7785144 Z"
       id="path825"
       inkscape:connector-curvature="0" />
    <path
       style="fill:#989898;stroke-width:0.03125"
       d="M 7.171875,14.214098 C 4.3587516,13.968245 2.1794684,12.555248 1.5043667,10.539416 1.3383031,10.043555 1.2806296,9.69608 1.2644167,9.09375 c -0.0081,-0.3007812 -0.00813,-0.5328125 -7.19e-5,-0.515625 0.00806,0.017188 0.043545,0.1753769 0.078862,0.3515322 0.3564685,1.7780038 1.6546988,3.1267028 3.6924556,3.8359998 1.8360647,0.639092 4.0926072,0.639092 5.9286726,0 2.037757,-0.709297 3.335987,-2.057996 3.692455,-3.8359998 0.03532,-0.1761553 0.07081,-0.3343447 0.07886,-0.3515322 0.0081,-0.017188 0.008,0.2148438 -6.3e-5,0.515625 -0.01621,0.60233 -0.07389,0.949805 -0.23995,1.445666 -0.616123,1.839725 -2.481976,3.185698 -4.9682913,3.583984 -0.7653894,0.122609 -1.6156966,0.15535 -2.3554672,0.0907 z M 13.173981,8.1790925 C 13.143291,7.9448047 12.987548,7.4983619 12.831939,7.1986181 l -0.133937,-0.2579994 0.163046,-0.1610206 0.163046,-0.1610209 0.05074,0.1527675 c 0.02791,0.084022 0.07184,0.2577328 0.09762,0.386024 0.05954,0.2962122 0.09912,1.1381029 0.0548,1.1654957 -0.01926,0.011902 -0.04034,-0.044988 -0.05328,-0.1437719 z M 5.2642012,6.2790312 4.515625,5.5291731 4.4098612,5.6473991 C 4.3516909,5.7124234 4.1953675,5.878125 4.0624756,6.015625 3.8383762,6.247495 3.4489359,6.7116478 3.3864175,6.8213816 3.3626369,6.8631216 3.3340591,6.8607369 3.1495031,6.8016109 2.9015436,6.7221728 2.9020722,6.7562591 3.1411916,6.265625 3.3347762,5.86842 3.60457,5.498575 4.0141212,5.0689741 4.1731769,4.9021322 4.3499375,4.7118509 4.4069225,4.6461269 L 4.5105319,4.5266287 5.2708909,5.2865128 C 5.6890884,5.7044487 6.0319362,6.0324419 6.0327747,6.0153859 6.0336122,5.99833 6.2572269,4.8804687 6.5296937,3.53125 L 7.0250881,1.078125 7.0281694,1.5474289 7.03125,2.0167328 6.5317628,4.5130619 C 6.257045,5.8860428 6.0278888,7.0137781 6.0225266,7.01914 6.0171647,7.0245022 5.6759181,6.6914531 5.2642012,6.2790312 Z M 9.3966984,3.9921875 8.9971359,1.984375 l 0.00451,-0.453125 0.00451,-0.453125 0.481009,2.3889219 0.4810094,2.3889222 -0.067655,0.072015 C 9.8633,5.9675931 9.8246216,6 9.8145581,6 9.8044947,6 9.6164575,5.0964844 9.3966984,3.9921875 Z M 2.4761844,3.4918209 2,3.014892 V 2.5155079 2.0161237 L 2.7341546,2.7497797 3.4683091,3.4834356 3.2270753,3.7260928 C 3.0943965,3.8595544 2.9783099,3.96875 2.969105,3.96875 c -0.0092,0 -0.2310192,-0.2146181 -0.4929206,-0.4769291 z M 13.671875,3.1944781 c -0.08336,-0.032817 -0.231715,-0.049854 -0.445376,-0.05115 l -0.320376,-0.00194 0.554751,-0.555456 0.554751,-0.5554562 0.0086,0.4912897 0.0086,0.4912897 -0.118014,0.1153166 -0.118014,0.1153162 z"
       id="path823"
       inkscape:connector-curvature="0" />
    <path
       style="fill:#00fe00;stroke-width:0.03125"
       d="M 5.967205,12.332793 C 5.889012,12.311513 5.7765116,12.263753 5.717205,12.22667 5.6578984,12.189587 4.7979259,11.346462 3.8061547,10.35306 2.4303943,8.9750378 1.9879334,8.5135394 1.9396535,8.40625 1.8306468,8.1640116 1.8663175,7.7542181 2.0088136,7.6117222 2.0320993,7.5884362 2.0854571,7.5291634 2.1273865,7.4800047 2.2497401,7.336555 2.484199,7.2382119 2.7026551,7.23871 3.0676273,7.2395412 3.0550161,7.22923 4.6952725,8.8681338 L 6.18742,10.359051 9.4765225,7.0731197 C 11.836774,4.7151434 12.804983,3.7675759 12.904994,3.7177394 c 0.206497,-0.1029 0.472782,-0.098044 0.699241,0.012752 0.390349,0.1909803 0.553053,0.5828281 0.429811,1.0351337 -0.04071,0.1493863 -0.2006,0.3145634 -3.639873,3.7601119 -3.2418911,3.247806 -3.6173664,3.614026 -3.800423,3.706747 -0.2416359,0.122391 -0.4329147,0.153015 -0.626545,0.100309 z"
       id="path821"
       inkscape:connector-curvature="0" />
    <path
       style="fill:#323232;stroke-width:0.03125"
       d="M 7.046875,14.714098 C 5.7945094,14.604648 4.4655778,14.202088 3.5286256,13.648351 2.2799091,12.910362 1.4169872,11.900603 1.0193401,10.71208 0.79708878,10.047795 0.77567637,9.8831844 0.75858916,8.7075231 0.74239466,7.5932837 0.76523066,7.1948887 0.87583444,6.6620725 1.0512804,5.8168891 1.4581195,4.9779 2.0438337,4.2534084 L 2.2558223,3.9911919 1.9107347,3.6440334 C 1.7209366,3.4530963 1.5508766,3.2572878 1.5328236,3.2089031 1.4892786,3.0921964 1.4896237,1.9377819 1.5332381,1.8223469 1.5849544,1.6854683 1.7152726,1.5685262 1.8722338,1.5181465 1.9510989,1.4928332 3.1195313,1.2519518 4.46875,0.98285456 7.0567541,0.46668556 7.1340425,0.45580353 7.3050844,0.58350481 7.5097981,0.73634572 7.5147375,0.75624703 7.5251862,1.4703247 l 0.00956,0.6534325 -0.48781,2.445934 C 6.7786422,5.9149547 6.5384169,7.0801509 6.5131034,7.1590163 6.4175978,7.45657 6.1124869,7.6065206 5.8223469,7.4984966 5.7739622,7.4804822 5.4644744,7.1966534 5.1345959,6.8677663 L 4.5348166,6.2697894 4.3220959,6.4983003 C 4.2050994,6.6239816 4.0285616,6.8339822 3.9297897,6.9649684 L 3.7502044,7.203125 4.9688197,8.4217928 6.187435,9.6404603 7.7761025,8.0520216 9.3647703,6.4635828 8.9314856,4.3021041 8.4982009,2.140625 8.5069131,1.4787609 C 8.5164391,0.75505697 8.5209253,0.73673884 8.7261656,0.58350481 8.8972075,0.45580353 8.9744959,0.46668556 11.5625,0.98285456 c 1.349219,0.26909724 2.517651,0.50997864 2.596516,0.53529194 0.156962,0.05038 0.28728,0.1673218 0.338996,0.3042004 0.01933,0.051169 0.03324,0.3424686 0.03324,0.6963162 0,0.6779644 -0.01342,0.7400913 -0.197862,0.915665 l -0.111564,0.1062028 0.106237,0.1241141 c 0.217575,0.2541878 0.31777,0.7718103 0.221816,1.1459397 l -0.05161,0.2012094 0.171697,0.3477722 c 0.199016,0.4031071 0.368223,0.888345 0.454197,1.3025062 0.110603,0.5328163 0.133439,0.9312113 0.117245,2.0454506 -0.01709,1.1756613 -0.0385,1.3402719 -0.260751,2.0045569 -0.740178,2.212311 -3.075166,3.747978 -6.090035,4.005272 -0.4389787,0.03746 -1.3972006,0.03577 -1.84375,-0.0033 z m 1.71875,-0.496746 c 2.873406,-0.245222 5.047858,-1.641057 5.730137,-3.67832 0.200541,-0.5988079 0.231473,-0.8348223 0.244711,-1.867157 0.01537,-1.1984491 -0.03038,-1.6637156 -0.228441,-2.3231834 -0.06788,-0.22602 -0.303556,-0.8063547 -0.344075,-0.8472654 -0.0077,-0.00781 -0.341629,0.3131454 -0.741987,0.7132319 l -0.727925,0.7274306 0.122599,0.2339666 c 0.16711,0.3189125 0.290883,0.6690469 0.352218,0.9963753 0.0598,0.3191157 0.03537,0.520045 -0.113268,0.9317397 -0.372496,1.0317237 -1.300025,1.8159667 -2.690152,2.2745727 -0.6746248,0.22256 -1.5715073,0.370844 -2.2448761,0.37115 l -0.2348093,9.4e-5 -0.4178257,0.418687 C 7.0960087,12.545372 7.0271031,12.600193 6.784865,12.715298 6.3408347,12.926291 5.9062919,12.921228 5.5004337,12.700332 5.4011309,12.646284 4.7372025,12.002202 3.4473903,10.708657 1.2619262,8.5168819 1.3994226,8.6898338 1.3809545,8.109375 1.3716286,7.8162563 1.3799567,7.7390634 1.4374963,7.5852903 1.5362929,7.3212591 1.8373811,6.9864453 2.0784443,6.8725484 2.4469712,6.6984278 2.8367469,6.6763494 3.1877338,6.8097137 3.3412356,6.86804 3.3600234,6.8694019 3.3854088,6.8240409 3.4473688,6.7133244 3.8350853,6.25095 4.0632925,6.015625 4.1966337,5.878125 4.3518112,5.7118509 4.4081316,5.6461269 l 0.1024003,-0.1194981 0.760359,0.759884 C 5.6890884,6.7044487 6.03125,7.0392237 6.03125,7.0304569 c 0,-0.00877 0.225,-1.1404413 0.5,-2.5148319 l 0.5,-2.4988922 V 1.5083664 C 7.03125,1.2287649 7.027485,1 7.0228837,1 7.0182822,1 5.8900156,1.225 4.515625,1.5 3.1412344,1.775 2.0129679,2 2.0083664,2 2.0037649,2 2,2.2286858 2,2.5081906 V 3.0163813 L 2.4821007,3.4977291 2.9642013,3.9790772 2.7294984,4.2428731 C 1.9856317,5.0789472 1.5497127,5.9085441 1.3628446,6.84375 1.2716247,7.3002719 1.2474275,7.7284206 1.2595264,8.671875 c 0.013239,1.0323347 0.044171,1.2683491 0.2447118,1.867157 0.7428037,2.217988 3.2781955,3.678685 6.4332618,3.70635 0.2492188,0.0022 0.621875,-0.01043 0.828125,-0.02803 z M 6.59375,12.232484 C 6.7768066,12.139763 7.1522819,11.773543 10.394173,8.5257369 13.833446,5.0801884 13.993341,4.9150112 14.034046,4.765625 14.157288,4.3133194 13.994584,3.9214716 13.604235,3.7304913 13.377776,3.6196956 13.111491,3.6148394 12.904994,3.7177394 12.804983,3.7675759 11.836774,4.7151434 9.4765225,7.0731197 L 6.18742,10.359051 4.6952725,8.8681338 C 3.0550161,7.2292297 3.0676273,7.2395422 2.7026551,7.23871 2.484199,7.2382131 2.2497401,7.336555 2.1273865,7.4800047 2.0854571,7.5291634 2.0320993,7.5884362 2.0088136,7.6117222 1.8663175,7.7542181 1.8306468,8.1640116 1.9396535,8.40625 c 0.04828,0.1072894 0.4907408,0.5687878 1.8665012,1.94681 0.9917712,0.993402 1.8517437,1.836527 1.9110503,1.87361 0.2718597,0.16999 0.5487878,0.171827 0.876545,0.0058 z M 9.3636209,11.10803 C 11.07884,10.79124 12.342091,9.8762525 12.639015,8.7356219 12.702362,8.4922769 12.700172,8.3720463 12.627198,8.0867206 12.568042,7.8554209 12.353635,7.34375 12.315869,7.34375 c -0.01055,0 -0.891016,0.8734291 -1.956588,1.9409534 l -1.937406,1.9409536 0.2612378,-0.02009 c 0.1436809,-0.01105 0.4499094,-0.05494 0.6805081,-0.09753 z M 11.171066,4.6616766 c 1.239957,-1.2342069 1.360362,-1.3453272 1.547684,-1.4283469 0.180397,-0.07995 0.238091,-0.08993 0.515625,-0.089191 0.20939,5.563e-4 0.355098,0.01727 0.441602,0.050651 l 0.129102,0.04982 L 13.918165,3.1288 14.03125,3.0129901 V 2.5064949 C 14.03125,2.2279227 14.027485,2 14.022884,2 14.018282,2 12.890016,1.775 11.515625,1.5 10.141234,1.225 9.0129678,1 9.0083663,1 c -0.0046,0 -0.00901,0.2214844 -0.0098,0.4921875 L 8.9971366,1.984375 9.3966991,3.9921875 C 9.6164581,5.0964844 9.8030666,6 9.8113841,6 9.8197016,6 10.431558,5.3977544 11.171066,4.6616766 Z"
       id="path819"
       inkscape:connector-curvature="0" />
  </g>
</svg>
