<?xml version="1.0" encoding="UTF-8" standalone="no"?>
<!-- Created with Inkscape (http://www.inkscape.org/) -->

<svg
   xmlns:dc="http://purl.org/dc/elements/1.1/"
   xmlns:cc="http://creativecommons.org/ns#"
   xmlns:rdf="http://www.w3.org/1999/02/22-rdf-syntax-ns#"
   xmlns:svg="http://www.w3.org/2000/svg"
   xmlns="http://www.w3.org/2000/svg"
   xmlns:sodipodi="http://sodipodi.sourceforge.net/DTD/sodipodi-0.dtd"
   xmlns:inkscape="http://www.inkscape.org/namespaces/inkscape"
   version="1.1"
   id="svg2"
   width="16"
   height="16"
   viewBox="0 0 16 16"
   sodipodi:docname="APPLYALL.svg"
   inkscape:version="0.92.4 (5da689c313, 2019-01-14)">
  <metadata
     id="metadata8">
    <rdf:RDF>
      <cc:Work
         rdf:about="">
        <dc:format>image/svg+xml</dc:format>
        <dc:type
           rdf:resource="http://purl.org/dc/dcmitype/StillImage" />
        <dc:title></dc:title>
      </cc:Work>
    </rdf:RDF>
  </metadata>
  <defs
     id="defs6" />
  <sodipodi:namedview
     pagecolor="#ffffff"
     bordercolor="#666666"
     borderopacity="1"
     objecttolerance="10"
     gridtolerance="10"
     guidetolerance="10"
     inkscape:pageopacity="0"
     inkscape:pageshadow="2"
     inkscape:window-width="1108"
     inkscape:window-height="665"
     id="namedview4"
     showgrid="false"
     inkscape:zoom="14.75"
     inkscape:cx="8"
     inkscape:cy="8"
     inkscape:window-x="0"
     inkscape:window-y="0"
     inkscape:window-maximized="0"
     inkscape:current-layer="svg2" />
  <g
     id="APPLYALL">
    <path
       style="fill:#ffffff;stroke-width:0.03125"
       d="M 0,8 V 0 h 8 8 v 8 8 H 8 0 Z m 8,5.195004 v -1.554996 l 0.5859375,-0.583733 0.5859375,-0.583734 0.3562669,0.26239 c 0.1959469,0.144315 0.3963428,0.300785 0.4453247,0.347713 l 0.089057,0.08532 -0.2812629,0.286808 c -0.1546941,0.157744 -0.2828094,0.313311 -0.2847007,0.345704 -0.02254,0.386048 -0.00874,1.32644 0.02059,1.403135 0.051077,0.133561 0.2409791,0.289681 0.3806185,0.312909 0.064821,0.01078 1.2077001,0.239271 2.5397311,0.507751 1.345338,0.271164 2.500747,0.48886 2.599314,0.48975 0.191973,0.0017 0.292162,-0.04989 0.41438,-0.213522 0.06046,-0.08094 0.06442,-0.128024 0.0642,-0.763694 L 15.515163,12.859373 15.009984,10.37193 C 14.732134,9.0038378 14.484541,7.8359937 14.459776,7.7767225 14.435011,7.7174512 14.369871,7.631195 14.315021,7.5850412 l -0.09973,-0.083915 0.109076,-0.09577 c 0.06665,-0.058522 0.12744,-0.1529356 0.156292,-0.2427506 0.02597,-0.080839 0.266731,-1.2476506 0.535027,-2.5929141 l 0.48781,-2.4459339 -0.0096,-0.6534326 C 15.483488,0.75624703 15.478548,0.73634572 15.273834,0.58350481 15.102793,0.45580353 15.025504,0.46668556 12.4375,0.98285456 11.088281,1.2519518 9.9198491,1.4928332 9.8409838,1.5181465 9.6840225,1.5685262 9.5537044,1.6854683 9.5019881,1.8223469 c -0.043652,0.115535 -0.043959,1.2698909 -3.687e-4,1.3865562 0.018078,0.048385 0.15377,0.2098888 0.3015368,0.3588985 L 10.071823,3.8387281 9.981224,3.9195871 C 9.8760603,4.013445 8.4997844,5.0423681 8.2017887,5.2499181 L 8,5.3904613 v 1.219034 1.2190338 L 7.0936737,8.7344512 6.1873478,9.6403731 4.9687759,8.4217491 3.7502044,7.203125 3.9297897,6.9649684 C 4.0285616,6.8339822 4.2050994,6.6239816 4.3220959,6.4983003 L 4.5348166,6.2697894 5.1345959,6.8677662 c 0.3298785,0.3288872 0.6393663,0.612716 0.687751,0.6307304 0.29014,0.108024 0.5952509,-0.041927 0.6907565,-0.3394804 0.025313,-0.078865 0.2655388,-1.2440615 0.5338344,-2.589325 l 0.48781,-2.4459339 -0.00956,-0.6534326 C 7.5147375,0.75624703 7.5097981,0.73634572 7.3050844,0.58350481 7.1340425,0.45580353 7.0567541,0.46668556 4.46875,0.98285456 3.1195313,1.2519518 1.9510989,1.4928332 1.8722338,1.5181465 1.7152726,1.5685262 1.5849544,1.6854683 1.5332381,1.8223469 c -0.043614,0.115435 -0.043959,1.2698495 -4.144e-4,1.3865562 0.018053,0.048385 0.188113,0.2441931 0.3779111,0.4351303 L 2.2558224,3.9911919 2.0438338,4.2534084 C 1.4581196,4.9779 1.0512805,5.8168891 0.87583453,6.6620725 0.76523075,7.1948888 0.74239475,7.5932838 0.75858925,8.7075231 c 0.0170872,1.1756613 0.0384996,1.3402719 0.26075095,2.0045569 0.3976471,1.188523 1.260569,2.198282 2.5092855,2.936271 1.1113556,0.656809 2.7044578,1.077953 4.1510619,1.097353 L 8,14.75 Z M 12.21875,8.5794419 C 12.107031,8.4857959 11.920979,8.34434 11.8053,8.2650959 11.689622,8.1858516 11.588453,8.1104613 11.580481,8.0975622 c -0.008,-0.012899 0.29405,-0.3317591 0.671161,-0.7085775 l 0.685655,-0.6851241 0.39748,0.3902572 c 0.218613,0.2146416 0.401292,0.3912497 0.405952,0.3924625 0.02139,0.00557 -1.246414,1.2486925 -1.280381,1.2554606 -0.02116,0.00422 -0.129879,-0.068953 -0.241598,-0.162599 z"
       id="path827"
       inkscape:connector-curvature="0" />
    <path
       style="fill:#cbfefe;stroke-width:0.03125"
       d="M 7.171875,13.214098 C 4.3585128,12.968225 2.1794767,11.555272 1.5042382,9.5390322 1.1151807,8.3773191 1.1843483,6.9558534 1.6853285,5.8174416 1.9647736,5.1824394 2.3814956,4.5973834 3.0325671,3.9259888 L 3.464965,3.4800938 2.7336603,2.7492858 C 2.3314427,2.3473413 2.0067439,2.0140895 2.0121073,2.008726 2.0280144,1.9928189 7.0102134,0.99979675 7.0208334,1.0104167 7.0261866,1.0157698 6.80572,2.1438823 6.5309081,3.5173334 6.2560962,4.8907844 6.03125,6.02169 6.03125,6.0304569 c 0,0.00877 -0.3421616,-0.3260082 -0.7603591,-0.7439441 L 4.5105319,4.5266287 4.4069225,4.6461269 C 4.3499375,4.7118509 4.1731769,4.9021322 4.0141213,5.0689741 3.5185563,5.5887997 3.1662116,6.1120169 2.987308,6.59375 L 2.9350834,6.734375 2.7655277,6.7237347 C 2.5484139,6.71011 2.3154559,6.7605659 2.0784443,6.8725484 1.8373811,6.9864453 1.5362929,7.3212591 1.4374963,7.5852903 c -0.05754,0.1537731 -0.065868,0.230966 -0.056542,0.5240847 0.018468,0.5804588 -0.1190283,0.4075069 2.0664358,2.599295 1.2898122,1.293545 1.9537406,1.937628 2.0530435,1.991675 0.4058581,0.220896 0.8404009,0.225959 1.2844312,0.01497 0.2422383,-0.115109 0.311144,-0.16993 0.6870661,-0.546627 C 7.701735,11.938409 7.9145612,11.75 7.9448784,11.75 7.9960094,11.75 8,11.804297 8,12.5 v 0.75 L 7.7421875,13.2457 C 7.6003906,13.243342 7.34375,13.229119 7.171875,13.214098 Z m 5.3125,-0.71144 c -1.340625,-0.270149 -2.455162,-0.497306 -2.47675,-0.504794 -0.021933,-0.0076 0.283712,-0.336356 0.692784,-0.74515 l 0.732033,-0.731536 -0.378871,-0.284026 C 10.845192,10.080937 10.596721,9.8993066 10.501412,9.8335288 10.406104,9.7677509 10.282114,9.6697722 10.225879,9.6157984 L 10.123632,9.5176644 10.647409,8.9932072 C 10.935486,8.7047556 11.183473,8.46875 11.198491,8.46875 c 0.01502,0 0.07142,0.035962 0.125345,0.079916 0.05392,0.043954 0.177605,0.1388753 0.274852,0.2109375 0.09725,0.072062 0.341661,0.2556407 0.54314,0.4079528 L 12.508155,9.4444866 13.254078,8.69905 C 13.664335,8.2890597 14,7.9607841 14,7.9695481 c 0,0.00876 0.225,1.1404363 0.5,2.5148269 0.275,1.374391 0.5,2.502657 0.5,2.507259 0,0.01704 -0.127186,-0.0077 -2.515625,-0.488976 z M 8,6.9514294 V 6.075735 L 8.1455663,5.95193 C 8.2256275,5.8838372 8.3796269,5.7648437 8.4877872,5.6875 8.9686513,5.3436406 10.118066,4.4841041 10.203125,4.4047641 c 0.05156,-0.048096 0.171609,-0.141265 0.26677,-0.2070429 0.09516,-0.065778 0.351783,-0.2531003 0.570272,-0.4162718 L 11.437421,3.4847737 10.695517,2.7423869 C 10.28747,2.3340741 9.9607841,2 9.9695481,2 c 0.00876,0 1.1396679,-0.2248462 2.5131189,-0.4996582 1.373451,-0.274812 2.501587,-0.4952545 2.506969,-0.4898722 0.0095,0.00951 -0.51033,2.6521345 -0.537678,2.733272 -0.0083,0.024689 -0.08652,-0.037238 -0.199408,-0.1579172 C 13.93861,3.2502213 13.563096,3.1000927 13.129096,3.1366722 12.640331,3.1778675 12.779602,3.0595958 10.257813,5.575015 L 8,7.8271237 Z M 13.889987,5.9368337 13.800155,5.8430694 13.937191,5.70344 c 0.07537,-0.076796 0.140415,-0.1362503 0.144546,-0.1321203 0.0089,0.00891 -0.07907,0.4364312 -0.0926,0.4499609 -0.0051,0.00512 -0.04974,-0.032876 -0.09915,-0.084447 z"
       id="path825"
       inkscape:connector-curvature="0" />
    <path
       style="fill:#989898;stroke-width:0.03125"
       d="M 7.171875,14.214098 C 4.3587516,13.968245 2.1794684,12.555248 1.5043667,10.539416 1.3383031,10.043555 1.2806296,9.69608 1.2644167,9.09375 c -0.0081,-0.3007812 -0.00813,-0.5328125 -7.19e-5,-0.515625 0.00806,0.017188 0.043545,0.1753769 0.078862,0.3515322 0.3564685,1.7780038 1.6546988,3.1267028 3.6924556,3.8359998 0.8021954,0.279226 1.9662197,0.482695 2.7690235,0.484021 L 8,13.25 v 0.5 0.5 L 7.7421875,14.2457 C 7.6003906,14.243342 7.34375,14.229119 7.171875,14.214098 Z m 7.822408,-0.198981 c -0.01475,-0.01475 -4.75121,-0.970102 -4.924915,-0.993364 l -0.075405,-0.0101 0.00445,-0.496845 c 0.00245,-0.273265 0.00732,-0.499566 0.010831,-0.50289 0.0035,-0.0033 1.134894,0.219728 2.514191,0.49567 l 2.507812,0.501714 v 0.510973 c 0,0.281035 -0.0047,0.510973 -0.01042,0.510973 -0.0057,0 -0.01768,-0.0073 -0.02655,-0.01613 z m -4.26224,-3.014555 C 10.664576,10.947398 10.525,10.841002 10.421875,10.764128 9.8185137,10.314353 9.5625,10.115748 9.5625,10.097463 c 0,-0.01135 0.1263263,-0.1463821 0.2807253,-0.3000658 l 0.2807257,-0.2794247 0.102087,0.09798 c 0.05615,0.053889 0.180066,0.1517984 0.275374,0.2175762 0.09531,0.065778 0.343873,0.2474773 0.552366,0.4037763 l 0.379077,0.28418 -0.289072,0.28787 -0.289072,0.28787 z M 5.2642012,6.2790312 4.515625,5.5291731 4.4098612,5.6473991 C 4.3516909,5.7124234 4.1953675,5.878125 4.0624756,6.015625 3.8383762,6.247495 3.4489359,6.7116478 3.3864175,6.8213816 3.3626369,6.8631216 3.3340591,6.8607369 3.1495031,6.8016109 2.9015436,6.7221728 2.9020722,6.7562591 3.1411916,6.265625 3.3347762,5.86842 3.60457,5.498575 4.0141212,5.0689741 4.1731769,4.9021322 4.3499375,4.7118509 4.4069225,4.6461269 L 4.5105319,4.5266287 5.2708909,5.2865128 C 5.6890884,5.7044487 6.0319362,6.0324419 6.0327747,6.0153859 6.0336122,5.99833 6.2572269,4.8804687 6.5296937,3.53125 L 7.0250881,1.078125 7.0281694,1.5474289 7.03125,2.0167328 6.5317628,4.5130619 C 6.257045,5.8860428 6.0278888,7.0137781 6.0225266,7.01914 6.0171647,7.0245022 5.6759181,6.6914531 5.2642012,6.2790312 Z m 8.3754898,0.4075322 -0.34155,-0.3426125 0.248264,-0.2497278 0.248263,-0.2497281 0.09976,0.096693 0.09976,0.096693 0.03677,-0.1830032 c 0.02022,-0.1006515 0.04369,-0.2128353 0.05216,-0.2492965 0.0085,-0.036461 0.07156,-0.1208363 0.140209,-0.1875 0.114762,-0.111441 0.12334,-0.1149119 0.10647,-0.043082 -0.01009,0.042969 -0.08833,0.4284213 -0.173862,0.8565609 -0.08553,0.4281397 -0.159829,0.782751 -0.165103,0.7880254 -0.0053,0.00527 -0.163287,-0.1445863 -0.35114,-0.3330229 z M 14.492094,3.9609375 14.441525,3.796875 14.717669,2.4375 l 0.276143,-1.359375 0.0044,0.453125 c 0.0043,0.4418968 -8.06e-4,0.4796468 -0.207269,1.5234375 C 14.674544,3.6433594 14.571037,4.125 14.560969,4.125 c -0.01007,0 -0.04106,-0.073828 -0.06888,-0.1640625 z M 2.4761844,3.4918209 2,3.014892 V 2.5155079 2.0161237 L 2.7341546,2.7497797 3.4683091,3.4834356 3.2270753,3.7260928 C 3.0943965,3.8595544 2.9783099,3.96875 2.969105,3.96875 c -0.0092,0 -0.2310192,-0.2146181 -0.4929206,-0.4769291 z m 7.9349866,-0.033767 -0.4440751,-0.4448683 0.00864,-0.49128 0.00864,-0.4912801 0.7277831,0.7283406 0.727784,0.7283406 -0.257196,0.1860337 c -0.141459,0.1023188 -0.273015,0.1958322 -0.292349,0.2078079 -0.02076,0.012858 -0.216989,-0.1603879 -0.479227,-0.4230944 z"
       id="path823"
       inkscape:connector-curvature="0" />
    <path
       style="fill:#00fe00;stroke-width:0.03125"
       d="M 5.967205,12.332793 C 5.889012,12.311513 5.7765116,12.263753 5.717205,12.22667 5.6578984,12.189587 4.7979259,11.346462 3.8061547,10.35306 2.4303943,8.9750378 1.9879334,8.5135394 1.9396535,8.40625 1.8306468,8.1640116 1.8663175,7.7542181 2.0088136,7.6117222 2.0320993,7.5884362 2.0854571,7.5291634 2.1273865,7.4800047 2.2497401,7.336555 2.484199,7.2382119 2.7026551,7.23871 3.0676273,7.2395412 3.0550161,7.22923 4.6952725,8.8681338 L 6.18742,10.359051 9.4765225,7.0731197 C 11.836774,4.7151434 12.804983,3.7675759 12.904994,3.7177394 c 0.206497,-0.1029 0.472782,-0.098044 0.699241,0.012752 0.390349,0.1909803 0.553053,0.5828281 0.429811,1.0351337 -0.04071,0.1493863 -0.2006,0.3145634 -3.639873,3.7601119 -3.2418911,3.247806 -3.6173664,3.614026 -3.800423,3.706747 -0.2416359,0.122391 -0.4329147,0.153015 -0.626545,0.100309 z"
       id="path821"
       inkscape:connector-curvature="0" />
    <path
       style="fill:#323232;stroke-width:0.03125"
       d="M 7.046875,14.714098 C 5.7945094,14.604648 4.4655778,14.202088 3.5286256,13.648351 2.2799091,12.910362 1.4169872,11.900603 1.0193401,10.71208 0.79708878,10.047795 0.77567637,9.8831844 0.75858916,8.7075231 0.74239466,7.5932837 0.76523066,7.1948887 0.87583444,6.6620725 1.0512804,5.8168891 1.4581195,4.9779 2.0438337,4.2534084 L 2.2558223,3.9911919 1.9107347,3.6440334 C 1.7209366,3.4530963 1.5508766,3.2572878 1.5328236,3.2089031 1.4892786,3.0921964 1.4896237,1.9377819 1.5332381,1.8223469 1.5849544,1.6854683 1.7152726,1.5685262 1.8722338,1.5181465 1.9510989,1.4928332 3.1195313,1.2519518 4.46875,0.98285456 7.0567541,0.46668556 7.1340425,0.45580353 7.3050844,0.58350481 7.5097981,0.73634572 7.5147375,0.75624703 7.5251862,1.4703247 l 0.00956,0.6534325 -0.48781,2.445934 C 6.7786422,5.9149547 6.5384169,7.0801509 6.5131034,7.1590163 6.4175978,7.45657 6.1124869,7.6065206 5.8223469,7.4984966 5.7739622,7.4804822 5.4644744,7.1966534 5.1345959,6.8677663 L 4.5348166,6.2697894 4.3220959,6.4983003 C 4.2050994,6.6239816 4.0285616,6.8339822 3.9297897,6.9649684 L 3.7502044,7.203125 4.9686972,8.42167 6.1871897,9.6402153 9.3514075,6.4814631 C 12.297034,3.5409244 12.528861,3.3169553 12.707221,3.2393963 c 0.374849,-0.1630023 0.833187,-0.1386216 1.20572,0.064137 0.232075,0.126311 0.509054,0.4386625 0.575276,0.6487419 0.02995,0.094999 0.06268,0.1727253 0.07275,0.1727253 0.01007,0 0.113575,-0.4816406 0.230015,-1.0703125 0.208263,-1.0528829 0.211689,-1.0783276 0.210363,-1.5625 C 15.000606,1.2214844 14.996235,1 14.991634,1 14.987032,1 13.858766,1.225 12.484375,1.5 11.109984,1.775 9.9817178,2 9.9771163,2 9.972515,2 9.96875,2.2283397 9.96875,2.5074215 v 0.5074216 l 0.445313,0.4461106 0.445312,0.4461107 -0.09375,0.078516 c -0.05156,0.043184 -0.166777,0.1266881 -0.256032,0.185566 -0.08926,0.058877 -0.215818,0.1548262 -0.28125,0.2132193 C 10.110035,4.4899466 8.8604075,5.4234844 8.4905744,5.6825713 8.3840397,5.7572041 8.2546875,5.856375 8.203125,5.9029512 7.9877175,6.0975278 8,6.1079672 8,5.7303072 V 5.3904613 L 8.2017888,5.2499181 C 8.4997844,5.0423681 9.8760603,4.013445 9.9812241,3.9195872 L 10.071823,3.8387281 9.8031563,3.5678016 C 9.6553894,3.4187919 9.5196978,3.2572878 9.5016194,3.2089031 9.4580291,3.0922378 9.4583359,1.9378819 9.5019881,1.8223469 9.5537044,1.6854683 9.6840225,1.5685263 9.8409838,1.5181465 9.9198491,1.4928332 11.088281,1.2519518 12.4375,0.98285456 c 2.588004,-0.516169 2.665293,-0.52705103 2.836334,-0.39934975 0.204714,0.15284091 0.209654,0.17274222 0.220102,0.88681989 l 0.0096,0.6534325 -0.48781,2.445934 c -0.268296,1.3452635 -0.509058,2.512075 -0.535027,2.5929141 -0.02885,0.089815 -0.08964,0.1842288 -0.156292,0.2427506 l -0.109076,0.09577 0.09973,0.083915 c 0.05485,0.046154 0.11999,0.13241 0.144755,0.1916812 0.02477,0.059271 0.272358,1.2271153 0.550207,2.5952099 l 0.505179,2.487443 2.19e-4,0.677432 c 2.18e-4,0.63567 -0.0037,0.682749 -0.0642,0.763694 -0.122218,0.16363 -0.222407,0.215255 -0.41438,0.213522 -0.09857,-8.91e-4 -1.253976,-0.218586 -2.599314,-0.48975 -1.332031,-0.26848 -2.4749098,-0.496969 -2.5397304,-0.507751 -0.1396394,-0.02323 -0.329541,-0.179348 -0.3806185,-0.312909 -0.02933,-0.0767 -0.04313,-1.017087 -0.02059,-1.403135 0.00189,-0.03239 0.1300066,-0.18796 0.2847007,-0.345704 L 10.062551,11.167966 9.973494,11.082646 C 9.924472,11.035716 9.7240762,10.879246 9.5281294,10.734931 L 9.171875,10.472541 8.5859375,11.056275 C 8.2636719,11.377328 8,11.664756 8,11.695004 c 0,0.03171 -0.02334,0.055 -0.055122,0.055 -0.030317,0 -0.2431434,0.188409 -0.4729475,0.418688 C 7.0960087,12.545385 7.0271031,12.600206 6.784865,12.715312 6.3408347,12.926304 5.9062919,12.921241 5.5004337,12.700345 5.4011309,12.646298 4.7372025,12.002215 3.4473903,10.70867 1.2619262,8.5168819 1.3994226,8.6898338 1.3809545,8.109375 1.3716286,7.8162563 1.3799567,7.7390634 1.4374963,7.5852903 1.5362929,7.3212591 1.8373811,6.9864453 2.0784443,6.8725484 2.4469712,6.6984278 2.8367469,6.6763494 3.1877338,6.8097137 3.3412356,6.86804 3.3600234,6.8694019 3.3854088,6.8240409 3.4473688,6.7133244 3.8350853,6.25095 4.0632925,6.015625 4.1966337,5.878125 4.3518112,5.7118509 4.4081316,5.6461269 l 0.1024003,-0.1194981 0.760359,0.759884 C 5.6890884,6.7044487 6.03125,7.0392237 6.03125,7.0304569 c 0,-0.00877 0.225,-1.1404413 0.5,-2.5148319 l 0.5,-2.4988922 V 1.5083664 C 7.03125,1.2287649 7.027485,1 7.0228837,1 7.0182822,1 5.8900156,1.225 4.515625,1.5 3.1412344,1.775 2.0129679,2 2.0083664,2 2.0037649,2 2,2.2286858 2,2.5081906 V 3.0163813 L 2.4821007,3.4977291 2.9642013,3.9790772 2.7294984,4.2428731 C 1.9856317,5.0789472 1.5497127,5.9085441 1.3628446,6.84375 1.2716247,7.3002719 1.2474275,7.7284206 1.2595264,8.671875 c 0.013239,1.0323347 0.044171,1.2683491 0.2447118,1.867157 0.6162604,1.840133 2.4818774,3.186046 4.9684196,3.584368 0.4281038,0.06858 1.031505,0.125782 1.3320297,0.126278 L 8,14.25 v 0.25 0.25 L 7.6796875,14.7457 C 7.5035156,14.743342 7.21875,14.729119 7.046875,14.714098 Z m 7.976482,-1.385277 C 15.013606,13.035119 14.937383,12.616158 14.50596,10.484929 14.227682,9.1102334 14,7.9783122 14,7.9695481 14,7.9607841 13.664335,8.2890597 13.254078,8.69905 L 12.508155,9.4444866 12.141828,9.1675559 C 11.940349,9.0152438 11.695936,8.831665 11.598688,8.7596031 11.501441,8.6875409 11.377758,8.5926191 11.323836,8.5486656 11.269915,8.5047119 11.213764,8.46875 11.199057,8.46875 c -0.0316,0 -1.636557,1.598974 -1.636557,1.630458 0,0.01184 0.1210475,0.10892 0.2689944,0.215724 0.1479469,0.106805 0.3342746,0.250821 0.4140626,0.320038 0.07979,0.06922 0.202441,0.162338 0.272563,0.206937 0.07012,0.0446 0.174377,0.120537 0.231676,0.168751 l 0.104181,0.08766 -0.428634,0.429455 -0.4286324,0.429455 v 0.527396 0.527397 l 0.074031,0.0099 c 0.1943,0.02602 4.909789,0.979459 4.926146,0.996032 0.02729,0.02765 0.03961,-0.293253 0.02647,-0.689148 z M 6.59375,12.232484 C 6.7768066,12.139763 7.1522819,11.773543 10.394173,8.5257369 13.833446,5.0801884 13.993341,4.9150112 14.034046,4.765625 14.157288,4.3133194 13.994584,3.9214716 13.604235,3.7304913 13.377776,3.6196956 13.111491,3.6148394 12.904994,3.7177394 12.804983,3.7675759 11.836774,4.7151434 9.4765225,7.0731197 L 6.18742,10.359051 4.6952725,8.8681338 C 3.0550161,7.2292297 3.0676273,7.2395422 2.7026551,7.23871 2.484199,7.2382131 2.2497401,7.336555 2.1273865,7.4800047 2.0854571,7.5291634 2.0320993,7.5884362 2.0088136,7.6117222 1.8663175,7.7542181 1.8306468,8.1640116 1.9396535,8.40625 c 0.04828,0.1072894 0.4907408,0.5687878 1.8665012,1.94681 0.9917712,0.993402 1.8517437,1.836527 1.9110503,1.87361 0.2718597,0.16999 0.5487878,0.171827 0.876545,0.0058 z m 6.530262,-4.1209037 c 0.343855,-0.3425369 0.621377,-0.6237869 0.616717,-0.625 -0.0047,-0.00121 -0.187339,-0.1778209 -0.405952,-0.3924625 l -0.39748,-0.3902572 -0.685655,0.6851241 c -0.377111,0.3768184 -0.679133,0.6956781 -0.671161,0.7085775 0.008,0.012899 0.109141,0.088289 0.224819,0.1675337 0.115679,0.079244 0.301731,0.2207 0.41345,0.314346 0.111719,0.093646 0.220438,0.1668156 0.241598,0.162599 0.02116,-0.00422 0.319809,-0.2879234 0.663664,-0.6304606 z m 1.045369,-1.9426081 c 0.09283,-0.462466 0.165859,-0.8438566 0.162285,-0.8475344 -0.0036,-0.00368 -0.237665,0.2247975 -0.520201,0.5077234 l -0.513702,0.5144107 0.341739,0.3428018 c 0.187957,0.188541 0.346094,0.3384469 0.351417,0.3331238 0.0053,-0.00532 0.08563,-0.3880591 0.178462,-0.8505253 z"
       id="path819"
       inkscape:connector-curvature="0" />
  </g>
</svg>
