<?xml version="1.0" encoding="UTF-8" standalone="no"?>
<!-- Created with Inkscape (http://www.inkscape.org/) -->

<svg
   xmlns:dc="http://purl.org/dc/elements/1.1/"
   xmlns:cc="http://creativecommons.org/ns#"
   xmlns:rdf="http://www.w3.org/1999/02/22-rdf-syntax-ns#"
   xmlns:svg="http://www.w3.org/2000/svg"
   xmlns="http://www.w3.org/2000/svg"
   xmlns:sodipodi="http://sodipodi.sourceforge.net/DTD/sodipodi-0.dtd"
   xmlns:inkscape="http://www.inkscape.org/namespaces/inkscape"
   version="1.1"
   id="svg2"
   width="16"
   height="16"
   viewBox="0 0 16 16"
   sodipodi:docname="APPLYMOVE.svg"
   inkscape:version="0.92.4 (5da689c313, 2019-01-14)">
  <metadata
     id="metadata8">
    <rdf:RDF>
      <cc:Work
         rdf:about="">
        <dc:format>image/svg+xml</dc:format>
        <dc:type
           rdf:resource="http://purl.org/dc/dcmitype/StillImage" />
        <dc:title></dc:title>
      </cc:Work>
    </rdf:RDF>
  </metadata>
  <defs
     id="defs6" />
  <sodipodi:namedview
     pagecolor="#ffffff"
     bordercolor="#666666"
     borderopacity="1"
     objecttolerance="10"
     gridtolerance="10"
     guidetolerance="10"
     inkscape:pageopacity="0"
     inkscape:pageshadow="2"
     inkscape:window-width="978"
     inkscape:window-height="602"
     id="namedview4"
     showgrid="false"
     inkscape:zoom="14.75"
     inkscape:cx="8"
     inkscape:cy="8"
     inkscape:window-x="0"
     inkscape:window-y="0"
     inkscape:window-maximized="0"
     inkscape:current-layer="svg2" />
  <g
     id="APPLYMOVE">
    <path
       style="fill:#ffffff;stroke-width:0.03125"
       d="M 0,8 V 0 h 8 8 v 8 8 H 8 0 Z m 15.304052,6.448516 c 0.04549,-0.03396 0.111705,-0.100571 0.147142,-0.148015 0.06046,-0.08094 0.06442,-0.128024 0.0642,-0.763694 L 15.515162,12.859375 15.010207,10.375 C 14.732481,9.0085937 14.489071,7.8484375 14.469294,7.796875 14.365023,7.5250131 14.044535,7.3942047 13.772434,7.5124484 c -0.05531,0.024034 -0.367608,0.3123157 -0.694001,0.640625 -0.326392,0.3283097 -0.607642,0.5963016 -0.625,0.5955375 C 12.436076,8.7478453 12.344531,8.6840297 12.25,8.6067947 12.090029,8.4760934 11.800681,8.2571956 11.629627,8.1374697 l -0.0735,-0.051444 1.436867,-1.4414503 1.436867,-1.4414506 0.07399,-0.21875 C 14.606655,4.6804416 14.606835,4.2872572 14.504308,3.9897347 14.417112,3.7366997 14.159419,3.4376825 13.912943,3.3035328 13.54015,3.1006341 13.081663,3.0763383 12.707222,3.2396403 12.532556,3.3158163 12.377228,3.4610631 10.949328,4.8834419 L 9.3830281,6.4436844 8.7774516,5.9991719 C 8.4443844,5.75469 8.1296875,5.5155338 8.078125,5.4677134 8.0265625,5.4198931 7.8972766,5.3197041 7.7908228,5.2450712 7.4832881,5.0294641 6.1186234,4.0087003 6.0187759,3.9195872 L 5.9281766,3.8387281 6.1968437,3.5678016 C 6.3446106,3.4187919 6.4803022,3.2572878 6.4983806,3.2089031 6.5419709,3.0922378 6.5416641,1.9378819 6.4980119,1.8223469 6.4462956,1.6854683 6.3159775,1.5685262 6.1590163,1.5181465 6.0801509,1.4928332 4.9117188,1.2519518 3.5625,0.98285456 0.97449603,0.46668556 0.89720753,0.45580353 0.72616553,0.58350481 0.52145175,0.73634572 0.51651241,0.75624703 0.50606362,1.4703247 l -0.009561,0.6534325 0.48781003,2.445934 C 1.2526078,5.9149547 1.4927852,7.0800062 1.5180397,7.1586947 1.5623765,7.2968394 1.5609737,7.308135 1.4772911,7.4868197 1.3970614,7.6581316 1.390625,7.7008856 1.390625,8.0625 c 0,0.6276681 -0.1558641,0.4271381 2.0567653,2.64617 1.2898122,1.293545 1.9537406,1.937628 2.0530434,1.991675 0.3947191,0.214833 0.8349929,0.224629 1.2641788,0.02813 0.2438588,-0.11165 0.2817391,-0.145431 1.3291375,-1.185304 l 1.078125,-1.070378 0.3562669,0.262266 c 0.1959469,0.144246 0.3963428,0.30066 0.4453247,0.347588 l 0.089057,0.08532 -0.2812629,0.286808 c -0.1546941,0.157744 -0.2828094,0.313311 -0.2847007,0.345704 -0.02254,0.386048 -0.00874,1.32644 0.02059,1.403135 0.051075,0.133554 0.2409791,0.289679 0.3806185,0.312916 0.3327201,0.05537 4.8478721,0.959671 4.9147311,0.984333 0.125358,0.04624 0.398463,0.01716 0.491552,-0.05235 z M 4.8296169,8.2827422 C 3.4480388,6.9008837 3.4388113,6.8928978 3.0797538,6.7683331 3.0271083,6.7500694 3.0532359,6.7128625 3.2731019,6.4929966 L 3.5273213,6.2387772 3.6563006,6.32816 c 0.070939,0.049161 0.1884028,0.1416897 0.2610319,0.20562 0.072629,0.063931 0.2186525,0.1774053 0.3244969,0.2521662 0.4090812,0.2889454 1.6221965,1.194931 1.7112956,1.2780397 0.051563,0.048096 0.1724163,0.141265 0.2685637,0.2070428 C 6.38183,8.3805872 6.8805772,8.7539647 6.95211,8.8178444 6.9705053,8.8342719 6.8299634,8.9975931 6.5932038,9.2349225 6.3791763,9.449465 6.1967594,9.625 6.1878328,9.625 6.1789059,9.625 5.5677091,9.0209841 4.8296169,8.2827422 Z"
       id="path827"
       inkscape:connector-curvature="0" />
    <path
       style="fill:#cbfefe;stroke-width:0.03125"
       d="m 12.484375,12.502658 c -1.340625,-0.270149 -2.455162,-0.497306 -2.47675,-0.504794 -0.021933,-0.0076 0.283712,-0.336356 0.692784,-0.74515 l 0.732033,-0.731536 -0.378871,-0.284026 C 10.845192,10.080937 10.596721,9.8993066 10.501412,9.8335288 10.406104,9.7677509 10.282114,9.6697722 10.225879,9.6157984 L 10.123632,9.5176644 10.647409,8.9932072 C 10.935486,8.7047556 11.183473,8.46875 11.198491,8.46875 c 0.01502,0 0.07142,0.035962 0.125345,0.079916 0.05392,0.043954 0.177605,0.1388753 0.274852,0.2109375 0.09725,0.072062 0.341661,0.2556407 0.54314,0.4079528 L 12.508155,9.4444866 13.254078,8.69905 C 13.664335,8.2890597 14,7.9607841 14,7.9695481 c 0,0.00876 0.225,1.1404363 0.5,2.5148269 0.275,1.374391 0.5,2.502657 0.5,2.507259 0,0.01704 -0.127186,-0.0077 -2.515625,-0.488976 z M 7.3141241,7.4296875 C 6.9848647,7.1847656 6.6283178,6.9233119 6.5217978,6.8486788 6.4152778,6.7740459 6.2859375,6.6738453 6.234375,6.6260109 6.1414825,6.5398347 4.8945691,5.6098053 4.5218244,5.3486788 4.4152897,5.2740459 4.2859375,5.1737931 4.234375,5.1258947 4.1828125,5.0779963 3.9933203,4.9313941 3.8132813,4.8001116 L 3.4859375,4.5614169 2.7429687,5.3039016 C 2.3343359,5.7122684 2,6.0392159 2,6.0304519 2,6.0216878 1.7751538,4.8907844 1.5003418,3.5173334 1.2255298,2.1438823 1.0050635,1.0157698 1.0104167,1.0104167 1.0157698,1.0050635 2.1438823,1.2255298 3.5173334,1.5003418 4.8907844,1.7751538 6.0216878,2 6.0304519,2 6.0392159,2 5.71253,2.3340741 5.3044831,2.7423869 L 4.5625794,3.4847738 4.9598325,3.7814494 c 0.2184891,0.1631715 0.4751116,0.350494 0.5702725,0.4162718 0.095161,0.065778 0.2152075,0.1589472 0.26677,0.2070429 0.092318,0.086111 1.3346681,1.0130815 1.7125506,1.2778072 0.1065347,0.074633 0.2358869,0.1748112 0.2874494,0.2226184 0.051563,0.047808 0.3398438,0.2667262 0.640625,0.4864865 0.3007813,0.21976 0.5532431,0.404856 0.5610262,0.4113241 C 9.0151222,6.8167925 7.9635969,7.875 7.9332962,7.875 7.9220109,7.875 7.6433837,7.6746094 7.3141241,7.4296875 Z"
       id="path825"
       inkscape:connector-curvature="0" />
    <path
       style="fill:#989898;stroke-width:0.03125"
       d="m 14.994283,14.015117 c -0.01475,-0.01475 -4.75121,-0.970102 -4.924915,-0.993364 l -0.075405,-0.0101 0.00445,-0.496845 c 0.00245,-0.273265 0.00732,-0.499566 0.010831,-0.50289 0.0035,-0.0033 1.134894,0.219728 2.514191,0.49567 l 2.507812,0.501714 v 0.510973 c 0,0.281035 -0.0047,0.510973 -0.01042,0.510973 -0.0057,0 -0.01768,-0.0073 -0.02655,-0.01613 z m -4.26224,-3.014555 C 10.664576,10.947398 10.525,10.841002 10.421875,10.764128 9.8185137,10.314353 9.5625,10.115748 9.5625,10.097463 c 0,-0.01135 0.1263263,-0.1463821 0.2807253,-0.3000658 l 0.2807257,-0.2794247 0.102087,0.09798 c 0.05615,0.053889 0.180066,0.1517984 0.275374,0.2175762 0.09531,0.065778 0.343873,0.2474773 0.552366,0.4037763 l 0.379077,0.28418 -0.289072,0.28787 -0.289072,0.28787 z M 7.0170816,8.2105434 C 6.8290309,8.0689634 6.5970859,7.8993066 6.5016481,7.8335287 6.4062103,7.7677509 6.2859375,7.6745816 6.234375,7.6264859 6.1420572,7.540375 4.8997069,6.6134044 4.5218244,6.3486787 4.4152897,6.2740459 4.2859375,6.1737931 4.234375,6.1258947 4.1828125,6.0779962 3.9933306,5.9314016 3.8133044,5.8001287 L 3.4859834,5.5614506 2.8601793,6.1799906 C 2.3184852,6.7153969 2.033692,6.9514084 1.9871761,6.9034591 1.9803284,6.8964003 1.7553989,5.79375 1.4873327,4.453125 l -0.48739314,-2.4375 0.003111,-0.46875 0.00311,-0.46875 0.4953942,2.453125 c 0.2724684,1.3492188 0.496082,2.4670775 0.4969206,2.4841309 8.388e-4,0.017053 0.3358607,-0.3031125 0.7444935,-0.7114793 L 3.4859375,4.5614169 3.8132812,4.8001116 c 0.1800391,0.1312825 0.3695313,0.2778846 0.4210938,0.3257831 0.051563,0.047898 0.1809147,0.1481512 0.2874494,0.222784 0.3727447,0.2611266 1.6196581,1.191156 1.7125506,1.2773322 0.051563,0.047834 0.18101,0.148035 0.2876612,0.2226678 0.1697579,0.1187941 1.3303597,0.9735722 1.3915526,1.0248725 0.01263,0.010589 -0.1069872,0.1486625 -0.2658166,0.3068313 L 7.3589919,8.4679622 Z M 4.8506512,3.6963363 4.5608553,3.4865094 5.28824,2.7585677 6.015625,2.030626 6.024265,2.5221648 6.032905,3.0137035 5.5866753,3.4599334 5.1404456,3.9061631 Z"
       id="path823"
       inkscape:connector-curvature="0" />
    <path
       style="fill:#00fe00;stroke-width:0.03125"
       d="M 5.967205,12.332793 C 5.889012,12.311513 5.7765116,12.263753 5.717205,12.22667 5.6578984,12.189587 4.7979259,11.346462 3.8061547,10.35306 2.4303943,8.9750378 1.9879334,8.5135394 1.9396535,8.40625 1.8306468,8.1640116 1.8663175,7.7542181 2.0088136,7.6117222 2.0320993,7.5884362 2.0854571,7.5291634 2.1273865,7.4800047 2.2497401,7.336555 2.484199,7.2382119 2.7026551,7.23871 3.0676273,7.2395412 3.0550161,7.22923 4.6952725,8.8681338 L 6.18742,10.359051 9.4765225,7.0731197 C 11.836774,4.7151434 12.804983,3.7675759 12.904994,3.7177394 c 0.206497,-0.1029 0.472782,-0.098044 0.699241,0.012752 0.390349,0.1909803 0.553053,0.5828281 0.429811,1.0351337 -0.04071,0.1493863 -0.2006,0.3145634 -3.639873,3.7601119 -3.2418911,3.247806 -3.6173664,3.614026 -3.800423,3.706747 -0.2416359,0.122391 -0.4329147,0.153015 -0.626545,0.100309 z"
       id="path821"
       inkscape:connector-curvature="0" />
    <path
       style="fill:#323232;stroke-width:0.03125"
       d="M 14.8125,14.500862 C 14.745641,14.4762 10.230489,13.571897 9.8977694,13.516529 9.75813,13.493292 9.5682256,13.337167 9.5171509,13.203613 c -0.02933,-0.0767 -0.04313,-1.017087 -0.02059,-1.403135 0.00189,-0.03239 0.1300066,-0.18796 0.2847007,-0.345704 L 10.062524,11.167966 9.973467,11.082646 C 9.924485,11.035716 9.724089,10.879302 9.5281422,10.735056 L 9.171875,10.47279 8.09375,11.543168 C 7.0463516,12.583041 7.0084712,12.616822 6.7646125,12.728472 6.3354266,12.924974 5.8951528,12.915178 5.5004337,12.700345 5.4011309,12.646297 4.7372025,12.002215 3.4473903,10.70867 1.2347609,8.4896381 1.390625,8.6901681 1.390625,8.0625 c 0,-0.3616144 0.00644,-0.4043684 0.086666,-0.5756803 C 1.5609737,7.308135 1.5623765,7.2968394 1.5180397,7.1586947 1.4927852,7.0800062 1.2526078,5.9149547 0.98431231,4.5696912 L 0.49650228,2.1237573 0.50606362,1.4703247 C 0.51651241,0.75624703 0.52145175,0.73634572 0.72616553,0.58350481 0.89720753,0.45580353 0.97449603,0.46668556 3.5625,0.98285456 4.9117188,1.2519518 6.0801509,1.4928332 6.1590163,1.5181465 c 0.1569612,0.05038 0.2872793,0.1673218 0.3389956,0.3042004 0.043652,0.115535 0.043959,1.2698909 3.687e-4,1.3865562 -0.018078,0.048385 -0.15377,0.2098888 -0.3015369,0.3588985 l -0.2686671,0.2709265 0.090599,0.080859 c 0.099848,0.089113 1.4645122,1.1098769 1.7720469,1.3254841 0.1064538,0.074633 0.2357397,0.1748218 0.2873022,0.2226421 0.051562,0.04782 0.3662594,0.2869766 0.6993266,0.5314585 L 9.3830281,6.4436844 10.949327,4.8834419 c 1.427899,-1.4223788 1.583227,-1.5676256 1.757894,-1.6438016 0.374441,-0.163302 0.832928,-0.1390062 1.20572,0.063893 0.246477,0.1341497 0.504169,0.4331669 0.591366,0.6862019 0.102528,0.2975225 0.102348,0.6907069 -4.56e-4,0.9946403 l -0.07399,0.21875 -1.436867,1.4414506 -1.436867,1.4414503 0.0735,0.051444 c 0.171054,0.1197259 0.460403,0.3386237 0.620374,0.469325 0.09453,0.077235 0.186076,0.1410522 0.203433,0.1418162 0.01736,7.657e-4 0.298607,-0.2672278 0.625,-0.5955375 0.326393,-0.3283093 0.638693,-0.6165906 0.694,-0.640625 0.272102,-0.1182437 0.592589,0.012565 0.696861,0.2844266 0.01978,0.051563 0.263187,1.2117187 0.540913,2.5781253 l 0.504955,2.484375 2.18e-4,0.677432 c 2.19e-4,0.63567 -0.0037,0.682749 -0.0642,0.763694 -0.11176,0.149628 -0.218896,0.209124 -0.395211,0.219472 -0.09095,0.0053 -0.200514,-0.0033 -0.243483,-0.01911 z m 0.210857,-1.172041 C 15.013606,13.035119 14.937383,12.616158 14.50596,10.484929 14.227682,9.1102334 14,7.9783122 14,7.9695481 14,7.9607841 13.664335,8.2890597 13.254078,8.69905 L 12.508155,9.4444866 12.141828,9.1675559 C 11.940349,9.0152438 11.695936,8.831665 11.598688,8.7596031 11.501441,8.6875409 11.377758,8.5926191 11.323836,8.5486656 11.269915,8.5047119 11.213764,8.46875 11.199057,8.46875 c -0.0316,0 -1.636557,1.598974 -1.636557,1.630458 0,0.01184 0.1210475,0.10892 0.2689944,0.215724 0.1479469,0.106805 0.3342746,0.250821 0.4140626,0.320038 0.07979,0.06922 0.202441,0.162338 0.272563,0.206937 0.07012,0.0446 0.174377,0.120537 0.231676,0.168751 l 0.104181,0.08766 -0.428634,0.429455 -0.4286324,0.429455 v 0.527396 0.527397 l 0.074031,0.0099 c 0.1943,0.02602 4.909789,0.979459 4.926146,0.996032 0.02729,0.02765 0.03961,-0.293253 0.02647,-0.689148 z M 6.59375,12.232484 C 6.7768066,12.139763 7.1522819,11.773543 10.394173,8.5257369 13.833446,5.0801884 13.993341,4.9150112 14.034046,4.765625 14.157288,4.3133194 13.994584,3.9214716 13.604235,3.7304913 13.377776,3.6196956 13.111491,3.6148394 12.904994,3.7177394 12.804983,3.7675759 11.836774,4.7151434 9.4765225,7.0731197 L 6.18742,10.359051 4.6952725,8.8681338 C 3.0550161,7.2292297 3.0676273,7.2395422 2.7026551,7.23871 2.484199,7.2382131 2.2497401,7.336555 2.1273865,7.4800047 2.0854571,7.5291634 2.0320993,7.5884362 2.0088136,7.6117222 1.8663175,7.7542181 1.8306468,8.1640116 1.9396535,8.40625 c 0.04828,0.1072894 0.4907408,0.5687878 1.8665012,1.94681 0.9917712,0.993402 1.8517437,1.836527 1.9110503,1.87361 0.2718597,0.16999 0.5487878,0.171827 0.876545,0.0058 z M 6.5932031,9.2349225 C 6.8299628,8.9975931 6.9705047,8.8342719 6.9521094,8.8178444 6.8805766,8.7539647 6.3818294,8.3805872 6.2216881,8.2710287 6.1255406,8.2052509 6.0046869,8.1120816 5.9531244,8.0639859 5.8640253,7.9808772 4.65091,7.0748916 4.2418287,6.7859462 4.1359844,6.7111853 3.9899606,6.5977106 3.9173319,6.53378 3.8447028,6.4698497 3.7272384,6.3773206 3.6563,6.32816 L 3.5273206,6.2387772 3.2731012,6.4929966 C 3.0532353,6.7128625 3.0271077,6.7500694 3.0797532,6.7683331 3.4388106,6.8928978 3.4480381,6.9008837 4.8296162,8.2827422 5.5677091,9.0209841 6.1789059,9.625 6.1878328,9.625 c 0.00893,0 0.1913434,-0.175535 0.4053703,-0.3900775 z M 8.9987606,6.8127212 C 8.9980794,6.8040056 8.7843672,6.6421875 8.5238444,6.453125 8.2633219,6.2640625 7.9812537,6.053125 7.8970266,5.984375 7.8127994,5.915625 7.6476606,5.7890625 7.5300519,5.703125 6.7828084,5.1571106 5.8727666,4.4745984 5.7716569,4.3843656 5.7062247,4.3259725 5.5796622,4.2300237 5.4904069,4.1711462 5.4011516,4.1122684 5.2859369,4.0287637 5.2343744,3.9855803 L 5.1406244,3.9070644 5.5859369,3.4609537 6.03125,3.0148431 V 2.5074215 C 6.03125,2.2283397 6.027485,2 6.0228837,2 6.0182822,2 4.8900156,1.775 3.515625,1.5 2.1412343,1.225 1.0129679,1 1.0083664,1 c -0.0046,0 -0.00838,0.2285156 -0.008397,0.5078125 l -3.022e-5,0.5078125 0.48739312,2.4375 C 1.7553989,5.79375 1.9803284,6.8964003 1.9871761,6.9034591 2.033692,6.9514084 2.3184852,6.7153969 2.8601793,6.1799906 l 0.6258041,-0.61854 0.327321,0.2386781 c 0.1800262,0.1312729 0.3695081,0.2778675 0.4210706,0.325766 0.051563,0.047898 0.1809147,0.1481512 0.2874494,0.222784 0.3778825,0.2647257 1.6202328,1.1916963 1.7125506,1.2778072 0.051563,0.048096 0.1718353,0.141265 0.2672731,0.2070428 0.095438,0.065778 0.3274691,0.2355054 0.515625,0.3771722 L 7.359375,8.4682769 8.1796875,7.6484222 C 8.6308594,7.1975019 8.9994425,6.8214366 8.9987612,6.8127212 Z"
       id="path819"
       inkscape:connector-curvature="0" />
  </g>
</svg>
