<?xml version="1.0" encoding="UTF-8" standalone="no"?>
<!-- Created with Inkscape (http://www.inkscape.org/) -->

<svg
   xmlns:dc="http://purl.org/dc/elements/1.1/"
   xmlns:cc="http://creativecommons.org/ns#"
   xmlns:rdf="http://www.w3.org/1999/02/22-rdf-syntax-ns#"
   xmlns:svg="http://www.w3.org/2000/svg"
   xmlns="http://www.w3.org/2000/svg"
   xmlns:sodipodi="http://sodipodi.sourceforge.net/DTD/sodipodi-0.dtd"
   xmlns:inkscape="http://www.inkscape.org/namespaces/inkscape"
   version="1.1"
   id="svg2"
   width="16"
   height="16"
   viewBox="0 0 16 16"
   sodipodi:docname="CLEARROTATE.svg"
   inkscape:version="0.92.4 (5da689c313, 2019-01-14)">
  <metadata
     id="metadata8">
    <rdf:RDF>
      <cc:Work
         rdf:about="">
        <dc:format>image/svg+xml</dc:format>
        <dc:type
           rdf:resource="http://purl.org/dc/dcmitype/StillImage" />
        <dc:title></dc:title>
      </cc:Work>
    </rdf:RDF>
  </metadata>
  <defs
     id="defs6" />
  <sodipodi:namedview
     pagecolor="#ffffff"
     bordercolor="#666666"
     borderopacity="1"
     objecttolerance="10"
     gridtolerance="10"
     guidetolerance="10"
     inkscape:pageopacity="0"
     inkscape:pageshadow="2"
     inkscape:window-width="1110"
     inkscape:window-height="716"
     id="namedview4"
     showgrid="false"
     inkscape:zoom="14.75"
     inkscape:cx="8"
     inkscape:cy="8"
     inkscape:window-x="0"
     inkscape:window-y="0"
     inkscape:window-maximized="0"
     inkscape:current-layer="svg2" />
  <g
     id="CLEARROTATE">
    <path
       style="fill:#ffffff;stroke-width:0.03125"
       d="M 0,8 V 0 h 8 8 v 8 8 H 8 0 Z m 9.6510556,6.865568 c 0.1260494,-0.04393 0.3369869,-0.149669 0.4687504,-0.234971 0.144509,-0.09356 0.307768,-0.170624 0.411444,-0.194229 0.273634,-0.0623 0.939662,-0.29797 1.307634,-0.462698 1.532384,-0.685992 2.677939,-1.875234 3.141776,-3.26159 0.222251,-0.664285 0.243664,-0.8288956 0.260751,-2.0045569 0.01619,-1.1142394 -0.0066,-1.5126344 -0.117245,-2.0454506 C 14.949498,5.8206366 14.541546,4.9774662 13.962691,4.26149 L 13.757227,4.0073547 14.100625,3.66774 c 0.18887,-0.1867884 0.363025,-0.3848666 0.387012,-0.4401737 0.05394,-0.1243725 0.06238,-1.2675726 0.01037,-1.4052194 C 14.446296,1.6854683 14.315978,1.5685263 14.159016,1.5181465 14.080151,1.4928332 12.911719,1.2519518 11.5625,0.98285456 8.9744959,0.46668556 8.8972075,0.45580353 8.7261656,0.58350481 8.5215753,0.73625341 8.5165091,0.7565985 8.5060894,1.4672685 L 8.4965494,2.1176449 8.318585,2.1855219 C 8.2207091,2.2228549 8.0526978,2.3105604 7.9452312,2.3804234 7.7505166,2.5070056 7.40625,2.8473343 7.40625,2.9132396 c 0,0.019072 -0.00705,0.027629 -0.015662,0.019016 C 7.381978,2.9236456 7.410893,2.7390516 7.454853,2.5220553 7.528205,2.1599691 7.5339916,2.0736126 7.5252022,1.4722041 7.5147356,0.75603081 7.5098737,0.73640213 7.3050844,0.58350481 7.1340425,0.45580353 7.0567541,0.46668556 4.46875,0.98285456 3.1195313,1.2519518 1.9510989,1.4928332 1.8722338,1.5181465 1.7152726,1.5685262 1.5849544,1.6854683 1.5332381,1.8223469 c -0.043614,0.115435 -0.043959,1.2698495 -4.144e-4,1.3865562 0.018053,0.048385 0.188113,0.2441931 0.3779111,0.4351303 L 2.2558224,3.9911919 2.0438338,4.2534084 C 1.4581196,4.9779 1.0512805,5.8168891 0.87583453,6.6620725 0.76523075,7.1948888 0.74239475,7.5932838 0.75858925,8.7075231 c 0.0170872,1.1756613 0.0384996,1.3402719 0.26075095,2.0045569 0.3976471,1.188523 1.260569,2.198282 2.5092855,2.936271 1.1303788,0.668052 2.7994475,1.09977 4.257846,1.101327 0.2371946,2.5e-4 0.3345437,0.01438 0.453125,0.06576 0.4050584,0.175509 0.9919143,0.196351 1.4114589,0.05013 z M 6.6496172,7.887985 6.2523594,7.4960191 6.3586466,7.4026975 C 6.4171047,7.3513706 6.4823887,7.2573444 6.5037225,7.1937506 6.5250562,7.1301566 6.6581153,6.5085938 6.7994097,5.8125 l 0.256899,-1.265625 0.0031,1.8671875 C 7.0611087,7.4410156 7.05899,8.2809578 7.0546887,8.2806006 7.0503919,8.2802444 6.8681103,8.1035663 6.6496184,7.887985 Z M 10.96875,7.5456753 V 6.795495 l 0.257813,-0.2558009 0.257812,-0.2558013 0.258717,0.2877409 c 0.142295,0.1582579 0.322405,0.3791476 0.400245,0.4908663 l 0.141528,0.203125 -0.161629,0.071269 C 11.862615,7.4518119 11.693535,7.5807025 11.320313,7.948965 L 10.96875,8.2958556 Z m -7.625,0.6469175 c 0,-0.087205 0.1665506,-0.5309437 0.2832481,-0.754655 C 3.7717775,7.1603931 4.0273172,6.8149609 4.3221759,6.4982141 L 4.5349766,6.2696166 4.9859697,6.7207456 5.4369625,7.171875 5.0856687,7.172125 C 4.7996559,7.1723125 4.6915428,7.1863572 4.5038841,7.2476194 4.0936937,7.3815288 3.7093972,7.6805413 3.4571191,8.0620838 3.3947659,8.1563856 3.34375,8.215115 3.34375,8.1925928 Z"
       id="path827"
       inkscape:connector-curvature="0" />
    <path
       style="fill:#cbfefe;stroke-width:0.03125"
       d="M 5.734375,12.970728 C 3.8116434,12.476669 2.4442141,11.492854 1.7355902,10.09375 1.1971599,9.0306756 1.1042952,7.6261797 1.4879683,6.3486916 1.7369426,5.5197003 2.2164728,4.7675572 3.0325671,3.9259888 L 3.464965,3.4800938 2.7336603,2.7492858 C 2.3314427,2.3473413 2.0067439,2.0140895 2.0121073,2.008726 2.0280144,1.9928189 7.0102134,0.99979675 7.0208334,1.0104167 7.0261866,1.0157698 6.80572,2.1438823 6.5309081,3.5173334 6.2560962,4.8907844 6.03125,6.02169 6.03125,6.0304569 c 0,0.00877 -0.3421616,-0.3260082 -0.7603591,-0.7439441 L 4.5105319,4.5266287 4.4069225,4.6461269 C 4.3499375,4.7118509 4.1731769,4.9021322 4.0141213,5.0689741 3.1106404,6.0166847 2.7715701,6.7968347 2.7673971,7.9375 c -0.00191,0.5216956 0.035064,0.7822166 0.1611241,1.1353278 0.08043,0.2252956 0.4560197,0.9806032 0.5735341,1.1533722 0.03813,0.05606 0.6895356,0.724191 1.4475672,1.484738 0.9207469,0.923802 1.3575366,1.382385 1.3158709,1.381525 -0.034303,-7.07e-4 -0.2733059,-0.05549 -0.5311184,-0.121735 z M 14.6875,8.3652288 c 0,-0.078987 -0.297645,-0.5012982 -0.455986,-0.6469719 -0.08436,-0.077615 -0.22685,-0.1878297 -0.316635,-0.244921 -0.174332,-0.1108525 -0.541406,-0.252839 -0.656471,-0.2539268 -0.05053,-4.782e-4 -0.07476,-0.024305 -0.08804,-0.086597 C 13.014688,6.4026644 12.63862,5.7513613 11.968856,5.0519431 11.801599,4.8772806 11.628481,4.6921875 11.584148,4.640625 L 11.503548,4.546875 11.239129,4.8088478 10.97471,5.0708203 10.96272,4.3400978 C 10.95132,3.6454053 10.94668,3.5981163 10.86851,3.3810378 10.716701,2.9594861 10.419664,2.5892283 10.039879,2.3481553 9.8587381,2.2331735 9.4968122,2.0954283 9.3731603,2.0944091 9.2272037,2.093206 9.2004094,2.0370016 9.0983575,1.517975 9.0445403,1.2442675 9.0049278,1.0159057 9.0103291,1.0105043 9.0157303,1.005103 10.143882,1.2255298 11.517333,1.5003418 12.890784,1.7751538 14.021688,2 14.030452,2 c 0.0088,0 -0.320419,0.3365732 -0.731519,0.7479404 l -0.747453,0.7479405 0.42513,0.4392694 c 1.103852,1.1405638 1.593989,2.1112884 1.740166,3.4464306 0.04214,0.384846 0.04331,0.9834997 0.002,1.0090441 -0.01719,0.010623 -0.03125,-8.062e-4 -0.03125,-0.025396 z"
       id="path825"
       inkscape:connector-curvature="0" />
    <path
       style="fill:#fe9832;stroke-width:0.03125"
       d="M 8.8170866,13.936056 C 8.7422653,13.920849 8.6227341,13.873702 8.5514616,13.831284 8.4801888,13.788866 7.4978375,12.828615 6.3684581,11.697393 4.0880787,9.4132922 4.1774606,9.5190491 4.1772156,9.1047125 c -3.125e-4,-0.52686 0.4022638,-0.927365 0.9321594,-0.927365 0.3940863,0 0.3895088,-0.00354 1.7421875,1.3469619 0.84579,0.8444276 1.2115388,1.1903036 1.2129319,1.1470266 0.0011,-0.03408 0.00461,-1.5947735 0.00781,-3.468211 l 0.00582,-3.40625 0.086868,-0.1768919 C 8.3335081,3.2768316 8.63995,3.0835977 9.015625,3.0835977 c 0.375675,0 0.6821169,0.1932339 0.8506319,0.5363854 l 0.086868,0.1768919 0.00582,3.40625 c 0.0032,1.8734375 0.00672,3.434129 0.00781,3.468204 0.00139,0.04328 0.3622501,-0.297711 1.1973071,-1.1313971 1.335557,-1.3333663 1.332922,-1.3313344 1.726562,-1.3313344 0.373893,0 0.682573,0.1935459 0.848028,0.5317228 0.06767,0.1383063 0.08424,0.2162344 0.08413,0.3956422 -2.5e-4,0.4144288 0.08925,0.3085747 -2.191242,2.5916645 -1.630273,1.632125 -2.0856148,2.071163 -2.2096667,2.130543 -0.1822897,0.08726 -0.41269,0.116928 -0.6047884,0.07789 z"
       id="path823"
       inkscape:connector-curvature="0" />
    <path
       style="fill:#989898;stroke-width:0.03125"
       d="M 6.96875,14.196746 C 4.2503319,13.898446 2.160977,12.500034 1.5043667,10.539416 1.3383031,10.043555 1.2806296,9.69608 1.2644167,9.09375 c -0.0081,-0.3007812 -0.00813,-0.5328125 -7.19e-5,-0.515625 0.00806,0.017188 0.043545,0.1753769 0.078862,0.3515322 0.4126886,2.0584198 2.1117841,3.5522668 4.6730425,4.1085438 l 0.3277066,0.07117 0.5542581,0.554688 0.5542581,0.554687 -0.1871743,-0.005 c -0.1029448,-0.0028 -0.2363919,-0.0104 -0.2965478,-0.017 z m 5.80044,-2.173308 c 0.929659,-0.932422 1.721647,-1.748047 1.759973,-1.8125 0.126933,-0.2134627 0.118011,-0.132718 -0.03712,0.335937 -0.424785,1.283285 -1.512019,2.375177 -3.001382,3.014242 -0.202054,0.0867 -0.377357,0.157633 -0.389564,0.157633 -0.01221,0 0.738436,-0.762891 1.668094,-1.695312 z M 2.7643885,8.3015459 C 2.728638,8.2135197 2.7709228,7.4555116 2.8280156,7.1609503 2.9705123,6.4257613 3.3371819,5.7790528 4.0141212,5.0689741 4.1731769,4.9021322 4.3499375,4.7118509 4.4069225,4.6461269 l 0.1036094,-0.1194981 0.760359,0.759884 C 5.6890884,5.7044488 6.0319362,6.0324419 6.0327747,6.0153859 6.0336122,5.99833 6.2572269,4.8804688 6.5296937,3.53125 l 0.4953944,-2.453125 0.00308,0.4693039 0.00308,0.4693039 -0.5,2.4988922 c -0.275,1.3743906 -0.5,2.506065 -0.5,2.5148319 0,0.00877 -0.3421616,-0.3260081 -0.7603591,-0.7439441 L 4.5105319,5.5266288 4.4069225,5.6461269 C 4.3499375,5.7118509 4.1731769,5.9021322 4.0141213,6.0689741 3.35118,6.7643697 2.9920756,7.3855366 2.8435728,8.09375 2.804512,8.2800322 2.7808594,8.3421013 2.7643885,8.3015459 Z M 13,7.1937903 C 12.830675,7.1845944 12.826912,7.1822716 12.746368,7.0371987 12.612091,6.7953462 12.290043,6.3873591 11.967685,6.0507244 11.801072,5.8767322 11.628481,5.6921875 11.584148,5.640625 l -0.0806,-0.09375 -0.267397,0.264935 -0.267397,0.264935 v -0.5 -0.5 l 0.267397,-0.264935 0.267397,-0.264935 0.0806,0.09375 c 0.04433,0.051563 0.217451,0.2366556 0.384708,0.4113181 0.526746,0.5500682 0.849376,1.03 1.049086,1.5605806 0.06892,0.183095 0.178528,0.5855622 0.160483,0.5892591 -0.0036,7.375e-4 -0.08389,-0.00286 -0.178425,-0.00799 z M 12.796739,3.7498628 12.547692,3.4993472 13.289471,2.7575683 14.03125,2.0157895 v 0.500284 0.5002841 L 13.538517,3.5083681 13.045785,4.0003784 Z M 2.4761844,3.4918209 2,3.014892 V 2.5155079 2.0161237 L 2.7341546,2.7497797 3.4683091,3.4834356 3.2270753,3.7260928 C 3.0943965,3.8595544 2.9783099,3.96875 2.969105,3.96875 c -0.0092,0 -0.2310192,-0.2146181 -0.4929206,-0.4769291 z M 9.003625,1.5703125 C 9.0056188,1.2996094 9.0140947,1.10625 9.0224606,1.140625 9.0308262,1.175 9.076495,1.3964844 9.1239469,1.6328125 L 9.2102228,2.0625 H 9.1051116 9 Z"
       id="path821"
       inkscape:connector-curvature="0" />
    <path
       style="fill:#323232;stroke-width:0.03125"
       d="M 8.578125,14.924394 C 8.475,14.900461 8.3226622,14.851431 8.2395966,14.815439 8.1210153,14.764059 8.0236663,14.749931 7.7864716,14.749678 6.3280731,14.748121 4.6590044,14.316403 3.5286256,13.648351 2.2799091,12.910362 1.4169872,11.900603 1.0193401,10.71208 0.79708878,10.047795 0.77567637,9.8831844 0.75858916,8.7075231 0.74239466,7.5932837 0.76523066,7.1948887 0.87583444,6.6620725 1.0512804,5.8168891 1.4581195,4.9779 2.0438337,4.2534084 L 2.2558223,3.9911919 1.9107347,3.6440334 C 1.7209366,3.4530963 1.5508766,3.2572878 1.5328236,3.2089031 1.4892786,3.0921964 1.4896237,1.9377819 1.5332381,1.8223469 1.5849544,1.6854683 1.7152726,1.5685262 1.8722338,1.5181465 1.9510989,1.4928332 3.1195313,1.2519518 4.46875,0.98285456 7.0567541,0.46668556 7.1340425,0.45580353 7.3050844,0.58350481 c 0.2047893,0.15289731 0.2096512,0.172526 0.2201178,0.88869929 0.00879,0.6014085 0.003,0.687765 -0.070349,1.0498506 -0.043959,0.2169964 -0.072878,0.4015866 -0.064265,0.4102004 0.00861,0.00861 0.015662,5.63e-5 0.015662,-0.019016 0,-0.065905 0.3442666,-0.406234 0.5389812,-0.5328162 C 8.052698,2.3105599 8.2207093,2.2228544 8.3185896,2.1855218 L 8.496554,2.1176448 8.506094,1.4672684 C 8.516514,0.7565984 8.52158,0.73625331 8.7261702,0.58350471 8.8972121,0.45580343 8.9745005,0.46668546 11.562505,0.98285446 c 1.349219,0.26909724 2.517651,0.50997864 2.596516,0.53529194 0.156962,0.05038 0.28728,0.1673218 0.338996,0.3042004 0.05201,0.1376468 0.04357,1.2808469 -0.01037,1.4052193 -0.02399,0.055307 -0.198142,0.2533854 -0.387012,0.4401738 L 13.757227,4.0073547 13.962691,4.26149 c 0.578855,0.7159762 0.986807,1.5591466 1.161475,2.4005825 0.110603,0.5328162 0.133439,0.9312112 0.117245,2.0454506 -0.01709,1.1756613 -0.0385,1.3402719 -0.260751,2.0045569 -0.463837,1.386356 -1.609392,2.575598 -3.141776,3.26159 -0.367972,0.164728 -1.034,0.400397 -1.307634,0.462698 -0.103676,0.0236 -0.266935,0.100674 -0.411444,0.194229 -0.3470032,0.224647 -0.6227282,0.312272 -1.026056,0.326079 -0.2089025,0.0072 -0.3962522,-0.0046 -0.515625,-0.03228 z M 5.5121447,12.273438 C 4.4447084,11.203516 3.5401613,10.282258 3.5020394,10.2262 3.3845009,10.053356 3.0089316,9.2980687 2.9285212,9.0728278 2.7920056,8.6904288 2.768678,8.4844084 2.8267837,8.1743184 2.965466,7.4342181 3.3317303,6.7847716 4.0141213,6.0689741 4.1731769,5.9021322 4.3499375,5.7118509 4.4069225,5.6461269 l 0.1036094,-0.1194981 0.760359,0.759884 C 5.6890884,6.7044487 6.03125,7.0392237 6.03125,7.0304569 c 0,-0.00877 0.225,-1.1404413 0.5,-2.5148319 l 0.5,-2.4988922 V 1.5083664 C 7.03125,1.2287649 7.027485,1 7.0228837,1 7.0182822,1 5.8900156,1.225 4.515625,1.5 3.1412344,1.775 2.0129679,2 2.0083664,2 2.0037649,2 2,2.2286858 2,2.5081906 V 3.0163813 L 2.4821007,3.4977291 2.9642013,3.9790772 2.7294984,4.2428731 C 1.9856317,5.0789472 1.5497127,5.9085441 1.3628446,6.84375 1.2716247,7.3002719 1.2474275,7.7284206 1.2595264,8.671875 c 0.013239,1.0323347 0.044171,1.2683491 0.2447118,1.867157 0.6162433,1.840082 2.4850721,3.188198 4.9684196,3.584066 0.4680428,0.07461 0.5521616,0.08423 0.7928735,0.09065 l 0.1874062,0.005 z M 9.421875,13.85817 c 0.1240519,-0.05938 0.579394,-0.498418 2.209667,-2.130543 2.280497,-2.2830898 2.190997,-2.1772358 2.191242,-2.5916645 3.13e-4,-0.52686 -0.402263,-0.927365 -0.932159,-0.927365 -0.39364,0 -0.391005,-0.00203 -1.726562,1.3313344 -0.835057,0.8336861 -1.1959139,1.1746791 -1.1973074,1.1313971 -0.0011,-0.03407 -0.00461,-1.5947665 -0.00781,-3.468204 L 9.953125,3.796875 9.8662569,3.6199831 C 9.6977419,3.2768316 9.3913,3.0835977 9.015625,3.0835977 c -0.375675,0 -0.6821169,0.1932339 -0.8506319,0.5363854 l -0.086868,0.1768919 -0.00582,3.40625 c -0.0032,1.8734375 -0.00672,3.434133 -0.00781,3.468211 C 8.0631006,10.714613 7.6973525,10.368737 6.8515625,9.5243094 5.4988838,8.1738087 5.5034613,8.1773475 5.109375,8.1773475 c -0.3738931,0 -0.6825731,0.1935459 -0.8480275,0.5317228 -0.067667,0.1383063 -0.084238,0.2162344 -0.084132,0.3956422 2.5e-4,0.4143366 -0.089137,0.3085797 2.1912425,2.5926805 1.1293794,1.131222 2.1117307,2.091473 2.1830035,2.133891 0.2550443,0.15179 0.5879875,0.162074 0.8704134,0.02689 z m 2.068785,-0.297053 c 1.489363,-0.639065 2.576597,-1.730957 3.001382,-3.014242 0.155132,-0.468655 0.164054,-0.5493997 0.03712,-0.335937 -0.03833,0.06445 -0.830314,0.880078 -1.759973,1.8125 -0.929658,0.932421 -1.680301,1.695312 -1.668094,1.695312 0.01221,0 0.18751,-0.07094 0.389564,-0.157633 z M 14.75,8.0281741 c 0,-1.4724194 -0.463014,-2.6514672 -1.493299,-3.8026297 L 13.051421,3.9961806 13.541336,3.5055475 14.03125,3.0149143 V 2.5074571 C 14.03125,2.2283557 14.027485,2 14.022884,2 14.018282,2 12.890016,1.775 11.515625,1.5 10.141234,1.225 9.0129678,1 9.0083663,1 9.003765,1 9,1.2370431 9,1.5267625 V 2.053525 l 0.2238453,0.020804 c 0.7356378,0.06837 1.3804737,0.5803303 1.6458567,1.3067085 l 0.08342,0.2283372 0.0098,1.2317038 0.0098,1.2317037 0.265406,-0.2629537 0.265405,-0.2629538 0.0806,0.09375 c 0.04433,0.051563 0.216924,0.2361072 0.383537,0.4100994 0.320176,0.3343565 0.643263,0.743104 0.7777,0.9838915 l 0.08077,0.1446738 0.243548,0.018781 c 0.428797,0.033067 0.825294,0.2105935 1.161807,0.5201863 0.158341,0.1456737 0.455986,0.567985 0.455986,0.6469719 0,0.02459 0.01406,0.036019 0.03125,0.025396 C 14.736513,8.3796466 14.75,8.2232231 14.75,8.0281741 Z M 7.0594044,6.4140625 7.0563088,4.546875 6.7994097,5.8125 C 6.6581153,6.5085937 6.5250562,7.1301566 6.5037225,7.1937506 6.4823887,7.2573444 6.4171047,7.3513706 6.3586466,7.4026975 L 6.2523594,7.4960191 6.6496172,7.887985 c 0.2184919,0.2155813 0.4007734,0.3922581 0.4050703,0.3926156 0.0043,3.563e-4 0.00642,-0.839585 0.00472,-1.8665381 z m 4.7573366,1.0910556 c 0.07968,-0.053326 0.217599,-0.1290265 0.306495,-0.1682244 L 12.284865,7.265625 12.143337,7.0625 C 12.065497,6.9507813 11.885387,6.7298916 11.743092,6.5716337 L 11.484375,6.2838928 11.226562,6.5396941 10.96875,6.795495 v 0.7501803 0.7501803 l 0.351562,-0.3468909 c 0.19336,-0.19079 0.416753,-0.3905209 0.496429,-0.4438466 z M 3.6993066,7.7538928 C 3.8854947,7.5562669 4.2381238,7.3343778 4.5038841,7.2476184 4.6915428,7.1863562 4.7996559,7.1723272 5.0856687,7.1721241 L 5.4369625,7.1718741 4.9859697,6.7207447 4.5349766,6.2696156 4.3221759,6.4982131 C 3.8691028,6.9849187 3.58552,7.4314231 3.4241297,7.9121969 3.3159784,8.2343741 3.3227763,8.2652603 3.4571191,8.0620819 3.5194719,7.96778 3.6284562,7.8290947 3.6993066,7.7538919 Z"
       id="path819"
       inkscape:connector-curvature="0" />
  </g>
</svg>
