<?xml version="1.0" encoding="UTF-8" standalone="no"?>
<!-- Created with Inkscape (http://www.inkscape.org/) -->

<svg
   xmlns:dc="http://purl.org/dc/elements/1.1/"
   xmlns:cc="http://creativecommons.org/ns#"
   xmlns:rdf="http://www.w3.org/1999/02/22-rdf-syntax-ns#"
   xmlns:svg="http://www.w3.org/2000/svg"
   xmlns="http://www.w3.org/2000/svg"
   xmlns:sodipodi="http://sodipodi.sourceforge.net/DTD/sodipodi-0.dtd"
   xmlns:inkscape="http://www.inkscape.org/namespaces/inkscape"
   version="1.1"
   id="svg2"
   width="16"
   height="16"
   viewBox="0 0 16 16"
   sodipodi:docname="CLEARMOVE.svg"
   inkscape:version="0.92.4 (5da689c313, 2019-01-14)">
  <metadata
     id="metadata8">
    <rdf:RDF>
      <cc:Work
         rdf:about="">
        <dc:format>image/svg+xml</dc:format>
        <dc:type
           rdf:resource="http://purl.org/dc/dcmitype/StillImage" />
        <dc:title></dc:title>
      </cc:Work>
    </rdf:RDF>
  </metadata>
  <defs
     id="defs6" />
  <sodipodi:namedview
     pagecolor="#ffffff"
     bordercolor="#666666"
     borderopacity="1"
     objecttolerance="10"
     gridtolerance="10"
     guidetolerance="10"
     inkscape:pageopacity="0"
     inkscape:pageshadow="2"
     inkscape:window-width="960"
     inkscape:window-height="671"
     id="namedview4"
     showgrid="false"
     inkscape:zoom="14.75"
     inkscape:cx="8"
     inkscape:cy="8"
     inkscape:window-x="0"
     inkscape:window-y="0"
     inkscape:window-maximized="0"
     inkscape:current-layer="svg2" />
  <g
     id="CLEARMOVE">
    <path
       style="fill:#ffffff;stroke-width:0.03125"
       d="M 0,8 V 0 h 8 8 v 8 8 H 8 0 Z m 9.6488666,6.866329 c 0.3386753,-0.11804 0.5108364,-0.241621 0.9825094,-0.705264 l 0.428252,-0.420962 1.899873,0.386141 c 1.044931,0.212377 1.979722,0.386869 2.077313,0.38776 0.191977,0.0018 0.292153,-0.04986 0.41438,-0.213503 0.06046,-0.08094 0.06442,-0.128049 0.06423,-0.763694 L 15.515219,12.859375 15.176328,11.21875 C 14.86585,9.7156772 14.837808,9.5516119 14.841862,9.2618972 14.847309,8.8726084 14.786105,8.5642313 14.644967,8.2698409 14.586175,8.1472097 14.520188,7.97844 14.49833,7.8947975 14.432222,7.6418219 14.235183,7.46875 14.013284,7.46875 c -0.04536,0 -0.172517,-0.042974 -0.28257,-0.095497 -0.291235,-0.1389937 -0.59308,-0.19503 -0.95089,-0.1765294 -0.49596,0.025644 -0.8785,0.1926341 -1.254568,0.547656 L 11.347387,7.9122944 11.165881,7.7823416 10.984375,7.6523887 10.96875,5.6308819 10.953125,3.609375 10.87017,3.3823834 C 10.657416,2.800221 10.189318,2.3397267 9.6211159,2.1536194 9.2895741,2.045027 8.7416759,2.045027 8.4101341,2.1536194 7.8406684,2.3401407 7.3687906,2.8051367 7.1631847,3.3823834 7.0911416,3.5846472 7.0808675,3.6680987 7.0688725,4.1484375 7.0614688,4.4449219 7.0502097,4.6875 7.0438528,4.6875 7.0286016,4.6875 6.0999625,3.9908925 6.0023025,3.9061931 l -0.075823,-0.06576 0.2695156,-0.271779 C 6.3442291,3.4191756 6.4803022,3.2572878 6.4983806,3.2089031 6.5419709,3.0922378 6.5416641,1.9378819 6.4980119,1.8223469 6.4462956,1.6854683 6.3159775,1.5685263 6.1590163,1.5181465 6.0801509,1.4928332 4.9117188,1.2519518 3.5625,0.98285456 0.97449603,0.46668556 0.89720753,0.45580353 0.72616553,0.58350481 0.52145175,0.73634572 0.51651241,0.75624703 0.50606362,1.4703247 l -0.009561,0.6534325 0.48781003,2.445934 C 1.2526078,5.9149547 1.4928332,7.0801509 1.5181465,7.1590163 1.6136518,7.4565691 1.9187562,7.6065172 2.2089031,7.4984991 2.2572877,7.4804862 2.5737399,7.18969 2.9121303,6.852285 l 0.6152553,-0.6134631 0.1217991,0.084407 c 0.066989,0.046424 0.1979372,0.1496835 0.2909947,0.229466 0.093058,0.079782 0.2254456,0.1815515 0.2941956,0.226154 0.06875,0.044602 0.2132253,0.1502807 0.3210566,0.2348404 L 4.7514878,7.1674344 4.5032575,7.2507216 C 3.9118619,7.4491487 3.4379466,7.9220353 3.2473694,8.5038841 3.1833919,8.6992131 3.1720863,8.7939656 3.17326,9.125 3.17447,9.4651222 3.185191,9.5449722 3.256215,9.7426166 3.301079,9.8674622 3.3835975,10.043243 3.43959,10.133242 c 0.1300872,0.209093 4.22666,4.324934 4.4742575,4.495302 0.3716247,0.25571 0.6920897,0.344831 1.1799025,0.328132 0.2490159,-0.0085 0.3828516,-0.03031 0.5551166,-0.09035 z"
       id="path827"
       inkscape:connector-curvature="0" />
    <path
       style="fill:#cbfefe;stroke-width:0.03125"
       d="m 13.647749,12.735799 c -0.700769,-0.141905 -1.280175,-0.264058 -1.287569,-0.271452 -0.0074,-0.0074 0.46401,-0.491494 1.047563,-1.075778 0.583554,-0.584284 1.061007,-1.061441 1.061007,-1.060347 0,0.0011 0.119531,0.598706 0.265625,1.328028 C 14.880469,12.385573 15,12.986275 15,12.991145 c 0,0.01724 -0.09108,3.2e-5 -1.352251,-0.255346 z M 6.828125,7.0772859 C 6.3731653,6.7220937 4.815465,5.5546481 4.5216772,5.3486788 4.4152234,5.2740459 4.2859375,5.1737931 4.234375,5.1258947 4.1828125,5.0779962 3.9933203,4.9313941 3.8132813,4.8001116 L 3.4859375,4.5614169 2.7429687,5.3039016 C 2.3343359,5.7122684 2,6.0392159 2,6.0304519 2,6.0216878 1.7751538,4.8907844 1.5003418,3.5173334 1.2255298,2.1438823 1.0050635,1.0157698 1.0104167,1.0104167 1.0157698,1.0050635 2.1438823,1.2255298 3.5173334,1.5003418 4.8907844,1.7751538 6.0216878,2 6.0304519,2 6.0392159,2 5.71253,2.3340741 5.3044831,2.7423869 L 4.5625794,3.4847738 4.9598325,3.7814494 c 0.2184891,0.1631715 0.4745484,0.3504409 0.5690212,0.4161543 0.094473,0.065713 0.2216519,0.1641507 0.2826207,0.21875 0.060968,0.054599 0.3673912,0.2870225 0.6809387,0.5164963 L 7.0625,5.350075 V 6.3000375 C 7.0625,6.8225169 7.05898,7.249565 7.05469,7.2490331 7.05039,7.2485019 6.94844,7.1712151 6.8281275,7.0772859 Z"
       id="path825"
       inkscape:connector-curvature="0" />
    <path
       style="fill:#fe9832;stroke-width:0.03125"
       d="M 8.8170866,13.936056 C 8.7422653,13.920849 8.6227341,13.873702 8.5514616,13.831284 8.4801888,13.788866 7.4978375,12.828615 6.3684581,11.697393 4.0880787,9.4132922 4.1774606,9.5190491 4.1772156,9.1047125 c -3.125e-4,-0.52686 0.4022638,-0.927365 0.9321594,-0.927365 0.3940863,0 0.3895088,-0.00354 1.7421875,1.3469619 0.84579,0.8444276 1.2115388,1.1903036 1.2129319,1.1470266 0.0011,-0.03408 0.00461,-1.5947735 0.00781,-3.468211 l 0.00582,-3.40625 0.086868,-0.1768919 C 8.3335081,3.2768316 8.63995,3.0835977 9.015625,3.0835977 c 0.375675,0 0.6821169,0.1932339 0.8506319,0.5363854 l 0.086868,0.1768919 0.00582,3.40625 c 0.0032,1.8734375 0.00672,3.434129 0.00781,3.468204 0.00139,0.04328 0.3622501,-0.297711 1.1973071,-1.1313971 1.335557,-1.3333663 1.332922,-1.3313344 1.726562,-1.3313344 0.373893,0 0.682573,0.1935459 0.848028,0.5317228 0.06767,0.1383063 0.08424,0.2162344 0.08413,0.3956422 -2.5e-4,0.4144288 0.08925,0.3085747 -2.191242,2.5916645 -1.630273,1.632125 -2.0856148,2.071163 -2.2096667,2.130543 -0.1822897,0.08726 -0.41269,0.116928 -0.6047884,0.07789 z"
       id="path823"
       inkscape:connector-curvature="0" />
    <path
       style="fill:#989898;stroke-width:0.03125"
       d="m 14.9375,13.999156 c -0.04297,-0.01494 -0.835124,-0.177859 -1.760344,-0.362046 l -1.68222,-0.334887 0.416782,-0.416781 0.416781,-0.416782 1.351375,0.27032 1.351376,0.270319 v 0.510976 c 0,0.281036 -0.0035,0.509865 -0.0078,0.508508 -0.0043,-0.0014 -0.04297,-0.01469 -0.08594,-0.02963 z M 6.6794922,7.9116106 C 6.2995759,7.5457269 6.1333847,7.4203047 5.8716925,7.3019756 5.7789803,7.2600541 5.4717322,7.0519128 5.1889187,6.8394397 4.9061053,6.6269666 4.5967303,6.3993066 4.5014187,6.3335287 4.4061072,6.2677509 4.2859375,6.1745294 4.234375,6.1263697 4.1828125,6.07821 3.9933203,5.9313941 3.8132813,5.8001116 L 3.4859375,5.5614169 2.7429687,6.3039016 C 2.3343359,6.7122684 2,7.0392159 2,7.0304519 2,7.0216878 1.775,5.8900156 1.5,4.515625 L 1,2.0167328 1.0030809,1.5474289 1.0061619,1.078125 1.5015562,3.53125 C 1.774023,4.8804688 1.9976366,5.9983275 1.9984752,6.0153809 1.999314,6.0324341 2.3343359,5.7122684 2.7429687,5.3039016 L 3.4859375,4.5614169 3.8132812,4.8001116 C 3.9933203,4.9313941 4.1828125,5.0779962 4.234375,5.1258947 4.2859375,5.1737931 4.4152234,5.2740459 4.5216772,5.3486787 4.7942166,5.5397516 6.26291,6.6394494 6.8359375,7.0815031 L 7.0625,7.2562816 v 0.496859 C 7.0625,8.0264134 7.0553809,8.25 7.0466797,8.25 7.0379784,8.25 6.8727441,8.0977247 6.6794922,7.9116106 Z M 4.8506512,3.6963363 4.5608553,3.4865094 5.28824,2.7585677 6.015625,2.030626 6.024265,2.5221648 6.032905,3.0137035 5.5866753,3.4599334 5.1404456,3.9061631 Z"
       id="path821"
       inkscape:connector-curvature="0" />
    <path
       style="fill:#323232;stroke-width:0.03125"
       d="M 8.578125,14.924394 C 8.3297456,14.86675 8.132115,14.778731 7.9138475,14.628544 7.66625,14.458176 3.5696772,10.342335 3.43959,10.133242 3.3835975,10.043243 3.3010787,9.8674622 3.256215,9.7426166 3.1851906,9.5449722 3.1744656,9.4651222 3.17326,9.125 3.172085,8.7939656 3.1833919,8.6992131 3.2473694,8.5038841 3.4379466,7.9220353 3.9118619,7.4491487 4.5032575,7.2507216 L 4.7514878,7.1674344 4.5554316,7.0136891 C 4.4476003,6.9291294 4.303125,6.8234509 4.234375,6.7788487 4.165625,6.7342462 4.0332369,6.6324769 3.9401794,6.5526947 3.8471219,6.4729122 3.7161741,6.3696525 3.6491847,6.3232287 L 3.5273856,6.2388219 2.9121303,6.852285 C 2.5737399,7.18969 2.2572877,7.4804862 2.2089031,7.4984991 1.9187562,7.6065172 1.6136518,7.4565691 1.5181465,7.1590162 1.4928332,7.0801509 1.2526078,5.9149547 0.98431231,4.5696912 L 0.49650228,2.1237573 0.50606362,1.4703247 C 0.51651241,0.75624703 0.52145175,0.73634572 0.72616553,0.58350481 0.89720753,0.45580353 0.97449603,0.46668556 3.5625,0.98285456 4.9117188,1.2519518 6.0801509,1.4928332 6.1590163,1.5181465 c 0.1569612,0.05038 0.2872793,0.1673218 0.3389956,0.3042004 0.043652,0.115535 0.043959,1.2698909 3.687e-4,1.3865562 -0.018078,0.048385 -0.1541515,0.2102725 -0.3023853,0.359751 l -0.2695156,0.271779 0.075823,0.06576 C 6.0999625,3.9908925 7.0286016,4.6875 7.0438528,4.6875 c 0.00636,0 0.017616,-0.2425781 0.02502,-0.5390625 0.011995,-0.4803387 0.022269,-0.5637903 0.094312,-0.7660541 0.2056059,-0.5772467 0.6774837,-1.0422426 1.2469494,-1.228764 0.3315418,-0.1085924 0.87944,-0.1085924 1.2109818,0 0.568202,0.1861073 1.0363,0.6466016 1.249054,1.228764 l 0.08296,0.2269916 0.01563,2.0215069 0.01563,2.0215068 0.181506,0.1299529 0.181506,0.1299528 0.177869,-0.167915 c 0.376068,-0.3550219 0.758608,-0.5220122 1.254568,-0.547656 0.35781,-0.018501 0.659655,0.037536 0.95089,0.1765294 0.110053,0.052523 0.237209,0.095497 0.28257,0.095497 0.221899,0 0.418938,0.1730719 0.485046,0.4260475 0.02186,0.083642 0.08785,0.2524122 0.146637,0.3750434 0.141138,0.2943904 0.202342,0.6027675 0.196895,0.9920563 -0.0041,0.2897147 0.02399,0.45378 0.334466,1.956853 l 0.338891,1.640625 2.19e-4,0.677432 c 1.87e-4,0.635645 -0.0038,0.682752 -0.06423,0.763694 -0.122227,0.163642 -0.222404,0.215257 -0.414381,0.213503 -0.09759,-8.9e-4 -1.032381,-0.175383 -2.077312,-0.38776 l -1.899874,-0.386141 -0.428251,0.420962 c -0.471673,0.463643 -0.6438344,0.587224 -0.9825097,0.705264 -0.2816585,0.09817 -0.7812163,0.125258 -1.0707416,0.05806 z m 6.44528,-1.595573 c -0.0093,-0.280433 -0.0618,-0.590713 -0.28263,-1.669576 -0.149183,-0.728821 -0.274934,-1.326477 -0.279446,-1.328125 -0.0045,-0.0016 -0.673714,0.666193 -1.487115,1.484091 l -1.478911,1.487086 1.682036,0.334849 c 0.92512,0.184168 1.717192,0.345904 1.760161,0.359414 0.07625,0.02398 0.07836,0.0204 0.08771,-0.149364 0.0053,-0.09566 0.0045,-0.32893 -0.0018,-0.518375 z m -5.60153,0.529349 c 0.1240519,-0.05938 0.579394,-0.498418 2.209667,-2.130543 2.280497,-2.2830898 2.190997,-2.1772358 2.191242,-2.5916645 3.13e-4,-0.52686 -0.402263,-0.927365 -0.932159,-0.927365 -0.39364,0 -0.391005,-0.00203 -1.726562,1.3313344 -0.835057,0.8336861 -1.1959139,1.1746791 -1.1973074,1.1313971 -0.0011,-0.03407 -0.00461,-1.5947665 -0.00781,-3.468204 L 9.953125,3.796875 9.8662569,3.6199831 C 9.6977419,3.2768316 9.3913,3.0835977 9.015625,3.0835977 c -0.375675,0 -0.6821169,0.1932339 -0.8506319,0.5363854 l -0.086868,0.1768919 -0.00582,3.40625 c -0.0032,1.8734375 -0.00672,3.434133 -0.00781,3.468211 C 8.0631006,10.714613 7.6973525,10.368737 6.8515625,9.5243094 5.4988838,8.1738087 5.5034613,8.1773475 5.109375,8.1773475 c -0.3738931,0 -0.6825731,0.1935459 -0.8480275,0.5317228 -0.067667,0.1383063 -0.084238,0.2162344 -0.084132,0.3956422 2.5e-4,0.4143366 -0.089137,0.3085797 2.1912425,2.5926805 1.1293794,1.131222 2.1117307,2.091473 2.1830035,2.133891 0.2550443,0.15179 0.5879875,0.162074 0.8704134,0.02689 z M 7.0625,6.8000375 V 5.350075 L 6.4932275,4.93285 C 6.1801275,4.7033762 5.8602056,4.4605209 5.78229,4.3931719 5.7043744,4.3258225 5.5703125,4.2242284 5.484375,4.1674072 5.3984375,4.1105859 5.2859375,4.0287638 5.234375,3.9855803 L 5.140625,3.9070644 5.5859375,3.4609537 6.03125,3.0148431 V 2.5074215 C 6.03125,2.2283397 6.027485,2 6.0228837,2 6.0182822,2 4.8900156,1.775 3.515625,1.5 2.1412343,1.225 1.0129679,1 1.0083664,1 1.0037649,1 1,1.2287649 1,1.5083664 V 2.0167328 L 1.5,4.515625 C 1.775,5.8900156 2,7.0216878 2,7.0304519 2,7.0392159 2.3343359,6.7122684 2.7429687,6.3039016 L 3.4859375,5.5614169 3.8132812,5.8001116 C 3.9933203,5.9313941 4.1828125,6.07821 4.234375,6.1263697 c 0.051563,0.04816 0.1717322,0.1413812 0.2670437,0.207159 0.095312,0.065778 0.4046866,0.2934379 0.6875,0.505911 0.2828135,0.2124731 0.5900616,0.4206144 0.6827738,0.4625359 0.2616922,0.1183291 0.4278834,0.2437513 0.8077997,0.609635 C 6.8727441,8.0977247 7.0379784,8.25 7.0466797,8.25 c 0.0087,0 0.01582,-0.6524831 0.01582,-1.4499625 z"
       id="path819"
       inkscape:connector-curvature="0" />
  </g>
</svg>
