<?xml version="1.0" encoding="UTF-8" standalone="no"?>
<!-- Created with Inkscape (http://www.inkscape.org/) -->

<svg
   xmlns:dc="http://purl.org/dc/elements/1.1/"
   xmlns:cc="http://creativecommons.org/ns#"
   xmlns:rdf="http://www.w3.org/1999/02/22-rdf-syntax-ns#"
   xmlns:svg="http://www.w3.org/2000/svg"
   xmlns="http://www.w3.org/2000/svg"
   xmlns:sodipodi="http://sodipodi.sourceforge.net/DTD/sodipodi-0.dtd"
   xmlns:inkscape="http://www.inkscape.org/namespaces/inkscape"
   version="1.1"
   id="svg2"
   width="16"
   height="16"
   viewBox="0 0 16 16"
   sodipodi:docname="CLEARSCALE.svg"
   inkscape:version="0.92.4 (5da689c313, 2019-01-14)">
  <metadata
     id="metadata8">
    <rdf:RDF>
      <cc:Work
         rdf:about="">
        <dc:format>image/svg+xml</dc:format>
        <dc:type
           rdf:resource="http://purl.org/dc/dcmitype/StillImage" />
        <dc:title></dc:title>
      </cc:Work>
    </rdf:RDF>
  </metadata>
  <defs
     id="defs6" />
  <sodipodi:namedview
     pagecolor="#ffffff"
     bordercolor="#666666"
     borderopacity="1"
     objecttolerance="10"
     gridtolerance="10"
     guidetolerance="10"
     inkscape:pageopacity="0"
     inkscape:pageshadow="2"
     inkscape:window-width="1330"
     inkscape:window-height="910"
     id="namedview4"
     showgrid="false"
     inkscape:zoom="14.75"
     inkscape:cx="8"
     inkscape:cy="8"
     inkscape:window-x="0"
     inkscape:window-y="0"
     inkscape:window-maximized="0"
     inkscape:current-layer="svg2" />
  <g
     id="CLEARSCALE">
    <path
       style="fill:#ffffff;stroke-width:0.03125"
       d="M 0,8 V 0 h 8 8 v 8 8 H 8 0 Z m 9.6488666,6.866329 c 0.3386753,-0.11804 0.5108364,-0.241621 0.9825094,-0.705264 l 0.428252,-0.420962 1.899873,0.386141 c 1.044931,0.212377 1.979722,0.386869 2.077313,0.38776 0.191977,0.0018 0.292153,-0.04986 0.41438,-0.213503 0.06046,-0.08094 0.06442,-0.128049 0.06423,-0.763694 L 15.515219,12.859375 15.176328,11.21875 C 14.86585,9.7156772 14.837808,9.5516119 14.841862,9.2618972 14.84729,8.8739828 14.786361,8.5654369 14.645958,8.2698409 14.58771,8.1472097 14.51662,7.9671575 14.487979,7.869725 14.451303,7.7449556 14.40348,7.6641044 14.326241,7.5962875 L 14.216575,7.5 14.32501,7.4047928 c 0.06604,-0.05798 0.126897,-0.1526781 0.155651,-0.2421875 0.02597,-0.080839 0.266731,-1.2476506 0.535027,-2.5929141 l 0.48781,-2.4459339 -0.0096,-0.6534326 C 15.483488,0.75624703 15.478548,0.73634572 15.273834,0.58350481 15.102793,0.45580353 15.025504,0.46668556 12.4375,0.98285456 11.088281,1.2519518 9.9198491,1.4928332 9.8409838,1.5181465 9.61872,1.5894864 9.46875,1.7813935 9.46875,1.9944705 v 0.084152 l -0.4140625,-2.5e-4 C 8.7008756,2.0781598 8.6070863,2.0891089 8.4101341,2.153618 7.8406684,2.3401394 7.3687906,2.8051353 7.1631847,3.3823821 c -0.072043,0.2022637 -0.082317,0.2857153 -0.094312,0.7660541 -0.0074,0.2964843 -0.018663,0.5390625 -0.02502,0.5390625 -0.015251,0 -0.9438903,-0.6966075 -1.0415503,-0.7813069 L 5.9264797,3.8404318 6.1959953,3.5686527 C 6.3442291,3.4191743 6.4803022,3.2572865 6.4983806,3.2089018 6.5419709,3.0922365 6.5416641,1.9378805 6.4980119,1.8223455 6.4462956,1.6854669 6.3159775,1.5685249 6.1590162,1.5181452 6.0801509,1.4928332 4.9117188,1.2519518 3.5625,0.98285456 0.97449603,0.46668556 0.89720753,0.45580353 0.72616553,0.58350481 0.52145175,0.73634572 0.51651241,0.75624703 0.50606362,1.4703247 l -0.009561,0.6534325 0.48781003,2.445934 C 1.2526081,5.9149547 1.49337,7.0817662 1.519339,7.1626053 c 0.028852,0.089815 0.08964,0.1842288 0.1562924,0.2427506 l 0.1090761,0.09577 -0.099728,0.083915 c -0.05485,0.046154 -0.1199902,0.13241 -0.1447552,0.1916812 -0.024765,0.059271 -0.2723581,1.2271153 -0.55020672,2.5952099 l -0.50517931,2.487443 -2.3125e-4,0.677432 c -2.1875e-4,0.63567 0.00374,0.682749 0.0641993,0.763694 0.12221784,0.16363 0.22240697,0.215255 0.41438028,0.213522 0.0985663,-8.91e-4 1.2539757,-0.218586 2.5993138,-0.48975 1.3320313,-0.26848 2.4758719,-0.497149 2.5418678,-0.508152 0.077664,-0.01295 0.1664991,-0.06287 0.2518282,-0.141527 l 0.131835,-0.121521 0.6231718,0.625981 c 0.7806997,0.784219 0.9926803,0.935278 1.4669222,1.04534 0.2895253,0.06719 0.7890831,0.0401 1.0707416,-0.05806 z M 2.7481098,7.9842172 2.2618446,7.5002175 2.881783,6.8829212 C 3.2227491,6.5434084 3.5129059,6.2617678 3.5265759,6.2570531 c 0.01367,-0.00471 0.115236,0.062363 0.2257019,0.1490613 0.110466,0.086698 0.2852222,0.220545 0.3883472,0.2974375 0.103125,0.076893 0.2825816,0.2127809 0.3987928,0.301974 L 4.7507103,7.1676953 4.5028687,7.2508519 C 3.9745994,7.4280987 3.5232144,7.8365481 3.3125922,8.32791 3.2793881,8.4053719 3.2482056,8.46863 3.2432981,8.4684834 3.2383903,8.4683272 3.0155557,8.2504172 2.7481098,7.9842172 Z m 8.4003282,-0.21092 c -0.174303,-0.1257 -0.179633,-0.1338447 -0.177862,-0.2717528 l 0.0018,-0.1421694 0.296801,-0.21875 c 0.16324,-0.1203125 0.383338,-0.2799178 0.489106,-0.3546788 0.105768,-0.074761 0.25173,-0.1882356 0.324358,-0.2521662 0.07263,-0.06393 0.190126,-0.1564816 0.261103,-0.2056691 l 0.12905,-0.089432 0.516579,0.5165781 0.516578,0.5165784 -0.213926,-0.045159 c -0.63112,-0.1332278 -1.342017,0.080177 -1.790745,0.537566 -0.07663,0.078104 -0.146938,0.1412497 -0.15625,0.1403231 -0.0093,-9.281e-4 -0.09779,-0.059997 -0.196619,-0.1312681 z"
       id="path827"
       inkscape:connector-curvature="0" />
    <path
       style="fill:#cbfefe;stroke-width:0.03125"
       d="M 1,12.995021 C 1,12.988557 1.225,11.858766 1.5,10.484375 1.775,9.1099844 2,7.9783447 2,7.9696206 2,7.9608966 2.2582758,8.2117513 2.5739462,8.5270759 l 0.5739463,0.5733172 0.020496,0.2205238 c 0.024746,0.2662609 0.1331213,0.5905425 0.2714794,0.8123251 0.056145,0.09 0.5101175,0.574393 1.0088275,1.076433 0.593425,0.597388 0.8912278,0.918113 0.8618378,0.928174 -0.0247,0.0085 -0.9730332,0.199899 -2.1074082,0.425429 C 2.06875,12.788809 1.1089844,12.980859 1.0703125,12.990055 1.0316406,12.999251 1,13.001486 1,12.995021 Z m 12.647749,-0.259222 c -0.700769,-0.141905 -1.280175,-0.264058 -1.287569,-0.271452 -0.0074,-0.0074 0.46401,-0.491494 1.047563,-1.075778 0.583554,-0.584284 1.061007,-1.061441 1.061007,-1.060347 0,0.0011 0.119531,0.598706 0.265625,1.328028 C 14.880469,12.385573 15,12.986275 15,12.991145 c 0,0.01724 -0.09108,3.2e-5 -1.352251,-0.255346 z M 6.7025922,7.9359322 C 6.5138228,7.7460072 6.3124494,7.5612922 6.2550959,7.5254544 l -0.1042793,-0.06516 0.064424,-0.064424 C 6.2506741,7.3604372 6.3738281,7.2672478 6.4889166,7.1887834 6.604005,7.1103187 6.7036462,7.0296863 6.7103419,7.0095997 6.7170372,6.9895134 6.6451253,6.9235734 6.5505378,6.8630666 6.45595,6.8025594 6.3250247,6.7052775 6.2595925,6.6468844 6.1412847,6.5413034 4.8916575,5.6077656 4.5218244,5.3486787 4.4152897,5.2740459 4.2859375,5.1737931 4.234375,5.1258947 4.1828125,5.0779962 3.9933203,4.9313941 3.8132813,4.8001116 L 3.4859375,4.5614169 2.7429687,5.3039016 C 2.3343359,5.7122684 2,6.0392159 2,6.0304519 2,6.0216878 1.7751538,4.8907844 1.5003418,3.5173334 1.2255298,2.1438823 1.0050635,1.0157698 1.0104167,1.0104167 1.0157698,1.0050635 2.1438823,1.2255298 3.5173334,1.5003418 4.8907844,1.7751538 6.0216878,2 6.0304519,2 6.0392159,2 5.71253,2.3340741 5.3044831,2.7423869 L 4.5625794,3.4847738 4.9598325,3.7814494 c 0.2184891,0.1631715 0.4745484,0.3504409 0.5690212,0.4161543 0.094473,0.065713 0.2216519,0.1641507 0.2826207,0.21875 0.060968,0.054599 0.3673912,0.2870225 0.6809387,0.5164963 L 7.0625,5.350075 V 6.8156625 C 7.0625,7.6217356 7.05874,8.28125 7.05415,8.28125 7.04956,8.28125 6.8913569,8.1258569 6.7025875,7.9359322 Z M 13.247774,5.2948137 12.51386,4.5608994 12.128828,4.8507622 c -0.211767,0.1594244 -0.464495,0.3488228 -0.561617,0.4208847 -0.09712,0.072062 -0.218773,0.1643962 -0.270336,0.2051868 -0.05156,0.04079 -0.146484,0.1135779 -0.210937,0.1617494 L 10.96875,5.7261681 V 4.7741959 3.8222237 L 11.204712,3.6551262 11.440673,3.4880291 10.697143,2.7440145 C 10.288202,2.3348065 9.9607841,2 9.9695481,2 c 0.00876,0 1.1396679,-0.2248462 2.5131189,-0.4996582 1.373451,-0.274812 2.501563,-0.4952783 2.506916,-0.4899251 0.01058,0.010584 -0.982373,4.9927902 -0.998226,5.0086427 -0.0053,0.00532 -0.33993,-0.3205928 -0.743583,-0.7242457 z"
       id="path825"
       inkscape:connector-curvature="0" />
    <path
       style="fill:#fe9832;stroke-width:0.03125"
       d="M 8.8170866,13.936056 C 8.7422653,13.920849 8.6227341,13.873702 8.5514616,13.831284 8.4801888,13.788866 7.4978375,12.828615 6.3684581,11.697393 4.0880787,9.4132922 4.1774606,9.5190491 4.1772156,9.1047125 c -3.125e-4,-0.52686 0.4022638,-0.927365 0.9321594,-0.927365 0.3940863,0 0.3895088,-0.00354 1.7421875,1.3469619 0.84579,0.8444276 1.2115388,1.1903036 1.2129319,1.1470266 0.0011,-0.03408 0.00461,-1.5947735 0.00781,-3.468211 l 0.00582,-3.40625 0.086868,-0.1768919 C 8.3335081,3.2768316 8.63995,3.0835977 9.015625,3.0835977 c 0.375675,0 0.6821169,0.1932339 0.8506319,0.5363854 l 0.086868,0.1768919 0.00582,3.40625 c 0.0032,1.8734375 0.00672,3.434129 0.00781,3.468204 0.00139,0.04328 0.3622501,-0.297711 1.1973071,-1.1313971 1.335557,-1.3333663 1.332922,-1.3313344 1.726562,-1.3313344 0.373893,0 0.682573,0.1935459 0.848028,0.5317228 0.06767,0.1383063 0.08424,0.2162344 0.08413,0.3956422 -2.5e-4,0.4144288 0.08925,0.3085747 -2.191242,2.5916645 -1.630273,1.632125 -2.0856148,2.071163 -2.2096667,2.130543 -0.1822897,0.08726 -0.41269,0.116928 -0.6047884,0.07789 z"
       id="path823"
       inkscape:connector-curvature="0" />
    <path
       style="fill:#989898;stroke-width:0.03125"
       d="m 0.96875,13.518646 v -0.509352 l 2.1953125,-0.440039 2.1953125,-0.440038 0.3182119,0.318204 c 0.2819572,0.281951 0.3192984,0.332097 0.3277509,0.440147 0.00854,0.10921 0.00142,0.123127 -0.068212,0.133283 -0.1814413,0.02646 -4.8042217,0.953415 -4.8824388,0.979018 l -0.085937,0.02813 z m 13.96875,0.48051 c -0.04297,-0.01494 -0.835124,-0.177859 -1.760344,-0.362046 l -1.68222,-0.334887 0.416782,-0.416781 0.416781,-0.416782 1.351375,0.27032 1.351376,0.270319 v 0.510976 c 0,0.281036 -0.0035,0.509865 -0.0078,0.508508 -0.0043,-0.0014 -0.04297,-0.01469 -0.08594,-0.02963 z M 5.890625,7.3158637 C 5.7703125,7.2533534 5.4475934,7.033665 5.1734713,6.8276669 4.8993491,6.6216688 4.5970053,6.3993066 4.5015963,6.3335287 4.4061872,6.2677509 4.2859375,6.1745294 4.234375,6.1263697 4.1828125,6.07821 3.9933203,5.9313941 3.8132813,5.8001116 L 3.4859375,5.5614169 2.7429687,6.3039016 C 2.3343359,6.7122684 2,7.0392159 2,7.0304519 2,7.0216878 1.775,5.8900156 1.5,4.515625 L 1,2.0167328 1.0030809,1.5474289 1.0061619,1.078125 1.5015562,3.53125 C 1.774023,4.8804688 1.9976366,5.9983275 1.9984752,6.0153809 1.999314,6.0324341 2.3343359,5.7122684 2.7429687,5.3039016 L 3.4859375,4.5614169 3.8132812,4.8001116 C 3.9933203,4.9313941 4.1828125,5.0779962 4.234375,5.1258947 4.2859375,5.1737931 4.4152234,5.2740459 4.5216772,5.3486787 4.6904769,5.4670212 5.8157837,6.30497 6.40625,6.7520078 6.5179687,6.8365891 6.6375,6.9268084 6.671875,6.952495 6.7337012,6.9986941 6.7335325,6.9998847 6.65625,7.0629116 6.4888053,7.1994691 6.1518316,7.4372969 6.1311575,7.4335094 6.1191772,7.4313156 6.0109375,7.3783741 5.890625,7.3158637 Z M 13.247774,6.2948138 12.51386,5.5608994 12.128828,5.8507622 c -0.211767,0.1594244 -0.464495,0.3488228 -0.561617,0.4208847 -0.09712,0.072062 -0.218773,0.1643962 -0.270336,0.2051868 -0.05156,0.04079 -0.146484,0.1135779 -0.210937,0.1617494 l -0.117188,0.087585 v -0.498265 -0.498265 l 0.210938,-0.161894 c 0.116015,-0.089042 0.290401,-0.2215697 0.387523,-0.2945066 0.09712,-0.072937 0.349809,-0.2630206 0.561527,-0.4224084 l 0.38494,-0.2897963 0.743161,0.7426769 c 0.408739,0.4084725 0.743847,0.7287244 0.744686,0.7116712 8.37e-4,-0.017053 0.224452,-1.1349121 0.496919,-2.4841309 l 0.495394,-2.453125 0.0031,0.4693039 L 15,2.0167328 14.500513,4.5130619 c -0.274718,1.3729809 -0.503838,2.50068 -0.509156,2.5059975 -0.0053,0.00532 -0.33993,-0.3205928 -0.743583,-0.7242456 z M 4.8506512,3.6963363 4.5608553,3.4865094 5.28824,2.7585677 6.015625,2.030626 6.024265,2.5221648 6.032905,3.0137035 5.5866753,3.4599334 5.1404456,3.9061631 Z m 6.1057478,0.066553 c -0.01039,-0.027088 -0.0192,-0.079742 -0.01956,-0.1170081 -0.0011,-0.113204 -0.14382,-0.4813374 -0.253744,-0.6545106 C 10.542428,2.7697652 10.305695,2.5222017 10.121306,2.4038797 9.9747328,2.3098239 9.96875,2.3003008 9.96875,2.1610542 V 2.0161237 l 0.733718,0.73322 c 0.403545,0.403271 0.723467,0.7421526 0.710938,0.7530704 -0.03353,0.029216 -0.360583,0.2637443 -0.402319,0.2884993 -0.01968,0.011675 -0.04429,-9.343e-4 -0.05469,-0.028024 z"
       id="path821"
       inkscape:connector-curvature="0" />
    <path
       style="fill:#323232;stroke-width:0.03125"
       d="M 8.578125,14.924394 C 8.1038831,14.814332 7.8919025,14.663273 7.1112028,13.879054 l -0.6231719,-0.625981 -0.131835,0.121521 c -0.085329,0.07865 -0.1741637,0.128579 -0.2518281,0.141527 -0.065996,0.011 -1.2098366,0.239672 -2.5418678,0.508152 -1.3453381,0.271164 -2.5007475,0.48886 -2.59931381,0.48975 -0.19197331,0.0017 -0.29216244,-0.04989 -0.41438028,-0.213522 -0.060459,-0.08094 -0.0644166,-0.128024 -0.0641993,-0.763694 l 2.3157e-4,-0.677432 0.50517931,-2.487443 C 1.2678661,9.0038378 1.5154591,7.8359937 1.5402242,7.7767225 1.5649892,7.7174512 1.6301291,7.631195 1.6849794,7.5850412 l 0.099728,-0.083915 -0.1090761,-0.09577 C 1.6089783,7.3468341 1.548191,7.2524203 1.5193387,7.1626053 1.4933697,7.0817662 1.2526078,5.9149547 0.98431231,4.5696912 L 0.49650228,2.1237573 0.50606362,1.4703247 C 0.51651241,0.75624703 0.52145175,0.73634572 0.72616553,0.58350481 0.89720753,0.45580353 0.97449603,0.46668556 3.5625,0.98285456 4.9117188,1.2519518 6.0801509,1.4928332 6.1590163,1.5181465 c 0.1569612,0.05038 0.2872793,0.1673218 0.3389956,0.3042004 0.043652,0.115535 0.043959,1.2698909 3.687e-4,1.3865562 -0.018078,0.048385 -0.1541515,0.2102725 -0.3023853,0.359751 l -0.2695156,0.271779 0.075823,0.06576 C 6.0999625,3.9908925 7.0286016,4.6875 7.0438528,4.6875 c 0.00636,0 0.017616,-0.2425781 0.02502,-0.5390625 0.011995,-0.4803387 0.022269,-0.5637903 0.094312,-0.7660541 0.2056059,-0.5772467 0.6774837,-1.0422426 1.2469494,-1.228764 0.1969522,-0.064509 0.2907415,-0.075458 0.6445534,-0.075246 l 0.4140625,2.5e-4 v -0.084152 c 0,-0.213077 0.14997,-0.4049841 0.3722338,-0.4763239 0.078865,-0.025313 1.2472971,-0.2661947 2.5965161,-0.53529199 2.588004,-0.516169 2.665293,-0.52705104 2.836334,-0.39934975 0.204714,0.1528409 0.209654,0.17274221 0.220102,0.88681994 l 0.0096,0.6534325 -0.48781,2.445934 C 14.747392,5.914956 14.50663,7.0817676 14.480661,7.1626067 14.451907,7.252116 14.391046,7.3468142 14.32501,7.4047942 L 14.216575,7.5 14.326241,7.596287 c 0.07724,0.067817 0.125062,0.1486681 0.161738,0.2734375 0.02864,0.097433 0.09973,0.2774847 0.157979,0.4001159 0.140403,0.295596 0.201332,0.6041419 0.195904,0.9920563 -0.0041,0.2897147 0.02399,0.45378 0.334466,1.9568533 l 0.338891,1.640625 2.19e-4,0.677431 c 1.87e-4,0.635645 -0.0038,0.682753 -0.06423,0.763694 -0.122227,0.163642 -0.222404,0.215257 -0.414381,0.213503 -0.09759,-8.9e-4 -1.032381,-0.175383 -2.077312,-0.38776 l -1.899874,-0.386141 -0.428251,0.420962 c -0.471673,0.463643 -0.6438345,0.587224 -0.9825098,0.705264 -0.2816585,0.09817 -0.7812163,0.125258 -1.0707416,0.05806 z M 3.5,13.501965 c 1.2976562,-0.258376 2.3943631,-0.474877 2.4371263,-0.481114 0.069655,-0.01016 0.076746,-0.02404 0.0681,-0.133283 C 5.9961441,12.772813 5.9232472,12.692859 4.7686344,11.53125 4.0630959,10.821437 3.4983672,10.227337 3.4397397,10.133242 3.3014416,9.9112778 3.1931175,9.5869953 3.1683881,9.3209169 L 3.1478925,9.1003931 2.5739462,8.5270759 C 2.2582758,8.2117513 2,7.9608966 2,7.9696206 2,7.9783447 1.7720743,9.1102334 1.4934985,10.484929 l -0.50650153,2.499446 -0.0105388,0.522305 -0.0105388,0.522306 0.0873528,-0.02862 C 1.1013162,13.984619 2.2023437,13.760341 3.5,13.501965 Z m 11.523405,-0.173144 c -0.0093,-0.280433 -0.0618,-0.590713 -0.28263,-1.669576 -0.149183,-0.728821 -0.274934,-1.326477 -0.279446,-1.328125 -0.0045,-0.0016 -0.673714,0.666193 -1.487115,1.484091 l -1.478911,1.487086 1.682036,0.334849 c 0.92512,0.184168 1.717192,0.345904 1.760161,0.359414 0.07625,0.02398 0.07836,0.0204 0.08771,-0.149364 0.0053,-0.09566 0.0045,-0.32893 -0.0018,-0.518375 z m -5.60153,0.529349 c 0.1240519,-0.05938 0.579394,-0.498418 2.209667,-2.130543 2.280497,-2.2830898 2.190997,-2.1772358 2.191242,-2.5916645 3.13e-4,-0.52686 -0.402263,-0.927365 -0.932159,-0.927365 -0.39364,0 -0.391005,-0.00203 -1.726562,1.3313344 -0.835057,0.8336861 -1.1959139,1.1746791 -1.1973074,1.1313971 -0.0011,-0.03407 -0.00461,-1.5947665 -0.00781,-3.468204 L 9.953125,3.796875 9.8662569,3.6199831 C 9.6977419,3.2768316 9.3913,3.0835977 9.015625,3.0835977 c -0.375675,0 -0.6821169,0.1932339 -0.8506319,0.5363854 l -0.086868,0.1768919 -0.00582,3.40625 c -0.0032,1.8734375 -0.00672,3.434133 -0.00781,3.468211 C 8.0631006,10.714613 7.6973525,10.368737 6.8515625,9.5243094 5.4988838,8.1738087 5.5034613,8.1773475 5.109375,8.1773475 c -0.3738931,0 -0.6825731,0.1935459 -0.8480275,0.5317228 -0.067667,0.1383063 -0.084238,0.2162344 -0.084132,0.3956422 2.5e-4,0.4143366 -0.089137,0.3085797 2.1912425,2.5926805 1.1293794,1.131222 2.1117307,2.091473 2.1830035,2.133891 0.2550443,0.15179 0.5879875,0.162074 0.8704134,0.02689 z M 3.3125922,8.32791 C 3.5232144,7.8365481 3.9745994,7.4280987 4.5028687,7.2508519 L 4.7507103,7.1676953 4.5394178,7.0055259 C 4.4232066,6.9163328 4.24375,6.7804444 4.140625,6.7035519 4.0375,6.6266594 3.8627438,6.4928125 3.7522778,6.4061144 3.6418119,6.3194162 3.5402459,6.2523387 3.5265759,6.2570531 3.5129059,6.2617678 3.2227491,6.5434084 2.881783,6.8829212 L 2.2618446,7.5002175 2.7481098,7.9842172 c 0.2674459,0.2662 0.4902805,0.4841197 0.4951883,0.4842662 0.00491,1.563e-4 0.03609,-0.063111 0.069294,-0.1405734 z M 7.0625,6.8156625 V 5.350075 L 6.4932275,4.93285 C 6.1801275,4.7033762 5.8602056,4.4605209 5.78229,4.3931719 5.7043744,4.3258225 5.5703125,4.2242284 5.484375,4.1674072 5.3984375,4.1105859 5.2859375,4.0287638 5.234375,3.9855803 L 5.140625,3.9070644 5.5859375,3.4609537 6.03125,3.0148431 V 2.5074215 C 6.03125,2.2283397 6.027485,2 6.0228837,2 6.0182822,2 4.8900156,1.775 3.515625,1.5 2.1412343,1.225 1.0129679,1 1.0083664,1 1.0037649,1 1,1.2287649 1,1.5083664 V 2.0167328 L 1.5,4.515625 C 1.775,5.8900156 2,7.0216878 2,7.0304519 2,7.0392159 2.3343359,6.7122684 2.7429687,6.3039016 L 3.4859375,5.5614169 3.8132812,5.8001116 C 3.9933203,5.9313941 4.1828125,6.07821 4.234375,6.1263697 c 0.051563,0.04816 0.1717322,0.1413812 0.2670437,0.207159 0.095312,0.065778 0.4046866,0.2934379 0.6875,0.505911 C 5.4717322,7.0519128 5.7784169,7.2598047 5.87044,7.3014216 6.1416478,7.4240734 6.3699969,7.5989062 6.7181916,7.9504928 6.8983534,8.1324091 7.0495253,8.28125 7.0541291,8.28125 c 0.0046,0 0.00837,-0.6595144 0.00837,-1.4655875 z m 4.438806,0.9485797 c 0.448728,-0.4573888 1.159626,-0.6707938 1.790745,-0.537566 l 0.213927,0.045159 -0.516579,-0.5165784 -0.516578,-0.5165781 -0.129051,0.089432 c -0.07098,0.049187 -0.188473,0.1417388 -0.261103,0.2056691 -0.07263,0.063931 -0.21859,0.1774053 -0.324358,0.2521662 -0.105768,0.074761 -0.325866,0.2343663 -0.489106,0.3546788 l -0.296801,0.21875 -0.0018,0.1421694 c -0.0018,0.1379081 0.0036,0.1460528 0.177862,0.2717528 0.09883,0.071271 0.187306,0.1303415 0.196618,0.1312681 0.0093,9.281e-4 0.07963,-0.062219 0.15625,-0.1403231 z M 14.500513,4.5130619 15,2.0167328 V 1.5083664 C 15,1.2287649 14.996235,1 14.991634,1 14.987032,1 13.858766,1.225 12.484375,1.5 11.109984,1.775 9.9817178,2 9.9771163,2 c -0.0046,0 -0.00837,0.068846 -0.00837,0.1529923 0,0.1488949 0.00409,0.1556142 0.1525557,0.2508874 0.313081,0.2009036 0.603246,0.5800478 0.748864,0.9785037 l 0.08296,0.2269916 0.01563,1.5549834 0.01563,1.5549835 0.203125,-0.1569522 c 0.111719,-0.086324 0.282589,-0.2165353 0.379711,-0.2893585 0.09712,-0.072823 0.34985,-0.2628446 0.561617,-0.422269 l 0.385032,-0.2898628 0.733914,0.7339144 c 0.403653,0.4036528 0.738265,0.7295634 0.743583,0.7242456 0.0053,-0.00532 0.234438,-1.1330166 0.509156,-2.5059975 z"
       id="path819"
       inkscape:connector-curvature="0" />
  </g>
</svg>
