<?xml version="1.0" encoding="UTF-8" standalone="no"?>
<!-- Created with Inkscape (http://www.inkscape.org/) -->

<svg
   xmlns:dc="http://purl.org/dc/elements/1.1/"
   xmlns:cc="http://creativecommons.org/ns#"
   xmlns:rdf="http://www.w3.org/1999/02/22-rdf-syntax-ns#"
   xmlns:svg="http://www.w3.org/2000/svg"
   xmlns="http://www.w3.org/2000/svg"
   xmlns:sodipodi="http://sodipodi.sourceforge.net/DTD/sodipodi-0.dtd"
   xmlns:inkscape="http://www.inkscape.org/namespaces/inkscape"
   version="1.1"
   id="svg2"
   width="16"
   height="16"
   viewBox="0 0 16 16"
   sodipodi:docname="CLEARORIGIN.svg"
   inkscape:version="0.92.4 (5da689c313, 2019-01-14)">
  <metadata
     id="metadata8">
    <rdf:RDF>
      <cc:Work
         rdf:about="">
        <dc:format>image/svg+xml</dc:format>
        <dc:type
           rdf:resource="http://purl.org/dc/dcmitype/StillImage" />
        <dc:title></dc:title>
      </cc:Work>
    </rdf:RDF>
  </metadata>
  <defs
     id="defs6" />
  <sodipodi:namedview
     pagecolor="#ffffff"
     bordercolor="#666666"
     borderopacity="1"
     objecttolerance="10"
     gridtolerance="10"
     guidetolerance="10"
     inkscape:pageopacity="0"
     inkscape:pageshadow="2"
     inkscape:window-width="1178"
     inkscape:window-height="767"
     id="namedview4"
     showgrid="false"
     inkscape:zoom="14.75"
     inkscape:cx="8"
     inkscape:cy="8"
     inkscape:window-x="0"
     inkscape:window-y="0"
     inkscape:window-maximized="0"
     inkscape:current-layer="svg2" />
  <g
     id="CLEARORIGIN">
    <path
       style="fill:#ffffff;stroke-width:0.03125"
       d="M 0.00293643,9.9765625 C 0.00546218,4.7955494 0.01184281,3.9831706 0.04855866,4.1679541 0.33572694,5.613215 1.4977435,6.7378659 2.9430974,6.9694159 3.2905019,7.0250712 4.0414469,6.9942459 4.3495856,6.9116816 5.6358141,6.5670422 6.5670422,5.6358141 6.9116816,4.3495856 6.9942459,4.0414469 7.0250712,3.2905019 6.9694159,2.9430974 6.7378659,1.4977435 5.613215,0.33572694 4.1679541,0.04855866 3.9831706,0.01184281 4.7955494,0.00546218 9.9765625,0.00293643 L 16,0 v 8 8 H 8 0 Z M 9.6488666,14.866329 c 0.1248456,-0.04351 0.3006268,-0.124927 0.3906254,-0.180921 0.252496,-0.157093 4.303171,-4.204262 4.490054,-4.486167 0.2245,-0.3386501 0.298579,-0.6012976 0.298579,-1.058616 0,-0.3120762 -0.01267,-0.4136756 -0.07549,-0.6054909 C 14.563508,7.9577256 14.07298,7.4675959 13.494612,7.2781356 13.164641,7.170045 12.615951,7.1702644 12.285134,7.27862 11.966927,7.382845 11.664716,7.592975 11.296875,7.9657656 L 10.984375,8.2824713 10.96875,5.9459228 10.953125,3.609375 10.87017,3.3823834 C 10.657416,2.800221 10.189318,2.3397267 9.6211159,2.1536194 9.2895741,2.045027 8.7416759,2.045027 8.4101341,2.1536194 7.8419325,2.3397267 7.3738344,2.800221 7.1610803,3.3823834 L 7.078125,3.609375 7.0625,5.9458944 7.046875,8.2824141 6.71875,7.9501241 C 6.3357903,7.5623034 6.0363041,7.3526525 5.7148659,7.2473694 c -0.3315418,-0.1085925 -0.87944,-0.1085925 -1.2109818,0 C 3.9264756,7.4364922 3.4363459,7.92702 3.2468856,8.5053881 3.1834481,8.6990453 3.1720888,8.7946434 3.17326,9.125 3.17447,9.4651222 3.185191,9.5449722 3.256215,9.7426166 3.301079,9.8674622 3.3835975,10.043243 3.43959,10.133242 c 0.1300872,0.209093 4.22666,4.324934 4.4742575,4.495302 0.3716247,0.25571 0.6920897,0.344831 1.1799025,0.328132 0.2490159,-0.0085 0.3828516,-0.03031 0.5551166,-0.09035 z M 0.00293643,1.5234375 0,0 1.5234375,0.00293643 c 1.376651,0.0026535 1.5027383,0.0070493 1.3086083,0.04562223 C 1.4272213,0.32769238 0.32769238,1.4272213 0.04855866,2.8320458 0.00998573,3.0261758 0.00558993,2.9000885 0.00293643,1.5234375 Z"
       id="path823"
       inkscape:connector-curvature="0" />
    <path
       style="fill:#fe9832;stroke-width:0.03125"
       d="M 8.8170866,13.936056 C 8.7422653,13.920849 8.6227341,13.873702 8.5514616,13.831284 8.4801888,13.788866 7.4978375,12.828615 6.3684581,11.697393 4.0880787,9.4132922 4.1774606,9.5190491 4.1772156,9.1047125 c -3.125e-4,-0.52686 0.4022638,-0.927365 0.9321594,-0.927365 0.3940863,0 0.3895088,-0.00354 1.7421875,1.3469619 0.84579,0.8444276 1.2115388,1.1903036 1.2129319,1.1470266 0.0011,-0.03408 0.00461,-1.5947735 0.00781,-3.468211 l 0.00582,-3.40625 0.086868,-0.1768919 C 8.3335081,3.2768316 8.63995,3.0835977 9.015625,3.0835977 c 0.375675,0 0.6821169,0.1932339 0.8506319,0.5363854 l 0.086868,0.1768919 0.00582,3.40625 c 0.0032,1.8734375 0.00672,3.434129 0.00781,3.468204 0.00139,0.04328 0.3622501,-0.297711 1.1973071,-1.1313971 1.335557,-1.3333663 1.332922,-1.3313344 1.726562,-1.3313344 0.373893,0 0.682573,0.1935459 0.848028,0.5317228 0.06767,0.1383063 0.08424,0.2162344 0.08413,0.3956422 -2.5e-4,0.4144288 0.08925,0.3085747 -2.191242,2.5916645 -1.630273,1.632125 -2.0856148,2.071163 -2.2096667,2.130543 -0.1822897,0.08726 -0.41269,0.116928 -0.6047884,0.07789 z M 3.078125,5.9662109 C 1.9878513,5.7508931 1.2133381,4.9555903 1.0282091,3.8612706 0.90461287,3.1306784 1.1860732,2.2840355 1.7350543,1.7350543 2.2171756,1.2529331 2.7970882,1.0170003 3.5,1.0170003 c 0.7029119,0 1.2828244,0.2359328 1.7649456,0.718054 C 5.7470669,2.2171756 5.9829997,2.7970882 5.9829997,3.5 c 0,0.5443019 -0.1101138,0.9287387 -0.3879006,1.3542656 C 5.24307,5.39352 4.7457353,5.7488653 4.0942109,5.92665 3.8813831,5.9847253 3.2887166,6.0078006 3.078125,5.9662109 Z"
       id="path821"
       inkscape:connector-curvature="0" />
    <path
       style="fill:#323232;stroke-width:0.03125"
       d="M 8.578125,14.924394 C 8.3297456,14.86675 8.132115,14.778731 7.9138475,14.628544 7.66625,14.458176 3.5696772,10.342335 3.43959,10.133242 3.3835975,10.043243 3.3010787,9.8674622 3.256215,9.7426166 3.1851906,9.5449722 3.1744656,9.4651222 3.17326,9.125 3.1720881,8.7946434 3.1834481,8.6990453 3.2468856,8.5053881 3.4363459,7.92702 3.9264756,7.4364922 4.5038841,7.2473694 c 0.3315418,-0.1085925 0.87944,-0.1085925 1.2109818,0 0.3214382,0.1052831 0.6209244,0.314934 1.0038841,0.7027547 L 7.046875,8.2824141 7.0625,5.9458944 7.078125,3.609375 7.1610803,3.3823834 C 7.3738344,2.800221 7.8419325,2.3397267 8.4101341,2.1536194 c 0.3315418,-0.1085924 0.87944,-0.1085924 1.2109818,0 0.5682021,0.1861073 1.0363001,0.6466016 1.2490541,1.228764 l 0.08296,0.2269916 0.01563,2.3365478 0.01563,2.3365478 0.3125,-0.3167056 c 0.367841,-0.3727906 0.670052,-0.5829206 0.988259,-0.6871456 0.330817,-0.108355 0.879507,-0.1085744 1.209478,-4.844e-4 0.578368,0.1894603 1.068896,0.67959 1.258019,1.2569984 0.06283,0.1918154 0.07549,0.2934147 0.07549,0.605491 0,0.4573184 -0.07408,0.7199659 -0.298579,1.0586156 -0.186883,0.281906 -4.237558,4.329075 -4.490054,4.486168 -0.3911411,0.243352 -1.0079298,0.344219 -1.461367,0.238985 z m 0.84375,-1.066224 c 0.1240519,-0.05938 0.579394,-0.498418 2.209667,-2.130543 2.280497,-2.2830898 2.190997,-2.1772358 2.191242,-2.5916645 3.13e-4,-0.52686 -0.402263,-0.927365 -0.932159,-0.927365 -0.39364,0 -0.391005,-0.00203 -1.726562,1.3313344 -0.835057,0.8336861 -1.1959139,1.1746791 -1.1973074,1.1313971 -0.0011,-0.03407 -0.00461,-1.5947665 -0.00781,-3.468204 L 9.953125,3.796875 9.8662569,3.6199831 C 9.6977419,3.2768316 9.3913,3.0835977 9.015625,3.0835977 c -0.375675,0 -0.6821169,0.1932339 -0.8506319,0.5363854 l -0.086868,0.1768919 -0.00582,3.40625 c -0.0032,1.8734375 -0.00672,3.434133 -0.00781,3.468211 C 8.0631006,10.714613 7.6973525,10.368737 6.8515625,9.5243094 5.4988838,8.1738087 5.5034613,8.1773475 5.109375,8.1773475 c -0.3738931,0 -0.6825731,0.1935459 -0.8480275,0.5317228 -0.067667,0.1383063 -0.084238,0.2162344 -0.084132,0.3956422 2.5e-4,0.4143366 -0.089137,0.3085797 2.1912425,2.5926805 1.1293794,1.131222 2.1117307,2.091473 2.1830035,2.133891 0.2550443,0.15179 0.5879875,0.162074 0.8704134,0.02689 z M 2.8320458,6.9531556 C 1.3737128,6.6517531 0.26219301,5.5026237 0.03058406,4.0569025 -0.0250712,3.7094981 0.00575406,2.958553 0.08831845,2.6504143 0.43294072,1.3642494 1.3478509,0.44844231 2.6504143,0.08580687 2.8581527,0.02797222 2.9730018,0.01893189 3.5,0.01893189 c 0.5269981,0 0.6418472,0.0090403 0.8495856,0.06687498 C 5.652105,0.44843003 6.55157,1.3478951 6.9141931,2.6504143 6.9720278,2.8581527 6.9810681,2.9730018 6.9810681,3.5 c 0,0.5269981 -0.00904,0.6418472 -0.066875,0.8495856 -0.3626312,1.3025478 -1.27507,2.2142797 -2.5646075,2.5626203 -0.3144437,0.08494 -1.1903334,0.1085753 -1.5175398,0.04095 z M 4.0942109,5.92665 C 4.7457353,5.7488653 5.24307,5.39352 5.5950991,4.8542656 5.8728859,4.4287387 5.9829997,4.0443019 5.9829997,3.5 5.9829997,2.7970882 5.7470669,2.2171756 5.2649456,1.7350543 4.7828244,1.2529331 4.2029119,1.0170003 3.5,1.0170003 c -0.5443018,0 -0.9287386,0.1101138 -1.3542656,0.3879008 -0.678153,0.442703 -1.0837063,1.1411067 -1.1360366,1.9563695 -0.0803206,1.2513316 0.7947708,2.3534063 2.0684272,2.6049403 0.2105916,0.04159 0.8032581,0.018514 1.0160859,-0.039561 z"
       id="path819"
       inkscape:connector-curvature="0" />
  </g>
</svg>
