<?xml version="1.0" encoding="UTF-8" standalone="no"?>
<!-- Created with Inkscape (http://www.inkscape.org/) -->

<svg
   xmlns:dc="http://purl.org/dc/elements/1.1/"
   xmlns:cc="http://creativecommons.org/ns#"
   xmlns:rdf="http://www.w3.org/1999/02/22-rdf-syntax-ns#"
   xmlns:svg="http://www.w3.org/2000/svg"
   xmlns="http://www.w3.org/2000/svg"
   xmlns:sodipodi="http://sodipodi.sourceforge.net/DTD/sodipodi-0.dtd"
   xmlns:inkscape="http://www.inkscape.org/namespaces/inkscape"
   version="1.1"
   id="svg2"
   width="16"
   height="16"
   viewBox="0 0 16 16"
   sodipodi:docname="CLEARORIGIN.svg"
   inkscape:version="0.92.4 (5da689c313, 2019-01-14)">
  <metadata
     id="metadata8">
    <rdf:RDF>
      <cc:Work
         rdf:about="">
        <dc:format>image/svg+xml</dc:format>
        <dc:type
           rdf:resource="http://purl.org/dc/dcmitype/StillImage" />
        <dc:title></dc:title>
      </cc:Work>
    </rdf:RDF>
  </metadata>
  <defs
     id="defs6" />
  <sodipodi:namedview
     pagecolor="#ffffff"
     bordercolor="#666666"
     borderopacity="1"
     objecttolerance="10"
     gridtolerance="10"
     guidetolerance="10"
     inkscape:pageopacity="0"
     inkscape:pageshadow="2"
     inkscape:window-width="1194"
     inkscape:window-height="769"
     id="namedview4"
     showgrid="false"
     inkscape:zoom="14.75"
     inkscape:cx="8"
     inkscape:cy="8"
     inkscape:window-x="0"
     inkscape:window-y="0"
     inkscape:window-maximized="0"
     inkscape:current-layer="svg2" />
  <g
     id="CLEARORIGIN">
    <path
       style="fill:#ffffff;stroke-width:0.03125"
       d="M 0.00293643,9.9765625 C 0.00546218,4.7955494 0.01184281,3.9831706 0.04855866,4.1679541 0.33572694,5.613215 1.4977435,6.7378659 2.9430974,6.9694159 3.2905019,7.0250712 4.0414469,6.9942459 4.3495856,6.9116816 5.6358141,6.5670422 6.5670422,5.6358141 6.9116816,4.3495856 6.9942459,4.0414469 7.0250712,3.2905019 6.9694159,2.9430974 6.7378659,1.4977435 5.613215,0.33572694 4.1679541,0.04855866 3.9831706,0.01184281 4.7955494,0.00546218 9.9765625,0.00293643 L 16,0 v 8 8 H 8 0 Z M 9.6488666,14.866329 c 0.1248456,-0.04351 0.3006268,-0.124927 0.3906254,-0.180921 0.252496,-0.157093 4.303171,-4.204262 4.490054,-4.486167 0.2245,-0.3386501 0.298579,-0.6012976 0.298579,-1.058616 0,-0.3120762 -0.01267,-0.4136756 -0.07549,-0.6054909 C 14.563508,7.9577256 14.07298,7.4675959 13.494612,7.2781356 13.164641,7.170045 12.615951,7.1702644 12.285134,7.27862 11.966927,7.382845 11.664716,7.592975 11.296875,7.9657656 L 10.984375,8.2824713 10.96875,5.9459228 10.953125,3.609375 10.87017,3.3823834 C 10.657416,2.800221 10.189318,2.3397267 9.6211159,2.1536194 9.2895741,2.045027 8.7416759,2.045027 8.4101341,2.1536194 7.8419325,2.3397267 7.3738344,2.800221 7.1610803,3.3823834 L 7.078125,3.609375 7.0625,5.9458944 7.046875,8.2824141 6.71875,7.9501241 C 6.3357903,7.5623034 6.0363041,7.3526525 5.7148659,7.2473694 c -0.3315418,-0.1085925 -0.87944,-0.1085925 -1.2109818,0 C 3.9264756,7.4364922 3.4363459,7.92702 3.2468856,8.5053881 3.1834481,8.6990453 3.1720888,8.7946434 3.17326,9.125 3.17447,9.4651222 3.185191,9.5449722 3.256215,9.7426166 3.301079,9.8674622 3.3835975,10.043243 3.43959,10.133242 c 0.1300872,0.209093 4.22666,4.324934 4.4742575,4.495302 0.3716247,0.25571 0.6920897,0.344831 1.1799025,0.328132 0.2490159,-0.0085 0.3828516,-0.03031 0.5551166,-0.09035 z M 0.00293643,1.5234375 0,0 1.5234375,0.00293643 c 1.376651,0.0026535 1.5027383,0.0070493 1.3086083,0.04562223 C 1.4272213,0.32769238 0.32769238,1.4272213 0.04855866,2.8320458 0.00998573,3.0261758 0.00558993,2.9000885 0.00293643,1.5234375 Z"
       id="path825"
       inkscape:connector-curvature="0" />
    <path
       style="fill:#fe9832;stroke-width:0.03125"
       d="M 8.8170866,13.936056 C 8.7422653,13.920849 8.6227341,13.873702 8.5514616,13.831284 8.4801888,13.788866 7.4978375,12.828615 6.3684581,11.697393 4.0880787,9.4132922 4.1774606,9.5190491 4.1772156,9.1047125 c -3.125e-4,-0.52686 0.4022638,-0.927365 0.9321594,-0.927365 0.3940863,0 0.3895088,-0.00354 1.7421875,1.3469619 0.84579,0.8444276 1.2115388,1.1903036 1.2129319,1.1470266 0.0011,-0.03408 0.00461,-1.5947735 0.00781,-3.468211 l 0.00582,-3.40625 0.086868,-0.1768919 C 8.3335081,3.2768316 8.63995,3.0835977 9.015625,3.0835977 c 0.375675,0 0.6821169,0.1932339 0.8506319,0.5363854 l 0.086868,0.1768919 0.00582,3.40625 c 0.0032,1.8734375 0.00672,3.434129 0.00781,3.468204 0.00139,0.04328 0.3622501,-0.297711 1.1973071,-1.1313971 1.335557,-1.3333663 1.332922,-1.3313344 1.726562,-1.3313344 0.373893,0 0.682573,0.1935459 0.848028,0.5317228 0.06767,0.1383063 0.08424,0.2162344 0.08413,0.3956422 -2.5e-4,0.4144288 0.08925,0.3085747 -2.191242,2.5916645 -1.630273,1.632125 -2.0856148,2.071163 -2.2096667,2.130543 -0.1822897,0.08726 -0.41269,0.116928 -0.6047884,0.07789 z M 3.2584056,5.9667312 C 2.9241076,5.9232722 2.6824552,5.8494737 2.375,5.6969472 2.1203539,5.5706188 2.0334748,5.5050187 1.7642279,5.2357722 1.4949811,4.9665253 1.4293814,4.8796459 1.303053,4.625 1.2220501,4.4617187 1.1348135,4.2435072 1.1091939,4.1400853 0.95086128,3.5009259 1.0095412,2.9666452 1.303053,2.375 1.4293814,2.1203539 1.4949811,2.0334748 1.7642279,1.7642279 2.0334748,1.4949811 2.1203539,1.4293814 2.375,1.303053 c 0.7573944,-0.37573891 1.4926056,-0.37573891 2.25,0 C 4.8796459,1.4293814 4.9665253,1.4949811 5.2357722,1.7642279 5.5050188,2.0334748 5.5706188,2.1203539 5.6969472,2.375 6.0728366,3.1326981 6.0727088,3.8687806 5.6965566,4.625 5.5723809,4.8746434 5.5014956,4.9696294 5.2510066,5.222035 4.8505613,5.6255444 4.4931406,5.82335 3.9874609,5.9213128 3.6655284,5.9836794 3.4784338,5.995335 3.2584066,5.9667313 Z"
       id="path823"
       inkscape:connector-curvature="0" />
    <path
       style="fill:#7f7f00;stroke-width:0.03125"
       d="m 3.3359375,5.9793037 c 0.021484,-0.00867 0.056641,-0.00867 0.078125,0 0.021484,0.00867 0.00391,0.015762 -0.039063,0.015762 -0.042969,0 -0.060547,-0.00709 -0.039063,-0.015762 z m 0.25,0 c 0.021484,-0.00867 0.056641,-0.00867 0.078125,0 0.021484,0.00867 0.00391,0.015762 -0.039063,0.015762 -0.042969,0 -0.060547,-0.00709 -0.039063,-0.015762 z M 1.7332003,5.2421875 1.578125,5.078125 1.7421875,5.2332003 c 0.090234,0.085291 0.1640625,0.1591194 0.1640625,0.1640625 0,0.023319 -0.028951,-0.00263 -0.1730497,-0.1550753 z M 5.234375,5.25 C 5.31902,5.164063 5.3953069,5.09375 5.4039006,5.09375 c 0.00859,0 -0.05363,0.070312 -0.1382756,0.15625 -0.084645,0.085937 -0.1609319,0.15625 -0.1695256,0.15625 -0.00859,0 0.05363,-0.070312 0.1382756,-0.15625 z M 1.0049342,3.625 c 0,-0.042969 0.00709,-0.060547 0.015762,-0.039063 0.00867,0.021484 0.00867,0.056641 0,0.078125 -0.00867,0.021484 -0.015762,0.00391 -0.015762,-0.039063 z m 4.9687499,0 c 0,-0.042969 0.00709,-0.060547 0.015762,-0.039063 0.00867,0.021484 0.00867,0.056641 0,0.078125 -0.00867,0.021484 -0.015762,0.00391 -0.015762,-0.039063 z M 1.0049342,3.375 c 0,-0.042969 0.00709,-0.060547 0.015762,-0.039063 0.00867,0.021484 0.00867,0.056641 0,0.078125 -0.00867,0.021484 -0.015762,0.00391 -0.015762,-0.039063 z m 4.9687499,0 c 0,-0.042969 0.00709,-0.060547 0.015762,-0.039063 0.00867,0.021484 0.00867,0.056641 0,0.078125 -0.00867,0.021484 -0.015762,0.00391 -0.015762,-0.039063 z M 1.734375,1.75 C 1.81902,1.664063 1.8953068,1.59375 1.9039005,1.59375 c 0.00859,0 -0.05363,0.070312 -0.1382755,0.15625 -0.084645,0.085937 -0.1609318,0.15625 -0.1695255,0.15625 -0.00859,0 0.05363,-0.070312 0.1382755,-0.15625 z M 5.2332003,1.7421875 5.078125,1.578125 5.2421875,1.7332002 C 5.3946372,1.8772989 5.4205812,1.90625 5.3972628,1.90625 c -0.00494,0 -0.078771,-0.073828 -0.1640625,-0.1640625 z M 3.3359375,1.0105537 c 0.021484,-0.00867 0.056641,-0.00867 0.078125,0 0.021484,0.00867 0.00391,0.015762 -0.039063,0.015762 -0.042969,0 -0.060547,-0.00709 -0.039063,-0.015762 z m 0.25,0 c 0.021484,-0.00867 0.056641,-0.00867 0.078125,0 0.021484,0.00867 0.00391,0.015762 -0.039063,0.015762 -0.042969,0 -0.060547,-0.00709 -0.039063,-0.015762 z"
       id="path821"
       inkscape:connector-curvature="0" />
    <path
       style="fill:#323232;stroke-width:0.03125"
       d="M 8.578125,14.924394 C 8.3297456,14.86675 8.132115,14.778731 7.9138475,14.628544 7.66625,14.458176 3.5696772,10.342335 3.43959,10.133242 3.3835975,10.043243 3.3010787,9.8674622 3.256215,9.7426166 3.1851906,9.5449722 3.1744656,9.4651222 3.17326,9.125 3.1720881,8.7946434 3.1834481,8.6990453 3.2468856,8.5053881 3.4363459,7.92702 3.9264756,7.4364922 4.5038841,7.2473694 c 0.3315418,-0.1085925 0.87944,-0.1085925 1.2109818,0 0.3214382,0.1052831 0.6209244,0.314934 1.0038841,0.7027547 L 7.046875,8.2824141 7.0625,5.9458944 7.078125,3.609375 7.1610803,3.3823834 C 7.3738344,2.800221 7.8419325,2.3397267 8.4101341,2.1536194 c 0.3315418,-0.1085924 0.87944,-0.1085924 1.2109818,0 0.5682021,0.1861073 1.0363001,0.6466016 1.2490541,1.228764 l 0.08296,0.2269916 0.01563,2.3365478 0.01563,2.3365478 0.3125,-0.3167056 c 0.367841,-0.3727906 0.670052,-0.5829206 0.988259,-0.6871456 0.330817,-0.108355 0.879507,-0.1085744 1.209478,-4.844e-4 0.578368,0.1894603 1.068896,0.67959 1.258019,1.2569984 0.06283,0.1918154 0.07549,0.2934147 0.07549,0.605491 0,0.4573184 -0.07408,0.7199659 -0.298579,1.0586156 -0.186883,0.281906 -4.237558,4.329075 -4.490054,4.486168 -0.3911411,0.243352 -1.0079298,0.344219 -1.461367,0.238985 z m 0.84375,-1.066224 c 0.1240519,-0.05938 0.579394,-0.498418 2.209667,-2.130543 2.280497,-2.2830898 2.190997,-2.1772358 2.191242,-2.5916645 3.13e-4,-0.52686 -0.402263,-0.927365 -0.932159,-0.927365 -0.39364,0 -0.391005,-0.00203 -1.726562,1.3313344 -0.835057,0.8336861 -1.1959139,1.1746791 -1.1973074,1.1313971 -0.0011,-0.03407 -0.00461,-1.5947665 -0.00781,-3.468204 L 9.953125,3.796875 9.8662569,3.6199831 C 9.6977419,3.2768316 9.3913,3.0835977 9.015625,3.0835977 c -0.375675,0 -0.6821169,0.1932339 -0.8506319,0.5363854 l -0.086868,0.1768919 -0.00582,3.40625 c -0.0032,1.8734375 -0.00672,3.434133 -0.00781,3.468211 C 8.0631006,10.714613 7.6973525,10.368737 6.8515625,9.5243094 5.4988838,8.1738087 5.5034613,8.1773475 5.109375,8.1773475 c -0.3738931,0 -0.6825731,0.1935459 -0.8480275,0.5317228 -0.067667,0.1383063 -0.084238,0.2162344 -0.084132,0.3956422 2.5e-4,0.4143366 -0.089137,0.3085797 2.1912425,2.5926805 1.1293794,1.131222 2.1117307,2.091473 2.1830035,2.133891 0.2550443,0.15179 0.5879875,0.162074 0.8704134,0.02689 z M 2.8320458,6.9531556 C 1.3737128,6.6517531 0.26219301,5.5026237 0.03058406,4.0569025 -0.0250712,3.7094981 0.00575406,2.958553 0.08831845,2.6504143 0.43294072,1.3642494 1.3478509,0.44844231 2.6504143,0.08580687 2.8581527,0.02797222 2.9730018,0.01893189 3.5,0.01893189 c 0.5269981,0 0.6418472,0.0090403 0.8495856,0.06687498 C 5.652105,0.44843003 6.55157,1.3478951 6.9141931,2.6504143 6.9720278,2.8581527 6.9810681,2.9730018 6.9810681,3.5 c 0,0.5269981 -0.00904,0.6418472 -0.066875,0.8495856 -0.3626312,1.3025478 -1.27507,2.2142797 -2.5646075,2.5626203 -0.3144437,0.08494 -1.1903334,0.1085753 -1.5175398,0.04095 z M 4,5.93862 C 4.2146591,5.8948322 4.3877453,5.8324475 4.625,5.713355 4.9096037,5.570495 4.9926191,5.509155 5.2508869,5.2508869 5.509155,4.9926191 5.570495,4.9096037 5.713355,4.625 5.8962234,4.2606919 5.9991791,3.8554603 5.9991791,3.5 5.9991791,3.1445397 5.8962234,2.739308 5.713355,2.375 5.570495,2.0903963 5.509155,2.007381 5.2508869,1.749113 4.9926191,1.490845 4.9096037,1.4295051 4.625,1.286645 4.2606919,1.1037766 3.8554603,1.0008211 3.5,1.0008211 3.1445397,1.0008211 2.739308,1.1037766 2.375,1.286645 1.9026142,1.5237643 1.5237643,1.9026142 1.286645,2.375 1.1037766,2.739308 1.0008211,3.1445397 1.0008211,3.5 c 0,0.3554603 0.1029555,0.7606919 0.2858239,1.125 0.1428601,0.2846037 0.2042,0.3676191 0.462468,0.6258869 C 2.0072567,5.5090306 2.0905333,5.5705806 2.375,5.7134822 2.9204991,5.9875131 3.4206306,6.0568044 4,5.93862 Z"
       id="path819"
       inkscape:connector-curvature="0" />
  </g>
</svg>
