<?xml version="1.0" encoding="UTF-8" standalone="no"?>
<!-- Created with Inkscape (http://www.inkscape.org/) -->

<svg
   xmlns:dc="http://purl.org/dc/elements/1.1/"
   xmlns:cc="http://creativecommons.org/ns#"
   xmlns:rdf="http://www.w3.org/1999/02/22-rdf-syntax-ns#"
   xmlns:svg="http://www.w3.org/2000/svg"
   xmlns="http://www.w3.org/2000/svg"
   xmlns:sodipodi="http://sodipodi.sourceforge.net/DTD/sodipodi-0.dtd"
   xmlns:inkscape="http://www.inkscape.org/namespaces/inkscape"
   version="1.1"
   id="svg2"
   width="16"
   height="16"
   viewBox="0 0 16 16"
   sodipodi:docname="MAKEDUPLIREAL.svg"
   inkscape:version="0.92.4 (5da689c313, 2019-01-14)">
  <metadata
     id="metadata8">
    <rdf:RDF>
      <cc:Work
         rdf:about="">
        <dc:format>image/svg+xml</dc:format>
        <dc:type
           rdf:resource="http://purl.org/dc/dcmitype/StillImage" />
        <dc:title></dc:title>
      </cc:Work>
    </rdf:RDF>
  </metadata>
  <defs
     id="defs6" />
  <sodipodi:namedview
     pagecolor="#ffffff"
     bordercolor="#666666"
     borderopacity="1"
     objecttolerance="10"
     gridtolerance="10"
     guidetolerance="10"
     inkscape:pageopacity="0"
     inkscape:pageshadow="2"
     inkscape:window-width="1203"
     inkscape:window-height="808"
     id="namedview4"
     showgrid="false"
     inkscape:zoom="14.75"
     inkscape:cx="8"
     inkscape:cy="8"
     inkscape:window-x="0"
     inkscape:window-y="0"
     inkscape:window-maximized="0"
     inkscape:current-layer="svg2" />
  <g
     id="MAKEDUPLIREAL">
    <path
       style="fill:#ffffff;stroke-width:0.03125"
       d="M 0,8 V 0 h 8 8 v 8 8 H 8 0 Z m 6.9042397,6.780315 c 0.1471994,-0.07049 0.3033684,-0.162209 0.3470425,-0.203827 l 0.079407,-0.07567 3.4261208,-0.0082 c 3.405215,-0.0082 3.426647,-0.0086 3.512412,-0.07265 0.04746,-0.03544 0.115285,-0.103262 0.150722,-0.150722 0.06404,-0.08576 0.06448,-0.107197 0.07265,-3.512487 0.008,-3.3201575 0.0101,-3.4301016 0.06897,-3.5524028 0.08733,-0.1814185 0.157179,-0.4735994 0.157179,-0.6574572 0,-0.1831331 -0.0697,-0.47556 -0.15642,-0.65625 -0.05452,-0.1135962 -0.06081,-0.2138875 -0.06897,-1.0993297 -0.0086,-0.9278594 -0.01206,-0.9784428 -0.07341,-1.060569 -0.03544,-0.047432 -0.103256,-0.1152335 -0.150708,-0.1506704 -0.08453,-0.06313 -0.123428,-0.064603 -1.926325,-0.072967 l -1.840049,-0.00854 -0.0092,-0.8408051 C 10.484904,1.865077 10.480686,1.8120049 10.419944,1.7307141 10.384507,1.6832891 10.316679,1.6154929 10.269215,1.5800559 10.18306,1.5157321 10.175965,1.515625 6,1.515625 c -4.1759647,0 -4.1830603,1.062e-4 -4.269215,0.064431 C 1.683321,1.6154929 1.6154929,1.683321 1.5800559,1.730785 L 1.515625,1.8170832 V 7 12.182917 l 0.064431,0.0863 c 0.159247,0.213294 0.1634376,0.214256 0.9768389,0.224269 l 0.7399802,0.0091 1.109375,1.104856 c 0.7164794,0.713561 1.1564194,1.128362 1.2422084,1.171225 0.2396279,0.119725 0.4416479,0.159976 0.7245313,0.144356 0.2276472,-0.01257 0.3001316,-0.03204 0.53125,-0.142715 z"
       id="path825"
       inkscape:connector-curvature="0" />
    <path
       style="fill:#fe9832;stroke-width:0.03125"
       d="M 10.90625,10.921875 C 12.599153,9.2289063 13.987798,7.84375 13.992128,7.84375 13.996458,7.84375 14,9.2289063 14,10.921875 V 14 H 10.914122 7.8282441 Z M 2,11.602032 V 11.204063 L 2.390625,11.59375 C 2.6054688,11.808078 2.78125,11.987164 2.78125,11.991718 2.78125,11.996273 2.6054688,12 2.390625,12 H 2 Z M 6.1472628,11.537989 6,11.388478 V 7.6942391 4 h 4 4 V 4.6688728 5.3377453 L 13.835938,5.2718866 C 13.707368,5.2202753 13.60427,5.2060037 13.359375,5.2059172 12.775022,5.2056984 13.101459,4.9251744 9.4840175,8.5363556 7.7478834,10.269485 6.3200109,11.6875 6.3109678,11.6875 c -0.00904,0 -0.082711,-0.06728 -0.163705,-0.149511 z M 4.5625,9.9511453 C 3.9315716,9.3185812 3.5939434,9.0028309 3.4927125,8.9506797 3.2989572,8.8508622 3.0259036,8.78125 2.828125,8.78125 2.6563267,8.78125 2.3350282,8.854602 2.234375,8.9168019 2.2,8.9380444 2.1332031,8.9721838 2.0859375,8.9926672 L 2,9.02991 V 5.514955 2 h 4 4 v 0.7493541 0.749354 l -2.0914756,0.00846 c -2.0569388,0.00832 -2.0929,0.00952 -2.1777566,0.072889 C 5.6833134,3.6154928 5.6154928,3.6833172 5.5800559,3.7307763 5.5160934,3.8164384 5.5155113,3.8427253 5.5,7.3462381 L 5.484375,10.87541 Z"
       id="path823"
       inkscape:connector-curvature="0" />
    <path
       style="fill:#00fe00;stroke-width:0.03125"
       d="M 6.092205,14.395293 C 6.014012,14.374013 5.9015116,14.326253 5.842205,14.28917 5.7828984,14.252087 4.9229259,13.408962 3.9311547,12.41556 2.5553943,11.037538 2.1129334,10.576039 2.0646535,10.46875 1.9556468,10.226512 1.9913175,9.8167181 2.1338136,9.6742222 2.1570993,9.6509362 2.2104571,9.5916634 2.2523865,9.5425047 2.3747401,9.399055 2.609199,9.3007119 2.8276551,9.30121 3.1926272,9.3020412 3.1800159,9.29173 4.8202725,10.930634 L 6.31242,12.421551 9.6015225,9.1356197 C 11.961774,6.7776434 12.929983,5.8300759 13.029994,5.7802394 c 0.206497,-0.1029 0.472782,-0.098044 0.699241,0.012752 0.390349,0.1909804 0.553053,0.5828282 0.429811,1.0351338 -0.04071,0.1493862 -0.2006,0.3145634 -3.639873,3.7601118 -3.2418911,3.247806 -3.6173664,3.614026 -3.800423,3.706747 -0.2416359,0.122391 -0.4329147,0.153015 -0.626545,0.100309 z"
       id="path821"
       inkscape:connector-curvature="0" />
    <path
       style="fill:#323232;stroke-width:0.03125"
       d="M 5.9453334,14.891314 C 5.6132384,14.797638 5.5397688,14.736351 4.40625,13.607449 L 3.296875,12.502593 2.5568948,12.493484 C 1.7434935,12.483471 1.7393029,12.482509 1.5800559,12.269215 l -0.064431,-0.0863 V 7 1.8170832 L 1.5800559,1.730785 C 1.6154929,1.683321 1.683321,1.6154929 1.730785,1.5800559 1.8169397,1.5157321 1.8240353,1.515625 6,1.515625 c 4.175965,0 4.18306,1.062e-4 4.269215,0.064431 0.04746,0.035437 0.115292,0.1032332 0.150729,0.1506582 0.06074,0.081291 0.06496,0.1343629 0.07367,0.9270324 l 0.0092,0.8408051 1.840049,0.00854 c 1.802897,0.00836 1.84179,0.00984 1.926325,0.072967 0.04745,0.035437 0.115271,0.1032388 0.150708,0.1506703 0.06136,0.082126 0.06486,0.1327097 0.07341,1.0605691 0.0082,0.8854422 0.01445,0.9857334 0.06897,1.0993297 0.08672,0.18069 0.15642,0.4731169 0.15642,0.65625 0,0.1838578 -0.06985,0.4760387 -0.157179,0.6574572 -0.05887,0.1223012 -0.06101,0.2322453 -0.06897,3.552403 -0.0082,3.40529 -0.0086,3.426722 -0.07265,3.512487 -0.03544,0.04746 -0.103262,0.115285 -0.150722,0.150722 -0.08576,0.06404 -0.107197,0.06448 -3.512412,0.07265 l -3.4261206,0.0082 -0.079407,0.07567 c -0.043674,0.04162 -0.1998431,0.13334 -0.3470425,0.203827 -0.2311185,0.110673 -0.3036028,0.130144 -0.53125,0.142715 -0.1785203,0.0099 -0.3165669,-3.82e-4 -0.4276563,-0.03172 z M 6.71875,14.294984 c 0.1830566,-0.09272 0.5585319,-0.458941 3.800423,-3.706747 3.439273,-3.4455486 3.599168,-3.6107258 3.639873,-3.760112 0.123242,-0.4523056 -0.03946,-0.8441534 -0.429811,-1.0351338 -0.226459,-0.1107956 -0.492744,-0.1156518 -0.699241,-0.012752 -0.100011,0.049836 -1.06822,0.997404 -3.4284715,3.3553803 L 6.31242,12.421551 4.8202725,10.930634 C 3.1800159,9.2917297 3.1926272,9.3020422 2.8276551,9.30121 2.609199,9.3007131 2.3747401,9.399055 2.2523865,9.5425047 2.2104571,9.5916634 2.1570993,9.6509363 2.1338136,9.6742222 1.9913175,9.8167181 1.9556468,10.226512 2.0646535,10.46875 c 0.04828,0.107289 0.4907408,0.568788 1.8665012,1.94681 0.9917712,0.993402 1.8517437,1.836527 1.9110503,1.87361 0.2718597,0.16999 0.5487878,0.171827 0.876545,0.0058 z M 14,10.921875 C 14,9.2289063 13.9965,7.84375 13.9921,7.84375 c -0.0043,0 -1.392975,1.3851563 -3.085878,3.078125 L 7.8282441,14 H 10.914122 14 Z M 2.78125,11.991718 c 0,-0.0046 -0.1757812,-0.18364 -0.390625,-0.397968 L 2,11.204063 V 11.602032 12 H 2.390625 C 2.6054688,12 2.78125,11.9963 2.78125,11.9917 Z M 9.4840175,8.5363556 c 3.6174415,-3.6111812 3.2910045,-3.330645 3.8753575,-3.3304384 0.244895,9.37e-5 0.347993,0.014358 0.476563,0.065969 L 14,5.3377453 V 4.6688728 4 H 10 6 v 3.6942391 3.6942389 l 0.1472628,0.149511 c 0.080994,0.08223 0.1546619,0.149511 0.163705,0.149511 0.00904,0 1.4369156,-1.418015 3.1730497,-3.1511444 z M 5.5800559,3.7307763 C 5.6154928,3.6833172 5.6833134,3.6154928 5.7307678,3.5800559 5.8156244,3.5166891 5.8515856,3.5154853 7.9085244,3.5071666 L 10,3.4987081 V 2.7493541 2 H 6 2 V 5.514955 9.02991 L 2.085937,8.992667 C 2.1332031,8.9721838 2.2,8.9380444 2.234375,8.9168019 2.3350282,8.8546016 2.6563267,8.78125 2.828125,8.78125 c 0.1977786,0 0.4708322,0.069612 0.6645875,0.1694297 C 3.5939434,9.0028309 3.9315716,9.3185812 4.5625,9.9511453 L 5.484375,10.87541 5.5,7.3462381 C 5.515511,3.8427253 5.516093,3.8164384 5.5800559,3.7307763 Z"
       id="path819"
       inkscape:connector-curvature="0" />
  </g>
</svg>
