<?xml version="1.0" encoding="UTF-8" standalone="no"?>
<!-- Created with Inkscape (http://www.inkscape.org/) -->

<svg
   xmlns:dc="http://purl.org/dc/elements/1.1/"
   xmlns:cc="http://creativecommons.org/ns#"
   xmlns:rdf="http://www.w3.org/1999/02/22-rdf-syntax-ns#"
   xmlns:svg="http://www.w3.org/2000/svg"
   xmlns="http://www.w3.org/2000/svg"
   xmlns:sodipodi="http://sodipodi.sourceforge.net/DTD/sodipodi-0.dtd"
   xmlns:inkscape="http://www.inkscape.org/namespaces/inkscape"
   version="1.1"
   id="svg2"
   width="16.499496"
   height="16.499496"
   viewBox="0 0 16.499496 16.499496"
   sodipodi:docname="OUTLINER_DATA_ARMATURE.svg"
   inkscape:version="0.92.4 (5da689c313, 2019-01-14)">
  <metadata
     id="metadata8">
    <rdf:RDF>
      <cc:Work
         rdf:about="">
        <dc:format>image/svg+xml</dc:format>
        <dc:type
           rdf:resource="http://purl.org/dc/dcmitype/StillImage" />
        <dc:title></dc:title>
      </cc:Work>
    </rdf:RDF>
  </metadata>
  <defs
     id="defs6" />
  <sodipodi:namedview
     pagecolor="#ffffff"
     bordercolor="#666666"
     borderopacity="1"
     objecttolerance="10"
     gridtolerance="10"
     guidetolerance="10"
     inkscape:pageopacity="0"
     inkscape:pageshadow="2"
     inkscape:window-width="811"
     inkscape:window-height="575"
     id="namedview4"
     showgrid="false"
     inkscape:zoom="14.303467"
     inkscape:cx="8.2497482"
     inkscape:cy="8.2497482"
     inkscape:window-x="0"
     inkscape:window-y="0"
     inkscape:window-maximized="0"
     inkscape:current-layer="svg2" />
  <g
     id="OUTLINER_DATA_ARMATURE">
    <path
       style="fill:#ffffff;stroke-width:0.03222558"
       d="M 0.00256193,10.94864 C 0.00479264,6.1154306 0.01094017,5.4248654 0.0501119,5.6072506 0.1269494,5.9650093 0.33008154,6.327945 0.61033292,6.6081967 1.3334505,7.3313142 2.4651892,7.418981 3.2872213,6.8155538 L 3.4406589,6.7029202 H 5.0234514 6.6062435 L 6.6060824,7.3071498 6.6059213,7.9113794 6.3885481,8.22569 C 6.2689929,8.3985609 6.141193,8.5870805 6.1045486,8.6446225 6.067904,8.7021645 5.7549175,9.1697883 5.409023,9.6837862 5.0631285,10.197784 4.726968,10.698086 4.6619996,10.795569 4.5970312,10.893051 4.4555925,11.103323 4.3476913,11.26284 4.2397901,11.422356 4.1092578,11.625377 4.0576195,11.713998 4.0059813,11.802618 3.8693,12.01289 3.7538835,12.181269 2.6156646,13.841825 2.5780463,13.914355 2.5780463,14.44838 c 0,0.250842 0.016341,0.379035 0.067705,0.531132 0.1399588,0.41444 0.5295704,0.800879 0.9477647,0.940045 0.1781059,0.05927 0.2647963,0.06798 0.5720478,0.05749 0.4352103,-0.01486 0.6279718,-0.08001 0.9088384,-0.307169 0.206177,-0.16675 0.6007975,-0.703384 1.1773599,-1.60106 C 6.3561707,13.90626 6.600622,13.536395 6.982555,12.9631 c 0.085476,-0.128302 0.2061657,-0.311949 0.2682,-0.408105 0.3020958,-0.468259 0.7590812,-1.145368 0.7734139,-1.145958 0.022908,-9.44e-4 0.4387647,0.771916 0.4675399,0.86891 0.013145,0.04431 0.1098805,0.236853 0.2149672,0.427873 0.1050863,0.19102 0.2105239,0.401292 0.2343051,0.467271 0.023782,0.06598 0.1315825,0.285627 0.2395582,0.488105 0.1079753,0.202479 0.2057844,0.397967 0.2173537,0.434418 0.011569,0.03645 0.1126294,0.238458 0.2245782,0.448904 0.111949,0.210446 0.2197565,0.431754 0.2395717,0.491795 0.1050415,0.318279 0.5381561,0.723192 0.9066821,0.847645 0.280438,0.09471 0.772242,0.09471 1.05268,0 0.409897,-0.138424 0.798245,-0.526773 0.93667,-0.93667 0.05112,-0.151373 0.06771,-0.280363 0.06771,-0.526552 0,-0.401254 -0.08817,-0.686489 -0.382687,-1.238022 -0.108124,-0.202479 -0.206054,-0.397967 -0.217623,-0.434418 -0.01157,-0.03645 -0.112948,-0.239055 -0.225285,-0.450233 -0.112338,-0.211177 -0.2134,-0.41448 -0.224581,-0.451785 -0.01118,-0.0373 -0.109345,-0.234595 -0.218141,-0.438421 -0.108795,-0.203827 -0.220709,-0.429307 -0.248696,-0.501067 -0.02799,-0.07176 -0.153261,-0.318285 -0.278384,-0.547834 -0.125123,-0.22955 -0.238265,-0.4536169 -0.251426,-0.4979271 -0.01316,-0.04431 -0.116318,-0.2491047 -0.229238,-0.455099 -0.11292,-0.2059942 -0.205308,-0.3890461 -0.205308,-0.4067818 0,-0.017736 -0.0798,-0.1850686 -0.177327,-0.371851 C 10.069555,8.4405128 9.9969866,8.2682777 10.005821,8.2445503 10.020296,8.2056747 9.9801082,8.1289926 9.7407111,7.7386961 9.6751643,7.6318332 9.6686863,7.5803222 9.6682035,7.1621347 L 9.6676734,6.7029202 h 1.6955816 1.695582 l 0.153438,0.1126336 c 0.822032,0.6034272 1.95377,0.5157604 2.676888,-0.2073571 0.280252,-0.2802517 0.483384,-0.6431874 0.560221,-1.0009461 0.03917,-0.1823852 0.04532,0.50818 0.04755,5.3413894 l 0.0026,5.550856 H 8.249748 0 Z m 0,-8.4914397 L 0,0 h 8.249748 8.249748 l -0.0026,2.4572003 c -0.0023,2.1854659 -0.0075,2.434036 -0.04755,2.2477341 C 16.372547,4.3471757 16.169415,3.98424 15.889163,3.7039883 15.157735,2.9725605 14.014251,2.8922573 13.190167,3.5144465 L 13.021899,3.6414903 H 11.309857 9.5978145 L 9.7798607,3.4403231 C 10.116799,3.0679935 10.279959,2.6237075 10.279959,2.0785498 c 0,-0.605045 -0.175368,-1.0339499 -0.5938709,-1.45245287 C 9.2675852,0.20759394 8.8386801,0.03222558 8.2336352,0.03222558 c -0.6050449,0 -1.0339499,0.17536836 -1.4524529,0.59387135 C 6.3626794,1.0445999 6.187311,1.4735048 6.187311,2.0785498 c 0,0.5451577 0.16316,0.9894437 0.5000988,1.3617733 L 6.8694559,3.6414903 H 5.1735265 3.4775972 L 3.3093287,3.5144465 C 2.4852451,2.8922573 1.3417608,2.9725605 0.61033292,3.7039883 0.33008154,3.98424 0.1269494,4.3471757 0.0501119,4.7049344 0.01009895,4.8912363 0.00484054,4.6426662 0.00256193,2.4572003 Z"
       id="path825"
       inkscape:connector-curvature="0" />
    <path
       style="fill:#fefefe;stroke-width:0.03222558"
       d="M 3.7595075,15.418376 C 3.4895564,15.319366 3.2381266,15.06401 3.141817,14.791039 3.0810363,14.618768 3.0797865,14.291118 3.139267,14.122532 3.1817679,14.002071 3.3184024,13.784875 3.7672612,13.124264 3.8664657,12.978258 3.9758268,12.811491 4.0102859,12.75367 4.0447447,12.695848 4.1838229,12.489023 4.3193485,12.294058 4.4548742,12.099093 4.57481,11.914344 4.5858728,11.883505 4.5969355,11.852666 4.6935539,11.7004 4.8005802,11.545137 5.0191882,11.228001 5.1458502,11.040581 5.9560341,9.8354282 6.2693389,9.3693851 6.5537622,8.9415906 6.5880853,8.8847736 6.6224084,8.8279567 6.7337394,8.6631538 6.8354878,8.5185448 7.1417111,8.0833271 7.1218528,8.1800724 7.1218528,7.1234531 V 6.187311 H 5.4944611 c -0.8950655,0 -1.6273917,-0.0055 -1.6273917,-0.012219 0,-0.00672 0.036754,-0.0925 0.081675,-0.1906207 0.2272512,-0.4963825 0.2279657,-1.158815 0.00178,-1.6528637 l -0.079889,-0.174508 h 4.3791129 4.3791127 l -0.07989,0.1745083 c -0.226183,0.4940487 -0.225469,1.1564812 0.0018,1.6528637 0.04492,0.098121 0.08168,0.1839007 0.08168,0.1906207 1e-6,0.00672 -0.761329,0.012219 -1.691842,0.012219 H 9.2487409 v 0.8978191 0.8978194 l 0.081096,0.1195021 c 0.044603,0.065726 0.074128,0.1307785 0.06561,0.1445608 -0.014583,0.023596 0.2347185,0.5399395 0.3655908,0.757197 0.032971,0.054734 0.078478,0.1573694 0.1011268,0.2280788 0.022649,0.070709 0.082413,0.1955757 0.1328106,0.2774815 0.050397,0.081905 0.091631,0.1579737 0.091631,0.1690403 0,0.011066 0.04178,0.089221 0.09284,0.1736765 0.05106,0.084456 0.111266,0.2115612 0.133788,0.2824572 0.02252,0.0709 0.05974,0.157906 0.08271,0.193354 0.07776,0.120017 0.271102,0.482307 0.369752,0.69285 0.05398,0.115206 0.15069,0.310977 0.214911,0.435045 0.117484,0.226966 0.146996,0.285842 0.468462,0.934542 0.09661,0.194965 0.198371,0.397986 0.226123,0.451158 0.02775,0.05317 0.112839,0.22719 0.189081,0.386707 0.07624,0.159516 0.172391,0.345523 0.213663,0.413348 0.04127,0.06783 0.119089,0.233325 0.172926,0.367777 0.174592,0.436024 0.100646,0.861802 -0.202284,1.164731 -0.212118,0.212118 -0.382475,0.277709 -0.721284,0.277709 -0.239276,0 -0.31693,-0.01325 -0.443743,-0.07569 -0.200245,-0.09861 -0.418161,-0.318853 -0.506367,-0.511783 -0.0619,-0.13539 -0.285814,-0.585213 -0.4294262,-0.862675 C 9.920233,13.948841 9.8352207,13.774823 9.7588383,13.615307 9.682456,13.45579 9.5816676,13.26002 9.5348641,13.180261 9.4880606,13.100503 9.4312685,12.977393 9.4086594,12.906684 c -0.022609,-0.07071 -0.082342,-0.195576 -0.1327388,-0.277482 -0.050397,-0.0819 -0.091631,-0.157973 -0.091631,-0.16904 0,-0.01107 -0.041778,-0.08922 -0.092841,-0.173676 -0.051062,-0.08446 -0.1112669,-0.211562 -0.1337884,-0.282458 -0.022521,-0.0709 -0.059739,-0.157905 -0.082706,-0.193354 C 8.7984802,11.69264 8.604589,11.329923 8.5045908,11.117824 8.317908,10.721867 8.2494541,10.585834 8.17546,10.463768 8.105442,10.348262 8.098509,10.344664 8.0512533,10.399318 c -0.046954,0.0543 -1.004633,1.481452 -1.2516569,1.865239 -0.062034,0.09638 -0.1827242,0.280209 -0.2682,0.408512 -0.381933,0.573295 -0.6263843,0.943159 -0.7307929,1.105718 -0.520322,0.810113 -0.940597,1.389553 -1.084752,1.495566 -0.072995,0.05368 -0.1941462,0.119275 -0.2692234,0.145764 -0.1690912,0.05966 -0.5221546,0.05876 -0.6871212,-0.0017 z M 1.0312185,5.1560925 V 4.124874 H 2.062437 3.0936555 V 5.1560925 6.187311 H 2.062437 1.0312185 Z m 12.3746225,0 V 4.124874 h 1.031218 1.031219 V 5.1560925 6.187311 H 14.437059 13.405841 Z M 7.8341872,3.5603093 C 7.2889959,3.4072961 6.8467404,2.937895 6.7332207,2.3917655 6.6826968,2.1487018 6.7117314,1.7696425 6.7984945,1.5395845 6.9460435,1.1483506 7.2960165,0.79789626 7.6980719,0.63877064 c 0.2607652,-0.10320593 0.8103615,-0.10320593 1.0711266,0 0.3998766,0.15826329 0.7458024,0.50337366 0.902943,0.90081386 0.1051753,0.266009 0.1051753,0.8119215 0,1.0779305 C 9.514319,3.0166801 9.1638636,3.3652739 8.7691985,3.515662 8.5307799,3.606512 8.0761572,3.6282205 7.8341872,3.5603093 Z"
       id="path823"
       inkscape:connector-curvature="0" />
    <path
       style="fill:#323232;stroke-width:0.03222558"
       d="m 3.5533411,15.907174 c -0.4076368,-0.154098 -0.772186,-0.52671 -0.9075897,-0.927662 -0.051364,-0.152097 -0.067705,-0.28029 -0.067705,-0.531132 0,-0.508146 0.015375,-0.541434 0.7717842,-1.670938 C 3.456656,12.617925 3.6384901,12.349647 3.7539067,12.181269 3.8693232,12.01289 4.0060045,11.802618 4.0576427,11.713998 4.109281,11.625377 4.2398133,11.422356 4.3477145,11.26284 4.4556157,11.103323 4.5970544,10.893051 4.6620228,10.795569 4.7269912,10.698086 5.0631517,10.197784 5.4090462,9.6837862 5.7549407,9.1697883 6.0679272,8.7021645 6.1045718,8.6446225 6.1412162,8.5870805 6.2690161,8.3985609 6.3885713,8.22569 L 6.6059445,7.9113794 6.6061056,7.3071498 6.6062435,6.7029202 H 5.0242038 3.4421642 L 3.5908565,6.5375389 c 0.08178,-0.09096 0.1732602,-0.206972 0.2032877,-0.2578046 l 0.054596,-0.092423 h 1.6365563 1.6365564 v 0.9361421 c 0,1.0566193 0.019858,0.959874 -0.2863649,1.3950917 C 6.7337395,8.6631538 6.6224085,8.8279567 6.5880854,8.8847736 6.5537622,8.9415906 6.269339,9.3693851 5.9560341,9.8354282 5.1458502,11.040581 5.0191883,11.228001 4.8005802,11.545137 4.6935539,11.7004 4.5969355,11.852666 4.5858728,11.883505 c -0.011063,0.03084 -0.1309986,0.215588 -0.2665242,0.410553 -0.1355256,0.194965 -0.2746038,0.40179 -0.3090626,0.459612 -0.034459,0.05782 -0.1439614,0.224588 -0.2433383,0.370594 -0.4048576,0.594818 -0.6043863,0.916419 -0.6412123,1.03351 -0.058495,0.185986 -0.028697,0.55649 0.059251,0.736723 0.163385,0.334828 0.4817608,0.547058 0.8529067,0.568549 0.460885,0.02669 0.6895155,-0.113243 1.0674945,-0.653342 0.2687303,-0.383993 0.4994636,-0.726141 0.6952169,-1.030918 0.1044086,-0.162559 0.3488599,-0.532423 0.7307929,-1.105718 0.085476,-0.128303 0.2061657,-0.312133 0.2682,-0.408512 0.2470239,-0.383787 1.2047033,-1.810936 1.2516569,-1.865239 0.047256,-0.05465 0.054189,-0.05105 0.1242067,0.06445 0.073994,0.122066 0.142448,0.258099 0.3291308,0.654056 0.099998,0.212099 0.2938892,0.574816 0.3703634,0.69285 0.022967,0.03545 0.060185,0.122458 0.082706,0.193354 0.022521,0.0709 0.082726,0.198002 0.1337884,0.282458 0.051062,0.08446 0.092841,0.16261 0.092841,0.173676 0,0.01107 0.041234,0.08713 0.091631,0.16904 0.050397,0.08191 0.1101296,0.206773 0.1327388,0.277482 0.022609,0.07071 0.079401,0.193819 0.1262047,0.273577 0.046803,0.07976 0.1475919,0.275529 0.2239742,0.435046 0.076382,0.159516 0.1613947,0.333534 0.1889163,0.386707 0.1436124,0.277462 0.3675284,0.727285 0.4294264,0.862675 0.08821,0.19293 0.306122,0.413177 0.506367,0.511783 0.220287,0.108476 0.66602,0.109065 0.885068,0.0012 0.347234,-0.171035 0.549424,-0.483696 0.568394,-0.878949 0.01024,-0.213297 -7.6e-4,-0.275715 -0.08615,-0.488968 -0.05384,-0.134453 -0.131654,-0.299952 -0.172926,-0.367777 -0.04127,-0.06782 -0.13742,-0.253832 -0.213663,-0.413349 -0.07624,-0.159516 -0.161329,-0.333534 -0.189081,-0.386706 -0.02775,-0.05317 -0.129508,-0.256194 -0.226123,-0.451159 -0.321466,-0.6487 -0.350978,-0.707575 -0.468462,-0.934541 -0.06422,-0.124069 -0.160931,-0.319839 -0.214911,-0.435046 -0.09865,-0.210542 -0.291993,-0.572833 -0.369752,-0.69285 -0.02297,-0.03545 -0.06019,-0.122457 -0.08271,-0.193353 -0.02252,-0.0709 -0.08273,-0.1980023 -0.133788,-0.2824578 -0.05106,-0.084456 -0.09284,-0.1626103 -0.09284,-0.1736766 0,-0.011067 -0.04123,-0.087135 -0.091631,-0.1690402 C 9.9445778,9.4278636 9.8848132,9.3029969 9.8621645,9.2322878 9.8395157,9.1615785 9.7940087,9.0589432 9.7610377,9.004209 9.6301654,8.7869516 9.3808635,8.2706079 9.3954469,8.247012 9.4039648,8.2332298 9.3744403,8.1681776 9.3298372,8.1024513 L 9.2487409,7.9829495 V 7.0851301 6.187311 h 1.7010071 1.701008 l 0.0546,0.092423 c 0.03003,0.050833 0.121507,0.1668447 0.203287,0.2578046 l 0.148693,0.1653813 H 11.362503 9.6676734 l 5.318e-4,0.4592145 c 4.833e-4,0.4181875 0.00696,0.4696985 0.072508,0.5765614 0.2393971,0.3902965 0.2795848,0.4669786 0.2651098,0.5058542 -0.00883,0.023727 0.06373,0.1959625 0.161263,0.3827448 0.09753,0.1867824 0.177326,0.3541153 0.177326,0.371851 0,0.017736 0.09239,0.2007876 0.205309,0.4067818 0.11292,0.2059943 0.216077,0.4107888 0.229238,0.455099 0.01316,0.04431 0.126303,0.2683774 0.251427,0.4979274 0.125123,0.229549 0.250396,0.476075 0.278382,0.547834 0.02799,0.07176 0.139901,0.29724 0.248697,0.501067 0.108796,0.203826 0.206959,0.401116 0.21814,0.438421 0.01118,0.0373 0.112243,0.240608 0.224582,0.451785 0.112337,0.211178 0.213716,0.413782 0.225284,0.450233 0.01157,0.03645 0.109501,0.231939 0.217623,0.434418 0.294518,0.551533 0.382686,0.836768 0.382686,1.238022 0,0.246189 -0.01659,0.375179 -0.06771,0.526552 -0.138425,0.409897 -0.526773,0.798246 -0.93667,0.93667 -0.280438,0.09471 -0.772242,0.09471 -1.05268,0 C 10.400199,15.759503 9.9670845,15.35459 9.862043,15.036311 9.8422278,14.97627 9.7344203,14.754962 9.6224713,14.544516 9.5105225,14.33407 9.4094621,14.132063 9.3978931,14.095612 9.3863238,14.059161 9.2885147,13.863673 9.1805394,13.661194 9.0725637,13.458716 8.9647627,13.239068 8.9409812,13.173089 8.9172,13.10711 8.8117624,12.896838 8.7066761,12.705818 8.6015894,12.514798 8.5048544,12.322255 8.4917089,12.277945 8.4629337,12.180951 8.0470768,11.408092 8.024169,11.409035 c -0.014333,5.89e-4 -0.4713181,0.677699 -0.7734139,1.145958 -0.062034,0.09616 -0.1827242,0.279803 -0.2682,0.408105 -0.381933,0.573295 -0.6263843,0.94316 -0.7307929,1.105718 -0.5765624,0.897676 -0.9711829,1.43431 -1.1773599,1.60106 -0.2893635,0.234028 -0.4716591,0.293444 -0.9334155,0.304228 -0.3412499,0.008 -0.410327,9.6e-5 -0.5876457,-0.06693 z M 3.7893081,4.0266524 C 3.7418289,3.9549063 3.6512054,3.8388942 3.5879224,3.7688477 L 3.4728629,3.6414903 H 5.1711592 6.8694559 L 6.6874098,3.4403231 C 6.350471,3.0679935 6.187311,2.6237075 6.187311,2.0785498 c 0,-0.605045 0.1753684,-1.0339499 0.5938713,-1.45245287 0.418503,-0.41850299 0.847408,-0.59387135 1.4524529,-0.59387135 0.6050449,0 1.03395,0.17536836 1.4524529,0.59387135 0.4185029,0.41850297 0.5938709,0.84740787 0.5938709,1.45245287 0,0.5451577 -0.16316,0.9894437 -0.5000983,1.3617733 L 9.5978145,3.6414903 h 1.7144095 1.714409 l -0.115059,0.1273574 c -0.06328,0.070047 -0.153907,0.1860586 -0.201386,0.2578047 l -0.08633,0.1304472 H 8.249748 3.875634 Z M 8.7691985,3.515662 C 9.1638636,3.3652739 9.514319,3.0166801 9.6721415,2.617515 c 0.1051753,-0.266009 0.1051753,-0.8119215 0,-1.0779305 C 9.5150009,1.1421443 9.1690751,0.79703393 8.7691985,0.63877064 8.5084334,0.53556471 7.9588371,0.53556471 7.6980719,0.63877064 7.2960165,0.79789626 6.9460435,1.1483506 6.7984945,1.5395845 6.7117315,1.7696425 6.6826968,2.1487018 6.7332205,2.3917655 6.8467402,2.937895 7.2889957,3.4072961 7.834187,3.5603093 c 0.24197,0.067911 0.6965927,0.046203 0.9350115,-0.044647 z"
       id="path821"
       inkscape:connector-curvature="0" />
    <path
       style="fill:#000000;stroke-width:0.03222558"
       d="M 1.6112789,7.1684178 C 0.85830298,7.0066976 0.20696974,6.3493973 0.04831749,5.5911378 -0.25807868,4.1267537 1.0330983,2.8355768 2.4974823,3.141973 c 0.9276922,0.194103 1.6262725,1.0592866 1.6262725,2.0141195 0,1.3079737 -1.2247298,2.2889003 -2.5124759,2.0123253 z M 3.0936555,5.1560925 V 4.124874 H 2.062437 1.0312185 V 5.1560925 6.187311 H 2.062437 3.0936555 Z M 13.985901,7.1684178 C 13.232925,7.0066976 12.581592,6.3493973 12.422939,5.5911378 12.116543,4.1267537 13.40772,2.8355768 14.872104,3.141973 c 0.766105,0.1602938 1.418781,0.8129691 1.579075,1.5790742 0.307498,1.4696526 -0.99538,2.7630671 -2.465278,2.4473706 z M 15.468278,5.1560925 V 4.124874 H 14.437059 13.405841 V 5.1560925 6.187311 h 1.031218 1.031219 z"
       id="path819"
       inkscape:connector-curvature="0" />
  </g>
</svg>
