<?xml version="1.0" encoding="UTF-8" standalone="no"?>
<!-- Created with Inkscape (http://www.inkscape.org/) -->

<svg
   xmlns:dc="http://purl.org/dc/elements/1.1/"
   xmlns:cc="http://creativecommons.org/ns#"
   xmlns:rdf="http://www.w3.org/1999/02/22-rdf-syntax-ns#"
   xmlns:svg="http://www.w3.org/2000/svg"
   xmlns="http://www.w3.org/2000/svg"
   xmlns:sodipodi="http://sodipodi.sourceforge.net/DTD/sodipodi-0.dtd"
   xmlns:inkscape="http://www.inkscape.org/namespaces/inkscape"
   version="1.1"
   id="svg2"
   width="16.248594"
   height="16.248594"
   viewBox="0 0 16.248594 16.248594"
   sodipodi:docname="OUTLINER_DATA_SURFACE.svg"
   inkscape:version="0.92.4 (5da689c313, 2019-01-14)">
  <metadata
     id="metadata8">
    <rdf:RDF>
      <cc:Work
         rdf:about="">
        <dc:format>image/svg+xml</dc:format>
        <dc:type
           rdf:resource="http://purl.org/dc/dcmitype/StillImage" />
        <dc:title></dc:title>
      </cc:Work>
    </rdf:RDF>
  </metadata>
  <defs
     id="defs6" />
  <sodipodi:namedview
     pagecolor="#ffffff"
     bordercolor="#666666"
     borderopacity="1"
     objecttolerance="10"
     gridtolerance="10"
     guidetolerance="10"
     inkscape:pageopacity="0"
     inkscape:pageshadow="2"
     inkscape:window-width="838"
     inkscape:window-height="648"
     id="namedview4"
     showgrid="false"
     inkscape:zoom="14.524333"
     inkscape:cx="8.1242971"
     inkscape:cy="8.1242971"
     inkscape:window-x="0"
     inkscape:window-y="0"
     inkscape:window-maximized="0"
     inkscape:current-layer="svg2" />
  <g
     id="OUTLINER_DATA_SURFACE">
    <path
       style="fill:#ffffff;stroke-width:0.03173554"
       d="M 0,8.124297 V 0 h 8.124297 8.124297 v 8.124297 8.124297 H 8.124297 0 Z m 8.3794501,7.575185 c 0.094862,-0.05016 0.1613174,-0.116806 0.2119403,-0.212535 0.066566,-0.125879 0.071791,-0.165887 0.053654,-0.410889 -0.011051,-0.149287 -0.0038,-0.507067 0.016115,-0.795067 0.085634,-1.23842 0.2957454,-2.053898 0.6754801,-2.621648 0.2920663,-0.436675 0.6258971,-0.667688 1.4579465,-1.008904 0.268068,-0.109933 0.607136,-0.259628 0.753483,-0.332656 1.055744,-0.5268217 1.657155,-1.3846072 1.938406,-2.7647256 0.03735,-0.1832727 0.07432,-0.3643475 0.08216,-0.4023885 0.01091,-0.052941 0.05705,-0.081525 0.196693,-0.1218546 0.852346,-0.246165 1.466624,-1.0633712 1.466624,-1.9511287 0,-1.1077047 -0.922268,-2.0299721 -2.029972,-2.0299721 -0.512395,0 -1.031244,0.2101731 -1.392846,0.5642077 -0.119211,0.116716 -0.240482,0.2479133 -0.269492,0.2915496 L 11.486898,3.9828097 10.313366,3.5900069 9.1398341,3.1972041 9.1392832,3.0187672 C 9.1384197,2.7391325 9.0574569,2.4197387 8.9133208,2.1273551 8.5855676,1.4625011 7.8611837,1.0166392 7.1087599,1.0166392 c -1.1077048,0 -2.0299721,0.9222673 -2.0299721,2.0299722 0,0.7552759 0.4446951,1.4752197 1.1169839,1.8083517 C 6.5130458,5.0121787 6.4964345,4.9371489 6.3470115,5.53808 6.2367448,5.9815372 6.0934151,6.325789 5.8964171,6.6203256 5.6043508,7.0570005 5.2705199,7.288013 4.438471,7.6292293 4.1704025,7.7391622 3.8313353,7.8888571 3.6849882,7.9618853 2.3298498,8.6381064 1.7156196,9.8476616 1.5558092,12.15471 c -0.053303,0.769486 -0.043785,1.130871 0.034016,1.291586 0.077158,0.159388 0.2487677,0.274332 0.4895725,0.327915 0.086877,0.01933 1.4646685,0.475817 3.0617593,1.014412 1.5970908,0.538594 2.9479684,0.980315 3.0019506,0.9816 0.053982,0.0013 0.1603362,-0.03055 0.2363428,-0.07074 z"
       id="path827"
       inkscape:connector-curvature="0" />
    <path
       style="fill:#fefefe;stroke-width:0.03173554"
       d="M 5.0871301,13.67943 C 3.7046886,13.21486 2.5642357,12.825392 2.5527906,12.813947 c -0.028909,-0.02891 0.040749,-1.017319 0.099881,-1.417253 0.065356,-0.442038 0.2039891,-0.9802 0.3312553,-1.285907 C 3.0934232,9.8477641 3.3356113,9.46055 3.4683563,9.3362733 l 0.078308,-0.073313 2.4871631,0.8303517 c 1.3679399,0.456694 2.4985133,0.840922 2.5123855,0.853841 0.013872,0.01292 -0.026199,0.100681 -0.089046,0.195027 -0.4323754,0.649077 -0.733452,1.756683 -0.7966908,2.930879 -0.01133,0.210362 -0.029423,0.397905 -0.040207,0.416761 -0.012643,0.02211 -0.9124592,-0.265759 -2.533139,-0.81039 z M 11.631074,8.6888404 C 11.526346,8.6539196 10.440991,8.2923589 9.219173,7.8853719 7.9973549,7.4783849 6.9590678,7.1306146 6.9118685,7.1125491 L 6.8260518,7.0797022 6.9683009,6.8009252 C 7.1374259,6.469478 7.299677,5.9811639 7.3932524,5.5219831 7.430601,5.3387104 7.4675745,5.1576357 7.4754154,5.1195946 7.4863271,5.066654 7.5324674,5.0380692 7.6721081,4.99774 8.0600576,4.8856967 8.5276046,4.5663297 8.7246248,4.2787975 l 0.072754,-0.1061773 1.1866459,0.3969957 1.1866463,0.3969954 6.69e-4,0.1586776 c 0.003,0.7096958 0.464825,1.4372589 1.117654,1.7607485 0.317274,0.1572156 0.300663,0.082186 0.15124,0.6831169 -0.141599,0.5694659 -0.439549,1.1944436 -0.565656,1.1865158 -0.0292,-0.00184 -0.138777,-0.031909 -0.243504,-0.06683 z M 12.186446,5.0776856 V 4.0621485 h 1.015537 1.015537 V 5.0776856 6.0932228 H 13.201983 12.186446 Z M 6.0932228,3.0466114 V 2.0310743 H 7.1087599 8.124297 V 3.0466114 4.0621485 H 7.1087599 6.0932228 Z"
       id="path825"
       inkscape:connector-curvature="0" />
    <path
       style="fill:#989898;stroke-width:0.03173554"
       d="M 6.0684678,10.10915 C 4.7021251,9.6506141 3.5768258,9.2680654 3.5678028,9.259042 3.5443645,9.235604 3.8199248,9.0394578 4.0621485,8.9071622 4.175603,8.8451967 4.4683633,8.7134361 4.712727,8.6143613 5.2909192,8.3799382 5.6646651,8.1928277 5.9533436,7.9932645 6.2136766,7.8132964 6.5677255,7.4568086 6.7123557,7.2290236 c 0.052204,-0.082218 0.1038879,-0.146483 0.1148532,-0.1428099 0.010965,0.00367 1.0677582,0.3554069 2.3484296,0.7816307 1.2806705,0.4262237 2.4213195,0.8071368 2.5347735,0.8464733 l 0.206281,0.071521 -0.208489,0.2007993 C 11.448531,9.2367345 11.155726,9.404393 10.531694,9.6603036 9.5918202,10.045738 9.2018523,10.280869 8.8078531,10.699693 8.6789859,10.83668 8.5688639,10.947431 8.5631379,10.945806 8.5574118,10.944181 7.4348101,10.567687 6.0684678,10.10915 Z"
       id="path823"
       inkscape:connector-curvature="0" />
    <path
       style="fill:#323232;stroke-width:0.03173554"
       d="M 5.1411567,14.788623 C 3.5440659,14.250028 2.1662742,13.793543 2.0793974,13.774211 1.8385926,13.720628 1.6669834,13.605684 1.5898249,13.446296 1.5120241,13.285581 1.5025065,12.924196 1.5558092,12.15471 1.7156196,9.8476616 2.3298498,8.6381064 3.6849882,7.9618853 3.8313353,7.8888571 4.1704025,7.7391622 4.438471,7.6292293 5.2705199,7.288013 5.6043508,7.0570005 5.8964171,6.6203256 5.9818025,6.492664 6.0985734,6.2755304 6.1559077,6.1378067 6.2531207,5.9042906 6.4417065,5.2312805 6.4427995,5.1139695 c 0.00108,-0.115338 0.038514,-0.1260939 0.2692662,-0.077358 0.1428626,0.030172 0.3211131,0.041642 0.4994335,0.032136 0.2693928,-0.014361 0.2768916,-0.012864 0.2634726,0.052616 -0.0076,0.037069 -0.044371,0.2173481 -0.081719,0.4006208 C 7.1120013,6.9021016 6.5105901,7.7598871 5.454846,8.2867087 5.3084988,8.3597369 4.9694316,8.5094318 4.7013631,8.6193647 3.8693142,8.960581 3.5354833,9.1915935 3.2434171,9.6282684 2.8621192,10.198356 2.6517098,11.018069 2.5679612,12.259709 c -0.019789,0.293386 -0.026638,0.542771 -0.015219,0.554189 0.011418,0.01142 1.1555536,0.401778 2.5425231,0.867465 2.3967314,0.804725 2.5224438,0.843334 2.5355036,0.778704 0.00756,-0.0374 0.022577,-0.229983 0.033377,-0.42796 0.023958,-0.439205 0.1144564,-1.071737 0.2051394,-1.433809 0.2197619,-0.87745 0.4987005,-1.435305 0.961913,-1.923752 0.3757706,-0.396242 0.7768564,-0.635465 1.7004967,-1.0142424 0.832049,-0.3412164 1.16588,-0.5722289 1.457946,-1.0089038 0.08539,-0.1276616 0.202156,-0.3447952 0.25949,-0.4825188 0.09721,-0.2335161 0.285799,-0.9065262 0.286892,-1.0238373 0.0011,-0.115338 0.03851,-0.1260938 0.269266,-0.077359 0.142863,0.030173 0.321114,0.041642 0.499434,0.032136 0.269393,-0.014361 0.276892,-0.012864 0.263473,0.052616 -0.0076,0.037069 -0.04437,0.2173482 -0.08172,0.4006209 -0.281251,1.3801184 -0.882662,2.2379039 -1.938406,2.7647254 -0.146347,0.07303 -0.485415,0.222723 -0.753483,0.332656 -0.8320493,0.341216 -1.1658801,0.572229 -1.4579464,1.008904 -0.3797347,0.56775 -0.5898465,1.383228 -0.6754801,2.621648 -0.019914,0.288 -0.027166,0.64578 -0.016115,0.795067 0.018137,0.245002 0.012912,0.28501 -0.053654,0.410889 -0.083728,0.158332 -0.2875115,0.287106 -0.4482831,0.283276 -0.053982,-0.0013 -1.4048598,-0.443006 -3.0019506,-0.9816 z M 9.9674791,4.5675071 C 9.3492296,4.3592423 8.8383951,4.1838498 8.8322914,4.1777461 8.8261877,4.1716424 8.8715949,4.0605179 8.9331964,3.9308027 8.994798,3.8010875 9.0673597,3.5886743 9.094445,3.4587731 9.12153,3.3288723 9.1478575,3.2184228 9.1529501,3.2133302 c 0.00509,-0.00509 0.530258,0.1659569 1.1670339,0.3801102 l 1.157775,0.3893693 -0.107853,0.2272391 c -0.05932,0.1249815 -0.130614,0.3427666 -0.158432,0.4839669 -0.02782,0.1412003 -0.06618,0.2556989 -0.08524,0.2544412 -0.01906,-0.00126 -0.540504,-0.1726847 -1.1587549,-0.3809498 z"
       id="path821"
       inkscape:connector-curvature="0" />
    <path
       style="fill:#000000;stroke-width:0.03173554"
       d="m 12.757685,7.0594102 c -0.741526,-0.159261 -1.382954,-0.806566 -1.539194,-1.5532949 -0.301737,-1.4421157 0.969806,-2.7136581 2.411921,-2.4119212 0.754456,0.1578563 1.397206,0.8006066 1.555062,1.5550618 0.302823,1.4473042 -0.980243,2.7210502 -2.427789,2.4101543 z M 14.21752,5.0776856 V 4.0621485 h -1.015537 -1.015537 v 1.0155371 1.0155372 h 1.015537 1.015537 z M 6.6644624,5.0283359 C 5.9229365,4.8690749 5.2815081,4.22177 5.1252683,3.4750411 4.8964637,2.3814963 5.6008516,1.2889814 6.6803302,1.0631199 7.9434225,0.79884035 9.1387319,1.7632417 9.1387319,3.0466114 c 0,1.2880838 -1.2061058,2.2540938 -2.4742695,1.9817245 z M 8.124297,3.0466114 V 2.0310743 H 7.1087599 6.0932228 V 3.0466114 4.0621485 H 7.1087599 8.124297 Z"
       id="path819"
       inkscape:connector-curvature="0" />
  </g>
</svg>
