<?xml version="1.0" encoding="UTF-8" standalone="no"?>
<!-- Created with Inkscape (http://www.inkscape.org/) -->

<svg
   xmlns:dc="http://purl.org/dc/elements/1.1/"
   xmlns:cc="http://creativecommons.org/ns#"
   xmlns:rdf="http://www.w3.org/1999/02/22-rdf-syntax-ns#"
   xmlns:svg="http://www.w3.org/2000/svg"
   xmlns="http://www.w3.org/2000/svg"
   xmlns:sodipodi="http://sodipodi.sourceforge.net/DTD/sodipodi-0.dtd"
   xmlns:inkscape="http://www.inkscape.org/namespaces/inkscape"
   version="1.1"
   id="svg2"
   width="16.062744"
   height="16.062744"
   viewBox="0 0 16.062744 16.062744"
   sodipodi:docname="OUTLINER_DATA_SPEAKER.svg"
   inkscape:version="0.92.4 (5da689c313, 2019-01-14)">
  <metadata
     id="metadata8">
    <rdf:RDF>
      <cc:Work
         rdf:about="">
        <dc:format>image/svg+xml</dc:format>
        <dc:type
           rdf:resource="http://purl.org/dc/dcmitype/StillImage" />
        <dc:title></dc:title>
      </cc:Work>
    </rdf:RDF>
  </metadata>
  <defs
     id="defs6" />
  <sodipodi:namedview
     pagecolor="#ffffff"
     bordercolor="#666666"
     borderopacity="1"
     objecttolerance="10"
     gridtolerance="10"
     guidetolerance="10"
     inkscape:pageopacity="0"
     inkscape:pageshadow="2"
     inkscape:window-width="1266"
     inkscape:window-height="767"
     id="namedview4"
     showgrid="false"
     inkscape:zoom="14.692384"
     inkscape:cx="8.0313721"
     inkscape:cy="8.0313721"
     inkscape:window-x="0"
     inkscape:window-y="0"
     inkscape:window-maximized="0"
     inkscape:current-layer="svg2" />
  <g
     id="OUTLINER_DATA_SPEAKER">
    <path
       style="fill:#ffffff;stroke-width:0.03137255"
       d="m 0.00247678,13.341176 c 0.00175877,-1.932599 0.01197007,-2.694284 0.03522408,-2.627451 0.04779671,0.13737 0.19959788,0.284008 0.33645635,0.325012 0.0815896,0.02445 0.57025013,0.03603 1.54320799,0.0366 l 1.423811,8.25e-4 0.5552831,0.524666 c 0.3054055,0.288567 0.9659827,0.912902 1.4679488,1.387411 0.5311316,0.50208 0.9547541,0.878141 1.0133446,0.899574 0.1340116,0.04902 1.1372827,0.05374 1.2803105,0.006 0.058653,-0.01957 0.151952,-0.07825 0.2073308,-0.130411 0.2105135,-0.198269 0.1973505,0.190384 0.1973505,-5.8270739 0,-3.9782912 -0.0096,-5.4773297 -0.03558,-5.5551952 C 7.9777331,2.232992 7.8303879,2.0860996 7.6885874,2.0436152 7.5303728,1.996213 6.5873103,1.9968296 6.4193257,2.044445 6.3090402,2.0757056 6.0749044,2.295466 4.8149383,3.5503272 L 3.3396813,5.0196075 H 1.9166177 c -0.97466815,0 -1.46068452,0.011271 -1.54246049,0.035772 C 0.23729874,5.0963833 0.08549757,5.2430211 0.03770086,5.3803918 0.01444974,5.4472169 0.00423533,4.6807501 0.00247678,2.7372547 L 0,0 h 8.031372 8.031372 v 8.031372 8.031372 H 8.031372 0 Z m 13.07031222,0.02519 c -0.0034,-0.01067 0.07858,-0.115171 0.182112,-0.232229 0.103529,-0.11706 0.193654,-0.22954 0.200276,-0.249956 0.0066,-0.02042 0.05956,-0.09597 0.117647,-0.167892 0.05808,-0.07192 0.105606,-0.139585 0.105606,-0.150359 0,-0.01077 0.05647,-0.09603 0.125491,-0.189459 0.06902,-0.09343 0.12549,-0.182687 0.12549,-0.198351 0,-0.01567 0.02926,-0.06568 0.06502,-0.111144 0.03576,-0.04546 0.05626,-0.08266 0.04555,-0.08266 -0.01071,0 0.02181,-0.06 0.07226,-0.133333 0.05046,-0.07333 0.09507,-0.147451 0.09915,-0.164706 0.0072,-0.03037 0.03915,-0.103016 0.22091,-0.501961 0.08193,-0.179816 0.203927,-0.524287 0.191787,-0.541505 -0.0032,-0.0045 0.01606,-0.05038 0.04274,-0.101961 0.02668,-0.05158 0.04158,-0.09379 0.03312,-0.09379 -0.0085,0 0.0113,-0.06223 0.0439,-0.138297 0.0326,-0.07606 0.05214,-0.145442 0.0434,-0.154176 -0.0087,-0.0087 -0.002,-0.04179 0.01489,-0.07347 0.01692,-0.03167 0.0388,-0.1082177 0.04861,-0.1700969 0.0098,-0.061879 0.02494,-0.1324674 0.03361,-0.1568627 0.01757,-0.049427 0.04451,-0.1840514 0.06537,-0.3267081 0.0076,-0.051765 0.02267,-0.1435294 0.03355,-0.2039215 0.04462,-0.2476546 0.05099,-0.3972339 0.0508,-1.1921568 -2.2e-4,-0.8437923 -0.0036,-0.9052686 -0.06813,-1.2392156 -0.02001,-0.1035294 -0.04251,-0.2305882 -0.05,-0.2823529 -0.0075,-0.051765 -0.02023,-0.122353 -0.02833,-0.1568628 C 14.871528,6.2843047 14.78446,5.9465953 14.76023,5.8588221 14.75193,5.8286261 14.73936,5.7784421 14.73237,5.7473031 14.72537,5.7161641 14.696,5.6349875 14.66708,5.5669109 14.61715,5.4493749 14.60638,5.4150653 14.57472,5.272623 14.56732,5.239233 14.54327,5.179233 14.52133,5.1392896 14.49938,5.0993466 14.47847,5.0489886 14.47484,5.0273825 14.47124,5.0057765 14.4355,4.921071 14.39546,4.8391472 14.35542,4.7572232 14.32191,4.6831359 14.32099,4.6745085 c -9.19e-4,-0.00863 -0.02185,-0.05098 -0.0465,-0.094118 -0.02466,-0.043137 -0.04661,-0.08549 -0.04878,-0.094118 -0.0168,-0.066742 -0.126596,-0.2803068 -0.177153,-0.3445713 -0.03416,-0.043427 -0.08195,-0.121311 -0.106183,-0.1730757 -0.07035,-0.1502504 -0.168093,-0.3035724 -0.285008,-0.4470588 -0.05975,-0.073333 -0.09892,-0.1333333 -0.08704,-0.1333333 0.01188,0 -0.04365,-0.076369 -0.12339,-0.1697095 C 13.367204,3.1251853 13.301676,3.03695 13.301328,3.0224471 13.300981,3.0079442 13.167865,2.8549018 13.005515,2.6823528 L 12.710334,2.3686273 12.355999,2.7209098 12.001665,3.0731922 12.124846,3.199341 c 0.06775,0.069382 0.110318,0.126149 0.0946,0.126149 -0.01572,0 0.0284,0.06 0.09804,0.1333333 0.18501,0.1948119 0.430816,0.4941176 0.405796,0.4941176 -0.01188,0 0.02876,0.061454 0.09031,0.1365644 0.06155,0.075111 0.111904,0.1466845 0.111904,0.1590535 0,0.012369 0.0406,0.081503 0.09023,0.1536313 0.04963,0.072129 0.09298,0.1452606 0.09635,0.1625155 0.0034,0.017255 0.02489,0.052549 0.04782,0.078431 0.04,0.04514 0.155417,0.2980392 0.13602,0.2980392 -0.0052,0 0.02364,0.046392 0.06401,0.1030924 0.04038,0.056701 0.07629,0.1202303 0.07982,0.1411765 0.0035,0.020946 0.02388,0.069849 0.04522,0.1086723 0.02135,0.038824 0.03093,0.070588 0.0213,0.070588 -0.0096,0 0.0045,0.033537 0.03132,0.074526 0.02686,0.040989 0.05542,0.1045189 0.06347,0.1411765 0.0265,0.1206503 0.04307,0.1741207 0.120364,0.3882192 0.04205,0.1164706 0.07138,0.2117647 0.06518,0.2117647 -0.0062,0 0.009,0.057383 0.03373,0.1275185 0.02474,0.070135 0.0428,0.137194 0.04012,0.1490196 -0.0027,0.011825 0.01318,0.084806 0.03524,0.1621791 0.02206,0.077373 0.04489,0.1832555 0.05074,0.2352941 0.0058,0.052039 0.01767,0.1389904 0.02627,0.1932257 0.07947,0.5011391 0.08068,1.5852294 0.0022,1.9876648 -0.0084,0.043137 -0.02183,0.1464235 -0.02982,0.2295247 -0.008,0.083101 -0.02124,0.1619366 -0.02943,0.1751893 -0.0082,0.013253 -0.02288,0.072319 -0.03265,0.1312596 -0.0098,0.05894 -0.02998,0.1424577 -0.0449,0.185595 -0.04196,0.1212803 -0.105186,0.3607842 -0.09523,0.3607842 0.0049,0 -0.0086,0.03268 -0.02996,0.07262 -0.02138,0.03994 -0.04354,0.09641 -0.04925,0.12549 -0.01624,0.08268 -0.110537,0.325519 -0.166719,0.429336 -0.02801,0.05177 -0.0487,0.09736 -0.04597,0.101322 0.0027,0.004 -0.02953,0.08521 -0.07169,0.180539 -0.04216,0.09533 -0.07333,0.176797 -0.06927,0.181031 0.0041,0.0042 -0.02528,0.05358 -0.06521,0.109657 -0.03993,0.05608 -0.06338,0.101961 -0.05211,0.101961 0.01127,0 -0.03012,0.06895 -0.09198,0.153223 -0.06186,0.08427 -0.112476,0.164116 -0.112476,0.177431 0,0.01331 -0.03529,0.07048 -0.07843,0.127037 -0.04314,0.05656 -0.07843,0.113286 -0.07843,0.126068 0,0.01278 -0.0847,0.126445 -0.188235,0.252585 -0.103529,0.12614 -0.188235,0.237892 -0.188235,0.248338 0,0.01045 -0.101447,0.131344 -0.225438,0.268661 l -0.225437,0.249669 0.358061,0.35908 0.358062,0.35908 0.179381,-0.17751 c 0.09866,-0.09763 0.176627,-0.186237 0.173259,-0.196904 z m -1.606123,-1.247941 c 0.08627,-0.09835 0.156863,-0.187294 0.156863,-0.197648 0,-0.01035 0.06,-0.09049 0.133333,-0.178076 0.07333,-0.08759 0.133333,-0.168953 0.133333,-0.18081 0,-0.01186 0.06435,-0.105192 0.14301,-0.207411 0.07866,-0.102219 0.133451,-0.185852 0.121767,-0.185852 -0.01168,0 0.01644,-0.04941 0.06251,-0.109804 0.04606,-0.06039 0.07501,-0.109804 0.06433,-0.109804 -0.01068,0 0.01074,-0.04235 0.0476,-0.09412 0.03686,-0.05176 0.05882,-0.09412 0.0488,-0.09412 -0.01002,0 0.01743,-0.05647 0.061,-0.125491 0.04357,-0.06902 0.07149,-0.12549 0.06203,-0.12549 -0.0095,0 2.82e-4,-0.03177 0.02163,-0.07059 0.02135,-0.03882 0.0424,-0.08471 0.04678,-0.101961 0.0044,-0.01726 0.04459,-0.130196 0.08936,-0.25098 0.04477,-0.1207845 0.08716,-0.2407845 0.0942,-0.2666668 0.007,-0.025882 0.03515,-0.1247059 0.06246,-0.2196079 0.103318,-0.3589671 0.124171,-0.4710531 0.166344,-0.8941175 0.0282,-0.2828923 0.02822,-1.0434811 3.1e-5,-1.2862745 -0.01202,-0.1035294 -0.0299,-0.2637151 -0.03973,-0.3559683 -0.0098,-0.092253 -0.03127,-0.1927497 -0.04763,-0.2233261 -0.01636,-0.030576 -0.02279,-0.06255 -0.01429,-0.071053 0.0085,-0.0085 0.0012,-0.053081 -0.01633,-0.099062 -0.01748,-0.045981 -0.03802,-0.1149976 -0.04565,-0.1533706 -0.0076,-0.038373 -0.0437,-0.1544747 -0.08016,-0.2580041 -0.0754,-0.2140881 -0.07647,-0.2174325 -0.110182,-0.345098 -0.01367,-0.051765 -0.0423,-0.1294118 -0.06362,-0.172549 -0.02132,-0.043137 -0.08604,-0.1772549 -0.143826,-0.2980392 -0.05778,-0.1207843 -0.131148,-0.2584314 -0.163031,-0.3058823 -0.03188,-0.047451 -0.04923,-0.086275 -0.03855,-0.086275 0.01068,0 -0.01659,-0.047215 -0.06061,-0.104922 -0.04401,-0.057707 -0.08002,-0.1158174 -0.08002,-0.1291341 0,-0.013317 -0.06837,-0.1112113 -0.151933,-0.2175432 -0.08356,-0.1063319 -0.157681,-0.209632 -0.164706,-0.2295557 -0.007,-0.019924 -0.09748,-0.1318956 -0.201008,-0.2488261 -0.10353,-0.1169302 -0.188236,-0.223049 -0.188236,-0.2358196 0,-0.01277 -0.01796,-0.041181 -0.03992,-0.063135 -0.03231,-0.032307 -0.109453,0.029619 -0.404676,0.3248429 l -0.36476,0.3647599 0.180354,0.2041571 c 0.09919,0.1122864 0.175417,0.2098149 0.169382,0.2167294 -0.006,0.00691 0.05034,0.085806 0.125283,0.1753133 0.07494,0.089508 0.126695,0.1627413 0.115011,0.1627413 -0.01168,0 0.02348,0.056471 0.07815,0.1254902 0.05466,0.06902 0.09047,0.1254901 0.07956,0.1254901 -0.01091,0 0.02145,0.06 0.07191,0.1333334 0.05046,0.073333 0.09206,0.1403921 0.09246,0.1490196 3.98e-4,0.00863 0.03579,0.093333 0.07864,0.1882353 0.08978,0.1988417 0.117869,0.2791632 0.159058,0.4549019 0.0081,0.03451 0.04371,0.1298039 0.07915,0.2117647 0.03545,0.081961 0.05824,0.1490196 0.05065,0.1490196 -0.0076,0 0.001,0.038823 0.01915,0.086275 0.01812,0.047451 0.0378,0.1215686 0.04372,0.1647058 0.0059,0.043137 0.01924,0.1245952 0.02958,0.1810178 0.04773,0.2604078 0.06905,0.9762305 0.03852,1.2934919 -0.01248,0.1296932 -0.05958,0.4965707 -0.06847,0.5333333 -0.0021,0.00863 -0.02005,0.072157 -0.03992,0.1411765 -0.01987,0.06902 -0.03415,0.132549 -0.03173,0.1411765 0.0024,0.00863 -0.01309,0.048367 -0.03447,0.088311 -0.02138,0.039943 -0.04396,0.096414 -0.05017,0.1254901 -0.0062,0.029076 -0.04109,0.1375718 -0.0775,0.2411012 -0.03641,0.1035294 -0.07034,0.2023532 -0.07541,0.2196082 -0.01885,0.06416 -0.09806,0.223231 -0.167929,0.337255 -0.03965,0.06471 -0.06414,0.117647 -0.05442,0.117647 0.0097,0 -0.02001,0.04941 -0.06607,0.109804 -0.04606,0.06039 -0.07332,0.109803 -0.06056,0.109803 0.01275,0 -0.02543,0.06 -0.08486,0.133334 -0.05943,0.07333 -0.116018,0.15451 -0.125759,0.180392 -0.0097,0.02588 -0.120046,0.164903 -0.245119,0.308934 l -0.227407,0.261875 0.356718,0.357733 c 0.196195,0.196753 0.364007,0.357554 0.372916,0.357336 0.0089,-2.19e-4 0.08679,-0.08087 0.173061,-0.179218 z M 9.9721176,10.730133 c 0.055146,-0.06862 0.096332,-0.129507 0.091525,-0.135298 -0.0048,-0.0058 0.05257,-0.08376 0.127513,-0.173271 0.07494,-0.08951 0.126695,-0.162741 0.115011,-0.162741 -0.01168,0 0.02065,-0.05294 0.07186,-0.117647 0.07487,-0.0946 0.186345,-0.299896 0.208684,-0.3843139 0.0023,-0.00863 0.02863,-0.061569 0.05854,-0.1176471 0.02992,-0.056078 0.04747,-0.1019608 0.03902,-0.1019608 -0.0085,0 0.01186,-0.063529 0.04514,-0.1411764 0.03328,-0.077647 0.0536,-0.1411765 0.04514,-0.1411765 -0.0085,0 0.0065,-0.042353 0.03329,-0.094118 0.02677,-0.051765 0.04075,-0.094118 0.03107,-0.094118 -0.0097,0 -0.0033,-0.026701 0.01416,-0.059335 0.08874,-0.1658083 0.137771,-0.9442616 0.09013,-1.4308614 C 10.916231,7.3010697 10.898061,7.214904 10.82112,6.9975855 10.7576,6.8181797 10.73922,6.7579394 10.715781,6.652313 c -0.0075,-0.033776 -0.04506,-0.1290698 -0.08348,-0.2117647 -0.03842,-0.082695 -0.07161,-0.1574127 -0.07376,-0.1660401 -0.0021,-0.00863 -0.02408,-0.05098 -0.04874,-0.094118 -0.02466,-0.043137 -0.04534,-0.088781 -0.04595,-0.1014315 -6.12e-4,-0.01265 -0.06111,-0.099824 -0.134445,-0.1937195 -0.07333,-0.093895 -0.133333,-0.1808467 -0.133333,-0.1932251 0,-0.012378 -0.06303,-0.096288 -0.140076,-0.1864665 C 9.978956,5.4153696 9.9228256,5.3346827 9.9312645,5.3262438 c 0.00844,-0.00844 -0.00712,-0.033984 -0.034569,-0.056767 -0.043424,-0.036039 -0.09714,0.0058 -0.4132128,0.3218764 L 9.1201879,5.9546547 9.2346033,6.0942838 c 0.062929,0.076796 0.1144157,0.1499166 0.1144157,0.1624907 0,0.012574 0.051112,0.085237 0.113583,0.1614745 0.062471,0.076237 0.1046234,0.1386133 0.093673,0.1386133 -0.010951,0 0.014531,0.052941 0.056627,0.117647 0.042096,0.064706 0.094086,0.1811765 0.1155335,0.2588236 0.054313,0.196629 0.050259,0.183621 0.121552,0.3900071 0.062799,0.1817961 0.095495,0.4240559 0.095556,0.708032 6.27e-5,0.2221327 -0.028513,0.5680178 -0.052859,0.6401518 -0.012202,0.036152 -0.026008,0.079848 -0.030681,0.097103 -0.00467,0.017255 -0.038431,0.1160784 -0.075019,0.2196078 C 9.7503965,9.091764 9.7175145,9.1905875 9.7139135,9.2078424 9.7057935,9.2467534 9.5499081,9.5622822 9.4974623,9.645966 9.4762113,9.679875 9.3829052,9.8049072 9.2901165,9.9238154 l -0.1687072,0.2161966 0.3564305,0.357445 c 0.196037,0.196594 0.3648862,0.357444 0.3752209,0.357444 0.010335,0 0.063911,-0.05615 0.1190569,-0.124768 z"
       id="path825"
       inkscape:connector-curvature="0" />
    <path
       style="fill:#fefefe;stroke-width:0.03137255"
       d="m 12.362087,13.381699 -0.358061,-0.35908 0.225437,-0.249669 c 0.123991,-0.137317 0.225438,-0.258215 0.225438,-0.268661 0,-0.01045 0.08471,-0.122198 0.188235,-0.248338 0.10353,-0.12614 0.188236,-0.239804 0.188236,-0.252585 0,-0.01278 0.03529,-0.06951 0.07843,-0.126068 0.04314,-0.05656 0.07843,-0.113723 0.07843,-0.127037 0,-0.01332 0.05062,-0.09316 0.112476,-0.177431 0.06186,-0.08427 0.103254,-0.153223 0.09198,-0.153223 -0.01127,0 0.01218,-0.04588 0.05211,-0.101961 0.03993,-0.05608 0.06928,-0.105424 0.06521,-0.109657 -0.0041,-0.0042 0.0271,-0.0857 0.06927,-0.181031 0.04216,-0.09533 0.07442,-0.176576 0.07169,-0.180539 -0.0027,-0.004 0.01796,-0.04956 0.04597,-0.101322 0.05618,-0.103817 0.150481,-0.346659 0.166719,-0.429336 0.0057,-0.02908 0.02787,-0.08555 0.04925,-0.12549 0.02138,-0.03994 0.03486,-0.07262 0.02996,-0.07262 -0.01,0 0.05327,-0.2395036 0.09524,-0.3607839 0.01493,-0.043137 0.03513,-0.1266551 0.0449,-0.185595 0.0098,-0.05894 0.02446,-0.1180069 0.03265,-0.1312596 0.0082,-0.013253 0.02143,-0.092088 0.02943,-0.1751893 0.008,-0.083101 0.02142,-0.1863874 0.02983,-0.2295247 0.07846,-0.4024354 0.07725,-1.4865257 -0.0022,-1.9876648 -0.0086,-0.054235 -0.02042,-0.1411868 -0.02627,-0.1932257 -0.0058,-0.052039 -0.02868,-0.1579209 -0.05074,-0.2352941 -0.02206,-0.077373 -0.03791,-0.1503536 -0.03524,-0.1621791 0.0027,-0.011826 -0.01538,-0.078884 -0.04012,-0.1490196 -0.02475,-0.070135 -0.03992,-0.1275185 -0.03373,-0.1275185 0.0062,0 -0.02314,-0.095294 -0.06518,-0.2117647 -0.07729,-0.2140985 -0.09387,-0.2675689 -0.120364,-0.3882192 -0.0081,-0.036658 -0.03661,-0.100187 -0.06347,-0.1411765 -0.02686,-0.040989 -0.04095,-0.074526 -0.03132,-0.074526 0.0096,0 6.3e-5,-0.031765 -0.0213,-0.070588 -0.02135,-0.038824 -0.0417,-0.087726 -0.04522,-0.1086723 -0.0035,-0.020946 -0.03944,-0.084476 -0.07982,-0.1411765 -0.04037,-0.056701 -0.06918,-0.1030924 -0.06401,-0.1030924 0.0194,0 -0.09602,-0.2528994 -0.13602,-0.2980392 -0.02294,-0.025882 -0.04446,-0.061176 -0.04782,-0.078431 -0.0034,-0.017255 -0.04673,-0.090387 -0.09635,-0.1625155 -0.04963,-0.072128 -0.09023,-0.1412627 -0.09023,-0.1536313 0,-0.012369 -0.05036,-0.083943 -0.111904,-0.1590535 -0.06155,-0.07511 -0.102185,-0.1365644 -0.09031,-0.1365644 0.02502,0 -0.220786,-0.2993057 -0.405796,-0.4941176 C 12.247838,3.38549 12.20372,3.32549 12.219442,3.32549 c 0.01572,0 -0.02685,-0.056767 -0.0946,-0.126149 L 12.001661,3.0731922 12.355995,2.7209098 12.71033,2.3686273 13.005511,2.6823528 c 0.16235,0.172549 0.295466,0.3255914 0.295813,0.3400943 3.48e-4,0.014503 0.06588,0.1027382 0.145619,0.1960785 0.07974,0.09334 0.135269,0.1697095 0.12339,0.1697095 -0.01188,0 0.02729,0.06 0.08704,0.1333333 0.116915,0.1434864 0.214661,0.2968084 0.285008,0.4470588 0.02424,0.051765 0.07202,0.1296489 0.106183,0.1730757 0.05056,0.064264 0.160357,0.2778297 0.177153,0.3445713 0.0022,0.00863 0.02412,0.05098 0.04878,0.094118 0.02466,0.043137 0.04559,0.08549 0.0465,0.094118 9.19e-4,0.00863 0.03443,0.082715 0.07447,0.1646387 0.04004,0.081924 0.07576,0.1666297 0.07938,0.1882353 0.0036,0.021606 0.02454,0.071964 0.04649,0.1119071 0.02195,0.039943 0.04597,0.099943 0.05339,0.1333334 0.03166,0.1424423 0.04243,0.1767519 0.09236,0.2942879 0.02892,0.068077 0.0583,0.149253 0.06529,0.1803922 0.007,0.031139 0.01952,0.081323 0.02786,0.111519 0.02423,0.087773 0.111294,0.4254827 0.127388,0.4941176 0.0081,0.03451 0.02084,0.1050981 0.02833,0.1568628 0.0075,0.051765 0.02999,0.1788235 0.05,0.2823529 0.06455,0.333947 0.06793,0.3954233 0.06813,1.2392156 1.88e-4,0.7949229 -0.0062,0.9445022 -0.0508,1.1921568 -0.01088,0.060392 -0.02598,0.1521568 -0.03355,0.2039215 -0.02087,0.1426567 -0.0478,0.2772813 -0.06537,0.3267081 -0.0087,0.024395 -0.0238,0.094983 -0.03361,0.1568627 -0.0098,0.061879 -0.03169,0.1384232 -0.04861,0.1700972 -0.01693,0.03167 -0.02363,0.06473 -0.01489,0.07347 0.0087,0.0087 -0.0108,0.07811 -0.0434,0.154176 -0.0326,0.07606 -0.05236,0.138297 -0.0439,0.138297 0.0085,0 -0.0064,0.0422 -0.03312,0.09379 -0.02667,0.05158 -0.04591,0.09747 -0.04274,0.101961 0.01214,0.01722 -0.109862,0.361689 -0.191787,0.541505 -0.181761,0.398945 -0.213732,0.47159 -0.22091,0.501961 -0.0041,0.01726 -0.0487,0.09137 -0.09915,0.164706 -0.05045,0.07333 -0.08297,0.133333 -0.07226,0.133333 0.01071,0 -0.0098,0.0372 -0.04555,0.08266 -0.03576,0.04546 -0.06502,0.09548 -0.06502,0.111144 0,0.01566 -0.05647,0.104922 -0.12549,0.198351 -0.06902,0.09343 -0.125491,0.178685 -0.125491,0.189459 0,0.01077 -0.04752,0.07843 -0.105606,0.150359 -0.05808,0.07192 -0.111024,0.147475 -0.117647,0.167892 -0.0066,0.02042 -0.09675,0.132896 -0.200276,0.249956 -0.103529,0.117058 -0.18548,0.221561 -0.182112,0.232229 0.0034,0.01067 -0.0746,0.09927 -0.173258,0.196904 l -0.179382,0.17751 z m -1.441398,-1.441393 -0.356718,-0.357733 0.227407,-0.261875 c 0.125073,-0.144031 0.235377,-0.283052 0.245119,-0.308934 0.0097,-0.02588 0.06633,-0.107059 0.125759,-0.180392 0.05943,-0.07333 0.09761,-0.133334 0.08486,-0.133334 -0.01275,0 0.0145,-0.04941 0.06056,-0.109803 0.04606,-0.06039 0.0758,-0.109804 0.06607,-0.109804 -0.0097,0 0.01477,-0.05294 0.05442,-0.117647 0.06987,-0.114024 0.149081,-0.273099 0.167929,-0.337255 0.0051,-0.01726 0.039,-0.1160787 0.07541,-0.2196081 0.03641,-0.1035294 0.07128,-0.2120251 0.0775,-0.2411012 0.0062,-0.029076 0.0288,-0.085547 0.05017,-0.1254901 0.02138,-0.039944 0.03689,-0.079683 0.03447,-0.088311 -0.0024,-0.00863 0.01186,-0.072157 0.03173,-0.1411765 0.01987,-0.06902 0.03784,-0.132549 0.03992,-0.1411765 0.0089,-0.036763 0.05599,-0.4036401 0.06847,-0.5333332 0.03052,-0.3172615 0.0092,-1.0330842 -0.03852,-1.293492 -0.01034,-0.056423 -0.02365,-0.1378805 -0.02958,-0.1810178 -0.0059,-0.043137 -0.0256,-0.1172548 -0.04372,-0.1647058 -0.01812,-0.047451 -0.02674,-0.086275 -0.01915,-0.086275 0.0076,0 -0.0152,-0.067059 -0.05065,-0.1490196 -0.03544,-0.081961 -0.07106,-0.1772549 -0.07915,-0.2117647 -0.04119,-0.1757387 -0.06927,-0.2560602 -0.159058,-0.4549019 -0.04285,-0.094902 -0.07824,-0.1796079 -0.07864,-0.1882353 -3.99e-4,-0.00863 -0.04201,-0.075686 -0.09246,-0.1490196 -0.05045,-0.073333 -0.08281,-0.1333334 -0.07191,-0.1333334 0.01091,0 -0.0249,-0.05647 -0.07956,-0.1254901 -0.05466,-0.06902 -0.08983,-0.1254902 -0.07815,-0.1254902 0.01168,0 -0.04007,-0.073234 -0.115011,-0.1627413 -0.07494,-0.089508 -0.131318,-0.1683988 -0.125283,-0.1753133 0.006,-0.00691 -0.07019,-0.104443 -0.169382,-0.2167294 L 10.563187,4.5116459 10.927947,4.146886 c 0.295223,-0.2952235 0.372369,-0.3571501 0.404676,-0.3248429 0.02195,0.021954 0.03992,0.050365 0.03992,0.063135 0,0.012771 0.08471,0.1188894 0.188236,0.2358196 0.103529,0.1169305 0.193983,0.228902 0.201008,0.2488261 0.007,0.019924 0.08114,0.1232238 0.164706,0.2295557 0.08356,0.1063319 0.151933,0.2042265 0.151933,0.2175432 0,0.013317 0.03601,0.071427 0.08003,0.1291341 0.04402,0.057707 0.07129,0.104922 0.06061,0.104922 -0.01068,0 0.0067,0.038824 0.03855,0.086275 0.03188,0.047451 0.105247,0.185098 0.163032,0.3058823 0.05778,0.1207843 0.122505,0.2549019 0.143825,0.2980392 0.02132,0.043137 0.04995,0.1207843 0.06362,0.172549 0.03372,0.1276655 0.03478,0.1310099 0.110182,0.345098 0.03646,0.1035294 0.07253,0.2196314 0.08016,0.2580041 0.0076,0.038373 0.02817,0.1073898 0.04565,0.1533706 0.01748,0.045981 0.02483,0.090559 0.01633,0.099062 -0.0085,0.0085 -0.0021,0.040477 0.01429,0.071053 0.01636,0.030576 0.0378,0.131073 0.04763,0.2233261 0.0098,0.092253 0.02771,0.2524389 0.03973,0.3559683 0.02818,0.2427934 0.02816,1.0033822 -3.2e-5,1.2862745 -0.04217,0.4230644 -0.06303,0.5351504 -0.166343,0.8941175 -0.02732,0.094902 -0.05542,0.1937255 -0.06247,0.2196079 -0.007,0.025882 -0.04943,0.1458823 -0.0942,0.2666667 -0.04477,0.120784 -0.08498,0.233725 -0.08936,0.25098 -0.0044,0.01726 -0.02543,0.06314 -0.04678,0.101961 -0.02135,0.03882 -0.03108,0.07059 -0.02163,0.07059 0.0095,0 -0.01847,0.05647 -0.06203,0.12549 -0.04357,0.06902 -0.07102,0.125491 -0.061,0.125491 0.01002,0 -0.01194,0.04235 -0.0488,0.09412 -0.03686,0.05176 -0.05828,0.09412 -0.0476,0.09412 0.01068,0 -0.01827,0.04941 -0.06433,0.109804 -0.04606,0.06039 -0.07419,0.109804 -0.06251,0.109804 0.01168,0 -0.04311,0.08363 -0.121766,0.185852 -0.07866,0.102219 -0.14301,0.195554 -0.14301,0.207411 0,0.01186 -0.06,0.09322 -0.133334,0.18081 -0.07333,0.08759 -0.133333,0.167723 -0.133333,0.178076 0,0.0241 -0.308362,0.376339 -0.329923,0.376866 -0.0089,2.2e-4 -0.176722,-0.160583 -0.372917,-0.357336 z M 9.4778394,10.497457 9.1214089,10.140012 9.2901161,9.9238155 C 9.3829048,9.8049073 9.4762105,9.6798751 9.4974619,9.6459661 9.5499077,9.5622823 9.705792,9.2467539 9.7139131,9.2078425 9.7175143,9.1905876 9.7503962,9.0917641 9.7869841,8.9882347 9.823572,8.8847053 9.8573308,8.7858818 9.8620034,8.7686269 9.866676,8.751372 9.8804825,8.7076756 9.8926842,8.6715238 9.9170309,8.5993898 9.9455915,8.2535047 9.9455435,8.031372 9.9454807,7.7473959 9.9127865,7.5051361 9.8499874,7.32334 9.7786942,7.1169539 9.7827482,7.1299619 9.7284354,6.9333329 9.7069879,6.8556858 9.6549976,6.7392152 9.6129019,6.6745093 c -0.042096,-0.064706 -0.067578,-0.117647 -0.056627,-0.117647 0.010951,0 -0.031202,-0.062376 -0.093673,-0.1386133 -0.062471,-0.076237 -0.113583,-0.1489007 -0.113583,-0.1614745 0,-0.012574 -0.051487,-0.085695 -0.1144157,-0.1624907 L 9.1201879,5.9546547 9.4834883,5.5913543 C 9.7995611,5.2752815 9.8532768,5.233439 9.8967011,5.2694779 c 0.027452,0.022783 0.043008,0.048329 0.034569,0.056767 -0.00844,0.00844 0.047691,0.089126 0.1247319,0.1793038 0.07704,0.090178 0.140076,0.1740882 0.140076,0.1864665 0,0.012378 0.06,0.09933 0.133333,0.1932251 0.07333,0.093896 0.133834,0.1810692 0.134445,0.1937195 6.12e-4,0.01265 0.02129,0.058294 0.04595,0.1014315 0.02466,0.043137 0.04659,0.08549 0.04874,0.094118 0.0021,0.00863 0.03534,0.083346 0.07376,0.1660401 0.03842,0.082695 0.07598,0.177989 0.08348,0.2117647 0.02344,0.1056264 0.04182,0.1658667 0.105339,0.3452725 0.07694,0.2173185 0.09512,0.3034842 0.122081,0.5788834 0.04764,0.4865998 -0.0014,1.2650531 -0.09013,1.4308614 -0.01746,0.032634 -0.02384,0.059335 -0.01416,0.059335 0.0097,0 -0.0043,0.042353 -0.03107,0.094118 -0.02677,0.051765 -0.04175,0.094118 -0.03329,0.094118 0.0085,0 -0.01186,0.063529 -0.04514,0.1411765 -0.03328,0.077647 -0.0536,0.1411764 -0.04514,0.1411764 0.0085,0 -0.0091,0.045882 -0.03902,0.1019608 -0.02992,0.056078 -0.05626,0.1090196 -0.05854,0.1176471 -0.02234,0.084418 -0.133813,0.2897088 -0.208684,0.3843138 -0.05121,0.06471 -0.08355,0.117647 -0.07186,0.117647 0.01168,0 -0.04007,0.07323 -0.115011,0.162741 -0.07494,0.08951 -0.132321,0.16748 -0.127513,0.173271 0.01192,0.01436 -0.1870417,0.260066 -0.2105825,0.260066 -0.010335,0 -0.1791839,-0.16085 -0.3752209,-0.357444 z M 1.0039215,6.5254897 V 6.023529 H 2.007843 3.0117645 V 6.5254897 7.0274505 H 2.007843 1.0039215 Z M 4.0228647,6.3806217 4.0390278,5.7337925 5.3840828,4.388465 6.7291377,3.043137 H 6.8782941 7.0274505 V 4.0313723 5.0196075 H 6.5486731 6.0698957 L 5.5447516,5.545434 5.0196075,6.0712604 v 0.4780951 0.478095 H 4.5131545 4.0067012 Z"
       id="path823"
       inkscape:connector-curvature="0" />
    <path
       style="fill:#cbcbcb;stroke-width:0.03137255"
       d="M 6.5223628,12.695459 C 6.4119258,12.586198 5.968627,12.16639 5.5372545,11.762553 5.105882,11.358716 4.5941173,10.874065 4.3999997,10.685551 L 4.0470585,10.342798 V 8.6851244 7.0274505 H 4.533333 5.0196075 V 6.5486731 6.0698957 L 5.545434,5.5447516 6.0712604,5.0196075 h 0.4780951 0.478095 V 8.9568621 12.894117 H 6.875304 c -0.144789,0 -0.1618572,-0.0096 -0.3529412,-0.198658 z M 1.035294,8.5333328 V 7.0274505 H 2.0235293 3.0117645 V 8.5333328 10.039215 H 2.0235293 1.035294 Z"
       id="path821"
       inkscape:connector-curvature="0" />
    <path
       style="fill:#323232;stroke-width:0.03137255"
       d="M 6.3777527,13.887808 C 6.3191622,13.866376 5.8955397,13.490314 5.3644081,12.988234 4.862442,12.513725 4.2018648,11.88939 3.8964593,11.600823 L 3.3411762,11.076157 1.9105637,11.075333 c -0.9808335,-5.65e-4 -1.46414039,-0.01201 -1.53725477,-0.0364 -0.14815989,-0.04943 -0.2950523,-0.196777 -0.33753674,-0.338577 -0.05062918,-0.168985 -0.05062918,-5.1376023 0,-5.3065873 0.04248444,-0.1418005 0.18937685,-0.2891458 0.33753674,-0.3385773 0.0732665,-0.024445 0.55414644,-0.03558 1.53650737,-0.03558 h 1.429865 L 4.8149383,3.5503273 C 6.0749044,2.2954661 6.3090402,2.0757056 6.4193257,2.0444451 6.5873103,1.9968296 7.5303728,1.996213 7.6885874,2.0436153 c 0.1418005,0.042484 0.2891457,0.1893768 0.3385772,0.3375367 0.025979,0.077865 0.03558,1.5769039 0.03558,5.5551951 0,6.0174579 0.013163,5.6288049 -0.1973505,5.8270729 -0.055379,0.05216 -0.1486777,0.110842 -0.2073308,0.130411 -0.1430278,0.04772 -1.1462989,0.043 -1.2803105,-0.006 z M 7.0274505,7.9686269 V 3.043137 H 6.8782941 6.7291377 L 5.380255,4.3923191 4.0313723,5.7415008 l 0.010489,2.2978768 0.010489,2.2978764 0.099315,0.105422 c 0.054623,0.05798 0.5510795,0.53079 1.1032363,1.050686 0.5521568,0.519895 1.109028,1.04775 1.2374917,1.17301 0.2243344,0.218739 0.2395313,0.227745 0.3843137,0.227745 H 7.0274505 Z M 3.0117645,8.031372 V 6.023529 H 2.0028251 0.99388558 l 0.0207042,0.7580213 c 0.011387,0.4169116 0.020704,1.320441 0.020704,2.007843 v 1.2498217 h 0.9882353 0.9882352 z"
       id="path819"
       inkscape:connector-curvature="0" />
  </g>
</svg>
