<?xml version="1.0" encoding="UTF-8" standalone="no"?>
<!-- Created with Inkscape (http://www.inkscape.org/) -->

<svg
   xmlns:dc="http://purl.org/dc/elements/1.1/"
   xmlns:cc="http://creativecommons.org/ns#"
   xmlns:rdf="http://www.w3.org/1999/02/22-rdf-syntax-ns#"
   xmlns:svg="http://www.w3.org/2000/svg"
   xmlns="http://www.w3.org/2000/svg"
   xmlns:sodipodi="http://sodipodi.sourceforge.net/DTD/sodipodi-0.dtd"
   xmlns:inkscape="http://www.inkscape.org/namespaces/inkscape"
   version="1.1"
   id="svg2"
   width="16"
   height="16"
   viewBox="0 0 16 16"
   sodipodi:docname="REMOVE.svg"
   inkscape:version="0.92.4 (5da689c313, 2019-01-14)">
  <metadata
     id="metadata8">
    <rdf:RDF>
      <cc:Work
         rdf:about="">
        <dc:format>image/svg+xml</dc:format>
        <dc:type
           rdf:resource="http://purl.org/dc/dcmitype/StillImage" />
        <dc:title></dc:title>
      </cc:Work>
    </rdf:RDF>
  </metadata>
  <defs
     id="defs6" />
  <sodipodi:namedview
     pagecolor="#ffffff"
     bordercolor="#666666"
     borderopacity="1"
     objecttolerance="10"
     gridtolerance="10"
     guidetolerance="10"
     inkscape:pageopacity="0"
     inkscape:pageshadow="2"
     inkscape:window-width="836"
     inkscape:window-height="716"
     id="namedview4"
     showgrid="false"
     inkscape:zoom="14.75"
     inkscape:cx="5.898305"
     inkscape:cy="10.847458"
     inkscape:window-x="0"
     inkscape:window-y="0"
     inkscape:window-maximized="0"
     inkscape:current-layer="svg2" />
  <g
     id="REMOVE">
    <path
       style="fill:#ffffff;stroke-width:0.03125"
       d="M 0,8 V 0 h 8 8 v 8 8 H 8 0 Z m 13.380824,1.9381619 c 0.221279,-0.084079 0.475495,-0.3377353 0.557118,-0.55589 C 13.995949,9.2272322 14,9.1370056 14,8 14,6.8629944 13.995949,6.7727678 13.937942,6.6177281 13.856319,6.3995734 13.602103,6.1459175 13.380824,6.0618381 13.22102,6.0011172 13.123803,6 8,6 2.8761974,6 2.77898,6.0011172 2.6191755,6.0618381 2.3978965,6.1459175 2.1436807,6.3995734 2.0620585,6.6177281 2.0040508,6.7727678 2,6.8629944 2,8 c 0,1.4198059 0.00117,1.4267206 0.290307,1.7122634 0.3175534,0.3136096 -0.2600499,0.2846075 5.7015452,0.286275 5.1337638,0.00143 5.2291068,3.688e-4 5.3889718,-0.060376 z"
       id="path823"
       inkscape:connector-curvature="0" />
    <path
       style="fill:#fefefe;stroke-width:0.03125"
       d="M 3,8 V 7 h 5 5 V 8 9 H 8 3 Z"
       id="path821"
       inkscape:connector-curvature="0" />
    <path
       style="fill:#000000;stroke-width:0.03125"
       d="M 2.6110609,9.9367328 C 2.3977378,9.8534488 2.1415392,9.5947028 2.0620585,9.3822719 2.0040508,9.2272322 2,9.1370056 2,8 2,6.8629944 2.0040508,6.7727678 2.0620585,6.6177281 2.1436807,6.3995734 2.3978965,6.1459175 2.6191755,6.0618381 2.77898,6.0011172 2.8761974,6 8,6 c 5.123803,0 5.22102,0.00112 5.380824,0.061838 0.221279,0.084079 0.475495,0.3377353 0.557118,0.55589 C 13.995949,6.7727678 14,6.8629944 14,8 c 0,1.1370056 -0.0041,1.2272322 -0.06206,1.3822719 -0.08162,0.2181547 -0.335839,0.4718106 -0.557118,0.55589 -0.159865,0.060744 -0.255208,0.061812 -5.3889718,0.060376 -5.0879305,-0.00142 -5.2303173,-0.00306 -5.3807913,-0.061806 z M 13,8 V 7 H 8 3 v 1 1 h 5 5 z"
       id="path819"
       inkscape:connector-curvature="0" />
  </g>
</svg>
