<?xml version="1.0" encoding="UTF-8" standalone="no"?>
<!-- Created with Inkscape (http://www.inkscape.org/) -->

<svg
   xmlns:dc="http://purl.org/dc/elements/1.1/"
   xmlns:cc="http://creativecommons.org/ns#"
   xmlns:rdf="http://www.w3.org/1999/02/22-rdf-syntax-ns#"
   xmlns:svg="http://www.w3.org/2000/svg"
   xmlns="http://www.w3.org/2000/svg"
   xmlns:sodipodi="http://sodipodi.sourceforge.net/DTD/sodipodi-0.dtd"
   xmlns:inkscape="http://www.inkscape.org/namespaces/inkscape"
   version="1.1"
   id="svg2"
   width="16"
   height="16"
   viewBox="0 0 16 16"
   sodipodi:docname="VISUALTRANSFORM.svg"
   inkscape:version="0.92.4 (5da689c313, 2019-01-14)">
  <metadata
     id="metadata8">
    <rdf:RDF>
      <cc:Work
         rdf:about="">
        <dc:format>image/svg+xml</dc:format>
        <dc:type
           rdf:resource="http://purl.org/dc/dcmitype/StillImage" />
        <dc:title></dc:title>
      </cc:Work>
    </rdf:RDF>
  </metadata>
  <defs
     id="defs6" />
  <sodipodi:namedview
     pagecolor="#ffffff"
     bordercolor="#666666"
     borderopacity="1"
     objecttolerance="10"
     gridtolerance="10"
     guidetolerance="10"
     inkscape:pageopacity="0"
     inkscape:pageshadow="2"
     inkscape:window-width="973"
     inkscape:window-height="651"
     id="namedview4"
     showgrid="false"
     inkscape:zoom="14.75"
     inkscape:cx="8"
     inkscape:cy="8"
     inkscape:window-x="0"
     inkscape:window-y="0"
     inkscape:window-maximized="0"
     inkscape:current-layer="svg2" />
  <g
     id="VISUALTRANSFORM">
    <path
       style="fill:#ffffff;stroke-width:0.03125"
       d="M 0.00375285,10.367188 C 0.00646569,6.2953666 0.01676509,4.7731184 0.04091807,4.8741803 0.06691991,4.9829781 0.11980231,5.0592184 0.27935272,5.2179303 0.58257159,5.5195556 0.64741097,5.5318459 1.9336675,5.5315125 L 2.94546,5.53125 2.8200297,5.6673256 C 2.7510431,5.7421675 2.6850232,5.8335737 2.6733189,5.8704506 2.6616145,5.9073278 2.6404619,5.9375 2.6263131,5.9375 c -0.06647,0 -0.1180142,0.6777397 -0.062628,0.8234803 0.086747,0.2282628 0.1294865,0.2998381 0.2524917,0.4228431 0.1230051,0.1230053 0.1945804,0.165745 0.4228432,0.2524919 0.1457406,0.055386 0.8234803,0.00384 0.8234803,-0.062628 0,-0.014149 0.031641,-0.035202 0.070312,-0.046784 C 4.2269512,7.2987069 6.331035,5.1998906 6.3774153,5.0879191 6.3974447,5.0395634 6.4246503,5 6.4378722,5 6.4694497,5 6.5011144,4.8213225 6.5207881,4.5321228 6.5363562,4.3032803 6.5079059,4.1508628 6.4156941,3.9691009 6.3553422,3.8501388 4.1848944,1.6900287 4.078125,1.6426655 3.843605,1.5386318 3.7804322,1.5267448 3.5422303,1.5418279 3.2405928,1.5609278 3.0625,1.5922917 3.0625,1.6263131 c 0,0.014149 -0.028201,0.034676 -0.062669,0.045615 -0.173687,0.055127 -0.3150213,0.2581443 -0.4241894,0.6093219 -0.058146,0.1870468 -0.055884,0.3164859 0.010034,0.5742532 0.046835,0.1831446 0.081793,0.244182 0.2367093,0.4133024 l 0.1817594,0.1984241 -1.1348844,0.01196 C 0.77961441,3.4906731 0.5,3.5079538 0.5,3.5638131 0.5,3.5779621 0.4717991,3.5984891 0.4373314,3.6094281 0.27420488,3.6612028 0.16618484,3.8028547 0.0441699,4.125 0.00907819,4.2176497 0.00253355,3.9106181 0.00137165,2.1171875 L 0,0 H 3.5 7 V 5.5433737 11.086747 L 6.6731612,11.418374 C 6.4934,11.600768 6.3307256,11.75 6.3116628,11.75 6.2925997,11.75 5.6697553,11.142373 4.9275641,10.399718 4.1853725,9.6570638 3.5992188,9.0616619 3.625,9.0766038 3.653002,9.0928328 3.66139,9.0923168 3.645833,9.0753238 3.6315103,9.0596763 3.6104166,9.0462113 3.5989584,9.0454003 3.5875,9.0445897 3.5007813,9.0035556 3.40625,8.9542134 3.3003078,8.898915 3.1944344,8.8669556 3.1302569,8.8709012 c -0.057265,0.00352 -0.096979,-0.00515 -0.088254,-0.019267 0.00873,-0.014118 -0.099109,-0.015522 -0.2396318,-0.00312 -0.3486755,0.030769 -0.4619737,0.053122 -0.545441,0.1076093 -0.039157,0.025562 -0.083889,0.038631 -0.099403,0.029043 -0.015514,-0.00959 -0.038384,-9.688e-4 -0.050821,0.019155 -0.015075,0.024392 -0.00898,0.028161 0.018294,0.011306 0.027396,-0.016932 0.033373,-0.013092 0.018097,0.011625 -0.012545,0.020299 -0.046359,0.033019 -0.075141,0.028266 -0.028782,-0.00475 -0.04951,0.00685 -0.046063,0.025788 0.00345,0.018936 -0.045472,0.082217 -0.1087088,0.140625 -0.072785,0.067227 -0.092287,0.077527 -0.053143,0.028071 l 0.061834,-0.078125 -0.069072,0.058408 c -0.03799,0.032125 -0.067176,0.067281 -0.064859,0.078125 0.00895,0.041897 -0.079716,0.1887775 -0.1046555,0.1733638 -0.014477,-0.00895 -0.017062,0.00786 -0.00574,0.037356 0.015066,0.039262 0.00949,0.046773 -0.020811,0.028045 -0.026286,-0.016246 -0.033888,-0.013444 -0.020834,0.00768 0.025931,0.041957 -0.00887,0.1375887 -0.042508,0.1168009 -0.013784,-0.00852 -0.017126,0.014855 -0.00743,0.051941 0.010441,0.039926 0.00517,0.059725 -0.012928,0.048542 -0.019455,-0.012024 -0.027012,0.1139606 -0.020794,0.3466758 0.011836,0.442969 0.015636,0.475305 0.053129,0.452133 0.016801,-0.01038 0.021894,0.01078 0.011843,0.04921 -0.0097,0.03709 -0.00688,0.06078 0.00627,0.05266 0.013144,-0.0081 0.050505,0.03632 0.083023,0.09877 0.065541,0.125861 3.7804086,3.858524 3.9323295,3.951167 0.05255,0.03205 0.1209847,0.05832 0.1520772,0.05838 0.031092,6.3e-5 0.048651,0.01287 0.039019,0.02845 -0.00963,0.01558 0.012831,0.0204 0.049917,0.0107 0.039868,-0.01042 0.05972,-0.0052 0.048569,0.01289 -0.011357,0.01837 0.01955,0.02488 0.077677,0.01635 0.053096,-0.0078 0.088853,-0.0017 0.079459,0.01347 -0.00939,0.0152 0.078672,0.02764 0.1957019,0.02764 0.11703,0 0.2062634,-0.01055 0.1982966,-0.02344 -0.013083,-0.02117 0.070946,-0.03471 0.2142122,-0.03451 0.029223,3.1e-5 0.047844,-0.0085 0.041379,-0.01895 -0.00646,-0.01046 0.050484,-0.0414 0.1265538,-0.06875 L 7,14.695246 V 15.347623 16 H 3.5 0 Z M 4.53125,13.675701 c 0,-0.0065 -0.024609,-0.0311 -0.054687,-0.05469 -0.049564,-0.03887 -0.05067,-0.03777 -0.011799,0.0118 0.040824,0.05205 0.066486,0.06861 0.066486,0.04289 z m 0.09375,-3.625 c 0,-0.0065 -0.024609,-0.0311 -0.054687,-0.054687 C 4.520749,9.957143 4.519643,9.958248 4.558514,10.007813 4.599338,10.059863 4.625,10.076423 4.625,10.050703 Z M 9,14.370139 v -1.629861 l 2.70741,-2.706076 c 1.489076,-1.4883426 2.72059,-2.7022129 2.736698,-2.6974901 0.01611,0.00472 0.01983,-0.00671 0.0083,-0.025407 -0.01155,-0.018696 4.56e-4,-0.057717 0.02669,-0.086712 0.02624,-0.028995 0.07683,-0.1206812 0.112436,-0.2037468 0.08175,-0.1907394 0.09254,-0.7375494 0.01807,-0.915795 -0.02567,-0.06143 -0.03756,-0.1264325 -0.02642,-0.1444497 0.01133,-0.018334 0.0053,-0.023553 -0.01358,-0.011852 -0.0186,0.011499 -0.04282,-0.00742 -0.05381,-0.042047 -0.01099,-0.034625 -0.0346,-0.062954 -0.05247,-0.062954 -0.01787,0 -0.02446,-0.020925 -0.01464,-0.0465 0.0098,-0.025575 0.0078,-0.043874 -0.0045,-0.040665 -0.01227,0.00321 -0.07644,-0.044932 -0.142585,-0.1069819 l -0.120272,-0.1128168 0.523083,-0.00401 c 0.287697,-0.00221 0.548316,-0.017513 0.579156,-0.034018 0.03084,-0.016505 0.09215,-0.030008 0.136251,-0.030008 0.0441,0 0.08018,-0.013115 0.08018,-0.029144 0,-0.016029 0.0282,-0.038095 0.06267,-0.049034 0.163126,-0.051774 0.271146,-0.1934263 0.393161,-0.5155716 0.03466,-0.091516 0.04165,0.8078191 0.0428,5.5078129 L 16,16 H 12.5 9 Z m 0.097736,-1.674826 c 0.038871,-0.04957 0.037766,-0.05067 -0.011799,-0.0118 -0.052055,0.04082 -0.068609,0.06649 -0.042889,0.06649 0.00649,0 0.031098,-0.02461 0.054687,-0.05469 z m 0.21875,-0.21875 c 0.038871,-0.04957 0.037766,-0.05067 -0.011799,-0.0118 -0.030078,0.02359 -0.054687,0.0482 -0.054687,0.05469 0,0.02572 0.025662,0.0092 0.066486,-0.04289 z m 0.25,-0.25 c 0.038871,-0.04957 0.037766,-0.05067 -0.011799,-0.0118 -0.052055,0.04082 -0.068609,0.06649 -0.042889,0.06649 0.00649,0 0.031098,-0.02461 0.054687,-0.05469 z m 0.21875,-0.21875 c 0.038871,-0.04957 0.037766,-0.05067 -0.011799,-0.0118 -0.052055,0.04082 -0.068609,0.06649 -0.042889,0.06649 0.00649,0 0.031098,-0.02461 0.054687,-0.05469 z m 0.25,-0.25 c 0.03887,-0.04957 0.03777,-0.05067 -0.0118,-0.0118 -0.052055,0.04082 -0.068609,0.06649 -0.042889,0.06649 0.00649,0 0.031098,-0.02461 0.054687,-0.05469 z m 0.21875,-0.21875 c 0.03887,-0.04957 0.03777,-0.05067 -0.0118,-0.0118 -0.05206,0.04082 -0.06861,0.06649 -0.04289,0.06649 0.0065,0 0.0311,-0.02461 0.05469,-0.05469 z m 0.25,-0.25 c 0.03887,-0.04957 0.03777,-0.05067 -0.0118,-0.0118 -0.03008,0.02359 -0.05469,0.0482 -0.05469,0.05469 0,0.02572 0.02566,0.0092 0.06649,-0.04289 z m 0.21875,-0.21875 c 0.03887,-0.04957 0.03777,-0.05067 -0.0118,-0.0118 -0.05206,0.04082 -0.06861,0.06649 -0.04289,0.06649 0.0065,0 0.0311,-0.02461 0.05469,-0.05469 z m 0.25,-0.25 c 0.03887,-0.04957 0.03777,-0.05067 -0.0118,-0.0118 -0.05206,0.04082 -0.06861,0.06649 -0.04289,0.06649 0.0065,0 0.0311,-0.02461 0.05469,-0.05469 z m 0.21875,-0.21875 c 0.03887,-0.04957 0.03777,-0.05067 -0.0118,-0.0118 -0.05206,0.04082 -0.06861,0.06649 -0.04289,0.06649 0.0065,0 0.0311,-0.02461 0.05469,-0.05469 z m 0.25,-0.25 c 0.03887,-0.04957 0.03777,-0.05067 -0.0118,-0.0118 -0.05206,0.04082 -0.06861,0.06649 -0.04289,0.06649 0.0065,0 0.0311,-0.02461 0.05469,-0.05469 z m 0.46875,-0.4687505 c 0.03887,-0.049564 0.03777,-0.05067 -0.0118,-0.011799 -0.05206,0.040824 -0.06861,0.066486 -0.04289,0.066486 0.0065,0 0.0311,-0.024609 0.05469,-0.054687 z m 0.25,-0.25 c 0.03887,-0.049564 0.03777,-0.05067 -0.0118,-0.011799 -0.05206,0.040824 -0.06861,0.066486 -0.04289,0.066486 0.0065,0 0.0311,-0.024609 0.05469,-0.054687 z m 0.21875,-0.21875 c 0.03887,-0.049564 0.03777,-0.05067 -0.0118,-0.011799 -0.05206,0.040824 -0.06861,0.066486 -0.04289,0.066486 0.0065,0 0.0311,-0.024609 0.05469,-0.054687 z m 0.25,-0.25 c 0.03887,-0.049564 0.03777,-0.05067 -0.0118,-0.011799 -0.05206,0.040824 -0.06861,0.066486 -0.04289,0.066486 0.0065,0 0.0311,-0.024609 0.05469,-0.054687 z m 0.21875,-0.21875 c 0.03887,-0.049564 0.03777,-0.05067 -0.0118,-0.011799 C 12.783883,8.9743378 12.767329,9 12.793049,9 c 0.0065,0 0.0311,-0.024609 0.05469,-0.054687 z m 0.25,-0.25 c 0.03887,-0.049564 0.03777,-0.05067 -0.0118,-0.011799 -0.05206,0.040824 -0.06861,0.066486 -0.04289,0.066486 0.0065,0 0.0311,-0.024609 0.05469,-0.054687 z m 0.21875,-0.21875 c 0.03887,-0.049564 0.03777,-0.05067 -0.0118,-0.011799 -0.05206,0.040824 -0.06861,0.066486 -0.04289,0.066486 0.0065,0 0.0311,-0.024609 0.05469,-0.054687 z m 0.25,-0.25 c 0.03887,-0.049564 0.03777,-0.05067 -0.0118,-0.011799 -0.05206,0.040824 -0.06861,0.066486 -0.04289,0.066486 0.0065,0 0.0311,-0.024609 0.05469,-0.054687 z m 0.21875,-0.21875 c 0.03887,-0.049564 0.03777,-0.05067 -0.0118,-0.011799 -0.05206,0.040824 -0.06861,0.066486 -0.04289,0.066486 0.0065,0 0.0311,-0.024609 0.05469,-0.054687 z m 0.25,-0.25 c 0.03887,-0.049564 0.03777,-0.05067 -0.0118,-0.011799 -0.05206,0.040824 -0.06861,0.066486 -0.04289,0.066486 0.0065,0 0.0311,-0.024609 0.05469,-0.054687 z m 0.21875,-0.21875 c 0.03887,-0.049564 0.03777,-0.05067 -0.0118,-0.011799 -0.05206,0.040824 -0.06861,0.066486 -0.04289,0.066486 0.0065,0 0.0311,-0.024609 0.05469,-0.054687 z M 9,4.5450925 V 0 H 12.5 16 L 15.9962,2.1328125 C 15.9934,3.7199578 15.9839,4.2298566 15.95904,4.1258197 15.93304,4.0170219 15.88016,3.9407816 15.720605,3.7820697 15.417428,3.4804444 15.352589,3.4681541 14.066333,3.4684875 l -1.011793,2.5e-4 0.12543,-0.1360756 c 0.06899,-0.074842 0.135007,-0.1662482 0.146711,-0.203125 0.0117,-0.036865 0.03286,-0.067037 0.04701,-0.067037 0.06647,0 0.118014,-0.6777398 0.06263,-0.8234804 -0.08675,-0.2282627 -0.129486,-0.299838 -0.252492,-0.4228431 -0.123005,-0.1230052 -0.19458,-0.1657448 -0.422843,-0.2524917 -0.14574,-0.055386 -0.82348,-0.00384 -0.82348,0.062628 0,0.014149 -0.03164,0.035202 -0.07031,0.046785 C 11.773049,1.7012932 9.668965,3.8001094 9.6225847,3.9120809 9.6025553,3.9604366 9.5753497,4 9.5621278,4 c -0.031578,0 -0.063242,0.1786775 -0.082916,0.4678772 -0.015565,0.2287953 0.012749,0.38056 0.1051062,0.5633728 0.021708,0.042969 0.41738,0.4578125 0.879271,0.921875 L 11.303392,6.796875 10.151696,7.94353 9,9.0901847 Z"
       id="path829"
       inkscape:connector-curvature="0" />
    <path
       style="fill:#fefefe;stroke-width:0.03125"
       d="m 4.4647638,13.632813 c -0.038871,-0.04957 -0.037766,-0.05067 0.011799,-0.0118 0.052055,0.04082 0.068609,0.06649 0.042889,0.06649 -0.00649,0 -0.031098,-0.02461 -0.054688,-0.05469 z M 9.03125,12.738201 c 0,-0.0065 0.024609,-0.0311 0.054687,-0.05469 0.049564,-0.03887 0.05067,-0.03777 0.011799,0.0118 -0.040824,0.05205 -0.066486,0.06861 -0.066486,0.04289 z M 9.25,12.519451 c 0,-0.0065 0.024609,-0.0311 0.054687,-0.05469 0.049564,-0.03887 0.05067,-0.03777 0.011799,0.0118 C 9.2756622,12.528617 9.25,12.545171 9.25,12.519451 Z m 0.25,-0.25 c 0,-0.0065 0.024609,-0.0311 0.054687,-0.05469 0.049564,-0.03887 0.05067,-0.03777 0.011799,0.0118 C 9.5256622,12.278617 9.5,12.295171 9.5,12.269451 Z m 0.21875,-0.21875 c 0,-0.0065 0.024609,-0.0311 0.054687,-0.05469 0.049564,-0.03887 0.05067,-0.03777 0.011799,0.0118 -0.040824,0.05205 -0.066486,0.06861 -0.066486,0.04289 z m 0.25,-0.25 c 0,-0.0065 0.024609,-0.0311 0.054688,-0.05469 0.04956,-0.03887 0.05067,-0.03777 0.0118,0.0118 -0.040824,0.05205 -0.066486,0.06861 -0.066486,0.04289 z m 0.21875,-0.21875 c 0,-0.0065 0.02461,-0.0311 0.05469,-0.05469 0.04956,-0.03887 0.05067,-0.03777 0.0118,0.0118 -0.04082,0.05205 -0.06649,0.06861 -0.06649,0.04289 z m 0.25,-0.25 c 0,-0.0065 0.02461,-0.0311 0.05469,-0.05469 0.04956,-0.03887 0.05067,-0.03777 0.0118,0.0118 -0.04082,0.05205 -0.06649,0.06861 -0.06649,0.04289 z m 0.21875,-0.21875 c 0,-0.0065 0.02461,-0.0311 0.05469,-0.05469 0.04956,-0.03887 0.05067,-0.03777 0.0118,0.0118 -0.04082,0.05205 -0.06649,0.06861 -0.06649,0.04289 z m 0.25,-0.25 c 0,-0.0065 0.02461,-0.0311 0.05469,-0.05469 0.04956,-0.03887 0.05067,-0.03777 0.0118,0.0118 -0.04082,0.05205 -0.06649,0.06861 -0.06649,0.04289 z m 0.21875,-0.21875 c 0,-0.0065 0.02461,-0.0311 0.05469,-0.05469 0.04956,-0.03887 0.05067,-0.03777 0.0118,0.0118 -0.04082,0.05205 -0.06649,0.06861 -0.06649,0.04289 z m 0.25,-0.25 c 0,-0.0065 0.02461,-0.0311 0.05469,-0.05469 0.04956,-0.03887 0.05067,-0.03777 0.0118,0.0118 -0.04082,0.05205 -0.06649,0.06861 -0.06649,0.04289 z M 4.5585138,10.007813 c -0.038871,-0.049565 -0.037766,-0.05067 0.011799,-0.011799 0.030078,0.023589 0.054687,0.048198 0.054687,0.054687 0,0.02572 -0.025662,0.0092 -0.066486,-0.04289 z M 11.84375,9.9257013 c 0,-0.00649 0.02461,-0.031099 0.05469,-0.054687 0.04956,-0.038871 0.05067,-0.037766 0.0118,0.011799 -0.04082,0.052055 -0.06649,0.068609 -0.06649,0.042889 z m 0.25,-0.25 c 0,-0.00649 0.02461,-0.031099 0.05469,-0.054687 0.04956,-0.038871 0.05067,-0.037766 0.0118,0.011799 -0.04082,0.052055 -0.06649,0.068609 -0.06649,0.042889 z m 0.21875,-0.21875 c 0,-0.00649 0.02461,-0.031099 0.05469,-0.054687 0.04956,-0.038871 0.05067,-0.037766 0.0118,0.011799 -0.04082,0.052055 -0.06649,0.068609 -0.06649,0.042889 z M 1.828125,9.25 C 1.859234,9.215625 1.891718,9.1875 1.900312,9.1875 1.908902,9.1875 1.890482,9.215625 1.859375,9.25 1.828266,9.284375 1.795782,9.3125 1.787188,9.3125 1.778598,9.3125 1.797018,9.284375 1.828125,9.25 Z M 12.5625,9.2069513 c 0,-0.00649 0.02461,-0.031099 0.05469,-0.054687 0.04956,-0.038871 0.05067,-0.037766 0.0118,0.011799 -0.04082,0.052055 -0.06649,0.068609 -0.06649,0.042889 z m 0.21875,-0.21875 c 0,-0.00649 0.02461,-0.031099 0.05469,-0.054687 0.04956,-0.038871 0.05067,-0.037766 0.0118,0.011799 -0.04082,0.052055 -0.06649,0.068609 -0.06649,0.042889 z m 0.25,-0.25 c 0,-0.00649 0.02461,-0.031099 0.05469,-0.054687 0.04956,-0.038871 0.05067,-0.037766 0.0118,0.011799 -0.04082,0.052055 -0.06649,0.068609 -0.06649,0.042889 z M 13.25,8.5194513 c 0,-0.00649 0.02461,-0.031099 0.05469,-0.054687 0.04956,-0.038871 0.05067,-0.037766 0.0118,0.011799 C 13.27567,8.5286183 13.25,8.5451723 13.25,8.5194523 Z m 0.25,-0.25 c 0,-0.00649 0.02461,-0.031099 0.05469,-0.054687 0.04956,-0.038871 0.05067,-0.037766 0.0118,0.011799 C 13.525662,8.2786172 13.5,8.2951712 13.5,8.2694513 Z m 0.21875,-0.21875 c 0,-0.00649 0.02461,-0.031099 0.05469,-0.054688 0.04956,-0.038871 0.05067,-0.037766 0.0118,0.011799 -0.04082,0.052055 -0.06649,0.068609 -0.06649,0.042889 z m 0.25,-0.2500001 c 0,-0.00649 0.02461,-0.031098 0.05469,-0.054687 0.04956,-0.038871 0.05067,-0.037766 0.0118,0.011799 -0.04082,0.052055 -0.06649,0.068609 -0.06649,0.042888 z m 0.21875,-0.21875 c 0,-0.00649 0.02461,-0.031098 0.05469,-0.054687 0.04956,-0.038871 0.05067,-0.037766 0.0118,0.011799 -0.04082,0.052055 -0.06649,0.068609 -0.06649,0.042888 z"
       id="path827"
       inkscape:connector-curvature="0" />
    <path
       style="fill:#fe9832;stroke-width:0.03125"
       d="M 7.46875,14.871188 V 14.211125 L 7.9494972,13.730563 C 8.2139081,13.466253 8.4529706,13.25 8.4807472,13.25 c 0.045581,0 0.050503,0.111154 0.050503,1.140625 V 15.53125 H 8 7.46875 Z m 0,-9.339938 V 0.46875 H 8 8.53125 V 5.0439481 9.6191466 L 8.04731,10.106448 c -0.2661672,0.268016 -0.5052297,0.487302 -0.53125,0.487302 -0.042052,0 -0.04731,-0.562647 -0.04731,-5.0625 z M 3.390625,6.8767909 C 3.3048519,6.8417987 3.1547766,6.6872853 3.1213263,6.5995281 3.0806717,6.49287 3.0877259,6.3520019 3.1385159,6.2562606 3.1631375,6.2098484 3.4373562,5.9188966 3.7478909,5.6097006 4.0584259,5.3005047 4.3125,5.0303666 4.3125,5.0093941 4.3125,4.9799594 3.9222613,4.9691934 2.6015625,4.9621934 1.0337308,4.9538834 0.88215475,4.9484966 0.78935681,4.8977872 0.46530075,4.7207075 0.48211434,4.2503128 0.81876062,4.0751559 0.88822034,4.0390159 1.2046652,4.03125 2.6078231,4.03125 3.9584594,4.03125 4.3125,4.0230675 4.3125,3.9918525 4.3125,3.9701841 4.0654556,3.7065122 3.7635125,3.405915 3.4615694,3.1053181 3.1939481,2.8205632 3.1687991,2.7731266 2.9743589,2.4063708 3.3455222,1.9771584 3.7305325,2.1235391 c 0.102275,0.038885 2.1695434,2.1061534 2.2084284,2.2084284 0.039751,0.1045528 0.037683,0.2502872 -0.00474,0.3341494 -0.049156,0.097168 -2.088775,2.1412828 -2.19048,2.1953078 C 3.6519741,6.91017 3.4897487,6.9172294 3.390625,6.8767909 Z M 10.904436,5.5600884 C 10.456699,5.1118872 10.077068,4.7101906 10.06081,4.6674294 10.01833,4.5557075 10.02437,4.4161391 10.0759,4.3187606 10.15475,4.1697441 12.22545,2.1312613 12.322006,2.107599 c 0.271528,-0.066542 0.544752,0.1261887 0.576353,0.4065566 0.0095,0.084422 -0.0025,0.1644627 -0.0334,0.2228533 -0.02654,0.050114 -0.309354,0.3511298 -0.628481,0.6689242 -0.319126,0.3177947 -0.58023,0.5879372 -0.58023,0.6003166 0,0.01238 0.776953,0.026585 1.726563,0.031567 1.5828,0.0083 1.734994,0.013666 1.82783,0.064396 0.324056,0.1770797 0.307243,0.6474744 -0.0294,0.8226313 -0.06946,0.03614 -0.385904,0.043906 -1.789062,0.043906 -1.355145,0 -1.704677,0.00812 -1.704677,0.039595 0,0.021777 0.154688,0.1938034 0.34375,0.3822797 0.189063,0.1884762 0.34375,0.3536159 0.34375,0.3669772 0,0.03533 -0.590414,0.6173978 -0.626251,0.6173978 -0.01664,0 -0.396576,-0.36671 -0.844313,-0.8149116 z"
       id="path825"
       inkscape:connector-curvature="0" />
    <path
       style="fill:#00fe00;stroke-width:0.03125"
       d="M 6.092205,14.395293 C 6.014012,14.374013 5.9015116,14.326253 5.842205,14.28917 5.7828984,14.252087 4.9229259,13.408962 3.9311547,12.41556 2.5553943,11.037538 2.1129334,10.576039 2.0646535,10.46875 1.9556468,10.226512 1.9913175,9.8167181 2.1338136,9.6742222 2.1570993,9.6509362 2.2104571,9.5916634 2.2523865,9.5425047 2.3747401,9.399055 2.609199,9.3007119 2.8276551,9.30121 3.1926272,9.3020412 3.1800159,9.29173 4.8202725,10.930634 L 6.31242,12.421551 9.6015225,9.1356197 C 11.961774,6.7776434 12.929983,5.8300759 13.029994,5.7802394 c 0.206497,-0.1029 0.472782,-0.098044 0.699241,0.012752 0.390349,0.1909804 0.553053,0.5828282 0.429811,1.0351338 -0.04071,0.1493862 -0.2006,0.3145634 -3.639873,3.7601118 -3.2418911,3.247806 -3.6173664,3.614026 -3.800423,3.706747 -0.2416359,0.122391 -0.4329147,0.153015 -0.626545,0.100309 z"
       id="path823"
       inkscape:connector-curvature="0" />
    <path
       style="fill:#323232;stroke-width:0.03125"
       d="m 7,15.347629 v -0.652372 l -0.2109375,0.07665 C 6.4982028,14.877593 6.2260306,14.895798 5.953125,14.827818 5.8328125,14.797849 5.6969075,14.754278 5.6511134,14.730996 5.6053197,14.707713 4.7122137,13.83353 3.6664338,12.788367 1.9161101,11.039078 1.7564336,10.87079 1.657024,10.670598 1.5559371,10.467029 1.5489639,10.433146 1.5479539,10.140625 1.5469536,9.8508791 1.5543901,9.8121972 1.6500858,9.609375 1.8219678,9.24508 2.1907915,8.9251303 2.4891233,8.8815213 2.6510004,8.8578584 2.9768467,8.8541913 3.15625,8.8740128 3.4155559,8.9026628 3.5220619,8.9943366 4.9173794,10.389879 5.6653253,11.137946 6.2928156,11.75 6.3118019,11.75 6.3307884,11.75 6.4934,11.600768 6.6731612,11.418374 L 7,11.086747 V 5.5433737 0 H 8 9 V 4.5450716 9.0901428 L 10.154698,7.9356966 C 10.789782,7.3007509 11.322926,6.78125 11.339463,6.78125 c 0.01654,0 0.105125,-0.076948 0.196864,-0.1709947 C 11.741762,6.3996519 11.70488,6.4363147 12.070313,6.0794437 12.237891,5.9157919 12.375,5.7676875 12.375,5.7503225 c 0,-0.017365 0.01259,-0.031573 0.02797,-0.031573 0.01539,0 0.09408,-0.062448 0.174885,-0.1387725 0.260702,-0.2462569 0.703318,-0.3481609 1.094018,-0.2518775 0.437262,0.1077581 0.735881,0.3426641 0.909438,0.7153997 0.06356,0.136499 0.07437,0.20792 0.07463,0.4929719 3.31e-4,0.3613225 -0.04353,0.5175343 -0.2046,0.728709 -0.04449,0.058332 -1.289246,1.3140738 -2.76612,2.7905379 L 9,12.740196 V 14.370098 16 H 8 7 Z M 8.53125,14.390625 C 8.53125,13.361154 8.52633,13.25 8.480747,13.25 c -0.027777,0 -0.2668391,0.216253 -0.53125,0.480563 L 7.46875,14.211125 v 0.660063 0.660062 H 8 8.53125 Z m -1.8125,-0.09564 c 0.1830566,-0.09272 0.5585319,-0.458941 3.800423,-3.706747 3.439273,-3.4455486 3.599168,-3.6107258 3.639873,-3.760112 0.123242,-0.4523056 -0.03946,-0.8441534 -0.429811,-1.0351338 -0.226459,-0.1107956 -0.492744,-0.1156518 -0.699241,-0.012752 -0.100011,0.049836 -1.06822,0.997404 -3.4284715,3.3553803 L 6.31242,12.421551 4.8202725,10.930634 C 3.1800159,9.2917297 3.1926272,9.3020422 2.8276551,9.30121 2.609199,9.3007131 2.3747401,9.399055 2.2523865,9.5425047 2.2104571,9.5916634 2.1570993,9.6509363 2.1338136,9.6742222 1.9913175,9.8167181 1.9556468,10.226512 2.0646535,10.46875 c 0.04828,0.107289 0.4907408,0.568788 1.8665012,1.94681 0.9917712,0.993402 1.8517437,1.836527 1.9110503,1.87361 0.2718597,0.16999 0.5487878,0.171827 0.876545,0.0058 z M 8.04731,10.106448 8.53125,9.6191466 V 5.0439481 0.46875 H 8 7.46875 v 5.0625 c 0,4.499853 0.00526,5.0625 0.04731,5.0625 0.02602,0 0.2650828,-0.219286 0.53125,-0.487302 z"
       id="path821"
       inkscape:connector-curvature="0" />
    <path
       style="fill:#000000;stroke-width:0.03125"
       d="M 3.21875,7.4322359 C 3.1757813,7.4132712 3.0968147,7.3788109 3.0432688,7.3556572 2.9184515,7.3016853 2.6988583,7.0824131 2.643759,6.9567312 2.5379475,6.7153744 2.5267141,6.6559181 2.5418279,6.4172303 2.5609278,6.1155928 2.5922917,5.9375 2.6263131,5.9375 c 0.014149,0 0.035301,-0.030172 0.047006,-0.067049 0.011704,-0.036877 0.077724,-0.1282831 0.1467108,-0.203125 L 2.94546,5.53125 1.9336675,5.5315125 C 0.64724509,5.5318459 0.58260203,5.5195862 0.27914817,5.2177256 0.09343958,5.0329922 0.07001911,4.9951884 0.03289086,4.8202322 -0.07797261,4.2978197 0.11812761,3.71074 0.43733138,3.6094284 0.47179913,3.5984888 0.5,3.5779619 0.5,3.5638131 c 0,-0.055859 0.27961441,-0.07314 1.3692594,-0.084623 L 3.0041438,3.4672297 2.8223844,3.2688056 C 2.6674676,3.0996852 2.6325099,3.0386478 2.5856751,2.8555032 2.5197573,2.5977359 2.5174957,2.4682968 2.5756416,2.28125 2.6848097,1.9300724 2.826144,1.7270547 2.9998314,1.6719285 3.0342991,1.6609889 3.0625,1.6404619 3.0625,1.6263131 c 0,-0.034021 0.1780928,-0.065385 0.4797303,-0.084485 C 3.7804322,1.5267451 3.843605,1.5386281 4.078125,1.6426657 4.1848944,1.6900287 6.3553422,3.850139 6.4156941,3.9691011 6.5079061,4.150863 6.5363562,4.3032805 6.5207881,4.532123 6.5011144,4.8213225 6.4694497,5 6.4378722,5 6.4246503,5 6.3974447,5.0395634 6.3774153,5.0879191 6.331035,5.1998906 4.2269512,7.2987069 4.1328125,7.3269025 4.0941406,7.338485 4.0625,7.3595381 4.0625,7.3736869 c 0,0.065378 -0.7157472,0.1150443 -0.84375,0.058549 z M 3.7437394,6.8614247 C 3.8454444,6.8073997 5.8850638,4.763285 5.9342194,4.6661169 5.9766437,4.5822547 5.9787119,4.4365203 5.9389609,4.3319675 5.9000759,4.2296925 3.8328075,2.1624239 3.7305325,2.1235391 3.3455222,1.9771584 2.9743589,2.4063708 3.1687991,2.7731266 3.1939481,2.8205632 3.4615694,3.1053181 3.7635125,3.405915 4.0654556,3.7065122 4.3125,3.9701841 4.3125,3.9918525 c 0,0.031215 -0.3540406,0.039398 -1.7046769,0.039398 -1.4031579,0 -1.71960276,0.00777 -1.78906248,0.043906 -0.33664628,0.1751569 -0.35345987,0.6455516 -0.0294038,0.8226313 0.0927979,0.050709 0.24437398,0.056096 1.81220568,0.064406 1.3206988,0.007 1.7109375,0.017766 1.7109375,0.047201 0,0.020973 -0.2540741,0.2911106 -0.5646091,0.6003065 -0.3105346,0.309196 -0.5847534,0.6001478 -0.609375,0.64656 -0.05079,0.095741 -0.057844,0.2366094 -0.01719,0.3432675 0.03345,0.087757 0.1835256,0.2422706 0.2692987,0.2772628 0.099124,0.040439 0.2613491,0.033379 0.3531148,-0.015367 z M 10.460325,5.9452053 C 10.000223,5.4854987 9.6060166,5.0742187 9.5843122,5.03125 9.4919566,4.8484125 9.4636475,4.6966662 9.4792119,4.4678772 9.4988856,4.1786775 9.5305503,4 9.5621278,4 c 0.013222,0 0.040427,-0.039563 0.060457,-0.087919 0.04638,-0.1119715 2.1504642,-2.2107877 2.2446032,-2.2389833 0.03867,-0.011583 0.07031,-0.032636 0.07031,-0.046785 0,-0.06647 0.67774,-0.1180142 0.82348,-0.062628 0.228263,0.086747 0.299838,0.1294865 0.422843,0.2524917 0.123006,0.1230051 0.165745,0.1945804 0.252492,0.4228431 0.05539,0.1457406 0.0038,0.8234804 -0.06263,0.8234804 -0.01415,0 -0.0353,0.030172 -0.04701,0.067049 -0.0117,0.036877 -0.07772,0.1282831 -0.146711,0.203125 L 13.05454,3.46875 14.066333,3.4685 c 1.286422,-3.344e-4 1.351065,0.011926 1.654519,0.3137869 0.185708,0.1847334 0.209129,0.2225372 0.246257,0.3974934 0.110863,0.5224125 -0.08524,1.1094922 -0.40444,1.2108038 -0.03447,0.01094 -0.06267,0.031467 -0.06267,0.045615 0,0.043964 -0.21422,0.069244 -0.765625,0.090352 -0.530389,0.020303 -0.531503,0.020204 -0.6875,-0.061357 -0.505363,-0.2642222 -1.11849,-0.2163097 -1.469018,0.1147956 -0.0808,0.076312 -0.163256,0.13876 -0.18323,0.13876 -0.04871,0 -0.707127,-0.6624444 -0.707127,-0.7114478 0,-0.030099 0.373803,-0.038552 1.704677,-0.038552 1.403158,0 1.719603,-0.00777 1.789062,-0.043906 0.336647,-0.1751569 0.35346,-0.6455516 0.0294,-0.8226313 -0.09284,-0.05073 -0.24503,-0.056092 -1.82783,-0.064396 -0.94961,-0.00498 -1.726563,-0.019187 -1.726563,-0.031567 0,-0.012379 0.261104,-0.2825219 0.58023,-0.6003166 0.319127,-0.3177944 0.601943,-0.6188103 0.628481,-0.6689242 0.03092,-0.058391 0.04292,-0.138431 0.0334,-0.2228533 -0.0316,-0.2803679 -0.304825,-0.4730987 -0.576353,-0.4065566 -0.09656,0.023662 -2.167254,2.0621451 -2.246106,2.2111616 -0.05153,0.097378 -0.05757,0.2369469 -0.01509,0.3486688 0.01626,0.042761 0.395945,0.4445137 0.84375,0.8927831 0.447804,0.4482694 0.81419,0.8284362 0.81419,0.8448153 0,0.042584 -0.342028,0.3762435 -0.385548,0.376115 -0.01998,-6.25e-5 -0.412774,-0.3762309 -0.872877,-0.8359375 z"
       id="path819"
       inkscape:connector-curvature="0" />
  </g>
</svg>
