<?xml version="1.0" encoding="UTF-8" standalone="no"?>
<!-- Created with Inkscape (http://www.inkscape.org/) -->

<svg
   xmlns:dc="http://purl.org/dc/elements/1.1/"
   xmlns:cc="http://creativecommons.org/ns#"
   xmlns:rdf="http://www.w3.org/1999/02/22-rdf-syntax-ns#"
   xmlns:svg="http://www.w3.org/2000/svg"
   xmlns="http://www.w3.org/2000/svg"
   xmlns:sodipodi="http://sodipodi.sourceforge.net/DTD/sodipodi-0.dtd"
   xmlns:inkscape="http://www.inkscape.org/namespaces/inkscape"
   version="1.1"
   id="svg2"
   width="13.99943"
   height="13.99943"
   viewBox="0 0 13.99943 13.99943"
   sodipodi:docname="IMAGE_REFERENCE.svg"
   inkscape:version="0.92.4 (5da689c313, 2019-01-14)">
  <metadata
     id="metadata8">
    <rdf:RDF>
      <cc:Work
         rdf:about="">
        <dc:format>image/svg+xml</dc:format>
        <dc:type
           rdf:resource="http://purl.org/dc/dcmitype/StillImage" />
        <dc:title></dc:title>
      </cc:Work>
    </rdf:RDF>
  </metadata>
  <defs
     id="defs6" />
  <sodipodi:namedview
     pagecolor="#ffffff"
     bordercolor="#666666"
     borderopacity="1"
     objecttolerance="10"
     gridtolerance="10"
     guidetolerance="10"
     inkscape:pageopacity="0"
     inkscape:pageshadow="2"
     inkscape:window-width="836"
     inkscape:window-height="616"
     id="namedview4"
     showgrid="false"
     inkscape:zoom="16.85783"
     inkscape:cx="-0.88979426"
     inkscape:cy="6.9997149"
     inkscape:window-x="0"
     inkscape:window-y="0"
     inkscape:window-maximized="0"
     inkscape:current-layer="svg2" />
  <g
     id="IMAGE_REFERENCE">
    <path
       style="fill:#ffffff;stroke-width:0.02734264"
       d="M 0,6.999715 V 0 H 6.999715 13.99943 V 6.999715 13.99943 H 6.999715 0 Z m 1.5257098,6.085536 c 0.040609,-0.02157 0.4490365,-0.415302 0.9076168,-0.874964 l 0.8337822,-0.83575 H 8.1957872 13.124466 V 6.1247506 0.87496437 H 7.8746794 2.6248931 V 5.8029138 10.730863 l -0.8594907,0.861854 c -0.5731454,0.574721 -0.86575747,0.887399 -0.87830071,0.938529 -0.0303356,0.123657 0.001853,0.333614 0.0646713,0.421834 0.0319906,0.04493 0.0985447,0.101587 0.14789821,0.125913 0.1117191,0.05506 0.3281594,0.05824 0.4260386,0.0063 z"
       id="path853"
       inkscape:connector-curvature="0" />
    <path
       style="fill:#fefefe;stroke-width:0.02734264"
       d="M 1.0996712,13.078993 C 1.0503177,13.054667 0.98376352,12.998006 0.95177296,12.95308 0.88895448,12.86486 0.8567661,12.654903 0.88710169,12.531246 0.89964493,12.480116 1.192257,12.167438 1.7654024,11.592717 L 2.6248931,10.730863 V 5.8029138 0.87496437 H 7.8746794 13.124466 V 6.1247506 11.374537 H 8.1957872 3.2671088 l -0.8337822,0.83575 c -0.4585803,0.459662 -0.8670078,0.853396 -0.9076168,0.874964 -0.097879,0.05199 -0.3143195,0.04881 -0.4260386,-0.0063 z M 12.249501,6.1247506 V 1.7499287 H 7.8746794 3.4998575 v 1.3042438 c 0,0.7271247 0.010377,1.2927498 0.02345,1.2782683 0.012897,-0.014286 0.1931987,-0.2389689 0.4006691,-0.4992943 0.3030951,-0.3803112 0.3837154,-0.466277 0.4102793,-0.4374822 0.018183,0.01971 0.2737996,0.4382089 0.5680362,0.9299974 L 5.4372676,5.2198228 4.9030103,5.5615577 4.3687529,5.9032928 3.9343052,5.685749 3.4998575,5.4682052 v 2.5156837 2.5156831 h 4.3748219 4.3748216 z"
       id="path851"
       inkscape:connector-curvature="0" />
    <path
       style="fill:#75b6fe;stroke-width:0.02734264"
       d="M 11.695629,10.342352 C 11.645211,10.255881 10.966186,9.0685273 10.186683,7.7037879 9.4071795,6.3390485 8.7542384,5.2224436 8.7357028,5.2224436 c -0.018536,0 -0.3324894,0.5234857 -0.697675,1.1633015 C 7.672842,7.0255612 7.3653632,7.539261 7.3547411,7.5273002 7.3441188,7.5153397 6.6736338,6.401253 5.8647744,5.0515521 5.0559149,3.7018512 4.3797055,2.5975505 4.3620868,2.5975505 c -0.017619,0 -0.2137511,0.2276274 -0.4358499,0.5058388 C 3.7041382,3.3816006 3.5173442,3.609228 3.5111393,3.609228 c -0.00621,0 -0.011282,-0.4183423 -0.011282,-0.9296496 V 1.7499287 H 7.8746794 12.249501 V 6.1247506 10.499572 H 12.018399 11.787296 Z M 10.91741,4.7554915 c 0.21681,-0.072443 0.392751,-0.1848337 0.544172,-0.3476154 0.249854,-0.268599 0.350437,-0.52922 0.350437,-0.9080186 0,-0.3787986 -0.100583,-0.6394196 -0.350437,-0.9080186 -0.255159,-0.2743013 -0.56469,-0.404428 -0.96201,-0.404428 -0.397319,0 -0.7068504,0.1301267 -0.9620089,0.404428 -0.249854,0.268599 -0.3504372,0.52922 -0.3504372,0.9080186 0,0.5871829 0.3271293,1.0551625 0.8720501,1.247525 0.244046,0.086151 0.614204,0.089648 0.858234,0.00811 z"
       id="path849"
       inkscape:connector-curvature="0" />
    <path
       style="fill:#fdfe00;stroke-width:0.02734264"
       d="M 10.226294,4.3308724 C 9.6067764,4.1057662 9.4258925,3.3418143 9.8837108,2.8839958 10.063361,2.7043451 10.225938,2.639911 10.499572,2.639911 c 0.273635,0 0.436212,0.064434 0.615862,0.2440848 0.179651,0.1796507 0.244085,0.3422273 0.244085,0.6158617 0,0.2736344 -0.06443,0.436211 -0.244085,0.6158617 -0.224659,0.2246589 -0.607815,0.3173748 -0.88914,0.2151532 z"
       id="path847"
       inkscape:connector-curvature="0" />
    <path
       style="fill:#fec100;stroke-width:0.02734264"
       d="M 10.059176,4.7473825 C 9.5142552,4.55502 9.1871259,4.0870404 9.1871259,3.4998575 c 0,-0.3787986 0.1005832,-0.6394196 0.3504372,-0.9080186 0.2551585,-0.2743013 0.5646899,-0.404428 0.9620089,-0.404428 0.39732,0 0.706851,0.1301267 0.96201,0.404428 0.249854,0.268599 0.350437,0.52922 0.350437,0.9080186 0,0.3787986 -0.100583,0.6394196 -0.350437,0.9080186 C 11.204465,4.6842831 10.8968,4.8126437 10.4936,4.8117274 10.298723,4.8112845 10.197889,4.7963494 10.059176,4.7473825 Z M 10.868698,4.290618 c 0.172964,-0.082079 0.33763,-0.2459065 0.42379,-0.4216349 0.09624,-0.1962895 0.09624,-0.5419617 0,-0.7382512 -0.08547,-0.1743156 -0.249474,-0.3383225 -0.42379,-0.42379 -0.196289,-0.096241 -0.541962,-0.096241 -0.738251,0 -0.7107564,0.3484862 -0.6515054,1.3523747 0.09585,1.6239305 0.172556,0.062699 0.463923,0.044442 0.642404,-0.040254 z"
       id="path845"
       inkscape:connector-curvature="0" />
    <path
       style="fill:#7f7f7f;stroke-width:0.02734264"
       d="M 3.4998575,8.2166015 V 5.9330098 l 0.4097978,0.205241 C 4.329899,6.3487235 4.3895481,6.3664904 4.4928256,6.3119547 4.5400622,6.2870114 5.320873,5.7925269 5.5942212,5.6144454 c 0.055265,-0.036005 0.083693,0.00658 0.7868612,1.1788278 l 0.7295242,1.2161819 -0.7079632,1.238223 -0.7079632,1.2382229 -1.0974112,0.0071 -1.0974115,0.0071 z"
       id="path843"
       inkscape:connector-curvature="0" />
    <path
       style="fill:#3c983c;stroke-width:0.02734264"
       d="M 7.4482368,8.3326685 C 8.1289867,7.1408714 8.6972156,6.1457889 8.7109681,6.1213741 8.7301657,6.0872926 9.0291971,6.5905223 9.9985955,8.288278 l 1.2626225,2.211294 H 8.7358642 6.2105103 Z"
       id="path841"
       inkscape:connector-curvature="0" />
    <path
       style="fill:#1e4c1e;stroke-width:0.02734264"
       d="M 5.7195907,10.439088 C 5.7415739,10.404681 6.422028,9.2163446 7.2317104,7.7983396 8.168333,6.1580236 8.7172526,5.2230525 8.7406745,5.2281317 c 0.020247,0.00439 0.7117283,1.1891851 1.5366235,2.6328764 l 1.499811,2.6248929 -0.2333,0.008 c -0.128316,0.0044 -0.24724,0.0026 -0.264277,-0.0039 -0.01704,-0.0065 -0.596275,-1.0014862 -1.2871977,-2.2109973 L 8.7361124,6.0798428 7.4773988,8.2828719 6.2186854,10.485901 l -0.2695322,0.0079 -0.269532,0.0079 z"
       id="path839"
       inkscape:connector-curvature="0" />
    <path
       style="fill:#000000;stroke-width:0.02734264"
       d="M 6.3733622,6.780534 C 5.6775052,5.620101 5.6496157,5.5783562 5.5942772,5.6144085 5.3209307,5.7924903 4.5400679,6.2870084 4.4928256,6.3119547 4.3895481,6.3664904 4.329899,6.3487235 3.9096553,6.1382508 L 3.4998575,5.9330098 V 5.7006075 5.4682052 L 3.9343052,5.685749 4.3687529,5.9032928 4.9030103,5.5615577 5.4372676,5.2198228 4.902292,4.3256617 C 4.6080554,3.8338732 4.3523112,3.4152465 4.3339717,3.3953802 4.3070362,3.366202 4.2249853,3.4540487 3.907078,3.8524274 L 3.5135288,4.3455953 3.5059041,3.9917215 3.498279,3.6378473 3.9144796,3.117699 C 4.14339,2.8316174 4.3449544,2.5975505 4.3624004,2.5975505 c 0.02687,0 2.9348777,4.8102509 2.9815734,4.9319382 0.014965,0.038998 -0.1986604,0.4545612 -0.2336729,0.4545612 -0.00839,0 -0.3400081,-0.5415821 -0.7369387,-1.2035159 z"
       id="path837"
       inkscape:connector-curvature="0" />
  </g>
</svg>
