<?xml version="1.0" encoding="UTF-8" standalone="no"?>
<!-- Created with Inkscape (http://www.inkscape.org/) -->

<svg
   xmlns:dc="http://purl.org/dc/elements/1.1/"
   xmlns:cc="http://creativecommons.org/ns#"
   xmlns:rdf="http://www.w3.org/1999/02/22-rdf-syntax-ns#"
   xmlns:svg="http://www.w3.org/2000/svg"
   xmlns="http://www.w3.org/2000/svg"
   xmlns:sodipodi="http://sodipodi.sourceforge.net/DTD/sodipodi-0.dtd"
   xmlns:inkscape="http://www.inkscape.org/namespaces/inkscape"
   version="1.1"
   id="svg2"
   width="13.99943"
   height="13.99943"
   viewBox="0 0 13.99943 13.99943"
   sodipodi:docname="IMAGE_BACKGROUND.svg"
   inkscape:version="0.92.4 (5da689c313, 2019-01-14)">
  <metadata
     id="metadata8">
    <rdf:RDF>
      <cc:Work
         rdf:about="">
        <dc:format>image/svg+xml</dc:format>
        <dc:type
           rdf:resource="http://purl.org/dc/dcmitype/StillImage" />
        <dc:title></dc:title>
      </cc:Work>
    </rdf:RDF>
  </metadata>
  <defs
     id="defs6" />
  <sodipodi:namedview
     pagecolor="#ffffff"
     bordercolor="#666666"
     borderopacity="1"
     objecttolerance="10"
     gridtolerance="10"
     guidetolerance="10"
     inkscape:pageopacity="0"
     inkscape:pageshadow="2"
     inkscape:window-width="1104"
     inkscape:window-height="646"
     id="namedview4"
     showgrid="false"
     inkscape:zoom="16.85783"
     inkscape:cx="-0.88979426"
     inkscape:cy="6.9997149"
     inkscape:window-x="0"
     inkscape:window-y="0"
     inkscape:window-maximized="0"
     inkscape:current-layer="svg2" />
  <g
     id="IMAGE_BACKGROUND">
    <path
       style="fill:#ffffff;stroke-width:0.02734264"
       d="M 0,6.999715 V 0 h 6.999715 6.999715 v 6.999715 6.999715 h -1.092696 -1.092696 l -0.0078,-0.95503 c -0.0075,-0.915469 -0.01018,-0.958157 -0.06422,-1.030495 -0.03101,-0.04151 -0.09034,-0.100834 -0.131864,-0.13184 -0.07397,-0.05524 -0.107983,-0.05653 -1.6867183,-0.06385 l -1.6112291,-0.0075 v -0.259998 c 0,-0.157735 -0.014669,-0.295107 -0.037296,-0.34926 -0.040461,-0.09684 -0.1852486,-0.233152 -0.2587352,-0.243595 -0.025163,-0.0036 1.1499329,-0.01281 2.6113246,-0.02051 2.630007,-0.01386 2.657845,-0.01458 2.732574,-0.07038 0.04152,-0.03101 0.100867,-0.09035 0.131873,-0.131883 l 0.05637,-0.07551 V 5.6872684 0.71491865 l -0.05637,-0.0755078 c -0.03105,-0.0415294 -0.0904,-0.10087651 -0.131928,-0.1318826 l -0.07551,-0.0563747 H 6.999715 0.71491865 l -0.0755078,0.0563747 C 0.5978815,0.53853434 0.53853434,0.5978815 0.50752825,0.63941081 l -0.0563747,0.0755078 V 5.6872684 10.659618 l 0.0563747,0.07551 c 0.0310061,0.04153 0.0903488,0.100877 0.13187261,0.131883 0.0747287,0.0558 0.10256674,0.05652 2.73257434,0.07038 1.4613917,0.0077 2.636488,0.01693 2.6113246,0.02051 -0.073487,0.01044 -0.2182746,0.146758 -0.2587352,0.243595 -0.022627,0.05415 -0.037296,0.191525 -0.037296,0.34926 v 0.259998 l -1.6112291,0.0075 c -1.578735,0.0073 -1.6127515,0.0086 -1.6867183,0.06385 -0.041519,0.03101 -0.1008579,0.09033 -0.131864,0.13184 -0.05404,0.07234 -0.0567,0.115026 -0.06422,1.030495 l -0.00785,0.95503 H 1.0926961 0 Z"
       id="path837"
       inkscape:connector-curvature="0" />
    <path
       style="fill:#fefefe;stroke-width:0.02734264"
       d="M 0.87496437,5.6872684 V 0.87496437 H 6.999715 13.124466 V 5.6872684 10.499572 H 6.999715 0.87496437 Z m 11.37453663,0 V 1.7499287 H 6.999715 1.7499287 V 5.6872684 9.6246081 H 6.999715 12.249501 Z M 3.6141828,5.5260273 2.8672148,5.1520095 3.5840895,4.2558029 C 4.1608165,3.5348025 4.3074499,3.3666248 4.3341401,3.3955486 4.352387,3.4153223 4.6080119,3.8338008 4.9021952,4.3255007 l 0.5348791,0.894 L 4.9264549,5.544994 C 4.6456146,5.7240153 4.4035316,5.8771379 4.3884932,5.885266 4.3734547,5.8933945 4.0250149,5.7317369 3.6141828,5.5260273 Z"
       id="path835"
       inkscape:connector-curvature="0" />
    <path
       style="fill:#75b6fe;stroke-width:0.02734264"
       d="M 10.024212,7.4225847 C 9.3341681,6.2125071 8.75438,5.2224436 8.7357942,5.2224436 c -0.018586,0 -0.3325808,0.5234857 -0.6977664,1.1633015 C 7.672842,7.0255612 7.3653632,7.539261 7.3547411,7.5273002 7.3441188,7.5153397 6.6736338,6.401253 5.8647744,5.0515521 5.0559149,3.7018512 4.3798603,2.5975505 4.362431,2.5975505 c -0.017429,0 -0.6073994,0.7197949 -1.311045,1.5995442 C 2.3477409,5.0768441 1.7670581,5.796639 1.7609799,5.796639 c -0.00608,0 -0.011051,-0.9105098 -0.011051,-2.0233551 V 1.7499287 H 6.999715 12.249501 V 5.6872684 9.6246081 L 11.764169,9.6236675 11.278838,9.622727 10.024212,7.4225858 Z M 10.91741,4.7554915 c 0.21681,-0.072443 0.392751,-0.1848337 0.544172,-0.3476154 0.249854,-0.268599 0.350437,-0.52922 0.350437,-0.9080186 0,-0.3787986 -0.100583,-0.6394196 -0.350437,-0.9080186 -0.255159,-0.2743013 -0.56469,-0.404428 -0.96201,-0.404428 -0.397319,0 -0.7068504,0.1301267 -0.9620089,0.404428 -0.249854,0.268599 -0.3504372,0.52922 -0.3504372,0.9080186 0,0.5871829 0.3271293,1.0551625 0.8720501,1.247525 0.244046,0.086151 0.614204,0.089648 0.858234,0.00811 z"
       id="path833"
       inkscape:connector-curvature="0" />
    <path
       style="fill:#b8b8b8;stroke-width:0.02734264"
       d="M 2.6248931,13.124466 V 12.249501 H 4.3748219 6.1247506 V 11.812019 11.374537 H 6.999715 7.8746794 v 0.437482 0.437482 h 1.7499287 1.7499289 v 0.874965 0.874964 H 6.999715 2.6248931 Z"
       id="path831"
       inkscape:connector-curvature="0" />
    <path
       style="fill:#fdfe00;stroke-width:0.02734264"
       d="M 10.226294,4.3308724 C 9.6067764,4.1057662 9.4258925,3.3418143 9.8837108,2.8839958 10.063361,2.7043451 10.225938,2.639911 10.499572,2.639911 c 0.273635,0 0.436212,0.064434 0.615862,0.2440848 0.179651,0.1796507 0.244085,0.3422273 0.244085,0.6158617 0,0.2736344 -0.06443,0.436211 -0.244085,0.6158617 -0.224659,0.2246589 -0.607815,0.3173748 -0.88914,0.2151532 z"
       id="path829"
       inkscape:connector-curvature="0" />
    <path
       style="fill:#fec100;stroke-width:0.02734264"
       d="M 10.059176,4.7473825 C 9.5142552,4.55502 9.1871259,4.0870404 9.1871259,3.4998575 c 0,-0.3787986 0.1005832,-0.6394196 0.3504372,-0.9080186 0.2551585,-0.2743013 0.5646899,-0.404428 0.9620089,-0.404428 0.39732,0 0.706851,0.1301267 0.96201,0.404428 0.249854,0.268599 0.350437,0.52922 0.350437,0.9080186 0,0.3787986 -0.100583,0.6394196 -0.350437,0.9080186 C 11.204465,4.6842831 10.8968,4.8126437 10.4936,4.8117274 10.298723,4.8112845 10.197889,4.7963494 10.059176,4.7473825 Z M 10.868698,4.290618 c 0.172964,-0.082079 0.33763,-0.2459065 0.42379,-0.4216349 0.09624,-0.1962895 0.09624,-0.5419617 0,-0.7382512 -0.08547,-0.1743156 -0.249474,-0.3383225 -0.42379,-0.42379 -0.196289,-0.096241 -0.541962,-0.096241 -0.738251,0 -0.7107564,0.3484862 -0.6515054,1.3523747 0.09585,1.6239305 0.172556,0.062699 0.463923,0.044442 0.642404,-0.040254 z"
       id="path827"
       inkscape:connector-curvature="0" />
    <path
       style="fill:#7f7f7f;stroke-width:0.02734264"
       d="M 1.7499841,8.0865848 1.7500387,6.5485615 2.1221461,6.0837367 C 2.3268051,5.828083 2.5182438,5.5886165 2.5475653,5.5515885 L 2.6008773,5.4842655 3.46062,5.9138788 c 0.4728593,0.2362874 0.8851097,0.4296132 0.916113,0.4296132 0.031003,0 0.083245,-0.014192 0.1160927,-0.031537 0.047237,-0.024943 0.8280474,-0.5194278 1.1013956,-0.6975093 0.055265,-0.036005 0.083689,0.00658 0.7867657,1.1786686 L 7.1104158,8.0091368 6.6517616,8.8159548 6.1931072,9.6227729 3.971518,9.6236905 1.7499287,9.6246081 1.7499834,8.0865848 Z"
       id="path825"
       inkscape:connector-curvature="0" />
    <path
       style="fill:#3c983c;stroke-width:0.02734264"
       d="m 6.7308458,9.5986597 c 0.00501,-0.014272 0.4581861,-0.8118414 1.007052,-1.7723773 l 0.9979376,-1.7464289 0.9940175,1.738199 c 0.5467101,0.9560093 1.0002361,1.7535793 1.0078361,1.7723773 0.01098,0.027158 -0.400018,0.034178 -2.0010696,0.034178 -1.2592605,0 -2.0114699,-0.00973 -2.0057736,-0.025948 z"
       id="path823"
       inkscape:connector-curvature="0" />
    <path
       style="fill:#1e4c1e;stroke-width:0.02734264"
       d="m 6.2067785,9.60761 c 0,-0.049079 2.5008869,-4.3851664 2.5291939,-4.3851664 0.028307,0 2.5291936,4.3360872 2.5291936,4.3851664 0,0.00935 -0.113813,0.016869 -0.252919,0.01671 L 10.759328,9.6240328 9.7476894,7.8518956 8.7360515,6.0797583 7.7243342,7.8518819 6.7126173,9.6240052 6.4596979,9.624306 C 6.3205923,9.62447 6.2067785,9.6169587 6.2067785,9.60761 Z"
       id="path821"
       inkscape:connector-curvature="0" />
    <path
       style="fill:#000000;stroke-width:0.02734264"
       d="m 2.1932372,13.0444 c 0.00752,-0.915469 0.01018,-0.958157 0.06422,-1.030495 0.031006,-0.04151 0.090345,-0.100834 0.131864,-0.13184 0.073967,-0.05524 0.1079833,-0.05653 1.6867183,-0.06385 l 1.6112291,-0.0075 v -0.259998 c 0,-0.157735 0.014669,-0.295107 0.037296,-0.34926 0.040461,-0.09684 0.1852486,-0.233152 0.2587352,-0.243595 0.025163,-0.0036 -1.1499329,-0.01281 -2.6113246,-0.02051 -2.6300076,-0.01386 -2.65784563,-0.01458 -2.73257434,-0.07038 -0.0415238,-0.03101 -0.10086652,-0.09035 -0.13187261,-0.131883 l -0.0563747,-0.07551 V 5.6872684 0.71491865 l 0.0563747,-0.0755078 C 0.53853434,0.5978815 0.5978815,0.53853434 0.63941081,0.50752825 l 0.0755078,-0.0563747 H 6.999715 13.284511 l 0.07551,0.0563747 c 0.04153,0.0310061 0.100877,0.0903532 0.131883,0.13188256 l 0.05637,0.0755078 V 5.6872684 10.659618 l -0.05637,0.07551 c -0.03101,0.04153 -0.09035,0.100877 -0.131873,0.131883 -0.07473,0.0558 -0.102567,0.05652 -2.732574,0.07038 -1.4613919,0.0077 -2.6364882,0.01693 -2.6113248,0.02051 0.073487,0.01044 0.2182746,0.146758 0.2587352,0.243595 0.022627,0.05415 0.037296,0.191525 0.037296,0.34926 v 0.259998 l 1.6112291,0.0075 c 1.5787355,0.0073 1.6127515,0.0086 1.6867185,0.06385 0.04152,0.03101 0.100858,0.09033 0.131864,0.13184 0.05404,0.07234 0.0567,0.115026 0.06422,1.030495 l 0.0078,0.95503 h -0.219751 -0.21975 V 13.124466 12.249501 H 9.6246081 7.8746794 V 11.812019 11.374537 H 6.999715 6.1247506 v 0.437482 0.437482 H 4.3748219 2.6248931 v 0.874965 0.874964 H 2.4051426 2.1853921 Z M 13.124466,5.6872684 V 0.87496437 H 6.999715 0.87496437 V 5.6872684 10.499572 H 6.999715 13.124466 Z M 6.3733622,6.780534 C 5.6775052,5.620101 5.6496157,5.5783562 5.5942772,5.6144085 5.3209307,5.7924903 4.5400679,6.2870084 4.4928256,6.3119547 c -0.032848,0.017345 -0.085217,0.031537 -0.1163771,0.031537 -0.031159,0 -0.4379295,-0.1907149 -0.9039336,-0.4238109 C 3.0065108,5.6865849 2.6159299,5.4964573 2.604557,5.4971753 2.5931842,5.4978931 2.3993164,5.7312482 2.1737396,6.0157418 L 1.7636001,6.5330033 1.7559769,6.179364 1.7483537,5.825725 3.0396498,4.2116377 C 3.7498627,3.3238899 4.3451603,2.5975505 4.3625333,2.5975505 c 0.026782,0 2.9348922,4.8106353 2.9814405,4.9319382 0.014965,0.038998 -0.1986604,0.4545612 -0.2336729,0.4545612 -0.00839,0 -0.3400081,-0.5415821 -0.7369387,-1.2035159 z M 4.9264549,5.544994 5.4370743,5.2195007 4.9021952,4.3255007 C 4.6080119,3.8338008 4.352387,3.4153223 4.3341401,3.3955486 4.3074499,3.3666248 4.1608165,3.5348025 3.5840895,4.2558029 L 2.8672148,5.1520095 3.6141828,5.5260273 C 4.0250149,5.7317369 4.3734547,5.8933945 4.3884932,5.885266 4.4035316,5.8771379 4.6456146,5.7240153 4.9264549,5.544994 Z"
       id="path819"
       inkscape:connector-curvature="0" />
  </g>
</svg>
