<?xml version="1.0" encoding="UTF-8" standalone="no"?>
<!-- Created with Inkscape (http://www.inkscape.org/) -->

<svg
   xmlns:dc="http://purl.org/dc/elements/1.1/"
   xmlns:cc="http://creativecommons.org/ns#"
   xmlns:rdf="http://www.w3.org/1999/02/22-rdf-syntax-ns#"
   xmlns:svg="http://www.w3.org/2000/svg"
   xmlns="http://www.w3.org/2000/svg"
   xmlns:sodipodi="http://sodipodi.sourceforge.net/DTD/sodipodi-0.dtd"
   xmlns:inkscape="http://www.inkscape.org/namespaces/inkscape"
   version="1.1"
   id="svg2"
   width="16"
   height="16"
   viewBox="0 0 16 16"
   sodipodi:docname="NORMAL_ROTATE.svg"
   inkscape:version="0.92.4 (5da689c313, 2019-01-14)">
  <metadata
     id="metadata8">
    <rdf:RDF>
      <cc:Work
         rdf:about="">
        <dc:format>image/svg+xml</dc:format>
        <dc:type
           rdf:resource="http://purl.org/dc/dcmitype/StillImage" />
        <dc:title></dc:title>
      </cc:Work>
    </rdf:RDF>
  </metadata>
  <defs
     id="defs6" />
  <sodipodi:namedview
     pagecolor="#ffffff"
     bordercolor="#666666"
     borderopacity="1"
     objecttolerance="10"
     gridtolerance="10"
     guidetolerance="10"
     inkscape:pageopacity="0"
     inkscape:pageshadow="2"
     inkscape:window-width="811"
     inkscape:window-height="638"
     id="namedview4"
     showgrid="false"
     inkscape:zoom="14.75"
     inkscape:cx="8"
     inkscape:cy="8"
     inkscape:window-x="0"
     inkscape:window-y="0"
     inkscape:window-maximized="0"
     inkscape:current-layer="svg2" />
  <g
     id="NORMAL_ROTATE">
    <path
       style="fill:#ffffff;stroke-width:0.03125"
       d="M 0,8 V 0 h 8 8 v 8 8 H 8 0 Z m 8.734375,6.46806 c 1.2437475,-0.138978 2.472319,-0.659289 3.40625,-1.442577 0.967896,-0.811774 1.664466,-1.828287 2.04196,-2.979856 0.262248,-0.8000026 0.40181,-1.9393989 0.274789,-2.2434023 -0.05785,-0.1384494 -0.218352,-0.2669944 -0.362071,-0.2899759 l -0.11861,-0.018967 -0.02063,-0.2013391 C 13.892097,6.6675772 13.674956,5.9556063 13.349052,5.3016437 L 13.117826,4.8376625 13.635072,4.3171659 C 14.206986,3.7416575 14.317014,3.5733263 14.378212,3.1802394 14.518332,2.2802226 13.679876,1.4472619 12.778999,1.591507 12.394802,1.6530233 12.197513,1.78373 11.631548,2.3517092 L 11.12247,2.8625982 10.678423,2.6411194 C 10.04479,2.3250808 9.3260872,2.1072542 8.7080569,2.0439351 L 8.5067178,2.0233073 8.4877513,1.904697 C 8.4647697,1.7609783 8.3362247,1.6004736 8.1977753,1.5426258 7.8937719,1.4156051 6.7543756,1.555167 5.9543728,1.8174148 4.2944687,2.3615456 2.9048956,3.5801222 2.1423583,5.1603347 1.6995929,6.0778809 1.5005128,6.9586553 1.5005128,8 c 0,1.0404725 0.199122,1.92219 0.6408136,2.83754 0.4126369,0.855138 0.9599104,1.552093 1.7180486,2.187943 0.9167509,0.768879 2.1594147,1.301339 3.359375,1.439436 0.3336309,0.03839 1.1843466,0.04016 1.515625,0.0031 z"
       id="path829"
       inkscape:connector-curvature="0" />
    <path
       style="fill:#fefefe;stroke-width:0.03125"
       d="M 7.34375,13.964919 C 5.8109619,13.788519 4.3899206,13.027586 3.4116531,11.859375 1.44063,9.5056522 1.5509851,6.0890356 3.6704481,3.8470244 4.4617069,3.0100147 5.6474984,2.3556232 6.7850297,2.1282099 7.1547753,2.054291 7.5954859,2.0006322 7.8359375,2.0002564 L 8,2 V 2.4954223 2.9908445 L 7.6415966,3.0271802 C 6.8926159,3.1031132 6.3416275,3.2619306 5.7180941,3.5816119 4.7968628,4.0539206 4.0539206,4.7968628 3.5816119,5.7180941 3.2619306,6.3416275 3.1031133,6.8926159 3.0271802,7.6415966 2.9694882,8.2106525 3.0650353,8.9424037 3.2820791,9.59375 c 0.1346556,0.4041 0.4562215,1.020558 0.709439,1.360031 0.4554088,0.610538 1.0583978,1.122037 1.726576,1.464607 0.6235334,0.319681 1.1745218,0.478499 1.9235025,0.554432 0.5690559,0.05769 1.3008072,-0.03786 1.9521534,-0.254899 0.4041,-0.134656 1.020558,-0.456222 1.360031,-0.709439 0.610538,-0.455409 1.122037,-1.058398 1.464607,-1.726576 0.319681,-0.6235335 0.478499,-1.1745219 0.554432,-1.9235026 L 13.009155,8 H 13.504578 14 l -2.5e-4,0.1640625 c -1.56e-4,0.090234 -0.0144,0.290625 -0.03168,0.4453125 -0.23582,2.110409 -1.48835,3.887904 -3.378859,4.795018 -1.0075829,0.483461 -2.1702436,0.684265 -3.245457,0.560526 z"
       id="path827"
       inkscape:connector-curvature="0" />
    <path
       style="fill:#a9d8fe;stroke-width:0.03125"
       d="M 7.859375,8.453395 C 7.6260584,8.3701753 7.5022659,8.1336397 7.5653609,7.8916103 7.5940081,7.7817213 7.9283044,7.4355247 10.181915,5.1819147 12.435525,2.9283044 12.781721,2.5940081 12.89161,2.565361 13.243646,2.4735884 13.559382,2.790566 13.465602,3.1416103 13.437109,3.2482678 13.075269,3.6234716 10.880299,5.822395 9.4766031,7.2286184 8.2929688,8.3976281 8.25,8.4201937 8.1186047,8.4891984 7.9903231,8.5001019 7.859375,8.453395 Z"
       id="path825"
       inkscape:connector-curvature="0" />
    <path
       style="fill:#fea900;stroke-width:0.03125"
       d="M 7.65625,12.464961 C 6.5558625,12.338522 5.5638153,11.877108 4.8433538,11.156646 4.2423688,10.555661 3.7739322,9.6702106 3.6114788,8.828125 3.4876625,8.1863181 3.4876625,7.8136819 3.6114788,7.171875 3.7739322,6.3297894 4.2423688,5.4443388 4.8433538,4.8433538 5.4444631,4.2422444 6.3310384,3.7732791 7.171875,3.6116531 7.309375,3.5852228 7.5953938,3.5440672 7.8074722,3.5201963 8.2150216,3.4743241 8.2895034,3.4438156 8.4199441,3.2693228 8.4786431,3.1908 8.4852459,3.1315297 8.4941638,2.6030782 L 8.5039538,2.023024 8.7128385,2.044425 C 9.0172538,2.075613 9.5653691,2.1984037 9.9062516,2.311777 10.164765,2.397755 10.928686,2.7470758 11.062502,2.8404994 11.100552,2.8670644 10.702934,3.2808179 8.9505319,5.0381751 6.9398544,7.0545389 6.7858135,7.2166045 6.706105,7.3995226 6.461215,7.9615067 6.5820122,8.587142 7.0143588,8.9960373 7.4415857,9.4000904 8.0247957,9.4998279 8.5703694,9.2621373 8.7518513,9.1830713 8.9191325,9.0239679 10.941505,7.006922 l 2.175879,-2.1701475 0.231448,0.4644253 c 0.326406,0.6549687 0.543247,1.36618 0.607377,1.9921262 l 0.02077,0.2027219 -0.580054,0.00979 c -0.528452,0.00892 -0.587722,0.015521 -0.666245,0.07422 -0.174493,0.1304407 -0.205001,0.2049225 -0.250873,0.6124719 -0.08981,0.79788 -0.222038,1.270031 -0.515451,1.8404992 -0.439446,0.854392 -1.076934,1.49188 -1.931326,1.931326 -0.5440061,0.279803 -1.0531461,0.427531 -1.7361524,0.503749 -0.3118341,0.0348 -0.3103809,0.03481 -0.640625,-0.0031 z"
       id="path823"
       inkscape:connector-curvature="0" />
    <path
       style="fill:#264cfe;stroke-width:0.03125"
       d="M 7.741095,9.3737588 C 7.3340031,9.3053153 6.9207825,8.9930388 6.7327087,8.6117075 6.5340369,8.2088878 6.5253581,7.8144787 6.7060353,7.3995225 6.7861219,7.2155897 6.9612928,7.03296 9.4660872,4.5219469 11.961007,2.0208321 12.155316,1.8334649 12.359375,1.7320135 12.919321,1.4536269 13.57225,1.566265 13.996037,2.0143572 14.414672,2.4570017 14.506419,3.0654923 14.236531,3.609375 14.135189,3.8136003 13.949954,4.0057116 11.446803,6.5026628 8.9432863,8.9999794 8.7527097,9.1828231 8.5707113,9.2620488 8.3857066,9.3425834 8.0890647,9.4099944 7.953125,9.4023934 7.91875,9.4004716 7.8233366,9.3875856 7.741095,9.3737588 Z M 8.25,8.4201937 C 8.2929688,8.3976281 9.4766031,7.2286184 10.880299,5.822395 13.075269,3.6234716 13.437109,3.2482678 13.465602,3.1416103 13.559382,2.790566 13.243646,2.4735884 12.89161,2.565361 12.781721,2.5940081 12.435525,2.9283044 10.181915,5.1819147 7.9283044,7.4355247 7.5940081,7.7817212 7.5653609,7.8916103 7.4595166,8.2976247 7.87402,8.6176466 8.25,8.4201937 Z"
       id="path821"
       inkscape:connector-curvature="0" />
    <path
       style="fill:#000000;stroke-width:0.03125"
       d="M 7.21875,14.464919 C 6.0187897,14.326823 4.7761259,13.794362 3.859375,13.025483 3.1012368,12.389633 2.5539633,11.692678 2.1413264,10.83754 1.6996348,9.92219 1.5005128,9.0404725 1.5005128,8 c 0,-1.0413447 0.1990801,-1.9221191 0.6418455,-2.8396653 C 2.6566496,4.0945644 3.4754934,3.1671144 4.4749603,2.5183514 4.8358531,2.2840926 5.4966862,1.9683032 5.921875,1.8269206 6.8140459,1.5302585 8.0311622,1.4022582 8.2692384,1.5800559 8.4822034,1.7391003 8.484375,1.7483861 8.484375,2.5 c 0,0.6410016 -0.00395,0.6882134 -0.064431,0.769215 C 8.2896122,3.4437806 8.2150978,3.4743153 7.8074722,3.5201963 7.0095922,3.6100031 6.5374413,3.7422338 5.9669734,4.0356469 5.1125809,4.4750934 4.4750934,5.1125809 4.0356469,5.9669734 3.7544847,6.5136222 3.6073881,7.0222822 3.5313194,7.7109375 c -0.073508,0.6654728 0.1269225,1.5883203 0.5043275,2.3220895 0.4394465,0.854392 1.076934,1.49188 1.9313265,1.931326 0.5466488,0.281162 1.0553088,0.428259 1.7439641,0.504328 0.8933494,0.09868 2.1317297,-0.277217 2.9627145,-0.899298 0.55,-0.411734 0.968457,-0.909834 1.290701,-1.536356 0.293413,-0.5704682 0.425644,-1.0426192 0.515451,-1.8404992 0.04588,-0.4076256 0.07642,-0.48214 0.250981,-0.6124719 0.081,-0.060476 0.128213,-0.064431 0.769215,-0.064431 0.751614,0 0.7609,0.00217 0.919944,0.2151366 0.08258,0.110575 0.101697,0.4777271 0.05042,0.9682928 -0.232752,2.2267917 -1.609863,4.1834247 -3.630701,5.1585877 -0.674532,0.325498 -1.3762306,0.528952 -2.10529,0.610418 -0.3312784,0.03702 -1.1819941,0.03525 -1.515625,-0.0031 z M 8.609375,13.96806 c 1.626998,-0.181803 3.080453,-0.976805 4.083713,-2.233685 0.566829,-0.71012 1.003654,-1.643809 1.178702,-2.5194047 0.07392,-0.3697456 0.127578,-0.8104562 0.127954,-1.0509078 L 14,8 h -0.495422 -0.495423 l -0.03633,0.3584034 c -0.07593,0.7489807 -0.234751,1.2999691 -0.554432,1.9235026 -0.472309,0.921231 -1.215251,1.664173 -2.136482,2.136482 C 9.6583725,12.738069 9.1073841,12.896887 8.3584034,12.97282 7.7893475,13.030512 7.0575962,12.934965 6.40625,12.717921 6.00215,12.583265 5.3856916,12.261699 5.0462191,12.008482 4.4356812,11.553073 3.9241822,10.950084 3.5816119,10.281906 3.1487544,9.4376238 2.9439668,8.4623872 3.0271802,7.6415966 3.1031133,6.8926159 3.2619306,6.3416275 3.5816119,5.7180941 4.0539206,4.7968628 4.7968628,4.0539206 5.7180941,3.5816119 6.3416275,3.2619306 6.8926159,3.1031132 7.6415966,3.0271802 L 8,2.9908445 V 2.4954223 2 L 7.8359375,2.0002563 C 7.3900047,2.0009531 6.6463853,2.1322609 6.1287797,2.3017051 4.5826328,2.8078539 3.3047588,3.9327856 2.5945878,5.4129075 1.5741252,7.5397319 1.8915469,10.044121 3.4116531,11.859375 4.6741047,13.366948 6.6856494,14.18302 8.609375,13.96806 Z"
       id="path819"
       inkscape:connector-curvature="0" />
  </g>
</svg>
