<?xml version="1.0" encoding="UTF-8" standalone="no"?>
<!-- Created with Inkscape (http://www.inkscape.org/) -->

<svg
   xmlns:dc="http://purl.org/dc/elements/1.1/"
   xmlns:cc="http://creativecommons.org/ns#"
   xmlns:rdf="http://www.w3.org/1999/02/22-rdf-syntax-ns#"
   xmlns:svg="http://www.w3.org/2000/svg"
   xmlns="http://www.w3.org/2000/svg"
   xmlns:sodipodi="http://sodipodi.sourceforge.net/DTD/sodipodi-0.dtd"
   xmlns:inkscape="http://www.inkscape.org/namespaces/inkscape"
   version="1.1"
   id="svg2"
   width="16"
   height="16"
   viewBox="0 0 16 16"
   sodipodi:docname="NORMAL_TARGET.svg"
   inkscape:version="0.92.4 (5da689c313, 2019-01-14)">
  <metadata
     id="metadata8">
    <rdf:RDF>
      <cc:Work
         rdf:about="">
        <dc:format>image/svg+xml</dc:format>
        <dc:type
           rdf:resource="http://purl.org/dc/dcmitype/StillImage" />
        <dc:title></dc:title>
      </cc:Work>
    </rdf:RDF>
  </metadata>
  <defs
     id="defs6" />
  <sodipodi:namedview
     pagecolor="#ffffff"
     bordercolor="#666666"
     borderopacity="1"
     objecttolerance="10"
     gridtolerance="10"
     guidetolerance="10"
     inkscape:pageopacity="0"
     inkscape:pageshadow="2"
     inkscape:window-width="830"
     inkscape:window-height="587"
     id="namedview4"
     showgrid="false"
     inkscape:zoom="14.75"
     inkscape:cx="8"
     inkscape:cy="8"
     inkscape:window-x="0"
     inkscape:window-y="0"
     inkscape:window-maximized="0"
     inkscape:current-layer="svg2" />
  <g
     id="NORMAL_TARGET">
    <path
       style="fill:#ffffff;stroke-width:0.03125"
       d="M 0,8 V 0 h 8 8 v 8 8 H 8 0 Z m 9.109375,6.909049 c 0.7544931,-0.127973 1.314626,-0.308399 2,-0.644225 1.808321,-0.886059 3.180183,-2.581338 3.668712,-4.5336124 C 14.943943,9.0684081 14.98301,8.7383738 14.98301,8 14.98301,7.5032541 14.96843,7.2385241 14.92707,6.984375 14.772704,6.0357609 14.46895,5.1829172 14.013769,4.4201134 L 13.836514,4.123065 13.997899,3.9524241 C 14.534101,3.3854694 14.5147,2.5026279 13.954393,1.9727129 13.40315,1.4513701 12.568102,1.4490042 12.020152,1.9672328 11.928403,2.0540048 11.843464,2.125 11.831399,2.125 11.819334,2.125 11.692517,2.0546165 11.549583,1.9685921 10.832611,1.5370839 9.9492997,1.2248649 9.015625,1.0729286 8.53533,0.9947705 7.46467,0.9947705 6.984375,1.0729286 5.3888381,1.3325693 4.0520144,2.0226654 2.9663415,3.1471209 1.9428247,4.2072 1.3191844,5.4710903 1.0729286,6.984375 c -0.0781581,0.480295 -0.0781581,1.550955 0,2.03125 0.2596407,1.595537 0.9497368,2.932361 2.0741923,4.018033 1.163666,1.123531 2.5851085,1.771001 4.2747541,1.947158 0.3141512,0.03275 1.3246525,-0.01022 1.6875,-0.07177 z"
       id="path827"
       inkscape:connector-curvature="0" />
    <path
       style="fill:#a9d8fe;stroke-width:0.03125"
       d="M 7.859375,8.453395 C 7.6260584,8.3701753 7.5022659,8.1336397 7.5653609,7.8916103 7.5940081,7.7817213 7.9283044,7.4355247 10.181915,5.1819147 12.435525,2.9283044 12.781721,2.5940081 12.89161,2.565361 13.243646,2.4735884 13.559382,2.790566 13.465602,3.1416103 13.437109,3.2482678 13.075269,3.6234716 10.880299,5.822395 9.4766031,7.2286184 8.2929688,8.3976281 8.25,8.4201937 8.1186047,8.4891984 7.9903231,8.5001019 7.859375,8.453395 Z"
       id="path825"
       inkscape:connector-curvature="0" />
    <path
       style="fill:#fea900;stroke-width:0.03125"
       d="M 7.421875,14.980816 C 7.0751806,14.944671 6.6021466,14.861504 6.2687884,14.778087 3.8136863,14.163732 1.8362677,12.186314 1.2219136,9.7312116 1.0560565,9.0684081 1.0169904,8.7383737 1.0169904,8 c 0,-0.7383738 0.039066,-1.0684081 0.2049232,-1.7312116 C 1.8362677,3.8136863 3.8136863,1.8362677 6.2687884,1.2219136 6.9315919,1.0560565 7.2616262,1.0169904 8,1.0169904 c 0.7383738,0 1.0684081,0.039066 1.7312116,0.2049232 0.6252214,0.1564527 1.2752504,0.4236851 1.8295824,0.7521573 L 11.841872,2.140625 11.482255,2.5016536 11.122638,2.8626822 10.678506,2.6411614 C 8.9987925,1.8033653 7.0970128,1.7865443 5.4129075,2.5945878 4.1589078,3.1962641 3.1966691,4.1581306 2.595607,5.4107991 1.8031267,7.0624003 1.8027577,8.9367788 2.5945876,10.587093 c 0.6016763,1.253999 1.5635429,2.216238 2.8162113,2.8173 1.6516013,0.79248 3.5259797,0.79285 5.1762931,10e-4 1.254,-0.601676 2.216239,-1.563543 2.817301,-2.816211 0.673321,-1.4032626 0.777152,-2.9738451 0.294878,-4.4604216 -0.05922,-0.1825475 -0.214354,-0.5481047 -0.344738,-0.8123491 l -0.237062,-0.4804444 0.358378,-0.3583775 0.358377,-0.3583775 0.178399,0.2989654 c 0.456383,0.7648175 0.75993,1.6166525 0.914446,2.5661784 0.04136,0.2541491 0.05594,0.5188791 0.05594,1.015625 0,0.7383737 -0.03907,1.0684081 -0.204924,1.7312116 -0.488528,1.9522747 -1.860391,3.6475537 -3.668711,4.5336117 -0.997415,0.488723 -1.865237,0.698734 -2.9687501,0.718428 -0.3265625,0.0058 -0.65,0.0047 -0.71875,-0.0024 z m 0.09375,-1.999253 C 6.8336787,12.883965 6.3240031,12.738356 5.828125,12.499461 4.6115975,11.913386 3.6965644,10.872346 3.2604597,9.5782094 3.0739178,9.0246478 3.0170268,8.6558153 3.0170268,8 c 0,-0.4719403 0.012687,-0.6412775 0.069077,-0.9219594 0.4169661,-2.0754753 1.9798995,-3.6190793 4.0545214,-4.0043781 0.4638375,-0.086144 1.3180453,-0.080061 1.7813344,0.012685 0.3975694,0.07959 0.8618103,0.229989 1.2174784,0.3944243 L 10.388251,3.5958053 10.014335,3.9697209 9.6404194,4.3436366 9.3436472,4.2377759 C 8.8500078,4.0616909 8.5817313,4.0177625 8,4.0177625 c -0.3824322,0 -0.5842394,0.014792 -0.78125,0.057263 C 5.61921,4.41985 4.41985,5.61921 4.0750253,7.21875 c -0.080069,0.371415 -0.080069,1.191085 0,1.5625 0.3448247,1.59954 1.5441847,2.7989 3.1437247,3.143725 0.1970106,0.04247 0.3988178,0.05726 0.78125,0.05726 0.3824322,0 0.5842394,-0.01479 0.78125,-0.05726 1.59956,-0.344829 2.797413,-1.542596 3.143952,-3.143725 0.04365,-0.2016681 0.05712,-0.3935384 0.05596,-0.796875 -0.0017,-0.5983913 -0.05072,-0.8818344 -0.239169,-1.3835428 L 11.635327,6.3168481 11.99782,5.9552991 C 12.197192,5.7564472 12.368693,5.59375 12.378933,5.59375 c 0.03193,0 0.249927,0.5008516 0.360401,0.8280406 C 12.925962,6.9745228 12.982973,7.3438244 12.982973,8 c 0,0.4719403 -0.01269,0.6412775 -0.06908,0.9219594 -0.410595,2.0437626 -1.932258,3.5744066 -3.9624751,3.9858616 -0.2996566,0.06073 -1.2026591,0.107108 -1.4357969,0.07374 z M 7.4794241,10.955879 C 6.4543994,10.7602 5.5978366,10.064153 5.2210512,9.1207128 5.0565278,8.70876 5.0186175,8.49888 5.0186175,8 c 0,-0.49888 0.03791,-0.70876 0.2024337,-1.1207128 C 5.736115,5.5896094 7.1345144,4.8059962 8.4963222,5.0439425 8.6575806,5.0721187 8.8030909,5.10356 8.8196784,5.1138116 8.8362656,5.1240631 8.3869203,5.5983525 7.8211328,6.1677878 6.8965959,7.0982859 6.7837766,7.2228969 6.7069866,7.3983822 6.4687319,7.9428578 6.5684853,8.5269816 6.9727128,8.9543928 7.3823391,9.3875122 8.0079078,9.5078684 8.5703678,9.2617738 8.7460334,9.1849141 8.87115,9.0714806 9.8173347,8.1312425 l 1.0517093,-1.0450994 0.05767,0.245991 c 0.07685,0.3278437 0.07728,1.0275872 8.18e-4,1.3354537 -0.276268,1.1123516 -1.1031793,1.9538762 -2.204203,2.2431562 -0.3109278,0.08169 -0.9339778,0.104299 -1.2439016,0.04514 z"
       id="path823"
       inkscape:connector-curvature="0" />
    <path
       style="fill:#264cfe;stroke-width:0.03125"
       d="M 7.741095,9.3737588 C 7.3340031,9.3053153 6.9207825,8.9930388 6.7327087,8.6117075 6.5340369,8.2088878 6.5253581,7.8144787 6.7060353,7.3995225 6.7861219,7.2155897 6.9612928,7.03296 9.4660872,4.5219469 11.961007,2.0208321 12.155316,1.8334649 12.359375,1.7320135 12.919321,1.4536269 13.57225,1.566265 13.996037,2.0143572 14.414672,2.4570017 14.506419,3.0654923 14.236531,3.609375 14.135189,3.8136003 13.949954,4.0057116 11.446803,6.5026628 8.9432863,8.9999794 8.7527097,9.1828231 8.5707113,9.2620488 8.3857066,9.3425834 8.0890647,9.4099944 7.953125,9.4023934 7.91875,9.4004716 7.8233366,9.3875856 7.741095,9.3737588 Z M 8.25,8.4201937 C 8.2929688,8.3976281 9.4766031,7.2286184 10.880299,5.822395 13.075269,3.6234716 13.437109,3.2482678 13.465602,3.1416103 13.559382,2.790566 13.243646,2.4735884 12.89161,2.565361 12.781721,2.5940081 12.435525,2.9283044 10.181915,5.1819147 7.9283044,7.4355247 7.5940081,7.7817212 7.5653609,7.8916103 7.4595166,8.2976247 7.87402,8.6176466 8.25,8.4201937 Z"
       id="path821"
       inkscape:connector-curvature="0" />
    <path
       style="fill:#323232;stroke-width:0.03125"
       d="M 7.34375,13.964919 C 5.8109619,13.788519 4.3899206,13.027586 3.4116531,11.859375 1.8915469,10.044121 1.5741252,7.5397319 2.5945878,5.4129075 3.1962641,4.1589078 4.1581306,3.1966691 5.4107991,2.595607 6.8142716,1.9221852 8.3879553,1.8182764 9.8712203,2.3010898 10.20043,2.40825 11.09375,2.8224648 11.09375,2.8679528 c 0,0.013031 -0.15884,0.1820807 -0.352977,0.3756672 L 10.387796,3.5955956 10.139211,3.4806675 C 9.7843084,3.3165859 9.3198941,3.1660494 8.9219594,3.0861036 8.429615,2.9871909 7.570385,2.9871909 7.0780406,3.0861036 5.0025653,3.5030697 3.4589613,5.0660031 3.0736625,7.140625 c -0.080611,0.4340447 -0.080611,1.2847053 0,1.71875 0.3406553,1.834242 1.5967981,3.289993 3.3481281,3.880165 C 6.9753522,12.926082 7.3441847,12.982973 8,12.982973 c 0.4719403,0 0.6412775,-0.01269 0.9219594,-0.06908 2.0754756,-0.416967 3.6190796,-1.9799 4.0043786,-4.054522 0.08061,-0.4340447 0.08061,-1.2847053 0,-1.71875 -0.07414,-0.3991738 -0.240932,-0.9212709 -0.410692,-1.2855181 l -0.133067,-0.2855182 0.36755,-0.3665925 0.36755,-0.3665928 0.236958,0.480236 c 0.437358,0.88638 0.64485,1.7498 0.64485,2.6833606 0,1.7577663 -0.794781,3.461758 -2.140112,4.588347 -1.251181,1.047747 -2.9288631,1.559182 -4.515625,1.376572 z M 7.5625,11.980521 C 5.8128841,11.757808 4.4464812,10.504325 4.0750253,8.78125 c -0.080069,-0.371415 -0.080069,-1.191085 0,-1.5625 C 4.41985,5.61921 5.61921,4.41985 7.21875,4.0750253 c 0.371415,-0.080069 1.191085,-0.080069 1.5625,0 C 9.0415984,4.1311503 9.5558047,4.2972616 9.601015,4.339845 9.613605,4.351703 9.4518859,4.5324434 9.24164,4.7414903 L 8.859375,5.1215753 8.65625,5.0701284 c -0.28489,-0.072156 -1.0313319,-0.071001 -1.3238378,0.00205 -1.1136359,0.2781153 -1.9398303,1.08906 -2.2459528,2.2044978 -0.094391,0.3439366 -0.094391,1.1027147 0,1.4466513 0.3061178,1.11542 1.1307365,1.9249125 2.2459528,2.2047535 0.3217559,0.08074 1.0705059,0.07277 1.3909134,-0.01481 1.1140572,-0.304496 1.9280534,-1.1338113 2.2042034,-2.2456853 0.07652,-0.3080825 0.07604,-1.0075978 -9.19e-4,-1.3359069 L 10.868844,7.0852356 11.238622,6.7144922 C 11.441998,6.5105847 11.617835,6.34375 11.629368,6.34375 c 0.03408,0 0.214472,0.5241663 0.285005,0.828125 0.08962,0.3862059 0.09522,1.2194406 0.01083,1.609375 -0.342021,1.580255 -1.51516,2.771232 -3.081452,3.128305 -0.2608869,0.05948 -1.0347784,0.10234 -1.28125,0.07097 z"
       id="path819"
       inkscape:connector-curvature="0" />
  </g>
</svg>
