<?xml version="1.0" encoding="UTF-8" standalone="no"?>
<!-- Created with Inkscape (http://www.inkscape.org/) -->

<svg
   width="200.30469mm"
   height="37.29974mm"
   viewBox="0 0 200.30468 37.29974"
   version="1.1"
   id="svg4686"
   inkscape:version="1.2.2 (732a01da63, 2022-12-09)"
   sodipodi:docname="Logo_04 - EDIT.svg"
   inkscape:export-filename="Logo_03_wide-1024px.png"
   inkscape:export-xdpi="129.85019"
   inkscape:export-ydpi="129.85019"
   xml:space="preserve"
   xmlns:inkscape="http://www.inkscape.org/namespaces/inkscape"
   xmlns:sodipodi="http://sodipodi.sourceforge.net/DTD/sodipodi-0.dtd"
   xmlns:xlink="http://www.w3.org/1999/xlink"
   xmlns="http://www.w3.org/2000/svg"
   xmlns:svg="http://www.w3.org/2000/svg"
   xmlns:rdf="http://www.w3.org/1999/02/22-rdf-syntax-ns#"
   xmlns:cc="http://creativecommons.org/ns#"
   xmlns:dc="http://purl.org/dc/elements/1.1/"><defs
     id="defs4680"><radialGradient
       id="_Radial31"
       cx="0"
       cy="0"
       r="1"
       gradientUnits="userSpaceOnUse"
       gradientTransform="matrix(32.5002,211.66,-165.58,25.4246,2598.24,613.038)"><stop
         offset="0"
         style="stop-color:rgb(181,221,255);stop-opacity:1"
         id="stop418" /><stop
         offset="0.5"
         style="stop-color:rgb(54,121,176);stop-opacity:1"
         id="stop420" /><stop
         offset="1"
         style="stop-color:rgb(0,45,82);stop-opacity:1"
         id="stop422" /></radialGradient><radialGradient
       id="_Radial32"
       cx="0"
       cy="0"
       r="1"
       gradientUnits="userSpaceOnUse"
       gradientTransform="matrix(-90.5469,30.0174,-86.4422,-260.751,2645.29,662.089)"><stop
         offset="0"
         style="stop-color:rgb(87,176,250);stop-opacity:1"
         id="stop425" /><stop
         offset="0.5"
         style="stop-color:rgb(64,139,201);stop-opacity:1"
         id="stop427" /><stop
         offset="1"
         style="stop-color:rgb(0,56,103);stop-opacity:1"
         id="stop429" /></radialGradient><radialGradient
       id="_Radial33"
       cx="0"
       cy="0"
       r="1"
       gradientUnits="userSpaceOnUse"
       gradientTransform="matrix(147.406,-220.698,129.919,86.7737,2548.71,800.452)"><stop
         offset="0"
         style="stop-color:rgb(5,61,108);stop-opacity:1"
         id="stop432" /><stop
         offset="0.5"
         style="stop-color:rgb(107,174,229);stop-opacity:1"
         id="stop434" /><stop
         offset="1"
         style="stop-color:rgb(0,46,84);stop-opacity:1"
         id="stop436" /></radialGradient><linearGradient
       id="_Linear34"
       x1="0"
       y1="0"
       x2="1"
       y2="0"
       gradientUnits="userSpaceOnUse"
       gradientTransform="matrix(25.0148,33.8435,-33.8435,25.0148,3040.27,835.733)"><stop
         offset="0"
         style="stop-color:white;stop-opacity:1"
         id="stop439" /><stop
         offset="1"
         style="stop-color:rgb(179,179,179);stop-opacity:0"
         id="stop441" /></linearGradient><radialGradient
       id="_Radial35"
       cx="0"
       cy="0"
       r="1"
       gradientUnits="userSpaceOnUse"
       gradientTransform="matrix(113.425,80.9301,-56.9798,79.858,2877.06,1053.51)"><stop
         offset="0"
         style="stop-color:white;stop-opacity:1"
         id="stop444" /><stop
         offset="1"
         style="stop-color:white;stop-opacity:0"
         id="stop446" /></radialGradient><linearGradient
       id="_Linear36"
       x1="0"
       y1="0"
       x2="1"
       y2="0"
       gradientUnits="userSpaceOnUse"
       gradientTransform="matrix(188.585,-71.2531,71.2531,188.585,2487.96,716.381)"><stop
         offset="0"
         style="stop-color:rgb(21,70,124);stop-opacity:1"
         id="stop449" /><stop
         offset="0.21"
         style="stop-color:rgb(218,234,246);stop-opacity:1"
         id="stop451" /><stop
         offset="1"
         style="stop-color:rgb(103,177,233);stop-opacity:1"
         id="stop453" /></linearGradient><linearGradient
       id="_Linear37"
       x1="0"
       y1="0"
       x2="1"
       y2="0"
       gradientUnits="userSpaceOnUse"
       gradientTransform="matrix(201.904,-9.25605,9.25605,201.904,2482.82,711.279)"><stop
         offset="0"
         style="stop-color:rgb(22,108,193);stop-opacity:1"
         id="stop456" /><stop
         offset="1"
         style="stop-color:white;stop-opacity:1"
         id="stop458" /></linearGradient><radialGradient
       id="_Radial38"
       cx="0"
       cy="0"
       r="1"
       gradientUnits="userSpaceOnUse"
       gradientTransform="matrix(-0.399467,6.9867,-12.3585,-0.706604,4707.12,-1277.38)"><stop
         offset="0"
         style="stop-color:white;stop-opacity:0.109804"
         id="stop461" /><stop
         offset="1"
         style="stop-color:white;stop-opacity:0"
         id="stop463" /></radialGradient><linearGradient
       id="_Linear39"
       x1="0"
       y1="0"
       x2="1"
       y2="0"
       gradientUnits="userSpaceOnUse"
       gradientTransform="matrix(-119.634,123.819,-121.807,-121.61,3100.04,798.461)"><stop
         offset="0"
         style="stop-color:white;stop-opacity:0"
         id="stop466" /><stop
         offset="0.5"
         style="stop-color:rgb(217,217,217);stop-opacity:0.392157"
         id="stop468" /><stop
         offset="1"
         style="stop-color:rgb(179,179,179);stop-opacity:0"
         id="stop470" /></linearGradient><radialGradient
       id="_Radial40"
       cx="0"
       cy="0"
       r="1"
       gradientUnits="userSpaceOnUse"
       gradientTransform="matrix(-9.99821,-7.75987,7.75987,-9.99821,4741.56,-1268.3)"><stop
         offset="0"
         style="stop-color:white;stop-opacity:0.227451"
         id="stop473" /><stop
         offset="1"
         style="stop-color:white;stop-opacity:0"
         id="stop475" /></radialGradient><radialGradient
       id="_Radial41"
       cx="0"
       cy="0"
       r="1"
       gradientUnits="userSpaceOnUse"
       gradientTransform="matrix(7.45591,-21.603,21.603,7.45591,4727.27,-1258.02)"><stop
         offset="0"
         style="stop-color:white;stop-opacity:0.0941176"
         id="stop478" /><stop
         offset="0.44"
         style="stop-color:white;stop-opacity:0.0666667"
         id="stop480" /><stop
         offset="1"
         style="stop-color:white;stop-opacity:0"
         id="stop482" /></radialGradient><linearGradient
       id="_Linear42"
       x1="0"
       y1="0"
       x2="1"
       y2="0"
       gradientUnits="userSpaceOnUse"
       gradientTransform="matrix(116.245,73.5728,-73.5728,116.245,3135.91,991.707)"><stop
         offset="0"
         style="stop-color:white;stop-opacity:1"
         id="stop485" /><stop
         offset="1"
         style="stop-color:rgb(179,179,179);stop-opacity:0"
         id="stop487" /></linearGradient><linearGradient
       id="_Linear43"
       x1="0"
       y1="0"
       x2="1"
       y2="0"
       gradientUnits="userSpaceOnUse"
       gradientTransform="matrix(261.959,6.15867,-6.15867,261.959,2461.45,699.831)"><stop
         offset="0"
         style="stop-color:rgb(11,66,122);stop-opacity:1"
         id="stop490" /><stop
         offset="0.28"
         style="stop-color:rgb(181,205,233);stop-opacity:0.639216"
         id="stop492" /><stop
         offset="0.55"
         style="stop-color:rgb(114,157,209);stop-opacity:0.533333"
         id="stop494" /><stop
         offset="0.8"
         style="stop-color:rgb(186,210,239);stop-opacity:1"
         id="stop496" /><stop
         offset="1"
         style="stop-color:rgb(113,170,240);stop-opacity:0"
         id="stop498" /></linearGradient><radialGradient
       id="_Radial31-7"
       cx="0"
       cy="0"
       r="1"
       gradientUnits="userSpaceOnUse"
       gradientTransform="matrix(32.5002,211.66,-165.58,25.4246,2598.24,613.038)"><stop
         offset="0"
         style="stop-color:rgb(181,221,255);stop-opacity:1"
         id="stop418-9" /><stop
         offset="0.5"
         style="stop-color:rgb(54,121,176);stop-opacity:1"
         id="stop420-0" /><stop
         offset="1"
         style="stop-color:rgb(0,45,82);stop-opacity:1"
         id="stop422-0" /></radialGradient><radialGradient
       id="_Radial32-3"
       cx="0"
       cy="0"
       r="1"
       gradientUnits="userSpaceOnUse"
       gradientTransform="matrix(-90.5469,30.0174,-86.4422,-260.751,2645.29,662.089)"><stop
         offset="0"
         style="stop-color:rgb(87,176,250);stop-opacity:1"
         id="stop425-4" /><stop
         offset="0.5"
         style="stop-color:rgb(64,139,201);stop-opacity:1"
         id="stop427-4" /><stop
         offset="1"
         style="stop-color:rgb(0,56,103);stop-opacity:1"
         id="stop429-7" /></radialGradient><radialGradient
       id="_Radial33-2"
       cx="0"
       cy="0"
       r="1"
       gradientUnits="userSpaceOnUse"
       gradientTransform="matrix(147.406,-220.698,129.919,86.7737,2548.71,800.452)"><stop
         offset="0"
         style="stop-color:rgb(5,61,108);stop-opacity:1"
         id="stop432-8" /><stop
         offset="0.5"
         style="stop-color:rgb(107,174,229);stop-opacity:1"
         id="stop434-6" /><stop
         offset="1"
         style="stop-color:rgb(0,46,84);stop-opacity:1"
         id="stop436-3" /></radialGradient><linearGradient
       id="_Linear34-5"
       x1="0"
       y1="0"
       x2="1"
       y2="0"
       gradientUnits="userSpaceOnUse"
       gradientTransform="matrix(25.0148,33.8435,-33.8435,25.0148,3040.27,835.733)"><stop
         offset="0"
         style="stop-color:white;stop-opacity:1"
         id="stop439-4" /><stop
         offset="1"
         style="stop-color:rgb(179,179,179);stop-opacity:0"
         id="stop441-1" /></linearGradient><radialGradient
       id="_Radial35-9"
       cx="0"
       cy="0"
       r="1"
       gradientUnits="userSpaceOnUse"
       gradientTransform="matrix(113.425,80.9301,-56.9798,79.858,2877.06,1053.51)"><stop
         offset="0"
         style="stop-color:white;stop-opacity:1"
         id="stop444-8" /><stop
         offset="1"
         style="stop-color:white;stop-opacity:0"
         id="stop446-8" /></radialGradient><linearGradient
       id="_Linear36-6"
       x1="0"
       y1="0"
       x2="1"
       y2="0"
       gradientUnits="userSpaceOnUse"
       gradientTransform="matrix(188.585,-71.2531,71.2531,188.585,2487.96,716.381)"><stop
         offset="0"
         style="stop-color:rgb(21,70,124);stop-opacity:1"
         id="stop449-6" /><stop
         offset="0.21"
         style="stop-color:rgb(218,234,246);stop-opacity:1"
         id="stop451-3" /><stop
         offset="1"
         style="stop-color:rgb(103,177,233);stop-opacity:1"
         id="stop453-3" /></linearGradient><linearGradient
       id="_Linear37-2"
       x1="0"
       y1="0"
       x2="1"
       y2="0"
       gradientUnits="userSpaceOnUse"
       gradientTransform="matrix(201.904,-9.25605,9.25605,201.904,2482.82,711.279)"><stop
         offset="0"
         style="stop-color:rgb(22,108,193);stop-opacity:1"
         id="stop456-3" /><stop
         offset="1"
         style="stop-color:white;stop-opacity:1"
         id="stop458-1" /></linearGradient><radialGradient
       id="_Radial38-4"
       cx="0"
       cy="0"
       r="1"
       gradientUnits="userSpaceOnUse"
       gradientTransform="matrix(-0.399467,6.9867,-12.3585,-0.706604,4707.12,-1277.38)"><stop
         offset="0"
         style="stop-color:white;stop-opacity:0.109804"
         id="stop461-4" /><stop
         offset="1"
         style="stop-color:white;stop-opacity:0"
         id="stop463-0" /></radialGradient><linearGradient
       id="_Linear39-1"
       x1="0"
       y1="0"
       x2="1"
       y2="0"
       gradientUnits="userSpaceOnUse"
       gradientTransform="matrix(-119.634,123.819,-121.807,-121.61,3100.04,798.461)"><stop
         offset="0"
         style="stop-color:white;stop-opacity:0"
         id="stop466-8" /><stop
         offset="0.5"
         style="stop-color:rgb(217,217,217);stop-opacity:0.392157"
         id="stop468-1" /><stop
         offset="1"
         style="stop-color:rgb(179,179,179);stop-opacity:0"
         id="stop470-4" /></linearGradient><radialGradient
       id="_Radial40-8"
       cx="0"
       cy="0"
       r="1"
       gradientUnits="userSpaceOnUse"
       gradientTransform="matrix(-9.99821,-7.75987,7.75987,-9.99821,4741.56,-1268.3)"><stop
         offset="0"
         style="stop-color:white;stop-opacity:0.227451"
         id="stop473-0" /><stop
         offset="1"
         style="stop-color:white;stop-opacity:0"
         id="stop475-9" /></radialGradient><radialGradient
       id="_Radial41-3"
       cx="0"
       cy="0"
       r="1"
       gradientUnits="userSpaceOnUse"
       gradientTransform="matrix(7.45591,-21.603,21.603,7.45591,4727.27,-1258.02)"><stop
         offset="0"
         style="stop-color:white;stop-opacity:0.0941176"
         id="stop478-5" /><stop
         offset="0.44"
         style="stop-color:white;stop-opacity:0.0666667"
         id="stop480-5" /><stop
         offset="1"
         style="stop-color:white;stop-opacity:0"
         id="stop482-9" /></radialGradient><linearGradient
       id="_Linear42-3"
       x1="0"
       y1="0"
       x2="1"
       y2="0"
       gradientUnits="userSpaceOnUse"
       gradientTransform="matrix(116.245,73.5728,-73.5728,116.245,3135.91,991.707)"><stop
         offset="0"
         style="stop-color:white;stop-opacity:1"
         id="stop485-8" /><stop
         offset="1"
         style="stop-color:rgb(179,179,179);stop-opacity:0"
         id="stop487-5" /></linearGradient><linearGradient
       id="_Linear43-3"
       x1="0"
       y1="0"
       x2="1"
       y2="0"
       gradientUnits="userSpaceOnUse"
       gradientTransform="matrix(261.959,6.15867,-6.15867,261.959,2461.45,699.831)"><stop
         offset="0"
         style="stop-color:rgb(11,66,122);stop-opacity:1"
         id="stop490-8" /><stop
         offset="0.28"
         style="stop-color:rgb(181,205,233);stop-opacity:0.639216"
         id="stop492-5" /><stop
         offset="0.55"
         style="stop-color:rgb(114,157,209);stop-opacity:0.533333"
         id="stop494-7" /><stop
         offset="0.8"
         style="stop-color:rgb(186,210,239);stop-opacity:1"
         id="stop496-1" /><stop
         offset="1"
         style="stop-color:rgb(113,170,240);stop-opacity:0"
         id="stop498-3" /></linearGradient></defs><sodipodi:namedview
     id="base"
     pagecolor="#ffffff"
     bordercolor="#666666"
     borderopacity="1.0"
     inkscape:pageopacity="0.0"
     inkscape:pageshadow="2"
     inkscape:zoom="0.86590695"
     inkscape:cx="292.1792"
     inkscape:cy="-86.614387"
     inkscape:document-units="mm"
     inkscape:current-layer="g4497"
     showgrid="false"
     fit-margin-top="0"
     fit-margin-left="0"
     fit-margin-right="0"
     fit-margin-bottom="0"
     inkscape:window-width="1920"
     inkscape:window-height="1009"
     inkscape:window-x="2552"
     inkscape:window-y="-8"
     inkscape:window-maximized="1"
     inkscape:showpageshadow="0"
     inkscape:pagecheckerboard="1"
     inkscape:deskcolor="#d1d1d1"><inkscape:page
       x="0"
       y="-1.8755596e-06"
       width="203.5294"
       height="37.299744"
       id="page914"
       inkscape:export-filename="Logo_04_wide-1024px.png"
       inkscape:export-xdpi="129.85019"
       inkscape:export-ydpi="129.85019" /><inkscape:page
       x="-14.309036"
       y="54.731259"
       width="201.78522"
       height="37.941997"
       id="page916"
       inkscape:export-filename="Logo_03_wide-white_1024px.png"
       inkscape:export-xdpi="128.89745"
       inkscape:export-ydpi="128.89745" /></sodipodi:namedview><metadata
     id="metadata4683"><rdf:RDF><cc:Work
         rdf:about=""><dc:format>image/svg+xml</dc:format><dc:type
           rdf:resource="http://purl.org/dc/dcmitype/StillImage" /></cc:Work></rdf:RDF></metadata><g
     inkscape:label="Layer 1"
     inkscape:groupmode="layer"
     id="layer1"
     transform="translate(-32.955039,-114.5969)"><g
       id="g4635"
       transform="matrix(0.84573523,0,0,0.84573523,32.333028,107.50014)"><g
         transform="matrix(0.47764881,0,0,0.47764881,-80.774366,36.873417)"
         id="g4590"><g
           id="g4497"><g
             id="g988"><path
               id="path1870"
               style="fill:#083860;fill-opacity:1;stroke-width:0.382681"
               d="m 376.61211,-23.428979 -11.67172,0.01279 -2.15678,1.01571 c -1.18655,0.558847 -2.49087,1.500894 -2.89874,2.092824 -0.40789,0.59193 -0.98114,1.673905 -1.27284,2.403678 -0.37972,0.94998 -0.53412,3.232465 -0.54112,8.0361367 -0.008,4.9154731 0.13458,7.0676693 0.53089,8.0489293 0.29751,0.7366613 0.87826,1.82829249 1.29074,2.42670359 0.4125,0.59841241 1.54479,1.43587411 2.51625,1.86000371 0.97148,0.4241246 2.62796,0.9112839 3.68035,1.0835097 1.05237,0.1722228 6.56201,0.2711879 12.24481,0.220028 9.08677,-0.081817 10.54101,-0.1794635 12.05549,-0.8084748 0.94713,-0.3933806 2.18457,-1.0516121 2.75035,-1.4634417 0.56577,-0.4118296 1.38381,-1.57394193 1.81779,-2.5827699 0.70277,-1.6336044 0.78733,-2.6012978 0.78033,-8.8433326 -0.007,-6.008768 -0.11012,-7.232301 -0.72149,-8.578531 -0.3922,-0.863639 -1.17131,-1.994898 -1.7308,-2.513692 -0.55949,-0.518791 -1.91296,-1.275589 -3.00875,-1.68219 -1.81116,-0.672055 -3.05446,-0.739123 -13.66476,-0.727883 z m 0.38249,5.536517 c 6.08825,0 8.37902,0.13299 9.35886,0.542394 0.71352,0.298135 1.61218,1.022142 1.99688,1.609274 0.58394,0.891156 0.69974,1.864363 0.69974,5.885748 0,4.021386 -0.11582,4.9933133 -0.69974,5.8844684 -0.3847,0.5871314 -1.28336,1.3111394 -1.99688,1.6092741 -0.98567,0.4118346 -3.25421,0.5384337 -9.44201,0.5270437 -6.05783,-0.011144 -8.45526,-0.1506231 -9.35887,-0.5436737 -0.66815,-0.2906347 -1.5295,-1.007533 -1.91373,-1.5939234 -0.58289,-0.8895441 -0.69846,-1.8640191 -0.69846,-5.8831891 0,-4.021385 0.11583,-4.994592 0.69974,-5.885748 0.3847,-0.587132 1.28335,-1.311139 1.99688,-1.609274 0.97985,-0.409401 3.26933,-0.542394 9.35759,-0.542394 z" /><path
               id="path837"
               style="fill:#216299;stroke-width:0.382681;fill-opacity:1"
               d="m 444.82505,-24.010192 c -10.30407,-0.0048 -11.65233,0.07758 -11.65233,0.07758 l 0.0303,6.197044 c 0,0 4.3938,-0.156804 11.92294,-0.08137 10.91645,0.109382 11.74189,0.16615 12.98256,0.895024 1.0007,0.587886 1.39997,1.139294 1.63111,2.251751 0.20063,0.965595 -0.0391,2.608438 -0.0391,2.608438 0,0 -2.73131,-0.08988 -11.80439,-0.08988 h -11.28146 c -2.80563,-0.0095 -4.17254,1.692564 -4.66828,3.3935434 l -0.0907,2.9624479 c -0.0339,1.1084393 0.0279,4.81917225 0.0279,4.81917225 -0.0287,3.66759355 2.99866,4.77162535 5.95723,4.90687645 0.73665,0.1573 6.9393,0.305062 13.78299,0.329247 11.42171,0.0404 12.55159,-0.01493 13.76217,-0.664172 0.92073,-0.493791 1.42202,-1.09883 1.66137,-2.007653 0.18806,-0.71597498 0.27228,-5.2635847 0.18545,-10.1044937 -0.15621,-8.7160863 -0.0678,-7.6157483 -0.0678,-7.6157483 0.0998,-4.100276 -4.58005,-7.891217 -9.42691,-7.891217 0,0 -3.81643,0.0177 -12.91309,0.01341 z m -4.62272,16.4377803 9.82256,0.102179 8.45607,0.1228565 c 0.81668,0 1.33814,0.2023349 1.31747,0.7192228 l 0.0149,1.8770517 c 0.007,0.9062211 0.0403,2.0367007 0.0403,2.0367007 -0.0444,0.5444596 -0.34334,1.0210652 -1.18227,0.9951076 -0.35253,-0.010908 -3.8898,-0.0263 -8.62547,-0.036358 -4.73568,-0.01012 -8.91711,-0.1764416 -9.38951,-0.060605 -1.11267,0.2728383 -1.83184,-0.7438392 -1.84782,-1.3331861 l -0.0774,-2.8551559 c 0.2214,-1.1985858 0.68675,-1.4246854 1.47114,-1.567813 z"
               sodipodi:nodetypes="sccssscsccsccssccccssccccssscssccc" /><g
               style="clip-rule:evenodd;display:inline;fill-rule:evenodd;stroke-width:1.36187;stroke-linejoin:round;stroke-miterlimit:1.41421;enable-background:new"
               id="bfa_icon "
               transform="matrix(1.3433741,0,0,1.3285526,-8143.8266,2045.3177)"><g
                 id="g132"
                 transform="matrix(0.158601,0,0,0.158601,5832.35,-1648.68)"
                 style="stroke-width:1.36187"><path
                   inkscape:connector-curvature="0"
                   id="path130"
                   style="fill:url(#_Radial31);stroke-width:1.36187"
                   d="m 2534.57,823.66 c -25.75,-18.393 -44.93,-36.038 -44.93,-36.038 0,0 15.9,-9.968 24.83,-19.313 47.42,21.123 63.68,20.419 68.05,13.335 5.59,-9.062 -2.94,-30.533 -10.3,-47.086 -7.36,-16.554 -34.12,-64.156 -38.9,-81.446 -4.79,-17.289 -14.81,-65.332 19.77,-82.99 34.58,-17.657 62.63,4.635 80.43,23.235 14.74,15.407 43.54,69.467 46.49,129.797 2.94,60.329 -28.1,93.231 -49.67,107.416 -26.41,17.369 -68.12,14.011 -95.77,-6.91" /></g><g
                 id="g136"
                 transform="matrix(-0.0793003,-0.137352,0.137352,-0.0793003,6337.06,-1154.88)"
                 style="stroke-width:1.36187"><path
                   inkscape:connector-curvature="0"
                   id="path134"
                   style="fill:url(#_Radial32);stroke-width:1.36187"
                   d="m 2534.57,823.66 c -25.75,-18.393 -44.93,-36.038 -44.93,-36.038 0,0 15.9,-9.968 24.83,-19.313 47.42,21.123 63.46,21.89 68.05,13.335 3.39,-6.308 -2.94,-30.533 -10.3,-47.086 -7.36,-16.554 -34.12,-64.156 -38.9,-81.446 -4.79,-17.289 -14.81,-65.332 19.77,-82.99 34.58,-17.657 65.76,8.436 80.43,23.235 26.24,26.469 43.54,69.467 46.49,129.797 2.94,60.329 -28.1,93.231 -49.67,107.416 -26.41,17.369 -58.61,19.529 -95.77,-6.91" /></g><g
                 id="g140"
                 transform="matrix(-0.0793003,0.137352,-0.137352,-0.0793003,6512.27,-1838.8)"
                 style="stroke-width:1.36187"><path
                   inkscape:connector-curvature="0"
                   id="path138"
                   style="fill:url(#_Radial33);stroke-width:1.36187"
                   d="m 2534.57,823.66 c -25.75,-18.393 -44.93,-36.038 -44.93,-36.038 0,0 15.9,-9.968 24.83,-19.313 47.42,21.123 63.2,20.098 68.05,13.335 6.05,-8.435 -2.94,-30.533 -10.3,-47.086 -7.36,-16.554 -34.12,-64.156 -38.9,-81.446 -4.79,-17.289 -14.81,-65.332 19.77,-82.99 34.58,-17.657 62.78,2.406 80.43,23.235 13.79,16.268 43.54,69.467 46.49,129.797 2.94,60.329 -28.1,93.231 -49.67,107.416 -26.41,17.369 -67.58,14.451 -95.77,-6.91" /></g><g
                 id="g144"
                 transform="matrix(0.158601,0,0,0.158601,5741.15,-1708.23)"
                 style="stroke-width:1.36187"><path
                   inkscape:connector-curvature="0"
                   id="path142"
                   style="fill:url(#_Linear34);stroke-width:1.36187"
                   d="m 2971.84,968.9 c 6.41,-2.607 95.05,-166.393 155.98,-159.653 68.2,7.543 -32.37,-47.823 -117.72,36.05 -43.38,42.638 -50.03,77.252 -48.56,97.852 1.48,20.601 10.3,25.751 10.3,25.751 z" /></g><g
                 id="g148"
                 transform="matrix(0.158601,0,0,0.158601,5741.85,-1708.58)"
                 style="stroke-width:1.36187"><path
                   inkscape:connector-curvature="0"
                   id="path146"
                   style="fill:url(#_Radial35);stroke-width:1.36187"
                   d="m 2891.77,967.06 c 0,0 -39.51,16.614 -50.88,44.14 -5.83,14.11 -5.34,47.83 23.17,68.06 28.51,20.23 95.46,35.87 129.49,30.35 34.03,-5.52 27.96,-37.76 12.26,-45.37 -18.03,-8.75 -135.37,-5.54 -145.61,-42.92 -9.28,-33.892 31.57,-54.26 31.57,-54.26 z" /></g><g
                 id="g152"
                 transform="matrix(0.158601,0,0,0.158601,5832.35,-1648.68)"
                 style="stroke-width:1.36187"><path
                   inkscape:connector-curvature="0"
                   id="path150"
                   style="fill:url(#_Linear36);fill-rule:nonzero;stroke-width:1.36187"
                   d="m 2578.48,558.311 c 1.06,0.016 2.12,0.048 3.19,0.118 2.33,0.154 4.66,0.456 6.96,0.897 1.75,0.335 3.49,0.752 5.21,1.242 11.49,3.288 21.78,9.834 30.81,17.533 1.39,1.186 2.76,2.403 4.1,3.646 1.94,1.791 3.83,3.635 5.67,5.522 1.42,1.453 2.84,2.914 4.17,4.455 1.28,1.487 2.49,3.036 3.65,4.616 3.59,4.887 6.77,10.078 9.73,15.374 3,5.373 5.75,10.882 8.3,16.48 3.07,6.751 5.85,13.636 8.35,20.62 3.05,8.502 5.68,17.154 7.86,25.917 3.01,12.095 5.17,24.41 6.31,36.824 0.76,8.206 1.1,16.458 0.75,24.695 -0.54,12.793 -2.72,25.537 -6.85,37.671 -1.71,5.014 -3.74,9.915 -6.1,14.655 -6.81,13.656 -16.37,25.917 -28.03,35.771 -2.5,2.114 -5.09,4.116 -7.78,5.991 -1.47,1.026 -2.96,2.022 -4.49,2.953 -1.54,0.936 -3.12,1.805 -4.73,2.606 -7.29,3.621 -15.23,5.859 -23.29,6.925 -3.18,0.422 -6.39,0.649 -9.6,0.73 -2.2,0.055 -4.4,0.012 -6.6,-0.099 -4.12,-0.208 -8.23,-0.686 -12.29,-1.422 -11.16,-2.023 -22.01,-5.983 -31.75,-11.829 -2.83,-1.7 -5.54,-3.569 -8.17,-5.577 -1.2,-0.846 -2.39,-1.696 -3.59,-2.549 -8.73,-6.268 -17.27,-12.788 -25.62,-19.556 -5.4,-4.375 -10.73,-8.838 -15.92,-13.459 l -0.22,-0.204 c -0.17,-0.181 -0.23,-0.219 -0.35,-0.438 -0.31,-0.585 -0.25,-1.321 0.17,-1.841 0.15,-0.195 0.21,-0.222 0.41,-0.371 0.87,-0.557 1.72,-1.132 2.58,-1.706 4.03,-2.73 7.98,-5.577 11.79,-8.602 3.34,-2.651 6.58,-5.437 9.55,-8.5 l 0.42,-0.434 c 0.22,-0.195 0.27,-0.262 0.54,-0.395 0.4,-0.199 0.87,-0.25 1.31,-0.142 0.11,0.026 0.21,0.072 0.32,0.108 1.8,0.784 3.61,1.562 5.42,2.328 8.06,3.392 16.22,6.605 24.53,9.334 4.98,1.634 10.03,3.109 15.16,4.167 2.83,0.583 5.69,1.044 8.58,1.216 1.89,0.112 3.8,0.106 5.68,-0.189 1.52,-0.24 3.09,-0.682 4.34,-1.617 0.37,-0.275 0.71,-0.595 0.99,-0.957 0.37,-0.464 0.64,-0.996 0.87,-1.542 0.42,-1.05 0.64,-2.177 0.75,-3.302 0.04,-0.445 0.06,-0.892 0.07,-1.339 0.02,-0.582 0.01,-1.165 -0.02,-1.746 -0.03,-0.629 -0.08,-1.256 -0.15,-1.882 -0.08,-0.785 -0.19,-1.567 -0.32,-2.346 -0.18,-1.079 -0.4,-2.152 -0.65,-3.218 -0.29,-1.272 -0.62,-2.534 -0.98,-3.789 -0.62,-2.148 -1.31,-4.274 -2.06,-6.381 -0.43,-1.208 -0.86,-2.414 -1.33,-3.608 -1.03,-2.647 -2.15,-5.262 -3.3,-7.862 -0.71,-1.608 -1.43,-3.209 -2.17,-4.805 -0.85,-1.858 -1.72,-3.712 -2.63,-5.544 -2.42,-4.887 -5.02,-9.689 -7.63,-14.48 -3.07,-5.645 -6.17,-11.275 -9.25,-16.916 -1.08,-1.987 -2.16,-3.976 -3.24,-5.966 -1.2,-2.215 -2.4,-4.426 -3.57,-6.651 -2.43,-4.583 -4.79,-9.197 -7.09,-13.844 -1.51,-3.044 -2.98,-6.106 -4.38,-9.201 -1.11,-2.452 -2.17,-4.926 -3.13,-7.441 -0.44,-1.155 -0.86,-2.319 -1.24,-3.497 -0.49,-1.529 -0.91,-3.079 -1.33,-4.628 -0.89,-3.279 -1.65,-6.588 -2.3,-9.923 -0.58,-3.01 -1.07,-6.038 -1.46,-9.08 -0.28,-2.27 -0.51,-4.548 -0.67,-6.831 -0.17,-2.378 -0.25,-4.762 -0.25,-7.146 0,-2.448 0.08,-4.904 0.29,-7.343 0.19,-2.208 0.45,-4.408 0.82,-6.595 0.33,-1.934 0.74,-3.85 1.21,-5.753 0.38,-1.505 0.84,-2.993 1.34,-4.461 1.34,-3.937 3.1,-7.737 5.32,-11.26 1.1,-1.746 2.31,-3.423 3.62,-5.013 1.95,-2.351 4.13,-4.51 6.49,-6.437 1.99,-1.623 4.12,-3.081 6.34,-4.37 2.53,-1.464 5.18,-2.718 7.89,-3.818 4.25,-1.732 8.69,-3.029 13.23,-3.764 2.59,-0.421 5.2,-0.642 7.83,-0.715 0.8,-0.011 0.8,-0.011 1.61,-0.01 z m -0.02,10.745 c -1.87,0.028 -3.73,0.146 -5.59,0.392 -3.78,0.503 -7.49,1.48 -11.06,2.83 -1.6,0.608 -3.17,1.291 -4.72,2.039 -1.2,0.585 -2.39,1.206 -3.55,1.891 -1.91,1.134 -3.72,2.429 -5.4,3.884 -1.48,1.287 -2.86,2.697 -4.11,4.213 -0.79,0.956 -1.53,1.954 -2.22,2.987 -1.87,2.819 -3.35,5.891 -4.48,9.08 -0.53,1.502 -0.97,3.03 -1.37,4.572 -0.89,3.484 -1.44,7.048 -1.74,10.631 -0.14,1.632 -0.23,3.266 -0.28,4.903 -0.05,2.047 -0.03,4.094 0.05,6.141 0.08,2.418 0.24,4.831 0.48,7.24 0.32,3.241 0.77,6.468 1.33,9.676 0.46,2.584 0.98,5.156 1.55,7.716 0.54,2.437 1.11,4.873 1.88,7.251 0.73,2.274 1.58,4.51 2.46,6.729 1.01,2.524 2.07,5.026 3.15,7.515 2.99,6.842 6.2,13.586 9.4,20.331 4.21,8.862 8.52,17.673 12.78,26.508 1.4,2.918 2.8,5.837 4.18,8.761 1.12,2.38 2.24,4.764 3.29,7.174 0.95,2.169 1.85,4.361 2.74,6.554 1.48,3.652 2.9,7.329 4.2,11.047 0.5,1.427 1.01,2.852 1.48,4.288 1.27,3.82 2.39,7.7 3.16,11.651 0.61,3.094 1.02,6.259 0.91,9.418 -0.05,1.792 -0.28,3.591 -0.81,5.31 -0.34,1.127 -0.82,2.214 -1.45,3.215 -0.37,0.599 -0.81,1.158 -1.3,1.666 -0.32,0.327 -0.66,0.632 -1.01,0.915 -2.81,2.227 -6.52,2.895 -10.02,2.981 -0.68,0.016 -1.36,0.011 -2.04,-0.013 -0.89,-0.031 -1.77,-0.093 -2.66,-0.179 -1.14,-0.111 -2.28,-0.261 -3.41,-0.44 -1.45,-0.231 -2.9,-0.51 -4.33,-0.823 -1.84,-0.401 -3.67,-0.859 -5.49,-1.356 -2.31,-0.634 -4.61,-1.333 -6.89,-2.076 -2.91,-0.944 -5.78,-1.96 -8.64,-3.026 -3.62,-1.348 -7.21,-2.775 -10.77,-4.255 -4.46,-1.85 -8.87,-3.789 -13.27,-5.77 -0.44,0.425 -0.88,0.846 -1.32,1.263 -3.42,3.17 -7.08,6.078 -10.83,8.843 -3.38,2.488 -6.84,4.857 -10.36,7.133 1.17,1.073 2.36,2.134 3.55,3.192 9.39,8.293 19.05,16.268 28.99,23.894 2.69,2.063 5.39,4.104 8.12,6.109 0.74,0.544 1.49,1.08 2.23,1.627 0,0.003 0,0.014 0,0.017 0.01,0.004 0.01,-0.006 0.02,-0.002 0.44,0.31 0.86,0.632 1.3,0.942 1.09,0.773 2.2,1.518 3.33,2.236 4.52,2.881 9.32,5.321 14.3,7.318 8.44,3.39 17.4,5.524 26.46,6.336 7.25,0.65 14.6,0.453 21.79,-0.721 5.65,-0.923 11.21,-2.456 16.49,-4.69 2.66,-1.127 5.25,-2.432 7.72,-3.924 2.41,-1.45 4.71,-3.081 6.94,-4.779 2.75,-2.089 5.39,-4.318 7.92,-6.67 9.47,-8.82 17.29,-19.368 23.03,-30.966 4.11,-8.317 7.15,-17.149 9.14,-26.21 2.07,-9.451 3.01,-19.136 3.03,-28.807 0,-4.539 -0.21,-9.074 -0.56,-13.599 -0.4,-5.029 -0.97,-10.042 -1.71,-15.031 -2,-13.45 -5.18,-26.717 -9.35,-39.655 -3.69,-11.445 -8.15,-22.652 -13.38,-33.477 -3.06,-6.305 -6.37,-12.49 -10.05,-18.455 -1.5,-2.441 -3.07,-4.845 -4.72,-7.189 -1.35,-1.928 -2.77,-3.818 -4.27,-5.632 -0.67,-0.802 -1.35,-1.589 -2.06,-2.351 -0.48,-0.511 -0.97,-1.009 -1.46,-1.507 -1,-1.009 -2,-2.004 -3.02,-2.989 -3.95,-3.808 -8.08,-7.428 -12.49,-10.683 -7.67,-5.659 -16.31,-10.31 -25.72,-12.215 -2.7,-0.547 -5.44,-0.841 -8.19,-0.92 -0.65,-0.009 -0.65,-0.009 -1.3,-0.009 z" /></g><g
                 id="g156"
                 transform="matrix(-0.0793003,-0.137352,0.137352,-0.0793003,6337.06,-1154.88)"
                 style="stroke-width:1.36187"><path
                   inkscape:connector-curvature="0"
                   id="path154"
                   style="fill:url(#_Linear37);fill-rule:nonzero;stroke-width:1.36187"
                   d="m 2489.53,785.922 c 4.14,-2.774 8.19,-5.684 12.11,-8.762 3.86,-3.031 7.62,-6.221 11.01,-9.77 l 0.41,-0.437 c 0.23,-0.198 0.28,-0.265 0.55,-0.4 0.41,-0.201 0.88,-0.253 1.33,-0.145 0.11,0.027 0.21,0.073 0.32,0.109 l 2.21,0.947 c 8.39,3.535 16.84,6.95 25.45,9.937 5.19,1.802 10.45,3.471 15.79,4.748 2.82,0.672 5.67,1.239 8.55,1.55 1.82,0.197 3.66,0.295 5.49,0.161 0.97,-0.07 1.94,-0.207 2.88,-0.463 0.84,-0.233 1.67,-0.567 2.4,-1.067 0.81,-0.559 1.46,-1.328 1.88,-2.217 0.02,-0.032 -0.05,0.13 -0.04,0.095 0.01,-0.082 0.06,-0.154 0.09,-0.232 0.02,-0.03 -0.04,0.117 -0.03,0.087 0.02,-0.077 0.06,-0.15 0.08,-0.226 0.05,-0.159 0.09,-0.32 0.13,-0.483 0.19,-0.897 0.23,-1.828 0.23,-2.743 0,-1.226 -0.1,-2.451 -0.23,-3.669 -0.21,-1.864 -0.53,-3.716 -0.9,-5.555 -0.48,-2.405 -1.05,-4.792 -1.69,-7.16 -1.09,-4.036 -2.36,-8.024 -3.76,-11.96 -1.39,-3.874 -2.91,-7.702 -4.61,-11.453 -1.4,-3.117 -2.95,-6.168 -4.52,-9.209 -1.92,-3.749 -3.89,-7.476 -5.86,-11.201 -2.54,-4.788 -5.09,-9.57 -7.63,-14.358 -1.05,-2.001 -2.11,-4.003 -3.16,-6.005 -4.04,-7.718 -8.06,-15.449 -11.78,-23.326 -1.39,-2.945 -2.74,-5.907 -4.01,-8.906 -0.98,-2.324 -1.92,-4.67 -2.73,-7.06 -0.57,-1.671 -1.04,-3.37 -1.5,-5.074 -0.68,-2.556 -1.3,-5.128 -1.85,-7.715 -0.72,-3.32 -1.33,-6.666 -1.8,-10.029 -0.37,-2.725 -0.68,-5.459 -0.88,-8.203 -0.16,-2.089 -0.26,-4.182 -0.3,-6.276 -0.03,-1.608 -0.02,-3.216 0.03,-4.824 0.17,-5.496 0.82,-10.992 2.15,-16.334 1.36,-5.502 3.45,-10.837 6.42,-15.676 1,-1.621 2.08,-3.184 3.27,-4.675 1.68,-2.132 3.56,-4.114 5.6,-5.914 3.02,-2.668 6.39,-4.93 9.97,-6.784 4.71,-2.441 9.73,-4.301 14.92,-5.417 6.36,-1.367 12.93,-1.591 19.37,-0.735 8.06,1.071 15.83,3.78 23.04,7.505 4.76,2.459 9.29,5.348 13.6,8.525 2.69,1.98 5.3,4.068 7.81,6.265 3.8,3.32 7.46,6.811 10.9,10.499 1.48,1.587 2.91,3.216 4.32,4.871 1.02,1.208 2,2.453 2.97,3.705 1.97,2.545 3.85,5.16 5.63,7.837 11.38,17.06 18.9,36.454 23.77,56.304 0.77,3.143 1.48,6.301 2.12,9.472 2.52,12.395 4.12,24.968 4.98,37.584 0.19,2.803 0.35,5.609 0.47,8.415 0.11,2.626 0.2,5.252 0.22,7.88 0.02,4.122 -0.11,8.246 -0.4,12.358 -0.65,8.877 -2.08,17.702 -4.43,26.291 -2.46,9.006 -5.93,17.738 -10.41,25.934 -1.71,3.127 -3.57,6.168 -5.56,9.127 -0.52,0.776 -1.06,1.539 -1.61,2.297 -1.06,1.48 -2.17,2.935 -3.3,4.361 -5.25,6.586 -11.23,12.589 -17.81,17.836 -6.53,5.201 -13.66,9.695 -21.32,13.029 -7.72,3.358 -15.96,5.492 -24.36,6.093 -5.36,0.384 -10.76,0.136 -16.08,-0.679 -7.77,-1.193 -15.32,-3.596 -22.48,-6.833 -6.15,-2.781 -12.02,-6.169 -17.6,-9.957 -1.15,-0.782 -2.29,-1.581 -3.42,-2.396 -0.02,-0.012 -1.72,-1.244 -1.72,-1.262 -0.49,0.08 -0.81,-0.562 -1.22,-0.843 -0.8,-0.558 -1.6,-1.122 -2.4,-1.685 -8.77,-6.204 -17.35,-12.662 -25.74,-19.367 -5.42,-4.336 -10.78,-8.76 -15.99,-13.345 l -0.23,-0.202 c -0.15,-0.16 -0.2,-0.193 -0.3,-0.387 -0.28,-0.516 -0.23,-1.166 0.14,-1.624 0.14,-0.173 0.19,-0.197 0.37,-0.329 0,0 0.11,-0.076 0.17,-0.114 0.17,-0.112 0.34,-0.224 0.51,-0.336 z m 171.23,7.228 c 1.22,-2.167 2.38,-4.364 3.46,-6.606 2,-4.165 3.73,-8.456 5.2,-12.837 3.72,-11.14 5.68,-22.82 6.16,-34.544 0.16,-3.9 0.16,-7.806 0.02,-11.706 -0.1,-2.748 -0.28,-5.492 -0.48,-8.234 -0.37,-4.919 -0.84,-9.831 -1.43,-14.729 -0.66,-5.483 -1.44,-10.95 -2.4,-16.389 -2.57,-14.601 -6.35,-29.024 -11.81,-42.82 -1.22,-3.073 -2.51,-6.117 -3.89,-9.118 -2.25,-4.878 -4.76,-9.633 -7.5,-14.251 -2.65,-4.456 -5.54,-8.77 -8.69,-12.885 -2.43,-3.167 -5.01,-6.227 -7.73,-9.145 -2.65,-2.838 -5.44,-5.55 -8.32,-8.149 -5.36,-4.834 -11.1,-9.291 -17.32,-12.962 -6.23,-3.67 -12.98,-6.59 -20.09,-8.008 -5.4,-1.077 -10.96,-1.246 -16.4,-0.366 -4.19,0.677 -8.26,1.96 -12.12,3.718 -3.15,1.437 -6.15,3.193 -8.84,5.379 -1.64,1.323 -3.15,2.79 -4.53,4.377 -0.9,1.031 -1.73,2.113 -2.5,3.238 -4.49,6.536 -6.77,14.344 -7.72,22.152 -0.15,1.193 -0.26,2.391 -0.35,3.59 -0.11,1.441 -0.18,2.886 -0.21,4.331 -0.04,2.153 -0.01,4.307 0.09,6.458 0.11,2.554 0.32,5.104 0.61,7.645 0.36,3.2 0.83,6.389 1.43,9.554 0.48,2.519 1.01,5.027 1.61,7.519 0.37,1.545 0.74,3.092 1.2,4.614 0.41,1.376 0.88,2.733 1.38,4.08 1.48,4.01 3.18,7.939 4.93,11.838 1.7,3.777 3.45,7.531 5.23,11.269 5.66,11.856 11.61,23.566 17.46,35.322 1.25,2.515 2.49,5.032 3.72,7.554 1.74,3.578 3.47,7.162 5.02,10.825 1.92,4.556 3.58,9.221 5.07,13.938 1.73,5.505 3.22,11.101 4.28,16.774 0.39,2.088 0.73,4.189 0.96,6.302 0.19,1.723 0.31,3.457 0.3,5.191 -0.02,1.751 -0.15,3.536 -0.65,5.222 -0.3,1.006 -0.76,1.934 -1.36,2.799 -0.45,0.667 -0.98,1.287 -1.56,1.844 -0.45,0.427 -0.94,0.816 -1.45,1.165 -2.82,1.919 -6.31,2.49 -9.66,2.494 -0.55,0.001 -1.11,-0.014 -1.67,-0.042 -0.74,-0.037 -1.48,-0.097 -2.22,-0.175 -0.96,-0.103 -1.92,-0.236 -2.88,-0.393 -1.41,-0.233 -2.82,-0.517 -4.22,-0.836 -1.79,-0.409 -3.56,-0.876 -5.33,-1.382 -2.25,-0.645 -4.48,-1.354 -6.7,-2.104 -2.82,-0.955 -5.62,-1.983 -8.39,-3.053 -3.52,-1.355 -7.02,-2.781 -10.49,-4.253 -4.74,-2.009 -9.43,-4.111 -14.12,-6.251 l -0.98,-0.452 c -0.44,0.417 -0.87,0.828 -1.31,1.236 -0.49,0.446 -0.98,0.887 -1.48,1.325 -3.01,2.631 -6.17,5.091 -9.41,7.443 -3.46,2.515 -7.02,4.902 -10.63,7.2 0.92,0.849 1.85,1.691 2.77,2.531 12.4,11.177 25.33,21.779 38.72,31.749 l 0.2,0.15 c 0.39,0.293 0.78,0.593 1.18,0.879 0.29,0.205 0.59,0.396 0.88,0.593 0.58,0.389 1.17,0.776 1.76,1.156 1.71,1.111 3.44,2.185 5.2,3.219 6.1,3.585 12.5,6.684 19.18,9.026 7.68,2.692 15.74,4.36 23.88,4.572 4.29,0.112 8.6,-0.175 12.84,-0.871 2.52,-0.414 5.02,-0.974 7.48,-1.672 9.72,-2.752 18.69,-7.649 26.69,-13.761 4.48,-3.426 8.68,-7.23 12.54,-11.339 2.75,-2.925 5.34,-6.006 7.74,-9.223 2.44,-3.255 4.66,-6.655 6.74,-10.144 0.46,-0.784 0.46,-0.783 0.91,-1.571 z" /></g><g
                 id="g160"
                 transform="translate(1505.08,-249.559)"
                 style="stroke-width:1.36187"><path
                   inkscape:connector-curvature="0"
                   id="path158"
                   style="fill:url(#_Radial38);stroke-width:1.36187"
                   d="m 4691.62,-1284.05 c -3.37,-2.93 8.25,8.42 24.11,5.93 11.83,-1.86 3.7,0.42 0.09,1.2 -5.96,1.28 -13.04,-0.94 -15.69,-1.99 -8.14,-3.21 -8.51,-5.14 -8.51,-5.14 z" /></g><g
                 id="g164"
                 transform="matrix(0.152488,0.00216203,-0.00212689,0.150009,5767.14,-1708.11)"
                 style="stroke-width:1.36187"><path
                   inkscape:connector-curvature="0"
                   id="path162"
                   style="fill:url(#_Linear39);stroke-width:1.36187"
                   d="m 2985.11,968.709 c -9.3,9.884 48.44,-138.959 123.78,-144.755 68.41,-5.264 -26.41,-62.97 -111.76,20.903 -43.38,42.638 -37.06,77.692 -35.59,98.292 1.48,20.601 23.57,25.56 23.57,25.56 z" /></g><g
                 id="g168"
                 transform="translate(1506.27,-249.818)"
                 style="stroke-width:1.36187"><path
                   inkscape:connector-curvature="0"
                   id="path166"
                   style="fill:url(#_Radial40);stroke-width:1.36187"
                   d="m 4727.74,-1274.53 c 0,0 7.71,3.81 9.35,0.53 1.64,-3.28 -0.98,-7.94 -0.98,-7.94 1.4,-1.16 5.71,7.96 0,10.15 -3.55,1.36 -8.37,-2.74 -8.37,-2.74 z" /></g><g
                 id="g172"
                 transform="translate(1514.22,-248.242)"
                 style="stroke-width:1.36187"><path
                   inkscape:connector-curvature="0"
                   id="path170"
                   style="fill:url(#_Radial41);stroke-width:1.36187"
                   d="m 4717.52,-1273.84 c 0.32,0.2 6.29,4.06 9.77,4.15 3.32,0.08 6.4,-1.05 7.8,-2.28 1.26,-1.11 5.23,-6.39 5.23,-6.39 -0.83,3.23 -4.03,6.76 -5.56,7.84 -0.7,0.49 -4.82,2.83 -9.3,1.52 -2.32,-0.69 -7.94,-4.84 -7.94,-4.84 z" /></g><g
                 id="g176"
                 transform="matrix(0.137825,-0.00507043,0.00491687,0.133651,5803.63,-1668.21)"
                 style="stroke-width:1.36187"><path
                   inkscape:connector-curvature="0"
                   id="path174"
                   style="fill:url(#_Linear42);stroke-width:1.36187"
                   d="m 3143.91,969.084 c 0,0 24.43,-18.955 47.92,6.437 32.83,35.499 40.74,90.039 41.47,101.069 0.42,6.3 12.89,103.45 -36.73,90.99 -10.36,-2.61 -5.46,-55.56 -8.33,-65.05 -12.14,-40.1 -17.56,-54.91 -36.42,-76.7 -17.89,-20.68 -26.39,-42.124 -7.91,-56.746 z" /></g><g
                 id="g180"
                 transform="matrix(-0.0793003,0.137352,-0.137352,-0.0793003,6512.27,-1838.8)"
                 style="stroke-width:1.36187"><path
                   inkscape:connector-curvature="0"
                   id="path178"
                   style="fill:url(#_Linear43);fill-rule:nonzero;stroke-width:1.36187"
                   d="m 2487.97,788.189 c -0.06,-0.251 -0.09,-0.314 -0.09,-0.576 0,-0.392 0.14,-0.778 0.38,-1.085 0.17,-0.205 0.23,-0.234 0.44,-0.39 0.86,-0.565 1.71,-1.151 2.56,-1.735 3.82,-2.654 7.56,-5.415 11.18,-8.332 2.69,-2.162 5.32,-4.395 7.79,-6.792 0.88,-0.844 1.72,-1.713 2.55,-2.598 l 0.31,-0.268 c 0.31,-0.186 0.38,-0.257 0.73,-0.358 0.39,-0.114 0.81,-0.122 1.21,-0.024 0.13,0.032 0.26,0.087 0.39,0.131 1.45,0.621 2.91,1.231 4.37,1.837 8.15,3.365 16.39,6.558 24.79,9.259 3.47,1.116 6.97,2.147 10.51,3.027 2.94,0.73 5.9,1.361 8.89,1.792 1.06,0.152 2.12,0.278 3.18,0.369 0.8,0.068 1.6,0.116 2.4,0.138 0.7,0.019 1.4,0.017 2.1,-0.011 0.51,-0.021 1.02,-0.057 1.53,-0.111 0.36,-0.039 0.72,-0.087 1.08,-0.147 0.33,-0.054 0.65,-0.117 0.97,-0.192 1.7,-0.398 3.46,-1.153 4.43,-2.69 0.34,-0.543 0.57,-1.153 0.73,-1.773 0.25,-0.933 0.34,-1.901 0.37,-2.863 0.05,-1.857 -0.17,-3.713 -0.48,-5.54 -0.23,-1.355 -0.52,-2.699 -0.86,-4.032 -0.32,-1.275 -0.67,-2.54 -1.06,-3.797 -1.43,-4.713 -3.22,-9.315 -5.13,-13.855 -1.14,-2.73 -2.34,-5.437 -3.56,-8.133 -0.71,-1.568 -1.43,-3.137 -2.17,-4.689 -1.67,-3.48 -3.46,-6.903 -5.25,-10.326 -4.4,-8.366 -8.85,-16.708 -13.26,-25.072 -3.86,-7.366 -7.7,-14.746 -11.36,-22.22 -1.91,-3.921 -3.78,-7.866 -5.51,-11.876 -0.96,-2.236 -1.88,-4.491 -2.71,-6.78 -0.36,-0.99 -0.7,-1.986 -1.01,-2.992 -0.47,-1.535 -0.88,-3.09 -1.28,-4.645 -0.91,-3.504 -1.7,-7.038 -2.36,-10.596 -1.42,-7.645 -2.26,-15.421 -2.22,-23.202 0.05,-7.475 0.95,-14.988 3.16,-22.146 1.36,-4.391 3.22,-8.625 5.63,-12.541 1.72,-2.79 3.74,-5.4 6,-7.769 2.73,-2.854 5.82,-5.352 9.16,-7.451 2.37,-1.486 4.87,-2.76 7.41,-3.907 8.18,-3.681 17.09,-5.776 26.07,-5.699 5.45,0.047 10.88,0.905 16.1,2.465 5.49,1.638 10.74,4.038 15.65,6.971 1.89,1.126 3.73,2.325 5.52,3.605 4.28,3.069 8.29,6.497 12.04,10.19 2.14,2.103 4.2,4.289 6.17,6.543 1.11,1.267 2.21,2.55 3.26,3.869 1.62,2.051 3.15,4.18 4.62,6.346 4.42,6.504 8.34,13.35 11.94,20.332 5.19,10.031 9.68,20.412 13.54,31.021 3.7,10.162 6.81,20.542 9.25,31.077 2.52,10.857 4.32,21.879 5.25,32.987 0.63,7.53 0.89,15.096 0.58,22.649 -0.5,11.93 -2.39,23.818 -5.95,35.224 -2.81,8.97 -6.68,17.609 -11.55,25.649 -5.98,9.864 -13.46,18.808 -22.15,26.397 -2.7,2.355 -5.51,4.58 -8.43,6.655 -2.02,1.442 -4.1,2.828 -6.24,4.087 -2.44,1.431 -4.98,2.697 -7.58,3.803 -10.97,4.661 -23.04,6.451 -34.91,5.951 -9.05,-0.381 -18.04,-2.109 -26.61,-5.049 -6.82,-2.343 -13.38,-5.465 -19.47,-9.34 -2.34,-1.494 -4.6,-3.106 -6.8,-4.81 -1.21,-0.832 -2.42,-1.668 -3.62,-2.508 -8.8,-6.163 -17.42,-12.581 -25.84,-19.249 -5.45,-4.312 -10.83,-8.714 -16.07,-13.276 l -0.23,-0.202 c -0.2,-0.215 -0.2,-0.214 -0.36,-0.459 -0.04,-0.089 -0.08,-0.179 -0.12,-0.268 z m 4.74,-0.087 c 4.5,4.167 9.09,8.237 13.74,12.231 5.27,4.521 10.62,8.945 16.05,13.263 2.94,2.339 5.91,4.648 8.91,6.921 0.81,0.615 1.62,1.228 2.43,1.837 0.36,0.272 0.72,0.553 1.09,0.821 1.1,0.809 2.24,1.591 3.39,2.346 3.41,2.254 7,4.259 10.7,6.008 8.3,3.923 17.2,6.57 26.29,7.871 8.28,1.186 16.74,1.275 25.03,0.083 5.69,-0.819 11.31,-2.246 16.66,-4.359 3.15,-1.244 6.21,-2.726 9.12,-4.457 2.26,-1.341 4.42,-2.844 6.52,-4.414 2.92,-2.177 5.71,-4.513 8.38,-6.986 9.2,-8.527 16.86,-18.684 22.57,-29.853 4.5,-8.81 7.78,-18.231 9.87,-27.895 1.95,-9.013 2.87,-18.232 2.93,-27.448 0.03,-4.964 -0.19,-9.924 -0.6,-14.871 -0.47,-5.58 -1.16,-11.14 -2.07,-16.665 -0.7,-4.289 -1.51,-8.559 -2.45,-12.803 -2.99,-13.539 -7.16,-26.813 -12.3,-39.685 -2.36,-5.896 -4.93,-11.699 -7.69,-17.417 -2.04,-4.223 -4.18,-8.395 -6.46,-12.498 -2.21,-3.998 -4.54,-7.933 -7.03,-11.77 -1.93,-2.993 -3.96,-5.935 -6.15,-8.751 -1.36,-1.752 -2.8,-3.43 -4.29,-5.072 -1.7,-1.865 -3.45,-3.677 -5.26,-5.424 -3.58,-3.447 -7.41,-6.641 -11.51,-9.454 -3.74,-2.566 -7.7,-4.821 -11.89,-6.572 -2.86,-1.193 -5.82,-2.152 -8.84,-2.819 -3.89,-0.857 -7.9,-1.232 -11.88,-1.081 -3.98,0.151 -7.93,0.829 -11.75,1.946 -2.39,0.699 -4.73,1.57 -7.01,2.57 -2.23,0.979 -4.43,2.058 -6.5,3.349 -3.01,1.879 -5.76,4.183 -8.09,6.862 -2.66,3.046 -4.77,6.547 -6.35,10.259 -1.32,3.073 -2.27,6.29 -2.96,9.558 -0.97,4.656 -1.39,9.426 -1.45,14.178 -0.1,7.043 0.61,14.088 1.82,21.022 0.54,3.112 1.19,6.207 1.93,9.277 0.51,2.104 1.05,4.2 1.74,6.252 0.89,2.66 1.94,5.27 3.02,7.857 1.08,2.563 2.2,5.11 3.34,7.644 3.34,7.379 6.88,14.661 10.47,21.919 3.87,7.812 7.81,15.584 11.69,23.389 1.23,2.486 2.45,4.975 3.66,7.469 1.33,2.766 2.66,5.536 3.91,8.342 0.97,2.174 1.89,4.372 2.8,6.57 1.53,3.691 3.01,7.405 4.37,11.162 1.04,2.874 2.01,5.773 2.87,8.707 0.73,2.497 1.38,5.021 1.87,7.575 0.6,3.065 1,6.199 0.89,9.327 -0.07,1.89 -0.33,3.789 -0.92,5.592 -0.36,1.105 -0.84,2.171 -1.48,3.148 -0.43,0.67 -0.93,1.296 -1.49,1.866 -0.41,0.415 -0.85,0.8 -1.31,1.153 -3.08,2.347 -7.04,3.092 -10.83,3.162 -0.55,0.01 -1.11,0.006 -1.66,-0.011 -0.73,-0.021 -1.47,-0.064 -2.2,-0.125 -1.12,-0.092 -2.24,-0.225 -3.35,-0.388 -1.42,-0.209 -2.83,-0.468 -4.24,-0.762 -1.79,-0.376 -3.57,-0.81 -5.34,-1.284 -2.25,-0.605 -4.49,-1.277 -6.71,-1.994 -2.82,-0.912 -5.62,-1.898 -8.4,-2.934 -3.84,-1.432 -7.64,-2.961 -11.42,-4.552 -4.43,-1.865 -8.82,-3.821 -13.19,-5.827 l -0.75,-0.348 c -0.37,0.354 -0.74,0.701 -1.12,1.048 -0.49,0.447 -0.98,0.889 -1.48,1.328 -3.66,3.181 -7.53,6.111 -11.51,8.889 -2.73,1.91 -5.51,3.749 -8.34,5.526 0.07,0.064 0.14,0.128 0.21,0.192 z" /></g></g><path
               style="fill:#083860;fill-opacity:1;stroke-width:0.382681"
               d="m 402.18429,3.276657 c 0,0 -0.006,-2.91436898 0.0249,-9.7011077 0.0242,-5.3945073 0.21926,-9.9153683 0.47092,-10.9148743 0.25539,-1.014205 0.99294,-2.309576 1.81857,-3.193902 0.76391,-0.818236 2.16384,-1.790373 3.11098,-2.160302 1.41293,-0.551858 3.3535,-0.704987 10.81009,-0.853018 6.91445,-0.137269 9.66268,0.296515 9.66268,0.296515 l -0.0364,5.354091 c 0,0 -2.33628,0.004 -7.14107,0.004 -3.75848,0 -7.58807,0.189978 -8.51021,0.422177 -0.92214,0.232195 -1.98858,0.766423 -2.36987,1.187168 -0.6173,0.681161 -0.71423,1.789753 -0.8846,10.1161483 -0.15858,7.7500687 -0.0825,9.6374997 -0.0825,9.6374997 z"
               id="path1874" /><path
               style="fill:#216299;fill-opacity:1;stroke-width:0.382681"
               d="m 473.64356,3.450887 c 0,0 -0.006,-2.914369 0.0249,-9.7011076 0.0242,-5.3945074 0.21926,-9.9153684 0.47092,-10.9148744 0.25539,-1.014205 0.99294,-2.309576 1.81857,-3.193902 0.76391,-0.818236 2.16384,-1.790373 3.11098,-2.160302 1.41293,-0.551858 3.3535,-0.704987 10.81009,-0.853018 6.91445,-0.137269 9.66268,0.296515 9.66268,0.296515 l -0.0364,5.354091 c 0,0 -2.33628,0.004 -7.14107,0.004 -3.75848,0 -7.58807,0.189978 -8.51021,0.422177 -0.92214,0.232195 -1.98858,0.766423 -2.36987,1.187168 -0.6173,0.681161 -0.71423,1.789753 -0.8846,10.1161484 -0.15858,7.7500686 -0.0825,9.6374996 -0.0825,9.6374996 z"
               id="path1874-5" /><path
               style="fill:#083860;fill-opacity:1;stroke-width:0.382681"
               d="m 322.097,3.612067 c 0,0 0.10173,-3.30512598 0.13308,-10.3086167 0.0234,-5.2144523 0.20853,-10.0599393 0.41152,-10.7677503 0.20301,-0.707812 0.66265,-1.739368 1.02146,-2.292348 0.35879,-0.55298 1.00561,-1.26373 1.43738,-1.579441 0.43176,-0.315712 1.56487,-0.908431 2.51801,-1.317155 1.56542,-0.671285 3.85869,-0.958437 13.59607,-0.875831 l 12.49078,-0.01742 -0.0991,5.568974 c 0,0 -0.76554,0.08557 -9.94353,0.08557 -6.67632,0 -12.24733,0.08665 -12.24733,0.08665 -1.91698,-0.111732 -2.07796,1.357613 -2.07796,1.357613 l -0.0105,2.984817 c 0,0 -0.35568,1.675216 1.77256,1.504422 l 19.57483,0.05 -0.092,5.0500913 -19.5206,0.068592 C 329.1611,-6.8482375 329.18,-5.6150786 329.18,-5.6150786 l -0.13903,9.4102595 -6.94391,-0.1831099 z"
               id="path4594" /><path
               style="fill:#216299;stroke-width:0.382681;fill-opacity:1"
               d="m 621.91087,4.158991 c -7.26135,0.06128 -15.00985,0.113039 -15.00985,0.113039 l 0.0133,-5.9305787 c 0,0 2.52721,-0.160826 13.27376,-0.160826 10.74151,0 12.93998,-0.08177 12.93998,-0.08177 0.33043,-0.330431 0.75198,-1.549872 0.88391,-2.07553 0.13194,-0.525655 0.083,-1.503802 -0.10872,-2.173653 l -0.45678,-1.347669 -10.78459,-0.07724 c -10.11893,-0.07246 -11.0017,-0.264446 -12.42345,-1.014107 -0.84191,-0.443914 -1.94911,-1.375804 -2.46047,-2.0708663 -0.82545,-1.121974 -0.93273,-1.673659 -0.95628,-4.917448 -0.0247,-3.399073 0.0487,-3.764595 1.05311,-5.245096 0.82275,-1.212741 1.55111,-1.759081 3.06102,-2.296086 1.74773,-0.621587 3.51455,-0.718237 14.98354,-0.819655 11.99593,-0.106072 15.36433,0.05227 15.36433,0.05227 l -0.0258,5.990277 c 0,0 -5.40965,0.004 -14.06674,0.004 -11.27634,0 -11.8197,0.03313 -12.55193,0.765362 -0.42257,0.422569 -0.76536,1.275603 -0.76536,1.904584 0,0.815248 0.29399,1.332178 1.03376,1.817734 0.90804,0.59598 2.34055,0.701788 11.77706,0.869854 10.32681,0.183924 10.78459,0.223837 11.80875,1.029647 0.58602,0.461074 1.44272,1.317895 1.90381,1.9040523 0.74297,0.944556 0.83829,1.52742 0.83829,5.125959 0,3.84236202 -0.0586,4.14482802 -1.09267,5.6369187 -0.83933,1.211208 -1.54902,1.728389 -3.06143,2.231075 -1.67435,0.556515 -3.94317,0.671035 -15.17127,0.76578 z"
               id="path851"
               sodipodi:nodetypes="sccscsscsssssssccssssssssssss" /><path
               style="fill:#216299;stroke-width:0.382681;fill-opacity:1"
               d="m 557.37316,4.2752886 c -7.26135,0.06128 -15.00985,0.113039 -15.00985,0.113039 l 0.0133,-5.9305787 c 0,0 2.52721,-0.160826 13.27376,-0.160826 10.74151,0 12.93998,-0.08177 12.93998,-0.08177 0.33043,-0.330431 0.75198,-1.549872 0.88391,-2.07553 0.13194,-0.525655 0.083,-1.5038016 -0.10872,-2.1736526 l -0.45678,-1.347669 -10.78459,-0.07724 c -10.11893,-0.07246 -11.0017,-0.264446 -12.42345,-1.014107 -0.84191,-0.443914 -1.94911,-1.375804 -2.46047,-2.0708673 -0.82545,-1.121974 -0.93273,-1.673659 -0.95628,-4.917448 -0.0247,-3.399073 0.0487,-3.764595 1.05311,-5.245096 0.82275,-1.212741 1.55111,-1.759081 3.06102,-2.296086 1.74773,-0.621587 3.51455,-0.718237 14.98354,-0.819655 11.99593,-0.106072 15.36433,0.05227 15.36433,0.05227 l -0.0258,5.990277 c 0,0 -5.40965,0.004 -14.06674,0.004 -11.27634,0 -11.8197,0.03313 -12.55193,0.765362 -0.42257,0.422569 -0.76536,1.275603 -0.76536,1.904584 0,0.815248 0.29399,1.332178 1.03376,1.817734 0.90804,0.59598 2.34055,0.701788 11.77706,0.869854 10.32681,0.183924 10.78459,0.223837 11.80875,1.029647 0.58602,0.461074 1.44272,1.317895 1.90381,1.9040533 0.74297,0.944556 0.83829,1.52742 0.83829,5.1259586 0,3.84236203 -0.0586,4.14482803 -1.09267,5.6369187 -0.83933,1.211208 -1.54902,1.728389 -3.06143,2.231075 -1.67435,0.556515 -3.94317,0.671035 -15.17127,0.76578 z"
               id="path851-0"
               sodipodi:nodetypes="sccscsscsssssssccssssssssssss" /><path
               style="fill:#216299;stroke-width:0.382681;fill-opacity:1"
               d="m 598.81196,4.25144 c -3e-5,7e-5 -5.27371,0.310877 -7.38235,-0.191451 -2.67495,-0.631057 -3.98997,-2.380116 -4.83217,-4.75881668 -0.62353,-1.81236902 -0.65855,-3.82651702 -0.65855,-9.24191502 0,-3.7286843 -0.0904,-7.7309383 -0.0904,-7.7309383 l -5.19965,-0.05474 0.0104,-6.419308 c 0,0 3.15767,0.0679 5.32229,0 -0.0322,-2.429533 0.0148,-7.126604 0.0148,-7.126604 l 7.24377,0.0064 -0.0223,7.120243 c 3.02944,0.08766 6.27352,-0.0664 9.30348,0 l -0.14097,6.142602 c 0,0 -5.5387,-4.5e-5 -9.0402,0.08844 l -0.0439,6.631787 c -0.0263,3.9863673 -0.16789,6.7042853 0.0836,7.1740133 0.22262,0.415971 0.51257,1.32279 1.33904,1.744422 2.39644,0.997282 4.48878,0.670001 7.68636,0.645415 l 0.0371,5.9781067 c 0,0 -1.46298,0.03371 -3.63028,-0.0075 z"
               id="path849"
               sodipodi:nodetypes="cccsccccccccccsscccsc" /><path
               style="fill:#216299;stroke-width:0.382681;fill-opacity:1"
               d="m 521.87525,4.25144 c -3e-5,7e-5 -5.27371,0.310877 -7.38236,-0.191451 -2.67495,-0.631057 -3.98996,-2.380116 -4.83217,-4.75881668 -0.62352,-1.81236902 -0.65855,-3.82651702 -0.65855,-9.24191502 0,-3.7286843 -0.0904,-7.7309383 -0.0904,-7.7309383 l -5.19965,-0.05474 0.0104,-6.419308 c 0,0 3.15767,0.0679 5.32228,0 -0.0322,-2.429533 0.0148,-7.126604 0.0148,-7.126604 l 7.24377,0.0064 -0.0223,7.120243 c 3.02944,0.08766 6.27353,-0.0664 9.30348,0 l -0.14096,6.142602 c 0,0 -5.53871,-4.5e-5 -9.0402,0.08844 l -0.0439,6.631787 c -0.0263,3.9863673 -0.16788,6.7042853 0.0836,7.1740133 0.22262,0.415971 0.51257,1.32279 1.33903,1.744422 2.39644,0.997282 4.48878,0.670001 7.68636,0.645415 l 0.0371,5.9781067 c 0,0 -1.46298,0.03371 -3.63027,-0.0075 z"
               id="path849-1"
               sodipodi:nodetypes="cccsccccccccccsscccsc" /><path
               style="fill:#216299;stroke-width:0.382681;fill-opacity:1"
               d="m 529.75497,4.450953 0.2277,-28.309733 6.29826,0.163324 -0.12558,28.140775 z"
               id="path845" /><path
               id="path4592"
               style="fill:#216299;fill-opacity:1;stroke-width:0.382681"
               d="m 285.91202,-33.401316 -6.66443,-0.120202 c 0.12114,21.224081 0.15444,20.701933 -0.017,31.6220033 0.1585,0.730359 0.9793,1.96515102 1.95466,2.9405207 2.65113,2.3392684 4.55138,2.8974643 8.17633,3.029457 0,0 4.83143,0.116545 9.56709,0.0492 6.30801,-0.08972 9.97397,0.045514 9.97397,0.045514 3.60579,0.1073109 7.82682,-3.48585258 7.83487,-7.0721311 0,0 -0.0244,-0.4176054 -0.02,-6.9493744 0.005,-6.9248375 0.0148,-8.1731555 0.0148,-8.1731555 -0.0446,-3.885387 -4.53786,-5.830057 -7.32328,-5.874719 0,0 -5.85529,-0.101845 -13.6158,-0.105987 -6.91644,-0.0037 -9.79022,-0.05235 -9.79022,-0.05235 z m 21.43405,15.388578 c 1.52918,0.285608 1.99875,1.993869 1.99875,1.993869 0.155,0.551684 0.10649,3.973402 0.10649,6.6753313 0,4.885427 0.059,6.3449137 0.059,6.3449137 -1.03542,0.9850906 -1.46542,0.9092104 -2.25436,1.1283064 -0.78893,0.219099 -5.8785,0.033124 -9.66703,0.016217 -3.78855,-0.01692 -9.03747,-0.2103976 -9.03747,-0.2103976 -1.28029,-0.4792897 -1.80815,-1.2448016 -2.46601,-2.4254754 l -0.0371,-11.4047604 c 0.35088,-0.818708 1.47057,-1.894133 1.81125,-2.076461 z"
               sodipodi:nodetypes="cccccscccccsccccscssccccc" /><text
               id="text4489"
               y="1.8318583"
               x="645.66943"
               style="font-style:normal;font-variant:normal;font-weight:bold;font-stretch:normal;font-size:40.2771px;line-height:201.385px;font-family:Titillium;-inkscape-font-specification:'Titillium, Bold';font-variant-ligatures:normal;font-variant-caps:normal;font-variant-numeric:normal;font-variant-east-asian:normal;text-align:start;letter-spacing:0px;word-spacing:0px;writing-mode:lr-tb;text-anchor:start;fill:#083860;fill-opacity:1;stroke:#083860;stroke-width:1.61648;stroke-dasharray:none;stroke-opacity:1"
               xml:space="preserve"><tspan
                 style="font-style:normal;font-variant:normal;font-weight:bold;font-stretch:normal;font-size:40.2771px;font-family:Titillium;-inkscape-font-specification:'Titillium, Bold';font-variant-ligatures:normal;font-variant-caps:normal;font-variant-numeric:normal;font-variant-east-asian:normal;text-align:start;writing-mode:lr-tb;text-anchor:start;fill:#083860;fill-opacity:1;stroke:#083860;stroke-width:1.61648;stroke-dasharray:none;stroke-opacity:1"
                 y="1.8318583"
                 x="645.66943"
                 id="tspan4487"
                 sodipodi:role="line">4</tspan></text></g><g
             id="g946"><path
               id="path1870-1"
               style="fill:#74c0ff;fill-opacity:1;stroke-width:0.382681"
               d="m 341.19059,112.05635 -11.67172,0.0128 -2.15678,1.01571 c -1.18655,0.55885 -2.49087,1.5009 -2.89874,2.09283 -0.40789,0.59193 -0.98114,1.6739 -1.27284,2.40368 -0.37972,0.94998 -0.53412,3.23246 -0.54112,8.03613 -0.008,4.91548 0.13458,7.06767 0.53089,8.04893 0.29751,0.73666 0.87826,1.82829 1.29074,2.42671 0.4125,0.59841 1.54479,1.43587 2.51625,1.86 0.97148,0.42412 2.62796,0.91128 3.68035,1.08351 1.05237,0.17222 6.56201,0.27119 12.24481,0.22003 9.08677,-0.0818 10.54101,-0.17947 12.05549,-0.80848 0.94713,-0.39338 2.18457,-1.05161 2.75035,-1.46344 0.56577,-0.41183 1.38381,-1.57394 1.81779,-2.58277 0.70277,-1.6336 0.78733,-2.6013 0.78033,-8.84333 -0.007,-6.00877 -0.11012,-7.2323 -0.72149,-8.57853 -0.3922,-0.86364 -1.17131,-1.9949 -1.7308,-2.5137 -0.55949,-0.51879 -1.91296,-1.27558 -3.00875,-1.68219 -1.81116,-0.67205 -3.05446,-0.73912 -13.66476,-0.72788 z m 0.38249,5.53652 c 6.08825,0 8.37902,0.13299 9.35886,0.54239 0.71352,0.29814 1.61218,1.02215 1.99688,1.60928 0.58394,0.89115 0.69974,1.86436 0.69974,5.88575 0,4.02138 -0.11582,4.99331 -0.69974,5.88446 -0.3847,0.58714 -1.28336,1.31114 -1.99688,1.60928 -0.98567,0.41183 -3.25421,0.53843 -9.44201,0.52704 -6.05783,-0.0111 -8.45526,-0.15062 -9.35887,-0.54367 -0.66815,-0.29064 -1.5295,-1.00753 -1.91373,-1.59392 -0.58289,-0.88955 -0.69846,-1.86402 -0.69846,-5.88319 0,-4.02139 0.11583,-4.9946 0.69974,-5.88575 0.3847,-0.58713 1.28335,-1.31114 1.99688,-1.60928 0.97985,-0.4094 3.26933,-0.54239 9.35759,-0.54239 z"
               inkscape:export-filename="Logo_03_wide-white_1024px.png"
               inkscape:export-xdpi="129.85019"
               inkscape:export-ydpi="129.85019" /><path
               id="path837-9"
               style="fill:#ffffff;fill-opacity:1;stroke-width:0.382681"
               d="m 409.40353,111.47514 c -10.30407,-0.005 -11.65233,0.0776 -11.65233,0.0776 l 0.0303,6.19704 c 0,0 4.3938,-0.1568 11.92294,-0.0814 10.91645,0.10939 11.74189,0.16615 12.98256,0.89503 1.0007,0.58788 1.39997,1.13929 1.63111,2.25175 0.20063,0.96559 -0.0391,2.60844 -0.0391,2.60844 0,0 -2.73131,-0.0899 -11.80439,-0.0899 h -11.28146 c -2.80563,-0.01 -4.17254,1.69256 -4.66828,3.39354 l -0.0907,2.96245 c -0.0339,1.10844 0.0279,4.81917 0.0279,4.81917 -0.0287,3.66759 2.99866,4.77163 5.95723,4.90688 0.73665,0.1573 6.9393,0.30506 13.78299,0.32924 11.42171,0.0404 12.55159,-0.0149 13.76217,-0.66417 0.92073,-0.49379 1.42202,-1.09883 1.66137,-2.00765 0.18806,-0.71598 0.27228,-5.26359 0.18545,-10.10449 -0.15621,-8.71609 -0.0678,-7.61575 -0.0678,-7.61575 0.0998,-4.10028 -4.58005,-7.89122 -9.42691,-7.89122 0,0 -3.81643,0.0177 -12.91309,0.0134 z m -4.62272,16.43778 9.82256,0.10218 8.45607,0.12286 c 0.81668,0 1.33814,0.20233 1.31747,0.71922 l 0.0149,1.87705 c 0.007,0.90622 0.0403,2.0367 0.0403,2.0367 -0.0444,0.54446 -0.34334,1.02107 -1.18227,0.99511 -0.35253,-0.0109 -3.8898,-0.0263 -8.62547,-0.0364 -4.73568,-0.0101 -8.91711,-0.17644 -9.38951,-0.0606 -1.11267,0.27284 -1.83184,-0.74384 -1.84782,-1.33319 l -0.0774,-2.85515 c 0.2214,-1.19859 0.68675,-1.42469 1.47114,-1.56782 z"
               sodipodi:nodetypes="sccssscsccsccssccccssccccssscssccc" /><path
               style="fill:#74c0ff;fill-opacity:1;stroke-width:0.382681"
               d="m 366.76277,138.76199 c 0,0 -0.006,-2.91437 0.0249,-9.70111 0.0242,-5.39451 0.21926,-9.91537 0.47092,-10.91487 0.25539,-1.01421 0.99294,-2.30958 1.81857,-3.1939 0.76391,-0.81824 2.16384,-1.79038 3.11098,-2.16031 1.41293,-0.55185 3.3535,-0.70498 10.81009,-0.85301 6.91445,-0.13727 9.66268,0.29651 9.66268,0.29651 l -0.0364,5.35409 c 0,0 -2.33628,0.004 -7.14107,0.004 -3.75848,0 -7.58807,0.18998 -8.51021,0.42218 -0.92214,0.23219 -1.98858,0.76642 -2.36987,1.18717 -0.6173,0.68116 -0.71423,1.78975 -0.8846,10.11614 -0.15858,7.75007 -0.0825,9.6375 -0.0825,9.6375 z"
               id="path1874-1" /><path
               style="fill:#ffffff;fill-opacity:1;stroke-width:0.382681"
               d="m 438.22204,138.93622 c 0,0 -0.006,-2.91437 0.0249,-9.70111 0.0242,-5.39451 0.21926,-9.91537 0.47092,-10.91487 0.25539,-1.01421 0.99294,-2.30958 1.81857,-3.1939 0.76391,-0.81824 2.16384,-1.79038 3.11098,-2.16031 1.41293,-0.55185 3.3535,-0.70498 10.81009,-0.85301 6.91445,-0.13727 9.66268,0.29651 9.66268,0.29651 l -0.0364,5.35409 c 0,0 -2.33628,0.004 -7.14107,0.004 -3.75848,0 -7.58807,0.18998 -8.51021,0.42218 -0.92214,0.23219 -1.98858,0.76642 -2.36987,1.18717 -0.6173,0.68116 -0.71423,1.78975 -0.8846,10.11614 -0.15858,7.75007 -0.0825,9.6375 -0.0825,9.6375 z"
               id="path1874-5-3" /><path
               style="fill:#74c0ff;fill-opacity:1;stroke-width:0.382681"
               d="m 286.67548,139.0974 c 0,0 0.10173,-3.30513 0.13308,-10.30862 0.0234,-5.21445 0.20853,-10.05994 0.41152,-10.76775 0.20301,-0.70781 0.66265,-1.73937 1.02146,-2.29235 0.35879,-0.55298 1.00561,-1.26373 1.43738,-1.57944 0.43176,-0.31571 1.56487,-0.90843 2.51801,-1.31715 1.56542,-0.67129 3.85869,-0.95844 13.59607,-0.87583 l 12.49078,-0.0174 -0.0991,5.56897 c 0,0 -0.76554,0.0856 -9.94353,0.0856 -6.67632,0 -12.24733,0.0867 -12.24733,0.0867 -1.91698,-0.11173 -2.07796,1.35761 -2.07796,1.35761 l -0.0105,2.98482 c 0,0 -0.35568,1.67522 1.77256,1.50442 l 19.57483,0.05 -0.092,5.05009 -19.5206,0.0686 c -1.90057,-0.0585 -1.88167,1.17469 -1.88167,1.17469 l -0.13903,9.41026 -6.94391,-0.18311 z"
               id="path4594-7" /><path
               style="fill:#ffffff;fill-opacity:1;stroke-width:0.382681"
               d="m 586.48935,139.64432 c -7.26135,0.0613 -15.00985,0.11304 -15.00985,0.11304 l 0.0133,-5.93058 c 0,0 2.52721,-0.16082 13.27376,-0.16082 10.74151,0 12.93998,-0.0818 12.93998,-0.0818 0.33043,-0.33043 0.75198,-1.54987 0.88391,-2.07553 0.13194,-0.52566 0.083,-1.5038 -0.10872,-2.17366 l -0.45678,-1.34766 -10.78459,-0.0772 c -10.11893,-0.0725 -11.0017,-0.26445 -12.42345,-1.01411 -0.84191,-0.44392 -1.94911,-1.37581 -2.46047,-2.07087 -0.82545,-1.12197 -0.93273,-1.67366 -0.95628,-4.91745 -0.0247,-3.39907 0.0487,-3.76459 1.05311,-5.24509 0.82275,-1.21274 1.55111,-1.75908 3.06102,-2.29609 1.74773,-0.62158 3.51455,-0.71823 14.98354,-0.81965 11.99593,-0.10607 15.36433,0.0523 15.36433,0.0523 l -0.0258,5.99027 c 0,0 -5.40965,0.004 -14.06674,0.004 -11.27634,0 -11.8197,0.0331 -12.55193,0.76537 -0.42257,0.42257 -0.76536,1.2756 -0.76536,1.90458 0,0.81525 0.29399,1.33218 1.03376,1.81773 0.90804,0.59598 2.34055,0.70179 11.77706,0.86986 10.32681,0.18392 10.78459,0.22384 11.80875,1.02965 0.58602,0.46107 1.44272,1.31789 1.90381,1.90405 0.74297,0.94455 0.83829,1.52742 0.83829,5.12596 0,3.84236 -0.0586,4.14482 -1.09267,5.63692 -0.83933,1.2112 -1.54902,1.72838 -3.06143,2.23107 -1.67435,0.55652 -3.94317,0.67104 -15.17127,0.76578 z"
               id="path851-4"
               sodipodi:nodetypes="sccscsscsssssssccssssssssssss" /><path
               style="fill:#ffffff;fill-opacity:1;stroke-width:0.382681"
               d="m 521.95164,139.76062 c -7.26135,0.0613 -15.00985,0.11304 -15.00985,0.11304 l 0.0133,-5.93058 c 0,0 2.52721,-0.16082 13.27376,-0.16082 10.74151,0 12.93998,-0.0818 12.93998,-0.0818 0.33043,-0.33044 0.75198,-1.54988 0.88391,-2.07553 0.13194,-0.52566 0.083,-1.50381 -0.10872,-2.17366 l -0.45678,-1.34767 -10.78459,-0.0772 c -10.11893,-0.0725 -11.0017,-0.26444 -12.42345,-1.0141 -0.84191,-0.44392 -1.94911,-1.37581 -2.46047,-2.07087 -0.82545,-1.12197 -0.93273,-1.67366 -0.95628,-4.91745 -0.0247,-3.39907 0.0487,-3.76459 1.05311,-5.24509 0.82275,-1.21275 1.55111,-1.75909 3.06102,-2.29609 1.74773,-0.62159 3.51455,-0.71824 14.98354,-0.81966 11.99593,-0.10607 15.36433,0.0523 15.36433,0.0523 l -0.0258,5.99028 c 0,0 -5.40965,0.004 -14.06674,0.004 -11.27634,0 -11.8197,0.0331 -12.55193,0.76536 -0.42257,0.42257 -0.76536,1.27561 -0.76536,1.90459 0,0.81525 0.29399,1.33218 1.03376,1.81773 0.90804,0.59598 2.34055,0.70179 11.77706,0.86986 10.32681,0.18392 10.78459,0.22383 11.80875,1.02964 0.58602,0.46108 1.44272,1.3179 1.90381,1.90406 0.74297,0.94455 0.83829,1.52742 0.83829,5.12595 0,3.84237 -0.0586,4.14483 -1.09267,5.63692 -0.83933,1.21121 -1.54902,1.72839 -3.06143,2.23108 -1.67435,0.55651 -3.94317,0.67103 -15.17127,0.76578 z"
               id="path851-0-4"
               sodipodi:nodetypes="sccscsscsssssssccssssssssssss" /><path
               style="fill:#ffffff;fill-opacity:1;stroke-width:0.382681"
               d="m 563.39044,139.73677 c -3e-5,7e-5 -5.27371,0.31088 -7.38235,-0.19145 -2.67495,-0.63106 -3.98997,-2.38011 -4.83217,-4.75882 -0.62353,-1.81236 -0.65855,-3.82651 -0.65855,-9.24191 0,-3.72868 -0.0904,-7.73094 -0.0904,-7.73094 l -5.19965,-0.0547 0.0104,-6.41931 c 0,0 3.15767,0.0679 5.32229,0 -0.0322,-2.42953 0.0148,-7.1266 0.0148,-7.1266 l 7.24377,0.006 -0.0223,7.12024 c 3.02944,0.0877 6.27352,-0.0664 9.30348,0 l -0.14097,6.1426 c 0,0 -5.5387,-4e-5 -9.0402,0.0884 l -0.0439,6.63179 c -0.0263,3.98637 -0.16789,6.70429 0.0836,7.17401 0.22262,0.41598 0.51257,1.32279 1.33904,1.74443 2.39644,0.99728 4.48878,0.67 7.68636,0.64541 l 0.0371,5.97811 c 0,0 -1.46298,0.0337 -3.63028,-0.007 z"
               id="path849-8"
               sodipodi:nodetypes="cccsccccccccccsscccsc" /><path
               style="fill:#ffffff;fill-opacity:1;stroke-width:0.382681"
               d="m 486.45373,139.73677 c -3e-5,7e-5 -5.27371,0.31088 -7.38236,-0.19145 -2.67495,-0.63106 -3.98996,-2.38011 -4.83217,-4.75882 -0.62352,-1.81236 -0.65855,-3.82651 -0.65855,-9.24191 0,-3.72868 -0.0904,-7.73094 -0.0904,-7.73094 l -5.19965,-0.0547 0.0104,-6.41931 c 0,0 3.15767,0.0679 5.32228,0 -0.0322,-2.42953 0.0148,-7.1266 0.0148,-7.1266 l 7.24377,0.006 -0.0223,7.12024 c 3.02944,0.0877 6.27353,-0.0664 9.30348,0 l -0.14096,6.1426 c 0,0 -5.53871,-4e-5 -9.0402,0.0884 l -0.0439,6.63179 c -0.0263,3.98637 -0.16788,6.70429 0.0836,7.17401 0.22262,0.41598 0.51257,1.32279 1.33903,1.74443 2.39644,0.99728 4.48878,0.67 7.68636,0.64541 l 0.0371,5.97811 c 0,0 -1.46298,0.0337 -3.63027,-0.007 z"
               id="path849-1-4"
               sodipodi:nodetypes="cccsccccccccccsscccsc" /><path
               style="fill:#ffffff;fill-opacity:1;stroke-width:0.382681"
               d="m 494.33345,139.93629 0.2277,-28.30974 6.29826,0.16333 -0.12558,28.14077 z"
               id="path845-6" /><path
               id="path4592-3"
               style="fill:#ffffff;fill-opacity:1;stroke-width:0.382681"
               d="m 250.4905,102.08402 -6.66443,-0.12021 c 0.12114,21.22409 0.15444,20.70194 -0.017,31.62201 0.1585,0.73036 0.9793,1.96515 1.95466,2.94052 2.65113,2.33927 4.55138,2.89746 8.17633,3.02946 0,0 4.83143,0.11654 9.56709,0.0492 6.30801,-0.0897 9.97397,0.0455 9.97397,0.0455 3.60579,0.10731 7.82682,-3.48586 7.83487,-7.07214 0,0 -0.0244,-0.4176 -0.02,-6.94937 0.005,-6.92484 0.0148,-8.17316 0.0148,-8.17316 -0.0446,-3.88538 -4.53786,-5.83005 -7.32328,-5.87471 0,0 -5.85529,-0.10185 -13.6158,-0.10599 -6.91644,-0.004 -9.79022,-0.0523 -9.79022,-0.0523 z m 21.43405,15.38857 c 1.52918,0.28561 1.99875,1.99387 1.99875,1.99387 0.155,0.55169 0.10649,3.97341 0.10649,6.67533 0,4.88543 0.059,6.34492 0.059,6.34492 -1.03542,0.98509 -1.46542,0.90921 -2.25436,1.1283 -0.78893,0.2191 -5.8785,0.0331 -9.66703,0.0162 -3.78855,-0.0169 -9.03747,-0.21039 -9.03747,-0.21039 -1.28029,-0.47929 -1.80815,-1.2448 -2.46601,-2.42548 l -0.0371,-11.40476 c 0.35088,-0.81871 1.47057,-1.89413 1.81125,-2.07646 z"
               sodipodi:nodetypes="cccccscccccsccccscssccccc" /><text
               id="text4489-4"
               y="138.62712"
               x="610.24792"
               style="font-style:normal;font-variant:normal;font-weight:bold;font-stretch:normal;font-size:40.2771px;line-height:201.385px;font-family:Titillium;-inkscape-font-specification:'Titillium, Bold';font-variant-ligatures:normal;font-variant-caps:normal;font-variant-numeric:normal;font-variant-east-asian:normal;text-align:start;letter-spacing:0px;word-spacing:0px;writing-mode:lr-tb;text-anchor:start;fill:#74c0ff;fill-opacity:1;stroke:#74c0ff;stroke-width:1.61648;stroke-dasharray:none;stroke-opacity:1"
               xml:space="preserve"><tspan
                 style="font-style:normal;font-variant:normal;font-weight:bold;font-stretch:normal;font-size:40.2771px;font-family:Titillium;-inkscape-font-specification:'Titillium, Bold';font-variant-ligatures:normal;font-variant-caps:normal;font-variant-numeric:normal;font-variant-east-asian:normal;text-align:start;writing-mode:lr-tb;text-anchor:start;fill:#74c0ff;fill-opacity:1;stroke:#74c0ff;stroke-width:1.61648;stroke-dasharray:none;stroke-opacity:1"
                 y="138.62712"
                 x="610.24792"
                 id="tspan4487-4"
                 sodipodi:role="line">4</tspan></text><use
               x="0"
               y="0"
               xlink:href="#bfa_icon%20"
               id="use8875"
               transform="translate(-35.421285,135.48531)" /></g></g></g></g></g></svg>
