<?xml version="1.0" encoding="UTF-8" standalone="no"?>
<!-- Created with Inkscape (http://www.inkscape.org/) -->

<svg
   xmlns:dc="http://purl.org/dc/elements/1.1/"
   xmlns:cc="http://creativecommons.org/ns#"
   xmlns:rdf="http://www.w3.org/1999/02/22-rdf-syntax-ns#"
   xmlns:svg="http://www.w3.org/2000/svg"
   xmlns="http://www.w3.org/2000/svg"
   xmlns:sodipodi="http://sodipodi.sourceforge.net/DTD/sodipodi-0.dtd"
   xmlns:inkscape="http://www.inkscape.org/namespaces/inkscape"
   version="1.1"
   id="svg2"
   width="16"
   height="16"
   viewBox="0 0 16 16"
   sodipodi:docname="CLEAR_TRACK.svg"
   inkscape:version="0.92.4 (5da689c313, 2019-01-14)">
  <metadata
     id="metadata8">
    <rdf:RDF>
      <cc:Work
         rdf:about="">
        <dc:format>image/svg+xml</dc:format>
        <dc:type
           rdf:resource="http://purl.org/dc/dcmitype/StillImage" />
        <dc:title></dc:title>
      </cc:Work>
    </rdf:RDF>
  </metadata>
  <defs
     id="defs6" />
  <sodipodi:namedview
     pagecolor="#ffffff"
     bordercolor="#666666"
     borderopacity="1"
     objecttolerance="10"
     gridtolerance="10"
     guidetolerance="10"
     inkscape:pageopacity="0"
     inkscape:pageshadow="2"
     inkscape:window-width="1025"
     inkscape:window-height="729"
     id="namedview4"
     showgrid="false"
     inkscape:zoom="14.75"
     inkscape:cx="8"
     inkscape:cy="8"
     inkscape:window-x="0"
     inkscape:window-y="0"
     inkscape:window-maximized="0"
     inkscape:current-layer="svg2" />
  <g
     id="CLEAR_TRACK">
    <path
       style="fill:#ffffff;stroke-width:0.03125"
       d="M 0,12.5 V 9 h 2.0902057 2.0902056 l 0.011885,0.3210628 c 0.011121,0.3004322 0.020208,0.3384088 0.141409,0.5909991 0.1187341,0.2474481 0.1771235,0.3189791 0.7008794,0.8586251 1.0145756,1.045356 2.6206106,2.656031 3.2676969,3.277137 0.6504306,0.624317 0.7679787,0.709583 1.1664684,0.846116 0.2290025,0.07846 0.773009,0.07816 1.0625,-5.97e-4 0.378302,-0.102915 0.507165,-0.186785 0.97716,-0.635977 0.751129,-0.717884 2.584767,-2.546428 3.314773,-3.305564 0.879023,-0.9141 0.988093,-1.1009292 0.988946,-1.6939895 L 15.8125,9 H 15.90625 16 V 12.5 16 H 8 0 Z M 0,0.5 V 0 h 8 8 V 0.5 1 H 8 0 Z"
       id="path825"
       inkscape:connector-curvature="0" />
    <path
       style="fill:#fefefe;stroke-width:0.03125"
       d="M 1,5 V 2 h 7 7 V 4.7620197 7.5240391 L 14.804688,7.4209159 C 14.49474,7.2572666 14.280458,7.2069997 13.890625,7.2064909 13.325722,7.2057534 12.948019,7.3620362 12.486148,7.7876228 12.271242,7.985645 12.245966,8 12.112207,8 H 11.96875 V 5.8330172 c 0,-2.0319241 -0.0036,-2.1775219 -0.05818,-2.3360775 C 11.666605,2.7878343 11.145834,2.2803536 10.5,2.1223648 10.252128,2.0617283 9.7146766,2.0699048 9.484375,2.1378159 8.8462475,2.3259864 8.3561125,2.8126345 8.1233563,3.4891525 8.0653334,3.6577988 8.0625,3.7669303 8.0625,5.8330172 V 8 H 7.9189606 C 7.7840056,8 7.7608069,7.9864231 7.5310578,7.7729816 7.0627278,7.3378937 6.6818553,7.1758384 6.125,7.1747253 5.7246413,7.1739253 5.5283406,7.2189841 5.2033487,7.3862822 5.0212528,7.4800206 4.88846,7.5805888 4.7132741,7.7574303 L 4.4729759,8 H 2.736488 1 Z M 4.6087,7.4519878 C 5.0954362,7.3252091 5.4254987,7.1362322 5.7808653,6.7808653 6.1362322,6.4254988 6.3252091,6.0954363 6.4519878,5.6087 c 0.065202,-0.2503269 0.065202,-0.9670731 0,-1.2174 C 6.3252091,3.9045638 6.1362322,3.5745013 5.7808653,3.2191347 5.4254987,2.8637678 5.0954362,2.6747909 4.6087,2.5480122 c -0.2503269,-0.065202 -0.9670731,-0.065202 -1.2174,0 C 2.9045637,2.6747909 2.5745013,2.8637678 2.2191346,3.2191347 1.8637678,3.5745013 1.6747909,3.9045638 1.5480122,4.3913 c -0.065202,0.2503269 -0.065202,0.9670731 0,1.2174 0.1267787,0.4867363 0.3157556,0.8167988 0.6711224,1.1721653 0.3503996,0.3503997 0.6800985,0.5408369 1.1596123,0.6698031 0.2365081,0.063609 0.9877125,0.064415 1.2299531,0.00132 z"
       id="path823"
       inkscape:connector-curvature="0" />
    <path
       style="fill:#fe9832;stroke-width:0.03125"
       d="M 9.6397641,13.863728 C 9.51496,13.805611 9.1525231,13.463492 7.8771975,12.199971 6.1594503,10.498122 5.4241591,9.7359366 5.2784331,9.5061506 5.1984569,9.3800413 5.1875,9.3339788 5.1875,9.1238731 5.1875,8.9199566 5.2014906,8.856985 5.2830634,8.6937434 5.4469594,8.3657588 5.6862603,8.2157519 6.0801012,8.1941169 6.4913531,8.1715256 6.4368878,8.1296481 7.9906622,9.6631147 8.54412,10.209339 9.0099625,10.65625 9.0258672,10.65625 c 0.017464,0 0.034385,-1.3583984 0.042722,-3.4296875 L 9.0823934,3.796875 9.1644656,3.6372675 C 9.2807066,3.4112116 9.3767434,3.3074778 9.5677275,3.2016859 9.717685,3.1186201 9.7625428,3.109375 10.015625,3.109375 c 0.253082,0 0.29794,0.00925 0.447898,0.092311 0.191179,0.1059004 0.287327,0.2098429 0.402915,0.4355816 l 0.08173,0.1596075 0.01435,3.4296875 c 0.0089,2.1155091 0.02563,3.4296874 0.0438,3.4296874 0.0162,0 0.474917,-0.439941 1.019378,-0.9776474 1.533027,-1.5140044 1.483244,-1.4758109 1.894205,-1.4532356 0.393841,0.021635 0.633142,0.1716419 0.797038,0.4996265 0.08157,0.1632416 0.09556,0.2262132 0.09556,0.4301297 0,0.3071541 -0.04324,0.377081 -0.601887,0.9733878 -0.566752,0.604955 -3.43386,3.45018 -3.641757,3.61396 -0.09104,0.07172 -0.217599,0.14486 -0.28125,0.162538 -0.203445,0.0565 -0.4750151,0.0392 -0.6478419,-0.04128 z M 3.5,6.9517906 C 2.7690446,6.7491281 2.230589,6.2008472 2.0443274,5.4695559 1.967835,5.1692353 1.995302,4.6192038 2.1009238,4.3362016 2.3227473,3.7418494 2.7334749,3.3303263 3.3362016,3.0985308 3.528055,3.0247481 3.5873538,3.0175103 4,3.0175103 c 0.4126462,0 0.471945,0.00724 0.6637984,0.08102 0.6014278,0.2312958 1.006375,0.636243 1.237671,1.2376708 0.073783,0.1918534 0.08102,0.2511521 0.08102,0.6637984 0,0.4126462 -0.00724,0.471945 -0.08102,0.6637984 C 5.6697322,6.2663734 5.2589562,6.6764472 4.6637984,6.8993528 4.3936859,7.0005188 3.7761134,7.028345 3.5,6.9517906 Z"
       id="path821"
       inkscape:connector-curvature="0" />
    <path
       style="fill:#000000;stroke-width:0.03125"
       d="M 9.6875,14.949289 C 9.5329809,14.919213 9.2935222,14.833374 9.1147816,14.743986 8.8977337,14.635441 8.1978431,13.97313 6.6389072,12.401051 4.5863641,10.331204 4.4794147,10.215728 4.3337053,9.9120619 4.2125041,9.6594716 4.2034172,9.621495 4.1922962,9.3210628 L 4.1804112,9 H 2.0902057 0 V 5 1 h 8 8 V 5 9 H 15.90625 15.8125 l -3.72e-4,0.2578125 c -8.53e-4,0.5930603 -0.109923,0.7798895 -0.988946,1.6939895 -0.730005,0.759136 -2.563644,2.58768 -3.314773,3.305562 -0.466261,0.445624 -0.601462,0.534325 -0.961535,0.630826 -0.191018,0.05119 -0.717834,0.08865 -0.8593749,0.0611 z m 0.600106,-1.04428 c 0.06365,-0.01768 0.190214,-0.09082 0.28125,-0.162538 0.207896,-0.16378 3.075005,-3.009005 3.641757,-3.61396 C 14.769261,9.5322041 14.8125,9.4622772 14.8125,9.1551231 14.8125,8.9512066 14.798509,8.888235 14.716937,8.7249934 14.553041,8.3970088 14.31374,8.2470019 13.919899,8.2253669 13.508938,8.2027916 13.558721,8.1645981 12.025694,9.6786025 11.481233,10.216309 11.022512,10.65625 11.006316,10.65625 c -0.01816,0 -0.03495,-1.3141784 -0.0438,-3.4296875 L 10.948164,3.796875 10.866438,3.6372675 C 10.75085,3.4115288 10.654702,3.3075863 10.463522,3.2016859 10.313565,3.1186201 10.268707,3.109375 10.015625,3.109375 c -0.2530822,0 -0.29794,0.00925 -0.4478975,0.092311 C 9.3767434,3.3074778 9.2807066,3.4112116 9.1644656,3.6372675 L 9.0823934,3.796875 9.0685894,7.2265625 C 9.0602525,9.2978516 9.0433316,10.65625 9.0258672,10.65625 9.0099625,10.65625 8.54412,10.209339 7.9906622,9.6631147 6.4368878,8.1296481 6.4913531,8.1715256 6.0801012,8.1941169 5.6862603,8.2157519 5.4469594,8.3657588 5.2830634,8.6937434 5.2014906,8.856985 5.1875,8.9199566 5.1875,9.1238731 c 0,0.2101057 0.010957,0.2561682 0.090933,0.3822775 0.145726,0.229786 0.8810172,0.9919724 2.5987644,2.6938204 1.7607597,1.744462 1.7514659,1.736801 2.1071775,1.737049 0.1031251,6.3e-5 0.2395791,-0.01433 0.3032311,-0.03201 z M 4.7132741,7.7574303 C 4.88846,7.5805888 5.0212528,7.4800206 5.2033487,7.3862822 5.5283406,7.2189841 5.7246413,7.173925 6.125,7.1747253 6.6818553,7.1758378 7.0627278,7.3378937 7.5310578,7.7729816 7.7608069,7.9864231 7.7840056,8 7.9189606,8 H 8.0625 V 5.8330172 C 8.0625,3.7669303 8.06533,3.6577987 8.123356,3.4891525 8.3561125,2.8126345 8.8462475,2.3259864 9.484375,2.1378159 9.7146766,2.0699048 10.252128,2.0617283 10.5,2.1223648 c 0.645834,0.1579888 1.166605,0.6654695 1.410573,1.3745749 0.05455,0.1585556 0.05818,0.3041534 0.05818,2.3360775 V 8 h 0.143457 c 0.133759,0 0.159035,-0.014355 0.373941,-0.2123772 0.461871,-0.4255866 0.839574,-0.5818687 1.404477,-0.5811319 0.389833,5.094e-4 0.604115,0.050776 0.914063,0.214425 L 15,7.5240391 V 4.7620197 2 H 8 1 V 5 8 H 2.736488 4.4729759 Z M 3.3787469,7.4506684 C 2.8992331,7.3217022 2.5695342,7.131265 2.2191346,6.7808653 1.8637678,6.4254987 1.6747909,6.0954362 1.5480122,5.6087 c -0.065202,-0.2503269 -0.065202,-0.9670731 0,-1.2174 C 1.6747909,3.9045637 1.8637678,3.5745012 2.2191346,3.2191347 2.5745013,2.8637678 2.9045637,2.6747909 3.3913,2.5480122 c 0.2503269,-0.065202 0.9670731,-0.065202 1.2174,0 0.4867363,0.1267787 0.8167988,0.3157556 1.1721653,0.6711225 0.3553669,0.3553665 0.5443438,0.685429 0.6711225,1.1721653 0.065202,0.2503269 0.065202,0.9670731 0,1.2174 C 6.3252091,6.0954362 6.1362322,6.4254987 5.7808653,6.7808653 5.4254988,7.1362322 5.0954363,7.3252091 4.6087,7.4519878 4.3664594,7.5150834 3.615255,7.5142778 3.3787469,7.4506691 Z M 4.6637984,6.8993528 C 5.2589563,6.6764472 5.6697322,6.2663734 5.9014694,5.6637984 5.9752519,5.471945 5.9824897,5.4126463 5.9824897,5 c 0,-0.4126462 -0.00724,-0.471945 -0.08102,-0.6637984 C 5.6701734,3.7347738 5.2652263,3.3298266 4.6637984,3.0985308 4.471945,3.0247481 4.4126463,3.0175103 4,3.0175103 c -0.4126462,0 -0.471945,0.00724 -0.6637984,0.08102 C 2.7334749,3.3303263 2.3227473,3.7418494 2.1009238,4.3362016 1.995302,4.6192038 1.967835,5.1692353 2.0443274,5.4695559 2.230589,6.2008472 2.7690446,6.7491281 3.5,6.9517906 3.7761134,7.028345 4.3936859,7.0005188 4.6637984,6.8993528 Z"
       id="path819"
       inkscape:connector-curvature="0" />
  </g>
</svg>
