<?xml version="1.0" encoding="UTF-8" standalone="no"?>
<!-- Created with Inkscape (http://www.inkscape.org/) -->

<svg
   xmlns:dc="http://purl.org/dc/elements/1.1/"
   xmlns:cc="http://creativecommons.org/ns#"
   xmlns:rdf="http://www.w3.org/1999/02/22-rdf-syntax-ns#"
   xmlns:svg="http://www.w3.org/2000/svg"
   xmlns="http://www.w3.org/2000/svg"
   xmlns:sodipodi="http://sodipodi.sourceforge.net/DTD/sodipodi-0.dtd"
   xmlns:inkscape="http://www.inkscape.org/namespaces/inkscape"
   version="1.1"
   id="svg2"
   width="16"
   height="16"
   viewBox="0 0 16 16"
   sodipodi:docname="HOOK_NEW.svg"
   inkscape:version="0.92.4 (5da689c313, 2019-01-14)">
  <metadata
     id="metadata8">
    <rdf:RDF>
      <cc:Work
         rdf:about="">
        <dc:format>image/svg+xml</dc:format>
        <dc:type
           rdf:resource="http://purl.org/dc/dcmitype/StillImage" />
        <dc:title></dc:title>
      </cc:Work>
    </rdf:RDF>
  </metadata>
  <defs
     id="defs6" />
  <sodipodi:namedview
     pagecolor="#ffffff"
     bordercolor="#666666"
     borderopacity="1"
     objecttolerance="10"
     gridtolerance="10"
     guidetolerance="10"
     inkscape:pageopacity="0"
     inkscape:pageshadow="2"
     inkscape:window-width="1258"
     inkscape:window-height="853"
     id="namedview4"
     showgrid="false"
     inkscape:zoom="14.75"
     inkscape:cx="8"
     inkscape:cy="8"
     inkscape:window-x="0"
     inkscape:window-y="0"
     inkscape:window-maximized="0"
     inkscape:current-layer="svg2" />
  <g
     id="HOOK_NEW">
    <path
       style="fill:#ffffff;stroke-width:0.03125"
       d="M 0,8 V 0 h 8 8 L 15.9975,5.6640625 C 15.9954,10.4109 15.9884,11.297762 15.9541,11.140625 15.853905,10.681346 15.62932,10.14108 15.385036,9.77163 15.216119,9.5161628 14.697393,8.966835 14.430328,8.7605984 l -0.179047,-0.1382659 -0.0085,-2.1055366 -0.0085,-2.1055362 -0.07576,-0.08063 C 14.116947,4.2862834 14.068836,4.25 14.051701,4.25 14.034571,4.25 13.998341,4.230877 13.971211,4.207505 13.944076,4.1841328 13.844531,4.1228944 13.75,4.07142 13.655469,4.0199456 13.528906,3.9480234 13.46875,3.9115928 13.29628,3.807145 13.15529,3.7246775 12.953125,3.6099969 12.85,3.5514975 12.716406,3.4741669 12.65625,3.4381503 12.387639,3.2773294 12.303793,3.2288459 12.149178,3.1449406 12.058536,3.0957519 11.963281,3.0395019 11.9375,3.0199407 11.911719,3.0003796 11.857058,2.9654745 11.816031,2.9423739 11.775004,2.9192733 11.696072,2.8748925 11.640625,2.84375 11.585178,2.8126075 11.506246,2.7682267 11.465219,2.7451261 11.424192,2.7220255 11.369531,2.6875178 11.34375,2.6684424 11.317969,2.649367 11.219531,2.5916445 11.125,2.5401701 11.030469,2.4886957 10.903906,2.4167733 10.84375,2.3803427 10.67128,2.2758949 10.53029,2.1934275 10.328125,2.0787467 10.225,2.0202477 10.091406,1.9429168 10.03125,1.9069004 9.7626391,1.7460795 9.6787925,1.6975959 9.5241781,1.6136907 9.4335363,1.5645019 9.3382813,1.5082519 9.3125,1.4886907 9.2867188,1.4691296 9.2320578,1.4342245 9.1910309,1.4111239 8.9875044,1.2965255 8.8832634,1.2367084 8.8072291,1.190885 8.3839737,0.93580303 8.086305,0.78125 8.0182728,0.78125 7.9365878,0.78125 7.8201994,0.8422828 7.3046875,1.1554475 7.2488281,1.1893811 7.1539063,1.2459922 7.09375,1.28125 7.0335937,1.3165078 6.9421875,1.3711265 6.890625,1.402625 6.7865597,1.4661964 6.5808725,1.5850934 6.4839353,1.6377112 6.4493181,1.6565013 6.3789453,1.7 6.3275509,1.734375 6.2106634,1.812555 6.1387234,1.8572718 6,1.9379752 5.9398437,1.9729716 5.8484375,2.0273765 5.796875,2.058875 5.6999391,2.1180913 5.5112847,2.2276706 5.375,2.3039198 5.3320312,2.3279602 5.2335937,2.388468 5.15625,2.4383816 5.0789062,2.4882953 4.9664063,2.5580695 4.90625,2.5934354 4.8460937,2.6288014 4.740625,2.692802 4.671875,2.735659 4.603125,2.778516 4.51875,2.8271569 4.484375,2.84375 4.45,2.8603431 4.365625,2.908984 4.296875,2.951841 4.228125,2.994698 4.1226563,3.0585571 4.0625,3.09375 4.0023437,3.1289428 3.896875,3.1928566 3.828125,3.2357803 3.759375,3.2787041 3.6820313,3.3230375 3.65625,3.3342988 3.6304688,3.34556 3.5671875,3.3853703 3.515625,3.4227656 3.4640625,3.4601613 3.4007813,3.5005391 3.375,3.5124947 3.3492188,3.52445 3.271875,3.5681922 3.203125,3.6096991 3.134375,3.6512059 3.0289063,3.7141509 2.96875,3.7495766 2.9085938,3.7850025 2.803125,3.8490519 2.734375,3.8919091 2.665625,3.9347659 2.58125,3.9839325 2.546875,4.0011678 2.5125,4.0184031 2.4210937,4.0741856 2.34375,4.1251291 2.2664063,4.1760722 2.1679688,4.2347781 2.125,4.2555866 2.0820313,4.2763947 1.9871094,4.3408419 1.9140625,4.3988022 L 1.78125,4.5041844 v 3.5545612 3.5545614 l 0.085937,0.07939 c 0.047266,0.04366 0.1070312,0.08858 0.1328125,0.09981 0.025781,0.01123 0.103125,0.05572 0.171875,0.09887 0.06875,0.04315 0.153125,0.09203 0.1875,0.108622 0.034375,0.01659 0.11875,0.06523 0.1875,0.108091 0.156594,0.09762 0.2923691,0.177654 0.53125,0.313162 0.1874197,0.106317 0.3099047,0.178255 0.515625,0.30284 0.060156,0.03643 0.1867187,0.108353 0.28125,0.159827 0.094531,0.05147 0.1929688,0.109197 0.21875,0.128272 0.025781,0.01908 0.080442,0.05358 0.1214691,0.07668 0.041027,0.0231 0.1254015,0.0711 0.1875,0.106668 0.062098,0.03557 0.1480621,0.08419 0.1910309,0.108053 0.042969,0.02386 0.134375,0.07806 0.203125,0.120436 0.06875,0.04238 0.153125,0.09062 0.1875,0.107217 0.034375,0.01659 0.11875,0.06523 0.1875,0.108091 0.1565941,0.09762 0.2923691,0.177654 0.53125,0.313162 0.1874197,0.106317 0.3099047,0.178255 0.515625,0.30284 0.060156,0.03643 0.1867187,0.108353 0.28125,0.159827 0.094531,0.05147 0.1929688,0.109197 0.21875,0.128272 0.025781,0.01908 0.080442,0.05358 0.1214691,0.07668 0.041027,0.0231 0.1199593,0.06748 0.1754059,0.09862 0.055447,0.03114 0.1343794,0.07552 0.1754059,0.09862 0.041027,0.0231 0.095688,0.05761 0.1214691,0.07668 0.025781,0.01908 0.1242187,0.07677 0.21875,0.12821 0.094531,0.05144 0.2250372,0.123723 0.2900131,0.16063 0.1470116,0.0835 0.2396594,0.08462 0.3809113,0.0046 0.2318175,-0.131326 0.3475284,-0.198071 0.4275394,-0.246615 0.045561,-0.02764 0.1494806,-0.08904 0.2309325,-0.13644 l 0.1480937,-0.08618 0.2690675,0.258748 c 0.3041056,0.292442 0.6112228,0.507033 0.949019,0.663104 0.274395,0.126778 0.654761,0.257481 0.913799,0.314002 0.157137,0.03429 -0.729725,0.04131 -5.476563,0.0434 L 0,16 Z m 12.859375,7.954119 c 0.520252,-0.113517 1.115869,-0.37765 1.502676,-0.666376 0.316006,-0.235878 0.831359,-0.769562 1.022985,-1.059373 0.244284,-0.36945 0.468869,-0.909716 0.569083,-1.368995 0.03565,-0.163382 0.04123,0.02655 0.0434,1.476563 L 16,16 14.335938,15.9975 c -1.450014,-0.0022 -1.639945,-0.0077 -1.476563,-0.0434 z"
       id="path829"
       inkscape:connector-curvature="0" />
    <path
       style="fill:#fefefe;stroke-width:0.03125"
       d="M 11.140625,15.954119 C 10.620373,15.840602 10.024756,15.576469 9.6379488,15.287743 9.3219428,15.051865 8.8065897,14.518181 8.6149637,14.22837 8.3658381,13.851598 8.143535,13.312553 8.0443641,12.844768 8.0197213,12.728531 8.0008516,12.455743 8.0005425,12.211273 7.9998706,11.680488 8.0448569,11.536242 8.2877691,11.290274 8.5582669,11.016374 8.6319225,11 9.5935359,11 h 0.8099421 l -0.04549,-0.128929 c -0.03835,-0.108705 -0.04549,-0.517968 -0.04549,-2.6090397 0,-2.8469735 -0.01789,-2.6622566 0.287769,-2.9717576 C 10.875798,5.0112794 10.930795,5 12.015625,5 c 1.08483,0 1.139827,0.011279 1.415356,0.2902737 0.288561,0.2921913 0.287751,0.2872197 0.287885,1.7647491 l 1.25e-4,1.2731022 0.209304,0.1082362 c 0.115117,0.05953 0.315456,0.1874972 0.445197,0.2843716 0.30604,0.2285131 0.822676,0.7652425 1.011554,1.0508972 0.249125,0.376772 0.471428,0.915817 0.570599,1.383602 0.05917,0.279116 0.05917,1.41042 0,1.689536 -0.09917,0.467784 -0.321474,1.00683 -0.570599,1.383602 -0.191626,0.289811 -0.706979,0.823495 -1.022985,1.059373 -0.393485,0.29371 -0.989202,0.555939 -1.517283,0.667893 -0.269848,0.05721 -1.43978,0.05617 -1.704144,-0.0015 z M 12.9375,15.406687 c 0.645829,-0.194447 1.082835,-0.45406 1.548981,-0.920206 0.470725,-0.470725 0.729984,-0.909789 0.923871,-1.564606 0.06782,-0.22904 0.07402,-0.306331 0.07402,-0.921875 0,-0.615544 -0.0062,-0.692835 -0.07402,-0.921875 C 15.216465,10.423307 14.957206,9.9842437 14.486481,9.5135187 14.139702,9.1667397 13.835563,8.9505072 13.472838,8.7928534 L 13.234375,8.6892084 13.21875,7.2531056 C 13.20364,5.8640919 13.20101,5.8141744 13.13869,5.7307447 13.10325,5.6833027 13.035425,5.6154928 12.987961,5.5800559 c -0.08241,-0.061531 -0.126184,-0.064431 -0.97234,-0.064431 -0.846156,0 -0.889927,0.0029 -0.97234,0.064431 -0.04746,0.035437 -0.115292,0.103265 -0.150729,0.1507291 -0.06379,0.085443 -0.06443,0.1105759 -0.06443,2.53484 0,2.424264 6.38e-4,2.449398 0.06443,2.53484 0.147837,0.198012 0.195558,0.213458 0.726907,0.235284 0.269452,0.01107 0.5325,0.0338 0.584552,0.05052 0.295976,0.09506 0.497269,0.260256 0.632538,0.519099 0.119766,0.22918 0.119766,0.560082 0,0.789262 -0.04606,0.08814 -0.12828,0.204788 -0.182707,0.259215 -0.05443,0.05443 -0.171073,0.136645 -0.259215,0.182707 -0.22918,0.119766 -0.560082,0.119766 -0.789262,0 -0.309846,-0.161922 -0.46234,-0.385103 -0.556806,-0.814911 -0.06225,-0.283232 -0.174732,-0.438618 -0.356149,-0.491999 -0.07346,-0.02162 -0.428833,-0.03013 -0.9948774,-0.02382 -0.8324066,0.0093 -0.8853066,0.01333 -0.9668191,0.07424 -0.1993881,0.148981 -0.2151844,0.198016 -0.2140925,0.664577 0.00112,0.479277 0.050062,0.702039 0.2627216,1.195844 0.3737881,0.867952 1.1764931,1.597423 2.0956534,1.904461 0.412606,0.137827 0.546848,0.153758 1.203125,0.142775 0.539357,-0.009 0.657116,-0.02013 0.859375,-0.08103 z"
       id="path827"
       inkscape:connector-curvature="0" />
    <path
       style="fill:#98cbfe;stroke-width:0.03125"
       d="M 11.390625,14.955356 C 10.245637,14.691402 9.4194522,13.911482 9.0878306,12.781514 9.0550013,12.66965 9.0197428,12.448047 9.0094788,12.289063 L 8.9908172,12 h 0.7666778 0.766678 l 0.03847,0.203872 c 0.118122,0.626024 0.561657,1.080958 1.19284,1.223497 0.187176,0.04227 0.254075,0.0441 0.4344,0.01187 0.632637,-0.113058 1.093752,-0.558237 1.237488,-1.194722 0.04227,-0.187176 0.0441,-0.254075 0.01187,-0.4344 -0.08385,-0.469219 -0.384613,-0.890268 -0.777646,-1.088671 -0.278692,-0.140683 -0.525801,-0.189205 -0.966282,-0.189736 L 11.3125,10.53125 V 8.265625 6 h 0.702831 0.70283 l 0.0081,1.5351291 0.0081,1.535129 0.217897,0.073382 c 0.980583,0.3302353 1.692582,1.0962219 1.972425,2.1219849 0.08558,0.313695 0.08558,1.155055 0,1.46875 -0.150305,0.55094 -0.410394,1.00475 -0.797983,1.392339 -0.377038,0.377038 -0.790164,0.618909 -1.3452,0.787569 -0.267784,0.08137 -1.1084,0.106195 -1.390889,0.04107 z m -3.5,-7.2935844 C 7.8390625,7.6324066 7.684375,7.5453784 7.546875,7.4683759 7.409375,7.3913734 7.26875,7.3115813 7.234375,7.2910597 7.2,7.2705378 7.1296875,7.2318747 7.078125,7.2051413 7.0265625,7.1784075 6.9421875,7.1308034 6.890625,7.0993541 6.8390625,7.0679047 6.7125,6.9955988 6.609375,6.9386741 6.50625,6.8817497 6.3445312,6.7924591 6.25,6.7402506 6.1554687,6.6880425 6.0359375,6.6195953 5.984375,6.5881459 5.9328125,6.5566966 5.8484375,6.5097259 5.796875,6.4837666 5.7453125,6.4578072 5.6820312,6.4229828 5.65625,6.4063791 5.5808412,6.3578138 5.3161787,6.2090288 5.046875,6.0638075 4.909375,5.9896613 4.7757812,5.9119819 4.75,5.8911869 4.7242188,5.8703922 4.6398437,5.8221991 4.5625,5.7840916 4.4851562,5.7459838 4.3726563,5.6856075 4.3125,5.6499222 4.2523437,5.6142366 4.1433594,5.5518431 4.0703125,5.5112697 3.9972656,5.4706963 3.8777344,5.4043038 3.8046875,5.3637303 3.7316406,5.3231569 3.6226563,5.2606069 3.5625,5.22473 3.5023438,5.1888534 3.3898437,5.1277169 3.3125,5.0888713 3.2351563,5.0500256 3.1507813,5.0019894 3.125,4.9821234 3.0992188,4.9622578 2.965625,4.8860091 2.828125,4.8126822 2.690625,4.739355 2.5665652,4.6689287 2.5524366,4.6561791 2.5306117,4.6364847 2.9398257,4.375 2.992472,4.375 3.002499,4.375 3.032905,4.355877 3.060039,4.332505 3.087174,4.3091328 3.1867187,4.2478944 3.28125,4.19642 3.3757812,4.1449456 3.5023437,4.0730762 3.5625,4.0367103 3.622656,4.0003443 3.7140625,3.9487063 3.765625,3.9219594 3.817188,3.8952124 3.8875,3.8560704 3.921875,3.8349784 c 0.034375,-0.021092 0.175,-0.10152 0.3125,-0.1787281 0.1375,-0.077208 0.2733691,-0.1544963 0.3019309,-0.1717516 0.028562,-0.017255 0.162156,-0.094599 0.296875,-0.171875 C 4.9679003,3.2353475 5.10625,3.1548641 5.140625,3.1337719 5.175,3.1126795 5.2453125,3.073538 5.296875,3.0467907 5.3484375,3.0200435 5.4398437,2.9684054 5.5,2.9320395 5.5601563,2.8956736 5.6867187,2.8238043 5.78125,2.7723299 5.8757812,2.7208555 5.9753259,2.6596173 6.0024606,2.6362451 6.0295953,2.6128728 6.0601269,2.59375 6.0703084,2.59375 c 0.01808,0 0.5241957,-0.2822767 0.6171916,-0.3442272 0.025781,-0.017174 0.082031,-0.047906 0.125,-0.068292 0.042969,-0.020386 0.099219,-0.053469 0.125,-0.073518 C 6.9632812,2.0876635 7.06875,2.0249444 7.171875,1.9683367 7.4378022,1.8223628 7.5013644,1.7864495 7.625,1.7123153 8.0270878,1.4712163 8.21875,1.3925935 8.21875,1.46875 8.21875,1.485937 8.230863,1.5 8.245668,1.5 c 0.014805,0 0.2351335,0.1195313 0.4896182,0.265625 0.2544846,0.1460938 0.4732306,0.265625 0.4861021,0.265625 0.012872,0 0.02809,0.01128 0.03382,0.025067 0.013834,0.03329 0.5355344,0.3254098 0.8697917,0.4870285 0.09453,0.045707 0.228125,0.1175997 0.296875,0.1597608 0.169126,0.1037169 0.308274,0.1854107 0.53125,0.3118969 0.180602,0.1024487 0.260713,0.1496001 0.53125,0.3126811 0.06875,0.041443 0.153125,0.089893 0.1875,0.1076675 0.03438,0.017774 0.11875,0.066989 0.1875,0.1093653 0.06875,0.042376 0.160156,0.096572 0.203125,0.1204353 0.04297,0.023863 0.128933,0.072487 0.191031,0.1080538 0.0621,0.035566 0.146473,0.083567 0.1875,0.1066675 0.04103,0.023101 0.09569,0.057608 0.121469,0.076684 0.02578,0.019075 0.124219,0.076798 0.21875,0.1282725 0.09453,0.051474 0.221094,0.1233966 0.28125,0.1598272 0.06016,0.036431 0.164016,0.09824 0.2308,0.1373528 0.06678,0.039113 0.147671,0.086488 0.17975,0.1052778 0.05551,0.032514 0.05568,0.036556 0.0035,0.083762 -0.03014,0.02728 -0.08994,0.064791 -0.132874,0.083357 -0.04294,0.018567 -0.134318,0.069008 -0.203068,0.1120906 -0.06875,0.043083 -0.153125,0.092756 -0.1875,0.1103841 -0.03438,0.017628 -0.09766,0.052334 -0.140625,0.077124 -0.06256,0.036095 -0.241283,0.045164 -0.897265,0.045533 -0.971012,5.469e-4 -1.044691,0.016769 -1.312895,0.2890815 -0.225229,0.2286791 -0.268307,0.3437204 -0.288566,0.7706163 -0.01488,0.3136159 -0.02434,0.3602306 -0.07927,0.390625 -0.0343,0.018982 -0.101098,0.06008 -0.148437,0.091328 C 10.038732,6.5724391 10,6.5878375 10,6.5754097 10,6.5629817 9.975391,6.5725697 9.945313,6.5967187 9.915235,6.6208667 9.857058,6.6595257 9.8160314,6.6826257 9.5959091,6.8065688 9.5067278,6.8580794 9.421875,6.9102888 9.3703125,6.9420147 9.3,6.9819666 9.265625,6.9990706 9.23125,7.016175 9.146875,7.0656584 9.078125,7.1090341 9.009375,7.15241 8.9109375,7.2094288 8.859375,7.2357425 8.8078125,7.2620563 8.7023437,7.3243981 8.625,7.3742797 8.5476562,7.4241613 8.4210937,7.4971059 8.34375,7.5363791 8.2664062,7.5756519 8.1695878,7.6327519 8.1285981,7.6632672 8.0382534,7.7305259 8.0110509,7.730355 7.890625,7.6617703 Z"
       id="path825"
       inkscape:connector-curvature="0" />
    <path
       style="fill:#6598cb;stroke-width:0.03125"
       d="m 7.640625,14.514503 c -0.06875,-0.04209 -0.1696075,-0.09982 -0.2241278,-0.128272 -0.05452,-0.02845 -0.1056491,-0.07667 -0.1136197,-0.107153 -0.00797,-0.03048 -0.075863,-0.08654 -0.1508722,-0.124571 C 7.0769959,14.116473 7.0085937,14.075964 7,14.064486 6.9914062,14.053009 6.9351563,14.019176 6.875,13.989301 6.8148437,13.959426 6.709375,13.900834 6.640625,13.859097 6.571875,13.81736 6.3398437,13.683711 6.125,13.5621 5.9101562,13.440488 5.6921875,13.315817 5.640625,13.285052 5.5890625,13.254287 5.4835937,13.1935 5.40625,13.149971 5.2489837,13.061461 4.4110325,12.58309 4.265625,12.498809 4.2140625,12.468922 3.9820313,12.335589 3.75,12.202512 3.3779569,11.989135 3.2109878,11.894274 2.9859663,11.768437 c -0.0335,-0.01873 -0.075687,-0.04565 -0.09375,-0.05981 C 2.8741536,11.694461 2.7257812,11.60854 2.5625,11.517688 L 2.265625,11.352504 2.257663,8.2075019 C 2.2532839,6.4777509 2.2581443,5.0625 2.2684639,5.0625 c 0.01032,0 0.05615,0.024609 0.1018461,0.054687 0.1303853,0.085823 0.1963863,0.1242431 0.364065,0.2119278 0.085937,0.04494 0.2125,0.1155547 0.28125,0.1569222 0.06875,0.041368 0.1460938,0.085295 0.171875,0.097617 0.025781,0.012321 0.159375,0.087177 0.296875,0.1663456 0.1375,0.079169 0.2710938,0.1540241 0.296875,0.1663456 0.025781,0.012322 0.103125,0.056249 0.171875,0.097617 0.06875,0.041367 0.1953125,0.1121803 0.28125,0.1573616 C 4.320312,6.2165048 4.4398437,6.282775 4.5,6.3185909 4.560156,6.3544069 4.6691406,6.4169069 4.7421875,6.45748 4.8152345,6.498053 4.9347656,6.5644459 5.0078125,6.6050194 5.0808594,6.6455931 5.1898437,6.7081431 5.25,6.74402 5.310156,6.779897 5.4226562,6.841033 5.5,6.8798787 c 0.077344,0.038846 0.1617188,0.086882 0.1875,0.1067479 0.025781,0.019866 0.159375,0.096196 0.296875,0.1696234 0.1375,0.073427 0.2710938,0.1497578 0.296875,0.1696234 0.025781,0.019866 0.1101562,0.067902 0.1875,0.1067479 0.077344,0.038846 0.1898437,0.099982 0.25,0.1358587 0.060156,0.035877 0.1691406,0.098427 0.2421875,0.1390003 0.073047,0.040573 0.1925781,0.106966 0.265625,0.1475394 0.073047,0.040573 0.1820312,0.1034406 0.2421875,0.1397047 0.060156,0.036264 0.1550781,0.086725 0.2109375,0.1121356 L 7.78125,8.1530609 v 3.2203441 c 0,1.77119 -0.00352,3.219735 -0.00781,3.21899 -0.0043,-7.47e-4 -0.064063,-0.0358 -0.1328125,-0.07789 z M 8.25,9.7389106 V 8.1530609 L 8.3515625,8.1066125 C 8.4074219,8.0810659 8.5164062,8.0190825 8.59375,7.9688716 8.6710938,7.9186609 8.8046875,7.8409437 8.890625,7.7961669 8.9765625,7.75139 9.1101562,7.6740462 9.1875,7.6242919 9.2648438,7.5745375 9.3984375,7.4971937 9.484375,7.4524169 9.5703125,7.40764 9.7039062,7.3305656 9.78125,7.2811406 9.8585938,7.2317156 9.9851562,7.1593753 10.0625,7.120385 c 0.07734,-0.038991 0.165234,-0.091239 0.195313,-0.1161069 0.05198,-0.042976 0.05469,0.048467 0.05469,1.8463247 0,1.5758682 0.0076,1.9130552 0.04549,2.0204682 L 10.403478,11 H 9.5926991 C 8.6845253,11 8.5622669,11.0221 8.3540669,11.223895 L 8.25,11.32476 Z m 5.46875,-2.6752384 c 0,-1.2030441 -0.0038,-1.2901181 -0.06242,-1.4469213 C 13.621992,5.5249869 13.544649,5.4021697 13.484451,5.3438234 13.424253,5.2854772 13.375,5.2288119 13.375,5.2179003 c 0,-0.010911 0.03867,-0.039287 0.08594,-0.063056 0.04726,-0.023769 0.123264,-0.068333 0.168886,-0.099031 C 13.675446,5.0251163 13.72818,5 13.747012,5 c 0.02439,0 0.03424,0.4808412 0.03424,1.671875 0,1.09375 -0.01081,1.671875 -0.03125,1.671875 -0.02032,0 -0.03125,-0.4475259 -0.03125,-1.2800778 z"
       id="path823"
       inkscape:connector-curvature="0" />
    <path
       style="fill:#728eae;stroke-width:0.03125"
       d="m 8.2511225,14.07244 0.00112,-0.525565 0.1037137,0.220969 c 0.057043,0.121533 0.153045,0.298085 0.2133385,0.392339 l 0.1096247,0.171371 -0.1046479,0.0686 c -0.057556,0.03773 -0.1132203,0.0686 -0.1236987,0.0686 -0.010478,0 -0.059894,0.02908 -0.1098131,0.06463 L 8.25,14.598006 Z"
       id="path821"
       inkscape:connector-curvature="0" />
    <path
       style="fill:#000000;stroke-width:0.03125"
       d="M 11.265625,15.455481 C 10.150088,15.201489 9.2094197,14.439125 8.7793466,13.440478 8.5666866,12.946673 8.5177469,12.72391 8.516625,12.244633 c -0.00109,-0.466561 0.014704,-0.515596 0.2140925,-0.664577 0.081512,-0.06091 0.1344125,-0.06497 0.9668191,-0.07424 0.5660444,-0.0063 0.9214124,0.0022 0.9948774,0.02382 0.181417,0.05338 0.293898,0.208767 0.356149,0.491999 0.09447,0.429808 0.24696,0.652989 0.556806,0.814911 0.22918,0.119766 0.560082,0.119766 0.789262,0 0.08814,-0.04606 0.204788,-0.12828 0.259215,-0.182707 0.05443,-0.05443 0.136645,-0.171073 0.182707,-0.259215 0.119766,-0.22918 0.119766,-0.560082 0,-0.789262 -0.135269,-0.258843 -0.336562,-0.424037 -0.632538,-0.519099 -0.05205,-0.01672 -0.3151,-0.03945 -0.584552,-0.05052 -0.531349,-0.02183 -0.57907,-0.03727 -0.726907,-0.235284 -0.06379,-0.08544 -0.06443,-0.110576 -0.06443,-2.53484 0,-2.4242641 6.38e-4,-2.4493975 0.06443,-2.53484 0.03544,-0.047464 0.103265,-0.1152922 0.150729,-0.1507291 0.08241,-0.061531 0.126184,-0.064431 0.97234,-0.064431 0.846156,0 0.889927,0.0029 0.97234,0.064431 0.04746,0.035437 0.115292,0.1032469 0.150729,0.1506888 0.06232,0.08343 0.06494,0.1333472 0.08006,1.5223609 l 0.01563,1.4361028 0.238463,0.103645 c 0.362725,0.1576538 0.666864,0.3738863 1.013643,0.7206653 0.470725,0.470725 0.729984,0.9097893 0.923871,1.5646063 0.06782,0.22904 0.07402,0.306331 0.07402,0.921875 0,0.615544 -0.0062,0.692835 -0.07402,0.921875 -0.193887,0.654818 -0.453146,1.093881 -0.923871,1.564606 -0.355926,0.355926 -0.655074,0.565864 -1.046004,0.734069 -0.53126,0.228585 -0.668793,0.255556 -1.362352,0.267163 -0.449328,0.0075 -0.677702,-0.0015 -0.8125,-0.03223 z m 1.515889,-0.541198 c 0.555036,-0.16866 0.968162,-0.410531 1.3452,-0.787569 0.387589,-0.387589 0.647678,-0.841399 0.797983,-1.392339 0.08558,-0.313695 0.08558,-1.155055 0,-1.46875 C 14.644854,10.239862 13.932855,9.4738759 12.952272,9.1436406 L 12.734375,9.0702581 12.726268,7.5351291 12.718161,6 H 12.015331 11.3125 v 2.265625 2.265625 l 0.382813,4.62e-4 c 0.440481,5.32e-4 0.68759,0.04905 0.966282,0.189737 0.393033,0.198402 0.693792,0.619452 0.777646,1.08867 0.100205,0.56071 -0.26117,1.219603 -0.81428,1.484674 -0.323976,0.155262 -0.589648,0.195771 -0.86948,0.132577 -0.631183,-0.142539 -1.074718,-0.597474 -1.19284,-1.223498 L 10.524173,12 H 9.757495 8.9908172 l 0.018662,0.289063 c 0.010264,0.158984 0.045523,0.380587 0.078352,0.492451 0.3316216,1.129968 1.1578068,1.909888 2.3027948,2.173842 0.282489,0.06512 1.123105,0.0403 1.390889,-0.04107 z M 7.8125,15.180743 C 7.7523437,15.14509 7.6257812,15.073804 7.53125,15.02233 7.4367187,14.970856 7.3382812,14.913133 7.3125,14.894058 7.2867188,14.874982 7.2320578,14.840474 7.1910309,14.817374 7.1500044,14.794273 7.0710716,14.749893 7.015625,14.71875 6.9601784,14.687608 6.8812456,14.643227 6.8402191,14.620126 6.7991922,14.597026 6.7445313,14.562518 6.71875,14.543442 6.6929688,14.524367 6.5945312,14.466644 6.5,14.41517 6.4054687,14.363696 6.2789063,14.291773 6.21875,14.255343 6.0130297,14.130758 5.8905447,14.05882 5.703125,13.952503 5.4642441,13.816995 5.3284691,13.736958 5.171875,13.639341 5.103125,13.596484 5.01875,13.547843 4.984375,13.53125 4.95,13.514657 4.865625,13.466409 4.796875,13.424033 4.728125,13.381657 4.6367187,13.327461 4.59375,13.303598 4.5507812,13.279734 4.4648172,13.23111 4.4027191,13.195544 4.3406206,13.159977 4.2562456,13.111977 4.2152191,13.088876 4.1741922,13.065776 4.1195313,13.031268 4.09375,13.012192 4.0679688,12.993117 3.9695313,12.935394 3.875,12.88392 3.7804687,12.832446 3.6539063,12.760523 3.59375,12.724093 3.3880297,12.599508 3.2655447,12.52757 3.078125,12.421253 2.8392441,12.285745 2.703469,12.205708 2.546875,12.108091 2.478125,12.065234 2.39375,12.016593 2.359375,12 2.325,11.983407 2.240625,11.934527 2.171875,11.891378 2.103125,11.848228 2.0257813,11.803736 2,11.792506 1.9742187,11.781276 1.9144531,11.736362 1.8671875,11.692698 L 1.78125,11.613307 V 8.0587456 4.5041844 L 1.9140625,4.3988022 C 1.9871094,4.3408419 2.0820313,4.2763947 2.125,4.2555866 2.1679688,4.2347781 2.2664063,4.1760722 2.34375,4.1251291 2.4210937,4.0741856 2.5125,4.0184031 2.546875,4.0011678 2.58125,3.9839325 2.665625,3.9347659 2.734375,3.8919091 2.803125,3.8490519 2.9085938,3.7850025 2.96875,3.7495766 3.0289063,3.7141509 3.134375,3.6512059 3.203125,3.6096991 3.271875,3.5681922 3.3492188,3.52445 3.375,3.5124947 3.4007813,3.5005391 3.4640625,3.4601613 3.515625,3.4227656 3.5671875,3.3853703 3.6304688,3.34556 3.65625,3.3342988 3.6820313,3.3230375 3.759375,3.2787041 3.828125,3.2357803 3.896875,3.1928566 4.0023437,3.1289428 4.0625,3.09375 4.1226563,3.0585571 4.228125,2.994698 4.296875,2.951841 4.365625,2.908984 4.45,2.8603431 4.484375,2.84375 4.51875,2.8271569 4.603125,2.778516 4.671875,2.735659 4.740625,2.692802 4.8460937,2.6288014 4.90625,2.5934354 4.9664063,2.5580695 5.0789062,2.4882953 5.15625,2.4383816 5.2335937,2.388468 5.3320312,2.3279602 5.375,2.3039198 5.5112847,2.2276706 5.6999391,2.1180913 5.796875,2.058875 5.8484375,2.0273765 5.9398437,1.9729716 6,1.9379753 6.1387234,1.8572718 6.2106634,1.812555 6.3275509,1.734375 6.3789453,1.7 6.4493181,1.6565013 6.4839353,1.6377112 6.5808725,1.5850934 6.7865597,1.4661964 6.890625,1.402625 6.9421875,1.3711265 7.0335937,1.3165078 7.09375,1.28125 7.1539063,1.2459922 7.2488281,1.1893811 7.3046875,1.1554475 7.8201994,0.84228284 7.9365875,0.78125 8.0182728,0.78125 c 0.068032,0 0.3657009,0.15455303 0.7889563,0.409635 0.076034,0.045823 0.1802753,0.1056405 0.3838018,0.2202389 0.041027,0.023101 0.095688,0.058006 0.1214691,0.077567 0.025781,0.019561 0.1210362,0.075811 0.2116781,0.125 0.1546144,0.083905 0.238461,0.1323888 0.5070719,0.2932097 0.06016,0.036016 0.19375,0.1133473 0.296875,0.1718464 0.202165,0.1146807 0.343155,0.1971481 0.515625,0.3015959 0.06016,0.036431 0.186719,0.108353 0.28125,0.1598274 0.09453,0.051474 0.192969,0.1091969 0.21875,0.1282723 0.02578,0.019075 0.08044,0.053583 0.121469,0.076684 0.04103,0.023101 0.119959,0.067481 0.175406,0.098624 0.05545,0.031143 0.134379,0.075523 0.175406,0.098624 0.04103,0.023101 0.09569,0.058006 0.121469,0.077567 0.02578,0.019561 0.121036,0.075811 0.211678,0.1249999 0.154614,0.083905 0.238461,0.1323888 0.507072,0.2932097 0.06016,0.036017 0.19375,0.1133472 0.296875,0.1718466 0.202165,0.1146806 0.343155,0.1971481 0.515625,0.3015959 0.06016,0.036431 0.186719,0.1083528 0.28125,0.1598272 0.09453,0.051474 0.194076,0.1127128 0.221211,0.136085 0.02713,0.023372 0.06335,0.042495 0.08049,0.042495 0.01713,0 0.06525,0.036283 0.106914,0.08063 l 0.07576,0.08063 0.0085,2.1038665 0.0085,2.1038663 -0.234045,-0.12981 -0.233947,-0.1298087 -0.0011,-1.6796875 c -0.0011,-1.7164066 -0.0037,-1.7548219 -0.112004,-1.6513166 -0.01633,0.015604 -0.09505,0.064475 -0.17494,0.1086013 -0.124397,0.06871 -0.150607,0.07378 -0.182535,0.035309 C 13.261318,5.1102022 12.956599,5.000098 12.834766,4.999539 l -0.100391,-4.607e-4 0.07813,-0.045072 c 0.04297,-0.02479 0.10625,-0.059496 0.140625,-0.077124 0.03438,-0.017628 0.11875,-0.067301 0.1875,-0.1103841 0.06875,-0.043083 0.160131,-0.093524 0.203068,-0.1120906 0.04294,-0.018567 0.102731,-0.056077 0.132875,-0.083357 0.05216,-0.047206 0.05199,-0.051248 -0.0035,-0.083762 C 13.440971,4.4684981 13.360084,4.4211231 13.2933,4.38201 13.226516,4.3428969 13.122656,4.2810881 13.0625,4.2446572 13.002344,4.2082266 12.875781,4.1363044 12.78125,4.08483 12.686719,4.0333556 12.588281,3.9756328 12.5625,3.9565575 12.53672,3.9374825 12.48206,3.9029745 12.441031,3.8798735 12.400001,3.8567735 12.315629,3.8087725 12.253531,3.773206 12.191433,3.73764 12.105469,3.6890156 12.0625,3.6651525 12.019531,3.6412894 11.928125,3.5870934 11.859375,3.5447172 11.790625,3.5023406 11.70625,3.4531263 11.671875,3.4353519 11.6375,3.4175775 11.553125,3.3691269 11.484375,3.3276844 11.213838,3.1646034 11.133727,3.117452 10.953125,3.0150033 10.730149,2.8885171 10.591001,2.8068233 10.421875,2.7031064 10.353125,2.6609453 10.219531,2.589053 10.125,2.5433456 9.7907428,2.3817269 9.2690422,2.0896074 9.2552084,2.0563171 9.2494791,2.0425302 9.2342603,2.03125 9.2213887,2.03125 9.2085172,2.03125 8.9897713,1.9117187 8.7352866,1.765625 8.4808019,1.6195313 8.2604737,1.5 8.2456684,1.5 8.2308634,1.5 8.21875,1.4859375 8.21875,1.46875 8.21875,1.3925935 8.0270878,1.4712162 7.625,1.7123153 7.5013644,1.7864495 7.4378022,1.8223628 7.171875,1.9683367 7.06875,2.0249444 6.9632812,2.0876635 6.9375,2.1077124 6.911719,2.1277614 6.855469,2.1608444 6.8125,2.1812304 6.769531,2.2016164 6.713281,2.2323484 6.6875,2.2495224 6.5945041,2.3114733 6.0883884,2.59375 6.0703084,2.59375 c -0.010181,0 -0.040713,0.019123 -0.067848,0.042495 C 5.9753259,2.6596173 5.8757812,2.7208555 5.78125,2.7723299 5.6867187,2.8238043 5.5601562,2.8956736 5.5,2.9320395 5.4398437,2.9684054 5.3484375,3.0200435 5.296875,3.0467907 5.2453125,3.073538 5.175,3.1126795 5.140625,3.1337719 5.10625,3.1548641 4.9679003,3.2353475 4.8331809,3.3126234 4.6984619,3.3898994 4.5648681,3.4672431 4.5363059,3.4844984 4.5077441,3.5017538 4.371875,3.5790419 4.234375,3.65625 4.096875,3.7334581 3.95625,3.8138859 3.921875,3.8349781 3.8875,3.8560706 3.8171875,3.8952122 3.765625,3.9219594 3.7140625,3.9487066 3.6226563,4.0003447 3.5625,4.0367103 3.5023438,4.0730763 3.3757813,4.1449456 3.28125,4.19642 3.1867187,4.2478944 3.087174,4.3091328 3.0600393,4.332505 3.0329048,4.3558772 3.0024994,4.375 2.992472,4.375 c -0.052646,0 -0.4618603,0.2614847 -0.4400354,0.2811791 0.014129,0.01275 0.1381884,0.083176 0.2756884,0.1565031 0.1375,0.073327 0.2710938,0.1495756 0.296875,0.1694412 0.025781,0.019866 0.1101563,0.067902 0.1875,0.1067479 0.077344,0.038846 0.1898438,0.099982 0.25,0.1358587 0.060156,0.035877 0.1691406,0.098427 0.2421875,0.1390003 0.073047,0.040573 0.1925781,0.106966 0.265625,0.1475394 0.073047,0.040573 0.1820312,0.1029669 0.2421875,0.1386525 0.060156,0.035685 0.1726562,0.096062 0.25,0.1341694 0.077344,0.038107 0.1617188,0.086301 0.1875,0.1070953 0.025781,0.020795 0.159375,0.098474 0.296875,0.1726206 0.2693037,0.1452213 0.5339662,0.2940063 0.609375,0.3425716 0.025781,0.016604 0.089062,0.051428 0.140625,0.077388 0.051563,0.025959 0.1359375,0.07293 0.1875,0.1043793 0.051563,0.031449 0.1746094,0.101826 0.2734375,0.1563925 0.098828,0.054566 0.2605469,0.1438569 0.359375,0.1984232 0.098828,0.054566 0.221875,0.1249431 0.2734375,0.1563925 0.051563,0.031449 0.1359375,0.07842 0.1875,0.1043793 0.051563,0.025959 0.1148438,0.060939 0.140625,0.077732 0.059899,0.039017 0.5424584,0.3097003 0.6923703,0.3883731 0.1124031,0.058988 0.1156784,0.058995 0.203125,3.969e-4 C 8.1631291,7.6374781 8.2664062,7.5780988 8.34375,7.5382816 8.4210938,7.4984641 8.5476562,7.4248691 8.625,7.3747369 8.7023438,7.3246044 8.8078125,7.2620575 8.859375,7.2357437 8.9109375,7.20943 9.009375,7.1524112 9.078125,7.1090353 9.146875,7.0656597 9.23125,7.0161763 9.265625,6.9990719 9.3,6.9819678 9.3703125,6.9420159 9.421875,6.91029 9.5067278,6.8580806 9.5959091,6.80657 9.8160309,6.6826275 9.8570578,6.6595269 9.9152344,6.6208688 9.9453125,6.5967203 9.9753906,6.5725722 10,6.5637472 10,6.5771094 c 0,0.013362 0.01758,0.010009 0.03906,-0.00745 0.02148,-0.017461 0.0918,-0.06113 0.15625,-0.097042 l 0.11719,-0.065298 v 0.2758728 c 0,0.3078872 -0.0026,0.3124915 -0.25,0.4371943 C 9.9851562,7.1593766 9.8585938,7.2317169 9.78125,7.2811419 9.7039062,7.3305669 9.5703125,7.4076412 9.484375,7.4524181 9.3984375,7.497195 9.2648438,7.5745388 9.1875,7.6242931 9.1101562,7.6740475 8.9765625,7.7513912 8.890625,7.7961681 8.8046875,7.840945 8.6710938,7.9186622 8.59375,7.9688728 8.5164062,8.0190838 8.4074219,8.0810672 8.3515625,8.1066138 L 8.25,8.1530622 v 1.5905012 c 0,1.5451996 -0.00176,1.5920956 -0.061845,1.6464696 -0.034015,0.03078 -0.091609,0.134916 -0.1279866,0.231406 -0.060229,0.159755 -0.064863,0.22153 -0.051841,0.691062 0.01332,0.4803 0.021412,0.537034 0.1181075,0.828125 0.099751,0.300289 0.1042462,0.334892 0.1150403,0.885516 0.00867,0.442437 0.019826,0.566036 0.048942,0.542392 0.02074,-0.01684 0.088516,-0.05892 0.1506143,-0.09351 0.062099,-0.03459 0.1428344,-0.08158 0.1794129,-0.104426 0.059371,-0.03708 0.072338,-0.0332 0.1208534,0.03612 0.029891,0.04271 0.1011706,0.129515 0.1584,0.192897 l 0.1040534,0.115238 -0.08,0.04882 c -0.044,0.02685 -0.1186722,0.07319 -0.1659378,0.102971 -0.047266,0.02978 -0.1140625,0.06976 -0.1484375,0.08885 -0.034375,0.01909 -0.1152344,0.06503 -0.1796875,0.102104 -0.064453,0.03707 -0.1668341,0.09552 -0.2275131,0.129898 -0.1380935,0.07823 -0.249536,0.0763 -0.3896744,-0.0068 z M 7.78125,11.373405 V 8.1530609 L 7.6796875,8.10686 C 7.6238281,8.0814497 7.5289063,8.0309888 7.46875,7.9947244 7.4085937,7.9584603 7.2996094,7.8955931 7.2265625,7.8550197 7.1535156,7.8144463 7.0339844,7.7480538 6.9609375,7.7074803 6.8878906,7.6669069 6.7789063,7.6043569 6.71875,7.56848 6.6585937,7.5326034 6.5460937,7.4714669 6.46875,7.4326213 6.3914062,7.3937756 6.3070312,7.3457394 6.28125,7.3258734 6.2554688,7.3060078 6.121875,7.2296772 5.984375,7.15625 5.846875,7.0828228 5.7132812,7.0064922 5.6875,6.9866266 5.6617188,6.9667606 5.5773437,6.9187244 5.5,6.8798788 5.4226562,6.8410331 5.3101563,6.7798966 5.25,6.74402 5.1898437,6.7081431 5.0808594,6.6455931 5.0078125,6.6050197 4.9347656,6.5644463 4.8152344,6.4980538 4.7421875,6.4574803 4.6691406,6.4169069 4.5601563,6.3544069 4.5,6.3185913 4.4398437,6.2827753 4.3203125,6.2165053 4.234375,6.1713241 4.1484375,6.1261428 4.021875,6.05533 3.953125,6.0139625 3.884375,5.9725947 3.8070313,5.9286672 3.78125,5.9163456 3.7554688,5.9040241 3.621875,5.8291688 3.484375,5.75 3.346875,5.6708313 3.2132813,5.5959759 3.1875,5.5836544 3.1617188,5.5713328 3.084375,5.5274053 3.015625,5.4860375 2.946875,5.44467 2.8203125,5.374055 2.734375,5.3291153 2.5666963,5.2414306 2.5006953,5.2030106 2.37031,5.1171875 2.3246142,5.0871094 2.2787835,5.0625 2.2684639,5.0625 c -0.01032,0 -0.01518,1.4152509 -0.010801,3.1450019 l 0.00796,3.1450021 0.296875,0.165184 c 0.1632812,0.09085 0.3116536,0.176773 0.3297163,0.190936 0.018063,0.01416 0.06025,0.04108 0.09375,0.05981 0.2250215,0.125837 0.3919906,0.220698 0.7640337,0.434075 0.2320313,0.133077 0.4640625,0.26641 0.515625,0.296297 0.1454075,0.08428 0.9833587,0.562652 1.140625,0.651162 0.077344,0.04353 0.1828125,0.104316 0.234375,0.135081 0.051563,0.03076 0.2695312,0.155436 0.484375,0.277048 0.2148437,0.121611 0.446875,0.25526 0.515625,0.296997 0.06875,0.04174 0.1742187,0.100329 0.234375,0.130204 0.060156,0.02988 0.1164062,0.06371 0.125,0.07519 0.00859,0.01148 0.076996,0.05199 0.1520053,0.09002 0.075009,0.03803 0.1429016,0.09409 0.1508722,0.124571 0.00797,0.03048 0.0591,0.0787 0.1136197,0.107153 0.05452,0.02845 0.1553778,0.08618 0.2241278,0.128272 0.06875,0.04209 0.1285156,0.07715 0.1328125,0.07789 0.0043,7.43e-4 0.00781,-1.4478 0.00781,-3.21899 z"
       id="path819"
       inkscape:connector-curvature="0" />
  </g>
</svg>
