<?xml version="1.0" encoding="UTF-8" standalone="no"?>
<!-- Created with Inkscape (http://www.inkscape.org/) -->

<svg
   xmlns:dc="http://purl.org/dc/elements/1.1/"
   xmlns:cc="http://creativecommons.org/ns#"
   xmlns:rdf="http://www.w3.org/1999/02/22-rdf-syntax-ns#"
   xmlns:svg="http://www.w3.org/2000/svg"
   xmlns="http://www.w3.org/2000/svg"
   xmlns:sodipodi="http://sodipodi.sourceforge.net/DTD/sodipodi-0.dtd"
   xmlns:inkscape="http://www.inkscape.org/namespaces/inkscape"
   version="1.1"
   id="svg2"
   width="16"
   height="16"
   viewBox="0 0 16 16"
   sodipodi:docname="PARENT_CURVE.svg"
   inkscape:version="0.92.4 (5da689c313, 2019-01-14)">
  <metadata
     id="metadata8">
    <rdf:RDF>
      <cc:Work
         rdf:about="">
        <dc:format>image/svg+xml</dc:format>
        <dc:type
           rdf:resource="http://purl.org/dc/dcmitype/StillImage" />
        <dc:title></dc:title>
      </cc:Work>
    </rdf:RDF>
  </metadata>
  <defs
     id="defs6" />
  <sodipodi:namedview
     pagecolor="#ffffff"
     bordercolor="#666666"
     borderopacity="1"
     objecttolerance="10"
     gridtolerance="10"
     guidetolerance="10"
     inkscape:pageopacity="0"
     inkscape:pageshadow="2"
     inkscape:window-width="947"
     inkscape:window-height="602"
     id="namedview4"
     showgrid="false"
     inkscape:zoom="14.75"
     inkscape:cx="8"
     inkscape:cy="8"
     inkscape:window-x="0"
     inkscape:window-y="0"
     inkscape:window-maximized="0"
     inkscape:current-layer="svg2" />
  <g
     id="PARENT_CURVE">
    <path
       style="fill:#ffffff;stroke-width:0.03125"
       d="m 0.00395304,13.179688 c 0.00255377,-1.822 0.01386332,-2.742881 0.03195037,-2.601563 0.09823351,0.767523 0.43407409,1.585841 0.94264531,2.296875 0.25038568,0.350065 0.99230828,1.092633 1.36520128,1.366388 1.3634056,1.000932 3.119605,1.616844 4.953125,1.737099 0.085937,0.0056 -1.5207031,0.01278 -3.5703125,0.01588 L 0,16 Z M 8.703125,15.978487 c 1.83352,-0.120255 3.589719,-0.736167 4.953125,-1.737099 0.372893,-0.273755 1.114816,-1.016323 1.365201,-1.366388 0.508571,-0.711034 0.844412,-1.529352 0.942646,-2.296875 0.01809,-0.141318 0.0294,0.779563 0.03195,2.601563 L 16,16 12.273438,15.9944 C 10.223828,15.9913 8.6171875,15.98416 8.703125,15.97852 Z m -1.125,-3.011804 C 5.9202528,12.825072 4.6026066,12.298406 3.75,11.436575 3.3323469,11.014403 3.091149,10.582863 3.0427696,10.17123 3.0307306,10.068796 3.0073963,10 2.9846921,10 2.9622611,10 2.9329548,9.9168137 2.9130348,9.7966006 2.8738928,9.5603856 2.7556116,9.2842441 2.6220183,9.1171875 L 2.5283048,9 h 1.6656321 1.6656318 l 1.8890004,1.889194 c 1.2440453,1.244173 1.8735178,1.89463 1.8436534,1.905115 -0.08703,0.03055 -0.5788744,0.109539 -0.8734725,0.140271 -0.4908784,0.05121 -0.8113772,0.06023 -1.140625,0.0321 z M 10.695232,9.5546078 C 9.2129834,8.0721722 8.9999575,7.8473969 8.9996619,7.7655184 8.9992119,7.6407534 8.9305728,7.4209206 8.8302594,7.2229619 l -0.081812,-0.1614488 0.133589,0.01854 C 10.333794,7.2815297 11.482219,7.7873372 12.25,8.563425 c 0.723224,0.7310491 0.893329,1.4340163 0.525735,2.172627 -0.102647,0.206251 -0.299172,0.48599 -0.353941,0.503808 -0.01723,0.0056 -0.794185,-0.752757 -1.726562,-1.6852522 z M 0.00220344,8.96875 0.0029234,8.265625 0.06331513,8.4203153 c 0.03681985,0.094312 0.12793983,0.222951 0.23345161,0.3295753 l 0.17305989,0.1748847 -0.0964773,0.0923 C 0.25322218,9.1320006 0.16649708,9.2707353 0.07357306,9.4966291 L 0.00148347,9.671875 Z M 15.957856,9.4112166 C 15.892663,8.7097684 15.510754,7.7918887 14.98711,7.078125 14.737688,6.7381469 14.01865,6.0254231 13.65625,5.7589534 12.237241,4.7155678 10.470678,4.1160669 8.515625,4.0144309 8.0849534,3.9920419 7.7442925,4.0340209 7.4717681,4.1430634 7.3999319,4.1718066 7.3362913,4.1900478 7.3303438,4.1835994 7.3243966,4.1771509 7.1967066,3.9257813 7.0465881,3.625 6.8964697,3.3242188 6.7616909,3.0705091 6.7470797,3.0612008 6.7324684,3.0518925 6.4333747,2.4612675 6.0824262,1.7487008 5.4959719,0.55796109 5.43065,0.43979309 5.2751709,0.28836795 5.1763903,0.19216295 5.0416922,0.0985031 4.9514391,0.06326715 4.7977972,0.00328348 4.8303,0.00291468 10.398438,0.0014617 L 16,0 v 4.8125 c 0,2.646875 -0.005,4.8125 -0.01114,4.8125 -0.0061,0 -0.02008,-0.096203 -0.03101,-0.2137834 z M 0.00209049,3.8046875 0,0 2.0859375,0.0014617 4.171875,0.0029234 4.0174616,0.06320995 C 3.9325188,0.09637364 3.7938816,0.19061662 3.70931,0.27268575 3.5732106,0.40475797 3.4823666,0.57052112 2.9175288,1.7174508 2.5666053,2.4300175 2.267448,3.0206425 2.2527349,3.0299508 2.2154959,3.0535102 0.09600739,7.3305612 0.04534935,7.484375 0.01080999,7.5892472 0.00384437,6.9967375 0.00209049,3.8046875 Z"
       id="path851"
       inkscape:connector-curvature="0" />
    <path
       style="fill:#fefefe;stroke-width:0.03125"
       d="M 7.421875,15.4808 C 6.3744341,15.396594 5.3431972,15.172913 4.5349437,14.854611 3.4864388,14.441693 2.5528544,13.841413 1.8978712,13.159014 1.0464157,12.271918 0.57878141,11.255313 0.51075563,10.143518 0.490861,9.8183659 0.49186938,9.8115875 0.58969378,9.6128778 0.88224681,9.0186184 1.6026568,8.8717875 2.0968509,9.3056956 c 0.1534634,0.1347428 0.2700419,0.3651841 0.3219245,0.6363497 0.024347,0.1272517 0.064602,0.2802397 0.089455,0.3399737 0.024853,0.05973 0.08362,0.228137 0.1305931,0.374231 0.1370927,0.426377 0.3247574,0.711341 0.7518017,1.14159 0.4367622,0.440041 0.8066022,0.700362 1.3926859,0.980277 0.8660375,0.413622 1.7804335,0.632498 2.9510641,0.706384 0.5062106,0.03195 1.4356578,-0.06143 2.0522581,-0.206193 L 10.07085,13.211582 6.6804591,9.8167287 C 4.8157437,7.9495591 3.260625,6.3784519 3.2246391,6.3253794 3.1886531,6.2723069 3.1233879,6.1221712 3.0796051,5.9917447 2.8907799,5.4292441 3.0418462,4.8264259 3.4737556,4.4189175 3.6750934,4.2289547 3.7774172,4.1675853 4.0395053,4.079605 4.4727697,3.9341631 5.0033519,4.0023506 5.3551966,4.2486909 c 0.071048,0.049744 1.7708893,1.7333341 3.777425,3.7413125 l 3.6482464,3.6508696 0.112531,-0.134622 c 0.171928,-0.205682 0.356184,-0.525709 0.46227,-0.802899 C 13.446663,10.465593 13.451426,10.430546 13.451253,10 13.451097,9.5789547 13.444813,9.5302819 13.362685,9.3125 13.201694,8.8855984 13.015876,8.6117109 12.609375,8.2021597 12.172613,7.7621194 11.802773,7.5017984 11.216689,7.2218828 10.516192,6.8873231 9.7524419,6.6721856 8.9160187,6.5738169 L 8.4795,6.5224794 8.0193106,5.6014706 C 7.7662066,5.0949156 7.5633972,4.6769191 7.5686231,4.6725887 7.6219109,4.6284356 7.7586912,4.5848634 7.9696031,4.5448544 8.1814506,4.5046675 8.2931775,4.5023256 8.6505775,4.5305803 10.02292,4.6390728 11.143978,4.9416759 12.25,5.5021591 c 1.707305,0.8651875 2.83448,2.1912187 3.159244,3.7165996 0.09789,0.4597804 0.09789,1.1027023 0,1.5624823 -0.324764,1.525381 -1.451939,2.851412 -3.159244,3.7166 -0.958478,0.485715 -1.94168,0.779376 -3.09375,0.924036 -0.3836475,0.04817 -1.4271238,0.08362 -1.734375,0.05892 z m 4.441057,-2.012892 c 0.143971,-0.04862 0.228686,-0.104911 0.364477,-0.242188 0.290574,-0.293753 0.374971,-0.664321 0.240679,-1.056765 C 12.406281,11.988336 12.325985,11.905419 8.7263234,8.3050609 5.1064009,4.6844381 5.0447512,4.6247441 4.8615428,4.5628734 4.4643809,4.42875 4.0920487,4.51417 3.8038412,4.80553 3.5133172,5.0992322 3.4294928,5.4665813 3.5628734,5.8615428 c 0.06187,0.1832056 0.1216207,0.2449169 3.7421875,3.8649419 3.4827671,3.4822453 3.6884961,3.6820073 3.8511891,3.7394813 0.225942,0.07982 0.47406,0.0805 0.706682,0.0019 z"
       id="path849"
       inkscape:connector-curvature="0" />
    <path
       style="fill:#fefe00;stroke-width:0.03125"
       d="M 0.64464638,8.31158 C 0.60083369,8.2595116 0.55568287,8.1673153 0.54431125,8.1066994 0.49097178,7.8223756 0.51504031,7.7624153 1.3936589,5.9907719 1.8556926,5.0591284 2.2439305,4.2893128 2.2564097,4.2800703 2.2688889,4.2708278 2.6729017,3.4686063 3.1542159,2.4973558 3.63553,1.5261053 4.0614047,0.70140103 4.1006038,0.66467956 4.1799656,0.59033406 4.31621,0.53125 4.4082844,0.53125 c 0.054525,0 0.060466,0.0235181 0.060466,0.23939228 V 1.0100346 L 3.6077344,2.7472048 C 3.1341756,3.7026484 2.72382,4.5194022 2.6958329,4.5622131 2.6071752,4.69783 1.03125,7.8819653 1.03125,7.9254803 c 0,0.049107 -0.2561755,0.4784791 -0.28628456,0.4798375 -0.0113628,5.125e-4 -0.0565063,-0.041669 -0.10031906,-0.093738 z"
       id="path847"
       inkscape:connector-curvature="0" />
    <path
       style="fill:#fe9832;stroke-width:0.03125"
       d="m 1.03125,7.9419337 c 0,-0.054681 1.5553748,-3.2126687 1.6645829,-3.3797206 C 2.72382,4.5194022 3.1341756,3.7026484 3.6077344,2.7472048 L 4.46875,1.0100346 V 0.77064228 C 4.46875,0.53783063 4.47084,0.53125 4.544841,0.53125 c 0.1137131,0 0.2414431,0.0563715 0.3393241,0.14975519 0.053449,0.0509935 0.4246981,0.76414021 0.957619,1.83952861 0.4786813,0.9659371 0.8859357,1.7748328 0.90501,1.7975453 C 6.7658681,4.3407919 7.0636009,4.9289063 7.4084225,5.625 L 8.0353706,6.890625 6.7286228,5.5903825 C 6.0099116,4.8752487 5.3784519,4.2606806 5.3253794,4.224675 5.1456547,4.1027453 4.7753481,4 4.515625,4 4.2553372,4 3.8846453,4.1030403 3.7058706,4.2250853 3.1070163,4.6339078 2.8588231,5.3340466 3.0796051,5.9917447 c 0.043783,0.1304265 0.1090808,0.2805622 0.1451068,0.3336347 0.036026,0.053072 0.4184597,0.4515737 0.8498525,0.8855581 L 4.8589153,8 H 2.9450827 C 1.1007953,8 1.03125,7.99789 1.03125,7.9419337 Z"
       id="path845"
       inkscape:connector-curvature="0" />
    <path
       style="fill:#00fe00;stroke-width:0.03125"
       d="M 11.359375,12.994167 C 11.29896,12.973449 9.9859528,11.68356 7.6666847,9.3664944 4.472065,6.1749075 4.0635675,5.7560516 4.0305628,5.6381703 3.9304669,5.2806634 4.2917919,4.9257478 4.6473875,5.0322869 c 0.1069728,0.03205 0.6643438,0.5767106 3.7203572,3.6355178 2.9262943,2.9289703 3.6015603,3.6201053 3.6323293,3.7176923 0.07527,0.238741 -0.08441,0.524813 -0.340675,0.610312 -0.125247,0.04179 -0.17416,0.04152 -0.300024,-0.0016 z"
       id="path843"
       inkscape:connector-curvature="0" />
    <path
       style="fill:#009800;stroke-width:0.03125"
       d="M 11.15625,13.465966 C 10.993557,13.408492 10.787828,13.20873 7.3050609,9.7264847 3.6844941,6.1064597 3.6247431,6.0447484 3.5628734,5.8615428 3.4294928,5.4665813 3.5133172,5.0992322 3.8038413,4.80553 4.0920488,4.51417 4.4643809,4.42875 4.8615428,4.5628734 c 0.1832085,0.061871 0.2448581,0.1215647 3.8647806,3.7421875 3.5996616,3.6003581 3.6799576,3.6832751 3.7417646,3.8638941 0.134292,0.392444 0.04989,0.763012 -0.240679,1.056765 -0.135792,0.137277 -0.220506,0.193568 -0.364477,0.242188 -0.232622,0.07856 -0.48074,0.07788 -0.706682,-0.0019 z m 0.503149,-0.470157 c 0.256265,-0.0855 0.415949,-0.371571 0.340675,-0.610312 C 11.969305,12.28791 11.294039,11.596775 8.3677447,8.6678047 5.3117312,5.6089975 4.7543603,5.0643366 4.6473875,5.0322869 4.2917919,4.9257478 3.9304669,5.2806634 4.0305628,5.6381703 4.0635675,5.7560516 4.472065,6.1749075 7.6666847,9.3664944 9.9859528,11.68356 11.29896,12.973449 11.359375,12.994167 c 0.125864,0.04316 0.174777,0.04343 0.300024,0.0016 z"
       id="path841"
       inkscape:connector-curvature="0" />
    <path
       style="fill:#653200;stroke-width:0.03125"
       d="M 0.546875,8.9412756 C 0.478125,8.9097322 0.35021972,8.8077116 0.26264106,8.7145631 0.03957176,8.4773072 -0.00978545,8.3145172 0.00453847,7.8632891 L 0.01567206,7.5125616 1.1207439,5.2797184 C 1.7285334,4.0516544 2.2379233,3.0392396 2.2527213,3.0299073 2.2675193,3.0205751 2.5622393,2.4369814 2.9076547,1.7330323 3.4613616,0.60458941 3.5547606,0.43365756 3.6968972,0.28862103 3.9148169,0.06625503 4.0955881,0 4.484375,0 c 0.3966478,0 0.5678725,0.06486429 0.8029872,0.30419248 0.162355,0.16526465 0.2290044,0.28614999 0.8050106,1.46008982 0.3454003,0.7039491 0.6399941,1.2875428 0.6546525,1.296875 0.041825,0.026628 2.1593453,4.3126939 2.2084375,4.4700927 0.024123,0.077344 0.044013,0.1826366 0.044199,0.2339844 3.156e-4,0.086963 -0.03198,0.061269 -0.4713438,-0.375 L 8.0566366,6.921875 7.4190356,5.640625 C 7.068355,4.9359375 6.7658372,4.3407919 6.7467741,4.3180791 6.7277106,4.2953666 6.320465,3.4864709 5.8417837,2.5205337 5.3088628,1.4451454 4.9376141,0.73199869 4.8841647,0.68100519 4.677085,0.48344012 4.3024053,0.47563359 4.1006037,0.66467956 4.0614047,0.70140103 3.63553,1.5261053 3.1542159,2.4973558 2.6729017,3.4686063 2.2688889,4.2708278 2.2564097,4.2800703 2.2439305,4.2893128 1.8550265,5.0604694 1.3921786,5.9937512 0.63530131,7.5199109 0.54930791,7.7090006 0.53742703,7.8732522 c -0.0156181,0.2159184 0.0290149,0.3714484 0.13523166,0.471234 0.0424022,0.039835 0.0819096,0.066512 0.0877942,0.059283 0.005885,-0.00723 0.0641889,-0.1010347 0.12956497,-0.2084566 L 1.0088835,8 H 2.9344956 4.8601075 L 5.359375,8.5 5.8586425,9 3.2652587,8.9993125 C 0.81654706,8.9986656 0.66490187,8.9954281 0.546875,8.9412756 Z"
       id="path839"
       inkscape:connector-curvature="0" />
    <path
       style="fill:#000000;stroke-width:0.03125"
       d="M 7.296875,15.980706 C 5.3658484,15.826628 3.708475,15.244518 2.34375,14.241047 1.9813501,13.974577 1.2623114,13.261853 1.0128903,12.921875 0.3317785,11.993473 -0.03275356,10.90092 0.00474109,9.9003119 0.01405212,9.6518316 0.03007296,9.5789138 0.1145253,9.4006372 0.16891054,9.2858316 0.2716751,9.1286866 0.342891,9.0514266 0.47234147,8.9109894 0.47240153,8.910965 0.5789335,8.9554769 0.66296378,8.9905869 0.88002091,9 1.6055934,9 H 2.5256942 L 2.611586,9.1015625 C 2.7398249,9.2531981 2.8742499,9.5625413 2.9126775,9.7944437 2.9328453,9.9161528 2.9622203,10 2.9846921,10 c 0.022704,0 0.046038,0.0688 0.058078,0.17123 0.048364,0.411499 0.2895301,0.843048 0.7072304,1.265535 1.2285409,1.242619 3.6227628,1.829898 5.6779963,1.392758 l 0.2126287,-0.04523 0.2149378,0.213684 0.2149387,0.213683 -0.2840431,0.06669 C 9.1700322,13.423069 8.2405213,13.516448 7.734375,13.484501 6.5637444,13.410615 5.6493484,13.191739 4.7833109,12.778117 4.1972272,12.498202 3.8273872,12.237881 3.390625,11.79784 2.9635807,11.367591 2.775916,11.082627 2.6388233,10.65625 2.5918499,10.510156 2.533083,10.341752 2.5082302,10.282019 2.4833773,10.222285 2.4431227,10.069297 2.4187754,9.9420453 2.3405011,9.5329425 2.1589234,9.2880497 1.8182099,9.1320659 1.5674002,9.0172416 1.3103064,9.0242316 1.0487692,9.1529856 0.81829206,9.2664494 0.67921425,9.4110369 0.56901312,9.6517478 0.49636997,9.8104213 0.49243294,9.8440572 0.51099466,10.147425 0.62013309,11.931153 1.7925807,13.505907 3.75,14.497841 5.0660066,15.164735 6.4290153,15.47959 8,15.47959 c 1.5709847,0 2.933993,-0.314855 4.25,-0.981749 1.707305,-0.865188 2.83448,-2.191219 3.159244,-3.7166 0.09789,-0.45978 0.09789,-1.1027019 0,-1.5624822 C 14.914711,6.8959897 12.534391,5.0694391 9.40625,4.6123291 8.7421012,4.5152781 8.2478797,4.4920659 7.9696031,4.5448544 7.8302181,4.571295 7.6895547,4.6071759 7.6570175,4.6245894 7.5471462,4.6833906 7.5554278,4.6944066 7.3502628,4.21655 7.3349678,4.1809262 7.5882225,4.0935256 7.8558772,4.0420575 8.0495725,4.0048109 8.2052128,3.9982937 8.515625,4.0144309 c 1.954762,0.101621 3.718258,0.6999638 5.140625,1.7441807 0.372893,0.2737559 1.114816,1.0163237 1.365201,1.3663884 1.301658,1.81985 1.301658,3.93015 0,5.75 -0.250385,0.350065 -0.992308,1.092633 -1.365201,1.366388 -1.227075,0.900846 -2.701982,1.467658 -4.375,1.681329 -0.37329,0.04767 -1.6471094,0.0849 -1.984375,0.05799 z m 5.291526,-4.526213 -0.177224,-0.188868 0.08777,-0.09813 c 0.117936,-0.131842 0.288278,-0.42665 0.377726,-0.653722 0.10544,-0.267669 0.105162,-0.7604289 -5.81e-4,-1.029402 C 12.612341,8.8134684 11.949725,8.1628547 11.095225,7.73576 10.428144,7.4023406 9.8073794,7.2195403 8.8511613,7.0749369 8.7596078,7.0610919 8.7362747,7.033815 8.6226241,6.807775 8.5530084,6.6693166 8.5028822,6.5492006 8.5112322,6.5408506 c 0.027444,-0.027444 0.8407128,0.084454 1.2075175,0.1661431 0.7866883,0.1751988 1.6017183,0.5117582 2.2010643,0.90891 0.423605,0.2806988 1.007941,0.866785 1.209523,1.2131457 0.07973,0.1369915 0.184735,0.3545443 0.233347,0.4834506 0.08217,0.2179053 0.08839,0.2662162 0.08839,0.6875 0,0.421284 -0.0062,0.469595 -0.08839,0.6875 -0.105605,0.280036 -0.32352,0.654892 -0.482208,0.829493 L 12.765625,11.643362 12.5884,11.454493 Z"
       id="path837"
       inkscape:connector-curvature="0" />
  </g>
</svg>
