<?xml version="1.0" encoding="UTF-8" standalone="no"?>
<!-- Created with Inkscape (http://www.inkscape.org/) -->

<svg
   xmlns:dc="http://purl.org/dc/elements/1.1/"
   xmlns:cc="http://creativecommons.org/ns#"
   xmlns:rdf="http://www.w3.org/1999/02/22-rdf-syntax-ns#"
   xmlns:svg="http://www.w3.org/2000/svg"
   xmlns="http://www.w3.org/2000/svg"
   xmlns:sodipodi="http://sodipodi.sourceforge.net/DTD/sodipodi-0.dtd"
   xmlns:inkscape="http://www.inkscape.org/namespaces/inkscape"
   version="1.1"
   id="svg2"
   width="16"
   height="16"
   viewBox="0 0 16 16"
   sodipodi:docname="PARENT_LATTICE.svg"
   inkscape:version="0.92.4 (5da689c313, 2019-01-14)">
  <metadata
     id="metadata8">
    <rdf:RDF>
      <cc:Work
         rdf:about="">
        <dc:format>image/svg+xml</dc:format>
        <dc:type
           rdf:resource="http://purl.org/dc/dcmitype/StillImage" />
        <dc:title></dc:title>
      </cc:Work>
    </rdf:RDF>
  </metadata>
  <defs
     id="defs6" />
  <sodipodi:namedview
     pagecolor="#ffffff"
     bordercolor="#666666"
     borderopacity="1"
     objecttolerance="10"
     gridtolerance="10"
     guidetolerance="10"
     inkscape:pageopacity="0"
     inkscape:pageshadow="2"
     inkscape:window-width="983"
     inkscape:window-height="769"
     id="namedview4"
     showgrid="false"
     inkscape:zoom="14.75"
     inkscape:cx="8"
     inkscape:cy="8"
     inkscape:window-x="0"
     inkscape:window-y="0"
     inkscape:window-maximized="0"
     inkscape:current-layer="svg2" />
  <g
     id="PARENT_LATTICE">
    <path
       style="fill:#ffffff;stroke-width:0.03125"
       d="M 0.0014617,12.132813 C 0.0029181,8.2796697 0.00314235,8.2661859 0.06320995,8.4200384 0.13489964,8.6036588 0.37236162,8.859145 0.546875,8.9404153 c 0.11873384,0.055294 0.25510709,0.058247 2.7204322,0.058898 l 2.5954325,6.875e-4 0.096747,0.1015625 c 0.053211,0.055859 0.1418935,0.2111153 0.1970722,0.3450131 0.2677707,0.6497736 0.7464741,1.1281776 1.3990647,1.3981896 0.1326885,0.0549 0.25883,0.114009 0.2803144,0.131353 0.05389,0.0435 0.048934,0.08638 -0.00999,0.08638 -0.085873,0 -0.5045628,0.188069 -0.7078294,0.317945 -0.5159122,0.329642 -0.9278097,0.909608 -1.0765587,1.515834 -0.070763,0.288392 -0.070763,0.919048 0,1.207441 0.14285,0.582184 0.5446762,1.162387 1.0311028,1.488826 0.2072453,0.139081 0.5765375,0.305903 0.7935759,0.358485 0.157941,0.03826 -0.3247897,0.04409 -3.8428056,0.04636 L 0,16 Z m 9.1322952,3.818219 c 0.5712503,-0.138397 1.1633011,-0.564427 1.4857971,-1.069155 0.149038,-0.233254 0.307434,-0.60201 0.336401,-0.783159 0.02652,-0.165827 0.06157,-0.165827 0.08809,0 0.02897,0.181149 0.187363,0.549905 0.336401,0.783159 0.322496,0.504728 0.914547,0.930758 1.485797,1.069155 0.1606,0.03891 -0.04636,0.04376 -1.866243,0.04376 -1.8198797,0 -2.0268431,-0.0049 -1.8662431,-0.04376 z m 5.0000001,0 c 0.547379,-0.132614 1.139761,-0.548315 1.45879,-1.023699 0.139081,-0.207245 0.305903,-0.576538 0.358485,-0.793576 0.04044,-0.166908 0.04396,-0.102873 0.04636,0.842806 L 16,16 14.976563,15.9974 C 14.030884,15.995 13.966849,15.9915 14.133757,15.95104 Z m 1.822198,-3.04975 c -0.05588,-0.349456 -0.376783,-0.912663 -0.694373,-1.218675 -0.311887,-0.300516 -0.830792,-0.585462 -1.162864,-0.638562 -0.165827,-0.02652 -0.165827,-0.06157 0,-0.08809 0.181149,-0.02897 0.549904,-0.187363 0.783159,-0.336401 0.504728,-0.322496 0.930758,-0.9145468 1.069155,-1.4857971 0.03899,-0.1609335 0.04405,0.041734 0.04636,1.8584311 0.0014,1.121484 -0.0026,2.039062 -0.009,2.039062 -0.0064,0 -0.02098,-0.05848 -0.03241,-0.129968 z m -4.390184,-2.47524 -0.793604,-0.7949557 0.08214,-0.2051797 c 0.04518,-0.1128488 0.09121,-0.2618744 0.102286,-0.3311682 0.02593,-0.1621406 0.06114,-0.1605384 0.08745,0.00398 0.0531,0.3320722 0.338046,0.8509775 0.638562,1.1628646 0.306012,0.317591 0.869219,0.638493 1.218675,0.694373 0.137326,0.02196 0.178857,0.07484 0.05965,0.07595 -0.03867,3.63e-4 -0.16875,0.0366 -0.289062,0.08053 -0.120313,0.04393 -0.239844,0.08633 -0.265625,0.09422 -0.02996,0.0092 -0.333283,-0.27255 -0.840479,-0.780611 z M 10.955955,7.9012822 C 10.944525,7.8298 10.892372,7.6685025 10.84006,7.5428431 10.585138,6.9304934 10.149572,6.4786088 9.5450297,6.1992928 9.2253587,6.0515956 8.9480716,5.9928509 8.5490272,5.9882844 L 8.2074297,5.984375 7.4925112,4.5319641 C 7.0993062,3.7331381 6.7647503,3.0716161 6.7490534,3.061915 6.7333569,3.0522139 6.4333747,2.4612675 6.0824262,1.7487008 5.4959719,0.55796109 5.43065,0.43979309 5.2751709,0.28836795 5.1763903,0.19216295 5.0416922,0.0985031 4.9514391,0.06326715 4.7977972,0.00328348 4.8303,0.00291468 10.398438,0.0014617 L 16,0 15.9974,4.0234375 C 15.9951,7.5414534 15.9893,8.0241841 15.95104,7.8662431 15.89449,7.63286 15.728752,7.2755484 15.569202,7.0430659 15.242782,6.5674347 14.680303,6.18304 14.103721,6.0415644 c -0.288393,-0.070763 -0.919048,-0.070763 -1.207441,0 -0.606226,0.148749 -1.186192,0.5606465 -1.515834,1.0765587 C 11.231408,7.3513775 11.073012,7.7201328 11.044045,7.9012822 11.032614,7.9727647 11.012794,8.03125 11,8.03125 c -0.01279,0 -0.03261,-0.058485 -0.04405,-0.1299678 z M 0.00209049,3.8046875 0,0 2.0859375,0.0014617 4.171875,0.0029234 4.0174616,0.06320995 C 3.9325188,0.09637364 3.7938816,0.19061662 3.70931,0.27268575 3.5732106,0.40475797 3.4823666,0.57052112 2.9175288,1.7174508 2.5666053,2.4300175 2.267448,3.0206425 2.2527349,3.0299508 2.2154959,3.0535102 0.09600739,7.3305612 0.04534935,7.484375 0.01080999,7.5892472 0.00384437,6.9967375 0.00209049,3.8046875 Z"
       id="path853"
       inkscape:connector-curvature="0" />
    <path
       style="fill:#fefefe;stroke-width:0.03125"
       d="M 11.035193,13.951165 C 10.908456,13.907998 10.746738,13.832027 10.675818,13.782341 10.524069,13.676027 3.3207241,6.4670925 3.2246375,6.3253794 3.1027184,6.1455672 3,5.7752966 3,5.515625 3,5.2553372 3.1030402,4.8846453 3.2250853,4.7058706 3.6339078,4.1070162 4.3340466,3.8588231 4.9917447,4.079605 c 0.1304265,0.043783 0.2805622,0.1090475 0.3336347,0.1450325 0.1418581,0.096185 7.3507056,7.2995145 7.4571236,7.4514155 0.04977,0.07105 0.126105,0.235247 0.169623,0.364885 0.188316,0.560985 0.03679,1.164345 -0.394632,1.571395 -0.201337,0.189962 -0.303661,0.251332 -0.565749,0.339312 -0.321641,0.107971 -0.638614,0.107812 -0.956552,-4.78e-4 z m 0.827739,-0.483257 c 0.143971,-0.04862 0.228686,-0.104911 0.364477,-0.242188 0.290574,-0.293753 0.374971,-0.664321 0.240679,-1.056765 C 12.406281,11.988336 12.325985,11.905419 8.7263234,8.3050609 5.1064009,4.6844381 5.0447512,4.6247441 4.8615428,4.5628734 4.4643809,4.42875 4.0920487,4.51417 3.8038412,4.80553 3.5133172,5.0992322 3.4294928,5.4665813 3.5628734,5.8615428 c 0.06187,0.1832056 0.1216207,0.2449169 3.7421875,3.8649419 3.4827671,3.4822453 3.6884961,3.6820073 3.8511891,3.7394813 0.225942,0.07982 0.47406,0.0805 0.706682,0.0019 z"
       id="path851"
       inkscape:connector-curvature="0" />
    <path
       style="fill:#fefe7f;stroke-width:0.03125"
       d="M 8.1485672,14.936811 C 7.7477478,14.835695 7.3540153,14.502612 7.16339,14.10339 7.0497703,13.865438 7.046875,13.850445 7.046875,13.5 c 0,-0.350445 0.00289,-0.365438 0.116515,-0.60339 0.2922644,-0.612083 0.8882497,-0.934392 1.574335,-0.851401 l 0.18415,0.02228 0.5053203,0.505321 0.5053203,0.50532 0.022276,0.18415 c 0.082737,0.683984 -0.2402285,1.283458 -0.8466013,1.571423 -0.2155197,0.10235 -0.2690972,0.114545 -0.54089,0.123123 -0.1659212,0.0052 -0.3543509,-0.0038 -0.4187328,-0.02001 z m 4.9999998,0 c -0.370731,-0.09353 -0.781987,-0.425806 -0.95761,-0.773713 -0.05346,-0.105911 -0.09721,-0.204323 -0.09721,-0.218693 0,-0.01437 0.05621,-0.05093 0.124914,-0.08124 0.15181,-0.06698 0.439374,-0.324708 0.563355,-0.504908 0.05004,-0.07273 0.128281,-0.24286 0.173867,-0.378061 0.07457,-0.221167 0.08129,-0.277797 0.06694,-0.564634 l -0.01594,-0.318811 0.176244,-0.03663 c 0.67485,-0.140255 1.350242,0.201423 1.65348,0.836487 0.11362,0.237952 0.116515,0.252945 0.116515,0.60339 0,0.350445 -0.0029,0.365438 -0.116515,0.60339 -0.156278,0.32729 -0.405113,0.57677 -0.72842,0.730308 -0.21552,0.102349 -0.269097,0.114545 -0.54089,0.123123 -0.165921,0.0052 -0.354351,-0.0038 -0.418733,-0.02001 z m 0,-4.9999997 C 12.747748,9.8356947 12.354015,9.5026122 12.16339,9.10339 12.04977,8.8654384 12.046875,8.850445 12.046875,8.5 c 0,-0.350445 0.0029,-0.3654384 0.116515,-0.60339 0.156899,-0.3285894 0.404631,-0.5763213 0.73322,-0.73322 0.237952,-0.1136197 0.252945,-0.116515 0.60339,-0.116515 0.350445,0 0.365438,0.00289 0.60339,0.116515 0.328589,0.1568987 0.576321,0.4046306 0.73322,0.73322 0.11362,0.2379516 0.116515,0.252945 0.116515,0.60339 0,0.350445 -0.0029,0.3654384 -0.116515,0.60339 -0.156278,0.3272903 -0.405113,0.5767697 -0.72842,0.7303075 -0.21552,0.10235 -0.269097,0.1145459 -0.54089,0.1231237 -0.165921,0.00524 -0.354351,-0.00377 -0.418733,-0.02001 z M 9.4588534,8.3182381 C 9.0737122,7.9324538 8.9999456,7.8436188 8.9996619,7.7652466 8.9992119,7.6408338 8.9305191,7.420815 8.8305094,7.2234553 L 8.7489472,7.0625 h 0.071721 c 0.039446,0 0.1743825,0.049199 0.2998584,0.1093322 0.3103994,0.148755 0.5630063,0.4037725 0.7131713,0.7199778 0.1003675,0.2113453 0.115315,0.2747713 0.1282988,0.5444041 0.00842,0.1749118 0.00211,0.3129697 -0.014797,0.3234162 C 9.9309787,8.7696553 9.7112231,8.5710287 9.4588534,8.3182381 Z"
       id="path849"
       inkscape:connector-curvature="0" />
    <path
       style="fill:#fefe00;stroke-width:0.03125"
       d="M 0.64464638,8.31158 C 0.60083369,8.2595116 0.55568287,8.1673153 0.54431125,8.1066994 0.49097178,7.8223756 0.51504031,7.7624153 1.3936589,5.9907719 1.8556926,5.0591284 2.2439305,4.2893128 2.2564097,4.2800703 2.2688889,4.2708278 2.6729017,3.4686063 3.1542159,2.4973558 3.63553,1.5261053 4.0614047,0.70140103 4.1006038,0.66467956 4.1799656,0.59033406 4.31621,0.53125 4.4082844,0.53125 c 0.054525,0 0.060466,0.0235181 0.060466,0.23939228 V 1.0100346 L 3.6077344,2.7472048 C 3.1341756,3.7026484 2.72382,4.5194022 2.6958329,4.5622131 2.6071752,4.69783 1.03125,7.8819653 1.03125,7.9254803 c 0,0.049107 -0.2561755,0.4784791 -0.28628456,0.4798375 -0.0113628,5.125e-4 -0.0565063,-0.041669 -0.10031906,-0.093738 z"
       id="path847"
       inkscape:connector-curvature="0" />
    <path
       style="fill:#fe9832;stroke-width:0.03125"
       d="m 1.03125,7.9419337 c 0,-0.054681 1.5553748,-3.2126687 1.6645829,-3.3797206 C 2.72382,4.5194022 3.1341756,3.7026484 3.6077344,2.7472048 L 4.46875,1.0100346 V 0.77064228 C 4.46875,0.53783063 4.47084,0.53125 4.544841,0.53125 c 0.1137131,0 0.2414431,0.0563715 0.3393241,0.14975519 0.053449,0.0509935 0.4246981,0.76414021 0.957619,1.83952861 0.4786813,0.9659371 0.8859357,1.7748328 0.90501,1.7975453 C 6.7658681,4.3407919 7.0636009,4.9289063 7.4084225,5.625 L 8.0353706,6.890625 6.7286228,5.5903825 C 6.0099116,4.8752487 5.3784519,4.2606806 5.3253794,4.224675 5.1456547,4.1027453 4.7753481,4 4.515625,4 4.2553372,4 3.8846453,4.1030403 3.7058706,4.2250853 3.1070163,4.6339078 2.8588231,5.3340466 3.0796051,5.9917447 c 0.043783,0.1304265 0.1090808,0.2805622 0.1451068,0.3336347 0.036026,0.053072 0.4184597,0.4515737 0.8498525,0.8855581 L 4.8589153,8 H 2.9450827 C 1.1007953,8 1.03125,7.99789 1.03125,7.9419337 Z"
       id="path845"
       inkscape:connector-curvature="0" />
    <path
       style="fill:#00fe00;stroke-width:0.03125"
       d="M 11.359375,12.994167 C 11.29896,12.973449 9.9859528,11.68356 7.6666847,9.3664944 4.472065,6.1749075 4.0635675,5.7560516 4.0305628,5.6381703 3.9304669,5.2806634 4.2917919,4.9257478 4.6473875,5.0322869 c 0.1069728,0.03205 0.6643438,0.5767106 3.7203572,3.6355178 2.9262943,2.9289703 3.6015603,3.6201053 3.6323293,3.7176923 0.07527,0.238741 -0.08441,0.524813 -0.340675,0.610312 -0.125247,0.04179 -0.17416,0.04152 -0.300024,-0.0016 z"
       id="path843"
       inkscape:connector-curvature="0" />
    <path
       style="fill:#fe0000;stroke-width:0.03125"
       d="M 7.8662431,15.951032 C 7.3188641,15.818418 6.7264816,15.402717 6.4074534,14.927333 6.1146419,14.491014 5.9892775,14.063116 5.9892775,13.5 c 0,-0.563116 0.1253644,-0.991014 0.4181759,-1.427333 0.2995241,-0.446321 0.8775403,-0.867292 1.3777275,-1.003403 l 0.1133057,-0.03083 0.5263443,0.527028 c 0.4929707,0.493611 0.5185279,0.52487 0.40307,0.49299 -0.067801,-0.01872 -0.2506647,-0.02847 -0.4063643,-0.02166 -0.2474175,0.01082 -0.3137025,0.02692 -0.5260163,0.127746 C 7.5682675,12.319952 7.3203894,12.56781 7.16339,12.89661 7.0497703,13.134562 7.046875,13.149555 7.046875,13.5 c 0,0.350445 0.00289,0.365438 0.116515,0.60339 0.1568987,0.328589 0.4046306,0.576321 0.73322,0.73322 0.2379516,0.11362 0.252945,0.116515 0.60339,0.116515 0.350445,0 0.3654384,-0.0029 0.60339,-0.116515 0.3288003,-0.156999 0.5766578,-0.404878 0.7320697,-0.73213 0.1008272,-0.212314 0.116925,-0.278599 0.1277462,-0.526017 0.00681,-0.155699 -0.00291,-0.338461 -0.021594,-0.406138 -0.033146,-0.120045 -0.025415,-0.114612 0.3168941,0.222723 0.421192,0.415072 0.476211,0.454283 0.780999,0.556597 0.280419,0.09413 0.610826,0.105835 0.864155,0.0306 0.09075,-0.02695 0.168982,-0.04453 0.173844,-0.03906 0.0049,0.0055 0.05425,0.100509 0.109749,0.211207 0.142315,0.283852 0.40583,0.537285 0.709357,0.682216 0.237952,0.11362 0.252945,0.116515 0.60339,0.116515 0.350445,0 0.365438,-0.0029 0.60339,-0.116515 0.328589,-0.156899 0.576321,-0.404631 0.73322,-0.73322 0.11362,-0.237952 0.116515,-0.252945 0.116515,-0.60339 0,-0.350445 -0.0029,-0.365438 -0.116515,-0.60339 -0.156999,-0.3288 -0.404877,-0.576658 -0.73213,-0.73207 -0.21295,-0.101129 -0.278225,-0.116908 -0.528991,-0.127876 -0.194366,-0.0085 -0.336707,0.0023 -0.444047,0.0338 l -0.157981,0.04631 -0.01944,-0.07746 C 12.908032,11.856083 12.785,11.658738 12.586434,11.449699 l -0.212617,-0.223829 0.202728,-0.08116 c 0.1115,-0.04464 0.259423,-0.09022 0.328717,-0.101304 0.16214,-0.02593 0.160538,-0.06114 -0.004,-0.08745 C 12.56919,10.902856 12.050285,10.61791 11.738398,10.317394 11.420828,10.011381 11.099925,9.4481738 11.044045,9.0987178 11.032614,9.0272353 11.01381,8.96875 11.002258,8.96875 c -0.01155,0 -0.03867,0.080859 -0.06026,0.1796875 -0.02159,0.098828 -0.07011,0.2469631 -0.107815,0.3291888 L 10.765625,9.6271272 10.366233,9.2262347 9.9668403,8.8253422 9.9599828,8.4829834 C 9.9534925,8.1589675 9.9468825,8.1275513 9.83661,7.89661 9.6457047,7.4968009 9.2689147,7.1769925 8.8585866,7.0664919 8.7363981,7.0335866 8.7301822,7.0246378 8.4769344,6.5170228 L 8.2194938,6.0010041 8.3009756,5.9805534 c 0.1103266,-0.02769 0.5709094,0.010112 0.8161353,0.066984 0.5813235,0.1348178 1.1746901,0.557629 1.5024431,1.0705862 0.149038,0.2332544 0.307434,0.6020097 0.336401,0.7831591 0.02652,0.1658272 0.06157,0.1658272 0.08809,0 0.02897,-0.1811494 0.187363,-0.5499047 0.336401,-0.7831591 0.329642,-0.5159122 0.909608,-0.9278097 1.515834,-1.0765587 0.288392,-0.070763 0.919048,-0.070763 1.20744,0 0.582184,0.14285 1.162388,0.5446762 1.488827,1.0311028 0.144161,0.2148153 0.30548,0.5768206 0.359884,0.807594 0.06232,0.2643732 0.06232,0.9751044 0,1.2394776 -0.137253,0.5822065 -0.558864,1.1728707 -1.070554,1.4998157 -0.233254,0.149038 -0.60201,0.307434 -0.783159,0.336401 -0.165827,0.02652 -0.165827,0.06157 0,0.08809 0.07148,0.01143 0.23278,0.06358 0.358439,0.115895 0.612195,0.254859 1.064244,0.690508 1.343369,1.294637 0.15594,0.337513 0.19855,0.561867 0.19855,1.045423 0,0.483556 -0.04261,0.70791 -0.19855,1.045423 -0.267423,0.578801 -0.675765,0.987432 -1.253454,1.254341 -0.339204,0.156721 -0.562951,0.199312 -1.047072,0.199312 -0.483556,0 -0.70791,-0.04261 -1.045423,-0.198549 C 11.850448,15.521401 11.414798,15.069352 11.15994,14.457157 11.107628,14.331498 11.055475,14.1702 11.044045,14.098718 11.032614,14.027235 11.012794,13.96875 11,13.96875 c -0.01279,0 -0.03261,0.05848 -0.04405,0.129968 -0.02897,0.181149 -0.187363,0.549905 -0.336401,0.783159 -0.326944,0.51169 -0.9176087,0.933301 -1.4998152,1.070554 -0.2552132,0.06016 -1.0028235,0.05933 -1.2534957,-0.0014 z M 14.10339,9.83605 C 14.431822,9.67998 14.679437,9.432555 14.83661,9.10339 14.95023,8.8654384 14.953125,8.850445 14.953125,8.5 c 0,-0.350445 -0.0029,-0.3654384 -0.116515,-0.60339 C 14.679711,7.5680206 14.431979,7.3202887 14.10339,7.16339 13.865438,7.0497703 13.850445,7.046875 13.5,7.046875 c -0.350445,0 -0.365438,0.00289 -0.60339,0.116515 -0.328589,0.1568987 -0.576321,0.4046306 -0.73322,0.73322 -0.11362,0.2379516 -0.116515,0.252945 -0.116515,0.60339 0,0.350445 0.0029,0.3654384 0.116515,0.60339 0.187229,0.3921091 0.520804,0.6823778 0.945985,0.8231725 0.07864,0.026042 0.240893,0.038435 0.4375,0.033418 0.287475,-0.00734 0.332041,-0.01726 0.556515,-0.1239305 z M 7.5234331,10.830998 C 6.8432797,10.53405 6.3941109,10.064911 6.1234116,9.3687316 6.0604591,9.2068316 6.0782906,9.2223544 6.9201337,10.062287 7.3937478,10.534826 7.78125,10.92506 7.78125,10.929474 c 0,0.01361 -0.00868,0.01029 -0.2578169,-0.09848 z"
       id="path841"
       inkscape:connector-curvature="0" />
    <path
       style="fill:#009800;stroke-width:0.03125"
       d="M 11.15625,13.465966 C 10.993557,13.408492 10.787828,13.20873 7.3050609,9.7264847 3.6844941,6.1064597 3.6247431,6.0447484 3.5628734,5.8615428 3.4294928,5.4665813 3.5133172,5.0992322 3.8038413,4.80553 4.0920488,4.51417 4.4643809,4.42875 4.8615428,4.5628734 c 0.1832085,0.061871 0.2448581,0.1215647 3.8647806,3.7421875 3.5996616,3.6003581 3.6799576,3.6832751 3.7417646,3.8638941 0.134292,0.392444 0.04989,0.763012 -0.240679,1.056765 -0.135792,0.137277 -0.220506,0.193568 -0.364477,0.242188 -0.232622,0.07856 -0.48074,0.07788 -0.706682,-0.0019 z m 0.503149,-0.470157 c 0.256265,-0.0855 0.415949,-0.371571 0.340675,-0.610312 C 11.969305,12.28791 11.294039,11.596775 8.3677447,8.6678047 5.3117312,5.6089975 4.7543603,5.0643366 4.6473875,5.0322869 4.2917919,4.9257478 3.9304669,5.2806634 4.0305628,5.6381703 4.0635675,5.7560516 4.472065,6.1749075 7.6666847,9.3664944 9.9859528,11.68356 11.29896,12.973449 11.359375,12.994167 c 0.125864,0.04316 0.174777,0.04343 0.300024,0.0016 z"
       id="path839"
       inkscape:connector-curvature="0" />
    <path
       style="fill:#653200;stroke-width:0.03125"
       d="M 0.546875,8.9412756 C 0.478125,8.9097322 0.35021972,8.8077116 0.26264106,8.7145631 0.03957176,8.4773072 -0.00978545,8.3145172 0.00453847,7.8632891 L 0.01567206,7.5125616 1.1207439,5.2797184 C 1.7285334,4.0516544 2.2379233,3.0392396 2.2527213,3.0299073 2.2675193,3.0205751 2.5622393,2.4369814 2.9076547,1.7330323 3.4613616,0.60458941 3.5547606,0.43365756 3.6968972,0.28862103 3.9148169,0.06625503 4.0955881,0 4.484375,0 c 0.3966478,0 0.5678725,0.06486429 0.8029872,0.30419248 0.162355,0.16526465 0.2290044,0.28614999 0.8050106,1.46008982 0.3454003,0.7039491 0.6399941,1.2875428 0.6546525,1.296875 0.041825,0.026628 2.1593453,4.3126939 2.2084375,4.4700927 0.024123,0.077344 0.044013,0.1826366 0.044199,0.2339844 3.156e-4,0.086963 -0.03198,0.061269 -0.4713438,-0.375 L 8.0566366,6.921875 7.4190356,5.640625 C 7.068355,4.9359375 6.7658372,4.3407919 6.7467741,4.3180791 6.7277106,4.2953666 6.320465,3.4864709 5.8417837,2.5205337 5.3088628,1.4451454 4.9376141,0.73199869 4.8841647,0.68100519 4.677085,0.48344012 4.3024053,0.47563359 4.1006037,0.66467956 4.0614047,0.70140103 3.63553,1.5261053 3.1542159,2.4973558 2.6729017,3.4686063 2.2688889,4.2708278 2.2564097,4.2800703 2.2439305,4.2893128 1.8550265,5.0604694 1.3921786,5.9937512 0.63530131,7.5199109 0.54930791,7.7090006 0.53742703,7.8732522 c -0.0156181,0.2159184 0.0290149,0.3714484 0.13523166,0.471234 0.0424022,0.039835 0.0819096,0.066512 0.0877942,0.059283 0.005885,-0.00723 0.0641889,-0.1010347 0.12956497,-0.2084566 L 1.0088835,8 H 2.9344956 4.8601075 L 5.359375,8.5 5.8586425,9 3.2652587,8.9993125 C 0.81654706,8.9986656 0.66490187,8.9954281 0.546875,8.9412756 Z"
       id="path837"
       inkscape:connector-curvature="0" />
  </g>
</svg>
