<?xml version="1.0" encoding="UTF-8" standalone="no"?>
<!-- Created with Inkscape (http://www.inkscape.org/) -->

<svg
   xmlns:dc="http://purl.org/dc/elements/1.1/"
   xmlns:cc="http://creativecommons.org/ns#"
   xmlns:rdf="http://www.w3.org/1999/02/22-rdf-syntax-ns#"
   xmlns:svg="http://www.w3.org/2000/svg"
   xmlns="http://www.w3.org/2000/svg"
   xmlns:sodipodi="http://sodipodi.sourceforge.net/DTD/sodipodi-0.dtd"
   xmlns:inkscape="http://www.inkscape.org/namespaces/inkscape"
   version="1.1"
   id="svg2"
   width="16"
   height="16"
   viewBox="0 0 16 16"
   sodipodi:docname="PARENT_OBJECT.svg"
   inkscape:version="0.92.4 (5da689c313, 2019-01-14)">
  <metadata
     id="metadata8">
    <rdf:RDF>
      <cc:Work
         rdf:about="">
        <dc:format>image/svg+xml</dc:format>
        <dc:type
           rdf:resource="http://purl.org/dc/dcmitype/StillImage" />
        <dc:title></dc:title>
      </cc:Work>
    </rdf:RDF>
  </metadata>
  <defs
     id="defs6" />
  <sodipodi:namedview
     pagecolor="#ffffff"
     bordercolor="#666666"
     borderopacity="1"
     objecttolerance="10"
     gridtolerance="10"
     guidetolerance="10"
     inkscape:pageopacity="0"
     inkscape:pageshadow="2"
     inkscape:window-width="1152"
     inkscape:window-height="819"
     id="namedview4"
     showgrid="false"
     inkscape:zoom="14.75"
     inkscape:cx="8"
     inkscape:cy="8"
     inkscape:window-x="0"
     inkscape:window-y="0"
     inkscape:window-maximized="0"
     inkscape:current-layer="svg2" />
  <g
     id="PARENT_OBJECT">
    <path
       style="fill:#ffffff;stroke-width:0.03125"
       d="M 0.0014617,12.132813 C 0.0029181,8.2796697 0.00314235,8.2661859 0.06320995,8.4200384 0.13489964,8.6036588 0.37236162,8.859145 0.546875,8.9404153 c 0.11873216,0.055293 0.25507381,0.058247 2.7190756,0.058898 l 2.5940756,6.875e-4 0.552,0.5546875 0.552,0.5546867 0.012809,1.875 0.012809,1.875 0.074109,0.15625 c 0.085473,0.180211 0.4036919,0.515625 0.4891907,0.515625 0.051665,0 0.322374,0.144561 0.6814309,0.36389 0.06875,0.042 0.1496094,0.08441 0.1796875,0.09425 0.030078,0.0098 0.054687,0.03394 0.054687,0.05354 0,0.03622 0.1585734,0.141086 0.46875,0.309979 0.094531,0.05147 0.1859375,0.104127 0.203125,0.117006 0.017188,0.01288 0.080469,0.05153 0.140625,0.08589 0.060156,0.03436 0.2568062,0.148355 0.4369997,0.25333 L 10.045875,16 H 5.0229372 0 Z m 13.1867953,3.731859 c 0.12849,-0.07443 0.357774,-0.208024 0.50952,-0.296875 0.151746,-0.08885 0.281386,-0.161547 0.288088,-0.161547 0.0067,0 0.110009,-0.06328 0.22957,-0.140625 0.119561,-0.07734 0.226813,-0.140625 0.238338,-0.140625 0.01153,0 0.05828,-0.02647 0.103903,-0.05883 0.0935,-0.06632 0.642345,-0.386186 0.832949,-0.485446 0.159052,-0.08283 0.486216,-0.406642 0.555158,-0.549471 0.05071,-0.105051 0.05282,-0.0683 0.0535,0.929688 L 16,16 H 14.477319 12.954638 Z M 15.929945,8.9738694 C 15.815314,8.7247959 15.608775,8.5454656 15.125,8.2749659 14.838492,8.1147672 14.751058,8.0639519 14.625,7.984375 14.554008,7.93956 14.451138,7.8772431 14.3964,7.8458937 14.275138,7.7764453 14.045021,7.6430409 13.53125,7.3443462 13.316406,7.2194409 13.098437,7.0928831 13.046875,7.0631069 12.995313,7.0333306 12.810832,6.9233003 12.636918,6.8185953 11.979205,6.4226187 11.977103,6.421875 11.515625,6.421875 c -0.467735,0 -0.462602,-0.00187 -1.15625,0.4211969 C 10.153125,6.9688672 9.9421875,7.096105 9.890625,7.1258231 9.8390625,7.1555409 9.7125,7.2284466 9.609375,7.2878353 9.2985012,7.4668647 9.1128188,7.5920363 9.0853781,7.6410694 9.0404259,7.721395 9.0039028,7.6923525 8.9570978,7.5390625 8.9081572,7.3787788 6.7910838,3.0892073 6.7470956,3.0612008 6.7324759,3.0518925 6.4333747,2.4612675 6.0824262,1.7487008 5.4959719,0.55796109 5.43065,0.43979309 5.2751709,0.28836795 5.1763903,0.19216295 5.0416922,0.0985031 4.9514391,0.06326715 4.7977972,0.00328348 4.8303,0.00291468 10.398438,0.0014617 L 16,0 V 4.546875 C 16,7.0476562 15.9965,9.0933872 15.9922,9.0929438 15.9879,9.0925 15.95989,9.0389168 15.92996,8.9738694 Z M 0.00209049,3.8046875 0,0 2.0859375,0.0014617 4.171875,0.0029234 4.0174616,0.06320995 C 3.9325188,0.09637364 3.7938816,0.19061662 3.70931,0.27268575 3.5732106,0.40475797 3.4823666,0.57052112 2.9175288,1.7174508 2.5666053,2.4300175 2.267448,3.0206425 2.2527349,3.0299508 2.2154959,3.0535102 0.09600739,7.3305612 0.04534935,7.484375 0.01080999,7.5892472 0.00384437,6.9967375 0.00209049,3.8046875 Z"
       id="path835"
       inkscape:connector-curvature="0" />
    <path
       style="fill:#fefefe;stroke-width:0.03125"
       d="M 9.7182497,15.809137 C 9.5380563,15.704162 9.3414063,15.590163 9.28125,15.555807 9.2210938,15.52145 9.1578125,15.482801 9.140625,15.46992 9.1234375,15.457039 9.0320312,15.404386 8.9375,15.352914 8.6273234,15.184021 8.46875,15.079158 8.46875,15.042935 c 0,-0.01961 -0.024609,-0.0437 -0.054687,-0.05354 -0.030078,-0.0098 -0.1109375,-0.05226 -0.1796875,-0.09425 -0.3590569,-0.219329 -0.6297659,-0.36389 -0.6814309,-0.36389 -0.085499,0 -0.4037179,-0.335414 -0.4891907,-0.515625 l -0.074109,-0.15625 -0.012737,-1.875 -0.012737,-1.875 L 5.1271381,8.26563 C 4.1167703,7.2515625 3.2606541,6.3784519 3.2246578,6.3253794 3.1886616,6.2723069 3.1233879,6.1221712 3.0796051,5.9917447 2.8907799,5.4292441 3.0418462,4.8264259 3.4737556,4.4189175 3.6750934,4.2289547 3.7774172,4.1675853 4.0395053,4.079605 c 0.32305,-0.1084441 0.6291894,-0.1084441 0.9522394,0 0.1304266,0.043783 0.2805622,0.1090572 0.3336347,0.1450544 0.053072,0.035997 0.9015737,0.8684881 1.8855581,1.8499803 C 8.5319209,7.3922775 9,7.8412231 9,7.7905706 9,7.6753625 9.1552413,7.5471209 9.609375,7.2871791 c 0.3401847,-0.1947188 0.3719422,-0.2135238 0.75,-0.4441072 0.693648,-0.4230666 0.688515,-0.4211969 1.15625,-0.4211969 0.461478,0 0.46358,7.437e-4 1.121293,0.3967203 0.173914,0.104705 0.358394,0.2147353 0.409957,0.2445116 0.05156,0.029776 0.269531,0.156334 0.484375,0.2812393 0.513771,0.2986947 0.743888,0.4320991 0.86515,0.5015475 0.05474,0.031349 0.157608,0.093666 0.2286,0.1384813 0.126058,0.079577 0.213492,0.1303922 0.5,0.2905909 0.487579,0.2726269 0.6841,0.4441697 0.812351,0.7091016 C 15.998382,9.1101406 16,9.1754506 16,11.512956 c 0,2.195076 -0.0045,2.409193 -0.05325,2.513571 -0.06774,0.145151 -0.392927,0.469206 -0.556124,0.554194 -0.190604,0.09926 -0.739448,0.419128 -0.832949,0.485446 -0.04562,0.03236 -0.09238,0.05883 -0.103903,0.05883 -0.01153,0 -0.118777,0.06328 -0.238338,0.140625 -0.119561,0.07734 -0.222867,0.140625 -0.22957,0.140625 -0.0067,0 -0.136342,0.0727 -0.288088,0.161547 -0.151746,0.08885 -0.38103,0.222445 -0.50952,0.296875 L 12.954638,16 H 11.500257 10.045875 Z M 11.928844,15.424981 C 12.087364,15.328741 12.230333,15.25 12.246553,15.25 c 0.01622,0 0.03418,-0.01165 0.0399,-0.02589 0.01084,-0.02694 0.389826,-0.255356 0.423693,-0.255356 0.01062,0 0.0415,-0.01967 0.06864,-0.0437 0.02713,-0.02404 0.10207,-0.07326 0.166524,-0.109375 0.302147,-0.169321 0.35261,-0.199245 0.367187,-0.217731 0.0086,-0.0109 0.04375,-0.0366 0.07813,-0.05712 0.03438,-0.02052 0.189063,-0.113102 0.34375,-0.205743 0.154688,-0.09264 0.386719,-0.222117 0.515625,-0.287725 0.128906,-0.06561 0.290625,-0.155374 0.359375,-0.199478 0.06875,-0.0441 0.174219,-0.106798 0.234375,-0.139317 0.239508,-0.129476 0.21875,0.07779 0.21875,-2.184205 0,-1.26095 -0.01155,-2.0500498 -0.03054,-2.0855189 C 15.003725,9.3860694 14.927017,9.3344675 14.617188,9.1598106 14.333486,8.9998831 14.278256,8.9676441 14.158909,8.8923034 14.08938,8.8484116 14.019322,8.8125 14.003225,8.8125 c -0.0161,0 -0.03395,-0.010547 -0.03968,-0.023437 C 13.952103,8.7633256 13.855406,8.7035675 13.59375,8.5605347 13.499219,8.5088597 13.369433,8.4354275 13.305338,8.3973525 12.840815,8.1214063 12.619262,8 12.580215,8 12.555313,8 12.526952,7.9870778 12.517191,7.9712841 12.501577,7.9460191 12.379152,7.8737803 11.96875,7.6476681 11.908594,7.6145247 11.837174,7.5677409 11.810039,7.5437037 11.782905,7.5196666 11.745955,7.5 11.727928,7.5 c -0.01803,0 -0.05028,-0.021094 -0.07168,-0.046875 -0.07824,-0.094271 -0.345686,-0.031941 -0.53125,0.1238119 -0.02578,0.021639 -0.143184,0.09404 -0.260895,0.1608912 -0.204926,0.1163819 -0.269793,0.1545863 -0.496917,0.2926672 -0.05586,0.03396 -0.171875,0.099034 -0.257813,0.1446094 -0.08594,0.045575 -0.1609375,0.095134 -0.1666666,0.11013 -0.00573,0.014996 -0.022045,0.027265 -0.036258,0.027265 -0.014213,0 -0.083937,0.038036 -0.1549431,0.084525 l -0.1291016,0.084525 1.5593623,1.5639123 c 0.857649,0.860151 1.588817,1.607335 1.624817,1.660408 0.121927,0.179747 0.224665,0.550044 0.224665,0.809754 0,0.260288 -0.10304,0.63098 -0.225085,0.809754 -0.408823,0.598855 -1.108962,0.847048 -1.76666,0.626266 -0.130426,-0.04378 -0.280562,-0.109064 -0.333634,-0.14507 -0.05307,-0.03601 -0.681476,-0.648382 -1.3964521,-1.360837 L 8.0094625,11.150365 7.9921838,12.34862 c -0.011101,0.769805 -0.00623,1.21175 0.013624,1.235996 0.016996,0.02076 0.1865066,0.126227 0.3766894,0.234375 0.1901825,0.108149 0.4104384,0.235408 0.4894575,0.282798 0.079019,0.04739 0.1999206,0.116076 0.2686706,0.152636 0.06875,0.03656 0.1320313,0.07513 0.140625,0.08571 0.00859,0.01058 0.080604,0.0544 0.1600222,0.09736 0.079418,0.04297 0.1778556,0.102822 0.21875,0.133007 0.1257931,0.09285 0.4611265,0.304493 0.4824495,0.304493 0.01109,0 0.155832,0.08236 0.321656,0.183018 0.165823,0.10066 0.364778,0.21505 0.442122,0.254198 0.07734,0.03915 0.147656,0.08086 0.15625,0.0927 0.0086,0.01183 0.03672,0.03114 0.0625,0.04289 0.02578,0.01175 0.103125,0.05659 0.171875,0.09964 0.174098,0.109015 0.286595,0.08721 0.631969,-0.122465 z m -0.06591,-1.957073 c 0.143971,-0.04862 0.228686,-0.104911 0.364477,-0.242188 0.290574,-0.293753 0.374971,-0.664321 0.240679,-1.056765 C 12.406281,11.988336 12.325985,11.905419 8.7263234,8.3050609 5.1064009,4.6844381 5.0447512,4.6247441 4.8615428,4.5628734 4.4643809,4.42875 4.0920487,4.51417 3.8038412,4.80553 3.5133172,5.0992322 3.4294928,5.4665813 3.5628734,5.8615428 c 0.06187,0.1832056 0.1216207,0.2449169 3.7421875,3.8649419 3.4827671,3.4822453 3.6884961,3.6820073 3.8511891,3.7394813 0.225942,0.07982 0.47406,0.0805 0.706682,0.0019 z"
       id="path833"
       inkscape:connector-curvature="0" />
    <path
       style="fill:#fefe00;stroke-width:0.03125"
       d="M 11.015467,9.8748422 C 10.415516,9.2747069 9.9310541,8.77803 9.9388856,8.7711156 c 0.00783,-0.00691 0.07752,-0.047662 0.1548644,-0.09055 0.07734,-0.042888 0.189844,-0.1057772 0.25,-0.1397528 0.164993,-0.093187 0.37266,-0.2095912 0.546875,-0.3065431 0.08594,-0.047825 0.193085,-0.1127185 0.238106,-0.1442085 0.04502,-0.03149 0.115333,-0.071842 0.15625,-0.089671 0.04092,-0.017829 0.120902,-0.060531 0.177745,-0.094892 l 0.103351,-0.062476 0.227925,0.1221887 c 0.306436,0.1642772 0.369669,0.2003853 0.424748,0.2425453 0.02578,0.019734 0.1875,0.1086006 0.359375,0.1974813 0.171875,0.08888 0.382813,0.2048484 0.46875,0.2577065 0.08594,0.052858 0.233594,0.1382282 0.328125,0.1897113 0.09453,0.051483 0.192969,0.11133 0.21875,0.1329931 0.02578,0.021663 0.117188,0.077706 0.203125,0.1245403 0.233202,0.1270903 0.734375,0.4256375 0.734375,0.4374653 0,0.010998 -0.277046,0.1810616 -0.484375,0.2973328 -0.06875,0.038555 -0.188281,0.1055035 -0.265625,0.1487735 -0.07734,0.04327 -0.189844,0.1091057 -0.25,0.1463027 -0.06016,0.0372 -0.130469,0.07724 -0.15625,0.089 -0.02578,0.01175 -0.103125,0.05653 -0.171875,0.0995 -0.06875,0.04297 -0.188281,0.11353 -0.265625,0.156793 -0.07734,0.04326 -0.182812,0.10397 -0.234375,0.134907 -0.05156,0.03094 -0.192187,0.10969 -0.3125,0.175009 -0.120312,0.06532 -0.233507,0.130454 -0.251543,0.144746 -0.02041,0.01617 -0.44485,-0.386198 -1.123615,-1.0651709 z M 0.64464638,8.31158 C 0.60083369,8.2595116 0.55568287,8.1673153 0.54431125,8.1066994 0.49097178,7.8223756 0.51504031,7.7624153 1.3936589,5.9907719 1.8556926,5.0591284 2.2439305,4.2893128 2.2564097,4.2800703 2.2688889,4.2708278 2.6729017,3.4686063 3.1542159,2.4973558 3.63553,1.5261053 4.0614047,0.70140103 4.1006038,0.66467956 4.1799656,0.59033406 4.31621,0.53125 4.4082844,0.53125 c 0.054525,0 0.060466,0.0235181 0.060466,0.23939228 V 1.0100346 L 3.6077344,2.7472048 C 3.1341756,3.7026484 2.72382,4.5194022 2.6958329,4.5622131 2.6071752,4.69783 1.03125,7.8819653 1.03125,7.9254803 c 0,0.049107 -0.2561755,0.4784791 -0.28628456,0.4798375 -0.0113628,5.125e-4 -0.0565063,-0.041669 -0.10031906,-0.093738 z"
       id="path831"
       inkscape:connector-curvature="0" />
    <path
       style="fill:#fecb32;stroke-width:0.03125"
       d="m 11.265625,15.107833 c -0.05156,-0.02642 -0.109248,-0.06836 -0.12819,-0.09321 -0.03003,-0.03939 -0.149641,-0.111126 -0.77806,-0.466645 C 10.290625,14.509085 10.075361,14.383941 9.88101,14.269881 9.6866594,14.155822 9.5225872,14.0625 9.5164047,14.0625 c -0.00618,0 -0.1182763,-0.06328 -0.2490975,-0.140625 C 9.1364856,13.844535 9.0233181,13.78125 9.0158238,13.78125 9.0083338,13.78125 8.8746463,13.70391 8.71875,13.609375 8.5628538,13.514844 8.4239141,13.4375 8.4099947,13.4375 c -0.013919,0 -0.048581,-0.02572 -0.077026,-0.05715 C 8.2872319,13.329814 8.28125,13.213353 8.28125,12.373463 v -0.949741 l 1.1953125,1.189324 c 1.2735665,1.267185 1.2765635,1.269621 1.6986825,1.380334 L 11.375,14.04577 v 0.555239 c 0,0.305381 -0.0035,0.555152 -0.0078,0.555046 -0.0043,-9.3e-5 -0.05,-0.02181 -0.101563,-0.04822 z m 0.390625,-0.50602 v -0.556041 l 0.199755,-0.05239 c 0.291356,-0.07642 0.470991,-0.170171 0.663956,-0.34653 0.228772,-0.209085 0.337313,-0.373978 0.432165,-0.656538 0.107751,-0.320986 0.107751,-0.628388 0,-0.949374 -0.09217,-0.274567 -0.192946,-0.429213 -0.432306,-0.663392 -0.168531,-0.164883 -0.171269,-0.170287 -0.104261,-0.20579 0.160822,-0.08521 0.387965,-0.211229 0.475066,-0.263568 0.275641,-0.165633 0.647905,-0.376938 0.664067,-0.376938 0.01018,0 0.04071,-0.01941 0.06785,-0.04313 0.02713,-0.02372 0.147774,-0.09654 0.268086,-0.161817 0.120313,-0.06528 0.305324,-0.171478 0.411136,-0.235996 0.105812,-0.06452 0.25007,-0.1467329 0.320573,-0.182701 l 0.128187,-0.065396 -0.0081,1.756042 -0.0081,1.756042 -0.08296,0.04941 c -0.04563,0.02718 -0.240921,0.140819 -0.433981,0.252538 -0.193061,0.111719 -0.408852,0.236663 -0.479538,0.277654 -0.07068,0.04099 -0.188989,0.114819 -0.262897,0.164062 -0.07391,0.04924 -0.140458,0.08953 -0.147887,0.08953 -0.0074,0 -0.101646,0.05316 -0.209371,0.118138 -0.181654,0.109568 -0.398013,0.220616 -0.586488,0.301019 -0.158674,0.06769 -0.638652,0.363006 -0.664203,0.408664 -0.01452,0.02595 -0.06789,0.06864 -0.1186,0.09486 l -0.0922,0.04768 z"
       id="path829"
       inkscape:connector-curvature="0" />
    <path
       style="fill:#fe9832;stroke-width:0.03125"
       d="m 1.03125,7.9419337 c 0,-0.054681 1.5553748,-3.2126687 1.6645829,-3.3797206 C 2.72382,4.5194022 3.1341756,3.7026484 3.6077344,2.7472048 L 4.46875,1.0100346 V 0.77064228 C 4.46875,0.53783063 4.47084,0.53125 4.544841,0.53125 c 0.1137131,0 0.2414431,0.0563715 0.3393241,0.14975519 0.053449,0.0509935 0.4246981,0.76414021 0.957619,1.83952861 0.4786813,0.9659371 0.8859357,1.7748328 0.90501,1.7975453 C 6.7658681,4.3407919 7.0636009,4.9289063 7.4084225,5.625 L 8.0353706,6.890625 6.7286228,5.5903825 C 6.0099116,4.8752487 5.3784519,4.2606806 5.3253794,4.224675 5.1456547,4.1027453 4.7753481,4 4.515625,4 4.2553372,4 3.8846453,4.1030403 3.7058706,4.2250853 3.1070163,4.6339078 2.8588231,5.3340466 3.0796051,5.9917447 c 0.043783,0.1304265 0.1090808,0.2805622 0.1451068,0.3336347 0.036026,0.053072 0.4184597,0.4515737 0.8498525,0.8855581 L 4.8589153,8 H 2.9450827 C 1.1007953,8 1.03125,7.99789 1.03125,7.9419337 Z"
       id="path827"
       inkscape:connector-curvature="0" />
    <path
       style="fill:#00fe00;stroke-width:0.03125"
       d="M 11.359375,12.994167 C 11.29896,12.973449 9.9859528,11.68356 7.6666847,9.3664944 4.472065,6.1749075 4.0635675,5.7560516 4.0305628,5.6381703 3.9304669,5.2806634 4.2917919,4.9257478 4.6473875,5.0322869 c 0.1069728,0.03205 0.6643438,0.5767106 3.7203572,3.6355178 2.9262943,2.9289703 3.6015603,3.6201053 3.6323293,3.7176923 0.07527,0.238741 -0.08441,0.524813 -0.340675,0.610312 -0.125247,0.04179 -0.17416,0.04152 -0.300024,-0.0016 z"
       id="path825"
       inkscape:connector-curvature="0" />
    <path
       style="fill:#009800;stroke-width:0.03125"
       d="M 11.15625,13.465966 C 10.993557,13.408492 10.787828,13.20873 7.3050609,9.7264847 3.6844941,6.1064597 3.6247431,6.0447484 3.5628734,5.8615428 3.4294928,5.4665813 3.5133172,5.0992322 3.8038413,4.80553 4.0920488,4.51417 4.4643809,4.42875 4.8615428,4.5628734 c 0.1832085,0.061871 0.2448581,0.1215647 3.8647806,3.7421875 3.5996616,3.6003581 3.6799576,3.6832751 3.7417646,3.8638941 0.134292,0.392444 0.04989,0.763012 -0.240679,1.056765 -0.135792,0.137277 -0.220506,0.193568 -0.364477,0.242188 -0.232622,0.07856 -0.48074,0.07788 -0.706682,-0.0019 z m 0.503149,-0.470157 c 0.256265,-0.0855 0.415949,-0.371571 0.340675,-0.610312 C 11.969305,12.28791 11.294039,11.596775 8.3677447,8.6678047 5.3117312,5.6089975 4.7543603,5.0643366 4.6473875,5.0322869 4.2917919,4.9257478 3.9304669,5.2806634 4.0305628,5.6381703 4.0635675,5.7560516 4.472065,6.1749075 7.6666847,9.3664944 9.9859528,11.68356 11.29896,12.973449 11.359375,12.994167 c 0.125864,0.04316 0.174777,0.04343 0.300024,0.0016 z"
       id="path823"
       inkscape:connector-curvature="0" />
    <path
       style="fill:#653200;stroke-width:0.03125"
       d="M 0.546875,8.9412756 C 0.478125,8.9097322 0.35021972,8.8077116 0.26264106,8.7145631 0.03957176,8.4773072 -0.00978545,8.3145172 0.00453847,7.8632891 L 0.01567206,7.5125616 1.1207439,5.2797184 C 1.7285334,4.0516544 2.2379233,3.0392396 2.2527213,3.0299073 2.2675193,3.0205751 2.5622393,2.4369814 2.9076547,1.7330323 3.4613616,0.60458941 3.5547606,0.43365756 3.6968972,0.28862103 3.9148169,0.06625503 4.0955881,0 4.484375,0 c 0.3966478,0 0.5678725,0.06486429 0.8029872,0.30419248 0.162355,0.16526465 0.2290044,0.28614999 0.8050106,1.46008982 0.3454003,0.7039491 0.6399941,1.2875428 0.6546525,1.296875 0.041825,0.026628 2.1593453,4.3126939 2.2084375,4.4700927 0.024123,0.077344 0.044013,0.1826366 0.044199,0.2339844 3.156e-4,0.086963 -0.03198,0.061269 -0.4713438,-0.375 L 8.0566366,6.921875 7.4190356,5.640625 C 7.068355,4.9359375 6.7658372,4.3407919 6.7467741,4.3180791 6.7277106,4.2953666 6.320465,3.4864709 5.8417837,2.5205337 5.3088628,1.4451454 4.9376141,0.73199869 4.8841647,0.68100519 4.677085,0.48344012 4.3024053,0.47563359 4.1006037,0.66467956 4.0614047,0.70140103 3.63553,1.5261053 3.1542159,2.4973558 2.6729017,3.4686063 2.2688889,4.2708278 2.2564097,4.2800703 2.2439305,4.2893128 1.8550265,5.0604694 1.3921786,5.9937512 0.63530131,7.5199109 0.54930791,7.7090006 0.53742703,7.8732522 c -0.0156181,0.2159184 0.0290149,0.3714484 0.13523166,0.471234 0.0424022,0.039835 0.0819096,0.066512 0.0877942,0.059283 0.005885,-0.00723 0.0641889,-0.1010347 0.12956497,-0.2084566 L 1.0088835,8 H 2.9344956 4.8601075 L 5.359375,8.5 5.8586425,9 3.2652587,8.9993125 C 0.81654706,8.9986656 0.66490187,8.9954281 0.546875,8.9412756 Z"
       id="path821"
       inkscape:connector-curvature="0" />
    <path
       style="fill:#191919;stroke-width:0.03125"
       d="m 11.296875,15.547446 c -0.06875,-0.04305 -0.146094,-0.08789 -0.171875,-0.09964 -0.02578,-0.01175 -0.05391,-0.03105 -0.0625,-0.04289 -0.0086,-0.01184 -0.07891,-0.05355 -0.15625,-0.0927 -0.07734,-0.03915 -0.276299,-0.153538 -0.442122,-0.254198 C 10.298304,14.957358 10.153559,14.875 10.142472,14.875 10.121152,14.875 9.7858153,14.663358 9.6600222,14.570507 9.6191282,14.540327 9.5206903,14.480467 9.4412722,14.4375 9.3618542,14.39453 9.2898437,14.35072 9.28125,14.34014 9.27266,14.32956 9.209375,14.29099 9.140625,14.25443 9.071875,14.217865 8.9509731,14.149179 8.8719544,14.101789 8.7929353,14.054399 8.5726794,13.92714 8.3824969,13.818991 8.1923141,13.710843 8.0228038,13.605374 8.0058075,13.584616 c -0.019852,-0.02425 -0.024729,-0.46585 -0.013639,-1.234931 l 0.017264,-1.197191 0.1359091,0.133384 0.1359087,0.133385 v 0.9574 c 0,0.887827 0.00415,0.961159 0.057148,1.009119 0.031432,0.02844 0.066094,0.05172 0.077026,0.05172 0.010933,0 0.1474293,0.07734 0.3033256,0.171875 0.1558962,0.09453 0.2895794,0.171875 0.2970737,0.171875 0.00749,0 0.1206619,0.06328 0.2514835,0.140625 0.1308212,0.07734 0.2429153,0.140625 0.2490975,0.140625 0.00618,0 0.1702547,0.09332 0.3646053,0.207381 0.1943511,0.11406 0.4096151,0.239204 0.4783651,0.278098 0.594374,0.336258 0.729847,0.418525 0.805566,0.48918 0.04775,0.04456 0.114545,0.08826 0.148437,0.09712 0.05964,0.0156 0.06162,-0.0019 0.06162,-0.54346 v -0.559574 h 0.140625 0.140625 v 0.563303 0.563302 l 0.0922,-0.04768 c 0.05071,-0.02622 0.104078,-0.06891 0.1186,-0.09486 0.02555,-0.04566 0.505529,-0.340973 0.664203,-0.408663 0.188475,-0.0804 0.404834,-0.191452 0.586488,-0.30102 0.107724,-0.06498 0.201941,-0.118138 0.209371,-0.118138 0.0074,0 0.07398,-0.04029 0.147887,-0.08953 0.07391,-0.04924 0.192212,-0.123072 0.262897,-0.164062 0.07069,-0.04099 0.286477,-0.165935 0.479538,-0.277654 0.19306,-0.111719 0.388351,-0.225361 0.433981,-0.252538 l 0.08296,-0.04941 0.0081,-1.756042 0.0081,-1.7560419 -0.128187,0.065396 c -0.0705,0.035968 -0.214761,0.1181829 -0.320573,0.1827009 -0.105812,0.06452 -0.290824,0.170716 -0.411136,0.235996 -0.120313,0.06528 -0.240951,0.138098 -0.268086,0.161817 -0.02713,0.02372 -0.05767,0.04313 -0.06785,0.04313 -0.01759,0 -0.464148,0.254717 -0.664067,0.378783 -0.05156,0.032 -0.114844,0.06799 -0.140625,0.07999 -0.02578,0.01199 -0.114291,0.06133 -0.196688,0.109644 -0.0824,0.04831 -0.167529,0.08783 -0.189182,0.08783 -0.06241,0 -0.255803,-0.214865 -0.221882,-0.246514 0.01629,-0.0152 0.128064,-0.08093 0.248377,-0.146062 0.120312,-0.06513 0.260937,-0.14373 0.3125,-0.174666 0.05156,-0.03094 0.157031,-0.09164 0.234375,-0.134907 0.07734,-0.04326 0.196875,-0.113819 0.265625,-0.156793 0.06875,-0.04297 0.146094,-0.08775 0.171875,-0.0995 0.02578,-0.01175 0.09609,-0.0518 0.15625,-0.089 0.06016,-0.0372 0.172656,-0.103033 0.25,-0.1463025 0.07734,-0.04327 0.196875,-0.1102181 0.265625,-0.1487735 0.207329,-0.1162712 0.484375,-0.2863353 0.484375,-0.2973328 0,-0.011828 -0.501173,-0.310375 -0.734375,-0.4374653 C 13.710937,9.0633538 13.619531,9.0073106 13.59375,8.9856475 13.567969,8.9639844 13.469531,8.9041375 13.375,8.8526544 13.280469,8.8011713 13.132812,8.7158013 13.046875,8.6629431 12.960937,8.610085 12.75,8.4941169 12.578125,8.4052366 12.40625,8.3163559 12.244531,8.2274894 12.21875,8.2077553 12.163671,8.1655953 12.100438,8.1294872 11.794002,7.96521 l -0.227925,-0.1221887 -0.103351,0.062476 c -0.05684,0.034362 -0.136828,0.077063 -0.177745,0.094892 -0.04092,0.017829 -0.111229,0.058181 -0.15625,0.089671 -0.04502,0.03149 -0.145137,0.092433 -0.222481,0.1354285 -0.07734,0.042996 -0.189844,0.1059725 -0.25,0.1399481 -0.222705,0.1257822 -0.426167,0.2397822 -0.580585,0.3253041 L 9.916955,8.7786403 9.7702659,8.6297119 9.6235772,8.4807834 9.7520931,8.3966419 C 9.8227769,8.3503638 9.8922375,8.3125 9.9064503,8.3125 c 0.014213,0 0.030529,-0.012269 0.036258,-0.027265 0.00573,-0.014996 0.08073,-0.064555 0.1666667,-0.11013 C 10.195315,8.12953 10.311328,8.0644553 10.367188,8.0304956 10.594312,7.8924144 10.659179,7.85421 10.864105,7.7378281 10.981816,7.6709772 11.099219,7.5985762 11.125,7.5769369 11.310564,7.4211844 11.578012,7.3588537 11.65625,7.453125 11.677647,7.4789062 11.709902,7.5 11.727928,7.5 c 0.01803,0 0.05498,0.019667 0.08211,0.043704 0.02713,0.024037 0.09856,0.070821 0.158711,0.1039644 0.410402,0.2261122 0.532827,0.298351 0.548441,0.323616 C 12.526952,7.9870778 12.555313,8 12.580215,8 c 0.03905,0 0.2606,0.1214063 0.725123,0.3973525 0.0641,0.038075 0.193881,0.1115072 0.288412,0.1631822 0.261656,0.1430328 0.358353,0.2027909 0.369792,0.2285278 0.0057,0.012891 0.02359,0.023437 0.03968,0.023437 0.0161,0 0.08615,0.035912 0.155684,0.079803 0.119347,0.075341 0.174577,0.1075797 0.458279,0.2675072 0.309829,0.1746569 0.386537,0.2262588 0.414775,0.2790225 0.01898,0.035469 0.03054,0.8245688 0.03054,2.0855188 0,2.261994 0.02076,2.054729 -0.21875,2.184205 -0.06016,0.03252 -0.165625,0.09521 -0.234375,0.139317 -0.06875,0.0441 -0.230469,0.13387 -0.359375,0.199478 -0.128906,0.06561 -0.360937,0.195085 -0.515625,0.287725 -0.154687,0.09264 -0.309375,0.185226 -0.34375,0.205743 -0.03438,0.02052 -0.06953,0.04622 -0.07813,0.05712 -0.01458,0.01849 -0.06504,0.04841 -0.367187,0.217731 -0.06445,0.03612 -0.139389,0.08534 -0.166524,0.109375 -0.02713,0.02404 -0.05802,0.0437 -0.06864,0.0437 -0.03387,0 -0.412853,0.228412 -0.423693,0.255356 -0.0057,0.01424 -0.02369,0.02589 -0.0399,0.02589 -0.01622,0 -0.159189,0.07874 -0.317709,0.174981 -0.345374,0.20968 -0.457871,0.23148 -0.631969,0.122465 z"
       id="path819"
       inkscape:connector-curvature="0" />
  </g>
</svg>
