<?xml version="1.0" encoding="UTF-8" standalone="no"?>
<!-- Created with Inkscape (http://www.inkscape.org/) -->

<svg
   xmlns:dc="http://purl.org/dc/elements/1.1/"
   xmlns:cc="http://creativecommons.org/ns#"
   xmlns:rdf="http://www.w3.org/1999/02/22-rdf-syntax-ns#"
   xmlns:svg="http://www.w3.org/2000/svg"
   xmlns="http://www.w3.org/2000/svg"
   xmlns:sodipodi="http://sodipodi.sourceforge.net/DTD/sodipodi-0.dtd"
   xmlns:inkscape="http://www.inkscape.org/namespaces/inkscape"
   version="1.1"
   id="svg2"
   width="16"
   height="16"
   viewBox="0 0 16 16"
   sodipodi:docname="PARENT_BONE.svg"
   inkscape:version="0.92.4 (5da689c313, 2019-01-14)">
  <metadata
     id="metadata8">
    <rdf:RDF>
      <cc:Work
         rdf:about="">
        <dc:format>image/svg+xml</dc:format>
        <dc:type
           rdf:resource="http://purl.org/dc/dcmitype/StillImage" />
        <dc:title></dc:title>
      </cc:Work>
    </rdf:RDF>
  </metadata>
  <defs
     id="defs6" />
  <sodipodi:namedview
     pagecolor="#ffffff"
     bordercolor="#666666"
     borderopacity="1"
     objecttolerance="10"
     gridtolerance="10"
     guidetolerance="10"
     inkscape:pageopacity="0"
     inkscape:pageshadow="2"
     inkscape:window-width="1078"
     inkscape:window-height="825"
     id="namedview4"
     showgrid="false"
     inkscape:zoom="14.75"
     inkscape:cx="8"
     inkscape:cy="8"
     inkscape:window-x="0"
     inkscape:window-y="0"
     inkscape:window-maximized="0"
     inkscape:current-layer="svg2" />
  <g
     id="PARENT_BONE">
    <path
       style="fill:#ffffff;stroke-width:0.03125"
       d="M 0.0014617,12.132813 C 0.0029181,8.2796697 0.00314235,8.2661859 0.06320995,8.4200384 0.13489964,8.6036588 0.37236162,8.859145 0.546875,8.9404153 c 0.11873219,0.055293 0.25507428,0.058247 2.7190947,0.058898 L 5.8600644,9.0000008 6.3833569,9.5239729 6.9066491,10.047945 6.6635706,10.289597 6.4204922,10.53125 H 5.6676366 c -0.8544254,0 -1.0011841,0.01911 -1.3101554,0.170619 -0.5604015,0.274799 -0.9020574,0.927543 -0.8018899,1.532034 0.077697,0.468885 0.3876881,0.892371 0.8018899,1.095478 C 4.6271559,13.461619 4.8218622,13.5 5.2230153,13.5 H 5.53125 v 0.308235 c 0,0.401153 0.038382,0.595859 0.1706191,0.865534 0.2052987,0.41867 0.6344303,0.729763 1.1077125,0.803021 C 7.562215,15.593288 8.3237344,15.045915 8.4681028,14.284663 8.4856463,14.192156 8.5,13.777043 8.5,13.362189 v -0.75428 l 0.2426497,-0.241227 0.2426497,-0.241226 0.7807878,0.783352 c 0.4294328,0.430845 0.8389178,0.824042 0.9099658,0.873774 0.07105,0.04973 0.235247,0.126026 0.364885,0.169544 0.560985,0.188316 1.164345,0.03679 1.571395,-0.394632 0.189962,-0.201337 0.251332,-0.303661 0.339312,-0.565749 0.145436,-0.433246 0.07726,-0.963778 -0.169063,-1.315692 -0.04973,-0.07105 -0.443031,-0.480634 -0.873999,-0.910191 L 11.125005,9.9848487 11.866946,9.2424244 12.608887,8.5 h 0.753791 c 0.855385,0 1.002073,-0.019089 1.311091,-0.1706191 C 15.23417,8.0545831 15.575826,7.4018397 15.475659,6.7973475 15.397962,6.3284622 15.087971,5.9049766 14.673769,5.7018691 14.404094,5.5696316 14.209388,5.53125 13.808235,5.53125 H 13.5 V 5.2230153 C 13.5,4.8218622 13.46162,4.6271559 13.329381,4.3574812 13.124082,3.9388109 12.694951,3.6277178 12.221668,3.5544606 11.469035,3.4379637 10.707516,3.9853359 10.563147,4.7465881 c -0.01754,0.092506 -0.0319,0.5073988 -0.0319,0.9219838 V 6.4223634 L 9.7876403,7.1654887 C 9.378655,7.5742078 9.0341238,7.8987072 9.0220153,7.8865987 9.0099069,7.8744903 8.9998478,7.8212241 8.9996619,7.7682291 8.9994744,7.7152344 8.9795863,7.6085937 8.9554628,7.53125 8.9064234,7.3740212 6.7888744,3.0878007 6.7470956,3.0612008 6.7324759,3.0518925 6.4333747,2.4612675 6.0824262,1.7487008 5.4959719,0.55796109 5.43065,0.43979309 5.2751709,0.28836795 5.1763903,0.19216295 5.0416922,0.0985031 4.9514391,0.06326715 4.7977972,0.00328348 4.8303,0.00291468 10.398438,0.0014617 L 16,0 v 8 8 H 8 0 Z M 0.00209049,3.8046875 0,0 2.0859375,0.0014617 4.171875,0.0029234 4.0174616,0.06320995 C 3.9325188,0.09637364 3.7938816,0.19061662 3.70931,0.27268575 3.5732106,0.40475797 3.4823666,0.57052112 2.9175288,1.7174508 2.5666053,2.4300175 2.267448,3.0206425 2.2527349,3.0299508 2.2154959,3.0535102 0.09600739,7.3305612 0.04534935,7.484375 0.01080999,7.5892472 0.00384437,6.9967375 0.00209049,3.8046875 Z"
       id="path833"
       inkscape:connector-curvature="0" />
    <path
       style="fill:#fefefe;stroke-width:0.03125"
       d="M 6.8507037,14.966324 C 6.6691194,14.931197 6.4223369,14.792198 6.3056956,14.659351 6.1110275,14.437636 6.0566125,14.257991 6.0341944,13.763019 6.0122653,13.278848 5.9936675,13.224303 5.8016256,13.080923 5.7289112,13.026633 5.6503841,13.014364 5.2634706,12.99684 4.8396628,12.977645 4.7975941,12.969992 4.611025,12.878144 3.8648022,12.51078 3.8694525,11.51828 4.6191266,11.149079 L 4.8266562,11.046875 5.7180156,11.03125 C 6.321115,11.020678 6.6295872,11.003688 6.671875,10.978712 6.70625,10.95841 6.85373,10.821166 6.9996084,10.673725 L 7.2648419,10.40565 5.2774709,8.4137625 C 4.1844169,7.3182244 3.2606497,6.3784519 3.224655,6.3253794 3.1886603,6.2723069 3.1233879,6.1221712 3.0796051,5.9917447 2.8907799,5.4292441 3.0418462,4.8264259 3.4737556,4.4189175 3.6750934,4.2289547 3.7774172,4.1675853 4.0395053,4.079605 c 0.32305,-0.1084441 0.6291894,-0.1084441 0.9522394,0 0.1304266,0.043783 0.2805622,0.1090553 0.3336347,0.14505 0.053072,0.035995 0.9929469,0.9598634 2.0886094,2.0530419 L 9.4061022,8.2652944 10.173771,7.4998347 c 0.422217,-0.4210028 0.78436,-0.7935847 0.804761,-0.8279597 0.02519,-0.042451 0.04218,-0.3481941 0.05297,-0.953125 0.01564,-0.8772338 0.01709,-0.8932306 0.09691,-1.0639259 0.114614,-0.2451116 0.252528,-0.3884463 0.48286,-0.5018385 0.280503,-0.1380906 0.528209,-0.1380906 0.808712,0 0.230209,0.1133316 0.36955,0.2580406 0.479298,0.4977628 0.06641,0.1450503 0.08038,0.2332622 0.09778,0.6174825 0.02193,0.4841713 0.04053,0.5387166 0.232568,0.6820966 0.07272,0.054289 0.151242,0.066558 0.538155,0.084083 0.423808,0.019195 0.465877,0.026848 0.652446,0.1186959 0.496439,0.2443963 0.693322,0.7889475 0.458039,1.2668747 -0.113392,0.2303322 -0.256726,0.3682463 -0.501838,0.48286 -0.170695,0.079817 -0.186692,0.081274 -1.063926,0.09691 -0.604931,0.010783 -0.910674,0.027773 -0.953125,0.052968 -0.03438,0.020401 -0.406936,0.3825231 -0.827914,0.8047153 l -0.765414,0.7676229 0.987514,0.9921597 c 0.543132,0.545687 1.016981,1.035582 1.052996,1.088655 0.03602,0.05307 0.101305,0.203208 0.145088,0.333634 0.188825,0.562501 0.03776,1.165319 -0.394151,1.572827 -0.201337,0.189963 -0.303661,0.251333 -0.565749,0.339313 -0.32305,0.108444 -0.62919,0.108444 -0.95224,0 -0.130426,-0.04378 -0.280562,-0.109073 -0.333634,-0.145088 -0.05307,-0.03601 -0.542866,-0.509762 -1.0884294,-1.05277 L 8.6255081,11.766499 8.3574794,12.031687 C 8.2100634,12.17754 8.0728397,12.325 8.0525378,12.359375 c -0.024955,0.04225 -0.042056,0.351024 -0.052787,0.953125 -0.015636,0.877234 -0.017093,0.893231 -0.09691,1.063926 -0.1144859,0.244838 -0.2532784,0.389299 -0.4758265,0.495261 -0.2199757,0.104736 -0.3844725,0.131748 -0.5763104,0.09464 z m 5.0122283,-1.498417 c 0.143971,-0.04862 0.228686,-0.10491 0.364477,-0.242187 0.290574,-0.293753 0.374971,-0.664321 0.240679,-1.056765 C 12.406281,11.988336 12.325985,11.905419 8.7263234,8.3050609 5.1064009,4.6844381 5.0447512,4.6247441 4.8615428,4.5628734 4.4643809,4.42875 4.0920487,4.51417 3.8038412,4.80553 3.5133172,5.0992322 3.4294928,5.4665812 3.5628734,5.8615428 c 0.06187,0.1832056 0.1216207,0.2449169 3.7421875,3.8649419 3.4827671,3.4822453 3.6884961,3.6820073 3.8511891,3.7394813 0.225942,0.07982 0.47406,0.0805 0.706682,0.0019 z"
       id="path831"
       inkscape:connector-curvature="0" />
    <path
       style="fill:#fefe00;stroke-width:0.03125"
       d="M 0.64464638,8.31158 C 0.60083369,8.2595116 0.55568287,8.1673153 0.54431125,8.1066994 0.49097178,7.8223756 0.51504031,7.7624153 1.3936589,5.9907719 1.8556926,5.0591284 2.2439305,4.2893128 2.2564097,4.2800703 2.2688889,4.2708278 2.6729017,3.4686063 3.1542159,2.4973558 3.63553,1.5261053 4.0614047,0.70140103 4.1006038,0.66467956 4.1799656,0.59033406 4.31621,0.53125 4.4082844,0.53125 c 0.054525,0 0.060466,0.0235181 0.060466,0.23939228 V 1.0100346 L 3.6077344,2.7472048 C 3.1341756,3.7026484 2.72382,4.5194022 2.6958329,4.5622131 2.6071752,4.69783 1.03125,7.8819653 1.03125,7.9254803 c 0,0.049107 -0.2561755,0.4784791 -0.28628456,0.4798375 -0.0113628,5.125e-4 -0.0565063,-0.041669 -0.10031906,-0.093738 z"
       id="path829"
       inkscape:connector-curvature="0" />
    <path
       style="fill:#fe9832;stroke-width:0.03125"
       d="m 1.03125,7.9419337 c 0,-0.054681 1.5553748,-3.2126687 1.6645829,-3.3797206 C 2.72382,4.5194022 3.1341756,3.7026484 3.6077344,2.7472048 L 4.46875,1.0100346 V 0.77064228 C 4.46875,0.53783063 4.47084,0.53125 4.544841,0.53125 c 0.1137131,0 0.2414431,0.0563715 0.3393241,0.14975519 0.053449,0.0509935 0.4246981,0.76414021 0.957619,1.83952861 0.4786813,0.9659371 0.8859357,1.7748328 0.90501,1.7975453 C 6.7658681,4.3407919 7.0636009,4.9289063 7.4084225,5.625 L 8.0353706,6.890625 6.7286228,5.5903825 C 6.0099116,4.8752487 5.3784519,4.2606806 5.3253794,4.224675 5.1456547,4.1027453 4.7753481,4 4.515625,4 4.2553372,4 3.8846453,4.1030403 3.7058706,4.2250853 3.1070163,4.6339078 2.8588231,5.3340466 3.0796051,5.9917447 c 0.043783,0.1304265 0.1090808,0.2805622 0.1451068,0.3336347 0.036026,0.053072 0.4184597,0.4515737 0.8498525,0.8855581 L 4.8589153,8 H 2.9450827 C 1.1007953,8 1.03125,7.99789 1.03125,7.9419337 Z"
       id="path827"
       inkscape:connector-curvature="0" />
    <path
       style="fill:#00fe00;stroke-width:0.03125"
       d="M 11.359375,12.994167 C 11.29896,12.973449 9.9859528,11.68356 7.6666847,9.3664944 4.472065,6.1749075 4.0635675,5.7560516 4.0305628,5.6381703 3.9304669,5.2806634 4.2917919,4.9257478 4.6473875,5.0322869 c 0.1069728,0.03205 0.6643438,0.5767106 3.7203572,3.6355178 2.9262943,2.9289703 3.6015603,3.6201053 3.6323293,3.7176923 0.07527,0.238741 -0.08441,0.524813 -0.340675,0.610312 -0.125247,0.04179 -0.17416,0.04152 -0.300024,-0.0016 z"
       id="path825"
       inkscape:connector-curvature="0" />
    <path
       style="fill:#009800;stroke-width:0.03125"
       d="M 11.15625,13.465966 C 10.993557,13.408492 10.787828,13.20873 7.3050609,9.7264847 3.6844941,6.1064597 3.6247431,6.0447484 3.5628734,5.8615428 3.4294928,5.4665813 3.5133172,5.0992322 3.8038413,4.80553 4.0920488,4.51417 4.4643809,4.42875 4.8615428,4.5628734 c 0.1832085,0.061871 0.2448581,0.1215647 3.8647806,3.7421875 3.5996616,3.6003581 3.6799576,3.6832751 3.7417646,3.8638941 0.134292,0.392444 0.04989,0.763012 -0.240679,1.056765 -0.135792,0.137277 -0.220506,0.193568 -0.364477,0.242188 -0.232622,0.07856 -0.48074,0.07788 -0.706682,-0.0019 z m 0.503149,-0.470157 c 0.256265,-0.0855 0.415949,-0.371571 0.340675,-0.610312 C 11.969305,12.28791 11.294039,11.596775 8.3677447,8.6678047 5.3117312,5.6089975 4.7543603,5.0643366 4.6473875,5.0322869 4.2917919,4.9257478 3.9304669,5.2806634 4.0305628,5.6381703 4.0635675,5.7560516 4.472065,6.1749075 7.6666847,9.3664944 9.9859528,11.68356 11.29896,12.973449 11.359375,12.994167 c 0.125864,0.04316 0.174777,0.04343 0.300024,0.0016 z"
       id="path823"
       inkscape:connector-curvature="0" />
    <path
       style="fill:#653200;stroke-width:0.03125"
       d="M 0.546875,8.9412756 C 0.478125,8.9097322 0.35021972,8.8077116 0.26264106,8.7145631 0.03957176,8.4773072 -0.00978545,8.3145172 0.00453847,7.8632891 L 0.01567206,7.5125616 1.1207439,5.2797184 C 1.7285334,4.0516544 2.2379233,3.0392396 2.2527213,3.0299073 2.2675193,3.0205751 2.5622393,2.4369814 2.9076547,1.7330323 3.4613616,0.60458941 3.5547606,0.43365756 3.6968972,0.28862103 3.9148169,0.06625503 4.0955881,0 4.484375,0 c 0.3966478,0 0.5678725,0.06486429 0.8029872,0.30419248 0.162355,0.16526465 0.2290044,0.28614999 0.8050106,1.46008982 0.3454003,0.7039491 0.6399941,1.2875428 0.6546525,1.296875 0.041825,0.026628 2.1593453,4.3126939 2.2084375,4.4700927 0.024123,0.077344 0.044013,0.1826366 0.044199,0.2339844 3.156e-4,0.086963 -0.03198,0.061269 -0.4713438,-0.375 L 8.0566366,6.921875 7.4190356,5.640625 C 7.068355,4.9359375 6.7658372,4.3407919 6.7467741,4.3180791 6.7277106,4.2953666 6.320465,3.4864709 5.8417837,2.5205337 5.3088628,1.4451454 4.9376141,0.73199869 4.8841647,0.68100519 4.677085,0.48344012 4.3024053,0.47563359 4.1006037,0.66467956 4.0614047,0.70140103 3.63553,1.5261053 3.1542159,2.4973558 2.6729017,3.4686063 2.2688889,4.2708278 2.2564097,4.2800703 2.2439305,4.2893128 1.8550265,5.0604694 1.3921786,5.9937512 0.63530131,7.5199109 0.54930791,7.7090006 0.53742703,7.8732522 c -0.0156181,0.2159184 0.0290149,0.3714484 0.13523166,0.471234 0.0424022,0.039835 0.0819096,0.066512 0.0877942,0.059283 0.005885,-0.00723 0.0641889,-0.1010347 0.12956497,-0.2084566 L 1.0088835,8 H 2.9344956 4.8601075 L 5.359375,8.5 5.8586425,9 3.2652587,8.9993125 C 0.81654706,8.9986656 0.66490187,8.9954281 0.546875,8.9412756 Z"
       id="path821"
       inkscape:connector-curvature="0" />
    <path
       style="fill:#1a1a1a;stroke-width:0.03125"
       d="M 6.7221353,15.4662 C 6.31263,15.385778 5.8900766,15.057584 5.7018691,14.673769 5.5696316,14.404094 5.53125,14.209388 5.53125,13.808235 V 13.5 H 5.2230153 C 4.8218622,13.5 4.6271559,13.461618 4.3574812,13.329381 3.9432794,13.126273 3.6332881,12.702788 3.5555913,12.233902 3.4554238,11.62941 3.7970797,10.976667 4.3574812,10.701869 4.6664525,10.550362 4.8132112,10.53125 5.6676366,10.53125 h 0.7528556 l 0.2430762,-0.241651 0.2430763,-0.24165 0.178975,0.178975 0.1789747,0.178975 -0.2651097,0.26795 C 6.8536744,10.821222 6.70625,10.95841 6.671875,10.978712 c -0.042288,0.02498 -0.35076,0.04197 -0.9538594,0.05254 l -0.8913594,0.01563 -0.2075296,0.102204 c -0.7496741,0.369201 -0.7543244,1.361701 -0.0081,1.729065 0.1865691,0.09185 0.2286378,0.0995 0.6524456,0.118696 0.3869135,0.01752 0.4654406,0.02979 0.538155,0.08408 0.1920419,0.14338 0.2106397,0.197926 0.2325688,0.682097 0.017402,0.38422 0.03137,0.472432 0.097776,0.617483 0.1097485,0.239722 0.2490894,0.384431 0.4792988,0.497762 0.4814047,0.236995 1.0223278,0.0386 1.2709012,-0.466141 L 7.984375,14.204594 8,13.313234 c 0.010572,-0.603099 0.027562,-0.911571 0.052538,-0.953859 0.020302,-0.03438 0.1574903,-0.181799 0.3048628,-0.32761 L 8.6253513,11.766656 8.8043262,11.94563 8.9833009,12.124605 8.7416506,12.367682 8.5,12.610758 v 0.752855 c 0,0.414071 -0.014354,0.828543 -0.031897,0.921049 -0.1508969,0.795677 -0.9516119,1.33754 -1.7459677,1.181538 z M 10.937088,9.7964581 10.766937,9.6241663 11.531906,8.8569887 C 11.952639,8.4350409 12.325,8.0731191 12.359375,8.0527181 c 0.04245,-0.025194 0.348194,-0.042185 0.953125,-0.052968 0.877234,-0.015636 0.893231,-0.017093 1.063926,-0.09691 0.245112,-0.1146137 0.388446,-0.2525278 0.501838,-0.48286 0.138091,-0.2805022 0.138091,-0.528209 0,-0.8087112 C 14.764933,6.38106 14.620224,6.2417191 14.380502,6.1319706 14.235451,6.0655644 14.147239,6.0515962 13.763019,6.0341944 13.380717,6.0168794 13.302235,6.0045394 13.229624,5.9503275 13.037583,5.8069475 13.018985,5.7524022 12.997056,5.2682309 12.979654,4.8840106 12.965686,4.7957988 12.899279,4.6507484 12.789531,4.4110262 12.65019,4.2663172 12.419981,4.1529856 c -0.280503,-0.1380906 -0.528209,-0.1380906 -0.808712,0 -0.230332,0.1133922 -0.368246,0.2567269 -0.48286,0.5018385 -0.07982,0.1706953 -0.08127,0.1866921 -0.09691,1.0639259 -0.01078,0.6049309 -0.02777,0.9106737 -0.05297,0.953125 -0.0204,0.034375 -0.382488,0.4069009 -0.804637,0.8278356 L 9.4063506,8.2650462 9.2269047,8.0856003 9.0474587,7.9061544 9.7893544,7.1637756 10.53125,6.4213966 V 5.6680884 c 0,-0.4143193 0.01435,-0.8289943 0.0319,-0.9215003 0.145621,-0.7678528 0.917357,-1.3158387 1.676061,-1.1901175 0.605756,0.1003769 1.115929,0.5944519 1.228895,1.1901175 0.01754,0.092506 0.0319,0.3068981 0.0319,0.4764272 V 5.53125 h 0.308235 c 0.401153,0 0.595859,0.038382 0.865534,0.1706191 0.41867,0.2052987 0.729763,0.6344303 0.80302,1.1077125 C 15.593286,7.562215 15.045914,8.3237344 14.284662,8.4681028 14.192156,8.4856463 13.777261,8.5 13.362673,8.5 H 12.608876 L 11.875,9.234375 c -0.403632,0.4039063 -0.7415,0.734375 -0.750818,0.734375 -0.0093,0 -0.09351,-0.077531 -0.187094,-0.1722919 z"
       id="path819"
       inkscape:connector-curvature="0" />
  </g>
</svg>
