<?xml version="1.0" encoding="UTF-8" standalone="no"?>
<!-- Created with Inkscape (http://www.inkscape.org/) -->

<svg
   xmlns:dc="http://purl.org/dc/elements/1.1/"
   xmlns:cc="http://creativecommons.org/ns#"
   xmlns:rdf="http://www.w3.org/1999/02/22-rdf-syntax-ns#"
   xmlns:svg="http://www.w3.org/2000/svg"
   xmlns="http://www.w3.org/2000/svg"
   xmlns:sodipodi="http://sodipodi.sourceforge.net/DTD/sodipodi-0.dtd"
   xmlns:inkscape="http://www.inkscape.org/namespaces/inkscape"
   version="1.1"
   id="svg2"
   width="16"
   height="16"
   viewBox="0 0 16 16"
   sodipodi:docname="PROP_CON.svg"
   inkscape:version="0.92.4 (5da689c313, 2019-01-14)">
  <metadata
     id="metadata8">
    <rdf:RDF>
      <cc:Work
         rdf:about="">
        <dc:format>image/svg+xml</dc:format>
        <dc:type
           rdf:resource="http://purl.org/dc/dcmitype/StillImage" />
        <dc:title></dc:title>
      </cc:Work>
    </rdf:RDF>
  </metadata>
  <defs
     id="defs6" />
  <sodipodi:namedview
     pagecolor="#ffffff"
     bordercolor="#666666"
     borderopacity="1"
     objecttolerance="10"
     gridtolerance="10"
     guidetolerance="10"
     inkscape:pageopacity="0"
     inkscape:pageshadow="2"
     inkscape:window-width="1403"
     inkscape:window-height="926"
     id="namedview4"
     showgrid="false"
     fit-margin-top="0"
     fit-margin-left="0"
     fit-margin-right="0"
     fit-margin-bottom="0"
     inkscape:zoom="2.0370752"
     inkscape:cx="20.900399"
     inkscape:cy="98.186993"
     inkscape:window-x="0"
     inkscape:window-y="0"
     inkscape:window-maximized="0"
     inkscape:current-layer="svg2" />
  <g
     id="PROP_CON"
     transform="translate(0,-147.84)">
    <path
       style="fill:#ffffff;stroke-width:0.03125"
       d="m 0,155.84 v -8 h 8 8 v 8 8 H 8 0 Z m 8.765625,5.95884 c 0.080098,-0.0168 0.2510318,-0.0468 0.390625,-0.0685 0.091215,-0.0142 0.3233063,-0.0677 0.53125,-0.12251 0.414895,-0.1093 1.187996,-0.46918 1.578125,-0.73462 0.1375,-0.0935 0.313281,-0.21259 0.390625,-0.26453 0.182282,-0.1224 0.990036,-0.93016 1.112442,-1.11244 0.05194,-0.0773 0.170977,-0.25313 0.264531,-0.39063 0.265439,-0.39012 0.62532,-1.16323 0.734621,-1.57812 0.06638,-0.25199 0.109566,-0.44517 0.125736,-0.5625 0.01066,-0.0773 0.02524,-0.15038 0.03241,-0.1623 0.07372,-0.12269 0.07372,-1.80271 0,-1.9254 -0.0072,-0.0119 -0.02175,-0.085 -0.03241,-0.1623 -0.01617,-0.11733 -0.05935,-0.31051 -0.125736,-0.5625 -0.109277,-0.4148 -0.469121,-1.18787 -0.734577,-1.57813 -0.09353,-0.13749 -0.203237,-0.29921 -0.243793,-0.35937 -0.132342,-0.1963 -0.640377,-0.72331 -0.929021,-0.96372 -2.2528259,-1.87637 -5.4788736,-1.87622 -7.719828,3.7e-4 -0.6603494,0.55298 -1.1638806,1.20478 -1.5460372,2.00126 -1.020606,2.12712 -0.7047272,4.62088 0.816695,6.44754 0.2404109,0.28865 0.7674193,0.79668 0.9637172,0.92902 0.060156,0.0406 0.221875,0.15027 0.359375,0.2438 0.3902537,0.26545 1.1633263,0.6253 1.578125,0.73457 0.2519878,0.0664 0.4451693,0.10957 0.5625,0.12574 0.077344,0.0107 0.15038,0.0252 0.1623028,0.0324 0.011923,0.007 0.131454,0.0216 0.265625,0.032 0.1341709,0.0104 0.2509785,0.0259 0.2595722,0.0343 0.017538,0.0172 1.1057013,-0.013 1.203125,-0.0334 z M 7.5625,157.79141 c -0.730181,-0.15683 -1.3617959,-0.79423 -1.5156453,-1.52954 -0.2971203,-1.42005 0.9549682,-2.67214 2.3750203,-2.37502 0.7429125,0.15545 1.3758291,0.78836 1.5312705,1.53127 0.2981895,1.42517 -0.9652465,2.67942 -2.3906455,2.37329 z"
       id="path827"
       inkscape:connector-curvature="0" />
    <path
       style="fill:#fefefe;stroke-width:0.03125"
       d="m 4.9079166,158.30703 c -0.6815176,-0.84727 -1.0084041,-2.04544 -0.8307828,-3.04516 0.086298,-0.48571 0.1691787,-0.73659 0.3923003,-1.1875 0.3994875,-0.80731 0.9820312,-1.38655 1.7900956,-1.77994 1.1710553,-0.57011 2.3098853,-0.57011 3.4809406,0 0.3033997,0.1477 0.4953647,0.26752 0.7265627,0.45349 0.17282,0.13901 0.314217,0.26253 0.314217,0.27448 0,0.012 -0.158299,0.17959 -0.351775,0.37252 l -0.351776,0.35078 -0.2326746,-0.19012 c -0.5764069,-0.47096 -1.4627312,-0.74728 -2.1076328,-0.65706 -0.4103403,0.0574 -0.7176676,0.14976 -1.0451479,0.3141 -0.9089224,0.45612 -1.4829575,1.28702 -1.6337278,2.36477 -0.090217,0.6449 0.1861007,1.53123 0.6570691,2.10763 l 0.1901137,0.23268 -0.3507771,0.35177 c -0.1929276,0.19348 -0.3605604,0.35178 -0.3725175,0.35178 -0.011957,0 -0.1354766,-0.1414 -0.2744875,-0.31422 z"
       id="path825"
       inkscape:connector-curvature="0" />
    <path
       style="fill:#98cbfe;stroke-width:0.03125"
       d="m 7.5148256,159.76893 c -0.025614,-0.0143 -0.057763,-0.0191 -0.071443,-0.0107 -0.01368,0.008 -0.087397,5.9e-4 -0.163815,-0.0175 -0.076418,-0.0181 -0.1670678,-0.0378 -0.2014428,-0.0438 -0.034375,-0.006 -0.146875,-0.0405 -0.25,-0.0767 -0.103125,-0.0362 -0.21386,-0.0714 -0.2460778,-0.0782 -0.032217,-0.007 -0.091983,-0.0343 -0.1328125,-0.061 -0.040829,-0.0268 -0.074235,-0.0408 -0.074235,-0.0312 0,0.01 -0.031641,-9e-5 -0.070312,-0.0216 -0.038672,-0.0215 -0.077344,-0.04 -0.085937,-0.0412 -0.00859,-0.001 -0.075111,-0.0404 -0.1478166,-0.087 -0.072705,-0.0467 -0.140994,-0.0849 -0.1517527,-0.0849 -0.010759,0 -0.072828,-0.0422 -0.1379307,-0.0937 -0.065103,-0.0516 -0.1304078,-0.0938 -0.1451219,-0.0939 -0.014714,-6e-5 -0.1111281,-0.0754 -0.2142531,-0.16741 -0.103125,-0.092 -0.1992188,-0.16811 -0.2135416,-0.16913 -0.063264,-0.005 -0.029617,-0.0461 0.3179466,-0.39274 0.3654875,-0.36453 0.3682919,-0.36653 0.4256591,-0.30314 0.031761,0.0351 0.069933,0.0638 0.084825,0.0638 0.014893,0 0.1165484,0.0703 0.2259018,0.15625 0.1093534,0.0859 0.2126241,0.15625 0.2294901,0.15625 0.016866,0 0.067718,0.0291 0.1130046,0.0648 0.045287,0.0356 0.082339,0.0564 0.082339,0.0461 0,-0.0102 0.033406,0.003 0.074235,0.03 0.040829,0.0267 0.1041106,0.0552 0.140625,0.0632 0.036515,0.008 0.091768,0.0203 0.1227862,0.0272 0.031018,0.007 0.111877,0.0362 0.1796875,0.065 0.1317304,0.056 0.1955494,0.0679 0.5139166,0.0965 0.2528794,0.0226 0.3096206,0.0226 0.5625,0 0.3183672,-0.0285 0.3821862,-0.0405 0.5139166,-0.0965 0.067811,-0.0288 0.1486699,-0.0581 0.1796875,-0.065 0.031018,-0.007 0.086272,-0.0192 0.1227862,-0.0272 0.036514,-0.008 0.099796,-0.0365 0.140625,-0.0632 0.040829,-0.0268 0.074235,-0.0403 0.074235,-0.03 0,0.0102 0.037053,-0.0105 0.082339,-0.0461 0.045287,-0.0356 0.096139,-0.0648 0.1130046,-0.0648 0.016866,0 0.1201367,-0.0703 0.2294901,-0.15625 0.1093534,-0.0859 0.2103348,-0.15625 0.2244032,-0.15625 0.031358,0 0.2570124,-0.2281 0.2570124,-0.2598 0,-0.0125 0.07031,-0.11226 0.15625,-0.22162 0.08594,-0.10935 0.15625,-0.21262 0.15625,-0.22949 0,-0.0169 0.02915,-0.0677 0.06477,-0.113 0.03562,-0.0453 0.05639,-0.0823 0.04615,-0.0823 -0.01024,0 0.0033,-0.0334 0.03003,-0.0742 0.02675,-0.0408 0.0552,-0.10412 0.06322,-0.14063 0.008,-0.0365 0.02027,-0.0918 0.02724,-0.12279 0.007,-0.031 0.03622,-0.11187 0.06503,-0.17968 0.05595,-0.13173 0.06793,-0.19555 0.09645,-0.51392 0.02265,-0.25288 0.02265,-0.30962 0,-0.5625 -0.02851,-0.31837 -0.04049,-0.38219 -0.09645,-0.51392 -0.0288,-0.0678 -0.05807,-0.14867 -0.06503,-0.17968 -0.007,-0.031 -0.01922,-0.0863 -0.02724,-0.12279 -0.008,-0.0365 -0.03647,-0.0998 -0.06322,-0.14063 -0.02675,-0.0408 -0.04026,-0.0742 -0.03003,-0.0742 0.01024,0 -0.01053,-0.037 -0.04615,-0.0823 -0.03562,-0.0453 -0.06477,-0.0961 -0.06477,-0.113 0,-0.0169 -0.07031,-0.12014 -0.15625,-0.22949 -0.08594,-0.10936 -0.15625,-0.21101 -0.15625,-0.22591 0,-0.0149 -0.02872,-0.0531 -0.06381,-0.0848 -0.06339,-0.0574 -0.0614,-0.0602 0.302544,-0.42506 0.201496,-0.20202 0.378802,-0.35962 0.394015,-0.35022 0.01521,0.009 0.0202,0.0246 0.01109,0.0337 -0.0091,0.009 0.0602,0.10263 0.15403,0.20781 0.09383,0.10518 0.170664,0.20327 0.170741,0.21799 6.3e-5,0.0147 0.04233,0.08 0.09389,0.14512 0.05156,0.0651 0.09375,0.12717 0.09375,0.13793 0,0.0108 0.0382,0.0791 0.0849,0.15175 0.0467,0.0727 0.08587,0.13923 0.08704,0.14782 0.0012,0.009 0.01972,0.0473 0.0412,0.0859 0.02148,0.0387 0.0312,0.0703 0.02161,0.0703 -0.0096,0 0.0044,0.0334 0.0312,0.0742 0.02675,0.0408 0.05422,0.1006 0.06104,0.13282 0.0068,0.0322 0.04201,0.14295 0.0782,0.24607 0.03618,0.10313 0.07012,0.21563 0.07542,0.25 0.0053,0.0344 0.01905,0.0918 0.03057,0.12755 0.03985,0.12378 0.05505,0.34315 0.05505,0.79433 0,0.45118 -0.0152,0.67055 -0.05505,0.79433 -0.01152,0.0358 -0.02528,0.0932 -0.03057,0.12754 -0.0053,0.0344 -0.03923,0.14688 -0.07542,0.25 -0.03619,0.10313 -0.07137,0.21386 -0.0782,0.24608 -0.0068,0.0322 -0.03429,0.092 -0.06104,0.13282 -0.02675,0.0408 -0.04079,0.0742 -0.0312,0.0742 0.0096,0 -9.8e-5,0.0316 -0.02161,0.0703 -0.02148,0.0387 -0.04002,0.0773 -0.0412,0.0859 -0.0012,0.009 -0.04035,0.0751 -0.08704,0.14782 -0.04669,0.0727 -0.0849,0.14099 -0.0849,0.15175 0,0.0108 -0.04219,0.0728 -0.09375,0.13793 -0.05156,0.0651 -0.09381,0.13041 -0.09389,0.14512 -6.2e-5,0.0147 -0.07854,0.11465 -0.174371,0.22207 -0.09583,0.10742 -0.164354,0.19531 -0.152283,0.19531 0.01207,0 0.0042,0.0214 -0.01758,0.0476 -0.02174,0.0262 -0.04639,0.0408 -0.05478,0.0324 -0.0084,-0.008 -0.101304,0.0615 -0.206484,0.15536 -0.105181,0.0938 -0.203277,0.17066 -0.217991,0.17074 -0.01471,6e-5 -0.08002,0.0423 -0.145122,0.0939 -0.0651,0.0516 -0.127172,0.0937 -0.137931,0.0937 -0.01076,0 -0.07905,0.0382 -0.1517523,0.0849 -0.072705,0.0467 -0.1392226,0.0859 -0.1478164,0.087 -0.00859,10e-4 -0.047266,0.0197 -0.085937,0.0412 -0.038672,0.0215 -0.070312,0.0312 -0.070312,0.0216 0,-0.01 -0.033406,0.004 -0.074235,0.0312 -0.040829,0.0267 -0.100595,0.0542 -0.1328125,0.061 -0.032218,0.007 -0.1429528,0.042 -0.2460778,0.0782 -0.103125,0.0362 -0.215625,0.0701 -0.25,0.0754 -0.034375,0.005 -0.09177,0.0191 -0.1275437,0.0306 -0.1755969,0.0565 -1.1940719,0.0906 -1.2795057,0.0428 z"
       id="path823"
       inkscape:connector-curvature="0" />
    <path
       style="fill:#3298fe;stroke-width:0.03125"
       d="m 7.7092672,160.82059 c -0.00338,-0.003 -0.097548,-0.0157 -0.2092672,-0.028 -0.3465115,-0.038 -0.3881016,-0.0434 -0.4757463,-0.0612 -0.046817,-0.01 -0.1225953,-0.0316 -0.1683965,-0.049 -0.045801,-0.0174 -0.090139,-0.0248 -0.098528,-0.0164 -0.00839,0.008 -0.055658,-0.006 -0.105041,-0.0312 -0.049383,-0.0255 -0.089788,-0.0395 -0.089788,-0.0311 0,0.008 -0.063281,-0.0118 -0.140625,-0.045 -0.077344,-0.0332 -0.140625,-0.0534 -0.140625,-0.045 0,0.008 -0.042187,-0.007 -0.09375,-0.0332 -0.051563,-0.0267 -0.09375,-0.0408 -0.09375,-0.0313 0,0.009 -0.037268,-0.007 -0.082818,-0.0371 -0.04555,-0.0299 -0.1012926,-0.057 -0.1238728,-0.0603 -0.02258,-0.003 -0.08375,-0.0364 -0.1359323,-0.0736 -0.052182,-0.0371 -0.094877,-0.0586 -0.094877,-0.0477 0,0.0109 -0.042187,-0.0101 -0.09375,-0.0469 -0.051563,-0.0367 -0.09375,-0.0576 -0.09375,-0.0464 0,0.0112 -0.054758,-0.023 -0.1216844,-0.076 -0.066926,-0.053 -0.1317297,-0.0964 -0.1440065,-0.0964 -0.029349,0 -0.3895432,-0.28723 -0.4650482,-0.37084 -0.032375,-0.0358 -0.070123,-0.0582 -0.083884,-0.0497 -0.030181,0.0186 -0.5383219,-0.57193 -0.7515678,-0.8735 -0.6181135,-0.87412 -0.9773921,-2.18312 -0.8753789,-3.18934 0.075933,-0.74898 0.2347505,-1.29997 0.5544317,-1.92351 0.4723087,-0.92123 1.2152509,-1.66417 2.1364821,-2.13648 0.6235335,-0.31968 1.1745219,-0.4785 1.9235026,-0.55443 0.5695068,-0.0577 1.3022977,0.038 1.9521534,0.25516 0.360709,0.12051 0.9441289,0.41299 1.2371939,0.62022 0.30157,0.21324 0.892146,0.72139 0.873494,0.75157 -0.0085,0.0138 0.01387,0.0515 0.04972,0.0839 0.08361,0.0755 0.370841,0.4357 0.370841,0.46505 0,0.0123 0.04337,0.0771 0.09638,0.14401 0.05301,0.0669 0.08721,0.12168 0.076,0.12168 -0.01121,0 0.0097,0.0422 0.04638,0.0937 0.03672,0.0516 0.05781,0.0937 0.04687,0.0937 -0.01093,0 0.01052,0.0427 0.04768,0.0949 0.03716,0.0522 0.07027,0.11335 0.07358,0.13593 0.0033,0.0226 0.03044,0.0783 0.06029,0.12387 0.02984,0.0455 0.04655,0.0828 0.03712,0.0828 -0.0094,0 0.0047,0.0422 0.03133,0.0937 0.02666,0.0516 0.04159,0.0937 0.03316,0.0937 -0.0084,0 0.01181,0.0633 0.04496,0.14062 0.03315,0.0774 0.05339,0.14063 0.04496,0.14063 -0.0084,0 0.0056,0.0404 0.03111,0.0898 0.02554,0.0494 0.03957,0.0967 0.03118,0.10504 -0.0084,0.008 -10e-4,0.0527 0.01641,0.0985 0.0356,0.0936 0.06113,0.2086 0.07711,0.34726 0.0059,0.0516 0.0217,0.18516 0.03501,0.29688 0.01331,0.11172 0.0242,0.33672 0.0242,0.5 0,0.16328 -0.01089,0.38828 -0.0242,0.5 -0.01331,0.11172 -0.02906,0.24531 -0.03501,0.29687 -0.01598,0.13867 -0.04151,0.25364 -0.07711,0.34727 -0.01741,0.0458 -0.0248,0.0901 -0.01641,0.0985 0.0084,0.008 -0.0056,0.0557 -0.03118,0.10504 -0.02554,0.0494 -0.03954,0.0898 -0.03111,0.0898 0.0084,0 -0.01181,0.0633 -0.04496,0.14062 -0.03315,0.0774 -0.05339,0.14063 -0.04496,0.14063 0.0084,0 -0.0065,0.0422 -0.03316,0.0937 -0.02666,0.0516 -0.04076,0.0937 -0.03133,0.0937 0.0094,0 -0.0073,0.0373 -0.03712,0.0828 -0.02985,0.0455 -0.05698,0.10129 -0.06029,0.12387 -0.0033,0.0226 -0.03643,0.0837 -0.07358,0.13593 -0.03716,0.0522 -0.05861,0.0949 -0.04768,0.0949 0.01093,0 -0.01016,0.0422 -0.04687,0.0937 -0.03672,0.0516 -0.05758,0.0937 -0.04638,0.0937 0.01121,0 -0.02299,0.0548 -0.076,0.12168 -0.05301,0.0669 -0.09638,0.13228 -0.09638,0.14522 0,0.0295 -0.193173,0.27315 -0.339638,0.42841 -0.0608,0.0645 -0.09759,0.11719 -0.08174,0.11719 0.01584,0 -0.05403,0.0837 -0.155281,0.18602 -0.101245,0.10232 -0.193848,0.17999 -0.205782,0.17262 -0.01194,-0.007 -0.04819,0.0159 -0.08057,0.0518 -0.0755,0.0836 -0.435699,0.37084 -0.465048,0.37084 -0.01228,0 -0.07708,0.0434 -0.144006,0.0964 -0.06693,0.053 -0.121685,0.0872 -0.121685,0.076 0,-0.0112 -0.04219,0.01 -0.09375,0.0464 -0.05156,0.0367 -0.09375,0.0578 -0.09375,0.0469 0,-0.0109 -0.04269,0.0105 -0.09488,0.0477 -0.05218,0.0372 -0.113352,0.0703 -0.135933,0.0736 -0.02258,0.003 -0.07832,0.0304 -0.1238725,0.0603 -0.04555,0.0298 -0.082817,0.0465 -0.082817,0.0371 0,-0.009 -0.042188,0.005 -0.09375,0.0313 -0.051562,0.0267 -0.09375,0.0416 -0.09375,0.0332 0,-0.008 -0.063281,0.0118 -0.140625,0.045 -0.077344,0.0332 -0.140625,0.0534 -0.140625,0.045 0,-0.008 -0.040405,0.006 -0.089788,0.0311 -0.049383,0.0255 -0.096652,0.0396 -0.105041,0.0312 -0.00839,-0.008 -0.052727,-10e-4 -0.098528,0.0164 -0.1000563,0.038 -0.2106868,0.0614 -0.3785178,0.0799 -0.06875,0.008 -0.1953125,0.023 -0.28125,0.0342 -0.1415403,0.0185 -0.7603234,0.0377 -0.7751078,0.0241 z m 0.881939,-1.05674 c 0.075945,-0.009 0.167351,-0.0262 0.203125,-0.0377 0.035774,-0.0115 0.093169,-0.0253 0.1275438,-0.0306 0.034375,-0.005 0.146875,-0.0392 0.25,-0.0754 0.103125,-0.0362 0.21386,-0.0714 0.2460778,-0.0782 0.032217,-0.007 0.091983,-0.0343 0.1328125,-0.061 0.040829,-0.0268 0.074235,-0.0408 0.074235,-0.0312 0,0.01 0.031641,-9e-5 0.070312,-0.0216 0.038672,-0.0215 0.077344,-0.04 0.085937,-0.0412 0.00859,-0.001 0.075111,-0.0404 0.1478164,-0.087 0.072705,-0.0467 0.1409943,-0.0849 0.1517523,-0.0849 0.01076,0 0.07283,-0.0422 0.137931,-0.0937 0.0651,-0.0516 0.130408,-0.0938 0.145122,-0.0939 0.01471,-6e-5 0.11281,-0.0769 0.217991,-0.17074 0.10518,-0.0938 0.198098,-0.16374 0.206484,-0.15536 0.0084,0.008 0.03303,-0.006 0.05478,-0.0324 0.02174,-0.0262 0.02965,-0.0476 0.01758,-0.0476 -0.01207,0 0.05646,-0.0879 0.152283,-0.19531 0.09583,-0.10742 0.174294,-0.20735 0.174371,-0.22207 6.3e-5,-0.0147 0.04233,-0.08 0.09389,-0.14512 0.05156,-0.0651 0.09375,-0.12717 0.09375,-0.13793 0,-0.0108 0.0382,-0.079 0.0849,-0.15175 0.0467,-0.0727 0.08587,-0.13923 0.08704,-0.14782 0.0012,-0.009 0.01972,-0.0473 0.0412,-0.0859 0.02148,-0.0387 0.0312,-0.0703 0.02161,-0.0703 -0.0096,0 0.0044,-0.0334 0.0312,-0.0742 0.02675,-0.0408 0.05422,-0.1006 0.06104,-0.13282 0.0068,-0.0322 0.04201,-0.14295 0.0782,-0.24608 0.03618,-0.10312 0.07012,-0.21562 0.07542,-0.25 0.0053,-0.0344 0.01905,-0.0918 0.03057,-0.12754 0.03985,-0.12378 0.05505,-0.34315 0.05505,-0.79433 0,-0.45118 -0.0152,-0.67055 -0.05505,-0.79433 -0.01152,-0.0358 -0.02528,-0.0932 -0.03057,-0.12755 -0.0053,-0.0344 -0.03923,-0.14687 -0.07542,-0.25 -0.03619,-0.10312 -0.07137,-0.21385 -0.0782,-0.24607 -0.0068,-0.0322 -0.03429,-0.092 -0.06104,-0.13282 -0.02675,-0.0408 -0.04079,-0.0742 -0.0312,-0.0742 0.0096,0 -9.8e-5,-0.0316 -0.02161,-0.0703 -0.02148,-0.0387 -0.04002,-0.0773 -0.0412,-0.0859 -0.0012,-0.009 -0.04035,-0.0751 -0.08704,-0.14782 -0.04669,-0.0727 -0.0849,-0.14099 -0.0849,-0.15175 0,-0.0108 -0.04219,-0.0728 -0.09375,-0.13793 -0.05156,-0.0651 -0.09381,-0.13041 -0.09389,-0.14512 -6.2e-5,-0.0147 -0.07541,-0.11113 -0.167412,-0.21426 -0.092,-0.10312 -0.169279,-0.19804 -0.171734,-0.21093 -0.0025,-0.0129 -0.01501,-0.0261 -0.0279,-0.0293 -0.01289,-0.003 -0.167457,-0.12254 -0.343478,-0.26519 -0.240938,-0.19526 -0.42245,-0.30922 -0.734375,-0.46108 -1.1731419,-0.57115 -2.3110787,-0.57147 -3.48293,-9.8e-4 -0.8080644,0.39339 -1.3906081,0.97263 -1.7900956,1.77995 -0.5864097,1.18506 -0.5909601,2.32306 -0.014027,3.50808 0.1518625,0.31193 0.2658269,0.49344 0.4610824,0.73438 0.1426485,0.17602 0.2619823,0.33058 0.2651857,0.34347 0.0032,0.0129 0.016372,0.0254 0.029262,0.0279 0.012891,0.002 0.1078125,0.0797 0.2109375,0.17174 0.103125,0.092 0.1995388,0.16733 0.2142531,0.16741 0.014714,6e-5 0.080019,0.0423 0.1451219,0.0939 0.065103,0.0516 0.1271716,0.0937 0.1379307,0.0937 0.010759,0 0.079047,0.0382 0.1517527,0.0849 0.072705,0.0467 0.1392228,0.0859 0.1478166,0.0871 0.00859,0.001 0.047266,0.0197 0.085937,0.0412 0.038672,0.0215 0.070312,0.0312 0.070312,0.0216 0,-0.01 0.033406,0.004 0.074235,0.0312 0.040829,0.0267 0.100595,0.0542 0.1328125,0.061 0.032218,0.007 0.1429528,0.042 0.2460778,0.0782 0.103125,0.0362 0.215625,0.0707 0.25,0.0767 0.034375,0.006 0.1250244,0.0257 0.2014428,0.0438 0.076418,0.0181 0.1501353,0.026 0.163815,0.0175 0.01368,-0.008 0.045829,-0.004 0.071443,0.0107 0.048908,0.0274 0.8393328,0.0236 1.0763806,-0.005 z"
       id="path821"
       inkscape:connector-curvature="0" />
    <path
       style="fill:#233458;stroke-width:0.03125"
       d="m 7.5625,161.83228 c -0.00859,-0.008 -0.1254013,-0.0239 -0.2595722,-0.0343 -0.134171,-0.0104 -0.2537022,-0.0248 -0.265625,-0.032 -0.011923,-0.007 -0.084959,-0.0217 -0.1623028,-0.0324 -0.1173307,-0.0162 -0.3105122,-0.0593 -0.5625,-0.12574 -0.4147987,-0.10927 -1.1878713,-0.46912 -1.578125,-0.73457 -0.1375,-0.0935 -0.2992187,-0.20324 -0.359375,-0.2438 -0.1962979,-0.13234 -0.7233062,-0.64037 -0.9637172,-0.92902 -1.5214222,-1.82666 -1.837301,-4.32042 -0.816695,-6.44754 0.6016763,-1.254 1.5635429,-2.21624 2.8162112,-2.8173 2.1292982,-1.02169 4.622183,-0.70642 6.449654,0.81567 0.288644,0.24041 0.796679,0.76742 0.929021,0.96372 0.04056,0.0602 0.150263,0.22187 0.243793,0.35937 0.265456,0.39026 0.6253,1.16333 0.734577,1.57813 0.06638,0.25199 0.109566,0.44517 0.125736,0.5625 0.01066,0.0773 0.02524,0.15038 0.03241,0.1623 0.07372,0.12269 0.07372,1.80271 0,1.9254 -0.0072,0.0119 -0.02175,0.085 -0.03241,0.1623 -0.01617,0.11733 -0.05935,0.31051 -0.125736,0.5625 -0.109301,0.41489 -0.469182,1.188 -0.734621,1.57812 -0.09355,0.1375 -0.212592,0.31329 -0.264531,0.39063 -0.122406,0.18228 -0.93016,0.99004 -1.112442,1.11244 -0.07734,0.0519 -0.253125,0.17098 -0.390625,0.26453 -0.390129,0.26544 -1.16323,0.62532 -1.578125,0.73462 -0.2079437,0.0548 -0.4400354,0.1083 -0.53125,0.12251 -0.1395932,0.0217 -0.3105266,0.0517 -0.390625,0.0685 -0.097424,0.0204 -1.1855875,0.0507 -1.203125,0.0334 z m 0.921875,-1.0358 c 0.085937,-0.0112 0.2125,-0.0266 0.28125,-0.0342 0.167831,-0.0185 0.2784615,-0.0419 0.3785178,-0.0799 0.045801,-0.0174 0.090139,-0.0248 0.098528,-0.0164 0.00839,0.008 0.055658,-0.006 0.105041,-0.0312 0.049383,-0.0255 0.089788,-0.0395 0.089788,-0.0311 0,0.008 0.063281,-0.0118 0.140625,-0.045 0.077344,-0.0332 0.140625,-0.0534 0.140625,-0.045 0,0.008 0.042188,-0.007 0.09375,-0.0332 0.051562,-0.0267 0.09375,-0.0408 0.09375,-0.0313 0,0.009 0.037268,-0.007 0.082817,-0.0371 0.04555,-0.0299 0.1012922,-0.057 0.1238722,-0.0603 0.02258,-0.003 0.08375,-0.0364 0.135933,-0.0736 0.05218,-0.0371 0.09488,-0.0586 0.09488,-0.0477 0,0.0109 0.04219,-0.0101 0.09375,-0.0469 0.05156,-0.0367 0.09375,-0.0576 0.09375,-0.0464 0,0.0112 0.05476,-0.023 0.121685,-0.076 0.06693,-0.053 0.131729,-0.0964 0.144006,-0.0964 0.02935,0 0.389543,-0.28723 0.465048,-0.37084 0.03238,-0.0358 0.06863,-0.0591 0.08057,-0.0518 0.01193,0.007 0.104537,-0.0703 0.205782,-0.17262 0.101246,-0.10231 0.171122,-0.18602 0.155281,-0.18602 -0.01584,0 0.02095,-0.0527 0.08174,-0.11719 0.146465,-0.15526 0.339638,-0.39892 0.339638,-0.42841 0,-0.0129 0.04337,-0.0783 0.09638,-0.14522 0.05301,-0.0669 0.08721,-0.12168 0.076,-0.12168 -0.01121,0 0.0097,-0.0422 0.04638,-0.0937 0.03672,-0.0516 0.05781,-0.0937 0.04687,-0.0937 -0.01093,0 0.01052,-0.0427 0.04768,-0.0949 0.03716,-0.0522 0.07027,-0.11335 0.07358,-0.13593 0.0033,-0.0226 0.03044,-0.0783 0.06029,-0.12387 0.02984,-0.0455 0.04655,-0.0828 0.03712,-0.0828 -0.0094,0 0.0047,-0.0422 0.03133,-0.0937 0.02666,-0.0516 0.04159,-0.0937 0.03316,-0.0937 -0.0084,0 0.01181,-0.0633 0.04496,-0.14063 0.03315,-0.0773 0.05339,-0.14062 0.04496,-0.14062 -0.0084,0 0.0056,-0.0404 0.03111,-0.0898 0.02554,-0.0494 0.03957,-0.0967 0.03118,-0.10504 -0.0084,-0.008 -0.001,-0.0527 0.01641,-0.0985 0.0356,-0.0936 0.06113,-0.2086 0.07711,-0.34727 0.0059,-0.0516 0.0217,-0.18515 0.03501,-0.29687 0.01331,-0.11172 0.0242,-0.33672 0.0242,-0.5 0,-0.16328 -0.01089,-0.38828 -0.0242,-0.5 -0.01331,-0.11172 -0.02906,-0.24531 -0.03501,-0.29688 -0.01598,-0.13866 -0.04151,-0.25363 -0.07711,-0.34726 -0.01741,-0.0458 -0.0248,-0.0901 -0.01641,-0.0985 0.0084,-0.008 -0.0056,-0.0557 -0.03118,-0.10504 -0.02554,-0.0494 -0.03954,-0.0898 -0.03111,-0.0898 0.0084,0 -0.01181,-0.0633 -0.04496,-0.14063 -0.03315,-0.0773 -0.05339,-0.14062 -0.04496,-0.14062 0.0084,0 -0.0065,-0.0422 -0.03316,-0.0937 -0.02666,-0.0516 -0.04076,-0.0937 -0.03133,-0.0937 0.0094,0 -0.0073,-0.0373 -0.03712,-0.0828 -0.02985,-0.0455 -0.05698,-0.10129 -0.06029,-0.12387 -0.0033,-0.0226 -0.03643,-0.0837 -0.07358,-0.13593 -0.03716,-0.0522 -0.05861,-0.0949 -0.04768,-0.0949 0.01093,0 -0.01016,-0.0422 -0.04687,-0.0937 -0.03672,-0.0516 -0.05758,-0.0937 -0.04638,-0.0937 0.01121,0 -0.02299,-0.0548 -0.076,-0.12168 -0.05301,-0.0669 -0.09638,-0.13173 -0.09638,-0.14401 0,-0.0293 -0.287229,-0.38954 -0.370841,-0.46505 -0.03585,-0.0324 -0.05823,-0.0701 -0.04972,-0.0839 0.01865,-0.0302 -0.571923,-0.53833 -0.873493,-0.75157 -0.8741282,-0.61811 -2.1831205,-0.97739 -3.189347,-0.87538 -0.7489807,0.0759 -1.2999691,0.23475 -1.9235026,0.55443 -0.9212312,0.47231 -1.6641734,1.21525 -2.1364821,2.13648 -0.3196812,0.62354 -0.4784986,1.17453 -0.5544317,1.92351 -0.057738,0.5695 0.038043,1.30229 0.2551589,1.95215 0.1205125,0.36071 0.4129878,0.94413 0.62022,1.23719 0.2132459,0.30157 0.7213872,0.89215 0.7515678,0.8735 0.013761,-0.009 0.051509,0.0139 0.083884,0.0497 0.075505,0.0836 0.4356991,0.37084 0.4650482,0.37084 0.012277,0 0.07708,0.0434 0.1440065,0.0964 0.066926,0.053 0.1216844,0.0872 0.1216844,0.076 0,-0.0112 0.042187,0.01 0.09375,0.0464 0.051563,0.0367 0.09375,0.0578 0.09375,0.0469 0,-0.0109 0.042695,0.0105 0.094877,0.0477 0.052183,0.0372 0.113352,0.0703 0.1359323,0.0736 0.02258,0.003 0.078323,0.0304 0.1238728,0.0603 0.04555,0.0298 0.082818,0.0465 0.082818,0.0371 0,-0.009 0.042187,0.005 0.09375,0.0313 0.051563,0.0267 0.09375,0.0416 0.09375,0.0332 0,-0.008 0.063281,0.0118 0.140625,0.045 0.077344,0.0332 0.140625,0.0534 0.140625,0.045 0,-0.008 0.040405,0.006 0.089788,0.0311 0.049383,0.0255 0.096652,0.0396 0.105041,0.0312 0.00839,-0.008 0.052727,-0.001 0.098528,0.0164 0.045801,0.0174 0.1215797,0.0395 0.1683965,0.049 0.087645,0.0178 0.1292348,0.0232 0.4757463,0.0612 0.1117187,0.0123 0.2058891,0.0248 0.2092672,0.028 0.014784,0.0136 0.6335675,-0.006 0.7751078,-0.0241 z m -0.5576193,-2.00889 c -0.00681,-0.007 -0.1021036,-0.019 -0.2117585,-0.027 -0.3006022,-0.0221 -0.3755622,-0.0357 -0.5101638,-0.0929 -0.067811,-0.0288 -0.1486699,-0.0581 -0.1796875,-0.065 -0.031018,-0.007 -0.086271,-0.0192 -0.1227862,-0.0272 -0.036514,-0.008 -0.099796,-0.0365 -0.140625,-0.0632 -0.040829,-0.0268 -0.074235,-0.0403 -0.074235,-0.03 0,0.0102 -0.037053,-0.0105 -0.082339,-0.0461 -0.045287,-0.0356 -0.096139,-0.0648 -0.1130046,-0.0648 -0.016866,0 -0.1201367,-0.0703 -0.2294901,-0.15625 -0.1093534,-0.0859 -0.2124731,-0.15625 -0.2291547,-0.15625 -0.016682,0 -0.069617,-0.0527 -0.1176337,-0.11719 -0.048017,-0.0645 -0.1548012,-0.1995 -0.2372984,-0.3001 -0.4314497,-0.52613 -0.706927,-1.44314 -0.6200632,-2.06407 0.1507703,-1.07775 0.7248054,-1.90865 1.6337279,-2.36477 0.3274802,-0.16434 0.6348075,-0.2567 1.0451478,-0.3141 0.620929,-0.0869 1.5379397,0.18861 2.0640713,0.62006 0.1006016,0.0825 0.235646,0.18928 0.3001,0.2373 0.06445,0.048 0.117187,0.10095 0.117187,0.11763 0,0.0167 0.07031,0.1198 0.15625,0.22916 0.08594,0.10935 0.15625,0.21262 0.15625,0.22949 0,0.0169 0.02915,0.0677 0.06477,0.113 0.03562,0.0453 0.05639,0.0823 0.04615,0.0823 -0.01024,0 0.0033,0.0334 0.03003,0.0742 0.02675,0.0408 0.0552,0.10412 0.06322,0.14063 0.008,0.0365 0.02027,0.0918 0.02724,0.12279 0.007,0.031 0.03622,0.11187 0.06503,0.17968 0.05595,0.13173 0.06793,0.19555 0.09645,0.51392 0.02265,0.25288 0.02265,0.30962 0,0.5625 -0.02851,0.31837 -0.04049,0.38219 -0.09645,0.51392 -0.0288,0.0678 -0.05807,0.14867 -0.06503,0.17968 -0.007,0.031 -0.01922,0.0863 -0.02724,0.12279 -0.008,0.0365 -0.03647,0.0998 -0.06322,0.14063 -0.02675,0.0408 -0.04026,0.0742 -0.03003,0.0742 0.01024,0 -0.01053,0.037 -0.04615,0.0823 -0.03562,0.0453 -0.06477,0.0961 -0.06477,0.113 0,0.0169 -0.07031,0.12014 -0.15625,0.22949 -0.08594,0.10936 -0.15625,0.21034 -0.15625,0.22441 0,0.0314 -0.2281015,0.25701 -0.2598007,0.25701 -0.012535,0 -0.1122617,0.0703 -0.2216151,0.15625 -0.1093534,0.0859 -0.2126241,0.15625 -0.2294901,0.15625 -0.016866,0 -0.067718,0.0291 -0.1130046,0.0648 -0.045287,0.0356 -0.082339,0.0564 -0.082339,0.0461 0,-0.0102 -0.033406,0.003 -0.074235,0.03 -0.040829,0.0267 -0.1041106,0.0552 -0.140625,0.0632 -0.036515,0.008 -0.091768,0.0203 -0.1227862,0.0272 -0.031018,0.007 -0.111877,0.0362 -0.1796875,0.065 -0.1314231,0.0558 -0.2019541,0.0691 -0.4982916,0.094 -0.103125,0.009 -0.2258025,0.0208 -0.2726166,0.027 -0.046814,0.006 -0.09069,0.006 -0.097503,-10e-4 z m 0.4951193,-0.99444 c 0.7429125,-0.15545 1.3758291,-0.78836 1.5312705,-1.53128 0.2971205,-1.42005 -0.9549684,-2.67214 -2.3750205,-2.37502 -0.567426,0.11873 -1.1000541,0.53064 -1.3550771,1.04796 -0.2954,0.59922 -0.2954,1.21116 0,1.81038 0.3931412,0.7975 1.3092083,1.23409 2.1988271,1.04796 z"
       id="path819"
       inkscape:connector-curvature="0" />
  </g>
</svg>
