<?xml version="1.0" encoding="UTF-8" standalone="no"?>
<!-- Created with Inkscape (http://www.inkscape.org/) -->

<svg
   xmlns:dc="http://purl.org/dc/elements/1.1/"
   xmlns:cc="http://creativecommons.org/ns#"
   xmlns:rdf="http://www.w3.org/1999/02/22-rdf-syntax-ns#"
   xmlns:svg="http://www.w3.org/2000/svg"
   xmlns="http://www.w3.org/2000/svg"
   xmlns:sodipodi="http://sodipodi.sourceforge.net/DTD/sodipodi-0.dtd"
   xmlns:inkscape="http://www.inkscape.org/namespaces/inkscape"
   version="1.1"
   id="svg2"
   width="16"
   height="16"
   viewBox="0 0 16 16"
   sodipodi:docname="PROP_ON.svg"
   inkscape:version="0.92.4 (5da689c313, 2019-01-14)">
  <metadata
     id="metadata8">
    <rdf:RDF>
      <cc:Work
         rdf:about="">
        <dc:format>image/svg+xml</dc:format>
        <dc:type
           rdf:resource="http://purl.org/dc/dcmitype/StillImage" />
        <dc:title></dc:title>
      </cc:Work>
    </rdf:RDF>
  </metadata>
  <defs
     id="defs6" />
  <sodipodi:namedview
     pagecolor="#ffffff"
     bordercolor="#666666"
     borderopacity="1"
     objecttolerance="10"
     gridtolerance="10"
     guidetolerance="10"
     inkscape:pageopacity="0"
     inkscape:pageshadow="2"
     inkscape:window-width="1257"
     inkscape:window-height="962"
     id="namedview4"
     showgrid="false"
     fit-margin-top="0"
     fit-margin-left="0"
     fit-margin-right="0"
     fit-margin-bottom="0"
     inkscape:zoom="1.4404297"
     inkscape:cx="29.852203"
     inkscape:cy="9.7193255"
     inkscape:window-x="0"
     inkscape:window-y="0"
     inkscape:window-maximized="0"
     inkscape:current-layer="svg2" />
  <g
     id="PROP_ON">
    <path
       style="fill:#ffffff;stroke-width:0.03125"
       d="M 0,8 V 0 h 8 8 v 8 8 H 8 0 Z m 8.765625,5.958844 c 0.080098,-0.01679 0.2510318,-0.04676 0.390625,-0.0685 0.091215,-0.0142 0.3233063,-0.06772 0.53125,-0.122502 0.414895,-0.109301 1.187996,-0.469182 1.578125,-0.734621 0.1375,-0.09355 0.313281,-0.212592 0.390625,-0.264531 0.182282,-0.122406 0.990036,-0.93016 1.112442,-1.112442 0.05194,-0.07734 0.170977,-0.253125 0.264531,-0.390625 0.265439,-0.390129 0.62532,-1.16323 0.734621,-1.578125 0.06638,-0.2519878 0.109566,-0.4451693 0.125736,-0.5625 0.01066,-0.077344 0.02524,-0.15038 0.03241,-0.1623028 0.07372,-0.1226841 0.07372,-1.8027103 0,-1.9253944 C 13.918818,7.02538 13.904238,6.9523437 13.89358,6.875 13.87741,6.7576693 13.834228,6.5644878 13.767844,6.3125 13.658567,5.8977013 13.298723,5.1246287 13.033267,4.734375 12.939737,4.596875 12.83003,4.4351562 12.789474,4.375 12.657132,4.1787021 12.149097,3.6516937 11.860453,3.4112828 9.6076271,1.5349083 6.3815794,1.535063 4.140625,3.4116531 3.4802756,3.9646341 2.9767444,4.6164253 2.5945878,5.4129075 1.5739818,7.5400307 1.8898606,10.033793 3.4112828,11.860453 3.6516937,12.149097 4.1787021,12.657132 4.375,12.789474 c 0.060156,0.04056 0.221875,0.150263 0.359375,0.243793 0.3902537,0.265456 1.1633263,0.6253 1.578125,0.734577 0.2519878,0.06638 0.4451693,0.109566 0.5625,0.125736 0.077344,0.01066 0.15038,0.02524 0.1623028,0.03241 0.011923,0.0072 0.131454,0.02156 0.265625,0.03199 0.1341709,0.01043 0.2509785,0.02587 0.2595722,0.03431 0.017538,0.01722 1.1057013,-0.01302 1.203125,-0.03344 z"
       id="path827"
       inkscape:connector-curvature="0" />
    <path
       style="fill:#fefefe;stroke-width:0.03125"
       d="M 4.9079166,10.467033 C 4.226399,9.6197644 3.8995125,8.4215922 4.0771338,7.421875 4.1634315,6.9361594 4.2463125,6.6852771 4.4694341,6.234375 4.8689216,5.4270584 5.4514653,4.8478172 6.2595297,4.4544278 c 1.1710553,-0.5701044 2.3098853,-0.5701044 3.4809406,0 0.3033997,0.147704 0.4953647,0.2675201 0.7265627,0.4534888 0.17282,0.1390109 0.314217,0.2625303 0.314217,0.2744875 0,0.011957 -0.158299,0.1795899 -0.351775,0.3725175 L 10.077699,5.9056987 9.8450244,5.715585 C 9.2686175,5.2446166 8.3822932,4.9682987 7.7373916,5.0585159 7.3270513,5.1159197 7.019724,5.2082822 6.6922437,5.3726193 5.7833213,5.8287381 5.2092862,6.6596365 5.0585159,7.7373916 4.9682987,8.3822932 5.2446166,9.2686175 5.715585,9.8450244 L 5.9056987,10.077699 5.5549216,10.429475 C 5.361994,10.622951 5.1943612,10.78125 5.1824041,10.78125 c -0.011957,0 -0.1354766,-0.141397 -0.2744875,-0.314217 z M 6.5176003,9.2137453 C 6.2666631,8.9230619 6.0625,8.3785622 6.0625,8 6.0625,7.4734656 6.3638456,6.8611963 6.7956854,6.5103253 7.1160656,6.2500153 7.6203412,6.0625 8,6.0625 c 0.3827797,0 0.9349229,0.2082869 1.2126325,0.4574459 L 9.34714,6.640625 8.9873631,6.998201 C 8.6471975,7.3362854 8.6244881,7.3529734 8.5707578,7.3043481 8.4582878,7.2025644 8.1542487,7.0865385 8,7.0865385 c -0.1888703,0 -0.4734528,0.1256756 -0.6302822,0.2783412 -0.1514097,0.1473896 -0.2831793,0.4435106 -0.2831793,0.6363781 0,0.1530706 0.1165031,0.4575575 0.2179712,0.5696784 0.048844,0.053972 0.032389,0.076207 -0.3091212,0.4177179 L 6.6346769,9.3493656 Z"
       id="path825"
       inkscape:connector-curvature="0" />
    <path
       style="fill:#98cbfe;stroke-width:0.03125"
       d="m 7.5148256,11.92893 c -0.025614,-0.01433 -0.057763,-0.01914 -0.071443,-0.01069 -0.01368,0.0085 -0.087397,5.86e-4 -0.163815,-0.0175 -0.076418,-0.01808 -0.1670678,-0.0378 -0.2014428,-0.04382 -0.034375,-0.006 -0.146875,-0.04055 -0.25,-0.07674 -0.103125,-0.03619 -0.21386,-0.07137 -0.2460778,-0.0782 -0.032217,-0.0068 -0.091983,-0.03429 -0.1328125,-0.06104 -0.040829,-0.02675 -0.074235,-0.04079 -0.074235,-0.0312 0,0.0096 -0.031641,-9.8e-5 -0.070312,-0.02161 -0.038672,-0.02148 -0.077344,-0.04002 -0.085937,-0.0412 -0.00859,-0.0012 -0.075111,-0.04035 -0.1478166,-0.08704 -0.072705,-0.04669 -0.140994,-0.0849 -0.1517527,-0.0849 -0.010759,0 -0.072828,-0.04219 -0.1379307,-0.09375 C 5.7161475,11.22968 5.6508427,11.18743 5.6361286,11.18735 5.6214138,11.187297 5.525,11.111947 5.421875,11.019947 5.31875,10.927948 5.2226562,10.85184 5.2083334,10.850817 5.1450693,10.846306 5.1787166,10.80474 5.52628,10.458082 5.8917675,10.093547 5.8945719,10.09155 5.9519391,10.154939 c 0.031761,0.0351 0.069933,0.06381 0.084825,0.06381 0.014893,0 0.1165484,0.07031 0.2259018,0.15625 0.1093534,0.08594 0.2126241,0.15625 0.2294901,0.15625 0.016866,0 0.067718,0.02915 0.1130046,0.06477 0.045287,0.03562 0.082339,0.05639 0.082339,0.04615 0,-0.01024 0.033406,0.0033 0.074235,0.03003 0.040829,0.02675 0.1041106,0.0552 0.140625,0.06322 0.036515,0.008 0.091768,0.02027 0.1227862,0.02724 0.031018,0.007 0.111877,0.03622 0.1796875,0.06503 0.1317304,0.05595 0.1955494,0.06793 0.5139166,0.09645 0.2528794,0.02265 0.3096206,0.02265 0.5625,0 0.3183672,-0.02851 0.3821862,-0.04049 0.5139166,-0.09645 0.067811,-0.0288 0.1486699,-0.05807 0.1796875,-0.06503 0.031018,-0.007 0.086272,-0.01922 0.1227862,-0.02724 0.036514,-0.008 0.099796,-0.03647 0.140625,-0.06322 0.040829,-0.02675 0.074235,-0.04026 0.074235,-0.03003 0,0.01024 0.037053,-0.01053 0.082339,-0.04615 0.045287,-0.03562 0.096139,-0.06477 0.1130046,-0.06477 0.016866,0 0.1201367,-0.07031 0.2294901,-0.15625 0.1093534,-0.08594 0.2103348,-0.15625 0.2244032,-0.15625 0.031358,0 0.2570129,-0.2281016 0.2570129,-0.2598008 0,-0.012535 0.07031,-0.1122617 0.15625,-0.2216151 0.08594,-0.1093534 0.15625,-0.2126241 0.15625,-0.2294901 0,-0.016866 0.02915,-0.067718 0.06477,-0.1130046 0.03562,-0.045287 0.05639,-0.082339 0.04615,-0.082339 -0.01024,0 0.0033,-0.033406 0.03003,-0.074235 0.02675,-0.040829 0.0552,-0.1041106 0.06322,-0.140625 0.008,-0.036515 0.02027,-0.091768 0.02724,-0.1227862 0.007,-0.031018 0.03622,-0.111877 0.06503,-0.1796875 0.05595,-0.1317304 0.06793,-0.1955494 0.09645,-0.5139166 0.02265,-0.2528794 0.02265,-0.3096206 0,-0.5625 C 10.89563,7.4003819 10.88365,7.3365629 10.82769,7.2048325 10.79889,7.1370215 10.76962,7.0561626 10.76266,7.025145 10.75566,6.994127 10.74344,6.938874 10.73542,6.9023588 c -0.008,-0.036514 -0.03647,-0.099796 -0.06322,-0.140625 -0.02675,-0.040829 -0.04026,-0.074235 -0.03003,-0.074235 0.01024,0 -0.01053,-0.037053 -0.04615,-0.082339 -0.03562,-0.045287 -0.06477,-0.096139 -0.06477,-0.1130046 0,-0.016866 -0.07031,-0.1201367 -0.15625,-0.2294901 -0.08594,-0.1093534 -0.15625,-0.2110091 -0.15625,-0.2259018 0,-0.014893 -0.02872,-0.053064 -0.06381,-0.084825 -0.06339,-0.057367 -0.0614,-0.060166 0.302544,-0.4250591 0.201496,-0.2020212 0.378802,-0.3596188 0.394015,-0.3502165 0.01521,0.0094 0.0202,0.024552 0.01109,0.033666 -0.0091,0.00911 0.0602,0.1026274 0.15403,0.2078081 0.09383,0.105181 0.170664,0.2032766 0.170741,0.2179909 6.3e-5,0.014714 0.04233,0.080019 0.09389,0.1451219 0.05156,0.065103 0.09375,0.1271716 0.09375,0.1379307 0,0.010759 0.0382,0.079047 0.0849,0.1517527 0.0467,0.072705 0.08587,0.1392229 0.08704,0.1478166 0.0012,0.00859 0.01972,0.047266 0.0412,0.085937 0.02148,0.038672 0.0312,0.070312 0.02161,0.070312 -0.0096,0 0.0044,0.033406 0.0312,0.074235 0.02675,0.040829 0.05422,0.100595 0.06104,0.1328125 0.0068,0.032218 0.04201,0.1429528 0.0782,0.2460778 0.03618,0.103125 0.07012,0.215625 0.07542,0.25 0.0053,0.034375 0.01905,0.09177 0.03057,0.1275438 0.03985,0.1237828 0.05505,0.3431478 0.05505,0.7943312 0,0.4511834 -0.0152,0.6705484 -0.05505,0.7943313 -0.01152,0.035774 -0.02528,0.093169 -0.03057,0.1275437 -0.0053,0.034375 -0.03923,0.146875 -0.07542,0.25 -0.03619,0.103125 -0.07137,0.21386 -0.0782,0.2460778 -0.0068,0.032217 -0.03429,0.091983 -0.06104,0.1328125 -0.02675,0.040829 -0.04079,0.074235 -0.0312,0.074235 0.0096,0 -9.8e-5,0.031641 -0.02161,0.070312 -0.02148,0.038672 -0.04002,0.077344 -0.0412,0.085937 -0.0012,0.00859 -0.04035,0.075111 -0.08704,0.1478164 -0.04669,0.072705 -0.0849,0.1409944 -0.0849,0.1517524 0,0.01076 -0.04219,0.07283 -0.09375,0.137931 -0.05156,0.0651 -0.09381,0.130408 -0.09389,0.145122 -6.2e-5,0.01471 -0.07854,0.114644 -0.174371,0.222066 -0.09583,0.107421 -0.164354,0.195312 -0.152283,0.195312 0.01207,0 0.0042,0.02143 -0.01758,0.04763 -0.02174,0.0262 -0.04639,0.04077 -0.05478,0.03238 -0.0084,-0.0084 -0.101304,0.06152 -0.206484,0.155354 -0.105181,0.09383 -0.203277,0.170664 -0.217991,0.170741 -0.01471,6.3e-5 -0.08002,0.04233 -0.145122,0.09389 -0.0651,0.05156 -0.127172,0.09375 -0.137931,0.09375 -0.01076,0 -0.07905,0.0382 -0.1517528,0.0849 -0.072705,0.0467 -0.1392226,0.08587 -0.1478164,0.08704 -0.00859,0.0012 -0.047266,0.01972 -0.085937,0.0412 -0.038672,0.02148 -0.070312,0.0312 -0.070312,0.02161 0,-0.0096 -0.033406,0.0044 -0.074235,0.0312 -0.040829,0.02675 -0.100595,0.05422 -0.1328125,0.06104 -0.032218,0.0068 -0.1429528,0.04201 -0.2460778,0.07819 -0.103125,0.03618 -0.215625,0.07012 -0.25,0.07542 -0.034375,0.0053 -0.09177,0.01905 -0.1275437,0.03057 -0.1755969,0.05653 -1.1940719,0.09056 -1.2795057,0.04275 z M 7.9655635,9.9238965 C 7.958707,9.917041 7.8687294,9.9050186 7.7656115,9.8971807 7.662494,9.8893389 7.5359375,9.865834 7.484375,9.8449404 7.3951119,9.8087686 7.3624575,9.7992344 7.2191078,9.7674883 7.1849294,9.7599189 7.109774,9.7177315 7.0520956,9.6737381 6.9944172,9.6297447 6.9344903,9.5937119 6.9189253,9.5936656 6.90336,9.5936344 6.8301169,9.5408847 6.7561625,9.4764781 L 6.6217,9.359375 6.9767725,9.0064453 7.331845,8.6535156 7.4159225,8.719651 C 7.462165,8.7560253 7.5,8.7774104 7.5,8.7671729 c 0,-0.010238 0.035156,0.00442 0.078125,0.032576 0.042969,0.028154 0.078125,0.043259 0.078125,0.033565 0,-0.00969 0.046659,0.00187 0.1036875,0.025699 0.1198294,0.050068 0.4111216,0.04371 0.5137472,-0.011214 0.038536,-0.020624 0.070065,-0.029477 0.070065,-0.019674 0,0.0098 0.031641,2.832e-4 0.070312,-0.021165 0.038672,-0.021444 0.079619,-0.036415 0.090993,-0.033269 0.011374,0.00315 0.077757,-0.051357 0.1475184,-0.1211185 0.069761,-0.069761 0.1242644,-0.136144 0.1211185,-0.1475184 -0.00315,-0.011374 0.011825,-0.052321 0.033269,-0.090993 0.021444,-0.038672 0.03218,-0.070312 0.023859,-0.070312 -0.00832,0 0.00437,-0.046659 0.028194,-0.1036875 C 8.9090807,8.1202331 8.9027225,7.8289409 8.8477987,7.7263153 8.827175,7.6877794 8.8194443,7.65625 8.8306197,7.65625 c 0.011175,0 -0.00272,-0.035156 -0.030871,-0.078125 C 8.7715943,7.5351563 8.7569354,7.5 8.7671729,7.5 8.7774104,7.5 8.7560253,7.462165 8.719651,7.4159225 L 8.6535156,7.331845 9.0064453,6.9767725 9.359375,6.6217 9.4764781,6.7561625 c 0.064407,0.073954 0.1171409,0.1471975 0.1171875,0.1627628 3.13e-5,0.015565 0.036079,0.075492 0.080072,0.1331703 0.043993,0.057678 0.086181,0.1328338 0.09375,0.1670122 0.031742,0.1433369 0.041278,0.1760028 0.077438,0.2652672 0.047501,0.1172646 0.059244,0.2194731 0.059244,0.515625 0,0.2961519 -0.011743,0.3983604 -0.059244,0.515625 -0.036159,0.089264 -0.045695,0.1219303 -0.077438,0.2652672 -0.00757,0.034178 -0.049757,0.1093338 -0.09375,0.1670122 -0.043993,0.057678 -0.079988,0.1218013 -0.079988,0.142495 0,0.049064 -0.4542869,0.5033506 -0.5033506,0.5033506 -0.020694,0 -0.084817,0.035995 -0.142495,0.079988 -0.057678,0.043993 -0.1328338,0.086181 -0.1670122,0.09375 -0.143105,0.031691 -0.1759803,0.041258 -0.2652672,0.07719 -0.051562,0.02075 -0.1640625,0.043179 -0.25,0.049842 -0.085937,0.00666 -0.1858028,0.018803 -0.2219231,0.026977 -0.03612,0.00817 -0.071283,0.00926 -0.078138,0.0024 z"
       id="path823"
       inkscape:connector-curvature="0" />
    <path
       style="fill:#3298fe;stroke-width:0.03125"
       d="m 7.7092672,12.980587 c -0.00338,-0.0031 -0.097548,-0.01569 -0.2092672,-0.02796 -0.3465115,-0.03805 -0.3881016,-0.0434 -0.4757463,-0.06123 -0.046817,-0.0095 -0.1225953,-0.03157 -0.1683965,-0.04898 -0.045801,-0.01741 -0.090139,-0.0248 -0.098528,-0.01641 -0.00839,0.0084 -0.055658,-0.0056 -0.105041,-0.03118 -0.049383,-0.02554 -0.089788,-0.03954 -0.089788,-0.03111 0,0.0084 -0.063281,-0.01181 -0.140625,-0.04496 -0.077344,-0.03315 -0.140625,-0.05339 -0.140625,-0.04496 0,0.0084 -0.042187,-0.0065 -0.09375,-0.03316 -0.051563,-0.02666 -0.09375,-0.04076 -0.09375,-0.03133 0,0.0094 -0.037268,-0.0073 -0.082818,-0.03712 -0.04555,-0.02985 -0.1012926,-0.05698 -0.1238728,-0.06029 -0.02258,-0.0033 -0.08375,-0.03643 -0.1359323,-0.07358 -0.052182,-0.03716 -0.094877,-0.05861 -0.094877,-0.04768 0,0.01093 -0.042187,-0.01016 -0.09375,-0.04687 -0.051563,-0.03672 -0.09375,-0.05758 -0.09375,-0.04638 0,0.01121 -0.054758,-0.02299 -0.1216844,-0.076 C 5.2801391,12.168369 5.2153359,12.125 5.2030591,12.125 5.17371,12.125 4.8135159,11.837771 4.7380109,11.754159 4.7056359,11.718308 4.6678878,11.695933 4.6541269,11.704437 4.6239463,11.72309 4.115805,11.132514 3.9025591,10.830944 3.2844456,9.9568154 2.925167,8.6478231 3.0271802,7.6415966 3.1031133,6.8926159 3.2619307,6.3416275 3.5816119,5.718094 4.0539206,4.7968628 4.7968628,4.0539206 5.718094,3.5816119 6.3416275,3.2619307 6.8926159,3.1031133 7.6415966,3.0271802 8.2111034,2.9694425 8.9438943,3.0652229 9.59375,3.2823391 c 0.360709,0.1205125 0.944129,0.4129878 1.237194,0.62022 0.30157,0.2132459 0.892146,0.7213872 0.873494,0.7515678 -0.0085,0.013761 0.01387,0.051509 0.04972,0.083884 0.08361,0.075505 0.370841,0.4356991 0.370841,0.4650482 0,0.012277 0.04337,0.07708 0.09638,0.1440065 0.05301,0.066926 0.08721,0.1216844 0.076,0.1216844 -0.01121,0 0.0097,0.042187 0.04638,0.09375 0.03672,0.051563 0.05781,0.09375 0.04687,0.09375 -0.01093,0 0.01052,0.042695 0.04768,0.094877 0.03716,0.052183 0.07027,0.113352 0.07358,0.1359323 0.0033,0.02258 0.03044,0.078323 0.06029,0.1238728 0.02984,0.04555 0.04655,0.082818 0.03712,0.082818 -0.0094,0 0.0047,0.042187 0.03133,0.09375 0.02666,0.051563 0.04159,0.09375 0.03316,0.09375 -0.0084,0 0.01181,0.063281 0.04496,0.140625 0.03315,0.077344 0.05339,0.140625 0.04496,0.140625 -0.0084,0 0.0056,0.040405 0.03111,0.089788 0.02554,0.049383 0.03957,0.096652 0.03118,0.105041 -0.0084,0.00839 -10e-4,0.052727 0.01641,0.098528 0.0356,0.093636 0.06113,0.2086025 0.07711,0.3472678 0.0059,0.051563 0.0217,0.1851562 0.03501,0.296875 0.01331,0.1117188 0.0242,0.3367187 0.0242,0.5 0,0.1632813 -0.01089,0.3882813 -0.0242,0.5 -0.01331,0.1117188 -0.02906,0.2453125 -0.03501,0.296875 -0.01598,0.1386653 -0.04151,0.2536318 -0.07711,0.3472678 -0.01741,0.045801 -0.0248,0.090139 -0.01641,0.098528 0.0084,0.00839 -0.0056,0.055658 -0.03118,0.105041 -0.02554,0.049383 -0.03954,0.089788 -0.03111,0.089788 0.0084,0 -0.01181,0.063281 -0.04496,0.140625 -0.03315,0.077344 -0.05339,0.140625 -0.04496,0.140625 0.0084,0 -0.0065,0.042188 -0.03316,0.09375 -0.02666,0.051562 -0.04076,0.09375 -0.03133,0.09375 0.0094,0 -0.0073,0.037268 -0.03712,0.082817 -0.02985,0.04555 -0.05698,0.1012923 -0.06029,0.1238723 -0.0033,0.02258 -0.03643,0.08375 -0.07358,0.135933 -0.03716,0.05218 -0.05861,0.09488 -0.04768,0.09488 0.01093,0 -0.01016,0.04219 -0.04687,0.09375 -0.03672,0.05156 -0.05758,0.09375 -0.04638,0.09375 0.01121,0 -0.02299,0.05476 -0.076,0.121685 -0.05301,0.06693 -0.09638,0.132275 -0.09638,0.145218 0,0.02948 -0.193173,0.273146 -0.339638,0.428409 -0.0608,0.06445 -0.09759,0.117188 -0.08174,0.117188 0.01584,0 -0.05403,0.08371 -0.155281,0.186023 -0.101245,0.102313 -0.193848,0.179989 -0.205782,0.172613 -0.01194,-0.0074 -0.04819,0.01592 -0.08057,0.05177 -0.0755,0.08361 -0.435699,0.370841 -0.465048,0.370841 -0.01228,0 -0.07708,0.04337 -0.144006,0.09638 -0.06693,0.05301 -0.121685,0.08721 -0.121685,0.076 0,-0.01121 -0.04219,0.0097 -0.09375,0.04638 -0.05156,0.03672 -0.09375,0.05781 -0.09375,0.04687 0,-0.01093 -0.04269,0.01052 -0.09488,0.04768 -0.05218,0.03716 -0.113352,0.07027 -0.135933,0.07358 -0.02258,0.0033 -0.07832,0.03044 -0.1238726,0.06029 -0.04555,0.02984 -0.082817,0.04655 -0.082817,0.03712 0,-0.0094 -0.042188,0.0047 -0.09375,0.03133 -0.051562,0.02666 -0.09375,0.04159 -0.09375,0.03316 0,-0.0084 -0.063281,0.01181 -0.140625,0.04496 -0.077344,0.03315 -0.140625,0.05339 -0.140625,0.04496 0,-0.0084 -0.040405,0.0056 -0.089788,0.03111 -0.049383,0.02554 -0.096652,0.03957 -0.105041,0.03118 -0.00839,-0.0084 -0.052727,-10e-4 -0.098528,0.01641 -0.1000563,0.03804 -0.2106868,0.06139 -0.3785178,0.0799 -0.06875,0.0076 -0.1953125,0.02296 -0.28125,0.03417 -0.1415403,0.01848 -0.7603234,0.03772 -0.7751078,0.0241 z m 0.881939,-1.05674 c 0.075945,-0.0092 0.167351,-0.02615 0.203125,-0.03767 0.035774,-0.01152 0.093169,-0.02528 0.1275438,-0.03057 0.034375,-0.0053 0.146875,-0.03923 0.25,-0.07542 0.103125,-0.03619 0.21386,-0.07137 0.2460778,-0.0782 0.032217,-0.0068 0.091983,-0.03429 0.1328125,-0.06104 0.040829,-0.02675 0.074235,-0.04079 0.074235,-0.0312 0,0.0096 0.031641,-9.8e-5 0.070312,-0.02161 0.038672,-0.02148 0.077344,-0.04002 0.085937,-0.0412 0.00859,-0.0012 0.075111,-0.04035 0.1478164,-0.08704 0.072705,-0.04669 0.1409943,-0.0849 0.1517523,-0.0849 0.01076,0 0.07283,-0.04219 0.137931,-0.09375 0.0651,-0.05156 0.130408,-0.09381 0.145122,-0.09389 0.01471,-6.2e-5 0.11281,-0.07691 0.217991,-0.170741 0.10518,-0.09383 0.198098,-0.16374 0.206484,-0.155354 0.0084,0.0084 0.03303,-0.0062 0.05478,-0.03238 0.02174,-0.0262 0.02965,-0.04763 0.01758,-0.04763 -0.01207,0 0.05646,-0.08789 0.152283,-0.195312 0.09583,-0.107422 0.174294,-0.207352 0.174371,-0.222066 6.3e-5,-0.01471 0.04233,-0.08002 0.09389,-0.145122 0.05156,-0.0651 0.09375,-0.127172 0.09375,-0.137931 0,-0.01076 0.0382,-0.07905 0.0849,-0.1517526 0.0467,-0.072705 0.08587,-0.1392226 0.08704,-0.1478164 0.0012,-0.00859 0.01972,-0.047266 0.0412,-0.085937 0.02148,-0.038672 0.0312,-0.070312 0.02161,-0.070312 -0.0096,0 0.0044,-0.033406 0.0312,-0.074235 0.02675,-0.040829 0.05422,-0.100595 0.06104,-0.1328125 0.0068,-0.032218 0.04201,-0.1429528 0.0782,-0.2460778 0.03618,-0.103125 0.07012,-0.215625 0.07542,-0.25 0.0053,-0.034375 0.01905,-0.09177 0.03057,-0.1275437 C 11.92603,8.6705484 11.94123,8.4511834 11.94123,8 c 0,-0.4511834 -0.0152,-0.6705484 -0.05505,-0.7943312 C 11.87466,7.1698948 11.8609,7.1124998 11.85561,7.078125 11.85031,7.04375 11.81638,6.93125 11.78019,6.828125 11.744,6.725 11.70882,6.614265 11.70199,6.5820472 11.69519,6.5498302 11.6677,6.4900642 11.64095,6.4492347 c -0.02675,-0.040829 -0.04079,-0.074235 -0.0312,-0.074235 0.0096,0 -9.8e-5,-0.031641 -0.02161,-0.070312 -0.02148,-0.038672 -0.04002,-0.077344 -0.0412,-0.085937 -0.0012,-0.00859 -0.04035,-0.075111 -0.08704,-0.1478166 -0.04669,-0.072705 -0.0849,-0.140994 -0.0849,-0.1517527 0,-0.010759 -0.04219,-0.072828 -0.09375,-0.1379307 C 11.22969,5.7161477 11.18744,5.6508429 11.18736,5.6361288 11.187297,5.6214138 11.111947,5.525 11.019947,5.421875 10.927948,5.31875 10.850668,5.2238281 10.848213,5.2109375 c -0.0025,-0.012891 -0.01501,-0.026059 -0.0279,-0.029262 -0.01289,-0.0032 -0.167457,-0.1225372 -0.343478,-0.2651857 C 10.235897,4.7212341 10.054385,4.6072697 9.7424597,4.4554072 8.5693178,3.8842562 7.431381,3.8839362 6.2595297,4.4544291 5.4514653,4.8478185 4.8689216,5.4270597 4.4694341,6.2343763 3.8830244,7.4194406 3.878474,8.5574428 4.4554072,9.7424609 c 0.1518625,0.3119251 0.2658269,0.4934371 0.4610824,0.7343751 0.1426485,0.176022 0.2619823,0.330587 0.2651857,0.343477 0.0032,0.01289 0.016372,0.02545 0.029262,0.0279 0.012891,0.0025 0.1078125,0.07973 0.2109375,0.171735 0.103125,0.092 0.1995388,0.167334 0.2142531,0.167412 0.014714,6.3e-5 0.080019,0.04233 0.1451219,0.09389 0.065103,0.05156 0.1271716,0.09375 0.1379307,0.09375 0.010759,0 0.079047,0.03821 0.1517527,0.0849 0.072705,0.0467 0.1392228,0.08587 0.1478166,0.08704 0.00859,0.0012 0.047266,0.01972 0.085937,0.0412 0.038672,0.02148 0.070312,0.0312 0.070312,0.02161 0,-0.0096 0.033406,0.0044 0.074235,0.0312 0.040829,0.02675 0.100595,0.05422 0.1328125,0.06104 0.032218,0.0068 0.1429528,0.04201 0.2460778,0.07819 0.103125,0.03618 0.215625,0.07072 0.25,0.07674 0.034375,0.006 0.1250244,0.02574 0.2014428,0.04382 0.076418,0.01808 0.1501353,0.02595 0.163815,0.0175 0.01368,-0.0085 0.045829,-0.0036 0.071443,0.01069 0.048908,0.02737 0.8393328,0.02364 1.0763806,-0.0051 z M 5.7073344,9.835833 C 5.2422034,9.2611568 4.968974,8.3774644 5.0585159,7.7373916 5.2092862,6.6596365 5.7833213,5.8287381 6.6922437,5.3726193 7.019724,5.2082822 7.3270513,5.1159197 7.7373916,5.0585159 8.3746969,4.9693612 9.2699003,5.245135 9.830165,5.7032091 c 0.1191905,0.097451 0.220283,0.1866888 0.22465,0.1983068 0.0044,0.011618 -0.1525054,0.1811144 -0.348605,0.3766578 L 9.3496646,6.6337075 9.1982697,6.5075685 C 8.89265,6.2529315 8.3799456,6.0625 8,6.0625 7.6203412,6.0625 7.1160656,6.2500153 6.7956854,6.5103253 6.3638456,6.8611963 6.0625,7.4734656 6.0625,8 c 0,0.3799456 0.1904315,0.89265 0.4450685,1.1982697 L 6.6337075,9.3496646 6.278301,9.7060822 C 6.0828275,9.9021123 5.9156338,10.062453 5.9067597,10.062396 5.8978856,10.062333 5.808144,9.9603857 5.7073344,9.835833 Z M 7.7578125,8.8588281 C 7.7019531,8.8350068 7.65625,8.8223644 7.65625,8.8307331 c 0,0.00837 -0.031641,-0.00236 -0.070312,-0.023839 C 7.5472656,8.7854144 7.5085937,8.7672388 7.5,8.7665041 7.36103,8.7546253 7.0865385,8.2475584 7.0865385,8.002719 c 0,-0.1943921 0.1311881,-0.4898836 0.2831793,-0.6378393 0.1574316,-0.1532522 0.4413431,-0.2783412 0.6317434,-0.2783412 0.1413591,0 0.3978869,0.098397 0.6074382,0.2329969 C 8.6681347,7.3575834 8.7636825,7.46699 8.7665041,7.5 c 7.324e-4,0.00859 0.01891,0.047266 0.04039,0.085937 0.02148,0.038672 0.032246,0.070312 0.023925,0.070312 -0.00832,0 0.00437,0.046659 0.028194,0.1036875 0.050068,0.1198294 0.04371,0.4111216 -0.011214,0.5137472 -0.020624,0.038536 -0.029477,0.070065 -0.019674,0.070065 0.0098,0 2.832e-4,0.031641 -0.021165,0.070312 -0.021444,0.038672 -0.036415,0.079619 -0.033269,0.090993 0.00315,0.011374 -0.051357,0.077757 -0.1211185,0.1475184 -0.069761,0.069761 -0.136144,0.1242644 -0.1475184,0.1211185 -0.011374,-0.00315 -0.052321,0.011825 -0.090993,0.033269 -0.038672,0.021444 -0.070312,0.030968 -0.070312,0.021165 0,-0.0098 -0.031389,-0.00103 -0.069752,0.019506 -0.102585,0.054902 -0.3986391,0.061324 -0.5161847,0.011197 z"
       id="path821"
       inkscape:connector-curvature="0" />
    <path
       style="fill:#233458;stroke-width:0.03125"
       d="m 7.5625,13.992281 c -0.00859,-0.0084 -0.1254013,-0.02388 -0.2595722,-0.03431 -0.134171,-0.01043 -0.2537022,-0.02482 -0.265625,-0.03199 C 7.02538,13.918818 6.9523438,13.904238 6.875,13.89358 6.7576693,13.87741 6.5644878,13.834228 6.3125,13.767844 5.8977013,13.658567 5.1246287,13.298723 4.734375,13.033267 4.596875,12.939737 4.4351563,12.83003 4.375,12.789474 4.1787021,12.657132 3.6516938,12.149097 3.4112828,11.860453 1.8898606,10.033793 1.5739818,7.5400307 2.5945878,5.4129075 3.1962641,4.1589078 4.1581307,3.196669 5.410799,2.595607 7.5400972,1.5739157 10.032982,1.8891863 11.860453,3.4112828 12.149097,3.6516937 12.657132,4.1787021 12.789474,4.375 c 0.04056,0.060156 0.150263,0.221875 0.243793,0.359375 0.265456,0.3902537 0.6253,1.1633263 0.734577,1.578125 0.06638,0.2519878 0.109566,0.4451693 0.125736,0.5625 0.01066,0.077344 0.02524,0.15038 0.03241,0.1623028 0.07372,0.1226841 0.07372,1.8027103 0,1.9253944 -0.0072,0.011923 -0.02175,0.084959 -0.03241,0.1623028 -0.01617,0.1173307 -0.05935,0.3105122 -0.125736,0.5625 -0.109301,0.414895 -0.469182,1.187996 -0.734621,1.578125 -0.09355,0.1375 -0.212592,0.313281 -0.264531,0.390625 -0.122406,0.182282 -0.93016,0.990036 -1.112442,1.112442 -0.07734,0.05194 -0.253125,0.170977 -0.390625,0.264531 -0.390129,0.265439 -1.16323,0.62532 -1.578125,0.734621 -0.2079437,0.05478 -0.4400354,0.1083 -0.53125,0.122502 -0.1395932,0.02174 -0.3105266,0.05171 -0.390625,0.0685 -0.097424,0.02042 -1.1855875,0.05066 -1.203125,0.03344 z m 0.921875,-1.035797 c 0.085937,-0.01122 0.2125,-0.0266 0.28125,-0.03417 0.167831,-0.0185 0.2784615,-0.04185 0.3785178,-0.0799 0.045801,-0.01741 0.090139,-0.0248 0.098528,-0.01641 0.00839,0.0084 0.055658,-0.0056 0.105041,-0.03118 0.049383,-0.02554 0.089788,-0.03954 0.089788,-0.03111 0,0.0084 0.063281,-0.01181 0.140625,-0.04496 0.077344,-0.03315 0.140625,-0.05339 0.140625,-0.04496 0,0.0084 0.042188,-0.0065 0.09375,-0.03316 0.051562,-0.02666 0.09375,-0.04076 0.09375,-0.03133 0,0.0094 0.037268,-0.0073 0.082817,-0.03712 0.04555,-0.02985 0.1012922,-0.05698 0.1238722,-0.06029 0.02258,-0.0033 0.08375,-0.03643 0.135933,-0.07358 0.05218,-0.03716 0.09488,-0.05861 0.09488,-0.04768 0,0.01093 0.04219,-0.01016 0.09375,-0.04687 0.05156,-0.03672 0.09375,-0.05758 0.09375,-0.04638 0,0.01121 0.05476,-0.02299 0.121685,-0.076 0.06693,-0.05301 0.131729,-0.09638 0.144006,-0.09638 0.02935,0 0.389543,-0.287229 0.465048,-0.370841 0.03238,-0.03585 0.06863,-0.05915 0.08057,-0.05177 0.01193,0.0074 0.104537,-0.0703 0.205782,-0.172613 0.101246,-0.102312 0.171122,-0.186023 0.155281,-0.186023 -0.01584,0 0.02095,-0.05273 0.08174,-0.117188 0.146465,-0.155263 0.339638,-0.398925 0.339638,-0.428409 0,-0.01294 0.04337,-0.07829 0.09638,-0.145218 0.05301,-0.06693 0.08721,-0.121685 0.076,-0.121685 -0.01121,0 0.0097,-0.04219 0.04638,-0.09375 0.03672,-0.05156 0.05781,-0.09375 0.04687,-0.09375 -0.01093,0 0.01052,-0.04269 0.04768,-0.09488 0.03716,-0.05218 0.07027,-0.113352 0.07358,-0.135933 0.0033,-0.02258 0.03044,-0.07832 0.06029,-0.1238726 0.02984,-0.04555 0.04655,-0.082817 0.03712,-0.082817 -0.0094,0 0.0047,-0.042188 0.03133,-0.09375 0.02666,-0.051562 0.04159,-0.09375 0.03316,-0.09375 -0.0084,0 0.01181,-0.063281 0.04496,-0.140625 0.03315,-0.077344 0.05339,-0.140625 0.04496,-0.140625 -0.0084,0 0.0056,-0.040405 0.03111,-0.089788 0.02554,-0.049383 0.03957,-0.096652 0.03118,-0.105041 -0.0084,-0.00839 -0.001,-0.052727 0.01641,-0.098528 0.0356,-0.093636 0.06113,-0.2086025 0.07711,-0.3472678 0.0059,-0.051562 0.0217,-0.1851562 0.03501,-0.296875 0.01331,-0.1117188 0.0242,-0.3367187 0.0242,-0.5 0,-0.1632813 -0.01089,-0.3882813 -0.0242,-0.5 -0.01331,-0.1117188 -0.02906,-0.2453125 -0.03501,-0.296875 -0.01598,-0.1386653 -0.04151,-0.2536318 -0.07711,-0.3472678 -0.01741,-0.045801 -0.0248,-0.090139 -0.01641,-0.098528 0.0084,-0.00839 -0.0056,-0.055658 -0.03118,-0.105041 -0.02554,-0.049383 -0.03954,-0.089788 -0.03111,-0.089788 0.0084,0 -0.01181,-0.063281 -0.04496,-0.140625 -0.03315,-0.077344 -0.05339,-0.140625 -0.04496,-0.140625 0.0084,0 -0.0065,-0.042187 -0.03316,-0.09375 -0.02666,-0.051563 -0.04076,-0.09375 -0.03133,-0.09375 0.0094,0 -0.0073,-0.037268 -0.03712,-0.082818 -0.02985,-0.04555 -0.05698,-0.1012926 -0.06029,-0.1238728 -0.0033,-0.02258 -0.03643,-0.08375 -0.07358,-0.1359323 -0.03716,-0.052182 -0.05861,-0.094877 -0.04768,-0.094877 0.01093,0 -0.01016,-0.042187 -0.04687,-0.09375 -0.03672,-0.051563 -0.05758,-0.09375 -0.04638,-0.09375 0.01121,0 -0.02299,-0.054758 -0.076,-0.1216844 C 12.168369,5.2801391 12.125,5.2153359 12.125,5.2030591 12.125,5.17371 11.837771,4.8135159 11.754159,4.7380109 11.718308,4.7056359 11.695933,4.6678878 11.704437,4.6541269 11.72309,4.6239463 11.132514,4.115805 10.830944,3.9025591 9.9568154,3.2844456 8.6478231,2.925167 7.6415966,3.0271802 6.8926159,3.1031133 6.3416275,3.2619307 5.718094,3.5816119 4.7968628,4.0539206 4.0539206,4.7968628 3.5816119,5.718094 3.2619307,6.3416275 3.1031133,6.8926159 3.0271802,7.6415966 2.9694425,8.2111034 3.0652229,8.9438943 3.2823391,9.59375 c 0.1205125,0.360709 0.4129878,0.944129 0.62022,1.237194 0.2132459,0.30157 0.7213872,0.892146 0.7515678,0.873494 0.013761,-0.0085 0.051509,0.01387 0.083884,0.04972 0.075505,0.08361 0.4356991,0.370841 0.4650482,0.370841 0.012277,0 0.07708,0.04337 0.1440065,0.09638 0.066926,0.05301 0.1216844,0.08721 0.1216844,0.076 0,-0.01121 0.042187,0.0097 0.09375,0.04638 0.051563,0.03672 0.09375,0.05781 0.09375,0.04687 0,-0.01093 0.042695,0.01052 0.094877,0.04768 0.052183,0.03716 0.113352,0.07027 0.1359323,0.07358 0.02258,0.0033 0.078323,0.03044 0.1238728,0.06029 0.04555,0.02984 0.082818,0.04655 0.082818,0.03712 0,-0.0094 0.042187,0.0047 0.09375,0.03133 0.051563,0.02666 0.09375,0.04159 0.09375,0.03316 0,-0.0084 0.063281,0.01181 0.140625,0.04496 0.077344,0.03315 0.140625,0.05339 0.140625,0.04496 0,-0.0084 0.040405,0.0056 0.089788,0.03111 0.049383,0.02554 0.096652,0.03957 0.105041,0.03118 0.00839,-0.0084 0.052727,-10e-4 0.098528,0.01641 0.045801,0.01741 0.1215797,0.03946 0.1683965,0.04898 0.087645,0.01783 0.1292348,0.02319 0.4757463,0.06123 0.1117187,0.01227 0.2058891,0.02485 0.2092672,0.02796 0.014784,0.01361 0.6335675,-0.0056 0.7751078,-0.0241 z M 7.9267557,10.947589 c -0.00681,-0.0068 -0.1021036,-0.01897 -0.2117585,-0.02702 -0.3006022,-0.02206 -0.3755622,-0.03571 -0.5101638,-0.09289 -0.067811,-0.0288 -0.1486699,-0.05807 -0.1796875,-0.06503 -0.031018,-0.007 -0.086271,-0.01922 -0.1227862,-0.02724 -0.036514,-0.008 -0.099796,-0.03647 -0.140625,-0.06322 -0.040829,-0.02675 -0.074235,-0.04026 -0.074235,-0.03003 0,0.01024 -0.037053,-0.01053 -0.082339,-0.04615 -0.045287,-0.03562 -0.096139,-0.06477 -0.1130046,-0.06477 -0.016866,0 -0.1201367,-0.07031 -0.2294901,-0.15625 -0.1093534,-0.08594 -0.2110091,-0.15625 -0.2259018,-0.15625 -0.014893,0 -0.053129,-0.02879 -0.084971,-0.06397 -0.057231,-0.06324 -0.053745,-0.06812 0.304604,-0.426468 L 6.6188947,9.3658128 6.7579784,9.4797812 c 0.076496,0.062683 0.1503703,0.1139688 0.1641654,0.1139688 0.013795,0 0.072273,0.035995 0.1299518,0.079988 0.057678,0.043993 0.1328338,0.086181 0.1670122,0.09375 C 7.3624447,9.79923 7.3951106,9.808766 7.484375,9.844926 7.6016396,9.892427 7.7038481,9.90417 8,9.90417 8.2961519,9.90417 8.3983604,9.892427 8.515625,9.844926 8.604889,9.808767 8.6375553,9.799231 8.7808922,9.767488 8.8150702,9.759918 8.890226,9.717731 8.9479044,9.673738 9.0055824,9.629745 9.0697057,9.59375 9.0903994,9.59375 c 0.049064,0 0.5033506,-0.4542869 0.5033506,-0.5033506 0,-0.020694 0.035995,-0.084817 0.079988,-0.142495 C 9.7177315,8.890226 9.759919,8.8150706 9.7674883,8.7808922 9.7992305,8.6375553 9.8087666,8.6048894 9.8449258,8.515625 9.8924268,8.3983604 9.9041699,8.2961519 9.9041699,8 c 0,-0.2961519 -0.011743,-0.3983604 -0.059244,-0.515625 C 9.8087666,7.3951106 9.7992305,7.3624447 9.7674883,7.2191078 9.7599189,7.1849294 9.7177315,7.109774 9.6737381,7.0520956 9.6297447,6.9944172 9.59375,6.9359388 9.59375,6.9221437 c 0,-0.013795 -0.051286,-0.087669 -0.1139687,-0.1641653 L 9.3658128,6.6188947 9.72831,6.2563975 c 0.358349,-0.3583494 0.363229,-0.361835 0.426468,-0.304604 0.03519,0.031841 0.06397,0.070078 0.06397,0.084971 0,0.014893 0.07031,0.1165484 0.15625,0.2259018 0.08594,0.1093534 0.15625,0.2126241 0.15625,0.2294901 0,0.016866 0.02915,0.067718 0.06477,0.1130046 0.03562,0.045287 0.05639,0.082339 0.04615,0.082339 -0.01024,0 0.0033,0.033406 0.03003,0.074235 0.02675,0.040829 0.0552,0.1041106 0.06322,0.140625 0.008,0.036515 0.02027,0.091768 0.02724,0.1227862 0.007,0.031018 0.03622,0.111877 0.06503,0.1796875 0.05595,0.1317304 0.06793,0.1955494 0.09645,0.5139166 0.02265,0.2528794 0.02265,0.3096206 0,0.5625 -0.02851,0.3183672 -0.04049,0.3821862 -0.09645,0.5139166 -0.0288,0.067811 -0.05807,0.1486699 -0.06503,0.1796875 -0.007,0.031018 -0.01922,0.086272 -0.02724,0.1227862 -0.008,0.036514 -0.03647,0.099796 -0.06322,0.140625 -0.02675,0.040829 -0.04026,0.074235 -0.03003,0.074235 0.01024,0 -0.01053,0.037053 -0.04615,0.082339 -0.03562,0.045287 -0.06477,0.096139 -0.06477,0.1130046 0,0.016866 -0.07031,0.1201367 -0.15625,0.2294901 -0.08594,0.1093534 -0.15625,0.2103348 -0.15625,0.2244032 0,0.031358 -0.2281016,0.2570125 -0.2598008,0.2570125 -0.012535,0 -0.1122617,0.07031 -0.2216151,0.15625 -0.1093534,0.08594 -0.2126241,0.15625 -0.2294901,0.15625 -0.016866,0 -0.067718,0.02915 -0.1130046,0.06477 -0.045287,0.03562 -0.082339,0.05639 -0.082339,0.04615 0,-0.01024 -0.033406,0.0033 -0.074235,0.03003 -0.040829,0.02675 -0.1041106,0.0552 -0.140625,0.06322 -0.036515,0.008 -0.091768,0.02027 -0.1227862,0.02724 -0.031018,0.007 -0.111877,0.03622 -0.1796875,0.06503 -0.1314231,0.05582 -0.2019541,0.06913 -0.4982916,0.09398 -0.103125,0.0087 -0.2258025,0.02081 -0.2726166,0.02702 -0.046814,0.0062 -0.09069,0.0057 -0.097503,-0.0011 z"
       id="path819"
       inkscape:connector-curvature="0" />
  </g>
</svg>
