<?xml version="1.0" encoding="UTF-8" standalone="no"?>
<!-- Created with Inkscape (http://www.inkscape.org/) -->

<svg
   xmlns:dc="http://purl.org/dc/elements/1.1/"
   xmlns:cc="http://creativecommons.org/ns#"
   xmlns:rdf="http://www.w3.org/1999/02/22-rdf-syntax-ns#"
   xmlns:svg="http://www.w3.org/2000/svg"
   xmlns="http://www.w3.org/2000/svg"
   xmlns:sodipodi="http://sodipodi.sourceforge.net/DTD/sodipodi-0.dtd"
   xmlns:inkscape="http://www.inkscape.org/namespaces/inkscape"
   version="1.1"
   id="svg2"
   width="16"
   height="16"
   viewBox="0 0 16 16"
   sodipodi:docname="ADD.svg"
   inkscape:version="0.92.4 (5da689c313, 2019-01-14)">
  <metadata
     id="metadata8">
    <rdf:RDF>
      <cc:Work
         rdf:about="">
        <dc:format>image/svg+xml</dc:format>
        <dc:type
           rdf:resource="http://purl.org/dc/dcmitype/StillImage" />
        <dc:title></dc:title>
      </cc:Work>
    </rdf:RDF>
  </metadata>
  <defs
     id="defs6" />
  <sodipodi:namedview
     pagecolor="#ffffff"
     bordercolor="#666666"
     borderopacity="1"
     objecttolerance="10"
     gridtolerance="10"
     guidetolerance="10"
     inkscape:pageopacity="0"
     inkscape:pageshadow="2"
     inkscape:window-width="1135"
     inkscape:window-height="729"
     id="namedview4"
     showgrid="false"
     inkscape:zoom="14.75"
     inkscape:cx="8.4067796"
     inkscape:cy="9.220339"
     inkscape:window-x="0"
     inkscape:window-y="0"
     inkscape:window-maximized="0"
     inkscape:current-layer="svg2" />
  <g
     id="ADD">
    <path
       style="fill:#ffffff;stroke-width:0.03125"
       d="M 0,8 V 0 h 8 8 v 8 8 H 8 0 Z m 9.3822719,5.937942 c 0.2181547,-0.08162 0.4718106,-0.335839 0.55589,-0.557118 C 9.9968716,13.226313 10,13.136677 10,11.60904 V 10 h 1.60904 c 1.857931,0 1.801465,0.0077 2.100686,-0.2877691 C 13.998846,9.4267028 14,9.41989 14,7.9991628 14,6.5847684 13.999369,6.5810241 13.712231,6.2902737 13.418298,5.9926441 13.471618,6 11.608203,6 H 10 V 4.3917972 C 10,2.528382 10.007356,2.5817019 9.7097262,2.2877692 9.4189531,2.000608 9.4153406,2 8,2 6.5846594,2 6.5810469,2.000608 6.2902737,2.2877692 5.9926441,2.5817019 6,2.528382 6,4.3917972 V 6 H 4.3909603 C 2.5330286,6 2.5894951,5.9922647 2.2902738,6.2877691 2.0011544,6.5732972 2,6.58011 2,8.0008372 2,9.4152316 2.0006306,9.4189759 2.2877692,9.7097262 2.5817019,10.007356 2.528382,10 4.3917972,10 H 6 v 1.608203 c 0,1.863443 -0.00736,1.81009 0.2903069,2.10406 0.289149,0.285558 0.2833681,0.284584 1.7007084,0.286275 1.1480088,0.0014 1.2358644,-0.0025 1.3912566,-0.0606 z"
       id="path823"
       inkscape:connector-curvature="0" />
    <path
       style="fill:#fefefe;stroke-width:0.03125"
       d="M 7,11 V 9 H 5 3 V 8 7 H 5 7 V 5 3 h 1 1 v 2 2 h 2 2 V 8 9 H 11 9 v 2 2 H 8 7 Z"
       id="path821"
       inkscape:connector-curvature="0" />
    <path
       style="fill:#000000;stroke-width:0.03125"
       d="M 6.6110609,13.936733 C 6.3977378,13.853449 6.1415391,13.594703 6.0620584,13.382272 6.0030997,13.22469 6,13.136077 6,11.608203 V 10 H 4.3917972 C 2.528382,10 2.5817019,10.007356 2.2877692,9.7097262 2.0006305,9.4189759 2,9.4152316 2,8.0008372 2,6.58011 2.0011544,6.5732972 2.2902738,6.2877691 2.5894951,5.9922647 2.5330286,6 4.3909603,6 H 6 V 4.3917972 C 6,2.528382 5.9926441,2.5817019 6.2902737,2.2877692 6.5810469,2.000608 6.5846594,2 8,2 9.4153406,2 9.4189531,2.0006081 9.7097262,2.2877692 10.007356,2.5817019 10,2.528382 10,4.3917972 V 6 h 1.608203 C 13.471618,6 13.418298,5.99264 13.712231,6.2902737 13.999369,6.5810241 14,6.5847684 14,7.9991628 14,9.41989 13.998847,9.4267028 13.709726,9.7122309 13.410505,10.007735 13.466971,10 11.60904,10 H 10 v 1.60904 c 0,1.857931 0.0077,1.801465 -0.2877691,2.100686 -0.2860772,0.289676 -0.2910996,0.290518 -1.7212156,0.288812 -1.1345691,-0.0014 -1.2368459,-0.0059 -1.3799544,-0.0618 z M 9,11 V 9 h 2 2 V 8 7 H 11 9 V 5 3 H 8 7 V 5 7 H 5 3 v 1 1 h 2 2 v 2 2 h 1 1 z"
       id="path819"
       inkscape:connector-curvature="0" />
  </g>
</svg>
