<?xml version="1.0" encoding="UTF-8" standalone="no"?>
<!-- Created with Inkscape (http://www.inkscape.org/) -->

<svg
   xmlns:dc="http://purl.org/dc/elements/1.1/"
   xmlns:cc="http://creativecommons.org/ns#"
   xmlns:rdf="http://www.w3.org/1999/02/22-rdf-syntax-ns#"
   xmlns:svg="http://www.w3.org/2000/svg"
   xmlns="http://www.w3.org/2000/svg"
   xmlns:sodipodi="http://sodipodi.sourceforge.net/DTD/sodipodi-0.dtd"
   xmlns:inkscape="http://www.inkscape.org/namespaces/inkscape"
   version="1.1"
   id="svg2"
   width="16"
   height="16"
   viewBox="0 0 16 16"
   sodipodi:docname="CLEAR.svg"
   inkscape:version="0.92.4 (5da689c313, 2019-01-14)">
  <metadata
     id="metadata8">
    <rdf:RDF>
      <cc:Work
         rdf:about="">
        <dc:format>image/svg+xml</dc:format>
        <dc:type
           rdf:resource="http://purl.org/dc/dcmitype/StillImage" />
        <dc:title></dc:title>
      </cc:Work>
    </rdf:RDF>
  </metadata>
  <defs
     id="defs6" />
  <sodipodi:namedview
     pagecolor="#ffffff"
     bordercolor="#666666"
     borderopacity="1"
     objecttolerance="10"
     gridtolerance="10"
     guidetolerance="10"
     inkscape:pageopacity="0"
     inkscape:pageshadow="2"
     inkscape:window-width="1200"
     inkscape:window-height="711"
     id="namedview4"
     showgrid="false"
     inkscape:zoom="14.75"
     inkscape:cx="0.10169492"
     inkscape:cy="9.0169492"
     inkscape:window-x="0"
     inkscape:window-y="0"
     inkscape:window-maximized="0"
     inkscape:current-layer="svg2" />
  <g
     id="CLEAR">
    <path
       style="fill:#ffffff;stroke-width:0.03125"
       d="M 0,8 V 0 h 8 8 v 8 8 H 8 0 Z m 8.546875,6.88819 C 8.9069475,14.79169 9.0421494,14.702988 9.5084103,14.257364 10.259539,13.539482 12.093177,11.710938 12.823183,10.951802 13.742078,9.9962384 13.811426,9.8679325 13.812129,9.1220797 13.81241,8.8122359 13.799509,8.6907703 13.751409,8.5509766 13.534352,7.9200897 13.047061,7.4478556 12.421873,7.2625225 12.29247,7.2241615 12.127862,7.2068005 11.890623,7.2064905 11.276247,7.2056905 10.92989,7.3655677 10.357759,7.9140621 10.165033,8.0988281 9.9986622,8.25 9.9880481,8.25 9.9774341,8.25 9.96875,7.2186078 9.96875,5.9580172 9.96875,3.8041894 9.9652431,3.6558419 9.9105728,3.4969397 9.666605,2.7878343 9.1458341,2.2803536 8.5,2.1223648 8.2521275,2.0617283 7.7146766,2.0699048 7.484375,2.1378159 6.8462475,2.3259864 6.3561125,2.8126345 6.1233562,3.4891525 6.0652087,3.6581609 6.0625,3.7680556 6.0625,5.9580172 6.0625,7.2186078 6.0537687,8.25 6.0430972,8.25 6.0324256,8.25 5.8591181,8.0917969 5.6579694,7.8984375 5.0769044,7.3398741 4.7296462,7.1759338 4.125,7.1747253 3.7250359,7.1739253 3.5283291,7.2189922 3.2047294,7.3855637 2.7582841,7.6153694 2.400295,8.0475075 2.2353769,8.5556947 c -0.043187,0.1330797 -0.051503,0.2542022 -0.04291,0.625 L 2.203125,9.640625 2.3331774,9.9113116 c 0.1463078,0.3045204 0.2526887,0.4193904 2.3057298,2.4897394 1.5589359,1.572079 2.2588265,2.23439 2.4758744,2.342935 0.1787406,0.08939 0.4181993,0.175227 0.5727184,0.205303 0.1415409,0.02755 0.6683572,-0.0099 0.859375,-0.0611 z"
       id="path823"
       inkscape:connector-curvature="0" />
    <path
       style="fill:#fb7e00;stroke-width:0.03125"
       d="M 7.6397641,13.863728 C 7.51496,13.805611 7.1525231,13.463492 5.8771975,12.199971 4.1594503,10.498122 3.4241591,9.7359366 3.2784331,9.5061506 3.1984569,9.3800413 3.1875,9.3339788 3.1875,9.1238731 3.1875,8.9199566 3.2014906,8.856985 3.2830634,8.6937434 3.4469594,8.3657588 3.6862603,8.2157519 4.0801012,8.1941169 4.4913531,8.1715256 4.4368878,8.1296481 5.9906622,9.6631147 6.54412,10.209339 7.0099625,10.65625 7.0258672,10.65625 c 0.017464,0 0.034385,-1.3583984 0.042722,-3.4296875 L 7.0823934,3.796875 7.1644656,3.6372675 C 7.2807066,3.4112116 7.3767434,3.3074778 7.5677275,3.2016859 7.717685,3.1186201 7.7625428,3.109375 8.015625,3.109375 c 0.2530822,0 0.29794,0.00925 0.4478975,0.092311 0.19118,0.1059004 0.2873275,0.2098429 0.4029156,0.4355816 l 0.081726,0.1596075 0.014352,3.4296875 c 0.00885,2.1155091 0.025636,3.4296874 0.043799,3.4296874 0.016196,0 0.4749166,-0.439941 1.0193779,-0.9776474 1.533027,-1.5140044 1.483244,-1.4758109 1.894205,-1.4532356 0.393841,0.021635 0.633142,0.1716419 0.797038,0.4996265 0.08157,0.1632416 0.09556,0.2262132 0.09556,0.4301297 0,0.3071541 -0.04324,0.377081 -0.601887,0.9733878 -0.566752,0.604955 -3.4338603,3.45018 -3.6417572,3.61396 -0.091036,0.07172 -0.2175981,0.14486 -0.28125,0.162538 -0.2034444,0.0565 -0.4750147,0.0392 -0.6478415,-0.04128 z"
       id="path821"
       inkscape:connector-curvature="0" />
    <path
       style="fill:#000000;stroke-width:0.03125"
       d="M 7.6875,14.949289 C 7.5329809,14.919213 7.2935222,14.833374 7.1147816,14.743986 6.8977338,14.635441 6.1978431,13.97313 4.6389072,12.401051 2.5858661,10.330702 2.4794852,10.215832 2.3331774,9.9113116 L 2.203125,9.640625 2.1924666,9.1806947 c -0.00859,-0.3707978 -2.782e-4,-0.4919203 0.04291,-0.625 C 2.400295,8.0475075 2.7582841,7.6153694 3.2047294,7.3855638 3.5283291,7.2189922 3.7250359,7.1739259 4.125,7.1747253 4.7296462,7.1759347 5.0769044,7.3398741 5.6579694,7.8984375 5.8591181,8.0917969 6.0324256,8.25 6.0430972,8.25 6.0537687,8.25 6.0625,7.2186078 6.0625,5.9580172 6.0625,3.7680556 6.06521,3.6581609 6.123356,3.4891525 6.3561125,2.8126345 6.8462475,2.3259864 7.484375,2.1378159 7.7146766,2.0699048 8.2521275,2.0617283 8.5,2.1223648 9.1458341,2.2803536 9.666605,2.7878343 9.9105728,3.4969397 9.9652431,3.6558419 9.96875,3.8041894 9.96875,5.9580172 9.96875,7.2186078 9.9774341,8.25 9.9880481,8.25 c 0.010614,0 0.1769849,-0.1511719 0.3697129,-0.3359375 0.572131,-0.5484944 0.918488,-0.7083731 1.532864,-0.7075716 0.237239,3.125e-4 0.401847,0.017671 0.53125,0.056032 0.625188,0.1853331 1.112479,0.6575672 1.329536,1.2884541 0.0481,0.1397937 0.06101,0.2612593 0.06072,0.5711031 -7.03e-4,0.7458528 -0.07005,0.8741587 -0.988946,1.8297219 -0.730006,0.759136 -2.563644,2.58768 -3.3147727,3.305562 -0.4662609,0.445624 -0.6014628,0.534325 -0.9615353,0.630826 -0.1910178,0.05119 -0.7178341,0.08865 -0.859375,0.0611 z m 0.6001056,-1.04428 c 0.063652,-0.01768 0.1902144,-0.09082 0.28125,-0.162538 0.2078969,-0.16378 3.0750054,-3.009005 3.6417574,-3.61396 C 12.769261,9.5322041 12.8125,9.4622772 12.8125,9.1551231 12.8125,8.9512066 12.798509,8.888235 12.716937,8.7249934 12.553041,8.3970088 12.31374,8.2470019 11.919899,8.2253669 11.508938,8.2027916 11.558721,8.1645981 10.025694,9.6786025 9.4812325,10.216309 9.0225122,10.65625 9.0063159,10.65625 c -0.018164,0 -0.034947,-1.3141784 -0.043799,-3.4296875 L 8.9481644,3.796875 8.8664381,3.6372675 C 8.75085,3.4115288 8.6547025,3.3075863 8.4635225,3.2016859 8.313565,3.1186201 8.2687072,3.109375 8.015625,3.109375 c -0.2530822,0 -0.29794,0.00925 -0.4478975,0.092311 C 7.3767434,3.3074778 7.2807066,3.4112116 7.1644656,3.6372675 L 7.0823934,3.796875 7.0685894,7.2265625 C 7.0602525,9.2978516 7.0433316,10.65625 7.0258672,10.65625 7.0099625,10.65625 6.54412,10.209339 5.9906622,9.6631147 4.4368878,8.1296481 4.4913531,8.1715256 4.0801012,8.1941169 3.6862603,8.2157519 3.4469594,8.3657588 3.2830634,8.6937434 3.2014906,8.856985 3.1875,8.9199566 3.1875,9.1238731 c 0,0.2101057 0.010957,0.2561682 0.090933,0.3822775 0.145726,0.229786 0.8810172,0.9919724 2.5987644,2.6938204 1.7607597,1.744462 1.7514659,1.736801 2.1071775,1.737049 0.103125,6.3e-5 0.2395788,-0.01433 0.3032306,-0.03201 z"
       id="path819"
       inkscape:connector-curvature="0" />
  </g>
</svg>
