<?xml version="1.0" encoding="UTF-8" standalone="no"?>
<!-- Created with Inkscape (http://www.inkscape.org/) -->

<svg
   xmlns:dc="http://purl.org/dc/elements/1.1/"
   xmlns:cc="http://creativecommons.org/ns#"
   xmlns:rdf="http://www.w3.org/1999/02/22-rdf-syntax-ns#"
   xmlns:svg="http://www.w3.org/2000/svg"
   xmlns="http://www.w3.org/2000/svg"
   xmlns:sodipodi="http://sodipodi.sourceforge.net/DTD/sodipodi-0.dtd"
   xmlns:inkscape="http://www.inkscape.org/namespaces/inkscape"
   version="1.1"
   id="svg2"
   width="16"
   height="16"
   viewBox="0 0 16 16"
   sodipodi:docname="LINKED.svg"
   inkscape:version="0.92.4 (5da689c313, 2019-01-14)">
  <metadata
     id="metadata8">
    <rdf:RDF>
      <cc:Work
         rdf:about="">
        <dc:format>image/svg+xml</dc:format>
        <dc:type
           rdf:resource="http://purl.org/dc/dcmitype/StillImage" />
        <dc:title></dc:title>
      </cc:Work>
    </rdf:RDF>
  </metadata>
  <defs
     id="defs6" />
  <sodipodi:namedview
     pagecolor="#ffffff"
     bordercolor="#666666"
     borderopacity="1"
     objecttolerance="10"
     gridtolerance="10"
     guidetolerance="10"
     inkscape:pageopacity="0"
     inkscape:pageshadow="2"
     inkscape:window-width="828"
     inkscape:window-height="745"
     id="namedview4"
     showgrid="false"
     inkscape:zoom="14.75"
     inkscape:cx="8"
     inkscape:cy="8"
     inkscape:window-x="0"
     inkscape:window-y="0"
     inkscape:window-maximized="0"
     inkscape:current-layer="svg2" />
  <g
     id="LINKED">
    <path
       style="fill:#ffffff;stroke-width:0.03125"
       d="M 0,8 V 0 H 2.5 5 l 1.25e-4,0.5859375 C 5.00025,1.2314868 5.044206,1.5902506 5.1705391,1.9772614 5.3529903,2.5361848 5.7135156,3.1002828 6.1329344,3.4830784 6.2561231,3.5955103 6.3687444,3.6875 6.3832037,3.6875 c 0.01446,0 -0.055299,0.068635 -0.1550193,0.1525216 -0.619216,0.5208965 -1.0484735,1.2879078 -1.1822016,2.1123956 -0.065388,0.4031453 -0.065388,2.6920203 0,3.0951656 0.1483038,0.9143519 0.646276,1.7296012 1.3915166,2.2781062 0.1117187,0.08223 0.203125,0.160666 0.203125,0.174311 0,0.01365 -0.091406,0.09209 -0.203125,0.174311 -0.7452407,0.548505 -1.2432128,1.363754 -1.3915166,2.278106 -0.032382,0.199647 -0.045769,0.539674 -0.045858,1.164771 L 5,16 H 2.5 0 Z m 8,7.5 V 15 H 8.5 9 V 15.5 16 H 8.5 8 Z m 3.999874,-0.382812 c -9.3e-5,-0.625097 -0.01348,-0.965124 -0.04586,-1.164771 C 11.805713,13.038065 11.307741,12.222816 10.5625,11.674311 10.450781,11.592085 10.359375,11.513645 10.359375,11.5 c 0,-0.01365 0.09141,-0.09209 0.203125,-0.174311 0.745241,-0.548505 1.243213,-1.3637543 1.391517,-2.2781062 0.06539,-0.4031453 0.06539,-2.6920203 0,-3.0951656 C 11.820288,5.1279294 11.391031,4.3609181 10.771815,3.8400216 10.672095,3.7561347 10.602336,3.6875 10.616796,3.6875 c 0.01446,0 0.12708,-0.09199 0.250269,-0.2044216 0.419419,-0.3827956 0.779944,-0.9468936 0.962395,-1.505817 0.126333,-0.3870108 0.170276,-0.7457746 0.170414,-1.3913239 L 12,0 h 2 2 v 8 8 H 14 12 Z M 8,7.5 V 7 H 8.5 9 V 7.5 8 H 8.5 8 Z"
       id="path825"
       inkscape:connector-curvature="0" />
    <path
       style="fill:#fefefe;stroke-width:0.03125"
       d="m 6,15.216923 c 0,-1.046378 0.04637,-1.339457 0.2889534,-1.826298 0.1403675,-0.281704 0.3939713,-0.613498 0.583895,-0.763921 L 7,12.525998 V 14.262999 16 H 6.5 6 Z m 4,-0.953924 v -1.737001 l 0.127152,0.100706 c 0.189923,0.150423 0.443527,0.482217 0.583895,0.763921 C 10.95363,13.877466 11,14.170545 11,15.216923 V 16 H 10.5 10 Z M 8,11.5 V 9 H 8.5 9 V 11.5 14 H 8.5 8 Z M 6.8534163,10.357711 C 6.6585756,10.194328 6.4300359,9.8911728 6.2892675,9.609375 6.0338994,9.0981653 6,8.8509656 6,7.5 6,6.4430809 6.0198866,6.1537397 6.1159822,5.8125 6.2304234,5.4061134 6.5797178,4.8588678 6.8728484,4.6267041 L 7,4.5259981 v 2.971376 C 7,9.1316309 6.99648,10.468475 6.99219,10.468138 6.98789,10.467801 6.925446,10.418108 6.8534188,10.357711 Z M 10,7.5 V 4.5259981 l 0.127152,0.100706 C 10.420282,4.8588678 10.769577,5.4061134 10.884018,5.8125 10.980113,6.1537397 11,6.4430809 11,7.5 c 0,1.0569191 -0.01989,1.3462603 -0.115982,1.6875 -0.114441,0.4063866 -0.463736,0.953632 -0.756866,1.185796 L 10,10.474002 Z M 8,3.5 V 1 H 8.5 9 V 3.5 6 H 8.5 8 Z M 6.8534163,2.7639614 C 6.6585756,2.6005783 6.4300359,2.2974228 6.2892675,2.015625 6.0658512,1.5683779 6,1.2202076 6,0.48620147 V 0 H 6.5 7 V 1.4375 C 7,2.228125 6.99648,2.8747248 6.99219,2.8743884 6.98789,2.8740518 6.925446,2.8243594 6.8534188,2.7639614 Z M 10,1.4401259 V 0 H 10.5 11 V 0.48620147 C 11,1.2196791 10.934255,1.5676683 10.711047,2.015625 10.570679,2.2973289 10.317075,2.6291235 10.127152,2.779546 L 10,2.8802518 Z"
       id="path823"
       inkscape:connector-curvature="0" />
    <path
       style="fill:#656565;stroke-width:0.03125"
       d="M 7.6110609,14.936733 C 7.3977378,14.853449 7.1415391,14.594703 7.0620584,14.382272 7.0018953,14.221471 7,14.133449 7,11.5 7,8.37753 6.9804628,8.5937316 7.2902737,8.2877691 7.5607144,8.0206881 7.6476831,8 8.5,8 9.3523169,8 9.4392856,8.0206881 9.7097262,8.2877691 10.019537,8.5937316 10,8.37753 10,11.5 c 0,3.12247 0.01954,2.906268 -0.2902738,3.212231 -0.2714543,0.268082 -0.3563553,0.288041 -1.217874,0.286307 -0.6411903,-0.0013 -0.7443256,-0.0085 -0.8807913,-0.0618 z M 9,11.5 V 9 H 8.5 8 V 11.5 14 H 8.5 9 Z M 7.6110609,6.9367328 C 7.3977378,6.8534487 7.1415391,6.5947028 7.0620584,6.3822719 7.0018953,6.2214709 7,6.1334488 7,3.5 7,0.37753003 6.9804628,0.59373166 7.2902737,0.28776918 7.5607144,0.02068811 7.6476831,0 8.5,0 9.3523169,0 9.4392856,0.02068811 9.7097262,0.28776918 10.019537,0.59373166 10,0.37753003 10,3.5 10,6.62247 10.019537,6.4062684 9.7097262,6.7122309 9.4382719,6.9803131 9.3533709,7.0002722 8.4918522,6.9985384 7.8506619,6.9972478 7.7475266,6.9900106 7.6110609,6.9367328 Z M 9,3.5 V 1 H 8.5 8 V 3.5 6 H 8.5 9 Z"
       id="path821"
       inkscape:connector-curvature="0" />
    <path
       style="fill:#323232;stroke-width:0.03125"
       d="m 5.0001256,15.117188 c 9.38e-5,-0.625097 0.013476,-0.965124 0.045858,-1.164771 C 5.1942872,13.038065 5.6922594,12.222816 6.4375,11.674311 6.5492187,11.592085 6.640625,11.513645 6.640625,11.5 6.640625,11.48635 6.549219,11.40791 6.4375,11.325689 5.6922594,10.777184 5.1942872,9.9619347 5.0459834,9.0475828 c -0.065388,-0.4031453 -0.065388,-2.6920203 0,-3.0951656 C 5.1797116,5.1279294 5.6089691,4.3609181 6.228185,3.8400216 6.3279053,3.7561347 6.3976641,3.6875 6.3832044,3.6875 6.368745,3.6875 6.2561238,3.5955103 6.132935,3.4830784 5.7135162,3.1002828 5.3529909,2.5361848 5.1705397,1.9772614 5.0442069,1.5902506 5.0002641,1.2314868 5.0001256,0.5859375 L 5,0 H 5.5 6 V 0.48620147 C 6,1.2202076 6.0658512,1.5683779 6.2892675,2.015625 6.4330138,2.3033841 6.6637212,2.6069737 6.8623234,2.7697133 L 7,2.8825289 V 3.703125 4.5237213 L 6.8623234,4.6365369 C 6.6637212,4.7992762 6.4330137,5.1028659 6.2892675,5.390625 6.0338994,5.9018347 6,6.1490344 6,7.5 6,8.8509656 6.033899,9.0981653 6.2892675,9.609375 6.4330138,9.8971341 6.6637212,10.200724 6.8623234,10.363463 L 7,10.476279 V 11.5 12.523721 L 6.8623234,12.636537 C 6.6637212,12.799276 6.4330137,13.102866 6.2892675,13.390625 6.0464563,13.876698 6,14.170001 6,15.216923 V 16 H 5.5 5 Z m 2.001336,0 0.00146,-0.882813 0.060344,0.154564 C 7.1870428,14.705977 7.585705,15 7.8917972,15 H 8 V 15.5 16 H 7.5 7 L 7.00146,15.117188 Z M 9,15.5 V 15 h 0.1082028 c 0.3060922,0 0.7047544,-0.294023 0.82853,-0.611061 l 0.060344,-0.154564 0.00146,0.882813 L 10,16 H 9.5 9 Z m 2,-0.283077 c 0,-1.046922 -0.04646,-1.340225 -0.289267,-1.826298 -0.143747,-0.287759 -0.374454,-0.591349 -0.573056,-0.754088 L 10,12.523721 V 11.5 10.476279 l 0.137677,-0.112816 C 10.336279,10.200724 10.566986,9.8971341 10.710733,9.609375 10.966101,9.0981653 11,8.8509656 11,7.5 11,6.1490344 10.966101,5.9018347 10.710733,5.390625 10.566986,5.1028659 10.336279,4.7992762 10.137677,4.6365369 L 10,4.5237213 V 3.703125 2.8825289 L 10.137677,2.7697133 C 10.336279,2.6069737 10.566986,2.3033841 10.710733,2.015625 10.934149,1.5683779 11,1.2202076 11,0.48620147 V 0 h 0.5 0.5 l -1.25e-4,0.5859375 c -1.87e-4,0.8749839 -0.08975,1.315241 -0.388643,1.9103665 -0.212138,0.4223924 -0.48869,0.7748866 -0.839416,1.0699244 -0.09972,0.083887 -0.169479,0.1525216 -0.15502,0.1525216 0.01446,0 0.127081,0.09199 0.25027,0.2044216 0.56197,0.5129 0.962198,1.2600903 1.086951,2.0292456 0.06539,0.4031453 0.06539,2.6920203 0,3.0951656 -0.148304,0.9143519 -0.646276,1.7296012 -1.391516,2.2781062 -0.111719,0.08223 -0.203125,0.160666 -0.203125,0.174311 0,0.01365 0.09141,0.09209 0.203125,0.174311 0.74524,0.548505 1.243212,1.363754 1.391516,2.278106 0.03238,0.199647 0.04577,0.539674 0.04586,1.164771 L 12,16 H 11.5 11 Z M 7.0029234,7.5 V 6.234375 l 0.060344,0.1545641 C 7.1870428,6.7059769 7.585705,7 7.8917972,7 H 8 V 7.5 8 H 7.8917972 C 7.585705,8 7.1870428,8.2940231 7.0632672,8.6110609 L 7.0029234,8.765625 Z m 2.936681,1.1197003 C 9.8820272,8.4275247 9.5986866,8.1430297 9.3853863,8.0632238 9.2924469,8.0284506 9.1677144,8 9.1082028,8 H 9 V 7.5 7 H 9.1082028 C 9.414295,7 9.8129572,6.7059769 9.9367328,6.3889391 l 0.060344,-0.1545641 0.00146,1.2578125 C 9.9993422,8.1839844 9.9951953,8.75 9.9893222,8.75 9.9834491,8.75 9.9610763,8.691365 9.9396044,8.6197003 Z M 7.0016284,0.3828125 7,0 7.3828125,0.0014617 7.765625,0.0029234 7.6110609,0.06326715 C 7.4041306,0.14405534 7.1419047,0.40537169 7.0636025,0.60882684 L 7.0032566,0.765625 Z m 2.937976,0.23688778 C 9.883825,0.43352588 9.5987259,0.14339792 9.3942869,0.06476395 L 9.234375,0.00325659 9.6171875,0.0016283 10,0 V 0.375 C 10,0.58125 9.99519,0.75 9.989322,0.75 9.983452,0.75 9.961076,0.6913651 9.9396044,0.61970028 Z"
       id="path819"
       inkscape:connector-curvature="0" />
  </g>
</svg>
