<?xml version="1.0" encoding="UTF-8" standalone="no"?>
<!-- Created with Inkscape (http://www.inkscape.org/) -->

<svg
   xmlns:dc="http://purl.org/dc/elements/1.1/"
   xmlns:cc="http://creativecommons.org/ns#"
   xmlns:rdf="http://www.w3.org/1999/02/22-rdf-syntax-ns#"
   xmlns:svg="http://www.w3.org/2000/svg"
   xmlns="http://www.w3.org/2000/svg"
   xmlns:sodipodi="http://sodipodi.sourceforge.net/DTD/sodipodi-0.dtd"
   xmlns:inkscape="http://www.inkscape.org/namespaces/inkscape"
   version="1.1"
   id="svg2"
   width="163.84"
   height="163.84"
   viewBox="0 0 163.84 163.84"
   sodipodi:docname="PROP_PROJECTED.svg"
   inkscape:version="0.92.4 (5da689c313, 2019-01-14)">
  <metadata
     id="metadata8">
    <rdf:RDF>
      <cc:Work
         rdf:about="">
        <dc:format>image/svg+xml</dc:format>
        <dc:type
           rdf:resource="http://purl.org/dc/dcmitype/StillImage" />
        <dc:title></dc:title>
      </cc:Work>
    </rdf:RDF>
  </metadata>
  <defs
     id="defs6" />
  <sodipodi:namedview
     pagecolor="#ffffff"
     bordercolor="#666666"
     borderopacity="1"
     objecttolerance="10"
     gridtolerance="10"
     guidetolerance="10"
     inkscape:pageopacity="0"
     inkscape:pageshadow="2"
     inkscape:window-width="1168"
     inkscape:window-height="838"
     id="namedview4"
     showgrid="false"
     inkscape:zoom="2.0370752"
     inkscape:cx="56.035867"
     inkscape:cy="106.14254"
     inkscape:window-x="0"
     inkscape:window-y="0"
     inkscape:window-maximized="0"
     inkscape:current-layer="svg2" />
  <g
     id="PROP_PROJECTED">
    <path
       style="fill:#ffffff;stroke-width:0.03125"
       d="m 0,155.84 v -8 h 8 8 v 1 1 l -4.164062,2.5e-4 c -2.582619,1.6e-4 -4.2708774,0.0122 -4.445313,0.0317 -2.1104091,0.23582 -3.8879037,1.48835 -4.795018,3.37886 -1.0216913,2.12929 -0.7064207,4.62218 0.8156758,6.44965 0.240411,0.28864 0.7674193,0.79668 0.9637172,0.92902 0.060156,0.0406 0.221875,0.15027 0.359375,0.24379 0.3902537,0.26546 1.1633263,0.62531 1.578125,0.73458 0.2079438,0.0548 0.4400354,0.1083 0.53125,0.1225 0.1991666,0.031 0.3273497,0.0552 0.390625,0.0736 0.034375,0.01 2.0207031,0.0227 4.414063,0.0282 L 16,161.84207 v 0.99897 0.99896 H 8 0 Z m 10.21875,1.96808 c 0,-0.0176 0.07031,-0.12139 0.15625,-0.23075 0.08594,-0.10935 0.15625,-0.21262 0.15625,-0.22949 0,-0.0169 0.02915,-0.0677 0.06477,-0.113 0.03562,-0.0453 0.05639,-0.0823 0.04615,-0.0823 -0.01024,0 0.0033,-0.0334 0.03003,-0.0742 0.02675,-0.0408 0.0552,-0.10412 0.06322,-0.14063 0.008,-0.0365 0.02027,-0.0918 0.02724,-0.12279 0.007,-0.031 0.03622,-0.11187 0.06503,-0.17968 0.05595,-0.13173 0.06793,-0.19555 0.09645,-0.51392 0.02265,-0.25288 0.02265,-0.30962 0,-0.5625 -0.02851,-0.31837 -0.04049,-0.38219 -0.09645,-0.51392 -0.0288,-0.0678 -0.05807,-0.14867 -0.06503,-0.17968 -0.007,-0.031 -0.01922,-0.0863 -0.02724,-0.12279 -0.008,-0.0365 -0.03647,-0.0998 -0.06322,-0.14063 -0.02675,-0.0408 -0.04026,-0.0742 -0.03003,-0.0742 0.01024,0 -0.01053,-0.037 -0.04615,-0.0823 -0.03562,-0.0453 -0.06477,-0.0961 -0.06477,-0.113 0,-0.0169 -0.07031,-0.12014 -0.15625,-0.22949 -0.08594,-0.10936 -0.15625,-0.21319 -0.15625,-0.23075 0,-0.0215 0.943876,-0.0319 2.890625,-0.0319 H 16 v 2 2 h -2.890625 c -1.946749,0 -2.890625,-0.0104 -2.890625,-0.0319 z"
       id="path827"
       inkscape:connector-curvature="0" />
    <path
       style="fill:#fefefe;stroke-width:0.03125"
       d="m 4.9079166,158.30703 c -0.6815176,-0.84727 -1.0084041,-2.04544 -0.8307828,-3.04516 0.086298,-0.48571 0.1691787,-0.73659 0.3923003,-1.1875 0.5724565,-1.15686 1.5593453,-1.88303 2.9368159,-2.16094 0.2412388,-0.0487 0.6479131,-0.0546 4.429688,-0.0646 L 16,151.83784 v 0.50108 0.50108 l -3.960937,1.6e-4 c -3.820598,1.5e-4 -3.9740995,0.002 -4.3324083,0.0629 -0.4953984,0.0836 -0.6669526,0.13622 -1.0192425,0.31246 -0.9028425,0.45168 -1.4784244,1.28627 -1.6288963,2.36189 -0.090217,0.6449 0.1861007,1.53123 0.6570691,2.10763 l 0.1901137,0.23268 -0.3507771,0.35177 c -0.1929276,0.19349 -0.3605604,0.35179 -0.3725175,0.35179 -0.011957,0 -0.1354766,-0.1414 -0.2744875,-0.31422 z m 1.6096837,-1.25328 C 6.2666631,156.76306 6.0625,156.21856 6.0625,155.84 c 0,-0.52653 0.3013456,-1.1388 0.7331854,-1.48967 C 7.1160656,154.09002 7.6203412,153.9025 8,153.9025 c 0.3827797,0 0.9349229,0.20829 1.2126325,0.45745 l 0.1345075,0.12067 -0.3597769,0.35758 c -0.3401656,0.33809 -0.362875,0.35477 -0.4166053,0.30615 C 8.4582878,155.04256 8.1542487,154.92654 8,154.92654 c -0.1888703,0 -0.4734528,0.12567 -0.6302822,0.27834 -0.1514097,0.14739 -0.2831793,0.44351 -0.2831793,0.63638 0,0.15307 0.1165031,0.45756 0.2179712,0.56968 0.048844,0.054 0.032389,0.0762 -0.3091212,0.41771 l -0.3607116,0.36072 z"
       id="path825"
       inkscape:connector-curvature="0" />
    <path
       style="fill:#98cbfe;stroke-width:0.03125"
       d="m 7.99328,159.82286 c -0.00942,-0.009 -0.1137219,-0.0239 -0.2317706,-0.0323 -0.3263932,-0.0231 -0.4842313,-0.0413 -0.5558406,-0.0644 -0.035774,-0.0115 -0.093169,-0.0253 -0.1275438,-0.0306 -0.034375,-0.005 -0.146875,-0.0392 -0.25,-0.0754 -0.103125,-0.0362 -0.21386,-0.0714 -0.2460778,-0.0782 -0.032217,-0.007 -0.091983,-0.0343 -0.1328125,-0.061 -0.040829,-0.0268 -0.074235,-0.0408 -0.074235,-0.0312 0,0.01 -0.031641,-9e-5 -0.070312,-0.0216 -0.038672,-0.0215 -0.077344,-0.04 -0.085937,-0.0412 -0.00859,-10e-4 -0.075111,-0.0404 -0.1478166,-0.087 -0.072705,-0.0467 -0.140994,-0.0849 -0.1517527,-0.0849 -0.010759,0 -0.072828,-0.0422 -0.1379307,-0.0937 -0.065103,-0.0516 -0.1304078,-0.0938 -0.1451219,-0.0939 -0.014714,-6e-5 -0.1140859,-0.078 -0.220826,-0.17327 -0.1067396,-0.0952 -0.2028333,-0.17133 -0.2135415,-0.16913 -0.065065,0.0134 -0.00517,-0.058 0.3245194,-0.38688 0.3654875,-0.36453 0.3682919,-0.36653 0.4256591,-0.30314 0.031761,0.0351 0.069933,0.0638 0.084825,0.0638 0.014893,0 0.1165484,0.0703 0.2259018,0.15625 0.1093534,0.0859 0.2126241,0.15625 0.2294901,0.15625 0.016866,0 0.067718,0.0291 0.1130046,0.0648 0.045287,0.0356 0.082339,0.0564 0.082339,0.0461 0,-0.0102 0.033406,0.003 0.074235,0.03 0.040829,0.0267 0.1041106,0.0552 0.140625,0.0632 0.036515,0.008 0.091768,0.0203 0.1227862,0.0272 0.031018,0.007 0.111877,0.0362 0.1796875,0.065 0.1437082,0.061 0.2544953,0.0782 0.7561041,0.1172 0.021484,0.002 0.039063,0.0148 0.039063,0.0291 0,0.0143 1.8,0.026 3.9999999,0.026 h 4 v 0.5 0.5 h -3.994792 c -2.1971347,0 -4.0025026,-0.008 -4.0119279,-0.0171 z M 7.965563,157.7639 c -0.00686,-0.007 -0.096834,-0.0189 -0.199952,-0.0267 -0.1031175,-0.008 -0.229674,-0.0314 -0.2812365,-0.0522 -0.089263,-0.0362 -0.1219175,-0.0457 -0.2652672,-0.0774 -0.034178,-0.008 -0.1093338,-0.0498 -0.1670122,-0.0937 -0.057678,-0.044 -0.1176053,-0.08 -0.1331703,-0.0801 -0.015565,-4e-5 -0.088808,-0.0528 -0.1627628,-0.11719 l -0.134462,-0.11724 0.3550725,-0.35292 0.3550725,-0.35293 0.084077,0.0661 c 0.046242,0.0364 0.084078,0.0578 0.084078,0.0475 0,-0.0102 0.035156,0.004 0.078125,0.0326 0.042969,0.0282 0.078125,0.0433 0.078125,0.0336 0,-0.01 0.046659,0.002 0.1036875,0.0257 0.1198294,0.0501 0.4111216,0.0437 0.5137472,-0.0112 0.038536,-0.0206 0.070065,-0.0295 0.070065,-0.0197 0,0.01 0.031641,2.9e-4 0.070312,-0.0212 0.038672,-0.0214 0.079619,-0.0364 0.090993,-0.0333 0.011374,0.003 0.077757,-0.0514 0.1475184,-0.12112 0.069761,-0.0698 0.1242644,-0.13614 0.1211185,-0.14752 -0.00315,-0.0114 0.011825,-0.0523 0.033269,-0.091 0.021444,-0.0387 0.03218,-0.0703 0.023859,-0.0703 -0.00832,0 0.00437,-0.0467 0.028194,-0.10369 0.050068,-0.11983 0.04371,-0.41112 -0.011214,-0.51374 -0.020624,-0.0385 -0.028354,-0.0701 -0.017179,-0.0701 0.011175,0 -0.00272,-0.0352 -0.030871,-0.0781 -0.028154,-0.043 -0.042813,-0.0781 -0.032576,-0.0781 0.010238,0 -0.011148,-0.0378 -0.047522,-0.0841 l -0.066135,-0.0841 0.3529297,-0.35508 0.3529297,-0.35507 0.1171031,0.13446 c 0.064407,0.074 0.1171409,0.1472 0.1171875,0.16277 3.13e-5,0.0156 0.036079,0.0755 0.080072,0.13317 0.043993,0.0577 0.086181,0.13283 0.09375,0.16701 0.031742,0.14333 0.041278,0.176 0.077438,0.26526 0.047501,0.11727 0.059244,0.21948 0.059244,0.51563 0,0.29615 -0.011743,0.39836 -0.059244,0.51562 -0.036159,0.0893 -0.045695,0.12194 -0.077438,0.26527 -0.00757,0.0342 -0.049757,0.10934 -0.09375,0.16701 -0.043993,0.0577 -0.079988,0.12181 -0.079988,0.1425 0,0.0491 -0.4542869,0.50335 -0.5033506,0.50335 -0.020694,0 -0.084817,0.036 -0.142495,0.08 -0.057678,0.044 -0.1328338,0.0862 -0.1670122,0.0937 -0.143105,0.0317 -0.1759803,0.0413 -0.2652672,0.0772 -0.051562,0.0208 -0.1640625,0.0432 -0.25,0.0498 -0.085937,0.007 -0.1858028,0.0188 -0.2219231,0.027 -0.03612,0.008 -0.071283,0.009 -0.078138,0.002 z"
       id="path823"
       inkscape:connector-curvature="0" />
    <path
       style="fill:#3298fe;stroke-width:0.03125"
       d="m 7.714474,160.82579 c -0.00624,-0.006 -0.1027553,-0.0209 -0.214474,-0.0332 -0.3465115,-0.038 -0.3881016,-0.0434 -0.4757463,-0.0612 -0.046817,-0.01 -0.1225953,-0.0316 -0.1683965,-0.049 -0.045801,-0.0174 -0.090139,-0.0248 -0.098528,-0.0164 -0.00839,0.008 -0.055658,-0.006 -0.105041,-0.0312 -0.049383,-0.0255 -0.089788,-0.0395 -0.089788,-0.0311 0,0.008 -0.063281,-0.0118 -0.140625,-0.045 -0.077344,-0.0332 -0.140625,-0.0534 -0.140625,-0.045 0,0.008 -0.042187,-0.007 -0.09375,-0.0332 -0.051563,-0.0267 -0.09375,-0.0408 -0.09375,-0.0313 0,0.009 -0.037268,-0.007 -0.082818,-0.0371 -0.04555,-0.0299 -0.1012926,-0.057 -0.1238728,-0.0603 -0.02258,-0.003 -0.08375,-0.0364 -0.1359323,-0.0736 -0.052182,-0.0371 -0.094877,-0.0586 -0.094877,-0.0477 0,0.0109 -0.042187,-0.0101 -0.09375,-0.0469 -0.051563,-0.0367 -0.09375,-0.0576 -0.09375,-0.0464 0,0.0112 -0.054758,-0.023 -0.1216844,-0.076 -0.066926,-0.053 -0.1317297,-0.0964 -0.1440065,-0.0964 -0.029349,0 -0.3895432,-0.28723 -0.4650482,-0.37084 -0.032375,-0.0358 -0.070123,-0.0582 -0.083884,-0.0497 -0.030181,0.0186 -0.5383219,-0.57193 -0.7515678,-0.8735 -0.6181135,-0.87412 -0.9773921,-2.18312 -0.8753789,-3.18934 0.075933,-0.74898 0.2347505,-1.29997 0.5544317,-1.92351 0.4723087,-0.92123 1.2152509,-1.66417 2.1364821,-2.13648 0.6022219,-0.30875 1.1454113,-0.46954 1.850987,-0.54791 0.2014665,-0.0224 1.6692427,-0.0337 4.3671879,-0.0337 H 16 v 0.49892 0.49892 l -4.164062,0.011 c -3.7817749,0.01 -4.1884492,0.0159 -4.429688,0.0646 -0.4910125,0.0991 -0.7322244,0.17921 -1.1467203,0.381 -0.8080644,0.39339 -1.3906081,0.97263 -1.7900956,1.77994 -0.2231216,0.45091 -0.3060026,0.70179 -0.3923003,1.1875 -0.1793301,1.00934 0.1508746,2.20541 0.8454862,3.06253 0.1460203,0.18018 0.265354,0.33475 0.2651857,0.34348 -1.563e-4,0.009 0.010241,0.0179 0.023132,0.0203 0.012891,0.002 0.1078125,0.0797 0.2109375,0.17174 0.103125,0.092 0.1995388,0.16733 0.2142531,0.16741 0.014714,6e-5 0.080019,0.0423 0.1451219,0.0939 0.065103,0.0516 0.1271716,0.0937 0.1379307,0.0937 0.010759,0 0.079047,0.0382 0.1517527,0.0849 0.072705,0.0467 0.1392229,0.0859 0.1478166,0.087 0.00859,0.001 0.047266,0.0197 0.085937,0.0412 0.038672,0.0215 0.070312,0.0312 0.070312,0.0216 0,-0.01 0.033406,0.004 0.074235,0.0312 0.040829,0.0267 0.100595,0.0542 0.1328125,0.061 0.032218,0.007 0.1429528,0.042 0.2460778,0.0782 0.103125,0.0362 0.215625,0.0701 0.25,0.0754 0.034375,0.005 0.09177,0.0191 0.1275438,0.0306 0.035774,0.0115 0.1271802,0.0277 0.203125,0.036 0.075945,0.008 0.2083937,0.0232 0.2943312,0.0332 0.085937,0.01 1.9878906,0.0244 4.2265635,0.0321 L 16,159.84136 v 0.50012 0.50013 l -4.137089,-0.002 c -2.2753982,-0.001 -4.1421951,-0.007 -4.148437,-0.0133 z m 0.043338,-4.12696 c -0.055859,-0.0238 -0.1015625,-0.0365 -0.1015625,-0.0281 0,0.008 -0.031641,-0.002 -0.070312,-0.0238 -0.038672,-0.0215 -0.077344,-0.0397 -0.085937,-0.0404 -0.13897,-0.0119 -0.4134615,-0.51894 -0.4134615,-0.76378 0,-0.19439 0.1311881,-0.48988 0.2831793,-0.63784 0.1574316,-0.15325 0.4413431,-0.27834 0.6317434,-0.27834 0.1413591,0 0.3978869,0.0984 0.6074382,0.233 0.059235,0.038 0.1547831,0.14745 0.1576047,0.18046 7.324e-4,0.009 0.01891,0.0473 0.04039,0.0859 0.02148,0.0387 0.032246,0.0703 0.023925,0.0703 -0.00832,0 0.00437,0.0467 0.028194,0.10369 0.050068,0.11983 0.04371,0.41112 -0.011214,0.51374 -0.020624,0.0385 -0.029477,0.0701 -0.019674,0.0701 0.0098,0 2.832e-4,0.0316 -0.021165,0.0703 -0.021444,0.0387 -0.036415,0.0796 -0.033269,0.091 0.00315,0.0114 -0.051357,0.0778 -0.1211185,0.14752 -0.069761,0.0698 -0.136144,0.12427 -0.1475184,0.12112 -0.011374,-0.003 -0.052321,0.0118 -0.090993,0.0333 -0.038672,0.0214 -0.070312,0.031 -0.070312,0.0212 0,-0.01 -0.031389,-0.001 -0.069752,0.0195 -0.102585,0.0549 -0.3986391,0.0613 -0.516185,0.0112 z"
       id="path821"
       inkscape:connector-curvature="0" />
    <path
       style="fill:#233458;stroke-width:0.03125"
       d="m 7.5598959,161.82847 c -0.00716,-0.006 -0.1227972,-0.0201 -0.2569681,-0.0305 -0.134171,-0.0104 -0.2537022,-0.0248 -0.265625,-0.032 -0.011923,-0.007 -0.084959,-0.0217 -0.1623028,-0.0324 -0.1173307,-0.0162 -0.3105122,-0.0593 -0.5625,-0.12574 -0.4147987,-0.10927 -1.1878713,-0.46912 -1.578125,-0.73457 -0.1375,-0.0935 -0.2992187,-0.20324 -0.359375,-0.2438 -0.1962979,-0.13234 -0.7233062,-0.64037 -0.9637172,-0.92902 -1.5214222,-1.82666 -1.837301,-4.32042 -0.816695,-6.44754 0.6016763,-1.254 1.5635429,-2.21624 2.8162112,-2.8173 0.629901,-0.30225 1.2692366,-0.48427 1.979826,-0.56367 0.1744356,-0.0195 1.862694,-0.0315 4.445313,-0.0317 L 16,149.84 v 0.5 0.5 h -4.063731 c -2.6979453,0 -4.1657215,0.0113 -4.367188,0.0337 -0.7055757,0.0784 -1.2487651,0.23916 -1.850987,0.54791 -0.9212312,0.47231 -1.6641734,1.21525 -2.1364821,2.13648 -0.3196812,0.62354 -0.4784986,1.17453 -0.5544317,1.92351 -0.057738,0.5695 0.038043,1.30229 0.2551589,1.95215 0.1205125,0.36071 0.4129878,0.94413 0.62022,1.23719 0.2132459,0.30157 0.7213872,0.89215 0.7515678,0.8735 0.013761,-0.009 0.051509,0.0139 0.083884,0.0497 0.075505,0.0836 0.4356991,0.37084 0.4650482,0.37084 0.012277,0 0.07708,0.0434 0.1440065,0.0964 0.066926,0.053 0.1216844,0.0872 0.1216844,0.076 0,-0.0112 0.042187,0.01 0.09375,0.0464 0.051563,0.0367 0.09375,0.0578 0.09375,0.0469 0,-0.0109 0.042695,0.0105 0.094877,0.0477 0.052183,0.0372 0.113352,0.0703 0.1359323,0.0736 0.02258,0.003 0.078323,0.0304 0.1238728,0.0603 0.04555,0.0298 0.082818,0.0465 0.082818,0.0371 0,-0.009 0.042187,0.005 0.09375,0.0313 0.051563,0.0267 0.09375,0.0416 0.09375,0.0332 0,-0.008 0.063281,0.0118 0.140625,0.045 0.077344,0.0332 0.140625,0.0534 0.140625,0.045 0,-0.008 0.040405,0.006 0.089788,0.0311 0.049383,0.0255 0.096652,0.0396 0.105041,0.0312 0.00839,-0.008 0.052727,-0.001 0.098528,0.0164 0.093636,0.0356 0.2086025,0.0611 0.3472678,0.0771 0.051563,0.006 0.1851562,0.0215 0.296875,0.0346 0.3263562,0.0382 0.3338584,0.0383 4.5078131,0.0422 L 16,160.84 v 0.5 0.5 h -4.213542 c -2.3174476,0 -4.2194008,-0.005 -4.2265621,-0.0115 z M 8,158.81396 c 0,-0.0143 -0.017578,-0.0274 -0.039063,-0.0291 -0.5016088,-0.039 -0.6123959,-0.0562 -0.7561041,-0.1172 -0.067811,-0.0288 -0.1486699,-0.0581 -0.1796875,-0.065 -0.031018,-0.007 -0.086271,-0.0192 -0.1227862,-0.0272 -0.036514,-0.008 -0.099796,-0.0365 -0.140625,-0.0632 -0.040829,-0.0268 -0.074235,-0.0403 -0.074235,-0.03 0,0.0102 -0.037053,-0.0105 -0.082339,-0.0461 -0.045287,-0.0356 -0.096139,-0.0648 -0.1130046,-0.0648 -0.016866,0 -0.1201367,-0.0703 -0.2294901,-0.15625 -0.1093534,-0.0859 -0.2124731,-0.15625 -0.2291547,-0.15625 -0.016682,0 -0.069617,-0.0527 -0.1176337,-0.11719 -0.048017,-0.0645 -0.1548012,-0.1995 -0.2372984,-0.3001 -0.4314497,-0.52613 -0.706927,-1.44314 -0.6200632,-2.06407 0.1504719,-1.07562 0.7260538,-1.91021 1.6288963,-2.36189 0.3522899,-0.17624 0.5238441,-0.22884 1.0192425,-0.31246 0.3583088,-0.0605 0.5118103,-0.0627 4.3324087,-0.0629 L 16,152.84 v 0.5 0.5 h -2.890625 c -1.946749,0 -2.890625,0.0104 -2.890625,0.0319 0,0.0176 0.07031,0.12139 0.15625,0.23075 0.08594,0.10935 0.15625,0.21262 0.15625,0.22949 0,0.0169 0.02915,0.0677 0.06477,0.113 0.03562,0.0453 0.05639,0.0823 0.04615,0.0823 -0.01024,0 0.0033,0.0334 0.03003,0.0742 0.02675,0.0408 0.0552,0.10412 0.06322,0.14063 0.008,0.0365 0.02027,0.0918 0.02724,0.12279 0.007,0.031 0.03622,0.11187 0.06503,0.17968 0.05595,0.13173 0.06793,0.19555 0.09645,0.51392 0.02265,0.25288 0.02265,0.30962 0,0.5625 -0.02851,0.31837 -0.04049,0.38219 -0.09645,0.51392 -0.0288,0.0678 -0.05807,0.14867 -0.06503,0.17968 -0.007,0.031 -0.01922,0.0863 -0.02724,0.12279 -0.008,0.0365 -0.03647,0.0998 -0.06322,0.14063 -0.02675,0.0408 -0.04026,0.0742 -0.03003,0.0742 0.01024,0 -0.01053,0.037 -0.04615,0.0823 -0.03562,0.0453 -0.06477,0.0961 -0.06477,0.113 0,0.0169 -0.07031,0.12014 -0.15625,0.22949 -0.08594,0.10936 -0.15625,0.21319 -0.15625,0.23075 0,0.0215 0.943876,0.0319 2.890625,0.0319 H 16 v 0.5 0.5 h -4 c -2.2,0 -4,-0.0117 -4,-0.026 z m 0.265625,-1.07944 c 0.085937,-0.007 0.1984375,-0.0291 0.25,-0.0498 0.089287,-0.0359 0.1221622,-0.0455 0.2652672,-0.0772 0.034178,-0.008 0.1093338,-0.0498 0.1670122,-0.0937 0.057678,-0.044 0.1218013,-0.08 0.142495,-0.08 0.049064,0 0.5033506,-0.45429 0.5033506,-0.50335 0,-0.0207 0.035995,-0.0848 0.079988,-0.1425 0.043993,-0.0577 0.086181,-0.13283 0.09375,-0.16701 0.031742,-0.14333 0.041278,-0.176 0.077438,-0.26527 0.047501,-0.11726 0.059244,-0.21947 0.059244,-0.51562 0,-0.29615 -0.011743,-0.39836 -0.059244,-0.51563 -0.036159,-0.0893 -0.045695,-0.12193 -0.077438,-0.26526 -0.00757,-0.0342 -0.049757,-0.10934 -0.09375,-0.16701 -0.043993,-0.0577 -0.079988,-0.11503 -0.079988,-0.12745 0,-0.0522 -0.1672872,-0.23515 -0.3503744,-0.38312 C 8.8820206,154.08948 8.3966822,153.9025 8,153.9025 c -0.3796588,0 -0.8839344,0.18752 -1.2043146,0.44783 C 6.3638456,154.7012 6.0625,155.31347 6.0625,155.84 c 0,0.39668 0.1869844,0.88202 0.4790297,1.24338 0.1479703,0.18308 0.3308934,0.35037 0.3831231,0.35037 0.012415,0 0.069764,0.036 0.1274428,0.08 0.057678,0.044 0.1328338,0.0862 0.1670122,0.0937 0.1433497,0.0317 0.1760041,0.0413 0.2652672,0.0774 0.051563,0.0209 0.178119,0.0444 0.2812365,0.0522 0.1031179,0.008 0.193096,0.0199 0.199952,0.0267 0.00686,0.007 0.042018,0.006 0.078138,-0.002 0.03612,-0.008 0.1359856,-0.0203 0.2219231,-0.027 z"
       id="path819"
       inkscape:connector-curvature="0" />
  </g>
</svg>
