<?xml version="1.0" encoding="UTF-8" standalone="no"?>
<!-- Created with Inkscape (http://www.inkscape.org/) -->

<svg
   xmlns:dc="http://purl.org/dc/elements/1.1/"
   xmlns:cc="http://creativecommons.org/ns#"
   xmlns:rdf="http://www.w3.org/1999/02/22-rdf-syntax-ns#"
   xmlns:svg="http://www.w3.org/2000/svg"
   xmlns="http://www.w3.org/2000/svg"
   xmlns:sodipodi="http://sodipodi.sourceforge.net/DTD/sodipodi-0.dtd"
   xmlns:inkscape="http://www.inkscape.org/namespaces/inkscape"
   version="1.1"
   id="svg2"
   width="16"
   height="16"
   viewBox="0 0 16 16"
   sodipodi:docname="UNLINKED.svg"
   inkscape:version="0.92.4 (5da689c313, 2019-01-14)">
  <metadata
     id="metadata8">
    <rdf:RDF>
      <cc:Work
         rdf:about="">
        <dc:format>image/svg+xml</dc:format>
        <dc:type
           rdf:resource="http://purl.org/dc/dcmitype/StillImage" />
        <dc:title></dc:title>
      </cc:Work>
    </rdf:RDF>
  </metadata>
  <defs
     id="defs6" />
  <sodipodi:namedview
     pagecolor="#ffffff"
     bordercolor="#666666"
     borderopacity="1"
     objecttolerance="10"
     gridtolerance="10"
     guidetolerance="10"
     inkscape:pageopacity="0"
     inkscape:pageshadow="2"
     inkscape:window-width="932"
     inkscape:window-height="629"
     id="namedview4"
     showgrid="false"
     inkscape:zoom="14.75"
     inkscape:cx="8"
     inkscape:cy="8"
     inkscape:window-x="0"
     inkscape:window-y="0"
     inkscape:window-maximized="0"
     inkscape:current-layer="svg2" />
  <g
     id="UNLINKED">
    <path
       style="fill:#ffffff;stroke-width:0.03125"
       d="M 0,8 V 0 H 2.6701553 5.3403106 L 5.2676887,0.16421137 C 5.1744153,0.37511881 5.0758056,0.73595694 5.0333791,1.021611 c -0.053163,0.3579382 -0.04349,2.6801271 0.012604,3.0259718 0.1805428,1.1131197 0.8741935,2.0657475 1.8680878,2.5655456 1.0245575,0.5152178 2.1473869,0.5146947 3.1751511,-0.00148 0.989124,-0.4967678 1.684588,-1.4530216 1.864795,-2.5640662 0.05609,-0.3458447 0.06577,-2.6680336 0.0126,-3.0259718 -0.04243,-0.28565411 -0.141036,-0.64649224 -0.23431,-0.85739968 L 11.659689,0 H 13.829845 16 v 8 8 h -2.170155 -2.170156 l 0.07262,-0.164211 c 0.09327,-0.210908 0.191883,-0.571746 0.23431,-0.8574 0.05316,-0.357938 0.04349,-2.680127 -0.0126,-3.025972 C 11.77381,10.841373 11.078346,9.8851188 10.089222,9.3883509 9.0614581,8.8721769 7.9386287,8.8716538 6.9140712,9.3868728 5.9201769,9.8866709 5.2265262,10.839299 5.0459834,11.952418 c -0.056094,0.345845 -0.065767,2.668034 -0.012604,3.025972 0.042426,0.285654 0.1410362,0.646493 0.2343096,0.8574 L 5.3403106,16 H 2.6701553 0 Z m 8,5.5 V 12 H 8.5 9 V 13.5 15 H 8.5 8 Z M 8,2.5 V 1 H 8.5 9 V 2.5 4 H 8.5 8 Z"
       id="path823"
       inkscape:connector-curvature="0" />
    <path
       style="fill:#fefefe;stroke-width:0.03125"
       d="M 6.4482575,15.898224 C 6.3346859,15.727364 6.1669403,15.368582 6.1159647,15.1875 6.0198828,14.846186 6,14.556856 6,13.5 6,12.149591 6.03383,11.902634 6.2889534,11.390625 6.5307341,10.905394 6.9037613,10.532474 7.390625,10.289267 c 0.7376634,-0.3684892 1.4796463,-0.3685945 2.21875,-3.12e-4 0.485231,0.241781 0.858151,0.614808 1.101358,1.101672 C 10.966101,11.901835 11,12.149034 11,13.5 c 0,1.365352 -0.0336,1.603305 -0.3001,2.125 -0.210743,0.412554 -0.123276,0.375227 -0.87522,0.373508 -0.6332806,-0.0014 -0.6486041,-0.003 -0.5123484,-0.05063 0.3105131,-0.108638 0.5368609,-0.339812 0.6392643,-0.652894 0.044449,-0.135895 0.049428,-0.358054 0.041633,-1.857481 l -0.00885,-1.703125 -0.077379,-0.15625 C 9.8083397,11.378912 9.6210881,11.19166 9.421875,11.093004 9.2684469,11.017023 9.2517978,11.015625 8.5,11.015625 c -0.7517978,0 -0.7684469,0.0014 -0.921875,0.07738 -0.1992131,0.09866 -0.3864647,0.285908 -0.4851206,0.485121 l -0.077379,0.15625 -0.00885,1.703125 c -0.00779,1.499427 -0.00282,1.721586 0.041633,1.857481 0.1024034,0.313082 0.3287512,0.544256 0.6392643,0.652894 0.1361835,0.04765 0.120491,0.04918 -0.5157934,0.05042 l -0.65625,0.0013 z M 8.1875,5.9655875 C 7.33978,5.8318953 6.6540197,5.3420275 6.2889534,4.609375 6.0338297,4.0973663 6,3.8504088 6,2.5 6,1.1346483 6.0336047,0.896695 6.3000997,0.375 6.5108431,-0.03755412 6.4233756,-2.2654969e-4 7.17532,0.00149176 7.8086006,0.00293891 7.8239241,0.00445325 7.6876684,0.05212479 7.3771553,0.16076337 7.1508075,0.39193741 7.0484041,0.70501941 7.0039556,0.84091366 6.9989762,1.0630733 7.0067712,2.5625 l 0.00885,1.703125 0.077379,0.15625 C 7.1916603,4.6210881 7.3789119,4.8083397 7.578125,4.9069956 7.7315531,4.9829775 7.7482022,4.984375 8.5,4.984375 c 0.7517978,0 0.7684469,-0.0014 0.921875,-0.077379 C 9.6210881,4.8083397 9.8083397,4.6210881 9.9069956,4.421875 L 9.984375,4.265625 9.9932288,2.5625 C 10.001024,1.0630733 9.9960444,0.84091366 9.9515959,0.70501941 9.8491925,0.39193741 9.6228447,0.16076337 9.3123316,0.05212479 9.1760759,0.00445325 9.1913994,0.00293891 9.82468,0.00149176 10.576624,-2.2654969e-4 10.489157,-0.03755412 10.6999,0.375 10.966395,0.896695 11,1.1346483 11,2.5 11,3.8504087 10.96617,4.0973663 10.711047,4.609375 10.34073,5.3525644 9.6565,5.8360597 8.7908891,5.9662097 8.5368628,6.0044041 8.4329494,6.0042969 8.1875,5.9655878 Z"
       id="path821"
       inkscape:connector-curvature="0" />
    <path
       style="fill:#323232;stroke-width:0.03125"
       d="m 5.2676887,15.835789 c -0.093273,-0.210908 -0.1918831,-0.571746 -0.2343096,-0.8574 -0.053163,-0.357938 -0.04349,-2.680127 0.012604,-3.025972 0.1805428,-1.113119 0.8741935,-2.0657473 1.8680878,-2.5655454 1.0245575,-0.5152178 2.1473869,-0.5146947 3.1751511,0.00148 0.989124,0.4967678 1.684588,1.4530214 1.864795,2.5640664 0.05609,0.345845 0.06577,2.668033 0.0126,3.025972 -0.04243,0.285654 -0.141036,0.646492 -0.23431,0.8574 l -0.07262,0.164211 h -0.579844 c -0.531957,0 -0.648027,-0.01667 -0.547707,-0.07867 0.05231,-0.03233 0.299452,-0.547756 0.351866,-0.733825 C 10.980111,14.846321 11,14.55697 11,13.5 11,12.149591 10.96617,11.902634 10.711047,11.390625 10.469266,10.905394 10.096239,10.532474 9.609375,10.289267 8.8717116,9.9207778 8.1297288,9.9206725 7.390625,10.288955 6.9053944,10.530734 6.5324737,10.903761 6.2892675,11.390625 6.0338994,11.901835 6,12.149034 6,13.5 c 0,1.05697 0.019889,1.346321 0.1159962,1.6875 0.052414,0.186069 0.2995597,0.701499 0.3518654,0.733826 C 6.5681822,15.983328 6.4521122,16 5.9201553,16 H 5.3403106 Z m 2.4199797,0.113144 C 7.3752566,15.837277 7.1506147,15.607473 7.0484041,15.294981 7.0039556,15.159086 6.9989762,14.936927 7.0067712,13.4375 l 0.00885,-1.703125 0.077379,-0.15625 c 0.09866,-0.199213 0.2859117,-0.386465 0.4851248,-0.485121 0.1534281,-0.07598 0.1700772,-0.07738 0.921875,-0.07738 0.7517978,0 0.7684469,0.0014 0.921875,0.07738 0.1992131,0.09866 0.3864647,0.285908 0.4851206,0.485121 l 0.077379,0.15625 V 13.5 15.265625 l -0.077379,0.15625 c -0.098656,0.199213 -0.2859075,0.386465 -0.4851206,0.485121 -0.15097,0.07476 -0.1805384,0.07763 -0.875,0.08476 -0.5944338,0.0061 -0.7430438,-0.0013 -0.8592066,-0.04282 z M 9,13.5 V 12 H 8.5 8 V 13.5 15 H 8.5 9 Z M 7.9375,6.95383 C 7.2466759,6.8366303 6.5803509,6.50322 6.0667934,6.0177809 5.5559122,5.5348716 5.1647709,4.7799559 5.0459834,4.0475828 4.9898891,3.7017381 4.9802163,1.3795492 5.0333791,1.021611 5.0758056,0.73595694 5.1744153,0.37511881 5.2676888,0.16421137 L 5.3403106,0 H 5.9201553 C 6.4521122,0 6.5681822,0.0166726 6.4678616,0.07867406 6.4155559,0.1110008 6.16841,0.62643091 6.1159962,0.8125 6.0198894,1.1536793 6,1.4430298 6,2.5 6,3.8509656 6.033899,4.0981653 6.2892675,4.609375 6.5324737,5.0962388 6.9053944,5.4692659 7.390625,5.7110466 c 0.7388734,0.3681659 1.4798766,0.3681659 2.21875,0 C 10.094606,5.4692659 10.467526,5.0962388 10.710733,4.609375 10.966101,4.0981653 11,3.8509656 11,2.5 11,1.4430298 10.980111,1.1536793 10.884004,0.8125 10.83159,0.62643091 10.584444,0.1110008 10.532138,0.07867406 10.431818,0.0166726 10.547888,0 11.079845,0 h 0.579844 l 0.07262,0.16421137 c 0.09327,0.21090744 0.191883,0.57174557 0.23431,0.85739963 0.05316,0.3579382 0.04349,2.6801271 -0.0126,3.0259718 C 11.710879,5.5466253 10.546625,6.7108787 9.0475828,6.9540166 8.7110262,7.0086044 8.2599156,7.0085287 7.9375,6.9538291 Z M 7.6876684,4.9489331 C 7.3752566,4.8372769 7.1506147,4.6074734 7.0484041,4.2949806 7.0039556,4.1590862 6.9989762,3.9369266 7.0067712,2.4375 l 0.00885,-1.703125 0.077379,-0.15625 C 7.1916603,0.37891184 7.3789119,0.19166038 7.578125,0.0930044 7.7315531,0.01702246 7.7482022,0.015625 8.5,0.015625 c 0.7517978,0 0.7684469,0.0013975 0.921875,0.0773794 0.1992131,0.09865598 0.3864647,0.28590744 0.4851206,0.4851206 l 0.077379,0.15625 V 2.5 4.265625 l -0.077379,0.15625 C 9.8083397,4.6210881 9.6210881,4.8083397 9.421875,4.9069956 c -0.15097,0.074764 -0.1805384,0.077629 -0.875,0.084758 -0.5944338,0.0061 -0.7430438,-0.0013 -0.8592066,-0.042821 z M 9,2.5 V 1 H 8.5 8 V 2.5 4 H 8.5 9 Z"
       id="path819"
       inkscape:connector-curvature="0" />
  </g>
</svg>
