<?xml version="1.0" encoding="UTF-8" standalone="no"?>
<!-- Created with Inkscape (http://www.inkscape.org/) -->

<svg
   xmlns:dc="http://purl.org/dc/elements/1.1/"
   xmlns:cc="http://creativecommons.org/ns#"
   xmlns:rdf="http://www.w3.org/1999/02/22-rdf-syntax-ns#"
   xmlns:svg="http://www.w3.org/2000/svg"
   xmlns="http://www.w3.org/2000/svg"
   xmlns:sodipodi="http://sodipodi.sourceforge.net/DTD/sodipodi-0.dtd"
   xmlns:inkscape="http://www.inkscape.org/namespaces/inkscape"
   version="1.1"
   id="svg2"
   width="16.005211"
   height="16.005211"
   viewBox="0 0 16.005211 16.005211"
   sodipodi:docname="URL.svg"
   inkscape:version="0.92.4 (5da689c313, 2019-01-14)">
  <metadata
     id="metadata8">
    <rdf:RDF>
      <cc:Work
         rdf:about="">
        <dc:format>image/svg+xml</dc:format>
        <dc:type
           rdf:resource="http://purl.org/dc/dcmitype/StillImage" />
        <dc:title></dc:title>
      </cc:Work>
    </rdf:RDF>
  </metadata>
  <defs
     id="defs6" />
  <sodipodi:namedview
     pagecolor="#ffffff"
     bordercolor="#666666"
     borderopacity="1"
     objecttolerance="10"
     gridtolerance="10"
     guidetolerance="10"
     inkscape:pageopacity="0"
     inkscape:pageshadow="2"
     inkscape:window-width="828"
     inkscape:window-height="564"
     id="namedview4"
     showgrid="false"
     inkscape:zoom="14.745198"
     inkscape:cx="-6.8157783"
     inkscape:cy="8.0026055"
     inkscape:window-x="0"
     inkscape:window-y="0"
     inkscape:window-maximized="0"
     inkscape:current-layer="svg2" />
  <g
     id="URL">
    <path
       style="fill:#ffffff;stroke-width:0.03126018"
       d="m 0.00425961,12.246175 c 0.00244488,-2.15757 0.01508924,-3.6458352 0.02967943,-3.4933252 0.09299013,0.9720189 0.36448168,1.9108362 0.81292393,2.8110902 0.79195033,1.58985 2.00455793,2.802458 3.59440833,3.594408 0.9002537,0.448442 1.839071,0.719934 2.8110899,0.812924 0.15251,0.01459 -1.3357555,0.02723 -3.4933248,0.02968 L 0,16.005211 Z m 8.74859019,3.725097 c 0.9431786,-0.09023 1.8816682,-0.356487 2.7482482,-0.779697 l 0.440609,-0.215179 0.04349,0.10021 c 0.147693,0.34035 0.284451,0.609786 0.34061,0.67106 0.09663,0.105432 0.275959,0.144771 0.408154,0.08954 0.05892,-0.02462 0.488292,-0.271529 0.954157,-0.548689 0.639232,-0.380302 0.858634,-0.526371 0.894339,-0.595416 0.09704,-0.18765 0.06601,-0.307978 -0.233885,-0.90707 l -0.281197,-0.561735 0.209017,-0.258516 c 0.22831,-0.282377 0.577083,-0.803707 0.7176,-1.072636 l 0.08905,-0.170426 0.245258,-6.2e-5 c 0.363106,-1.22e-4 0.520616,-0.122658 0.520616,-0.405029 0,-0.160233 -0.05253,-0.263467 -0.213227,-0.419034 L 15.51109,10.77797 15.5876,10.554731 c 0.172985,-0.504734 0.330235,-1.2432276 0.383679,-1.8018782 0.01461,-0.1527204 0.02723,1.3118922 0.02968,3.4442012 0.0038,3.334626 -7.09e-4,3.714883 -0.04486,3.759037 -0.04415,0.04415 -0.424411,0.04869 -3.759037,0.04486 -2.132309,-0.0024 -3.5969216,-0.01507 -3.4442012,-0.02968 z M 0.00425961,3.7590364 0,0 3.7590364,0.00425961 C 5.9166057,0.00670449 7.4048712,0.01934885 7.2523612,0.03393904 5.7160857,0.18090992 4.1857253,0.80472122 2.9818371,1.7747064 2.084547,2.4976623 1.3712412,3.3885751 0.84686297,4.4412713 0.39842072,5.341525 0.12692917,6.2803423 0.03393904,7.2523612 0.01934885,7.4048712 0.00670449,5.9166057 0.00425961,3.7590364 Z M 15.963355,7.2289161 C 15.85957,5.8065189 15.195993,4.1801444 14.230505,2.9818371 13.905562,2.5785374 13.426674,2.0996491 13.023374,1.7747064 11.991277,0.94313541 10.585608,0.30630459 9.3716065,0.1202931 9.2304021,0.09865749 9.1385403,0.0707104 9.149633,0.05276214 9.160987,0.03439073 9.1385563,0.02918635 9.0935591,0.03975189 9.0523104,0.04943731 8.8989911,0.04647688 8.7528498,0.03317313 8.6067084,0.01986938 10.178705,0.00696299 12.246175,0.00449225 L 16.005211,0 v 3.7512213 c 0,2.0631718 -0.0049,3.7512214 -0.01095,3.7512214 -0.006,0 -0.01993,-0.123087 -0.03091,-0.2735266 z"
       id="path827"
       inkscape:connector-curvature="0" />
    <path
       style="fill:#fefefe;stroke-width:0.03126018"
       d="m 12.759952,14.796007 c -0.01647,-0.03126 -0.335055,-0.717986 -0.707975,-1.526062 -0.756675,-1.639631 -0.757224,-1.640504 -1.031584,-1.642042 l -0.157481,-8.82e-4 -0.757203,0.774572 -0.7572031,0.774572 -8.565e-4,-3.9224418 -8.563e-4,-3.9224421 0.073605,0.07744 c 0.040483,0.042592 0.9653929,1.0402912 2.0553569,2.2171093 1.089963,1.1768182 2.210877,2.3865876 2.490919,2.6883756 l 0.509167,0.548706 -0.96244,0.01563 c -0.645547,0.01048 -0.983025,0.02755 -1.02496,0.05184 -0.128569,0.07445 -0.210421,0.194253 -0.225772,0.330445 -0.01438,0.127598 0.02974,0.226238 0.706975,1.580452 0.397272,0.794399 0.722314,1.449644 0.722314,1.456102 0,0.0065 -0.172322,0.1144 -0.382937,0.239873 -0.210616,0.125474 -0.413581,0.247812 -0.451034,0.271863 -0.06034,0.03875 -0.07151,0.03726 -0.09803,-0.01311 z"
       id="path825"
       inkscape:connector-curvature="0" />
    <path
       style="fill:#98cbfe;stroke-width:0.03126018"
       d="M 7.8150444,14.970897 C 6.753139,14.76099 5.6903758,12.952282 5.2543263,10.61283 5.1947016,10.292936 5.0808542,9.4398913 5.0572003,9.1357869 L 5.0468666,9.0029312 h 1.7435808 1.7435811 v 2.6757368 c 0,2.97459 -0.013796,2.783546 0.2102591,2.911593 l 0.1070874,0.0612 -0.1576973,0.101194 C 8.392011,14.946234 8.0810376,15.023476 7.8150444,14.970897 Z M 5.4236408,14.492656 C 4.2557834,14.011049 3.2927492,13.290597 2.5147705,12.31651 2.1031046,11.801074 1.7009165,11.084252 1.4536493,10.425269 1.3345202,10.107782 1.1502541,9.4216531 1.1115449,9.151417 l -0.02127,-0.1484858 h 1.4684767 1.4684766 l 0.021084,0.2422664 c 0.1894601,2.1769604 0.7183451,3.8935404 1.622888,5.2673404 0.031131,0.04728 0.044434,0.08535 0.029561,0.08461 -0.014872,-7.47e-4 -0.139577,-0.04777 -0.2771218,-0.104489 z m 4.9103692,0.01988 c 0.222211,-0.337489 0.394268,-0.640662 0.559308,-0.985529 l 0.191137,-0.3994 0.209995,0.458966 c 0.115497,0.252431 0.206321,0.462203 0.20183,0.466161 -0.07231,0.06372 -1.1326,0.545767 -1.20046,0.545767 -0.01013,0 0.0071,-0.03868 0.03819,-0.08596 z m 3.108137,-2.539331 c -0.05807,-0.120044 -0.09773,-0.226121 -0.08812,-0.235726 0.0096,-0.0096 0.139775,-0.01337 0.289267,-0.0084 l 0.271804,0.0091 -0.159272,0.226636 c -0.0876,0.12465 -0.170255,0.226636 -0.183679,0.226636 -0.01342,0 -0.07192,-0.09822 -0.129995,-0.218262 z M 14.306556,9.4609256 C 14.088879,9.2300661 13.910779,9.0325749 13.910779,9.0220562 c 0,-0.010519 0.22631,-0.019125 0.502911,-0.019125 H 14.9166 L 14.89571,9.1357869 C 14.860379,9.3605495 14.7492,9.8299314 14.725123,9.855998 14.712589,9.8695674 14.524234,9.6917848 14.306556,9.4609256 Z M 1.0128699,7.7134489 C 1.145705,5.8496364 1.8505356,4.2707158 3.098839,3.0405817 3.6561976,2.4913357 4.1803664,2.1153682 4.8731872,1.7679054 5.2128585,1.5975539 5.6883748,1.3950981 5.7061262,1.4132732 5.710996,1.4182589 5.630571,1.5559753 5.5274043,1.7193098 4.8315018,2.8210682 4.3454582,4.3201281 4.128698,6.0332143 4.0585483,6.5876167 4.0013027,7.3542897 4.0013027,7.7393807 V 8.0026055 H 2.4967822 0.99226153 Z m 3.9887585,0.1197124 c 0,-0.5357098 0.1278082,-1.7699541 0.2527473,-2.4407806 C 5.6945625,3.0289155 6.7583976,1.234053 7.8384896,1.0325601 8.7230035,0.86755268 9.78339,2.0841472 10.388838,3.9586063 10.593796,4.5931526 10.852943,5.7442949 10.770307,5.653104 10.749422,5.630058 10.377142,5.2280656 9.9430166,4.7597878 9.2873794,4.0525719 9.1331655,3.9022221 9.0324627,3.872051 8.8711927,3.8237331 8.7019244,3.8864485 8.604861,4.030481 L 8.534029,4.1355893 V 6.0690972 8.0026055 H 6.767829 5.0016289 Z M 12.464502,7.4751425 11.975581,6.9476795 11.94225,6.6076726 C 11.744521,4.5906674 11.251089,2.943577 10.477807,1.7193098 10.37464,1.5559753 10.294215,1.4182589 10.299085,1.4132732 c 0.01775,-0.018175 0.493268,0.1842807 0.832939,0.3546322 0.692821,0.3474628 1.216989,0.7234303 1.774348,1.2726763 1.248303,1.2301341 1.953134,2.8090547 2.085969,4.6728672 l 0.02061,0.2891566 H 13.983186 12.953423 Z M 9.0908504,0.04116609 c 0.022566,-0.0090302 0.049528,-0.0079196 0.059915,0.0024679 0.010387,0.0103875 -0.00808,0.0177758 -0.041029,0.01641845 -0.036416,-0.0015 -0.043824,-0.0089073 -0.018886,-0.01888635 z"
       id="path823"
       inkscape:connector-curvature="0" />
    <path
       style="fill:#313131;stroke-width:0.03126018"
       d="M 7.2523612,15.971272 C 5.7160857,15.824301 4.1857253,15.20049 2.9818371,14.230505 1.1105723,12.722807 5.2252325e-5,10.403322 5.2252325e-5,8.0026055 5.2252325e-5,6.1982196 0.63845199,4.3920887 1.7747064,2.9818371 3.2824037,1.1105723 5.6018892,5.2252325e-5 8.0026055,5.2252325e-5 c 1.8043859,0 3.6105165,0.638399737675 5.0207685,1.774654147675 1.687218,1.3594093 2.771732,3.3980928 2.947194,5.5401752 0.09041,1.1037803 -0.04358,2.2440287 -0.379665,3.2309404 l -0.07299,0.214333 -0.397492,-0.421562 -0.397492,-0.4215629 0.07623,-0.3241937 c 0.04193,-0.1783065 0.0855,-0.3839788 0.09684,-0.4570495 L 14.9166,9.0029312 H 14.400165 13.88373 l -0.458343,-0.4923478 -0.458344,-0.4923478 1.022919,-0.00825 1.02292,-0.00825 -0.02057,-0.2887243 C 14.840818,5.5871478 13.938466,3.8226008 12.34777,2.5416262 11.962811,2.2316217 11.613947,2.0095992 11.132024,1.7679054 10.792353,1.5975539 10.316836,1.3950981 10.299085,1.4132732 c -0.0049,0.00499 0.07555,0.1427021 0.178722,0.3060366 0.699996,1.1082402 1.191401,2.629658 1.398402,4.3295346 0.09032,0.7416511 0.104328,0.9105524 0.07262,0.875285 C 11.924337,6.8968892 11.370871,6.2964681 10.9402,5.8299316 10.807397,5.6860682 10.792604,5.6535119 10.755551,5.4235492 10.699607,5.0763359 10.527643,4.3876789 10.392489,3.9696052 9.7825138,2.0827639 8.7254002,0.86710556 7.8384896,1.0325601 6.7583976,1.234053 5.6945625,3.0289155 5.2543757,5.3923807 5.1294366,6.0632072 5.0016284,7.2974515 5.0016284,7.8331613 v 0.1694442 h 1.7662001 1.7662 V 8.5027683 9.0029312 H 6.7904474 5.0468666 l 0.010334,0.1328557 c 0.023654,0.3041044 0.1375013,1.1571491 0.197126,1.4770431 0.4406726,2.364254 1.5040591,4.158326 2.5841633,4.359821 0.2727753,0.05089 0.5896995,-0.03649 0.8955053,-0.246888 0.091656,-0.06306 0.177721,-0.096 0.2508382,-0.096 0.1319117,0 0.162552,-0.02838 1.2067626,-1.117551 0.383237,-0.39974 0.707011,-0.726799 0.719499,-0.726799 0.01249,0 0.05415,0.07749 0.09259,0.172192 l 0.06989,0.172193 -0.07019,0.163854 c -0.12913,0.301459 -0.336296,0.692569 -0.525583,0.992249 -0.103167,0.163335 -0.183639,0.301004 -0.178826,0.305933 0.01763,0.01806 0.355899,-0.125283 0.774404,-0.328147 0.236112,-0.114451 0.434821,-0.201992 0.441577,-0.194535 0.0068,0.0075 0.104899,0.214949 0.218096,0.461093 l 0.205813,0.447536 -0.439191,0.214487 c -1.315338,0.642368 -2.810008,0.916507 -4.2473185,0.779004 z M 5.6712011,14.512538 C 4.7666582,13.138738 4.2377732,11.422158 4.0483131,9.2451976 L 4.0272287,9.0029312 H 2.5587521 1.0902754 l 0.02127,0.1484858 c 0.038709,0.2702361 0.2229753,0.956365 0.3421044,1.273852 0.1427545,0.38045 0.4302627,0.960649 0.6563634,1.324559 0.4847392,0.780188 1.3663129,1.661882 2.1449755,2.145268 0.4067289,0.252492 1.3194621,0.695704 1.4457744,0.702049 0.014872,7.47e-4 0.00157,-0.03733 -0.029561,-0.08461 z M 4.0013027,7.7393807 c 0,-0.385091 0.057246,-1.151764 0.1273953,-1.7061664 C 4.3454582,4.3201281 4.8315018,2.8210682 5.5274043,1.7193098 5.630571,1.5559753 5.710996,1.4182589 5.7061262,1.4132732 5.6883748,1.3950981 5.2128585,1.5975539 4.8731872,1.7679054 4.1803664,2.1153682 3.6561976,2.4913357 3.098839,3.0405817 1.8505356,4.2707158 1.145705,5.8496364 1.0128699,7.7134489 L 0.99226153,8.0026055 H 2.4967822 4.0013027 Z m 9.8082863,4.9693733 -0.240926,-0.483041 0.178673,-0.251573 0.178672,-0.251573 h 0.570699 c 0.313884,0 0.570699,0.01127 0.570699,0.02505 0,0.03403 -0.300426,0.53989 -0.460796,0.775897 -0.171862,0.252918 -0.502868,0.668281 -0.532559,0.668281 -0.01295,0 -0.131953,-0.217369 -0.264462,-0.483041 z"
       id="path821"
       inkscape:connector-curvature="0" />
    <path
       style="fill:#000000;stroke-width:0.03126018"
       d="m 15.929302,15.981766 c 0.01556,-0.0129 0.03879,-0.03751 0.05162,-0.05471 0.01331,-0.01784 0.02354,-0.0078 0.02381,0.02345 2.82e-4,0.03041 -0.02266,0.0547 -0.05162,0.0547 -0.02866,0 -0.03937,-0.01055 -0.02381,-0.02344 z m -3.442583,-0.135763 c -0.05253,-0.01484 -0.124707,-0.05894 -0.1604,-0.098 -0.03569,-0.03906 -0.36379,-0.718106 -0.729105,-1.508988 -0.365316,-0.790883 -0.670266,-1.444665 -0.677668,-1.45285 -0.01377,-0.01522 -0.214261,0.186813 -1.2323683,1.241844 L 9.1064796,14.629763 H 8.9416172 c -0.1498269,0 -0.1759311,-0.01107 -0.2862257,-0.121363 L 8.5340285,14.387037 V 9.2613131 4.1355893 L 8.604861,4.030481 C 8.645006,3.970909 8.7267138,3.9059539 8.7934602,3.8805503 c 0.2620322,-0.09973 0.050168,-0.3072381 3.6693048,3.5938601 1.819397,1.9611435 3.32508,3.5961776 3.345962,3.6334096 0.02088,0.03723 0.03847,0.136167 0.03908,0.219857 9.88e-4,0.135754 -0.01198,0.165251 -0.120255,0.273527 l -0.121363,0.121363 H 14.47714 c -0.735423,0 -1.129044,0.01095 -1.129044,0.03141 0,0.01727 0.288375,0.608025 0.640834,1.312778 0.68104,1.361764 0.70146,1.417614 0.594184,1.625063 -0.03483,0.06735 -0.258594,0.216284 -0.8831,0.587769 -0.460048,0.273658 -0.864585,0.511761 -0.898971,0.529118 -0.104404,0.0527 -0.213849,0.06569 -0.314324,0.0373 z m 0.822302,-1.308754 c 0.210615,-0.125473 0.382937,-0.233416 0.382937,-0.239873 0,-0.0065 -0.323543,-0.658707 -0.718984,-1.449443 -0.497071,-0.993958 -0.718948,-1.4691 -0.718867,-1.539431 1.56e-4,-0.12386 0.09191,-0.28183 0.207937,-0.357926 0.07675,-0.05034 0.189791,-0.05809 1.051426,-0.07203 l 0.965428,-0.01563 -0.914439,-0.9846958 C 13.061517,9.3366336 11.946965,8.1338982 11.087677,7.205471 10.228388,6.2770437 9.4851623,5.4754905 9.4360635,5.424242 l -0.08927,-0.093179 9.754e-4,3.9225511 9.753e-4,3.9225509 0.7570838,-0.77448 0.757085,-0.77448 0.140671,9.07e-4 c 0.207096,0.0013 0.320081,0.08495 0.430406,0.318515 0.05143,0.108873 0.364016,0.781735 0.694645,1.495249 0.33063,0.713513 0.61467,1.322872 0.6312,1.354131 0.02663,0.05036 0.03781,0.05185 0.09815,0.0131 0.03745,-0.02405 0.240418,-0.146389 0.451034,-0.271862 z m 2.672813,-6.5502736 c 3.47e-4,-0.068772 0.0067,-0.093226 0.01423,-0.054341 0.0075,0.038885 0.0072,0.095153 -6.32e-4,0.1250407 -0.0078,0.029888 -0.01394,-0.00193 -0.0136,-0.0707 z"
       id="path819"
       inkscape:connector-curvature="0" />
  </g>
</svg>
