<?xml version="1.0" encoding="UTF-8" standalone="no"?>
<!-- Created with Inkscape (http://www.inkscape.org/) -->

<svg
   xmlns:dc="http://purl.org/dc/elements/1.1/"
   xmlns:cc="http://creativecommons.org/ns#"
   xmlns:rdf="http://www.w3.org/1999/02/22-rdf-syntax-ns#"
   xmlns:svg="http://www.w3.org/2000/svg"
   xmlns="http://www.w3.org/2000/svg"
   xmlns:sodipodi="http://sodipodi.sourceforge.net/DTD/sodipodi-0.dtd"
   xmlns:inkscape="http://www.inkscape.org/namespaces/inkscape"
   version="1.1"
   id="svg2"
   width="16"
   height="16"
   viewBox="0 0 16 16"
   sodipodi:docname="MIRROR_VERTEXGROUP.svg"
   inkscape:version="0.92.4 (5da689c313, 2019-01-14)">
  <metadata
     id="metadata8">
    <rdf:RDF>
      <cc:Work
         rdf:about="">
        <dc:format>image/svg+xml</dc:format>
        <dc:type
           rdf:resource="http://purl.org/dc/dcmitype/StillImage" />
        <dc:title></dc:title>
      </cc:Work>
    </rdf:RDF>
  </metadata>
  <defs
     id="defs6" />
  <sodipodi:namedview
     pagecolor="#ffffff"
     bordercolor="#666666"
     borderopacity="1"
     objecttolerance="10"
     gridtolerance="10"
     guidetolerance="10"
     inkscape:pageopacity="0"
     inkscape:pageshadow="2"
     inkscape:window-width="811"
     inkscape:window-height="777"
     id="namedview4"
     showgrid="false"
     inkscape:zoom="14.75"
     inkscape:cx="8"
     inkscape:cy="8"
     inkscape:window-x="0"
     inkscape:window-y="0"
     inkscape:window-maximized="0"
     inkscape:current-layer="svg2" />
  <g
     id="MIRROR_VERTEXGROUP">
    <path
       style="fill:#ffffff;stroke-width:0.03125"
       d="M 0,8 V 0 H 4 8 V 0.875 1.75 H 6.2937147 4.5874291 L 4.3671725,1.546076 C 3.56581,0.80413722 2.3596793,0.82403288 1.5918561,1.5918561 0.80476425,2.3789478 0.80435791,3.6206459 1.5909347,4.4072225 c 0.2442546,0.2442547 0.6236798,0.4719694 0.8604076,0.51638 0.1021507,0.019163 0.1169,0.043265 0.5314168,0.8683666 C 3.2172516,6.2587297 3.4364791,6.6898437 3.4699313,6.75 3.5033834,6.8101563 3.7843,7.3726563 4.0941903,8 c 0.3098903,0.6273438 0.590801,1.1898438 0.6242463,1.25 0.033445,0.060156 0.3741509,0.7421875 0.757124,1.515625 l 0.6963144,1.40625 -0.073174,0.21875 c -0.3036816,0.907846 0.136604,1.962618 0.9961065,2.386327 0.2577575,0.127067 0.5984981,0.22141 0.8036297,0.222506 L 8,15 V 15.5 16 H 4 0 Z M 6.5389197,7.2257431 C 5.7439194,5.6320531 5.0935287,4.3175781 5.0936072,4.3046875 5.0936859,4.2917969 5.7476563,4.28125 6.546875,4.28125 H 8 V 7.203125 C 8,8.8101563 7.99648,10.124631 7.99219,10.124181 7.98789,10.123731 7.3339228,8.8194331 6.5389222,7.2257431 Z"
       id="path827"
       inkscape:connector-curvature="0" />
    <path
       style="fill:#fefefe;stroke-width:0.03125"
       d="M 7,13 V 12 H 7.5 8 v 1 1 H 7.5 7 Z M 6.4304534,11.520493 C 6.3854834,11.449065 6.2314391,11.144531 6.0881325,10.84375 5.9448262,10.542969 5.7974113,10.247656 5.7605437,10.1875 5.7236763,10.127344 5.5776119,9.8320313 5.4359562,9.53125 5.2943006,9.2304688 5.1537691,8.9490791 5.1236644,8.9059397 5.0935594,8.8628003 4.9583953,8.5956128 4.8233,8.3121897 4.6882044,8.0287666 4.5474856,7.7476563 4.5105916,7.6875 4.4736978,7.6273437 4.3276119,7.3320312 4.1859562,7.03125 4.0443006,6.7304687 3.9039322,6.4492187 3.8740266,6.40625 3.8441209,6.3632812 3.7093491,6.0960937 3.5745341,5.8125 3.4397188,5.5289063 3.2906119,5.2346069 3.2431856,5.1585009 3.1957594,5.0823953 3.1606303,5.0164531 3.1651209,5.0119625 3.1696116,5.0074716 3.2784372,4.9821159 3.4069553,4.9556162 3.7115628,4.8928081 4.0948241,4.7011472 4.32185,4.4980966 4.4900047,4.3477 4.5060422,4.3400675 4.5442125,4.3922684 c 0.022625,0.030942 0.1512225,0.2893244 0.2857712,0.5741825 0.1345488,0.2848582 0.2699154,0.5550863 0.3008141,0.6005063 0.030899,0.04542 0.1798191,0.3407328 0.3309331,0.65625 0.1511144,0.3155175 0.3113488,0.636949 0.356076,0.7142928 0.044728,0.077344 0.1771684,0.3445312 0.2943134,0.59375 0.1171453,0.2492187 0.2381609,0.4902872 0.2689244,0.5357072 0.030763,0.04542 0.1792531,0.3407328 0.3299778,0.65625 0.1507244,0.3155175 0.3041769,0.6228866 0.341005,0.6830428 0.036828,0.060156 0.1807294,0.35011 0.31978,0.644342 0.1390506,0.294231 0.3021222,0.616842 0.3623809,0.716911 0.060259,0.10007 0.1095616,0.192682 0.1095616,0.205805 0,0.01312 -0.052734,0.03268 -0.1171875,0.04346 -0.3976584,0.0665 -0.7717622,0.239128 -1.0439619,0.481736 L 6.5122169,11.65036 Z M 2,3 V 2 H 3 4 V 3 4 H 3 2 Z M 4.9118259,3.5859375 C 5.0271528,3.2198125 5.0187206,2.7677377 4.8882187,2.3203125 L 4.8677106,2.25 H 6.4338553 8 V 3.015625 3.78125 H 6.4251519 4.8503037 Z"
       id="path825"
       inkscape:connector-curvature="0" />
    <path
       style="fill:#98cbfe;stroke-width:0.03125"
       d="m 9.0008059,15.367188 8.063e-4,-0.632813 0.1578115,-0.107076 c 0.3739985,-0.25376 0.6981732,-0.750165 0.7973997,-1.221049 0.061945,-0.293959 0.041887,-0.716384 -0.04748,-1 L 9.8453384,12.203125 10.189202,11.5 c 0.189125,-0.386719 0.371099,-0.752344 0.404386,-0.8125 0.03329,-0.06016 0.462175,-0.9179687 0.953085,-1.90625 0.490911,-0.9882813 0.915642,-1.8390625 0.943848,-1.890625 0.02821,-0.051563 0.26028,-0.5085938 0.515721,-1.015625 L 13.47068,4.953125 13.6256,4.900465 c 0.297505,-0.1011278 0.543636,-0.2565963 0.783602,-0.4949616 0.78641,-0.781165 0.785942,-2.026647 -0.0011,-2.813647 C 13.640321,0.82403288 12.43419,0.80413722 11.632827,1.546076 L 11.412571,1.75 H 10.206285 9 V 0.875 0 h 3.5 3.5 v 8 8 H 12.5 9 Z M 9.4045103,11.57633 C 9.3460525,11.516017 9.2314856,11.421434 9.1499172,11.366147 L 9.0016116,11.265625 9.0008059,10.325022 9,9.3844191 9.2499713,8.8718972 C 9.3874556,8.59001 9.5358025,8.2960938 9.5796313,8.21875 9.6234597,8.1414062 9.7705634,7.8460937 9.9065281,7.5625 10.042493,7.2789063 10.175521,7.0117187 10.202146,6.96875 c 0.02662,-0.042969 0.17409,-0.3382812 0.3277,-0.65625 0.15361,-0.3179688 0.301123,-0.6132813 0.327806,-0.65625 0.02668,-0.042969 0.16781,-0.3242188 0.313615,-0.625 0.145806,-0.3007813 0.285738,-0.5731981 0.31096,-0.6053706 0.04371,-0.055754 0.05362,-0.051654 0.211503,0.087514 0.226766,0.1998847 0.607308,0.3836166 0.923166,0.4457185 l 0.257521,0.050632 -0.09721,0.1748156 c -0.12536,0.2254475 -0.312379,0.5990706 -0.483111,0.9651506 -0.07447,0.1596844 -0.162033,0.3284344 -0.194577,0.375 -0.03255,0.046566 -0.175073,0.3307584 -0.316728,0.6315397 -0.141656,0.3007812 -0.287688,0.5960937 -0.324517,0.65625 -0.03683,0.060156 -0.188808,0.3644431 -0.337734,0.6761934 -0.148925,0.31175 -0.29559,0.6046935 -0.325921,0.6509854 -0.03033,0.046292 -0.166727,0.3184275 -0.3031,0.6047462 -0.136372,0.2863192 -0.272542,0.5558752 -0.302599,0.5990152 -0.03006,0.04314 -0.174702,0.33398 -0.3214336,0.646313 -0.1467316,0.312333 -0.2870138,0.596759 -0.3117382,0.632058 -0.04426,0.06319 -0.046593,0.06249 -0.1512409,-0.04548 z M 9.0001338,6.2265625 9,4.28125 h 0.96875 c 0.532813,0 0.96875,0.00993 0.96875,0.022073 0,0.01214 -0.39375,0.8122935 -0.875,1.7781188 C 9.58125,7.0472666 9.1874397,7.8494431 9.1873663,7.8640559 9.1872925,7.8786691 9.1451653,7.9539062 9.09375,8.03125 L 9.0002675,8.171875 9.0001425,6.2265625 Z M 12,3 V 2 h 1 1 V 3 4 H 13 12 Z M 9,3.015625 V 2.25 h 1.066145 1.066144 l -0.02051,0.070312 c -0.130502,0.4474252 -0.138934,0.8995 -0.02361,1.265625 l 0.06153,0.195313 H 10.074848 9 Z"
       id="path823"
       inkscape:connector-curvature="0" />
    <path
       style="fill:#00fe00;stroke-width:0.03125"
       d="M 8,8 V 0 H 8.5 9 v 8 8 H 8.5 8 Z"
       id="path821"
       inkscape:connector-curvature="0" />
    <path
       style="fill:#323232;stroke-width:0.03125"
       d="M 7.5625,14.951405 C 7.4507813,14.927411 7.2403197,14.848998 7.0948078,14.777154 6.23507,14.352673 5.7950372,13.298418 6.0987013,12.390625 l 0.073174,-0.21875 -0.6963144,-1.40625 C 5.0925875,9.9921875 4.7518819,9.3101563 4.7184366,9.25 4.6849913,9.1898438 4.4040806,8.6273438 4.0941903,8 3.7843,7.3726563 3.5033834,6.8101563 3.4699313,6.75 3.4364791,6.6898437 3.2172516,6.2587297 2.9827591,5.7919691 2.5682423,4.9668672 2.553493,4.9427659 2.4513423,4.9236025 2.2146145,4.8791919 1.8351893,4.6514772 1.5909347,4.4072225 0.80435791,3.6206459 0.80476425,2.3789478 1.5918561,1.5918561 2.3596793,0.82403288 3.56581,0.80413722 4.3671725,1.546076 L 4.5874291,1.75 H 6.2937147 8 V 2 2.25 H 6.4338553 4.8677106 l 0.020508,0.070312 c 0.1305018,0.4474252 0.138934,0.8995 0.023607,1.265625 L 4.8503038,3.78125 H 6.4251519 8 v 0.25 0.25 H 6.546875 c -0.7992187,0 -1.4531931,0.010547 -1.4532766,0.023437 -9.37e-5,0.012891 0.6538232,1.3325203 1.453125,2.9325103 L 8,10.146271 V 11.073135 12 H 7.5 7 v 1 1 H 7.5 8 V 14.5 15 L 7.8828125,14.9975 C 7.8183594,14.99615 7.6742187,14.975399 7.5625,14.951405 Z M 7.0593047,11.238623 c 0.2021334,-0.105825 0.4335965,-0.182785 0.6672578,-0.221859 0.064453,-0.01078 0.1171875,-0.03033 0.1171875,-0.04346 0,-0.01312 -0.049303,-0.105735 -0.1095616,-0.205805 C 7.6739297,10.667434 7.5108581,10.344823 7.3718075,10.050592 7.2327569,9.75636 7.0888559,9.4664063 7.0520275,9.40625 7.0151994,9.3460938 6.8617469,9.0387247 6.7110225,8.7232072 6.5602978,8.40769 6.4118078,8.1123775 6.3810447,8.0669572 6.3502812,8.0215372 6.2292656,7.7804687 6.1121203,7.53125 5.9949753,7.2820312 5.8625344,7.0148437 5.8178069,6.9375 5.7730797,6.8601562 5.6128453,6.5387247 5.4617309,6.2232072 5.3106169,5.90769 5.1616969,5.6123775 5.1307978,5.5669572 5.0998991,5.5215372 4.9645325,5.2513091 4.8299838,4.9664509 4.695435,4.6815928 4.5668378,4.4232106 4.5442125,4.3922684 4.5060422,4.3400675 4.4900047,4.3477 4.32185,4.4980966 4.0948241,4.7011472 3.7115628,4.8928081 3.4069553,4.9556162 c -0.1285181,0.0265 -0.2373437,0.051855 -0.2418344,0.056346 -0.00449,0.00449 0.030639,0.070433 0.078065,0.1465384 0.047426,0.076106 0.1965332,0.3704053 0.3313485,0.6539991 0.134815,0.2835937 0.2695868,0.5507812 0.2994925,0.59375 0.029906,0.042969 0.170274,0.3242187 0.3119297,0.625 0.1416556,0.3007812 0.2877415,0.5960937 0.3246353,0.65625 0.036894,0.060156 0.1776128,0.3412666 0.3127084,0.6246897 0.1350953,0.2834231 0.2702594,0.5506106 0.3003644,0.59375 0.030105,0.043139 0.1706362,0.324529 0.3122919,0.6253103 0.1416556,0.3007812 0.28772,0.5960943 0.3245875,0.6562503 0.036868,0.06016 0.1842825,0.355469 0.3275887,0.65625 0.1433066,0.300781 0.2973509,0.605315 0.3423209,0.676743 l 0.081764,0.129867 0.1703837,-0.15186 c 0.093711,-0.08352 0.2632282,-0.200468 0.3767033,-0.259877 z M 4,3 V 2 H 3 2 v 1 1 h 1 1 z m 5,10 c 0,-0.945312 0.00922,-1.71875 0.020488,-1.71875 0.033182,0 0.2348716,0.15585 0.3760088,0.29055 l 0.1308715,0.124903 0.2668344,-0.559289 c 0.1467588,-0.307609 0.3023323,-0.62257 0.3457193,-0.699914 0.04339,-0.07734 0.191193,-0.372656 0.328458,-0.65625 0.137265,-0.2835937 0.271602,-0.5507812 0.298528,-0.59375 0.02692,-0.042969 0.174636,-0.3382812 0.328246,-0.65625 0.15361,-0.3179687 0.301075,-0.6132813 0.3277,-0.65625 0.02663,-0.042969 0.159653,-0.3101563 0.295618,-0.59375 C 11.854437,6.9976563 12.001908,6.7023437 12.046185,6.625 12.090465,6.547656 12.194912,6.34375 12.278294,6.171875 12.511779,5.6905944 12.670677,5.3761497 12.77721,5.1845597 L 12.87442,5.0097441 12.616899,4.9591121 C 12.301038,4.89701 11.920496,4.7132781 11.69373,4.5133934 11.535846,4.3742259 11.525935,4.370125 11.482227,4.4258794 c -0.02522,0.032172 -0.165154,0.3045893 -0.310959,0.6053706 -0.145806,0.3007812 -0.286934,0.5820312 -0.313616,0.625 -0.02668,0.042969 -0.174196,0.3382812 -0.327806,0.65625 -0.15361,0.3179688 -0.301402,0.6132812 -0.328425,0.65625 -0.02702,0.042969 -0.123791,0.2328125 -0.2150385,0.421875 -0.091247,0.1890625 -0.2295681,0.4703125 -0.3073787,0.625 -0.077811,0.1546875 -0.2613469,0.5203125 -0.4078582,0.8125 l -0.266384,0.53125 -0.00225,-0.59375 -0.00225,-0.59375 L 9.09375,8.03125 C 9.1451653,7.9539062 9.1872925,7.8786691 9.1873663,7.8640559 9.1874288,7.8494431 9.58125,7.0472666 10.0625,6.0814416 c 0.48125,-0.9658253 0.875,-1.7659785 0.875,-1.7781188 0,-0.01214 -0.435937,-0.022073 -0.96875,-0.022073 H 9 v -0.25 -0.25 h 1.074848 1.074848 l -0.06152,-0.1953125 c -0.115327,-0.366125 -0.106895,-0.8181998 0.02361,-1.265625 L 11.132289,2.25 H 10.066145 9 V 2 1.75 h 1.206285 1.206286 l 0.220256,-0.203924 c 0.801363,-0.74193878 2.007494,-0.72204313 2.775317,0.04578 0.787,0.787 0.787468,2.032482 0.0011,2.813647 -0.239965,0.2383653 -0.486096,0.3938338 -0.783601,0.4949616 L 13.47068,4.953125 13.006242,5.875 c -0.255441,0.5070312 -0.487515,0.9640625 -0.515721,1.015625 -0.02821,0.051563 -0.452937,0.9023437 -0.943848,1.890625 -0.49091,0.9882813 -0.919799,1.846094 -0.953085,1.90625 -0.03329,0.06016 -0.215261,0.425781 -0.404386,0.8125 l -0.3438636,0.703125 0.064005,0.203125 c 0.089367,0.283616 0.1094246,0.706041 0.04748,1 -0.096599,0.458418 -0.3976575,0.930297 -0.7660662,1.200734 C 9.1070166,14.668455 9.0298388,14.71875 9.0192506,14.71875 9.0086628,14.71875 9,13.945313 9,13 Z M 14,3 V 2 h -1 -1 v 1 1 h 1 1 z"
       id="path819"
       inkscape:connector-curvature="0" />
  </g>
</svg>
