<?xml version="1.0" encoding="UTF-8" standalone="no"?>
<!-- Created with Inkscape (http://www.inkscape.org/) -->

<svg
   xmlns:dc="http://purl.org/dc/elements/1.1/"
   xmlns:cc="http://creativecommons.org/ns#"
   xmlns:rdf="http://www.w3.org/1999/02/22-rdf-syntax-ns#"
   xmlns:svg="http://www.w3.org/2000/svg"
   xmlns="http://www.w3.org/2000/svg"
   xmlns:sodipodi="http://sodipodi.sourceforge.net/DTD/sodipodi-0.dtd"
   xmlns:inkscape="http://www.inkscape.org/namespaces/inkscape"
   version="1.1"
   id="svg2"
   width="16"
   height="16"
   viewBox="0 0 16 16"
   sodipodi:docname="MODIFIER_DATA.svg"
   inkscape:version="0.92.4 (5da689c313, 2019-01-14)">
  <metadata
     id="metadata8">
    <rdf:RDF>
      <cc:Work
         rdf:about="">
        <dc:format>image/svg+xml</dc:format>
        <dc:type
           rdf:resource="http://purl.org/dc/dcmitype/StillImage" />
        <dc:title></dc:title>
      </cc:Work>
    </rdf:RDF>
  </metadata>
  <defs
     id="defs6" />
  <sodipodi:namedview
     pagecolor="#ffffff"
     bordercolor="#666666"
     borderopacity="1"
     objecttolerance="10"
     gridtolerance="10"
     guidetolerance="10"
     inkscape:pageopacity="0"
     inkscape:pageshadow="2"
     inkscape:window-width="1184"
     inkscape:window-height="671"
     id="namedview4"
     showgrid="false"
     fit-margin-top="0"
     fit-margin-left="0"
     fit-margin-right="0"
     fit-margin-bottom="0"
     inkscape:zoom="1.4404297"
     inkscape:cx="-10.413559"
     inkscape:cy="81.920002"
     inkscape:window-x="0"
     inkscape:window-y="0"
     inkscape:window-maximized="0"
     inkscape:current-layer="svg2" />
  <g
     id="MODIFIER_DATA"
     transform="scale(0.09765625)">
    <path
       style="fill:#ffffff;stroke-width:0.31999999"
       d="M 0,81.92 V 0 h 81.92 81.92 v 81.92 81.92 H 81.92 0 Z m 129.80396,66.89121 c 4.20121,-1.00726 6.23928,-2.22381 9.88059,-5.89785 2.97967,-3.00646 3.29279,-3.44669 4.46207,-6.27336 l 1.25753,-3.04 v -4.8 -4.8 l -1.24403,-3.04 -1.24403,-3.04 -20.17805,-20.396906 C 111.64012,86.304797 100.34529,74.833136 97.638429,72.030515 93.063587,67.29384 92.733213,66.870912 92.949062,66.027421 93.482467,63.942982 94.060397,58.842371 94.069853,56.135702 94.084029,52.077459 93.28433,46.831818 92.127408,43.394224 90.918896,39.803341 88.231088,34.329386 86.542755,32.020589 84.944214,29.83458 79.003808,23.878708 76.933117,22.385928 71.059907,18.151884 61.65217,14.958188 54.88,14.899434 c -4.152528,-0.03603 -4.334029,0.05853 -9.07713,4.728964 -2.352419,2.316381 -4.476419,4.674977 -4.72,5.241324 -0.566649,1.31752 -0.564646,3.030899 0.0051,4.340556 0.246368,0.566347 4.998368,5.564864 10.56,11.107818 L 61.76,50.396189 v 5.611152 5.611149 l -2,1.976332 -2,1.976336 -3.04,-0.296908 c -1.672,-0.1633 -3.976858,-0.30081 -5.121904,-0.305578 L 47.516189,64.96 37.438096,54.847946 c -5.542953,-5.561632 -10.541471,-10.313632 -11.107818,-10.56 -1.220086,-0.530759 -3.2126,-0.580701 -4.469446,-0.112032 -1.202106,0.448259 -9.007179,8.188025 -9.573913,9.493808 -0.975295,2.247126 -0.180437,9.777193 1.580231,14.970278 2.465125,7.270877 4.579768,10.656906 10.107856,16.184992 5.714932,5.714934 9.843823,8.260723 16.824994,10.373946 2.112,0.639312 5.208,1.312012 6.88,1.494892 3.697539,0.404429 11.689987,0.1132 14.019309,-0.510838 l 1.699309,-0.455251 25.180691,25.228699 c 27.732701,27.78558 26.269531,26.50087 31.704931,27.83801 3.18264,0.78295 6.30108,0.78844 9.51972,0.0168 z m -8.0458,-16.97305 -3.51092,-3.52185 3.59638,-3.59637 3.59638,-3.59638 3.59638,3.59638 3.59638,3.59637 -3.51092,3.52185 c -1.93101,1.93701 -3.58784,3.52184 -3.68184,3.52184 -0.094,0 -1.75083,-1.58483 -3.68184,-3.52184 z"
       id="path827"
       inkscape:connector-curvature="0" />
    <path
       style="fill:#fefefe;stroke-width:0.31999999"
       d="m 119.9282,118.10412 c 0.22689,-1.54588 -0.50714,-3.08928 -2.47879,-5.21197 -1.02794,-1.10668 -8.75857,-8.94011 -17.1792,-17.407612 C 84.002909,79.126653 83.91913,79.055706 81.360506,79.470912 c -0.62162,0.100874 -1.669952,0.540589 -2.329632,0.977146 l -1.199415,0.793734 -4.077337,-4.152621 c -2.242535,-2.283942 -3.99168,-4.238278 -3.886989,-4.342969 0.104691,-0.104695 0.03059,-0.488839 -0.16464,-0.853655 -0.195245,-0.364816 -0.329443,-1.461885 -0.298221,-2.437926 0.03123,-0.976042 0.06042,-1.918621 0.06487,-2.094621 0.0044,-0.176 3.2e-4,-1.256 -0.0092,-2.4 -0.02234,-2.694048 -0.0223,-2.671507 -0.0029,-7.36 0.0091,-2.2 0.01213,-4.144 0.0067,-4.32 -0.0055,-0.176 -0.02685,-2.336 -0.04756,-4.8 L 69.37857,44 62.45199,37.04 c -3.809574,-3.828 -6.816441,-6.96 -6.681884,-6.96 0.134556,0 0.02099,-0.341336 -0.252356,-0.758525 -0.753286,-1.149659 -0.675993,-3.511455 0.147389,-4.503567 0.18112,-0.218237 0.259127,-0.466977 0.173347,-0.552756 -0.318556,-0.318557 1.32986,-1.496851 2.765783,-1.976991 1.514736,-0.506493 3.515782,-0.280013 3.966281,0.448907 0.106519,0.172355 0.300887,0.247111 0.431924,0.166125 0.410748,-0.253858 15.877088,15.571652 16.429059,16.810586 0.446,1.001082 0.514957,2.988768 0.521033,15.018893 l 0.007,13.865114 21.316234,21.318016 c 22.17692,22.178768 22.40701,22.435908 22.04218,24.632878 -0.32188,1.93839 -1.77315,4.37276 -2.38238,3.99624 -0.13826,-0.0855 -0.34183,-0.009 -0.45237,0.16986 -0.39361,0.63686 -0.69023,0.31051 -0.55503,-0.61066 z M 36,82.41216 C 34.943549,81.95009 18.661169,65.712163 18.957323,65.41601 c 0.101302,-0.101303 0.05958,-0.618666 -0.09272,-1.149703 -0.192274,-0.670416 -0.124581,-1.421037 0.221479,-2.45591 0.48184,-1.440919 1.659966,-3.091018 1.979071,-2.771911 0.08578,0.08578 0.334519,0.0078 0.552756,-0.173347 1.077004,-0.893833 3.714879,-0.870848 4.814741,0.04196 0.246043,0.204195 0.447351,0.246713 0.447351,0.09449 0,-0.15223 3.591269,3.31233 7.980598,7.699024 4.389328,4.386694 7.958733,8.057616 7.932013,8.1576 -0.02672,0.09999 0.101562,0.469792 0.285069,0.821792 0.309738,0.594134 0.340733,2.521066 0.05971,3.711946 -0.202237,0.857004 -1.180605,2.169196 -2.034506,2.728694 C 40.072234,82.795949 37.246554,82.957376 36,82.41216 Z"
       id="path825"
       inkscape:connector-curvature="0" />
    <path
       style="fill:#cbe5fe;stroke-width:0.31999999"
       d="m 123.66563,144.03952 c -0.066,-0.0663 -0.592,-0.17544 -1.16898,-0.24262 -0.57699,-0.0672 -1.33877,-0.22189 -1.69286,-0.34379 -0.35408,-0.12191 -0.71579,-0.23129 -0.80379,-0.24307 -0.088,-0.0118 -0.88,-0.35585 -1.76,-0.76459 -1.30373,-0.60554 -6.40396,-5.56004 -27.543766,-26.75675 L 64.752467,89.675107 62.405866,90.462131 C 57.468173,92.118176 48.7292,92.145744 43.68,90.521203 c -1.232,-0.396387 -2.312,-0.741555 -2.4,-0.767043 -0.088,-0.02547 -0.592,-0.165379 -1.12,-0.31087 -0.528,-0.145492 -1.284,-0.474314 -1.68,-0.730714 -0.396,-0.2564 -0.72,-0.367814 -0.72,-0.24759 0,0.120227 -0.41823,-0.07921 -0.929398,-0.443197 -0.511168,-0.363984 -1.051168,-0.66241 -1.2,-0.663165 -0.148832,-6.4e-4 -1.014199,-0.565162 -1.92304,-1.254227 -0.908842,-0.689069 -1.728373,-1.176919 -1.821178,-1.084115 -0.0928,0.09281 -1.992737,-1.655261 -4.22207,-3.884596 -2.229334,-2.229334 -3.977402,-4.129264 -3.884597,-4.22207 0.09281,-0.09281 -0.387379,-0.903491 -1.067076,-1.801526 -0.679697,-0.898036 -1.169751,-1.739684 -1.089007,-1.87033 0.08074,-0.130646 -0.0072,-0.332726 -0.195461,-0.449069 -0.588094,-0.363462 -2.819087,-5.97311 -2.575565,-6.476045 0.0222,-0.04584 -0.170499,-0.491107 -0.428216,-0.989478 C 18.166676,64.8288 17.872446,63.71431 17.770548,62.850522 17.66865,61.986736 17.516057,61.056893 17.431453,60.784205 17.346849,60.511517 17.219574,59.27169 17.14862,58.02903 l -0.129006,-2.259376 3.492029,-3.4812 3.49203,-3.4812 10.648673,10.645114 10.648668,10.645114 3.349495,0.177347 C 50.49273,70.372371 53.44,70.510304 55.2,70.581344 c 1.76,0.07104 3.494896,0.198739 3.855328,0.283776 0.504867,0.119114 1.47632,-0.669587 4.231245,-3.435254 L 66.862493,63.84 66.893117,56.023635 66.923741,48.20727 56.340029,37.620022 45.75632,27.032771 49.202739,23.597038 c 3.21865,-3.208672 3.530711,-3.436149 4.72185,-3.44202 1.408486,-0.0069 3.241424,0.166164 4.955427,0.468 0.616,0.108477 1.486634,0.250473 1.934742,0.315545 0.448106,0.06507 1.348106,0.341169 2,0.613547 0.651892,0.272378 1.185258,0.426883 1.185258,0.343344 0,-0.08354 0.432,0.07151 0.96,0.344546 0.528,0.273039 0.96,0.415671 0.96,0.316959 0,-0.09871 0.324,-0.0013 0.72,0.216393 0.396,0.217728 0.894806,0.42529 1.108458,0.46125 0.213651,0.03596 0.811881,0.366884 1.329398,0.735389 0.517501,0.368505 1.079277,0.670009 1.248371,0.670009 0.169098,0 0.686867,0.298452 1.150602,0.663226 C 71.940579,25.668 72.32,25.870591 72.32,25.753428 c 0,-0.117163 0.703984,0.376385 1.56441,1.096774 0.860425,0.720389 1.692028,1.309798 1.848009,1.309798 0.359408,0 4.907581,4.562566 4.907581,4.923117 0,0.147433 0.576,0.956032 1.28,1.796883 0.704,0.840851 1.28,1.630605 1.28,1.755011 0,0.124407 0.297805,0.644423 0.661789,1.155591 C 84.225776,38.30177 84.431968,38.72 84.32,38.72 c -0.111968,0 0.107728,0.437194 0.488218,0.971542 0.380489,0.534349 0.721222,1.146349 0.75718,1.36 0.03596,0.213652 0.243524,0.712458 0.461252,1.108458 0.217728,0.396 0.326899,0.72 0.242601,0.72 -0.08429,0 0.136087,0.654125 0.489738,1.45361 0.353651,0.799488 0.705552,1.735488 0.782006,2.08 0.07645,0.344515 0.222016,0.95039 0.323479,1.34639 0.101459,0.396 0.243513,1.12345 0.315676,1.616557 0.07216,0.493104 0.262167,1.717104 0.422231,2.72 0.286387,1.794403 0.226473,8.138982 -0.08157,8.637405 -0.08673,0.140326 -0.245552,1.023664 -0.352951,1.962976 -0.107395,0.939308 -0.408016,2.119251 -0.668048,2.622096 -0.260028,0.502844 -0.458086,0.951769 -0.440121,0.997612 0.01795,0.04584 -0.07052,0.494468 -0.196637,0.996938 -0.214906,0.856256 0.124819,1.268112 5.413824,6.563245 3.103715,3.107315 5.64312,5.788582 5.64312,5.958374 0,0.169792 9.151252,9.470586 20.336112,20.668427 11.18486,11.19785 20.30643,20.48946 20.27016,20.64804 -0.0363,0.15858 0.2588,0.98949 0.65573,1.84648 1.51459,3.27001 1.51459,8.33369 0,11.6037 -0.39693,0.85699 -0.69811,1.6696 -0.66929,1.80581 0.11411,0.53936 -4.99657,5.28372 -6.42151,5.96122 -0.82985,0.39455 -1.62185,0.72116 -1.76,0.7258 -0.13816,0.005 -0.48755,0.13492 -0.77641,0.28952 -0.838,0.44848 -5.57085,0.97513 -5.88916,0.65532 z m 5.45621,-12.20136 3.51092,-3.52185 -3.59638,-3.59637 -3.59638,-3.59638 -3.59638,3.59638 -3.59638,3.59637 3.51092,3.52185 c 1.93101,1.93701 3.58784,3.52184 3.68184,3.52184 0.094,0 1.75083,-1.58483 3.68184,-3.52184 z M 117.0069,122.2173 c 0.81855,-0.39625 1.65625,-1.13606 2.08348,-1.84 0.6472,-1.06638 1.63931,-1.99179 1.75602,-1.63797 0.0255,0.0774 0.36141,-0.14441 0.74642,-0.49283 0.77293,-0.6995 1.48768,-2.21211 1.70908,-3.6169 0.36416,-2.31061 0.27348,-2.41235 -22.0261,-24.713798 L 79.959565,68.597786 79.952557,54.732672 C 79.946477,42.702547 79.877523,40.714861 79.431523,39.713779 78.879552,38.474845 63.413213,22.649335 63.002464,22.903193 c -0.131037,0.08099 -0.325405,0.0062 -0.431923,-0.166125 -0.450499,-0.72892 -2.451546,-0.9554 -3.966282,-0.448907 -1.435923,0.48014 -3.084339,1.658434 -2.765782,1.976991 0.08578,0.08578 0.0078,0.334519 -0.173347,0.552756 -0.823383,0.992112 -0.900676,3.353908 -0.147389,4.503567 0.27335,0.417189 0.386912,0.758525 0.252355,0.758525 -0.134557,0 2.87231,3.132 6.681926,6.96 l 6.92658,6.96 0.03763,4.48 c 0.0207,2.464 0.0421,4.624 0.04756,4.8 0.0055,0.176 0.0026,2.12 -0.0067,4.32 -0.01946,4.688493 -0.01946,4.665952 0.0029,7.36 0.0095,1.144 0.0136,2.224 0.0092,2.4 -0.0044,0.176 -0.03365,1.118579 -0.06487,2.094621 -0.03123,0.976041 0.102976,2.07311 0.298221,2.437926 0.195245,0.364816 0.268944,0.749351 0.163776,0.854515 -0.105165,0.105168 1.671584,2.104103 3.948333,4.442077 L 77.954179,81.44 77.377603,82.56 c -1.23304,2.395178 -0.571792,4.185546 2.852608,7.723622 11.664275,12.051478 31.516979,31.697968 32.431749,32.094878 1.52094,0.65993 2.74236,0.61461 4.34497,-0.1612 z M 41.102883,82.12064 c 0.853901,-0.559498 1.832269,-1.87169 2.034506,-2.728694 0.281024,-1.19088 0.250029,-3.117812 -0.05971,-3.711946 -0.183507,-0.352 -0.311789,-0.721805 -0.285069,-0.821792 0.02672,-0.09998 -3.542685,-3.770906 -7.932013,-8.1576 C 30.471269,62.313914 26.88,58.849354 26.88,59.001584 c 0,0.152227 -0.201308,0.109709 -0.447351,-0.09449 -1.099862,-0.912807 -3.737737,-0.935792 -4.814741,-0.04196 -0.218237,0.18112 -0.466977,0.259127 -0.552756,0.173347 -0.319105,-0.319107 -1.497231,1.330992 -1.979071,2.771911 -0.34606,1.034873 -0.413753,1.785494 -0.221479,2.45591 0.152298,0.531037 0.194023,1.0484 0.09272,1.149703 C 18.661169,65.712163 34.943549,81.95009 36,82.41216 c 1.246554,0.545216 4.072234,0.383789 5.102883,-0.29152 z"
       id="path823"
       inkscape:connector-curvature="0" />
    <path
       style="fill:#6598fe;stroke-width:0.31999999"
       d="M 112.66192,122.3785 C 111.74716,121.98159 91.894454,102.3351 80.230179,90.283622 76.683027,86.61872 76.114269,84.917402 77.536877,82.227206 78.353718,80.682534 80.403443,79.36 81.980608,79.36 c 2.170422,0 3.134442,0.850141 18.425892,16.249277 8.34017,8.398903 15.95947,16.116743 16.93178,17.150763 2.78283,2.95946 3.25479,4.73778 1.92484,7.25275 -1.2809,2.42222 -4.12328,3.44086 -6.6012,2.36571 z"
       id="path821"
       inkscape:connector-curvature="0" />
    <path
       style="fill:#323232;stroke-width:0.31999999"
       d="m 120.28424,148.79445 c -5.4354,-1.33714 -3.97223,-0.0524 -31.704931,-27.83801 L 63.398618,95.727741 61.699309,96.182992 C 59.369987,96.80703 51.377539,97.098259 47.68,96.69383 46.008,96.51095 42.912,95.83825 40.8,95.198938 33.818829,93.085715 29.689938,90.539926 23.975006,84.824992 18.446918,79.296906 16.332275,75.910877 13.86715,68.64 12.106482,63.446915 11.311624,55.916848 12.286919,53.669722 c 0.566734,-1.305783 8.371807,-9.045549 9.573913,-9.493808 1.256846,-0.468669 3.24936,-0.418727 4.469446,0.112032 0.566347,0.246368 5.564865,4.998368 11.107818,10.56 L 47.516189,64.96 49.598096,64.9687 C 50.743142,64.9734 53.048,65.11095 54.72,65.27425 l 3.04,0.296908 2,-1.976336 2,-1.976332 V 56.007341 50.396189 L 51.647946,40.318096 c -5.561632,-5.542954 -10.313632,-10.541471 -10.56,-11.107818 -0.569722,-1.309657 -0.571725,-3.023036 -0.0051,-4.340556 0.24358,-0.566347 2.36758,-2.924943 4.72,-5.241324 4.743113,-4.670433 4.924614,-4.764991 9.077142,-4.728964 6.77217,0.05875 16.179907,3.25245 22.053117,7.486494 2.070691,1.49278 8.011097,7.448652 9.609638,9.634661 1.688333,2.308797 4.376141,7.782752 5.584653,11.373635 1.156922,3.437594 1.956624,8.683235 1.942445,12.741478 -0.0095,2.706669 -0.587386,7.80728 -1.120791,9.891719 -0.215849,0.843491 0.114525,1.266419 4.689367,6.003094 2.706863,2.802621 14.001693,14.274282 25.099613,25.492579 l 20.17805,20.396906 1.24403,3.04 1.24403,3.04 v 4.8 4.8 l -1.25753,3.04 c -1.16928,2.82667 -1.4824,3.2669 -4.46207,6.27336 -3.64131,3.67404 -5.67938,4.89059 -9.88059,5.89785 -3.21864,0.77168 -6.33708,0.76619 -9.51972,-0.0168 z m 7.51055,-4.95178 c 0.67913,-0.0976 1.47113,-0.30388 1.76,-0.45847 0.28886,-0.1546 0.63825,-0.28488 0.77641,-0.28952 0.13815,-0.005 0.93015,-0.33125 1.76,-0.7258 1.42494,-0.6775 6.53562,-5.42186 6.42151,-5.96122 -0.0288,-0.13621 0.27236,-0.94882 0.66929,-1.80581 1.51459,-3.27001 1.51459,-8.33369 0,-11.6037 -0.39693,-0.85699 -0.69201,-1.6879 -0.65573,-1.84648 0.0363,-0.15858 -9.0853,-9.45019 -20.27016,-20.64804 C 107.07125,89.305789 97.92,80.004995 97.92,79.835203 c 0,-0.169792 -2.539405,-2.851059 -5.64312,-5.958374 -5.289005,-5.295133 -5.62873,-5.706989 -5.413824,-6.563245 0.126112,-0.50247 0.214598,-0.951094 0.196637,-0.996938 -0.01795,-0.04584 0.180093,-0.494768 0.440121,-0.997612 0.260032,-0.502845 0.560653,-1.682788 0.668048,-2.622096 0.107399,-0.939312 0.266224,-1.82265 0.352951,-1.962976 0.308041,-0.498423 0.367955,-6.843002 0.08157,-8.637405 -0.160064,-1.002896 -0.350067,-2.226896 -0.422231,-2.72 C 88.107987,48.88345 87.965933,48.156 87.864474,47.76 87.763011,47.364 87.617446,46.758125 87.540995,46.41361 87.464541,46.069098 87.11264,45.133098 86.758989,44.33361 86.405338,43.534125 86.184957,42.88 86.269251,42.88 c 0.0843,0 -0.02486,-0.324 -0.242601,-0.72 -0.217728,-0.396 -0.425293,-0.894806 -0.461252,-1.108458 -0.03596,-0.213651 -0.376691,-0.825651 -0.75718,-1.36 C 84.427728,39.157194 84.208032,38.72 84.32,38.72 c 0.111968,0 -0.09422,-0.41823 -0.458211,-0.929398 C 83.497805,37.279434 83.2,36.759418 83.2,36.635011 83.2,36.510605 82.624,35.720851 81.92,34.88 81.216,34.039149 80.64,33.23055 80.64,33.083117 80.64,32.722566 76.091827,28.16 75.732419,28.16 75.576438,28.16 74.744835,27.570591 73.88441,26.850202 73.023984,26.129813 72.32,25.636265 72.32,25.753428 72.32,25.870591 71.940579,25.668 71.476845,25.303226 71.01311,24.938452 70.495341,24.64 70.326243,24.64 c -0.169094,0 -0.73087,-0.301504 -1.248387,-0.670009 -0.517517,-0.368505 -1.115747,-0.69943 -1.329398,-0.735389 C 67.534806,23.198642 67.036,22.99108 66.64,22.773352 66.244,22.555623 65.92,22.458247 65.92,22.556959 65.92,22.655671 65.488,22.513039 64.96,22.24 64.432,21.966961 64,21.811915 64,21.895454 c 0,0.08354 -0.533366,-0.07097 -1.185258,-0.343344 -0.651894,-0.272378 -1.551894,-0.548474 -2,-0.613547 C 60.366634,20.873491 59.496,20.731495 58.88,20.623018 c -1.714003,-0.301836 -3.546941,-0.474942 -4.955427,-0.468 -1.191139,0.0059 -1.5032,0.233348 -4.72185,3.44202 l -3.446419,3.435733 10.583709,10.587251 10.583712,10.587248 -0.03062,7.816365 -0.03062,7.816365 -3.57592,3.589866 c -2.754925,2.765667 -3.726378,3.554368 -4.231245,3.435254 -0.360432,-0.08504 -2.095328,-0.212733 -3.855328,-0.283776 -1.76,-0.07104 -4.70727,-0.208973 -6.549491,-0.306515 L 45.300998,70.097482 34.65233,59.452368 24.003657,48.807254 l -3.49203,3.4812 -3.492029,3.4812 0.129006,2.259376 c 0.07095,1.24266 0.198229,2.482487 0.282833,2.755175 0.0846,0.272688 0.237197,1.202531 0.339095,2.066317 0.101898,0.863788 0.396128,1.978278 0.653844,2.476646 0.257717,0.498371 0.450414,0.943635 0.428216,0.989478 -0.243522,0.502935 1.987471,6.112583 2.575565,6.476045 0.188247,0.116343 0.276204,0.318423 0.195461,0.449069 -0.08074,0.130646 0.40931,0.972294 1.089007,1.87033 0.679697,0.898035 1.159882,1.70872 1.067076,1.801526 -0.0928,0.09281 1.655263,1.992736 3.884597,4.22207 2.229333,2.229335 4.129265,3.977402 4.22207,3.884596 0.0928,-0.0928 0.912336,0.395046 1.821178,1.084115 0.908841,0.689065 1.774208,1.253469 1.92304,1.254227 0.148832,6.4e-4 0.688832,0.299181 1.2,0.663165 0.511168,0.363987 0.929398,0.563424 0.929398,0.443197 0,-0.120224 0.324,-0.0088 0.72,0.24759 0.396,0.2564 1.152,0.585222 1.68,0.730714 0.528,0.145491 1.032,0.285382 1.12,0.31087 0.088,0.0255 1.168,0.370656 2.4,0.767043 5.0492,1.624541 13.788173,1.596973 18.725866,-0.05907 l 2.346601,-0.787024 25.943767,26.013591 c 21.139812,21.19671 26.240032,26.15121 27.543762,26.75675 0.88,0.40874 1.672,0.7528 1.76,0.76459 0.088,0.0118 0.44971,0.12116 0.8038,0.24307 0.35408,0.1219 1.11586,0.27661 1.69285,0.34379 0.57699,0.0672 1.10302,0.17636 1.16898,0.24262 0.14972,0.15042 2.48759,0.039 4.12916,-0.19685 z"
       id="path819"
       inkscape:connector-curvature="0" />
  </g>
</svg>
