<?xml version="1.0" encoding="UTF-8" standalone="no"?>
<!-- Created with Inkscape (http://www.inkscape.org/) -->

<svg
   xmlns:dc="http://purl.org/dc/elements/1.1/"
   xmlns:cc="http://creativecommons.org/ns#"
   xmlns:rdf="http://www.w3.org/1999/02/22-rdf-syntax-ns#"
   xmlns:svg="http://www.w3.org/2000/svg"
   xmlns="http://www.w3.org/2000/svg"
   xmlns:sodipodi="http://sodipodi.sourceforge.net/DTD/sodipodi-0.dtd"
   xmlns:inkscape="http://www.inkscape.org/namespaces/inkscape"
   version="1.1"
   id="svg2"
   width="16"
   height="16"
   viewBox="0 0 16 16"
   sodipodi:docname="GRIDFILL.svg"
   inkscape:version="0.92.4 (5da689c313, 2019-01-14)">
  <metadata
     id="metadata8">
    <rdf:RDF>
      <cc:Work
         rdf:about="">
        <dc:format>image/svg+xml</dc:format>
        <dc:type
           rdf:resource="http://purl.org/dc/dcmitype/StillImage" />
        <dc:title></dc:title>
      </cc:Work>
    </rdf:RDF>
  </metadata>
  <defs
     id="defs6" />
  <sodipodi:namedview
     pagecolor="#ffffff"
     bordercolor="#666666"
     borderopacity="1"
     objecttolerance="10"
     gridtolerance="10"
     guidetolerance="10"
     inkscape:pageopacity="0"
     inkscape:pageshadow="2"
     inkscape:window-width="811"
     inkscape:window-height="584"
     id="namedview4"
     showgrid="false"
     inkscape:zoom="14.75"
     inkscape:cx="8"
     inkscape:cy="8"
     inkscape:window-x="0"
     inkscape:window-y="0"
     inkscape:window-maximized="0"
     inkscape:current-layer="svg2" />
  <g
     id="GRIDFILL">
    <path
       style="fill:#ffffff;stroke-width:0.03125"
       d="M 0,14.75 V 13.5 h 8 8 V 14.75 16 H 8 0 Z M 0,1.25 V 0 h 8 8 V 1.25 2.5 H 8 0 Z"
       id="path827"
       inkscape:connector-curvature="0" />
    <path
       style="fill:#98cbfe;stroke-width:0.03125"
       d="M 0,11.75 V 10.5 l 0.3359375,-6.56e-4 c 0.43672588,-8.53e-4 15.3208045,-8.47e-4 15.5156255,6e-6 L 16,10.5 V 11.75 13 H 8 0 Z M 0.1796875,5.5375031 0,5.5281309 V 4.2640656 3 h 8 8 V 4.265625 5.53125 l -0.304687,6.531e-4 c -3.85036,0.00827 -15.38469303,0.012428 -15.5156255,0.0056 z"
       id="path825"
       inkscape:connector-curvature="0" />
    <path
       style="fill:#fecb00;stroke-width:0.03125"
       d="M 0.3359375,9.5380053 0,9.5291356 V 8.0145678 6.5 l 0.1640625,-7.469e-4 c 0.21741831,-9.875e-4 2.9443168,-0.00101 3.3826916,-2.5e-5 L 3.8903834,6.5 2.3778537,8.0127709 C 1.1193898,9.2714353 0.84907678,9.5273334 0.7685995,9.5362084 c -0.0531985,0.00587 -0.24789637,0.00668 -0.432662,0.0018 z M 1.8199146,9.53125 1.5929541,9.515625 3.1027163,8.0063806 4.6124784,6.4971359 9.5134472,6.4974484 c 2.6955328,1.563e-4 4.9056038,0.00494 4.9112688,0.010607 0.0057,0.00567 -0.668309,0.6888016 -1.49772,1.518081 L 11.418975,9.533917 6.7329247,9.540397 C 4.1555975,9.5439581 1.9447428,9.5398437 1.8199146,9.53125 Z m 10.6719734,0 -0.336236,-0.015625 1.508111,-1.5056637 c 1.274992,-1.2729219 1.522604,-1.5065079 1.601862,-1.5111238 0.05156,-0.003 0.237891,-0.00397 0.414063,-0.00215 L 16,6.5 V 8.015625 9.53125 l -0.148437,7.312e-4 c -0.08164,4.032e-4 -0.795313,0.00392 -1.585938,0.00781 -0.790625,0.00389 -1.588807,6.26e-5 -1.773737,-0.00854 z"
       id="path823"
       inkscape:connector-curvature="0" />
    <path
       style="fill:#fe0000;stroke-width:0.03125"
       d="M 0,10.015625 V 9.5335828 l 8,1.25e-4 8,1.25e-4 v 0.4817712 0.481771 l -8,1.25e-4 -8,1.25e-4 z m 0,-4 V 5.5338275 l 8,-9.37e-5 8,-9.38e-5 V 6.0156553 6.4976706 L 8,6.4975769 0,6.4974225 Z"
       id="path821"
       inkscape:connector-curvature="0" />
    <path
       style="fill:#000000;stroke-width:0.03125"
       d="M 0,13.25 V 13 h 8 8 v 0.25 0.25 H 8 0 Z M 1.1168073,9.53125 0.87423969,9.515625 2.3824323,8.0099266 C 3.2119384,7.1817922 3.9117188,6.5016106 3.9375,6.4984116 c 0.025781,-0.0032 0.1874456,-0.00415 0.3592541,-0.00212 L 4.6091334,6.5 3.096567,8.0128075 C 1.405312,9.7043322 1.5911413,9.5618044 1.1168073,9.53125 Z m 10.6250587,0 -0.305009,-0.015625 1.508134,-1.5057328 c 1.383873,-1.3816694 1.517146,-1.5061647 1.617509,-1.5109785 0.06016,-0.00288 0.221821,-0.00382 0.359254,-0.00208 L 15.171633,6.5 13.658461,8.0134134 c -0.832244,0.8323775 -1.535315,1.5179244 -1.562379,1.5234375 -0.02706,0.00551 -0.186461,0.00299 -0.354216,-0.0056 z M 0,2.75 V 2.5 h 8 8 V 2.75 3 H 8 0 Z"
       id="path819"
       inkscape:connector-curvature="0" />
  </g>
</svg>
