<?xml version="1.0" encoding="UTF-8" standalone="no"?>
<!-- Created with Inkscape (http://www.inkscape.org/) -->

<svg
   xmlns:dc="http://purl.org/dc/elements/1.1/"
   xmlns:cc="http://creativecommons.org/ns#"
   xmlns:rdf="http://www.w3.org/1999/02/22-rdf-syntax-ns#"
   xmlns:svg="http://www.w3.org/2000/svg"
   xmlns="http://www.w3.org/2000/svg"
   xmlns:sodipodi="http://sodipodi.sourceforge.net/DTD/sodipodi-0.dtd"
   xmlns:inkscape="http://www.inkscape.org/namespaces/inkscape"
   version="1.1"
   id="svg2"
   width="16"
   height="16"
   viewBox="0 0 16 16"
   sodipodi:docname="BEND.svg"
   inkscape:version="0.92.4 (5da689c313, 2019-01-14)">
  <metadata
     id="metadata8">
    <rdf:RDF>
      <cc:Work
         rdf:about="">
        <dc:format>image/svg+xml</dc:format>
        <dc:type
           rdf:resource="http://purl.org/dc/dcmitype/StillImage" />
        <dc:title></dc:title>
      </cc:Work>
    </rdf:RDF>
  </metadata>
  <defs
     id="defs6" />
  <sodipodi:namedview
     pagecolor="#ffffff"
     bordercolor="#666666"
     borderopacity="1"
     objecttolerance="10"
     gridtolerance="10"
     guidetolerance="10"
     inkscape:pageopacity="0"
     inkscape:pageshadow="2"
     inkscape:window-width="1251"
     inkscape:window-height="791"
     id="namedview4"
     showgrid="false"
     inkscape:zoom="14.75"
     inkscape:cx="8"
     inkscape:cy="8"
     inkscape:window-x="0"
     inkscape:window-y="0"
     inkscape:window-maximized="0"
     inkscape:current-layer="svg2" />
  <g
     id="BEND">
    <path
       style="fill:#ffffff;stroke-width:0.03125"
       d="M 0,8 V 0 h 8 8 v 8 8 H 8 0 Z m 2.4775483,2.435069 C 2.8132126,10.322912 3.1219379,10.078386 3.303025,9.78125 3.5011481,9.4561606 3.5627891,8.8909216 3.4391694,8.5328222 L 3.3803791,8.3625197 3.5239931,8.2359472 C 3.7600369,8.0279134 3.9196381,7.9068753 3.9583334,7.9065534 3.9783853,7.9063972 3.9994791,7.8948844 4.0052084,7.8809934 4.0259591,7.83068 4.3041525,7.660695 4.640625,7.4927334 5.1855737,7.2207041 5.7552575,7.0302972 6.3916347,6.9074891 l 0.331504,-0.063974 0.1544388,0.1689803 C 7.1845544,7.3483775 7.5336481,7.5 8,7.5 8.4663519,7.5 8.8154456,7.3483775 9.1224225,7.0124956 l 0.1544388,-0.1689803 0.331504,0.063974 c 0.6235907,0.1203403 1.2069207,0.3135775 1.7197597,0.5696965 0.333147,0.1663785 0.649529,0.3570875 0.666667,0.4018544 0.0057,0.014966 0.02682,0.027347 0.04687,0.027513 0.04073,3.375e-4 0.241081,0.1542566 0.442714,0.340116 l 0.132967,0.1225643 -0.05765,0.1669457 c -0.08285,0.2399022 -0.08037,0.6851575 0.0052,0.941369 0.112157,0.3356641 0.356683,0.6443898 0.653819,0.8254768 0.433802,0.264377 1.128698,0.264377 1.5625,0 0.297136,-0.181087 0.541662,-0.4898127 0.653819,-0.8254768 0.08931,-0.2672953 0.08931,-0.6878015 0,-0.9550968 C 15.233084,7.9179481 14.675215,7.5 14.07032,7.5 H 13.857418 L 13.670897,7.3096553 C 12.762893,6.3830403 11.332816,5.6887856 9.7523472,5.4073306 9.5559819,5.3723612 9.3922134,5.34375 9.3884172,5.34375 c -0.0038,0 -0.051133,-0.068929 -0.1051941,-0.1531753 C 8.9952816,4.7418569 8.5458641,4.5 8,4.5 7.4443847,4.5 6.9787394,4.7586087 6.6917675,5.2265625 6.6522419,5.2910156 6.6164775,5.34375 6.6122916,5.34375 c -0.00419,0 -0.1682735,0.028611 -0.3646388,0.063581 C 4.6671844,5.6887856 3.2371072,6.3830403 2.3291032,7.3096553 L 2.1425815,7.5 H 1.9296799 c -0.4771973,0 -0.9696649,0.2871419 -1.23270499,0.71875 -0.26445129,0.4339238 -0.26435757,1.1297506 2.0937e-4,1.5625 0.17933156,0.293329 0.47125972,0.528684 0.79948442,0.644551 0.2789205,0.09846 0.7019752,0.102459 0.9808785,0.0093 z"
       id="path825"
       inkscape:connector-curvature="0" />
    <path
       style="fill:#98cbfe;stroke-width:0.03125"
       d="M 3.2822375,8.1890391 C 3.0716536,7.8608722 2.7117764,7.6091481 2.3288719,7.5221859 L 2.1561906,7.4829678 2.3984078,7.2468944 C 3.1993631,6.4662547 4.2453206,5.9064841 5.5468672,5.5619169 c 0.3208841,-0.08495 1.0473481,-0.2281185 1.065485,-0.2099813 0.00446,0.00446 -0.018537,0.085301 -0.051102,0.1796481 -0.1179984,0.3418635 -0.061165,0.9391225 0.1154556,1.213315 0.025871,0.040163 0.040541,0.079521 0.0326,0.087462 -0.00794,0.00794 -0.1815212,0.048339 -0.3857337,0.089773 C 5.69481,7.0497087 5.1752072,7.2258787 4.640625,7.4927334 4.3041525,7.660695 4.0259591,7.83068 4.0052084,7.8809934 c -0.00573,0.013891 -0.027602,0.025257 -0.048607,0.025257 -0.021005,0 -0.1341457,0.080859 -0.2514244,0.1796875 C 3.3591894,8.3774941 3.3972197,8.3682231 3.2822375,8.1890391 Z m 9.0973675,-0.0307 C 12.270418,8.0579856 12.143856,7.9566959 12.098355,7.9332512 12.052853,7.9098069 11.998082,7.8740862 11.97664,7.8538722 11.808233,7.6951078 10.997275,7.3006281 10.515625,7.1431806 10.173919,7.03148 9.5413312,6.8762603 9.421875,6.8748047 9.3030681,6.8733578 9.268965,6.8291972 9.322495,6.7461184 9.4998969,6.4707909 9.5570037,5.8741869 9.43875,5.5315837 9.406185,5.4372362 9.3831887,5.3563944 9.3876478,5.3519356 c 0.018137,-0.018137 0.7446012,0.1250313 1.0654852,0.2099813 1.301546,0.3445672 2.347504,0.9043378 3.148459,1.6849775 l 0.242217,0.2360734 -0.172681,0.039218 c -0.382394,0.086846 -0.742781,0.3386863 -0.952624,0.6656972 -0.05501,0.085727 -0.1091,0.1552035 -0.120199,0.1543925 -0.0111,-8.094e-4 -0.109514,-0.083582 -0.2187,-0.1839364 z"
       id="path823"
       inkscape:connector-curvature="0" />
    <path
       style="fill:#fe9832;stroke-width:0.03125"
       d="M 1.6876684,9.94977 C 0.97961994,9.6924953 0.77288703,8.8193719 1.2961294,8.2961294 1.5014529,8.0908059 1.6872623,8.0171641 2,8.0171641 c 0.3127377,0 0.4985471,0.073642 0.7038706,0.2789653 C 2.9091941,8.5014528 2.982836,8.6872622 2.982836,9 c 0,0.3127378 -0.073642,0.4985472 -0.2789654,0.7038706 C 2.447107,9.9606341 2.009196,10.066599 1.6876684,9.94977 Z m 11.9999996,0 C 12.97962,9.6924953 12.772887,8.8193719 13.296129,8.2961294 13.501453,8.0908059 13.687262,8.0171641 14,8.0171641 c 0.312738,0 0.498547,0.073642 0.703871,0.2789653 C 14.909194,8.5014528 14.982836,8.6872622 14.982836,9 c 0,0.3127378 -0.07364,0.4985472 -0.278965,0.7038706 -0.256764,0.2567635 -0.694675,0.3627284 -1.016203,0.2458994 z m -5.9999996,-3 C 6.97962,6.6924953 6.7728872,5.8193719 7.2961294,5.2961294 7.5014528,5.0908059 7.6872622,5.0171641 8,5.0171641 c 0.3127378,0 0.4985472,0.073642 0.7038706,0.2789653 C 8.9091941,5.5014528 8.9828359,5.6872622 8.9828359,6 c 0,0.3127378 -0.073642,0.4985472 -0.2789653,0.7038706 C 8.4471069,6.9606341 8.0091959,7.0665994 7.6876684,6.94977 Z"
       id="path821"
       inkscape:connector-curvature="0" />
    <path
       style="fill:#323232;stroke-width:0.03125"
       d="M 1.4966697,10.425801 C 0.87387719,10.205949 0.5,9.6710934 0.5,9 0.5,8.5670697 0.61495672,8.269205 0.90051594,7.9622222 1.1921374,7.6487222 1.5459018,7.5 2,7.5 c 0.5518773,0 1.0235507,0.2601756 1.303025,0.71875 0.2643772,0.4338019 0.2643772,1.1286981 0,1.5625 -0.1009653,0.1656688 -0.3232062,0.392712 -0.4857871,0.496284 -0.3656692,0.23295 -0.9081448,0.293857 -1.3205682,0.148267 z M 2.421875,9.9037631 C 2.6195565,9.8099553 2.8077533,9.6227156 2.9062261,9.421875 c 0.1099947,-0.22434 0.1099947,-0.61941 0,-0.84375 C 2.808545,8.3788991 2.6211008,8.191455 2.421875,8.0937738 c -0.22434,-0.1099947 -0.61941,-0.1099947 -0.84375,0 C 0.76579919,8.49206 0.83351719,9.6394078 1.6876684,9.94977 1.8848836,10.021429 2.2178885,10.000563 2.421875,9.9037631 Z M 13.49667,10.425801 C 12.873877,10.205949 12.5,9.6710934 12.5,9 12.5,8.5670697 12.614957,8.269205 12.900516,7.9622222 13.192137,7.6487222 13.545902,7.5 14,7.5 c 0.454098,0 0.807863,0.1487222 1.099484,0.4622222 C 15.385043,8.269205 15.5,8.5670697 15.5,9 c 0,0.4329303 -0.114957,0.730795 -0.400516,1.037778 -0.29386,0.315906 -0.645491,0.46261 -1.106311,0.461563 -0.222725,-5.06e-4 -0.337968,-0.01758 -0.496503,-0.07354 z m 0.925205,-0.5220379 c 0.197682,-0.093808 0.385878,-0.2810475 0.484351,-0.4818881 0.109995,-0.22434 0.109995,-0.61941 0,-0.84375 -0.09768,-0.1992259 -0.285125,-0.38667 -0.484351,-0.4843512 -0.22434,-0.1099947 -0.61941,-0.1099947 -0.84375,0 -0.812326,0.3982862 -0.744608,1.545634 0.109543,1.8559962 0.197215,0.071659 0.53022,0.050793 0.734207,-0.046007 z M 7.4966697,7.4258009 C 6.8738772,7.2059491 6.5,6.6710934 6.5,6 6.5,5.5670697 6.6149569,5.269205 6.9005159,4.9622222 7.1921375,4.6487222 7.5459019,4.5 8,4.5 8.4540981,4.5 8.8078625,4.6487222 9.0994841,4.9622222 9.3850431,5.269205 9.5,5.5670697 9.5,6 9.5,6.4329303 9.3850431,6.730795 9.0994841,7.0377778 8.8056241,7.3536844 8.4539928,7.5003881 7.9931734,7.4993409 7.7704478,7.4988347 7.655205,7.4817653 7.4966697,7.4258009 Z M 8.421875,6.9037631 C 8.6195566,6.8099553 8.8077534,6.6227156 8.9062263,6.421875 c 0.1099946,-0.22434 0.1099946,-0.61941 0,-0.84375 C 8.808545,5.3788991 8.6211009,5.191455 8.421875,5.0937738 c -0.22434,-0.1099947 -0.61941,-0.1099947 -0.84375,0 C 6.7657991,5.49206 6.8335172,6.6394078 7.6876684,6.94977 c 0.197215,0.071659 0.53022,0.050793 0.7342066,-0.046007 z"
       id="path819"
       inkscape:connector-curvature="0" />
  </g>
</svg>
