<?xml version="1.0" encoding="UTF-8" standalone="no"?>
<!-- Created with Inkscape (http://www.inkscape.org/) -->

<svg
   xmlns:dc="http://purl.org/dc/elements/1.1/"
   xmlns:cc="http://creativecommons.org/ns#"
   xmlns:rdf="http://www.w3.org/1999/02/22-rdf-syntax-ns#"
   xmlns:svg="http://www.w3.org/2000/svg"
   xmlns="http://www.w3.org/2000/svg"
   xmlns:sodipodi="http://sodipodi.sourceforge.net/DTD/sodipodi-0.dtd"
   xmlns:inkscape="http://www.inkscape.org/namespaces/inkscape"
   version="1.1"
   id="svg2"
   width="16"
   height="16"
   viewBox="0 0 16 16"
   sodipodi:docname="MIRROR_MARKER.svg"
   inkscape:version="0.92.4 (5da689c313, 2019-01-14)">
  <metadata
     id="metadata8">
    <rdf:RDF>
      <cc:Work
         rdf:about="">
        <dc:format>image/svg+xml</dc:format>
        <dc:type
           rdf:resource="http://purl.org/dc/dcmitype/StillImage" />
        <dc:title></dc:title>
      </cc:Work>
    </rdf:RDF>
  </metadata>
  <defs
     id="defs6" />
  <sodipodi:namedview
     pagecolor="#ffffff"
     bordercolor="#666666"
     borderopacity="1"
     objecttolerance="10"
     gridtolerance="10"
     guidetolerance="10"
     inkscape:pageopacity="0"
     inkscape:pageshadow="2"
     inkscape:window-width="1153"
     inkscape:window-height="892"
     id="namedview4"
     showgrid="false"
     inkscape:zoom="14.75"
     inkscape:cx="8"
     inkscape:cy="8"
     inkscape:window-x="0"
     inkscape:window-y="0"
     inkscape:window-maximized="0"
     inkscape:current-layer="svg2" />
  <g
     id="MIRROR_MARKER">
    <path
       style="fill:#ffffff;stroke-width:0.03125"
       d="M 0,8 V 0 h 8 8 V 3 6 H 13.5 11 V 6.7719075 7.543815 L 10.304688,6.8555294 C 9.6362178,6.1938153 9.4317238,6.03125 9.26781,6.03125 9.184591,6.03125 9.188815,5.979183 9.279048,5.8927344 9.328177,5.8456654 9.3857549,5.7450762 9.406998,5.6692025 9.428607,5.5920225 9.464483,5.53125 9.488436,5.53125 c 0.06656,0 0.060308,-0.9042669 -0.00769,-1.1116206 C 9.4347825,4.2794466 9.2436125,4.0786541 7.3506612,2.182324 5.5341719,0.36259212 5.2545378,0.09439362 5.1403791,0.06243115 4.8621719,-0.01546204 4.9501225,-0.09126502 2.6794675,2.1834453 0.78755991,4.0787319 0.59646706,4.2794481 0.55049994,4.4196294 c -0.0611794,0.1865725 -0.0716449,1.0806687 -0.0148675,1.270175 0.0423185,0.1412465 0.18863709,0.2880162 0.33621825,0.3372547 0.0760017,0.025357 0.91179851,0.035643 2.93749991,0.036153 2.696216,6.781e-4 2.8260569,0.00327 2.7218994,0.054296 C 6.3755622,6.1937813 6.1832334,6.3959284 6.0930044,6.578125 l -0.077379,0.15625 -0.00854,4.203125 c -0.0077,3.788922 -0.0036,4.218336 0.041633,4.357481 0.101614,0.312603 0.3282578,0.544192 0.6389518,0.652894 0.1293682,0.04526 -0.1290687,0.04926 -3.2736059,0.05063 L 0,16 Z m 9.3123316,7.947875 C 9.6198131,15.840297 9.844055,15.613461 9.9492409,15.303595 9.9938263,15.172253 10,14.929509 10,13.307825 v -1.846241 l 0.198028,0.185246 c 0.224639,0.210138 0.427488,0.317523 0.649454,0.343812 L 11,12.008706 V 14.004353 16 L 10.085938,15.9985 C 9.2149994,15.9971 9.1785016,15.9947 9.3123316,15.94787 Z"
       id="path829"
       inkscape:connector-curvature="0" />
    <path
       style="fill:#fefefe;stroke-width:0.03125"
       d="M 6.6876684,15.948578 C 6.3757166,15.837875 6.1502034,15.607193 6.0487166,15.294981 6.0034866,15.155836 5.9993837,14.726422 6.0070834,10.9375 l 0.00854,-4.203125 0.077379,-0.15625 C 6.1916603,6.3789119 6.3789119,6.1916603 6.578125,6.0930044 l 0.15625,-0.077379 h 1.28125 1.28125 l 0.15625,0.075809 c 0.1124191,0.054543 0.3512972,0.2688856 0.851563,0.764095 L 11,7.543815 V 8.2639119 8.9840087 L 10.007632,7.9920044 9.0152644,7 H 8.0076322 7 v 4 4 H 8 9 V 12.007996 9.0159912 l 1,0.9996338 1,0.999634 v 0.496723 0.496724 l -0.152518,-0.01806 c -0.221728,-0.02626 -0.424765,-0.133627 -0.648522,-0.34294 l -0.197097,-0.184375 -0.00874,1.901149 -0.00874,1.901149 -0.077379,0.15625 C 9.80834,15.621088 9.6210881,15.80834 9.421875,15.906996 l -0.15625,0.07738 -1.21875,0.007 c -1.0483609,0.006 -1.2383869,6.2e-5 -1.3592066,-0.04282 z"
       id="path827"
       inkscape:connector-curvature="0" />
    <path
       style="fill:#7fdffe;stroke-width:0.03125"
       d="M 13,12.023621 V 9.0472412 l -1,0.9996338 -1,0.999634 V 10.030887 9.0152644 L 12.00799,8.0076322 13.01598,7 H 14.00799 15 v 4 4 h -1 -1 z"
       id="path825"
       inkscape:connector-curvature="0" />
    <path
       style="fill:#4c91fe;stroke-width:0.03125"
       d="m 11,13.523254 v -2.476745 l 1,-0.999634 1,-0.9996337 V 12.023621 15 h 1 1 V 11 7 H 14.00799 13.01598 L 12.00799,8.0076322 11,9.0152644 V 7.5076322 6 h 2.5 2.5 v 5 5 H 13.5 11 Z"
       id="path823"
       inkscape:connector-curvature="0" />
    <path
       style="fill:#fe9729;stroke-width:0.03125"
       d="M 7,11 V 7 H 8.0079956 9.0159912 L 10.007996,7.9923678 11,8.9847356 V 9.9999972 11.015259 L 10,10.015625 9,9.0159913 V 12.007996 15 H 8 7 Z M 1.53125,4.8827078 V 4.7341656 L 3.2735416,2.9920824 5.0158334,1.2499991 6.7579166,2.9922908 8.5,4.7345825 V 4.8829162 5.03125 H 5.015625 1.53125 Z"
       id="path821"
       inkscape:connector-curvature="0" />
    <path
       style="fill:#000000;stroke-width:0.03125"
       d="M 0.859375,6.0252731 C 0.72228997,5.9770978 0.57642147,5.8259459 0.53563247,5.6898044 0.47885503,5.5002981 0.4893205,4.6062019 0.55049994,4.4196294 0.59646706,4.2794481 0.78755991,4.0787319 2.6794675,2.1834453 4.9501225,-0.09126502 4.8621719,-0.01546204 5.1403791,0.06243115 5.2545378,0.09439362 5.5341719,0.36259212 7.3506612,2.182324 9.2436125,4.0786541 9.4347825,4.2794466 9.48075,4.4196294 9.548744,4.6269831 9.554996,5.53125 9.48844,5.53125 9.464503,5.53125 9.428638,5.591924 9.407097,5.6688641 9.385723,5.7452051 9.324458,5.8492303 9.269502,5.9024962 L 9.170436,5.9985142 7.9680323,6.0150052 C 5.2753034,6.0519344 0.95300669,6.0581778 0.859375,6.0252731 Z M 8.5,4.8829162 V 4.7345825 L 6.7579166,2.9922908 5.0158334,1.2499991 3.2735416,2.9920824 1.53125,4.7341656 V 4.8827078 5.03125 H 5.015625 8.5 Z"
       id="path819"
       inkscape:connector-curvature="0" />
  </g>
</svg>
