<?xml version="1.0" encoding="UTF-8" standalone="no"?>
<!-- Created with Inkscape (http://www.inkscape.org/) -->

<svg
   xmlns:dc="http://purl.org/dc/elements/1.1/"
   xmlns:cc="http://creativecommons.org/ns#"
   xmlns:rdf="http://www.w3.org/1999/02/22-rdf-syntax-ns#"
   xmlns:svg="http://www.w3.org/2000/svg"
   xmlns="http://www.w3.org/2000/svg"
   xmlns:sodipodi="http://sodipodi.sourceforge.net/DTD/sodipodi-0.dtd"
   xmlns:inkscape="http://www.inkscape.org/namespaces/inkscape"
   version="1.1"
   id="svg2"
   width="16"
   height="16"
   viewBox="0 0 16 16"
   sodipodi:docname="SHEAR.svg"
   inkscape:version="0.92.4 (5da689c313, 2019-01-14)">
  <metadata
     id="metadata8">
    <rdf:RDF>
      <cc:Work
         rdf:about="">
        <dc:format>image/svg+xml</dc:format>
        <dc:type
           rdf:resource="http://purl.org/dc/dcmitype/StillImage" />
        <dc:title></dc:title>
      </cc:Work>
    </rdf:RDF>
  </metadata>
  <defs
     id="defs6" />
  <sodipodi:namedview
     pagecolor="#ffffff"
     bordercolor="#666666"
     borderopacity="1"
     objecttolerance="10"
     gridtolerance="10"
     guidetolerance="10"
     inkscape:pageopacity="0"
     inkscape:pageshadow="2"
     inkscape:window-width="811"
     inkscape:window-height="564"
     id="namedview4"
     showgrid="false"
     inkscape:zoom="14.75"
     inkscape:cx="8"
     inkscape:cy="8"
     inkscape:window-x="0"
     inkscape:window-y="0"
     inkscape:window-maximized="0"
     inkscape:current-layer="svg2" />
  <g
     id="SHEAR">
    <path
       style="fill:#ffffff;stroke-width:0.03125"
       d="M 0,8 V 0 h 8 8 v 8 8 H 8 0 Z m 8.2990156,6.672797 c 0.08476,-0.02527 0.2261756,-0.09207 0.3142569,-0.148437 0.088081,-0.05637 0.2193003,-0.137641 0.2915978,-0.18061 0.072298,-0.04297 0.1689813,-0.107776 0.2148525,-0.144017 0.045871,-0.03624 0.6529334,-0.421081 1.3490272,-0.855201 0.696094,-0.434121 1.29375,-0.813664 1.328125,-0.843428 0.03438,-0.02976 0.26467,-0.179271 0.511767,-0.332236 0.247097,-0.152964 0.455251,-0.293712 0.462566,-0.312773 0.0089,-0.02313 0.08292,-0.0092 0.222608,0.04175 0.184747,0.06744 0.249648,0.0751 0.553059,0.06531 0.309091,-0.01 0.365137,-0.02117 0.555862,-0.11103 0.296775,-0.139827 0.556466,-0.395526 0.703169,-0.692358 0.115954,-0.234617 0.115969,-0.2347 0.115969,-0.644139 0,-0.409317 -6.3e-5,-0.409592 -0.115777,-0.6437506 C 14.654946,9.5660394 14.374983,9.2907256 14.109375,9.1867203 13.946309,9.1228681 13.866681,9.1131091 13.498337,9.1118325 13.081701,9.1103888 13.071415,9.11202 12.867038,9.2126459 L 12.659276,9.3149269 12.46245,9.2151806 C 12.254043,9.109565 11.207091,8.6262066 10.8125,8.4534297 10.683594,8.3969863 10.282813,8.2141191 9.921875,8.0470588 9.5609375,7.8799981 9.1601563,7.6971856 9.03125,7.6408087 8.9023438,7.5844316 8.5015625,7.4019484 8.140625,7.23529 7.7796875,7.0686319 7.0554687,6.7376962 6.53125,6.4998778 6.0070312,6.2620594 5.296875,5.93872 4.953125,5.7813459 4.609375,5.6239719 4.2800566,5.4749241 4.2213066,5.4501291 L 4.1144881,5.4050469 4.2121669,5.3353359 C 4.26589,5.296995 4.3821184,5.2234375 4.4704522,5.171875 4.5587862,5.1203125 4.6683678,5.0485156 4.7139672,5.0123262 4.7595666,4.9761369 5.0640625,4.7805578 5.390625,4.5777056 5.7171875,4.3748537 6.0125,4.1846284 6.046875,4.1549828 6.08125,4.1253369 6.3976562,3.9214403 6.75,3.7018788 7.1023437,3.4823175 7.4257812,3.2789616 7.46875,3.2499769 7.511719,3.2209919 7.603125,3.1623579 7.671875,3.1196778 c 0.06875,-0.04268 0.18125,-0.1132065 0.25,-0.156726 0.06875,-0.04352 0.1926644,-0.119784 0.2753656,-0.1694766 0.3732991,-0.2243044 0.4727781,-0.3748239 0.4727781,-0.7153502 0,-0.1628877 -0.016942,-0.2506713 -0.066343,-0.34375 C 8.4351331,1.4168172 8.0830337,1.2785165 7.7161566,1.3857676 7.5651453,1.4299136 6.6782234,1.9519551 6.515625,2.0923996 6.48125,2.122091 6.1859375,2.3124805 5.859375,2.5154873 5.5328125,2.7184942 5.1671875,2.9477937 5.046875,3.0250418 4.7501878,3.2155334 4.53243,3.3528522 4.203125,3.5571128 4.134375,3.5997572 4.0429687,3.6601419 4,3.6913016 3.9570312,3.7224613 3.78367,3.8347356 3.6147528,3.9408003 3.4458356,4.046865 3.2926119,4.1576941 3.2742553,4.1870875 3.2430191,4.237105 3.2306575,4.2364419 3.0813775,4.1767428 2.9490401,4.1238191 2.8497418,4.112735 2.4983376,4.11166 2.0839473,4.1103944 2.0704203,4.1125225 1.871997,4.2102044 1.6152949,4.3365784 1.2508772,4.7024228 1.1426761,4.9423806 0.99512844,5.2695972 1.0084408,5.8177153 1.1728325,6.1840291 1.2675937,6.395185 1.5592797,6.6998791 1.7662557,6.8039172 2.043091,6.94307 2.2072701,6.9760569 2.5624995,6.9638981 2.8885831,6.9527372 2.9106133,6.9474422 3.1590266,6.8205247 3.3158634,6.7403947 3.4301766,6.6992972 3.4506703,6.7156734 3.4862516,6.7441063 4.1662737,7.061345 4.5625,7.2343559 c 0.1289062,0.056286 0.5296875,0.239025 0.890625,0.4060854 0.3609375,0.1670606 0.7617187,0.3499834 0.890625,0.406495 0.1289062,0.056512 0.5929687,0.2674215 1.03125,0.4686887 0.4382812,0.2012672 0.9023438,0.4121769 1.03125,0.4686888 0.1289063,0.056511 0.5296875,0.2394343 0.890625,0.406495 0.3609375,0.1670603 0.761719,0.3498981 0.890625,0.4063056 0.37948,0.1660553 1.377014,0.6244946 1.553649,0.7140136 0.08966,0.04544 0.191616,0.08262 0.226562,0.08262 0.08561,0 0.08088,0.05134 -0.0068,0.07352 -0.06391,0.01617 -0.624313,0.354457 -1.054688,0.636649 -0.09453,0.06198 -0.221094,0.143085 -0.28125,0.180225 -0.148537,0.09171 -0.331128,0.20591 -0.5,0.312731 -0.2323478,0.146973 -0.3516644,0.220917 -0.5097406,0.3159 -0.082701,0.04969 -0.1881697,0.119293 -0.234375,0.154667 -0.046205,0.03537 -0.4636969,0.301346 -0.9277594,0.59105 -0.4640625,0.289704 -0.8767591,0.556074 -0.9171038,0.591934 -0.1722106,0.153067 -0.2610962,0.482137 -0.1957071,0.724542 0.1134309,0.420502 0.5163531,0.62973 0.9587015,0.497829 z"
       id="path825"
       inkscape:connector-curvature="0" />
    <path
       style="fill:#98cbfe;stroke-width:0.03125"
       d="m 7.7986819,14.672121 c -0.2362391,-0.08416 -0.3927541,-0.253915 -0.4583678,-0.497154 -0.065389,-0.242404 0.023497,-0.571474 0.1957071,-0.724541 0.040345,-0.03586 0.4530413,-0.30223 0.9171038,-0.591934 0.4640625,-0.289704 0.8815544,-0.555676 0.9277594,-0.59105 0.046205,-0.03538 0.151674,-0.104974 0.234375,-0.154667 0.1580762,-0.09498 0.2773928,-0.168927 0.5097406,-0.3159 0.130926,-0.08282 0.221756,-0.139767 0.5,-0.313493 0.06016,-0.03756 0.207812,-0.131689 0.328125,-0.209176 0.78234,-0.503865 1.002324,-0.629747 1.061095,-0.607194 0.02191,0.0084 0.04637,0.08325 0.05438,0.166323 0.02408,0.249994 0.164323,0.515654 0.380308,0.720417 0.105445,0.09997 0.226875,0.204855 0.269844,0.233085 0.101688,0.06681 0.09556,0.07242 -0.4375,0.4009 -0.232031,0.142979 -0.45,0.284155 -0.484375,0.313724 -0.03438,0.02957 -0.632031,0.40895 -1.328125,0.843071 -0.6960937,0.43412 -1.3031559,0.818961 -1.3490272,0.855201 -0.045871,0.03624 -0.1425547,0.101048 -0.2148525,0.144017 -0.072298,0.04297 -0.2035165,0.124243 -0.2915978,0.18061 -0.2864922,0.183338 -0.5702391,0.234808 -0.8145906,0.147761 z M 11.765625,10.524679 C 11.631834,10.453706 10.575497,9.9666369 10.1875,9.7970166 10.058594,9.7406628 9.6578125,9.5578691 9.296875,9.3908088 8.9359375,9.2237481 8.5351563,9.0408253 8.40625,8.9843138 8.2773438,8.9278019 7.8132812,8.7168922 7.375,8.515625 6.9367187,8.3143578 6.4726562,8.1034481 6.34375,8.0469363 6.2148437,7.9904247 5.8140625,7.8075019 5.453125,7.6404412 5.0921875,7.4733809 4.6914062,7.2906422 4.5625,7.2343559 4.1374759,7.0487706 3.4850841,6.7431766 3.4448003,6.7108019 3.4145156,6.6864631 3.4423816,6.6397103 3.563505,6.51164 3.6505588,6.4195938 3.7668047,6.2492413 3.8218297,6.1330791 3.9184922,5.9290166 3.921875,5.9080831 3.921875,5.5140044 V 5.1061334 L 3.8049941,4.8696413 C 3.71742,4.6924472 3.6325847,4.5807659 3.4666534,4.424235 3.2870591,4.2548147 3.2521328,4.2069591 3.2819013,4.1710903 3.3020906,4.1467638 3.4543441,4.0416066 3.6202422,3.9374078 3.7861403,3.8332091 3.9570313,3.7224613 4,3.6913016 4.0724609,3.638755 4.1559962,3.585245 4.4609375,3.3960391 4.6331475,3.2891884 4.8009231,3.1829581 5.046875,3.0250418 5.1671875,2.9477937 5.5328125,2.7184942 5.859375,2.5154873 6.1859375,2.3124805 6.48125,2.122091 6.515625,2.0923996 6.6782234,1.9519551 7.5651453,1.4299136 7.7161566,1.3857676 c 0.3668772,-0.1072511 0.7189765,0.03105 0.887519,0.3486074 0.049401,0.093079 0.066343,0.1808623 0.066343,0.34375 0,0.3405263 -0.099479,0.4910458 -0.4727782,0.7153502 -0.082701,0.049693 -0.2066156,0.125957 -0.2753656,0.1694766 -0.06875,0.043519 -0.18125,0.1140462 -0.25,0.156726 C 7.603125,3.1623575 7.5117188,3.2209922 7.46875,3.2499769 7.4257813,3.2789616 7.1023438,3.4823175 6.75,3.7018788 6.3976563,3.9214403 6.08125,4.1253369 6.046875,4.1549828 6.0125,4.1846284 5.7171875,4.3748538 5.390625,4.5777056 5.0640625,4.7805578 4.7595666,4.9761369 4.7139672,5.0123263 4.6683678,5.0485156 4.5587863,5.1203125 4.4704522,5.171875 4.3821184,5.2234375 4.26589,5.296995 4.2121669,5.3353359 l -0.097679,0.069711 0.1068185,0.045082 c 0.05875,0.024795 0.3880686,0.173843 0.7318186,0.331217 C 5.296875,5.93872 6.0070313,6.2620594 6.53125,6.4998778 7.0554688,6.7376963 7.7796875,7.0686319 8.140625,7.23529 8.5015625,7.4019484 8.9023438,7.5844316 9.03125,7.6408088 c 0.1289063,0.056377 0.5296875,0.2391893 0.890625,0.40625 0.360938,0.1670603 0.761719,0.3499275 0.890625,0.4063709 0.395977,0.1733841 1.44186,0.6562959 1.65169,0.7626294 l 0.198566,0.1006247 -0.22239,0.2293512 c -0.270364,0.2788278 -0.364742,0.471429 -0.394725,0.805528 -0.01976,0.220198 -0.02778,0.242062 -0.08837,0.240806 -0.03665,-7.6e-4 -0.122891,-0.03122 -0.191641,-0.06769 z"
       id="path823"
       inkscape:connector-curvature="0" />
    <path
       style="fill:#fe9832;stroke-width:0.03125"
       d="m 13.136142,11.405571 c -0.387527,-0.153593 -0.579892,-0.450463 -0.579892,-0.894925 0,-0.303455 0.06246,-0.441722 0.297343,-0.6582304 0.222785,-0.2053556 0.308233,-0.2367903 0.646217,-0.2377315 0.350543,-9.75e-4 0.520603,0.05916 0.679686,0.2403475 0.195372,0.2225204 0.241931,0.3496474 0.241931,0.6605934 0,0.307067 -0.04698,0.438553 -0.231967,0.649243 -0.238236,0.271335 -0.70621,0.378276 -1.053318,0.240703 z M 2.1361422,6.4055712 C 1.7486151,6.2519784 1.55625,5.9551084 1.55625,5.5106456 c 0,-0.303455 0.062459,-0.4417212 0.2973435,-0.65823 C 2.076378,4.64706 2.1618258,4.6156253 2.4998101,4.6146841 c 0.3505426,-9.75e-4 0.5206025,0.05916 0.6796855,0.2403475 0.1953728,0.22252 0.2419313,0.3496475 0.2419313,0.6605934 0,0.3070669 -0.046979,0.4385534 -0.2319672,0.6492434 -0.2382352,0.271335 -0.7062098,0.378276 -1.0533175,0.2407028 z"
       id="path821"
       inkscape:connector-curvature="0" />
    <path
       style="fill:#323232;stroke-width:0.03125"
       d="M 12.981975,11.896514 C 12.87753,11.85679 12.743937,11.794318 12.6851,11.757688 c -0.18257,-0.113665 -0.428297,-0.390035 -0.514097,-0.578209 -0.162351,-0.356062 -0.175073,-0.91166 -0.02833,-1.2370984 0.108201,-0.2399578 0.472619,-0.6058022 0.729321,-0.7321762 0.1985,-0.097721 0.211791,-0.099808 0.62634,-0.098372 0.368344,0.00127 0.447972,0.011036 0.611038,0.074888 0.265608,0.1040053 0.545571,0.3793191 0.696723,0.6851541 0.115657,0.2340155 0.115777,0.2346825 0.115777,0.6421295 0,0.394436 -0.0033,0.414858 -0.100471,0.619984 -0.14065,0.29694 -0.396659,0.556758 -0.692857,0.703168 -0.224991,0.111212 -0.249427,0.116289 -0.595644,0.123777 -0.313425,0.0068 -0.386067,-0.0017 -0.550928,-0.06442 z m 0.951061,-0.537726 c 0.184064,-0.10018 0.313161,-0.232939 0.418111,-0.429969 0.05789,-0.10869 0.07028,-0.181511 0.07028,-0.413194 0,-0.310946 -0.04656,-0.438073 -0.241931,-0.6605934 C 14.020412,9.6738438 13.850353,9.6137078 13.49981,9.6146841 13.161826,9.6156247 13.076378,9.64706 12.853593,9.8524156 12.618709,10.068924 12.55625,10.207191 12.55625,10.510646 c 0,0.444462 0.192365,0.741332 0.579892,0.894925 0.23746,0.09412 0.574357,0.07434 0.796894,-0.04678 z M 1.9819752,6.8965138 C 1.8775303,6.8567897 1.7439366,6.7943178 1.6851002,6.7576875 1.50253,6.6440231 1.2568036,6.3676528 1.1710032,6.1794788 1.0086522,5.8234169 0.99593012,5.2678194 1.1426761,4.9423806 1.2508772,4.7024228 1.6152949,4.3365784 1.871997,4.2102044 c 0.1984995,-0.097721 0.2117912,-0.099808 0.6263406,-0.098372 0.3683436,0.00128 0.4479717,0.011036 0.6110374,0.074888 0.2656084,0.1040053 0.5455709,0.3793191 0.6967228,0.6851541 0.1156569,0.2340159 0.1157772,0.2346825 0.1157772,0.64213 0,0.3944359 -0.00331,0.4148572 -0.1004706,0.6199831 C 3.6807538,6.4309281 3.4247453,6.6907462 3.1285466,6.8371556 2.9035558,6.9483675 2.8791201,6.9534453 2.5329029,6.9609325 2.2194778,6.9677103 2.146836,6.9592169 1.9819752,6.8965138 Z M 2.9330364,6.3587881 c 0.1840639,-0.10018 0.3131611,-0.232939 0.4181102,-0.4299693 0.101579,-0.1907038 0.101579,-0.6356838 0,-0.8263875 C 3.1544375,4.7331312 2.9455278,4.6134428 2.4998101,4.6146841 2.1618258,4.6156253 2.076378,4.64706 1.8535935,4.8524156 1.6187094,5.0689244 1.55625,5.2071906 1.55625,5.5106456 c 0,0.4444628 0.1923651,0.7413328 0.5798922,0.8949257 0.23746,0.094115 0.5743566,0.074337 0.7968942,-0.046783 z"
       id="path819"
       inkscape:connector-curvature="0" />
  </g>
</svg>
