<?xml version="1.0" encoding="UTF-8" standalone="no"?>
<!-- Created with Inkscape (http://www.inkscape.org/) -->

<svg
   xmlns:dc="http://purl.org/dc/elements/1.1/"
   xmlns:cc="http://creativecommons.org/ns#"
   xmlns:rdf="http://www.w3.org/1999/02/22-rdf-syntax-ns#"
   xmlns:svg="http://www.w3.org/2000/svg"
   xmlns="http://www.w3.org/2000/svg"
   xmlns:sodipodi="http://sodipodi.sourceforge.net/DTD/sodipodi-0.dtd"
   xmlns:inkscape="http://www.inkscape.org/namespaces/inkscape"
   version="1.1"
   id="svg2"
   width="16"
   height="16"
   viewBox="0 0 16 16"
   sodipodi:docname="TOSPHERE.svg"
   inkscape:version="0.92.4 (5da689c313, 2019-01-14)">
  <metadata
     id="metadata8">
    <rdf:RDF>
      <cc:Work
         rdf:about="">
        <dc:format>image/svg+xml</dc:format>
        <dc:type
           rdf:resource="http://purl.org/dc/dcmitype/StillImage" />
        <dc:title></dc:title>
      </cc:Work>
    </rdf:RDF>
  </metadata>
  <defs
     id="defs6" />
  <sodipodi:namedview
     pagecolor="#ffffff"
     bordercolor="#666666"
     borderopacity="1"
     objecttolerance="10"
     gridtolerance="10"
     guidetolerance="10"
     inkscape:pageopacity="0"
     inkscape:pageshadow="2"
     inkscape:window-width="955"
     inkscape:window-height="734"
     id="namedview4"
     showgrid="false"
     inkscape:zoom="14.75"
     inkscape:cx="8"
     inkscape:cy="8"
     inkscape:window-x="0"
     inkscape:window-y="0"
     inkscape:window-maximized="0"
     inkscape:current-layer="svg2" />
  <g
     id="TOSPHERE">
    <path
       style="fill:#ffffff;stroke-width:0.03125"
       d="M 0,8 V 0 h 8 8 v 8 8 H 8 0 Z m 8.6027375,7.852253 c 0.2878059,-0.135779 0.554955,-0.395063 0.6945547,-0.674106 0.059927,-0.119787 0.1089631,-0.240514 0.1089694,-0.268283 8.7e-6,-0.03825 0.083394,-0.07122 0.3438581,-0.135956 2.4156463,-0.600436 4.4225613,-2.606146 5.0228563,-5.0198433 l 0.08454,-0.3399019 0.200931,-0.087535 c 0.290143,-0.1264 0.566632,-0.3954559 0.715114,-0.6958884 L 15.89063,8.3938666 v -0.407871 c 0,-0.3944359 -0.0033,-0.4148572 -0.100471,-0.6199831 -0.111361,-0.2351059 -0.39644,-0.5579378 -0.571404,-0.6470763 -0.06016,-0.030647 -0.165915,-0.072611 -0.235019,-0.093253 l -0.125644,-0.03753 -0.08482,-0.3410597 C 14.295353,4.3254831 12.907277,2.6161297 11.109375,1.7351763 10.613827,1.4923632 10.204311,1.3389863 9.7501197,1.2260919 9.5610041,1.1790851 9.4062678,1.1249363 9.4062616,1.1057612 9.4062244,0.99353244 9.17051,0.61860737 8.9927966,0.44810825 8.7040009,0.17103658 8.5389891,0.1152797 7.9988309,0.11225103 7.5828778,0.10991879 7.5723428,0.1115745 7.3703147,0.21103272 7.1009481,0.34364147 6.7301422,0.72403547 6.6265075,0.97407284 L 6.5544591,1.1479026 6.2251481,1.2316402 C 4.3066694,1.7194735 2.6125311,3.1000671 1.7351763,4.890625 1.4923632,5.3861725 1.3389863,5.7956887 1.2260919,6.2498803 1.1790851,6.4389959 1.125293,6.5937322 1.1065538,6.5937384 0.99339728,6.5937697 0.67652738,6.8034591 0.47402088,7.012305 0.20223301,7.2926009 0.10646287,7.4864056 0.07859792,7.8125 0.03441025,8.3296138 0.16587486,8.7230544 0.48536131,9.0298409 0.65730816,9.1949528 1.0073931,9.4061191 1.109375,9.4062369 1.126562,9.4062566 1.179085,9.5610041 1.2260919,9.7501197 1.8247464,12.1586 3.8138234,14.155205 6.2254994,14.768449 l 0.3296622,0.08383 0.038439,0.12855 c 0.069671,0.232996 0.1784294,0.407391 0.3648985,0.585114 0.3305062,0.315004 0.5739387,0.404395 1.0727512,0.393925 0.3312025,-0.007 0.3760031,-0.01539 0.5714875,-0.107612 z"
       id="path827"
       inkscape:connector-curvature="0" />
    <path
       style="fill:#fefefe;stroke-width:0.03125"
       d="M 6.1875,14.761202 C 4.0979003,14.207252 2.3425057,12.656808 1.5188534,10.637644 1.3837608,10.306468 1.2136933,9.7643691 1.1717547,9.53125 l -0.019677,-0.109375 0.2622424,0.00995 0.2622425,0.00995 0.05654,0.2244215 c 0.2441097,0.9689315 0.845066,2.0367305 1.5879697,2.8215575 0.7534397,0.795957 1.9277837,1.496007 2.9601775,1.764621 l 0.265625,0.06911 0.00379,0.261128 c 0.00255,0.175356 -0.00772,0.260496 -0.03125,0.259205 -0.019274,-0.0011 -0.1686369,-0.03734 -0.3319181,-0.08062 z m 3.25,-0.174321 v -0.261835 l 0.2734375,-0.07089 c 1.0382995,-0.269176 2.2119075,-0.967648 2.9679905,-1.766397 0.742881,-0.784804 1.343863,-1.852635 1.587952,-2.8214901 l 0.05652,-0.224354 0.252362,-0.010361 c 0.138799,-0.0057 0.258216,-0.0067 0.265372,-0.00222 0.0072,0.00448 -0.02513,0.1581462 -0.07175,0.3414837 -0.47159,1.8545964 -1.771,3.4970944 -3.490567,4.4121944 -0.503811,0.268111 -1.251341,0.545236 -1.7397555,0.644962 L 9.4375,14.848716 Z M 9.4073738,14.121386 C 9.406755,14.093617 9.3558909,13.970236 9.2943413,13.847205 L 9.1824322,13.623512 9.3240747,13.381909 c 0.3063028,-0.52247 0.5862122,-1.249577 0.7665703,-1.991284 0.149058,-0.612991 0.144358,-0.555108 0.04346,-0.535179 C 9.7772962,10.925917 8.6880584,10.999382 8,10.999382 c -0.6880584,0 -1.7772963,-0.07347 -2.1341022,-0.143936 -0.1009012,-0.01993 -0.1056012,-0.07781 0.043457,0.535179 0.1840066,0.756711 0.4950622,1.553123 0.8000978,2.048533 l 0.1260897,0.204783 -0.062949,0.07647 c -0.034622,0.04206 -0.098003,0.152295 -0.1408468,0.244974 l -0.077898,0.168507 -0.058746,-0.07476 C 6.3721969,13.902728 6.1142666,13.45516 5.9699425,13.147858 5.7077991,12.58969 5.4370897,11.737359 5.2963372,11.027005 L 5.2428641,10.757136 4.9729947,10.703663 C 4.2626412,10.56291 3.4103103,10.292201 2.8521418,10.030058 2.512402,9.8704988 2.0769826,9.6161953 1.921875,9.4867419 1.8360542,9.4151153 1.8337537,9.4084025 1.8946752,9.4073738 1.9312777,9.406755 2.0577192,9.357685 2.1756562,9.2983275 L 2.3900871,9.190405 2.6248908,9.3280609 c 0.5154711,0.3022 1.2466164,0.5831594 1.9844842,0.7625841 0.6129906,0.149058 0.5551081,0.144358 0.5351794,0.04346 C 5.0740828,9.7772962 5.0006181,8.6880584 5.0006181,8 c 0,-2.3502878 0.5278825,-4.6070338 1.3774125,-5.888565 0.1565019,-0.2360859 0.1658138,-0.2443033 0.1947647,-0.171875 0.016722,0.041836 0.072089,0.1699913 0.123036,0.2847902 L 6.7884631,2.4330755 6.67378,2.621864 C 5.8585859,3.9638181 5.3790809,6.6011141 5.5334744,8.8935872 5.5700294,9.4363631 5.6675581,10.271725 5.6979166,10.302083 5.7616928,10.365859 7.3219587,10.5 8,10.5 c 0.6780413,0 2.238307,-0.134141 2.302083,-0.197917 0.03036,-0.03036 0.127888,-0.8657199 0.164443,-1.4084958 C 10.621729,6.5890912 10.157639,4.0399253 9.3240188,2.6179959 L 9.1823206,2.3762971 9.2517553,2.2787847 C 9.2899447,2.2251529 9.3451247,2.1039163 9.3743778,2.00937 L 9.4275653,1.8374677 9.5367519,1.9890464 C 10.433769,3.2343344 10.999382,5.5588275 10.999382,8 c 0,0.6880584 -0.07347,1.7772962 -0.143936,2.134102 -0.01993,0.100901 -0.07781,0.105601 0.535179,-0.04346 0.737978,-0.1794516 1.541659,-0.49082 2.023118,-0.7838134 l 0.179368,-0.1091547 0.207207,0.1042865 c 0.113964,0.057358 0.233639,0.1042866 0.265944,0.1042866 0.108598,0 0.06014,0.057986 -0.183449,0.2194959 -0.667832,0.4428081 -1.792037,0.8671371 -2.855808,1.0779171 l -0.269869,0.05347 -0.05347,0.269869 c -0.140753,0.710354 -0.411462,1.562685 -0.673605,2.120853 -0.2376343,0.505981 -0.6197921,1.103461 -0.6226842,0.973528 z M 1.1694625,6.4813619 C 1.2135709,6.2364416 1.3808805,5.7005931 1.5188534,5.3623559 2.2620325,3.5404697 3.7321844,2.1210186 5.59375,1.4279895 5.8972462,1.3150031 6.5262062,1.1407897 6.548855,1.1634384 c 0.00692,0.00692 0.0038,0.1263588 -0.00692,0.2654287 L 6.5224322,1.6817213 6.2232203,1.7647276 C 5.4152087,1.9888833 4.6031916,2.4173123 3.8727388,3.0048668 2.8799858,3.8034078 2.0421273,5.1074809 1.7325475,6.3359375 L 1.6754522,6.5625 1.5330386,6.5628437 c -0.078328,1.875e-4 -0.1971182,0.00938 -0.2639793,0.020424 l -0.1215657,0.020081 z m 13.3442725,0.089404 -0.189391,-0.010941 -0.07054,-0.2721 C 13.985016,5.2508497 13.286067,4.0767353 12.487761,3.3210725 11.702934,2.5781688 10.635135,1.9772125 9.6662034,1.7331028 L 9.4417819,1.6765628 9.4318284,1.4143203 9.421875,1.1520779 9.53125,1.1717547 c 0.060156,0.010822 0.2556897,0.061523 0.4345191,0.1126689 2.3126959,0.6614379 4.1932979,2.5890861 4.7972789,4.9172898 0.09841,0.3793622 0.0988,0.393586 0.01039,0.3860153 -0.03867,-0.00331 -0.155539,-0.010945 -0.259703,-0.016963 z"
       id="path825"
       inkscape:connector-curvature="0" />
    <path
       style="fill:#98cbfe;stroke-width:0.03125"
       d="M 6.15625,14.218281 C 4.858315,13.830789 3.6501566,12.994771 2.8503753,11.93069 2.4690427,11.42334 2.2214761,10.988732 1.9859913,10.413248 1.8637135,10.114423 1.6875,9.5578397 1.6875,9.4704425 c 0,-0.079064 0.1715276,-0.019964 0.4120625,0.1419775 0.6681628,0.449844 1.7937606,0.877312 2.8734322,1.091243 l 0.2698694,0.05347 0.053473,0.269869 c 0.2139306,1.079672 0.6413987,2.20527 1.0912428,2.873433 0.1788828,0.265698 0.2225966,0.414498 0.1202325,0.409268 -0.030078,-0.0015 -0.1882813,-0.04268 -0.3515625,-0.09143 z m 3.2744509,0.02391 c -0.00658,-0.04154 0.022842,-0.11507 0.071911,-0.179688 0.4844193,-0.637915 0.9683071,-1.860876 1.2010511,-3.035495 l 0.05347,-0.269869 0.269869,-0.05347 c 1.079672,-0.213931 2.20527,-0.641399 2.873433,-1.091243 0.240535,-0.1619412 0.412062,-0.2210416 0.412062,-0.1419775 0,0.087397 -0.176213,0.6439805 -0.298491,0.9428055 -0.235485,0.575485 -0.483052,1.010092 -0.864384,1.517442 -0.810734,1.078653 -2.06483,1.937822 -3.35887,2.30113 -0.3485409,0.09785 -0.3461962,0.09779 -0.3600541,0.01037 z M 6.6763616,13.382653 C 6.3696097,12.859417 6.0898144,12.132748 5.909355,11.390625 5.7602966,10.777634 5.7649966,10.835517 5.8658978,10.855446 6.2227037,10.925917 7.3119416,10.999382 8,10.999382 c 0.6880584,0 1.7772962,-0.07347 2.134102,-0.143936 0.100901,-0.01993 0.105601,-0.07781 -0.04346,0.535179 C 9.9100028,12.1335 9.6304141,12.859377 9.3228503,13.383997 L 9.1799834,13.627689 8.9884294,13.443915 C 8.7025734,13.169669 8.5351163,13.113519 8,13.112486 c -0.3922603,-7.57e-4 -0.4345572,0.005 -0.6025381,0.08269 -0.099365,0.04593 -0.262355,0.161428 -0.3622003,0.256665 -0.099846,0.09524 -0.1894763,0.173157 -0.1991794,0.173157 -0.0097,0 -0.081577,-0.109056 -0.1597206,-0.242347 z M 7.015625,10.462797 C 6.5470069,10.430272 5.7259678,10.330135 5.6979166,10.302083 5.6675581,10.271725 5.5700294,9.4363631 5.5334744,8.8935872 5.3777741,6.5817106 5.8607759,3.9540284 6.6926997,2.5870348 L 6.8013859,2.4084445 6.9553806,2.5653861 c 0.092601,0.094373 0.2467872,0.2029479 0.3867488,0.2723402 0.2324512,0.1152485 0.233285,0.1153987 0.640625,0.1153987 0.3944359,0 0.4148572,-0.00331 0.6199831,-0.1004706 0.1253481,-0.059373 0.2884234,-0.1732586 0.3986688,-0.2784147 0.1026056,-0.097869 0.1911346,-0.1721889 0.1967309,-0.1651545 0.0056,0.00703 0.062508,0.1002647 0.1264706,0.2071786 0.8222132,1.3743381 1.2965232,3.9817049 1.1419182,6.2773234 -0.03655,0.5427759 -0.134084,1.3781378 -0.164443,1.4084958 -0.03036,0.03036 -0.8657199,0.127888 -1.4084958,0.164443 -0.5706019,0.03843 -1.291171,0.037 -1.8779622,-0.0037 z M 5.046875,10.197305 C 4.0101691,9.9618572 3.1880281,9.6666722 2.6162638,9.3246078 2.5093499,9.2606453 2.4161196,9.2037338 2.4090852,9.1981372 2.4020508,9.1925409 2.4763703,9.1040119 2.5742397,9.0014063 2.6793958,8.8911609 2.7932814,8.7280856 2.8526544,8.6027375 2.9498157,8.3976116 2.953125,8.3771903 2.953125,7.9827544 c 0,-0.4074475 -1.187e-4,-0.4081141 -0.1157772,-0.64213 C 2.6315082,6.9241362 2.2035755,6.5948806 1.8660152,6.5932716 1.6798626,6.5923841 1.6708349,6.5681375 1.7481619,6.2767394 1.8845273,5.7628606 2.1531042,5.1464603 2.4609752,4.6407897 3.1943941,3.4361666 4.2678725,2.5229317 5.578125,1.9889525 5.8844844,1.864099 6.4418594,1.6875 6.5295575,1.6875 6.6086216,1.6875 6.5495212,1.8590276 6.38758,2.0995625 5.5349069,3.3660556 5.0006181,5.6390369 5.0006181,8 c 0,0.6866631 0.073409,1.7765584 0.1436531,2.132813 0.00932,0.04726 0.00528,0.08431 -0.00898,0.08231 -0.014257,-0.002 -0.054046,-0.01001 -0.088421,-0.01782 z m 5.808571,-0.0632 C 10.925917,9.7772962 10.999382,8.6880584 10.999382,8 10.999382,5.6390369 10.465093,3.3660556 9.61242,2.0995625 9.4504788,1.8590276 9.3913784,1.6875 9.4704425,1.6875 c 0.087698,0 0.6450735,0.176599 0.9514325,0.3014525 1.310253,0.5339792 2.383731,1.4472141 3.11715,2.6518372 0.307871,0.5056706 0.576448,1.1220709 0.712813,1.6359497 0.07813,0.2944078 0.06941,0.3156831 -0.129659,0.3165322 -0.186899,7.968e-4 -0.462943,0.163564 -0.710658,0.4190334 -0.271788,0.2802959 -0.367558,0.4741006 -0.395423,0.800195 -0.0432,0.5055725 0.08543,0.9015797 0.391094,1.2040572 l 0.184123,0.1822016 -0.17847,0.108614 c -0.480506,0.2924278 -1.284794,0.603955 -2.02222,0.7832722 -0.612991,0.149058 -0.555108,0.144358 -0.535179,0.04346 z"
       id="path823"
       inkscape:connector-curvature="0" />
    <path
       style="fill:#fe9832;stroke-width:0.03125"
       d="M 7.6361422,15.405571 C 7.248615,15.251978 7.05625,14.955108 7.05625,14.510646 c 0,-0.303455 0.062459,-0.441722 0.2973434,-0.65823 0.2227847,-0.205356 0.3082325,-0.236791 0.6462166,-0.237732 0.3505428,-9.75e-4 0.5206025,0.05916 0.6796856,0.240348 0.1953728,0.22252 0.2419313,0.349647 0.2419313,0.660593 0,0.307067 -0.046979,0.438553 -0.2319672,0.649243 C 8.4512244,15.436203 7.98325,15.543144 7.6361422,15.405571 Z M 1.2150713,8.8962325 C 0.78583172,8.7357228 0.5875,8.4464441 0.5875,7.9808816 0.5875,7.6757875 0.64960069,7.538005 0.88484353,7.3211656 1.1081893,7.1152925 1.1929388,7.0842391 1.5314495,7.0842391 c 0.4474626,0 0.6547606,0.1186234 0.8509471,0.4869422 0.1015789,0.1907037 0.1015789,0.6356837 0,0.8263875 C 2.2011726,8.7377972 1.9332903,8.9113338 1.5636972,8.9279297 1.4169317,8.93452 1.2855057,8.9225706 1.2150713,8.8962325 Z m 12.9374997,0 C 13.723332,8.7357228 13.525,8.4464441 13.525,7.9808816 c 0,-0.3050941 0.0621,-0.4428766 0.297343,-0.659716 0.223346,-0.2058731 0.308096,-0.2369265 0.646606,-0.2369265 0.351399,0 0.521708,0.060056 0.679297,0.2395425 0.195372,0.22252 0.241931,0.3496475 0.241931,0.6605934 0,0.2316828 -0.01239,0.3045038 -0.07028,0.4131938 -0.181224,0.3402284 -0.449107,0.5137649 -0.8187,0.5303609 -0.146765,0.00659 -0.278191,-0.00536 -0.348626,-0.031697 z M 7.6838213,2.4274824 C 7.2545816,2.2669728 7.05625,1.977694 7.05625,1.5121317 c 0,-0.305094 0.062101,-0.4428768 0.2973434,-0.65971614 0.223346,-0.20587294 0.3080954,-0.23692643 0.646606,-0.23692643 0.4474628,0 0.6547606,0.11862334 0.8509472,0.48694227 0.093576,0.1756782 0.1015037,0.6325429 0.014028,0.8083433 -0.0909,0.1826816 -0.2520822,0.3500151 -0.4308894,0.4473341 -0.1976638,0.1075821 -0.5589675,0.1409814 -0.7504639,0.069374 z"
       id="path821"
       inkscape:connector-curvature="0" />
    <path
       style="fill:#323232;stroke-width:0.03125"
       d="M 7.4819753,15.896514 C 7.3775303,15.85679 7.2439366,15.794318 7.1851003,15.757688 7.00253,15.644023 6.7568034,15.367653 6.6710031,15.179479 6.5086522,14.823417 6.49593,14.267819 6.6426762,13.942381 c 0.108201,-0.239958 0.4726188,-0.605803 0.7293207,-0.732177 0.1984997,-0.09772 0.2117912,-0.09981 0.6263406,-0.09837 0.3683437,0.0013 0.4479719,0.01103 0.6110375,0.07489 0.2656084,0.104006 0.5455709,0.379319 0.6967228,0.685154 0.1156569,0.234016 0.1157772,0.234683 0.1157772,0.64213 0,0.394436 -0.00331,0.414858 -0.1004706,0.619984 -0.1406506,0.29694 -0.3966591,0.556758 -0.6928578,0.703168 -0.224991,0.111212 -0.2494266,0.116289 -0.5956438,0.123777 -0.313425,0.0068 -0.3860669,-0.0017 -0.5509275,-0.06442 z m 0.951061,-0.537726 c 0.184064,-0.10018 0.3131612,-0.232939 0.4181103,-0.429969 0.057894,-0.10869 0.07028,-0.181511 0.07028,-0.413194 0,-0.310946 -0.046558,-0.438073 -0.2419313,-0.660593 C 8.5204125,13.673844 8.3503528,13.613708 7.99981,13.614684 7.6618259,13.615625 7.5763781,13.64706 7.3535934,13.852416 7.1187094,14.068924 7.05625,14.207191 7.05625,14.510646 c 0,0.444462 0.192365,0.741332 0.5798922,0.894925 0.23746,0.09412 0.5743565,0.07434 0.7968941,-0.04678 z M 1.078125,9.3952756 C 0.70570559,9.2724406 0.34444672,8.9655522 0.20408252,8.6527791 0.03969079,8.2864653 0.02637843,7.7383472 0.17392611,7.4111306 0.28223611,7.1709316 0.64653297,6.8053344 0.90374031,6.6787116 1.1031889,6.5805234 1.1150445,6.5786741 1.530081,6.5810009 c 0.3648477,0.00205 0.4488376,0.012381 0.610544,0.075131 0.2653501,0.1029681 0.5451985,0.377904 0.6967228,0.6844928 0.115657,0.2340159 0.1157772,0.2346825 0.1157772,0.64213 0,0.3944359 -0.00331,0.4148572 -0.1004706,0.6199831 C 2.7120038,8.8996781 2.4559953,9.1594963 2.1597966,9.3059056 1.9344929,9.4172722 1.9108515,9.4221653 1.5641529,9.4291897 1.3303093,9.4339275 1.1590895,9.4219803 1.078125,9.3952756 Z M 1.9642864,8.8275381 c 0.1840639,-0.10018 0.3131611,-0.232939 0.4181102,-0.4299693 0.1015789,-0.1907038 0.1015789,-0.6356838 0,-0.8263876 C 2.1862101,7.2028625 1.9789121,7.0842391 1.5314495,7.0842391 c -0.3385108,0 -0.4232602,0.031053 -0.64660597,0.2369265 C 0.64960069,7.538005 0.5875,7.6757875 0.5875,7.9808816 c 0,0.4655625 0.19833172,0.7548412 0.6275713,0.9153509 0.1908914,0.071382 0.5528205,0.038197 0.7492151,-0.068694 z M 14.015625,9.3952756 C 13.643206,9.2724406 13.281947,8.9655522 13.141583,8.6527791 12.977191,8.2864653 12.963878,7.7383472 13.111426,7.4111306 c 0.10831,-0.240199 0.472607,-0.6057962 0.729814,-0.732419 0.199449,-0.098188 0.211304,-0.1000375 0.626341,-0.097711 0.364848,0.00205 0.448837,0.012381 0.610544,0.075131 0.26535,0.1029681 0.545198,0.377904 0.696723,0.6844928 0.115657,0.2340159 0.115777,0.2346825 0.115777,0.64213 0,0.3944359 -0.0033,0.4148572 -0.100471,0.6199831 -0.14065,0.2969406 -0.396659,0.5567588 -0.692857,0.7031681 -0.225304,0.1113666 -0.248945,0.1162597 -0.595644,0.1232841 -0.233844,0.00474 -0.405064,-0.00721 -0.486028,-0.033914 z m 0.886161,-0.5677375 c 0.184064,-0.10018 0.313162,-0.232939 0.418111,-0.4299693 0.05789,-0.10869 0.07028,-0.181511 0.07028,-0.4131938 0,-0.3109459 -0.04656,-0.4380734 -0.241931,-0.6605934 -0.157589,-0.1794863 -0.327898,-0.2395425 -0.679297,-0.2395425 -0.33851,0 -0.42326,0.031053 -0.646606,0.2369265 C 13.587101,7.538005 13.525,7.6757875 13.525,7.9808816 c 0,0.4655625 0.198332,0.7548412 0.627571,0.9153509 0.190892,0.071382 0.552821,0.038197 0.749215,-0.068694 z M 7.546875,2.9265257 C 7.1744556,2.8036905 6.8131969,2.496802 6.6728325,2.1840289 6.5084409,1.8177154 6.4951284,1.2695972 6.6426762,0.94238056 6.7509863,0.70218147 7.1152831,0.33658437 7.3724903,0.20996164 7.5719387,0.11177344 7.5837944,0.10992393 7.9988309,0.11225103 8.3636788,0.11429672 8.4476684,0.12463213 8.609375,0.18738167 8.8744859,0.29025692 9.1545872,0.5653135 9.3057922,0.87125625 9.4132338,1.0886494 9.4220597,1.1281493 9.4327084,1.4392588 9.4458625,1.8235671 9.3959006,2.0506757 9.2465719,2.2853687 9.1073944,2.5041072 8.8377363,2.7413795 8.6018291,2.8526782 8.4074969,2.9443621 8.3619166,2.9529385 8.03125,2.9600383 7.7977828,2.9650511 7.6280809,2.9533099 7.546875,2.9265257 Z M 8.4342847,2.3581088 C 8.6130919,2.2607897 8.7742741,2.0934563 8.8651741,1.9107747 8.9526503,1.7349742 8.9447222,1.2781096 8.8511466,1.1024314 8.65496,0.73411247 8.4476622,0.61548912 8.0001994,0.61548912 c -0.3385106,0 -0.42326,0.0310535 -0.646606,0.23692644 C 7.1183506,1.0692549 7.05625,1.2070377 7.05625,1.5121317 c 0,0.4655623 0.1983316,0.7548411 0.6275712,0.9153507 0.191496,0.071608 0.5527997,0.038208 0.7504635,-0.069374 z"
       id="path819"
       inkscape:connector-curvature="0" />
  </g>
</svg>
