<?xml version="1.0" encoding="UTF-8" standalone="no"?>
<!-- Created with Inkscape (http://www.inkscape.org/) -->

<svg
   xmlns:dc="http://purl.org/dc/elements/1.1/"
   xmlns:cc="http://creativecommons.org/ns#"
   xmlns:rdf="http://www.w3.org/1999/02/22-rdf-syntax-ns#"
   xmlns:svg="http://www.w3.org/2000/svg"
   xmlns="http://www.w3.org/2000/svg"
   xmlns:sodipodi="http://sodipodi.sourceforge.net/DTD/sodipodi-0.dtd"
   xmlns:inkscape="http://www.inkscape.org/namespaces/inkscape"
   version="1.1"
   id="svg2"
   width="16.09375"
   height="16"
   viewBox="0 0 16.09375 16"
   sodipodi:docname="CONSTRAINT_DATA.svg"
   inkscape:version="0.92.4 (5da689c313, 2019-01-14)">
  <metadata
     id="metadata8">
    <rdf:RDF>
      <cc:Work
         rdf:about="">
        <dc:format>image/svg+xml</dc:format>
        <dc:type
           rdf:resource="http://purl.org/dc/dcmitype/StillImage" />
        <dc:title></dc:title>
      </cc:Work>
    </rdf:RDF>
  </metadata>
  <defs
     id="defs6" />
  <sodipodi:namedview
     pagecolor="#ffffff"
     bordercolor="#666666"
     borderopacity="1"
     objecttolerance="10"
     gridtolerance="10"
     guidetolerance="10"
     inkscape:pageopacity="0"
     inkscape:pageshadow="2"
     inkscape:window-width="1104"
     inkscape:window-height="780"
     id="namedview4"
     showgrid="false"
     inkscape:zoom="14.75"
     inkscape:cx="8.046875"
     inkscape:cy="8"
     inkscape:window-x="0"
     inkscape:window-y="0"
     inkscape:window-maximized="0"
     inkscape:current-layer="svg2" />
  <g
     id="CONSTRAINT_DATA">
    <path
       style="fill:#ffffff;stroke-width:0.03125"
       d="M 0,8 V 0 h 8.046875 8.046875 v 8 8 H 8.046875 0 Z m 5.3213075,6.145021 C 5.6457437,14.047106 6.0303412,13.860341 6.3125,13.663687 6.4242187,13.585823 6.9515625,13.08893 7.484375,12.559479 l 0.96875,-0.962637 0.21875,0.06694 c 0.1921288,0.05879 0.2948106,0.067 0.84375,0.06746 0.592205,5e-4 0.639391,-0.0039 0.89927,-0.08421 0.364161,-0.112514 0.764739,-0.317078 1.070216,-0.54653 0.325035,-0.244141 3.4886,-3.4210204 3.67877,-3.694252 0.194576,-0.2795613 0.382129,-0.6643669 0.483104,-0.9911925 0.08024,-0.2597222 0.08479,-0.3079341 0.08479,-0.8994325 0,-0.5914153 -0.0046,-0.6397381 -0.08474,-0.8992697 C 15.534644,4.2526037 15.330126,3.8519231 15.100763,3.5461388 14.867482,3.2351312 13.679733,2.0587163 13.40625,1.8677958 13.12755,1.6732331 12.742697,1.4854916 12.415058,1.3842655 c -0.259723,-0.080243 -0.307935,-0.084788 -0.899433,-0.084788 -0.591498,0 -0.63971,0.00454 -0.899432,0.084788 C 10.288996,1.4853549 9.9041672,1.6729943 9.625,1.8675633 9.5132813,1.9454271 8.9859375,2.4423204 8.453125,2.9717707 l -0.96875,0.9626368 -0.21875,-0.066936 c -0.1921288,-0.05879 -0.2948106,-0.067001 -0.84375,-0.067465 -0.5922881,-5e-4 -0.6393634,0.00391 -0.8994325,0.084259 C 5.1956169,3.9852403 4.8108113,4.1727928 4.53125,4.3673688 4.2580184,4.5575391 1.0811393,7.7211041 0.83699762,8.0461388 0.60754634,8.3516156 0.40298209,8.7521944 0.29046827,9.1163553 c -0.0801868,0.2595316 -0.0847403,0.3078544 -0.0847403,0.8992697 0,0.591415 0.004554,0.639738 0.0847403,0.89927 0.11238735,0.363751 0.31690617,0.764432 0.54626907,1.070216 0.23328066,0.311008 1.42102966,1.487423 1.69451266,1.678343 0.2331466,0.162762 0.6299128,0.36628 0.8629056,0.442621 0.3711838,0.121621 0.5466616,0.142576 1.1058444,0.132058 0.4838678,-0.0091 0.5784931,-0.01983 0.8213075,-0.09311 z M 4.2151584,11.708674 C 4.1530269,11.685488 4.0616206,11.637186 4.0120334,11.601337 3.8463631,11.481566 2.8207241,10.423376 2.7628427,10.3125 2.6727321,10.139887 2.6835723,9.8613106 2.7871633,9.6875 2.8332602,9.6101562 3.4115634,9.0072609 4.0722819,8.3477325 l 1.2013059,-1.1991428 0.015303,0.4960178 c 0.012859,0.4168147 0.028465,0.5398381 0.097733,0.77045 0.1550838,0.5163172 0.4416572,1.0026016 0.8288685,1.4065 L 6.4189081,10.03374 5.6547666,10.800167 C 5.2344887,11.221702 4.8323,11.601322 4.7610141,11.643766 4.6025109,11.738139 4.3686359,11.765949 4.2151584,11.708674 Z M 10.648609,7.8866425 C 10.63575,7.4698278 10.620145,7.3468044 10.550877,7.1161925 10.395793,6.5998753 10.10922,6.1135909 9.7220084,5.7096925 L 9.5185919,5.4975097 10.282733,4.7310825 c 0.420278,-0.421535 0.827423,-0.8041269 0.904767,-0.8502044 0.173801,-0.1035418 0.452404,-0.1143759 0.625,-0.024305 0.150425,0.078501 1.235346,1.1575044 1.338226,1.3309266 0.117461,0.1980016 0.117306,0.4587744 -3.91e-4,0.65625 -0.0461,0.077344 -0.6244,0.6802391 -1.285118,1.3397675 L 10.663911,8.38266 10.648611,7.8866422 Z M 8.0038216,8.0152031 C 7.8690306,7.8616847 7.8120975,7.7402153 7.7908509,7.56082 c -0.02204,-0.1860922 0.00994,-0.1961184 0.1428275,-0.044773 0.134791,0.1535184 0.1917241,0.2749878 0.2129707,0.4543831 0.02204,0.1860922 -0.00994,0.1961184 -0.1428275,0.044773 z"
       id="path823"
       inkscape:connector-curvature="0" />
    <path
       style="fill:#98cbfe;stroke-width:0.03125"
       d="M 4,13.730247 C 3.5386566,13.641528 3.1234889,13.455652 2.7335081,13.163223 2.4242749,12.931343 1.4032946,11.899373 1.2116652,11.625 1.0188375,11.348911 0.85836891,11.02009 0.77384912,10.727859 0.67178297,10.37496 0.67178297,9.65629 0.77384912,9.3033909 0.858127,9.0119959 1.0183492,8.6833013 1.2111602,8.40625 1.4009526,8.1335366 4.4094862,5.1117072 4.7335081,4.8683359 5.0384963,4.6392606 5.387155,4.4606591 5.7098294,4.3682116 5.9085306,4.3112831 6.0333156,4.2983572 6.390625,4.2976909 c 0.240625,-4.5e-4 0.4922203,0.010741 0.5591009,0.024866 l 0.121601,0.025681 -0.5307281,0.5368185 C 6.02936,5.4021619 5.8000791,5.6818363 5.6608147,5.9582069 5.6184422,6.0422956 5.0327056,6.6517022 4.0041875,7.6817806 2.1443074,9.5444819 2.203125,9.468265 2.203125,10.015625 c 0,0.293448 0.00686,0.327756 0.1057565,0.528636 0.090402,0.183634 0.1975873,0.306607 0.7382739,0.847021 0.5395287,0.539256 0.6640068,0.6477 0.8467115,0.737646 0.200169,0.09854 0.2347415,0.105447 0.5280081,0.105447 0.5497678,0 0.4679775,0.06347 2.3746837,-1.842693 C 8.2896372,8.8990306 8.4376422,8.7417559 8.5346203,8.5447656 8.6337944,8.3433144 8.640625,8.3092175 8.640625,8.015625 8.640625,7.7244381 8.6332684,7.6868678 8.5386,7.4945687 8.4824863,7.3805853 8.3588281,7.2057622 8.2638041,7.1060725 L 8.0910328,6.9248184 8.6228447,6.3930069 9.1546566,5.861195 9.2689553,5.96966 c 0.3216441,0.3052266 0.6724244,0.8893894 0.8009977,1.3339194 0.101985,0.3526078 0.101985,1.0714834 0,1.4240912 C 9.976313,9.0514206 9.7975666,9.3998994 9.5691641,9.7039919 9.3257928,10.028014 6.3039634,13.036547 6.03125,13.22634 5.5131087,13.586935 5.1111084,13.720517 4.5,13.735161 c -0.2320313,0.0056 -0.4570313,0.0033 -0.5,-0.0049 z m 5.140625,-2.493805 c -0.017188,-0.0069 -0.08597,-0.02177 -0.1528509,-0.033 l -0.121601,-0.02043 0.5307281,-0.536819 C 9.9091116,10.128106 10.137354,9.8495228 10.277601,9.5712494 10.3212,9.48474 10.890903,8.8922025 11.933676,7.8487962 c 1.449157,-1.4500378 1.598937,-1.6095203 1.695155,-1.8049671 0.09865,-0.200391 0.105544,-0.234881 0.105544,-0.5282041 0,-0.2937166 -0.0068,-0.3276322 -0.106218,-0.5295747 C 13.53707,4.8010281 13.431758,4.6802912 12.888937,4.1385644 12.350752,3.6014634 12.223994,3.4911137 12.042688,3.4018569 11.843589,3.3038409 11.808617,3.296875 11.515625,3.296875 c -0.293788,0 -0.327599,0.00679 -0.529826,0.1063422 -0.197908,0.09743 -0.352696,0.2430994 -1.8469662,1.738164 C 7.2334606,7.0477662 7.296875,6.9660266 7.296875,7.515625 c 0,0.2897344 0.00765,0.3293641 0.099764,0.5164638 0.05487,0.1114571 0.1780453,0.2867634 0.2737225,0.3895693 L 7.8443203,8.6085781 7.3135819,9.1393166 6.7828434,9.670055 6.6685447,9.56159 C 6.3469006,9.2563634 5.9961203,8.6722006 5.8675475,8.2276706 5.7655341,7.8749684 5.7655603,7.1561956 5.86761,6.8033909 5.9518878,6.5119959 6.11211,6.1833012 6.3049212,5.90625 6.4947134,5.6335366 9.5032472,2.6117073 9.8272691,2.368336 10.131362,2.1399335 10.47984,1.9611868 10.80359,1.8675474 c 0.352608,-0.1019859 1.071484,-0.1019859 1.424092,0 0.594429,0.171929 0.99755,0.4558747 1.790875,1.2614357 0.743744,0.755215 0.97856,1.098571 1.145105,1.6744078 0.102039,0.3528047 0.102065,1.0715775 6.2e-5,1.4242797 -0.09364,0.32375 -0.272386,0.6722288 -0.500788,0.9763213 -0.243393,0.3240219 -3.265223,3.3325551 -3.537936,3.5223481 -0.515795,0.358962 -0.918565,0.493292 -1.53125,0.510693 -0.2320312,0.0066 -0.4359375,0.0063 -0.453125,-5.91e-4 z"
       id="path821"
       inkscape:connector-curvature="0" />
    <path
       style="fill:#0032fe;stroke-width:0.03125"
       d="M 3.7535306,14.203424 C 3.3175866,14.105147 2.8991712,13.920303 2.53125,13.663454 2.257767,13.472534 1.070018,12.296119 0.83673734,11.985111 0.60737444,11.679327 0.40285562,11.278646 0.29046827,10.914895 c -0.0801868,-0.259532 -0.0847403,-0.307855 -0.0847403,-0.89927 0,-0.5914153 0.004554,-0.6397381 0.0847403,-0.8992697 C 0.40298209,8.7521944 0.60754634,8.3516156 0.83699762,8.0461388 1.0811393,7.7211041 4.2580184,4.5575391 4.53125,4.3673687 4.8108113,4.1727928 5.1956169,3.9852403 5.5224425,3.8842653 c 0.2600691,-0.08035 0.3071444,-0.08476 0.8994325,-0.084259 0.5489394,4.625e-4 0.6516212,0.00867 0.84375,0.067465 l 0.21875,0.066936 0.96875,-0.9626368 C 8.9859375,2.4423204 9.5132813,1.9454271 9.625,1.8675633 c 0.2791672,-0.194569 0.663996,-0.3822084 0.991193,-0.4832978 0.259722,-0.080243 0.307934,-0.084788 0.899432,-0.084788 0.591498,0 0.63971,0.00454 0.899433,0.084788 0.327639,0.1012261 0.712492,0.2889676 0.991192,0.4835303 0.273483,0.1909205 1.461232,1.3673354 1.694513,1.6783429 0.229363,0.3057844 0.433881,0.706465 0.546269,1.0702166 0.08019,0.2595316 0.08474,0.3078544 0.08474,0.8992697 0,0.5914984 -0.0045,0.6397103 -0.08479,0.8994325 -0.100975,0.3268256 -0.288528,0.7116312 -0.483104,0.9911925 -0.19017,0.2732316 -3.353735,3.450111 -3.67877,3.694252 -0.305477,0.229452 -0.706055,0.434016 -1.070216,0.54653 -0.259879,0.08029 -0.307065,0.08471 -0.89927,0.08421 -0.5489394,-4.65e-4 -0.6516213,-0.0087 -0.84375,-0.06746 l -0.21875,-0.06694 -0.96875,0.962636 C 6.9515625,13.08893 6.4242187,13.585823 6.3125,13.663687 6.0303412,13.860341 5.6457437,14.047106 5.3213075,14.145021 5.0784931,14.218303 4.9838678,14.229031 4.5,14.238133 c -0.3953303,0.0074 -0.6021847,-0.0022 -0.7464694,-0.03471 z M 5.1506562,13.658676 C 5.4286534,13.578022 5.7588741,13.415897 6.03125,13.22634 6.3039634,13.036547 9.3257928,10.028014 9.5691641,9.7039919 9.7975666,9.3998994 9.9763131,9.0514206 10.069953,8.7276706 c 0.101985,-0.3526078 0.101985,-1.0714834 0,-1.4240912 C 9.9413797,6.8590494 9.5905994,6.2748866 9.2689553,5.96966 L 9.1546566,5.861195 8.6228447,6.3930069 8.0910328,6.9248184 8.2638041,7.1060725 c 0.095024,0.09969 0.2186822,0.2745128 0.2747959,0.3884962 0.094668,0.1922991 0.102025,0.2298694 0.102025,0.5210563 0,0.2935925 -0.00683,0.3276894 -0.1060047,0.5291406 -0.096978,0.1969903 -0.2449831,0.354265 -1.7380616,1.8469164 -1.9067062,1.90616 -1.8249159,1.842693 -2.3746837,1.842693 -0.2932666,0 -0.3278391,-0.0069 -0.5280081,-0.105447 C 3.7111622,12.038983 3.5866841,11.930538 3.0471554,11.391282 2.5064688,10.850868 2.3992839,10.727895 2.3088815,10.544261 2.2099886,10.343381 2.203125,10.309073 2.203125,10.015625 2.203125,9.468265 2.144307,9.5444819 4.0041875,7.6817806 5.0327056,6.6517022 5.6184422,6.0422956 5.6608147,5.9582069 5.8000791,5.6818362 6.02936,5.4021619 6.5405987,4.8850566 L 7.0713269,4.3482381 6.9497259,4.3225566 C 6.8828453,4.3084316 6.63125,4.2972422 6.390625,4.2976909 6.0333156,4.2983566 5.9085306,4.3112831 5.7098294,4.3682116 5.387155,4.4606591 5.0384962,4.6392606 4.7335081,4.8683359 4.4094862,5.1117072 1.4009526,8.1335366 1.2111602,8.40625 1.0183492,8.6833013 0.858127,9.0119959 0.77384912,9.3033909 c -0.10206615,0.3528991 -0.10206615,1.0715691 0,1.4244681 0.16654476,0.575837 0.40136108,0.919193 1.14510488,1.674408 0.7915636,0.803773 1.2141622,1.101814 1.7752504,1.252011 0.338855,0.09071 0.3498325,0.09181 0.8057956,0.08088 0.3137213,-0.0075 0.4805262,-0.02713 0.6506562,-0.07648 z M 4.7610141,11.643766 C 4.8323,11.601322 5.2344888,11.221703 5.6547666,10.800168 L 6.4189081,10.03374 6.2154916,9.8215575 C 5.8282803,9.4176591 5.5417069,8.9313747 5.3866231,8.4150575 5.3173553,8.1844456 5.3017497,8.0614222 5.2888906,7.6446075 L 5.2735878,7.1485897 4.0722819,8.3477325 C 3.4115634,9.0072609 2.8332602,9.6101562 2.7871633,9.6875 c -0.103591,0.1738106 -0.1144312,0.452387 -0.024321,0.625 0.057881,0.110876 1.0835204,1.169066 1.2491907,1.288837 0.2296328,0.166013 0.51433,0.18214 0.7489807,0.04243 z m 5.4833919,-0.48509 C 10.522403,11.078022 10.852624,10.915897 11.125,10.72634 11.397713,10.536547 14.419543,7.5280137 14.662914,7.2039919 14.891317,6.8998994 15.070063,6.5514206 15.163703,6.2276706 15.265716,5.8749684 15.26569,5.1561956 15.16364,4.8033909 14.997095,4.2275541 14.762279,3.8841981 14.018535,3.1289831 13.22521,2.3234221 12.822089,2.0394764 12.22766,1.8675474 c -0.352608,-0.1019859 -1.071484,-0.1019859 -1.424092,0 C 10.479818,1.9611868 10.13134,2.1399335 9.8272472,2.368336 9.5032363,2.6117073 6.4947025,5.6335366 6.3049103,5.90625 6.1120991,6.1833013 5.9518769,6.5119959 5.8675991,6.8033909 5.7655603,7.1561956 5.7655341,7.8749684 5.8675366,8.2276706 5.9961094,8.6722006 6.3468897,9.2563634 6.6685337,9.56159 L 6.7828325,9.670055 7.3135709,9.1393166 7.8443094,8.6085781 7.6703506,8.4216581 C 7.5746734,8.3188522 7.4514984,8.1435459 7.3966281,8.0320888 7.30453,7.8449891 7.296875,7.8053594 7.296875,7.515625 c 0,-0.5495984 -0.063414,-0.4678587 1.8419578,-2.3742438 1.4942702,-1.4950646 1.6490582,-1.640734 1.8469662,-1.738164 0.202227,-0.099556 0.236038,-0.1063422 0.529826,-0.1063422 0.292992,0 0.327964,0.00697 0.527063,0.1049819 0.181306,0.089257 0.308064,0.1996065 0.846249,0.7367075 0.542821,0.5417268 0.648133,0.6624637 0.73922,0.8474859 0.09942,0.2019425 0.106218,0.2358581 0.106218,0.5295747 0,0.2933231 -0.0069,0.3278131 -0.105544,0.5282041 -0.09622,0.1954468 -0.245998,0.3549293 -1.695155,1.8049672 C 10.890903,8.8922025 10.3212,9.48474 10.277601,9.5712494 10.137354,9.8495228 9.9091116,10.128106 9.3969012,10.646193 l -0.5307281,0.536819 0.121601,0.02043 c 0.066881,0.01124 0.1356634,0.02609 0.1528509,0.033 0.017188,0.0069 0.2210937,0.0072 0.453125,5.91e-4 0.3088512,-0.0088 0.483167,-0.02977 0.650656,-0.07836 z M 13.150337,5.84375 c 0.117695,-0.1974756 0.11785,-0.4582484 3.9e-4,-0.65625 -0.102879,-0.1734222 -1.1878,-1.2524253 -1.338225,-1.3309266 -0.172596,-0.090071 -0.4512,-0.079237 -0.625,0.024305 -0.07734,0.046077 -0.484489,0.4286694 -0.904767,0.8502044 L 9.5185934,5.4975097 9.72201,5.7096925 c 0.387211,0.4038984 0.673785,0.8901828 0.828868,1.4065 0.06927,0.2306119 0.08487,0.3536353 0.09773,0.77045 l 0.0153,0.4960178 1.201306,-1.1991428 C 12.525937,6.5239891 13.10424,5.9210937 13.150337,5.84375 Z M 8.1466491,7.97043 C 8.1254025,7.7910347 8.0684694,7.6695653 7.9336784,7.5160469 7.8007953,7.3647016 7.7688109,7.3747278 7.7908509,7.56082 7.8120975,7.7402153 7.8690306,7.8616847 8.0038216,8.0152031 8.1367047,8.1665484 8.1686891,8.1565222 8.1466491,7.97043 Z"
       id="path819"
       inkscape:connector-curvature="0" />
  </g>
</svg>
