<?xml version="1.0" encoding="UTF-8" standalone="no"?>
<!-- Created with Inkscape (http://www.inkscape.org/) -->

<svg
   xmlns:dc="http://purl.org/dc/elements/1.1/"
   xmlns:cc="http://creativecommons.org/ns#"
   xmlns:rdf="http://www.w3.org/1999/02/22-rdf-syntax-ns#"
   xmlns:svg="http://www.w3.org/2000/svg"
   xmlns="http://www.w3.org/2000/svg"
   xmlns:sodipodi="http://sodipodi.sourceforge.net/DTD/sodipodi-0.dtd"
   xmlns:inkscape="http://www.inkscape.org/namespaces/inkscape"
   version="1.1"
   id="svg2"
   width="16"
   height="16"
   viewBox="0 0 16 16"
   sodipodi:docname="MOD_MIRROR.svg"
   inkscape:version="0.92.4 (5da689c313, 2019-01-14)">
  <metadata
     id="metadata8">
    <rdf:RDF>
      <cc:Work
         rdf:about="">
        <dc:format>image/svg+xml</dc:format>
        <dc:type
           rdf:resource="http://purl.org/dc/dcmitype/StillImage" />
        <dc:title></dc:title>
      </cc:Work>
    </rdf:RDF>
  </metadata>
  <defs
     id="defs6" />
  <sodipodi:namedview
     pagecolor="#ffffff"
     bordercolor="#666666"
     borderopacity="1"
     objecttolerance="10"
     gridtolerance="10"
     guidetolerance="10"
     inkscape:pageopacity="0"
     inkscape:pageshadow="2"
     inkscape:window-width="828"
     inkscape:window-height="684"
     id="namedview4"
     showgrid="false"
     inkscape:zoom="14.75"
     inkscape:cx="8"
     inkscape:cy="8"
     inkscape:window-x="0"
     inkscape:window-y="0"
     inkscape:window-maximized="0"
     inkscape:current-layer="svg2" />
  <g
     id="MOD_MIRROR">
    <path
       style="fill:#ffffff;stroke-width:0.03125"
       d="M 0,8 V 0 H 4 8 V 1.964756 3.9295119 L 7.8758153,3.94937 C 7.6566334,3.9844184 7.5582034,4.1063366 7.3916347,4.54909 7.3101325,4.76573 7.2301991,4.9909666 7.2140053,5.0496156 7.1978116,5.1082644 7.1731106,5.15625 7.1591138,5.15625 7.1451172,5.15625 7.0908428,5.0542969 7.0385041,4.9296875 6.9861653,4.8050781 6.9072138,4.6398437 6.8630556,4.5625 6.8188978,4.4851562 6.7039416,4.2638994 6.6075975,4.0708181 L 6.4324259,3.7197612 5.8704259,3.1801931 C 5.5613256,2.8834307 5.2706706,2.6236812 5.2245253,2.602972 5.17838,2.5822628 5.0902234,2.5646847 5.0286216,2.5639095 4.9670197,2.5631342 4.2161659,2.7726422 3.3600578,3.0294826 1.942921,3.4546369 1.7937699,3.5057206 1.6948974,3.599795 1.4856392,3.7988984 1.5,3.4021409 1.5,8.984375 c 0,4.203337 0.00731,5.097623 0.042343,5.181474 0.048407,0.115854 1.1337652,1.173123 1.2638887,1.231179 0.1805779,0.08057 0.3696724,0.04724 1.2852286,-0.226504 C 5.3868772,14.783202 5.5404312,14.729583 5.6340059,14.631888 5.8167344,14.441116 5.8125,14.496661 5.8125,12.290383 v -2.024125 l 0.5703125,0.568487 c 0.3136719,0.312668 0.6098997,0.583229 0.6582844,0.601246 0.1464362,0.05453 0.3344387,0.03679 0.6464031,-0.06099 0.1632812,-0.05118 0.3003906,-0.09321 0.3046875,-0.0934 C 7.9964844,11.281411 8,12.342969 8,13.640625 V 16 H 4 0 Z m 9,7.5 V 15 h 3 3 V 8 1 H 14.366285 13.732569 L 13.530347,0.79346866 C 13.155111,0.41023656 13.065838,0.40781525 11.927669,0.75 L 11.096123,1 H 10.048062 9 V 0.5 0 h 3.5 3.5 v 8 8 H 12.5 9 Z"
       id="path829"
       inkscape:connector-curvature="0" />
    <path
       style="fill:#fefefe;stroke-width:0.03125"
       d="m 11.679819,9.044005 -0.0079,-3.580995 -0.104484,0.3075575 c -0.05747,0.1691566 -0.131294,0.3665516 -0.164062,0.4386556 -0.03277,0.072104 -0.05958,0.1521331 -0.05958,0.1778431 0,0.02571 -0.01298,0.054768 -0.02885,0.064573 -0.01586,0.00981 -0.03884,0.063313 -0.05105,0.1189065 -0.02112,0.096177 -0.03627,0.1363503 -0.151876,0.4029272 -0.02721,0.062754 -0.04948,0.1357519 -0.04948,0.1622181 0,0.026466 -0.01251,0.055849 -0.02779,0.065294 -0.01528,0.00945 -0.03704,0.054015 -0.04834,0.099043 -0.0113,0.045028 -0.04743,0.1400825 -0.08028,0.2112328 -0.03285,0.07115 -0.08281,0.1996766 -0.111019,0.2856141 -0.02821,0.085937 -0.06907,0.1984375 -0.09081,0.25 -0.04093,0.097078 -0.107617,0.2683162 -0.188639,0.484375 -0.02578,0.06875 -0.06713,0.1777344 -0.09188,0.2421875 -0.214932,0.5596994 -0.267114,0.6996787 -0.311627,0.8359375 -0.02807,0.085937 -0.06349,0.184375 -0.07869,0.21875 -0.01521,0.034375 -0.074651,0.1939191 -0.1321006,0.3545431 -0.058488,0.163528 -0.1286131,0.305017 -0.1593546,0.321526 -0.030196,0.01622 -0.2094925,0.07642 -0.3984375,0.13378 L 9,10.74227 V 9.3905366 8.0388028 L 9.080035,7.8553388 C 9.124054,7.7544338 9.173273,7.6474566 9.18941,7.6176116 c 0.016137,-0.029845 0.02934,-0.069907 0.02934,-0.089027 0,-0.01912 0.019409,-0.079077 0.043132,-0.1332366 0.023722,-0.05416 0.088726,-0.2250353 0.1444509,-0.3797228 0.055726,-0.1546875 0.118715,-0.3234375 0.1399769,-0.375 0.021261,-0.051563 0.055958,-0.1358531 0.077103,-0.1873125 0.021145,-0.051459 0.071427,-0.1920844 0.1117378,-0.3125 0.04031,-0.1204156 0.1004822,-0.28925 0.1337153,-0.3751875 0.033233,-0.085937 0.1123866,-0.296875 0.1758961,-0.46875 0.129106,-0.3494 0.171413,-0.4608941 0.260871,-0.6875 0.03393,-0.085937 0.08623,-0.2335937 0.116241,-0.328125 0.03001,-0.094531 0.06689,-0.1852344 0.08197,-0.2015625 0.01508,-0.016328 0.02741,-0.049359 0.02741,-0.073402 0,-0.024043 0.01966,-0.088027 0.04368,-0.1421875 0.02402,-0.05416 0.08216,-0.2074572 0.129186,-0.3406603 0.04703,-0.1332031 0.09769,-0.2421875 0.112573,-0.2421875 0.01488,0 0.02706,-0.02096 0.02706,-0.046577 0,-0.025618 0.03088,-0.1172968 0.06862,-0.2037321 0.06131,-0.1404167 0.08378,-0.1616832 0.210937,-0.1996679 0.07827,-0.023382 0.73644,-0.2214953 1.462589,-0.4402518 0.72615,-0.2187565 1.341384,-0.3896377 1.367188,-0.379736 0.04145,0.015906 0.04686,0.5925 0.04644,4.9486716 -2.5e-4,2.7118675 -0.01081,4.9465928 -0.02344,4.9660568 -0.01955,0.03014 -2.182985,0.698986 -2.260918,0.698986 -0.0155,0 -0.03085,-1.555792 -0.03535,-3.580995 z"
       id="path827"
       inkscape:connector-curvature="0" />
    <path
       style="fill:#cbe5fe;stroke-width:0.03125"
       d="M 3,9.9698494 C 3,5.2707006 3.0029559,5.0006222 3.0546875,4.9730262 3.1303075,4.9326872 5.9225212,4.09375 5.9811606,4.09375 c 0.029064,0 0.1099785,0.1268791 0.209256,0.328125 C 6.2794444,4.6023437 6.36331,4.75 6.3767847,4.75 c 0.013475,0 0.033765,0.042187 0.04509,0.09375 0.011325,0.051563 0.030021,0.093803 0.041546,0.093867 0.011525,6.25e-5 0.047654,0.066861 0.080287,0.1484375 C 6.5763406,5.1676309 6.7704622,5.5789062 6.9750888,6 7.1797156,6.4210937 7.3664506,6.8078125 7.3900556,6.859375 7.4136603,6.9109375 7.5464922,7.1839603 7.6852369,7.4660925 7.8239816,7.7482247 7.9375,7.9978341 7.9375,8.02078 7.9375,8.043726 7.951562,8.0625 7.96875,8.0625 7.9890981,8.0625 8,8.5305481 8,9.4041441 8,10.6551 7.9963,10.746847 7.945313,10.761452 c -0.030078,0.0086 -0.1990722,0.05946 -0.3755422,0.11299 -0.17647,0.05353 -0.3328512,0.08991 -0.3475141,0.08085 C 7.1961084,10.939132 7.1423153,10.832078 6.8128966,10.140625 6.5429753,9.5740578 6.3111578,9.1124234 6.2876909,9.0947466 6.2755547,9.0856047 6.2434459,9.0289062 6.2163384,8.96875 6.15424,8.8309431 6.0155422,8.5404881 5.6716681,7.828125 5.5223256,7.51875 5.3839337,7.2318506 5.3641306,7.1905706 5.3366322,7.1332497 5.3244331,7.9577403 5.3125,10.680159 5.30391,12.640712 5.289229,14.252445 5.279883,14.261788 5.257927,14.283738 3.0906724,14.937098 3.0390621,14.937327 3.0079756,14.937465 3,13.923229 3,9.9698494 Z"
       id="path825"
       inkscape:connector-curvature="0" />
    <path
       style="fill:#6598fe;stroke-width:0.03125"
       d="M 2.490921,14.427048 1.997467,13.953125 1.998737,8.9784069 c 0.001,-3.9443538 0.00936,-4.9799494 0.040329,-4.9999738 0.021484,-0.013891 0.7,-0.2241009 1.5078125,-0.467134 1.0286094,-0.3094607 1.4803528,-0.4324896 1.5074684,-0.4105479 0.021295,0.017232 0.030797,0.044148 0.021115,0.059814 -0.00968,0.015666 -0.0044,0.024619 0.011733,0.019897 0.042967,-0.012577 0.9520228,0.8560006 0.9223347,0.881265 C 5.9956928,4.0734984 5.3585937,4.2700044 4.59375,4.4984066 3.8289063,4.7268087 3.1574653,4.9323687 3.1016588,4.9552069 l -0.1014663,0.041523 -0.00791,4.9521206 -0.00791,4.9521215 z M 11.179688,12.117083 10.6875,11.600892 V 9.8527687 8.1046456 l 0.07977,-0.2320103 c 0.04387,-0.1276056 0.106494,-0.2902241 0.139164,-0.3613744 0.03267,-0.07115 0.06865,-0.166205 0.07995,-0.2112328 0.0113,-0.045028 0.03305,-0.089597 0.04834,-0.099043 0.01528,-0.00945 0.02779,-0.038828 0.02779,-0.065294 0,-0.026466 0.02227,-0.099464 0.04948,-0.1622181 0.115609,-0.2665769 0.130752,-0.3067503 0.151876,-0.4029272 0.01221,-0.055593 0.03518,-0.1091012 0.05105,-0.1189065 0.01586,-0.00981 0.02885,-0.038863 0.02885,-0.064573 0,-0.02571 0.02681,-0.1057394 0.05958,-0.1778432 0.03277,-0.072104 0.106596,-0.269509 0.164062,-0.4386778 l 0.104484,-0.3075794 0.0081,1.8021757 c 0.0044,0.9911965 0.0044,2.6045156 0,3.5851534 l -0.0081,1.782978 z M 6.6510459,10.381693 C 6.2346928,9.9615256 6.1497812,9.8590419 6.0629372,9.671875 6.0071128,9.5515625 5.8927709,9.3103381 5.8088441,9.1358206 5.7249175,8.9613031 5.65625,8.8031 5.65625,8.7842581 5.65625,8.7654163 5.6421875,8.75 5.625,8.75 5.607812,8.75 5.59375,8.736021 5.59375,8.718936 5.59375,8.701851 5.530097,8.557051 5.4522994,8.3971585 l -0.141451,-0.2907131 0.00864,-0.4955931 c 0.00699,-0.4011547 0.015499,-0.4812666 0.044644,-0.4204103 0.019803,0.041351 0.158195,0.3283081 0.3075375,0.6376831 0.3438741,0.7123631 0.4825719,1.0028181 0.5446703,1.140625 0.027108,0.060156 0.059216,0.1168547 0.071353,0.1259966 0.024016,0.01809 0.2662903,0.5013478 0.5243369,1.0458783 0.089595,0.189063 0.2044322,0.426218 0.2551947,0.527012 0.050763,0.100794 0.087377,0.188181 0.081365,0.194192 -0.00601,0.006 -0.2299056,-0.210049 -0.4975413,-0.480136 z M 7.9375,8.02078 C 7.9375,7.9978341 7.8239816,7.7482247 7.6852369,7.4660925 7.5464922,7.1839603 7.4138906,6.9109375 7.3905672,6.859375 7.3672437,6.8078125 7.3196544,6.7035281 7.2848128,6.6276319 c -0.034841,-0.075896 -0.05978,-0.1462088 -0.055419,-0.15625 0.00436,-0.010041 0.023442,-0.053413 0.042402,-0.096382 0.018961,-0.042969 0.087314,-0.2257813 0.151895,-0.40625 0.064582,-0.1804688 0.1292647,-0.3414844 0.14374,-0.3578125 0.014476,-0.016328 0.026406,-0.051484 0.026512,-0.078125 9.37e-5,-0.026641 0.020674,-0.087703 0.045707,-0.135695 0.025033,-0.047992 0.054665,-0.1360375 0.06585,-0.1956578 0.011185,-0.05962 0.032804,-0.116106 0.048043,-0.1255241 0.015239,-0.00942 0.027794,-0.040904 0.0279,-0.069968 9.37e-5,-0.029064 0.0212,-0.093122 0.046875,-0.1423528 C 7.8539928,4.814385 7.875,4.7602603 7.875,4.7433381 7.875,4.7264161 7.894833,4.6682581 7.919074,4.6140978 7.943315,4.5599378 7.970329,4.4945312 7.979107,4.46875 7.987887,4.442969 7.996176,5.2410156 7.997533,6.2421875 7.9991516,7.4365406 7.9892541,8.0625 7.96875,8.0625 7.9515625,8.0625 7.9375,8.0437259 7.9375,8.02078 Z M 9.0094747,6.1875 9.015625,4.359375 9.1026178,4.125 C 9.1504638,3.9960938 9.2021856,3.8625 9.2175553,3.828125 9.2622397,3.7281869 9.3973825,3.3666191 9.42196,3.28125 9.4343306,3.2382813 9.4622972,3.1609375 9.4841078,3.109375 9.5059184,3.0578125 9.5691797,2.8890625 9.6246884,2.734375 9.6801972,2.5796875 9.7573075,2.3828125 9.796045,2.296875 9.8347822,2.2109375 9.8923125,2.0805917 9.9238897,2.0072176 9.9803525,1.8760184 9.9862422,1.8722988 10.279714,1.782496 11.511409,1.4055952 12.895735,1 12.95043,1 c 0.04364,0 0.239983,0.1748034 0.581175,0.5174182 0.360305,0.3618066 0.491774,0.5117699 0.437145,0.4986373 -0.06272,-0.015076 -1.846629,0.4964751 -2.892832,0.8295428 -0.07355,0.023417 -0.111857,0.066963 -0.164063,0.1865233 -0.03746,0.085786 -0.0681,0.176934 -0.0681,0.2025515 0,0.025617 -0.01218,0.046577 -0.02706,0.046577 -0.01489,0 -0.06554,0.1089844 -0.112573,0.2421875 -0.04703,0.1332031 -0.105164,0.2865003 -0.129186,0.3406603 -0.02402,0.05416 -0.04368,0.1181444 -0.04368,0.1421875 0,0.024043 -0.01233,0.057074 -0.02741,0.073402 -0.01507,0.016328 -0.05196,0.1070313 -0.08197,0.2015625 -0.03001,0.094531 -0.08232,0.2421875 -0.116241,0.328125 -0.08946,0.2266059 -0.131765,0.3381 -0.260871,0.6875 -0.06351,0.171875 -0.1426629,0.3828125 -0.1758964,0.46875 -0.033233,0.085937 -0.093405,0.2547719 -0.1337153,0.3751875 -0.040311,0.1204156 -0.090593,0.2610406 -0.1117378,0.3125 -0.021145,0.051459 -0.055842,0.13575 -0.077103,0.1873125 -0.021262,0.051563 -0.084251,0.2203125 -0.1399769,0.375 -0.055725,0.1546875 -0.1207284,0.3255628 -0.1444509,0.3797228 -0.023722,0.05416 -0.043132,0.111765 -0.043132,0.1280113 0,0.030065 -0.02996,0.1008718 -0.1487891,0.3516409 l -0.066636,0.140625 z"
       id="path823"
       inkscape:connector-curvature="0" />
    <path
       style="fill:#989898;stroke-width:0.03125"
       d="m 9,13.125 c 0,-1.769395 0.0031,-1.875 0.055035,-1.875 0.030269,0 0.256245,-0.06158 0.5021684,-0.136856 0.3298516,-0.100959 0.4711546,-0.15987 0.5387146,-0.224596 l 0.09158,-0.08774 0.0014,0.466784 c 8.88e-4,0.293862 0.01536,0.497865 0.03906,0.550684 0.05826,0.129823 1.116636,1.216523 1.231591,1.264554 0.203244,0.08492 0.380149,0.05369 1.362329,-0.240523 1.322106,-0.396035 1.406153,-0.425342 1.4996,-0.522903 0.18827,-0.196559 0.176553,0.155951 0.178528,-5.370948 C 14.501,4.1666494 14.501406,1.863755 14.5009,1.8309127 14.500384,1.7972257 14.333835,1.6031356 14.118775,1.3856002 L 13.737577,1 H 14.368788 15 v 7 7 H 12 9 Z M 9,1.9427083 V 1 L 10.023438,1.00297 11.046875,1.00594 10.75,1.0988642 C 10.586719,1.1499735 10.295723,1.2402773 10.103343,1.2995394 9.8859387,1.36651 9.7153619,1.439431 9.6526275,1.4922183 9.5382581,1.5884537 9.3778159,1.9156147 9.1662578,2.4839853 9.0895672,2.6900211 9.0207859,2.8646305 9.0134103,2.8720062 9.0060347,2.879382 9,2.4611979 9,1.9427083 Z"
       id="path821"
       inkscape:connector-curvature="0" />
    <path
       style="fill:#0032fe;stroke-width:0.03125"
       d="m 8,13.640625 c 0,-1.297656 -0.00352,-2.359218 -0.00781,-2.359026 -0.0043,1.87e-4 -0.1414063,0.04222 -0.3046875,0.0934 -0.3119644,0.09778 -0.4999669,0.115521 -0.6464031,0.06099 C 6.9927144,11.417969 6.6964869,11.147411 6.382815,10.834743 L 5.8125,10.266258 v 2.024125 c 0,2.206278 0.00423,2.150733 -0.1784941,2.341505 -0.093575,0.09769 -0.2471287,0.151314 -1.5425453,0.538636 C 3.1759044,15.44427 2.9868099,15.477595 2.806232,15.397028 2.6761085,15.338972 1.59075,14.281703 1.5423433,14.165849 1.5073082,14.081998 1.5,13.187712 1.5,8.984375 1.5,3.4021409 1.4856392,3.7988984 1.6948974,3.599795 1.7937699,3.5057206 1.942921,3.4546369 3.3600578,3.0294826 4.2161659,2.7726422 4.9670197,2.5631343 5.0286216,2.5639095 c 0.061602,7.753e-4 0.1497584,0.018353 0.1959037,0.039063 0.046145,0.020709 0.3368003,0.2804587 0.6459006,0.5772211 l 0.562,0.5395681 0.1751716,0.3510569 C 6.7039416,4.2638994 6.8188978,4.4851562 6.8630556,4.5625 6.9072138,4.6398437 6.9861653,4.8050781 7.0385041,4.9296875 7.0908428,5.0542969 7.1451172,5.15625 7.1591138,5.15625 c 0.013997,0 0.038698,-0.047986 0.054892,-0.1066344 C 7.2301991,4.9909666 7.3101325,4.76573 7.3916347,4.54909 7.5582034,4.1063366 7.6566334,3.9844184 7.8758153,3.94937 L 8,3.9295119 V 1.964756 0 h 0.4996878 0.4996881 l 0.00812,1.4453125 0.00812,1.4453125 0.1385012,-0.375 C 9.3337359,2.0293225 9.5177822,1.6282492 9.6036187,1.5360933 9.6411597,1.4957884 9.7084503,1.443777 9.7531537,1.4205125 9.7978569,1.397248 10.492619,1.1806153 11.29707,0.93910669 c 1.544456,-0.46366981 1.699441,-0.49543747 1.930496,-0.395699 0.134434,0.0580304 1.272157,1.20758391 1.273347,1.28658821 5.04e-4,0.033346 9.4e-5,2.3366525 -8.93e-4,5.1184591 -0.002,5.526899 0.0097,5.174389 -0.178528,5.370948 -0.09345,0.09756 -0.177494,0.126868 -1.499601,0.522903 -0.982179,0.294211 -1.159084,0.325444 -1.362328,0.240523 -0.114956,-0.04803 -1.173329,-1.134731 -1.231591,-1.264554 -0.0237,-0.05282 -0.03817,-0.256822 -0.03906,-0.550684 l -0.0014,-0.466784 -0.09158,0.08774 c -0.06756,0.06473 -0.2088627,0.123637 -0.5387143,0.224596 C 9.3112803,11.188415 9.0853047,11.25 9.0550353,11.25 9.0029709,11.25 9,11.378211 9,13.625 V 16 H 8.5 8 Z m -3.8294916,0.96734 c 0.6008107,-0.181055 1.1000294,-0.336833 1.109375,-0.346175 0.00935,-0.0093 0.024023,-1.390426 0.032617,-3.069075 L 5.328125,8.140625 5.4609375,8.41588 C 5.5339844,8.56727 5.59375,8.7043794 5.59375,8.7205675 5.59375,8.7367553 5.6078125,8.75 5.625,8.75 c 0.017188,0 0.03125,0.015416 0.03125,0.034258 0,0.018842 0.068771,0.177045 0.1528238,0.3515625 0.084053,0.1745175 0.2028049,0.4227732 0.2638937,0.5516794 0.098539,0.2079316 0.1706756,0.2937469 0.6393656,0.7606001 l 0.528295,0.526226 0.3249985,-0.09861 c 0.178749,-0.05423 0.3496078,-0.105653 0.3796859,-0.114268 0.051641,-0.01479 0.05455,-0.191819 0.05222,-3.1776205 -0.00136,-1.739076 -0.00965,-3.1408628 -0.018426,-3.1150816 -0.00878,0.025781 -0.035792,0.091188 -0.060033,0.1453478 C 7.8948334,4.6682578 7.875,4.7264159 7.875,4.7433381 c 0,0.016922 -0.021007,0.071047 -0.046683,0.1202772 -0.025675,0.04923 -0.046769,0.1132891 -0.046875,0.1423528 -9.38e-5,0.029064 -0.012661,0.060549 -0.0279,0.069968 C 7.738303,5.0853561 7.716684,5.1418401 7.705499,5.2014602 7.694314,5.2610802 7.664682,5.3491264 7.639649,5.397118 7.614616,5.44511 7.594048,5.5061724 7.593942,5.532813 7.5938482,5.559454 7.581906,5.59461 7.56743,5.610938 7.5529556,5.6272656 7.4879119,5.7882813 7.4228894,5.96875 7.2733525,6.3837875 7.2385888,6.4689034 7.2189341,6.4681188 7.2003469,6.467375 6.6959113,5.44048 6.5723222,5.1517897 6.5255453,5.0425241 6.4771894,4.9459528 6.4648644,4.9371869 6.4525394,4.9284209 6.4327847,4.8827178 6.420965,4.8356244 6.4091453,4.7885309 6.3888569,4.75 6.37588,4.75 6.3499944,4.75 6.0146409,4.0907306 6.0236878,4.0576275 6.0267691,4.0463541 5.8011916,3.8196359 5.522405,3.5538094 L 5.01552,3.0704885 3.5468225,3.5118331 c -0.8077836,0.2427394 -1.4862756,0.4527094 -1.50776,0.4666 -0.030972,0.020025 -0.039312,1.0555672 -0.040269,4.9999738 l -0.00121,4.9747181 0.5090191,0.491168 c 0.2799605,0.270143 0.5230816,0.49155 0.5402691,0.492015 0.017187,4.66e-4 0.5228225,-0.147289 1.1236334,-0.328343 z M 12.850338,12.29181 c 0.669237,-0.20036 1.122632,-0.351483 1.132623,-0.377519 0.0092,-0.02388 0.01692,-2.2675457 0.01723,-4.9859269 L 14.000766,1.9858525 13.508562,1.4929262 C 13.183993,1.1678814 12.993908,1 12.950441,1 12.895738,1 11.511492,1.4055698 10.279714,1.782496 9.9862422,1.8722988 9.9803525,1.8760184 9.9238897,2.0072176 9.8923125,2.0805917 9.8347822,2.2109375 9.796045,2.296875 9.7573075,2.3828125 9.6801972,2.5796875 9.6246884,2.734375 9.5691797,2.8890625 9.5059184,3.0578125 9.4841078,3.109375 9.4622972,3.1609375 9.4343306,3.2382813 9.42196,3.28125 9.3973825,3.3666191 9.2622397,3.7281869 9.2175553,3.828125 9.2021856,3.8625 9.1504638,3.9960938 9.1026178,4.125 l -0.086993,0.234375 -0.0081,3.1915359 -0.0081,3.1915361 0.3438265,-0.104385 c 0.1891047,-0.05741 0.3685322,-0.117652 0.3987279,-0.133868 0.030648,-0.01646 0.1012703,-0.158499 0.1598631,-0.321526 0.057729,-0.160624 0.1245257,-0.3363558 0.1484367,-0.3905158 0.02391,-0.05416 0.04348,-0.1104463 0.04348,-0.1250803 0,-0.014634 0.05728,-0.1742278 0.127288,-0.3546522 0.07001,-0.1804247 0.139268,-0.3632009 0.15391,-0.4061697 0.01464,-0.042969 0.05685,-0.1554688 0.0938,-0.25 0.03695,-0.094531 0.0794,-0.2070312 0.09433,-0.25 0.128,-0.3682966 0.121583,-0.4430438 0.123044,1.4332584 l 0.0014,1.7613836 0.48825,0.512054 c 0.268537,0.28163 0.504084,0.512259 0.523438,0.51251 0.01935,2.5e-4 0.537371,-0.14989 1.15115,-0.333646 z"
       id="path819"
       inkscape:connector-curvature="0" />
  </g>
</svg>
