<?xml version="1.0" encoding="UTF-8" standalone="no"?>
<!-- Created with Inkscape (http://www.inkscape.org/) -->

<svg
   xmlns:dc="http://purl.org/dc/elements/1.1/"
   xmlns:cc="http://creativecommons.org/ns#"
   xmlns:rdf="http://www.w3.org/1999/02/22-rdf-syntax-ns#"
   xmlns:svg="http://www.w3.org/2000/svg"
   xmlns="http://www.w3.org/2000/svg"
   xmlns:sodipodi="http://sodipodi.sourceforge.net/DTD/sodipodi-0.dtd"
   xmlns:inkscape="http://www.inkscape.org/namespaces/inkscape"
   version="1.1"
   id="svg2"
   width="16"
   height="16"
   viewBox="0 0 16 16"
   sodipodi:docname="MODIFIER_ON.svg"
   inkscape:version="0.92.4 (5da689c313, 2019-01-14)">
  <metadata
     id="metadata8">
    <rdf:RDF>
      <cc:Work
         rdf:about="">
        <dc:format>image/svg+xml</dc:format>
        <dc:type
           rdf:resource="http://purl.org/dc/dcmitype/StillImage" />
        <dc:title></dc:title>
      </cc:Work>
    </rdf:RDF>
  </metadata>
  <defs
     id="defs6" />
  <sodipodi:namedview
     pagecolor="#ffffff"
     bordercolor="#666666"
     borderopacity="1"
     objecttolerance="10"
     gridtolerance="10"
     guidetolerance="10"
     inkscape:pageopacity="0"
     inkscape:pageshadow="2"
     inkscape:window-width="1208"
     inkscape:window-height="765"
     id="namedview4"
     showgrid="false"
     fit-margin-top="0"
     fit-margin-left="0"
     fit-margin-right="0"
     fit-margin-bottom="0"
     inkscape:zoom="1.4404297"
     inkscape:cx="-10.413559"
     inkscape:cy="81.919998"
     inkscape:window-x="0"
     inkscape:window-y="0"
     inkscape:window-maximized="0"
     inkscape:current-layer="svg2" />
  <g
     id="MODIFIER_ON">
    <path
       style="fill:#ffffff;stroke-width:0.03125"
       d="M 0,8 V 0 h 8 8 v 8 8 H 8 0 Z m 12.676168,6.532344 c 0.410274,-0.09836 0.609305,-0.217168 0.964901,-0.575961 0.290984,-0.2936 0.321562,-0.336591 0.43575,-0.612633 l 0.122805,-0.296875 v -0.46875 -0.46875 L 14.078136,11.8125 13.956649,11.515625 11.986137,9.5237397 C 10.902355,8.4282028 9.799345,7.3079234 9.5350028,7.03423 9.0882409,6.5716641 9.0559778,6.5303625 9.0770569,6.4479903 9.1291472,6.2444319 9.1855856,5.7463253 9.1865091,5.4820022 9.1878934,5.0856894 9.1097978,4.5734197 8.9968172,4.2377172 8.8787984,3.887045 8.6163172,3.3524791 8.4514409,3.1270106 8.2953334,2.9135332 7.7152156,2.331905 7.5129997,2.1861258 6.9394441,1.772645 6.0207197,1.4607605 5.359375,1.4550228 4.9538547,1.4515046 4.93613,1.4607388 4.4729366,1.9168358 4.2432081,2.1430448 4.0357862,2.3733765 4.0119991,2.4286838 c -0.055337,0.1286641 -0.055141,0.2959863 4.968e-4,0.4238824 0.024059,0.055307 0.4881219,0.5434438 1.03125,1.0847479 L 6.03125,4.9215028 V 5.4694669 6.0174306 L 5.8359375,6.2104319 5.640625,6.4034334 5.34375,6.3744384 C 5.1804687,6.3584912 4.955385,6.3450625 4.8435641,6.3445969 L 4.6402528,6.34375 3.6560641,5.3562447 C 3.11476,4.8131166 2.6266235,4.3490541 2.5713162,4.3249947 2.4521672,4.2731628 2.2575858,4.2682856 2.1348469,4.3140541 2.0174537,4.3578294 1.2552396,5.1136659 1.1998944,5.2411837 1.1046508,5.4606297 1.1822737,6.1959878 1.3542139,6.703125 1.5949487,7.4131716 1.8014568,7.7438384 2.3413092,8.2836906 2.899408,8.8417897 3.30262,9.0904019 3.984375,9.2967713 c 0.20625,0.062433 0.5085937,0.1281262 0.671875,0.1459856 0.3610878,0.039495 1.1416003,0.011055 1.3690731,-0.049887 l 0.1659481,-0.044458 2.4590519,2.4637411 c 2.7082719,2.713435 2.5653839,2.587975 3.0961849,2.718555 0.310804,0.07646 0.61534,0.077 0.92966,0.0016 z M 11.890446,12.87482 11.547582,12.53089 11.898791,12.179681 12.25,11.828472 l 0.351209,0.351209 0.351209,0.351209 -0.342864,0.34393 c -0.188575,0.189162 -0.350374,0.34393 -0.359554,0.34393 -0.0092,0 -0.170979,-0.154768 -0.359554,-0.34393 z"
       id="path827"
       inkscape:connector-curvature="0" />
    <path
       style="fill:#fefefe;stroke-width:0.03125"
       d="M 11.711738,11.533606 C 11.733895,11.38264 11.662212,11.231918 11.469669,11.024624 11.369284,10.91655 10.614339,10.151567 9.7920131,9.3246619 8.2034091,7.7272122 8.1952275,7.7202837 7.9453619,7.7608313 7.8846569,7.7706822 7.7822806,7.8136231 7.7178588,7.8562556 L 7.6007284,7.9337688 7.2025509,7.5282394 C 6.9835534,7.3051981 6.8127384,7.114345 6.8229622,7.1041213 6.8331859,7.0938972 6.8259497,7.0563831 6.8068841,7.0207566 6.7878172,6.98513 6.7747119,6.8779944 6.7777609,6.7826778 6.7808109,6.6873613 6.7836609,6.5953125 6.7840959,6.578125 6.7845303,6.5609375 6.7841272,6.4554688 6.7832022,6.34375 6.7810209,6.0806594 6.7810241,6.0828606 6.7829209,5.625 6.7838116,5.4101563 6.7841053,5.2203125 6.7835709,5.203125 6.7830366,5.1859375 6.7809491,4.975 6.7789263,4.734375 L 6.7752509,4.296875 6.0988272,3.6171875 C 5.7267984,3.2433594 5.4331591,2.9375 5.4462994,2.9375 c 0.01314,0 0.00205,-0.033334 -0.024644,-0.074075 -0.073563,-0.1122714 -0.066015,-0.3429156 0.014393,-0.4398015 0.017688,-0.021312 0.025305,-0.045603 0.016929,-0.05398 -0.031109,-0.031109 0.129869,-0.1461769 0.2700959,-0.1930655 0.1479235,-0.049462 0.3433381,-0.027345 0.3873322,0.043839 0.010402,0.016831 0.029383,0.024132 0.04218,0.016223 0.040112,-0.024791 1.5504969,1.5206692 1.6044003,1.6416588 0.043555,0.097762 0.050289,0.2918719 0.050882,1.4666888 l 6.844e-4,1.354015 2.0816637,2.0818375 C 12.05593,10.946735 12.0784,10.971847 12.042773,11.186394 c -0.03144,0.189296 -0.17316,0.427028 -0.232655,0.390258 -0.0135,-0.0083 -0.03338,-8.81e-4 -0.04418,0.01659 -0.03844,0.06219 -0.0674,0.03032 -0.0542,-0.05963 z M 3.515625,8.0480625 C 3.4124559,8.0029384 1.8223798,6.4172034 1.851301,6.3882822 1.861191,6.3783922 1.857121,6.3278652 1.842251,6.2760066 1.823474,6.2105366 1.830085,6.1372334 1.86388,6.0361716 1.910935,5.8954569 2.0259861,5.7343144 2.0571486,5.7654772 c 0.00838,0.00838 0.032668,7.594e-4 0.05398,-0.016928 0.1051762,-0.087288 0.3627812,-0.085044 0.4701896,0.0041 0.024028,0.019941 0.043687,0.024093 0.043687,0.00923 0,-0.014866 0.3507098,0.3234697 0.7793553,0.7518578 0.4286453,0.4283882 0.77722,0.7868766 0.7746106,0.7966407 -0.00261,0.00976 0.00992,0.045878 0.027839,0.080253 0.030248,0.058021 0.033275,0.2461978 0.00583,0.3624947 -0.01975,0.083692 -0.1152934,0.2118356 -0.1986822,0.2664741 -0.1006493,0.065948 -0.3765947,0.081712 -0.4983284,0.028469 z"
       id="path825"
       inkscape:connector-curvature="0" />
    <path
       style="fill:#cbe5fe;stroke-width:0.03125"
       d="m 12.076721,14.066359 c -0.0064,-0.0065 -0.05781,-0.01713 -0.114158,-0.02369 -0.05635,-0.0066 -0.130739,-0.02167 -0.165318,-0.03357 -0.03458,-0.01191 -0.0699,-0.02259 -0.0785,-0.02374 -0.0086,-0.0012 -0.08594,-0.03475 -0.171875,-0.07467 -0.127317,-0.05914 -0.625387,-0.542973 -2.6898209,-2.612964 L 6.3234831,8.7573347 6.0943228,8.8341925 C 5.6121263,8.9959156 4.7587109,8.9986078 4.265625,8.8399613 4.1453125,8.8012516 4.0398438,8.7675438 4.03125,8.7650547 4.0226563,8.7625672 3.9734375,8.7489044 3.921875,8.7346962 3.8703125,8.7204881 3.7964844,8.6883766 3.7578125,8.6633375 3.7191406,8.6382984 3.6875,8.6274181 3.6875,8.6391587 c 0,0.011741 -0.040843,-0.00774 -0.090762,-0.043281 C 3.5468197,8.5603325 3.4940853,8.5311894 3.4795509,8.5311156 3.4650166,8.5310531 3.3805081,8.4759241 3.2917541,8.4086325 3.203,8.3413406 3.1229677,8.2936991 3.1139047,8.3027619 3.1048417,8.311825 2.9193015,8.1411153 2.7015931,7.9234069 2.4838848,7.7056984 2.313175,7.5201584 2.322238,7.5110953 2.331301,7.5020322 2.284408,7.4228637 2.2180313,7.335165 2.1516547,7.2474662 2.1037979,7.1652741 2.111683,7.1525156 2.1195681,7.1397572 2.1109786,7.1200228 2.0925951,7.1086612 2.035164,7.0731669 1.8172935,6.5253497 1.841075,6.476235 1.843245,6.471755 1.824425,6.428275 1.799257,6.379606 1.774089,6.330937 1.745356,6.2221004 1.735405,6.137746 1.725455,6.053392 1.710552,5.962587 1.70229,5.9359573 1.69403,5.9093273 1.681599,5.7882507 1.67467,5.6668973 L 1.662072,5.4462553 2.0030905,5.1062944 2.344109,4.7663334 3.3840184,5.8058953 4.4239275,6.8454572 4.7510266,6.8627762 c 0.1799043,0.00953 0.4677237,0.022996 0.6395987,0.029933 0.171875,0.00694 0.3412984,0.019408 0.3764969,0.027712 0.049303,0.011632 0.1441719,-0.065389 0.4132075,-0.3354741 L 6.5295403,6.234375 6.5325309,5.4710581 6.5355216,4.7077412 5.5019559,3.6738303 4.4683906,2.6399191 4.804955,2.3043982 C 5.1192762,1.9910514 5.1497509,1.9688368 5.2660731,1.9682635 c 0.1375475,-6.781e-4 0.3165453,0.016227 0.4839285,0.045703 0.060156,0.010594 0.145179,0.02446 0.1889396,0.030815 0.04376,0.00635 0.131651,0.033317 0.1953125,0.059917 0.063661,0.0266 0.1157479,0.041688 0.1157479,0.03353 0,-0.00816 0.042187,0.00698 0.09375,0.033647 0.051563,0.026664 0.09375,0.040593 0.09375,0.030953 0,-0.00964 0.031641,-1.313e-4 0.070312,0.021132 0.038672,0.021262 0.087383,0.041532 0.1082478,0.045044 0.020864,0.00351 0.079285,0.035829 0.129824,0.071815 0.050537,0.035987 0.1053982,0.065431 0.1219113,0.065431 0.016513,0 0.067077,0.029146 0.1123634,0.064768 0.045287,0.035622 0.082339,0.055407 0.082339,0.043965 0,-0.011442 0.068748,0.036756 0.1527744,0.1071069 C 7.2993003,2.6924405 7.3805116,2.75 7.3957441,2.75 7.4308425,2.75 7.875,3.1955631 7.875,3.2307731 c 0,0.014398 0.05625,0.093363 0.125,0.1754769 0.06875,0.082114 0.125,0.1592388 0.125,0.1713878 0,0.012149 0.029082,0.062932 0.064628,0.1128506 0.035546,0.049919 0.055682,0.090762 0.044747,0.090762 -0.010934,0 0.01052,0.042695 0.047678,0.094877 0.037157,0.052182 0.070432,0.1119481 0.073943,0.1328125 0.00351,0.020864 0.023782,0.069576 0.045044,0.1082478 0.021263,0.038672 0.031924,0.070312 0.023692,0.070312 -0.00823,0 0.01329,0.063879 0.047826,0.1419541 0.034536,0.078075 0.068902,0.1694812 0.076368,0.203125 0.00747,0.033644 0.021681,0.092811 0.03159,0.1314834 0.00991,0.038672 0.023781,0.1097119 0.030828,0.1578669 0.00705,0.048155 0.025602,0.1676859 0.041234,0.265625 C 8.680546,5.2627888 8.674695,5.8823766 8.644608,5.9310506 8.636138,5.9447546 8.620628,6.0310176 8.61014,6.1227475 8.599652,6.2144765 8.570295,6.3297056 8.544901,6.3788116 8.519508,6.4279176 8.500166,6.4717576 8.50192,6.4762346 8.50367,6.4807146 8.49503,6.5245226 8.482717,6.5735916 8.46173,6.6572106 8.494906,6.6974306 9.0114108,7.2145335 9.3145113,7.5179828 9.5625,7.7798253 9.5625,7.7964066 c 0,0.016581 0.893677,0.9248618 1.985948,2.0184012 1.092272,1.0935392 1.98305,2.0009242 1.979508,2.0164102 -0.0035,0.01549 0.02527,0.09663 0.06404,0.18032 0.147908,0.319337 0.147908,0.813837 0,1.133174 -0.03876,0.08369 -0.06818,0.163046 -0.06536,0.176348 0.01114,0.05267 -0.487947,0.515989 -0.627101,0.582151 -0.08104,0.03853 -0.158383,0.07043 -0.171875,0.07088 -0.01349,4.53e-4 -0.04761,0.01318 -0.07582,0.02827 -0.08184,0.0438 -0.544028,0.09523 -0.575114,0.064 z M 12.609554,12.87482 12.952418,12.53089 12.601209,12.179681 12.25,11.828472 l -0.351209,0.351209 -0.351209,0.351209 0.342864,0.34393 c 0.188575,0.189162 0.350374,0.34393 0.359554,0.34393 0.0092,0 0.170979,-0.154768 0.359554,-0.34393 z m -1.183099,-0.939537 c 0.07994,-0.0387 0.161743,-0.110944 0.203465,-0.179688 0.0632,-0.104138 0.160089,-0.19451 0.171487,-0.159958 0.0025,0.0076 0.03529,-0.0141 0.07289,-0.04813 0.07548,-0.06831 0.145281,-0.216026 0.166902,-0.353212 0.03556,-0.225646 0.02671,-0.235581 -2.150986,-2.413457 L 7.8085512,6.6990025 7.8078669,5.3449875 C 7.8072731,4.1701706 7.8005394,3.9760606 7.7569847,3.8782987 7.7030812,3.7573091 6.1926966,2.2118491 6.1525844,2.2366399 c -0.012797,0.00791 -0.031778,6.084e-4 -0.04218,-0.016223 -0.043994,-0.071184 -0.2394088,-0.093301 -0.3873322,-0.043839 -0.1402269,0.046889 -0.301205,0.1619565 -0.270096,0.1930655 0.00838,0.00838 7.594e-4,0.032668 -0.016928,0.05398 -0.080408,0.096886 -0.087957,0.3275301 -0.014393,0.4398014 0.026694,0.040741 0.037784,0.074075 0.024644,0.074075 -0.01314,0 0.2804991,0.3058594 0.6525319,0.6796875 l 0.6764238,0.6796875 0.00368,0.4375 c 0.00202,0.240625 0.00411,0.4515625 0.00464,0.46875 5.343e-4,0.017188 2.5e-4,0.2070312 -6.5e-4,0.421875 -0.0019,0.4578606 -0.0019,0.4556594 2.812e-4,0.71875 9.25e-4,0.1117187 0.00133,0.2171875 8.938e-4,0.234375 -4.344e-4,0.017188 -0.00329,0.1092362 -0.00633,0.2045528 -0.00305,0.095317 0.010056,0.2024522 0.029123,0.2380788 0.019067,0.035626 0.026264,0.073179 0.015994,0.083449 -0.01027,0.01027 0.1632407,0.2054788 0.3855794,0.4337966 L 7.6127128,7.953125 7.5564066,8.0625 c -0.1204141,0.2339041 -0.055839,0.4087447 0.278575,0.75426 1.1390893,1.1769022 3.0778294,3.095505 3.1671624,3.134266 0.148529,0.06444 0.267809,0.06002 0.424314,-0.01574 z M 4.0139534,8.0195938 C 4.0973422,7.9649553 4.1928859,7.8368116 4.2126356,7.7531197 4.2400794,7.6368228 4.2370525,7.4486459 4.2068047,7.390625 4.1888841,7.35625 4.1763566,7.3201362 4.1789659,7.3103719 4.1815753,7.3006078 3.8330006,6.9421194 3.4043553,6.5137312 2.9757098,6.0853431 2.625,5.7470072 2.625,5.7618734 c 0,0.014866 -0.019659,0.010714 -0.043687,-0.00923 C 2.473905,5.663505 2.2163,5.6612603 2.1111238,5.7485488 c -0.021312,0.017688 -0.045603,0.025305 -0.05398,0.016928 -0.031163,-0.031163 -0.146214,0.1299797 -0.1932687,0.2706944 -0.033795,0.1010618 -0.040406,0.1743646 -0.021629,0.239835 0.014873,0.051859 0.018947,0.1023828 0.00905,0.1122756 -0.028921,0.028921 1.5611549,1.6146562 1.664324,1.6597803 0.1217338,0.053244 0.3976791,0.037479 0.4983284,-0.028469 z"
       id="path823"
       inkscape:connector-curvature="0" />
    <path
       style="fill:#6598fe;stroke-width:0.03125"
       d="M 11.002141,11.951026 C 10.912808,11.912265 8.9740678,9.9936622 7.8349784,8.81676 7.4885769,8.4588594 7.4330341,8.292715 7.5719606,8.0300006 7.6517303,7.8791537 7.8518987,7.75 8.0059187,7.75 c 0.2119554,0 0.3060979,0.083022 1.7994038,1.5868434 0.8144695,0.8202046 1.5585415,1.5739006 1.6534945,1.6748796 0.27176,0.28901 0.31785,0.462674 0.187972,0.708276 -0.125087,0.236545 -0.402664,0.336022 -0.644648,0.231027 z"
       id="path821"
       inkscape:connector-curvature="0" />
    <path
       style="fill:#323232;stroke-width:0.03125"
       d="m 11.746508,14.530708 c -0.530801,-0.13058 -0.387913,-0.0051 -3.0961849,-2.718555 L 6.1912712,9.3484122 6.0253231,9.3928703 C 5.7978503,9.4538116 5.0173378,9.4822519 4.65625,9.4427569 4.4929687,9.4248975 4.190625,9.3592041 3.984375,9.2967713 3.30262,9.0904019 2.899408,8.8417897 2.3413092,8.2836906 1.8014568,7.7438384 1.5949487,7.4131716 1.3542139,6.703125 1.1822737,6.1959878 1.1046508,5.4606297 1.1998944,5.2411837 1.2552396,5.1136659 2.0174537,4.3578294 2.1348469,4.3140541 2.2575858,4.2682851 2.4521672,4.2731631 2.5713162,4.3249951 2.6266232,4.3490541 3.11476,4.813117 3.6560641,5.3562451 L 4.6402528,6.34375 4.8435641,6.3445969 C 4.955385,6.3450625 5.1804687,6.3584912 5.34375,6.3744384 L 5.640625,6.4034334 5.8359375,6.2104319 6.03125,6.0174306 V 5.4694669 4.9215028 L 5.0437447,3.9373141 C 4.5006166,3.39601 4.0365541,2.9078735 4.0124947,2.8525662 3.9568578,2.7246701 3.9566622,2.5573479 4.0119978,2.4286838 4.035785,2.3733765 4.2432069,2.1430448 4.4729353,1.9168358 4.93613,1.4607388 4.9538547,1.4515046 5.359375,1.4550228 6.0207197,1.4607605 6.9394441,1.772645 7.5129997,2.1861258 7.7152156,2.331905 8.2953334,2.9135332 8.4514409,3.1270106 8.6163172,3.3524791 8.8787984,3.887045 8.9968172,4.2377172 9.1097978,4.5734197 9.1878937,5.0856894 9.1865091,5.4820022 9.1855841,5.7463253 9.1291472,6.2444319 9.0770569,6.4479903 9.0559778,6.5303625 9.0882409,6.5716641 9.5350028,7.03423 9.799345,7.3079234 10.902355,8.4282028 11.986137,9.5237397 l 1.970512,1.9918853 0.121487,0.296875 0.121488,0.296875 v 0.46875 0.46875 l -0.122805,0.296875 c -0.114188,0.276042 -0.144766,0.319033 -0.43575,0.612633 -0.355596,0.358793 -0.554627,0.477597 -0.964901,0.575961 -0.31432,0.07536 -0.618856,0.07482 -0.92966,-0.0016 z m 0.733452,-0.483573 c 0.06632,-0.0095 0.143665,-0.02968 0.171875,-0.04477 0.02821,-0.0151 0.06233,-0.02782 0.07582,-0.02827 0.01349,-4.53e-4 0.09084,-0.03235 0.171875,-0.07088 0.139154,-0.06616 0.638245,-0.529478 0.627101,-0.582151 -0.0028,-0.0133 0.0266,-0.09266 0.06536,-0.176348 0.147908,-0.319337 0.147908,-0.813837 0,-1.133174 -0.03876,-0.08369 -0.06758,-0.164834 -0.06404,-0.18032 0.0035,-0.01549 -0.887236,-0.922871 -1.979508,-2.0164102 C 10.456177,8.7212684 9.5625,7.8129878 9.5625,7.7964066 9.5625,7.7798253 9.3145113,7.5179828 9.0114141,7.2145341 8.4949097,6.6974312 8.4617334,6.6572109 8.4827203,6.5735922 c 0.012316,-0.049069 0.020957,-0.09288 0.019203,-0.097357 -0.00175,-0.00448 0.017587,-0.048317 0.042981,-0.097423 0.025394,-0.049106 0.054751,-0.1643347 0.065239,-0.2560641 0.010488,-0.09173 0.025999,-0.1779931 0.034468,-0.1916969 0.030082,-0.048674 0.035933,-0.6682618 0.00797,-0.8434965 C 8.636945,4.9896153 8.61839,4.8700841 8.6113428,4.8219294 8.6042956,4.7737744 8.5904231,4.7027344 8.580515,4.6640625 8.5706066,4.6253906 8.5563913,4.5662231 8.5489253,4.5325791 8.5414591,4.4989353 8.5070937,4.4075291 8.4725575,4.3294541 8.4380213,4.2513794 8.4164997,4.1875 8.4247316,4.1875 c 0.00823,0 -0.00243,-0.031641 -0.023692,-0.070312 C 8.3797775,4.0785156 8.3595075,4.0298041 8.3559959,4.0089397 8.3524844,3.9880753 8.3192097,3.9283097 8.2820525,3.8761272 8.2448953,3.8239447 8.2234406,3.78125 8.234375,3.78125 8.245309,3.78125 8.225175,3.740407 8.189628,3.690488 8.1540825,3.6405697 8.125,3.5897869 8.125,3.5776378 8.125,3.5654888 8.06875,3.4883644 8,3.40625 7.93125,3.3241356 7.875,3.2451709 7.875,3.2307731 7.875,3.1955631 7.4308425,2.75 7.3957441,2.75 7.3805116,2.75 7.2993003,2.6924405 7.2152744,2.6220901 7.1312484,2.5517396 7.0625,2.5035415 7.0625,2.5149832 c 0,0.011442 -0.037053,-0.00834 -0.082339,-0.043965 -0.045286,-0.035622 -0.09585,-0.064768 -0.1123634,-0.064768 -0.016513,0 -0.071374,-0.029444 -0.1219128,-0.065431 C 6.6953456,2.3048327 6.6369247,2.2725157 6.6160603,2.2690041 6.5951959,2.2654924 6.5464844,2.2452226 6.5078125,2.2239601 6.4691406,2.2026976 6.4375,2.1931882 6.4375,2.202828 6.4375,2.212468 6.395313,2.198538 6.34375,2.171875 6.2921875,2.145211 6.25,2.1300698 6.25,2.1382279 c 0,0.00816 -0.052087,-0.00693 -0.1157478,-0.03353 C 6.0705906,2.0780988 5.9827,2.0511363 5.9389397,2.0447816 5.8951791,2.0384268 5.8101563,2.0245601 5.75,2.0139666 5.5826169,1.9844904 5.4036191,1.9675855 5.2660716,1.9682635 5.1497494,1.9688369 5.1192747,1.9910514 4.8049534,2.3043982 L 4.4683891,2.6399191 5.5019544,3.6738303 6.53552,4.7077412 6.5325294,5.4710581 6.5295388,6.234375 6.1803278,6.5849478 C 5.9112922,6.8550325 5.8164238,6.9320541 5.7671203,6.9204219 5.7319219,6.9121175 5.5624984,6.8996472 5.3906234,6.8927094 5.2187484,6.8857719 4.9309291,6.8723019 4.7510247,6.8627763 L 4.4239256,6.8454572 3.3840166,5.8058953 2.3441071,4.7663334 2.0030886,5.1062944 1.6620701,5.4462553 1.6746684,5.6668975 c 0.00693,0.1213534 0.019358,0.2424303 0.02762,0.26906 0.00826,0.02663 0.023164,0.1174347 0.033115,0.2017887 0.00995,0.084354 0.038684,0.1931913 0.063852,0.24186 0.025168,0.048669 0.043986,0.092152 0.041818,0.096629 -0.023781,0.049115 0.194089,0.5969319 0.2515201,0.6324262 0.018383,0.011362 0.026973,0.031096 0.019088,0.043854 -0.00789,0.012759 0.039972,0.094951 0.1063484,0.1826494 0.066377,0.087699 0.1132697,0.1668672 0.1042066,0.1759303 -0.00906,0.00906 0.1616469,0.1946031 0.3793552,0.4123116 0.2177083,0.2177084 0.4032485,0.3884181 0.4123115,0.379355 0.00906,-0.00906 0.089095,0.038579 0.1778494,0.1058706 0.088754,0.067292 0.1732625,0.1224091 0.1877969,0.1224831 0.014534,6.25e-5 0.067269,0.029217 0.1171875,0.064762 0.049919,0.035546 0.090762,0.055022 0.090762,0.043281 0,-0.011741 0.031641,-8.594e-4 0.070312,0.024179 0.038672,0.025039 0.1125,0.057151 0.1640625,0.071359 0.051563,0.014208 0.1007813,0.027869 0.109375,0.030358 0.00859,0.00249 0.1140625,0.036197 0.234375,0.074907 0.493086,0.1586465 1.3465013,0.1559543 1.8286978,-0.00577 l 0.2291604,-0.076858 2.5335709,2.5403906 c 2.0644344,2.069991 2.5625034,2.553828 2.6898204,2.612964 0.08594,0.03992 0.163282,0.07352 0.171875,0.07467 0.0086,0.0011 0.04392,0.01183 0.0785,0.02374 0.03458,0.0119 0.108971,0.02701 0.165318,0.03357 0.05635,0.0066 0.107717,0.01722 0.114158,0.02369 0.01462,0.01469 0.242928,0.0038 0.403238,-0.01922 z"
       id="path819"
       inkscape:connector-curvature="0" />
  </g>
</svg>
