<?xml version="1.0" encoding="UTF-8" standalone="no"?>
<!-- Created with Inkscape (http://www.inkscape.org/) -->

<svg
   xmlns:dc="http://purl.org/dc/elements/1.1/"
   xmlns:cc="http://creativecommons.org/ns#"
   xmlns:rdf="http://www.w3.org/1999/02/22-rdf-syntax-ns#"
   xmlns:svg="http://www.w3.org/2000/svg"
   xmlns="http://www.w3.org/2000/svg"
   xmlns:sodipodi="http://sodipodi.sourceforge.net/DTD/sodipodi-0.dtd"
   xmlns:inkscape="http://www.inkscape.org/namespaces/inkscape"
   version="1.1"
   id="svg2"
   width="16"
   height="16"
   viewBox="0 0 16 16"
   sodipodi:docname="MODIFIER_OFF.svg"
   inkscape:version="0.92.4 (5da689c313, 2019-01-14)">
  <metadata
     id="metadata8">
    <rdf:RDF>
      <cc:Work
         rdf:about="">
        <dc:format>image/svg+xml</dc:format>
        <dc:type
           rdf:resource="http://purl.org/dc/dcmitype/StillImage" />
        <dc:title />
      </cc:Work>
    </rdf:RDF>
  </metadata>
  <defs
     id="defs6" />
  <sodipodi:namedview
     pagecolor="#ffffff"
     bordercolor="#666666"
     borderopacity="1"
     objecttolerance="10"
     gridtolerance="10"
     guidetolerance="10"
     inkscape:pageopacity="0"
     inkscape:pageshadow="2"
     inkscape:window-width="978"
     inkscape:window-height="758"
     id="namedview4"
     showgrid="false"
     fit-margin-top="0"
     fit-margin-left="0"
     fit-margin-right="0"
     fit-margin-bottom="0"
     inkscape:zoom="5.7617188"
     inkscape:cx="7.4820972"
     inkscape:cy="15.816601"
     inkscape:window-x="0"
     inkscape:window-y="0"
     inkscape:window-maximized="0"
     inkscape:current-layer="svg2" />
  <g
     id="MODIFIER_OFF">
    <path
       style="fill:#ffffff;stroke-width:0.03125"
       d="M 0,8 V 0 h 8 8 v 8 8 H 8 0 Z m 12.676168,6.532344 c 0.410274,-0.09836 0.609305,-0.217168 0.964901,-0.575961 0.290984,-0.2936 0.321562,-0.336591 0.43575,-0.612633 l 0.122805,-0.296875 v -0.46875 -0.46875 L 14.078231,11.8125 13.956837,11.515625 12.025918,9.578125 10.094999,7.640625 12.075078,5.65625 c 1.87287,-1.8769334 1.984012,-1.9945269 2.052709,-2.171875 0.1031,-0.2661659 0.102488,-0.6743796 -0.0014,-0.9375 C 14.024749,2.2894881 13.741762,2.0065009 13.484375,1.90487 13.221124,1.8009239 12.812966,1.8003525 12.546875,1.9035575 12.370775,1.9718591 12.263027,2.0723574 10.7747,3.5564868 9.7550759,4.5732362 9.1847234,5.1206796 9.1751556,5.091784 9.1669769,5.067084 9.1455294,4.9302165 9.1274941,4.7876337 9.0684988,4.3212281 8.7467,3.5307781 8.4514409,3.1270106 8.2953334,2.9135332 7.7152156,2.331905 7.5129997,2.1861258 6.9394441,1.772645 6.0207197,1.4607605 5.359375,1.4550228 4.9538547,1.4515046 4.93613,1.4607388 4.4729366,1.9168358 4.2432081,2.1430448 4.0357862,2.3733765 4.0119991,2.4286838 c -0.055337,0.1286641 -0.055141,0.2959863 4.968e-4,0.4238824 0.024059,0.055307 0.4881219,0.5434438 1.03125,1.0847479 L 6.03125,4.9215028 V 5.4694669 6.0174306 L 5.8359375,6.2104319 5.640625,6.4034334 5.34375,6.3744384 C 5.1804687,6.3584912 4.955385,6.3450625 4.8435641,6.3445969 L 4.6402528,6.34375 3.6560641,5.3562447 C 3.11476,4.8131166 2.6266235,4.3490541 2.5713162,4.3249947 2.4521672,4.2731628 2.2575858,4.2682856 2.1348469,4.3140541 2.0174537,4.3578294 1.2552396,5.1136659 1.1998944,5.2411837 c -0.095244,0.219446 -0.017621,0.9548041 0.1543195,1.4619413 0.2407348,0.7100466 0.4472429,1.0407134 0.9870953,1.5805656 0.5579783,0.5579785 0.9609999,0.8065066 1.6430658,1.013216 0.20625,0.062507 0.4523437,0.1205931 0.546875,0.1290803 0.369155,0.033143 0.4675294,-0.098659 -1.1004106,1.4743381 -1.3314739,1.335769 -1.4278995,1.439886 -1.4959819,1.6153 -0.1032605,0.266051 -0.1027109,0.67418 0.00126,0.9375 0.1016309,0.257387 0.3846181,0.540374 0.642005,0.642005 0.2631783,0.103917 0.6713675,0.104512 0.9375,0.0014 C 3.6924322,14.028 3.8051266,13.922102 5.492205,12.239117 L 7.2812872,10.454375 9.19533,12.363742 c 2.103039,2.097902 2.03485,2.039981 2.551176,2.167001 0.310803,0.07646 0.615339,0.077 0.92966,0.0016 z M 11.890446,12.87482 11.547582,12.53089 11.898791,12.179681 12.25,11.828472 l 0.351209,0.351209 0.351209,0.351209 -0.342864,0.34393 c -0.188575,0.189162 -0.350374,0.34393 -0.359554,0.34393 -0.0092,0 -0.170979,-0.154768 -0.359554,-0.34393 z"
       id="path831"
       inkscape:connector-curvature="0" />
    <path
       style="fill:#fefefe;stroke-width:0.03125"
       d="m 11.711738,11.533606 c 0.02214,-0.150867 -0.04948,-0.301623 -0.241811,-0.508982 C 11.369685,10.91655 10.795744,10.333771 10.194504,9.7295597 L 9.1013403,8.6309941 9.2621678,8.4721644 9.4229953,8.3133347 10.697466,9.5880894 c 1.319801,1.3200966 1.37969,1.3912476 1.345306,1.5983046 -0.03143,0.189296 -0.17316,0.427028 -0.232655,0.390258 -0.0135,-0.0083 -0.03338,-8.81e-4 -0.04418,0.01659 -0.03844,0.06219 -0.06741,0.03032 -0.0542,-0.05963 z M 3.515625,8.0480625 C 3.4124559,8.0029384 1.8223798,6.4172034 1.851301,6.3882822 1.861191,6.3783922 1.857121,6.3278652 1.842251,6.2760066 1.823474,6.2105366 1.830085,6.1372334 1.86388,6.0361716 1.910935,5.8954569 2.0259861,5.7343144 2.0571486,5.7654772 c 0.00838,0.00838 0.032668,7.594e-4 0.05398,-0.016928 0.1051762,-0.087288 0.3627812,-0.085044 0.4701896,0.0041 0.024028,0.019941 0.043687,0.024093 0.043687,0.00923 0,-0.014866 0.3507098,0.3234697 0.7793553,0.7518578 0.4286453,0.4283882 0.77722,0.7868766 0.7746106,0.7966407 -0.00261,0.00976 0.00992,0.045878 0.027839,0.080253 0.030248,0.058021 0.033275,0.2461978 0.00583,0.3624947 -0.01975,0.083692 -0.1152934,0.2118356 -0.1986822,0.2664741 -0.1006493,0.065948 -0.3765947,0.081712 -0.4983284,0.028469 z M 6.9033856,7.2215594 c -0.036979,-0.050018 -0.066912,-0.1027519 -0.066517,-0.1171875 3.938e-4,-0.014436 -0.01399,-0.053729 -0.031967,-0.087319 -0.017977,-0.03359 -0.03019,-0.1390584 -0.027141,-0.234375 0.00305,-0.095317 0.0059,-0.1873653 0.00633,-0.2045528 C 6.7845303,6.5609375 6.7841272,6.4554687 6.7832022,6.34375 6.7810209,6.0806594 6.7810241,6.0828606 6.7829209,5.625 6.7838116,5.4101562 6.7841053,5.2203125 6.7835709,5.203125 6.7830366,5.1859375 6.7809491,4.975 6.7789263,4.734375 L 6.7752509,4.296875 6.0988272,3.6171875 C 5.7267984,3.2433594 5.4331591,2.9375 5.4462994,2.9375 c 0.01314,0 0.00205,-0.033334 -0.024644,-0.074075 -0.073563,-0.1122714 -0.066015,-0.3429156 0.014393,-0.4398015 0.017688,-0.021312 0.025305,-0.045603 0.016929,-0.05398 -0.031109,-0.031109 0.129869,-0.1461769 0.2700959,-0.1930655 0.1479235,-0.049462 0.3433381,-0.027345 0.3873322,0.043839 0.010402,0.016831 0.029383,0.024132 0.04218,0.016223 0.039922,-0.024673 1.5504788,1.5206245 1.6040656,1.6409573 0.042867,0.096262 0.050139,0.2891834 0.051826,1.375 L 7.8104391,6.515625 7.4134834,6.9140625 C 7.1951578,7.1332031 7.0061991,7.3125 6.993575,7.3125 6.980951,7.3125 6.940366,7.271577 6.903387,7.221559 Z"
       id="path829"
       inkscape:connector-curvature="0" />
    <path
       style="fill:#cbe5fe;stroke-width:0.03125"
       d="m 12.076721,14.066359 c -0.0064,-0.0065 -0.05781,-0.01713 -0.114158,-0.02369 -0.05635,-0.0066 -0.130739,-0.02167 -0.165318,-0.03357 -0.03458,-0.01191 -0.0699,-0.02259 -0.0785,-0.02374 -0.0086,-0.0012 -0.08594,-0.03549 -0.171875,-0.07631 -0.123783,-0.05879 -0.545855,-0.462829 -2.03125,-1.944438 L 7.640625,10.094386 8.0052338,9.7296256 8.3698425,9.364865 9.6329516,10.635023 C 10.897001,11.906127 11.005313,12 11.20788,12 c 0.140226,0 0.346047,-0.119191 0.42204,-0.244405 0.06649,-0.109551 0.13488,-0.174672 0.163012,-0.155215 0.0072,0.0049 0.04377,-0.01884 0.08137,-0.05287 0.07548,-0.06831 0.145281,-0.216026 0.166902,-0.353212 0.03438,-0.21812 -0.01519,-0.277363 -1.344038,-1.6065104 L 9.42239,8.3127291 9.5789841,8.156135 9.7355784,7.9995406 11.634969,9.9013556 c 1.044665,1.0459984 1.896501,1.9144614 1.892968,1.9299174 -0.0035,0.01546 0.02529,0.09657 0.06405,0.180265 0.147909,0.319337 0.147909,0.813837 0,1.133174 -0.03876,0.08369 -0.06818,0.163046 -0.06536,0.176348 0.01114,0.05267 -0.487947,0.515989 -0.627101,0.582151 -0.08104,0.03853 -0.158383,0.07043 -0.171875,0.07088 -0.01349,4.53e-4 -0.04761,0.01318 -0.07582,0.02827 -0.08184,0.0438 -0.544028,0.09523 -0.575114,0.064 z M 12.609554,12.87482 12.952418,12.53089 12.601209,12.179681 12.25,11.828472 l -0.351209,0.351209 -0.351209,0.351209 0.342864,0.34393 c 0.188575,0.189162 0.350374,0.34393 0.359554,0.34393 0.0092,0 0.170979,-0.154768 0.359554,-0.34393 z M 4.9036459,8.9567363 C 4.8964844,8.9501287 4.7992187,8.9369869 4.6875,8.9275325 4.5757813,8.9180778 4.3859375,8.8786709 4.265625,8.8399613 4.1453125,8.8012516 4.0398437,8.7675438 4.03125,8.7650547 4.0226562,8.7625672 3.9734375,8.7489044 3.921875,8.7346962 3.8703125,8.7204881 3.7964844,8.6883766 3.7578125,8.6633375 3.7191406,8.6382984 3.6875,8.6274181 3.6875,8.6391587 c 0,0.011741 -0.040843,-0.00774 -0.090762,-0.043281 C 3.5468197,8.5603325 3.4940853,8.5311894 3.4795509,8.5311156 3.4650166,8.5310531 3.3805081,8.4759241 3.2917541,8.4086325 3.203,8.3413406 3.1229677,8.2936991 3.1139047,8.3027619 3.1048417,8.311825 2.9193015,8.1411153 2.7015931,7.9234069 2.4838848,7.7056984 2.313175,7.5201584 2.322238,7.5110953 2.331301,7.5020322 2.284408,7.4228637 2.2180313,7.335165 2.1516547,7.2474662 2.1037979,7.1652741 2.111683,7.1525156 2.1195681,7.1397572 2.1109786,7.1200228 2.0925951,7.1086612 2.035164,7.0731669 1.8172935,6.5253497 1.841075,6.476235 1.843245,6.471755 1.824425,6.428275 1.799257,6.379606 1.774089,6.330937 1.745356,6.2221004 1.735405,6.137746 1.725455,6.053392 1.710552,5.962587 1.70229,5.9359573 1.69403,5.9093273 1.681599,5.7882507 1.67467,5.6668973 L 1.662072,5.4462551 2.0030905,5.1062942 2.344109,4.7663332 3.3840184,5.8058951 4.4239275,6.845457 4.7510265,6.862776 c 0.1799044,0.00953 0.4677238,0.022996 0.6395988,0.029933 0.171875,0.00694 0.3412984,0.019408 0.3764969,0.027712 C 5.8164252,6.932053 5.911294,6.855032 6.1803297,6.5849469 L 6.5295403,6.234375 6.5325309,5.4710581 6.5355216,4.7077412 5.5019559,3.6738303 4.4683906,2.6399191 4.804955,2.3043982 C 5.1192762,1.9910514 5.1497509,1.9688368 5.2660731,1.9682635 c 0.1367525,-6.741e-4 0.3189328,0.016435 0.476116,0.044714 0.055859,0.01005 0.1408821,0.023917 0.1889396,0.030815 0.048057,0.0069 0.1394635,0.034306 0.203125,0.060905 0.063661,0.0266 0.1157479,0.041688 0.1157479,0.03353 0,-0.00816 0.042187,0.00698 0.09375,0.033647 0.051563,0.026664 0.09375,0.040593 0.09375,0.030953 0,-0.00964 0.031641,-1.313e-4 0.070312,0.021132 0.038672,0.021262 0.087383,0.041532 0.1082478,0.045044 0.020864,0.00351 0.079285,0.035829 0.129824,0.071815 0.050537,0.035987 0.1053982,0.065431 0.1219113,0.065431 0.016513,0 0.067077,0.029146 0.1123634,0.064768 0.045287,0.035622 0.082339,0.055407 0.082339,0.043965 0,-0.011442 0.068748,0.036756 0.1527744,0.1071069 C 7.2993003,2.6924405 7.3798291,2.75 7.3942269,2.75 7.4294369,2.75 7.875,3.1941575 7.875,3.2292559 c 0,0.015232 0.05625,0.09488 0.125,0.1769941 0.06875,0.082114 0.125,0.1592388 0.125,0.1713878 0,0.012149 0.029082,0.062932 0.064628,0.1128506 0.035546,0.049919 0.055682,0.090762 0.044747,0.090762 -0.010934,0 0.01052,0.042695 0.047678,0.094877 0.037157,0.052182 0.070432,0.1119481 0.073943,0.1328125 0.00351,0.020864 0.023782,0.069576 0.045044,0.1082478 0.021263,0.038672 0.031924,0.070312 0.023692,0.070312 -0.00823,0 0.01329,0.063879 0.047826,0.1419541 0.034536,0.078075 0.068902,0.1694812 0.076368,0.203125 0.00747,0.033644 0.021681,0.092811 0.03159,0.1314834 0.00991,0.038672 0.023781,0.1097119 0.030828,0.1578669 0.00705,0.048155 0.025355,0.1676859 0.040684,0.265625 0.015329,0.097939 0.025339,0.2664937 0.022244,0.3745665 L 8.668642,5.6586166 8.2499004,6.0782222 C 8.019595,6.3090053 7.826325,6.4929919 7.8204144,6.4870809 7.8145038,6.4811703 7.8089713,5.9168397 7.8081203,5.2330125 7.8067891,4.1643209 7.799565,3.973955 7.75668,3.8776578 7.7030656,3.7572684 6.1925238,2.2119566 6.1525853,2.2366399 c -0.012797,0.00791 -0.031778,6.084e-4 -0.04218,-0.016223 -0.043994,-0.071184 -0.2394087,-0.093301 -0.3873322,-0.043839 -0.1402268,0.046889 -0.301205,0.1619564 -0.2700959,0.1930654 0.00838,0.00838 7.594e-4,0.032668 -0.016928,0.05398 -0.080408,0.096886 -0.087957,0.3275301 -0.014393,0.4398014 0.026694,0.040741 0.037784,0.074075 0.024644,0.074075 -0.01314,0 0.280499,0.3058594 0.6525319,0.6796875 l 0.6764237,0.6796875 0.00368,0.4375 c 0.00202,0.240625 0.00411,0.4515625 0.00464,0.46875 5.344e-4,0.017188 2.5e-4,0.2070312 -6.5e-4,0.421875 -0.0019,0.4578606 -0.0019,0.4556594 2.813e-4,0.71875 9.25e-4,0.1117187 0.00133,0.2171875 8.937e-4,0.234375 -4.344e-4,0.017188 -0.00329,0.1092363 -0.00633,0.2045528 -0.00305,0.095317 0.012927,0.2078166 0.035503,0.25 0.022576,0.042184 0.035155,0.080214 0.027954,0.084513 -0.0072,0.0043 0.024396,0.054799 0.070216,0.1122232 L 6.9947466,7.3338219 6.1768459,8.1512859 5.3589409,8.96875 H 5.1378037 c -0.1216253,0 -0.2269965,-0.00541 -0.2341578,-0.012014 z M 4.0139534,8.0195938 C 4.0973422,7.9649553 4.1928859,7.8368116 4.2126356,7.7531197 4.2400794,7.6368228 4.2370525,7.4486459 4.2068047,7.390625 4.1888841,7.35625 4.1763566,7.3201362 4.1789659,7.3103719 4.1815753,7.3006078 3.8330006,6.9421194 3.4043553,6.5137312 2.9757098,6.0853431 2.625,5.7470072 2.625,5.7618734 c 0,0.014866 -0.019659,0.010714 -0.043687,-0.00923 C 2.473905,5.663505 2.2163,5.6612603 2.1111238,5.7485488 c -0.021312,0.017688 -0.045603,0.025305 -0.05398,0.016928 -0.031163,-0.031163 -0.146214,0.1299797 -0.1932687,0.2706944 -0.033795,0.1010618 -0.040406,0.1743646 -0.021629,0.239835 0.014873,0.051859 0.018947,0.1023828 0.00905,0.1122756 -0.028921,0.028921 1.5611549,1.6146562 1.664324,1.6597803 0.1217338,0.053244 0.3976791,0.037479 0.4983284,-0.028469 z"
       id="path827"
       inkscape:connector-curvature="0" />
    <path
       style="fill:#6598fe;stroke-width:0.03125"
       d="M 11.002548,11.951197 C 10.937626,11.923024 10.40037,11.406724 9.6329456,10.635018 L 8.3701709,9.3651956 8.7236384,9.0107228 C 8.9180453,8.8157628 9.0884341,8.65625 9.1022803,8.65625 c 0.02392,0 1.9927847,1.967754 2.3568017,2.355473 0.271528,0.289207 0.317528,0.462781 0.187707,0.708276 -0.124996,0.236372 -0.402677,0.336023 -0.644241,0.231198 z"
       id="path825"
       inkscape:connector-curvature="0" />
    <path
       style="fill:#fe0000;stroke-width:0.03125"
       d="M 2.8346027,13.638496 C 2.5102681,13.535817 2.294638,13.165854 2.3743402,12.848812 c 0.020144,-0.08013 0.06304,-0.187875 0.095326,-0.239437 0.032286,-0.05156 2.3339594,-2.367376 5.1148301,-5.1462516 l 5.0561287,-5.0525018 0.182438,-0.052078 c 0.150958,-0.043092 0.207578,-0.04585 0.328125,-0.015989 0.291048,0.072098 0.463324,0.244545 0.536972,0.5375067 0.03046,0.1211654 0.02786,0.1763937 -0.01545,0.328125 L 13.620629,3.390625 8.5525022,8.4616388 C 5.1242656,11.891828 3.4439288,13.552217 3.359375,13.593116 3.18207,13.67888 3.0093443,13.693817 2.8346027,13.638496 Z"
       id="path823"
       inkscape:connector-curvature="0" />
    <path
       style="fill:#323232;stroke-width:0.03125"
       d="m 11.746508,14.530708 c -0.516324,-0.127019 -0.448151,-0.06911 -2.5510371,-2.166862 l -1.913904,-1.909229 0.1787434,-0.180628 0.1787438,-0.180628 1.8757853,1.870711 c 1.4855266,1.481507 1.9082936,1.886157 2.0320356,1.944951 0.08594,0.04083 0.163281,0.07518 0.171875,0.07633 0.0086,0.0011 0.04392,0.01183 0.0785,0.02374 0.218225,0.07513 0.708851,0.07127 0.85459,-0.0067 0.02821,-0.0151 0.06233,-0.02782 0.07582,-0.02827 0.01349,-4.53e-4 0.09084,-0.03235 0.171875,-0.07088 0.139154,-0.06616 0.638245,-0.529478 0.627101,-0.582151 -0.0028,-0.0133 0.0266,-0.09266 0.06536,-0.176348 0.147908,-0.319337 0.147908,-0.813837 0,-1.133174 -0.03876,-0.08369 -0.06759,-0.164809 -0.06406,-0.180265 0.0035,-0.01546 -0.84831,-0.883926 -1.892984,-1.9299333 L 9.7355459,7.9995084 9.9151628,7.8200666 10.094779,7.640625 l 1.931029,1.9375 1.931029,1.9375 0.121394,0.296875 0.121393,0.296875 v 0.46875 0.46875 l -0.122805,0.296875 c -0.114188,0.276042 -0.144766,0.319033 -0.43575,0.612633 -0.355596,0.358793 -0.554627,0.477597 -0.964901,0.575961 -0.31432,0.07536 -0.618856,0.07482 -0.92966,-0.0016 z M 4.578125,9.4358325 C 4.4578125,9.4223956 4.190625,9.3600691 3.984375,9.2973297 3.3013316,9.0895534 2.8989103,8.8412919 2.3413092,8.2836906 1.8014568,7.7438384 1.5949487,7.4131716 1.3542139,6.703125 1.1822737,6.1959878 1.1046508,5.4606297 1.1998944,5.2411837 1.2552396,5.1136659 2.0174537,4.3578294 2.1348469,4.3140541 2.2575858,4.2682851 2.4521672,4.2731631 2.5713162,4.3249951 2.6266232,4.3490541 3.11476,4.813117 3.6560641,5.3562451 L 4.6402528,6.34375 4.8435641,6.3445969 C 4.955385,6.3450625 5.1804687,6.3584912 5.34375,6.3744384 L 5.640625,6.4034334 5.8359375,6.2104319 6.03125,6.0174306 V 5.4694669 4.9215028 L 5.0437447,3.9373141 C 4.5006166,3.39601 4.0365541,2.9078735 4.0124947,2.8525662 3.9568578,2.7246701 3.9566622,2.5573479 4.0119978,2.4286838 4.035785,2.3733765 4.2432069,2.1430448 4.4729353,1.9168358 4.93613,1.4607388 4.9538547,1.4515046 5.359375,1.4550228 c 0.6613447,0.00574 1.5800691,0.3176222 2.1536247,0.731103 0.2022159,0.1457792 0.7823337,0.7274074 0.9384412,0.9408848 0.1651388,0.2258278 0.4274047,0.760186 0.5459404,1.112336 0.052989,0.1574218 0.116004,0.4246093 0.1400334,0.59375 l 0.043689,0.3075284 -0.256235,0.2592097 -0.256235,0.25921 0.00563,-0.19671 C 8.6773631,5.3541444 8.6673566,5.1854931 8.6520272,5.0875544 8.6366981,4.9896153 8.61839,4.8700841 8.6113428,4.8219294 8.6042956,4.7737744 8.5904231,4.7027344 8.580515,4.6640625 8.5706066,4.6253906 8.5563912,4.5662231 8.5489253,4.5325791 8.5414591,4.4989353 8.5070937,4.4075291 8.4725575,4.3294541 8.4380213,4.2513794 8.4164997,4.1875 8.4247316,4.1875 c 0.00823,0 -0.00243,-0.031641 -0.023692,-0.070312 C 8.3797775,4.0785156 8.3595075,4.0298041 8.3559959,4.0089397 8.3524844,3.9880753 8.3192097,3.9283097 8.2820525,3.8761272 8.2448953,3.8239447 8.2234406,3.78125 8.234375,3.78125 8.245309,3.78125 8.225175,3.740407 8.189628,3.690488 8.1540825,3.6405697 8.125,3.5897869 8.125,3.5776378 8.125,3.5654888 8.06875,3.4883644 8,3.40625 7.93125,3.3241356 7.875,3.2444884 7.875,3.2292559 7.875,3.1941575 7.4294369,2.75 7.3942269,2.75 7.3798291,2.75 7.2993003,2.6924405 7.2152744,2.6220901 7.1312484,2.5517396 7.0625,2.5035415 7.0625,2.5149832 c 0,0.011442 -0.037053,-0.00834 -0.082339,-0.043965 -0.045286,-0.035622 -0.09585,-0.064768 -0.1123634,-0.064768 -0.016513,0 -0.071374,-0.029444 -0.1219128,-0.065431 C 6.6953456,2.3048327 6.6369247,2.2725157 6.6160603,2.2690041 6.5951959,2.2654924 6.5464844,2.2452226 6.5078125,2.2239601 6.4691406,2.2026976 6.4375,2.1931882 6.4375,2.202828 6.4375,2.212468 6.395313,2.198538 6.34375,2.171875 6.2921875,2.145211 6.25,2.1300698 6.25,2.1382279 c 0,0.00816 -0.052087,-0.00693 -0.1157478,-0.03353 -0.063662,-0.0266 -0.1550678,-0.054007 -0.203125,-0.060906 C 5.8830697,2.0368943 5.7980469,2.0230275 5.7421875,2.0129778 5.5850044,1.9846989 5.4028241,1.9675895 5.2660716,1.9682635 5.1497494,1.9688369 5.1192747,1.9910514 4.8049534,2.3043982 L 4.4683891,2.6399191 5.5019544,3.6738303 6.53552,4.7077413 6.5325294,5.4710581 6.5295388,6.234375 6.1803278,6.5849478 C 5.9112922,6.8550325 5.8164238,6.9320541 5.7671203,6.9204219 5.7319219,6.9121175 5.5624984,6.8996472 5.3906234,6.8927094 5.2187484,6.8857719 4.9309291,6.8723019 4.7510247,6.8627763 L 4.4239256,6.8454572 3.3840166,5.8058953 2.3441071,4.7663334 2.0030886,5.1062944 1.6620701,5.4462553 1.6746684,5.6668975 c 0.00693,0.1213534 0.019358,0.2424303 0.02762,0.26906 0.00826,0.02663 0.023164,0.1174347 0.033115,0.2017887 0.00995,0.084354 0.038684,0.1931913 0.063852,0.24186 0.025168,0.048669 0.045879,0.099183 0.046025,0.1122538 0.00126,0.1123272 0.1891077,0.5808284 0.2473127,0.6168012 0.018383,0.011362 0.026973,0.031096 0.019088,0.043854 -0.00789,0.012759 0.039972,0.094951 0.1063484,0.1826494 0.066377,0.087699 0.1132697,0.1668672 0.1042066,0.1759303 -0.00906,0.00906 0.1616469,0.1946031 0.3793552,0.4123116 0.2177083,0.2177084 0.4032485,0.3884181 0.4123115,0.379355 0.00906,-0.00906 0.089095,0.038579 0.1778494,0.1058706 0.088754,0.067292 0.1732625,0.1224091 0.1877969,0.1224831 0.014534,6.25e-5 0.067269,0.029217 0.1171875,0.064762 0.049919,0.035546 0.090762,0.055022 0.090762,0.043281 0,-0.011741 0.031641,-8.594e-4 0.070312,0.024179 0.038672,0.025039 0.1125,0.057151 0.1640625,0.071359 0.1240329,0.034178 0.0969,0.025922 0.3398297,0.1034043 0.2484153,0.079232 0.3257113,0.091334 0.763956,0.1196097 L 5.3481944,8.97852 5.1045172,9.223635 C 4.9704947,9.3584481 4.8464472,9.4668406 4.8288566,9.4645069 4.8112659,9.4621725 4.6984359,9.4492697 4.5781234,9.4358325 Z"
       id="path821"
       inkscape:connector-curvature="0" />
    <path
       style="fill:#7f0000;stroke-width:0.03125"
       d="M 2.6823866,14.129393 C 2.4437626,14.050575 2.3106485,13.963756 2.1436649,13.77803 1.940002,13.551508 1.8620845,13.331892 1.8620845,12.984375 c 0,-0.219137 0.015972,-0.322658 0.072322,-0.46875 0.06961,-0.180468 0.266462,-0.38164 5.2486452,-5.3638231 4.9821833,-4.9821832 5.1833553,-5.1790355 5.3638233,-5.2486452 0.266412,-0.1027599 0.674805,-0.1020135 0.9375,0.00171 0.257387,0.1016309 0.540374,0.3846181 0.642005,0.642005 0.103727,0.2626951 0.104473,0.6710884 0.0017,0.9375 -0.0696,0.1804712 -0.26645,0.3816431 -5.2486328,5.3638265 -5.0202616,5.0202628 -5.181975,5.1784338 -5.3638222,5.2463398 -0.2590369,0.09673 -0.6024221,0.111094 -0.8332384,0.03486 z M 3.359375,13.593116 c 0.084554,-0.0409 1.7648906,-1.701288 5.1931272,-5.1314772 L 13.620629,3.390625 13.672707,3.2081866 C 13.716019,3.0564553 13.71862,3.001227 13.68816,2.8800616 13.614512,2.5870999 13.442236,2.4146527 13.151188,2.3425549 13.030641,2.3126931 12.974021,2.3154521 12.823063,2.3585436 L 12.640625,2.4106216 7.5844966,7.4631234 C 4.8036259,10.241999 2.5019524,12.557813 2.4696665,12.609375 c -0.1746874,0.278986 -0.1368393,0.629702 0.092729,0.859271 0.2144201,0.21442 0.5142216,0.261242 0.7969795,0.12447 z"
       id="path819"
       inkscape:connector-curvature="0" />
  </g>
</svg>
