<?xml version="1.0" encoding="UTF-8" standalone="no"?>
<!-- Created with Inkscape (http://www.inkscape.org/) -->

<svg
   xmlns:dc="http://purl.org/dc/elements/1.1/"
   xmlns:cc="http://creativecommons.org/ns#"
   xmlns:rdf="http://www.w3.org/1999/02/22-rdf-syntax-ns#"
   xmlns:svg="http://www.w3.org/2000/svg"
   xmlns="http://www.w3.org/2000/svg"
   xmlns:sodipodi="http://sodipodi.sourceforge.net/DTD/sodipodi-0.dtd"
   xmlns:inkscape="http://www.inkscape.org/namespaces/inkscape"
   version="1.1"
   id="svg2"
   width="16"
   height="16"
   viewBox="0 0 16 16"
   sodipodi:docname="NODE_EXITEDITGROUP.svg"
   inkscape:version="0.92.4 (5da689c313, 2019-01-14)">
  <metadata
     id="metadata8">
    <rdf:RDF>
      <cc:Work
         rdf:about="">
        <dc:format>image/svg+xml</dc:format>
        <dc:type
           rdf:resource="http://purl.org/dc/dcmitype/StillImage" />
        <dc:title></dc:title>
      </cc:Work>
    </rdf:RDF>
  </metadata>
  <defs
     id="defs6" />
  <sodipodi:namedview
     pagecolor="#ffffff"
     bordercolor="#666666"
     borderopacity="1"
     objecttolerance="10"
     gridtolerance="10"
     guidetolerance="10"
     inkscape:pageopacity="0"
     inkscape:pageshadow="2"
     inkscape:window-width="1326"
     inkscape:window-height="816"
     id="namedview4"
     showgrid="false"
     inkscape:zoom="14.75"
     inkscape:cx="8"
     inkscape:cy="8"
     inkscape:window-x="0"
     inkscape:window-y="0"
     inkscape:window-maximized="0"
     inkscape:current-layer="svg2" />
  <g
     id="NODE_EXITEDITGROUP">
    <path
       style="fill:#ffffff;stroke-width:0.03125"
       d="M 0,12.499262 V 8.9985241 l 0.53813412,0.00855 0.53813408,0.00855 0.037831,0.2261125 c 0.1440598,0.8610254 0.541098,1.8534064 1.0452454,2.6125514 l 0.2249057,0.338662 -0.379527,0.38044 -0.379527,0.380441 0.7110438,0.710539 0.7110437,0.71054 0.3797009,-0.379701 0.3797009,-0.379701 0.3388447,0.225027 c 0.7593309,0.50427 1.7516266,0.901292 2.6127322,1.045366 l 0.2261125,0.03783 0.00855,0.538134 L 7.0014759,16 H 3.5007378 0 Z m 9.0070747,2.962604 0.00855,-0.538134 0.2261125,-0.03783 C 10.102843,14.741827 11.095139,14.344805 11.85447,13.840535 l 0.338844,-0.225027 0.379701,0.379701 0.379701,0.379701 0.711044,-0.71054 0.711044,-0.710539 -0.379527,-0.380441 -0.379527,-0.38044 0.224905,-0.338662 c 0.504148,-0.759145 0.901186,-1.751526 1.045246,-2.6125505 L 14.923732,9.015625 15.461866,9.0070747 16,8.9985241 V 12.499262 16 H 12.499262 8.9985241 Z M 0,3.5007378 V 0 H 3.5007378 7.0014759 L 6.9929253,0.53813412 6.984375,1.0762682 6.7582625,1.1140995 C 5.8972378,1.258159 4.9048566,1.6551972 4.1457125,2.1593446 L 3.80705,2.3842503 3.4266097,2.0047233 3.0461693,1.6251963 2.3356296,2.3362401 1.6250899,3.0472838 2.0047908,3.4269847 2.3844917,3.8066856 2.1594653,4.1455303 C 1.6551946,4.9048612 1.2581726,5.8971569 1.1140995,6.7582625 L 1.0762682,6.984375 0.53813412,6.9929253 0,7.0014759 Z M 14.924099,6.9609375 C 14.917807,6.9394531 14.88945,6.7953125 14.861082,6.640625 14.795446,6.2827072 14.654456,5.7915969 14.522429,5.4609884 L 14.419452,5.203125 14.496289,5 c 0.06087,-0.1609125 0.07736,-0.2648203 0.07934,-0.5 0.0036,-0.4225616 -0.08019,-0.6545337 -0.334438,-0.9263209 L 14.051605,3.3710138 14.213364,3.2092553 14.375123,3.0474965 13.664477,2.3363464 12.953831,1.6251963 12.57339,2.0047233 12.19295,2.3842503 11.854288,2.1593446 C 11.095143,1.6551972 10.102762,1.258159 9.2417375,1.1140995 L 9.015625,1.0762682 9.0070747,0.53813412 8.9985241,0 H 12.499262 16 V 3.5 7 h -0.532231 c -0.39885,0 -0.535097,-0.00979 -0.54367,-0.039063 z"
       id="path833"
       inkscape:connector-curvature="0" />
    <path
       style="fill:#fefefe;stroke-width:0.03125"
       d="M 6.9929253,15.461866 6.984375,14.923732 6.7582625,14.885901 C 5.8971569,14.741827 4.9048612,14.344805 4.1455303,13.840535 L 3.8066856,13.615508 3.4269847,13.995209 3.0472838,14.37491 2.3362401,13.66437 1.6251963,12.953831 2.0047233,12.57339 2.3842503,12.19295 2.1593446,11.854288 C 1.6551972,11.095143 1.258159,10.102762 1.1140995,9.2417375 L 1.0762682,9.015625 0.53813412,9.0070747 0,8.9985241 V 8 7.0014759 L 0.53813412,6.9929253 1.0762682,6.984375 1.1140995,6.7582625 C 1.258159,5.8972378 1.6551972,4.9048566 2.1593446,4.1457125 L 2.3842503,3.80705 2.0047233,3.4266097 1.6251963,3.0461693 2.3362401,2.3356296 3.0472838,1.6250899 3.4269847,2.0047908 3.8066856,2.3844917 4.1455303,2.1594653 C 4.9048612,1.6551946 5.8971569,1.2581726 6.7582625,1.1140995 L 6.984375,1.0762682 6.9929253,0.53813412 7.0014759,0 H 8 8.9985241 l 0.00855,0.53813412 0.00855,0.53813408 0.2261125,0.037831 c 0.8610254,0.1440598 1.8534064,0.541098 2.6125514,1.0452454 l 0.338662,0.2249057 0.38044,-0.379527 0.380441,-0.379527 0.710996,0.7115005 0.710996,0.7115005 -0.166503,0.1644343 -0.166502,0.164434 -0.139719,-0.078091 C 13.384592,3.0091758 12.715372,3.1041426 12.301163,3.5263006 L 12.1492,3.6811791 11.860401,3.4383628 C 9.9780234,1.8556999 7.3933078,1.5701667 5.2263009,2.7054947 3.7433887,3.482415 2.6419149,4.8610234 2.2203824,6.4677128 2.1212272,6.8456472 2.0979647,6.8905734 1.9870083,6.9184216 1.8692718,6.9479716 1.5153917,7.3771169 1.4378275,7.584405 c -0.05773,0.1542809 -0.066278,0.2323197 -0.057506,0.52497 0.014182,0.4731528 0.078564,0.6061156 0.5057546,1.0445081 0.3009617,0.3088532 0.3255916,0.3437913 0.3761764,0.5336169 0.1257812,0.472008 0.4564196,1.177404 0.7690242,1.640664 1.7145938,2.540918 5.0357719,3.384397 7.7424223,1.966341 C 12.742693,12.262919 13.981164,10.218598 13.981164,8 c 0,-0.5485709 -0.05728,-0.9744597 -0.205935,-1.53125 -0.05277,-0.1976562 -0.09762,-0.3899313 -0.09965,-0.4272778 -0.0026,-0.047365 0.108882,-0.1821103 0.368516,-0.4454897 0.204721,-0.2076728 0.377093,-0.3727134 0.383049,-0.3667572 0.006,0.00596 0.06591,0.1572081 0.133221,0.3361147 0.134556,0.3576181 0.266958,0.8427984 0.325538,1.1929225 l 0.03783,0.2261125 0.538134,0.00855 L 16,7.0014759 V 8 8.9985241 l -0.538134,0.00855 -0.538134,0.00855 -0.03783,0.2261125 c -0.14406,0.8610244 -0.541098,1.8534054 -1.045246,2.6125504 l -0.224905,0.338662 0.379527,0.38044 0.379527,0.380441 -0.711044,0.710539 -0.711044,0.71054 -0.379701,-0.379701 -0.379701,-0.379701 -0.338844,0.225027 C 11.09514,14.344804 10.102844,14.741826 9.2417385,14.8859 L 9.015625,14.923732 9.0070747,15.461866 8.9985241,16 H 8 7.0014759 Z"
       id="path831"
       inkscape:connector-curvature="0" />
    <path
       style="fill:#fefe7f;stroke-width:0.03125"
       d="M 7.765625,12.950399 C 7.5081012,12.915722 7.3069881,12.862543 7.0987297,12.774057 l -0.2293956,-0.09747 0.088771,-0.04513 c 0.048824,-0.02482 0.1279172,-0.0817 0.1757634,-0.126403 0.076592,-0.07155 0.094814,-0.07639 0.1524075,-0.04042 0.2744575,0.171402 1.0979378,0.17749 1.4206919,0.0105 0.032262,-0.01669 0.100845,-0.04914 0.1524075,-0.0721 0.051562,-0.02296 0.1525338,-0.08085 0.2243806,-0.128646 0.071847,-0.04779 0.1397685,-0.08689 0.1509375,-0.08689 0.026504,0 0.3903069,-0.363802 0.3903069,-0.390307 0,-0.01117 0.039102,-0.07909 0.086893,-0.150937 0.047791,-0.07185 0.1056819,-0.172818 0.1286463,-0.224381 0.022964,-0.05156 0.05541,-0.120146 0.072101,-0.152408 C 10.079768,10.94644 10.073529,10.123219 9.90187,9.8483494 9.8645041,9.7885169 9.8735216,9.7694881 10.000688,9.6398247 l 0.139937,-0.1426838 0.08047,0.1811172 c 0.164024,0.3691599 0.216152,0.9441439 0.125495,1.3842419 -0.04641,0.225307 -0.295819,0.768079 -0.4308483,0.937632 -0.1111113,0.139521 -0.3380428,0.366578 -0.4765703,0.476835 -0.16067,0.127881 -0.6562241,0.364645 -0.86511,0.413329 -0.1987803,0.04633 -0.6574825,0.08043 -0.8084394,0.0601 z M 6.02992,9.48302 C 5.9547444,9.4064216 5.9079703,9.34375 5.9259775,9.34375 c 0.018007,0 0.048259,-0.03406 0.067227,-0.075689 0.083659,-0.1836121 0.495474,-0.6002418 0.6996362,-0.7078165 0.040032,-0.021093 0.079816,-0.047198 0.08841,-0.058012 0.057942,-0.072907 0.7972584,-0.34039 0.8354021,-0.3022463 C 7.6402484,8.2235816 7.0225478,8.78519 6.890625,8.8600847 6.6946553,8.9713397 6.4124688,9.2511944 6.3021494,9.4436975 6.2558719,9.5244497 6.2064422,9.5976681 6.1923059,9.6064047 6.1781694,9.6151416 6.1050959,9.5596184 6.02992,9.48302 Z M 5.703125,8.8235803 C 5.3095856,8.7782225 5.3653969,8.8191616 4.4622509,7.9133653 3.728575,7.1775359 3.6248881,7.0613878 3.5910869,6.9375 3.5373503,6.7405459 3.5439431,6.1211725 3.6022984,5.884215 3.6466291,5.7042075 3.8325091,5.2542938 3.8772328,5.21875 3.8880468,5.21016 3.9141508,5.170372 3.9352448,5.13034 4.0383322,4.9346931 4.4346931,4.5383322 4.6303403,4.4352444 4.6703719,4.4141512 4.7101562,4.3880462 4.71875,4.3772328 4.7545872,4.33214 5.2047084,4.1465462 5.384215,4.1028491 5.63598,4.0415616 6.1754772,4.0370031 6.453125,4.0938172 6.5826778,4.1203272 6.7992994,4.2031334 6.984375,4.2968937 7.2999009,4.4567412 7.3596259,4.4982444 7.6309922,4.74623 L 7.7807503,4.8830853 7.6962575,5.043105 C 7.6497865,5.131116 7.6086125,5.2080837 7.6047595,5.2141444 7.6009095,5.2202044 7.5084875,5.1323144 7.3993838,5.0188319 7.29028,4.9053494 7.1899597,4.8125 7.1764497,4.8125 7.1629397,4.8125 7.0931017,4.772716 7.0212556,4.724091 6.6879341,4.4985025 6.3612472,4.4011578 5.9375,4.4011578 c -0.5498684,0 -1.0475438,0.2068178 -1.4385341,0.5978081 C 4.1079756,5.3899562 3.9011578,5.8876316 3.9011578,6.4375 c 0,0.4237472 0.097345,0.7504341 0.3229328,1.0837556 0.048625,0.071847 0.088409,0.1412191 0.088409,0.1541607 0,0.012942 0.080859,0.1022262 0.1796875,0.19841 0.1707662,0.1661971 0.3795578,0.3095246 0.5859375,0.4022243 0.051563,0.02316 0.1201459,0.056133 0.1524075,0.073274 0.1306372,0.069406 0.4253641,0.1239103 0.68353,0.1264072 0.1503906,0.00145 0.2734375,0.012165 0.2734375,0.023801 0,0.011636 -0.035156,0.039972 -0.078125,0.062968 -0.042969,0.022996 -0.078125,0.051412 -0.078125,0.063146 0,0.03222 -0.1846381,0.2187925 -0.2112094,0.2134219 -0.012741,-0.00258 -0.065353,-0.00954 -0.1169152,-0.015488 z M 11.03125,8.6195766 c 0,-0.00594 0.276191,-0.2848863 0.613757,-0.6198772 L 12.258764,7.390625 12.141094,7.6058259 C 11.923655,8.0034866 11.638029,8.2910491 11.238638,8.5144009 11.124575,8.5781891 11.03125,8.6255178 11.03125,8.6195766 Z M 7.4580653,7.7937206 c 0.027017,-0.041234 0.060537,-0.074971 0.074488,-0.074971 0.01395,0 0.030348,-0.024609 0.03644,-0.054687 0.00823,-0.040644 0.024904,-0.027304 0.064927,0.051948 0.029618,0.058649 0.050275,0.1094491 0.045903,0.1128878 -0.00437,0.00344 -0.067108,0.013799 -0.1394144,0.023023 l -0.1314662,0.01677 z M 7.9895984,7.6209931 C 7.8616894,7.4025503 7.7632328,7.1561391 7.7165006,6.9375 7.6610388,6.6780194 7.6668934,6.1346172 7.7278491,5.884215 7.7715462,5.7047084 7.95714,5.2545872 8.0022328,5.21875 8.0130458,5.21016 8.0391518,5.170372 8.0602448,5.13034 8.1633326,4.9346928 8.5596935,4.5383319 8.7553407,4.4352441 c 0.040032,-0.021093 0.079816,-0.047198 0.08841,-0.058012 0.035837,-0.045093 0.4859584,-0.2306866 0.665465,-0.2743837 0.2490759,-0.060633 0.7924343,-0.066884 1.0532853,-0.012119 0.194744,0.040887 0.642156,0.2295134 0.758919,0.3199569 0.05208,0.040342 0.04752,0.051293 -0.06847,0.1645597 L 11.128682,4.6965891 10.931528,4.5985875 C 10.645101,4.4562091 10.402781,4.4011578 10.0625,4.4011578 c -0.5498684,0 -1.0475437,0.2068178 -1.4385341,0.5978081 C 8.2329756,5.3899562 8.0261578,5.8876316 8.0261578,6.4375 c 0,0.3404919 0.055053,0.5826034 0.197751,0.8696744 L 8.3222319,7.5049741 8.1959134,7.6312925 8.069595,7.7576109 Z"
       id="path829"
       inkscape:connector-curvature="0" />
    <path
       style="fill:#989898;stroke-width:0.03125"
       d="M 7.609375,13.980869 C 7.2560509,13.943883 6.7902841,13.861422 6.4738562,13.779832 4.8098153,13.350767 3.3877072,12.179871 2.6231853,10.609375 2.456523,10.267014 2.21875,9.6310866 2.21875,9.5277066 c 0,-0.023377 0.7136719,0.6695834 1.5859375,1.5399104 1.0563297,1.053981 1.6303041,1.604542 1.7187953,1.648681 0.2198928,0.109681 0.500495,0.167843 0.7234266,0.149948 0.1898081,-0.01524 0.2158631,-0.0086 0.4692165,0.119199 0.3701882,0.186759 0.6225557,0.265122 0.9791866,0.304046 0.3691972,0.0403 0.8173284,-7.66e-4 1.1171875,-0.102366 0.2370675,-0.08033 0.6709834,-0.291144 0.738775,-0.358936 0.025817,-0.02582 0.058302,-0.04694 0.072189,-0.04694 0.013887,0 0.083211,-0.05625 0.1540534,-0.125 0.070842,-0.06875 0.1428503,-0.125 0.1600181,-0.125 0.017168,0 0.031214,-0.01405 0.031214,-0.03121 0,-0.01717 0.056252,-0.08918 0.1250005,-0.160018 0.06875,-0.07084 0.125,-0.140167 0.125,-0.154054 0,-0.01389 0.02112,-0.04637 0.04694,-0.07219 0.06779,-0.06779 0.278611,-0.501707 0.358936,-0.738775 0.200877,-0.592862 0.147123,-1.358834 -0.138727,-1.9767728 -0.08939,-0.1932491 -0.07625,-0.2162284 0.154727,-0.2705091 0.31985,-0.075166 0.860892,-0.313064 0.978795,-0.4303793 0.02271,-0.022599 0.05266,-0.041089 0.06654,-0.041089 0.01389,0 0.08321,-0.05625 0.154054,-0.125 0.07084,-0.06875 0.14285,-0.125 0.160018,-0.125 0.01717,0 0.03121,-0.014046 0.03121,-0.031214 0,-0.017168 0.05625,-0.089176 0.125,-0.1600181 0.06875,-0.070842 0.125,-0.1401662 0.125,-0.1540534 0,-0.013887 0.01849,-0.043832 0.04109,-0.066544 0.117535,-0.1181247 0.355786,-0.6602847 0.430128,-0.9787947 0.03296,-0.1411916 0.07747,-0.1976594 0.461879,-0.5859216 l 0.425409,-0.4296718 0.04075,0.1171718 c 0.07485,0.2152153 0.189281,0.7072685 0.245262,1.0546716 0.146601,0.9097734 0.0093,2.08377 -0.3503,2.9948944 -0.889354,2.25347 -3.009196,3.741452 -5.4348465,3.814887 -0.2234375,0.0068 -0.4625,0.0064 -0.53125,-7.88e-4 z M 2.1251992,6.8345512 C 2.1253086,6.8310169 2.1674069,6.6683731 2.2187506,6.4731209 2.9060713,3.8593444 5.2948806,2.0188363 8,2.0188363 c 1.1727772,0 2.365472,0.3628223 3.328164,1.0124402 0.259971,0.175426 0.796836,0.6132544 0.796836,0.649841 0,0.012911 -0.112939,0.1356437 -0.250976,0.2727406 -0.159503,0.1584166 -0.259162,0.23628 -0.273437,0.2136344 C 11.567373,4.1148031 11.042182,3.8589919 10.84375,3.7988509 10.410089,3.6674162 9.7948834,3.6623128 9.3331244,3.7863194 8.9578925,3.8870891 8.4900544,4.1416262 8.2375528,4.3823884 8.1877378,4.4298875 8.1373797,4.46875 8.1256459,4.46875 c -0.011734,0 -0.04015,0.035156 -0.063146,0.078125 C 8.0395038,4.5898437 8.0113788,4.625 8,4.625 7.9886212,4.625 7.9604962,4.5898437 7.9375,4.546875 7.9145037,4.5039062 7.8842494,4.46875 7.8702681,4.46875 7.8562871,4.46875 7.7788031,4.405469 7.6980831,4.328125 7.6173628,4.2507812 7.5327406,4.1875 7.5100344,4.1875 c -0.022707,0 -0.041284,-0.011103 -0.041284,-0.024673 0,-0.036177 -0.5498519,-0.3028697 -0.75,-0.3637706 -0.432596,-0.1316292 -1.048571,-0.136823 -1.510626,-0.012737 -0.3570707,0.095892 -0.8450332,0.3565378 -1.071385,0.5722812 -0.036512,0.034801 -0.092762,0.086513 -0.125,0.1149156 -0.291525,0.2568432 -0.6058244,0.79413 -0.7313547,1.2502332 -0.057022,0.2071825 -0.072297,0.3455928 -0.074495,0.6749831 -0.00237,0.3544575 -0.00953,0.4117687 -0.04957,0.3964472 -0.2386899,-0.091337 -0.6453229,-0.092081 -0.8985072,-0.00164 -0.073047,0.026092 -0.1327228,0.044549 -0.1326133,0.041015 z"
       id="path827"
       inkscape:connector-curvature="0" />
    <path
       style="fill:#fea900;stroke-width:0.03125"
       d="M 7.84375,12.603906 C 7.6566731,12.587238 7.3945291,12.523255 7.3040975,12.472189 l -0.086527,-0.04886 1.3191153,-1.31939 C 9.7667475,9.8736209 9.8586719,9.7886472 9.8983241,9.8452588 10.07235,10.093716 10.0809,10.944253 9.9126403,11.269468 c -0.016692,0.03226 -0.049137,0.100845 -0.072101,0.152407 -0.022964,0.05156 -0.080855,0.152534 -0.1286463,0.224381 C 9.664102,11.718106 9.625,11.786024 9.625,11.797193 c 0,0.02651 -0.3638025,0.390307 -0.3903069,0.390307 -0.011169,0 -0.079091,0.0391 -0.1509375,0.08689 -0.071847,0.04779 -0.1728181,0.105682 -0.2243806,0.128646 -0.051562,0.02296 -0.1201459,0.05541 -0.1524075,0.0721 -0.1597553,0.08265 -0.6163366,0.150762 -0.8632175,0.128766 z M 6.2893191,9.4609375 C 6.41857,9.2472566 6.6902359,8.9774588 6.90625,8.8482494 7.0650706,8.7532503 7.0449272,8.7788447 6.6410437,9.1852209 6.4006491,9.4270994 6.2008391,9.625 6.1970219,9.625 c -0.00382,0 0.037717,-0.073828 0.092297,-0.1640625 z M 5.78125,8.4792237 C 5.6128681,8.4637325 5.3368178,8.4003647 5.25,8.3572744 5.2070312,8.3359475 5.1296875,8.2994731 5.078125,8.2762197 4.8708631,8.18275 4.6627603,8.0398353 4.4921875,7.8738262 4.3933594,7.7776425 4.3125,7.6883581 4.3125,7.6754162 4.3125,7.6624747 4.2727159,7.5931022 4.2240906,7.5212556 3.9985025,7.1879341 3.9011578,6.8612472 3.9011578,6.4375 c 0,-0.5498684 0.2068178,-1.0475438 0.5978081,-1.4385341 C 4.8899562,4.6079756 5.3876316,4.4011578 5.9375,4.4011578 c 0.4237472,0 0.7504341,0.097345 1.0837556,0.3229328 0.071847,0.048625 0.1416841,0.088409 0.1551941,0.088409 0.01351,0 0.1125422,0.091509 0.2200712,0.2033544 0.181106,0.188375 0.193136,0.2095928 0.163311,0.2880384 -0.017708,0.046576 -0.043459,0.099208 -0.057224,0.1169581 C 7.4462528,5.4935228 7.3442584,5.9723675 7.3259978,6.25 7.2973572,6.6854531 7.3801972,7.21154 7.5186672,7.4735716 7.5427753,7.5191922 7.5625,7.5851212 7.5625,7.6200803 7.5625,7.7295172 7.4024459,7.8703459 7.217555,7.9235912 6.9525572,7.9999059 6.43659,8.2658175 6.2958428,8.3986097 6.2299484,8.4607797 5.9897597,8.4984069 5.78125,8.4792237 Z M 8.2240184,7.307395 C 8.0812109,7.0201044 8.0261578,6.7780637 8.0261578,6.4375 c 0,-0.5498684 0.2068178,-1.0475438 0.5978081,-1.4385341 C 9.0149562,4.6079756 9.5126316,4.4011578 10.0625,4.4011578 c 0.380031,0 0.763355,0.1045241 1.022378,0.27878 0.02587,0.017405 -0.408974,0.47246 -1.3622117,1.4255219 l -1.400215,1.3999556 z"
       id="path825"
       inkscape:connector-curvature="0" />
    <path
       style="fill:#00fe00;stroke-width:0.03125"
       d="M 5.967205,12.332793 C 5.889012,12.311513 5.7765116,12.263753 5.717205,12.22667 5.6578984,12.189587 4.7979259,11.346462 3.8061547,10.35306 2.4303943,8.9750378 1.9879334,8.5135394 1.9396535,8.40625 1.8306468,8.1640116 1.8663175,7.7542181 2.0088136,7.6117222 2.0320993,7.5884362 2.0854571,7.5291634 2.1273865,7.4800047 2.2497401,7.336555 2.484199,7.2382119 2.7026551,7.23871 3.0676273,7.2395412 3.0550161,7.22923 4.6952725,8.8681338 L 6.18742,10.359051 9.4765225,7.0731197 C 11.836774,4.7151434 12.804983,3.7675759 12.904994,3.7177394 c 0.206497,-0.1029 0.472782,-0.098044 0.699241,0.012752 0.390349,0.1909803 0.553053,0.5828281 0.429811,1.0351337 -0.04071,0.1493863 -0.2006,0.3145634 -3.639873,3.7601119 -3.2418911,3.247806 -3.6173664,3.614026 -3.800423,3.706747 -0.2416359,0.122391 -0.4329147,0.153015 -0.626545,0.100309 z"
       id="path823"
       inkscape:connector-curvature="0" />
    <path
       style="fill:#323232;stroke-width:0.03125"
       d="M 5.8157697,12.827646 C 5.7230369,12.801554 5.5811281,12.744264 5.5004169,12.700336 5.4011359,12.6463 4.7370653,12.002077 3.4473903,10.70867 1.2619262,8.5168819 1.3994226,8.6898338 1.3809545,8.109375 1.3668674,7.6666094 1.424421,7.49763 1.6955535,7.1857016 2.1129198,6.7055366 2.7629518,6.5847209 3.3525156,6.8777369 3.4391378,6.9207884 3.9480203,7.4058806 4.835825,8.2917009 L 6.1872747,9.6401303 9.35145,6.4814206 c 2.945586,-2.9404984 3.177411,-3.1644653 3.355771,-3.2420243 0.374849,-0.1630023 0.833187,-0.1386216 1.20572,0.064137 0.246477,0.1341497 0.504169,0.4331669 0.591366,0.6862019 0.102369,0.2970619 0.10231,0.6904656 -1.56e-4,0.9946403 l -0.07368,0.21875 -3.688412,3.6922331 -3.6884122,3.6922334 -0.2719972,0.12926 c -0.2345603,0.111469 -0.3081465,0.131254 -0.5346375,0.143747 -0.1797484,0.0099 -0.3158537,-4.84e-4 -0.4312456,-0.03295 z M 6.59375,12.232484 C 6.7768066,12.139763 7.1522819,11.773543 10.394173,8.5257369 13.833446,5.0801884 13.993341,4.9150112 14.034046,4.765625 14.157288,4.3133194 13.994584,3.9214716 13.604235,3.7304913 13.377776,3.6196956 13.111491,3.6148394 12.904994,3.7177394 12.804983,3.7675759 11.836774,4.7151434 9.4765225,7.0731197 L 6.18742,10.359051 4.6952725,8.8681338 C 3.0550161,7.2292297 3.0676273,7.2395422 2.7026551,7.23871 2.484199,7.2382131 2.2497401,7.336555 2.1273865,7.4800047 2.0854571,7.5291634 2.0320993,7.5884362 2.0088136,7.6117222 1.8663175,7.7542181 1.8306468,8.1640116 1.9396535,8.40625 c 0.04828,0.1072894 0.4907408,0.5687878 1.8665012,1.94681 0.9917712,0.993402 1.8517437,1.836527 1.9110503,1.87361 0.2718597,0.16999 0.5487878,0.171827 0.876545,0.0058 z"
       id="path821"
       inkscape:connector-curvature="0" />
    <path
       style="fill:#191919;stroke-width:0.03125"
       d="M 7.5771806,13.279933 C 7.3318519,13.247853 7.0468522,13.15128 6.7255337,12.991348 l -0.2588415,-0.128834 0.1927747,-0.08751 c 0.1060259,-0.04813 0.2036156,-0.08751 0.2168656,-0.08751 0.01325,0 0.1132928,0.03975 0.2223169,0.08834 C 7.3703053,12.896907 7.6484306,12.950935 8,12.950935 c 0.4030716,0 0.6461394,-0.05616 1.0157572,-0.234688 0.3310897,-0.159918 0.44503,-0.238914 0.6720531,-0.465937 0.2270231,-0.227023 0.3060184,-0.340963 0.4659367,-0.672053 0.1812,-0.375149 0.235669,-0.615321 0.233912,-1.031382 -0.0015,-0.349163 -0.04181,-0.5627541 -0.161014,-0.8527428 l -0.08077,-0.1964925 0.120906,-0.12382 c 0.0665,-0.068101 0.1286,-0.1238013 0.138003,-0.1237785 0.02314,6.25e-5 0.147369,0.2838085 0.225368,0.5147847 0.148985,0.4411831 0.146514,1.1614561 -0.0055,1.6101741 -0.08033,0.237067 -0.291144,0.670983 -0.358936,0.738775 -0.02582,0.02582 -0.04694,0.0583 -0.04694,0.07219 0,0.01389 -0.05625,0.08321 -0.125,0.154053 -0.06875,0.07084 -0.125,0.142851 -0.125,0.160019 0,0.01717 -0.014046,0.03121 -0.031214,0.03121 -0.017168,0 -0.089176,0.05625 -0.1600181,0.125 -0.070842,0.06875 -0.1401663,0.125 -0.1540534,0.125 -0.013887,0 -0.046373,0.02112 -0.072189,0.04694 -0.067627,0.06763 -0.5018431,0.278714 -0.7350438,0.357331 -0.3446203,0.116177 -0.8045828,0.151225 -1.2390506,0.09441 z M 5.5931328,9.0426137 C 5.4301909,8.8769887 5.3227137,8.7504569 5.3542944,8.7614312 c 0.031581,0.010975 0.1159556,0.027619 0.1875,0.036988 0.071544,0.00937 0.1692187,0.023143 0.217054,0.030608 0.067528,0.01054 0.105956,-0.00794 0.171875,-0.082648 C 5.9774194,8.6934575 6.0415281,8.6269191 6.0731875,8.5985163 6.1048469,8.5701134 6.1821906,8.5000737 6.2450625,8.4428722 6.54213,8.1725966 7.2877712,7.84375 7.6035384,7.84375 c 0.049044,0 0.084483,-0.010899 0.078753,-0.024221 C 7.6765625,7.8062075 7.6281559,7.7042544 7.5747216,7.5929666 7.3729725,7.1727841 7.2935203,6.7437872 7.3259978,6.25 7.3518831,5.8564394 7.4443647,5.5263603 7.6279525,5.1722819 L 7.7788306,4.8812897 7.6300325,4.7453322 C 7.3596709,4.4983025 7.2996447,4.4566116 6.984375,4.2968937 6.7992994,4.2031334 6.5826778,4.1203272 6.453125,4.0938172 6.1754772,4.0370031 5.63598,4.0415616 5.384215,4.1028491 5.2047084,4.1465462 4.7545872,4.33214 4.71875,4.3772328 4.71016,4.3880468 4.670372,4.4141508 4.63034,4.4352448 4.4346928,4.5383326 4.0383319,4.9346935 3.9352441,5.1303407 c -0.021093,0.040032 -0.047198,0.079816 -0.058012,0.08841 -0.010813,0.00859 -0.066352,0.1182094 -0.1234203,0.24359 -0.1786416,0.3924834 -0.2469072,0.8277966 -0.1948812,1.2427109 0.017194,0.1371254 0.041345,0.2771635 0.053669,0.3111963 0.021346,0.058947 0.018839,0.058714 -0.052909,-0.00491 C 3.5182675,6.9746069 3.4254959,6.9150078 3.3535328,6.8788966 3.2354831,6.8196594 3.2205625,6.7990494 3.2009247,6.6680956 3.1693372,6.4574541 3.2109741,5.9908897 3.2865944,5.7081244 3.4032303,5.2719891 3.7225794,4.7282756 4.0117394,4.4735163 c 0.032238,-0.028403 0.088488,-0.080115 0.125,-0.1149157 0.2263519,-0.2157434 0.7143144,-0.476389 1.071385,-0.5722812 0.462055,-0.124086 1.07803,-0.1188922 1.5106256,0.012737 0.2001481,0.060901 0.75,0.327594 0.75,0.3637706 0,0.01357 0.018578,0.024673 0.041284,0.024673 0.022706,0 0.1073284,0.063281 0.1880487,0.140625 0.08072,0.077344 0.1582038,0.140625 0.172185,0.140625 0.013981,0 0.044236,0.035156 0.067232,0.078125 C 7.9604963,4.5898438 7.9886213,4.625 8,4.625 8.011379,4.625 8.039504,4.589844 8.0625,4.546875 8.085496,4.503906 8.113912,4.46875 8.125646,4.46875 8.13738,4.46875 8.187738,4.429888 8.2375529,4.382388 8.4900545,4.1416259 8.9578926,3.8870887 9.3331245,3.786319 9.7951795,3.662233 10.411154,3.6674268 10.84375,3.799056 c 0.214507,0.06527 0.743075,0.3253222 0.762123,0.3749593 0.0078,0.020295 -0.03768,0.087524 -0.101047,0.1493972 L 11.389618,4.4359097 11.093247,4.2875272 C 10.927031,4.2043091 10.700808,4.1193625 10.578125,4.0941 10.300979,4.0370306 9.7614528,4.0414466 9.509215,4.1028491 9.3297084,4.1465463 8.8795872,4.33214 8.84375,4.3772328 8.83516,4.3880468 8.795372,4.4141518 8.75534,4.4352448 8.5596931,4.5383322 8.1633322,4.9346931 8.0602444,5.1303403 8.0391513,5.1703719 8.0130463,5.2101563 8.0022328,5.21875 7.95714,5.2545872 7.7715463,5.7047084 7.7278491,5.884215 7.6664466,6.1364528 7.6620306,6.6759794 7.7191,6.953125 7.7443778,7.0758816 7.829335,7.3020828 7.9127006,7.4685925 L 8.0612563,7.7653097 7.8526466,7.9755303 C 7.6696784,8.1599112 7.6227009,8.1903141 7.4704559,8.2228747 7.3094391,8.2573116 6.8167128,8.4568675 6.78125,8.5020056 6.77266,8.5129436 6.732872,8.5391516 6.69284,8.5602446 6.5850513,8.6170394 6.5042466,8.6840687 6.3129075,8.8754075 6.1118144,9.0765006 6.0406759,9.1638716 5.9932041,9.2680609 5.9742366,9.30969 5.9431191,9.34375 5.9240541,9.34375 5.9049894,9.34375 5.7560747,9.2082387 5.5931328,9.0426137 Z M 10.734375,8.908085 c 0.165608,-0.1683841 0.327114,-0.29661 0.478438,-0.37985 0.254259,-0.1398628 0.332283,-0.1984456 0.53713,-0.4032925 0.204846,-0.2048469 0.263429,-0.2828709 0.403292,-0.53713 0.08324,-0.1513237 0.211466,-0.31283 0.37985,-0.4784375 0.250294,-0.2461675 0.253852,-0.2483231 0.232056,-0.140625 -0.0583,0.2880934 -0.323051,0.9061247 -0.436952,1.020025 -0.02582,0.025817 -0.04694,0.058302 -0.04694,0.072189 0,0.013887 -0.05625,0.083211 -0.125,0.1540534 -0.06875,0.070842 -0.125,0.1428503 -0.125,0.1600181 0,0.017168 -0.01405,0.031214 -0.03121,0.031214 -0.01717,0 -0.08918,0.05625 -0.160019,0.125 -0.07084,0.06875 -0.140166,0.125 -0.154053,0.125 -0.01389,0 -0.04637,0.021123 -0.07219,0.046939 -0.1139,0.1139003 -0.731932,0.3786487 -1.020025,0.4369518 -0.107698,0.021796 -0.105543,0.018238 0.140625,-0.2320562 z"
       id="path819"
       inkscape:connector-curvature="0" />
  </g>
</svg>
