<?xml version="1.0" encoding="UTF-8" standalone="no"?>
<!-- Created with Inkscape (http://www.inkscape.org/) -->

<svg
   xmlns:dc="http://purl.org/dc/elements/1.1/"
   xmlns:cc="http://creativecommons.org/ns#"
   xmlns:rdf="http://www.w3.org/1999/02/22-rdf-syntax-ns#"
   xmlns:svg="http://www.w3.org/2000/svg"
   xmlns="http://www.w3.org/2000/svg"
   xmlns:sodipodi="http://sodipodi.sourceforge.net/DTD/sodipodi-0.dtd"
   xmlns:inkscape="http://www.inkscape.org/namespaces/inkscape"
   version="1.1"
   id="svg2"
   width="16"
   height="16"
   viewBox="0 0 16 16"
   sodipodi:docname="APPLYANIDELTA.svg"
   inkscape:version="0.92.4 (5da689c313, 2019-01-14)">
  <metadata
     id="metadata8">
    <rdf:RDF>
      <cc:Work
         rdf:about="">
        <dc:format>image/svg+xml</dc:format>
        <dc:type
           rdf:resource="http://purl.org/dc/dcmitype/StillImage" />
        <dc:title></dc:title>
      </cc:Work>
    </rdf:RDF>
  </metadata>
  <defs
     id="defs6" />
  <sodipodi:namedview
     pagecolor="#ffffff"
     bordercolor="#666666"
     borderopacity="1"
     objecttolerance="10"
     gridtolerance="10"
     guidetolerance="10"
     inkscape:pageopacity="0"
     inkscape:pageshadow="2"
     inkscape:window-width="828"
     inkscape:window-height="480"
     id="namedview4"
     showgrid="false"
     inkscape:zoom="14.75"
     inkscape:cx="8"
     inkscape:cy="8"
     inkscape:window-x="0"
     inkscape:window-y="0"
     inkscape:window-maximized="0"
     inkscape:current-layer="svg2" />
  <g
     id="APPLYANIDELTA">
    <path
       style="fill:#ffffff;stroke-width:0.03125"
       d="M 0,12.039119 V 8.0782375 l 1.0826217,1.0826216 1.0826217,1.0826219 -0.1373092,0.237901 c -0.07552,0.130846 -0.2689226,0.452235 -0.4297835,0.714197 -0.1608608,0.261963 -0.3577109,0.601089 -0.4374445,0.753614 -0.1291576,0.24707 -0.1461267,0.303312 -0.1555726,0.515625 -0.008407,0.188955 0.0039,0.276936 0.059438,0.424839 0.09378,0.249755 0.3248731,0.482431 0.5703817,0.574287 0.1766071,0.06608 0.2131049,0.06731 1.9991798,0.06731 H 5.4534216 L 6.6875,14.765625 7.9215784,16 H 3.9607891 0 Z m 9.34375,2.726506 1.234078,-1.234375 h 1.819289 c 1.786075,0 1.822573,-0.0012 1.99918,-0.06731 0.245508,-0.09186 0.476601,-0.324532 0.570381,-0.574287 0.05554,-0.147903 0.06785,-0.235884 0.05944,-0.424839 -0.0095,-0.212515 -0.02633,-0.268321 -0.15589,-0.515625 C 14.79032,11.796668 14.59347,11.457676 14.432783,11.195877 14.272096,10.934079 14.078836,10.61269 14.003316,10.481681 L 13.866007,10.243482 14.933004,9.1764853 16,8.1094891 V 12.054744 16 H 12.054836 8.1096716 Z M 0,3.96875 V 0 H 3.9765163 7.9530328 L 3.984375,3.96875 C 1.8016132,6.1515625 0.01218089,7.9375 0.00785864,7.9375 0.00353639,7.9375 0,6.1515625 0,3.96875 Z M 12.03125,3.953125 8.0782175,0 H 12.039109 16 v 3.953125 c 0,2.1742187 -0.0035,3.953125 -0.0079,3.953125 -0.0043,0 -1.786723,-1.7789063 -3.960891,-3.953125 z"
       id="path833"
       inkscape:connector-curvature="0" />
    <path
       style="fill:#e5d200;stroke-width:0.03125"
       d="M 4.328125,4.34375 C 6.3390075,2.3328125 7.9878131,0.6875 7.9921375,0.6875 7.9964619,0.6875 8,0.8703125 8,1.09375 V 1.5 H 7.9074222 C 7.7563791,1.5 7.4848562,1.6184859 7.3391534,1.7479786 7.2546794,1.8230543 7.0928116,2.05065 6.9120581,2.348499 6.4939703,3.0374335 6.2075103,3.5135916 6.0549128,3.7732591 5.9817422,3.8977703 5.7953125,4.2104475 5.640625,4.4680972 5.4859375,4.7257469 5.2117187,5.1831794 5.03125,5.4846137 4.8507812,5.7860481 4.5266712,6.3241522 4.3110053,6.6804006 4.0953397,7.0366491 3.8289947,7.4792969 3.7191275,7.6640625 L 3.5193691,8 H 2.0956721 0.67197516 Z M 5.9981428,7.8984375 C 6.0348719,7.8425781 6.0981447,7.7335937 6.1387488,7.65625 6.1793531,7.5789062 6.3440422,7.3014263 6.5047247,7.0396275 6.6654075,6.7778291 6.8567422,6.4614228 6.9299128,6.3365025 7.0554894,6.1221134 7.1548788,5.9564847 7.7366019,4.9921875 7.8688006,4.7730469 7.9821469,4.59375 7.9884819,4.59375 7.9948169,4.59375 8,5.3601562 8,6.296875 V 8 H 6.9656812 5.9313625 Z"
       id="path831"
       inkscape:connector-curvature="0" />
    <path
       style="fill:#fea900;stroke-width:0.03125"
       d="M 7.078125,14.4375 6.1722791,13.53125 H 7.0861397 8 v 0.90625 c 0,0.498438 -0.00361,0.90625 -0.00801,0.90625 -0.00441,0 -0.415645,-0.407812 -0.9138603,-0.90625 z M 4.0527216,11.412353 c -0.046184,-0.04821 -0.083972,-0.09882 -0.083972,-0.112478 0,-0.01366 0.047413,-0.104293 0.1053619,-0.201415 C 4.2276691,10.841101 4.7889569,9.9047706 4.985485,9.578125 5.0785534,9.4234375 5.2359084,9.1596916 5.3351628,8.9920231 5.4344169,8.8243547 5.6083119,8.5360734 5.7215956,8.3513981 L 5.9275662,8.015625 6.9635209,8.0073916 7.9994756,7.9991581 8.0075503,6.2664969 8.015625,4.5338356 8.25,4.9143325 C 8.3789063,5.1236056 8.5274956,5.3726331 8.5801988,5.4677272 8.6329019,5.5628209 8.8081825,5.8585937 8.9697113,6.125 9.2390216,6.5691681 9.7344897,7.3918522 9.9860219,7.8125 L 10.088797,7.984375 9.0443984,7.9926031 8,8.0008312 V 9.7504156 11.5 H 6.0683466 4.1366931 Z M 1.53125,8.890625 0.64103622,8 H 2.0705181 C 2.8567332,8 3.5,8.0066525 3.5,8.0147831 3.5,8.0307797 3.3966294,8.2047125 2.9144731,9 2.7425396,9.2835938 2.5716297,9.5753906 2.5346733,9.6484375 2.4977168,9.7214844 2.4571262,9.78125 2.4444718,9.78125 2.4318174,9.78125 2.0208676,9.3804688 1.53125,8.890625 Z M 12.348783,7.7265625 C 12.007671,7.1629341 11.74633,6.7273503 11.617413,6.50757 11.544242,6.3828272 11.365893,6.0875147 11.221083,5.85132 11.076272,5.6151253 10.906376,5.3304687 10.843535,5.21875 10.780695,5.1070313 10.597265,4.7976562 10.435914,4.53125 10.274562,4.2648437 9.998945,3.8078125 9.8234306,3.515625 8.9495378,2.0608114 8.8241725,1.86491 8.6920966,1.7477501 8.540685,1.6134381 8.2733356,1.5 8.1082028,1.5 H 8 V 1.0703624 0.64072475 L 11.671875,4.3125 C 13.691406,6.3319763 15.34375,7.9878134 15.34375,7.9921375 15.34375,7.9964619 14.707117,8 13.929009,8 h -1.41474 z"
       id="path829"
       inkscape:connector-curvature="0" />
    <path
       style="fill:#19fd00;stroke-width:0.03125"
       d="M 5.15625,12.515625 4.6413353,12 H 6.3206678 8 v 0.515625 0.515625 H 6.8355822 5.6711647 Z m -1.9753081,-1.97644 -0.3652002,-0.36731 0.057529,-0.07813 C 2.9049119,10.050781 2.9635332,9.9523438 3.0035404,9.875 3.0435476,9.7976562 3.2110859,9.5160556 3.3758481,9.2492206 3.5406103,8.9823856 3.6835475,8.7433231 3.6934866,8.7179706 3.7034253,8.6926181 3.8538006,8.4421262 4.0276537,8.1613219 4.2015066,7.8805178 4.34375,7.6436781 4.34375,7.6350116 4.34375,7.626345 4.5144906,7.3428125 4.7231737,7.0049397 4.9318569,6.6670666 5.1409088,6.3203125 5.1877334,6.234375 5.2345584,6.1484375 5.3915872,5.8878787 5.5366866,5.6553553 5.6817862,5.4228319 5.8088012,5.2109634 5.8189422,5.1845362 5.8290834,5.1581091 5.9653762,4.9297266 6.1218153,4.6770194 6.2782544,4.4243125 6.40625,4.2095487 6.40625,4.1997672 c 0,-0.00978 0.1450872,-0.2520906 0.3224159,-0.5384638 C 6.9059947,3.3749303 7.0591191,3.1195313 7.0689419,3.09375 7.0787647,3.0679688 7.1855116,2.8883201 7.3061569,2.6945308 7.5012675,2.3811304 7.5237469,2.3553489 7.5095394,2.4612733 7.4929431,2.5850098 7.5208528,2.6660141 7.6792475,2.9538288 7.7951256,3.1643872 8.0018238,3.5 8.015625,3.5 8.0294263,3.5 8.2361244,3.1643872 8.3520025,2.9538288 8.5107291,2.6654114 8.5383222,2.5851229 8.5215903,2.4603763 8.5076366,2.3563435 8.5400325,2.3964848 8.7652744,2.7623219 8.9081519,2.9943831 9.0449978,3.2236541 9.0693766,3.2718131 9.0937553,3.3199722 9.2498372,3.5796856 9.4162256,3.8489541 9.5826141,4.1182225 9.71875,4.345505 9.71875,4.3540262 c 0,0.00852 0.1422434,0.2452416 0.316096,0.5260457 0.173853,0.2808043 0.324147,0.5316468 0.333987,0.5574281 0.0098,0.025781 0.162909,0.2807669 0.340154,0.5666344 0.177245,0.2858678 0.322263,0.5281347 0.322263,0.5383712 0,0.010237 0.147656,0.2563303 0.328125,0.546875 0.180469,0.2905447 0.328125,0.5376253 0.328125,0.5490675 0,0.011442 0.04904,0.097473 0.108987,0.1911782 L 11.905474,8 H 11.303967 10.702461 L 10.546543,7.7430375 C 10.460788,7.6017081 10.368612,7.443505 10.341707,7.391475 10.314802,7.339445 10.156599,7.0765644 9.9901447,6.8072959 9.82369,6.5380275 9.6875,6.310745 9.6875,6.3022237 9.6875,6.2937028 9.5452566,6.0569822 9.3714038,5.7761781 9.1975506,5.4953737 9.0472569,5.2445312 9.0374172,5.21875 9.0275775,5.1929687 8.8745084,4.9379831 8.6972634,4.6521156 8.5200184,4.3662478 8.375,4.1238334 8.375,4.1134172 8.375,4.0911812 8.0293513,3.53125 8.015625,3.53125 c -0.013367,0 -0.359375,0.5596287 -0.359375,0.5812481 0,0.00991 -0.1476563,0.2559107 -0.328125,0.546666 C 7.1476562,4.9499197 7,5.1964269 7,5.2069581 7,5.2174897 6.8523437,5.4638247 6.671875,5.7543694 6.4914062,6.0449141 6.34375,6.2910078 6.34375,6.3012444 c 0,0.010237 -0.1476563,0.2563303 -0.328125,0.546875 C 5.8351562,7.1386641 5.6875,7.3847578 5.6875,7.3949944 c 0,0.010237 -0.1476563,0.2563303 -0.328125,0.546875 -0.1804688,0.2905447 -0.328125,0.5366384 -0.328125,0.546875 0,0.010236 -0.1476563,0.2563303 -0.328125,0.546875 C 4.5226562,9.3261641 4.375,9.5717766 4.375,9.5814247 c 0,0.00965 -0.1347553,0.2361319 -0.2994563,0.5032973 -0.1647006,0.267165 -0.3379025,0.556929 -0.3848925,0.643918 -0.04699,0.08699 -0.098728,0.162594 -0.1149731,0.168009 -0.016245,0.0054 -0.1938762,-0.155444 -0.3947362,-0.357464 z M 7.6331697,2.1786156 C 7.6527372,2.1199137 7.9094987,2 8.015625,2 c 0.1061263,0 0.3628878,0.1199137 0.3824553,0.1786156 0.00646,0.019369 -0.041256,0.0082 -0.1060284,-0.024825 C 8.2216875,2.1179173 8.1104222,2.09375 8.015625,2.09375 c -0.094797,0 -0.2060625,0.024167 -0.2764269,0.060041 -0.064772,0.033023 -0.1124847,0.044194 -0.1060284,0.024825 z"
       id="path827"
       inkscape:connector-curvature="0" />
    <path
       style="fill:#04fd01;stroke-width:0.03125"
       d="M 1.7800007,12.959289 C 1.625589,12.877634 1.5,12.67852 1.5,12.515364 c 0,-0.05489 0.037318,-0.168696 0.082929,-0.252897 0.045611,-0.0842 0.1046325,-0.195279 0.1311591,-0.246842 0.026527,-0.05156 0.1860838,-0.315462 0.3545712,-0.586444 C 2.2371466,11.1582 2.375,10.928148 2.375,10.917956 c 0,-0.01019 0.1003441,-0.180251 0.2229869,-0.377909 l 0.222987,-0.359379 0.3753014,0.375301 0.3753013,0.375302 -0.2266957,0.368083 C 3.2201981,11.5018 3.0777025,11.742264 3.0282237,11.833719 L 2.9382622,12 H 3.7897988 4.6413353 L 5.15625,12.515625 5.6711647,13.03125 H 3.7936225 1.9160802 Z M 8,12.515625 V 12 h 2.545894 c 2.411582,0 2.544821,-0.0029 2.525541,-0.05469 -0.01119,-0.03008 -0.16544,-0.288993 -0.342769,-0.575366 -0.177329,-0.286374 -0.322416,-0.528682 -0.322416,-0.538464 0,-0.0098 -0.127996,-0.224546 -0.284435,-0.477252 C 11.965376,10.101523 11.829272,9.8736322 11.819361,9.8478053 11.80945,9.8219784 11.662036,9.5765147 11.491773,9.3023306 11.321511,9.0281462 11.173591,8.7811588 11.163062,8.7534694 11.152533,8.72578 11.064496,8.5765625 10.967423,8.421875 10.870351,8.2671875 10.774193,8.1089844 10.75374,8.0703125 L 10.716551,8 h 0.592732 0.592732 l 0.220868,0.3559625 c 0.121477,0.1957797 0.220867,0.3642184 0.220867,0.3743088 0,0.01009 0.147656,0.2560646 0.328125,0.5466093 C 12.852344,9.5674253 13,9.8137603 13,9.8242919 c 0,0.010531 0.147656,0.2570381 0.328125,0.5477941 0.180469,0.290755 0.328125,0.536649 0.328125,0.546431 0,0.0098 0.129077,0.225476 0.286838,0.479322 0.447285,0.719703 0.588162,0.987374 0.588162,1.117525 0,0.163156 -0.125589,0.36227 -0.280001,0.443925 L 14.11517,13.03125 H 11.057585 8 Z M 7.8603812,3.2578125 C 7.708055,3.0052827 7.6943416,2.9811973 7.5737256,2.7543502 7.4391941,2.5013312 7.4980362,2.2706596 7.7251575,2.1607122 8.0034934,2.025972 8.3969753,2.1141284 8.4878341,2.3315835 8.5662803,2.5193316 8.5518397,2.5847526 8.3503775,2.9543171 8.280555,3.0824006 8.0243759,3.5 8.015625,3.5 8.0105894,3.5 7.9407297,3.3910156 7.8603812,3.2578125 Z"
       id="path825"
       inkscape:connector-curvature="0" />
    <path
       style="fill:#996800;stroke-width:0.03125"
       d="M 8,14.453125 V 13.53125 h 0.9294888 0.929489 L 8.9375,14.453125 C 8.4306872,14.960156 8.0124172,15.375 8.0080112,15.375 8.003605,15.375 8,14.960156 8,14.453125 Z M 8,9.7495844 V 7.9991688 l 1.0526644,0.00823 1.0526646,0.00823 0.298898,0.4915166 c 0.164394,0.270334 0.446554,0.7382175 0.627023,1.0397406 0.180469,0.3015228 0.444089,0.739213 0.585823,0.972644 0.141733,0.233431 0.302136,0.507795 0.35645,0.609698 l 0.09875,0.185278 -0.08886,0.09275 L 11.894557,11.5 H 9.9472784 8 Z M 13.488303,9.6328125 C 13.446916,9.5511719 13.281445,9.2700419 13.120589,9.0080791 12.839723,8.5506719 12.558319,8.0770025 12.536458,8.0248506 12.530729,8.0111828 13.17048,8 13.958128,8 h 1.432086 L 14.5,8.890625 c -0.489617,0.4898438 -0.900616,0.890625 -0.91333,0.890625 -0.01272,0 -0.05698,-0.066797 -0.09837,-0.1484375 z"
       id="path823"
       inkscape:connector-curvature="0" />
    <path
       style="fill:#006500;stroke-width:0.03125"
       d="M 1.6260785,13.462426 C 1.3895892,13.371639 1.1561314,13.133499 1.0645716,12.889657 1.0090361,12.741754 0.99672687,12.653773 1.0051336,12.464818 1.0145795,12.252505 1.0315486,12.196263 1.1607062,11.949193 1.2404398,11.796668 1.4372899,11.457371 1.5981507,11.195199 1.7590116,10.933027 1.971833,10.581464 2.0710872,10.413949 2.1703414,10.246433 2.3277894,9.9828125 2.4209716,9.828125 2.5141538,9.6734375 2.7352896,9.3047644 2.9123844,9.0088516 3.3543081,8.2704284 3.8277578,7.4824044 4.2976791,6.703125 4.828595,5.8226969 5.3011544,5.0358091 5.634605,4.4769262 5.8982344,4.0350684 5.98265,3.8939278 6.4244959,3.15625 7.0609937,2.0935943 7.2121672,1.8608367 7.3391534,1.7479786 c 0.371926,-0.3305473 0.9804547,-0.33065 1.3529432,-2.281e-4 0.1470937,0.1304816 0.2810365,0.345034 1.8017644,2.8861014 0.177092,0.2959128 0.393617,0.6575547 0.481167,0.8036484 0.08755,0.1460938 0.247664,0.4132813 0.35581,0.59375 0.108145,0.1804688 0.332026,0.553125 0.497514,0.828125 0.165487,0.275 0.372316,0.6195313 0.459621,0.765625 0.365555,0.6117104 0.597701,0.9982113 1.370201,2.28125 0.119007,0.1976567 0.276242,0.4615827 0.349413,0.5865027 0.07317,0.12492 0.264509,0.441326 0.425196,0.703125 0.160687,0.261799 0.357537,0.60079 0.437445,0.753315 0.129562,0.247304 0.146434,0.303111 0.155889,0.515625 0.0084,0.188956 -0.0039,0.276937 -0.05944,0.424839 -0.09378,0.249756 -0.324873,0.482431 -0.570381,0.574287 l -0.179892,0.06731 -6.2097647,-0.0016 -6.2097653,-0.0016 z M 14.251249,12.959289 c 0.154412,-0.08165 0.280001,-0.280769 0.280001,-0.443925 0,-0.130151 -0.140877,-0.397822 -0.588162,-1.117525 -0.157761,-0.253846 -0.286838,-0.46954 -0.286838,-0.479322 0,-0.0098 -0.147656,-0.255676 -0.328125,-0.546431 C 13.147656,10.08133 13,9.8348231 13,9.8242919 13,9.8137603 12.852344,9.5674253 12.671875,9.2768806 12.491406,8.9863359 12.34375,8.7402422 12.34375,8.7300056 c 0,-0.010236 -0.147656,-0.2563303 -0.328125,-0.546875 C 11.835156,7.8925859 11.6875,7.6464922 11.6875,7.6362556 c 0,-0.010237 -0.147656,-0.2563303 -0.328125,-0.546875 -0.180469,-0.2905447 -0.328125,-0.5366384 -0.328125,-0.546875 0,-0.010237 -0.147656,-0.2563303 -0.328125,-0.546875 C 10.522656,5.7050859 10.375,5.4594734 10.375,5.4498253 10.375,5.4401772 10.238864,5.2119725 10.072476,4.9427041 9.9060872,4.6734356 9.7492516,4.4122116 9.7239519,4.3622059 9.6986519,4.3122006 9.5421944,4.0516934 9.3762684,3.7833016 9.2103422,3.5149097 9.0664528,3.2745731 9.0565137,3.2492206 9.046575,3.2238681 8.8904681,2.9640625 8.70961,2.671875 8.4247294,2.2116338 8.3630256,2.1312268 8.2479731,2.0703125 8.08288,1.9829043 7.9642181,1.9814905 7.7919597,2.0648794 7.6739506,2.1220066 7.6223634,2.1869998 7.3602184,2.6088173 7.1964731,2.8722994 7.0625,3.0961588 7.0625,3.1062827 7.0625,3.1164066 6.9148437,3.3625803 6.734375,3.6533359 6.5539062,3.9440912 6.40625,4.1899853 6.40625,4.1997672 c 0,0.00978 -0.1279956,0.2245453 -0.2844347,0.4772522 C 5.9653762,4.9297266 5.8290834,5.1581091 5.8189422,5.1845363 5.8088012,5.2109634 5.6817862,5.4228319 5.5366866,5.6553553 5.3915872,5.8878788 5.2345584,6.1484375 5.1877334,6.234375 5.1409088,6.3203125 4.9318569,6.6670666 4.7231738,7.0049397 4.5144906,7.3428125 4.34375,7.626345 4.34375,7.6350116 c 0,0.00867 -0.1384769,0.239749 -0.3077263,0.5135165 C 3.8667747,8.4222956 3.7075981,8.6872006 3.6822981,8.7372059 3.6569984,8.7872116 3.5001628,9.0484356 3.3337744,9.3177041 3.1673859,9.5869725 3.03125,9.8151772 3.03125,9.8248253 c 0,0.00965 -0.1476562,0.2552607 -0.328125,0.5458057 C 2.5226562,10.661175 2.375,10.907353 2.375,10.917691 c 0,0.01034 -0.1378534,0.240509 -0.3063409,0.51149 -0.1684874,0.270982 -0.3280445,0.534882 -0.3545712,0.586444 -0.026527,0.05156 -0.085548,0.162641 -0.1311591,0.246842 C 1.537318,12.346668 1.5,12.460471 1.5,12.515364 c 0,0.163156 0.125589,0.36227 0.2800007,0.443925 l 0.1360795,0.07196 H 8.015625 14.11517 Z M 3.0293946,11.831555 C 3.0795174,11.73891 3.2551272,11.444771 3.4196384,11.177913 3.5841497,10.911055 3.71875,10.685745 3.71875,10.677224 c 0,-0.0085 0.1422434,-0.245242 0.3160962,-0.526046 C 4.2086994,9.8703737 4.3589931,9.6195313 4.3688328,9.59375 4.3786725,9.5679688 4.5317416,9.3129831 4.7089866,9.0271156 4.8862316,8.7412478 5.03125,8.4989809 5.03125,8.4887444 c 0,-0.010237 0.1476562,-0.2563303 0.328125,-0.546875 C 5.5398437,7.6513247 5.6875,7.4052309 5.6875,7.3949944 c 0,-0.010237 0.1476562,-0.2563303 0.328125,-0.546875 0.1804687,-0.2905447 0.328125,-0.5366385 0.328125,-0.546875 0,-0.010237 0.1476562,-0.2563303 0.328125,-0.546875 C 6.8523437,5.4638247 7,5.2174897 7,5.2069581 7,5.1964269 7.1476562,4.9499197 7.328125,4.6591641 7.5085937,4.3684088 7.65625,4.1224091 7.65625,4.1124981 c 0,-0.021619 0.3460081,-0.5812481 0.359375,-0.5812481 0.013726,0 0.359375,0.5599312 0.359375,0.5821672 0,0.010416 0.1476563,0.2566575 0.328125,0.5472022 0.1804687,0.2905447 0.328125,0.5361572 0.328125,0.5458053 0,0.00965 0.1361359,0.2378528 0.3025244,0.5071212 0.1663884,0.2692685 0.323224,0.5304925 0.3485237,0.5804982 0.0253,0.050005 0.1844766,0.3149103 0.3537259,0.5886778 0.169249,0.2737675 0.307726,0.50485 0.307726,0.5135165 0,0.00867 0.170741,0.2921991 0.379424,0.6300719 0.208683,0.3378731 0.417735,0.6846272 0.464559,0.7705647 0.04683,0.085937 0.203854,0.3464963 0.348954,0.5790197 0.145099,0.2325234 0.272114,0.4443919 0.282255,0.4708191 0.01014,0.026427 0.146434,0.2548092 0.302873,0.5075172 0.156439,0.252707 0.284435,0.46747 0.284435,0.477252 0,0.0098 0.145087,0.25209 0.322416,0.538464 0.177329,0.286373 0.331575,0.545287 0.342769,0.575366 C 13.090767,11.997255 12.836958,12 8.0150253,12 H 2.9382622 Z m 9.0935504,-0.448742 c -0.0389,-0.06445 -0.122348,-0.208594 -0.185439,-0.320313 -0.06309,-0.111719 -0.229361,-0.392969 -0.369487,-0.625 C 11.427893,10.205469 11.175967,9.7869341 11.008184,9.5074228 10.840402,9.2279116 10.520312,8.6967091 10.296875,8.3269725 10.073438,7.9572362 9.7537816,7.4265522 9.5865287,7.1476747 9.4192756,6.8687975 9.1461019,6.415625 8.9794756,6.140625 8.8128494,5.865625 8.6332862,5.5628209 8.5804469,5.4677272 8.5276072,5.3726331 8.3790669,5.1238734 8.2503569,4.9149278 L 8.0163391,4.5350269 7.9247134,4.6815759 C 7.8743191,4.7621778 7.7450387,4.9757812 7.6374231,5.15625 7.5298075,5.3367187 7.3063553,5.709375 7.1408622,5.984375 6.8282481,6.5038463 6.5594988,6.9518856 6.2879734,7.40625 6.2006684,7.5523438 5.9938388,7.896875 5.8283516,8.171875 5.5391675,8.6524297 5.3157984,9.0247144 4.9752344,9.59375 4.8877981,9.7398438 4.6729434,10.098437 4.4977791,10.390625 4.1734863,10.93157 3.8747522,11.434252 3.8524278,11.476563 3.8456263,11.489453 5.7196241,11.5 8.0168675,11.5 h 4.1768055 z"
       id="path821"
       inkscape:connector-curvature="0" />
    <path
       style="fill:#191919;stroke-width:0.03125"
       d="M 6.6875,14.765625 5.4534216,13.53125 h 0.3594253 0.3594253 l 0.9214809,0.921878 0.921481,0.921879 0.9222628,-0.921879 0.9222625,-0.921878 h 0.3590346 0.359034 L 9.34375,14.765625 C 8.2658237,15.84381 8.0977716,16 8.015625,16 7.9334784,16 7.7654262,15.84381 6.6875,14.765625 Z m -2.7951191,-3.362771 0.050236,-0.09714 0.091191,0.08737 c 0.050155,0.04805 0.091192,0.09177 0.091192,0.09715 0,0.0054 -0.063643,0.0098 -0.1414275,0.0098 H 3.842145 Z m 8.0138691,0.08737 c 0,-0.0054 0.04104,-0.04909 0.09119,-0.09715 l 0.09119,-0.08737 0.05024,0.09714 0.05024,0.09715 h -0.141427 c -0.07778,0 -0.141428,-0.0044 -0.141428,-0.0098 z M 1.0837447,9.1618716 C 0.38463828,8.4625509 0,8.0556875 0,8.0155056 0,7.9290634 7.9291819,0 8.0156253,0 8.0570859,0 9.4154316,1.3372452 12.039109,3.9609834 15.54137,7.4633266 16,7.9328366 16,8.0158409 16,8.0975191 15.860928,8.2487434 14.929523,9.1798541 L 13.859047,10.249993 13.724148,10.025753 13.589248,9.8015131 14.482133,8.9086278 15.375018,8.0157425 11.695371,4.3359959 8.0157241,0.65624978 4.3360616,4.3358131 0.65639897,8.0153766 1.549787,8.9091634 2.443175,9.80295 2.3053322,10.024449 2.1674894,10.245948 Z"
       id="path819"
       inkscape:connector-curvature="0" />
  </g>
</svg>
