<?xml version="1.0" encoding="UTF-8" standalone="no"?>
<!-- Created with Inkscape (http://www.inkscape.org/) -->

<svg
   xmlns:dc="http://purl.org/dc/elements/1.1/"
   xmlns:cc="http://creativecommons.org/ns#"
   xmlns:rdf="http://www.w3.org/1999/02/22-rdf-syntax-ns#"
   xmlns:svg="http://www.w3.org/2000/svg"
   xmlns="http://www.w3.org/2000/svg"
   xmlns:sodipodi="http://sodipodi.sourceforge.net/DTD/sodipodi-0.dtd"
   xmlns:inkscape="http://www.inkscape.org/namespaces/inkscape"
   version="1.1"
   id="svg2"
   width="16"
   height="16"
   viewBox="0 0 16 16"
   sodipodi:docname="APPLYMOVEDELTA.svg"
   inkscape:version="0.92.4 (5da689c313, 2019-01-14)">
  <metadata
     id="metadata8">
    <rdf:RDF>
      <cc:Work
         rdf:about="">
        <dc:format>image/svg+xml</dc:format>
        <dc:type
           rdf:resource="http://purl.org/dc/dcmitype/StillImage" />
        <dc:title />
      </cc:Work>
    </rdf:RDF>
  </metadata>
  <defs
     id="defs6" />
  <sodipodi:namedview
     pagecolor="#ffffff"
     bordercolor="#666666"
     borderopacity="1"
     objecttolerance="10"
     gridtolerance="10"
     guidetolerance="10"
     inkscape:pageopacity="0"
     inkscape:pageshadow="2"
     inkscape:window-width="1120"
     inkscape:window-height="811"
     id="namedview4"
     showgrid="false"
     inkscape:zoom="14.75"
     inkscape:cx="-6.8135593"
     inkscape:cy="8"
     inkscape:window-x="0"
     inkscape:window-y="0"
     inkscape:window-maximized="0"
     inkscape:current-layer="svg2" />
  <g
     id="APPLYMOVEDELTA">
    <path
       style="fill:#ffffff;stroke-width:0.03125"
       d="M 0,8 V 0 h 8 8 v 8 8 H 8 0 Z m 15.304052,6.448516 c 0.04549,-0.03396 0.111705,-0.100571 0.147142,-0.148015 0.06046,-0.08094 0.06442,-0.128024 0.0642,-0.763694 L 15.515162,12.859375 15.010207,10.375 C 14.732481,9.0085937 14.489071,7.8484375 14.469294,7.796875 14.368572,7.5342666 14.061774,7.4006622 13.791097,7.5015341 13.742712,7.5195653 13.497508,7.7390722 13.246198,7.9893272 L 12.78927,8.4443366 12.486271,7.9487306 C 12.123041,7.3546091 11.79867,6.8165797 11.617413,6.50757 11.544242,6.3828272 11.365893,6.0875147 11.221083,5.85132 11.076272,5.6151253 10.906376,5.3304687 10.843535,5.21875 10.780695,5.1070313 10.597265,4.7976562 10.435914,4.53125 10.274562,4.2648437 9.998945,3.8078125 9.8234306,3.515625 8.9495378,2.0608114 8.8241725,1.86491 8.6920966,1.7477501 8.3255816,1.4226273 7.7228159,1.4171586 7.3508109,1.735581 7.2412153,1.8293908 6.7707528,2.5375663 6.58348,2.890625 6.536267,2.979635 6.533689,2.957222 6.532501,2.4473469 6.531801,2.1472362 6.516586,1.8715087 6.498012,1.8223469 6.4462956,1.6854683 6.3159775,1.5685263 6.1590163,1.5181465 6.0801509,1.4928332 4.9117188,1.2519518 3.5625,0.98285456 0.97449603,0.46668556 0.89720753,0.45580353 0.72616553,0.58350481 0.52145175,0.73634572 0.51651241,0.75624703 0.50606362,1.4703247 l -0.009561,0.6534325 0.48781003,2.445934 C 1.2526078,5.9149547 1.4928332,7.0801509 1.5181465,7.1590163 1.6136518,7.4565691 1.9187562,7.6065172 2.2089031,7.4984991 2.2572877,7.4804862 2.5737399,7.18969 2.9121303,6.852285 l 0.6152553,-0.6134631 0.1217991,0.084407 c 0.066989,0.046424 0.1977284,0.1492191 0.2905309,0.2284338 0.092802,0.079215 0.199736,0.1643416 0.23763,0.1891706 l 0.068898,0.045144 -0.1909715,0.317949 C 3.9502381,7.2787978 3.7225675,7.6577797 3.5493378,7.9461075 3.3761084,8.2344356 3.0894793,8.7125606 2.9123844,9.0086075 2.7352896,9.3046547 2.5141538,9.6734375 2.4209716,9.828125 c -0.093182,0.1546875 -0.2506302,0.418308 -0.3498844,0.585824 -0.099254,0.167515 -0.3120756,0.519078 -0.4729365,0.78125 -0.1608608,0.262172 -0.3577109,0.601469 -0.4374445,0.753994 -0.1291576,0.24707 -0.1461267,0.303312 -0.1555726,0.515625 -0.008407,0.188955 0.0039,0.276936 0.059438,0.424839 0.09378,0.249755 0.3248731,0.48243 0.5703817,0.574287 l 0.1798912,0.06731 h 4.1009621 4.1009614 l 2.418191,0.483867 c 1.330005,0.266126 2.426623,0.492483 2.436929,0.503015 0.03978,0.04065 0.351787,-0.0096 0.432164,-0.06962 z M 3.8524278,11.476563 C 3.8747522,11.434252 4.1734862,10.93157 4.4977791,10.390625 4.6729434,10.098437 4.8877981,9.7398438 4.9752344,9.59375 5.3780566,8.9206903 5.541075,8.6492075 5.7192656,8.3546772 L 5.9111703,8.0374794 6.1196475,8.1895356 c 0.1146628,0.083631 0.250665,0.1856466 0.3022275,0.2267016 0.051563,0.041055 0.3960938,0.2964572 0.765625,0.5675609 0.3695312,0.2711035 0.7140625,0.5320138 0.765625,0.5798 0.051562,0.047787 0.1809147,0.1479478 0.2874494,0.2225807 0.4068909,0.2850472 1.6234034,1.1947102 1.7207162,1.2866882 L 10.063206,11.169195 9.8998581,11.334598 9.73651,11.5 H 6.7882856 C 5.1667625,11.5 3.8456262,11.48945 3.8524278,11.47656 Z M 8.53125,5.8114878 C 8.2820312,5.6230997 7.9973475,5.4068334 7.8986197,5.3308969 7.7998919,5.25496 7.7014544,5.1863178 7.6798697,5.1783584 7.6371594,5.1626094 7.6898025,5.0533919 7.9014356,4.7186806 L 8.0169384,4.5360063 8.2506566,4.9154175 C 8.3792019,5.1240941 8.5271875,5.3726331 8.5795138,5.4677272 8.63184,5.5628209 8.747165,5.7566406 8.8357913,5.8984375 8.9244172,6.0402344 8.994105,6.1557466 8.9906522,6.1551312 8.9871997,6.1545156 8.7804688,5.9998762 8.53125,5.8114878 Z M 5.9375,3.8495966 c 0,-0.013972 0.044008,-0.066706 0.097795,-0.1171875 L 6.1330897,3.640625 6.0587325,3.7574256 C 5.9885953,3.8675972 5.9375,3.9064441 5.9375,3.8495966 Z"
       id="path833"
       inkscape:connector-curvature="0" />
    <path
       style="fill:#cbfefe;stroke-width:0.03125"
       d="m 14.9375,12.970594 c 0,-0.01617 0.01406,-0.0381 0.03125,-0.04872 C 14.985938,12.911253 15,12.924484 15,12.951281 15,12.978076 14.985938,13 14.96875,13 14.95156,13 14.9375,12.98677 14.9375,12.97059 Z m -0.50556,-1.770118 c -0.147259,-0.239168 -0.289282,-0.477039 -0.315607,-0.528601 -0.02632,-0.05156 -0.179285,-0.308368 -0.339911,-0.57068 C 13.615796,9.8388837 13.387689,9.4611341 13.269517,9.2617509 L 13.054658,8.8992366 13.51802,8.4351009 c 0.254849,-0.2552746 0.467757,-0.45974 0.47313,-0.4543678 0.01891,0.018905 0.727672,3.5971749 0.718163,3.6257039 -0.0053,0.01589 -0.130115,-0.166793 -0.277373,-0.405961 z M 10.943425,11.007813 11.432992,10.515625 11.073893,10.25 C 10.876389,10.103906 10.627794,9.9233119 10.52146,9.8486788 10.415126,9.7740459 10.285937,9.6738453 10.234375,9.6260109 10.141483,9.5398347 8.8945691,8.6098053 8.5218244,8.3486788 8.4152897,8.2740459 8.2859375,8.1738847 8.234375,8.1260981 8.1828125,8.0783119 7.8382812,7.8174269 7.46875,7.5463544 7.0992188,7.2752816 6.7534128,7.0157306 6.7002925,6.9695744 L 6.6037097,6.8856544 6.7217875,6.6850147 C 7.1151066,6.0166791 7.3641028,5.6257087 7.396635,5.6253784 c 0.020493,-2.187e-4 0.1259616,0.068928 0.234375,0.153635 0.2864756,0.2238341 1.6587406,1.2510738 1.8227431,1.364455 0.2153275,0.1488647 0.2610485,0.1986872 0.3837919,0.4182232 0.062711,0.1121634 0.283121,0.4814287 0.4898,0.8205893 0.206679,0.3391607 0.513057,0.8454107 0.680839,1.125 0.167783,0.2795894 0.419709,0.6981881 0.559835,0.9302191 0.140126,0.232031 0.306395,0.513281 0.369487,0.625 0.06309,0.111719 0.146539,0.255859 0.185439,0.320313 L 12.193673,11.5 H 11.323766 10.453858 Z M 2,6.0304519 C 2,6.0216878 1.7751538,4.8907844 1.5003418,3.5173334 1.2255298,2.1438823 1.0050635,1.0157698 1.0104167,1.0104167 1.0157698,1.0050635 2.1438823,1.2255298 3.5173334,1.5003418 4.8907844,1.7751538 6.0216878,2 6.0304519,2 6.0392159,2 5.7123578,2.3342464 5.3041006,2.7427698 L 4.5618144,3.4855397 4.9382591,3.7662072 c 0.2070443,0.1543672 0.4362371,0.3228553 0.5093168,0.3744178 0.07308,0.051563 0.1648685,0.1167828 0.2039744,0.1449337 L 5.7226523,4.3367427 5.554221,4.6136836 C 5.4615837,4.7660016 5.2831334,5.0626537 5.1576644,5.2729109 L 4.9295391,5.6551966 4.8045856,5.5541609 C 4.7358609,5.4985912 4.6005428,5.3993066 4.5038784,5.3335287 4.4072141,5.2677509 4.2859375,5.1745294 4.234375,5.1263697 4.1828125,5.07821 3.9933203,4.9313941 3.8132813,4.8001116 L 3.4859375,4.5614169 2.7429687,5.3039016 C 2.3343359,5.7122684 2,6.0392159 2,6.0304519 Z"
       id="path831"
       inkscape:connector-curvature="0" />
    <path
       style="fill:#989898;stroke-width:0.03125"
       d="m 14.96875,14.007429 c -0.02578,-0.01039 -0.546094,-0.120382 -1.15625,-0.244433 l -1.109375,-0.225547 0.75664,-0.0031 c 0.67964,-0.0028 0.773923,-0.0096 0.926472,-0.06664 0.1826,-0.06832 0.415719,-0.2531 0.486747,-0.385816 C 14.897089,13.036851 14.94256,13 14.974031,13 c 0.05315,0 0.05722,0.03669 0.05722,0.515625 0,0.283593 -0.0035,0.514514 -0.0078,0.513157 -0.0043,-0.0014 -0.02891,-0.01096 -0.05469,-0.02135 z M 10.732043,11.001206 C 10.41072,10.749688 8.7642194,9.5187209 8.5216772,9.3486788 8.4152234,9.2740459 8.2859375,9.1738453 8.234375,9.1260109 8.1417291,9.0400634 6.9050672,8.1175122 6.5133031,7.8420894 6.4019897,7.7638322 6.2811666,7.6700556 6.2448078,7.6336966 L 6.1787006,7.5675897 6.3599803,7.2759822 c 0.2515463,-0.4046388 0.2456416,-0.3995597 0.3505231,-0.30152 0.047504,0.044406 0.3887154,0.3021403 0.7582466,0.5727444 0.3695312,0.270604 0.7140625,0.5311053 0.765625,0.5788915 0.051562,0.047787 0.1809147,0.1479478 0.2874494,0.2225807 0.3778825,0.2647256 1.6202326,1.1916962 1.7125506,1.2778071 0.05156,0.048096 0.171729,0.141265 0.267038,0.2070429 0.09531,0.065778 0.343872,0.2474772 0.552365,0.4037762 l 0.379077,0.28418 -0.289072,0.28787 -0.289072,0.28787 z M 2,7.0304519 C 2,7.0216878 1.775,5.8900156 1.5,4.515625 L 1,2.0167328 1.0030809,1.5474289 1.0061619,1.078125 1.5015562,3.53125 C 1.774023,4.8804688 1.9976366,5.9983275 1.9984752,6.0153809 1.999314,6.0324341 2.3344223,5.7121822 2.7431608,5.3037097 L 3.4863216,4.5610328 3.8712625,4.8508291 C 4.08298,5.0102169 4.3356669,5.2000306 4.4327891,5.2726372 4.7664325,5.5220625 4.90625,5.6352725 4.90625,5.6559972 c 0,0.011419 -0.085526,0.1707134 -0.1900569,0.3539881 C 4.5033531,6.3831581 4.523275,6.3760909 4.28125,6.1642762 4.2039062,6.0965869 3.9933203,5.9332522 3.8132813,5.8013106 L 3.4859375,5.5614169 2.7429687,6.3039016 C 2.3343359,6.7122684 2,7.0392159 2,7.0304519 Z M 4.8506512,3.6963363 4.5608553,3.4865094 5.28824,2.7585677 6.015625,2.030626 6.024265,2.5221648 6.032905,3.0137035 5.5866753,3.4599334 5.1404456,3.9061631 Z"
       id="path829"
       inkscape:connector-curvature="0" />
    <path
       style="fill:#13fe1b;stroke-width:0.03125"
       d="m 14.382115,12.859375 c 0.0065,-0.01719 0.03712,-0.087 0.06806,-0.155133 0.05364,-0.118122 0.05537,-0.244924 0.0056,-0.407367 -0.01054,-0.03438 0.0035,-0.01346 0.03129,0.04649 0.06247,0.134947 0.04352,0.307649 -0.04893,0.445891 -0.03729,0.05575 -0.06248,0.08731 -0.05599,0.07012 z m -2.600865,-0.5 -1.734375,-0.353132 1.523642,-0.0031 1.523643,-0.0031 0.134857,0.210938 c 0.160103,0.250424 0.312509,0.509068 0.29739,0.504691 -0.0059,-0.0017 -0.791251,-0.16203 -1.745157,-0.356253 z m 2.4375,-0.300656 c -0.09412,-0.05044 -0.180358,-0.05863 -0.618168,-0.05867 -0.455952,-3.1e-5 -0.510907,-0.0057 -0.529147,-0.05473 -0.01119,-0.03008 -0.16544,-0.288993 -0.342769,-0.575366 -0.177329,-0.286374 -0.322416,-0.528682 -0.322416,-0.538464 0,-0.0098 -0.127996,-0.224546 -0.284435,-0.477252 C 11.965376,10.101523 11.829272,9.8736322 11.819361,9.8478053 11.80945,9.8219784 11.662036,9.5765147 11.491773,9.3023306 11.321511,9.0281462 11.173739,8.7811588 11.163393,8.7534694 11.153046,8.72578 11.082687,8.6061291 11.00704,8.4875784 10.931394,8.3690278 10.861239,8.2505016 10.851141,8.2241866 c -0.0101,-0.026315 0.0988,0.042556 0.241998,0.1530465 0.143197,0.1104907 0.339025,0.2547103 0.435172,0.3204882 0.09615,0.065778 0.217002,0.1589031 0.268564,0.206945 0.05156,0.048042 0.232343,0.1887931 0.401733,0.3127803 l 0.307984,0.2254312 0.08515,-0.081582 0.08515,-0.081581 0.161551,0.2643694 C 12.927302,9.6894875 13,9.8163256 13,9.8259469 c 0,0.00962 0.147656,0.2553831 0.328125,0.5461391 0.180469,0.290755 0.328125,0.536649 0.328125,0.546431 0,0.0098 0.129077,0.225476 0.286838,0.479322 0.32213,0.518323 0.440831,0.728973 0.407595,0.723332 -0.01241,-0.0021 -0.07178,-0.03021 -0.131933,-0.06245 z M 5.7578397,6.2607762 5.3483984,5.9605544 5.5538869,5.6287147 C 5.6669056,5.4462028 5.7897544,5.2400325 5.8268841,5.1705584 5.9803772,4.8833547 6.1116469,4.6885544 6.1469347,4.6956125 c 0.020658,0.00413 0.2133894,0.1376806 0.4282922,0.296775 L 6.9659594,5.28165 6.6626672,5.7741891 C 6.4958566,6.0450859 6.3324384,6.3194241 6.2995156,6.38383 6.2665931,6.4482359 6.2233719,6.5144466 6.2034688,6.5309647 6.1785188,6.5516713 6.0401322,6.4677663 5.7578397,6.2607762 Z"
       id="path827"
       inkscape:connector-curvature="0" />
    <path
       style="fill:#0bfd0b;stroke-width:0.03125"
       d="m 9.9985519,13.006905 c -0.00451,-0.0701 0.00538,-0.989961 0.010695,-0.995052 0.0056,-0.0054 3.31357,0.650764 3.475443,0.68935 0.03455,0.0082 0.08718,0.05622 0.116958,0.106631 0.02978,0.05041 0.114012,0.121403 0.187185,0.157759 l 0.133042,0.0661 -1.960937,-0.0011 c -1.078516,-6.21e-4 -1.9615899,-0.01127 -1.9623864,-0.02366 z M 5.3358028,6.9515478 4.9372306,6.655435 5.0158056,6.5309638 C 5.0590222,6.4625047 5.1376747,6.3255788 5.1905894,6.2266837 5.3463675,5.9355425 5.3127153,5.9331384 5.7666144,6.2678372 5.9895078,6.4321956 6.1683253,6.5798969 6.1639869,6.5960622 6.1509666,6.6445766 5.7669941,7.2500944 5.7500519,7.2488303 5.7414297,7.2481866 5.5550175,7.1144097 5.3358028,6.9515478 Z"
       id="path825"
       inkscape:connector-curvature="0" />
    <path
       style="fill:#02fd02;stroke-width:0.03125"
       d="M 1.7800007,12.959289 C 1.625589,12.877634 1.5,12.67852 1.5,12.515364 c 0,-0.05489 0.037318,-0.168696 0.082929,-0.252897 0.045611,-0.0842 0.1046325,-0.195279 0.1311591,-0.246842 0.026527,-0.05156 0.1860838,-0.315462 0.3545712,-0.586444 C 2.2371466,11.1582 2.375,10.928029 2.375,10.917691 c 0,-0.01034 0.1476562,-0.256516 0.328125,-0.54706 0.1804688,-0.290545 0.328125,-0.5361576 0.328125,-0.5458057 0,-0.00965 0.1361359,-0.2378528 0.3025244,-0.5071212 C 3.5001628,9.0484356 3.6569984,8.7872116 3.6822981,8.7372059 3.7075981,8.6872006 3.8667747,8.4222956 4.0360237,8.1485281 4.2052731,7.8747606 4.34375,7.6434353 4.34375,7.6344722 c 0,-0.01375 0.1745634,-0.3018131 0.5218553,-0.8611616 L 4.9384441,6.6559962 5.3051597,6.9253888 C 5.5068531,7.0735544 5.6897369,7.2115069 5.7115684,7.23195 5.7631306,7.2802328 5.7307628,7.3447231 5.3375909,7.9770688 5.1691034,8.2480503 5.03125,8.4782209 5.03125,8.4885594 c 0,0.010338 -0.1450184,0.2526884 -0.3222634,0.5385562 C 4.5317416,9.3129831 4.3786725,9.5679688 4.3688328,9.59375 4.3589931,9.6195313 4.2086994,9.8703738 4.0348462,10.151178 3.8609934,10.431982 3.71875,10.668703 3.71875,10.677224 c 0,0.0085 -0.1346003,0.233831 -0.2991116,0.500689 -0.1645112,0.266858 -0.340121,0.560997 -0.3902438,0.653642 L 2.9382622,12 h 3.5320769 3.5320769 l -0.00395,0.515625 -0.00395,0.515625 H 5.9552956 1.9160802 Z m 12.0037173,0.0016 c -0.11184,-0.05941 -0.17532,-0.139357 -0.409431,-0.515625 L 13.097219,12 h 0.508975 c 0.472777,0 0.518771,0.0052 0.646704,0.07282 0.107638,0.05691 0.149303,0.102992 0.190715,0.210938 0.07281,0.189779 0.06888,0.3078 -0.01557,0.467494 -0.04918,0.09301 -0.115029,0.158855 -0.20804,0.20804 -0.170709,0.09027 -0.268748,0.09064 -0.436281,0.0016 z M 12.174245,9.2014494 C 12.003673,9.07416 11.827892,8.9356931 11.78362,8.8937456 11.739347,8.8517981 11.624653,8.7636231 11.528743,8.6978013 11.432833,8.6319794 11.230552,8.4833947 11.07923,8.3676134 10.831222,8.1778547 10.782594,8.1224019 10.585969,7.8051134 10.465997,7.6115197 10.3597,7.4323819 10.349752,7.4070294 10.339805,7.3816769 10.195908,7.1413403 10.029982,6.8729484 9.8640556,6.6045566 9.7075981,6.3440494 9.6822981,6.2940441 9.6569984,6.2440384 9.5001628,5.9828144 9.3337744,5.7135459 9.1673859,5.4442775 9.03125,5.2160728 9.03125,5.2064247 9.03125,5.1967766 8.8835937,4.9511641 8.703125,4.6606194 8.5226563,4.3700747 8.375,4.1238334 8.375,4.1134172 8.375,4.0911812 8.0293513,3.53125 8.015625,3.53125 c -0.013367,0 -0.359375,0.5596287 -0.359375,0.5812481 0,0.00991 -0.1450872,0.2523253 -0.3224159,0.5386985 C 7.1565053,4.9375697 7.0020291,5.1970841 6.9905534,5.227895 6.9679737,5.28852 7.0080875,5.3135025 6.3693156,4.8409941 L 6.1292566,4.6634187 6.2677531,4.4408691 C 6.3439266,4.3184666 6.40625,4.2101431 6.40625,4.2001506 c 0,-0.00999 0.1476563,-0.2560593 0.328125,-0.5468147 C 6.9148438,3.3625803 7.0625,3.1164066 7.0625,3.1062827 7.0625,3.0961588 7.1964731,2.8722994 7.3602184,2.6088173 7.6223634,2.1869998 7.6739506,2.1220066 7.7919597,2.0648794 7.9642181,1.9814905 8.08288,1.9829043 8.2479731,2.0703125 8.3628025,2.1311087 8.4241484,2.2107934 8.7012356,2.6590736 8.8774881,2.9442203 9.0423963,3.2184391 9.0676981,3.2684484 9.093,3.3184581 9.2498372,3.5796856 9.4162256,3.8489541 9.5826141,4.1182225 9.71875,4.345505 9.71875,4.3540262 c 0,0.00852 0.1422434,0.2452416 0.316096,0.5260457 0.173853,0.2808043 0.324147,0.5316468 0.333987,0.5574281 0.0098,0.025781 0.162909,0.2807669 0.340154,0.5666344 0.177245,0.2858678 0.322263,0.5281347 0.322263,0.5383712 0,0.010237 0.147656,0.2563303 0.328125,0.546875 0.180469,0.2905447 0.328125,0.5366385 0.328125,0.546875 0,0.010237 0.147656,0.2563303 0.328125,0.546875 0.180469,0.2905447 0.328125,0.5371035 0.328125,0.5479082 0,0.010805 0.07031,0.1318371 0.15625,0.2689612 0.08594,0.1371241 0.15625,0.2610816 0.15625,0.2754609 0,0.027535 -0.134906,0.1636916 -0.158264,0.1597316 -0.0075,-0.00127 -0.15317,-0.1064534 -0.323741,-0.2337431 z"
       id="path823"
       inkscape:connector-curvature="0" />
    <path
       style="fill:#323232;stroke-width:0.03125"
       d="m 14.84375,14.509101 c -0.02578,-0.01132 -1.108594,-0.234578 -2.40625,-0.496133 l -2.359375,-0.475555 1.282431,-0.0031 1.282431,-0.0031 1.164115,0.233293 c 0.640264,0.128311 1.178546,0.242211 1.196183,0.253112 0.02169,0.0134 0.02691,-0.160717 0.01614,-0.537981 -0.0088,-0.30679 -0.01435,-0.592956 -0.01241,-0.635925 0.02415,-0.536551 0.01391,-0.607465 -0.126435,-0.875399 C 14.748082,11.715406 14.738445,11.67517 14.37276,9.8481822 14.167742,8.8239006 14,7.9786584 14,7.9698666 c 0,-0.00879 -0.214453,0.1979693 -0.476562,0.4594697 l -0.476563,0.475455 -0.13286,-0.225395 -0.132859,-0.2253951 0.445359,-0.4489634 c 0.244948,-0.2469297 0.490612,-0.4686112 0.545919,-0.4926256 0.272176,-0.1181778 0.592596,0.012619 0.69686,0.2844628 0.01978,0.051563 0.263187,1.2117187 0.540913,2.578125 l 0.504955,2.484375 2.19e-4,0.677432 c 2.18e-4,0.63567 -0.0037,0.682749 -0.0642,0.763694 -0.111759,0.149628 -0.218896,0.209124 -0.39521,0.219472 -0.09095,0.0053 -0.186453,4.47e-4 -0.212234,-0.01087 z M 9.8998581,11.334598 10.063206,11.169195 9.9612906,11.072867 C 9.8639778,10.980889 8.6474653,10.071226 8.2405744,9.7861788 8.1340397,9.7115459 8.0046875,9.6113453 7.953125,9.5635109 7.86106,9.4781022 6.6473559,8.5729366 6.2121716,8.2651288 6.0902856,8.1789184 5.9764834,8.0860656 5.9592778,8.0587891 5.9356141,8.0212744 5.9573872,7.9605044 6.0486662,7.809285 6.1150353,7.6993344 6.1717691,7.6051706 6.1747412,7.6000316 c 0.00551,-0.00953 0.3587694,0.2436556 0.5283838,0.3787056 0.051563,0.041055 0.3960938,0.2964572 0.765625,0.5675609 0.3695312,0.2711035 0.7140625,0.5320138 0.765625,0.5798 0.051562,0.047787 0.1809147,0.1479478 0.2874494,0.2225807 0.3715968,0.2603221 1.6197276,1.1928642 1.7388466,1.2991792 0.06602,0.05893 0.179648,0.144942 0.252495,0.191141 0.07285,0.0462 0.179216,0.123348 0.236375,0.171444 l 0.103925,0.08745 -0.199268,0.201055 L 10.454931,11.5 H 10.09572 9.73651 Z M 1.8125,7.4962272 C 1.6838155,7.4450647 1.5670094,7.3112516 1.5181465,7.1590162 1.4928332,7.0801509 1.2526078,5.9149547 0.98431231,4.5696912 L 0.49650228,2.1237573 0.50606362,1.4703247 C 0.51651241,0.75624703 0.52145175,0.73634572 0.72616553,0.58350481 0.89720753,0.45580353 0.97449603,0.46668556 3.5625,0.98285456 4.9117188,1.2519518 6.0801509,1.4928332 6.1590163,1.5181465 6.3159775,1.5685262 6.4462956,1.6854683 6.4980119,1.8223469 6.5168453,1.8721932 6.53125,2.1456266 6.53125,2.4532743 V 2.9962298 L 6.3409944,3.3028025 C 6.2363534,3.4714172 6.1062753,3.6558541 6.0519319,3.7126622 5.9975881,3.76947 5.9524987,3.8483944 5.9517331,3.8880494 5.9503197,3.9612778 5.7546669,4.3125 5.7152875,4.3125 5.6854909,4.3125 5.3971669,4.1165719 5.2572772,4.0012631 L 5.1416934,3.9059894 5.5864719,3.4604163 6.03125,3.0148431 V 2.5074215 C 6.03125,2.2283397 6.027485,2 6.0228837,2 6.0182822,2 4.8900156,1.775 3.515625,1.5 2.1412343,1.225 1.0129679,1 1.0083664,1 1.0037649,1 1,1.2287649 1,1.5083664 V 2.0167328 L 1.5,4.515625 C 1.775,5.8900156 2,7.0216878 2,7.0304519 2,7.0392159 2.3343359,6.7122684 2.7429687,6.3039016 L 3.4859375,5.5614169 3.8132812,5.8009522 C 3.9933203,5.9326966 4.1898437,6.0843891 4.25,6.1380469 4.310156,6.1917039 4.3940759,6.2598903 4.4364884,6.2895712 l 0.077113,0.053965 -0.059153,0.1016694 C 4.2755706,6.7526512 4.2496806,6.7832981 4.1945006,6.7529159 4.1648691,6.7366006 4.05625,6.6514069 3.953125,6.5635962 3.85,6.4757859 3.7120212,6.3667891 3.6465053,6.3213812 L 3.5273856,6.2388219 2.9121303,6.852285 C 2.5737399,7.18969 2.2572877,7.4804862 2.2089031,7.4984991 2.1006646,7.538795 1.9169178,7.5377419 1.8125,7.4962272 Z M 9.4937241,7.1768556 C 8.8170322,6.6831341 7.8708853,5.9729172 7.7705794,5.8833916 7.7045541,5.8244628 7.58979,5.7377259 7.5155478,5.6906428 L 7.3805619,5.6050372 7.4870278,5.4057719 c 0.058556,-0.1095963 0.1177966,-0.2105963 0.1316453,-0.224445 0.029714,-0.029714 0.2630707,0.1127843 0.4331563,0.2645059 0.066025,0.058896 0.3064715,0.2440559 0.5343256,0.4114656 0.37782,0.2775938 0.4257544,0.3240816 0.5446622,0.5282291 0.1390131,0.2386647 0.4422772,0.7400762 0.5181259,0.85666 0.058554,0.090001 0.056487,0.089131 -0.155219,-0.065332 z"
       id="path821"
       inkscape:connector-curvature="0" />
    <path
       style="fill:#006500;stroke-width:0.03125"
       d="M 1.6260785,13.462426 C 1.3895892,13.371639 1.1561314,13.133499 1.0645716,12.889657 1.0090361,12.741754 0.99672687,12.653773 1.0051336,12.464818 1.0145795,12.252505 1.0315486,12.196263 1.1607062,11.949193 1.2404398,11.796668 1.4372899,11.457371 1.5981507,11.195199 1.7590116,10.933027 1.971833,10.581464 2.0710872,10.413949 2.1703414,10.246433 2.3277894,9.9828125 2.4209716,9.828125 2.5141538,9.6734375 2.7352896,9.3047644 2.9123844,9.0088516 3.3543081,8.2704284 3.8277578,7.4824044 4.2976791,6.703125 4.828595,5.8226969 5.3011544,5.0358091 5.634605,4.4769262 5.8982344,4.0350684 5.98265,3.8939278 6.4244959,3.15625 7.0609937,2.0935943 7.2121672,1.8608367 7.3391534,1.7479786 c 0.371926,-0.3305473 0.9804547,-0.33065 1.3529432,-2.281e-4 0.1470937,0.1304816 0.2810365,0.345034 1.8017644,2.8861014 0.177092,0.2959128 0.393617,0.6575547 0.481167,0.8036484 0.08755,0.1460938 0.247664,0.4132813 0.35581,0.59375 0.108145,0.1804688 0.332026,0.553125 0.497514,0.828125 0.165487,0.275 0.372316,0.6195313 0.459621,0.765625 0.365555,0.6117104 0.597701,0.9982113 1.370201,2.28125 0.119007,0.1976567 0.276242,0.4615827 0.349413,0.5865027 0.07317,0.12492 0.264509,0.441326 0.425196,0.703125 0.160687,0.261799 0.357537,0.60079 0.437445,0.753315 0.129562,0.247304 0.146434,0.303111 0.155889,0.515625 0.0084,0.188956 -0.0039,0.276937 -0.05944,0.424839 -0.09378,0.249756 -0.324873,0.482431 -0.570381,0.574287 l -0.179892,0.06731 -6.2097647,-0.0016 -6.2097653,-0.0016 z M 14.251249,12.959289 c 0.154412,-0.08165 0.280001,-0.280769 0.280001,-0.443925 0,-0.130151 -0.140877,-0.397822 -0.588162,-1.117525 -0.157761,-0.253846 -0.286838,-0.46954 -0.286838,-0.479322 0,-0.0098 -0.147656,-0.255676 -0.328125,-0.546431 C 13.147656,10.08133 13,9.8348231 13,9.8242919 13,9.8137603 12.852344,9.5674253 12.671875,9.2768806 12.491406,8.9863359 12.34375,8.7402422 12.34375,8.7300056 c 0,-0.010236 -0.147656,-0.2563303 -0.328125,-0.546875 C 11.835156,7.8925859 11.6875,7.6464922 11.6875,7.6362556 c 0,-0.010237 -0.147656,-0.2563303 -0.328125,-0.546875 -0.180469,-0.2905447 -0.328125,-0.5366384 -0.328125,-0.546875 0,-0.010237 -0.147656,-0.2563303 -0.328125,-0.546875 C 10.522656,5.7050859 10.375,5.4594734 10.375,5.4498253 10.375,5.4401772 10.238864,5.2119725 10.072476,4.9427041 9.9060872,4.6734356 9.7492516,4.4122116 9.7239519,4.3622059 9.6986519,4.3122006 9.5421944,4.0516934 9.3762684,3.7833016 9.2103422,3.5149097 9.0664528,3.2745731 9.0565137,3.2492206 9.046575,3.2238681 8.8904681,2.9640625 8.70961,2.671875 8.4247294,2.2116338 8.3630256,2.1312268 8.2479731,2.0703125 8.08288,1.9829043 7.9642181,1.9814905 7.7919597,2.0648794 7.6739506,2.1220066 7.6223634,2.1869998 7.3602184,2.6088173 7.1964731,2.8722994 7.0625,3.0961588 7.0625,3.1062827 7.0625,3.1164066 6.9148437,3.3625803 6.734375,3.6533359 6.5539062,3.9440912 6.40625,4.1899853 6.40625,4.1997672 c 0,0.00978 -0.1279956,0.2245453 -0.2844347,0.4772522 C 5.9653762,4.9297266 5.8290834,5.1581091 5.8189422,5.1845363 5.8088012,5.2109634 5.6817862,5.4228319 5.5366866,5.6553553 5.3915872,5.8878788 5.2345584,6.1484375 5.1877334,6.234375 5.1409088,6.3203125 4.9318569,6.6670666 4.7231738,7.0049397 4.5144906,7.3428125 4.34375,7.626345 4.34375,7.6350116 c 0,0.00867 -0.1384769,0.239749 -0.3077263,0.5135165 C 3.8667747,8.4222956 3.7075981,8.6872006 3.6822981,8.7372059 3.6569984,8.7872116 3.5001628,9.0484356 3.3337744,9.3177041 3.1673859,9.5869725 3.03125,9.8151772 3.03125,9.8248253 c 0,0.00965 -0.1476562,0.2552607 -0.328125,0.5458057 C 2.5226562,10.661175 2.375,10.907353 2.375,10.917691 c 0,0.01034 -0.1378534,0.240509 -0.3063409,0.51149 -0.1684874,0.270982 -0.3280445,0.534882 -0.3545712,0.586444 -0.026527,0.05156 -0.085548,0.162641 -0.1311591,0.246842 C 1.537318,12.346668 1.5,12.460471 1.5,12.515364 c 0,0.163156 0.125589,0.36227 0.2800007,0.443925 l 0.1360795,0.07196 H 8.015625 14.11517 Z M 3.0293946,11.831555 C 3.0795174,11.73891 3.2551272,11.444771 3.4196384,11.177913 3.5841497,10.911055 3.71875,10.685745 3.71875,10.677224 c 0,-0.0085 0.1422434,-0.245242 0.3160962,-0.526046 C 4.2086994,9.8703737 4.3589931,9.6195313 4.3688328,9.59375 4.3786725,9.5679688 4.5317416,9.3129831 4.7089866,9.0271156 4.8862316,8.7412478 5.03125,8.4989809 5.03125,8.4887444 c 0,-0.010237 0.1476562,-0.2563303 0.328125,-0.546875 C 5.5398437,7.6513247 5.6875,7.4052309 5.6875,7.3949944 c 0,-0.010237 0.1476562,-0.2563303 0.328125,-0.546875 0.1804687,-0.2905447 0.328125,-0.5366385 0.328125,-0.546875 0,-0.010237 0.1476562,-0.2563303 0.328125,-0.546875 C 6.8523437,5.4638247 7,5.2174897 7,5.2069581 7,5.1964269 7.1476562,4.9499197 7.328125,4.6591641 7.5085937,4.3684088 7.65625,4.1224091 7.65625,4.1124981 c 0,-0.021619 0.3460081,-0.5812481 0.359375,-0.5812481 0.013726,0 0.359375,0.5599312 0.359375,0.5821672 0,0.010416 0.1476563,0.2566575 0.328125,0.5472022 0.1804687,0.2905447 0.328125,0.5361572 0.328125,0.5458053 0,0.00965 0.1361359,0.2378528 0.3025244,0.5071212 0.1663884,0.2692685 0.323224,0.5304925 0.3485237,0.5804982 0.0253,0.050005 0.1844766,0.3149103 0.3537259,0.5886778 0.169249,0.2737675 0.307726,0.50485 0.307726,0.5135165 0,0.00867 0.170741,0.2921991 0.379424,0.6300719 0.208683,0.3378731 0.417735,0.6846272 0.464559,0.7705647 0.04683,0.085937 0.203854,0.3464963 0.348954,0.5790197 0.145099,0.2325234 0.272114,0.4443919 0.282255,0.4708191 0.01014,0.026427 0.146434,0.2548092 0.302873,0.5075172 0.156439,0.252707 0.284435,0.46747 0.284435,0.477252 0,0.0098 0.145087,0.25209 0.322416,0.538464 0.177329,0.286373 0.331575,0.545287 0.342769,0.575366 C 13.090767,11.997255 12.836958,12 8.0150253,12 H 2.9382622 Z m 9.0935504,-0.448742 c -0.0389,-0.06445 -0.122348,-0.208594 -0.185439,-0.320313 -0.06309,-0.111719 -0.229361,-0.392969 -0.369487,-0.625 C 11.427893,10.205469 11.175967,9.7869341 11.008184,9.5074228 10.840402,9.2279116 10.520312,8.6967091 10.296875,8.3269725 10.073438,7.9572362 9.7537816,7.4265522 9.5865287,7.1476747 9.4192756,6.8687975 9.1461019,6.415625 8.9794756,6.140625 8.8128494,5.865625 8.6332862,5.5628209 8.5804469,5.4677272 8.5276072,5.3726331 8.3790669,5.1238734 8.2503569,4.9149278 L 8.0163391,4.5350269 7.9247134,4.6815759 C 7.8743191,4.7621778 7.7450387,4.9757812 7.6374231,5.15625 7.5298075,5.3367187 7.3063553,5.709375 7.1408622,5.984375 6.8282481,6.5038463 6.5594988,6.9518856 6.2879734,7.40625 6.2006684,7.5523438 5.9938388,7.896875 5.8283516,8.171875 5.5391675,8.6524297 5.3157984,9.0247144 4.9752344,9.59375 4.8877981,9.7398438 4.6729434,10.098437 4.4977791,10.390625 4.1734863,10.93157 3.8747522,11.434252 3.8524278,11.476563 3.8456263,11.489453 5.7196241,11.5 8.0168675,11.5 h 4.1768055 z"
       id="path819"
       inkscape:connector-curvature="0" />
  </g>
</svg>
