<?xml version="1.0" encoding="UTF-8" standalone="no"?>
<!-- Created with Inkscape (http://www.inkscape.org/) -->

<svg
   xmlns:dc="http://purl.org/dc/elements/1.1/"
   xmlns:cc="http://creativecommons.org/ns#"
   xmlns:rdf="http://www.w3.org/1999/02/22-rdf-syntax-ns#"
   xmlns:svg="http://www.w3.org/2000/svg"
   xmlns="http://www.w3.org/2000/svg"
   xmlns:sodipodi="http://sodipodi.sourceforge.net/DTD/sodipodi-0.dtd"
   xmlns:inkscape="http://www.inkscape.org/namespaces/inkscape"
   version="1.1"
   id="svg2"
   width="16"
   height="16"
   viewBox="0 0 16 16"
   sodipodi:docname="APPLYSCALEDELTA.svg"
   inkscape:version="0.92.4 (5da689c313, 2019-01-14)">
  <metadata
     id="metadata8">
    <rdf:RDF>
      <cc:Work
         rdf:about="">
        <dc:format>image/svg+xml</dc:format>
        <dc:type
           rdf:resource="http://purl.org/dc/dcmitype/StillImage" />
        <dc:title></dc:title>
      </cc:Work>
    </rdf:RDF>
  </metadata>
  <defs
     id="defs6" />
  <sodipodi:namedview
     pagecolor="#ffffff"
     bordercolor="#666666"
     borderopacity="1"
     objecttolerance="10"
     gridtolerance="10"
     guidetolerance="10"
     inkscape:pageopacity="0"
     inkscape:pageshadow="2"
     inkscape:window-width="828"
     inkscape:window-height="480"
     id="namedview4"
     showgrid="false"
     inkscape:zoom="14.75"
     inkscape:cx="8"
     inkscape:cy="8"
     inkscape:window-x="0"
     inkscape:window-y="0"
     inkscape:window-maximized="0"
     inkscape:current-layer="svg2" />
  <g
     id="APPLYSCALEDELTA">
    <path
       style="fill:#ffffff;stroke-width:0.03125"
       d="M 0,8 V 0 h 8 8 v 8 8 H 8 0 Z M 3.5619281,14.020071 5.9832316,13.53125 H 8 10.016768 l 2.421304,0.490594 c 1.354219,0.274386 2.499501,0.491297 2.598742,0.492188 0.191972,0.0017 0.292167,-0.04991 0.41438,-0.213531 0.06046,-0.08094 0.06442,-0.128024 0.0642,-0.763694 l -2.31e-4,-0.677432 -0.505179,-2.487443 C 14.732134,9.0038378 14.484541,7.8359937 14.459776,7.7767225 14.435011,7.7174512 14.369871,7.631195 14.315021,7.5850412 l -0.09973,-0.083915 0.109076,-0.09577 c 0.06665,-0.058522 0.12744,-0.1529356 0.156292,-0.2427506 0.02597,-0.080839 0.266731,-1.2476506 0.535027,-2.5929141 l 0.48781,-2.4459339 -0.0096,-0.6534326 C 15.483488,0.75624703 15.478548,0.73634572 15.273834,0.58350481 15.102793,0.45580353 15.025504,0.46668556 12.4375,0.98285456 11.088281,1.2519518 9.9182338,1.4933697 9.8373947,1.5193387 c -0.1213,0.038967 -0.2293109,0.1243459 -0.3425963,0.2708112 -0.00286,0.0037 -0.013408,0.2528189 -0.023437,0.5536001 L 9.453125,2.890625 9.1587303,2.40625 C 8.9959584,2.1384375 8.7986388,1.8571782 8.7173947,1.7771707 8.3581897,1.4234335 7.7375516,1.4045454 7.3508109,1.735581 7.2412153,1.8293908 6.7707528,2.5375663 6.58348,2.890625 6.536267,2.979635 6.533689,2.957222 6.532501,2.4473469 6.531801,2.1472362 6.516586,1.8715087 6.498012,1.8223469 6.4462956,1.6854683 6.3159775,1.5685263 6.1590163,1.5181465 6.0801509,1.4928332 4.9117188,1.2519518 3.5625,0.98285456 0.97449603,0.46668556 0.89720753,0.45580353 0.72616553,0.58350481 0.52145175,0.73634572 0.51651241,0.75624703 0.50606362,1.4703247 l -0.009561,0.6534325 0.48781003,2.445934 C 1.2526081,5.9149547 1.49337,7.0817662 1.519339,7.1626053 c 0.028852,0.089815 0.08964,0.1842288 0.1562924,0.2427506 l 0.1090761,0.09577 -0.099728,0.083915 c -0.05485,0.046154 -0.1199902,0.13241 -0.1447552,0.1916812 -0.024765,0.059271 -0.271932,1.2271153 -0.5492596,2.5952099 l -0.50423222,2.487443 -0.0106719,0.59375 c -0.0123178,0.685323 -0.003182,0.759847 0.10957122,0.893847 C 0.69621284,14.47839 0.82904947,14.533919 1,14.520188 1.077344,14.513988 2.2302115,14.288923 3.5619281,14.020071 Z M 6.1001419,11.334598 5.9367941,11.169195 6.0387094,11.072867 C 6.1403516,10.976798 7.3701106,10.058107 7.78261,9.7700866 L 8,9.6182981 8.21739,9.7700866 C 8.6298894,10.058107 9.8596484,10.976798 9.9612906,11.072867 L 10.063206,11.169195 9.8998581,11.334598 9.73651,11.5 H 8 6.26349 Z M 2.7463413,7.9819291 2.2618446,7.5002175 2.881783,6.8829212 C 3.2227491,6.5434084 3.5126178,6.2618637 3.5259356,6.2572666 3.5491797,6.2492434 3.696655,6.3568544 4.0693531,6.6537919 L 4.2427719,6.7919584 4.1165837,6.9975419 C 4.0471803,7.1106125 3.916895,7.3296875 3.8270613,7.484375 3.7372272,7.6390625 3.5663266,7.9226784 3.4472822,8.1146328 L 3.2308378,8.4636403 Z m 9.7396757,-0.033642 c -0.709862,-1.1611866 -0.714513,-1.1699513 -0.64629,-1.2177366 0.03367,-0.023584 0.135036,-0.1058881 0.225255,-0.1828975 0.09022,-0.07701 0.218696,-0.1778981 0.285505,-0.2241968 l 0.121471,-0.084179 0.634293,0.622549 c 0.348862,0.3424019 0.634364,0.6295804 0.63445,0.6381741 9.4e-5,0.00859 -0.214074,0.2243856 -0.475911,0.4795372 L 12.788722,8.4434494 Z M 7.8339853,5.2810634 C 7.7684584,5.2317522 7.6981459,5.185215 7.6777353,5.1776472 7.6375978,5.162765 7.6946191,5.0457744 7.9014359,4.7186806 L 8.0169388,4.5360056 8.1987522,4.8329284 C 8.2987497,4.9962356 8.3757978,5.1344781 8.3699703,5.1401334 8.3178566,5.1907088 8.0169897,5.3745247 7.9890472,5.37286 7.96929,5.3716819 7.8995122,5.3303744 7.8339853,5.2810634 Z M 5.9375,3.8495966 c 0,-0.013972 0.044008,-0.066706 0.097795,-0.1171875 L 6.1330897,3.640625 6.0587325,3.7574256 C 5.9885953,3.8675972 5.9375,3.9064441 5.9375,3.8495966 Z m 4.0613816,-0.042232 c -0.035785,-0.069777 -0.034947,-0.070615 0.019045,-0.019046 0.03106,0.029669 0.04791,0.062514 0.03743,0.072989 -0.01047,0.010475 -0.03589,-0.0138 -0.056477,-0.053943 z"
       id="path833"
       inkscape:connector-curvature="0" />
    <path
       style="fill:#cbfefe;stroke-width:0.03125"
       d="m 1.0004785,12.960938 c 6.207e-4,-0.05067 0.060905,-0.145007 0.061543,-0.09631 2.625e-4,0.02008 0.00901,0.05875 0.019447,0.08594 0.012447,0.03244 0.0017,0.04943 -0.03125,0.04943 -0.02762,0 -0.050003,-0.01758 -0.04974,-0.03906 z m 13.9370215,0.0097 c 0,-0.01617 0.01406,-0.0381 0.03125,-0.04872 C 14.985938,12.911253 15,12.924484 15,12.951281 15,12.978076 14.985938,13 14.96875,13 14.951563,13 14.9375,12.986767 14.9375,12.970594 Z M 1.25,11.748804 c 0,-0.03574 0.749823,-3.7590437 0.7588359,-3.7680565 0.00537,-0.00537 0.2228109,0.2041822 0.4831947,0.4656788 L 2.9654557,8.921875 2.7502382,9.28125 C 2.6318686,9.4789063 2.4111254,9.8436506 2.2596978,10.091793 2.1082703,10.339935 1.941351,10.621185 1.8887662,10.716793 1.7754509,10.922818 1.25,11.771754 1.25,11.748804 Z m 13.18194,-0.548328 c -0.147259,-0.239168 -0.289282,-0.477039 -0.315607,-0.528601 -0.02632,-0.05156 -0.179285,-0.308368 -0.339911,-0.57068 C 13.615796,9.8388837 13.387689,9.4611341 13.269517,9.2617509 L 13.054658,8.8992366 13.51802,8.4351009 c 0.254849,-0.2552746 0.467757,-0.45974 0.47313,-0.4543678 0.01891,0.018905 0.727672,3.5971749 0.718163,3.6257039 -0.0053,0.01589 -0.130115,-0.166793 -0.277373,-0.405961 z M 3.8524278,11.476563 C 3.8854953,11.413892 4.4439387,10.478219 4.985485,9.578125 5.0785534,9.4234375 5.2359084,9.1599472 5.3351628,8.9925909 5.4344169,8.8252347 5.65625,8.4563988 5.828125,8.1729553 6,7.8895122 6.1898437,7.570625 6.25,7.4643175 6.3308837,7.3213809 6.4015731,7.2439653 6.5213687,7.1671287 6.7235406,7.0374559 6.7451659,7.0032159 6.6655897,6.9387791 6.6030234,6.8881159 6.6034975,6.8859597 6.721175,6.6860275 7.1071969,6.0301819 7.3636791,5.6257094 7.3937487,5.6253784 7.4357625,5.6249159 7.6549881,5.7806369 7.8403372,5.9426 c 0.075467,0.065945 0.1464322,0.1199 0.1577012,0.1199 0.011269,0 0.1109453,-0.076563 0.2215032,-0.1701406 C 8.3300994,5.7987819 8.4722853,5.693145 8.53551,5.6576106 l 0.1149541,-0.064608 0.2879728,0.476936 c 0.427834,0.708573 0.4678131,0.7764545 0.4678131,0.7943161 0,0.00899 -0.031641,0.043258 -0.070312,0.076142 l -0.070312,0.05979 0.078125,0.063524 c 0.042969,0.034938 0.1409159,0.1090663 0.2176606,0.1647282 0.082738,0.06001 0.1836825,0.1772156 0.2479935,0.287945 0.059652,0.1027075 0.2851419,0.4783031 0.5010889,0.8346565 0.215948,0.3563538 0.529909,0.8766663 0.697691,1.15625 0.167783,0.2795841 0.419708,0.6981786 0.559835,0.9302096 0.140126,0.232031 0.306395,0.513281 0.369487,0.625 0.06309,0.111719 0.146539,0.255859 0.185439,0.320313 L 12.193673,11.5 H 11.323766 10.453858 L 10.943425,11.007813 11.432992,10.515625 11.073893,10.25 C 10.876389,10.103906 10.627794,9.9233119 10.52146,9.8486788 10.415126,9.7740459 10.285938,9.6738453 10.234375,9.6260109 10.153868,9.551325 9.1875981,8.8281366 8.5002369,8.328125 8.3820994,8.2421875 8.2212172,8.1174466 8.1427206,8.0509231 L 8,7.9299713 7.8572794,8.0509231 C 7.7787828,8.1174466 7.6179006,8.2421875 7.4997631,8.328125 6.8124019,8.8281366 5.8461316,9.551325 5.765625,9.6260109 5.7140625,9.6738453 5.5848744,9.7740459 5.4785403,9.8486788 5.3722059,9.9233119 5.1236109,10.103906 4.9261069,10.25 L 4.5670081,10.515625 5.0565753,11.007813 5.5461425,11.5 H 4.6931019 C 4.2239297,11.5 3.8456262,11.48945 3.8524278,11.47656 Z M 2,6.0304519 C 2,6.0216878 1.7751538,4.8907844 1.5003418,3.5173334 1.2255298,2.1438823 1.0050635,1.0157698 1.0104167,1.0104167 1.0157698,1.0050635 2.1438823,1.2255298 3.5173334,1.5003418 4.8907844,1.7751538 6.0216878,2 6.0304519,2 6.0392159,2 5.7123578,2.3342464 5.3041006,2.7427698 L 4.5618144,3.4855397 4.9382591,3.7662072 c 0.2070443,0.1543672 0.4362371,0.3228553 0.5093168,0.3744178 0.07308,0.051563 0.1648685,0.1167828 0.2039744,0.1449337 L 5.7226523,4.3367427 5.554221,4.6136836 C 5.4615837,4.7660016 5.2831334,5.0626537 5.1576644,5.2729109 L 4.9295391,5.6551966 4.8045856,5.5541609 C 4.7358609,5.4985912 4.6005428,5.3993066 4.5038784,5.3335287 4.4072141,5.2677509 4.2859375,5.1745294 4.234375,5.1263697 4.1828125,5.07821 3.9933203,4.9313941 3.8132813,4.8001116 L 3.4859375,4.5614169 2.7429687,5.3039016 C 2.3343359,5.7122684 2,6.0392159 2,6.0304519 Z M 13.247774,5.2948137 12.51386,4.5608994 12.128828,4.8507622 c -0.211767,0.1594244 -0.464495,0.3492997 -0.561617,0.4219447 -0.09712,0.072645 -0.236417,0.178114 -0.309543,0.234375 -0.07313,0.056261 -0.143439,0.1057365 -0.15625,0.109945 -0.01281,0.00421 -0.07954,-0.090963 -0.148293,-0.2114922 C 10.884375,5.2850056 10.711832,4.9959025 10.569696,4.7630837 10.42756,4.530265 10.32008,4.3255172 10.330851,4.3080887 c 0.01077,-0.017428 0.08578,-0.0763 0.166677,-0.1308259 0.0809,-0.054526 0.325472,-0.2326419 0.543492,-0.3958134 L 11.437421,3.4847737 10.695517,2.7423869 C 10.28747,2.3340741 9.9607841,2 9.9695481,2 c 0.00876,0 1.1396679,-0.2248462 2.5131189,-0.4996582 1.373451,-0.274812 2.501563,-0.4952783 2.506916,-0.4899251 0.01058,0.010584 -0.982373,4.9927902 -0.998226,5.0086427 -0.0053,0.00532 -0.33993,-0.3205928 -0.743583,-0.7242457 z"
       id="path831"
       inkscape:connector-curvature="0" />
    <path
       style="fill:#989898;stroke-width:0.03125"
       d="M 0.96875,13.514644 V 13 h 0.0728444 c 0.046611,0 0.088628,0.02949 0.1166716,0.08189 0.071028,0.132716 0.3041472,0.317496 0.4867471,0.385816 0.1521601,0.05693 0.2469359,0.06386 0.9108467,0.06664 l 0.7410152,0.0031 -1.1100613,0.225198 C 1.5762799,13.886505 1.0524518,13.997169 1.0227512,14.008566 0.97293012,14.027684 0.96875,13.989451 0.96875,13.514644 Z m 14,0.492785 c -0.02578,-0.01039 -0.546094,-0.120382 -1.15625,-0.244433 l -1.109375,-0.225547 0.75664,-0.0031 c 0.67964,-0.0028 0.773923,-0.0096 0.926472,-0.06664 0.1826,-0.06832 0.415719,-0.2531 0.486747,-0.385816 C 14.897089,13.036851 14.94256,13 14.974031,13 c 0.05315,0 0.05722,0.03669 0.05722,0.515625 0,0.283593 -0.0035,0.514514 -0.0078,0.513157 -0.0043,-0.0014 -0.02891,-0.01096 -0.05469,-0.02135 z M 4.8521697,10.805717 4.5676003,10.521147 4.94645,10.237136 C 5.1548175,10.08093 5.4032794,9.8993066 5.4985875,9.8335287 5.5938956,9.7677509 5.7140625,9.6745816 5.765625,9.6264859 5.8459991,9.5515156 6.8042616,8.8340581 7.4997631,8.328125 7.6179006,8.2421875 7.7787828,8.1174466 7.8572794,8.0509231 L 8,7.9299713 8.1427206,8.0509231 c 0.078497,0.066523 0.2393788,0.1912644 0.3575163,0.2772019 0.6955015,0.5059331 1.6537641,1.2233906 1.7341381,1.2983609 0.05156,0.048096 0.171729,0.141265 0.267038,0.2070428 0.09531,0.065778 0.343872,0.2474773 0.552365,0.4037763 l 0.379077,0.28418 -0.289072,0.28787 -0.289072,0.28787 -0.122668,-0.09602 C 10.487285,10.80962 8.8745463,9.6007041 8.5000903,9.328125 8.3820334,9.2421875 8.2212172,9.1174466 8.1427206,9.0509231 L 8,8.9299713 7.8572794,9.0509231 c -0.078497,0.066523 -0.2393128,0.1912644 -0.3573697,0.2772019 -0.3308753,0.2408553 -1.984405,1.479211 -2.2001803,1.647752 -0.049993,0.03905 -0.1071172,0.08076 -0.1269432,0.0927 -0.021401,0.01289 -0.1516709,-0.09392 -0.3206165,-0.262864 z M 9.5089272,7.1921162 C 9.2605322,7.01835 9.2526131,7.0061941 9.3408481,6.9341087 l 0.075223,-0.061455 0.1138831,0.1808606 c 0.1527903,0.24265 0.1627722,0.2594944 0.1515775,0.255789 -0.00531,-0.00176 -0.082983,-0.054493 -0.1726045,-0.1171871 z M 6.4739969,7.0949003 c 0.12132,-0.1951628 0.1428303,-0.2102159 0.2076975,-0.1453491 0.046762,0.046762 0.045923,0.055172 -0.010812,0.1083554 -0.033829,0.031713 -0.1144569,0.089186 -0.1791722,0.1277193 l -0.117664,0.070061 z M 2,7.0304519 C 2,7.0216878 1.775,5.8900156 1.5,4.515625 L 1,2.0167328 1.0030809,1.5474289 1.0061619,1.078125 1.5015562,3.53125 C 1.774023,4.8804688 1.9976366,5.9983275 1.9984752,6.0153809 1.999314,6.0324341 2.3344223,5.7121822 2.7431608,5.3037097 L 3.4863216,4.5610328 3.8712625,4.8508291 C 4.08298,5.0102169 4.3356669,5.2000306 4.4327891,5.2726372 4.7664325,5.5220625 4.90625,5.6352725 4.90625,5.6559972 c 0,0.011419 -0.085526,0.1707134 -0.1900569,0.3539881 C 4.5033531,6.3831581 4.523275,6.3760909 4.28125,6.1642762 4.2039062,6.0965869 3.9933203,5.9332522 3.8132813,5.8013106 L 3.4859375,5.5614169 2.7429687,6.3039016 C 2.3343359,6.7122684 2,7.0392159 2,7.0304519 Z M 13.247774,6.2948137 12.51386,5.5608994 12.139743,5.8407678 C 11.933978,5.9946953 11.716406,6.1634019 11.65625,6.2156712 11.59609,6.2679402 11.53619,6.3075482 11.52313,6.3036882 11.510071,6.2998284 11.408461,6.14906 11.297332,5.9686475 L 11.095278,5.640625 11.196077,5.5535272 c 0.05544,-0.047904 0.173825,-0.1351072 0.263081,-0.1937856 0.08925,-0.058679 0.215817,-0.1545154 0.28125,-0.212971 0.06543,-0.058456 0.266272,-0.214074 0.446311,-0.3458184 l 0.327344,-0.2395353 0.742968,0.7424847 c 0.408633,0.4083668 0.743655,0.7285325 0.744494,0.7114793 8.37e-4,-0.017053 0.224452,-1.1349121 0.496919,-2.4841309 l 0.495394,-2.453125 0.0031,0.4693039 L 15,2.0167328 14.500513,4.5130619 c -0.274718,1.3729809 -0.503838,2.50068 -0.509156,2.5059975 -0.0053,0.00532 -0.33993,-0.3205928 -0.743583,-0.7242457 z M 4.8506512,3.6963363 4.5608553,3.4865094 5.28824,2.7585677 6.015625,2.030626 6.0242659,2.5221648 6.0329066,3.0137035 5.5866769,3.4599334 5.1404472,3.9061631 Z M 10.411171,3.4580544 9.9670959,3.0131861 l 0.00864,-0.49128 0.00864,-0.4912801 0.7277831,0.7283406 0.727784,0.7283406 -0.257196,0.1860337 c -0.141459,0.1023188 -0.273015,0.1958322 -0.292349,0.2078079 -0.02076,0.012858 -0.216989,-0.1603879 -0.479227,-0.4230944 z"
       id="path829"
       inkscape:connector-curvature="0" />
    <path
       style="fill:#13fe1b;stroke-width:0.03125"
       d="m 1.5652877,12.740134 c -0.073089,-0.150981 -0.080699,-0.275606 -0.024816,-0.406352 0.035793,-0.08374 0.037717,-0.07988 0.038949,0.07813 0.0011,0.141073 0.032613,0.245661 0.132473,0.439656 0.00664,0.01289 -0.00895,0.02344 -0.034627,0.02344 -0.02568,0 -0.076071,-0.06069 -0.1119792,-0.134866 z m 12.8168273,0.119241 c 0.0065,-0.01719 0.03712,-0.087 0.06806,-0.155133 0.05364,-0.118122 0.05537,-0.244924 0.0056,-0.407367 -0.01054,-0.03438 0.0035,-0.01346 0.03129,0.04649 0.06247,0.134947 0.04352,0.307649 -0.04893,0.445891 -0.03729,0.05575 -0.06248,0.08731 -0.05599,0.07012 z m -2.600865,-0.5 -1.734375,-0.353132 1.523642,-0.0031 1.523643,-0.0031 0.134857,0.210938 c 0.160103,0.250424 0.312509,0.509068 0.29739,0.504691 -0.0059,-0.0017 -0.791251,-0.16203 -1.745157,-0.356253 z m -9.25,0.307941 c 0,-0.0111 0.084375,-0.156706 0.1875,-0.323566 0.103125,-0.16686 0.1875,-0.312464 0.1875,-0.323566 C 2.90625,12.009083 2.6842234,12 2.4128576,12 1.9811618,12 1.9041357,12.0078 1.796875,12.0625 1.72945,12.09688 1.6713048,12.125 1.6676626,12.125 c -0.019876,0 0.1292226,-0.25872 0.4009965,-0.695819 C 2.2371466,11.1582 2.375,10.928029 2.375,10.917691 c 0,-0.01034 0.1476562,-0.256516 0.328125,-0.54706 0.1804688,-0.290545 0.328125,-0.5365866 0.328125,-0.5467591 0,-0.014586 0.2614578,-0.453926 0.3028484,-0.508891 0.00544,-0.00723 0.043667,0.01858 0.08494,0.057354 l 0.075042,0.070498 0.3652094,-0.2761037 C 4.0601541,9.0148719 4.3040644,8.8309494 4.4013116,8.7580125 4.4985591,8.6850756 4.6695313,8.5554284 4.78125,8.4699075 4.8929687,8.3843866 5.0452803,8.2697419 5.1197203,8.2151416 L 5.2550653,8.1158681 5.1431578,8.2908078 C 5.0816084,8.3870247 5.03125,8.4751097 5.03125,8.4865519 c 0,0.011442 -0.1450184,0.2546959 -0.3222634,0.5405637 C 4.5317416,9.3129831 4.3786725,9.5679688 4.3688328,9.59375 4.3589931,9.6195313 4.2086994,9.8703738 4.0348462,10.151178 3.8609934,10.431982 3.71875,10.668703 3.71875,10.677224 c 0,0.0085 -0.1346003,0.233831 -0.2991116,0.500689 -0.1645112,0.266858 -0.340121,0.560997 -0.3902438,0.653642 L 2.9382622,12 4.4456934,12.0031 5.953125,12.0062 4.28125,12.345341 c -1.7410387,0.35317 -1.75,0.354819 -1.75,0.321998 z m 11.6875,-0.608597 c -0.09412,-0.05044 -0.180358,-0.05863 -0.618168,-0.05867 -0.455952,-3.1e-5 -0.510907,-0.0057 -0.529147,-0.05473 -0.01119,-0.03008 -0.16544,-0.288993 -0.342769,-0.575366 -0.177329,-0.286374 -0.322416,-0.528682 -0.322416,-0.538464 0,-0.0098 -0.127996,-0.224546 -0.284435,-0.477252 C 11.965376,10.101523 11.829272,9.8736322 11.819361,9.8478053 11.80945,9.8219784 11.662036,9.5765147 11.491773,9.3023306 11.321511,9.0281462 11.173739,8.7811588 11.163393,8.7534694 11.153046,8.72578 11.082687,8.6061291 11.00704,8.4875784 10.931394,8.3690278 10.861239,8.2505016 10.851141,8.2241866 c -0.0101,-0.026315 0.0988,0.042556 0.241998,0.1530465 0.143197,0.1104907 0.339025,0.2547103 0.435172,0.3204882 0.09615,0.065778 0.217002,0.1589031 0.268564,0.206945 0.05156,0.048042 0.232343,0.1887931 0.401733,0.3127803 l 0.307984,0.2254312 0.08515,-0.081582 0.08515,-0.081581 0.161551,0.2643694 C 12.927302,9.6894875 13,9.8163256 13,9.8259469 c 0,0.00962 0.147656,0.2553831 0.328125,0.5461391 0.180469,0.290755 0.328125,0.536649 0.328125,0.546431 0,0.0098 0.129077,0.225476 0.286838,0.479322 0.32213,0.518323 0.440831,0.728973 0.407595,0.723332 -0.01241,-0.0021 -0.07178,-0.03021 -0.131933,-0.06245 z M 5.7578397,6.2607762 5.3483984,5.9605544 5.5538869,5.6287147 C 5.6669056,5.4462028 5.7897544,5.2400325 5.8268841,5.1705584 5.9803772,4.8833547 6.1116469,4.6885544 6.1469347,4.6956125 c 0.020658,0.00413 0.2133894,0.1376806 0.4282922,0.296775 L 6.9659594,5.28165 6.6626672,5.7741891 C 6.4958566,6.0450859 6.3324384,6.3194241 6.2995156,6.38383 6.2665931,6.4482359 6.2233719,6.5144466 6.2034688,6.5309647 6.1785188,6.5516713 6.0401322,6.4677663 5.7578397,6.2607762 Z M 9.7525488,6.4259991 C 9.7167719,6.3681109 9.6875,6.3130941 9.6875,6.3037394 9.6875,6.2943847 9.5462716,6.0582887 9.3736594,5.7790812 9.2010469,5.4998741 9.0709688,5.2607109 9.0845969,5.2476081 9.1989634,5.1376491 9.8898234,4.6592794 9.9065347,4.6784766 9.9445363,4.7221313 10.375,5.4300319 10.375,5.4488709 c 0,0.010007 0.06562,0.1245207 0.145814,0.2544735 0.08563,0.138764 0.133999,0.2471543 0.117187,0.2626315 -0.08603,0.079198 -0.7662551,0.5652741 -0.7910588,0.5652741 -0.01614,0 -0.058617,-0.047363 -0.094393,-0.1052509 z"
       id="path827"
       inkscape:connector-curvature="0" />
    <path
       style="fill:#0bfd0b;stroke-width:0.03125"
       d="m 1.7835718,12.962743 c -0.076067,-0.03765 -0.1235819,-0.07336 -0.1055893,-0.07936 0.017993,-0.006 0.099902,0.02482 0.18202,0.06848 0.1824171,0.09699 0.1164972,0.106376 -0.076431,0.01088 z m 0.457158,0.0038 c 0.072245,-0.03596 0.1595002,-0.10984 0.1939003,-0.164171 l 0.062546,-0.09878 1.7435995,-0.348863 c 0.95898,-0.191875 1.7464697,-0.346142 1.7499775,-0.342815 0.00351,0.0033 0.00839,0.230523 0.010855,0.50488 l 0.00448,0.49883 -1.9483553,0.0082 -1.9483553,0.0082 z m 7.7578221,0.04036 c -0.00451,-0.0701 0.00538,-0.989961 0.010695,-0.995052 0.0056,-0.0054 3.31357,0.650764 3.475443,0.68935 0.03455,0.0082 0.08718,0.05622 0.116958,0.106631 0.02978,0.05041 0.114012,0.121403 0.187185,0.157759 l 0.133042,0.0661 -1.960937,-0.0011 C 10.882422,13.02997 9.9993483,13.019321 9.9985518,13.006931 Z M 5.3358028,6.9515478 4.9372306,6.655435 5.0158056,6.5309638 C 5.0590222,6.4625047 5.1376747,6.3255788 5.1905894,6.2266837 5.3463675,5.9355425 5.3127153,5.9331384 5.7666144,6.2678372 5.9895078,6.4321956 6.1683253,6.5798969 6.1639869,6.5960622 6.1509666,6.6445766 5.7669941,7.2500944 5.7500519,7.2488303 5.7414297,7.2481866 5.5550175,7.1144097 5.3358028,6.9515478 Z M 10.048396,6.9041616 C 9.9322466,6.7141125 9.8422013,6.5545588 9.8482953,6.5495975 c 0.00609,-0.00496 0.1798297,-0.1325356 0.3860797,-0.2834987 0.20625,-0.1509629 0.389933,-0.2861819 0.408185,-0.3004866 0.0314,-0.024612 0.13681,0.1303531 0.360496,0.5299787 l 0.08118,0.1450341 -0.378057,0.2774434 c -0.207931,0.1525938 -0.393479,0.2896369 -0.41233,0.30454 -0.02278,0.018007 -0.10512,-0.088823 -0.245455,-0.3184468 z"
       id="path825"
       inkscape:connector-curvature="0" />
    <path
       style="fill:#01fd01;stroke-width:0.03125"
       d="M 1.8728694,12.958823 C 1.7755048,12.907336 1.7146265,12.845042 1.6622955,12.743353 1.502308,12.432467 1.5486021,12.182687 1.7876574,12.066962 1.9111523,12.007179 1.9788907,12 2.4194598,12 c 0.3967914,0 0.4903645,0.0081 0.477591,0.0414 -0.00874,0.02277 -0.1299758,0.225519 -0.269419,0.450555 -0.2197591,0.354653 -0.271439,0.417826 -0.3879488,0.474227 -0.1693337,0.08197 -0.1990135,0.08138 -0.3668136,-0.0074 z M 6.0015366,12.515625 5.9975841,12 H 8 10.002416 l -0.00395,0.515625 -0.00395,0.515625 H 8 6.0054887 Z m 7.7821814,0.445313 c -0.11184,-0.05941 -0.17532,-0.139357 -0.409431,-0.515625 L 13.097219,12 h 0.508975 c 0.472777,0 0.518771,0.0052 0.646704,0.07282 0.107638,0.05691 0.149303,0.102992 0.190715,0.210938 0.07281,0.189779 0.06888,0.3078 -0.01557,0.467494 -0.04918,0.09301 -0.115029,0.158855 -0.20804,0.20804 -0.170709,0.09027 -0.268748,0.09064 -0.436281,0.0016 z M 3.4132256,9.3668003 3.3468069,9.2961006 3.5112031,9.0298438 C 3.6016209,8.8834025 3.68369,8.7429519 3.6935784,8.7177309 3.7034669,8.6925103 3.8538006,8.4421263 4.0276538,8.1613219 4.2015066,7.8805178 4.34375,7.6434353 4.34375,7.6344722 c 0,-0.01375 0.1745634,-0.3018131 0.5218553,-0.8611616 L 4.9384441,6.6559962 5.3051597,6.9253888 C 5.5068531,7.0735544 5.690685,7.212455 5.7136747,7.2340563 5.7625337,7.2799647 5.7740716,7.2552213 5.4713816,7.7536594 5.2642869,8.0946813 5.2325578,8.1306831 4.9481006,8.3474094 4.7815503,8.4743031 4.5668906,8.6319434 4.4710784,8.6977213 4.3752666,8.7634991 4.2546875,8.8566244 4.203125,8.9046663 4.1137625,8.9879275 3.5122122,9.4375 3.4901672,9.4375 c -0.00579,0 -0.040411,-0.031815 -0.076942,-0.0707 z M 12.174245,9.2014494 C 12.003673,9.07416 11.827892,8.9356931 11.78362,8.8937456 11.739348,8.8517981 11.624653,8.7636231 11.528743,8.6978013 11.432833,8.6319794 11.230552,8.4833947 11.07923,8.3676134 10.831874,8.1783541 10.782498,8.12217 10.590143,7.8110875 10.330122,7.3905747 10.263372,7.2546419 10.300261,7.2207612 10.354603,7.1708525 11.061444,6.65625 11.075656,6.65625 c 0.01705,0 0.611844,0.9526331 0.611844,0.9799472 0,0.010269 0.147656,0.2563887 0.328125,0.5469334 0.180469,0.2905447 0.328125,0.5371035 0.328125,0.5479082 0,0.010805 0.07031,0.1318371 0.15625,0.2689612 0.08594,0.1371241 0.15625,0.2610816 0.15625,0.2754609 0,0.027535 -0.134906,0.1636916 -0.158264,0.1597316 -0.0075,-0.00127 -0.15317,-0.1064534 -0.323741,-0.2337431 z M 6.5410591,4.9687769 6.1289928,4.6638422 6.2676216,4.4410806 C 6.3438672,4.3185619 6.40625,4.2101431 6.40625,4.2001506 c 0,-0.00999 0.1476563,-0.2560593 0.328125,-0.5468147 C 6.9148438,3.3625803 7.0625,3.1164066 7.0625,3.1062827 7.0625,3.0961588 7.1964731,2.8722994 7.3602184,2.6088173 7.6223634,2.1869998 7.6739506,2.1220066 7.7919597,2.0648794 7.9642181,1.9814905 8.08288,1.9829043 8.2479731,2.0703125 8.3630256,2.1312268 8.4247294,2.2116338 8.70961,2.671875 c 0.1808581,0.2921875 0.336965,0.5519931 0.3469038,0.5773456 0.00994,0.025352 0.1538284,0.2656891 0.3197546,0.534081 0.165926,0.2683918 0.3228054,0.528899 0.3486204,0.5789043 0.025815,0.050006 0.073666,0.1372588 0.1063362,0.193896 0.051835,0.089861 0.05343,0.106535 0.012525,0.1309156 C 9.8179688,4.7023838 9.6351563,4.8352441 9.4375,4.9822625 9.07845,5.2493269 9.03125,5.2768834 9.03125,5.2194413 9.03125,5.2026341 8.8835937,4.9511641 8.703125,4.6606194 8.5226563,4.3700747 8.375,4.1238334 8.375,4.1134172 8.375,4.0911812 8.0293513,3.53125 8.015625,3.53125 c -0.013367,0 -0.359375,0.5596287 -0.359375,0.5812481 0,0.00991 -0.1476563,0.2559107 -0.328125,0.546666 C 7.1476562,4.9499197 7,5.2009731 7,5.2170609 7,5.29323 6.9237791,5.251995 6.5410591,4.9687769 Z"
       id="path823"
       inkscape:connector-curvature="0" />
    <path
       style="fill:#323232;stroke-width:0.03125"
       d="M 0.76407572,14.489026 C 0.63770053,14.431683 0.5069295,14.272264 0.48393775,14.147517 c -0.010202,-0.05535 -0.0137468,-0.367829 -0.007877,-0.694392 l 0.0106719,-0.59375 0.50423222,-2.487443 C 1.2682922,9.0038378 1.5154591,7.8359937 1.5402242,7.7767225 1.5649893,7.7174512 1.6301291,7.631195 1.6849794,7.5850412 l 0.099728,-0.083915 -0.1090761,-0.09577 C 1.6089783,7.3468341 1.548191,7.2524203 1.5193387,7.1626053 1.4933697,7.0817662 1.2526078,5.9149547 0.98431231,4.5696912 L 0.49650228,2.1237573 0.50606362,1.4703247 C 0.51651241,0.75624703 0.52145175,0.73634572 0.72616553,0.58350481 0.89720753,0.45580353 0.97449603,0.46668556 3.5625,0.98285456 4.9117188,1.2519518 6.0801509,1.4928332 6.1590163,1.5181465 6.3159775,1.5685262 6.4462956,1.6854683 6.4980119,1.8223469 6.5168453,1.8721932 6.53125,2.1456266 6.53125,2.4532743 V 2.9962298 L 6.3409944,3.3028025 C 6.2363534,3.4714172 6.1062753,3.6558541 6.0519319,3.7126622 5.9975881,3.76947 5.9524987,3.8483944 5.9517331,3.8880494 5.9503197,3.9612778 5.7546669,4.3125 5.7152875,4.3125 5.6854909,4.3125 5.3971669,4.1165719 5.2572772,4.0012631 L 5.1416934,3.9059894 5.5864719,3.4604163 6.03125,3.0148431 V 2.5074215 C 6.03125,2.2283397 6.027485,2 6.0228837,2 6.0182822,2 4.8900156,1.775 3.515625,1.5 2.1412343,1.225 1.0129679,1 1.0083664,1 1.0037649,1 1,1.2287649 1,1.5083664 V 2.0167328 L 1.5,4.515625 C 1.775,5.8900156 2,7.0216878 2,7.0304519 2,7.0392159 2.3344223,6.7121822 2.7431608,6.3037097 L 3.4863216,5.5610328 3.8603481,5.8421372 c 0.5321735,0.3999609 0.6369363,0.4831944 0.6383781,0.5071856 0.00174,0.028955 -0.2195659,0.39828 -0.2498837,0.4170175 C 4.2354644,6.7746084 4.1508687,6.72158 4.0608522,6.6484991 3.7412512,6.3890278 3.549825,6.2490206 3.5259356,6.2572666 3.5126178,6.2618637 3.2226878,6.5434694 2.8816466,6.8830569 L 2.2615719,7.5004891 2.7401609,7.9754969 C 3.0033849,8.2367512 3.21875,8.4633175 3.21875,8.4789772 c 0,0.023073 -0.1981322,0.3735444 -0.2407077,0.4257825 C 2.9717063,8.9125338 2.7509451,8.7036541 2.4874621,8.4405822 2.0549454,8.0087409 2.0066988,7.9694159 1.990873,8.0358225 1.9812321,8.0762762 1.8102244,8.9320313 1.610856,9.9375 1.2766283,11.6231 1.2392953,11.783719 1.1319964,11.997715 1.0218097,12.217471 1.0150988,12.248196 1.0057247,12.57584 c -0.0391168,1.367208 -0.0397015,1.460784 -0.009009,1.441815 0.0176368,-0.0109 0.555919,-0.124801 1.1961825,-0.253112 l 1.1641154,-0.233293 1.282431,0.0031 1.2824306,0.0031 -2.375,0.482756 c -1.30625,0.265516 -2.4453125,0.489358 -2.53125,0.497427 -0.0965136,0.0091 -0.1926841,-0.0019 -0.25154925,-0.02857 z M 14.84375,14.509101 c -0.02578,-0.01132 -1.108594,-0.234578 -2.40625,-0.496133 l -2.359375,-0.475555 1.282431,-0.0031 1.282431,-0.0031 1.164115,0.233293 c 0.640264,0.128311 1.178546,0.242211 1.196183,0.253112 0.02169,0.0134 0.02691,-0.160717 0.01614,-0.537981 -0.0088,-0.30679 -0.01435,-0.592956 -0.01241,-0.635925 0.02415,-0.536551 0.01391,-0.607465 -0.126435,-0.875399 C 14.748082,11.715406 14.738445,11.67517 14.37276,9.8481822 14.167742,8.8239006 14,7.9786584 14,7.9698666 14,7.9610747 13.785547,8.1678359 13.523438,8.4293363 L 13.046875,8.9047913 12.913576,8.6789581 12.780277,8.453125 13.264852,7.9710678 c 0.266516,-0.2651315 0.48067,-0.4831003 0.475897,-0.484375 -0.0048,-0.00128 -0.292056,-0.2825672 -0.638407,-0.6250944 l -0.629728,-0.6227765 -0.119538,0.08284 c -0.06575,0.045562 -0.210756,0.1603822 -0.322244,0.2551562 -0.111489,0.094774 -0.218516,0.172511 -0.237839,0.1727491 -0.01932,2.5e-4 -0.09216,-0.093198 -0.161862,-0.2076366 l -0.12673,-0.2080697 0.130612,-0.1055653 c 0.07184,-0.058061 0.298924,-0.2319472 0.504639,-0.386414 l 0.374026,-0.2808488 0.743161,0.7426769 C 13.665578,6.7121822 14,7.0392159 14,7.0304519 14,7.0216878 14.225,5.8900156 14.5,4.515625 L 15,2.0167328 V 1.5083664 C 15,1.2287649 14.996235,1 14.991634,1 14.987032,1 13.858766,1.225 12.484375,1.5 11.109984,1.775 9.9817178,2 9.9771163,2 9.972515,2 9.96875,2.2283397 9.96875,2.5074215 v 0.5074216 l 0.444778,0.4455731 0.444779,0.4455732 -0.115584,0.095274 C 10.603147,4.1163128 10.307117,4.3175616 10.295172,4.3055194 10.263699,4.2737928 10.0625,3.893635 10.0625,3.8658953 10.0625,3.8470025 10.028928,3.7956191 9.9878944,3.75171 9.9468613,3.7078006 9.8132675,3.5047844 9.6910194,3.3005625 L 9.46875,2.9292502 V 2.4197845 C 9.46875,2.1357988 9.483461,1.871384 9.501988,1.8223469 9.5537044,1.6854683 9.6840225,1.5685263 9.8409838,1.5181465 9.9198491,1.4928332 11.088281,1.2519518 12.4375,0.98285456 c 2.588004,-0.516169 2.665293,-0.52705103 2.836334,-0.39934975 0.204714,0.15284091 0.209654,0.17274222 0.220102,0.88681989 l 0.0096,0.6534325 -0.48781,2.445934 c -0.268296,1.3452635 -0.509058,2.512075 -0.535027,2.5929141 -0.02885,0.089815 -0.08964,0.1842288 -0.156292,0.2427506 l -0.109076,0.09577 0.09973,0.083915 c 0.05485,0.046154 0.11999,0.13241 0.144755,0.1916812 0.02477,0.059271 0.272358,1.2271153 0.550207,2.5952099 l 0.505179,2.487443 2.19e-4,0.677432 c 2.18e-4,0.63567 -0.0037,0.682749 -0.0642,0.763694 -0.111759,0.149628 -0.218896,0.209124 -0.39521,0.219472 -0.09095,0.0053 -0.186453,4.47e-4 -0.212234,-0.01087 z M 5.3458019,11.298945 5.1465341,11.09789 5.2504594,11.010443 c 0.057159,-0.0481 0.1635275,-0.125246 0.2363747,-0.171444 0.072847,-0.0462 0.18647,-0.132212 0.2524953,-0.191141 0.103645,-0.0925 1.0942893,-0.8351552 1.7604337,-1.319733 C 7.6179006,9.2421875 7.7787828,9.1174466 7.8572794,9.0509231 L 8,8.9299713 8.1427206,9.0509231 c 0.078497,0.066523 0.2393788,0.1912644 0.3575163,0.2772019 0.6661444,0.4845778 1.6567891,1.227228 1.7604341,1.319733 0.06602,0.05893 0.179648,0.144942 0.252495,0.191141 0.07285,0.0462 0.179216,0.123348 0.236375,0.171444 l 0.103925,0.08745 -0.199268,0.201055 L 10.454931,11.5 H 10.09572 9.73651 L 9.8998581,11.334597 10.063206,11.169195 9.9612906,11.072867 C 9.8596484,10.976797 8.6298894,10.058107 8.21739,9.7700866 L 8,9.6182981 7.78261,9.7700866 C 7.3701106,10.058107 6.1403516,10.976798 6.0387094,11.072867 L 5.9367941,11.169195 6.1001419,11.334598 6.26349,11.5 H 5.9042797 5.5450694 Z M 7.8106322,5.9167481 C 7.7171281,5.8365847 7.5821109,5.7336556 7.5105934,5.6880169 L 7.3805619,5.6050372 7.4870278,5.4057719 C 7.5455841,5.2961756 7.6053644,5.1946356 7.6198728,5.1801272 7.6343812,5.1656188 7.7202269,5.20353 7.8106412,5.2643741 7.9010553,5.3252184 7.9862669,5.375 8,5.375 c 0.013733,0 0.098805,-0.049688 0.1890478,-0.1104166 0.090243,-0.060729 0.1786206,-0.105569 0.196395,-0.099644 0.035558,0.011852 0.2387328,0.3631856 0.2389438,0.4131856 6.25e-5,0.017188 -0.052494,0.061763 -0.1168147,0.099057 C 8.4432509,5.7144753 8.3068588,5.8164284 8.2044775,5.9037441 8.1020966,5.99106 8.0098497,6.0625 7.9994847,6.0625 c -0.010365,0 -0.095348,-0.065588 -0.1888525,-0.1457519 z"
       id="path821"
       inkscape:connector-curvature="0" />
    <path
       style="fill:#006500;stroke-width:0.03125"
       d="M 1.6260785,13.462426 C 1.3895892,13.371639 1.1561314,13.133499 1.0645716,12.889657 1.0090361,12.741754 0.99672687,12.653773 1.0051336,12.464818 1.0145795,12.252505 1.0315486,12.196263 1.1607062,11.949193 1.2404398,11.796668 1.4372899,11.457371 1.5981507,11.195199 1.7590116,10.933027 1.971833,10.581464 2.0710872,10.413949 2.1703414,10.246433 2.3277894,9.9828125 2.4209716,9.828125 2.5141538,9.6734375 2.7352896,9.3047644 2.9123844,9.0088516 3.3543081,8.2704284 3.8277578,7.4824044 4.2976791,6.703125 4.828595,5.8226969 5.3011544,5.0358091 5.634605,4.4769262 5.8982344,4.0350684 5.98265,3.8939278 6.4244959,3.15625 7.0609937,2.0935943 7.2121672,1.8608367 7.3391534,1.7479786 c 0.371926,-0.3305473 0.9804547,-0.33065 1.3529432,-2.281e-4 0.1470937,0.1304816 0.2810365,0.345034 1.8017644,2.8861014 0.177092,0.2959128 0.393617,0.6575547 0.481167,0.8036484 0.08755,0.1460938 0.247664,0.4132813 0.35581,0.59375 0.108145,0.1804688 0.332026,0.553125 0.497514,0.828125 0.165487,0.275 0.372316,0.6195313 0.459621,0.765625 0.365555,0.6117104 0.597701,0.9982113 1.370201,2.28125 0.119007,0.1976567 0.276242,0.4615827 0.349413,0.5865027 0.07317,0.12492 0.264509,0.441326 0.425196,0.703125 0.160687,0.261799 0.357537,0.60079 0.437445,0.753315 0.129562,0.247304 0.146434,0.303111 0.155889,0.515625 0.0084,0.188956 -0.0039,0.276937 -0.05944,0.424839 -0.09378,0.249756 -0.324873,0.482431 -0.570381,0.574287 l -0.179892,0.06731 -6.2097647,-0.0016 -6.2097653,-0.0016 z M 14.251249,12.959289 c 0.154412,-0.08165 0.280001,-0.280769 0.280001,-0.443925 0,-0.130151 -0.140877,-0.397822 -0.588162,-1.117525 -0.157761,-0.253846 -0.286838,-0.46954 -0.286838,-0.479322 0,-0.0098 -0.147656,-0.255676 -0.328125,-0.546431 C 13.147656,10.08133 13,9.8348231 13,9.8242919 13,9.8137603 12.852344,9.5674253 12.671875,9.2768806 12.491406,8.9863359 12.34375,8.7402422 12.34375,8.7300056 c 0,-0.010236 -0.147656,-0.2563303 -0.328125,-0.546875 C 11.835156,7.8925859 11.6875,7.6464922 11.6875,7.6362556 c 0,-0.010237 -0.147656,-0.2563303 -0.328125,-0.546875 -0.180469,-0.2905447 -0.328125,-0.5366384 -0.328125,-0.546875 0,-0.010237 -0.147656,-0.2563303 -0.328125,-0.546875 C 10.522656,5.7050859 10.375,5.4594734 10.375,5.4498253 10.375,5.4401772 10.238864,5.2119725 10.072476,4.9427041 9.9060872,4.6734356 9.7492516,4.4122116 9.7239519,4.3622059 9.6986519,4.3122006 9.5421944,4.0516934 9.3762684,3.7833016 9.2103422,3.5149097 9.0664528,3.2745731 9.0565137,3.2492206 9.046575,3.2238681 8.8904681,2.9640625 8.70961,2.671875 8.4247294,2.2116338 8.3630256,2.1312268 8.2479731,2.0703125 8.08288,1.9829043 7.9642181,1.9814905 7.7919597,2.0648794 7.6739506,2.1220066 7.6223634,2.1869998 7.3602184,2.6088173 7.1964731,2.8722994 7.0625,3.0961588 7.0625,3.1062827 7.0625,3.1164066 6.9148437,3.3625803 6.734375,3.6533359 6.5539062,3.9440912 6.40625,4.1899853 6.40625,4.1997672 c 0,0.00978 -0.1279956,0.2245453 -0.2844347,0.4772522 C 5.9653762,4.9297266 5.8290834,5.1581091 5.8189422,5.1845363 5.8088012,5.2109634 5.6817862,5.4228319 5.5366866,5.6553553 5.3915872,5.8878788 5.2345584,6.1484375 5.1877334,6.234375 5.1409088,6.3203125 4.9318569,6.6670666 4.7231738,7.0049397 4.5144906,7.3428125 4.34375,7.626345 4.34375,7.6350116 c 0,0.00867 -0.1384769,0.239749 -0.3077263,0.5135165 C 3.8667747,8.4222956 3.7075981,8.6872006 3.6822981,8.7372059 3.6569984,8.7872116 3.5001628,9.0484356 3.3337744,9.3177041 3.1673859,9.5869725 3.03125,9.8151772 3.03125,9.8248253 c 0,0.00965 -0.1476562,0.2552607 -0.328125,0.5458057 C 2.5226562,10.661175 2.375,10.907353 2.375,10.917691 c 0,0.01034 -0.1378534,0.240509 -0.3063409,0.51149 -0.1684874,0.270982 -0.3280445,0.534882 -0.3545712,0.586444 -0.026527,0.05156 -0.085548,0.162641 -0.1311591,0.246842 C 1.537318,12.346668 1.5,12.460471 1.5,12.515364 c 0,0.163156 0.125589,0.36227 0.2800007,0.443925 l 0.1360795,0.07196 H 8.015625 14.11517 Z M 3.0293946,11.831555 C 3.0795174,11.73891 3.2551272,11.444771 3.4196384,11.177913 3.5841497,10.911055 3.71875,10.685745 3.71875,10.677224 c 0,-0.0085 0.1422434,-0.245242 0.3160962,-0.526046 C 4.2086994,9.8703737 4.3589931,9.6195313 4.3688328,9.59375 4.3786725,9.5679688 4.5317416,9.3129831 4.7089866,9.0271156 4.8862316,8.7412478 5.03125,8.4989809 5.03125,8.4887444 c 0,-0.010237 0.1476562,-0.2563303 0.328125,-0.546875 C 5.5398437,7.6513247 5.6875,7.4052309 5.6875,7.3949944 c 0,-0.010237 0.1476562,-0.2563303 0.328125,-0.546875 0.1804687,-0.2905447 0.328125,-0.5366385 0.328125,-0.546875 0,-0.010237 0.1476562,-0.2563303 0.328125,-0.546875 C 6.8523437,5.4638247 7,5.2174897 7,5.2069581 7,5.1964269 7.1476562,4.9499197 7.328125,4.6591641 7.5085937,4.3684088 7.65625,4.1224091 7.65625,4.1124981 c 0,-0.021619 0.3460081,-0.5812481 0.359375,-0.5812481 0.013726,0 0.359375,0.5599312 0.359375,0.5821672 0,0.010416 0.1476563,0.2566575 0.328125,0.5472022 0.1804687,0.2905447 0.328125,0.5361572 0.328125,0.5458053 0,0.00965 0.1361359,0.2378528 0.3025244,0.5071212 0.1663884,0.2692685 0.323224,0.5304925 0.3485237,0.5804982 0.0253,0.050005 0.1844766,0.3149103 0.3537259,0.5886778 0.169249,0.2737675 0.307726,0.50485 0.307726,0.5135165 0,0.00867 0.170741,0.2921991 0.379424,0.6300719 0.208683,0.3378731 0.417735,0.6846272 0.464559,0.7705647 0.04683,0.085937 0.203854,0.3464963 0.348954,0.5790197 0.145099,0.2325234 0.272114,0.4443919 0.282255,0.4708191 0.01014,0.026427 0.146434,0.2548092 0.302873,0.5075172 0.156439,0.252707 0.284435,0.46747 0.284435,0.477252 0,0.0098 0.145087,0.25209 0.322416,0.538464 0.177329,0.286373 0.331575,0.545287 0.342769,0.575366 C 13.090767,11.997255 12.836958,12 8.0150253,12 H 2.9382622 Z m 9.0935504,-0.448742 c -0.0389,-0.06445 -0.122348,-0.208594 -0.185439,-0.320313 -0.06309,-0.111719 -0.229361,-0.392969 -0.369487,-0.625 C 11.427893,10.205469 11.175967,9.7869341 11.008184,9.5074228 10.840402,9.2279116 10.520312,8.6967091 10.296875,8.3269725 10.073438,7.9572362 9.7537816,7.4265522 9.5865287,7.1476747 9.4192756,6.8687975 9.1461019,6.415625 8.9794756,6.140625 8.8128494,5.865625 8.6332862,5.5628209 8.5804469,5.4677272 8.5276072,5.3726331 8.3790669,5.1238734 8.2503569,4.9149278 L 8.0163391,4.5350269 7.9247134,4.6815759 C 7.8743191,4.7621778 7.7450387,4.9757812 7.6374231,5.15625 7.5298075,5.3367187 7.3063553,5.709375 7.1408622,5.984375 6.8282481,6.5038463 6.5594988,6.9518856 6.2879734,7.40625 6.2006684,7.5523438 5.9938388,7.896875 5.8283516,8.171875 5.5391675,8.6524297 5.3157984,9.0247144 4.9752344,9.59375 4.8877981,9.7398438 4.6729434,10.098437 4.4977791,10.390625 4.1734863,10.93157 3.8747522,11.434252 3.8524278,11.476563 3.8456263,11.489453 5.7196241,11.5 8.0168675,11.5 h 4.1768055 z"
       id="path819"
       inkscape:connector-curvature="0" />
  </g>
</svg>
