<?xml version="1.0" encoding="UTF-8" standalone="no"?>
<!-- Created with Inkscape (http://www.inkscape.org/) -->

<svg
   xmlns:dc="http://purl.org/dc/elements/1.1/"
   xmlns:cc="http://creativecommons.org/ns#"
   xmlns:rdf="http://www.w3.org/1999/02/22-rdf-syntax-ns#"
   xmlns:svg="http://www.w3.org/2000/svg"
   xmlns="http://www.w3.org/2000/svg"
   xmlns:sodipodi="http://sodipodi.sourceforge.net/DTD/sodipodi-0.dtd"
   xmlns:inkscape="http://www.inkscape.org/namespaces/inkscape"
   version="1.1"
   id="svg2"
   width="16"
   height="16"
   viewBox="0 0 16 16"
   sodipodi:docname="APPLYALLDELTA.svg"
   inkscape:version="0.92.4 (5da689c313, 2019-01-14)">
  <metadata
     id="metadata8">
    <rdf:RDF>
      <cc:Work
         rdf:about="">
        <dc:format>image/svg+xml</dc:format>
        <dc:type
           rdf:resource="http://purl.org/dc/dcmitype/StillImage" />
        <dc:title></dc:title>
      </cc:Work>
    </rdf:RDF>
  </metadata>
  <defs
     id="defs6" />
  <sodipodi:namedview
     pagecolor="#ffffff"
     bordercolor="#666666"
     borderopacity="1"
     objecttolerance="10"
     gridtolerance="10"
     guidetolerance="10"
     inkscape:pageopacity="0"
     inkscape:pageshadow="2"
     inkscape:window-width="1055"
     inkscape:window-height="778"
     id="namedview4"
     showgrid="false"
     inkscape:zoom="14.75"
     inkscape:cx="8"
     inkscape:cy="8"
     inkscape:window-x="0"
     inkscape:window-y="0"
     inkscape:window-maximized="0"
     inkscape:current-layer="svg2" />
  <g
     id="applyalldelta">
    <path
       style="fill:#ffffff;stroke-width:0.03125"
       d="M 0,8 V 0 h 8 8 v 8 8 H 8 0 Z m 8,6.140625 V 13.53125 h 1.0083844 1.0083836 l 2.421304,0.490594 c 1.354219,0.274386 2.499501,0.491297 2.598742,0.492188 0.191972,0.0017 0.292167,-0.04991 0.41438,-0.213531 0.06046,-0.08094 0.06442,-0.128024 0.0642,-0.763694 l -2.31e-4,-0.677432 -0.505179,-2.487443 C 14.732134,9.0038378 14.484541,7.8359937 14.459776,7.7767225 14.435011,7.7174512 14.369871,7.631195 14.315021,7.5850412 l -0.09973,-0.083915 0.109076,-0.09577 c 0.06665,-0.058522 0.12744,-0.1529356 0.156292,-0.2427506 0.02597,-0.080839 0.266731,-1.2476506 0.535027,-2.5929141 l 0.48781,-2.4459339 -0.0096,-0.6534326 C 15.483488,0.75624703 15.478548,0.73634572 15.273834,0.58350481 15.102793,0.45580353 15.025504,0.46668556 12.4375,0.98285456 11.088281,1.2519518 9.9182338,1.4933697 9.8373947,1.5193387 c -0.1213,0.038967 -0.2293109,0.1243459 -0.3425963,0.2708112 -0.00286,0.0037 -0.013408,0.2528189 -0.023437,0.5536001 L 9.453125,2.890625 9.1587303,2.40625 C 8.8202206,1.8492912 8.6496909,1.6621128 8.3934294,1.5662332 8.1822444,1.4872187 7.8800697,1.4789324 7.6875,1.546875 7.6144281,1.5726563 7.5505256,1.59375 7.5454947,1.59375 c -0.00503,0 -0.01381,-0.1748061 -0.019508,-0.388458 C 7.5148094,0.78625706 7.4924853,0.72341972 7.3050844,0.58350481 7.1340425,0.45580353 7.0567541,0.46668556 4.46875,0.98285456 3.1195313,1.2519518 1.9510989,1.4928332 1.8722338,1.5181465 1.7152726,1.5685262 1.5849544,1.6854683 1.5332381,1.8223469 c -0.043614,0.115435 -0.043959,1.2698495 -4.144e-4,1.3865562 0.018053,0.048385 0.188113,0.2441931 0.3779111,0.4351303 L 2.2558224,3.9911919 2.0438338,4.2534084 C 1.4581196,4.9779 1.0512805,5.8168891 0.87583453,6.6620725 0.76523075,7.1948888 0.74239475,7.5932838 0.75858925,8.7075231 c 0.0134525,0.9255825 0.0236844,1.0959766 0.0816963,1.3605119 0.0926701,0.422577 0.23072125,0.833976 0.39681085,1.182514 l 0.141732,0.297424 -0.1466549,0.265076 C 1.0391667,12.161905 1,12.280892 1,12.518382 c 0,0.421138 0.2572629,0.80425 0.6349533,0.945562 0.1658918,0.06207 0.2384858,0.06731 0.9328229,0.06731 h 0.7529316 l 0.2727872,0.156104 c 1.1092609,0.634781 2.6713662,1.039377 4.0861925,1.05835 L 8,14.75 Z M 8,11.380899 V 11.261798 L 7.5370516,11.225336 C 6.5871869,11.150525 5.7046703,10.922527 5.0415725,10.580631 4.8554263,10.484652 4.6704381,10.380694 4.6304875,10.349612 L 4.55785,10.293099 4.7145438,10.029362 C 4.800725,9.8843066 5.0066309,9.540625 5.1721122,9.265625 5.5008438,8.7193325 5.6873316,8.4077269 5.9856622,7.90625 6.0930238,7.7257812 6.2460975,7.5148437 6.3258263,7.4375 6.4365916,7.3300478 6.4851278,7.2506675 6.5315788,7.1009944 6.5944419,6.8984391 6.6349163,6.8242394 7.1406675,5.984375 7.3062675,5.709375 7.5298075,5.3367187 7.6374231,5.15625 7.7450387,4.9757812 7.8743191,4.7621778 7.9247134,4.6815759 L 8.0163391,4.5350266 8.1956694,4.8278941 C 8.2943013,4.9889709 8.375,5.1260541 8.375,5.1325228 c 0,0.00647 -0.084375,0.066365 -0.1875,0.1331022 L 8,5.3869656 V 7.5026319 9.6182981 L 8.21739,9.7700866 C 8.6298894,10.058107 9.8596484,10.976798 9.9612906,11.072867 L 10.063206,11.169195 9.8998581,11.334597 9.73651,11.5 H 8.868255 8 Z m 4.486017,-3.4326118 c -0.709862,-1.1611866 -0.714513,-1.1699513 -0.64629,-1.2177366 0.03367,-0.023584 0.135036,-0.1058881 0.225255,-0.1828975 0.09022,-0.07701 0.218696,-0.1778981 0.285505,-0.2241968 l 0.121471,-0.084179 0.634293,0.622549 c 0.348862,0.3424019 0.634364,0.6295804 0.63445,0.6381741 9.4e-5,0.00859 -0.214074,0.2243856 -0.475911,0.4795372 L 12.788722,8.4434494 Z M 3.34375,8.2008225 c 0,-0.086424 0.1529228,-0.5083213 0.2628897,-0.7252844 0.058517,-0.1154522 0.1760009,-0.308509 0.2610766,-0.429015 0.1497121,-0.2120612 0.6123793,-0.7389606 0.6673521,-0.7600012 0.014877,-0.00569 -0.117724,0.2263372 -0.29467,0.515625 C 4.0634528,7.091435 3.7944828,7.5355469 3.6426872,7.7890625 3.4908916,8.0425781 3.3615325,8.25 3.3552225,8.25 3.3489125,8.25 3.34375,8.22787 3.34375,8.2008225 Z M 9.9988816,3.8073641 c -0.035785,-0.069777 -0.034947,-0.070615 0.019045,-0.019046 0.03106,0.029669 0.04791,0.062514 0.03743,0.072989 -0.01047,0.010475 -0.03589,-0.0138 -0.056477,-0.053943 z"
       id="path833"
       inkscape:connector-curvature="0" />
    <path
       style="fill:#cbfefe;stroke-width:0.03125"
       d="m 14.9375,12.970594 c 0,-0.01617 0.01406,-0.0381 0.03125,-0.04872 C 14.985938,12.911253 15,12.924484 15,12.951281 15,12.978076 14.985938,13 14.96875,13 14.95156,13 14.9375,12.98677 14.9375,12.97059 Z m -0.50556,-1.770118 c -0.147259,-0.239168 -0.289282,-0.477039 -0.315607,-0.528601 -0.02632,-0.05156 -0.179285,-0.308368 -0.339911,-0.57068 C 13.615796,9.8388837 13.387689,9.4611341 13.269517,9.2617509 L 13.054658,8.8992366 13.51802,8.4351009 c 0.254849,-0.2552746 0.467757,-0.45974 0.47313,-0.4543678 0.01891,0.018905 0.727672,3.5971749 0.718163,3.6257039 -0.0053,0.01589 -0.130115,-0.166793 -0.277373,-0.405961 z M 3.8524278,11.476563 c 0.012346,-0.0234 0.3069106,-0.521455 0.3892175,-0.658097 l 0.043465,-0.07216 0.099632,0.06568 c 0.2399994,0.158218 0.8143681,0.423443 1.1908885,0.549913 l 0.4087437,0.137295 -1.0721569,4.03e-4 c -0.5896862,2.18e-4 -1.0665918,-0.01014 -1.0597903,-0.02304 z M 10.943425,11.007813 11.432992,10.515625 11.073893,10.25 C 10.876389,10.103906 10.627794,9.9233119 10.52146,9.8486788 10.415126,9.7740459 10.285937,9.6738453 10.234375,9.6260109 10.148523,9.5463656 8.9854475,8.6770513 8.51881,8.34375 8.410525,8.2664062 8.2494944,8.1411581 8.1609641,8.0654206 L 8,7.9277166 V 7.0009987 6.0742809 L 8.2047653,5.9043281 C 8.3173859,5.8108537 8.46352,5.7022056 8.5295072,5.6628872 L 8.6494838,5.5913992 8.9379466,6.069137 C 9.3662344,6.7784457 9.40625,6.846387 9.40625,6.8642545 c 0,0.00899 -0.031641,0.043258 -0.070312,0.076142 l -0.070312,0.05979 0.078125,0.063524 c 0.042969,0.034938 0.1409159,0.1090663 0.2176606,0.1647282 0.082738,0.06001 0.1836825,0.1772156 0.2479935,0.287945 0.059652,0.1027075 0.2851419,0.4783031 0.5010889,0.8346565 0.215948,0.3563538 0.529909,0.8766663 0.697691,1.15625 0.167783,0.2795841 0.419708,0.6981788 0.559835,0.9302098 0.140126,0.232031 0.306395,0.513281 0.369487,0.625 0.06309,0.111719 0.146539,0.255859 0.185439,0.320313 L 12.193673,11.5 H 11.323766 10.453858 Z M 1.9011918,10.397383 C 1.2254261,9.3137666 1.0661486,7.7531938 1.4879683,6.3486916 1.7369426,5.5197003 2.2164728,4.7675572 3.0325671,3.9259888 L 3.464965,3.4800938 2.7336603,2.7492858 C 2.3314427,2.3473413 2.0067439,2.0140895 2.0121073,2.008726 2.0281616,1.9926717 7.0102653,0.99984866 7.0209844,1.0105676 7.0264206,1.0160038 6.9603669,1.3779594 6.8741984,1.8149133 6.6964906,2.7160566 6.6894831,2.7345769 6.2602797,3.4375 5.7654212,4.2479481 5.5383309,4.6272119 5.367035,4.9293094 L 5.2033444,5.2179934 4.8568169,4.8724494 4.5102897,4.526905 4.4068012,4.646265 C 4.3498828,4.7119131 4.1731769,4.9021322 4.0141212,5.0689741 3.486265,5.6226716 3.15415,6.1283937 2.9583862,6.6765753 2.7328767,7.3080522 2.6910415,8.2121472 2.857964,8.8467912 L 2.9023703,9.015625 2.7246227,9.3200116 C 2.5031747,9.6992334 2.0308341,10.476688 2.0036177,10.506758 1.9924753,10.519069 1.9463837,10.46985 1.9011918,10.397383 Z M 13.247774,5.2948138 12.51386,4.5608994 12.128828,4.8507622 c -0.211767,0.1594244 -0.464495,0.3492997 -0.561617,0.4219447 -0.09712,0.072645 -0.236417,0.178114 -0.309543,0.234375 -0.07313,0.056261 -0.143439,0.1057365 -0.15625,0.109945 -0.01281,0.00421 -0.07954,-0.090963 -0.148293,-0.2114922 C 10.884375,5.2850056 10.711832,4.9959025 10.569696,4.7630837 10.42756,4.530265 10.32008,4.3255172 10.330851,4.3080887 c 0.01077,-0.017428 0.08578,-0.0763 0.166677,-0.1308259 0.0809,-0.054526 0.325472,-0.2326419 0.543492,-0.3958134 L 11.437421,3.4847737 10.695517,2.7423869 C 10.28747,2.3340741 9.9607841,2 9.9695481,2 c 0.00876,0 1.1396679,-0.2248462 2.5131189,-0.4996582 1.373451,-0.274812 2.501563,-0.4952783 2.506916,-0.4899251 0.01058,0.010584 -0.982373,4.9927902 -0.998226,5.0086427 -0.0053,0.00532 -0.33993,-0.3205928 -0.743583,-0.7242456 z"
       id="path831"
       inkscape:connector-curvature="0" />
    <path
       style="fill:#989898;stroke-width:0.03125"
       d="M 7.171875,14.214098 C 6.2985759,14.137776 5.2388259,13.884573 4.59375,13.598112 L 4.453125,13.535665 6.2265625,13.533458 8,13.53125 V 13.890625 14.25 L 7.7421875,14.2457 C 7.6003906,14.243342 7.34375,14.229119 7.171875,14.214098 Z m 7.796875,-0.206669 c -0.02578,-0.01039 -0.546094,-0.120382 -1.15625,-0.244433 l -1.109375,-0.225547 0.75664,-0.0031 c 0.67964,-0.0028 0.773923,-0.0096 0.926472,-0.06664 0.1826,-0.06832 0.415719,-0.2531 0.486747,-0.385816 C 14.897089,13.036851 14.94256,13 14.974031,13 c 0.05315,0 0.05722,0.03669 0.05722,0.515625 0,0.283593 -0.0035,0.514514 -0.0078,0.513157 -0.0043,-0.0014 -0.02891,-0.01096 -0.05469,-0.02135 z M 10.732043,11.001206 C 10.442988,10.774946 8.7900025,9.5375172 8.5179753,9.34375 8.4093934,9.2664062 8.2480088,9.1398438 8.1593428,9.0625 l -0.1612109,-0.140625 0.00875,-0.4927122 0.00875,-0.4927119 0.1585378,0.13874 c 0.087196,0.076307 0.2446728,0.19959 0.3499494,0.2739619 0.4090012,0.2889375 1.6213409,1.19439 1.7102629,1.2773331 0.05156,0.048096 0.171729,0.141265 0.267038,0.2070428 0.09531,0.065778 0.343872,0.2474773 0.552365,0.4037763 l 0.379077,0.28418 -0.289072,0.28787 -0.289072,0.28787 z M 1.6309244,10.881846 C 1.3921323,10.326758 1.2833156,9.7958703 1.2644167,9.09375 c -0.0081,-0.3007812 -0.00813,-0.5328125 -7.19e-5,-0.515625 0.00806,0.017188 0.043545,0.1753769 0.078862,0.3515322 0.1070964,0.5341787 0.3357113,1.1270568 0.5835312,1.5132998 0.050791,0.07916 0.050675,0.09013 -0.0022,0.207373 -0.030702,0.06809 -0.094573,0.182326 -0.1419353,0.253867 l -0.086113,0.130075 -0.065572,-0.152426 z M 2.7643885,8.3015459 C 2.728638,8.2135197 2.7709228,7.4555116 2.8280156,7.1609503 2.9703581,6.4265566 3.3356416,5.7818428 4.0132922,5.0689741 4.1718919,4.9021322 4.3497984,4.7123547 4.40864,4.6472466 l 0.106985,-0.1183788 0.3399903,0.3417044 0.33999,0.3417041 -0.15955,0.2610493 C 4.9483025,5.6169028 4.8626259,5.7554541 4.8456625,5.7812175 4.8201828,5.819915 4.7882934,5.8019331 4.6622709,5.6778056 L 4.5097225,5.5275506 4.4065178,5.6465878 C 4.3497553,5.7120584 4.1731769,5.9021322 4.0141212,6.0689741 3.35118,6.7643697 2.9920756,7.3855366 2.8435728,8.09375 2.804512,8.2800322 2.7808594,8.3421013 2.7643885,8.3015459 Z M 9.5089272,7.1921162 C 9.2605322,7.01835 9.2526131,7.0061941 9.3408481,6.9341087 l 0.075223,-0.061455 0.1138831,0.1808606 c 0.1527903,0.24265 0.1627722,0.2594944 0.1515775,0.255789 -0.00531,-0.00176 -0.082983,-0.054493 -0.1726045,-0.1171871 z M 13.247774,6.2948137 12.51386,5.5608994 12.139743,5.8407678 C 11.933978,5.9946953 11.716406,6.1634019 11.65625,6.2156712 11.59609,6.2679402 11.53619,6.3075482 11.52313,6.3036882 11.510071,6.2998284 11.408461,6.14906 11.297332,5.9686475 L 11.095278,5.640625 11.196077,5.5535272 c 0.05544,-0.047904 0.173825,-0.1351072 0.263081,-0.1937856 0.08925,-0.058679 0.215817,-0.1545154 0.28125,-0.212971 0.06543,-0.058456 0.266272,-0.214074 0.446311,-0.3458184 l 0.327344,-0.2395353 0.742968,0.7424847 c 0.408633,0.4083668 0.743655,0.7285325 0.744494,0.7114793 8.37e-4,-0.017053 0.224452,-1.1349121 0.496919,-2.4841309 l 0.495394,-2.453125 0.0031,0.4693039 L 15,2.0167328 14.500513,4.5130619 c -0.274718,1.3729809 -0.503838,2.50068 -0.509156,2.5059975 -0.0053,0.00532 -0.33993,-0.3205928 -0.743583,-0.7242457 z M 2.4761844,3.4918209 2,3.014892 V 2.5155079 2.0161237 L 2.7341546,2.7497797 3.4683091,3.4834356 3.2270753,3.7260928 C 3.0943965,3.8595544 2.9783099,3.96875 2.969105,3.96875 c -0.0092,0 -0.2310192,-0.2146181 -0.4929206,-0.4769291 z m 7.9349866,-0.033767 -0.4440751,-0.4448683 0.00864,-0.49128 0.00864,-0.4912801 0.7277831,0.7283406 0.727784,0.7283406 -0.257196,0.1860337 c -0.14146,0.1023193 -0.273016,0.1958327 -0.29235,0.2078084 -0.02076,0.012858 -0.216989,-0.1603879 -0.479226,-0.4230949 z M 6.7202541,2.5859375 C 6.7210822,2.5644531 6.7906109,2.2164063 6.8747637,1.8125 L 7.0277694,1.078125 7.0216972,1.6259388 7.015625,2.1737527 6.8792272,2.3993763 C 6.7406687,2.6285738 6.7175684,2.655683 6.7202541,2.5859375 Z"
       id="path829"
       inkscape:connector-curvature="0" />
    <path
       style="fill:#13fe1b;stroke-width:0.03125"
       d="M 5.59375,12.937761 C 4.9348578,12.759479 4.3008884,12.500553 3.7966256,12.203779 3.6334816,12.107763 3.5,12.022634 3.5,12.014603 3.5,12.006571 4.5125,12 5.75,12 H 8 v 0.515625 0.515625 L 6.9609375,13.028897 5.921875,13.026544 5.59375,12.93776 Z m 8.788365,-0.07839 c 0.0065,-0.01719 0.03712,-0.087 0.06806,-0.155133 0.05364,-0.118122 0.05537,-0.244924 0.0056,-0.407367 -0.01054,-0.03438 0.0035,-0.01346 0.03129,0.04649 0.06247,0.134947 0.04352,0.307649 -0.04893,0.445891 -0.03729,0.05575 -0.06248,0.08731 -0.05599,0.07012 z m -2.600865,-0.5 -1.734375,-0.353132 1.523642,-0.0031 1.523643,-0.0031 0.134857,0.210938 c 0.160103,0.250424 0.312509,0.509068 0.29739,0.504691 -0.0059,-0.0017 -0.791251,-0.16203 -1.745157,-0.356253 z m 2.4375,-0.300656 c -0.09412,-0.05044 -0.180358,-0.05863 -0.618168,-0.05867 -0.455952,-3.1e-5 -0.510907,-0.0057 -0.529147,-0.05473 -0.01119,-0.03008 -0.16544,-0.288993 -0.342769,-0.575366 -0.177329,-0.286374 -0.322416,-0.528682 -0.322416,-0.538464 0,-0.0098 -0.127996,-0.224546 -0.284435,-0.477252 C 11.965376,10.101523 11.829272,9.8736322 11.819361,9.8478053 11.80945,9.8219784 11.662036,9.5765147 11.491773,9.3023306 11.321511,9.0281462 11.173739,8.7811588 11.163393,8.7534694 11.153046,8.72578 11.082687,8.6061291 11.00704,8.4875784 10.931394,8.3690278 10.861239,8.2505016 10.851141,8.2241866 c -0.0101,-0.026315 0.0988,0.042556 0.241998,0.1530465 0.143197,0.1104907 0.339025,0.2547103 0.435172,0.3204882 0.09615,0.065778 0.217002,0.1589031 0.268564,0.206945 0.05156,0.048042 0.232343,0.1887931 0.401733,0.3127803 l 0.307984,0.2254312 0.08515,-0.081582 0.08515,-0.081581 0.161551,0.2643694 C 12.927302,9.6894875 13,9.8163256 13,9.8259469 c 0,0.00962 0.147656,0.2553831 0.328125,0.5461391 0.180469,0.290755 0.328125,0.536649 0.328125,0.546431 0,0.0098 0.129077,0.225476 0.286838,0.479322 0.32213,0.518323 0.440831,0.728973 0.407595,0.723332 -0.01241,-0.0021 -0.07178,-0.03021 -0.131933,-0.06245 z M 2.8249351,11.505047 C 2.4764376,11.203296 2.3356002,11.025452 2.3711924,10.932076 2.3864339,10.892091 2.541182,10.630632 2.7150771,10.351056 2.8889722,10.071481 3.03125,9.8340784 3.03125,9.823495 c 0,-0.010584 0.029235,-0.066546 0.064967,-0.1243612 L 3.1611834,9.5940156 3.2906744,9.78793 c 0.07122,0.1066528 0.229119,0.29716 0.3508865,0.42335 l 0.221396,0.229435 -0.072103,0.106109 c -0.039657,0.05836 -0.072103,0.114884 -0.072103,0.125606 0,0.02106 -0.6263667,1.04632 -0.6392326,1.04632 -0.00427,0 -0.1188368,-0.09617 -0.2545832,-0.213703 z M 9.7525488,6.4259991 C 9.7167719,6.3681109 9.6875,6.3130941 9.6875,6.3037394 9.6875,6.2943847 9.5462716,6.0582887 9.3736594,5.7790812 9.2010469,5.4998741 9.0709688,5.2607109 9.0845969,5.2476081 9.1989634,5.1376491 9.8898234,4.6592794 9.9065347,4.6784766 9.9445363,4.7221313 10.375,5.4300319 10.375,5.4488709 c 0,0.010007 0.06562,0.1245207 0.145814,0.2544735 0.08563,0.138764 0.133999,0.2471543 0.117187,0.2626315 -0.08603,0.079198 -0.7662551,0.5652741 -0.7910588,0.5652741 -0.01614,0 -0.058617,-0.047363 -0.094393,-0.1052509 z M 5.8029697,5.8186419 C 5.6878987,5.7026825 5.59375,5.5969369 5.59375,5.5836522 c 0,-0.013285 0.046558,-0.097307 0.1034625,-0.1867159 C 5.7541169,5.3075275 5.80875,5.2128288 5.8186197,5.1864947 5.8408262,5.1272419 6.375,4.2601119 6.375,4.2833163 c 0,0.036042 -0.3438325,1.7271828 -0.3530303,1.7363806 -0.00538,0.00538 -0.1039291,-0.085096 -0.219,-0.201055 z"
       id="path827"
       inkscape:connector-curvature="0" />
    <path
       style="fill:#0bfd0b;stroke-width:0.03125"
       d="M 3.3254931,12.902068 C 3.2238156,12.831018 3.0391729,12.687726 2.915176,12.583642 L 2.689727,12.394399 2.756722,12.283137 c 0.036847,-0.06119 0.085565,-0.139 0.1082615,-0.172903 0.022697,-0.0339 0.041267,-0.07257 0.041267,-0.08594 C 2.90625,12.010933 2.7751966,12 2.6150202,12 H 2.3237904 L 2.1618952,11.782966 C 2.0728528,11.663598 2,11.559014 2,11.550558 c 0,-0.0085 0.075449,-0.135545 0.1676652,-0.282419 l 0.1676653,-0.267043 0.1558904,0.17914 c 0.08574,0.09853 0.2491867,0.256483 0.3632152,0.351014 0.1140286,0.09453 0.207491,0.191309 0.2076943,0.215062 2.031e-4,0.02375 -0.028902,0.09055 -0.064679,0.148437 L 2.9324025,12 h 0.2634781 0.2634781 l 0.2937582,0.177536 c 0.5018703,0.303311 1.1665025,0.57782 1.8406331,0.760225 l 0.328125,0.08878 -1.2057569,0.0024 -1.2057565,0.0024 -0.1848685,-0.129183 z m 6.6730588,0.104837 c -0.00451,-0.0701 0.00538,-0.989961 0.010695,-0.995052 0.0056,-0.0054 3.31357,0.650764 3.475443,0.68935 0.03455,0.0082 0.08718,0.05622 0.116958,0.106631 0.02978,0.05041 0.114012,0.121403 0.187185,0.157759 l 0.133042,0.0661 -1.960937,-0.0011 c -1.078516,-6.21e-4 -1.9615898,-0.01127 -1.9623863,-0.02366 z M 10.048396,6.9041616 C 9.9322466,6.7141125 9.8422013,6.5545588 9.8482953,6.5495975 c 0.00609,-0.00496 0.1798297,-0.1325356 0.3860797,-0.2834987 0.20625,-0.1509629 0.389933,-0.2861819 0.408185,-0.3004866 0.0314,-0.024612 0.13681,0.1303531 0.360496,0.5299787 l 0.08118,0.1450341 -0.378057,0.2774434 c -0.207931,0.1525938 -0.393479,0.2896369 -0.41233,0.30454 -0.02278,0.018007 -0.10512,-0.088823 -0.245455,-0.3184468 z M 5.558085,6.5740425 5.1946278,6.210585 5.3843788,5.9009134 5.57413,5.5912416 5.7996431,5.8152497 6.0251566,6.0392578 6.0593153,5.8711916 C 6.0781025,5.778755 6.1620953,5.3635053 6.2459659,4.9484144 6.3913528,4.2288675 6.4048028,4.1834641 6.5346416,3.9739309 6.6095425,3.8530559 6.6732816,3.7567384 6.6762841,3.7598916 6.6792872,3.763045 6.548175,4.4335937 6.384925,5.25 6.10658,6.6419903 6.0291209,6.9375 5.9425975,6.9375 5.9310172,6.9375 5.7579866,6.7739441 5.558085,6.5740425 Z"
       id="path825"
       inkscape:connector-curvature="0" />
    <path
       style="fill:#01fd01;stroke-width:0.03125"
       d="M 1.7800007,12.959289 C 1.625589,12.877634 1.5,12.67852 1.5,12.515364 c 0,-0.05489 0.037318,-0.168696 0.082929,-0.252897 0.045611,-0.0842 0.1045487,-0.195279 0.1309729,-0.246842 0.026424,-0.05156 0.099965,-0.176037 0.1634247,-0.27661 L 1.9927069,11.556156 2.1582487,11.778078 2.3237904,12 h 0.2912298 c 0.1601764,0 0.2912298,0.01093 0.2912298,0.0243 0,0.01336 -0.01857,0.05204 -0.041267,0.08594 -0.022697,0.0339 -0.071414,0.111709 -0.1082615,0.172903 l -0.066995,0.111262 0.225449,0.189243 c 0.1239969,0.104084 0.3086396,0.247376 0.4103171,0.318426 l 0.184869,0.129176 H 2.7132208 c -0.7718439,0 -0.801459,-0.0023 -0.9332201,-0.07196 z M 8,12.515625 V 12 h 1.0012078 1.0012082 l -0.00395,0.515625 -0.00395,0.515625 H 8.9972556 8 Z m 5.783718,0.445313 c -0.11184,-0.05941 -0.17532,-0.139357 -0.409431,-0.515625 L 13.097219,12 h 0.508975 c 0.472777,0 0.518771,0.0052 0.646704,0.07282 0.107638,0.05691 0.149303,0.102992 0.190715,0.210938 0.07281,0.189779 0.06888,0.3078 -0.01557,0.467494 -0.04918,0.09301 -0.115029,0.158855 -0.20804,0.20804 -0.170709,0.09027 -0.268748,0.09064 -0.436281,0.0016 z M 3.6516056,10.227335 C 3.4382097,10.003289 3.1875,9.6653125 3.1875,9.6016831 3.1875,9.5754528 3.2884444,9.3906719 3.4118209,9.1910584 3.5351975,8.991445 3.6568769,8.7872116 3.6822197,8.7372059 3.7075628,8.6872006 3.8667747,8.4222956 4.0360237,8.1485281 4.2052731,7.8747606 4.34375,7.6436781 4.34375,7.6350116 c 0,-0.00867 0.1711403,-0.2921991 0.3803119,-0.6300719 0.2091712,-0.3378731 0.4008484,-0.6545972 0.425949,-0.703831 L 5.1956479,6.2115917 5.5712529,6.587197 5.9468583,6.962802 5.8171789,7.1681348 C 5.7458556,7.2810684 5.6875,7.3824991 5.6875,7.3935372 5.6875,7.404575 5.5398437,7.6513247 5.359375,7.9418694 5.1789062,8.2324141 5.03125,8.4785078 5.03125,8.4887444 c 0,0.010236 -0.1476563,0.2563303 -0.328125,0.546875 -0.1804688,0.2905447 -0.3286178,0.538499 -0.32922,0.5510093 -0.00206,0.042851 -0.4860522,0.7997123 -0.518255,0.8104463 -0.017689,0.0059 -0.1095091,-0.07049 -0.2040444,-0.16974 z M 12.174245,9.2014494 C 12.003673,9.07416 11.827892,8.9356931 11.78362,8.8937456 11.739347,8.8517981 11.624653,8.7636231 11.528743,8.6978013 11.432833,8.6319794 11.230552,8.4833947 11.07923,8.3676134 10.831874,8.1783541 10.782498,8.12217 10.590143,7.8110875 10.330122,7.3905747 10.263372,7.2546419 10.300261,7.2207612 10.354603,7.1708525 11.061444,6.65625 11.075656,6.65625 c 0.01705,0 0.611844,0.9526331 0.611844,0.9799472 0,0.010269 0.147656,0.2563887 0.328125,0.5469334 0.180469,0.2905447 0.328125,0.5371035 0.328125,0.5479082 0,0.010805 0.07031,0.1318371 0.15625,0.2689612 0.08594,0.1371241 0.15625,0.2610816 0.15625,0.2754609 0,0.027535 -0.134906,0.1636916 -0.158264,0.1597316 -0.0075,-0.00127 -0.15317,-0.1064534 -0.323741,-0.2337431 z M 6.1093856,6.6171875 c 0.00925,-0.038672 0.1431166,-0.703125 0.297471,-1.4765625 L 6.6875009,3.734375 6.8750006,3.4279538 C 6.9781253,3.2594222 7.0625,3.1139597 7.0625,3.1047041 c 0,-0.00926 0.1339731,-0.2324047 0.2977184,-0.4958868 0.262145,-0.4218175 0.3137322,-0.4868107 0.4317413,-0.5439379 0.1722584,-0.083389 0.2909203,-0.081975 0.4560134,0.00543 0.1150525,0.060914 0.1767563,0.1413213 0.4616369,0.6015625 0.1808581,0.2921875 0.336965,0.5519931 0.3469037,0.5773456 0.00994,0.025352 0.1538285,0.2656891 0.3197547,0.534081 0.165926,0.2683918 0.3228053,0.528899 0.3486203,0.5789043 0.025815,0.050006 0.073667,0.1372588 0.1063363,0.193896 0.051835,0.089861 0.05343,0.106535 0.012525,0.1309156 C 9.8179687,4.7023837 9.6351562,4.8352441 9.4375,4.9822625 9.07845,5.2493269 9.03125,5.2768834 9.03125,5.2194413 9.03125,5.2026341 8.8835937,4.9511641 8.703125,4.6606194 8.5226563,4.3700747 8.375,4.1238334 8.375,4.1134172 8.375,4.0911812 8.0293513,3.53125 8.015625,3.53125 c -0.013367,0 -0.359375,0.5596287 -0.359375,0.5812481 0,0.00991 -0.1476563,0.2559107 -0.328125,0.546666 C 7.1476562,4.9499197 7,5.1964269 7,5.2069581 7,5.2174897 6.8523437,5.4638247 6.671875,5.7543694 6.4914062,6.0449141 6.34375,6.2907487 6.34375,6.3006684 6.34375,6.3248625 6.1193116,6.6875 6.1043378,6.6875 c -0.00648,0 -0.00421,-0.031641 0.00505,-0.070312 z"
       id="path823"
       inkscape:connector-curvature="0" />
    <path
       style="fill:#323232;stroke-width:0.03125"
       d="m 7.046875,14.714098 c -1.2291544,-0.107422 -2.5992569,-0.519357 -3.5,-1.052311 l -0.21875,-0.129431 0.5520966,-5.53e-4 c 0.4898297,-4.91e-4 0.5691303,0.0068 0.703125,0.0642 0.8656693,0.371155 2.2500362,0.652071 3.2213409,0.653675 L 8,14.25 v 0.25 0.25 L 7.6796875,14.7457 C 7.5035156,14.743342 7.21875,14.729119 7.046875,14.714098 Z m 7.796875,-0.204997 c -0.02578,-0.01132 -1.108594,-0.234578 -2.40625,-0.496133 l -2.359375,-0.475555 1.282431,-0.0031 1.282431,-0.0031 1.164115,0.233293 c 0.640264,0.128311 1.178546,0.242211 1.196183,0.253112 0.02169,0.0134 0.02691,-0.160717 0.01614,-0.537981 -0.0088,-0.30679 -0.01435,-0.592956 -0.01241,-0.635925 0.02415,-0.536551 0.01391,-0.607465 -0.126435,-0.875399 C 14.748082,11.715406 14.738445,11.67517 14.37276,9.8481822 14.167742,8.8239006 14,7.9786584 14,7.9698666 14,7.9610747 13.785547,8.1678359 13.523438,8.4293363 L 13.046875,8.9047913 12.913576,8.6789581 12.780277,8.453125 13.264852,7.9710678 c 0.266516,-0.2651315 0.48067,-0.4831003 0.475897,-0.484375 -0.0048,-0.00128 -0.292056,-0.2825672 -0.638407,-0.6250944 l -0.629728,-0.6227765 -0.119538,0.08284 c -0.06575,0.045562 -0.210756,0.1603822 -0.322244,0.2551562 -0.111489,0.094774 -0.218516,0.172511 -0.237839,0.1727491 -0.01932,2.5e-4 -0.09216,-0.093198 -0.161862,-0.2076366 l -0.12673,-0.2080697 0.130612,-0.1055653 c 0.07184,-0.058061 0.298924,-0.2319472 0.504639,-0.386414 l 0.374026,-0.2808488 0.743161,0.7426769 C 13.665578,6.7121822 14,7.0392159 14,7.0304519 14,7.0216878 14.225,5.8900156 14.5,4.515625 L 15,2.0167328 V 1.5083664 C 15,1.2287649 14.996235,1 14.991634,1 14.987032,1 13.858766,1.225 12.484375,1.5 11.109984,1.775 9.9817178,2 9.9771163,2 9.972515,2 9.96875,2.2283397 9.96875,2.5074215 v 0.5074216 l 0.444778,0.4455731 0.444779,0.4455732 -0.115584,0.095274 C 10.603147,4.1163128 10.307117,4.3175616 10.295172,4.3055194 10.263699,4.2737928 10.0625,3.893635 10.0625,3.8658953 10.0625,3.8470025 10.028928,3.7956191 9.9878944,3.75171 9.9468613,3.7078006 9.8132675,3.5047844 9.6910194,3.3005625 L 9.46875,2.9292502 V 2.4197845 C 9.46875,2.1357988 9.483461,1.871384 9.501988,1.8223469 9.5537044,1.6854683 9.6840225,1.5685263 9.8409838,1.5181465 9.9198491,1.4928332 11.088281,1.2519518 12.4375,0.98285456 c 2.588004,-0.516169 2.665293,-0.52705103 2.836334,-0.39934975 0.204714,0.15284091 0.209654,0.17274222 0.220102,0.88681989 l 0.0096,0.6534325 -0.48781,2.445934 c -0.268296,1.3452635 -0.509058,2.512075 -0.535027,2.5929141 -0.02885,0.089815 -0.08964,0.1842288 -0.156292,0.2427506 l -0.109076,0.09577 0.09973,0.083915 c 0.05485,0.046154 0.11999,0.13241 0.144755,0.1916812 0.02477,0.059271 0.272358,1.2271153 0.550207,2.5952099 l 0.505179,2.487443 2.19e-4,0.677432 c 2.18e-4,0.63567 -0.0037,0.682749 -0.0642,0.763694 -0.111759,0.149628 -0.218896,0.209124 -0.39521,0.219472 -0.09095,0.0053 -0.186453,4.47e-4 -0.212234,-0.01087 z M 1.2543505,11.289903 C 1.1016199,10.986137 0.93160975,10.485434 0.84151222,10.07404 0.78202,9.8023925 0.77213441,9.6394841 0.75858916,8.7075231 0.74239466,7.5932837 0.76523066,7.1948887 0.87583444,6.6620725 1.0512804,5.8168891 1.4581195,4.9779 2.0438337,4.2534084 L 2.2558223,3.9911919 1.9107347,3.6440334 C 1.7209366,3.4530963 1.5508766,3.2572878 1.5328236,3.2089031 1.4892786,3.0921964 1.4896237,1.9377819 1.5332381,1.8223469 1.5849544,1.6854683 1.7152726,1.5685262 1.8722338,1.5181465 1.9510989,1.4928332 3.1195313,1.2519518 4.46875,0.98285456 7.0567541,0.46668556 7.1340425,0.45580353 7.3050844,0.58350481 7.4941972,0.72469778 7.5150094,0.78476337 7.5232341,1.2131032 l 0.00761,0.3962718 -0.132609,0.094302 C 7.3252991,1.7555433 7.209375,1.8821058 7.140625,1.9849272 L 7.015625,2.171875 7.025872,1.5859375 C 7.0315084,1.2636719 7.0312591,1 7.0253184,1 7.0193778,1 5.8900156,1.225 4.515625,1.5 3.1412344,1.775 2.0129679,2 2.0083664,2 2.0037649,2 2,2.2286858 2,2.5081906 V 3.0163813 L 2.4821007,3.4977291 2.9642013,3.9790772 2.7294984,4.2428731 C 1.9856317,5.0789472 1.5497127,5.9085441 1.3628446,6.84375 1.2716247,7.3002719 1.2474275,7.7284206 1.2595264,8.671875 c 0.010469,0.81632 0.02089,0.9793209 0.080623,1.2610444 0.059835,0.2822016 0.1961197,0.7214446 0.3165413,1.0202056 0.03508,0.08703 0.027596,0.110223 -0.1044501,0.323644 -0.078231,0.126442 -0.1492251,0.236882 -0.1577649,0.245421 -0.00854,0.0085 -0.071596,-0.09599 -0.1401252,-0.232287 z m 4.3156314,0.07011 C 5.1856125,11.230908 4.5140006,10.916077 4.352095,10.789101 l -0.06978,-0.05473 0.1279784,-0.203125 c 0.070388,-0.111719 0.1331438,-0.208698 0.1394572,-0.215511 0.00631,-0.0068 0.065879,0.02361 0.1323691,0.06762 0.6534781,0.432452 1.7459175,0.754636 2.8549319,0.841981 L 8,11.261798 V 11.380899 11.5 L 6.9921875,11.499597 5.984375,11.499194 5.5699819,11.360008 Z m 4.3298762,-0.02541 0.1633479,-0.165402 -0.1019154,-0.09633 C 9.8596484,10.976797 8.6298894,10.058107 8.21739,9.7700866 L 8,9.6182981 V 9.2730556 8.9278131 l 0.070312,0.058564 c 0.038672,0.03221 0.1125,0.096373 0.1640625,0.1425847 0.051562,0.046212 0.1809147,0.145084 0.2874494,0.2197169 0.3715968,0.2603221 1.6197271,1.1928643 1.7388471,1.2991793 0.06602,0.05893 0.179648,0.144942 0.252495,0.191141 0.07285,0.0462 0.179216,0.123348 0.236375,0.171444 l 0.103925,0.08745 -0.199268,0.201055 L 10.454931,11.5 H 10.09572 9.73651 Z M 2.8813112,8.9367228 C 2.8655034,8.8941816 2.8353024,8.7664244 2.814198,8.6528181 2.781765,8.4782303 2.7837129,8.4041722 2.8267837,8.1743184 2.9653187,7.4350044 3.3301872,6.7875806 4.0132922,6.0689741 4.1718919,5.9021322 4.3497984,5.7121991 4.40864,5.6469009 L 4.515625,5.5281766 4.6654047,5.6805869 4.8151841,5.8329969 4.7091416,6.0206056 C 4.6508181,6.1237903 4.4920109,6.3242103 4.3562369,6.4659834 3.84894,6.9956947 3.5083444,7.5547022 3.3754459,8.07572 3.3150225,8.3126063 3.2166675,8.5214497 3.0065267,8.8590713 2.9121096,9.0107656 2.9094399,9.0124213 2.8813112,8.9367228 Z M 6.38432,7.2379841 C 6.4737253,7.0938753 6.5518234,6.9804644 6.5578712,6.9859597 6.5954597,7.0201128 6.4498394,7.3226294 6.35626,7.4047928 6.2966209,7.4571569 6.2419616,7.5 6.234795,7.5 6.2276284,7.5 6.2949147,7.3820928 6.38432,7.2379841 Z M 8.0000603,5.7305675 8.0001228,5.390625 8.1535616,5.2860487 c 0.084392,-0.057517 0.1780668,-0.1067356 0.2081675,-0.109375 0.070319,-0.00617 0.300875,0.4161907 0.2396531,0.4390213 -0.03923,0.014629 -0.3082356,0.2146272 -0.4998178,0.3716 L 8.0000019,6.07051 8.0000644,5.7305675 Z"
       id="path821"
       inkscape:connector-curvature="0" />
    <path
       style="fill:#006500;stroke-width:0.03125"
       d="M 1.6260785,13.462426 C 1.3895892,13.371639 1.1561314,13.133499 1.0645716,12.889657 1.0090361,12.741754 0.99672687,12.653773 1.0051336,12.464818 1.0145795,12.252505 1.0315486,12.196263 1.1607062,11.949193 1.2404398,11.796668 1.4372899,11.457371 1.5981507,11.195199 1.7590116,10.933027 1.971833,10.581464 2.0710872,10.413949 2.1703414,10.246433 2.3277894,9.9828125 2.4209716,9.828125 2.5141538,9.6734375 2.7352896,9.3047644 2.9123844,9.0088516 3.3543081,8.2704284 3.8277578,7.4824044 4.2976791,6.703125 4.828595,5.8226969 5.3011544,5.0358091 5.634605,4.4769262 5.8982344,4.0350684 5.98265,3.8939278 6.4244959,3.15625 7.0609937,2.0935943 7.2121672,1.8608367 7.3391534,1.7479786 c 0.371926,-0.3305473 0.9804547,-0.33065 1.3529432,-2.281e-4 0.1470937,0.1304816 0.2810365,0.345034 1.8017644,2.8861014 0.177092,0.2959128 0.393617,0.6575547 0.481167,0.8036484 0.08755,0.1460938 0.247664,0.4132813 0.35581,0.59375 0.108145,0.1804688 0.332026,0.553125 0.497514,0.828125 0.165487,0.275 0.372316,0.6195313 0.459621,0.765625 0.365555,0.6117104 0.597701,0.9982113 1.370201,2.28125 0.119007,0.1976567 0.276242,0.4615827 0.349413,0.5865027 0.07317,0.12492 0.264509,0.441326 0.425196,0.703125 0.160687,0.261799 0.357537,0.60079 0.437445,0.753315 0.129562,0.247304 0.146434,0.303111 0.155889,0.515625 0.0084,0.188956 -0.0039,0.276937 -0.05944,0.424839 -0.09378,0.249756 -0.324873,0.482431 -0.570381,0.574287 l -0.179892,0.06731 -6.2097647,-0.0016 -6.2097653,-0.0016 z M 14.251249,12.959289 c 0.154412,-0.08165 0.280001,-0.280769 0.280001,-0.443925 0,-0.130151 -0.140877,-0.397822 -0.588162,-1.117525 -0.157761,-0.253846 -0.286838,-0.46954 -0.286838,-0.479322 0,-0.0098 -0.147656,-0.255676 -0.328125,-0.546431 C 13.147656,10.08133 13,9.8348231 13,9.8242919 13,9.8137603 12.852344,9.5674253 12.671875,9.2768806 12.491406,8.9863359 12.34375,8.7402422 12.34375,8.7300056 c 0,-0.010236 -0.147656,-0.2563303 -0.328125,-0.546875 C 11.835156,7.8925859 11.6875,7.6464922 11.6875,7.6362556 c 0,-0.010237 -0.147656,-0.2563303 -0.328125,-0.546875 -0.180469,-0.2905447 -0.328125,-0.5366384 -0.328125,-0.546875 0,-0.010237 -0.147656,-0.2563303 -0.328125,-0.546875 C 10.522656,5.7050859 10.375,5.4594734 10.375,5.4498253 10.375,5.4401772 10.238864,5.2119725 10.072476,4.9427041 9.9060872,4.6734356 9.7492516,4.4122116 9.7239519,4.3622059 9.6986519,4.3122006 9.5421944,4.0516934 9.3762684,3.7833016 9.2103422,3.5149097 9.0664528,3.2745731 9.0565137,3.2492206 9.046575,3.2238681 8.8904681,2.9640625 8.70961,2.671875 8.4247294,2.2116338 8.3630256,2.1312268 8.2479731,2.0703125 8.08288,1.9829043 7.9642181,1.9814905 7.7919597,2.0648794 7.6739506,2.1220066 7.6223634,2.1869998 7.3602184,2.6088173 7.1964731,2.8722994 7.0625,3.0961588 7.0625,3.1062827 7.0625,3.1164066 6.9148437,3.3625803 6.734375,3.6533359 6.5539062,3.9440912 6.40625,4.1899853 6.40625,4.1997672 c 0,0.00978 -0.1279956,0.2245453 -0.2844347,0.4772522 C 5.9653762,4.9297266 5.8290834,5.1581091 5.8189422,5.1845363 5.8088012,5.2109634 5.6817862,5.4228319 5.5366866,5.6553553 5.3915872,5.8878788 5.2345584,6.1484375 5.1877334,6.234375 5.1409088,6.3203125 4.9318569,6.6670666 4.7231738,7.0049397 4.5144906,7.3428125 4.34375,7.626345 4.34375,7.6350116 c 0,0.00867 -0.1384769,0.239749 -0.3077263,0.5135165 C 3.8667747,8.4222956 3.7075981,8.6872006 3.6822981,8.7372059 3.6569984,8.7872116 3.5001628,9.0484356 3.3337744,9.3177041 3.1673859,9.5869725 3.03125,9.8151772 3.03125,9.8248253 c 0,0.00965 -0.1476562,0.2552607 -0.328125,0.5458057 C 2.5226562,10.661175 2.375,10.907353 2.375,10.917691 c 0,0.01034 -0.1378534,0.240509 -0.3063409,0.51149 -0.1684874,0.270982 -0.3280445,0.534882 -0.3545712,0.586444 -0.026527,0.05156 -0.085548,0.162641 -0.1311591,0.246842 C 1.537318,12.346668 1.5,12.460471 1.5,12.515364 c 0,0.163156 0.125589,0.36227 0.2800007,0.443925 l 0.1360795,0.07196 H 8.015625 14.11517 Z M 3.0293946,11.831555 C 3.0795174,11.73891 3.2551272,11.444771 3.4196384,11.177913 3.5841497,10.911055 3.71875,10.685745 3.71875,10.677224 c 0,-0.0085 0.1422434,-0.245242 0.3160962,-0.526046 C 4.2086994,9.8703737 4.3589931,9.6195313 4.3688328,9.59375 4.3786725,9.5679688 4.5317416,9.3129831 4.7089866,9.0271156 4.8862316,8.7412478 5.03125,8.4989809 5.03125,8.4887444 c 0,-0.010237 0.1476562,-0.2563303 0.328125,-0.546875 C 5.5398437,7.6513247 5.6875,7.4052309 5.6875,7.3949944 c 0,-0.010237 0.1476562,-0.2563303 0.328125,-0.546875 0.1804687,-0.2905447 0.328125,-0.5366385 0.328125,-0.546875 0,-0.010237 0.1476562,-0.2563303 0.328125,-0.546875 C 6.8523437,5.4638247 7,5.2174897 7,5.2069581 7,5.1964269 7.1476562,4.9499197 7.328125,4.6591641 7.5085937,4.3684088 7.65625,4.1224091 7.65625,4.1124981 c 0,-0.021619 0.3460081,-0.5812481 0.359375,-0.5812481 0.013726,0 0.359375,0.5599312 0.359375,0.5821672 0,0.010416 0.1476563,0.2566575 0.328125,0.5472022 0.1804687,0.2905447 0.328125,0.5361572 0.328125,0.5458053 0,0.00965 0.1361359,0.2378528 0.3025244,0.5071212 0.1663884,0.2692685 0.323224,0.5304925 0.3485237,0.5804982 0.0253,0.050005 0.1844766,0.3149103 0.3537259,0.5886778 0.169249,0.2737675 0.307726,0.50485 0.307726,0.5135165 0,0.00867 0.170741,0.2921991 0.379424,0.6300719 0.208683,0.3378731 0.417735,0.6846272 0.464559,0.7705647 0.04683,0.085937 0.203854,0.3464963 0.348954,0.5790197 0.145099,0.2325234 0.272114,0.4443919 0.282255,0.4708191 0.01014,0.026427 0.146434,0.2548092 0.302873,0.5075172 0.156439,0.252707 0.284435,0.46747 0.284435,0.477252 0,0.0098 0.145087,0.25209 0.322416,0.538464 0.177329,0.286373 0.331575,0.545287 0.342769,0.575366 C 13.090767,11.997255 12.836958,12 8.0150253,12 H 2.9382622 Z m 9.0935504,-0.448742 c -0.0389,-0.06445 -0.122348,-0.208594 -0.185439,-0.320313 -0.06309,-0.111719 -0.229361,-0.392969 -0.369487,-0.625 C 11.427893,10.205469 11.175967,9.7869341 11.008184,9.5074228 10.840402,9.2279116 10.520312,8.6967091 10.296875,8.3269725 10.073438,7.9572362 9.7537816,7.4265522 9.5865287,7.1476747 9.4192756,6.8687975 9.1461019,6.415625 8.9794756,6.140625 8.8128494,5.865625 8.6332862,5.5628209 8.5804469,5.4677272 8.5276072,5.3726331 8.3790669,5.1238734 8.2503569,4.9149278 L 8.0163391,4.5350269 7.9247134,4.6815759 C 7.8743191,4.7621778 7.7450387,4.9757812 7.6374231,5.15625 7.5298075,5.3367187 7.3063553,5.709375 7.1408622,5.984375 6.8282481,6.5038463 6.5594988,6.9518856 6.2879734,7.40625 6.2006684,7.5523438 5.9938388,7.896875 5.8283516,8.171875 5.5391675,8.6524297 5.3157984,9.0247144 4.9752344,9.59375 4.8877981,9.7398438 4.6729434,10.098437 4.4977791,10.390625 4.1734863,10.93157 3.8747522,11.434252 3.8524278,11.476563 3.8456263,11.489453 5.7196241,11.5 8.0168675,11.5 h 4.1768055 z"
       id="path819"
       inkscape:connector-curvature="0" />
  </g>
</svg>
