<?xml version="1.0" encoding="UTF-8" standalone="no"?>
<!-- Created with Inkscape (http://www.inkscape.org/) -->

<svg
   xmlns:dc="http://purl.org/dc/elements/1.1/"
   xmlns:cc="http://creativecommons.org/ns#"
   xmlns:rdf="http://www.w3.org/1999/02/22-rdf-syntax-ns#"
   xmlns:svg="http://www.w3.org/2000/svg"
   xmlns="http://www.w3.org/2000/svg"
   xmlns:sodipodi="http://sodipodi.sourceforge.net/DTD/sodipodi-0.dtd"
   xmlns:inkscape="http://www.inkscape.org/namespaces/inkscape"
   version="1.1"
   id="svg2"
   width="16"
   height="16"
   viewBox="0 0 16 16"
   sodipodi:docname="APPLYROTATEDELTA.svg"
   inkscape:version="0.92.4 (5da689c313, 2019-01-14)">
  <metadata
     id="metadata8">
    <rdf:RDF>
      <cc:Work
         rdf:about="">
        <dc:format>image/svg+xml</dc:format>
        <dc:type
           rdf:resource="http://purl.org/dc/dcmitype/StillImage" />
        <dc:title></dc:title>
      </cc:Work>
    </rdf:RDF>
  </metadata>
  <defs
     id="defs6" />
  <sodipodi:namedview
     pagecolor="#ffffff"
     bordercolor="#666666"
     borderopacity="1"
     objecttolerance="10"
     gridtolerance="10"
     guidetolerance="10"
     inkscape:pageopacity="0"
     inkscape:pageshadow="2"
     inkscape:window-width="828"
     inkscape:window-height="480"
     id="namedview4"
     showgrid="false"
     inkscape:zoom="14.75"
     inkscape:cx="8"
     inkscape:cy="8"
     inkscape:window-x="0"
     inkscape:window-y="0"
     inkscape:window-maximized="0"
     inkscape:current-layer="svg2" />
  <g
     id="APPLYROTATEDELTA">
    <path
       style="fill:#ffffff;stroke-width:0.03125"
       d="M 0,8 V 0 h 8 8 v 8 8 H 8 0 Z m 8.890625,6.717352 c 1.283842,-0.109565 2.561552,-0.483878 3.51588,-1.029998 l 0.272787,-0.156104 h 0.768557 c 0.710334,0 0.782184,-0.0051 0.948448,-0.06731 0.379167,-0.141865 0.634953,-0.524225 0.634953,-0.949156 0,-0.231928 -0.05301,-0.386246 -0.257339,-0.749163 l -0.140756,-0.25 0.118547,-0.236768 c 0.147515,-0.294628 0.318097,-0.799855 0.406786,-1.204817 0.05949,-0.2716475 0.06938,-0.4345559 0.08292,-1.3665169 0.01619,-1.1142394 -0.0066,-1.5126344 -0.117245,-2.0454506 C 14.949498,5.8206366 14.541546,4.9774662 13.962691,4.26149 L 13.757227,4.0073547 14.100625,3.66774 c 0.18887,-0.1867884 0.363025,-0.3848666 0.387012,-0.4401737 0.05394,-0.1243725 0.06238,-1.2675726 0.01037,-1.4052194 C 14.446296,1.6854683 14.315978,1.5685263 14.159016,1.5181465 14.080151,1.4928332 12.911719,1.2519518 11.5625,0.98285456 8.9744959,0.46668556 8.8972075,0.45580353 8.7261656,0.58350481 8.5387647,0.72341972 8.5164406,0.78625706 8.5052638,1.205292 c -0.0057,0.2136519 -0.014478,0.388458 -0.019509,0.388458 -0.00503,0 -0.068933,-0.021094 -0.1420053,-0.046875 -0.1703237,-0.060094 -0.4859263,-0.060094 -0.65625,0 -0.073072,0.025781 -0.1369744,0.046875 -0.1420053,0.046875 -0.00503,0 -0.01381,-0.1748061 -0.019508,-0.388458 C 7.5148094,0.78625706 7.4924853,0.72341972 7.3050844,0.58350481 7.1340425,0.45580353 7.0567541,0.46668556 4.46875,0.98285456 3.1195313,1.2519518 1.9510989,1.4928332 1.8722338,1.5181465 1.7152726,1.5685262 1.5849544,1.6854683 1.5332381,1.8223469 c -0.043614,0.115435 -0.043959,1.2698495 -4.144e-4,1.3865562 0.018053,0.048385 0.188113,0.2441931 0.3779111,0.4351303 L 2.2558224,3.9911919 2.0438338,4.2534084 C 1.4581196,4.9779 1.0512805,5.8168891 0.87583453,6.6620725 0.76523075,7.1948888 0.74239475,7.5932838 0.75858925,8.7075231 c 0.0134525,0.9255825 0.0236844,1.0959766 0.0816963,1.3605119 0.0926701,0.422577 0.23072125,0.833976 0.39681085,1.182514 l 0.141732,0.297424 -0.1466549,0.265076 C 1.0391667,12.161905 1,12.280892 1,12.518382 c 0,0.421138 0.2572629,0.80425 0.6349533,0.945562 0.1658918,0.06207 0.2384858,0.06731 0.9328229,0.06731 h 0.7529316 l 0.2727872,0.156104 c 0.9313541,0.532973 2.2335541,0.920138 3.45338,1.026744 0.4465494,0.03903 1.4047713,0.04072 1.84375,0.0033 z M 7.359375,11.214927 C 6.8781962,11.169373 6.2368022,11.037074 5.7995087,10.893176 5.410185,10.765062 4.7995109,10.481115 4.6304875,10.349612 L 4.55785,10.293099 4.7145437,10.029362 C 4.800725,9.8843066 5.0066309,9.540625 5.1721122,9.265625 5.5008437,8.7193325 5.6873316,8.4077269 5.9856622,7.90625 6.0930238,7.7257813 6.2460975,7.5148438 6.3258263,7.4375 6.4365916,7.3300478 6.4851278,7.2506675 6.5315788,7.1009944 6.5944419,6.8984391 6.6349163,6.8242394 7.1406675,5.984375 c 0.1656,-0.275 0.38914,-0.6476562 0.4967556,-0.828125 0.1076156,-0.1804687 0.236896,-0.3940722 0.2872903,-0.4746741 l 0.091626,-0.146549 0.2340178,0.3789253 c 0.12871,0.2084087 0.260485,0.4290434 0.2928331,0.4902991 0.032348,0.061256 0.1994778,0.343405 0.3713991,0.6269987 0.5080968,0.8381353 0.519869,0.8596344 0.5841925,1.0668869 0.047396,0.1527109 0.095254,0.2313065 0.2066422,0.3393631 0.079729,0.077344 0.2326578,0.2882813 0.3398429,0.46875 0.233027,0.3923516 0.58941,0.9835078 0.945471,1.5683175 0.14322,0.2352309 0.308538,0.5128572 0.367374,0.6169475 l 0.106973,0.189254 -0.13098,0.08992 c -0.42874,0.294338 -1.264053,0.60711 -1.9660966,0.73618 -0.7384962,0.135772 -1.3617353,0.1693 -2.0086334,0.108058 z M 3.34375,8.2008225 c 0,-0.086424 0.1529228,-0.5083213 0.2628897,-0.7252844 0.058517,-0.1154522 0.1760009,-0.308509 0.2610766,-0.429015 0.1497121,-0.2120612 0.6123793,-0.7389606 0.6673521,-0.7600012 0.014877,-0.00569 -0.117724,0.2263372 -0.29467,0.515625 C 4.0634528,7.091435 3.7944828,7.5355469 3.6426872,7.7890625 3.4908916,8.0425781 3.3615325,8.25 3.3552225,8.25 3.3489125,8.25 3.34375,8.22787 3.34375,8.2008225 Z M 12.4375,7.8799822 C 12.325781,7.697865 12.191621,7.47107 12.139365,7.3759928 12.08711,7.2809153 11.931101,7.0203125 11.79268,6.796875 11.654258,6.5734375 11.528858,6.3695312 11.514013,6.34375 c -0.01484,-0.025781 0.06382,0.049672 0.174811,0.1676737 0.280016,0.2977041 0.539383,0.6489394 0.684178,0.9265141 0.122076,0.2340209 0.295186,0.7015644 0.277127,0.7484763 -0.0052,0.013579 -0.10091,-0.124315 -0.212629,-0.3064319 z"
       id="path833"
       inkscape:connector-curvature="0" />
    <path
       style="fill:#cbfefe;stroke-width:0.03125"
       d="m 3.8524278,11.476563 c 0.012346,-0.0234 0.3069106,-0.521455 0.3892175,-0.658097 l 0.043465,-0.07216 0.099632,0.06568 c 0.2399994,0.158218 0.8143681,0.423443 1.1908885,0.549913 l 0.4087437,0.137295 -1.0721569,4.03e-4 c -0.5896862,2.18e-4 -1.0665918,-0.01014 -1.0597903,-0.02304 z M 10.424522,11.36185 c 0.410522,-0.137892 0.950053,-0.388317 1.186752,-0.550836 l 0.126899,-0.08713 0.0431,0.06775 c 0.0237,0.03726 0.09436,0.159151 0.157022,0.27087 0.06266,0.111719 0.145753,0.255859 0.184653,0.320313 l 0.07073,0.117187 -1.089024,-4.03e-4 -1.089024,-4.03e-4 0.408897,-0.137346 z M 1.9011918,10.397383 C 1.2254261,9.3137666 1.0661486,7.7531938 1.4879683,6.3486916 1.7369426,5.5197003 2.2164728,4.7675572 3.0325671,3.9259888 L 3.464965,3.4800938 2.7336603,2.7492858 C 2.3314427,2.3473413 2.0067439,2.0140895 2.0121073,2.008726 2.0281616,1.9926717 7.0102653,0.99984866 7.0209844,1.0105676 7.0264206,1.0160038 6.9603669,1.3779594 6.8741984,1.8149133 6.6964906,2.7160566 6.6894831,2.7345769 6.2602797,3.4375 5.7654212,4.2479481 5.5383309,4.6272119 5.367035,4.9293094 L 5.2033444,5.2179934 4.8568169,4.8724494 4.5102897,4.526905 4.4068012,4.646265 C 4.3498828,4.7119131 4.1731769,4.9021322 4.0141212,5.0689741 3.486265,5.6226716 3.15415,6.1283937 2.9583862,6.6765753 2.7328767,7.3080522 2.6910415,8.2121472 2.857964,8.8467912 L 2.9023703,9.015625 2.7246227,9.3200116 C 2.5031747,9.6992334 2.0308341,10.476688 2.0036177,10.506758 1.9924753,10.519069 1.9463837,10.46985 1.9011918,10.397383 Z M 13.755875,10.071097 C 13.613013,9.8343372 13.408744,9.4929687 13.301944,9.3125 l -0.194181,-0.328125 0.03956,-0.15625 C 13.308198,8.1926719 13.264356,7.3003025 13.041614,6.6765753 12.843571,6.1220125 12.510445,5.6175109 11.968856,5.0519431 11.801599,4.8772806 11.628453,4.6921875 11.584086,4.640625 l -0.08067,-0.09375 -0.32881,0.3265456 c -0.180845,0.1796 -0.334271,0.320225 -0.340946,0.3125 C 10.815064,5.1643944 10.002378,3.8173409 9.4311219,2.8611616 9.3549372,2.7336427 9.3093153,2.5596292 9.1695863,1.8635994 9.0764969,1.399895 9.0047916,1.0160417 9.0102413,1.0105921 9.0156909,1.0051425 10.143883,1.2255298 11.517333,1.5003418 12.890784,1.7751538 14.021688,2 14.030452,2 c 0.0088,0 -0.320419,0.3365732 -0.731519,0.7479404 l -0.747453,0.7479405 0.42513,0.4392694 c 0.644433,0.6658647 1.060026,1.2504925 1.338062,1.8822913 0.50098,1.1384118 0.570147,2.5598775 0.18109,3.7215906 -0.101509,0.3031016 -0.322616,0.7703068 -0.421877,0.8914398 l -0.05826,0.0711 z"
       id="path831"
       inkscape:connector-curvature="0" />
    <path
       style="fill:#989898;stroke-width:0.03125"
       d="M 7.171875,14.214098 C 6.2985759,14.137776 5.2388259,13.884573 4.59375,13.598112 L 4.453125,13.535665 H 8 11.546875 l -0.140625,0.06245 c -0.250278,0.111142 -0.753446,0.276835 -1.127279,0.371213 -0.9597635,0.242303 -2.1039613,0.332442 -3.107096,0.244773 z M 1.6309244,10.881846 C 1.3921323,10.326758 1.2833156,9.7958703 1.2644167,9.09375 c -0.0081,-0.3007812 -0.00813,-0.5328125 -7.19e-5,-0.515625 0.00806,0.017188 0.043545,0.1753769 0.078862,0.3515322 0.1070964,0.5341787 0.3357113,1.1270568 0.5835312,1.5132998 0.050791,0.07916 0.050675,0.09013 -0.0022,0.207373 -0.030702,0.06809 -0.094573,0.182326 -0.1419353,0.253867 l -0.086113,0.130075 -0.065572,-0.152426 z m 12.6114896,0.01659 c -0.02531,-0.03867 -0.08372,-0.144732 -0.129786,-0.23569 -0.08352,-0.164904 -0.08359,-0.165618 -0.02397,-0.25 0.217873,-0.308325 0.464401,-0.9580577 0.576521,-1.5194349 l 0.06919,-0.3464381 0.0099,0.3125 c 0.01307,0.4131084 -0.03984,0.9080225 -0.139202,1.302048 -0.08941,0.354541 -0.253006,0.807327 -0.291703,0.807327 -0.01371,0 -0.04563,-0.03164 -0.07094,-0.07031 z M 2.7643885,8.3015459 C 2.728638,8.2135197 2.7709228,7.4555116 2.8280156,7.1609503 2.9703581,6.4265566 3.3356416,5.7818428 4.0132922,5.0689741 4.1718919,4.9021322 4.3497984,4.7123547 4.40864,4.6472466 l 0.106985,-0.1183788 0.3399903,0.3417044 0.33999,0.3417041 -0.15955,0.2610493 C 4.9483025,5.6169028 4.8626259,5.7554541 4.8456625,5.7812175 4.8201828,5.819915 4.7882934,5.8019331 4.6622709,5.6778056 L 4.5097225,5.5275506 4.4065178,5.6465878 C 4.3497553,5.7120584 4.1731769,5.9021322 4.0141212,6.0689741 3.35118,6.7643697 2.9920756,7.3855366 2.8435728,8.09375 2.804512,8.2800322 2.7808594,8.3421013 2.7643885,8.3015459 Z M 13.173981,8.1790925 C 13.162204,8.0891853 13.110749,7.8904069 13.059638,7.7373622 12.864018,7.1516103 12.534849,6.642995 11.968856,6.0519431 11.801599,5.8772806 11.628616,5.6921875 11.584449,5.640625 l -0.0803,-0.09375 -0.14247,0.1390959 C 11.197071,5.8466766 11.230422,5.8664384 10.984382,5.4624103 L 10.833158,5.2140806 11.16811,4.8804778 11.503063,4.546875 l 0.08085,0.09375 c 0.04446,0.051563 0.217691,0.2366556 0.384948,0.4113181 0.691007,0.7216013 1.058468,1.3655747 1.203434,2.1090072 0.06214,0.3186925 0.100598,1.1337156 0.05483,1.1620044 -0.01907,0.011786 -0.04026,-0.045595 -0.05314,-0.1438622 z M 12.796739,3.7498628 12.547692,3.4993472 13.289471,2.7575683 14.03125,2.0157895 v 0.500284 0.5002841 L 13.538517,3.5083681 13.045785,4.0003784 Z M 2.4761844,3.4918209 2,3.014892 V 2.5155079 2.0161237 L 2.7341546,2.7497797 3.4683091,3.4834356 3.2270753,3.7260928 C 3.0943965,3.8595544 2.9783099,3.96875 2.969105,3.96875 c -0.0092,0 -0.2310192,-0.2146181 -0.4929206,-0.4769291 z M 6.7202541,2.5859375 C 6.7210822,2.5644531 6.7906109,2.2164063 6.8747637,1.8125 L 7.0277694,1.078125 7.0216972,1.6259388 7.015625,2.1737527 6.8792272,2.3993763 C 6.7406687,2.6285738 6.7175684,2.655683 6.7202541,2.5859375 Z M 9.1560447,2.4060327 9.015625,2.1737527 9.0095528,1.6259388 9.0034806,1.078125 9.1568522,1.8125 c 0.084354,0.4039063 0.1502756,0.7549485 0.1464919,0.7800938 -0.00378,0.025145 -0.070068,-0.058807 -0.1472994,-0.1865611 z"
       id="path829"
       inkscape:connector-curvature="0" />
    <path
       style="fill:#13fe1b;stroke-width:0.03125"
       d="M 5.59375,12.937761 C 4.9253775,12.756914 4.2931512,12.497439 3.7888131,12.196989 l -0.3044381,-0.181364 2.2578125,-0.008 c 1.2417969,-0.0044 3.2738281,-0.0044 4.5156255,0 l 2.257812,0.008 -0.304438,0.181364 c -0.516446,0.307663 -1.217791,0.591459 -1.870657,0.756952 l -0.304981,0.07731 -2.0568371,-0.0024 -2.0568369,-0.0024 z M 2.8249351,11.505047 C 2.4764376,11.203296 2.3356002,11.025452 2.3711924,10.932076 2.3864339,10.892091 2.541182,10.630632 2.7150771,10.351056 2.8889722,10.071481 3.03125,9.8340784 3.03125,9.823495 c 0,-0.010584 0.029235,-0.066546 0.064967,-0.1243612 L 3.1611834,9.5940156 3.2906744,9.78793 c 0.07122,0.1066528 0.229119,0.29716 0.3508865,0.42335 l 0.221396,0.229435 -0.072103,0.106109 c -0.039657,0.05836 -0.072103,0.114884 -0.072103,0.125606 0,0.02106 -0.6263667,1.04632 -0.6392326,1.04632 -0.00427,0 -0.1188368,-0.09617 -0.2545832,-0.213703 z M 12.6875,11.305214 c -0.128906,-0.209951 -0.265617,-0.442015 -0.303802,-0.5157 -0.03819,-0.07369 -0.104215,-0.185169 -0.146734,-0.247741 l -0.07731,-0.113769 0.22486,-0.242411 c 0.123672,-0.133326 0.274078,-0.3203014 0.334234,-0.4155002 0.06016,-0.095199 0.122501,-0.1694456 0.138545,-0.1649925 0.01604,0.00445 0.07021,0.08458 0.120373,0.1780603 0.05016,0.09348 0.221966,0.3809014 0.381786,0.6387144 0.159821,0.257812 0.29549,0.490227 0.301486,0.516477 0.006,0.02625 -0.04498,0.115919 -0.113272,0.199265 -0.12487,0.152386 -0.561506,0.550125 -0.603354,0.549604 -0.01234,-1.57e-4 -0.127908,-0.172057 -0.256814,-0.382007 z M 5.8029697,5.8186419 C 5.6878987,5.7026825 5.59375,5.5969369 5.59375,5.5836522 c 0,-0.013285 0.046558,-0.097307 0.1034625,-0.1867159 C 5.7541169,5.3075275 5.80875,5.2128288 5.8186197,5.1864947 5.8408262,5.1272419 6.375,4.2601119 6.375,4.2833163 c 0,0.036042 -0.3438325,1.7271828 -0.3530303,1.7363806 -0.00538,0.00538 -0.1039291,-0.085096 -0.219,-0.201055 z M 10,6.0293719 C 10,6.0200416 9.9226562,5.6271366 9.828125,5.15625 9.7335938,4.6853634 9.6568103,4.2853062 9.6574953,4.2672337 c 6.844e-4,-0.018072 0.026213,0.01636 0.05673,0.076516 0.030517,0.060156 0.1887753,0.3273437 0.3516857,0.59375 0.441995,0.7227944 0.423427,0.6194981 0.158908,0.8840169 C 10.101169,5.9451675 10,6.0387022 10,6.0293719 Z"
       id="path827"
       inkscape:connector-curvature="0" />
    <path
       style="fill:#0bfd0b;stroke-width:0.03125"
       d="M 3.3254931,12.902068 C 3.2238156,12.831018 3.0391729,12.687726 2.915176,12.583642 L 2.689727,12.394399 2.756722,12.283137 c 0.036847,-0.06119 0.085565,-0.139 0.1082615,-0.172903 0.022697,-0.0339 0.041267,-0.07257 0.041267,-0.08594 C 2.90625,12.010933 2.7751966,12 2.6150202,12 H 2.3237904 L 2.1618952,11.782966 C 2.0728528,11.663598 2,11.559014 2,11.550558 c 0,-0.0085 0.075449,-0.135545 0.1676652,-0.282419 l 0.1676653,-0.267043 0.1558904,0.17914 c 0.08574,0.09853 0.2491867,0.256483 0.3632152,0.351014 0.1140286,0.09453 0.207491,0.191309 0.2076943,0.215062 2.031e-4,0.02375 -0.028902,0.09055 -0.064679,0.148437 L 2.9324025,12 h 0.2634781 0.2634781 l 0.2937582,0.177536 c 0.5018703,0.303311 1.1665025,0.57782 1.8406331,0.760225 l 0.328125,0.08878 -1.2057569,0.0024 -1.2057565,0.0024 -0.1848685,-0.129183 z m 7.0807569,0.03569 c 0.674131,-0.182405 1.338763,-0.456914 1.840633,-0.760225 L 12.540641,12 h 0.276943 0.276942 l 0.108987,0.170374 c 0.05994,0.0937 0.108987,0.182024 0.108987,0.196263 0,0.03347 -0.399683,0.368904 -0.637993,0.535431 l -0.184869,0.129182 -1.205756,-0.0024 -1.205757,-0.0024 z m 2.615672,-1.087657 -0.07838,-0.149895 0.204672,-0.170417 c 0.11257,-0.09373 0.275038,-0.251276 0.36104,-0.350104 0.086,-0.09883 0.164805,-0.179323 0.175118,-0.178878 C 13.711349,11.001976 14,11.485104 14,11.529088 c 0,0.02026 -0.07285,0.13451 -0.161895,0.253878 L 13.67621,12 H 13.388255 13.1003 Z M 5.558085,6.5740425 5.1946278,6.210585 5.3843787,5.9009134 5.57413,5.5912416 5.7996431,5.8152497 6.0251566,6.0392578 6.0593153,5.8711916 C 6.0781025,5.778755 6.1620953,5.3635053 6.2459659,4.9484144 6.3913528,4.2288675 6.4048028,4.1834641 6.5346416,3.9739309 6.6095425,3.8530559 6.6732816,3.7567384 6.6762841,3.7598916 6.6792872,3.763045 6.548175,4.4335937 6.384925,5.25 6.10658,6.6419903 6.0291209,6.9375 5.9425975,6.9375 5.9310172,6.9375 5.7579866,6.7739441 5.558085,6.5740425 Z m 4.447286,0.261895 C 9.9629247,6.7666603 9.8487894,6.2625134 9.646325,5.25 9.483075,4.4335937 9.3522597,3.7627488 9.3556244,3.7592331 c 0.00336,-0.00352 0.070243,0.1019535 0.1486194,0.234375 0.1366196,0.2308278 0.14861,0.2717272 0.2904621,0.9907669 0.081378,0.4125 0.16238,0.8184506 0.1800047,0.9021128 l 0.032044,0.1521125 0.223496,-0.222004 0.223496,-0.2220041 0.191976,0.3042666 0.191976,0.3042662 -0.363674,0.3671875 C 10.274005,6.7722656 10.100732,6.9375 10.088975,6.9375 c -0.01176,0 -0.04938,-0.045703 -0.0836,-0.1015625 z"
       id="path825"
       inkscape:connector-curvature="0" />
    <path
       style="fill:#01fd01;stroke-width:0.03125"
       d="M 1.7800007,12.959289 C 1.625589,12.877634 1.5,12.67852 1.5,12.515364 c 0,-0.05489 0.037318,-0.168696 0.082929,-0.252897 0.045611,-0.0842 0.1045487,-0.195279 0.1309729,-0.246842 0.026424,-0.05156 0.099965,-0.176037 0.1634247,-0.27661 L 1.9927069,11.556156 2.1582487,11.778078 2.3237904,12 h 0.2912298 c 0.1601764,0 0.2912298,0.01093 0.2912298,0.0243 0,0.01336 -0.01857,0.05204 -0.041267,0.08594 -0.022697,0.0339 -0.071414,0.111709 -0.1082615,0.172903 l -0.066995,0.111262 0.225449,0.189243 c 0.1239969,0.104084 0.3086396,0.247376 0.4103171,0.318426 l 0.184869,0.129176 H 2.7132208 c -0.7718439,0 -0.801459,-0.0023 -0.9332201,-0.07196 z m 10.8945063,-0.05722 c 0.23831,-0.166527 0.637993,-0.501958 0.637993,-0.535431 0,-0.01424 -0.04904,-0.102558 -0.108987,-0.196263 L 13.094526,12 h 0.29146 0.291459 l 0.173307,-0.234954 0.173307,-0.234954 0.146449,0.242766 c 0.08055,0.133522 0.161488,0.270355 0.17987,0.304075 0.211119,0.38728 0.22272,0.459102 0.108911,0.674316 -0.04918,0.09301 -0.115029,0.158855 -0.20804,0.20804 -0.131958,0.06978 -0.160691,0.07196 -0.948845,0.07196 H 12.489638 Z M 3.6516056,10.227335 C 3.4382097,10.003289 3.1875,9.6653125 3.1875,9.6016831 3.1875,9.5754528 3.2884444,9.3906719 3.4118209,9.1910584 3.5351975,8.991445 3.6568769,8.7872116 3.6822197,8.7372059 3.7075628,8.6872006 3.8667747,8.4222956 4.0360237,8.1485281 4.2052731,7.8747606 4.34375,7.6436781 4.34375,7.6350116 c 0,-0.00867 0.1711403,-0.2921991 0.3803119,-0.6300719 0.2091712,-0.3378731 0.4008484,-0.6545972 0.425949,-0.703831 L 5.1956479,6.2115917 5.5712529,6.587197 5.9468583,6.962802 5.8171789,7.1681348 C 5.7458556,7.2810684 5.6875,7.3824991 5.6875,7.3935372 5.6875,7.404575 5.5398437,7.6513247 5.359375,7.9418694 5.1789062,8.2324141 5.03125,8.4785078 5.03125,8.4887444 c 0,0.010236 -0.1476563,0.2563303 -0.328125,0.546875 -0.1804688,0.2905447 -0.3286178,0.538499 -0.32922,0.5510093 -0.00206,0.042851 -0.4860522,0.7997123 -0.518255,0.8104463 -0.017689,0.0059 -0.1095091,-0.07049 -0.2040444,-0.16974 z m 8.3936844,0.0025 C 11.980947,10.129204 11.890227,9.9765878 11.84369,9.8906413 11.797154,9.804695 11.633048,9.5304688 11.479011,9.28125 11.324974,9.0320312 11.177665,8.7859375 11.151658,8.734375 11.125652,8.6828125 10.933233,8.3641834 10.724062,8.0263103 10.51489,7.6884375 10.34375,7.4044841 10.34375,7.3953028 c 0,-0.00918 -0.05849,-0.1099734 -0.12997,-0.2239828 l -0.12997,-0.20729 0.37187,-0.3728422 0.371871,-0.3728422 0.05378,0.070515 c 0.02958,0.038783 0.07893,0.1194406 0.109662,0.1792391 0.03074,0.059798 0.200026,0.3429087 0.376198,0.6291343 0.176171,0.2862257 0.320312,0.5287854 0.320312,0.5390219 0,0.010237 0.147656,0.2563303 0.328125,0.546875 0.180469,0.2905447 0.328125,0.5368225 0.328125,0.5472841 0,0.010461 0.113384,0.2009497 0.251964,0.4233075 0.25013,0.4013462 0.251614,0.4049637 0.203858,0.4973122 -0.06186,0.1196231 -0.384022,0.5212413 -0.52691,0.6568623 l -0.110385,0.104772 -0.116987,-0.18288 z M 6.1093856,6.6171875 c 0.00925,-0.038672 0.1431166,-0.703125 0.297471,-1.4765625 L 6.6875009,3.734375 6.8750006,3.4279538 C 6.9781253,3.2594222 7.0625,3.1139597 7.0625,3.1047041 7.0625,3.0954485 7.1964731,2.8722994 7.3602184,2.6088173 7.6223634,2.1869998 7.6739506,2.1220066 7.7919597,2.0648794 7.9642181,1.9814905 8.08288,1.9829043 8.2479731,2.0703125 8.3630319,2.1312302 8.4247078,2.211608 8.7095669,2.671875 8.8904016,2.9640625 9.047305,3.2242188 9.0582413,3.25 c 0.010936,0.025781 0.079786,0.1463609 0.1530006,0.2679553 0.1324787,0.22002 0.1345253,0.2281119 0.4268287,1.6875 0.1615416,0.8065306 0.2900975,1.4701488 0.28568,1.4747063 C 9.9145316,6.6896728 9.6875,6.3269578 9.6875,6.3027178 9.6875,6.293925 9.5452566,6.0569822 9.3714038,5.7761781 9.1975506,5.4953738 9.0472569,5.2445313 9.0374172,5.21875 9.0275775,5.1929688 8.8745084,4.9379831 8.6972634,4.6521156 8.5200184,4.3662478 8.375,4.1238334 8.375,4.1134172 8.375,4.0911812 8.0293513,3.53125 8.015625,3.53125 c -0.013367,0 -0.359375,0.5596287 -0.359375,0.5812481 0,0.00991 -0.1476563,0.2559107 -0.328125,0.546666 C 7.1476562,4.9499197 7,5.1964269 7,5.2069581 7,5.2174897 6.8523437,5.4638247 6.671875,5.7543694 6.4914062,6.0449141 6.34375,6.2907487 6.34375,6.3006684 6.34375,6.3248625 6.1193116,6.6875 6.1043378,6.6875 c -0.00648,0 -0.00421,-0.031641 0.00505,-0.070312 z"
       id="path823"
       inkscape:connector-curvature="0" />
    <path
       style="fill:#323232;stroke-width:0.03125"
       d="m 7.046875,14.714098 c -1.2291544,-0.107422 -2.5992569,-0.519357 -3.5,-1.052311 l -0.21875,-0.129431 0.5520966,-5.53e-4 c 0.4898297,-4.91e-4 0.5691303,0.0068 0.703125,0.0642 C 5.5226972,13.998749 6.8332212,14.249355 8,14.249355 c 1.1667788,0 2.477303,-0.250606 3.416653,-0.653352 0.133995,-0.05745 0.213296,-0.06469 0.703125,-0.0642 l 0.552097,5.53e-4 -0.21875,0.129431 c -0.923322,0.546313 -2.269658,0.945231 -3.5625,1.055565 -0.4389787,0.03746 -1.3972006,0.03577 -1.84375,-0.0033 z M 1.2543505,11.289903 C 1.1016199,10.986137 0.93160975,10.485434 0.84151222,10.07404 0.78202,9.8023925 0.77213441,9.6394841 0.75858916,8.7075231 0.74239466,7.5932837 0.76523066,7.1948887 0.87583444,6.6620725 1.0512804,5.8168891 1.4581195,4.9779 2.0438337,4.2534084 L 2.2558223,3.9911919 1.9107347,3.6440334 C 1.7209366,3.4530963 1.5508766,3.2572878 1.5328236,3.2089031 1.4892786,3.0921964 1.4896237,1.9377819 1.5332381,1.8223469 1.5849544,1.6854683 1.7152726,1.5685262 1.8722338,1.5181465 1.9510989,1.4928332 3.1195313,1.2519518 4.46875,0.98285456 7.0567541,0.46668556 7.1340425,0.45580353 7.3050844,0.58350481 7.4941972,0.72469778 7.5150094,0.78476337 7.5232341,1.2131032 l 0.00761,0.3962718 -0.132609,0.094302 C 7.3252991,1.7555433 7.209375,1.8821058 7.140625,1.9849272 L 7.015625,2.171875 7.025872,1.5859375 C 7.0315084,1.2636719 7.0312591,1 7.0253184,1 7.0193778,1 5.8900156,1.225 4.515625,1.5 3.1412344,1.775 2.0129679,2 2.0083664,2 2.0037649,2 2,2.2286858 2,2.5081906 V 3.0163813 L 2.4821007,3.4977291 2.9642013,3.9790772 2.7294984,4.2428731 C 1.9856317,5.0789472 1.5497127,5.9085441 1.3628446,6.84375 1.2716247,7.3002719 1.2474275,7.7284206 1.2595264,8.671875 c 0.010469,0.81632 0.02089,0.9793209 0.080623,1.2610444 0.059835,0.2822016 0.1961197,0.7214446 0.3165413,1.0202056 0.03508,0.08703 0.027596,0.110223 -0.1044501,0.323644 -0.078231,0.126442 -0.1492251,0.236882 -0.1577649,0.245421 -0.00854,0.0085 -0.071596,-0.09599 -0.1401252,-0.232287 z m 4.3156314,0.07011 C 5.1856125,11.230908 4.5140006,10.916077 4.352095,10.789101 l -0.06978,-0.05473 0.1279784,-0.203125 c 0.070388,-0.111719 0.1331438,-0.208698 0.1394572,-0.215511 0.00631,-0.0068 0.065879,0.02361 0.1323691,0.06762 0.8776559,0.580805 2.5025265,0.94266 3.7808287,0.841981 1.1203438,-0.08824 2.2401336,-0.421443 2.8703756,-0.854109 l 0.130199,-0.08938 0.127613,0.202062 c 0.07019,0.111134 0.127614,0.214601 0.127614,0.229925 0,0.08849 -0.757292,0.467666 -1.294228,0.648019 l -0.408897,0.137346 H 8 5.984375 Z m 8.8920571,-0.105144 -0.147337,-0.243513 0.09488,-0.232239 C 14.543027,10.452446 14.67704,9.912605 14.715693,9.5459894 14.757906,9.1456019 14.75818,7.7959944 14.71613,7.390625 14.59106,6.1849256 14.145488,5.2186081 13.2567,4.2255444 L 13.051421,3.9961806 13.541335,3.5055475 14.03125,3.0149143 V 2.5074571 C 14.03125,2.2283557 14.027485,2 14.022884,2 14.018282,2 12.890016,1.775 11.515625,1.5 10.141234,1.225 9.0118722,1 9.0059316,1 8.9999909,1 8.9997416,1.2636719 9.0053784,1.5859375 L 9.015625,2.171875 8.890625,1.9849272 C 8.821875,1.8821058 8.7059509,1.7555433 8.6330159,1.7036772 L 8.5004069,1.609375 8.5080159,1.2131032 C 8.5162406,0.78476338 8.5370528,0.72469778 8.7261656,0.58350481 8.8972075,0.45580353 8.9744959,0.46668556 11.5625,0.98285456 c 1.349219,0.26909724 2.517651,0.50997864 2.596516,0.53529194 0.156962,0.05038 0.28728,0.1673218 0.338996,0.3042004 0.05201,0.1376468 0.04357,1.2808469 -0.01037,1.4052193 C 14.463652,3.2828732 14.2895,3.4809516 14.10063,3.66774 L 13.757227,4.0073547 13.962691,4.26149 c 0.578855,0.7159762 0.986807,1.5591466 1.161475,2.4005825 0.110603,0.5328162 0.133439,0.9312112 0.117245,2.0454506 -0.01683,1.1577278 -0.03711,1.3211789 -0.242558,1.9542619 -0.09497,0.292667 -0.337129,0.838918 -0.371223,0.837405 -0.01004,-4.47e-4 -0.08456,-0.110392 -0.165591,-0.244324 z M 2.8813112,8.9367228 C 2.8655034,8.8941816 2.8353024,8.7664244 2.814198,8.6528181 2.781765,8.4782303 2.7837129,8.4041722 2.8267837,8.1743184 2.9653187,7.4350044 3.3301872,6.7875806 4.0132922,6.0689741 4.1718919,5.9021322 4.3497984,5.7121991 4.40864,5.6469009 L 4.515625,5.5281766 4.6654047,5.6805869 4.8151841,5.8329969 4.7091416,6.0206056 C 4.6508181,6.1237903 4.4920109,6.3242103 4.3562369,6.4659834 3.84894,6.9956947 3.5083444,7.5547022 3.3754459,8.07572 3.3150225,8.3126063 3.2166675,8.5214497 3.0065267,8.8590713 2.9121096,9.0107656 2.9094399,9.0124213 2.8813112,8.9367228 Z M 13.014238,8.8426603 C 12.813615,8.5273538 12.67778,8.2534159 12.619638,8.046875 12.480826,7.5537569 12.18964,7.0614 11.755961,6.5865112 11.623776,6.4417659 11.447702,6.2132266 11.364684,6.0786459 L 11.213743,5.8339537 11.35851,5.6904144 11.503277,5.546875 l 0.08074,0.09375 c 0.04441,0.051563 0.217585,0.2366556 0.384842,0.4113181 0.696729,0.7275772 1.064413,1.375526 1.20436,2.1223753 0.0431,0.229995 0.04503,0.3038047 0.01252,0.4784997 -0.06424,0.3451457 -0.06919,0.3506278 -0.171493,0.1898422 z M 6.38432,7.2379841 C 6.4737253,7.0938753 6.5518234,6.9804644 6.5578712,6.9859597 6.5954597,7.0201128 6.4498394,7.3226294 6.35626,7.4047928 6.2966209,7.4571569 6.2419616,7.5 6.234795,7.5 6.2276284,7.5 6.2949147,7.3820928 6.38432,7.2379841 Z M 9.6476856,7.3823697 C 9.6021687,7.3348603 9.5432878,7.234655 9.5168391,7.1596906 9.4231884,6.8942572 9.4533887,6.9235309 9.7147825,7.3515625 c 0.084146,0.1377891 0.050291,0.1533334 -0.067097,0.030807 z"
       id="path821"
       inkscape:connector-curvature="0" />
    <path
       style="fill:#006500;stroke-width:0.03125"
       d="M 1.6260785,13.462426 C 1.3895892,13.371639 1.1561314,13.133499 1.0645716,12.889657 1.0090361,12.741754 0.99672687,12.653773 1.0051336,12.464818 1.0145795,12.252505 1.0315486,12.196263 1.1607062,11.949193 1.2404398,11.796668 1.4372899,11.457371 1.5981507,11.195199 1.7590116,10.933027 1.971833,10.581464 2.0710872,10.413949 2.1703414,10.246433 2.3277894,9.9828125 2.4209716,9.828125 2.5141538,9.6734375 2.7352896,9.3047644 2.9123844,9.0088516 3.3543081,8.2704284 3.8277578,7.4824044 4.2976791,6.703125 4.828595,5.8226969 5.3011544,5.0358091 5.634605,4.4769262 5.8982344,4.0350684 5.98265,3.8939278 6.4244959,3.15625 7.0609937,2.0935943 7.2121672,1.8608367 7.3391534,1.7479786 c 0.371926,-0.3305473 0.9804547,-0.33065 1.3529432,-2.281e-4 0.1470937,0.1304816 0.2810365,0.345034 1.8017644,2.8861014 0.177092,0.2959128 0.393617,0.6575547 0.481167,0.8036484 0.08755,0.1460938 0.247664,0.4132813 0.35581,0.59375 0.108145,0.1804688 0.332026,0.553125 0.497514,0.828125 0.165487,0.275 0.372316,0.6195313 0.459621,0.765625 0.365555,0.6117104 0.597701,0.9982113 1.370201,2.28125 0.119007,0.1976567 0.276242,0.4615827 0.349413,0.5865027 0.07317,0.12492 0.264509,0.441326 0.425196,0.703125 0.160687,0.261799 0.357537,0.60079 0.437445,0.753315 0.129562,0.247304 0.146434,0.303111 0.155889,0.515625 0.0084,0.188956 -0.0039,0.276937 -0.05944,0.424839 -0.09378,0.249756 -0.324873,0.482431 -0.570381,0.574287 l -0.179892,0.06731 -6.2097647,-0.0016 -6.2097653,-0.0016 z M 14.251249,12.959289 c 0.154412,-0.08165 0.280001,-0.280769 0.280001,-0.443925 0,-0.130151 -0.140877,-0.397822 -0.588162,-1.117525 -0.157761,-0.253846 -0.286838,-0.46954 -0.286838,-0.479322 0,-0.0098 -0.147656,-0.255676 -0.328125,-0.546431 C 13.147656,10.08133 13,9.8348231 13,9.8242919 13,9.8137603 12.852344,9.5674253 12.671875,9.2768806 12.491406,8.9863359 12.34375,8.7402422 12.34375,8.7300056 c 0,-0.010236 -0.147656,-0.2563303 -0.328125,-0.546875 C 11.835156,7.8925859 11.6875,7.6464922 11.6875,7.6362556 c 0,-0.010237 -0.147656,-0.2563303 -0.328125,-0.546875 -0.180469,-0.2905447 -0.328125,-0.5366384 -0.328125,-0.546875 0,-0.010237 -0.147656,-0.2563303 -0.328125,-0.546875 C 10.522656,5.7050859 10.375,5.4594734 10.375,5.4498253 10.375,5.4401772 10.238864,5.2119725 10.072476,4.9427041 9.9060872,4.6734356 9.7492516,4.4122116 9.7239519,4.3622059 9.6986519,4.3122006 9.5421944,4.0516934 9.3762684,3.7833016 9.2103422,3.5149097 9.0664528,3.2745731 9.0565137,3.2492206 9.046575,3.2238681 8.8904681,2.9640625 8.70961,2.671875 8.4247294,2.2116338 8.3630256,2.1312268 8.2479731,2.0703125 8.08288,1.9829043 7.9642181,1.9814905 7.7919597,2.0648794 7.6739506,2.1220066 7.6223634,2.1869998 7.3602184,2.6088173 7.1964731,2.8722994 7.0625,3.0961588 7.0625,3.1062827 7.0625,3.1164066 6.9148437,3.3625803 6.734375,3.6533359 6.5539062,3.9440912 6.40625,4.1899853 6.40625,4.1997672 c 0,0.00978 -0.1279956,0.2245453 -0.2844347,0.4772522 C 5.9653762,4.9297266 5.8290834,5.1581091 5.8189422,5.1845363 5.8088012,5.2109634 5.6817862,5.4228319 5.5366866,5.6553553 5.3915872,5.8878788 5.2345584,6.1484375 5.1877334,6.234375 5.1409088,6.3203125 4.9318569,6.6670666 4.7231738,7.0049397 4.5144906,7.3428125 4.34375,7.626345 4.34375,7.6350116 c 0,0.00867 -0.1384769,0.239749 -0.3077263,0.5135165 C 3.8667747,8.4222956 3.7075981,8.6872006 3.6822981,8.7372059 3.6569984,8.7872116 3.5001628,9.0484356 3.3337744,9.3177041 3.1673859,9.5869725 3.03125,9.8151772 3.03125,9.8248253 c 0,0.00965 -0.1476562,0.2552607 -0.328125,0.5458057 C 2.5226562,10.661175 2.375,10.907353 2.375,10.917691 c 0,0.01034 -0.1378534,0.240509 -0.3063409,0.51149 -0.1684874,0.270982 -0.3280445,0.534882 -0.3545712,0.586444 -0.026527,0.05156 -0.085548,0.162641 -0.1311591,0.246842 C 1.537318,12.346668 1.5,12.460471 1.5,12.515364 c 0,0.163156 0.125589,0.36227 0.2800007,0.443925 l 0.1360795,0.07196 H 8.015625 14.11517 Z M 3.0293946,11.831555 C 3.0795174,11.73891 3.2551272,11.444771 3.4196384,11.177913 3.5841497,10.911055 3.71875,10.685745 3.71875,10.677224 c 0,-0.0085 0.1422434,-0.245242 0.3160962,-0.526046 C 4.2086994,9.8703737 4.3589931,9.6195313 4.3688328,9.59375 4.3786725,9.5679688 4.5317416,9.3129831 4.7089866,9.0271156 4.8862316,8.7412478 5.03125,8.4989809 5.03125,8.4887444 c 0,-0.010237 0.1476562,-0.2563303 0.328125,-0.546875 C 5.5398437,7.6513247 5.6875,7.4052309 5.6875,7.3949944 c 0,-0.010237 0.1476562,-0.2563303 0.328125,-0.546875 0.1804687,-0.2905447 0.328125,-0.5366385 0.328125,-0.546875 0,-0.010237 0.1476562,-0.2563303 0.328125,-0.546875 C 6.8523437,5.4638247 7,5.2174897 7,5.2069581 7,5.1964269 7.1476562,4.9499197 7.328125,4.6591641 7.5085937,4.3684088 7.65625,4.1224091 7.65625,4.1124981 c 0,-0.021619 0.3460081,-0.5812481 0.359375,-0.5812481 0.013726,0 0.359375,0.5599312 0.359375,0.5821672 0,0.010416 0.1476563,0.2566575 0.328125,0.5472022 0.1804687,0.2905447 0.328125,0.5361572 0.328125,0.5458053 0,0.00965 0.1361359,0.2378528 0.3025244,0.5071212 0.1663884,0.2692685 0.323224,0.5304925 0.3485237,0.5804982 0.0253,0.050005 0.1844766,0.3149103 0.3537259,0.5886778 0.169249,0.2737675 0.307726,0.50485 0.307726,0.5135165 0,0.00867 0.170741,0.2921991 0.379424,0.6300719 0.208683,0.3378731 0.417735,0.6846272 0.464559,0.7705647 0.04683,0.085937 0.203854,0.3464963 0.348954,0.5790197 0.145099,0.2325234 0.272114,0.4443919 0.282255,0.4708191 0.01014,0.026427 0.146434,0.2548092 0.302873,0.5075172 0.156439,0.252707 0.284435,0.46747 0.284435,0.477252 0,0.0098 0.145087,0.25209 0.322416,0.538464 0.177329,0.286373 0.331575,0.545287 0.342769,0.575366 C 13.090767,11.997255 12.836958,12 8.0150253,12 H 2.9382622 Z m 9.0935504,-0.448742 c -0.0389,-0.06445 -0.122348,-0.208594 -0.185439,-0.320313 -0.06309,-0.111719 -0.229361,-0.392969 -0.369487,-0.625 C 11.427893,10.205469 11.175967,9.7869341 11.008184,9.5074228 10.840402,9.2279116 10.520312,8.6967091 10.296875,8.3269725 10.073438,7.9572362 9.7537816,7.4265522 9.5865287,7.1476747 9.4192756,6.8687975 9.1461019,6.415625 8.9794756,6.140625 8.8128494,5.865625 8.6332862,5.5628209 8.5804469,5.4677272 8.5276072,5.3726331 8.3790669,5.1238734 8.2503569,4.9149278 L 8.0163391,4.5350269 7.9247134,4.6815759 C 7.8743191,4.7621778 7.7450387,4.9757812 7.6374231,5.15625 7.5298075,5.3367187 7.3063553,5.709375 7.1408622,5.984375 6.8282481,6.5038463 6.5594988,6.9518856 6.2879734,7.40625 6.2006684,7.5523438 5.9938388,7.896875 5.8283516,8.171875 5.5391675,8.6524297 5.3157984,9.0247144 4.9752344,9.59375 4.8877981,9.7398438 4.6729434,10.098437 4.4977791,10.390625 4.1734863,10.93157 3.8747522,11.434252 3.8524278,11.476563 3.8456263,11.489453 5.7196241,11.5 8.0168675,11.5 h 4.1768055 z"
       id="path819"
       inkscape:connector-curvature="0" />
  </g>
</svg>
