<?xml version="1.0" encoding="UTF-8" standalone="no"?>
<!-- Created with Inkscape (http://www.inkscape.org/) -->

<svg
   xmlns:dc="http://purl.org/dc/elements/1.1/"
   xmlns:cc="http://creativecommons.org/ns#"
   xmlns:rdf="http://www.w3.org/1999/02/22-rdf-syntax-ns#"
   xmlns:svg="http://www.w3.org/2000/svg"
   xmlns="http://www.w3.org/2000/svg"
   xmlns:sodipodi="http://sodipodi.sourceforge.net/DTD/sodipodi-0.dtd"
   xmlns:inkscape="http://www.inkscape.org/namespaces/inkscape"
   version="1.1"
   id="svg2"
   width="16"
   height="16"
   viewBox="0 0 16 16"
   sodipodi:docname="CLEAR_TILT.svg"
   inkscape:version="0.92.4 (5da689c313, 2019-01-14)">
  <metadata
     id="metadata8">
    <rdf:RDF>
      <cc:Work
         rdf:about="">
        <dc:format>image/svg+xml</dc:format>
        <dc:type
           rdf:resource="http://purl.org/dc/dcmitype/StillImage" />
        <dc:title></dc:title>
      </cc:Work>
    </rdf:RDF>
  </metadata>
  <defs
     id="defs6" />
  <sodipodi:namedview
     pagecolor="#ffffff"
     bordercolor="#666666"
     borderopacity="1"
     objecttolerance="10"
     gridtolerance="10"
     guidetolerance="10"
     inkscape:pageopacity="0"
     inkscape:pageshadow="2"
     inkscape:window-width="1000"
     inkscape:window-height="821"
     id="namedview4"
     showgrid="false"
     inkscape:zoom="14.75"
     inkscape:cx="8"
     inkscape:cy="8"
     inkscape:window-x="0"
     inkscape:window-y="0"
     inkscape:window-maximized="0"
     inkscape:current-layer="svg2" />
  <g
     id="CLEAR_TILT">
    <path
       style="fill:#ffffff;stroke-width:0.03125"
       d="M 0,8 V 0 h 8 8 v 8 8 H 8 0 Z m 10.313761,7.437261 c 0.370534,-0.07027 0.46074,-0.137464 1.295614,-0.965089 0.609721,-0.604426 0.835723,-0.807759 1.029355,-0.926102 0.771994,-0.471826 1.554209,-1.252886 1.92377,-1.920929 0.06016,-0.108743 0.212041,-0.307806 0.337522,-0.442362 0.248331,-0.266292 0.362021,-0.475051 0.416189,-0.764211 0.03742,-0.199746 0.01838,-0.5752321 -0.03647,-0.7192914 C 15.257214,9.6401231 15.246622,9.2620094 15.248768,8.59375 15.250561,8.0351562 15.236676,7.4375 15.217911,7.265625 15.095146,6.14117 14.68097,5.1499172 13.962691,4.26149 L 13.757227,4.0073547 14.100625,3.66774 c 0.18887,-0.1867884 0.363025,-0.3848666 0.387012,-0.4401738 0.05394,-0.1243724 0.06238,-1.2675725 0.01037,-1.4052193 C 14.446296,1.6854683 14.315978,1.5685262 14.159016,1.5181465 14.080151,1.4928332 12.911719,1.2519518 11.5625,0.98285456 8.9744959,0.46668556 8.8972075,0.45580353 8.7261656,0.58350481 8.5214584,0.73634066 8.5165122,0.75626637 8.506065,1.4701566 L 8.496505,2.123421 8.6909984,3.0962438 C 8.8797031,4.0401134 8.8838841,4.0715266 8.8314791,4.1517209 8.8017719,4.1971806 8.7423644,4.3076922 8.6994622,4.3973022 8.6242069,4.5544872 8.6179413,4.5594431 8.5216666,4.5379272 8.4667813,4.5256609 8.2179688,4.5156491 7.96875,4.5156781 7.5826934,4.5157094 7.4816016,4.5264125 7.2857575,4.5878941 7.1593303,4.6275834 7.0504584,4.654625 7.04382,4.6479866 7.0371813,4.6413481 7.1445669,4.0744759 7.2824544,3.3882706 L 7.5331594,2.140625 7.5243922,1.4787609 C 7.5148059,0.75507037 7.5103134,0.73673028 7.3050844,0.58350481 7.1340425,0.45580353 7.0567541,0.46668556 4.46875,0.98285456 3.1195313,1.2519518 1.9510989,1.4928332 1.8722338,1.5181465 1.7152726,1.5685262 1.5849544,1.6854683 1.5332381,1.8223469 c -0.043614,0.115435 -0.043959,1.2698495 -4.144e-4,1.3865562 0.018053,0.048385 0.188113,0.2441931 0.3779111,0.4351303 L 2.2558224,3.9911919 2.0438338,4.2534084 C 1.4581196,4.9779 1.0512805,5.8168891 0.87583453,6.6620725 0.76523075,7.1948888 0.74239475,7.5932838 0.75858925,8.7075231 0.77567647,9.8831844 0.79708887,10.047795 1.0193402,10.71208 1.7612133,12.929457 4.0946425,14.460649 7.125,14.718602 c 0.2148437,0.01829 0.6556712,0.03168 0.9796169,0.02976 l 0.5889918,-0.0035 0.2587154,0.252526 c 0.4193606,0.409328 0.8273572,0.541145 1.3614369,0.439859 z M 8.0391628,9.9921875 7.5321609,9.484375 H 8.047335 8.5625091 l -4.4e-6,0.5078125 C 8.5625022,10.271484 8.5588247,10.5 8.5543322,10.5 8.54984,10.5 8.3180138,10.271484 8.0391628,9.9921875 Z M 4.5457697,10.288929 C 3.9331759,9.8721119 3.5136541,9.3221 3.3609847,8.7356219 3.2971847,8.4905353 3.2997925,8.3723166 3.3755506,8.0753113 3.5039606,7.5718875 3.8329581,7.0237469 4.3220591,6.4983403 l 0.212684,-0.2284716 0.4804144,0.4796644 c 0.4675059,0.4667763 0.4809941,0.4839325 0.5019822,0.6385031 0.049156,0.3620132 0.2301034,0.8018347 0.4521591,1.0990416 l 0.11876,0.1589528 -0.2137594,0.033087 C 5.5701916,8.7261888 5.3416878,8.8417778 5.1067356,9.0673906 4.7871366,9.3742853 4.6322275,9.7679972 4.6629459,10.195313 c 0.0071,0.09883 0.01202,0.179627 0.010923,0.179553 -0.0011,-6.2e-5 -0.058742,-0.03875 -0.1280994,-0.08594 z M 11.46875,8.2792178 V 6.2736416 l 0.210938,0.226585 c 0.487266,0.5234125 0.816527,1.0723481 0.944761,1.5750847 0.07576,0.2970053 0.07837,0.415224 0.01457,0.6603106 -0.146048,0.5610415 -0.527021,1.076554 -1.114688,1.5083371 -0.05312,0.03903 -0.05558,-0.04797 -0.05558,-1.9647412 z"
       id="path829"
       inkscape:connector-curvature="0" />
    <path
       style="fill:#cbfefe;stroke-width:0.03125"
       d="M 6.96875,13.196746 C 4.2500956,12.89842 2.1609854,11.500058 1.5042382,9.5390322 1.1151807,8.3773191 1.1843483,6.9558534 1.6853285,5.8174416 1.9647736,5.1824394 2.3814956,4.5973834 3.0325671,3.9259888 L 3.464965,3.4800938 2.7336603,2.7492858 C 2.3314427,2.3473413 2.0067439,2.0140895 2.0121073,2.008726 2.0280143,1.992819 7.0102134,0.99979672 7.0208331,1.0104166 7.0261862,1.0157697 6.839455,1.9752503 6.6058747,3.1425956 L 6.1811831,5.2650422 6.0764013,5.3810228 c -0.05763,0.06379 -0.1435144,0.1764206 -0.1908541,0.2502916 -0.04734,0.073871 -0.090695,0.1406919 -0.096344,0.1484912 -0.00565,0.0078 -0.2956712,-0.270964 -0.6444928,-0.619474 L 4.5104897,4.5266769 4.4069016,4.6461509 C 4.3499278,4.7118616 4.1731769,4.9021322 4.0141213,5.0689741 3.1617988,5.9630219 2.8147604,6.7135931 2.760058,7.78125 c -0.049477,0.9656622 0.2468846,1.7832484 0.8770042,2.419435 0.368875,0.372426 0.6934015,0.603618 1.2231228,0.871346 l 0.34294,0.173326 0.9841891,0.986697 c 0.5413037,0.542683 0.9631787,0.984445 0.9375,0.981695 -0.025679,-0.0028 -0.095908,-0.0104 -0.1560641,-0.017 z m 6.199736,-4.4410535 c 0.07136,-0.4162631 0.08676,-0.6241775 0.07103,-0.9588175 -0.05095,-1.0837997 -0.398105,-1.8337444 -1.27066,-2.7449319 -0.167257,-0.1746625 -0.339562,-0.3592987 -0.3829,-0.4103025 -0.068,-0.080031 -0.08571,-0.086998 -0.129252,-0.050861 -0.04253,0.035295 -0.05045,0.034693 -0.05045,-0.00384 0,-0.1167409 -0.200274,-0.4330525 -0.388827,-0.6141103 C 10.674322,3.64337 10.252999,3.5121769 9.7756891,3.5861769 9.6498413,3.6056878 9.5384072,3.6118578 9.5280575,3.5998881 9.5058497,3.5742038 8.9962069,1.0246266 9.0104363,1.0103972 9.0157784,1.0050548 10.143883,1.2255298 11.517333,1.5003418 12.890784,1.7751538 14.021688,2 14.030452,2 c 0.0088,0 -0.320419,0.3365732 -0.731519,0.7479404 l -0.747453,0.7479405 0.42513,0.4392694 c 0.644433,0.6658647 1.060026,1.2504925 1.338062,1.8822913 0.357234,0.811769 0.504402,1.8155572 0.401493,2.7384587 -0.01861,0.1668903 -0.03872,0.30832 -0.04469,0.3142881 -0.006,0.00597 -0.106758,-0.028555 -0.223977,-0.076719 -0.189003,-0.077658 -0.252034,-0.087585 -0.556876,-0.087702 -0.30071,-1.25e-4 -0.368674,0.010206 -0.542807,0.08243 L 13.14876,8.87076 Z"
       id="path827"
       inkscape:connector-curvature="0" />
    <path
       style="fill:#fecb32;stroke-width:0.03125"
       d="M 7.5625,8.9514053 C 6.8323191,8.7945809 6.2007041,8.1571794 6.0468547,7.421875 5.7547406,6.02575 6.9553684,4.7890459 8.3646278,5.0344578 L 8.5625,5.0689159 V 7 8.9310841 L 8.3646278,8.9655422 C 8.1056881,9.0106344 7.8143684,9.0055 7.5625,8.9514053 Z"
       id="path825"
       inkscape:connector-curvature="0" />
    <path
       style="fill:#fe9832;stroke-width:0.03125"
       d="M 9.8170866,14.936056 C 9.7422653,14.920849 9.6227341,14.873702 9.5514616,14.831284 9.4801888,14.788866 8.4978375,13.828615 7.3684581,12.697393 5.0880787,10.413292 5.1774606,10.519049 5.1772156,10.104713 5.1769031,9.5778525 5.5794794,9.1773475 6.109375,9.1773475 c 0.3940863,0 0.3895088,-0.00354 1.7421875,1.3469615 0.84579,0.844428 1.2115388,1.190304 1.2129319,1.147027 0.0011,-0.03408 0.00461,-1.594773 0.00781,-3.468211 l 0.00582,-3.40625 0.086868,-0.1768919 C 9.3335081,4.2768316 9.63995,4.0835975 10.015625,4.0835975 c 0.375675,0 0.682117,0.1932341 0.850632,0.5363856 l 0.08687,0.1768919 0.0058,3.40625 c 0.0032,1.873438 0.0067,3.434129 0.0078,3.468204 0.0014,0.04328 0.36225,-0.297711 1.197307,-1.131397 1.335557,-1.3333664 1.332922,-1.3313345 1.726562,-1.3313345 0.373893,0 0.682573,0.1935459 0.848028,0.5317228 0.06767,0.1383063 0.08424,0.2162344 0.08413,0.3956427 -2.5e-4,0.414428 0.08925,0.308574 -2.191242,2.591664 -1.630273,1.632125 -2.085615,2.071163 -2.209667,2.130543 -0.18229,0.08726 -0.41269,0.116928 -0.6047884,0.07789 z"
       id="path823"
       inkscape:connector-curvature="0" />
    <path
       style="fill:#989898;stroke-width:0.03125"
       d="M 7.171875,14.214098 C 4.3587516,13.968245 2.1794684,12.555248 1.5043667,10.539416 1.3383031,10.043555 1.2806296,9.69608 1.2644167,9.09375 c -0.0081,-0.3007812 -0.00813,-0.5328125 -7.19e-5,-0.515625 0.00806,0.017188 0.043545,0.1753769 0.078862,0.3515322 0.3589113,1.7901888 1.6660344,3.1390048 3.7288056,3.8477418 0.5643894,0.193916 1.1514663,0.321186 1.9605266,0.425013 0.1340281,0.0172 0.1704819,0.04682 0.655895,0.5329 L 8.2024147,14.25 7.8433947,14.2457 C 7.6459341,14.243342 7.34375,14.229119 7.171875,14.214098 Z m 7.509619,-5.2930202 c -0.01685,-0.01685 0.03249,-0.3325553 0.05564,-0.3559737 0.0071,-0.00716 0.01287,0.073698 0.01287,0.1796875 0,0.1730372 -0.02008,0.2247109 -0.06851,0.1762862 z M 2.7643885,8.3015459 C 2.728638,8.2135197 2.7709228,7.4555116 2.8280156,7.1609503 2.9703581,6.4265566 3.3356416,5.7818428 4.0132922,5.0689741 4.1718919,4.9021322 4.3497984,4.7124134 4.40864,4.6473772 L 4.515625,4.5291291 5.1498397,5.1646847 5.7840547,5.8002403 5.7068375,5.9669056 C 5.6643681,6.0585713 5.6051291,6.2240494 5.575195,6.3346347 L 5.5207697,6.5356984 5.0155984,6.0312234 4.5104272,5.5267481 4.4068703,5.6461866 C 4.3499137,5.7118778 4.1731769,5.9021322 4.0141212,6.0689741 3.35118,6.7643697 2.9920756,7.3855366 2.8435728,8.09375 2.804512,8.2800322 2.7808594,8.3421013 2.7643885,8.3015459 Z M 13.173981,8.1790925 C 13.142999,7.9425778 12.988,7.5002106 12.827589,7.1904872 12.602213,6.7553303 12.346208,6.4383706 11.559305,5.6202262 c -0.07842,-0.08153 -0.08192,-0.1013734 -0.09802,-0.5558543 -0.0111,-0.3131291 -0.0057,-0.478116 0.01613,-0.4915966 0.01806,-0.01116 0.0676,0.020635 0.110089,0.070655 0.04249,0.05002 0.214104,0.2338506 0.381361,0.4085131 0.691007,0.7216013 1.058468,1.3655747 1.203434,2.1090072 0.06214,0.3186925 0.100598,1.1337156 0.05483,1.1620044 -0.01907,0.011786 -0.04026,-0.045595 -0.05314,-0.1438622 z M 6.1890234,5.2339153 C 6.1898609,5.2169806 6.3783172,4.275 6.6078144,3.140625 l 0.4172675,-2.0625 0.00313,0.46875 0.00313,0.46875 -0.2992022,1.5 -0.2992025,1.5 -0.1227207,0.1245403 c -0.067496,0.068498 -0.1220353,0.110685 -0.1211975,0.09375 z M 12.796739,3.7498628 12.547692,3.4993472 13.289471,2.7575683 14.03125,2.0157895 v 0.500284 0.5002841 L 13.538517,3.5083681 13.045785,4.0003784 Z M 2.4761844,3.4918209 2,3.014892 V 2.5155079 2.0161237 L 2.7341546,2.7497797 3.4683091,3.4834356 3.2270753,3.7260928 C 3.0943965,3.8595544 2.9783099,3.96875 2.969105,3.96875 c -0.0092,0 -0.2310192,-0.2146181 -0.4929206,-0.4769291 z M 9.3279822,3.6475928 C 9.3188881,3.6093856 9.2413719,3.2273584 9.1557238,2.798644 9.0082166,2.0602918 9.0001634,1.9943363 9.0030956,1.548644 l 0.0031,-0.470519 0.2596018,1.28125 C 9.4085744,3.0640625 9.5231969,3.6412931 9.52051,3.64211 9.51782,3.6429256 9.477126,3.660125 9.430071,3.680328 9.352683,3.713555 9.342938,3.71043 9.3279822,3.6475928 Z"
       id="path821"
       inkscape:connector-curvature="0" />
    <path
       style="fill:#323232;stroke-width:0.03125"
       d="m 9.6930091,15.435313 c -0.2613597,-0.05143 -0.47282,-0.176455 -0.740685,-0.437911 l -0.2587153,-0.252526 -0.5889919,0.0035 C 7.7806712,14.750283 7.3398437,14.73689 7.125,14.718602 4.0946425,14.460649 1.7612133,12.929457 1.0193401,10.71208 0.79708878,10.047795 0.77567637,9.8831844 0.75858916,8.7075231 0.74239466,7.5932837 0.76523066,7.1948887 0.87583444,6.6620725 1.0512804,5.8168891 1.4581195,4.9779 2.0438337,4.2534084 L 2.2558223,3.9911919 1.9107347,3.6440334 C 1.7209366,3.4530963 1.5508766,3.2572878 1.5328236,3.2089031 1.4892786,3.0921964 1.4896237,1.9377819 1.5332381,1.8223469 1.5849544,1.6854683 1.7152726,1.5685262 1.8722338,1.5181465 1.9510989,1.4928332 3.1195313,1.2519518 4.46875,0.98285456 7.0567541,0.46668556 7.1340425,0.45580353 7.3050844,0.58350481 7.5103134,0.73673028 7.5148059,0.75507037 7.5243922,1.4787609 l 0.00877,0.6618641 -0.250705,1.2476456 C 7.1445669,4.0744759 7.0371813,4.6413481 7.04382,4.6479866 c 0.00664,0.00664 0.1155103,-0.020403 0.2419375,-0.060093 0.1958441,-0.061482 0.2969359,-0.07217 0.6829925,-0.072216 0.2492188,-2.9e-5 0.4980313,0.00998 0.5529166,0.022249 0.096275,0.021516 0.1025403,0.01656 0.1777956,-0.140625 C 8.7423642,4.3076916 8.8017719,4.19718 8.8314791,4.1517203 8.8838841,4.0715263 8.8797031,4.0401128 8.6909984,3.0962432 L 8.496505,2.123421 8.506065,1.4701566 C 8.5165122,0.75626638 8.5214584,0.73634066 8.7261656,0.58350481 8.8972075,0.45580353 8.9744959,0.46668556 11.5625,0.98285456 c 1.349219,0.26909724 2.517651,0.50997874 2.596516,0.53529194 0.156962,0.05038 0.28728,0.1673218 0.338996,0.3042004 0.05201,0.1376468 0.04357,1.2808469 -0.01037,1.4052194 C 14.463652,3.2828733 14.2895,3.4809516 14.10063,3.66774 L 13.757227,4.0073547 13.962691,4.26149 c 0.718279,0.8884272 1.132455,1.87968 1.25522,3.004135 0.01876,0.171875 0.03265,0.7695313 0.03086,1.328125 -0.0021,0.6682594 0.0084,1.0463731 0.03097,1.1055266 0.05485,0.1440593 0.07389,0.5195464 0.03647,0.7192914 -0.05417,0.28916 -0.167858,0.497919 -0.416189,0.764211 -0.125481,0.134556 -0.277366,0.333619 -0.337522,0.442362 -0.369561,0.668043 -1.151776,1.449103 -1.92377,1.920929 -0.193632,0.118343 -0.419634,0.321676 -1.029355,0.926103 -0.636685,0.631156 -0.813477,0.789189 -0.955411,0.854032 -0.2931,0.133904 -0.636705,0.172917 -0.9609549,0.109108 z M 10.421875,14.85817 c 0.124052,-0.05938 0.579394,-0.498418 2.209667,-2.130543 2.280497,-2.28309 2.190997,-2.177236 2.191242,-2.591664 3.13e-4,-0.5268605 -0.402263,-0.9273655 -0.932159,-0.9273655 -0.39364,0 -0.391005,-0.00203 -1.726562,1.3313345 -0.835057,0.833686 -1.195914,1.174679 -1.197307,1.131397 -0.0011,-0.03407 -0.0046,-1.594766 -0.0078,-3.468204 l -0.0058,-3.40625 -0.08687,-0.1768919 C 10.697742,4.2768316 10.3913,4.0835975 10.015625,4.0835975 c -0.375675,0 -0.6821169,0.1932341 -0.8506319,0.5363856 l -0.086868,0.1768919 -0.00582,3.40625 c -0.0032,1.873438 -0.00672,3.434133 -0.00781,3.468211 -0.00139,0.04328 -0.3671419,-0.302599 -1.2129319,-1.147027 C 6.4988838,9.1738087 6.5034613,9.1773475 6.109375,9.1773475 c -0.3738931,0 -0.6825731,0.1935459 -0.8480275,0.5317228 -0.067667,0.1383063 -0.084238,0.2162344 -0.084132,0.3956427 2.5e-4,0.414336 -0.089137,0.308579 2.1912425,2.59268 1.1293794,1.131222 2.1117307,2.091473 2.1830035,2.133891 0.2550443,0.15179 0.5879875,0.162074 0.8704135,0.02689 z M 6.7030028,12.747703 5.203125,11.245407 4.860185,11.072056 C 3.8593978,10.566172 3.2384409,9.9296547 2.9404061,9.1041703 2.792034,8.6932156 2.7673712,8.4913825 2.8267837,8.1743184 2.965466,7.4342181 3.3317303,6.7847716 4.0141213,6.0689741 4.1731769,5.9021322 4.3499138,5.7118778 4.4068703,5.6461866 L 4.5104272,5.5267481 5.0155984,6.0312234 5.5207697,6.5356984 5.5784309,6.3225369 C 5.6817162,5.9407138 5.88149,5.5917356 6.1708378,5.2876806 L 6.4313994,5.013875 6.7313728,3.51475 7.0313463,2.015625 7.0312838,1.5078125 C 7.0312716,1.2285156 7.027485,1 7.0228837,1 7.0182822,1 5.8900156,1.225 4.515625,1.5 3.1412344,1.775 2.0129679,2 2.0083664,2 2.0037649,2 2,2.2286858 2,2.5081906 V 3.0163813 L 2.4821007,3.4977291 2.9642013,3.9790772 2.7294984,4.2428731 C 1.9856317,5.0789472 1.5497127,5.9085441 1.3628446,6.84375 1.2716247,7.3002719 1.2474275,7.7284206 1.2595264,8.671875 c 0.010431,0.8133691 0.021018,0.9799075 0.079959,1.2577822 0.3041807,1.4340498 1.1137093,2.4955438 2.5306052,3.3182528 1.0281266,0.596974 2.5568653,0.980855 3.9735375,0.997794 L 8.2028809,14.25 Z M 8.5625047,9.9921875 8.5625091,9.484375 H 8.047335 7.5321609 L 8.0391628,9.9921875 C 8.3180138,10.271484 8.54984,10.5 8.5543322,10.5 c 0.00449,0 0.00817,-0.228516 0.00817,-0.5078125 z M 4.6629459,10.195313 C 4.6322275,9.7679972 4.7871366,9.3742853 5.1067356,9.0673906 5.3416878,8.8417778 5.5701916,8.7261888 5.8742994,8.6791175 L 6.0880587,8.6460306 5.9692987,8.4870778 C 5.7472431,8.1898709 5.5662953,7.7500494 5.5171397,7.3880362 5.4961516,7.2334656 5.4826634,7.2163094 5.0151575,6.7495331 L 4.5347431,6.2698687 4.3220591,6.4983403 C 3.9899428,6.8551091 3.75991,7.1758831 3.5925456,7.515625 3.4339391,7.8375887 3.3125,8.2366716 3.3125,8.4359331 c 0,0.4600053 0.4318947,1.2300219 0.8977747,1.6006249 0.1606097,0.127763 0.4476612,0.337239 0.4635944,0.338308 0.0011,6.3e-5 -0.00382,-0.08073 -0.010923,-0.179553 z M 11.789509,10.036558 C 12.255385,9.6663406 12.6875,8.8961166 12.6875,8.4359331 12.6875,8.2366716 12.566061,7.8375887 12.407454,7.515625 12.240353,7.1764162 12.010061,6.8551072 11.679688,6.5002266 L 11.46875,6.2736416 v 2.0055762 c 0,1.9167702 0.0025,2.0037682 0.05558,1.9647412 0.03057,-0.02246 0.149899,-0.115789 0.265182,-0.207401 z M 8.3646278,8.9655422 8.5625,8.9310841 V 7 5.0689159 L 8.3646278,5.0344578 c -0.663385,-0.1155234 -1.3000231,0.08465 -1.7727719,0.5573981 -0.787539,0.7875394 -0.787539,2.0287488 0,2.8162882 0.4731397,0.4731393 1.1088385,0.6730168 1.7727719,0.5573981 z M 14.745644,8.3203125 C 14.751547,7.4553897 14.691039,6.9447187 14.512032,6.3486916 14.298275,5.6369625 13.866829,4.9072559 13.256701,4.2255444 L 13.051421,3.9961806 13.541336,3.5055475 14.03125,3.0149143 V 2.5074571 C 14.03125,2.2283557 14.027485,2 14.022884,2 14.018282,2 12.890016,1.775 11.515625,1.5 10.141234,1.225 9.0129678,1 9.0083663,1 9.003765,1 9,1.2293117 9,1.5095815 9,1.9957344 9.00716,2.0550005 9.1557238,2.798644 9.2413718,3.2273584 9.3186506,3.6084394 9.3274544,3.64549 l 0.016007,0.067365 0.1581743,-0.060102 c 0.335701,-0.1275562 0.8029783,-0.107479 1.1452233,0.049206 0.2335,0.1068997 0.550692,0.4188765 0.666387,0.6554312 0.118015,0.2412966 0.155504,0.4456378 0.155504,0.847596 0,0.3082296 0.0035,0.3251243 0.08594,0.4106218 0.783313,0.8127419 1.048963,1.141421 1.270455,1.5718916 0.280419,0.5449944 0.427757,1.1229191 0.365418,1.4333284 -0.052,0.2589272 -0.05515,0.2553238 0.150548,0.1722388 0.365396,-0.14759 0.852205,-0.1286888 1.190141,0.04621 0.09453,0.048925 0.180494,0.091039 0.191028,0.093588 0.01054,0.00255 0.02105,-0.2730997 0.02337,-0.6125528 z"
       id="path819"
       inkscape:connector-curvature="0" />
  </g>
</svg>
