<?xml version="1.0" encoding="UTF-8" standalone="no"?>
<!-- Created with Inkscape (http://www.inkscape.org/) -->

<svg
   xmlns:dc="http://purl.org/dc/elements/1.1/"
   xmlns:cc="http://creativecommons.org/ns#"
   xmlns:rdf="http://www.w3.org/1999/02/22-rdf-syntax-ns#"
   xmlns:svg="http://www.w3.org/2000/svg"
   xmlns="http://www.w3.org/2000/svg"
   xmlns:sodipodi="http://sodipodi.sourceforge.net/DTD/sodipodi-0.dtd"
   xmlns:inkscape="http://www.inkscape.org/namespaces/inkscape"
   version="1.1"
   id="svg2"
   width="16"
   height="16"
   viewBox="0 0 16 16"
   sodipodi:docname="EXPORT.svg"
   inkscape:version="0.92.4 (5da689c313, 2019-01-14)">
  <metadata
     id="metadata8">
    <rdf:RDF>
      <cc:Work
         rdf:about="">
        <dc:format>image/svg+xml</dc:format>
        <dc:type
           rdf:resource="http://purl.org/dc/dcmitype/StillImage" />
        <dc:title></dc:title>
      </cc:Work>
    </rdf:RDF>
  </metadata>
  <defs
     id="defs6" />
  <sodipodi:namedview
     pagecolor="#ffffff"
     bordercolor="#666666"
     borderopacity="1"
     objecttolerance="10"
     gridtolerance="10"
     guidetolerance="10"
     inkscape:pageopacity="0"
     inkscape:pageshadow="2"
     inkscape:window-width="828"
     inkscape:window-height="480"
     id="namedview4"
     showgrid="false"
     inkscape:zoom="14.75"
     inkscape:cx="8"
     inkscape:cy="8"
     inkscape:window-x="0"
     inkscape:window-y="0"
     inkscape:window-maximized="0"
     inkscape:current-layer="svg2" />
  <g
     id="EXPORT">
    <path
       style="fill:#ffffff;stroke-width:0.03125"
       d="m 0.00395304,13.429688 c 0.00251106,-1.632725 0.01392218,-2.490518 0.03128253,-2.351563 0.0402058,0.321814 0.16862396,0.796733 0.30498971,1.127919 0.57968925,1.407871 1.81875632,2.41782 3.33884032,2.72145 0.3807881,0.07606 1.2610806,0.07606 1.6418688,0 1.6281431,-0.325214 2.9532631,-1.486705 3.4493012,-3.023372 0.046782,-0.144923 0.089488,-0.269353 0.094903,-0.27651 0.00541,-0.0072 0.1900221,0.0737 0.4102381,0.179687 C 9.4955928,11.913285 9.6971588,12 9.7233012,12 c 0.026143,0 0.057073,0.0095 0.068735,0.0212 0.011662,0.01166 -0.2154016,0.261271 -0.504585,0.554688 -0.557655,0.565817 -0.6274763,0.656417 -0.7255479,0.941467 -0.088111,0.2561 -0.086304,0.742003 0.00375,1.008673 0.1342338,0.397488 0.5108253,0.77408 0.9083138,0.908313 0.146945,0.04963 0.2718593,0.06566 0.5115812,0.06566 0.3681317,0 0.5939247,-0.06268 0.8425747,-0.233893 0.197792,-0.136195 4.357527,-4.304629 4.448957,-4.45826 0.137357,-0.230805 0.191668,-0.454955 0.191668,-0.791046 0,-0.3987854 -0.07285,-0.6320957 -0.284828,-0.9121532 l -0.151486,-0.2001409 -0.0084,-3.085066 -0.0084,-3.0850659 -0.07738,-0.15625 C 14.775643,2.2497867 14.761743,2.2413777 12.557363,1.1378219 11.434407,0.57564822 10.445313,0.09016548 10.359375,0.05897134 10.206428,0.00345367 10.264395,0.00223091 13.101563,0.00112737 L 16,0 v 8 8 H 8 0 Z m 0,-8.3593755 L 0,0 4.9140625,0.00112737 C 9.69836,0.00222497 9.8239991,0.00375244 9.671875,0.05897134 9.5859375,0.09016548 8.5968431,0.57564822 7.4738872,1.1378219 5.2695072,2.2413777 5.2556069,2.2497867 5.0930044,2.578125 l -0.077379,0.15625 -0.00888,1.640625 -0.00888,1.640625 -0.5223738,0.0016 C 3.5298753,6.0201281 2.7737499,6.2489891 1.9933704,6.7685087 0.93928641,7.4702397 0.19097414,8.6753169 0.03523557,9.921875 0.01873487,10.053949 0.00633976,8.1316103 0.00395304,5.0703125 Z"
       id="path859"
       inkscape:connector-curvature="0" />
    <path
       style="fill:#fefefe;stroke-width:0.03125"
       d="m 9.503375,14.643115 c -0.133805,-0.09872 -0.2732228,-0.29044 -0.3316716,-0.456101 -0.061639,-0.174704 -0.059323,-0.482596 0.00505,-0.671525 0.1752057,-0.514201 0.9060916,-0.687961 1.3916776,-0.330857 0.121084,0.08905 0.275317,0.269834 0.275317,0.322719 0,0.03449 -1.1770311,1.211399 -1.2115242,1.211399 -0.014483,0 -0.072467,-0.03404 -0.1288513,-0.07564 z m 3.884554,-3.869677 c -0.05113,-0.03867 -0.250425,-0.228516 -0.442877,-0.421875 L 12.595139,10 h 0.690869 0.69087 l -0.01553,0.137795 c -0.0085,0.07579 -0.04515,0.198834 -0.08134,0.273438 -0.06874,0.141687 -0.316839,0.432517 -0.368963,0.432517 -0.01658,0 -0.07198,-0.03164 -0.123112,-0.07031 z M 2.8331945,9.9532978 C 2.7672327,9.9281763 2.6561126,9.8655928 2.5862609,9.8142234 2.4455471,9.7107413 2.25,9.4551997 2.25,9.3747969 2.25,9.3463609 2.312597,9.2781412 2.3891044,9.2231978 2.6303467,9.0499506 2.7271772,9.03125 3.3829931,9.03125 h 0.593885 L 3.9613469,9.169045 C 3.9011878,9.7027744 3.2903528,10.127406 2.8331945,9.9532978 Z M 11.778723,9.8125 C 11.884113,9.709375 11.977015,9.625 11.985171,9.625 11.993327,9.625 12,9.709375 12,9.8125 V 10 h -0.206449 -0.206448 z"
       id="path857"
       inkscape:connector-curvature="0" />
    <path
       style="fill:#fdfdfd;stroke-width:0.03125"
       d="M 9.3745475,14.765291 C 9.2344288,14.661915 9.0790184,14.436238 9.0317928,14.267563 c -0.086101,-0.307524 -0.00213,-0.693162 0.2045506,-0.939438 0.078429,-0.09345 0.078403,-0.09321 -0.00821,0.07622 -0.1006766,0.196944 -0.1343697,0.542814 -0.072232,0.741481 0.053211,0.170125 0.2297338,0.419448 0.3584828,0.506325 0.1130272,0.07627 0.1167835,0.106871 0.019509,0.158931 -0.042564,0.02278 -0.081606,0.01156 -0.1593447,-0.0458 z m 1.4029185,-1.375454 c -0.08715,-0.129148 -0.336294,-0.305658 -0.506636,-0.358936 -0.194072,-0.0607 -0.5450069,-0.02841 -0.7290753,0.06709 -0.1301031,0.0675 0.112914,-0.188571 1.3941693,-1.469059 0.853457,-0.852944 1.574844,-1.569473 1.603083,-1.592286 0.0451,-0.03644 0.09625,0.0034 0.420836,0.328125 0.203221,0.203282 0.410285,0.399298 0.460142,0.435592 l 0.09065,0.06599 -1.315855,1.316823 C 11.471058,12.907429 10.872822,13.5 10.865365,13.5 c -0.0075,0 -0.04701,-0.04957 -0.0879,-0.110163 z M 2.6434603,9.9508356 C 2.5097233,9.9018353 2.3283779,9.777375 2.2412984,9.674825 2.1362178,9.5510763 2.1254838,9.5132159 2.1753104,9.4420784 c 0.0466,-0.066531 0.049133,-0.064919 0.1625763,0.103495 0.1264369,0.1877044 0.3097522,0.3379797 0.4953078,0.406036 0.1173936,0.043056 0.1179474,0.043987 0.026181,0.043987 -0.051563,0 -0.1487241,-0.020142 -0.2159152,-0.044761 z m 0.6795953,7.75e-4 C 3.6644103,9.8264106 3.96875,9.4349475 3.96875,9.1210709 V 9.03125 L 7.6796875,9.0310938 C 9.7207031,9.031 11.527734,9.0218525 11.695313,9.0107553 L 12,8.9905788 v 0.304459 0.3044591 l -0.207274,0.200254 -0.207274,0.2002541 -4.1911636,-0.0022 C 3.7534003,9.9958897 3.2188713,9.989825 3.3230556,9.9516134 Z M 9.6769444,6.9531319 C 9.3992088,6.8477437 9.1391184,6.5705309 9.0630428,6.2988147 9.0069297,6.0983991 9.0336237,5.7652153 9.1200184,5.5876616 9.210855,5.4009791 9.3998084,5.2116712 9.5876603,5.1191425 c 0.2112097,-0.1040341 0.6447197,-0.1040341 0.8559297,0 0.187258,0.092236 0.376282,0.2812609 0.468519,0.4685191 0.104034,0.2112097 0.104034,0.6447197 0,0.8559293 -0.09234,0.1874738 -0.281471,0.3764741 -0.468519,0.4682007 -0.183057,0.089769 -0.5822841,0.1112971 -0.7666456,0.04134 z"
       id="path855"
       inkscape:connector-curvature="0" />
    <path
       style="fill:#cbcbcb;stroke-width:0.03125"
       d="M 9.647615,14.953796 C 9.5085494,14.900951 9.1974959,14.6875 9.2595538,14.6875 c 0.00525,0 0.056445,0.0346 0.1137575,0.07688 0.084294,0.06219 0.1162418,0.07044 0.1672096,0.04316 0.034653,-0.01855 1.0072611,-0.978147 2.1613501,-2.132448 2.207721,-2.208127 2.224497,-2.226965 2.259476,-2.537295 L 13.976878,10 h -0.705876 -0.705877 l -0.501019,0.500318 -0.501019,0.500318 -4.4299808,-0.0081 -4.4299812,-0.0081 -0.1467147,-0.07227 C 2.2254155,10.749073 2.0246732,10.443369 2.0051906,10.072675 1.994,9.8597503 2.0635194,9.5310988 2.119699,9.53134 2.1312083,9.5314025 2.16875,9.5736178 2.203125,9.6251813 2.2375,9.6767447 2.3247063,9.7614616 2.3969169,9.8134409 2.6731034,10.01225 2.3449565,10 7.3945541,10 H 12 V 9.5 9 H 11.778957 11.557914 L 10.450832,7.8911716 C 9.8419369,7.2813159 9.34375,6.7749775 9.34375,6.7659756 c 0,-0.009 0.055577,0.023892 0.1235041,0.073098 0.1673103,0.1211991 0.3628175,0.1705763 0.6170939,0.1558529 0.35991,-0.02084 0.668648,-0.2266447 0.827086,-0.5513369 0.0942,-0.1930547 0.115133,-0.5391116 0.04504,-0.7448097 -0.02763,-0.081078 -0.05023,-0.1528675 -0.05023,-0.1595331 0,-0.00667 0.876343,0.8650122 1.94743,1.9370615 1.499425,1.5007729 1.964916,1.9847104 2.023438,2.1036238 0.06344,0.1289053 0.07601,0.2009481 0.07601,0.4356929 0,0.235311 -0.01251,0.306668 -0.07658,0.436866 -0.111641,0.226875 -4.229297,4.344237 -4.455309,4.45499 -0.191121,0.09366 -0.5867188,0.117339 -0.773626,0.04631 z M 9.1835138,14.601563 c -0.038871,-0.04957 -0.037766,-0.05067 0.011799,-0.0118 0.052055,0.04082 0.068609,0.06649 0.042889,0.06649 -0.00649,0 -0.031099,-0.02461 -0.054687,-0.05469 z m -0.0049,-8.0156255 C 9.0301178,6.3649509 8.9912288,6.224205 9.0052031,5.9583303 9.0177884,5.7188769 9.0913538,5.5300184 9.2385119,5.359375 9.3306775,5.2525003 9.3056894,5.311855 9.1981397,5.4552709 9.09036,5.5989941 9.03125,5.7974631 9.03125,6.015625 c 0,0.2181619 0.05911,0.4166309 0.1668897,0.5603541 C 9.2871256,6.6946406 9.3203325,6.75 9.3025247,6.75 9.2950097,6.75 9.2392503,6.6761719 9.1786153,6.5859375 Z M 9.34375,5.2694513 c 0,-0.00649 0.024609,-0.031098 0.054687,-0.054687 0.049564,-0.038871 0.05067,-0.037766 0.011799,0.011799 -0.040824,0.052055 -0.066486,0.068609 -0.066486,0.042888 z"
       id="path853"
       inkscape:connector-curvature="0" />
    <path
       style="fill:#fecb35;stroke-width:0.03125"
       d="M 12.328017,3.8537538 13.984158,3.0234276 11.999892,2.029053 C 10.908545,1.482147 10.026216,1.033907 10.03916,1.0329642 10.08128,1.0298964 14,2.9993885 14,3.023625 14,3.047806 10.737204,4.6888622 10.695234,4.68579 10.682384,4.6848494 11.417139,4.3104334 12.328017,3.8537538 Z m -4.6952045,-0.0038 C 6.7519531,3.408415 6.03125,3.03657 6.03125,3.0236282 c 0,-0.024239 3.9187169,-1.9937321 3.96084,-1.990664 0.012944,9.428e-4 -0.8693844,0.4491825 -1.9607306,0.9960882 L 6.0470941,3.0234264 7.6719844,3.8381288 C 8.5656744,4.286215 9.2828125,4.6528109 9.265625,4.6527866 9.2484375,4.6527619 8.5136719,4.2914856 7.6328125,3.8499503 Z"
       id="path851"
       inkscape:connector-curvature="0" />
    <path
       style="fill:#fecb32;stroke-width:0.03125"
       d="M 3.9375,13.95383 C 3.0484001,13.802993 2.2455283,13.318877 1.713275,12.612668 0.55033447,11.069646 0.85300772,8.8696594 2.3873317,7.713275 3.7554722,6.6821391 5.6569494,6.7875744 6.9149962,7.96433 7.0640178,8.1037222 7.375,8.4741353 7.375,8.5122434 c 0,0.010454 -1.0589881,0.019007 -2.3533072,0.019007 -2.3084837,0 -2.3570101,0.00125 -2.5477236,0.065656 -0.3974884,0.1342338 -0.7740798,0.5108253 -0.9083137,0.9083138 -0.091838,0.2719481 -0.091838,0.7488628 0,1.0208118 0.1342339,0.397488 0.5108253,0.77408 0.9083137,0.908313 C 2.6653083,11.498961 2.7094001,11.5 5.2594556,11.5 h 2.59107 l -0.020996,0.08594 C 7.7904122,11.746046 7.5012766,12.318399 7.3582813,12.518789 6.6921466,13.452293 5.6047588,14.008449 4.46875,13.996671 4.3054688,13.994977 4.0664063,13.975699 3.9375,13.95383 Z M 7.6719847,3.8381291 6.0470947,3.0234267 8.0157347,2.0392569 C 9.0984869,1.4979635 9.9932197,1.0411013 10.00403,1.0240076 c 0.013,-0.02056 0.02358,-0.020495 0.03125,1.906e-4 0.0064,0.017198 0.897483,0.4740606 1.980236,1.0152497 L 13.984157,3.0234281 12.344043,3.8436037 10.70393,4.6637797 10.498185,4.597515 C 10.216764,4.5068769 9.7420003,4.5051137 9.484375,4.59375 9.3844622,4.628125 9.3014016,4.6554806 9.2997953,4.6545406 9.2981891,4.6536 8.5656744,4.286215 7.6719847,3.8381291 Z"
       id="path849"
       inkscape:connector-curvature="0" />
    <path
       style="fill:#cb9903;stroke-width:0.03125"
       d="m 10.009683,8.359375 c 1.88e-4,-0.103125 0.006,-0.141545 0.01296,-0.085378 0.007,0.056167 0.0068,0.1405422 -3.19e-4,0.1875 -0.0071,0.046958 -0.01282,0.001 -0.01265,-0.1021222 z M 6.0145319,4.640625 c 5.3e-6,-0.89375 0.004,-1.2548731 0.00889,-0.8024959 0.00488,0.4523775 0.00488,1.1836275 -9.7e-6,1.625 -0.00489,0.4413728 -0.00888,0.071246 -0.00888,-0.8225041 z"
       id="path847"
       inkscape:connector-curvature="0" />
    <path
       style="fill:#cb9800;stroke-width:0.03125"
       d="M 8.4875138,8.4140625 C 8.3707941,8.1667731 8.0160816,7.6747775 7.7620759,7.4078612 7.3356503,6.9597609 6.7935741,6.5806425 6.2777162,6.3697269 L 6.03125,6.2689556 V 4.6657278 c 0,-0.8817753 0.007,-1.6032278 0.015545,-1.6032278 0.00855,0 0.7379284,0.3611103 1.6208412,0.8024672 L 9.2729325,4.6674344 9.0895541,4.80243 C 8.8604425,4.9710925 8.6512772,5.2516791 8.5656556,5.5052194 8.4755997,5.7718891 8.4737925,6.2577919 8.5619037,6.5138919 8.6617691,6.8041553 8.7294766,6.8897156 9.3806319,7.5484941 L 10,8.1751134 V 8.3531816 8.53125 H 9.2714128 8.5428256 Z"
       id="path845"
       inkscape:connector-curvature="0" />
    <path
       style="fill:#996703;stroke-width:0.03125"
       d="m 14.014878,5.46875 c 0,-1.3492188 0.0038,-1.9011719 0.0085,-1.2265625 0.0047,0.6746094 0.0047,1.7785156 0,2.453125 -0.0047,0.6746094 -0.0085,0.1226563 -0.0085,-1.2265625 z"
       id="path843"
       inkscape:connector-curvature="0" />
    <path
       style="fill:#986500;stroke-width:0.03125"
       d="M 10.03125,8.3683622 V 8.2054744 L 10.1875,8.359375 c 0.08594,0.084645 0.15625,0.1579447 0.15625,0.1628878 0,0.00494 -0.07031,0.00899 -0.15625,0.00899 H 10.03125 Z M 12.484375,6.3744047 C 11.659375,5.5489391 10.931641,4.8368137 10.867188,4.7919041 10.802734,4.7469944 10.75,4.7015519 10.75,4.6909213 c 0,-0.02472 3.221591,-1.6359972 3.238069,-1.6195186 0.0068,0.00678 0.0087,1.0904148 0.0043,2.4080848 l -0.008,2.3957641 z"
       id="path841"
       inkscape:connector-curvature="0" />
    <path
       style="fill:#653200;stroke-width:0.03125"
       d="m 3.921875,14.966886 c -1.9250906,-0.25918 -3.46402837,-1.716793 -3.84936883,-3.645952 -0.07606072,-0.380788 -0.07606072,-1.26108 0,-1.6418684 C 0.39986984,8.0401606 1.5518495,6.7328316 3.1202724,6.220295 3.5997906,6.0635956 3.8974134,6.0189997 4.4754984,6.0172269 L 4.9978722,6.015625 5.0067484,4.375 5.015625,2.734375 5.0930044,2.578125 C 5.2571053,2.246761 5.2611259,2.244348 7.5780519,1.0867343 l 2.14379,-1.0711093 h 0.2937831 0.293783 l 2.14379,1.0711093 c 2.316926,1.1576137 2.320947,1.1600267 2.485048,1.4913907 l 0.07738,0.15625 0.0083,3.09375 0.0083,3.09375 L 14.531771,8.4222413 14.03125,7.9226075 V 5.4690034 3.0153993 L 12.023438,2.0116376 10.015625,1.007876 8.0078125,2.0116373 6,3.0153986 V 4.6333694 6.25134 l 0.085937,0.035963 c 1.0391953,0.4348775 1.74978,1.0340109 2.2873859,1.9286228 0.08686,0.1445403 0.1579266,0.2746184 0.1579266,0.2890625 0,0.014444 -0.2566406,0.025962 -0.5703125,0.025595 L 7.390625,8.5299141 7.3013497,8.4037572 C 6.9267606,7.8744194 6.2502453,7.3922641 5.5710116,7.1705397 3.9504038,6.64152 2.153036,7.3904834 1.3868714,8.9140712 0.61940537,10.440248 1.0379973,12.269763 2.3873317,13.286725 c 1.544693,1.164199 3.741747,0.860618 4.9020689,-0.67735 0.1856822,-0.246116 0.4591306,-0.758544 0.5287075,-0.99077 L 7.8536431,11.5 h 1.252176 1.2521759 l -0.263296,0.264671 c -0.2258881,0.227067 -0.2746284,0.262117 -0.3430599,0.246695 -0.04387,-0.0099 -0.2590644,-0.103204 -0.4782094,-0.207371 -0.219145,-0.104168 -0.4028759,-0.18354 -0.4082909,-0.176383 -0.00542,0.0072 -0.048122,0.131587 -0.094903,0.27651 -0.2154743,0.667514 -0.5759865,1.249513 -1.0962937,1.76982 -0.6501435,0.650144 -1.4421482,1.073561 -2.3359388,1.248826 -0.3091653,0.06062 -1.1085419,0.08553 -1.4161281,0.04412 z"
       id="path839"
       inkscape:connector-curvature="0" />
    <path
       style="fill:#323232;stroke-width:0.03125"
       d="M 9.4457694,15.424346 C 9.0524497,15.278211 8.6972303,14.915646 8.5656556,14.526031 8.5160312,14.379086 8.5,14.254171 8.5,14.014449 c 0,-0.336831 0.054728,-0.561983 0.1922822,-0.791046 0.037661,-0.06271 0.4275619,-0.476137 0.8664456,-0.918715 L 10.356699,11.5 H 6.5125422 c -3.823217,0 -3.8452155,-3.56e-4 -4.038573,-0.06566 -0.3974884,-0.134233 -0.7740798,-0.510825 -0.9083137,-0.908313 -0.091838,-0.271948 -0.091838,-0.7488635 0,-1.0208116 C 1.6998894,9.1077309 2.0764808,8.7311394 2.4739692,8.5969056 2.6673267,8.5316075 2.6893252,8.53125 6.5125422,8.53125 H 10.356699 L 9.5587278,7.7265625 C 9.1198441,7.2839844 8.7299434,6.8705622 8.6922822,6.8078466 8.5547284,6.5787838 8.5,6.3536322 8.5,6.0168006 8.5,5.7770787 8.5160312,5.6521644 8.5656556,5.5052194 8.6998894,5.1077309 9.0764809,4.7311394 9.4739694,4.5969056 9.6209144,4.5472812 9.7458287,4.53125 9.9855506,4.53125 c 0.3360914,0 0.5602414,0.054311 0.7910464,0.1916684 0.153631,0.09143 4.322065,4.2511647 4.45826,4.4489566 0.171402,0.2489225 0.233893,0.4743544 0.233893,0.84375 0,0.369396 -0.06249,0.594827 -0.233893,0.84375 -0.136195,0.197792 -4.304629,4.357527 -4.45826,4.448957 -0.235911,0.140396 -0.453503,0.191768 -0.8049267,0.19004 -0.2664403,-0.0013 -0.3690722,-0.01576 -0.5259009,-0.07403 z m 0.9754716,-0.516865 c 0.226012,-0.110753 4.343668,-4.228115 4.455309,-4.45499 0.06407,-0.130198 0.07658,-0.201555 0.07658,-0.436866 0,-0.234935 -0.01255,-0.3067475 -0.0762,-0.4360844 C 14.818234,9.4602719 14.344474,8.9671184 12.814428,7.4326109 11.721961,6.3369584 10.775021,5.3846625 10.710115,5.3163975 10.514079,5.1102134 10.3472,5.046875 10,5.046875 9.65438,5.046875 9.4937238,5.107379 9.2849266,5.3161766 9.0792303,5.5218725 9.015625,5.6870728 9.015625,6.015625 c 0,0.2342131 0.012624,0.3068978 0.075482,0.4346075 0.056311,0.1144069 0.3830625,0.4615722 1.286499,1.3668712 l 1.211017,1.2135141 -4.4427488,0.00813 -4.4427491,0.00813 -0.1467147,0.072266 c -0.187258,0.092236 -0.3762828,0.2812609 -0.4685191,0.468519 -0.1040341,0.2112097 -0.1040341,0.6447202 0,0.8559302 0.092236,0.187258 0.2812611,0.376283 0.4685191,0.468519 l 0.1467147,0.07227 4.4297653,0.0081 4.4297646,0.0081 -1.199128,1.200149 c -0.8917991,0.892558 -1.21802,1.238873 -1.2728403,1.351244 -0.088794,0.18201 -0.1169257,0.539515 -0.058792,0.747149 0.075976,0.271358 0.3362153,0.548622 0.6137997,0.653953 0.1889334,0.07169 0.5834816,0.04847 0.7755466,-0.04565 z"
       id="path837"
       inkscape:connector-curvature="0" />
  </g>
</svg>
