<?xml version="1.0" encoding="UTF-8" standalone="no"?>
<!-- Created with Inkscape (http://www.inkscape.org/) -->

<svg
   xmlns:dc="http://purl.org/dc/elements/1.1/"
   xmlns:cc="http://creativecommons.org/ns#"
   xmlns:rdf="http://www.w3.org/1999/02/22-rdf-syntax-ns#"
   xmlns:svg="http://www.w3.org/2000/svg"
   xmlns="http://www.w3.org/2000/svg"
   xmlns:sodipodi="http://sodipodi.sourceforge.net/DTD/sodipodi-0.dtd"
   xmlns:inkscape="http://www.inkscape.org/namespaces/inkscape"
   version="1.1"
   id="svg2"
   width="16"
   height="16"
   viewBox="0 0 16 16"
   sodipodi:docname="IMPORT.svg"
   inkscape:version="0.92.4 (5da689c313, 2019-01-14)">
  <metadata
     id="metadata8">
    <rdf:RDF>
      <cc:Work
         rdf:about="">
        <dc:format>image/svg+xml</dc:format>
        <dc:type
           rdf:resource="http://purl.org/dc/dcmitype/StillImage" />
        <dc:title></dc:title>
      </cc:Work>
    </rdf:RDF>
  </metadata>
  <defs
     id="defs6" />
  <sodipodi:namedview
     pagecolor="#ffffff"
     bordercolor="#666666"
     borderopacity="1"
     objecttolerance="10"
     gridtolerance="10"
     guidetolerance="10"
     inkscape:pageopacity="0"
     inkscape:pageshadow="2"
     inkscape:window-width="828"
     inkscape:window-height="480"
     id="namedview4"
     showgrid="false"
     inkscape:zoom="14.75"
     inkscape:cx="8"
     inkscape:cy="8"
     inkscape:window-x="0"
     inkscape:window-y="0"
     inkscape:window-maximized="0"
     inkscape:current-layer="svg2" />
  <g
     id="IMPORT">
    <path
       style="fill:#ffffff;stroke-width:0.03125"
       d="m 0.00395304,13.429688 c 0.00251106,-1.632725 0.01392218,-2.490518 0.03128253,-2.351563 0.21174251,1.694823 1.43422723,3.162121 3.08359333,3.701108 0.4205352,0.137425 0.7494936,0.192212 1.2717961,0.211815 l 0.46875,0.01759 0.1156894,0.103619 C 5.2973591,15.40093 5.5629278,15.5 6.0144494,15.5 6.4039303,15.5 6.637655,15.429637 6.9071359,15.231257 7.2825619,14.954884 7.5,14.539829 7.5,14.099575 v -0.232039 l 0.2635581,-0.276955 c 0.4486572,-0.471462 0.8097428,-1.076378 1.0066775,-1.686459 0.046782,-0.144923 0.089488,-0.269353 0.094903,-0.27651 0.00541,-0.0072 0.1961771,0.07722 0.4239159,0.1875 l 0.4140703,0.200513 H 10.015822 10.32852 L 10.854832,11.757813 11.381144,11.5 h 0.975235 c 0.908335,0 0.988572,-0.0045 1.169652,-0.06566 0.551065,-0.186097 0.97193,-0.750441 0.975155,-1.307599 0.0012,-0.2020097 0.0029,-0.2060325 0.121657,-0.2881303 0.148979,-0.1029631 0.293483,-0.3087725 0.359759,-0.5123841 0.04507,-0.1384594 0.04936,-0.4858397 0.04163,-3.3731056 l -0.0086,-3.21875 -0.07738,-0.15625 C 14.775643,2.2497867 14.761743,2.2413777 12.557363,1.1378219 11.434407,0.57564822 10.445313,0.09016548 10.359375,0.05897134 10.206428,0.00345367 10.264395,0.00223091 13.101563,0.00112737 L 16,0 v 8 8 H 8 0 Z m 0,-8.3593755 L 0,0 4.9140625,0.00112737 C 9.69836,0.00222497 9.8239991,0.00375244 9.671875,0.05897134 9.5859375,0.09016548 8.5968431,0.57564822 7.4738872,1.1378219 5.2695072,2.2413777 5.2556069,2.2497867 5.0930044,2.578125 5.0158028,2.7340157 5.0156037,2.7368583 5.0063309,3.8142884 L 4.9970369,4.8942019 4.4125809,5.4737403 3.828125,6.0532791 3.6182069,6.0897272 C 2.6330664,6.2607784 1.5525736,6.9358481 0.92451188,7.7726922 0.44966481,8.4053894 0.12738987,9.1842563 0.03523557,9.921875 0.01873487,10.053949 0.00633976,8.1316103 0.00395304,5.0703125 Z"
       id="path841"
       inkscape:connector-curvature="0" />
    <path
       style="fill:#fefefe;stroke-width:0.03125"
       d="M 1.0386532,9.862205 C 1.0596762,9.6756897 1.157839,9.48354 1.3249273,9.3018353 1.4332119,9.1840784 1.4782759,9.1550616 1.5282426,9.1709206 1.5635501,9.1821266 1.7756357,9.3732538 1.9995441,9.5956478 L 2.4066501,10 H 1.7148859 1.0231217 Z M 4,9.8125 C 4,9.709375 4.00667,9.625 4.014829,9.625 c 0.00816,0 0.1010578,0.084375 0.2064487,0.1875 L 4.4128972,10 H 4.2064488 4 Z m 8.676944,0.1391094 C 12.33559,9.8264106 12.03125,9.4349475 12.03125,9.1210709 V 9.03125 h 0.589821 c 0.651405,0 0.748857,0.018898 0.989825,0.1919478 0.07651,0.054944 0.139104,0.1231631 0.139104,0.1515991 0,0.080237 -0.19543,0.3358581 -0.335561,0.4389115 -0.242684,0.1784719 -0.497147,0.2260526 -0.737495,0.137901 z m -7.9999996,-3 C 4.4682581,6.8750697 4.15625,6.6000534 4.15625,6.4926487 c 0,-0.014552 0.2675125,-0.2939146 0.5944719,-0.6208053 0.4656922,-0.4655943 0.6073565,-0.5902575 0.653949,-0.5754697 0.096001,0.030469 0.3043694,0.2576813 0.3817635,0.4162866 0.096741,0.1982525 0.114894,0.5356944 0.040818,0.7587188 -0.069726,0.2099256 -0.2631963,0.40717 -0.4677407,0.476865 -0.1831943,0.062421 -0.5170637,0.064067 -0.6825668,0.00337 z"
       id="path839"
       inkscape:connector-curvature="0" />
    <path
       style="fill:#fdfdfd;stroke-width:0.03125"
       d="M 2.0401569,9.6352278 C 1.8369356,9.4319462 1.6298719,9.23593 1.5800154,9.1996363 L 1.4893673,9.1336472 2.8110971,7.8109444 4.1328269,6.4882413 4.1990244,6.5800581 C 4.3008853,6.7213403 4.4391816,6.83868 4.59375,6.9149684 c 0.1139131,0.056223 0.1942966,0.069407 0.4231806,0.069407 0.244016,0 0.3041288,-0.011192 0.4407197,-0.082058 C 5.5885722,6.8343919 5.3485428,7.0873694 4.0640756,8.3710666 3.2106194,9.2240113 2.4892323,9.94054 2.4609935,9.9633528 2.4158906,9.9997894 2.364741,9.9599081 2.0401569,9.6352278 Z M 4.2072741,9.7997456 4,9.5994916 V 9.2950325 8.9905734 L 4.3046875,9.01075 c 0.1675781,0.011097 1.9746094,0.020249 4.015625,0.020338 L 12.03125,9.03125 v 0.089821 c 0,0.3138766 0.30434,0.7053397 0.645694,0.8305385 0.104185,0.038211 -0.430344,0.044276 -4.0712324,0.046189 L 4.4145481,10 Z m 8.9595319,0.1545472 c 0.189089,-0.073583 0.370267,-0.2230881 0.495307,-0.4087194 0.113443,-0.1684137 0.115976,-0.1700262 0.162577,-0.103495 0.05713,0.081562 0.03386,0.1351866 -0.126013,0.2904563 -0.140951,0.1368897 -0.347407,0.2383719 -0.519521,0.2553669 l -0.132281,0.013061 z M 5.7718675,6.5956506 C 5.8725441,6.3987072 5.9062372,6.0528369 5.8440994,5.8541697 5.7903206,5.6822291 5.6139072,5.4344191 5.4817794,5.3452156 l -0.1135475,-0.07666 0.068786,-0.055699 C 5.5194525,5.146105 5.5721872,5.1674681 5.7325347,5.3325728 5.9233344,5.5290331 5.984375,5.6945897 5.984375,6.015625 c 0,0.3020019 -0.051216,0.4542784 -0.2207184,0.65625 -0.078429,0.093452 -0.078403,0.093211 0.00821,-0.076224 z"
       id="path837"
       inkscape:connector-curvature="0" />
    <path
       style="fill:#cbcbcb;stroke-width:0.03125"
       d="M 5.6747103,14.952357 C 5.6075197,14.926902 5.5020509,14.867848 5.4403353,14.821125 5.3786197,14.774403 4.3991347,13.807013 3.2637019,12.67137 1.0725108,10.479773 1.0690184,10.47582 1.0378662,10.151612 L 1.0232982,10 H 1.7296585 2.4360188 L 4.1355256,8.30012 C 5.4291841,7.0061781 5.8527034,6.5640178 5.9090294,6.4485575 5.9966137,6.2690222 6.0263956,5.9123578 5.9690994,5.7291697 5.9179334,5.5655825 5.7408969,5.3102344 5.6260506,5.234375 5.5740091,5.2 5.5313894,5.1624584 5.53134,5.1509491 5.53109,5.0947694 5.8597503,5.02525 6.0726753,5.0364406 6.4433694,5.0559231 6.7490731,5.2566653 6.9121087,5.5876603 7.0176881,5.8020075 7.0162041,6.2322106 6.9091337,6.4497328 6.8532287,6.5633094 6.5266856,6.9106312 5.6384303,7.8012953 L 4.4429678,9 H 4.2214841 4 V 9.5 10 h 4.6054459 c 5.0495971,0 4.7214511,0.01225 4.9976371,-0.1865591 0.07221,-0.051979 0.159417,-0.1366962 0.193792,-0.1882597 0.03438,-0.051563 0.07192,-0.093792 0.08343,-0.093841 0.05618,-2.5e-4 0.125699,0.3284103 0.114508,0.5413348 -0.01948,0.370694 -0.220224,0.676398 -0.551219,0.839434 l -0.146715,0.07227 -4.4427491,0.0081 -4.442749,0.0081 1.2110172,1.213514 c 0.9034365,0.905299 1.2301884,1.252465 1.286499,1.366871 0.1073163,0.218036 0.1089191,0.647974 0.00322,0.862573 -0.092342,0.187473 -0.2814713,0.376474 -0.4685191,0.4682 -0.1841331,0.0903 -0.5821772,0.111299 -0.7688794,0.04057 z"
       id="path835"
       inkscape:connector-curvature="0" />
    <path
       style="fill:#fecb35;stroke-width:0.03125"
       d="M 8.0078125,4.0374269 C 6.9207031,3.4927497 6.03125,3.0365283 6.03125,3.0236013 c 0,-0.024221 3.9187469,-1.993703 3.96084,-1.9906371 0.012944,9.428e-4 -0.8693894,0.449185 -1.9607416,0.9960937 l -1.9842765,0.9943796 1.976464,0.98833 C 9.1105913,4.5553491 10,5.0071069 10,5.0156738 10,5.0373303 10.175448,5.1234828 8.0078125,4.0374269 Z M 10.03125,5.0156412 c 0,-0.00855 0.889409,-0.4602921 1.976464,-1.0038737 l 1.976464,-0.98833 -1.984276,-0.9943796 C 10.908549,1.4821492 10.026216,1.033907 10.03916,1.0329642 10.081253,1.0298984 14,2.9993803 14,3.023601 14,3.0365278 13.107031,3.4935225 12.015625,4.0391447 10.924219,4.5847669 10.03125,5.0241903 10.03125,5.0156412 Z"
       id="path833"
       inkscape:connector-curvature="0" />
    <path
       style="fill:#fecb32;stroke-width:0.03125"
       d="M 3.5211544,13.860395 C 3.0144258,13.709382 2.4896885,13.408429 2.0933978,13.041534 1.6860222,12.664376 1.2814643,11.992437 1.1279275,11.437962 L 1.0631559,11.20405 2.422203,12.562828 c 1.2310045,1.23076 1.3776645,1.379734 1.3512345,1.372548 -0.0043,-0.0012 -0.1178244,-0.03491 -0.2522831,-0.07498 z M 6.3420059,12.20138 5.6411459,11.5 h 1.1046897 1.10469 l -0.020837,0.08594 c -0.046372,0.191248 -0.362675,0.789201 -0.5451068,1.030493 -0.1068932,0.141381 -0.2050079,0.263642 -0.2180332,0.271692 -0.013025,0.008 -0.3390693,-0.300985 -0.7245425,-0.686743 z M 6.0838244,8.0883247 6.5267497,7.6453994 6.6461875,7.7358153 C 6.8450431,7.8863519 7.0596628,8.0969472 7.2215347,8.3003747 7.3059406,8.4064491 7.375,8.50179 7.375,8.5122434 7.375,8.5226972 6.9848272,8.53125 6.5079497,8.53125 H 5.6408991 Z M 8.0157241,4.0100047 6.0470734,3.0234373 8.0157241,2.0392622 C 9.0984822,1.4979659 9.9932197,1.0411013 10.00403,1.0240076 c 0.013,-0.02056 0.02358,-0.020495 0.03125,1.906e-4 0.0064,0.017198 0.897488,0.474063 1.980246,1.0152549 l 1.968651,0.9839846 -1.976365,0.988281 C 10.92081,4.5552734 10.020854,4.9992288 10.00791,4.9982859 9.9949659,4.9973422 9.0984822,4.5526166 8.0157241,4.0100047 Z"
       id="path831"
       inkscape:connector-curvature="0" />
    <path
       style="fill:#cb9903;stroke-width:0.03125"
       d="m 10.014612,6.78125 c 0,-0.9710937 0.004,-1.3683594 0.0088,-0.8828125 0.0048,0.4855469 0.0048,1.2800781 0,1.765625 -0.0048,0.4855469 -0.0088,0.088281 -0.0088,-0.8828125 z m -4.0010982,-3 c 0,-0.4210937 0.00442,-0.5933594 0.00983,-0.3828125 0.00541,0.2105469 0.00541,0.5550781 0,0.765625 -0.00541,0.2105469 -0.00983,0.038281 -0.00983,-0.3828125 z"
       id="path829"
       inkscape:connector-curvature="0" />
    <path
       style="fill:#cb9800;stroke-width:0.03125"
       d="M 8.4875138,8.4140625 C 8.3010553,8.0190206 7.6947294,7.2734475 7.3510497,7.0166012 L 7.2269112,6.9238275 7.2999647,6.8134366 C 7.5078369,6.49932 7.5689944,5.9039394 7.4343444,5.5052194 7.2569428,4.9799044 6.6797947,4.53125 6.1814322,4.53125 H 6.03125 V 3.796875 c 0,-0.4039062 0.00708,-0.734375 0.015722,-0.734375 0.00865,0 0.9016162,0.4429906 1.984375,0.9844238 L 10,5.0313478 V 6.7812987 8.53125 H 9.2714128 8.5428256 Z"
       id="path827"
       inkscape:connector-curvature="0" />
    <path
       style="fill:#996703;stroke-width:0.03125"
       d="m 14.014995,5.953125 c 2e-6,-1.615625 0.0038,-2.2719819 0.0084,-1.4585706 0.0046,0.8134112 0.0046,2.1352862 -4e-6,2.9375 -0.0046,0.8022137 -0.0084,0.1366956 -0.0084,-1.4789294 z"
       id="path825"
       inkscape:connector-curvature="0" />
    <path
       style="fill:#986500;stroke-width:0.03125"
       d="M 13.834647,8.7502928 C 13.769483,8.7012456 13.629644,8.6318959 13.523891,8.5961828 13.338828,8.5336863 13.2697,8.53125 11.681432,8.53125 H 10.03125 V 6.7812987 5.0313478 L 11.999902,4.0469237 C 13.082661,3.5054906 13.97563,3.0625 13.984277,3.0625 13.992925,3.0625 14,4.3632812 14,5.953125 14,7.5429687 13.98945,8.8427869 13.97656,8.84161 13.96367,8.84043 13.89981,8.79934 13.834644,8.750293 Z"
       id="path823"
       inkscape:connector-curvature="0" />
    <path
       style="fill:#653200;stroke-width:0.03125"
       d="M 3.921875,14.964764 C 3.6000609,14.924559 3.1251422,14.79614 2.7939555,14.659775 1.3860849,14.080086 0.37613594,12.841018 0.07250617,11.320934 c -0.07606072,-0.380788 -0.07606072,-1.26108 0,-1.6418684 C 0.36996775,8.1898619 1.3524074,6.9607497 2.7147396,6.3734162 3.0225134,6.2407275 3.4512572,6.1088559 3.6793909,6.0767119 L 3.828125,6.055755 2.3096035,7.582565 C 1.4744167,8.4223106 0.7604765,9.1606878 0.72306978,9.2234034 0.585498,9.4540541 0.53125,9.6781 0.53125,10.015625 c 0,0.464286 0.10234575,0.729183 0.41117153,1.06422 0.0930837,0.100983 0.13915287,0.19039 0.18704897,0.363007 0.1380105,0.497385 0.4589372,1.064043 0.8289957,1.46375 0.3771661,0.407385 1.0490968,0.811933 1.603601,0.965479 l 0.2339422,0.06478 0.5315697,0.53157 L 4.8591484,15 4.4998869,14.996047 C 4.3022928,14.993873 4.0421875,14.979796 3.921875,14.964764 Z M 7.5011928,13.779505 C 7.4988053,13.619547 7.3637684,13.300971 7.2150997,13.104552 L 7.0635409,12.904316 7.27003,12.633687 C 7.4698747,12.371767 7.7452719,11.86171 7.8181081,11.618605 L 7.8536431,11.5 l 1.752866,0.0024 1.7528659,0.0024 -0.515561,0.255376 -0.515561,0.255377 H 10.015689 9.703125 L 9.2890547,11.815109 c -0.2277388,-0.110282 -0.418501,-0.194657 -0.423916,-0.1875 -0.00542,0.0072 -0.048121,0.131587 -0.094903,0.27651 -0.197504,0.611845 -0.56203,1.221741 -1.0059497,1.683078 -0.2322287,0.24134 -0.2620353,0.263126 -0.2630931,0.192306 z M 14.492349,9.7578125 C 14.468216,9.5282231 14.359177,9.2816394 14.187672,9.0688028 L 14.03125,8.8746853 V 5.9450419 3.0153986 L 12.023438,2.0116373 10.015625,1.007876 8.0078125,2.0116376 6,3.0153993 V 3.7733247 4.53125 H 5.8498178 c -0.1980144,0 -0.4951659,0.1028494 -0.6829637,0.2363859 L 5.015625,4.8751697 5.0070853,3.8672722 C 4.9998269,3.0106019 5.0060728,2.8362152 5.0487181,2.7050194 5.1167569,2.4957001 5.2556525,2.301864 5.4172966,2.19065 5.4911441,2.1398417 6.4901003,1.6296758 7.6371994,1.0569481 L 9.7228344,0.015625 h 0.2932866 0.293287 l 2.14379,1.0711093 c 2.316926,1.1576137 2.320947,1.1600267 2.485048,1.4913907 l 0.07738,0.15625 v 3.28125 3.28125 l -0.07713,0.15625 c -0.07431,0.1505425 -0.342608,0.453125 -0.401784,0.453125 -0.01582,0 -0.03578,-0.066797 -0.04436,-0.1484375 z M 7.25,8.3400006 C 7.1097947,8.1518278 6.8707947,7.9110825 6.6483766,7.7339834 L 6.5311284,7.640625 6.8799503,7.2890625 C 7.0718025,7.0957031 7.2389894,6.9375 7.2514763,6.9375 c 0.050119,0 0.6275378,0.5763856 0.7902028,0.7887891 0.173779,0.2269156 0.4895709,0.7292062 0.4895709,0.7786987 0,0.014444 -0.2566406,0.025697 -0.5703125,0.025006 L 7.390625,8.5287372 7.25,8.3400012 Z"
       id="path821"
       inkscape:connector-curvature="0" />
    <path
       style="fill:#323232;stroke-width:0.03125"
       d="M 5.4799834,15.42542 C 5.3744431,15.386191 5.2197556,15.303436 5.1362334,15.241519 4.9234578,15.083782 0.80583709,10.947166 0.72292137,10.807847 0.58539625,10.57677 0.53125,10.352971 0.53125,10.015625 0.53125,9.6462294 0.5937413,9.4207975 0.76514353,9.171875 0.90133828,8.9740831 5.0697716,4.8143484 5.2234034,4.7229184 5.4542084,4.5855609 5.6783578,4.53125 6.0144494,4.53125 c 0.2397218,0 0.3646362,0.016031 0.5115812,0.065656 C 6.7807453,4.682924 7.0603425,4.8919438 7.2312569,5.1241145 7.4296372,5.393595 7.5,5.6273197 7.5,6.0168006 7.5,6.3536322 7.4452716,6.5787837 7.3077178,6.8078466 7.2700566,6.8705622 6.8801559,7.2839844 6.4412722,7.7265625 L 5.6433013,8.53125 h 3.8441565 c 3.8232172,0 3.8452152,3.562e-4 4.0385732,0.065656 0.397488,0.1342338 0.77408,0.5108253 0.908313,0.9083138 0.09184,0.2719481 0.09184,0.7488622 0,1.0208112 -0.134233,0.397488 -0.510825,0.77408 -0.908313,0.908313 C 13.332673,11.499643 13.310675,11.5 9.4874578,11.5 H 5.6433013 l 0.7979709,0.804688 c 0.4388837,0.442578 0.8287844,0.856 0.8664456,0.918715 C 7.4452716,13.452466 7.5,13.677618 7.5,14.014449 c 0,0.239722 -0.016031,0.364637 -0.065656,0.511582 -0.1342338,0.397488 -0.5108253,0.77408 -0.9083138,0.908313 -0.2805562,0.09475 -0.7785618,0.0905 -1.0460472,-0.0089 z m 0.9636063,-0.51363 c 0.1870478,-0.09173 0.3761765,-0.280727 0.468519,-0.4682 0.1057035,-0.214599 0.1041007,-0.644537 -0.00322,-0.862572 -0.056311,-0.114407 -0.3830625,-0.461573 -1.286499,-1.366872 l -1.2110172,-1.213514 4.442749,-0.0081 4.4427495,-0.0081 0.146715,-0.07227 c 0.187258,-0.09224 0.376282,-0.281261 0.468519,-0.468519 0.104034,-0.21121 0.104034,-0.64472 0,-0.8559297 C 13.819873,9.4004022 13.630848,9.2113775 13.44359,9.1191412 L 13.296875,9.046875 8.8541259,9.0387463 4.4113769,9.0306178 5.6223941,7.8171037 C 6.5258306,6.9118047 6.8525825,6.5646394 6.9088931,6.4502325 7.0162094,6.2321966 7.0178122,5.8022594 6.9121087,5.5876603 6.8198725,5.4004022 6.6308478,5.2113775 6.4435897,5.1191412 6.2278587,5.0128803 5.7991181,5.0150163 5.5787591,5.1234503 5.3524237,5.234825 1.234825,9.3524238 1.1234503,9.5787591 1.0593826,9.7089572 1.046875,9.7803138 1.046875,10.015625 c 0,0.23494 0.012547,0.306747 0.076202,0.436095 0.058959,0.119806 0.5433502,0.62208 2.1406249,2.21965 1.1354328,1.135643 2.1149178,2.103033 2.1766334,2.149755 0.1805466,0.136685 0.3290822,0.178332 0.6065397,0.170063 0.1865484,-0.0056 0.2872372,-0.02571 0.3967147,-0.0794 z"
       id="path819"
       inkscape:connector-curvature="0" />
  </g>
</svg>
