<?xml version="1.0" encoding="UTF-8" standalone="no"?>
<!-- Created with Inkscape (http://www.inkscape.org/) -->

<svg
   version="1.1"
   id="svg2"
   width="16"
   height="16"
   viewBox="0 0 16 16"
   sodipodi:docname="TRANSFORM_INSTANCE.svg"
   inkscape:version="1.2.2 (732a01da63, 2022-12-09)"
   xmlns:inkscape="http://www.inkscape.org/namespaces/inkscape"
   xmlns:sodipodi="http://sodipodi.sourceforge.net/DTD/sodipodi-0.dtd"
   xmlns="http://www.w3.org/2000/svg"
   xmlns:svg="http://www.w3.org/2000/svg">
  <defs
     id="defs6" />
  <sodipodi:namedview
     id="namedview4"
     pagecolor="#ffffff"
     bordercolor="#000000"
     borderopacity="0.25"
     inkscape:showpageshadow="2"
     inkscape:pageopacity="0.0"
     inkscape:pagecheckerboard="0"
     inkscape:deskcolor="#d1d1d1"
     showgrid="false"
     inkscape:zoom="47.375"
     inkscape:cx="8.0105541"
     inkscape:cy="8"
     inkscape:window-width="2560"
     inkscape:window-height="1377"
     inkscape:window-x="-8"
     inkscape:window-y="-8"
     inkscape:window-maximized="1"
     inkscape:current-layer="g8" />
  <g
     inkscape:groupmode="layer"
     inkscape:label="Image"
     id="g8">
    <g
       id="TRANSFORM_INSTANCE">
      <path
         style="fill:#ffffff;stroke-width:0.03125"
         d="M 0,8 V 0 h 8 8 v 8 8 H 8 0 Z m 6.8533344,6.953385 c 0.4127456,-0.107506 0.7791134,-0.3934 0.9651109,-0.75312 L 7.921875,14.000231 H 10 12.078125 l 0.10343,0.200034 c 0.185997,0.35972 0.552365,0.645614 0.965111,0.75312 1.061979,0.276611 2.08333,-0.74474 1.806719,-1.806719 -0.107506,-0.412746 -0.3934,-0.779114 -0.75312,-0.965111 l -0.200034,-0.10343 V 10 7.921875 L 14.200265,7.8184453 C 14.559985,7.6324478 14.845879,7.26608 14.953385,6.8533344 15.229996,5.7913547 14.208645,4.7700041 13.146666,5.0466147 12.73392,5.1541212 12.367552,5.440015 12.181555,5.7997353 L 12.078125,5.9997688 11.039063,5.9998844 10,6 10.000125,4.9609375 10.00025,3.921875 10.200283,3.8184453 C 10.560004,3.6324478 10.845898,3.26608 10.953404,2.8533344 11.230015,1.7913547 10.208664,0.77000406 9.1466844,1.0466146 8.7339388,1.1541212 8.3675709,1.4400151 8.1815734,1.7997354 L 8.0781438,1.9997688 H 6.0000188 3.9218938 L 3.8184641,1.7997354 C 3.6324478,1.4400151 3.26608,1.1541212 2.8533344,1.0466146 1.7913547,0.77000406 0.77000406,1.7913547 1.0466146,2.8533344 1.1541212,3.26608 1.4400151,3.6324478 1.7997354,3.8184453 L 1.9997688,3.921875 V 6 8.078125 L 1.7997354,8.1815547 C 1.4400151,8.3675522 1.1541212,8.73392 1.0466146,9.1466656 0.77000406,10.208645 1.7913547,11.229996 2.8533344,10.953385 3.26608,10.845879 3.6324478,10.559985 3.8184453,10.200265 L 3.921875,10.000231 4.9609375,10.000116 6,10 l -1.25e-4,1.039063 -1.25e-4,1.039062 -0.2000334,0.10343 c -0.3597204,0.185997 -0.6456141,0.552365 -0.7531207,0.965111 -0.2766075,1.061967 0.7447519,2.083327 1.8067197,1.806719 z M 6,13.5 V 13 H 6.5 7 V 13.5 14 H 6.5 6 Z m 7,0 V 13 H 13.5 14 V 13.5 14 H 13.5 13 Z M 7.8184453,12.799735 C 7.6924956,12.556148 7.4177928,12.285635 7.1759175,12.167008 L 7,12.08073 V 11.040365 10 l 0.5390625,1.25e-4 0.5390625,1.25e-4 0.1034297,0.200033 c 0.1859975,0.359721 0.5523653,0.645615 0.9651109,0.753121 1.0619794,0.276611 2.0833304,-0.74474 1.8067194,-1.8067196 -0.107506,-0.4127456 -0.3934,-0.7791135 -0.75312,-0.965111 L 10.000231,8.078125 10.000116,7.5390625 10,7 l 1.039063,1.25e-4 1.039062,1.25e-4 0.10343,0.2000334 c 0.125949,0.2435878 0.400652,0.5141003 0.642527,0.6327272 L 13,7.9192887 l -1.25e-4,2.0794275 -1.25e-4,2.0794278 -0.200033,0.103429 c -0.243588,0.12595 -0.514101,0.400653 -0.632728,0.642528 L 12.08073,13 10.001303,12.999884 7.921875,12.999769 Z M 2,9.5 V 9 H 2.5 3 V 9.5 10 H 2.5 2 Z m 7,0 V 9 H 9.5 10 V 9.5 10 H 9.5 9 Z M 3.8184453,8.7997353 C 3.6924956,8.5561475 3.4177928,8.285635 3.1759175,8.1670081 L 3,8.08073 V 6 3.91927 L 3.1759175,3.8329919 C 3.4177928,3.714365 3.6924956,3.4438525 3.8184453,3.2002647 L 3.921875,3.0002312 H 6 8.078125 L 8.1815547,3.2002647 C 8.3075044,3.4438525 8.5822072,3.714365 8.8240825,3.8329919 L 9,3.91927 V 4.959635 6 L 8.4609375,5.999875 7.921875,5.99975 7.8184453,5.7997166 C 7.6324478,5.4399962 7.26608,5.1541025 6.8533344,5.0465959 5.7913547,4.7699853 4.7700041,5.7913359 5.0466147,6.8533156 5.1541212,7.2660613 5.440015,7.6324291 5.7997353,7.8184266 l 0.2000334,0.1034297 1.25e-4,0.5390625 1.25e-4,0.5390625 L 4.9609562,8.9998563 3.9218937,8.9997313 3.8184641,8.7996978 Z M 7,8.459635 V 7.91927 L 7.1759175,7.8329919 C 7.4177928,7.714365 7.6924956,7.4438525 7.8184453,7.2002647 L 7.921875,7.0002312 8.4609375,7.0001156 9,7 8.999875,7.5390625 8.99975,8.078125 8.7997166,8.1815547 C 8.5561287,8.3075044 8.2856162,8.5822072 8.1669894,8.8240825 L 8.08073,9 H 7.540365 7 Z M 6,6.5 V 6 H 6.5 7 V 6.5 7 H 6.5 6 Z m 7,0 V 6 H 13.5 14 V 6.5 7 H 13.5 13 Z M 2,2.5 V 2 H 2.5 3 V 2.5 3 H 2.5 2 Z m 7,0 V 2 H 9.5 10 V 2.5 3 H 9.5 9 Z"
         id="path4783" />
      <path
         style="fill:#c9fcfc;stroke-width:0.03125"
         d="M 6.1285103,14.950608 C 5.3384897,14.738145 4.8459828,13.916943 5.0466147,13.146666 5.1541212,12.73392 5.440015,12.367552 5.7997353,12.181555 l 0.2000335,-0.10343 V 10 7.921875 L 5.7997353,7.8184453 C 5.440015,7.6324478 5.1541212,7.26608 5.0466147,6.8533344 4.7700041,5.7913547 5.7913547,4.7700041 6.8533344,5.0466147 7.26608,5.1541212 7.6324478,5.440015 7.8184453,5.7997353 L 7.921875,5.9997687 H 10 12.078125 l 0.10343,-0.2000334 c 0.185997,-0.3597203 0.552365,-0.6456141 0.965111,-0.7531206 1.061979,-0.2766106 2.08333,0.74474 1.806719,1.8067197 -0.107506,0.4127456 -0.3934,0.7791134 -0.75312,0.9651109 L 14.000231,7.921875 V 10 12.078125 l 0.200034,0.10343 c 0.35972,0.185997 0.645614,0.552365 0.75312,0.965111 0.276611,1.061979 -0.74474,2.08333 -1.806719,1.806719 -0.412746,-0.107506 -0.779114,-0.3934 -0.965111,-0.75312 l -0.10343,-0.200034 H 10 7.921875 l -0.1034297,0.200034 c -0.3089697,0.597549 -1.0442084,0.924 -1.689935,0.750343 z M 7,13.5 V 13 H 6.5 6 V 13.5 14 H 6.5 7 Z m 7,0 V 13 H 13.5 13 v 0.5 0.5 h 0.5 0.5 z m -1.832992,-0.675918 c 0.118627,-0.241875 0.38914,-0.516578 0.632727,-0.642527 l 0.200034,-0.10343 1.25e-4,-2.0794275 L 13.000019,7.91927 12.824101,7.832992 C 12.582226,7.714365 12.307523,7.4438525 12.181573,7.2002647 L 12.078125,7.0002312 H 10 7.921875 L 7.8184453,7.2002647 C 7.6924956,7.4438525 7.4177928,7.714365 7.1759175,7.8329919 L 7,7.91927 V 10 12.08073 l 0.1759175,0.08628 c 0.2418753,0.118627 0.5165781,0.389139 0.6425278,0.632727 l 0.1034297,0.200034 2.079428,1.25e-4 2.079427,1.25e-4 0.08628,-0.175918 z M 7,6.5 V 6 H 6.5 6 V 6.5 7 H 6.5 7 Z m 7,0 V 6 H 13.5 13 V 6.5 7 h 0.5 0.5 z"
         id="path4781" />
      <path
         style="fill:#98cbfe;stroke-width:0.03125"
         d="M 2.1285102,10.950608 C 1.3384896,10.738145 0.84598272,9.9169434 1.0466146,9.1466656 1.1541212,8.73392 1.4400151,8.3675522 1.7997354,8.1815547 L 1.9997688,8.078125 V 6 3.921875 L 1.7997354,3.8184453 C 1.4400151,3.6324478 1.1541212,3.26608 1.0466146,2.8533344 0.77000406,1.7913547 1.7913547,0.77000406 2.8533344,1.0466146 3.26608,1.1541212 3.6324478,1.4400151 3.8184453,1.7997354 L 3.921875,1.9997688 H 6 8.078125 L 8.1815547,1.7997354 C 8.3675522,1.4400151 8.73392,1.1541212 9.1466656,1.0466146 10.208645,0.77000406 11.229996,1.7913547 10.953385,2.8533344 10.845879,3.26608 10.559985,3.6324478 10.200265,3.8184453 L 10.000231,3.921875 10.000116,4.9609375 10,6 H 9.5 9 L 8.999875,4.9609375 8.99975,3.921875 8.7997166,3.8184453 C 8.5561287,3.6924956 8.2856162,3.4177928 8.1669894,3.1759175 L 8.08073,3 6.0013025,3.0001156 3.921875,3.0002312 3.8184453,3.2002648 C 3.6924956,3.4438526 3.4177928,3.7143651 3.1759175,3.832992 L 3,3.91927 V 6 8.08073 L 3.1759175,8.167008 C 3.4177928,8.285635 3.6924956,8.5561475 3.8184453,8.7997353 L 3.921875,8.9997688 4.9609375,8.9998938 6,9.0000188 v 0.5 0.5000002 l -1.0390625,1.25e-4 -1.0390625,1.25e-4 -0.1034297,0.200033 c -0.3089697,0.59755 -1.0442085,0.924001 -1.6899351,0.750343 z M 3,9.5 V 9 H 2.5 2 V 9.5 10 H 2.5 3 Z m 0,-7 V 2 H 2.5 2 V 2.5 3 H 2.5 3 Z m 7,0 V 2 H 9.5 9 V 2.5 3 H 9.5 10 Z M 9.1332672,10.951825 C 8.7314881,10.843621 8.364265,10.553628 8.1815547,10.200265 L 8.078125,10.000231 7.5390625,10.000116 7,10 V 9.5 9 L 7.5390625,8.999875 8.078125,8.99975 8.1815547,8.7997166 C 8.3075044,8.5561287 8.5822072,8.2856162 8.8240825,8.1669894 L 9,8.08073 V 7.540365 7 H 9.5 10 l 1.25e-4,0.5390625 1.25e-4,0.5390625 0.200033,0.1034297 C 10.794175,8.4886331 11.120302,9.21257 10.953404,9.8533344 10.743043,10.660964 9.9131213,11.161844 9.1332859,10.951825 Z M 10,9.5 V 9 H 9.5 9 V 9.5 10 H 9.5 10 Z"
         id="path4779" />
    </g>
  </g>
</svg>
