<?xml version="1.0" encoding="UTF-8" standalone="no"?>
<!-- Created with Inkscape (http://www.inkscape.org/) -->

<svg
   xmlns:dc="http://purl.org/dc/elements/1.1/"
   xmlns:cc="http://creativecommons.org/ns#"
   xmlns:rdf="http://www.w3.org/1999/02/22-rdf-syntax-ns#"
   xmlns:svg="http://www.w3.org/2000/svg"
   xmlns="http://www.w3.org/2000/svg"
   xmlns:sodipodi="http://sodipodi.sourceforge.net/DTD/sodipodi-0.dtd"
   xmlns:inkscape="http://www.inkscape.org/namespaces/inkscape"
   version="1.1"
   id="svg2"
   width="16"
   height="16"
   viewBox="0 0 16 16"
   sodipodi:docname="DETACH_LINKS.svg"
   inkscape:version="0.92.4 (5da689c313, 2019-01-14)">
  <metadata
     id="metadata8">
    <rdf:RDF>
      <cc:Work
         rdf:about="">
        <dc:format>image/svg+xml</dc:format>
        <dc:type
           rdf:resource="http://purl.org/dc/dcmitype/StillImage" />
        <dc:title></dc:title>
      </cc:Work>
    </rdf:RDF>
  </metadata>
  <defs
     id="defs6" />
  <sodipodi:namedview
     pagecolor="#ffffff"
     bordercolor="#666666"
     borderopacity="1"
     objecttolerance="10"
     gridtolerance="10"
     guidetolerance="10"
     inkscape:pageopacity="0"
     inkscape:pageshadow="2"
     inkscape:window-width="1275"
     inkscape:window-height="769"
     id="namedview4"
     showgrid="false"
     inkscape:zoom="14.75"
     inkscape:cx="8"
     inkscape:cy="8"
     inkscape:window-x="0"
     inkscape:window-y="0"
     inkscape:window-maximized="0"
     inkscape:current-layer="svg2" />
  <g
     id="DETACH_LINKS">
    <path
       style="fill:#ffffff;stroke-width:0.03125"
       d="M 0.0014617,12.132813 C 0.0029181,8.2796697 0.00314235,8.2661859 0.06320995,8.4200384 0.13489964,8.6036588 0.37236162,8.859145 0.546875,8.9404153 c 0.117681,0.054804 0.23934078,0.058252 2.0778082,0.058898 L 4.5774916,9 4.013005,9.5703125 C 2.9092415,10.685468 2.8444601,10.775103 2.8442296,11.1875 c -2.5e-4,0.449795 0.048458,0.525015 0.8712507,1.345429 0.3862472,0.385131 0.5966941,0.571183 0.7063947,0.624511 0.2032984,0.09883 0.560215,0.120371 0.8067741,0.04869 0.206399,-0.06 0.3567453,-0.196297 1.8104134,-1.641223 L 8,10.609753 V 13.304877 16 H 4 0 Z M 0.00209049,3.8046875 0,0 2.0859375,0.0014617 4.171875,0.0029234 4.0174616,0.06320995 C 3.9325188,0.09637364 3.7938816,0.19061662 3.70931,0.27268575 3.5732106,0.40475797 3.4823666,0.57052112 2.9175288,1.7174508 2.5666053,2.4300175 2.267448,3.0206425 2.2527349,3.0299508 2.2154959,3.0535102 0.09600739,7.3305612 0.04534935,7.484375 0.01080999,7.5892472 0.00384437,6.9967375 0.00209049,3.8046875 Z M 7.3818862,4.2981469 C 7.0505175,3.6285337 6.7661487,3.0724805 6.7499559,3.0624727 6.7337628,3.0524649 6.4333747,2.4612675 6.0824262,1.7487008 5.4959719,0.55796109 5.43065,0.43979309 5.2751709,0.28836795 5.1763903,0.19216295 5.0416922,0.0985031 4.9514391,0.06326715 4.7977972,0.00328348 4.8303,0.00291468 10.398438,0.0014617 L 16,0 V 2.5 5 h -1.386426 -1.386426 l -0.01511,-0.2111866 c -0.0083,-0.1161528 -0.0379,-0.255264 -0.06576,-0.3091359 C 13.021154,4.2377178 11.858891,3.0750514 11.613823,2.9466924 11.484173,2.8787858 11.042881,2.8548716 10.860698,2.9058798 10.663317,2.9611429 10.41965,3.1732597 9.4345913,4.1473325 L 8.5723075,5 h -0.28489 -0.28489 l -0.00908,0.2578125 -0.00908,0.2578125 z"
       id="path833"
       inkscape:connector-curvature="0" />
    <path
       style="fill:#fefefe;stroke-width:0.03125"
       d="M 4.5106297,13.198993 C 4.3456675,13.140527 4.0241747,12.864885 3.5459569,12.371901 2.8950873,11.700933 2.8439908,11.614691 2.8442296,11.1875 2.8444764,10.745607 2.9254252,10.64366 4.5237694,9.0722775 L 5.546875,8.06643 4.2784647,6.7910275 C 2.8297073,5.3342837 2.8606165,5.3750316 2.8606165,4.921875 c 0,-0.4268272 0.031261,-0.4756084 0.7928304,-1.2371781 C 4.36758,2.9705638 4.45731,2.9087739 4.8188025,2.8822085 c 0.2361897,-0.017357 0.4606991,0.04063 0.6467287,0.1670408 0.061482,0.041778 0.6626563,0.6261926 1.3359429,1.2986988 l 1.2241568,1.2227388 1.1824969,-1.18519 C 10.40749,3.1834034 10.638506,2.975965 10.855265,2.9064685 c 0.163459,-0.052408 0.629546,-0.027817 0.758558,0.040021 0.242177,0.1273438 1.397319,1.2808956 1.535552,1.5334366 0.04079,0.074526 0.05366,0.1735315 0.05339,0.4106984 -3.13e-4,0.2651244 -0.01173,0.3361878 -0.07534,0.46875 -0.05775,0.120355 -0.366169,0.4487947 -1.34252,1.4296875 L 10.517364,8.0625 11.784905,9.3359375 c 1.447901,1.4546365 1.416978,1.4138895 1.416978,1.8671875 0,0.426827 -0.03126,0.475608 -0.79283,1.237178 -0.76157,0.76157 -0.810351,0.79283 -1.237178,0.79283 -0.453129,0 -0.413226,0.03025 -1.8605931,-1.410396 L 8.0444391,10.561778 7.3269069,11.284231 c -0.3946425,0.39735 -0.9891925,0.980846 -1.3212219,1.296657 -0.5288694,0.503038 -0.6234947,0.580086 -0.7634844,0.621658 -0.1990962,0.05912 -0.559664,0.05737 -0.7315709,-0.0036 z m 0.6045234,-0.512936 c 0.048385,-0.01798 0.7243,-0.668314 1.5020344,-1.445184 L 8.03125,9.8283825 9.4453125,11.240873 c 0.7777345,0.77687 1.4536495,1.427202 1.5020345,1.445184 0.112949,0.04198 0.33625,0.04194 0.449056,-6.3e-5 0.117165,-0.04363 1.191733,-1.111541 1.247405,-1.239672 0.05165,-0.118864 0.05694,-0.344095 0.011,-0.467719 -0.01798,-0.04838 -0.668314,-0.7243 -1.445184,-1.5020346 L 9.7971325,8.0625 11.209623,6.6484375 c 0.776869,-0.7777344 1.427202,-1.4536497 1.445184,-1.5020344 0.04594,-0.1236244 0.04065,-0.3488556 -0.011,-0.4677194 -0.05567,-0.1281312 -1.130241,-1.1960381 -1.247405,-1.2396718 -0.112806,-0.04201 -0.336107,-0.042044 -0.449056,-6.25e-5 -0.04839,0.017982 -0.7243,0.668314 -1.5020345,1.4451837 L 8.03125,6.2966175 6.6171875,4.8841272 C 5.8394531,4.1072575 5.1635378,3.456925 5.1151531,3.4389434 5.0022037,3.3969675 4.7789028,3.3970016 4.6660969,3.4390059 4.5489325,3.4826397 3.4743644,4.5505466 3.4186922,4.6786778 c -0.051646,0.1188638 -0.056942,0.344095 -0.010999,0.4677194 0.017982,0.048385 0.6683141,0.7243 1.4451838,1.5020344 L 6.2653675,8.0624941 4.8528772,9.4765566 C 4.0760075,10.254291 3.425675,10.930206 3.4076934,10.978591 c -0.041976,0.112949 -0.041942,0.33625 6.25e-5,0.449056 0.041658,0.11186 1.1077022,1.189383 1.2328632,1.246139 0.112764,0.05113 0.3532156,0.05735 0.4745281,0.01227 z"
       id="path831"
       inkscape:connector-curvature="0" />
    <path
       style="fill:#fefecb;stroke-width:0.03125"
       d="m 8.5,13.258867 v -2.241133 l 1.0390625,1.03285 c 1.1964955,1.189342 1.1871165,1.182549 1.6328125,1.182549 0.426827,0 0.475608,-0.03126 1.237178,-0.79283 0.76157,-0.76157 0.79283,-0.810351 0.79283,-1.237178 0,-0.453299 0.03093,-0.412547 -1.417016,-1.8672259 L 10.517288,8.0624234 11.782081,6.7859303 13.046875,5.5094372 14.273438,5.5047188 15.5,5.5 v 5 5 H 12 8.5 Z"
       id="path829"
       inkscape:connector-curvature="0" />
    <path
       style="fill:#fefe7f;stroke-width:0.03125"
       d="M 0.64464638,8.31158 C 0.60083369,8.2595116 0.55568287,8.1673153 0.54431125,8.1066994 0.49097178,7.8223756 0.51504031,7.7624153 1.3936589,5.9907719 1.8556926,5.0591284 2.2439305,4.2893128 2.2564097,4.2800703 2.2688889,4.2708278 2.6729017,3.4686063 3.1542159,2.4973558 3.63553,1.5261053 4.0614047,0.70140103 4.1006038,0.66467956 4.1799656,0.59033406 4.31621,0.53125 4.4082844,0.53125 c 0.054525,0 0.060466,0.0235181 0.060466,0.23939228 V 1.0100346 L 3.6077344,2.7472048 C 3.1341756,3.7026484 2.72382,4.5194022 2.6958329,4.5622131 2.6071752,4.69783 1.03125,7.8819653 1.03125,7.9254803 c 0,0.049107 -0.2561755,0.4784791 -0.28628456,0.4798375 -0.0113628,5.125e-4 -0.0565063,-0.041669 -0.10031906,-0.093738 z"
       id="path827"
       inkscape:connector-curvature="0" />
    <path
       style="fill:#fea900;stroke-width:0.03125"
       d="m 1.03125,7.9419337 c 0,-0.054681 1.5553748,-3.2126687 1.6645829,-3.3797206 C 2.72382,4.5194022 3.1341756,3.7026484 3.6077344,2.7472048 L 4.46875,1.0100346 V 0.77064228 C 4.46875,0.53531409 4.47009,0.53125 4.547879,0.53125 c 0.1169894,0 0.2693772,0.074076 0.3617316,0.17583872 0.044817,0.0493825 0.4639338,0.86319038 0.9313709,1.80846208 L 6.6908666,4.2342266 6.0876209,3.6383891 C 5.3690712,2.9286638 5.3100694,2.8918665 4.890625,2.8918665 c -0.4268272,0 -0.4756084,0.031261 -1.2371781,0.7928304 -0.7615695,0.7615697 -0.7928304,0.8103509 -0.7928304,1.2371781 0,0.4524287 -0.027689,0.4157437 1.3857226,1.8359375 L 5.4825941,8 H 3.2569222 C 1.1087325,8 1.03125,7.9979784 1.03125,7.9419337 Z"
       id="path825"
       inkscape:connector-curvature="0" />
    <path
       style="fill:#fe0000;stroke-width:0.03125"
       d="M 4.3670694,11.726371 3.8445853,11.203125 5.3909809,9.65625 C 6.2414984,8.8054687 6.9373766,8.0882813 6.9373766,8.0625 c 0,-0.025781 -0.6958782,-0.7429688 -1.5463957,-1.59375 L 3.8445853,4.921875 4.3670694,4.3986291 4.8895531,3.8753828 6.4295691,5.4142541 C 7.4211081,6.4050559 7.9915469,6.953125 8.03125,6.953125 c 0.039703,0 0.6101419,-0.5480691 1.6016809,-1.5388709 L 11.172947,3.8753828 11.695431,4.3986291 12.217915,4.921875 10.671519,6.46875 C 9.8210016,7.3195312 9.1251234,8.0367188 9.1251234,8.0625 c 0,0.025781 0.6958782,0.7429687 1.5463956,1.59375 l 1.546396,1.546875 -0.522484,0.523246 -0.522484,0.523246 -1.5400161,-1.538871 C 8.6413919,9.7199441 8.0709531,9.171875 8.03125,9.171875 c -0.039703,0 -0.6101419,0.5480691 -1.6016809,1.538871 l -1.540016,1.538871 z"
       id="path823"
       inkscape:connector-curvature="0" />
    <path
       style="fill:#7f5400;stroke-width:0.03125"
       d="M 0.546875,8.9412756 C 0.478125,8.9097322 0.35021972,8.8077116 0.26264106,8.7145631 0.03957176,8.4773072 -0.00978545,8.3145172 0.00453847,7.8632891 L 0.01567206,7.5125616 1.1207439,5.2797184 C 1.7285334,4.0516544 2.2379233,3.0392396 2.2527213,3.0299073 2.2675193,3.0205751 2.5622393,2.4369814 2.9076547,1.7330323 3.4613616,0.60458941 3.5547606,0.43365756 3.6968972,0.28862103 3.9148169,0.06625503 4.0955881,0 4.484375,0 4.8810228,0 5.0522475,0.06486429 5.2873622,0.30419248 5.4497172,0.46945713 5.5163666,0.59034247 6.0923728,1.7642823 6.4377731,2.4682314 6.7323194,3.0518251 6.7469203,3.0611573 6.7784637,3.0813187 6.9532622,3.4273387 7.5369241,4.625 L 7.9709566,5.515625 7.3409909,4.890625 6.7110253,4.265625 5.8412397,2.5149546 C 5.3107178,1.4471402 4.9374069,0.73180091 4.8841647,0.68100519 4.677085,0.48344013 4.3024053,0.47563359 4.1006038,0.66467956 4.0614047,0.70140103 3.63553,1.5261053 3.1542159,2.4973558 2.6729017,3.4686063 2.2688889,4.2708278 2.2564097,4.2800703 2.2439305,4.2893128 1.8550265,5.0604694 1.3921786,5.9937512 0.63530131,7.5199109 0.54930791,7.7090006 0.53742703,7.8732522 c -0.0156181,0.2159184 0.0290149,0.3714484 0.13523166,0.471234 0.0424022,0.039835 0.0819096,0.066512 0.0877942,0.059283 0.005885,-0.00723 0.0641888,-0.1010347 0.12956496,-0.2084566 L 1.0088835,8 h 2.243714 c 1.6108434,0 2.2497631,0.00979 2.26516,0.034701 0.01245,0.020144 -0.1734194,0.2298919 -0.4430775,0.5 L 4.6101566,9 2.6410157,8.9993138 C 0.79788047,8.9986712 0.66387625,8.9949575 0.546875,8.9412756 Z"
       id="path821"
       inkscape:connector-curvature="0" />
    <path
       style="fill:#191919;stroke-width:0.03125"
       d="m 8,13.28125 c 0,-1.495313 0.010899,-2.71875 0.02422,-2.71875 0.013321,0 0.1258206,0.102284 0.25,0.227298 L 8.5,11.017095 V 13.258548 15.5 h 3.5 3.5 v -5 -5 h -1.21875 c -0.670312,0 -1.21875,-0.00439 -1.21875,-0.00976 0,-0.00537 0.02688,-0.06538 0.05972,-0.133366 0.03285,-0.067986 0.06957,-0.1760959 0.0816,-0.2402446 L 13.225706,5 H 14.612853 16 V 10.5 16 H 12 8 Z M 4.640625,12.673792 C 4.5154641,12.617036 3.44942,11.539513 3.4077619,11.427653 c -0.04201,-0.112806 -0.042044,-0.336107 -6.25e-5,-0.449056 0.017982,-0.04839 0.668314,-0.7243 1.4451837,-1.5020345 L 6.2653675,8.0625 4.8528772,6.6484375 C 4.0760075,5.8707031 3.425675,5.1947878 3.4076934,5.1464031 3.3617503,5.0227787 3.3670466,4.7975475 3.4186922,4.6786837 3.4743644,4.5505525 4.5489325,3.4826456 4.6660969,3.4390119 c 0.1128059,-0.04201 0.3361068,-0.042044 0.4490562,-6.25e-5 0.048385,0.017982 0.7243,0.668314 1.5020344,1.4451837 L 8.03125,6.2966234 9.4453125,4.8841331 C 10.223047,4.1072634 10.898962,3.4569309 10.947347,3.4389494 c 0.112949,-0.041976 0.33625,-0.041942 0.449056,6.25e-5 0.117165,0.043634 1.191733,1.1115406 1.247405,1.2396718 0.05165,0.1188638 0.05694,0.344095 0.011,0.4677194 -0.01798,0.048385 -0.668314,0.7243 -1.445184,1.5020344 L 9.7971325,8.0625 11.209623,9.4765625 c 0.77687,0.7777345 1.427202,1.4536495 1.445184,1.5020345 0.04594,0.123624 0.04065,0.348856 -0.011,0.467719 -0.05567,0.128132 -1.13024,1.196038 -1.247405,1.239672 -0.112806,0.04201 -0.336107,0.04204 -0.449056,6.3e-5 -0.04839,-0.01798 -0.7243,-0.668314 -1.5020345,-1.445184 L 8.03125,9.8283825 6.6171875,11.240873 c -0.7777344,0.776869 -1.4536497,1.427202 -1.5020344,1.445184 -0.1213125,0.04508 -0.361764,0.03887 -0.4745281,-0.01226 z M 8.03125,9.15625 c 0.025654,0 0.7428925,0.6961453 1.5938644,1.546989 l 1.5472216,1.54699 0.523099,-0.523779 0.523098,-0.523778 -1.546766,-1.5465301 C 9.821045,8.8055503 9.125,8.0885169 9.125,8.0627344 c 0,-0.025783 0.6961453,-0.7431269 1.546989,-1.5940988 L 12.218979,4.9214141 11.6952,4.3983153 11.171422,3.8752166 9.6248919,5.4219831 C 8.7743003,6.272705 8.0572669,6.96875 8.0314844,6.96875 8.0057019,6.96875 7.2883575,6.2726047 6.4373856,5.4217606 L 4.8901641,3.8747713 4.3670653,4.3985497 3.8439666,4.9223281 5.3907331,6.4688581 C 6.241455,7.3194497 6.9375,8.0365884 6.9375,8.0625 c 0,0.025912 -0.696045,0.7430503 -1.5467669,1.5936419 l -1.5467665,1.5465301 0.5230987,0.523778 0.5230988,0.523779 1.5472215,-1.54699 C 7.2883575,9.8523953 8.0055963,9.15625 8.03125,9.15625 Z M 8,5.28125 V 5 h 0.3040359 0.304036 L 8.328125,5.28125 C 8.1741541,5.4359375 8.0373381,5.5625 8.0240891,5.5625 8.01084,5.5625 8,5.4359375 8,5.28125 Z"
       id="path819"
       inkscape:connector-curvature="0" />
  </g>
</svg>
