<?xml version="1.0" encoding="UTF-8" standalone="no"?>
<!-- Created with Inkscape (http://www.inkscape.org/) -->

<svg
   xmlns:dc="http://purl.org/dc/elements/1.1/"
   xmlns:cc="http://creativecommons.org/ns#"
   xmlns:rdf="http://www.w3.org/1999/02/22-rdf-syntax-ns#"
   xmlns:svg="http://www.w3.org/2000/svg"
   xmlns="http://www.w3.org/2000/svg"
   xmlns:sodipodi="http://sodipodi.sourceforge.net/DTD/sodipodi-0.dtd"
   xmlns:inkscape="http://www.inkscape.org/namespaces/inkscape"
   version="1.1"
   id="svg2"
   width="16"
   height="16"
   viewBox="0 0 16 16"
   sodipodi:docname="EMPTY_SINGLEARROW.svg"
   inkscape:version="0.92.4 (5da689c313, 2019-01-14)">
  <metadata
     id="metadata8">
    <rdf:RDF>
      <cc:Work
         rdf:about="">
        <dc:format>image/svg+xml</dc:format>
        <dc:type
           rdf:resource="http://purl.org/dc/dcmitype/StillImage" />
        <dc:title></dc:title>
      </cc:Work>
    </rdf:RDF>
  </metadata>
  <defs
     id="defs6" />
  <sodipodi:namedview
     pagecolor="#ffffff"
     bordercolor="#666666"
     borderopacity="1"
     objecttolerance="10"
     gridtolerance="10"
     guidetolerance="10"
     inkscape:pageopacity="0"
     inkscape:pageshadow="2"
     inkscape:window-width="1118"
     inkscape:window-height="847"
     id="namedview4"
     showgrid="false"
     inkscape:zoom="14.75"
     inkscape:cx="8"
     inkscape:cy="8"
     inkscape:window-x="0"
     inkscape:window-y="0"
     inkscape:window-maximized="0"
     inkscape:current-layer="svg2" />
  <g
     id="EMPTY_SINGLEARROW">
    <path
       style="fill:#ffffff;stroke-width:0.03125"
       d="M 0,8 V 0 h 8 8 v 8 8 H 8 0 Z M 9.2307494,9.7119963 C 9.4024006,9.6612803 9.6612803,9.4024006 9.7119963,9.2307494 9.7657103,9.0489509 9.7653103,6.9489772 9.7115275,6.7694663 9.6746138,6.6462591 9.4569006,6.3880069 9.3352847,6.3231653 9.2846281,6.2961569 9.2806606,6.2388809 9.2884097,5.6464359 l 0.00847,-0.647224 0.296875,0.2852875 c 0.5379423,0.516945 0.7852673,0.7206362 0.9965843,0.8207622 0.188589,0.089357 0.233702,0.097863 0.519041,0.097863 0.286025,0 0.330184,-0.00838 0.521238,-0.098891 0.290529,-0.1376403 0.471485,-0.3148037 0.612052,-0.5992206 0.111498,-0.2256003 0.11671,-0.2502478 0.11671,-0.5518881 0,-0.3021366 -0.0051,-0.3260072 -0.117747,-0.5539853 C 12.134547,4.182475 12.072275,4.1119175 11.554128,3.6201625 10.841285,2.9436273 9.9155672,2.0618886 9.2870203,1.4607599 8.8911175,1.0821269 8.7625238,0.97871459 8.5681197,0.88263488 8.3417563,0.77075994 8.3175813,0.76564472 8.0172456,0.76607459 7.455985,0.76687803 7.5553325,0.69084159 5.6937159,2.5444029 4.1843266,4.0472612 4.0837963,4.1542391 3.9749659,4.3733794 3.8646625,4.5954866 3.859375,4.6205769 3.859375,4.921875 c 0,0.3016403 0.00521,0.3262878 0.11671,0.5518881 0.1405666,0.2844169 0.3215234,0.4615803 0.6120522,0.5992206 0.1910534,0.090513 0.2352131,0.098891 0.5212378,0.098891 0.2887691,0 0.3290556,-0.00784 0.5305109,-0.1032306 C 5.8214997,5.9826481 5.9323653,5.89158 6.3039484,5.5231641 L 6.75,5.0809141 V 5.6967072 C 6.75,6.2346487 6.7438162,6.3125 6.7010869,6.3125 6.6159722,6.3125 6.3293016,6.6294747 6.2880037,6.7692506 6.2613153,6.8595791 6.25,7.2260234 6.25,8 6.25,8.7739766 6.261315,9.1404209 6.288004,9.2307494 6.3350356,9.3899319 6.5966181,9.6607997 6.75,9.709145 c 0.1603781,0.05055 2.3109428,0.053022 2.4807494,0.00285 z"
       id="path827"
       inkscape:connector-curvature="0" />
    <path
       style="fill:#fecb98;stroke-width:0.03125"
       d="M 7.2425587,5.0602269 7.234375,3.8704537 6.4375,4.6712303 C 5.9992187,5.1116572 5.5804581,5.5080016 5.5069206,5.5519953 5.2336022,5.7155084 4.9850313,5.7152706 4.7145047,5.5512391 4.3792309,5.3479469 4.2619097,4.9191675 4.4480716,4.5774959 4.5651475,4.3626209 7.4876666,1.4437854 7.6875,1.3421502 c 0.099724,-0.05072 0.1953425,-0.071681 0.3287553,-0.07207 0.2657259,-7.741e-4 0.4298716,0.098715 0.8868947,0.5375489 0.2086394,0.2003358 0.5363628,0.5119031 0.7282744,0.6923718 0.4503186,0.4234684 1.0538686,1.0000391 1.2757786,1.21875 0.09591,0.094531 0.309651,0.2970675 0.474971,0.4500804 0.182803,0.169194 0.334421,0.3403762 0.386939,0.4368696 0.187749,0.3449563 0.07177,0.7726691 -0.264868,0.9767879 C 11.129678,5.8096069 10.816574,5.7335659 10.371315,5.3073444 10.257569,5.1984606 9.9356356,4.8914062 9.6559078,4.625 9.3761797,4.3585937 9.0684631,4.0645772 8.9720931,3.9716294 L 8.796875,3.8026341 8.7886997,5.0263169 8.7805247,6.25 H 8.0156337 7.2507428 Z"
       id="path825"
       inkscape:connector-curvature="0" />
    <path
       style="fill:#fe9832;stroke-width:0.03125"
       d="M 7,8 V 7 H 8 9 V 8 9 H 8 7 Z"
       id="path823"
       inkscape:connector-curvature="0" />
    <path
       style="fill:#323232;stroke-width:0.03125"
       d="M 6.75,9.709145 C 6.5966181,9.6607997 6.3350356,9.3899319 6.2880037,9.2307494 6.2613153,9.1404209 6.25,8.7739766 6.25,8 6.25,7.2260234 6.261315,6.8595791 6.288004,6.7692506 6.33872,6.5975994 6.5975997,6.3387197 6.7692509,6.2880037 c 0.1804925,-0.053328 2.2810063,-0.053328 2.4614988,0 0.1716512,0.050716 0.4305309,0.3095957 0.4812469,0.4812469 0.053328,0.1804925 0.053328,2.2810063 0,2.4614988 C 9.6612803,9.4024006 9.4024006,9.6612803 9.2307494,9.7119963 9.0609428,9.7621672 6.9103781,9.7596953 6.75,9.7091463 Z M 9,8 V 7 H 8 7 v 1 1 h 1 1 z"
       id="path821"
       inkscape:connector-curvature="0" />
    <path
       style="fill:#320000;stroke-width:0.03125"
       d="M 9.203125,6.2788209 C 9.16875,6.2653856 9.0597656,6.2534044 8.9609375,6.2521966 L 8.78125,6.25 V 5.0264066 3.8028131 l 0.070312,0.058575 c 0.038672,0.032216 0.1199919,0.1082235 0.1807113,0.1689056 0.060719,0.060683 0.3403109,0.3283003 0.6213146,0.5947066 0.2810038,0.2664062 0.6039811,0.5734606 0.7177271,0.6823431 0.445259,0.4262216 0.758363,0.5022625 1.13293,0.2751447 C 11.840882,5.3783691 11.956862,4.9506562 11.769113,4.6057 11.716595,4.5092066 11.564977,4.3380244 11.382174,4.1688303 11.216854,4.0158175 11.003117,3.8132813 10.907203,3.71875 10.685293,3.5000391 10.081743,2.9234684 9.6314244,2.5 9.4395128,2.3195312 9.1117894,2.0079639 8.90315,1.8076281 8.4461269,1.3687943 8.2819812,1.2693052 8.0162553,1.2700792 7.8828425,1.270468 7.7872244,1.2914292 7.6875,1.342149 7.4876666,1.4437842 4.5651475,4.3626197 4.4480716,4.5774947 4.2619097,4.9191662 4.3792309,5.3479456 4.7145047,5.5512378 4.9850312,5.7152706 5.2336022,5.7155084 5.5069206,5.5519941 5.5804581,5.5080003 5.9992187,5.1116559 6.4375,4.6712287 l 0.796875,-0.8007768 0.00819,1.1789762 c 0.00451,0.6484369 0.00451,1.1820619 0,1.1858332 -0.00451,0.00377 -0.1171775,0.013549 -0.2503806,0.021729 L 6.75,6.2718622 V 5.6763875 5.0809128 l -0.4460516,0.44225 C 5.9323653,5.8915787 5.8214997,5.9826469 5.6398859,6.0686431 5.4384306,6.1640347 5.3981441,6.1718737 5.109375,6.1718737 c -0.2860247,0 -0.3301844,-0.00838 -0.5212378,-0.098891 C 4.2976084,5.9353422 4.1166516,5.7581787 3.976085,5.4737619 3.8645872,5.2481628 3.859375,5.2235153 3.859375,4.921875 c 0,-0.3012981 0.00529,-0.3263884 0.1155909,-0.5484956 C 4.0837962,4.1542391 4.1843266,4.0472612 5.6937159,2.5444029 7.5553325,0.69084159 7.455985,0.76687794 8.0172456,0.76607459 c 0.3003357,-4.3e-4 0.3245107,0.004685 0.5508741,0.11656029 0.1944041,0.0960797 0.3229978,0.19949202 0.7189006,0.57812502 0.6285469,0.6011287 1.5542647,1.4828674 2.2671077,2.1594026 0.518147,0.491755 0.580419,0.5623125 0.6875,0.7789772 0.112552,0.2277331 0.117747,0.2521022 0.117747,0.5523647 0,0.287844 -0.0083,0.3315818 -0.09889,0.5228584 -0.137641,0.2905288 -0.314804,0.4714856 -0.599221,0.6120522 -0.225357,0.1113775 -0.250499,0.11671 -0.550267,0.11671 -0.287155,0 -0.331852,-0.0084 -0.520662,-0.097863 C 10.378996,6.0051253 10.131545,5.8013247 9.59375,5.2844731 L 9.296875,4.9991597 9.28125,5.6512044 C 9.2660016,6.2875331 9.2641184,6.3026606 9.203125,6.2788209 Z"
       id="path819"
       inkscape:connector-curvature="0" />
  </g>
</svg>
