<?xml version="1.0" encoding="UTF-8" standalone="no"?>
<!-- Created with Inkscape (http://www.inkscape.org/) -->

<svg
   xmlns:dc="http://purl.org/dc/elements/1.1/"
   xmlns:cc="http://creativecommons.org/ns#"
   xmlns:rdf="http://www.w3.org/1999/02/22-rdf-syntax-ns#"
   xmlns:svg="http://www.w3.org/2000/svg"
   xmlns="http://www.w3.org/2000/svg"
   xmlns:sodipodi="http://sodipodi.sourceforge.net/DTD/sodipodi-0.dtd"
   xmlns:inkscape="http://www.inkscape.org/namespaces/inkscape"
   version="1.1"
   id="svg2"
   width="16"
   height="16"
   viewBox="0 0 16 16"
   sodipodi:docname="RESTRICT_VIEW_ON.svg"
   inkscape:version="0.92.4 (5da689c313, 2019-01-14)">
  <metadata
     id="metadata8">
    <rdf:RDF>
      <cc:Work
         rdf:about="">
        <dc:format>image/svg+xml</dc:format>
        <dc:type
           rdf:resource="http://purl.org/dc/dcmitype/StillImage" />
        <dc:title></dc:title>
      </cc:Work>
    </rdf:RDF>
  </metadata>
  <defs
     id="defs6" />
  <sodipodi:namedview
     pagecolor="#ffffff"
     bordercolor="#666666"
     borderopacity="1"
     objecttolerance="10"
     gridtolerance="10"
     guidetolerance="10"
     inkscape:pageopacity="0"
     inkscape:pageshadow="2"
     inkscape:window-width="1046"
     inkscape:window-height="730"
     id="namedview4"
     showgrid="false"
     inkscape:zoom="14.75"
     inkscape:cx="8"
     inkscape:cy="8"
     inkscape:window-x="0"
     inkscape:window-y="0"
     inkscape:window-maximized="0"
     inkscape:current-layer="svg2" />
  <g
     id="RESTRICT_VIEW_ON">
    <path
       style="fill:#ffffff;stroke-width:0.03125"
       d="M 0,8 V 0 h 8 8 v 8 8 H 8 0 Z"
       id="path827"
       inkscape:connector-curvature="0" />
    <path
       style="fill:#fefefe;stroke-width:0.03125"
       d="M 7.28125,11.967015 C 5.6599987,11.766519 3.7785369,10.843209 2.0361769,9.3930416 1.8864672,9.2684381 1.6321003,9.0411391 1.4709171,8.8879325 1.0926945,8.5284272 1.0000493,8.3506484 1.0000493,7.984375 c 0,-0.2106875 0.014176,-0.2799647 0.090148,-0.4405547 C 1.1696791,7.3758131 1.2401876,7.3010859 1.6860898,6.9122747 2.7487363,5.9856837 3.6582766,5.3661819 4.7241666,4.8429928 5.2894387,4.5655306 5.8294294,4.3586291 6.3465628,4.2213591 7.0104725,4.0451284 7.2338178,4.0176053 8,4.0176053 c 0.7661822,0 0.9895275,0.027523 1.6534372,0.2037538 1.5648288,0.4153743 3.4428808,1.5288475 4.8756458,2.8907084 0.378223,0.3595053 0.470868,0.5372841 0.470868,0.9035575 0,0.2106875 -0.01418,0.2799647 -0.09015,0.4405547 -0.07948,0.1680072 -0.149991,0.2427344 -0.595893,0.6315456 -1.062646,0.9265907 -1.972187,1.5460927 -3.038077,2.0692817 -0.771994,0.378931 -1.5241474,0.634109 -2.260208,0.766805 -0.3331544,0.06006 -1.3859916,0.08629 -1.734375,0.0432 z"
       id="path825"
       inkscape:connector-curvature="0" />
    <path
       style="fill:#75b6fe;stroke-width:0.03125"
       d="M 7.28125,11.967015 C 5.6599987,11.766519 3.7785369,10.843209 2.0361769,9.3930416 1.8864672,9.2684381 1.6321003,9.0411391 1.4709171,8.8879325 1.0926945,8.5284272 1.0000493,8.3506484 1.0000493,7.984375 c 0,-0.2106875 0.014176,-0.2799647 0.090148,-0.4405547 C 1.1696791,7.3758131 1.2401876,7.3010859 1.6860898,6.9122747 2.7487363,5.9856837 3.6582766,5.3661819 4.7241666,4.8429928 5.2894387,4.5655306 5.8294294,4.3586291 6.3465628,4.2213591 7.0104725,4.0451284 7.2338178,4.0176053 8,4.0176053 c 0.7661822,0 0.9895275,0.027523 1.6534372,0.2037538 1.5648288,0.4153743 3.4428808,1.5288475 4.8756458,2.8907084 0.378223,0.3595053 0.470868,0.5372841 0.470868,0.9035575 0,0.2106875 -0.01418,0.2799647 -0.09015,0.4405547 -0.07948,0.1680072 -0.149991,0.2427344 -0.595893,0.6315456 -1.062646,0.9265907 -1.972187,1.5460927 -3.038077,2.0692817 -0.771994,0.378931 -1.5241474,0.634109 -2.260208,0.766805 -0.3331544,0.06006 -1.3859916,0.08629 -1.734375,0.0432 z M 8.4934191,10.966661 C 9.2129731,10.887606 9.9633597,10.659 10.741032,10.281923 11.784463,9.7759856 12.532613,9.2752413 13.555514,8.3981634 L 14.001653,8.015625 13.758639,7.7863622 c -0.501831,-0.473435 -1.280985,-1.0688169 -1.938273,-1.48111 -0.420068,-0.2634941 -1.083974,-0.6085788 -1.06072,-0.551341 0.0096,0.02363 0.06379,0.1765575 0.120422,0.3398388 l 0.102966,0.296875 -2.19e-4,0.640625 c -1.87e-4,0.6192344 -0.0032,0.6494944 -0.08851,0.90625 -0.04856,0.1460938 -0.152749,0.3921875 -0.23152,0.546875 -0.124353,0.2442031 -0.194933,0.3329644 -0.53582,0.6738513 C 9.7860784,9.4991131 9.6973172,9.5696928 9.4531141,9.6940484 9.2984266,9.77282 9.0523328,9.8770044 8.9062391,9.9255688 c -0.2568713,0.085389 -0.2867372,0.088299 -0.90625,0.088299 -0.6195128,0 -0.6493788,-0.0029 -0.90625,-0.088299 C 6.9476453,9.8770044 6.7015516,9.77282 6.5468641,9.6940484 6.3026609,9.5696928 6.2138997,9.4991131 5.8730128,9.1582263 5.5321369,8.8173394 5.4615572,8.7285781 5.3372016,8.484375 5.25843,8.3296875 5.1542456,8.0835938 5.1056812,7.9375 5.0203303,7.6807444 5.017375,7.6504844 5.0171737,7.03125 L 5.016955,6.390625 5.1199216,6.09375 C 5.1765531,5.9304687 5.2304497,5.7784206 5.2396919,5.755865 5.2593594,5.7078663 4.8127469,5.9274153 4.4169091,6.1603347 3.7743459,6.5384325 3.1671428,6.9821909 2.4444751,7.6018366 L 1.9983471,7.984375 2.241361,8.2136378 C 2.3750187,8.3397325 2.6658769,8.5891953 2.8877125,8.7680003 3.6873919,9.4125606 4.2647647,9.7844716 5.140625,10.2192 c 1.2618659,0.626319 2.3161341,0.861354 3.3527941,0.747461 z M 7.0105994,6.8919397 C 7.0687656,6.4675709 7.4363209,6.1000156 7.8606897,6.0418494 L 8,6.0227547 V 5.5270025 5.03125 L 7.8984375,5.0317937 C 7.6933059,5.0328906 7.3525653,5.1272325 7.0948078,5.2542991 6.7267941,5.4357188 6.4044675,5.7580453 6.2230478,6.1260591 6.0959813,6.3838166 6.0016384,6.7245572 6.0005425,6.9296888 L 6,7.03125 h 0.4957525 0.4957522 z"
       id="path823"
       inkscape:connector-curvature="0" />
    <path
       style="fill:#0000cb;stroke-width:0.03125"
       d="M 7.28125,11.967015 C 5.6599987,11.766519 3.7785369,10.843209 2.0361769,9.3930416 1.8864672,9.2684381 1.6321003,9.0411391 1.4709171,8.8879325 1.0926945,8.5284272 1.0000493,8.3506484 1.0000493,7.984375 c 0,-0.2106875 0.014176,-0.2799647 0.090148,-0.4405547 C 1.1696791,7.3758131 1.2401876,7.3010859 1.6860898,6.9122747 2.7487363,5.9856837 3.6582766,5.3661819 4.7241666,4.8429928 5.2894387,4.5655306 5.8294294,4.3586291 6.3465628,4.2213591 7.0104725,4.0451284 7.2338178,4.0176053 8,4.0176053 c 0.7661822,0 0.9895275,0.027523 1.6534372,0.2037538 1.5648288,0.4153743 3.4428808,1.5288475 4.8756458,2.8907084 0.378223,0.3595053 0.470868,0.5372841 0.470868,0.9035575 0,0.2106875 -0.01418,0.2799647 -0.09015,0.4405547 -0.07948,0.1680072 -0.149991,0.2427344 -0.595893,0.6315456 -1.062646,0.9265907 -1.972187,1.5460927 -3.038077,2.0692817 -0.771994,0.378931 -1.5241474,0.634109 -2.260208,0.766805 -0.3331544,0.06006 -1.3859916,0.08629 -1.734375,0.0432 z M 8.4934191,10.966661 C 9.2129731,10.887606 9.9633597,10.659 10.741032,10.281923 11.784463,9.7759856 12.532613,9.2752413 13.555514,8.3981634 L 14.001653,8.015625 13.758639,7.7863622 c -0.501831,-0.473435 -1.280985,-1.0688169 -1.938273,-1.48111 -0.420068,-0.2634941 -1.083974,-0.6085788 -1.06072,-0.551341 0.0096,0.02363 0.06379,0.1765575 0.120422,0.3398388 l 0.102966,0.296875 -2.19e-4,0.640625 c -1.87e-4,0.6192344 -0.0032,0.6494944 -0.08851,0.90625 -0.04856,0.1460938 -0.152749,0.3921875 -0.23152,0.546875 -0.124353,0.2442031 -0.194933,0.3329644 -0.53582,0.6738513 C 9.7860784,9.4991131 9.6973172,9.5696928 9.4531141,9.6940484 9.2984266,9.77282 9.0523328,9.8770044 8.9062391,9.9255688 c -0.2568713,0.085389 -0.2867372,0.088299 -0.90625,0.088299 -0.6195128,0 -0.6493788,-0.0029 -0.90625,-0.088299 C 6.9476453,9.8770044 6.7015516,9.77282 6.5468641,9.6940484 6.3026609,9.5696928 6.2138997,9.4991131 5.8730128,9.1582263 5.5321369,8.8173394 5.4615572,8.7285781 5.3372016,8.484375 5.25843,8.3296875 5.1542456,8.0835938 5.1056812,7.9375 5.0203303,7.6807444 5.017375,7.6504844 5.0171737,7.03125 L 5.016955,6.390625 5.1199216,6.09375 C 5.1765531,5.9304687 5.2304497,5.7784206 5.2396919,5.755865 5.2593594,5.7078663 4.8127469,5.9274153 4.4169091,6.1603347 3.7743459,6.5384325 3.1671428,6.9821909 2.4444751,7.6018366 L 1.9983471,7.984375 2.241361,8.2136378 C 2.3750187,8.3397325 2.6658769,8.5891953 2.8877125,8.7680003 3.6873919,9.4125606 4.2647647,9.7844716 5.140625,10.2192 c 1.2618659,0.626319 2.3161341,0.861354 3.3527941,0.747461 z M 8.734375,9.4382681 C 9.1639863,9.3017606 9.4259397,9.1394266 9.7670581,8.7983081 10.112472,8.4528947 10.273386,8.1909963 10.411155,7.75 c 0.06356,-0.2034644 0.07322,-0.2982569 0.07322,-0.71875 0,-0.4204931 -0.0097,-0.5152856 -0.07322,-0.71875 C 10.312048,5.9952597 10.115909,5.6257428 9.9581616,5.4590794 9.8383034,5.3324469 9.7999956,5.3140469 9.46875,5.2240031 8.8701419,5.0612806 8.5688403,5.0192844 8,5.0192844 c -0.5688403,0 -0.8701419,0.041996 -1.46875,0.2047187 C 6.2000044,5.3140469 6.1616966,5.3324469 6.0418384,5.4590794 5.8840909,5.6257428 5.6879522,5.9952597 5.5888447,6.3125 c -0.063563,0.2034644 -0.07322,0.2982569 -0.07322,0.71875 0,0.5554034 0.046394,0.7584409 0.2749119,1.203125 0.1823759,0.3548944 0.6532106,0.8252722 1.0063381,1.0053628 0.4753194,0.2424066 0.7023494,0.2917066 1.28125,0.2782253 0.3453037,-0.00804 0.4835981,-0.024836 0.6562503,-0.079695 z M 7.6876684,7.98102 C 6.97962,7.7237453 6.7728872,6.8506219 7.2961294,6.3273794 7.5014528,6.1220559 7.6872622,6.0484141 8,6.0484141 c 0.3127378,0 0.4985472,0.073642 0.7038706,0.2789653 0.2053235,0.2053234 0.2789653,0.3911328 0.2789653,0.7038706 0,0.3127378 -0.073642,0.4985472 -0.2789653,0.7038706 C 8.4471069,7.9918841 8.0091959,8.0978494 7.6876684,7.98102 Z"
       id="path821"
       inkscape:connector-curvature="0" />
    <path
       style="fill:#000000;stroke-width:0.03125"
       d="M 7.28125,11.967015 C 5.6599987,11.766519 3.7785369,10.843209 2.0361769,9.3930416 1.8864672,9.2684381 1.6321003,9.0411391 1.4709171,8.8879325 1.0926945,8.5284272 1.0000493,8.3506484 1.0000493,7.984375 c 0,-0.2106875 0.014176,-0.2799647 0.090148,-0.4405547 C 1.1696791,7.3758131 1.2401876,7.3010859 1.6860898,6.9122747 2.7487363,5.9856837 3.6582766,5.3661819 4.7241666,4.8429928 5.2894387,4.5655306 5.8294294,4.3586291 6.3465628,4.2213591 7.0104725,4.0451284 7.2338178,4.0176053 8,4.0176053 c 0.7661822,0 0.9895275,0.027523 1.6534372,0.2037538 1.5648288,0.4153743 3.4428808,1.5288475 4.8756458,2.8907084 0.378223,0.3595053 0.470868,0.5372841 0.470868,0.9035575 0,0.2106875 -0.01418,0.2799647 -0.09015,0.4405547 -0.07948,0.1680072 -0.149991,0.2427344 -0.595893,0.6315456 -1.062646,0.9265907 -1.972187,1.5460927 -3.038077,2.0692817 -0.771994,0.378931 -1.5241474,0.634109 -2.260208,0.766805 -0.3331544,0.06006 -1.3859916,0.08629 -1.734375,0.0432 z M 8.4934191,10.966661 C 9.2129731,10.887606 9.9633597,10.659 10.741032,10.281923 11.784463,9.7759856 12.532613,9.2752413 13.555514,8.3981634 L 14.001653,8.015625 13.758639,7.7863622 C 13.624981,7.6602675 13.334123,7.4108047 13.112288,7.2319997 12.311757,6.5867531 11.734203,6.2148391 10.859375,5.7812431 9.9323078,5.3217553 9.2200984,5.1031653 8.3984375,5.0259362 7.4489812,4.9366959 6.3929669,5.1696581 5.2589681,5.7185194 4.2178556,6.2224231 3.4682222,6.7240422 2.444486,7.6018366 L 1.9983471,7.984375 2.241361,8.2136378 C 2.3750187,8.3397325 2.6658769,8.5891953 2.8877125,8.7680003 3.6873919,9.4125606 4.2647647,9.7844716 5.140625,10.2192 c 1.2618659,0.626319 2.3161341,0.861354 3.3527941,0.747461 z M 7.6876684,7.98102 C 6.97962,7.7237453 6.7728872,6.8506219 7.2961294,6.3273794 7.5014528,6.1220559 7.6872622,6.0484141 8,6.0484141 c 0.3127378,0 0.4985472,0.073642 0.7038706,0.2789653 0.2053235,0.2053234 0.2789653,0.3911328 0.2789653,0.7038706 0,0.3127378 -0.073642,0.4985472 -0.2789653,0.7038706 C 8.4471069,7.9918841 8.0091959,8.0978494 7.6876684,7.98102 Z"
       id="path819"
       inkscape:connector-curvature="0" />
  </g>
</svg>
