<?xml version="1.0" encoding="UTF-8" standalone="no"?>
<!-- Created with Inkscape (http://www.inkscape.org/) -->

<svg
   xmlns:dc="http://purl.org/dc/elements/1.1/"
   xmlns:cc="http://creativecommons.org/ns#"
   xmlns:rdf="http://www.w3.org/1999/02/22-rdf-syntax-ns#"
   xmlns:svg="http://www.w3.org/2000/svg"
   xmlns="http://www.w3.org/2000/svg"
   xmlns:sodipodi="http://sodipodi.sourceforge.net/DTD/sodipodi-0.dtd"
   xmlns:inkscape="http://www.inkscape.org/namespaces/inkscape"
   version="1.1"
   id="svg2"
   width="16"
   height="16"
   viewBox="0 0 16 16"
   sodipodi:docname="RESTRICT_RENDER_OFF.svg"
   inkscape:version="0.92.4 (5da689c313, 2019-01-14)">
  <metadata
     id="metadata8">
    <rdf:RDF>
      <cc:Work
         rdf:about="">
        <dc:format>image/svg+xml</dc:format>
        <dc:type
           rdf:resource="http://purl.org/dc/dcmitype/StillImage" />
        <dc:title></dc:title>
      </cc:Work>
    </rdf:RDF>
  </metadata>
  <defs
     id="defs6" />
  <sodipodi:namedview
     pagecolor="#ffffff"
     bordercolor="#666666"
     borderopacity="1"
     objecttolerance="10"
     gridtolerance="10"
     guidetolerance="10"
     inkscape:pageopacity="0"
     inkscape:pageshadow="2"
     inkscape:window-width="861"
     inkscape:window-height="625"
     id="namedview4"
     showgrid="false"
     inkscape:zoom="14.75"
     inkscape:cx="8"
     inkscape:cy="8"
     inkscape:window-x="0"
     inkscape:window-y="0"
     inkscape:window-maximized="0"
     inkscape:current-layer="svg2" />
  <g
     id="RESTRICT_RENDER_OFF">
    <path
       style="fill:#ffffff;stroke-width:0.03125"
       d="M 0,8 V 0 h 8 8 v 8 8 H 8 0 Z m 3.515625,6.093425 c 0.1672331,-0.06344 0.2517813,-0.134744 0.7822044,-0.65967 l 0.5947047,-0.588541 4.4209203,-0.0085 4.4209206,-0.0085 0.15625,-0.09287 c 0.08594,-0.05108 0.241868,-0.178837 0.346512,-0.283908 0.157568,-0.158211 0.205898,-0.233542 0.28125,-0.43838 l 0.09099,-0.247342 v -3.3125 -3.3125 L 14.519322,4.8958462 C 14.442518,4.68708 14.398219,4.6202019 14.218222,4.4412725 14.031398,4.2555569 13.907901,4.1758613 13.707479,4.1116781 c -0.04937,-0.015811 -0.02747,-0.051135 0.145079,-0.2340506 0.270671,-0.2869247 0.347858,-0.4781962 0.347858,-0.8620025 0,-0.3859889 -0.08135,-0.5895235 -0.338306,-0.8464847 -0.256962,-0.2569613 -0.460496,-0.3383058 -0.846485,-0.3383058 -0.484271,0 -0.544497,0.036086 -1.28621,0.7706537 L 11.099456,3.2253803 11.08879,2.8861277 C 11.078655,2.5637343 11.073466,2.5410135 10.984375,2.4289256 10.929067,2.3593412 10.845776,2.2978352 10.78125,2.2789288 10.709564,2.2579246 9.8778597,2.2501108 8.3676366,2.2562532 L 6.0633984,2.265625 5.9301366,2.3988398 5.796875,2.5320547 5.7875097,3.2972772 5.7781447,4.0625 H 5.3421972 4.90625 V 3.780005 C 4.90625,3.5627519 4.892343,3.4702506 4.846034,3.3794769 4.7391237,3.1699156 4.7468534,3.171875 4.0270481,3.171875 H 3.3762019 L 3.2745309,3.2735459 C 3.1740444,3.3740325 3.1727231,3.3792194 3.1610981,3.7188584 L 3.1493359,4.0625 2.8168555,4.0628719 C 2.2857274,4.0634656 2.0884486,4.1356391 1.7784324,4.4427806 1.6254565,4.5943381 1.5635127,4.6851256 1.49549,4.8574722 L 1.408401,5.0781259 1.407321,8.3316731 c -6.241e-4,1.8878279 0.011164,3.3180879 0.028083,3.4073009 0.054294,0.286291 0.1567932,0.504528 0.3170399,0.675028 0.1376229,0.146428 0.1517029,0.174232 0.1305903,0.257874 -0.04826,0.191193 -0.022416,0.585053 0.050653,0.771926 0.076404,0.195402 0.2879027,0.451732 0.4609927,0.558708 0.3158334,0.195196 0.7526607,0.230625 1.1209407,0.09092 z"
       id="path851"
       inkscape:connector-curvature="0" />
    <path
       style="fill:#fefefe;stroke-width:0.03125"
       d="M 6.2288678,7.9265922 C 6.2623953,7.5714406 6.5476328,7.2385325 6.888455,7.1567706 7.2412894,7.0721269 7.2300741,7.1000475 6.7003709,7.625 L 6.2116125,8.109375 Z M 1.8504056,5.6640625 C 1.8613766,5.1446928 1.8670095,5.1006241 1.9388738,4.9719378 2.0457213,4.7806075 2.2267248,4.622905 2.4159686,4.5562606 2.5677695,4.5028019 2.7724192,4.5001712 6.1949719,4.5076831 L 9.8134828,4.515625 9.4458041,4.8797112 9.078125,5.2437978 8.890625,5.1541259 C 8.7875,5.1048066 8.6732525,5.0640144 8.6367416,5.0634772 8.6002306,5.0629397 8.5158556,5.0433309 8.4492416,5.0199019 8.0848972,4.8917578 7.1968597,4.8734156 6.796875,4.9857728 6.69375,5.0147409 6.553125,5.0499641 6.484375,5.0640459 6.3044344,5.1009031 5.8340941,5.3282681 5.569385,5.5063572 5.4442656,5.5905341 5.2131341,5.7852584 5.0557594,5.9390781 L 4.7696234,6.21875 H 3.3041559 1.8386886 Z M 12.375,5.359375 c 0.951849,-0.9523209 0.894142,-0.9140066 1.209399,-0.802985 0.276098,0.097231 0.480943,0.3409703 0.569796,0.677985 0.01813,0.06875 0.03303,0.3183594 0.03313,0.5546875 L 14.1875,6.21875 h -1.335724 -1.335725 z"
       id="path849"
       inkscape:connector-curvature="0" />
    <path
       style="fill:#98cbfe;stroke-width:0.03125"
       d="M 8.4048453,9.3320491 C 8.8939166,8.8413666 9.2988228,8.4446563 9.3046369,8.4504703 c 0.00581,0.00581 -0.00305,0.1202672 -0.019693,0.25434 C 9.2336266,9.1181584 8.9716003,9.5519875 8.5926294,9.8510544 8.3913888,10.009865 7.9939525,10.164252 7.6875,10.202658 l -0.171875,0.02154 z M 5.7956887,8.34375 C 5.8283875,8.0355828 5.9782513,7.6270509 6.1331516,7.4238184 6.4095731,7.0611475 6.8818394,6.7671594 7.2679044,6.7174291 7.6701625,6.6656131 7.6658797,6.6603612 7.421875,6.90625 7.2353972,7.0941678 7.1892669,7.1250669 7.0945881,7.1254744 6.66363,7.1273306 6.2670484,7.4966256 6.2274869,7.9329175 6.2110072,8.1146575 6.2053506,8.1242831 5.9923684,8.3330062 L 5.7741356,8.546875 Z"
       id="path847"
       inkscape:connector-curvature="0" />
    <path
       style="fill:#cbcbcb;stroke-width:0.03125"
       d="m 5.7044828,12.030211 0.3760391,-0.376039 0.2064575,0.09361 c 0.2702653,0.122544 0.8376256,0.22103 1.2717559,0.220759 0.4436856,-2.81e-4 1.0122156,-0.09779 1.2693897,-0.217731 0.034375,-0.01603 0.1593669,-0.07199 0.27776,-0.124355 l 0.2152597,-0.09521 h 2.4298563 2.429856 l -0.02947,0.132813 c -0.07469,0.336597 -0.303666,0.612316 -0.577521,0.695399 -0.130599,0.03962 -0.72158,0.04616 -4.1987076,0.04645 l -4.0467157,3.38e-4 z m -3.6350295,0.07739 C 2.031254,12.080847 2,12.034758 2,12.005181 2,11.975601 1.980703,11.923671 1.957117,11.889766 1.933531,11.855866 1.90008,11.761328 1.88278,11.679688 L 1.8513268,11.53125 h 0.4721878 0.4721878 l -0.3113274,0.3125 c -0.1712301,0.171875 -0.3190091,0.3125 -0.3283979,0.3125 -0.00939,0 -0.048324,-0.02189 -0.086524,-0.04865 z M 3.59375,3.828125 V 3.59375 h 0.4375 0.4375 V 3.828125 4.0625 H 4.03125 3.59375 Z M 6.21875,3.375 V 2.6875 H 8.4375 10.65625 V 3.1805903 3.6736806 L 10.460097,3.8680903 10.263943,4.0625 H 8.2413466 6.21875 Z"
       id="path845"
       inkscape:connector-curvature="0" />
    <path
       style="fill:#656565;stroke-width:0.03125"
       d="M 6.8934928,11.450414 C 6.68882,11.408631 6.5016334,11.358073 6.4775222,11.338063 c -0.035928,-0.02982 0.01913,-0.09953 0.3051025,-0.386317 0.3488284,-0.34982 0.3489778,-0.349925 0.4628456,-0.32346 0.2646685,0.06151 0.7355741,0.01146 1.0161585,-0.108014 0.066552,-0.02834 0.1438959,-0.05182 0.171875,-0.05219 0.065976,-8.65e-4 0.4284765,-0.236075 0.6053009,-0.39275 C 9.1712728,9.9579581 9.5311356,9.4988769 9.5313572,9.4469759 9.5314197,9.4331703 9.5762831,9.3164063 9.6310619,9.1875 9.7264934,8.9629291 9.7310594,8.9328894 9.7402191,8.4693716 L 9.7497781,7.9856181 10.08478,7.6495747 c 0.184251,-0.1848241 0.344076,-0.3257288 0.355168,-0.3131216 0.02596,0.029503 0.08248,0.2353269 0.156483,0.5697969 0.100287,0.4532806 0.06969,0.8808981 -0.107327,1.5 -0.06272,0.2193684 -0.323916,0.735168 -0.416861,0.823214 -0.03914,0.03708 -0.07175,0.08147 -0.072475,0.09866 -0.0025,0.05948 -0.5628428,0.609375 -0.6209596,0.609375 -0.013936,0 -0.062276,0.03174 -0.1074229,0.07053 -0.1925093,0.165418 -0.6831065,0.36911 -1.0819143,0.449202 -0.4669378,0.09377 -0.8121066,0.09196 -1.2959788,-0.0068 z M 4.6626078,9.5385181 C 4.5880256,9.3813309 4.4687272,8.6967278 4.4694728,8.4302006 4.4704509,8.0802591 4.5902197,7.5023569 4.7177106,7.2324034 4.8921722,6.8629934 4.9192713,6.8132144 4.9919663,6.7286141 5.0307597,6.6834672 5.0625,6.6351269 5.0625,6.6211912 5.0625,6.5614202 5.6109384,6.0024534 5.671875,6.0001178 5.689063,5.9994584 5.73346,5.9668968 5.770536,5.9277578 5.8585822,5.8348116 6.3743816,5.5736197 6.59375,5.5108962 7.3619878,5.2912359 7.7414963,5.2924391 8.5577231,5.5171219 L 8.7560716,5.5717212 8.3997756,5.9280169 8.0434797,6.2843128 7.9045525,6.2522953 C 7.5877522,6.179285 7.1667216,6.2292069 6.7787981,6.3857769 6.6657309,6.4314122 6.5630291,6.46875 6.5505722,6.46875 6.5007872,6.46875 6.0392559,6.8318712 5.9246691,6.9611953 5.7679944,7.1380197 5.5327859,7.5005197 5.5319187,7.5664962 5.53155,7.5944753 5.5080647,7.6718191 5.4797275,7.7383712 5.3556781,8.0297081 5.3104453,8.4894822 5.3772953,8.7795525 L 5.4093128,8.9184797 5.0562187,9.2711956 4.703125,9.6239112 Z"
       id="path843"
       inkscape:connector-curvature="0" />
    <path
       style="fill:#fe0000;stroke-width:0.03125"
       d="M 2.8346027,13.638496 C 2.5102681,13.535817 2.294638,13.165854 2.3743402,12.848812 c 0.020144,-0.08013 0.06304,-0.187875 0.095326,-0.239437 0.032286,-0.05156 2.3339594,-2.367376 5.1148301,-5.1462516 l 5.0561287,-5.0525018 0.182438,-0.052078 c 0.150958,-0.043092 0.207578,-0.04585 0.328125,-0.015989 0.291048,0.072098 0.463324,0.244545 0.536972,0.5375067 0.03046,0.1211654 0.02786,0.1763937 -0.01545,0.328125 L 13.620629,3.390625 8.5525022,8.4616388 C 5.1242656,11.891828 3.4439288,13.552217 3.359375,13.593116 3.18207,13.67888 3.0093443,13.693817 2.8346027,13.638496 Z"
       id="path841"
       inkscape:connector-curvature="0" />
    <path
       style="fill:#323232;stroke-width:0.03125"
       d="m 5.1086484,12.625732 0.2178003,-0.219482 4.0477132,-3.38e-4 c 3.4780071,-2.81e-4 4.0691051,-0.0068 4.1997051,-0.04645 0.273855,-0.08308 0.502836,-0.358802 0.577521,-0.695399 l 0.02947,-0.132812 H 11.751001 9.3211447 L 9.105885,11.626458 C 8.9874919,11.678821 8.8625,11.734781 8.828125,11.750813 8.5709509,11.870749 8.0024209,11.968266 7.5587353,11.968543 7.1247016,11.968824 6.5572397,11.870326 6.2871034,11.74784 L 6.08077,11.654284 6.2571425,11.477912 c 0.1411166,-0.141117 0.1850872,-0.169139 0.2199713,-0.140188 0.07558,0.06273 0.8171465,0.193574 1.0926856,0.192803 0.3499415,-9.78e-4 0.9278437,-0.120747 1.1977972,-0.248238 0.36941,-0.174461 0.419189,-0.20156 0.5037893,-0.274255 0.045147,-0.03879 0.093487,-0.07053 0.1074228,-0.07053 0.058117,0 0.6184635,-0.549893 0.6209597,-0.609375 7.216e-4,-0.01719 0.033335,-0.06158 0.072474,-0.09866 0.09295,-0.08805 0.354138,-0.6038456 0.416862,-0.823214 0.217313,-0.7600278 0.217177,-1.1852284 -6.16e-4,-1.9375 L 10.438728,7.296875 10.976842,6.7578125 11.514956,6.21875 h 1.336272 1.336273 L 14.187313,5.7890625 C 14.187126,5.3358728 14.164077,5.1957509 14.052795,4.97143 13.923711,4.7111984 13.599998,4.5 13.330227,4.5 c -0.0936,0 -0.0931,-9.531e-4 0.106369,-0.2022131 0.170479,-0.1720078 0.212355,-0.1993528 0.280347,-0.1830657 0.162565,0.038942 0.31702,0.1404838 0.512497,0.3369247 0.167729,0.1685569 0.215334,0.2415841 0.290283,0.4453007 l 0.08965,0.2436784 v 3.3125 3.3125 l -0.09099,0.247342 c -0.07535,0.204838 -0.123682,0.280169 -0.28125,0.43838 -0.104644,0.105071 -0.260574,0.23283 -0.346512,0.283908 l -0.15625,0.09287 -4.4217634,0.0085 -4.4217638,0.0085 z M 1.7419744,12.404734 C 1.5919984,12.241405 1.4877643,12.015043 1.4354088,11.738973 1.4184898,11.64976 1.4067015,10.2195 1.4073257,8.3316722 L 1.4084013,5.078125 1.49549,4.8574712 C 1.5635127,4.6851247 1.6254565,4.5943372 1.7784324,4.4427797 2.0884486,4.1356381 2.2857274,4.0634634 2.8168555,4.0628709 L 3.1493359,4.0625 3.1610981,3.7188584 C 3.1727231,3.3792194 3.1740444,3.3740325 3.2745309,3.2735459 L 3.3762019,3.171875 h 0.6508462 c 0.7198053,0 0.7120756,-0.00196 0.818986,0.2076019 0.046309,0.090774 0.060216,0.183275 0.060216,0.4005281 V 4.0625 H 5.3421972 5.7781447 L 5.7875097,3.2972772 5.796875,2.5320547 5.9301366,2.3988398 6.0633984,2.265625 8.3676366,2.2562532 c 1.5102231,-0.00614 2.3419274,0.00167 2.4136134,0.022676 0.06453,0.018906 0.147817,0.080412 0.203125,0.1499968 0.08948,0.1125717 0.09419,0.1336221 0.103511,0.4616994 l 0.0098,0.34375 -0.220699,0.2179119 -0.220699,0.2179119 V 3.1788494 2.6875 H 8.4375 6.21875 V 3.375 4.0625 H 8.2413494 10.263949 L 10.046875,4.28125 9.8298012,4.5 H 6.2027634 C 2.7867195,4.5 2.566411,4.5032803 2.4156011,4.55639 2.226697,4.6229147 2.0456582,4.7807206 1.9388738,4.9719378 1.8670095,5.1006241 1.8613766,5.1446928 1.8504056,5.6640625 L 1.8386886,6.21875 H 3.3041559 4.7696234 L 5.0557594,5.9390781 C 5.2131341,5.7852584 5.4442656,5.5905341 5.569385,5.5063572 5.8340941,5.3282681 6.3044344,5.1009031 6.484375,5.0640459 c 0.06875,-0.014082 0.209375,-0.049305 0.3125,-0.078273 0.3999847,-0.1123572 1.2880222,-0.094015 1.6523666,0.034129 0.066614,0.023429 0.1477309,0.042598 0.18026,0.042598 0.067822,0 0.4329984,0.1569837 0.4329984,0.1861391 0,0.010635 -0.069297,0.08759 -0.1539928,0.1710125 L 8.7545144,5.5713291 8.5569447,5.5169256 C 7.7417975,5.292465 7.3617716,5.2912978 6.59375,5.5108962 6.3743816,5.5736197 5.8585822,5.8348116 5.7705362,5.9277575 5.73346,5.9668969 5.6890625,5.9994591 5.671875,6.0001178 5.6109384,6.0024522 5.0625,6.5614206 5.0625,6.6211912 c 0,0.013936 -0.03174,0.062276 -0.070534,0.1074229 -0.072695,0.0846 -0.099794,0.1343793 -0.2742556,0.5037893 -0.1274909,0.2699535 -0.2472584,0.8478557 -0.2482378,1.1977972 -7.437e-4,0.2657125 0.1311097,1.0266319 0.1877028,1.083225 0.016678,0.016679 0.030324,0.052208 0.030324,0.078954 0,0.026746 -0.4254756,0.4739334 -0.9455016,0.9937504 L 2.7964969,11.53125 H 2.3239118 1.8513268 l 0.031454,0.148438 c 0.0173,0.08164 0.050751,0.176175 0.074337,0.210078 C 1.9807027,11.923668 2,11.976078 2,12.006233 c 0,0.03016 0.033741,0.07693 0.07498,0.103955 l 0.07498,0.04913 -0.1062299,0.157857 C 1.9853035,12.403995 1.9375,12.494711 1.9375,12.518765 c 0,0.07558 -0.046115,0.04868 -0.1955256,-0.114031 z M 4.46875,3.828125 V 3.59375 H 4.03125 3.59375 V 3.828125 4.0625 h 0.4375 0.4375 z m 2.7734375,6.805742 c -0.047266,-0.0072 -0.085937,-0.02307 -0.085937,-0.03536 0,-0.01229 0.080859,-0.100882 0.1796875,-0.196878 0.1700344,-0.165162 0.1918966,-0.176464 0.4069494,-0.210371 0.626279,-0.09875 1.1073547,-0.443119 1.38454,-0.9911115 0.100857,-0.1993928 0.1345167,-0.3086078 0.1589132,-0.515624 L 9.3172931,8.421875 9.5093063,8.2265625 C 9.6149134,8.1191406 9.7138053,8.03125 9.7290656,8.03125 c 0.01554,0 0.021596,0.2027859 0.013766,0.4609375 C 9.7297663,8.9229744 9.7223963,8.9684559 9.6301581,9.1875 9.5758766,9.3164062 9.5314159,9.4331703 9.5313572,9.4469759 9.5311384,9.4988769 9.1712728,9.9579581 9.0388047,10.075331 c -0.1768244,0.156675 -0.5393244,0.391883 -0.6053009,0.39275 -0.027979,3.69e-4 -0.1053229,0.02385 -0.171875,0.05219 -0.2644179,0.112588 -0.7032801,0.16149 -1.0194413,0.113595 z M 5.3921462,8.8541178 c -0.085544,-0.2152284 -0.041438,-0.8109594 0.081358,-1.0988962 0.03176,-0.074472 0.058046,-0.1588466 0.058414,-0.1875 8.594e-4,-0.066992 0.2347866,-0.4282469 0.3927504,-0.6065263 0.1173728,-0.1324681 0.576454,-0.4923309 0.628355,-0.4925525 0.013806,-6.25e-5 0.1235384,-0.0401 0.2438509,-0.08898 0.2996178,-0.1217275 0.5977359,-0.1727834 0.8913731,-0.1526569 0.36973,0.025342 0.3770669,0.03841 0.1474703,0.262655 L 7.640625,6.6802072 7.3488428,6.7113469 C 7.104605,6.7374128 7.0154941,6.7634959 6.8019678,6.8714206 6.5583613,6.9945491 6.2937694,7.2130844 6.1331516,7.4238184 5.9770956,7.6285672 5.8259084,8.0423637 5.7942475,8.3513928 5.7739169,8.5498312 5.7671309,8.5628031 5.5940509,8.7340772 5.4392756,8.8872375 5.4118022,8.9035716 5.3921462,8.8541178 Z"
       id="path839"
       inkscape:connector-curvature="0" />
    <path
       style="fill:#7f0000;stroke-width:0.03125"
       d="M 2.6823866,14.129393 C 2.4437626,14.050575 2.3106485,13.963756 2.1436649,13.77803 1.940002,13.551508 1.8620845,13.331892 1.8620845,12.984375 c 0,-0.219137 0.015972,-0.322658 0.072322,-0.46875 0.06961,-0.180468 0.266462,-0.38164 5.2486452,-5.3638231 4.9821833,-4.9821832 5.1833553,-5.1790355 5.3638233,-5.2486452 0.266412,-0.1027599 0.674805,-0.1020135 0.9375,0.00171 0.257387,0.1016309 0.540374,0.3846181 0.642005,0.642005 0.103727,0.2626951 0.104473,0.6710884 0.0017,0.9375 -0.0696,0.1804712 -0.26645,0.3816431 -5.2486328,5.3638265 -5.0202616,5.0202628 -5.181975,5.1784338 -5.3638222,5.2463398 -0.2590369,0.09673 -0.6024221,0.111094 -0.8332384,0.03486 z M 3.359375,13.593116 c 0.084554,-0.0409 1.7648906,-1.701288 5.1931272,-5.1314772 L 13.620629,3.390625 13.672707,3.2081866 C 13.716019,3.0564553 13.71862,3.001227 13.68816,2.8800616 13.614512,2.5870999 13.442236,2.4146527 13.151188,2.3425549 13.030641,2.3126931 12.974021,2.3154521 12.823063,2.3585436 L 12.640625,2.4106216 7.5844966,7.4631234 C 4.8036259,10.241999 2.5019524,12.557813 2.4696665,12.609375 c -0.1746874,0.278986 -0.1368393,0.629702 0.092729,0.859271 0.2144201,0.21442 0.5142216,0.261242 0.7969795,0.12447 z"
       id="path837"
       inkscape:connector-curvature="0" />
  </g>
</svg>
