<?xml version="1.0" encoding="UTF-8" standalone="no"?>
<!-- Created with Inkscape (http://www.inkscape.org/) -->

<svg
   xmlns:dc="http://purl.org/dc/elements/1.1/"
   xmlns:cc="http://creativecommons.org/ns#"
   xmlns:rdf="http://www.w3.org/1999/02/22-rdf-syntax-ns#"
   xmlns:svg="http://www.w3.org/2000/svg"
   xmlns="http://www.w3.org/2000/svg"
   xmlns:sodipodi="http://sodipodi.sourceforge.net/DTD/sodipodi-0.dtd"
   xmlns:inkscape="http://www.inkscape.org/namespaces/inkscape"
   version="1.1"
   id="svg2"
   width="16"
   height="16"
   viewBox="0 0 16 16"
   sodipodi:docname="RESTRICT_RENDER_ON.svg"
   inkscape:version="0.92.4 (5da689c313, 2019-01-14)">
  <metadata
     id="metadata8">
    <rdf:RDF>
      <cc:Work
         rdf:about="">
        <dc:format>image/svg+xml</dc:format>
        <dc:type
           rdf:resource="http://purl.org/dc/dcmitype/StillImage" />
        <dc:title></dc:title>
      </cc:Work>
    </rdf:RDF>
  </metadata>
  <defs
     id="defs6" />
  <sodipodi:namedview
     pagecolor="#ffffff"
     bordercolor="#666666"
     borderopacity="1"
     objecttolerance="10"
     gridtolerance="10"
     guidetolerance="10"
     inkscape:pageopacity="0"
     inkscape:pageshadow="2"
     inkscape:window-width="915"
     inkscape:window-height="654"
     id="namedview4"
     showgrid="false"
     inkscape:zoom="14.75"
     inkscape:cx="8"
     inkscape:cy="8"
     inkscape:window-x="0"
     inkscape:window-y="0"
     inkscape:window-maximized="0"
     inkscape:current-layer="svg2" />
  <g
     id="RESTRICT_RENDER_ON">
    <path
       style="fill:#ffffff;stroke-width:0.03125"
       d="M 0,8 V 0 h 8 8 v 8 8 H 8 0 Z"
       id="path829"
       inkscape:connector-curvature="0" />
    <path
       style="fill:#fefefe;stroke-width:0.03125"
       d="M 2.375,12.816168 C 2.1990695,12.785135 2.0041596,12.663882 1.7966596,12.456382 1.5934707,12.253193 1.4963518,12.060324 1.4354088,11.738973 1.4184898,11.64976 1.4067015,10.2195 1.4073257,8.3316722 L 1.4084013,5.078125 1.49549,4.8574712 C 1.5635127,4.6851247 1.6254565,4.5943372 1.7784324,4.4427797 2.0884486,4.1356381 2.2857274,4.0634634 2.8168555,4.0628709 L 3.1493359,4.0625 3.1610981,3.7188584 C 3.1727231,3.3792194 3.1740444,3.3740325 3.2745309,3.2735459 L 3.3762019,3.171875 h 0.6508462 c 0.7198053,0 0.7120756,-0.00196 0.818986,0.2076019 0.046309,0.090774 0.060216,0.183275 0.060216,0.4005281 V 4.0625 H 5.3421972 5.7781447 L 5.7875097,3.2972772 5.796875,2.5320547 5.9301366,2.3988398 6.0633984,2.265625 8.3676366,2.2562532 c 1.5102231,-0.00614 2.3419274,0.00167 2.4136134,0.022676 0.06453,0.018906 0.147817,0.080412 0.203125,0.1499968 l 0.09375,0.1179494 0.0094,0.7578125 0.0094,0.7578125 1.209385,3.719e-4 c 1.514368,4.656e-4 1.542448,0.00614 1.923525,0.3891025 0.167384,0.168209 0.215042,0.2413459 0.289958,0.4449731 l 0.08965,0.2436775 v 3.3125 3.3124996 l -0.09099,0.247342 c -0.07535,0.204838 -0.123682,0.280169 -0.28125,0.43838 -0.104644,0.105071 -0.260574,0.23283 -0.346512,0.283908 l -0.15625,0.09287 -5.625,0.0037 c -3.09375,0.002 -5.6742187,-0.005 -5.734375,-0.01563 z"
       id="path827"
       inkscape:connector-curvature="0" />
    <path
       style="fill:#98cbfe;stroke-width:0.03125"
       d="M 2.375,12.816168 C 2.1990695,12.785135 2.0041596,12.663882 1.7966596,12.456382 1.5934707,12.253193 1.4963518,12.060324 1.4354088,11.738973 1.4184898,11.64976 1.4067015,10.2195 1.4073257,8.3316722 L 1.4084013,5.078125 1.49549,4.8574712 C 1.5635127,4.6851247 1.6254565,4.5943372 1.7784324,4.4427797 2.0884486,4.1356381 2.2857274,4.0634634 2.8168555,4.0628709 L 3.1493359,4.0625 3.1610981,3.7188584 C 3.1727231,3.3792194 3.1740444,3.3740325 3.2745309,3.2735459 L 3.3762019,3.171875 h 0.6508462 c 0.7198053,0 0.7120756,-0.00196 0.818986,0.2076019 0.046309,0.090774 0.060216,0.183275 0.060216,0.4005281 V 4.0625 H 5.3421972 5.7781447 L 5.7875097,3.2972772 5.796875,2.5320547 5.9301366,2.3988398 6.0633984,2.265625 8.3676366,2.2562532 c 1.5102231,-0.00614 2.3419274,0.00167 2.4136134,0.022676 0.06453,0.018906 0.147817,0.080412 0.203125,0.1499968 l 0.09375,0.1179494 0.0094,0.7578125 0.0094,0.7578125 1.209385,3.719e-4 c 1.514368,4.656e-4 1.542448,0.00614 1.923525,0.3891025 0.167384,0.168209 0.215042,0.2413459 0.289958,0.4449731 l 0.08965,0.2436775 v 3.3125 3.3124996 l -0.09099,0.247342 c -0.07535,0.204838 -0.123682,0.280169 -0.28125,0.43838 -0.104644,0.105071 -0.260574,0.23283 -0.346512,0.283908 l -0.15625,0.09287 -5.625,0.0037 c -3.09375,0.002 -5.6742187,-0.005 -5.734375,-0.01563 z M 7.3826366,8.8353306 C 7.5911725,8.7812294 7.7924303,8.6129319 7.8957503,8.40625 c 0.1225122,-0.2450744 0.1225122,-0.5674256 0,-0.8125 C 7.5871147,6.9763541 6.7082691,6.9684334 6.34375,7.5797625 6.24451,7.7461963 6.234375,7.7851366 6.234375,8 c 0,0.2148634 0.010135,0.2538038 0.109375,0.4202375 0.22272,0.37352 0.6071172,0.5271081 1.0388866,0.4150931 z M 5.0557594,5.9390781 C 5.2131341,5.7852584 5.4442656,5.5905341 5.569385,5.5063572 5.8340941,5.3282681 6.3044344,5.1009031 6.484375,5.0640459 c 0.06875,-0.014082 0.209375,-0.049305 0.3125,-0.078273 0.3999847,-0.1123572 1.2880222,-0.094015 1.6523666,0.034129 0.066614,0.023429 0.1501937,0.042598 0.1857325,0.042598 0.098721,0 0.7600696,0.3162916 0.8657828,0.4140625 0.032521,0.030078 0.071653,0.054687 0.08696,0.054687 0.05702,0 0.6935331,0.6013066 0.6935331,0.6551725 0,0.021925 0.628472,0.032328 1.953125,0.032328 H 14.1875 L 14.187313,5.7890625 C 14.187219,5.5527344 14.172308,5.303125 14.154182,5.234375 14.065329,4.8973603 13.860484,4.6536213 13.584386,4.55639 13.432419,4.5028684 13.148368,4.5 8,4.5 2.8516324,4.5 2.567581,4.5028687 2.4156011,4.55639 2.226697,4.6229147 2.0456582,4.7807206 1.9388738,4.9719378 1.8670095,5.1006241 1.8613766,5.1446928 1.8504056,5.6640625 L 1.8386886,6.21875 h 1.4654673 1.4654675 z"
       id="path825"
       inkscape:connector-curvature="0" />
    <path
       style="fill:#cbcbcb;stroke-width:0.03125"
       d="M 2.375,12.816168 C 2.1990695,12.785135 2.0041596,12.663882 1.7966596,12.456382 1.5934707,12.253193 1.4963518,12.060324 1.4354088,11.738973 1.4184898,11.64976 1.4067015,10.2195 1.4073257,8.3316722 L 1.4084013,5.078125 1.49549,4.8574712 C 1.5635127,4.6851247 1.6254565,4.5943372 1.7784324,4.4427797 2.0884486,4.1356381 2.2857274,4.0634634 2.8168555,4.0628709 L 3.1493359,4.0625 3.1610981,3.7188584 C 3.1727231,3.3792194 3.1740444,3.3740325 3.2745309,3.2735459 L 3.3762019,3.171875 h 0.6508462 c 0.7198053,0 0.7120756,-0.00196 0.818986,0.2076019 0.046309,0.090774 0.060216,0.183275 0.060216,0.4005281 V 4.0625 H 5.3421972 5.7781447 L 5.7875097,3.2972772 5.796875,2.5320547 5.9301366,2.3988398 6.0633984,2.265625 8.3676366,2.2562532 c 1.5102231,-0.00614 2.3419274,0.00167 2.4136134,0.022676 0.06453,0.018906 0.147817,0.080412 0.203125,0.1499968 l 0.09375,0.1179494 0.0094,0.7578125 0.0094,0.7578125 1.209385,3.719e-4 c 1.514368,4.656e-4 1.542448,0.00614 1.923525,0.3891025 0.167384,0.168209 0.215042,0.2413459 0.289958,0.4449731 l 0.08965,0.2436775 v 3.3125 3.3124996 l -0.09099,0.247342 c -0.07535,0.204838 -0.123682,0.280169 -0.28125,0.43838 -0.104644,0.105071 -0.260574,0.23283 -0.346512,0.283908 l -0.15625,0.09287 -5.625,0.0037 c -3.09375,0.002 -5.6742187,-0.005 -5.734375,-0.01563 z M 8.0372016,10.122995 C 8.5608603,9.9465872 8.8912669,9.6670294 9.1270731,9.2008522 9.4658819,8.5310434 9.3056272,7.6672297 8.75,7.1683322 8.5572531,6.995265 8.5074312,6.9616544 8.2851609,6.8547469 7.8291531,6.6354159 7.2550212,6.6424053 6.7991478,6.8728372 6.5799031,6.9836597 6.2888356,7.2178369 6.1710287,7.3781878 5.984545,7.6320175 5.8615284,7.9271831 5.8085662,8.2478806 5.7004091,8.9027975 6.1566622,9.708285 6.8115306,10.018555 c 0.4341385,0.205691 0.8259956,0.239081 1.225671,0.10444 z M 5.0557594,5.9390781 C 5.2131341,5.7852584 5.4442656,5.5905341 5.569385,5.5063572 5.8340941,5.3282681 6.3044344,5.1009031 6.484375,5.0640459 c 0.06875,-0.014082 0.209375,-0.049305 0.3125,-0.078273 0.3999847,-0.1123572 1.2880222,-0.094015 1.6523666,0.034129 0.066614,0.023429 0.1501937,0.042598 0.1857325,0.042598 0.098721,0 0.7600696,0.3162916 0.8657828,0.4140625 0.032521,0.030078 0.071653,0.054687 0.08696,0.054687 0.05702,0 0.6935331,0.6013066 0.6935331,0.6551725 0,0.021925 0.628472,0.032328 1.953125,0.032328 H 14.1875 L 14.187313,5.7890625 C 14.187219,5.5527344 14.172308,5.303125 14.154182,5.234375 14.065329,4.8973603 13.860484,4.6536213 13.584386,4.55639 13.432419,4.5028684 13.148368,4.5 8,4.5 2.8516324,4.5 2.567581,4.5028687 2.4156011,4.55639 2.226697,4.6229147 2.0456582,4.7807206 1.9388738,4.9719378 1.8670095,5.1006241 1.8613766,5.1446928 1.8504056,5.6640625 L 1.8386886,6.21875 h 1.4654673 1.4654675 z"
       id="path823"
       inkscape:connector-curvature="0" />
    <path
       style="fill:#656565;stroke-width:0.03125"
       d="M 2.375,12.816168 C 2.1990695,12.785135 2.0041596,12.663882 1.7966596,12.456382 1.5934707,12.253193 1.4963518,12.060324 1.4354088,11.738973 1.4184898,11.64976 1.4067015,10.2195 1.4073257,8.3316722 L 1.4084013,5.078125 1.49549,4.8574712 C 1.5635127,4.6851247 1.6254565,4.5943372 1.7784324,4.4427797 2.0884486,4.1356381 2.2857274,4.0634634 2.8168555,4.0628709 L 3.1493359,4.0625 3.1610981,3.7188584 C 3.1727231,3.3792194 3.1740444,3.3740325 3.2745309,3.2735459 L 3.3762019,3.171875 h 0.6508462 c 0.7198053,0 0.7120756,-0.00196 0.818986,0.2076019 0.046309,0.090774 0.060216,0.183275 0.060216,0.4005281 V 4.0625 H 5.3421972 5.7781447 L 5.7875097,3.2972772 5.796875,2.5320547 5.9301366,2.3988398 6.0633984,2.265625 8.3676366,2.2562532 c 1.5102231,-0.00614 2.3419274,0.00167 2.4136134,0.022676 0.06453,0.018906 0.147817,0.080412 0.203125,0.1499968 l 0.09375,0.1179494 0.0094,0.7578125 0.0094,0.7578125 1.209385,3.719e-4 c 1.514368,4.656e-4 1.542448,0.00614 1.923525,0.3891025 0.167384,0.168209 0.215042,0.2413459 0.289958,0.4449731 l 0.08965,0.2436775 v 3.3125 3.3124996 l -0.09099,0.247342 c -0.07535,0.204838 -0.123682,0.280169 -0.28125,0.43838 -0.104644,0.105071 -0.260574,0.23283 -0.346512,0.283908 l -0.15625,0.09287 -5.625,0.0037 c -3.09375,0.002 -5.6742187,-0.005 -5.734375,-0.01563 z m 11.198867,-0.456706 c 0.273855,-0.08308 0.502836,-0.358802 0.577521,-0.695399 l 0.02947,-0.132813 H 11.751001 9.3211447 L 9.105885,11.626457 C 8.9874919,11.678821 8.8625,11.734781 8.828125,11.750813 8.6789306,11.820392 8.5576272,11.852651 8.234375,11.908716 7.41898,12.050137 6.5986056,11.936649 5.9332453,11.590385 5.8252566,11.534186 5.7211128,11.53125 3.8354709,11.53125 H 1.8513268 l 0.031454,0.148438 c 0.0173,0.08164 0.050751,0.176175 0.074337,0.210078 C 1.9807027,11.923668 2,11.971532 2,11.996129 2,12.073929 2.259415,12.289564 2.421875,12.34681 2.5687,12.39855 2.9051711,12.40198 8,12.40372 c 4.693751,0.0016 5.442287,-0.0043 5.573867,-0.04426 z M 8.0372016,10.122995 C 8.5608603,9.9465872 8.8912669,9.6670294 9.1270731,9.2008522 9.4658819,8.5310434 9.3056272,7.6672297 8.75,7.1683322 8.5572531,6.995265 8.5074312,6.9616544 8.2851609,6.8547469 7.8291531,6.6354159 7.2550212,6.6424053 6.7991478,6.8728372 6.5799031,6.9836597 6.2888356,7.2178369 6.1710287,7.3781878 5.984545,7.6320175 5.8615284,7.9271831 5.8085662,8.2478806 5.7004091,8.9027975 6.1566622,9.708285 6.8115306,10.018555 c 0.4341385,0.205691 0.8259956,0.239081 1.225671,0.10444 z M 5.0557594,5.9390781 C 5.2131341,5.7852584 5.4442656,5.5905341 5.569385,5.5063572 5.8340941,5.3282681 6.3044344,5.1009031 6.484375,5.0640459 c 0.06875,-0.014082 0.209375,-0.049305 0.3125,-0.078273 0.3999847,-0.1123572 1.2880222,-0.094015 1.6523666,0.034129 0.066614,0.023429 0.1501937,0.042598 0.1857325,0.042598 0.098721,0 0.7600696,0.3162916 0.8657828,0.4140625 0.032521,0.030078 0.071653,0.054687 0.08696,0.054687 0.05702,0 0.6935331,0.6013066 0.6935331,0.6551725 0,0.021925 0.628472,0.032328 1.953125,0.032328 H 14.1875 L 14.187313,5.7890625 C 14.187219,5.5527344 14.172308,5.303125 14.154182,5.234375 14.065329,4.8973603 13.860484,4.6536213 13.584386,4.55639 13.432419,4.5028684 13.148368,4.5 8,4.5 2.8516324,4.5 2.567581,4.5028687 2.4156011,4.55639 2.226697,4.6229147 2.0456582,4.7807206 1.9388738,4.9719378 1.8670095,5.1006241 1.8613766,5.1446928 1.8504056,5.6640625 L 1.8386886,6.21875 H 3.3041559 4.7696234 Z M 4.46875,3.828125 V 3.59375 H 4.03125 3.59375 V 3.828125 4.0625 h 0.4375 0.4375 z M 10.65625,3.375 V 2.6875 H 8.4375 6.21875 V 3.375 4.0625 h 2.21875 2.21875 z"
       id="path821"
       inkscape:connector-curvature="0" />
    <path
       style="fill:#323232;stroke-width:0.03125"
       d="M 2.375,12.816168 C 2.1990695,12.785135 2.0041596,12.663882 1.7966596,12.456382 1.5934707,12.253193 1.4963518,12.060324 1.4354088,11.738973 1.4184898,11.64976 1.4067015,10.2195 1.4073257,8.3316722 L 1.4084013,5.078125 1.49549,4.8574712 C 1.5635127,4.6851247 1.6254565,4.5943372 1.7784324,4.4427797 2.0884486,4.1356381 2.2857274,4.0634634 2.8168555,4.0628709 L 3.1493359,4.0625 3.1610981,3.7188584 C 3.1727231,3.3792194 3.1740444,3.3740325 3.2745309,3.2735459 L 3.3762019,3.171875 h 0.6508462 c 0.7198053,0 0.7120756,-0.00196 0.818986,0.2076019 0.046309,0.090774 0.060216,0.183275 0.060216,0.4005281 V 4.0625 H 5.3421972 5.7781447 L 5.7875097,3.2972772 5.796875,2.5320547 5.9301366,2.3988398 6.0633984,2.265625 8.3676366,2.2562532 c 1.5102231,-0.00614 2.3419274,0.00167 2.4136134,0.022676 0.06453,0.018906 0.147817,0.080412 0.203125,0.1499968 l 0.09375,0.1179494 0.0094,0.7578125 0.0094,0.7578125 1.209385,3.719e-4 c 1.514368,4.656e-4 1.542448,0.00614 1.923525,0.3891025 0.167384,0.168209 0.215042,0.2413459 0.289958,0.4449731 l 0.08965,0.2436775 v 3.3125 3.3124996 l -0.09099,0.247342 c -0.07535,0.204838 -0.123682,0.280169 -0.28125,0.43838 -0.104644,0.105071 -0.260574,0.23283 -0.346512,0.283908 l -0.15625,0.09287 -5.625,0.0037 c -3.09375,0.002 -5.6742187,-0.005 -5.734375,-0.01563 z m 11.198867,-0.456706 c 0.273855,-0.08308 0.502836,-0.358802 0.577521,-0.695399 l 0.02947,-0.132813 H 11.751001 9.3211447 L 9.105885,11.626457 C 8.9874919,11.678821 8.8625,11.734781 8.828125,11.750813 8.6789306,11.820392 8.5576272,11.852651 8.234375,11.908716 7.41898,12.050137 6.5986056,11.936649 5.9332453,11.590385 5.8252566,11.534186 5.7211128,11.53125 3.8354709,11.53125 H 1.8513268 l 0.031454,0.148438 c 0.0173,0.08164 0.050751,0.176175 0.074337,0.210078 C 1.9807027,11.923668 2,11.971532 2,11.996129 2,12.073929 2.259415,12.289564 2.421875,12.34681 2.5687,12.39855 2.9051711,12.40198 8,12.40372 c 4.693751,0.0016 5.442287,-0.0043 5.573867,-0.04426 z M 8.1894716,11.457236 c 0.3988078,-0.08009 0.889405,-0.283784 1.0819143,-0.449202 0.045147,-0.03879 0.093487,-0.07053 0.1074228,-0.07053 0.058117,0 0.6184635,-0.549893 0.6209597,-0.609375 7.216e-4,-0.01719 0.033335,-0.06158 0.072474,-0.09866 0.09295,-0.08805 0.354138,-0.6038456 0.416862,-0.823214 0.217333,-0.7601 0.217274,-1.1783591 -2.82e-4,-1.9375 -0.06238,-0.21769 -0.300981,-0.6873997 -0.407569,-0.8023497 -0.04469,-0.0482 -0.081261,-0.099579 -0.081261,-0.1141747 0,-0.029777 -0.1865635,-0.2367709 -0.3255607,-0.3612134 C 9.6242787,6.1461119 9.5613878,6.0847656 9.5346731,6.0546875 9.5079587,6.0246094 9.471505,6 9.4536647,6 9.4358244,6 9.3817912,5.9634325 9.3335912,5.9187388 9.2186412,5.8121509 8.7489316,5.5735525 8.5312416,5.5111691 c -0.759141,-0.2175472 -1.1774,-0.2176063 -1.9375,-2.813e-4 -0.2193685,0.062723 -0.7351679,0.3239153 -0.8232138,0.4168613 -0.037076,0.039139 -0.081474,0.071702 -0.098661,0.07236 -0.060937,0.00233 -0.609375,0.5613028 -0.609375,0.6210734 0,0.013936 -0.03174,0.062276 -0.070534,0.1074228 -0.072695,0.0846 -0.099794,0.1343794 -0.2742556,0.5037894 -0.127491,0.2699534 -0.2472585,0.8478556 -0.2482378,1.1977972 -9.969e-4,0.3561347 0.1261259,0.9781444 0.2478593,1.2127741 0.052342,0.1008846 0.095168,0.1980025 0.095168,0.2158168 0,0.073512 0.358025,0.5595792 0.5635775,0.7651312 0.2055525,0.205553 0.6916187,0.563578 0.7651309,0.563578 0.017814,0 0.1151962,0.04296 0.2164041,0.09547 0.2394584,0.124239 0.8148959,0.242843 1.1892625,0.245121 0.1762006,0.0011 0.4162162,-0.02539 0.6425965,-0.07086 z M 7.15625,10.608796 C 6.8351475,10.532105 6.5784809,10.435675 6.4480162,10.342711 6.3764566,10.29172 6.3043331,10.25 6.2877416,10.25 6.2483756,10.25 5.75,9.7516244 5.75,9.7122584 5.75,9.6956669 5.7087531,9.6235434 5.6583406,9.5519838 5.5639534,9.4180028 5.4398519,9.0788941 5.3785762,8.7875244 5.3115144,8.4686409 5.3532928,8.0353103 5.4797275,7.7383712 5.5080647,7.6718191 5.5315509,7.5944753 5.5319187,7.5664962 5.5327844,7.5005197 5.7679944,7.1380197 5.9246691,6.9611953 6.0392559,6.8318712 6.5007872,6.46875 6.5505722,6.46875 c 0.012457,0 0.1151587,-0.037338 0.2282259,-0.082973 C 7.3374534,6.1602978 7.7965419,6.1656691 8.390625,6.404635 8.6858063,6.5233697 8.8504366,6.6354013 9.1075178,6.8924822 9.3718466,7.1568113 9.4761687,7.3139909 9.6144394,7.65625 l 0.1199356,0.296875 -0.00112,0.5 C 9.73215,8.9453238 9.7305656,8.9567819 9.6317978,9.1875 9.5766144,9.3164063 9.5314162,9.4331703 9.5313575,9.4469759 9.5311387,9.4988769 9.1712731,9.9579581 9.038805,10.075331 c -0.1768244,0.156675 -0.5393244,0.391883 -0.6053009,0.39275 -0.027979,3.69e-4 -0.1053229,0.02385 -0.171875,0.05219 -0.3081991,0.13123 -0.7712907,0.168316 -1.1053788,0.08852 z M 8.0372016,10.122995 C 8.5608603,9.9465872 8.8912669,9.6670294 9.1270731,9.2008522 9.4658819,8.5310434 9.3056272,7.6672297 8.75,7.1683322 8.5572531,6.995265 8.5074312,6.9616544 8.2851609,6.8547469 7.8291531,6.6354159 7.2550212,6.6424053 6.7991478,6.8728372 6.5799031,6.9836597 6.2888356,7.2178369 6.1710287,7.3781878 5.984545,7.6320175 5.8615284,7.9271831 5.8085662,8.2478806 5.7004091,8.9027975 6.1566622,9.708285 6.8115306,10.018555 c 0.4341385,0.205691 0.8259956,0.239081 1.225671,0.10444 z M 5.0557594,5.9390781 C 5.2131341,5.7852584 5.4442656,5.5905341 5.569385,5.5063572 5.8340941,5.3282681 6.3044344,5.1009031 6.484375,5.0640459 c 0.06875,-0.014082 0.209375,-0.049305 0.3125,-0.078273 0.3999847,-0.1123572 1.2880222,-0.094015 1.6523666,0.034129 0.066614,0.023429 0.1501937,0.042598 0.1857325,0.042598 0.098721,0 0.7600696,0.3162916 0.8657828,0.4140625 0.032521,0.030078 0.071653,0.054687 0.08696,0.054687 0.05702,0 0.6935331,0.6013066 0.6935331,0.6551725 0,0.021925 0.628472,0.032328 1.953125,0.032328 H 14.1875 L 14.187313,5.7890625 C 14.187219,5.5527344 14.172308,5.303125 14.154182,5.234375 14.065329,4.8973603 13.860484,4.6536213 13.584386,4.55639 13.432419,4.5028684 13.148368,4.5 8,4.5 2.8516324,4.5 2.567581,4.5028687 2.4156011,4.55639 2.226697,4.6229147 2.0456582,4.7807206 1.9388738,4.9719378 1.8670095,5.1006241 1.8613766,5.1446928 1.8504056,5.6640625 L 1.8386886,6.21875 H 3.3041559 4.7696234 Z M 4.46875,3.828125 V 3.59375 H 4.03125 3.59375 V 3.828125 4.0625 h 0.4375 0.4375 z M 10.65625,3.375 V 2.6875 H 8.4375 6.21875 V 3.375 4.0625 h 2.21875 2.21875 z"
       id="path819"
       inkscape:connector-curvature="0" />
  </g>
</svg>
