<?xml version="1.0" encoding="UTF-8" standalone="no"?>
<!-- Created with Inkscape (http://www.inkscape.org/) -->

<svg
   xmlns:dc="http://purl.org/dc/elements/1.1/"
   xmlns:cc="http://creativecommons.org/ns#"
   xmlns:rdf="http://www.w3.org/1999/02/22-rdf-syntax-ns#"
   xmlns:svg="http://www.w3.org/2000/svg"
   xmlns="http://www.w3.org/2000/svg"
   xmlns:sodipodi="http://sodipodi.sourceforge.net/DTD/sodipodi-0.dtd"
   xmlns:inkscape="http://www.inkscape.org/namespaces/inkscape"
   version="1.1"
   id="svg2"
   width="16"
   height="16"
   viewBox="0 0 16 16"
   sodipodi:docname="DELETE_DUPLICATE.svg"
   inkscape:version="0.92.4 (5da689c313, 2019-01-14)">
  <metadata
     id="metadata8">
    <rdf:RDF>
      <cc:Work
         rdf:about="">
        <dc:format>image/svg+xml</dc:format>
        <dc:type
           rdf:resource="http://purl.org/dc/dcmitype/StillImage" />
        <dc:title></dc:title>
      </cc:Work>
    </rdf:RDF>
  </metadata>
  <defs
     id="defs6" />
  <sodipodi:namedview
     pagecolor="#ffffff"
     bordercolor="#666666"
     borderopacity="1"
     objecttolerance="10"
     gridtolerance="10"
     guidetolerance="10"
     inkscape:pageopacity="0"
     inkscape:pageshadow="2"
     inkscape:window-width="742"
     inkscape:window-height="480"
     id="namedview4"
     showgrid="false"
     inkscape:zoom="14.75"
     inkscape:cx="8"
     inkscape:cy="8"
     inkscape:window-x="0"
     inkscape:window-y="0"
     inkscape:window-maximized="0"
     inkscape:current-layer="svg2" />
  <g
     id="DELETE_DUPLICATE">
    <path
       style="fill:#ffffff;stroke-width:0.03125"
       d="M 0,8 V 0 h 8 8 v 8 8 H 8 0 Z M 8.1872025,15.567661 8.2787191,15.5 H 11.03125 c 2.716038,0 2.753667,8.41e-4 2.838236,0.06336 0.104429,0.07721 0.274133,0.107954 0.433455,0.07853 0.100907,-0.01863 0.208273,-0.110392 0.708339,-0.605368 0.324173,-0.320873 0.608938,-0.628657 0.632812,-0.683964 0.05547,-0.128496 0.05536,-0.29582 -2.81e-4,-0.423882 -0.02403,-0.05531 -0.291216,-0.346502 -0.59375,-0.647099 L 14.5,12.735045 V 11 9.2649553 L 15.050062,8.718415 c 0.302533,-0.3005969 0.569721,-0.5917916 0.59375,-0.6470987 0.05573,-0.1282841 0.05573,-0.2956091 -7e-6,-0.4238826 C 15.588109,7.5192584 14.482301,6.4201325 14.365153,6.3765091 14.316769,6.3584916 14.232334,6.34375 14.17752,6.34375 14.08776,6.34375 13.941232,6.2068006 12.702992,4.9656394 11.928203,4.1890231 11.284235,3.5684272 11.227566,3.5437644 11.156852,3.5129884 10.994677,3.5 10.681125,3.5 H 10.235243 L 8.7504341,2.0177823 C 7.48609,0.755645 7.249385,0.53273737 7.15625,0.51652344 7.0960937,0.50605078 5.8701666,0.50156437 4.4319675,0.50655362 1.8467929,0.51552184 1.816079,0.51635762 1.7307734,0.58005591 1.6833158,0.61549288 1.6154929,0.68332097 1.5800559,0.73078497 L 1.515625,0.81708316 V 6.5 12.182917 l 0.064431,0.0863 c 0.035437,0.04746 0.1032555,0.115292 0.1507078,0.150729 0.084536,0.06313 0.1234234,0.0646 1.9267938,0.07297 l 1.8405169,0.0085 0.00878,1.34077 c 0.0085,1.298312 0.010816,1.343501 0.073206,1.427032 0.035437,0.04744 0.1032332,0.115256 0.1506582,0.150693 0.081341,0.06078 0.1343134,0.06496 0.9347346,0.07371 0.6735569,0.0074 0.8584769,0.01831 0.8968594,0.05304 0.1407831,0.127407 0.4661557,0.138321 0.6248944,0.02096 z"
       id="path831"
       inkscape:connector-curvature="0" />
    <path
       style="fill:#fefefe;stroke-width:0.03125"
       d="M 7.671875,15.611417 C 7.6203125,15.588104 7.4518556,15.440998 7.2975266,15.284515 L 7.0169281,15 H 6.5084641 6 V 9.5 4 h 2 2 v 1.8235038 1.8235034 l 0.07124,0.1057081 c 0.03918,0.058139 0.12707,0.1373313 0.195312,0.1759822 0.121092,0.068584 0.147009,0.070287 1.077567,0.070788 L 12.297608,8 12.796875,7.5 13.296143,7 H 12.148071 11 V 5.4923253 3.9846506 l 1.327451,1.3271753 1.327451,1.327175 0.117861,-0.114515 c 0.179948,-0.1748371 0.383628,-0.2257159 0.59239,-0.1479768 0.117148,0.043623 1.222956,1.1427493 1.278652,1.2709246 0.05575,0.1283041 0.05574,0.2956291 -3.2e-5,0.4238826 -0.02405,0.055307 -0.403738,0.459049 -0.84375,0.897204 L 14,9.7651653 V 11 12.234835 l 0.800022,0.796645 c 0.440012,0.438155 0.819699,0.841897 0.84375,0.897204 0.05577,0.128253 0.05578,0.295578 3.1e-5,0.423882 -0.0557,0.128176 -1.161504,1.227301 -1.278651,1.270925 -0.121715,0.04532 -0.285758,0.04095 -0.40522,-0.01081 -0.05531,-0.02396 -0.226828,-0.171618 -0.381157,-0.328125 L 13.298178,15 H 11.03125 8.7643219 l -0.2805985,0.284558 c -0.154329,0.156507 -0.32585,0.304163 -0.3811571,0.328125 -0.1259494,0.05457 -0.3083866,0.05403 -0.4306913,-0.0013 z M 11.03125,12.09375 c 0.04027,0 0.605547,0.539294 1.603232,1.529555 l 1.541023,1.529556 0.504303,-0.504303 0.504303,-0.504303 -1.529556,-1.541023 C 12.664294,11.605547 12.125,11.040275 12.125,11 c 0,-0.04027 0.539294,-0.605547 1.529555,-1.6032319 L 15.184111,7.8557453 14.679808,7.3514422 14.175505,6.8471394 12.634482,8.3766947 C 11.636797,9.3669559 11.071525,9.90625 11.03125,9.90625 c -0.04027,0 -0.605547,-0.5392941 -1.6032319,-1.5295553 L 7.8869953,6.8471394 7.3826922,7.3514422 6.8783894,7.8557453 8.4079447,9.3967681 C 9.3982059,10.394453 9.9375,10.959725 9.9375,11 c 0,0.04027 -0.5392941,0.605547 -1.5295553,1.603232 l -1.5295553,1.541023 0.5043028,0.504303 0.5043031,0.504303 1.5410228,-1.529556 C 10.425703,12.633044 10.990975,12.09375 11.03125,12.09375 Z"
       id="path829"
       inkscape:connector-curvature="0" />
    <path
       style="fill:#fe9832;stroke-width:0.03125"
       d="M 2,6.5 V 1 H 4 6 V 2.2465222 3.4930444 L 5.891545,3.5133906 C 5.7554256,3.5389269 5.5982891,3.6690041 5.5426259,3.8022247 5.5073691,3.8866056 5.5,4.6040425 5.5,7.9521212 V 12 H 3.75 2 Z M 7,2.242334 V 0.98466797 L 8.25,2.234375 C 8.9375,2.9217139 9.5,3.4876634 9.5,3.4920409 9.5,3.4964184 8.9375,3.5 8.25,3.5 H 7 Z"
       id="path827"
       inkscape:connector-curvature="0" />
    <path
       style="fill:#909090;stroke-width:0.03125"
       d="M 10.266549,7.9286975 C 10.198307,7.8900466 10.110417,7.8108547 10.071237,7.7527153 L 10,7.6470072 V 5.8235038 4 H 10.5 11 V 5.5 7 h 1.148071 1.148072 L 12.796875,7.5 12.297608,8 11.344116,7.9994875 c -0.930558,-5.031e-4 -0.956475,-0.0022 -1.077567,-0.070788 z"
       id="path825"
       inkscape:connector-curvature="0" />
    <path
       style="fill:#fe0000;stroke-width:0.03125"
       d="M 7.3826922,14.648558 6.8783894,14.144255 8.4079447,12.603232 C 9.3982059,11.605547 9.9375,11.040275 9.9375,11 9.9375,10.95973 9.3982059,10.394453 8.4079447,9.3967681 L 6.8783894,7.8557453 7.3826922,7.3514422 7.8869953,6.8471394 9.4280181,8.3766947 C 10.425703,9.3669559 10.990975,9.90625 11.03125,9.90625 c 0.04027,0 0.605547,-0.5392941 1.603232,-1.5295553 l 1.541023,-1.5295553 0.504303,0.5043028 0.504303,0.5043031 -1.529556,1.5410228 C 12.664294,10.394453 12.125,10.959725 12.125,11 c 0,0.04027 0.539294,0.605547 1.529555,1.603232 l 1.529556,1.541023 -0.504303,0.504303 -0.504303,0.504303 -1.541023,-1.529556 C 11.636797,12.633044 11.071525,12.09375 11.03125,12.09375 c -0.04027,0 -0.605547,0.539294 -1.6032319,1.529555 l -1.5410228,1.529556 z"
       id="path823"
       inkscape:connector-curvature="0" />
    <path
       style="fill:#653200;stroke-width:0.03125"
       d="M 6,2.25 V 1 H 6.5 7 V 2.25 3.5 H 6.5 6 Z"
       id="path821"
       inkscape:connector-curvature="0" />
    <path
       style="fill:#323232;stroke-width:0.03125"
       d="M 5.796875,15.455886 C 5.6819475,15.404806 5.5776962,15.294744 5.5333316,15.177653 5.5116756,15.120497 5.5,14.636372 5.5,13.795567 v -1.294115 l -1.8414797,-0.0085 c -1.804342,-0.0084 -1.8432196,-0.0098 -1.9277565,-0.07297 -0.047452,-0.03544 -0.1152709,-0.103265 -0.1507079,-0.150729 l -0.064431,-0.0863 V 6.5 0.81708316 l 0.064431,-0.0862982 C 1.6154929,0.68332096 1.6833158,0.61549286 1.7307734,0.5800559 1.8160794,0.5163576 1.8467929,0.5155218 4.4319675,0.5065536 5.8701666,0.5015646 7.0960937,0.50605076 7.15625,0.5165236 7.249385,0.53273737 7.48609,0.755645 8.7504341,2.0177823 L 10.235243,3.5 h 0.445882 c 0.313552,0 0.475727,0.012988 0.546441,0.043764 0.05667,0.024661 0.700015,0.6446362 1.473871,1.42032 l 1.373312,1.3765553 -0.09206,0.034666 c -0.05063,0.019066 -0.1451,0.086197 -0.209924,0.1491803 L 13.654902,6.6390009 12.335127,5.3195006 11.015353,4 H 8.5076762 6 V 9.5 15 H 6.5085456 7.0170912 L 7.265625,15.25 7.5141587,15.5 6.7023919,15.4988 C 6.0958434,15.497863 5.8669247,15.487021 5.796875,15.455887 Z M 5.5074691,7.9085366 C 5.5155969,3.8312531 5.5158484,3.8167741 5.5800559,3.73078 5.6154928,3.6833188 5.6833116,3.6154928 5.7307638,3.5800559 5.8153103,3.5169172 5.8541144,3.5154534 7.6654522,3.5070784 L 9.5138641,3.4985316 8.2648909,2.2492658 7.0159181,1 H 4.5079591 2 V 6.5 12 H 3.7496566 5.4993134 Z M 8.515625,15.25 8.7641588,15 h 2.2670912 2.267091 l 0.248534,0.25 0.248534,0.25 H 11.03125 8.2670913 Z M 14.241454,12.475871 14,12.232992 V 10.998576 9.7641588 L 14.25,9.515625 14.5,9.2670913 v 1.7258297 c 0,0.949206 -0.0038,1.725829 -0.0085,1.725829 -0.0047,0 -0.1172,-0.109296 -0.25,-0.242879 z"
       id="path819"
       inkscape:connector-curvature="0" />
  </g>
</svg>
