<?xml version="1.0" encoding="UTF-8" standalone="no"?>
<!-- Created with Inkscape (http://www.inkscape.org/) -->

<svg
   xmlns:dc="http://purl.org/dc/elements/1.1/"
   xmlns:cc="http://creativecommons.org/ns#"
   xmlns:rdf="http://www.w3.org/1999/02/22-rdf-syntax-ns#"
   xmlns:svg="http://www.w3.org/2000/svg"
   xmlns="http://www.w3.org/2000/svg"
   xmlns:sodipodi="http://sodipodi.sourceforge.net/DTD/sodipodi-0.dtd"
   xmlns:inkscape="http://www.inkscape.org/namespaces/inkscape"
   version="1.1"
   id="svg2"
   width="16"
   height="16"
   viewBox="0 0 16 16"
   sodipodi:docname="SEQ_CUT_SOFT_AT_FRAME.svg"
   inkscape:version="0.92.4 (5da689c313, 2019-01-14)">
  <metadata
     id="metadata8">
    <rdf:RDF>
      <cc:Work
         rdf:about="">
        <dc:format>image/svg+xml</dc:format>
        <dc:type
           rdf:resource="http://purl.org/dc/dcmitype/StillImage" />
        <dc:title></dc:title>
      </cc:Work>
    </rdf:RDF>
  </metadata>
  <defs
     id="defs6" />
  <sodipodi:namedview
     pagecolor="#ffffff"
     bordercolor="#666666"
     borderopacity="1"
     objecttolerance="10"
     gridtolerance="10"
     guidetolerance="10"
     inkscape:pageopacity="0"
     inkscape:pageshadow="2"
     inkscape:window-width="828"
     inkscape:window-height="480"
     id="namedview4"
     showgrid="false"
     inkscape:zoom="14.75"
     inkscape:cx="8"
     inkscape:cy="8"
     inkscape:window-x="0"
     inkscape:window-y="0"
     inkscape:window-maximized="0"
     inkscape:current-layer="svg2" />
  <g
     id="SEQ_CUT_SOFT_AT_FRAME">
    <path
       style="fill:#ffffff;stroke-width:0.03125"
       d="M 0,14.5 V 13 l 0.8828125,-6.2e-5 0.8828125,-6.3e-5 0.53125,-0.423047 c 0.2921875,-0.232676 0.552389,-0.447889 0.5782256,-0.47825 0.025837,-0.03036 0.6683975,-0.521518 1.4279128,-1.091458 L 5.6839509,9.9708653 6.2404128,10.291588 c 0.9559706,0.550984 1.1944631,0.692282 1.1957959,0.708467 7.094e-4,0.0086 -0.0652,0.05081 -0.1464665,0.09375 -0.081267,0.04294 -0.3097825,0.174507 -0.5078125,0.292374 -0.19803,0.117866 -0.6497241,0.379852 -1.0037647,0.58219 -1.0490453,0.599542 -1.5693981,0.911302 -1.6648263,0.997452 -0.325599,0.293939 -0.1825565,0.806672 0.2529366,0.906645 0.082142,0.01886 0.2196622,0.05391 0.3055997,0.07789 0.5312084,0.148238 0.6693097,0.185272 0.78125,0.209499 0.06875,0.01488 0.2234375,0.05547 0.34375,0.0902 0.6851275,0.197775 0.8434831,0.173142 1.5185934,-0.236227 0.1542635,-0.09354 0.2884547,-0.170075 0.2982028,-0.170075 0.00975,0 0.2026132,-0.11058 0.4285888,-0.245732 0.2259759,-0.135153 0.7596762,-0.444959 1.1860009,-0.688459 l 0.7751361,-0.442727 0.503295,0.290021 0.503295,0.290022 -0.0064,0.296875 c -0.0078,0.358034 0.04714,0.63687 0.199799,1.014654 0.241571,0.597804 0.840647,1.126288 1.505725,1.328299 0.198575,0.06032 0.27663,0.06626 0.717805,0.05464 0.79345,-0.02089 1.09924,-0.141133 1.599808,-0.629075 0.2955,-0.288049 0.3384,-0.345203 0.494743,-0.659146 0.131621,-0.264299 0.181305,-0.405145 0.214961,-0.609375 0.169536,-1.028781 -0.202737,-1.9064 -1.045329,-2.464324 -0.223242,-0.14782 -0.34611,-0.206115 -0.597307,-0.283395 -0.09453,-0.02908 -0.171875,-0.07129 -0.171875,-0.09379 0,-0.02271 0.10429,-0.07784 0.234375,-0.123894 0.361818,-0.128096 0.582369,-0.271304 0.917434,-0.59571 0.277935,-0.269093 0.32302,-0.3292519 0.461048,-0.6152059 0.33362,-0.6911629 0.330567,-1.4373463 -0.0087,-2.129475 C 15.381148,7.2424103 15.32691,7.168 15.063757,6.9037562 14.814806,6.6537725 14.721806,6.5833106 14.5,6.4766203 13.502728,5.9969272 12.364568,6.1962256 11.636351,6.9780619 11.384398,7.2485666 11.292796,7.3901591 11.184652,7.6762712 11.04854,8.0363759 10.996294,8.3181084 11.00292,8.65625 L 11.00872,8.953125 10.506183,9.2401584 10.003627,9.5271922 9.6721544,9.3339084 C 9.4898444,9.2276025 9.2816066,9.1077497 9.2094034,9.0675687 9.1372003,9.0273878 8.9636722,8.9254347 8.823785,8.8410062 8.6838981,8.7565778 8.5615053,8.6875 8.5518009,8.6875 c -0.0097,0 -0.1595065,-0.085699 -0.332894,-0.1904434 L 7.9036566,8.3066131 11.444016,5.6583109 C 14.87576,3.0912563 14.999954,2.9947876 15.492188,2.5138748 L 16,2.0177411 V 9.0088706 16 H 8 0 Z m 13.134453,-0.607483 c -0.134246,-0.0625 -0.17626,-0.102929 -0.242188,-0.233031 -0.09808,-0.193552 -0.101877,-0.362301 -0.0123,-0.546677 0.05314,-0.109387 0.102877,-0.15678 0.234294,-0.223271 0.214113,-0.108331 0.374845,-0.107676 0.56249,0.0023 0.111401,0.06529 0.158118,0.119718 0.216984,0.252825 0.101634,0.229814 0.09679,0.362814 -0.01982,0.544543 -0.07078,0.110307 -0.133682,0.164503 -0.24798,0.213673 -0.196786,0.08465 -0.291714,0.08266 -0.491479,-0.01035 z M 13.285608,9.1804578 C 12.890759,9.0759897 12.712012,8.7130984 12.879693,8.3563722 c 0.09528,-0.2027013 0.265743,-0.3095966 0.493025,-0.3091716 0.233678,4.375e-4 0.393245,0.082774 0.506497,0.2613531 0.108383,0.1709025 0.114617,0.3102585 0.02367,0.5291041 -0.101606,0.2444941 -0.387903,0.4034869 -0.617275,0.3428 z M 0,0.50006022 V 0 h 8.0007934 8.0007936 l -0.0086,0.4921875 -0.0086,0.4921875 L 7.9921995,0.992248 0,1.0001204 Z"
       id="path825"
       inkscape:connector-curvature="0" />
    <path
       style="fill:#fefefe;stroke-width:0.03125"
       d="m 12.885509,15.205128 c -0.117003,-0.03659 -0.280964,-0.112617 -0.467305,-0.216682 -0.09852,-0.05502 -0.418129,-0.305541 -0.418692,-0.328184 -2.81e-4,-0.0108 -0.053,-0.07963 -0.117188,-0.152964 -0.06418,-0.07333 -0.142312,-0.199892 -0.173617,-0.28125 -0.0313,-0.08136 -0.0751,-0.190111 -0.09733,-0.241673 -0.0941,-0.218292 -0.123544,-0.531339 -0.08054,-0.856221 0.0225,-0.16996 0.03334,-0.32809 0.02409,-0.351399 -0.0092,-0.02331 -0.07109,-0.07041 -0.137429,-0.104664 -0.155589,-0.08034 -0.491004,-0.274648 -0.511244,-0.296164 -0.0086,-0.0091 -0.07891,-0.04877 -0.15625,-0.08807 -0.07734,-0.0393 -0.161719,-0.08466 -0.1875,-0.100793 -0.02578,-0.01613 -0.159298,-0.09429 -0.296704,-0.173689 l -0.249829,-0.144357 -0.1095461,0.05752 c -0.06025,0.03164 -0.2478012,0.138452 -0.4167797,0.237366 -0.1689787,0.09891 -0.3119734,0.179845 -0.3177662,0.179845 -0.00579,0 -0.1534491,0.08437 -0.328125,0.1875 -0.1746759,0.103125 -0.3223322,0.1875 -0.328125,0.1875 -0.00579,0 -0.1487875,0.08157 -0.3177662,0.181263 -0.1689785,0.09969 -0.3283276,0.191255 -0.3541088,0.203469 -0.025781,0.01221 -0.089062,0.04997 -0.140625,0.0839 -0.051563,0.03393 -0.12862,0.07684 -0.1712391,0.09536 -0.042619,0.01852 -0.084806,0.04335 -0.09375,0.05518 -0.00894,0.01183 -0.079542,0.0539 -0.1568859,0.0935 -0.077344,0.03959 -0.1828125,0.09913 -0.234375,0.132319 -0.051563,0.03318 -0.12862,0.07549 -0.1712391,0.094 -0.042619,0.01852 -0.084806,0.04335 -0.09375,0.05518 -0.00894,0.01183 -0.082549,0.05387 -0.1635684,0.09342 C 6.4611612,13.88306 6.3755606,13.88146 6.093754,13.79654 6.0164062,13.773205 5.8617187,13.731043 5.75,13.702825 5.3421078,13.599799 5.1689487,13.554546 5.03125,13.514988 4.6372575,13.401803 4.5417237,13.375686 4.484375,13.365484 c -0.05364,-0.0095 -0.049211,-0.01732 0.03125,-0.05485 0.051563,-0.02405 0.1007812,-0.05198 0.109375,-0.06206 0.014931,-0.01751 0.3371597,-0.206926 0.4367812,-0.256752 0.026177,-0.01309 0.089781,-0.05172 0.1413438,-0.08584 0.051563,-0.03412 0.1324219,-0.07752 0.1796875,-0.09644 0.047266,-0.01892 0.086099,-0.04357 0.086296,-0.05478 1.875e-4,-0.01121 0.059963,-0.0484 0.1328125,-0.08265 0.07285,-0.03425 0.1510366,-0.07995 0.1737488,-0.101563 0.022712,-0.02161 0.053648,-0.03929 0.068746,-0.03929 0.015098,0 0.089961,-0.04219 0.1663622,-0.09375 0.076401,-0.05156 0.1462728,-0.09375 0.1552703,-0.09375 0.015519,0 0.6095831,-0.340684 0.7089519,-0.406569 0.025781,-0.01709 0.075,-0.04532 0.109375,-0.06272 0.034375,-0.0174 0.1046875,-0.0594 0.15625,-0.09333 0.051563,-0.03393 0.1148438,-0.07168 0.140625,-0.0839 C 7.3070312,11.685018 7.4617187,11.596264 7.625,11.5 c 0.1632812,-0.09626 0.3179688,-0.185415 0.34375,-0.198113 0.055102,-0.02714 0.1236975,-0.06895 0.3040666,-0.185338 0.072705,-0.04691 0.1465334,-0.0853 0.1640625,-0.0853 0.065673,0 0.028504,-0.05631 -0.061879,-0.09375 -0.051562,-0.02136 -0.09375,-0.05119 -0.09375,-0.06629 0,-0.0151 -0.012917,-0.02746 -0.028704,-0.02746 -0.024521,0 -0.5822107,-0.31435 -0.7212963,-0.406569 -0.025781,-0.01709 -0.075,-0.04532 -0.109375,-0.06272 C 7.3875,10.35706 7.3171875,10.315061 7.265625,10.28113 7.2140625,10.2472 7.1507812,10.209445 7.125,10.197232 7.0992188,10.185018 6.9398697,10.093457 6.7708912,9.9937625 6.6019125,9.8940681 6.4562956,9.8125 6.4472981,9.8125 c -0.009,0 -0.078869,-0.042188 -0.1552703,-0.09375 C 6.2156269,9.6671875 6.1407637,9.625 6.1256656,9.625 6.1105672,9.625 6.0796316,9.6073878 6.0569197,9.5858622 6.0342075,9.5643363 5.9595894,9.5186331 5.8911019,9.4842997 5.8226141,9.4499659 5.7477812,9.4042969 5.7248072,9.3828125 5.7018328,9.3613281 5.6706828,9.34375 5.6555844,9.34375 5.6404863,9.34375 5.5656231,9.3015625 5.4892222,9.25 5.4128209,9.1984375 5.3429494,9.15625 5.3339519,9.15625 5.3249544,9.15625 5.1746759,9.071875 5,8.96875 4.8253241,8.865625 4.6694906,8.78125 4.6537037,8.78125 4.6379166,8.78125 4.625,8.7685631 4.625,8.7530572 4.625,8.7375512 4.579297,8.7080032 4.5234375,8.6873942 L 4.421875,8.6499247 4.5,8.6255263 c 0.042969,-0.013419 0.1695313,-0.04883 0.28125,-0.078691 0.1117187,-0.029861 0.2664062,-0.072031 0.34375,-0.09371 0.077344,-0.021679 0.225,-0.061124 0.328125,-0.087656 0.4699153,-0.120896 0.6029572,-0.1567228 0.7321294,-0.197155 0.1813822,-0.056775 0.3597118,-0.05522 0.4084956,0.00356 0.021397,0.025781 0.05727,0.046875 0.079719,0.046875 0.022449,0 0.059399,0.017578 0.082111,0.039063 0.022712,0.021484 0.1045759,0.071469 0.1819197,0.1110763 0.077344,0.039607 0.1828125,0.099164 0.234375,0.1323484 0.051563,0.033184 0.12862,0.075486 0.1712391,0.094004 0.042619,0.018518 0.084806,0.043349 0.09375,0.055181 0.00894,0.011831 0.079542,0.053904 0.1568859,0.093496 0.077344,0.039592 0.1828125,0.098667 0.234375,0.1312797 0.1553153,0.098234 0.2224247,0.1367906 0.3803509,0.2185234 0.082994,0.042953 0.1582166,0.087776 0.16716,0.099608 0.00894,0.011831 0.051131,0.036663 0.09375,0.055181 0.042619,0.018518 0.1196766,0.06082 0.1712391,0.094004 0.051562,0.033184 0.1570312,0.092728 0.234375,0.1323194 0.077344,0.039592 0.1476563,0.079958 0.15625,0.089702 0.00859,0.00974 0.1,0.065841 0.203125,0.1246578 0.103125,0.058817 0.24375,0.1392106 0.3125,0.1786516 0.06875,0.039441 0.1697416,0.092129 0.2244256,0.117085 0.054684,0.024956 0.1082485,0.05965 0.1190319,0.077098 0.036437,0.05896 0.1800698,0.03222 0.3332438,-0.06203 0.0838,-0.051562 0.158037,-0.09375 0.164972,-0.09375 0.0069,0 0.155526,-0.084375 0.330202,-0.1875 0.174676,-0.103125 0.32247,-0.1875 0.328432,-0.1875 0.02566,0 0.406918,-0.2356209 0.41636,-0.257315 0.0057,-0.013164 0.03034,-0.023935 0.05469,-0.023935 0.05489,0 0.05658,-0.093727 0.0075,-0.4162019 -0.06507,-0.4274444 0.07048,-0.9675444 0.330797,-1.3181731 0.35083,-0.4725322 0.975258,-0.796635 1.534106,-0.7962622 0.103125,6.25e-5 0.295203,0.026572 0.42684,0.058896 0.245006,0.060162 0.651285,0.2401513 0.651285,0.2885313 0,0.014828 0.01411,0.02696 0.03135,0.02696 0.06869,0 0.428561,0.4142469 0.521473,0.6002681 0.163812,0.3279703 0.190038,0.4050335 0.229722,0.6750072 0.02993,0.2036041 0.03001,0.3115306 3.87e-4,0.5 C 15.214384,9.1063406 15.017496,9.625 14.96471,9.625 c -0.01497,0 -0.02721,0.019633 -0.02721,0.043629 0,0.1234443 -0.757765,0.706371 -0.918234,0.706371 -0.02385,0 -0.08365,0.02101 -0.132881,0.04668 -0.122051,0.06365 -0.818482,0.06316 -0.99576,-7.09e-4 -0.183013,-0.06593 -0.28817,-0.05644 -0.449669,0.0406 -0.07924,0.04761 -0.200117,0.114411 -0.268604,0.148438 -0.06849,0.03403 -0.143321,0.07944 -0.166295,0.100929 -0.02297,0.02148 -0.05412,0.03906 -0.06922,0.03906 -0.0151,0 -0.08996,0.04219 -0.166362,0.09375 -0.0764,0.05156 -0.15445,0.09375 -0.173441,0.09375 -0.08091,0 -0.02347,0.08637 0.119842,0.180189 0.08491,0.05558 0.161104,0.101061 0.169329,0.101061 0.0082,0 0.15793,0.08441 0.332677,0.187576 0.174747,0.103167 0.348158,0.195208 0.385358,0.204535 0.0372,0.0093 0.187169,-0.0117 0.333263,-0.04673 0.565492,-0.135592 1.010694,-0.05565 1.48838,0.267251 0.331413,0.224027 0.600458,0.547463 0.716375,0.861201 0.192178,0.520147 0.169572,0.996554 -0.07094,1.494919 -0.117725,0.243943 -0.185761,0.338664 -0.381582,0.53125 -0.232368,0.22853 -0.312602,0.293612 -0.408487,0.331345 -0.02578,0.01014 -0.08906,0.0368 -0.140625,0.05922 -0.324218,0.141023 -0.956264,0.18927 -1.255116,0.09581 z m 0.724813,-0.753563 c 0.378051,-0.09847 0.546142,-0.224273 0.747034,-0.559102 0.108347,-0.180584 0.111394,-0.194411 0.111394,-0.50558 0,-0.242705 -0.01131,-0.331232 -0.04687,-0.366794 -0.02578,-0.02578 -0.04687,-0.07503 -0.04687,-0.109453 0,-0.07207 -0.343822,-0.433717 -0.485933,-0.511119 -0.169776,-0.09247 -0.487389,-0.133896 -0.692704,-0.09035 -0.382812,0.0812 -0.6308,0.264246 -0.784184,0.578828 -0.0928,0.190331 -0.09968,0.22712 -0.09968,0.533218 0,0.194098 0.01256,0.328783 0.03065,0.328783 0.01686,0 0.04024,0.0382 0.05196,0.08489 0.01172,0.04669 0.03259,0.09942 0.04638,0.117187 0.221055,0.284713 0.365595,0.393144 0.647839,0.485997 0.219829,0.07232 0.288328,0.07409 0.520985,0.01349 z m -3.312529,-3.009204 c 0.33588,-0.264204 0.301934,-0.708046 -0.07028,-0.918923 -0.200777,-0.113749 -0.5236181,-0.03451 -0.6642947,0.163058 -0.1439269,0.202126 -0.1220259,0.528428 0.046538,0.693367 0.1306078,0.1278 0.1997375,0.150681 0.4243387,0.140451 0.125015,-0.0057 0.20003,-0.02787 0.263701,-0.07795 z m 3.372032,-1.7761694 c 0.200259,-0.055528 0.466213,-0.228816 0.576272,-0.3754825 0.03615,-0.048171 0.07994,-0.1045688 0.09731,-0.1253275 0.01737,-0.020759 0.03159,-0.06474 0.03159,-0.097736 0,-0.032996 0.02109,-0.077499 0.04687,-0.098895 0.0359,-0.029792 0.04687,-0.1114387 0.04687,-0.3486153 0,-0.2704303 -0.01016,-0.3297559 -0.08008,-0.4677428 -0.112418,-0.2218463 -0.298209,-0.4120431 -0.504409,-0.516371 -0.160943,-0.08143 -0.205021,-0.089146 -0.509233,-0.089146 -0.269499,0 -0.356422,0.011781 -0.455596,0.061746 -0.152703,0.076934 -0.513182,0.4384841 -0.513182,0.5147066 0,0.031086 -0.02109,0.074026 -0.04687,0.095423 -0.03619,0.030032 -0.04687,0.1132541 -0.04687,0.3649541 0,0.3005965 0.0075,0.3411625 0.09554,0.5196112 0.110366,0.2235969 0.239984,0.3506813 0.483162,0.4737178 0.298029,0.1507891 0.480853,0.1717241 0.778622,0.089158 z M 1,11.5 V 11 h 0.803125 c 0.4518143,0 0.7901388,0.01178 0.7734375,0.02694 -0.016328,0.01482 -0.314099,0.239815 -0.661713,0.5 C 1.3174957,11.974049 1.2750663,12 1.141412,12 H 1 Z M 1,7 V 4 H 6.4740128 11.948026 L 9.4436137,5.8781997 6.9392016,7.7563991 6.7971091,7.6876131 C 6.6739203,7.6279787 6.6187206,7.6208512 6.3821956,7.63404 6.2321444,7.64241 6.0109375,7.679085 5.890625,7.715548 c -0.1203125,0.036462 -0.275,0.07847 -0.34375,0.093349 -0.06875,0.01488 -0.2375,0.058582 -0.375,0.097118 C 5.034375,7.9445497 4.8796875,7.9868431 4.828125,8 4.4148419,8.1054556 4.2234962,8.1666031 4.1581809,8.2140903 4.0420528,8.2985206 3.9690769,8.4112709 3.9485037,8.5380491 3.9018291,8.8256719 4.0283544,9.0219075 4.3876916,9.2192109 4.7679944,9.4280259 4.7729331,9.3833816 4.3332659,9.7111975 L 3.9459238,10 H 2.4729619 1 Z M 1,2.5 V 2 H 2 3 V 2.5 3 H 2 1 Z m 4,0 V 2 H 6 7 V 2.5 3 H 6 5 Z m 4,0 V 2 h 1 1 V 2.5 3 H 10 9 Z m 4,0 V 2 h 0.803125 c 0.451814,0 0.790139,0.011783 0.773438,0.026937 -0.01633,0.014815 -0.3141,0.2398153 -0.661714,0.5 C 13.317496,2.9740486 13.275066,3 13.141412,3 H 13 Z"
       id="path823"
       inkscape:connector-curvature="0" />
    <path
       style="fill:#fe3200;stroke-width:0.03125"
       d="M 0.00133161,12.976563 C 0.00305135,12.946293 4.7155012,9.4200122 4.7440559,9.4276269 c 0.030841,0.00822 0.465486,0.2612656 0.624651,0.3636581 0.073882,0.047529 0.1688043,0.099524 0.2109375,0.1155425 0.042133,0.016019 0.076606,0.041789 0.076606,0.057267 0,0.015477 -0.6150516,0.4894775 -1.3667813,1.0533325 -0.7517296,0.563856 -1.3880577,1.050203 -1.4140624,1.080772 -0.026005,0.03057 -0.2863438,0.245951 -0.5785313,0.478627 l -0.53125,0.423047 -0.8828125,6.3e-5 c -0.48554687,3.6e-5 -0.88221327656,-0.01048 -0.88148089,-0.02337 z M 7.4161209,8.0380566 C 7.1551437,7.8882191 6.9512375,7.7558781 6.9629959,7.743965 6.9747544,7.7320522 9.009375,6.2036178 11.484375,4.3474441 l 4.5,-3.37486135 0.0086,0.52127305 0.0086,0.5212731 -0.508602,0.497549 C 14.998673,2.9962352 14.8847,3.0847802 11.440086,5.6613634 9.49073,7.1194884 7.8946363,8.3120472 7.8932113,8.3114941 7.8917913,8.3109409 7.6770931,8.1878941 7.4161159,8.0380566 Z"
       id="path821"
       inkscape:connector-curvature="0" />
    <path
       style="fill:#323232;stroke-width:0.03125"
       d="M 12.671875,15.676423 C 12.009492,15.455876 11.440448,14.945154 11.203344,14.358404 11.050682,13.98062 10.995776,13.701784 11.003545,13.34375 l 0.0064,-0.296875 -0.503295,-0.290021 -0.503295,-0.290022 -0.7751361,0.442727 c -0.4263246,0.2435 -0.960025,0.553307 -1.1860009,0.688459 -0.2259756,0.135153 -0.4188403,0.245732 -0.4285887,0.245732 -0.00975,0 -0.1439394,0.07653 -0.2982029,0.170075 -0.6751103,0.409369 -0.8334659,0.434002 -1.5185934,0.236228 -0.1203125,-0.03473 -0.275,-0.07532 -0.34375,-0.0902 -0.1119403,-0.02423 -0.2500416,-0.06126 -0.78125,-0.2095 -0.085937,-0.02398 -0.2234575,-0.05903 -0.3055997,-0.07789 -0.4354931,-0.09997 -0.5785356,-0.612706 -0.2529366,-0.906646 0.095428,-0.08615 0.615781,-0.39791 1.6648263,-0.997451 0.3540406,-0.202339 0.8057347,-0.464324 1.0037647,-0.58219 0.19803,-0.117867 0.4265456,-0.249435 0.5078125,-0.292374 0.081267,-0.04294 0.1471769,-0.08513 0.1464665,-0.09375 C 7.4354994,10.99143 7.2913581,10.90066 7.1158962,10.798342 6.4232109,10.394412 5.6632847,9.9570313 5.5,9.8683016 5.4054687,9.8169328 5.3070312,9.7575641 5.28125,9.7363709 5.2554688,9.7151778 4.9924494,9.5610025 4.6967628,9.3937587 4.3842291,9.2169862 4.1199387,9.0450197 4.0654916,8.9830078 3.8629834,8.7523637 3.9057456,8.3976222 4.1581809,8.2140903 4.2234962,8.1666031 4.4148419,8.1054556 4.828125,8 4.8796875,7.9868431 5.034375,7.9445194 5.171875,7.9059472 5.309375,7.8673753 5.4710937,7.8253241 5.53125,7.8125 5.5914063,7.7996759 5.753125,7.7557581 5.890625,7.7149044 6.0772494,7.659455 6.2158834,7.640625 6.4375,7.640625 H 6.734375 L 7.4375,8.0443975 C 7.8242187,8.2664722 8.2287634,8.5020191 8.3364878,8.567835 8.4442125,8.6336506 8.5406972,8.6875 8.5508981,8.6875 c 0.010201,0 0.133,0.069078 0.2728869,0.1535063 0.1398872,0.084428 0.3134153,0.1863815 0.3856184,0.2265625 0.072203,0.040181 0.280441,0.1600337 0.462751,0.2663396 L 10.003627,9.5271922 10.506182,9.2401584 11.008738,8.953125 11.00292,8.65625 C 10.99402,8.2029638 11.151772,7.6138175 11.365305,7.3027234 11.705199,6.8075356 12.26559,6.4139853 12.820112,6.2810441 13.362586,6.1509913 13.970056,6.2217141 14.5,6.4766203 c 0.221806,0.1066903 0.314806,0.1771522 0.563757,0.427136 0.263153,0.2642437 0.31739,0.338654 0.462264,0.6341962 0.339278,0.6921288 0.342331,1.4383122 0.0087,2.129475 -0.138028,0.2859541 -0.183113,0.3461135 -0.461048,0.6152065 -0.335065,0.324405 -0.555616,0.467614 -0.917434,0.595709 -0.130085,0.04606 -0.234375,0.101184 -0.234375,0.123894 0,0.02251 0.07734,0.06471 0.171875,0.09379 0.251197,0.07728 0.374065,0.135576 0.597307,0.283396 0.842592,0.557924 1.214865,1.435542 1.045329,2.464323 -0.03366,0.20423 -0.08334,0.345077 -0.214961,0.609375 -0.156343,0.313944 -0.199243,0.371098 -0.494743,0.659146 -0.506755,0.493973 -0.807563,0.610297 -1.620432,0.626628 -0.472544,0.0095 -0.533902,0.0043 -0.734375,-0.06248 z m 1.200378,-0.476375 c 0.09604,-0.02747 0.216809,-0.0683 0.268372,-0.09073 0.05156,-0.02243 0.114844,-0.04908 0.140625,-0.05922 0.09589,-0.03773 0.176119,-0.102815 0.408487,-0.331344 0.454042,-0.446541 0.664102,-1.071029 0.551861,-1.640625 -0.06246,-0.316981 -0.122923,-0.479909 -0.253239,-0.68242 C 14.84995,12.180621 14.658762,11.988806 14.42588,11.831384 13.948194,11.50848 13.502993,11.42854 12.9375,11.564133 c -0.146094,0.03503 -0.296062,0.05606 -0.333262,0.04673 -0.0372,-0.0093 -0.210612,-0.101368 -0.385359,-0.204535 -0.174747,-0.103167 -0.324451,-0.187576 -0.332677,-0.187576 -0.0082,0 -0.08442,-0.04548 -0.169329,-0.101062 -0.143309,-0.09382 -0.200753,-0.18019 -0.119842,-0.18019 0.01899,0 0.09704,-0.04219 0.173441,-0.09375 0.0764,-0.05156 0.151264,-0.09375 0.166362,-0.09375 0.0151,0 0.04625,-0.01758 0.06922,-0.03906 0.02297,-0.02149 0.09781,-0.0669 0.166295,-0.10093 0.06849,-0.03403 0.18936,-0.100823 0.268604,-0.148437 0.161499,-0.09704 0.266656,-0.10653 0.449669,-0.0406 0.177278,0.06387 0.873709,0.06436 0.99576,7.09e-4 0.04923,-0.02568 0.109026,-0.04668 0.132881,-0.04668 0.160469,0 0.918234,-0.5829269 0.918234,-0.7063712 0,-0.023996 0.01225,-0.043629 0.02721,-0.043629 0.05279,0 0.249674,-0.5186594 0.286974,-0.7559747 0.02962,-0.1884694 0.02954,-0.2963959 -3.87e-4,-0.5 C 15.211614,8.0990516 15.185387,8.0219884 15.021576,7.6940181 14.928663,7.5079969 14.568793,7.09375 14.500103,7.09375 c -0.01724,0 -0.03135,-0.012132 -0.03135,-0.02696 0,-0.04838 -0.406279,-0.2283691 -0.651285,-0.2885313 -0.131637,-0.032324 -0.323715,-0.058827 -0.42684,-0.058896 -0.558848,-3.719e-4 -1.183276,0.32373 -1.534106,0.7962622 -0.260322,0.3506287 -0.395861,0.8907287 -0.330797,1.3181731 0.04909,0.3224753 0.0474,0.4162019 -0.0075,0.4162019 -0.02435,0 -0.04896,0.010771 -0.05469,0.023935 -0.0094,0.021694 -0.390699,0.257315 -0.41636,0.257315 -0.006,0 -0.153756,0.084375 -0.328432,0.1875 -0.174676,0.103125 -0.323267,0.1875 -0.330202,0.1875 -0.0069,0 -0.08117,0.042188 -0.164972,0.09375 C 10.070395,10.09425 9.9267627,10.120983 9.8903255,10.06203 9.8795425,10.04458 9.8259775,10.00989 9.7712936,9.9849319 9.7166166,9.9599734 9.615625,9.907285 9.546875,9.8678441 9.478125,9.8284031 9.3375,9.74801 9.234375,9.6891925 9.13125,9.6303753 9.0398438,9.5742791 9.03125,9.5645347 9.0226563,9.55479 8.9523438,9.5144241 8.875,9.4748322 8.7976563,9.4352406 8.6921875,9.3756969 8.640625,9.3425128 8.5890625,9.3093287 8.512005,9.2670269 8.4693859,9.2485091 8.4267672,9.2299909 8.3845797,9.2051597 8.3756359,9.1933284 8.3666925,9.1814972 8.2914703,9.1366737 8.2084759,9.0937209 8.0505497,9.0119881 7.9834403,8.9734319 7.828125,8.8751975 7.7765625,8.8425853 7.6710938,8.7835094 7.59375,8.7439178 7.5164063,8.7043259 7.4458075,8.6622528 7.4368641,8.6504216 7.4279203,8.6385903 7.3857328,8.6137591 7.3431141,8.5952409 7.300495,8.5767231 7.2234375,8.5344212 7.171875,8.5012372 7.1203125,8.4680531 7.0148438,8.4084962 6.9375,8.3688888 6.8601563,8.3292812 6.7782925,8.2792969 6.7555803,8.2578125 6.7328684,8.2363281 6.6959184,8.21875 6.6734694,8.21875 6.6510203,8.21875 6.6151466,8.1976563 6.59375,8.171875 6.5449663,8.1130941 6.3666366,8.1115397 6.1852544,8.1683144 6.0560822,8.2087466 5.9230403,8.2445734 5.453125,8.3654694 5.35,8.3920006 5.2023438,8.4314456 5.125,8.453125 5.0476563,8.4748044 4.8929688,8.5169741 4.78125,8.546835 4.6695313,8.5766959 4.5429688,8.6121069 4.5,8.6255263 l -0.078125,0.024398 0.1015625,0.03747 C 4.5792969,8.7080028 4.625,8.7375509 4.625,8.7530572 c 0,0.015506 0.012917,0.028193 0.028704,0.028193 0.015787,0 0.1716203,0.084375 0.3462962,0.1875 0.1746759,0.103125 0.3249544,0.1875 0.3339519,0.1875 0.009,0 0.078869,0.042188 0.1552703,0.09375 0.076401,0.051562 0.1512641,0.09375 0.1663622,0.09375 0.015098,0 0.046248,0.017578 0.069223,0.039063 0.022974,0.021484 0.097807,0.067153 0.1662947,0.1014872 0.068487,0.034333 0.1431056,0.080037 0.1658178,0.1015625 0.022712,0.021526 0.053648,0.039138 0.068746,0.039138 0.015098,0 0.089961,0.042188 0.1663622,0.09375 0.076401,0.051562 0.1462728,0.09375 0.1552703,0.09375 0.009,0 0.1546144,0.081568 0.3235932,0.1812625 0.1689784,0.099695 0.3283275,0.1912556 0.3541087,0.2034696 0.025781,0.01221 0.089062,0.04997 0.140625,0.0839 0.051563,0.03393 0.121875,0.07593 0.15625,0.09333 0.034375,0.0174 0.083594,0.04563 0.109375,0.06272 0.1390856,0.09222 0.696775,0.406569 0.7212963,0.406569 0.015787,0 0.028704,0.01236 0.028704,0.02746 0,0.0151 0.042188,0.04493 0.09375,0.06629 0.090383,0.03744 0.1275519,0.09375 0.061879,0.09375 -0.017529,0 -0.091357,0.03838 -0.1640625,0.0853 C 8.0924475,11.232936 8.0238522,11.274746 7.96875,11.301887 7.9429688,11.314585 7.7882813,11.403736 7.625,11.5 c -0.1632812,0.09626 -0.3179687,0.185018 -0.34375,0.197232 -0.025781,0.01221 -0.089062,0.04997 -0.140625,0.0839 -0.051563,0.03393 -0.121875,0.07593 -0.15625,0.09333 -0.034375,0.0174 -0.083594,0.04563 -0.109375,0.06272 -0.099369,0.06588 -0.6934331,0.406569 -0.7089519,0.406569 -0.009,0 -0.078869,0.04219 -0.1552703,0.09375 -0.076401,0.05156 -0.1512641,0.09375 -0.1663622,0.09375 -0.015098,0 -0.046034,0.01768 -0.068746,0.03929 -0.022712,0.02161 -0.1008991,0.06731 -0.1737488,0.101563 -0.07285,0.03425 -0.1326153,0.07145 -0.1328125,0.08265 -1.875e-4,0.01121 -0.03903,0.03586 -0.086296,0.05478 -0.047266,0.01892 -0.128125,0.06232 -0.1796875,0.09644 -0.051563,0.03412 -0.1151672,0.07275 -0.1413438,0.08584 -0.099622,0.04983 -0.4218506,0.239241 -0.4367812,0.256752 -0.00859,0.01008 -0.057812,0.03801 -0.109375,0.06206 -0.080461,0.03754 -0.08489,0.04531 -0.03125,0.05485 0.057349,0.0102 0.1528825,0.03632 0.546875,0.149504 0.1376987,0.03956 0.3108578,0.08481 0.71875,0.187837 0.1117187,0.02822 0.2664062,0.07038 0.34375,0.09369 0.2818066,0.08494 0.3674072,0.08655 0.5245675,0.0098 0.081019,-0.03955 0.154625,-0.08159 0.1635684,-0.09342 0.00894,-0.01183 0.051131,-0.03666 0.09375,-0.05518 0.042619,-0.01852 0.1196766,-0.06082 0.1712391,-0.094 0.051563,-0.03318 0.1570312,-0.09273 0.234375,-0.132319 0.077344,-0.03959 0.1479425,-0.08167 0.1568859,-0.0935 0.00894,-0.01183 0.051131,-0.03666 0.09375,-0.05518 0.042619,-0.01852 0.1196766,-0.06143 0.1712391,-0.09536 0.051563,-0.03393 0.1148438,-0.07168 0.140625,-0.0839 0.025781,-0.01221 0.1851303,-0.103775 0.3541088,-0.203469 0.1689787,-0.09969 0.3119734,-0.181263 0.3177662,-0.181263 0.00579,0 0.1534491,-0.08437 0.328125,-0.1875 0.1746759,-0.103125 0.3223322,-0.1875 0.328125,-0.1875 0.00579,0 0.1487875,-0.08093 0.3177663,-0.179845 0.1689784,-0.09891 0.3565293,-0.205729 0.4167796,-0.237366 l 0.1095463,-0.05752 0.249829,0.144357 c 0.137406,0.0794 0.270923,0.157556 0.296704,0.173689 0.02578,0.01613 0.110156,0.06149 0.1875,0.100793 0.07734,0.0393 0.147656,0.07893 0.15625,0.08807 0.02024,0.02152 0.355655,0.215822 0.511244,0.296164 0.06634,0.03426 0.128184,0.08136 0.137429,0.104664 0.0092,0.02331 -0.0016,0.181439 -0.02409,0.351399 -0.043,0.324882 -0.01355,0.637929 0.08054,0.856221 0.02223,0.05156 0.06603,0.160315 0.09733,0.241673 0.0313,0.08136 0.109433,0.20792 0.173617,0.28125 0.06419,0.07333 0.116919,0.142164 0.117188,0.152964 5.62e-4,0.02264 0.320176,0.273166 0.418692,0.328184 0.186341,0.104065 0.350302,0.180091 0.467305,0.216682 0.188868,0.05907 0.77302,0.05606 0.986744,-0.0051 z m -0.782916,-0.761976 c -0.282244,-0.09285 -0.426784,-0.201284 -0.647839,-0.485997 -0.01379,-0.01777 -0.03467,-0.0705 -0.04638,-0.117188 -0.01172,-0.04669 -0.0351,-0.08489 -0.05196,-0.08489 -0.0181,0 -0.03065,-0.134685 -0.03065,-0.328783 0,-0.306098 0.0069,-0.342887 0.09968,-0.533218 0.153384,-0.314582 0.401372,-0.497628 0.784184,-0.578828 0.205315,-0.04355 0.522928,-0.0021 0.692705,0.09035 0.14211,0.0774 0.485932,0.439045 0.485932,0.511119 0,0.03442 0.02109,0.08367 0.04687,0.109453 0.03556,0.03556 0.04687,0.124089 0.04687,0.366794 0,0.311169 -0.003,0.324996 -0.111394,0.50558 -0.200892,0.334829 -0.368983,0.460632 -0.747034,0.559102 -0.232657,0.0606 -0.301156,0.05883 -0.520985,-0.01349 z m 0.536594,-0.535202 c 0.114298,-0.04917 0.177196,-0.103366 0.24798,-0.213673 0.116615,-0.181729 0.121456,-0.314729 0.01982,-0.544542 -0.05887,-0.133107 -0.105583,-0.187541 -0.216984,-0.252826 -0.187645,-0.109967 -0.348377,-0.110622 -0.56249,-0.0023 -0.29027,0.146864 -0.380011,0.458116 -0.221994,0.769949 0.06593,0.130101 0.107942,0.170527 0.242188,0.233031 0.199764,0.09301 0.294692,0.09501 0.491478,0.01035 z M 9.7879678,11.506324 c -0.1360606,-0.04182 -0.2834094,-0.220213 -0.3059281,-0.370379 -0.04301,-0.286813 0.048637,-0.492804 0.2693472,-0.605402 0.4660111,-0.237742 0.9766841,0.28688 0.7066511,0.725953 -0.11458,0.186307 -0.224542,0.254736 -0.423946,0.263818 -0.096094,0.0044 -0.2068501,-0.0019 -0.2461242,-0.01399 z M 13.164796,9.6883981 C 13.014536,9.6527003 12.732906,9.5026009 12.61101,9.3932488 12.551924,9.3402431 12.460588,9.2097731 12.408041,9.1033153 12.319959,8.9248666 12.3125,8.8843006 12.3125,8.5837041 c 0,-0.2517 0.01069,-0.3349225 0.04687,-0.3649541 0.02578,-0.021397 0.04687,-0.064337 0.04687,-0.095423 0,-0.076223 0.360479,-0.4377728 0.513182,-0.5147066 0.09917,-0.049965 0.186097,-0.061746 0.455596,-0.061746 0.304212,0 0.34829,0.00772 0.509233,0.089146 0.2062,0.1043278 0.391991,0.2945247 0.504409,0.516371 0.06992,0.1379868 0.08008,0.1973125 0.08008,0.4677428 0,0.2371765 -0.01098,0.3188237 -0.04687,0.3486153 -0.02578,0.021397 -0.04687,0.065899 -0.04687,0.098895 0,0.032996 -0.01422,0.076977 -0.03159,0.097736 -0.01738,0.020759 -0.06117,0.077156 -0.09731,0.1253275 -0.226297,0.3015671 -0.720627,0.4833756 -1.081301,0.397689 z m 0.555546,-0.6150359 c 0.133456,-0.088317 0.248408,-0.3238191 0.248408,-0.5089113 0,-0.1583931 -0.146297,-0.3809031 -0.300473,-0.4570021 -0.184831,-0.09123 -0.437972,-0.081581 -0.595554,0.022702 -0.333777,0.2208831 -0.340918,0.7392163 -0.01304,0.9461994 0.244175,0.1541406 0.42445,0.1533256 0.660655,-0.00299 z M 0,6.96875 V 1 H 7.9740359 15.948072 L 15.28125,1.5 14.614428,2 H 13.807214 13 v 0.4982032 0.4982032 l 0.131119,0.00961 0.131119,0.00961 L 12.604616,3.5078125 11.946994,4 H 6.4734969 1 v 3 3 H 2.4740358 3.9480716 L 3.28125,10.5 2.6144283,11 H 1.8072142 1 v 0.498203 0.498203 l 0.1307105,0.0096 0.1307105,0.0096 -0.61470269,0.460938 C 0.30863184,12.730078 0.02481211,12.9375 0.01600781,12.9375 0.00720352,12.9375 0,10.251563 0,6.96875 Z M 3,2.5 V 2 H 2 1 V 2.5 3 h 1 1 z m 4,0 V 2 H 6 5 V 2.5 3 h 1 1 z m 4,0 V 2 H 10 9 V 2.5 3 h 1 1 z"
       id="path819"
       inkscape:connector-curvature="0" />
  </g>
</svg>
