<?xml version="1.0" encoding="UTF-8" standalone="no"?>
<!-- Created with Inkscape (http://www.inkscape.org/) -->

<svg
   xmlns:dc="http://purl.org/dc/elements/1.1/"
   xmlns:cc="http://creativecommons.org/ns#"
   xmlns:rdf="http://www.w3.org/1999/02/22-rdf-syntax-ns#"
   xmlns:svg="http://www.w3.org/2000/svg"
   xmlns="http://www.w3.org/2000/svg"
   xmlns:sodipodi="http://sodipodi.sourceforge.net/DTD/sodipodi-0.dtd"
   xmlns:inkscape="http://www.inkscape.org/namespaces/inkscape"
   version="1.1"
   id="svg2"
   width="16"
   height="16"
   viewBox="0 0 16 16"
   sodipodi:docname="SEQ_CLEAR_OFFSET.svg"
   inkscape:version="0.92.4 (5da689c313, 2019-01-14)">
  <metadata
     id="metadata8">
    <rdf:RDF>
      <cc:Work
         rdf:about="">
        <dc:format>image/svg+xml</dc:format>
        <dc:type
           rdf:resource="http://purl.org/dc/dcmitype/StillImage" />
        <dc:title></dc:title>
      </cc:Work>
    </rdf:RDF>
  </metadata>
  <defs
     id="defs6" />
  <sodipodi:namedview
     pagecolor="#ffffff"
     bordercolor="#666666"
     borderopacity="1"
     objecttolerance="10"
     gridtolerance="10"
     guidetolerance="10"
     inkscape:pageopacity="0"
     inkscape:pageshadow="2"
     inkscape:window-width="828"
     inkscape:window-height="480"
     id="namedview4"
     showgrid="false"
     inkscape:zoom="14.75"
     inkscape:cx="8"
     inkscape:cy="8"
     inkscape:window-x="354"
     inkscape:window-y="311"
     inkscape:window-maximized="0"
     inkscape:current-layer="svg2" />
  <g
     id="SEQ_CLEAR_OFFSET">
    <path
       style="fill:#ffffff;stroke-width:0.03125"
       d="m 0,15 v -1 h 3.9755872 3.9755872 l 0.6259753,0.623196 c 0.5155787,0.51329 0.6584616,0.638061 0.8101797,0.707484 0.2537984,0.116132 0.5783312,0.159323 0.8644156,0.115041 0.467184,-0.07231 0.388116,-0.0041 2.75118,-2.374042 2.36521,-2.372111 2.25021,-2.237391 2.320028,-2.717865 0.07015,-0.4827427 -0.079,-0.9184268 -0.429689,-1.2551734 -0.340999,-0.327444 -0.765355,-0.4613878 -1.232617,-0.3890622 -0.428775,0.066368 -0.500301,0.1180441 -1.387209,1.00223 L 11.46875,10.514026 V 7.6987781 c 0,-1.7603965 -0.0118,-2.8774619 -0.03149,-2.981289 C 11.387329,4.4542019 11.267163,4.2312137 11.057609,4.0129856 10.716328,3.6575769 10.272664,3.5091953 9.7795047,3.5855291 9.1979313,3.6755481 8.7017394,4.1493247 8.5939891,4.7174891 8.5742988,4.8213166 8.5625,5.93843 8.5625,7.6989263 V 10.514322 L 8.28125,10.234375 8,9.9544281 V 5.9772141 2 H 4 0 V 1 0 h 8 8 v 8 8 H 8 0 Z"
       id="path825"
       inkscape:connector-curvature="0" />
    <path
       style="fill:#fefefe;stroke-width:0.03125"
       d="M 1,12.5 V 12 H 2 3 V 12.5 13 H 2 1 Z m 4,0 V 12 H 5.4769287 5.9538575 L 6.453125,12.5 6.9523925,13 H 5.9761962 5 Z M 0,8 V 5 H 3.5 7 V 6.9658806 8.9317613 L 6.7867231,8.8223363 C 6.3789537,8.6131231 5.8636525,8.6080663 5.4549559,8.8092669 5.2109588,8.9293863 4.9032481,9.2432453 4.7926647,9.4847916 4.6082188,9.8876744 4.6197078,10.391787 4.8223362,10.786723 L 4.9317612,11 H 2.4658807 0 Z M 1,3.5 V 3 H 2 3 V 3.5 4 H 2 1 Z m 4,0 V 3 H 6 7 V 3.5 4 H 6 5 Z"
       id="path823"
       inkscape:connector-curvature="0" />
    <path
       style="fill:#fe9832;stroke-width:0.03125"
       d="M 9.8170866,14.936056 C 9.7422653,14.920849 9.6227341,14.873702 9.5514616,14.831284 9.4801888,14.788866 8.4978375,13.828615 7.3684581,12.697393 5.0880787,10.413292 5.1774606,10.519049 5.1772156,10.104713 5.1769031,9.5778525 5.5794794,9.1773475 6.109375,9.1773475 c 0.3940863,0 0.3895088,-0.00354 1.7421875,1.3469615 0.84579,0.844428 1.2115388,1.190304 1.2129319,1.147027 0.0011,-0.03408 0.00461,-1.594773 0.00781,-3.468211 l 0.00582,-3.40625 0.086868,-0.1768919 C 9.3335081,4.2768316 9.63995,4.0835975 10.015625,4.0835975 c 0.375675,0 0.682117,0.1932341 0.850632,0.5363856 l 0.08687,0.1768919 0.0058,3.40625 c 0.0032,1.873438 0.0067,3.434129 0.0078,3.468204 0.0014,0.04328 0.36225,-0.297711 1.197307,-1.131397 1.335557,-1.3333664 1.332922,-1.3313345 1.726562,-1.3313345 0.373893,0 0.682573,0.1935459 0.848028,0.5317228 0.06767,0.1383063 0.08424,0.2162344 0.08413,0.3956427 -2.5e-4,0.414428 0.08925,0.308574 -2.191242,2.591664 -1.630273,1.632125 -2.085615,2.071163 -2.209667,2.130543 -0.18229,0.08726 -0.41269,0.116928 -0.6047884,0.07789 z"
       id="path821"
       inkscape:connector-curvature="0" />
    <path
       style="fill:#323232;stroke-width:0.03125"
       d="M 9.6930091,15.435313 C 9.36196,15.370165 9.2336484,15.27678 8.5771497,14.623196 L 7.9511744,14 H 3.9755872 0 V 12.5 11 H 2.4658807 4.9317612 L 4.8223362,10.786723 C 4.6197078,10.391787 4.6082187,9.8876744 4.7926647,9.4847916 4.9037678,9.2421103 5.2108869,8.9294216 5.4572822,8.8081219 5.8644616,8.6076681 6.3799369,8.6136278 6.7890281,8.8235188 L 7,8.9317612 V 6.9658806 5 H 3.5 0 V 3.5 2 h 4 4 v 3.9772141 3.977214 L 8.28125,10.234375 8.5625,10.514322 V 7.6989263 C 8.5625,5.93843 8.574299,4.8213166 8.593989,4.7174891 8.64392,4.4542019 8.7640871,4.2312137 8.9736405,4.0129856 9.3149215,3.6575769 9.7585862,3.5091953 10.251745,3.5855291 c 0.581574,0.090019 1.077766,0.5637956 1.185516,1.13196 0.01969,0.1038271 0.03149,1.2208925 0.03149,2.981289 v 2.8152479 l 0.804688,-0.8022176 c 0.886908,-0.8841859 0.958434,-0.9358618 1.387209,-1.00223 0.467262,-0.072326 0.891618,0.061618 1.232617,0.3890622 0.355409,0.341281 0.503791,0.7849457 0.427457,1.2781044 -0.07231,0.467184 -0.0041,0.388116 -2.374042,2.75118 -1.87597,1.870512 -2.17067,2.15223 -2.313618,2.211699 -0.295724,0.123027 -0.628833,0.156934 -0.940052,0.09569 z M 10.421875,14.85817 c 0.124052,-0.05938 0.579394,-0.498418 2.209667,-2.130543 2.280497,-2.28309 2.190997,-2.177236 2.191242,-2.591664 3.13e-4,-0.5268605 -0.402263,-0.9273655 -0.932159,-0.9273655 -0.39364,0 -0.391005,-0.00203 -1.726562,1.3313345 -0.835057,0.833686 -1.195914,1.174679 -1.197307,1.131397 -0.0011,-0.03407 -0.0046,-1.594766 -0.0078,-3.468204 l -0.0058,-3.40625 -0.08687,-0.1768919 C 10.697742,4.2768316 10.3913,4.0835975 10.015625,4.0835975 c -0.375675,0 -0.6821169,0.1932341 -0.8506319,0.5363856 l -0.086868,0.1768919 -0.00582,3.40625 c -0.0032,1.873438 -0.00672,3.434133 -0.00781,3.468211 -0.00139,0.04328 -0.3671419,-0.302599 -1.2129319,-1.147027 C 6.4988838,9.1738087 6.5034613,9.1773475 6.109375,9.1773475 c -0.3738931,0 -0.6825731,0.1935459 -0.8480275,0.5317228 -0.067667,0.1383063 -0.084238,0.2162344 -0.084132,0.3956427 2.5e-4,0.414336 -0.089137,0.308579 2.1912425,2.59268 1.1293794,1.131222 2.1117307,2.091473 2.1830035,2.133891 0.2550443,0.15179 0.5879875,0.162074 0.8704135,0.02689 z M 3,12.5 V 12 H 2 1 v 0.5 0.5 h 1 1 z m 3.453125,0 L 5.9538575,12 H 5.4769287 5 V 12.5 13 H 5.9761962 6.9523925 Z M 3,3.5 V 3 H 2 1 V 3.5 4 h 1 1 z m 4,0 V 3 H 6 5 V 3.5 4 h 1 1 z"
       id="path819"
       inkscape:connector-curvature="0" />
  </g>
</svg>
