<?xml version="1.0" encoding="UTF-8" standalone="no"?>
<!-- Created with Inkscape (http://www.inkscape.org/) -->

<svg
   version="1.1"
   id="svg2"
   width="16"
   height="16"
   viewBox="0 0 16 16"
   sodipodi:docname="ROTATION_TO_AXIS_ANGLE.svg"
   inkscape:version="1.2.2 (732a01da63, 2022-12-09)"
   xmlns:inkscape="http://www.inkscape.org/namespaces/inkscape"
   xmlns:sodipodi="http://sodipodi.sourceforge.net/DTD/sodipodi-0.dtd"
   xmlns="http://www.w3.org/2000/svg"
   xmlns:svg="http://www.w3.org/2000/svg">
  <defs
     id="defs6" />
  <sodipodi:namedview
     id="namedview4"
     pagecolor="#ffffff"
     bordercolor="#000000"
     borderopacity="0.25"
     inkscape:showpageshadow="2"
     inkscape:pageopacity="0.0"
     inkscape:pagecheckerboard="0"
     inkscape:deskcolor="#d1d1d1"
     showgrid="false"
     inkscape:zoom="47.375"
     inkscape:cx="8.0527704"
     inkscape:cy="8"
     inkscape:window-width="2560"
     inkscape:window-height="1377"
     inkscape:window-x="-8"
     inkscape:window-y="-8"
     inkscape:window-maximized="1"
     inkscape:current-layer="g8" />
  <g
     inkscape:groupmode="layer"
     inkscape:label="Image"
     id="g8">
    <g
       id="ROTATION_TO_AXIS_ANGLE">
      <path
         style="fill:#ffffff;stroke-width:0.03125"
         d="M 0,8 V 0 h 8 8 v 8 8 H 8 0 Z m 14.477548,6.435069 c 0.247793,-0.0828 0.448876,-0.211247 0.621936,-0.397291 C 15.385043,13.730795 15.5,13.43293 15.5,13 15.5,12.56707 15.385043,12.269205 15.099484,11.962222 14.85148,11.695612 14.447657,11.5 14.145269,11.5 H 14.007317 L 13.726789,10.679688 C 13.572499,10.228516 13.2381,9.2265625 12.983679,8.453125 11.426207,3.7184103 11.465238,3.8325275 11.368153,3.7297806 c -0.12445,-0.1317075 -0.321495,-0.18708 -0.482656,-0.1356334 -0.165787,0.052924 -0.309315,0.1984962 -0.35437,0.3594181 -0.04236,0.151305 -0.06408,0.082536 1.74784,5.5346763 l 0.769803,2.3163664 -0.161797,0.173826 c -0.08899,0.0956 -0.198811,0.252067 -0.24405,0.347696 L 12.560669,12.5 H 8.8006228 c -2.7198369,0 -3.7894334,0.0098 -3.8662722,0.03544 -0.1506615,0.05027 -0.2941619,0.196883 -0.3389234,0.346284 -0.074246,0.24781 0.080281,0.527791 0.3389234,0.614084 0.076844,0.02564 1.1487032,0.03544 3.8751832,0.03544 h 3.7689572 l 0.07013,0.152873 c 0.08446,0.184094 0.307642,0.439033 0.500539,0.57175 0.352339,0.242415 0.91288,0.318031 1.328387,0.179196 z M 2.3305893,9.9296875 C 2.101148,9.1408147 2.0188363,8.6313219 2.0188363,8 c 0,-1.6452687 0.6851009,-3.2254341 1.88809,-4.3548244 L 4.1683706,3.3997263 4.5647769,4.1920506 C 4.7828,4.6278291 4.9710466,4.9817066 4.9831022,4.9784456 4.9951578,4.9751844 5.6780063,4.0751844 6.5005434,2.9784455 L 7.9960656,0.984375 5.4930116,0.976375 C 4.1163319,0.971975 2.984431,0.973902 2.9776764,0.980657 2.9709264,0.987412 3.1313844,1.3256196 3.33426,1.7322303 L 3.703125,2.4715226 3.5625,2.5859542 C 3.3004853,2.799165 2.8081283,3.2955425 2.5783653,3.578125 1.934917,4.3694934 1.4628812,5.3058259 1.2219136,6.2687884 1.0560565,6.9315919 1.0169904,7.2616262 1.0169904,8 c 0,0.7186763 0.039444,1.0678438 0.1881261,1.6653147 C 1.2469899,9.8335813 1.28125,9.9777219 1.28125,9.9856272 1.28125,9.9935322 1.5219526,10 1.8161447,10 h 0.5348948 z"
         id="path857" />
      <path
         style="fill:#fefefe;stroke-width:0.03125"
         d="m 1.28125,9.9856272 c 0,-0.00791 -0.03426,-0.1520459 -0.076134,-0.3203125 C 1.0564349,9.0678438 1.0169904,8.7186763 1.0169904,8 c 0,-0.7383738 0.039066,-1.0684081 0.2049232,-1.7312116 C 1.4628812,5.3058259 1.934917,4.3694934 2.5783653,3.578125 2.8081283,3.2955425 3.3004853,2.799165 3.5625,2.5859542 L 3.703125,2.4715226 3.33426,1.7322303 C 3.1313844,1.3256196 2.9709218,0.98741156 2.9776764,0.98065697 c 0.00675,-0.006755 1.1386555,-0.008681 2.5153352,-0.004282 l 2.503054,0.008 L 6.5005434,2.9784455 C 5.6780062,4.0751844 4.9951578,4.9751844 4.9831022,4.9784456 4.9710466,4.9817066 4.7828,4.6278291 4.5647769,4.1920506 L 4.1683706,3.3997263 3.9069262,3.6451756 C 2.7039372,4.7745659 2.0188363,6.3547313 2.0188363,8 c 0,0.6313219 0.082312,1.1408147 0.311753,1.9296875 L 2.3510395,10 H 1.8161447 C 1.5219526,10 1.28125,9.9935322 1.28125,9.9856272 Z"
         id="path855" />
      <path
         style="fill:#fefe00;stroke-width:0.03125"
         d="M 13.687668,13.94977 C 12.97962,13.692495 12.772887,12.819372 13.296129,12.296129 13.501453,12.090806 13.687262,12.017164 14,12.017164 c 0.312738,0 0.498547,0.07364 0.703871,0.278965 0.205323,0.205324 0.278965,0.391133 0.278965,0.703871 0,0.312738 -0.07364,0.498547 -0.278965,0.703871 -0.256764,0.256763 -0.694675,0.362728 -1.016203,0.245899 z"
         id="path853" />
      <path
         style="fill:#fe9832;stroke-width:0.03125"
         d="M 13.49667,14.425801 C 12.873877,14.205949 12.5,13.671093 12.5,13 c 0,-0.43293 0.114957,-0.730795 0.400516,-1.037778 C 13.192137,11.648722 13.545902,11.5 14,11.5 c 0.454098,0 0.807863,0.148722 1.099484,0.462222 C 15.385043,12.269205 15.5,12.56707 15.5,13 c 0,0.43293 -0.114957,0.730795 -0.400516,1.037778 -0.29386,0.315906 -0.645491,0.46261 -1.106311,0.461563 -0.222725,-5.06e-4 -0.337968,-0.01758 -0.496503,-0.07354 z m 0.925205,-0.522038 c 0.442637,-0.210049 0.679775,-0.73998 0.532552,-1.19009 -0.06209,-0.189819 -0.245061,-0.466179 -0.341534,-0.515845 -0.03631,-0.01869 -0.129299,-0.06713 -0.206643,-0.107641 -0.204472,-0.107094 -0.605932,-0.105355 -0.828125,0.0036 -0.812326,0.398286 -0.744608,1.545634 0.109543,1.855996 0.197215,0.07166 0.53022,0.05079 0.734207,-0.04601 z"
         id="path851" />
      <path
         style="fill:#fe0000;stroke-width:0.03125"
         d="M 4.921875,13.493696 C 4.7790775,13.444012 4.635635,13.290224 4.5942628,13.142457 4.5244963,12.893275 4.6768428,12.621355 4.9343506,12.535441 5.0111903,12.509804 6.0811706,12.5 8.8021338,12.5 h 3.7615572 l -0.02403,0.08594 c -0.03208,0.11472 -0.03074,0.715918 0.0019,0.84375 l 0.02592,0.101562 -3.7759207,-0.0025 c -2.53598,-0.0017 -3.8067059,-0.01318 -3.8696703,-0.03509 z M 12.274808,9.4765625 C 10.453697,3.9936153 10.488791,4.1047731 10.531127,3.9535653 c 0.07454,-0.266244 0.354,-0.4313503 0.609172,-0.3599065 0.268468,0.075166 0.268715,0.075706 0.860429,1.8750912 0.551131,1.6759716 1.946532,5.877799 1.98478,5.976563 0.01837,0.04744 0.0011,0.05477 -0.130602,0.05535 -0.171063,7.44e-4 -0.52137,0.114104 -0.661961,0.214214 -0.05127,0.03651 -0.106592,0.06638 -0.122937,0.06638 -0.01634,0 -0.374185,-1.037109 -0.7952,-2.3046875 z"
         id="path849" />
    </g>
  </g>
</svg>
