<?xml version="1.0" encoding="UTF-8" standalone="no"?>
<!-- Created with Inkscape (http://www.inkscape.org/) -->

<svg
   xmlns:dc="http://purl.org/dc/elements/1.1/"
   xmlns:cc="http://creativecommons.org/ns#"
   xmlns:rdf="http://www.w3.org/1999/02/22-rdf-syntax-ns#"
   xmlns:svg="http://www.w3.org/2000/svg"
   xmlns="http://www.w3.org/2000/svg"
   xmlns:sodipodi="http://sodipodi.sourceforge.net/DTD/sodipodi-0.dtd"
   xmlns:inkscape="http://www.inkscape.org/namespaces/inkscape"
   version="1.1"
   id="svg2"
   width="16"
   height="16"
   viewBox="0 0 16 16"
   sodipodi:docname="SELECT_FIRST.svg"
   inkscape:version="0.92.4 (5da689c313, 2019-01-14)">
  <metadata
     id="metadata8">
    <rdf:RDF>
      <cc:Work
         rdf:about="">
        <dc:format>image/svg+xml</dc:format>
        <dc:type
           rdf:resource="http://purl.org/dc/dcmitype/StillImage" />
        <dc:title></dc:title>
      </cc:Work>
    </rdf:RDF>
  </metadata>
  <defs
     id="defs6" />
  <sodipodi:namedview
     pagecolor="#ffffff"
     bordercolor="#666666"
     borderopacity="1"
     objecttolerance="10"
     gridtolerance="10"
     guidetolerance="10"
     inkscape:pageopacity="0"
     inkscape:pageshadow="2"
     inkscape:window-width="828"
     inkscape:window-height="480"
     id="namedview4"
     showgrid="false"
     inkscape:zoom="14.75"
     inkscape:cx="8"
     inkscape:cy="8"
     inkscape:window-x="0"
     inkscape:window-y="0"
     inkscape:window-maximized="0"
     inkscape:current-layer="svg2" />
  <g
     id="SELECT_FIRST">
    <path
       style="fill:#fefefe;stroke-width:0.03125"
       d="M 0,8 V 0 h 8 8 v 1.09375 c 0,0.6015625 -0.0076,1.09375 -0.01687,1.09375 -0.0093,0 -0.666935,-0.3234375 -1.46146,-0.71875 C 13.727146,1.0734375 13.047441,0.75 13.011214,0.75 12.899653,0.75 0.88628709,6.7726678 0.81364812,6.8650131 0.75078931,6.9449253 0.75,6.9777959 0.75,9.515625 c 0,2.527521 0.001032,2.571008 0.0628775,2.649632 0.0729384,0.09273 4.0900756,2.115993 4.2012425,2.115993 0.037848,0 0.8411697,-0.385677 1.7851597,-0.85706 L 8.515625,12.567131 8.53125,13.478878 c 0.01692,0.987326 0.018152,0.99424 0.195915,1.099247 0.1073859,0.06343 0.3019369,0.06826 0.3955453,0.0098 0.036167,-0.02258 0.4464088,-0.438325 0.9116487,-0.923871 0.465239,-0.485547 0.855256,-0.88262 0.866703,-0.882384 0.01145,2.5e-4 0.323157,0.654787 0.692688,1.454556 0.369531,0.79977 0.701529,1.482193 0.737773,1.516496 0.10446,0.09887 0.271111,0.132453 0.396746,0.07996 0.05846,-0.02443 0.487982,-0.271562 0.954489,-0.549191 0.637493,-0.379385 0.859876,-0.527367 0.895219,-0.595712 0.107681,-0.208232 0.08762,-0.263162 -0.593602,-1.625287 -0.352344,-0.704524 -0.640625,-1.295082 -0.640625,-1.312351 0,-0.02044 0.388108,-0.0314 1.112366,-0.0314 1.218871,0 1.22559,-9.5e-4 1.336523,-0.188745 0.05964,-0.100962 0.06549,-0.328579 0.01094,-0.425722 -0.03169,-0.05644 -0.51299,-0.586836 -1.21813,-1.3423986 L 14.436136,9.6018934 15.200013,9.2228219 C 15.620145,9.0143322 15.972015,8.84375 15.981945,8.84375 c 0.0099,0 0.01806,1.588058 0.01806,3.529018 0,3.166531 -0.005,3.534062 -0.04911,3.578125 C 15.906508,15.995278 15.137311,16 7.9508928,16 H 0 Z M 8.6477866,0.04361979 C 8.6374025,0.03323568 8.6104491,0.03212548 8.5878906,0.0411527 c -0.024929,0.0099758 -0.017524,0.01738071 0.01888,0.0188802 0.032942,0.0013569 0.0514,-0.006029 0.041016,-0.01641311 z m 0.25,0 C 8.8874025,0.03323568 8.8604491,0.03212548 8.8378906,0.0411527 c -0.024929,0.0099758 -0.017524,0.01738071 0.01888,0.0188802 0.032942,0.0013569 0.0514,-0.006029 0.041016,-0.01641311 z m 0.25,0 C 9.1374025,0.03323568 9.1104491,0.03212548 9.0878906,0.0411527 c -0.024929,0.0099758 -0.017524,0.01738071 0.01888,0.0188802 0.032942,0.0013569 0.0514,-0.006029 0.041016,-0.01641311 z M 12.755798,14.79119 c -0.01646,-0.03125 -0.334946,-0.717752 -0.707745,-1.525565 -0.756429,-1.639098 -0.756977,-1.63997 -1.031248,-1.641507 l -0.15743,-8.83e-4 -0.756957,0.77432 -0.7569558,0.77432 -8.563e-4,-3.9211647 -8.559e-4,-3.921165 0.073581,0.077415 c 0.040469,0.042578 0.965079,1.0399525 2.054687,2.2163875 1.089609,1.176435 2.210158,2.3858102 2.490109,2.6875002 l 0.509001,0.548527 -0.962126,0.01563 c -0.645338,0.01048 -0.982706,0.02754 -1.024627,0.05182 -0.128527,0.07443 -0.210353,0.19419 -0.225698,0.330338 -0.01438,0.127556 0.02973,0.226164 0.706744,1.579937 0.397143,0.79414 0.722079,1.449173 0.722079,1.455628 0,0.0065 -0.172266,0.114363 -0.382812,0.239795 -0.210547,0.125433 -0.413446,0.247731 -0.450887,0.271774 -0.06032,0.03874 -0.07148,0.03725 -0.098,-0.0131 z"
       id="path833"
       inkscape:connector-curvature="0" />
    <path
       style="fill:#98cbfe;stroke-width:0.03125"
       d="M 7.078125,5.7434106 C 6.2875,5.3485409 5.6369906,5.0219613 5.6325487,5.0176775 5.6281066,5.0133938 6.3874816,4.6288497 7.3200487,4.163135 L 9.015625,3.3163809 10.701001,4.1586706 c 0.926957,0.4632594 1.689456,0.8463697 1.694443,0.8513566 0.0081,0.00811 -1.003789,0.5229625 -1.367685,0.6958666 L 10.883644,5.77437 10.019064,4.8412997 C 9.2913228,4.0559088 9.1350037,3.9023934 9.0314047,3.8713544 8.8766844,3.8249991 8.7096409,3.8803478 8.6127316,4.0100794 8.5491766,4.0951594 8.5463291,4.1395359 8.53125,5.2797978 L 8.515625,6.461355 Z M 11.327473,3.8682684 C 10.399706,3.4046047 9.6369991,3.0217971 9.6325672,3.0175847 9.6281353,3.0133724 10.386886,2.6290398 11.31868,2.1635124 l 1.694171,-0.8464135 1.493205,0.7398881 1.493205,0.739888 -0.0074,0.2162945 -0.0074,0.2162946 -1.453125,0.728415 c -0.799219,0.4006284 -1.467481,0.7340403 -1.485027,0.740915 -0.01755,0.00687 -0.790985,-0.3668619 -1.71875,-0.8305257 z M 8.5878906,0.04115269 c 0.022559,-0.0090272 0.049512,-0.007917 0.059896,0.0024671 0.010384,0.01038412 -0.00807,0.01777001 -0.041016,0.0164131 -0.036405,-0.0014995 -0.043809,-0.0089044 -0.01888,-0.0188802 z m 0.25,0 c 0.022559,-0.0090272 0.049512,-0.007917 0.059896,0.0024671 0.010384,0.01038412 -0.00807,0.01777001 -0.041016,0.0164131 -0.036405,-0.0014995 -0.043809,-0.0089044 -0.01888,-0.0188802 z m 0.25,0 c 0.022559,-0.0090272 0.049512,-0.007917 0.059896,0.0024671 0.010384,0.01038412 -0.00807,0.01777001 -0.041016,0.0164131 -0.036405,-0.0014995 -0.043809,-0.0089044 -0.01888,-0.0188802 z"
       id="path831"
       inkscape:connector-curvature="0" />
    <path
       style="fill:#fefe00;stroke-width:0.03125"
       d="M 3.296875,7.8625875 1.609375,7.0149531 3.3125,6.1657419 5.015625,5.3165303 6.7010009,6.1587453 C 7.6279578,6.6219634 8.3904756,7.0050591 8.3954853,7.0100687 8.4061956,7.0207788 5.0171891,8.7207653 4.9976459,8.7144859 4.9903469,8.7121406 4.225,8.3287866 3.296875,7.8625875 Z"
       id="path829"
       inkscape:connector-curvature="0" />
    <path
       style="fill:#fecb32;stroke-width:0.03125"
       d="M 5.2888544,11.379741 5.296875,9.1765009 6.84375,8.3991656 C 7.6945312,7.9716312 8.4222656,7.6088291 8.4609375,7.5929384 L 8.53125,7.5640469 V 9.7608394 11.957632 L 6.9060419,12.770307 5.2808337,13.582982 Z M 3,12.708529 1.296875,11.855883 1.2888515,9.6623169 C 1.2844385,8.455855 1.2904894,7.46875 1.3022978,7.46875 c 0.011808,0 0.791501,0.3832031 1.7326501,0.8515625 l 1.7111802,0.8515625 0.00193,2.195313 c 0.00107,1.207421 -0.00861,2.195014 -0.021502,2.194649 -0.012891,-3.62e-4 -0.7898437,-0.384352 -1.7265625,-0.853308 z"
       id="path827"
       inkscape:connector-curvature="0" />
    <path
       style="fill:#6597ca;stroke-width:0.03125"
       d="m 13.663545,8.7734375 -0.380694,-0.4140625 0.007,-1.5914 0.007,-1.5913997 1.353097,-0.6780891 1.353096,-0.6780887 -0.0093,2.2057406 -0.0093,2.2057403 -0.953125,0.476481 C 14.5071,8.9704241 14.07057,9.1854388 14.061251,9.1861703 14.051951,9.1869016 13.872996,9.0011719 13.663614,8.7734375 Z m -1.64792,-1.7758438 c -0.395312,-0.4291387 -0.71875,-0.7903012 -0.71875,-0.8025831 0,-0.012282 0.326953,-0.1856256 0.726563,-0.3852084 L 12.75,5.4469244 v 1.1671628 c 0,0.6419397 -0.0035,1.1663969 -0.0078,1.1654609 -0.0043,-9.375e-4 -0.331251,-0.3528156 -0.726563,-0.7819544 z"
       id="path825"
       inkscape:connector-curvature="0" />
    <path
       style="fill:#353535;stroke-width:0.03125"
       d="M 2.8789243,13.250607 C 1.7896764,12.703635 0.86858269,12.224345 0.83204931,12.185518 l -0.0664243,-0.0706 0.0901518,0.06754 c 0.12318754,0.09229 0.22530839,0.08501 0.33412699,-0.02381 0.066783,-0.06678 0.091346,-0.121291 0.091346,-0.202706 0,-0.09844 -0.013127,-0.116844 -0.1131914,-0.158654 -0.1618423,-0.06762 -0.22332916,-0.05933 -0.32671247,0.04405 L 0.75,11.932692 V 9.5090069 c 0,-2.402745 5.2281e-4,-2.423021 0.0605083,-2.3467616 C 0.862321,7.2281144 1.2059117,7.4375 1.2621868,7.4375 c 0.010485,0 0.019063,-0.055048 0.019063,-0.1223284 0,-0.1129979 0.011026,-0.128491 0.144561,-0.203125 0.079509,-0.044438 0.160368,-0.081111 0.1796875,-0.081495 0.01932,-3.844e-4 0.734383,0.3476631 1.5890299,0.7734375 L 4.7484316,8.578125 4.7492159,8.8671875 C 4.7496472,9.0261719 4.7372875,9.15625 4.7217503,9.15625 4.7062128,9.15625 3.9362909,8.7767172 3.0108128,8.3128441 2.0853345,7.8489706 1.3174832,7.4692831 1.3044765,7.4690941 1.2914698,7.4689066 1.2844385,8.455855 1.2888515,9.6623169 L 1.296875,11.855883 3,12.708529 c 0.9367187,0.468956 1.7136719,0.852944 1.7265625,0.853308 C 4.7394531,13.562203 4.75,12.780135 4.75,11.823911 v -1.73859 l 0.063688,0.08097 c 0.035028,0.04453 0.1545594,0.125702 0.265625,0.18038 l 0.201937,0.09941 v 1.572372 1.572373 l -0.1453172,0.06428 -0.1453169,0.06428 -0.1064693,-0.06282 C 4.8255887,13.622018 4.77145,13.59375 4.7638387,13.59375 c -0.00761,0 -0.013839,0.110603 -0.013839,0.245786 0,0.201336 0.011713,0.260676 0.064768,0.328125 0.035622,0.04529 0.060232,0.08124 0.054687,0.07989 -0.00554,-0.0013 -0.9012834,-0.449971 -1.9905304,-0.996944 z m 2.343812,0.916647 c 0.025623,-0.03077 0.049179,-0.159712 0.058514,-0.320312 L 5.296875,13.578125 6.84375,12.803293 c 1.1262534,-0.564143 1.5659941,-0.770043 1.6171875,-0.757218 0.065515,0.01641 0.070312,0.0345 0.070312,0.265104 v 0.247489 l -1.6600353,0.830041 c -0.9130194,0.456523 -1.667085,0.830041 -1.6757013,0.830041 -0.00862,0 0.00363,-0.02317 0.027223,-0.0515 z M 14.241412,9.3919131 14.06095,9.1901112 15.030475,8.7069981 16,8.2238847 15.999781,8.526005 15.999563,8.828125 15.2256,9.2109375 c -0.425679,0.2105469 -0.780657,0.3828047 -0.788839,0.382795 -0.0082,-9.4e-6 -0.09609,-0.090828 -0.19534,-0.2018194 z M 5.2821837,8.8812747 5.2831181,8.578125 6.8392578,7.8008594 c 1.1813406,-0.59006 1.5724997,-0.7720735 1.6240663,-0.7557069 0.062115,0.019715 0.067927,0.04249 0.067927,0.2662109 V 7.556015 l -1.625,0.8142047 -1.625,0.8142047 9.344e-4,-0.3031497 z M 1.2853588,6.8597125 0.99259272,6.7249931 2.9343107,5.7553513 C 4.3376356,5.0545681 4.8585563,4.8079219 4.8130144,4.8658191 4.7617194,4.93103 4.7498994,4.9930928 4.7494594,5.1995269 L 4.7489191,5.453125 3.1947719,6.2268031 C 2.3399912,6.6523262 1.6265625,6.9991203 1.609375,6.9974569 1.5921875,6.9957934 1.4463802,6.9338084 1.2853588,6.8597125 Z M 11.078099,5.9830087 C 10.979356,5.8705384 10.90381,5.7739487 10.91022,5.768365 c 0.0064,-0.00558 0.34553,-0.1767022 0.7536,-0.3802628 l 0.741945,-0.37011 0.173888,0.085283 c 0.173774,0.085227 0.173883,0.08537 0.164305,0.2175663 L 12.734375,5.453125 12.00091,5.8203125 C 11.597503,6.0222656 11.265237,6.1875 11.262538,6.1875 c -0.0027,0 -0.0857,-0.092021 -0.184439,-0.2044913 z M 13.28125,5.0561322 c 0,-0.1087497 -0.0184,-0.1453084 -0.121102,-0.24062 l -0.121103,-0.1123872 1.481598,-0.7412712 1.481598,-0.7412713 -0.0089,0.3037713 -0.0089,0.3037712 -1.351562,0.67812 -1.351563,0.67812 z M 5.40625,4.9105653 C 5.2945313,4.8527825 5.1541753,4.7881794 5.0943478,4.7670025 L 4.9855706,4.7284997 6.9307997,3.7571044 C 8.3365516,3.0551097 8.8585525,2.8079264 8.8130144,2.865819 8.7617347,2.9310103 8.7498878,2.9931548 8.7493972,3.1995269 L 8.7487941,3.453125 7.1790844,4.234375 5.6093747,5.015625 5.4062497,4.9105653 Z m 4,-2 C 9.2945313,2.8527825 9.1541753,2.7881793 9.0943478,2.7670026 L 8.9855706,2.7284996 10.9308,1.7571044 c 1.405752,-0.7019947 1.927753,-0.94917802 1.882214,-0.89128543 -0.09318,0.11845912 -0.07933,0.21786753 0.04812,0.34531323 0.08417,0.08417 0.101229,0.1176923 0.07031,0.138171 -0.02245,0.014871 -0.7791,0.3958775 -1.681444,0.8466803 L 9.609375,3.015625 Z M 14.509274,2.0670111 C 13.732343,1.6778112 13.080537,1.3431938 13.060816,1.3234168 c -0.027,-0.027072 -0.01984,-0.041043 0.02897,-0.056535 0.08677,-0.02754 0.191461,-0.1649246 0.191461,-0.2512571 0,-0.038333 -0.02762,-0.10480531 -0.06137,-0.14771628 -0.04416,-0.0561365 0.337077,0.12017647 1.359189,0.62859818 l 1.42056,0.7066181 1.88e-4,0.2890625 c 1.25e-4,0.2122672 -0.01019,0.2881854 -0.03888,0.2857611 -0.02148,-0.00182 -0.674733,-0.3217376 -1.451663,-0.7109375 z"
       id="path823"
       inkscape:connector-curvature="0" />
    <path
       style="fill:#313131;stroke-width:0.03125"
       d="M 4.8413462,14.189904 C 4.7554641,14.104022 4.75,14.08346 4.75,13.846154 c 0,-0.138822 0.00623,-0.252404 0.013839,-0.252404 0.00761,0 0.063067,0.02904 0.1232338,0.06455 0.085446,0.05041 0.1230044,0.05726 0.1715578,0.03128 0.034189,-0.0183 0.098265,-0.047 0.1423909,-0.06377 l 0.080229,-0.0305 v 0.25163 c 0,0.236451 -0.00551,0.257141 -0.091346,0.342977 -0.055068,0.05507 -0.1242828,0.09135 -0.1742787,0.09135 -0.049996,0 -0.1192109,-0.03628 -0.1742788,-0.09135 z m -4.00000004,-2.03125 c -0.11554122,-0.115542 -0.11554122,-0.201767 0,-0.317308 0.10338331,-0.103383 0.16487014,-0.111674 0.32671244,-0.04405 0.1000646,0.04181 0.1131914,0.06021 0.1131914,0.158654 0,0.138427 -0.1405802,0.294052 -0.265625,0.294052 -0.0499958,0 -0.11921103,-0.03628 -0.17427884,-0.09135 z M 8.4426922,12.03512 c -0.033251,-0.02108 -0.031153,-0.03046 0.010368,-0.0464 0.072712,-0.0279 0.078189,-0.02602 0.078189,0.0269 0,0.05261 -0.026959,0.05854 -0.088558,0.01949 z M 5.0708884,10.343022 C 4.7415184,10.178411 4.75,10.204934 4.75,9.3395356 c 0,-0.4101822 0.010547,-0.7457331 0.023437,-0.7456687 0.012891,6.25e-5 0.070581,0.028858 0.1282006,0.063987 l 0.1047628,0.06387 0.1255532,-0.065442 c 0.069054,-0.035993 0.1311109,-0.059884 0.137904,-0.053091 0.00679,0.00679 0.00862,0.4229321 0.00406,0.9247534 l -0.00829,0.9124027 z m 7.9447366,-2.2698204 -0.25,-0.273146 L 12.75,6.4868869 12.734375,5.1737184 10.875,4.2410653 9.015625,3.3084122 8.9000588,3.3729559 C 8.8364975,3.4084553 8.7767319,3.4375 8.7672463,3.4375 8.7577609,3.4375 8.75,3.3239181 8.75,3.1850963 8.75,2.9477902 8.7554641,2.9272283 8.8413463,2.8413462 8.8915866,2.7911058 8.9659928,2.75 9.0066934,2.75 c 0.1158588,0 4.1484016,2.0319172 4.2172866,2.1250056 0.05483,0.074093 0.0574,0.1658141 0.04973,1.7747363 l -0.0081,1.6966056 z M 1.0625,7.3428581 C 0.85607275,7.23055 0.75,7.1180687 0.75,7.0114784 0.75,6.9171291 0.90626697,6.75 0.99448466,6.75 1.0284704,6.75 1.1802975,6.8070266 1.331878,6.8767256 1.6283732,7.0130587 1.6265716,7.0062891 1.3984375,7.1268437 1.2930256,7.1825475 1.28125,7.2012672 1.28125,7.313135 1.28125,7.381536 1.270703,7.4372453 1.257813,7.4369337 1.2449219,7.4366212 1.1570312,7.3942884 1.0625,7.3428581 Z M 6.75,6.1822097 5.015625,5.3089103 4.9000588,5.3732053 C 4.8364975,5.4085672 4.7767319,5.4375 4.7672463,5.4375 4.7577609,5.4375 4.75,5.3239181 4.75,5.1850962 4.75,4.94779 4.7554641,4.9272284 4.8413462,4.8413462 4.8915866,4.7911056 4.9653878,4.75 5.0053487,4.75 c 0.039961,0 0.8496366,0.3881459 1.7992788,0.8625462 L 8.53125,6.4750928 v 0.2937034 c 0,0.1615372 -0.010547,0.292131 -0.023437,0.2902085 C 8.4949219,7.0570828 7.7039062,6.6625247 6.75,6.1822097 Z M 12.85625,1.20625 c -0.134145,-0.1341446 -0.138521,-0.24128703 -0.0149,-0.36490384 0.118531,-0.11853104 0.230027,-0.11853104 0.348558,0 0.144422,0.14442206 0.104372,0.32058264 -0.0965,0.42445734 -0.119219,0.061651 -0.114855,0.062747 -0.237155,-0.059554 z"
       id="path821"
       inkscape:connector-curvature="0" />
    <path
       style="fill:#000000;stroke-width:0.03125"
       d="m 15.924116,15.976563 c 0.01556,-0.01289 0.03878,-0.0375 0.0516,-0.05469 0.01331,-0.01783 0.02353,-0.0078 0.0238,0.02344 2.81e-4,0.0304 -0.02265,0.05469 -0.05161,0.05469 -0.02865,0 -0.03936,-0.01055 -0.0238,-0.02344 z m -3.441463,-0.13572 c -0.05251,-0.01483 -0.1247,-0.05892 -0.160423,-0.09797 -0.03572,-0.03905 -0.365417,-0.721322 -0.732653,-1.516164 -0.367236,-0.794842 -0.677196,-1.445233 -0.688799,-1.445313 -0.0116,-9.3e-5 -0.404232,0.39947 -0.872508,0.887888 -0.4682759,0.488418 -0.8848344,0.903262 -0.9256856,0.921875 -0.040852,0.01861 -0.1315178,0.03384 -0.2014813,0.03384 -0.1060978,0 -0.1473381,-0.02013 -0.2485297,-0.121323 L 8.53125,14.382353 V 9.2582978 4.1342428 L 8.602059,4.0291687 c 0.040133,-0.059553 0.1218131,-0.1244865 0.1885378,-0.1498818 0.2619319,-0.099692 0.05014,-0.3071466 3.6680912,3.5929734 1.818815,1.9606669 3.324017,3.5951717 3.344892,3.6322317 0.02088,0.03706 0.03845,0.135834 0.03906,0.219497 9.87e-4,0.13571 -0.01198,0.165198 -0.120216,0.273438 L 15.6011,11.71875 h -1.128676 c -0.735184,0 -1.128677,0.01095 -1.128677,0.0314 0,0.01727 0.288281,0.607827 0.640625,1.312351 0.680818,1.361321 0.701233,1.417152 0.593991,1.624533 -0.03482,0.06733 -0.258509,0.216214 -0.882812,0.587578 -0.459899,0.273569 -0.864304,0.511594 -0.898679,0.528946 -0.10437,0.05268 -0.213779,0.06567 -0.314222,0.03729 z m 0.822035,-1.308327 c 0.210546,-0.125432 0.382812,-0.23334 0.382812,-0.239795 0,-0.0065 -0.323438,-0.658492 -0.71875,-1.448971 -0.496909,-0.993634 -0.718714,-1.468622 -0.718633,-1.538929 1.56e-4,-0.123821 0.09189,-0.281739 0.207869,-0.357811 0.07673,-0.05032 0.18973,-0.05807 1.051084,-0.07201 L 14.474184,10.859375 13.560043,9.875 C 13.057265,9.3335938 11.943076,8.13125 11.084067,7.203125 10.225058,6.275 9.4820741,5.4737078 9.4329913,5.4224759 l -0.089241,-0.093149 9.75e-4,3.921274 9.75e-4,3.9212741 0.7568377,-0.774228 0.756838,-0.774227 0.140625,9.06e-4 c 0.208269,0.0013 0.319855,0.08467 0.432418,0.322913 0.05259,0.111313 0.364973,0.783956 0.694178,1.494762 0.329204,0.710805 0.612183,1.31794 0.628842,1.349188 0.02684,0.05034 0.03804,0.05183 0.09836,0.0131 0.03744,-0.02404 0.24034,-0.146341 0.450886,-0.271773 z m 2.671943,-6.548141 c 3.47e-4,-0.06875 0.0067,-0.093195 0.01422,-0.054323 0.0075,0.038872 0.0072,0.095122 -6.31e-4,0.125 -0.0078,0.029878 -0.01394,-0.00193 -0.01359,-0.070677 z"
       id="path819"
       inkscape:connector-curvature="0" />
  </g>
</svg>
