<?xml version="1.0" encoding="UTF-8" standalone="no"?>
<!-- Created with Inkscape (http://www.inkscape.org/) -->

<svg
   xmlns:dc="http://purl.org/dc/elements/1.1/"
   xmlns:cc="http://creativecommons.org/ns#"
   xmlns:rdf="http://www.w3.org/1999/02/22-rdf-syntax-ns#"
   xmlns:svg="http://www.w3.org/2000/svg"
   xmlns="http://www.w3.org/2000/svg"
   xmlns:sodipodi="http://sodipodi.sourceforge.net/DTD/sodipodi-0.dtd"
   xmlns:inkscape="http://www.inkscape.org/namespaces/inkscape"
   version="1.1"
   id="svg2"
   width="16"
   height="16"
   viewBox="0 0 16 16"
   sodipodi:docname="APPLY_ROTSCALE.svg"
   inkscape:version="0.92.4 (5da689c313, 2019-01-14)">
  <metadata
     id="metadata8">
    <rdf:RDF>
      <cc:Work
         rdf:about="">
        <dc:format>image/svg+xml</dc:format>
        <dc:type
           rdf:resource="http://purl.org/dc/dcmitype/StillImage" />
        <dc:title></dc:title>
      </cc:Work>
    </rdf:RDF>
  </metadata>
  <defs
     id="defs6" />
  <sodipodi:namedview
     pagecolor="#ffffff"
     bordercolor="#666666"
     borderopacity="1"
     objecttolerance="10"
     gridtolerance="10"
     guidetolerance="10"
     inkscape:pageopacity="0"
     inkscape:pageshadow="2"
     inkscape:window-width="1073"
     inkscape:window-height="757"
     id="namedview4"
     showgrid="false"
     inkscape:zoom="14.75"
     inkscape:cx="8"
     inkscape:cy="8"
     inkscape:window-x="0"
     inkscape:window-y="0"
     inkscape:window-maximized="0"
     inkscape:current-layer="svg2" />
  <g
     id="APPLY_ROTSCALE">
    <path
       style="fill:#ffffff;stroke-width:0.03125"
       d="M 0,12.778032 V 9.5560634 L 0.2109375,9.7423872 C 0.32695313,9.844865 0.7875,10.248226 1.234375,10.638745 c 0.446875,0.390519 0.8163313,0.720397 0.8210139,0.733062 0.00468,0.01267 -0.1132059,0.133829 -0.2619746,0.269255 -0.1487688,0.135426 -0.2897094,0.29223 -0.3132015,0.348454 -0.031418,0.0752 -0.042713,0.272157 -0.042713,0.744859 0,0.688108 0.016148,0.779725 0.1609248,0.913006 0.1347622,0.124062 0.1972486,0.138443 1.8781377,0.432242 1.6509009,0.288558 1.9249062,0.33725 2.4885034,0.442217 0.7466004,0.13905 1.1963775,0.157363 1.3349941,0.05435 0.2119119,-0.157476 0.2146406,-0.168768 0.2249891,-0.930982 0.00882,-0.649963 0.00446,-0.714946 -0.068529,-1.021234 l -0.077953,-0.327103 0.7704743,-0.772492 0.7704747,-0.772491 0.1271413,0.241241 c 0.4183022,0.793699 0.9033647,1.364491 1.7341028,2.040584 0.996893,0.811319 2.176983,1.328691 3.661989,1.605479 0.351466,0.06551 0.83522,0.108432 1.23694,0.109751 L 16,14.75 V 15.375 16 H 8 0 Z M 15.84375,11.448239 C 15.151834,11.401044 14.39246,11.251258 13.938954,11.072518 13.684703,10.972311 13.16713,10.726104 13.0625,10.655593 13.019531,10.626637 12.878906,10.534275 12.75,10.450346 12.49799,10.286266 11.904204,9.7201316 11.769626,9.515625 11.724383,9.446875 11.652935,9.33927 11.610852,9.2765025 11.4953,9.1041591 11.316625,8.7423909 11.269156,8.5846609 l -0.04217,-0.1401315 0.988072,-0.9870075 0.988071,-0.9870075 0.217878,0.1911125 C 13.67138,6.881245 13.785641,6.9375 13.981337,6.9375 c 0.233254,0 0.407318,-0.097868 0.503815,-0.2832703 0.02294,-0.04408 0.268262,-1.0706425 0.545156,-2.28125 l 0.503443,-2.2011047 -0.0091,-0.6931095 c -0.01,-0.76115472 -0.01268,-0.77245916 -0.224628,-0.92995959 -0.138617,-0.103009 -0.588394,-0.0846963 -1.334994,0.0543543 C 13.401469,0.7081275 13.127463,0.75681928 11.476563,1.045377 9.7956734,1.3391762 9.7331869,1.3535571 9.5984247,1.4776188 9.4536484,1.6108996 9.4375,1.7025168 9.4375,2.390625 c 0,0.4739213 0.011257,0.6695747 0.04288,0.7452575 0.023584,0.056444 0.156309,0.2055456 0.294945,0.3313366 L 10.02739,3.6959306 9.7673094,3.9964028 C 9.1845697,4.6696434 8.7278556,5.5931037 8.5474191,6.4629806 8.5213388,6.5887134 8.5,6.7358372 8.5,6.7899216 8.5,6.8771594 8.3933903,6.9950781 7.5553725,7.8347537 7.0358275,8.3553266 6.6016872,8.78125 6.5906166,8.78125 6.5795456,8.78125 6.5618776,8.727403 6.5513536,8.6615906 6.5099616,8.4027384 6.3100597,8.2158391 6.0516731,8.1944116 5.8301922,8.1760447 5.6919831,8.2246681 5.5088938,8.3853669 5.4266584,8.4575453 5.3340809,8.5362491 5.3031662,8.5602641 5.2518459,8.6001306 5.1689553,8.5264403 4.3500412,7.7129291 3.8567372,7.2228797 3.4089438,6.7965816 3.3549444,6.7656003 L 3.2567641,6.70927 3.8393194,6.198795 C 4.159725,5.9180337 4.4289062,5.68832 4.4375,5.68832 c 0.00859,0 0.2826191,0.2339525 0.6089447,0.5198941 0.3263259,0.2859418 0.638765,0.5388821 0.6943087,0.56209 0.1211032,0.0506 0.3467216,0.054872 0.4681497,0.00886 0.1076863,-0.040801 0.2205432,-0.14291 0.2762485,-0.2499387 0.022942,-0.04408 0.2682625,-1.0706425 0.5451562,-2.28125 L 7.5337512,2.046875 7.5246881,1.3537655 C 7.5147353,0.59261078 7.5120047,0.58130634 7.30006,0.42380591 7.1614434,0.32079691 6.7116663,0.33910959 5.9650659,0.47816025 5.4014687,0.5831275 5.1274634,0.63181928 3.4765625,0.92037697 1.7956734,1.2141762 1.733187,1.2285571 1.5984248,1.3526188 1.4536483,1.4858996 1.4375,1.5775168 1.4375,2.265625 c 0,0.4727026 0.011294,0.6696639 0.042713,0.7448586 0.023492,0.056224 0.1644327,0.2130289 0.3132014,0.3484545 C 1.942183,3.4943637 2.0600716,3.6155284 2.0553889,3.6281934 2.0507063,3.6408581 1.68125,3.9707356 1.234375,4.3612547 0.7875,4.7517737 0.32695313,5.155135 0.2109375,5.2576128 L 0,5.4439366 V 2.7219683 0 h 8 8 v 5.734375 c 0,3.1539063 -0.0035,5.731918 -0.0078,5.728915 -0.0043,-0.003 -0.07109,-0.0098 -0.148438,-0.01505 z"
       id="path825"
       inkscape:connector-curvature="0" />
    <path
       style="fill:#cbfefe;stroke-width:0.03125"
       d="m 15.140625,13.215733 c -0.1375,-0.01186 -0.292188,-0.02954 -0.34375,-0.03929 -0.05156,-0.0098 -0.213281,-0.03845 -0.359375,-0.06377 -0.382875,-0.06636 -1.06797,-0.25061 -1.296875,-0.34878 -0.05156,-0.02211 -0.190124,-0.07639 -0.307915,-0.120609 -0.11779,-0.04422 -0.265447,-0.107258 -0.328125,-0.14008 C 12.441907,12.470373 12.299219,12.398053 12.1875,12.342483 11.473528,11.98735 10.355363,11.070951 10.052657,10.592859 10.02032,10.541787 9.9811809,10.5 9.9656812,10.5 c -0.0155,0 -0.028181,-0.01465 -0.028181,-0.03256 0,-0.01791 -0.024609,-0.05938 -0.054687,-0.09216 -0.030078,-0.03278 -0.092665,-0.127953 -0.1390809,-0.21149 l -0.084394,-0.151884 0.5718957,-0.5712679 0.571894,-0.5712682 0.136465,0.2762522 c 0.138434,0.2802372 0.303181,0.5489466 0.348193,0.5679185 0.01359,0.00573 0.02472,0.025611 0.02472,0.044182 0,0.034987 0.295098,0.3812644 0.514886,0.6041814 0.141052,0.143061 0.6005,0.522321 0.672614,0.555222 0.02578,0.01176 0.110156,0.06283 0.1875,0.113477 0.166075,0.108757 0.718807,0.394139 0.875,0.451773 0.441912,0.163061 0.578047,0.207129 0.8125,0.263007 0.353422,0.08423 0.550632,0.118592 0.90625,0.157894 0.316777,0.03501 0.615714,0.06347 0.679688,0.06471 C 15.990896,11.968573 16,12.118419 16,12.610908 v 0.642157 l -0.304687,-0.0079 c -0.167579,-0.0043 -0.417188,-0.01759 -0.554688,-0.02944 z M 6.6875,13.122903 c -0.1117187,-0.01382 -0.2945313,-0.04572 -0.40625,-0.07088 -0.1899137,-0.04277 -0.194805,-0.04595 -0.075205,-0.04889 0.160735,-0.0039 0.4598541,-0.105538 0.6170947,-0.209595 0.066052,-0.04371 0.1233178,-0.07491 0.1272572,-0.06932 0.013294,0.01885 0.080853,0.342664 0.080853,0.387537 0,0.04871 -0.031824,0.04974 -0.34375,0.01114 z M 4.78125,12.794886 C 4.4804687,12.737391 3.953125,12.641162 3.609375,12.581043 1.8858915,12.279623 1.9312334,12.289221 1.9435909,12.228435 1.9488347,12.202642 2.2625,11.909905 2.640625,11.577909 l 0.6875,-0.603628 0.875,0.869208 c 0.48125,0.478065 0.94455,0.912758 1.0295556,0.965985 0.085006,0.05323 0.1412557,0.09524 0.125,0.09336 -0.016256,-0.0019 -0.2756494,-0.05046 -0.5764306,-0.10795 z M 0.8671875,8.6375088 0,7.8729694 V 6.9992791 6.1255884 L 1.7214001,4.6190003 C 3.0738087,3.4353575 3.4334153,3.105388 3.3990181,3.0796436 3.1920081,2.9247073 1.9375,1.7957803 1.9375,1.7644291 1.9375,1.7113041 1.93916,1.7109621 3.6015625,1.4203814 5.1543172,1.1489673 5.5225978,1.0840862 6.078125,0.98407775 6.8623856,0.84289169 7.03125,0.82532103 7.03125,0.88490319 7.03125,0.91790875 6.2194359,4.5105912 6.0466641,5.2421875 6.0375316,5.2808594 6.0114131,5.3125 5.9886231,5.3125 5.9658334,5.3125 5.6132491,5.0207031 5.2051022,4.6640625 4.7969553,4.3074219 4.45134,4.015625 4.4370681,4.015625 c -0.036132,0 -3.4058181,2.9510259 -3.4058181,2.9826691 0,0.014126 0.054792,0.075184 0.1217592,0.1356853 0.079276,0.071622 0.1111047,0.1206565 0.091223,0.1405387 C 1.2274367,7.2913131 1.1796763,7.3987759 1.1380977,7.5133238 1.076511,7.6829931 1.0625,7.7812366 1.0625,8.0434044 c 0,0.5047809 0.103324,0.7453769 0.4946868,1.1519081 C 1.6688737,9.3113281 1.7544311,9.4053044 1.7473144,9.4041491 1.7401977,9.4029934 1.3441406,9.0580053 0.8671875,8.6375088 Z M 5.8173694,9.1767881 5.6207278,8.9783828 5.7824938,8.8329416 C 5.9626812,8.6709375 6.0223297,8.6539475 6.0462575,8.7578125 6.1628269,9.2638163 6.1603734,9.2285056 6.0842641,9.3047841 l -0.070253,0.070409 z M 9.1496603,6.203125 c 0.017422,-0.034375 0.033133,-0.076562 0.034913,-0.09375 0.00412,-0.039748 0.062048,-0.2306912 0.094812,-0.3125 0.1307925,-0.3265809 0.5665112,-1.1100888 0.63142,-1.1354166 0.014682,-0.00573 0.026695,-0.022113 0.026695,-0.036408 0,-0.029361 0.029915,-0.066767 0.3469417,-0.4338237 0.124411,-0.1440438 0.346136,-0.3620125 0.492721,-0.484375 0.354908,-0.2962585 0.566587,-0.4911175 0.566587,-0.521566 0,-0.013701 -0.316406,-0.3017618 -0.703125,-0.6401342 C 10.253906,2.2067793 9.9375,1.9117041 9.9375,1.8894291 c 0,-0.053125 0.00166,-0.053467 1.664063,-0.3440477 1.552754,-0.2714141 1.921035,-0.3362952 2.476562,-0.4363036 0.782818,-0.1409263 0.953125,-0.15870749 0.953125,-0.099512 0,0.035873 -0.60468,2.7195122 -0.633398,2.8110934 C 14.39375,3.83374 14.324336,3.7533572 14.243598,3.6420306 13.939693,3.2229841 13.553843,3.03125 13.014449,3.03125 c -0.336287,0 -0.560706,0.054422 -0.791046,0.1918309 -0.06271,0.037413 -0.787091,0.7372907 -1.609724,1.5552838 C 9.7910469,5.5963578 9.1322381,6.2375 9.1496603,6.203125 Z"
       id="path823"
       inkscape:connector-curvature="0" />
    <path
       style="fill:#00fe00;stroke-width:0.03125"
       d="M 5.6770431,12.453165 C 5.6111356,12.428154 5.4916044,12.358778 5.4114181,12.298997 5.3312319,12.239215 4.46993,11.391626 3.4974137,10.415464 2.1175963,9.0304747 1.71261,8.6063041 1.6536637,8.484375 1.5463649,8.26243 1.5447427,7.8333978 1.6503912,7.6189103 1.7426275,7.4316522 1.9316523,7.2426275 2.1189103,7.1503912 c 0.2146121,-0.10571 0.643595,-0.104035 0.8654647,0.00338 0.120447,0.058313 0.4840625,0.402021 1.5868781,1.5 0.7868456,0.783395 1.4360797,1.4290578 1.4427425,1.4348058 0.00666,0.0057 1.4530466,-1.4300995 3.214186,-3.1907714 C 11.707588,4.4190566 12.464571,3.67969 12.582314,3.6217294 12.799017,3.5150541 13.229645,3.51376 13.44359,3.6191419 c 0.187258,0.092236 0.376282,0.2812609 0.468519,0.468519 0.105409,0.2140019 0.104088,0.6445697 -0.0026,0.8613891 -0.11007,0.2236009 -7.2362913,7.350262 -7.4589075,7.459367 -0.1900588,0.09315 -0.5856631,0.116035 -0.7735153,0.04475 z"
       id="path821"
       inkscape:connector-curvature="0" />
    <path
       style="fill:#323232;stroke-width:0.03125"
       d="m 15,14.717554 c -0.677507,-0.06053 -1.668643,-0.308038 -2.345437,-0.58571 -0.728685,-0.298961 -1.31158,-0.640561 -1.873804,-1.098126 C 9.9500212,12.357624 9.4649587,11.786833 9.0466566,10.993133 l -0.1271413,-0.241241 -0.7704747,0.772491 -0.7704744,0.772492 0.077954,0.327103 c 0.072993,0.306288 0.077353,0.371271 0.068529,1.021234 C 7.5147006,14.407426 7.5119719,14.418718 7.30006,14.576194 7.1614434,14.679203 6.7116662,14.66089 5.9650659,14.52184 5.4014687,14.416873 5.1274634,14.368181 3.4765625,14.079623 1.7956734,13.785824 1.733187,13.771443 1.5984248,13.647381 1.4536483,13.5141 1.4375,13.422483 1.4375,12.734375 c 0,-0.472702 0.011294,-0.669664 0.042713,-0.744859 0.023492,-0.05622 0.1644327,-0.213028 0.3132014,-0.348454 0.1487688,-0.135426 0.2666574,-0.256596 0.2619747,-0.269267 -0.00468,-0.01267 -0.4690608,-0.425875 -1.0319514,-0.91823 L 0,9.5583741 V 8.7156906 7.8730075 L 0.8828125,8.6451447 C 1.3683594,9.06982 1.6730363,9.3198778 1.5598723,9.2008284 1.1639274,8.7842913 1.0625,8.5482619 1.0625,8.0434044 1.0625,7.7812366 1.076511,7.6829931 1.1380977,7.5133237 1.1796763,7.3987759 1.2274367,7.2913131 1.2442318,7.2745181 1.2641139,7.2546359 1.2322855,7.2056009 1.1530092,7.1339794 1.0860416,7.0734784 1.03125,7.0124197 1.03125,6.9982941 c 0,-0.031643 3.3696862,-2.9826691 3.4058181,-2.9826691 0.014272,0 0.3598872,0.2917969 0.7680341,0.6484375 C 5.6132491,5.0207031 5.9658334,5.3125 5.9886231,5.3125 c 0.02279,0 0.048909,-0.031641 0.058041,-0.070312 C 6.2194359,4.5105912 7.03125,0.91790875 7.03125,0.88490319 c 0,-0.0595822 -0.1688644,-0.0420115 -0.953125,0.0991746 C 5.5225978,1.0840862 5.1543172,1.1489673 3.6015625,1.4203814 1.9391569,1.710962 1.9375,1.7113045 1.9375,1.7644291 c 0,0.031351 1.2545081,1.1602782 1.4615181,1.3152145 0.034397,0.025744 -0.3252094,0.3557139 -1.677618,1.5393567 L 0,6.1255884 V 5.7836072 5.4416259 L 1.0234375,4.546435 C 1.5863281,4.05408 2.0507063,3.6408769 2.0553889,3.6282053 2.0600716,3.6155341 1.942183,3.4943638 1.7934143,3.3589381 1.6446455,3.2235125 1.5037049,3.0667081 1.4802128,3.0104836 1.4487945,2.9352889 1.4375,2.7383276 1.4375,2.265625 1.4375,1.5775168 1.4536483,1.4858996 1.5984248,1.3526188 1.733187,1.2285571 1.7956734,1.2141762 3.4765625,0.92037697 5.1274634,0.63181928 5.4014687,0.5831275 5.9650659,0.47816025 6.7116663,0.33910959 7.1614434,0.32079691 7.30006,0.42380591 7.5120047,0.58130634 7.5147353,0.59261078 7.5246881,1.3537655 L 7.5337512,2.046875 7.0303078,4.2479797 C 6.7534141,5.4585872 6.5080938,6.4851497 6.4851516,6.5292297 6.4294463,6.6362584 6.3165894,6.7383672 6.2089031,6.7791684 6.087475,6.8251762 5.8618566,6.8209041 5.7407534,6.7703041 5.6852097,6.7470962 5.3727706,6.4941559 5.0464447,6.2082141 4.7201191,5.9222725 4.4460937,5.68832 4.4375,5.68832 c -0.00859,0 -0.277775,0.2297137 -0.5981806,0.510475 L 3.2567641,6.70927 3.3549441,6.7656 C 3.4089431,6.796581 3.8567369,7.2228794 4.3500409,7.7129288 5.168955,8.52644 5.2518456,8.6001303 5.3031659,8.5602638 5.3340809,8.5362488 5.4266581,8.457545 5.5088935,8.3853666 5.6919828,8.2246678 5.8301919,8.1760444 6.0516728,8.1944113 c 0.2583866,0.021427 0.4582885,0.2083268 0.4996807,0.467179 0.010524,0.065812 0.028192,0.1196594 0.039263,0.1196594 0.011071,0 0.4452109,-0.4259234 0.9647559,-0.9464963 C 8.3933903,6.9950781 8.5,6.8771594 8.5,6.7899216 8.5,6.7358372 8.5213388,6.5887134 8.5474191,6.4629806 8.7278556,5.5931037 9.1845697,4.6696434 9.7673094,3.9964028 L 10.02739,3.6959306 9.7753247,3.4672191 C 9.6366887,3.3414281 9.5039634,3.1923266 9.4803797,3.1358825 9.4487572,3.0601998 9.4375,2.8645463 9.4375,2.390625 9.4375,1.7025168 9.4536484,1.6108996 9.5984247,1.4776188 9.7331869,1.3535571 9.7956734,1.3391762 11.476563,1.045377 c 1.6509,-0.28855772 1.924906,-0.3372495 2.488503,-0.44221675 0.7466,-0.13905066 1.196377,-0.15736334 1.334994,-0.0543543 0.211945,0.15750043 0.214675,0.16880487 0.224628,0.92995955 l 0.0091,0.6931095 -0.503443,2.2011047 c -0.276894,1.2106075 -0.522214,2.23717 -0.545156,2.28125 -0.0965,0.1854025 -0.270561,0.2832703 -0.503815,0.2832703 -0.195696,0 -0.309957,-0.056255 -0.560334,-0.2758731 l -0.217878,-0.1911125 -0.988071,0.9870075 -0.988072,0.9870075 0.04217,0.1401315 c 0.04747,0.15773 0.226144,0.5194982 0.341696,0.6918416 0.04208,0.062768 0.113531,0.1703725 0.158774,0.2391225 0.134578,0.2045066 0.728364,0.770641 0.980374,0.934721 0.128906,0.08393 0.269531,0.176291 0.3125,0.205247 0.10463,0.07051 0.622203,0.316718 0.876454,0.416925 0.456226,0.179812 1.27946,0.341178 1.904796,0.373368 l 0.140625,0.0072 0.0091,0.258762 0.0091,0.258761 -0.243466,-0.01919 c -0.255007,-0.0201 -0.904885,-0.09799 -1.02012,-0.12227 -0.0369,-0.0078 -0.193659,-0.04406 -0.348347,-0.08063 -0.248314,-0.0587 -0.384145,-0.102363 -0.828125,-0.266188 -0.156193,-0.05763 -0.708925,-0.343016 -0.875,-0.451773 -0.07734,-0.05065 -0.161719,-0.101715 -0.1875,-0.113477 -0.07211,-0.0329 -0.531562,-0.412161 -0.672614,-0.555222 C 11.607598,10.138988 11.3125,9.7927106 11.3125,9.7577234 c 0,-0.018571 -0.01112,-0.038453 -0.02472,-0.044182 -0.04501,-0.018972 -0.209759,-0.2876813 -0.348193,-0.5679185 l -0.136465,-0.2762522 -0.571894,0.5712682 -0.5718952,0.5712681 0.084394,0.151884 c 0.046416,0.08354 0.1090028,0.178707 0.1390809,0.21149 0.030078,0.03278 0.054687,0.07426 0.054687,0.09216 0,0.01791 0.012682,0.03256 0.028181,0.03256 0.0155,0 0.054639,0.04179 0.086976,0.09286 0.302706,0.478092 1.420871,1.394491 2.134843,1.749624 0.111719,0.05557 0.254407,0.12789 0.317085,0.160712 0.06268,0.03282 0.210335,0.09586 0.328125,0.14008 0.117791,0.04422 0.256352,0.0985 0.307915,0.120609 0.229091,0.09825 0.914319,0.282501 1.296875,0.348718 0.146094,0.02529 0.300781,0.05263 0.34375,0.06077 0.04297,0.0081 0.1625,0.02241 0.265625,0.03172 0.103125,0.0093 0.24375,0.02251 0.3125,0.02933 0.06875,0.0068 0.241016,0.01312 0.382813,0.01399 L 16,13.25 V 14 14.75 L 15.632813,14.7456 C 15.430859,14.743246 15.146094,14.730607 15,14.717554 Z M 7.03125,13.111759 c 0,-0.04487 -0.067559,-0.368692 -0.080853,-0.387537 -0.00394,-0.0056 -0.061205,0.02561 -0.1272572,0.06932 -0.1572406,0.104057 -0.4563597,0.205652 -0.6170947,0.209595 -0.1196003,0.0029 -0.114709,0.0061 0.075205,0.04889 0.1884306,0.04244 0.51452,0.09047 0.6796875,0.10012 0.041915,0.0024 0.070312,-0.01386 0.070312,-0.04038 z M 5.2326806,12.809474 C 5.147675,12.756247 4.684375,12.321554 4.203125,11.843489 l -0.875,-0.869208 -0.6875,0.603628 c -0.378125,0.331996 -0.6917903,0.624733 -0.6970341,0.650526 -0.012358,0.06079 -0.057699,0.05119 1.6657841,0.352608 0.34375,0.06012 0.8710937,0.156348 1.171875,0.213843 0.3007812,0.05749 0.560175,0.106072 0.5764306,0.10795 0.016256,0.0019 -0.039994,-0.04014 -0.125,-0.09336 z M 6.4505584,12.408417 C 6.6731747,12.299311 13.799396,5.1726503 13.909466,4.9490494 14.016197,4.73223 14.017518,4.3016622 13.91211,4.0876603 13.819873,3.9004022 13.630849,3.7113775 13.443591,3.6191412 13.229646,3.51376 12.799018,3.5150541 12.582315,3.6217287 12.464572,3.6796894 11.707589,4.4190559 9.2281825,6.8978044 7.4670431,8.6584763 6.0206594,10.094323 6.0139966,10.088575 6.0073338,10.082827 5.3580997,9.437165 4.5712541,8.65377 3.4684384,7.5557909 3.104823,7.2120825 2.9843759,7.15377 2.7625063,7.0463556 2.3335233,7.0446806 2.1189112,7.1503906 c -0.1872579,0.092236 -0.3762828,0.281261 -0.468519,0.4685191 -0.1056486,0.2144875 -0.1040264,0.6435197 0.00327,0.8654647 0.058946,0.121929 0.4639326,0.5460997 1.8437501,1.9310886 0.9725162,0.976162 1.8338181,1.823752 1.9140044,1.883533 0.2158109,0.160895 0.34765,0.200769 0.6354568,0.192192 0.1900716,-0.0057 0.28684,-0.02551 0.4036835,-0.08277 z M 6.1084863,9.03125 C 6.0831694,8.9195313 6.0551662,8.7964844 6.0462575,8.7578125 6.0223297,8.6539475 5.9626812,8.6709375 5.7824938,8.8329416 l -0.161766,0.1454412 0.1966416,0.1984053 0.1966418,0.1984053 0.070253,-0.070409 c 0.068784,-0.068937 0.06929,-0.074657 0.024222,-0.2735344 z M 12.223403,3.2230809 C 12.453743,3.0856723 12.678162,3.03125 13.014449,3.03125 c 0.539394,0 0.925244,0.1917341 1.229149,0.6107806 0.08074,0.1113266 0.150152,0.1917094 0.154254,0.1786281 0.02872,-0.091581 0.633398,-2.7752206 0.633398,-2.8110934 0,-0.059195 -0.170307,-0.0414138 -0.953125,0.099512 -0.555527,0.1000089 -0.923808,0.16489 -2.476562,0.4363041 C 9.9391569,1.835962 9.9375,1.8363045 9.9375,1.8894291 c 0,0.022275 0.316406,0.3173502 0.703125,0.6557226 0.386719,0.3383724 0.703125,0.6264327 0.703125,0.6401342 0,0.030449 -0.211679,0.2253075 -0.566587,0.521566 -0.146585,0.1223625 -0.36831,0.3403312 -0.492721,0.484375 C 9.9674153,4.5582834 9.9375,4.59569 9.9375,4.6250506 c 0,0.014295 -0.012013,0.030679 -0.026695,0.036408 C 9.845896,4.6867866 9.4101775,5.4702943 9.279385,5.7968752 9.246622,5.8786842 9.18869,6.0696268 9.184573,6.1093752 9.182793,6.1265632 9.167082,6.1687502 9.14966,6.2031252 9.1322381,6.2375 9.7910469,5.5963578 10.613679,4.7783647 11.436312,3.9603716 12.160688,3.2604938 12.223403,3.2230809 Z"
       id="path819"
       inkscape:connector-curvature="0" />
  </g>
</svg>
