<?xml version="1.0" encoding="UTF-8" standalone="no"?>
<!-- Created with Inkscape (http://www.inkscape.org/) -->

<svg
   width="16"
   height="16"
   viewBox="0 0 4.2333332 4.2333333"
   version="1.1"
   id="svg22457"
   inkscape:version="1.2-beta (1b65182ce9, 2022-04-05)"
   sodipodi:docname="ATTRIBUTE_REMOVE.svg"
   xmlns:inkscape="http://www.inkscape.org/namespaces/inkscape"
   xmlns:sodipodi="http://sodipodi.sourceforge.net/DTD/sodipodi-0.dtd"
   xmlns="http://www.w3.org/2000/svg"
   xmlns:svg="http://www.w3.org/2000/svg">
  <sodipodi:namedview
     id="namedview22459"
     pagecolor="#878787"
     bordercolor="#171717"
     borderopacity="1"
     inkscape:pageshadow="0"
     inkscape:pageopacity="0"
     inkscape:pagecheckerboard="1"
     inkscape:deskcolor="#494949"
     inkscape:document-units="mm"
     showgrid="false"
     inkscape:zoom="36.443399"
     inkscape:cx="6.0504785"
     inkscape:cy="7.9026658"
     inkscape:window-width="2560"
     inkscape:window-height="1027"
     inkscape:window-x="1912"
     inkscape:window-y="22"
     inkscape:window-maximized="1"
     inkscape:current-layer="ATTRIBUTE_CURVEMAP" />
  <defs
     id="defs22454" />
  <g
     inkscape:label="Layer 1"
     inkscape:groupmode="layer"
     id="layer1">
    <g
       id="ATTRIBUTE_CURVEMAP"
       transform="scale(0.26458333)"
       style="display:inline;enable-background:new"
       inkscape:label="ATTRIBUTE_REMOVE">
      <path
         inkscape:connector-curvature="0"
         id="path823-4611"
         d="M 0,8 V 0 h 8 8 v 8 8 H 8 0 Z m 3.3397331,6.407012 c 0.4097453,-0.07771 0.323856,-0.0027 2.5824519,-2.255436 l 2.09406,-2.088633 2.06219,2.063477 c 2.272652,2.274071 2.205016,2.216106 2.66982,2.288051 0.473817,0.07334 0.895932,-0.05891 1.238759,-0.388112 0.355409,-0.341281 0.503791,-0.784945 0.427457,-1.278104 -0.07195,-0.464804 -0.01398,-0.397168 -2.288053,-2.669822 L 10.062939,8.0162413 12.167202,5.9065581 C 14.489059,3.57872 14.378194,3.7088822 14.447953,3.2288141 14.515506,2.7639232 14.383313,2.3521722 14.057609,2.0129856 13.718311,1.6596416 13.286466,1.5132862 12.792952,1.584384 12.317592,1.652867 12.395538,1.586304 10.094058,3.8892069 L 8.0162406,5.9683106 5.9065578,3.8640481 C 3.5856909,1.5491442 3.7114341,1.6566822 3.2402241,1.5837458 2.7593913,1.5093198 2.3115453,1.6610929 1.9736406,2.0129856 1.6479369,2.3521722 1.5157437,2.7639232 1.5832972,3.2288141 1.6530562,3.7088822 1.5421913,3.57872 3.8640484,5.9065581 l 2.1042628,2.1096832 -2.063479,2.0621917 c -2.2856558,2.28423 -2.2207506,2.208152 -2.2891982,2.683269 -0.068525,0.475653 0.061044,0.883513 0.3892566,1.225312 0.3569771,0.371755 0.8203852,0.517563 1.3348425,0.419998 z"
         style="display:inline;enable-background:new;fill:#ffffff;fill-opacity:0;stroke-width:0.03125"
         transform="translate(-0.2000445)" />
      <path
         inkscape:connector-curvature="0"
         id="path821-742"
         d="M 2.8483364,13.904806 C 2.4203534,13.817823 2.1149835,13.432753 2.1147155,12.979713 2.1144749,12.572677 2.0304718,12.670589 4.4832978,10.218938 L 6.6872909,8.0160003 4.4542741,5.7814378 C 1.9795047,3.3049553 2.0835977,3.4263981 2.0835977,3.015625 c 0,-0.373893 0.1935458,-0.6825731 0.5317228,-0.8480277 0.1391699,-0.06809 0.2160085,-0.084264 0.4003045,-0.084264 0.4127428,0 0.3086869,-0.089212 2.7810625,2.3843395 L 8.0152503,6.6872903 10.249813,4.4542738 c 2.479836,-2.4781208 2.354145,-2.370562 2.770475,-2.3708083 0.526859,-3.125e-4 0.927365,0.402264 0.927365,0.9321595 0,0.4107731 0.104092,0.2893303 -2.370677,2.7658128 L 9.3439591,8.0160003 11.547952,10.218938 c 2.452826,2.451651 2.368823,2.353739 2.368582,2.760775 -2.18e-4,0.378962 -0.191991,0.68641 -0.531854,0.85269 -0.13917,0.06809 -0.216009,0.08426 -0.400305,0.08426 -0.412585,0 -0.310216,0.08768 -2.765436,-2.368714 L 8.0160022,9.3439613 5.7970637,11.561351 C 4.0484234,13.30877 3.54832,13.7916 3.4375,13.839415 c -0.1748672,0.07545 -0.4108225,0.101637 -0.5891636,0.06539 z"
         style="display:inline;enable-background:new;fill:#fe0000;stroke-width:0.03125"
         transform="translate(-0.2000445)" />
      <path
         inkscape:connector-curvature="0"
         id="path819-502"
         d="m 2.71875,14.403189 c -0.3772372,-0.07367 -0.8224598,-0.431364 -0.9885854,-0.794231 -0.1783464,-0.389559 -0.1723123,-0.896596 0.01517,-1.274691 0.084206,-0.169819 0.3498749,-0.44734 2.159498,-2.255834 L 5.9683112,8.0162413 3.8640484,5.9065581 C 1.5421913,3.57872 1.6530562,3.7088822 1.5832972,3.2288141 1.5157437,2.7639232 1.6479369,2.3521722 1.9736406,2.0129856 2.3115453,1.6610929 2.7593913,1.5093198 3.2402241,1.5837458 c 0.47121,0.072936 0.3454668,-0.034602 2.6663337,2.2803023 L 8.0162406,5.9683106 10.094058,3.8892069 c 2.30148,-2.3029052 2.223534,-2.2363404 2.698894,-2.3048229 0.493514,-0.071098 0.925359,0.075258 1.264657,0.4286016 0.325704,0.3391866 0.457897,0.7509376 0.390344,1.2158285 -0.06976,0.4800681 0.04111,0.3499059 -2.280751,2.677744 l -2.104263,2.1096832 2.063479,2.0621917 c 2.274073,2.272654 2.216108,2.205018 2.288053,2.669822 0.07633,0.493159 -0.07205,0.936823 -0.427457,1.278104 -0.342827,0.329201 -0.764942,0.461452 -1.238759,0.388112 -0.464804,-0.07195 -0.397168,-0.01398 -2.66982,-2.288051 l -2.06219,-2.063477 -2.09406,2.088633 C 4.0958738,13.973154 3.8071797,14.248923 3.6643109,14.308366 3.3668934,14.432111 3.0365012,14.465244 2.71875,14.403189 Z M 3.4375,13.839415 C 3.54832,13.7916 4.0484234,13.30877 5.7970637,11.561351 L 8.0160022,9.3439613 10.218939,11.547953 c 2.45522,2.456397 2.352851,2.368714 2.765436,2.368714 0.184296,0 0.261135,-0.01618 0.400305,-0.08427 0.339863,-0.166279 0.53163,-0.473727 0.531854,-0.85269 2.5e-4,-0.407035 0.08424,-0.309123 -2.368582,-2.760774 L 9.3439591,8.0160003 11.576976,5.7814378 c 2.474769,-2.4764825 2.370677,-2.3550397 2.370677,-2.7658128 0,-0.373893 -0.193546,-0.6825731 -0.531723,-0.8480277 -0.138307,-0.067667 -0.216235,-0.084238 -0.395642,-0.084132 -0.41633,2.469e-4 -0.290639,-0.1073125 -2.770475,2.3708082 L 8.0152503,6.6872903 5.7966875,4.4676728 C 3.3243119,1.9941212 3.4283678,2.0833333 3.015625,2.0833333 c -0.184296,0 -0.2611346,0.016174 -0.4003045,0.084264 -0.338177,0.1654546 -0.5317228,0.4741347 -0.5317228,0.8480277 0,0.4107731 -0.104093,0.2893303 2.3706764,2.7658128 L 6.6872909,8.0160003 4.4832978,10.218938 c -2.452826,2.451651 -2.3688231,2.353739 -2.3685823,2.760775 4.102e-4,0.693556 0.6816682,1.136319 1.3227845,0.859702 z"
         style="display:inline;enable-background:new;fill:#650000;stroke-width:0.03125"
         transform="translate(-0.2000445)" />
      <path
         inkscape:connector-curvature="0"
         id="path825-9266"
         d="M 0,8 V 0 h 8 8 v 8 8 H 8 0 Z m 15.269226,7.419944 c 0.04746,-0.03544 0.115281,-0.10325 0.150718,-0.150695 0.06359,-0.08514 0.06464,-0.120868 0.08007,-2.732444 0.01155,-1.953174 0.0062,-2.6707322 -0.02031,-2.73993 -0.04604,-0.1200328 -2.152243,-2.2200869 -2.270801,-2.2641669 -0.138718,-0.051576 -1.281943,-0.042592 -1.405219,0.011043 -0.129099,0.056168 -2.227469,2.1615791 -2.2709759,2.2785963 -0.045901,0.1234553 -0.045306,5.2340866 6.25e-4,5.3553066 0.044306,0.116936 0.1484853,0.227031 0.2635435,0.27851 0.076451,0.03421 0.5820404,0.04068 2.7399074,0.03508 2.618475,-0.0068 2.647059,-0.0075 2.732444,-0.0713 z M 4.421875,14.953145 c 0.3612641,-0.07559 0.7097866,-0.268519 0.9884319,-0.547164 l 0.2405472,-0.240547 0.213584,-0.02188 c 0.8589522,-0.088 2.0577016,-0.389358 2.9064941,-0.730667 l 0.2134428,-0.08583 0.00813,-1.429154 c 0.00447,-0.786034 0.00239,-1.429153 -0.00462,-1.429153 -0.00701,0 -0.1024035,0.05447 -0.2119841,0.121041 -0.7870897,0.478174 -1.7726547,0.818638 -2.90412,1.003231 L 5.4928178,11.654848 5.3167213,11.497332 C 5.0988884,11.302484 4.7114522,11.107444 4.421875,11.046855 c -1.4200521,-0.297121 -2.6721408,0.954968 -2.3750202,2.37502 0.1186901,0.567266 0.5304395,1.099766 1.047953,1.355279 0.43249,0.213534 0.8702025,0.271582 1.3270672,0.175991 z m 7.16013,-7.8619175 c 0.14892,-0.073891 0.170059,-0.075602 0.93362,-0.075602 0.747556,0 0.787212,0.00302 0.919486,0.070097 0.07603,0.038553 0.1448,0.063533 0.152822,0.055511 0.02542,-0.025415 -0.05387,-0.8192841 -0.105401,-1.055316 C 13.350007,5.4788625 13.091928,4.8636625 12.759214,4.3616956 12.511806,3.9884297 11.891553,3.3382925 11.506094,3.0482016 10.857887,2.5603688 9.9560797,2.1605249 9.0351697,1.9526418 L 8.6860319,1.8738286 8.4289534,1.6140468 C 8.2244634,1.4074064 8.1175384,1.3275042 7.90625,1.2234447 7.1042741,0.82847138 6.2134347,0.97027759 5.5918559,1.5918561 c -0.787539,0.7875392 -0.787539,2.0287486 0,2.816288 0.7273122,0.7273118 1.8747778,0.7881684 2.66867,0.141534 l 0.18168,-0.1479803 0.2827919,0.081118 C 9.4808081,4.699618 10.12199,5.0889346 10.487871,5.553208 c 0.394177,0.5001791 0.578762,1.0239447 0.579133,1.643301 l 1.87e-4,0.3058843 0.181225,-0.1677818 c 0.09967,-0.09228 0.24979,-0.2018029 0.333594,-0.2433841 z"
         style="fill:#ffffff;fill-opacity:0;stroke-width:0.03125" />
      <path
         inkscape:connector-curvature="0"
         id="path823-0280"
         d="M 11,12.5 V 11 H 12.5 14 V 12.5 14 H 12.5 11 Z"
         style="fill:#fefefe;stroke-width:0.03125"
         sodipodi:nodetypes="ccccccccc" />
      <path
         inkscape:connector-curvature="0"
         id="path821-8148"
         d="M 10,12.507632 V 10.015264 L 11.00799,9.0076322 12.01598,8 h 0.499645 0.499645 l 1.000178,0.9998163 1.000177,0.9998159 -0.0082,2.5001838 L 14.999263,15 H 12.499632 10 Z M 14,12.5 V 11 H 12.5 11 v 1.5 1.5 h 1.5 1.5 z m -1,-3 V 9 H 12.5 12 V 9.5 10 h 0.5 0.5 z"
         style="fill:#cbcbcb;stroke-width:0.03125" />
      <path
         inkscape:connector-curvature="0"
         id="path819-8839"
         d="M 9.796875,15.456163 C 9.6818169,15.404685 9.5776375,15.294589 9.5333316,15.177653 9.4874022,15.056433 9.4868072,9.9458022 9.5327066,9.8223469 9.5762134,9.7053297 11.674584,7.5999184 11.803682,7.5437506 c 0.123276,-0.053634 1.266501,-0.062618 1.40522,-0.011043 0.118558,0.04408 2.224765,2.1441341 2.270801,2.2641669 0.02654,0.069198 0.03186,0.7867565 0.02031,2.7399305 -0.01544,2.611576 -0.01649,2.647308 -0.08007,2.732444 -0.03544,0.04744 -0.10326,0.115258 -0.150718,0.150695 -0.08539,0.06376 -0.113969,0.0645 -2.732444,0.0713 -2.157868,0.0056 -2.6634569,-8.72e-4 -2.7399076,-0.03508 z m 5.210569,-2.956347 0.0082,-2.5001838 L 14.015448,8.9998163 13.01527,8 H 12.515625 12.01598 L 11.00799,9.0076322 10,10.015264 V 12.507632 15 h 2.499632 2.499631 z M 12,9.5 V 9 H 12.5 13 V 9.5 10 H 12.5 12 Z"
         style="fill:#323232;stroke-width:0.03125"
         sodipodi:nodetypes="ssssssscsssscccccccccccccccccccccc" />
    </g>
  </g>
</svg>
