<?xml version="1.0" encoding="UTF-8" standalone="no"?>
<!-- Created with Inkscape (http://www.inkscape.org/) -->

<svg
   xmlns:dc="http://purl.org/dc/elements/1.1/"
   xmlns:cc="http://creativecommons.org/ns#"
   xmlns:rdf="http://www.w3.org/1999/02/22-rdf-syntax-ns#"
   xmlns:svg="http://www.w3.org/2000/svg"
   xmlns="http://www.w3.org/2000/svg"
   xmlns:sodipodi="http://sodipodi.sourceforge.net/DTD/sodipodi-0.dtd"
   xmlns:inkscape="http://www.inkscape.org/namespaces/inkscape"
   version="1.1"
   id="svg2"
   width="16"
   height="16"
   viewBox="0 0 16 16"
   sodipodi:docname="HANDLE_AUTOCLAMPED.svg"
   inkscape:version="0.92.4 (5da689c313, 2019-01-14)">
  <metadata
     id="metadata8">
    <rdf:RDF>
      <cc:Work
         rdf:about="">
        <dc:format>image/svg+xml</dc:format>
        <dc:type
           rdf:resource="http://purl.org/dc/dcmitype/StillImage" />
        <dc:title />
      </cc:Work>
    </rdf:RDF>
  </metadata>
  <defs
     id="defs6" />
  <sodipodi:namedview
     pagecolor="#ffffff"
     bordercolor="#666666"
     borderopacity="1"
     objecttolerance="10"
     gridtolerance="10"
     guidetolerance="10"
     inkscape:pageopacity="0"
     inkscape:pageshadow="2"
     inkscape:window-width="1013"
     inkscape:window-height="720"
     id="namedview4"
     showgrid="false"
     inkscape:zoom="14.75"
     inkscape:cx="-6.8135593"
     inkscape:cy="8"
     inkscape:window-x="0"
     inkscape:window-y="0"
     inkscape:window-maximized="0"
     inkscape:current-layer="svg2" />
  <g
     id="HANDLE_AUTOCLAMPED">
    <path
       style="fill:#ffffff;stroke-width:0.03125"
       d="M 0,8 V 0 h 8 8 v 8 8 H 8 0 Z m 8.3911284,7.8157 C 8.5930122,15.72666 8.7903241,15.531517 8.8809966,15.331213 L 8.953125,15.171875 8.9616372,12.585938 8.9701491,10 H 9.4850747 10 V 8 6 H 9.4850669 8.9701337 L 8.9616294,3.3828125 8.953125,0.765625 8.8813175,0.609375 C 8.7872184,0.40462031 8.591925,0.20853556 8.3937131,0.11979573 c -0.224059,-0.10031178 -0.5946172,-0.10031178 -0.8186762,0 C 7.376825,0.20853556 7.1815316,0.40462031 7.0874325,0.609375 L 7.015625,0.765625 7.0071206,3.3828125 6.9986162,6 H 6.4993081 6 v 2 2 h 0.4993003 0.4993006 l 0.00851,2.585938 0.00851,2.585937 0.071855,0.15625 c 0.1729,0.375976 0.5275703,0.588938 0.9442737,0.566991 0.120375,-0.0063 0.2673057,-0.03881 0.359375,-0.07942 z M 14.617617,9.8663287 c 0.573285,-0.1998093 1.041898,-0.6746953 1.228764,-1.2452128 0.108592,-0.3315418 0.108592,-0.87944 0,-1.2109818 C 15.657258,6.8327256 15.16673,6.3425959 14.588362,6.1531356 14.258391,6.045045 13.709701,6.0452644 13.378884,6.15362 c -0.577408,0.1891228 -1.067538,0.6796506 -1.256998,1.2580187 -0.107854,0.3292463 -0.107854,0.8787275 0,1.2079738 0.21152,0.6457125 0.763697,1.1513091 1.424989,1.3047819 0.289525,0.067193 0.789083,0.040103 1.070742,-0.058066 z m -12.0000003,-0.0625 c 0.5732855,-0.1998093 1.041898,-0.6746953 1.2287639,-1.2452128 0.1085925,-0.3315418 0.1085925,-0.87944 0,-1.2109818 C 3.6572578,6.7702256 3.16673,6.2800959 2.5883617,6.0906356 2.2583912,5.982545 1.709701,5.9827644 1.3788842,6.09112 0.80147566,6.2802428 0.31134579,6.7707706 0.12188575,7.3491387 c -0.10785345,0.3292463 -0.10785345,0.8787275 0,1.2079738 0.21152047,0.6457125 0.76369684,1.1513091 1.42498925,1.3047819 0.2895254,0.067193 0.7890833,0.040103 1.0707417,-0.058066 z"
       id="path827"
       inkscape:connector-curvature="0" />
    <path
       style="fill:#fefefe;stroke-width:0.03125"
       d="M 7.828125,15.359645 C 7.6768616,15.305692 7.5753459,15.19513 7.5333147,15.038564 7.5136278,14.96523 7.5020362,14.007526 7.5021169,12.460938 L 7.5022419,10 h 0.4827484 0.4827488 l -0.00731,2.523438 c -0.00717,2.474985 -0.00853,2.525516 -0.070914,2.631706 -0.1144518,0.194819 -0.3489996,0.280258 -0.5613943,0.204501 z M 7.5084903,3.4453125 c 0.007,-2.50658228 0.00833,-2.55672622 0.07074,-2.66295672 0.1795407,-0.3056124 0.6307482,-0.3056124 0.8102888,0 0.062408,0.1062305 0.06374,0.15637444 0.07074,2.66295672 L 8.4673947,6 H 7.984375 7.5013553 Z"
       id="path825"
       inkscape:connector-curvature="0" />
    <path
       style="fill:#fea900;stroke-width:0.03125"
       d="M 13.65625,9.4344391 C 13.279013,9.3607669 12.83379,9.0030747 12.667665,8.6402084 12.495988,8.2652178 12.495554,7.76698 12.666577,7.3934134 c 0.112228,-0.2451387 0.418115,-0.5571543 0.665704,-0.6790415 0.394424,-0.1941744 0.91068,-0.1937219 1.306511,0.00114 0.245189,0.120706 0.55167,0.433895 0.663378,0.6778966 0.171024,0.3735665 0.17059,0.8718044 -0.0011,1.246795 -0.110045,0.2403716 -0.418541,0.5556887 -0.658476,0.6730375 -0.298996,0.1462347 -0.642204,0.1884044 -0.986359,0.1211931 z m -12,-0.0625 C 1.2790128,9.2982669 0.83379022,8.9405747 0.66766456,8.5777084 0.49598825,8.2027178 0.49555431,7.70448 0.66657862,7.3309134 0.77880684,7.0857747 1.0846935,6.7737591 1.332282,6.6518719 1.7267061,6.4576975 2.2429628,6.45815 2.6387938,6.6530156 2.8839823,6.7737216 3.1904637,7.0869106 3.3021712,7.3309122 3.4731955,7.7044787 3.4727618,8.2027166 3.3010868,8.5777072 3.1910412,8.8180788 2.8825459,9.1333959 2.6426108,9.2507447 2.3436147,9.3969794 2.0004063,9.4391491 1.6562515,9.3719378 Z M 7,8 V 7 H 8 9 V 8 9 H 8 7 Z"
       id="path823"
       inkscape:connector-curvature="0" />
    <path
       style="fill:#0000fe;stroke-width:0.03125"
       d="M 6,8 V 6 h 2 2 v 2 2 H 8 6 Z M 9,8 V 7 H 8 7 v 1 1 h 1 1 z"
       id="path821"
       inkscape:connector-curvature="0" />
    <path
       style="fill:#191919;stroke-width:0.03125"
       d="M 7.703125,15.864423 C 7.4100825,15.767324 7.2088344,15.592014 7.0874797,15.328125 L 7.015625,15.171875 7.0071128,12.585938 6.9986009,10 H 7.2493003 7.5 l 5.469e-4,0.320313 c 0.00752,4.397136 0.012823,4.722725 0.078683,4.834831 0.08324,0.14169 0.2390934,0.230273 0.4051444,0.230273 0.1660509,0 0.3219046,-0.08858 0.4051443,-0.230273 0.06586,-0.112106 0.071158,-0.437695 0.078682,-4.834831 L 8.46875,10 h 0.2506997 0.2506994 l -0.00851,2.585938 -0.00851,2.585937 -0.072128,0.159338 C 8.7903281,15.531517 8.5930167,15.726662 8.3911329,15.8157 8.2015242,15.89933 7.8776804,15.922259 7.7031295,15.86442 Z m 5.84375,-5.9400292 C 12.885583,9.7709209 12.333406,9.2653244 12.121886,8.6196119 c -0.107854,-0.3292463 -0.107854,-0.8787275 0,-1.2079738 0.18946,-0.5783681 0.67959,-1.0688959 1.256998,-1.2580187 0.330817,-0.108355 0.879507,-0.1085744 1.209478,-4.844e-4 0.578368,0.1894603 1.068896,0.67959 1.258019,1.2569984 0.108592,0.3315419 0.108592,0.87944 0,1.2109819 -0.186866,0.5705175 -0.655479,1.0454035 -1.228764,1.2452128 -0.281659,0.098168 -0.781217,0.1252582 -1.070742,0.058066 z M 14.284797,9.437335 C 14.68784,9.362115 15.129001,9.0160903 15.301085,8.6402084 15.472762,8.2652178 15.473196,7.76698 15.302173,7.3934134 15.190465,7.1494119 14.883984,6.8362228 14.638796,6.7155169 14.242964,6.52065 13.726708,6.5201975 13.332284,6.7143731 13.084695,6.8362603 12.778808,7.1482759 12.66658,7.3934147 c -0.112518,0.2457734 -0.156217,0.5745987 -0.11325,0.8521897 0.04785,0.3091303 0.162392,0.5366075 0.389062,0.7726612 0.358825,0.3736788 0.817834,0.5169716 1.342407,0.4190707 z M 1.546875,9.8618938 C 0.88558259,9.7084209 0.33340622,9.2028244 0.12188575,8.5571119 0.0140323,8.2278656 0.0140323,7.6783844 0.12188575,7.3491381 0.31134579,6.77077 0.80147566,6.2802422 1.3788842,6.0911194 1.709701,5.9827644 2.2583912,5.982545 2.5883617,6.090635 3.16673,6.2800953 3.6572578,6.770225 3.8463806,7.3476334 c 0.1085925,0.3315419 0.1085925,0.87944 0,1.2109819 C 3.6595147,9.1291328 3.1909022,9.6040188 2.6176167,9.8038281 2.3359583,9.9019959 1.8364004,9.9290863 1.546875,9.8618931 Z M 2.2847972,9.374835 C 2.6878403,9.299615 3.1290009,8.9535903 3.3010853,8.5777084 3.4727619,8.2027178 3.4731956,7.70448 3.3021697,7.3309134 3.1904622,7.0869119 2.8839808,6.7737228 2.6387923,6.6530169 2.2429614,6.45815 1.7267046,6.4576975 1.3322805,6.6518731 1.0846921,6.7737603 0.77880538,7.0857759 0.66657716,7.3309147 0.55405837,7.5766881 0.51035969,7.9055134 0.55332681,8.1831044 0.60117572,8.4922347 0.71571853,8.7197119 0.942389,8.9557656 1.3012138,9.3294444 1.7602228,9.4727372 2.2847956,9.3748363 Z M 7.0071206,3.3828125 7.015625,0.765625 7.0877534,0.60628684 c 0.090057,-0.1989444 0.2864297,-0.39402158 0.4903716,-0.48713692 0.2201384,-0.10051026 0.5923616,-0.10051026 0.8125,0 0.2039419,0.0931153 0.4003144,0.28819252 0.4903716,0.48713692 L 8.953125,0.765625 8.9616294,3.3828125 8.9701337,6 H 8.7194419 8.46875 L 8.4682719,5.8515625 c -2.5e-4,-0.081641 -0.00378,-1.23125 -0.00781,-2.5546875 -0.00718,-2.35707934 -0.00863,-2.40846244 -0.07094,-2.51451922 -0.1795407,-0.3056124 -0.6307482,-0.3056124 -0.8102888,0 -0.062306,0.10605678 -0.063756,0.15743988 -0.07094,2.51451922 -0.00403,1.3234375 -0.00755,2.4730469 -0.00781,2.5546875 L 7.5,6 H 7.2493081 6.9986162 Z"
       id="path819"
       inkscape:connector-curvature="0" />
  </g>
</svg>
