<?xml version="1.0" encoding="UTF-8" standalone="no"?>
<!-- Created with Inkscape (http://www.inkscape.org/) -->

<svg
   xmlns:dc="http://purl.org/dc/elements/1.1/"
   xmlns:cc="http://creativecommons.org/ns#"
   xmlns:rdf="http://www.w3.org/1999/02/22-rdf-syntax-ns#"
   xmlns:svg="http://www.w3.org/2000/svg"
   xmlns="http://www.w3.org/2000/svg"
   xmlns:sodipodi="http://sodipodi.sourceforge.net/DTD/sodipodi-0.dtd"
   xmlns:inkscape="http://www.inkscape.org/namespaces/inkscape"
   version="1.1"
   id="svg2"
   width="16"
   height="16"
   viewBox="0 0 16 16"
   sodipodi:docname="MIRROR_TIME.svg"
   inkscape:version="0.92.4 (5da689c313, 2019-01-14)">
  <metadata
     id="metadata8">
    <rdf:RDF>
      <cc:Work
         rdf:about="">
        <dc:format>image/svg+xml</dc:format>
        <dc:type
           rdf:resource="http://purl.org/dc/dcmitype/StillImage" />
        <dc:title></dc:title>
      </cc:Work>
    </rdf:RDF>
  </metadata>
  <defs
     id="defs6" />
  <sodipodi:namedview
     pagecolor="#ffffff"
     bordercolor="#666666"
     borderopacity="1"
     objecttolerance="10"
     gridtolerance="10"
     guidetolerance="10"
     inkscape:pageopacity="0"
     inkscape:pageshadow="2"
     inkscape:window-width="1197"
     inkscape:window-height="747"
     id="namedview4"
     showgrid="false"
     inkscape:zoom="14.75"
     inkscape:cx="8"
     inkscape:cy="8"
     inkscape:window-x="0"
     inkscape:window-y="0"
     inkscape:window-maximized="0"
     inkscape:current-layer="svg2" />
  <g
     id="MIRROR_TIME">
    <path
       style="fill:#ffffff;stroke-width:0.03125"
       d="M 0.00396265,11.554688 C 0.00621969,9.0227369 0.01913095,7.1968047 0.03395937,7.3125 c 0.2797166,2.1824272 1.66159653,4.101091 3.63791563,5.051044 0.7041566,0.338465 1.2958147,0.507066 2.1796875,0.62113 L 6,13.00383 v 1.075118 c 0,0.910017 0.00779,1.09808 0.050759,1.224647 0.1051859,0.309866 0.3294278,0.536702 0.6369093,0.64428 0.1293682,0.04526 -0.1290687,0.04926 -3.2736059,0.05063 L 0,16 Z M 9.3123316,15.947875 C 9.6198131,15.840297 9.844055,15.613461 9.9492409,15.303595 9.9934356,15.173404 10,14.950492 10,13.579964 v -1.574101 l 0.161886,-0.116304 c 0.144125,-0.103543 0.168982,-0.111787 0.226563,-0.07513 0.152452,0.09704 0.313347,0.158964 0.457338,0.176018 L 11,12.008706 V 14.004353 16 L 10.085938,15.9985 C 9.2149994,15.9971 9.1785016,15.9947 9.3123316,15.94787 Z M 12.984674,5.8515625 C 12.87061,4.9676897 12.702009,4.3760316 12.363544,3.671875 12.050466,3.0205349 11.691535,2.5083034 11.173077,1.9729528 10.615986,1.3977121 10.077915,1.0067907 9.359375,0.65525709 8.7033059,0.33428625 8.0072206,0.12300007 7.3125,0.03395937 7.1968047,0.01913095 9.0227369,0.00621969 11.554688,0.00396265 L 16,0 V 3 6 H 14.501915 13.00383 Z M 0.00396265,2.9453125 0,0 2.9453125,0.00396265 C 4.6770453,0.00629255 5.80693,0.01865232 5.6875,0.03395937 5.0256081,0.1187925 4.3142306,0.32958884 3.703125,0.62197206 3.0231863,0.94728844 2.5178404,1.2992287 1.9729528,1.8269235 1.3977121,2.3840137 1.0067907,2.9220853 0.65525709,3.640625 0.33428625,4.2966941 0.12300007,4.9927794 0.03395937,5.6875 0.01865232,5.80693 0.00629255,4.6770453 0.00396265,2.9453125 Z"
       id="path829"
       inkscape:connector-curvature="0" />
    <path
       style="fill:#fefefe;stroke-width:0.03125"
       d="M 6.6876684,15.948578 C 6.378935,15.839017 6.1558106,15.613064 6.0507591,15.303595 c -0.04423,-0.130296 -0.050777,-0.355388 -0.050901,-1.75 l -1.422e-4,-1.60047 -0.4139203,-0.0679 C 3.3409381,11.516946 1.5514135,9.7503584 1.1176854,7.4743791 c -0.099717,-0.5232638 -0.099717,-1.4254944 0,-1.9487582 0.4290743,-2.2515587 2.1563768,-3.9788612 4.4079355,-4.4079355 0.5232638,-0.099717 1.4254944,-0.099717 1.9487582,0 1.9910612,0.3794319 3.6064979,1.7946489 4.2280489,3.7040187 0.102148,0.3137918 0.235072,0.9389872 0.235072,1.1056362 V 6 H 11.46875 11 V 7.4920044 8.9840088 L 10.007632,7.9920044 9.0152644,7 H 8.0076322 7 v 4 4 H 8 9 V 12.007996 9.0159912 l 1,0.9996338 1,0.999634 v 0.496723 0.496724 l -0.152518,-0.01806 c -0.221728,-0.02626 -0.424765,-0.133627 -0.648522,-0.34294 l -0.197097,-0.184375 -0.00874,1.901149 -0.00874,1.901149 -0.077379,0.15625 C 9.80834,15.621088 9.6210881,15.80834 9.421875,15.906996 l -0.15625,0.07738 -1.21875,0.007 c -1.0483609,0.006 -1.2383869,6.2e-5 -1.3592066,-0.04282 z M 5,6.5 V 6 H 3.5 2 V 6.5 7 H 3.5 5 Z M 6.1921475,6.41512 C 6.3392347,6.2013362 6.6936875,6 6.9229672,6 H 7 V 4 2 H 6.5 6 L 6.00149,4.4140625 C 6.00287,6.6491937 6.00662,6.8177144 6.052123,6.6876684 6.079151,6.6104174 6.142161,6.4877706 6.1921458,6.4151203 Z"
       id="path827"
       inkscape:connector-curvature="0" />
    <path
       style="fill:#7fdffe;stroke-width:0.03125"
       d="M 13,12.023621 V 9.0472412 l -1,0.9996338 -1,0.999634 V 10.030887 9.0152644 L 12.00799,8.0076322 13.01598,7 H 14.00799 15 v 4 4 h -1 -1 z"
       id="path825"
       inkscape:connector-curvature="0" />
    <path
       style="fill:#4c91fe;stroke-width:0.03125"
       d="m 11,13.523254 v -2.476745 l 1,-0.999634 1,-0.9996337 V 12.023621 15 h 1 1 V 11 7 H 14.00799 13.01598 L 12.00799,8.0076322 11,9.0152644 V 7.5076322 6 h 2.5 2.5 v 5 5 H 13.5 11 Z"
       id="path823"
       inkscape:connector-curvature="0" />
    <path
       style="fill:#fe9729;stroke-width:0.03125"
       d="M 7,11 V 7 H 8.0079956 9.0159912 L 10.007996,7.9923678 11,8.9847356 V 9.9999972 11.015259 L 10,10.015625 9,9.0159913 V 12.007996 15 H 8 7 Z"
       id="path821"
       inkscape:connector-curvature="0" />
    <path
       style="fill:#000000;stroke-width:0.03125"
       d="M 5.6875,12.966041 C 4.9927794,12.877 4.2966941,12.665714 3.640625,12.344743 2.3017882,11.689739 1.2669058,10.644841 0.62197206,9.296875 0.19011193,8.3942509 0,7.5393581 0,6.5 0,5.4298763 0.19394336,4.5835569 0.65525709,3.640625 1.3102608,2.3017882 2.355159,1.2669058 3.703125,0.62197206 4.6057491,0.19011193 5.4606419,0 6.5,0 c 1.0701238,0 1.9164431,0.19394336 2.859375,0.65525709 0.71854,0.35153361 1.256611,0.74245501 1.813702,1.31769571 1.032687,1.0663339 1.629066,2.3394103 1.809632,3.8629847 L 13.002153,6 H 12.469826 11.9375 V 5.9273819 C 11.9375,5.7664759 11.830853,5.2449694 11.72868,4.90625 11.606801,4.5022028 11.332041,3.9039747 11.109641,3.5584319 10.280127,2.2696162 8.9509091,1.3854996 7.421875,1.1055485 c -0.4381306,-0.080217 -1.4056194,-0.080217 -1.84375,0 C 4.0490909,1.3854996 2.7198734,2.2696162 1.8903588,3.5584319 1.5352197,4.1102112 1.230938,4.8932737 1.1055485,5.578125 c -0.080217,0.4381306 -0.080217,1.4056194 0,1.84375 0.2799511,1.5290341 1.1640677,2.858252 2.4528834,3.687766 0.3455428,0.2224 0.9437709,0.49716 1.3478181,0.619039 0.3387194,0.102173 0.8602259,0.20882 1.0211319,0.20882 H 6 v 0.53125 c 0,0.486629 -0.00459,0.530917 -0.054687,0.527288 -0.030078,-0.0022 -0.1460938,-0.01568 -0.2578125,-0.03 z M 10,11.729238 v -0.273764 l 0.154846,0.152519 c 0.08517,0.08389 0.14773,0.164033 0.139031,0.178108 -0.0087,0.01408 -0.07838,0.06864 -0.154846,0.121246 L 10,12.003002 Z M 2,6.5 V 6 H 3.5 5 V 6.5 7 H 3.5 2 Z M 6.0014919,4.4140625 6,2 H 6.5 7 V 4 6 H 6.9229672 C 6.8037772,6 6.5607241,6.0919906 6.4149519,6.1922734 6.2614322,6.2978859 6.12179,6.48855 6.0521247,6.6876684 6.0066259,6.8177144 6.0028728,6.6491937 6.0014919,4.4140625 Z"
       id="path819"
       inkscape:connector-curvature="0" />
  </g>
</svg>
