<?xml version="1.0" encoding="UTF-8" standalone="no"?>
<!-- Created with Inkscape (http://www.inkscape.org/) -->

<svg
   xmlns:dc="http://purl.org/dc/elements/1.1/"
   xmlns:cc="http://creativecommons.org/ns#"
   xmlns:rdf="http://www.w3.org/1999/02/22-rdf-syntax-ns#"
   xmlns:svg="http://www.w3.org/2000/svg"
   xmlns="http://www.w3.org/2000/svg"
   xmlns:sodipodi="http://sodipodi.sourceforge.net/DTD/sodipodi-0.dtd"
   xmlns:inkscape="http://www.inkscape.org/namespaces/inkscape"
   version="1.1"
   id="svg2"
   width="16"
   height="16"
   viewBox="0 0 16 16"
   sodipodi:docname="HANDLE_ALIGNED.svg"
   inkscape:version="0.92.4 (5da689c313, 2019-01-14)">
  <metadata
     id="metadata8">
    <rdf:RDF>
      <cc:Work
         rdf:about="">
        <dc:format>image/svg+xml</dc:format>
        <dc:type
           rdf:resource="http://purl.org/dc/dcmitype/StillImage" />
        <dc:title />
      </cc:Work>
    </rdf:RDF>
  </metadata>
  <defs
     id="defs6" />
  <sodipodi:namedview
     pagecolor="#ffffff"
     bordercolor="#666666"
     borderopacity="1"
     objecttolerance="10"
     gridtolerance="10"
     guidetolerance="10"
     inkscape:pageopacity="0"
     inkscape:pageshadow="2"
     inkscape:window-width="1112"
     inkscape:window-height="776"
     id="namedview4"
     showgrid="false"
     inkscape:zoom="14.75"
     inkscape:cx="-6.8135593"
     inkscape:cy="8"
     inkscape:window-x="0"
     inkscape:window-y="0"
     inkscape:window-maximized="0"
     inkscape:current-layer="svg2" />
  <g
     id="HANDLE_ALIGNED">
    <path
       style="fill:#ffffff;stroke-width:0.03125"
       d="M 0.0020566,11.851563 C 0.0038556,8.2227363 0.00963211,7.7236175 0.04817476,7.8667328 0.26233009,8.6619266 1.0807812,9.15461 1.8533344,8.9533853 2.1033289,8.88827 2.3266928,8.7684597 2.4995779,8.6067459 L 2.6471066,8.46875 H 4.3235531 6 V 9.234375 10 h 2 2 V 9.234375 8.46875 h 1.676447 1.676446 l 0.147529,0.1379959 c 0.172885,0.1617138 0.396249,0.2815241 0.646244,0.3466394 0.770277,0.2006319 1.591479,-0.291875 1.803942,-1.0818956 0.04018,-0.1494184 0.04551,0.2984662 0.04733,3.9800733 L 16,16 H 8 0 Z m 0,-8.2031255 L 0,0 h 8 8 L 15.9979,3.6484375 C 15.9961,6.8934178 15.9908,7.2782566 15.95056,7.1285103 15.738145,6.3384897 14.916944,5.8459828 14.146666,6.0466147 13.904901,6.1095862 13.678041,6.2286272 13.517124,6.376955 L 13.383636,6.5 H 11.691818 10 V 6.25 6 H 8 6 V 6.25 6.5 H 4.3081822 2.6163644 L 2.4828764,6.376955 C 2.3219597,6.2286272 2.0950991,6.1095863 1.8533344,6.0466147 1.0830566,5.8459828 0.26185531,6.3384897 0.04939217,7.1285103 0.0091203,7.2782566 0.00388577,6.8934178 0.0020566,3.6484375 Z"
       id="path829"
       inkscape:connector-curvature="0" />
    <path
       style="fill:#cbfefe;stroke-width:0.03125"
       d="M 2.951323,7.8975347 C 2.998596,7.7385631 3.003531,7.3253269 2.960073,7.1649297 L 2.9158553,7.0017341 4.4579275,7.0023122 6,7.0028903 v 0.4815003 0.4815003 l -1.5346588,5.25e-4 -1.5346584,5.25e-4 0.02064,-0.069409 z M 10,7.4844041 V 7.0015666 l 1.541902,7.406e-4 1.541903,7.406e-4 -0.04405,0.1625397 c -0.04322,0.1594913 -0.03827,0.5733559 0.0087,0.7312762 L 13.068965,7.9656 11.534482,7.9664219 10,7.9672437 V 7.4844062 Z"
       id="path827"
       inkscape:connector-curvature="0" />
    <path
       style="fill:#fe9832;stroke-width:0.03125"
       d="M 7,8 V 7 H 8 9 V 8 9 H 8 7 Z M 1.2790422,8.4587794 C 0.82157397,8.3305981 0.51919869,7.9479634 0.51863866,7.4965425 0.51842928,7.3266175 0.53627369,7.2536175 0.61920819,7.0851534 0.99165822,6.3286 2.0083418,6.3286 2.3807918,7.0851534 2.4637263,7.2536175 2.4815722,7.3266175 2.4813613,7.4965425 2.4808935,7.8735894 2.2701174,8.2069903 1.9270139,8.3733966 1.6982782,8.4843341 1.4751678,8.5137331 1.2790422,8.4587794 Z m 12.9999998,0 c -0.457468,-0.1281813 -0.759843,-0.510816 -0.760403,-0.9622369 -2.19e-4,-0.169925 0.01764,-0.242925 0.100569,-0.4113891 0.37245,-0.7565534 1.389134,-0.7565534 1.761584,0 0.08293,0.1684641 0.10078,0.2414641 0.100569,0.4113891 -4.68e-4,0.3770469 -0.211243,0.7104478 -0.554347,0.8768541 -0.228736,0.1109375 -0.451846,0.1403365 -0.647972,0.085383 z"
       id="path825"
       inkscape:connector-curvature="0" />
    <path
       style="fill:#3200fe;stroke-width:0.03125"
       d="M 6,8 V 6 h 2 2 v 2 2 H 8 6 Z M 9,8 V 7 H 8 7 v 1 1 h 1 1 z"
       id="path823"
       inkscape:connector-curvature="0" />
    <path
       style="fill:#0065cb;stroke-width:0.03125"
       d="m 2.769157,8.2890625 c 0.059591,-0.098828 0.1163396,-0.2113281 0.1261079,-0.25 0.020302,-0.080375 -0.1800333,-0.071895 1.6984851,-0.071895 0.6015625,0 1.1640625,3.563e-4 1.25,7.906e-4 L 6,7.9687491 v 0.25 0.25 H 4.330405 2.6608097 Z M 10,8.21875 v -0.25 l 0.335938,-8.313e-4 c 0.411016,-0.00102 2.479602,-9.531e-4 2.637237,9.38e-5 0.0916,6.031e-4 0.117265,0.014467 0.13156,0.071061 0.0098,0.038672 0.06652,0.1511719 0.126108,0.25 L 13.33919,8.4687609 H 11.669595 10 v -0.25 z M 3.2151966,7.0067322 2.9147679,6.9978394 2.8566624,6.8689844 C 2.8247043,6.7981144 2.7594184,6.6861003 2.7115824,6.6200647 L 2.624608,6.5 H 4.3123041 6 V 6.75 7 l -0.1484375,7.719e-4 c -0.081641,4.25e-4 -0.640625,0.00394 -1.2421875,0.00781 -0.6015625,0.00387 -1.2289428,0.00304 -1.3941784,-0.00185 z M 10.335938,7.0067553 10,6.9978856 V 6.7489428 6.5 h 1.687696 1.687696 l -0.08697,0.1200647 c -0.04784,0.066036 -0.11334,0.1785356 -0.145566,0.25 -0.05284,0.117184 -0.06963,0.1300069 -0.171034,0.1306637 -0.06184,4e-4 -0.60463,0.00392 -1.206192,0.00781 -0.601563,0.0039 -1.244922,0.00309 -1.429688,-0.00178 z"
       id="path821"
       inkscape:connector-curvature="0" />
    <path
       style="fill:#980000;stroke-width:0.03125"
       d="M 1.1285102,8.9506078 C 0.33614169,8.7375131 -0.15405328,7.9170816 0.04784976,7.1419234 0.25691443,6.33927 1.0760952,5.8441694 1.8580764,6.0478497 2.6583752,6.2563012 3.1557938,7.0762359 2.9533854,7.8533344 2.7424102,8.6633228 1.9135201,9.1617234 1.1285102,8.9506078 Z M 1.9270139,8.3733966 C 2.2701174,8.2069903 2.4808936,7.8735894 2.4813613,7.4965425 2.4815707,7.3266175 2.4637263,7.2536175 2.3807918,7.0851534 2.0083418,6.3286 0.99165822,6.3286 0.61920819,7.0851534 0.53627369,7.2536175 0.51842784,7.3266175 0.51863866,7.4965425 0.51906366,7.8390681 0.70375022,8.16532 0.99327328,8.3349919 1.3117352,8.5216231 1.5971868,8.5333634 1.9270139,8.3733966 Z M 14.12851,8.9506078 C 13.336142,8.7375131 12.845947,7.9170816 13.04785,7.1419234 13.256914,6.33927 14.076095,5.8441694 14.858077,6.0478497 15.658375,6.2563012 16.155794,7.0762359 15.953385,7.8533344 15.74241,8.6633228 14.91352,9.1617234 14.12851,8.9506078 Z m 0.798504,-0.5772112 c 0.343104,-0.1664063 0.553879,-0.4998072 0.554347,-0.8768541 2.19e-4,-0.169925 -0.01764,-0.242925 -0.100569,-0.4113891 -0.37245,-0.7565534 -1.389134,-0.7565534 -1.761584,0 -0.08293,0.1684641 -0.10078,0.2414641 -0.100569,0.4113891 4.25e-4,0.3425256 0.185111,0.6687775 0.474634,0.8384494 0.318462,0.1866312 0.603914,0.1983715 0.933741,0.038405 z"
       id="path819"
       inkscape:connector-curvature="0" />
  </g>
</svg>
