<?xml version="1.0" encoding="UTF-8" standalone="no"?>
<!-- Created with Inkscape (http://www.inkscape.org/) -->

<svg
   xmlns:dc="http://purl.org/dc/elements/1.1/"
   xmlns:cc="http://creativecommons.org/ns#"
   xmlns:rdf="http://www.w3.org/1999/02/22-rdf-syntax-ns#"
   xmlns:svg="http://www.w3.org/2000/svg"
   xmlns="http://www.w3.org/2000/svg"
   xmlns:sodipodi="http://sodipodi.sourceforge.net/DTD/sodipodi-0.dtd"
   xmlns:inkscape="http://www.inkscape.org/namespaces/inkscape"
   version="1.1"
   id="svg2"
   width="16"
   height="16"
   viewBox="0 0 16 16"
   sodipodi:docname="HANDLE_VECTOR.svg"
   inkscape:version="0.92.4 (5da689c313, 2019-01-14)">
  <metadata
     id="metadata8">
    <rdf:RDF>
      <cc:Work
         rdf:about="">
        <dc:format>image/svg+xml</dc:format>
        <dc:type
           rdf:resource="http://purl.org/dc/dcmitype/StillImage" />
        <dc:title></dc:title>
      </cc:Work>
    </rdf:RDF>
  </metadata>
  <defs
     id="defs6" />
  <sodipodi:namedview
     pagecolor="#ffffff"
     bordercolor="#666666"
     borderopacity="1"
     objecttolerance="10"
     gridtolerance="10"
     guidetolerance="10"
     inkscape:pageopacity="0"
     inkscape:pageshadow="2"
     inkscape:window-width="1120"
     inkscape:window-height="758"
     id="namedview4"
     showgrid="false"
     inkscape:zoom="14.75"
     inkscape:cx="8"
     inkscape:cy="8"
     inkscape:window-x="0"
     inkscape:window-y="0"
     inkscape:window-maximized="0"
     inkscape:current-layer="svg2" />
  <g
     id="HANDLE_VECTOR">
    <path
       style="fill:#ffffff;stroke-width:0.03125"
       d="M 0.0020566,11.851563 C 0.0038556,8.2227363 0.00963211,7.7236175 0.04817476,7.8667328 0.26296314,8.6642772 1.0806398,9.1546469 1.8580764,8.9521503 2.6607299,8.7430856 3.1558306,7.9239047 2.9521502,7.1419234 2.7436989,6.3416247 1.9237642,5.8442062 1.1466656,6.0466147 0.61165088,6.1859681 0.19145137,6.6002787 0.04939217,7.1285103 0.0091203,7.2782566 0.00388577,6.8934178 0.0020566,3.6484375 L 0,0 h 8 8 L 15.9979,3.6484375 C 15.9961,6.8934178 15.9908,7.2782566 15.95056,7.1285103 15.808501,6.6002787 15.388301,6.1859681 14.853287,6.0466147 c -0.777099,-0.2024085 -1.597033,0.29501 -1.805485,1.0953087 -0.204259,0.7842025 0.291279,1.6011254 1.098816,1.8114619 0.770278,0.2006319 1.591479,-0.291875 1.803942,-1.0818956 0.04018,-0.1494184 0.04551,0.2984662 0.04734,3.9800733 L 16,16 H 8 0 Z M 10,8.6799613 V 7.3599222 l 2.389384,-2.3908985 c 2.646644,-2.6483228 2.527019,-2.5099917 2.527019,-2.9221487 0,-0.373893 -0.193546,-0.6825731 -0.531723,-0.8480277 -0.138307,-0.067667 -0.216235,-0.084238 -0.395642,-0.084132 -0.417586,2.469e-4 -0.276555,-0.12142231 -2.911188,2.511527 L 8.7025741,6 H 8.015625 7.3286759 L 4.9534003,3.6262425 C 2.3222517,0.99677503 2.4589013,1.1148477 2.046875,1.1148477 c -0.373893,0 -0.6825731,0.1935458 -0.8480277,0.5317228 -0.067667,0.1383061 -0.084238,0.216234 -0.084132,0.395642 2.469e-4,0.4175858 -0.12142231,0.2765551 2.511527,2.9111878 L 6,7.3286759 V 8.6643378 10 h 2 2 z"
       id="path829"
       inkscape:connector-curvature="0" />
    <path
       style="fill:#cbfefe;stroke-width:0.03125"
       d="M 10.000063,6.3526556 10,6.0021866 9.6870763,5.9932806 9.3741525,5.984375 11.554264,3.8070234 C 13.447965,1.9157193 13.750926,1.6253428 13.86036,1.5967198 14.212252,1.5046809 14.528155,1.8217691 14.434347,2.1728602 14.405916,2.2792657 14.088748,2.6097053 12.200669,4.5 L 10.000127,6.703125 Z M 3.8070234,4.4769781 C 1.9157162,2.5832808 1.6253428,2.280324 1.5967198,2.1708898 c -0.091941,-0.3515174 0.2226526,-0.666111 0.57417,-0.57417 0.1094342,0.028623 0.412391,0.3189964 2.3060883,2.2103036 l 2.1801035,2.1773516 -0.3274941,0.00886 -0.3274944,0.00886 -0.00886,0.3274944 -0.00886,0.3274941 z"
       id="path827"
       inkscape:connector-curvature="0" />
    <path
       style="fill:#fe9832;stroke-width:0.03125"
       d="M 7,8 V 7 H 8 9 V 8 9 H 8 7 Z M 1.2790422,8.4587794 C 0.82157397,8.3305981 0.51919869,7.9479634 0.51863866,7.4965425 0.51842928,7.3266175 0.53627369,7.2536175 0.61920819,7.0851534 0.99165822,6.3286 2.0083418,6.3286 2.3807918,7.0851534 2.4637263,7.2536175 2.4815722,7.3266175 2.4813613,7.4965425 2.4808935,7.8735894 2.2701174,8.2069903 1.9270139,8.3733966 1.6982782,8.4843341 1.4751678,8.5137331 1.2790422,8.4587794 Z m 12.9999998,0 c -0.457468,-0.1281813 -0.759843,-0.510816 -0.760403,-0.9622369 -2.19e-4,-0.169925 0.01764,-0.242925 0.100569,-0.4113891 0.37245,-0.7565534 1.389134,-0.7565534 1.761584,0 0.08293,0.1684641 0.10078,0.2414641 0.100569,0.4113891 -4.68e-4,0.3770469 -0.211243,0.7104478 -0.554347,0.8768541 -0.228736,0.1109375 -0.451846,0.1403365 -0.647972,0.085383 z"
       id="path825"
       inkscape:connector-curvature="0" />
    <path
       style="fill:#3200fe;stroke-width:0.03125"
       d="M 6,8 V 6 h 2 2 v 2 2 H 8 6 Z M 9,8 V 7 H 8 7 v 1 1 h 1 1 z"
       id="path823"
       inkscape:connector-curvature="0" />
    <path
       style="fill:#0065cb;stroke-width:0.03125"
       d="M 10,7.0314691 V 6.7037175 L 12.200792,4.5002963 C 14.11293,2.5858729 14.405905,2.2803509 14.434533,2.1708898 14.526468,1.8193696 14.211878,1.504781 13.86036,1.5967185 13.750915,1.6253433 13.44715,1.9165482 11.546577,3.8148347 L 9.3587781,6 H 9.0310294 8.7032803 L 11.062578,3.6396544 c 2.623177,-2.6243424 2.508612,-2.5251806 2.917135,-2.5249389 0.378962,2.25e-4 0.68641,0.1919911 0.85269,0.531855 0.06809,0.1391699 0.08426,0.2160085 0.08426,0.4003045 0,0.4142142 0.104524,0.2933681 -2.540697,2.9374228 L 10,7.3592209 Z M 3.6184309,4.9457125 C 0.9940935,2.3195518 1.1149625,2.4597207 1.1147155,2.0422125 1.1144026,1.5132232 1.5165973,1.1150319 2.0515375,1.1147155 2.4600599,1.1144749 2.3454954,1.015312 4.9686725,3.6396544 L 7.3279697,6 H 7.0002206 6.6724719 L 4.4846734,3.8148347 C 2.5840995,1.9165482 2.2803351,1.6253433 2.1708898,1.5967185 1.8189867,1.5046802 1.5030667,1.8217972 1.5969229,2.1728602 1.6253615,2.279233 1.9410702,2.6082709 3.8162025,4.4858372 l 2.1861241,2.1889622 -0.00898,0.3192503 -0.00898,0.3192506 z"
       id="path821"
       inkscape:connector-curvature="0" />
    <path
       style="fill:#980000;stroke-width:0.03125"
       d="M 1.1285102,8.9506078 C 0.33614169,8.7375131 -0.15405328,7.9170816 0.04784976,7.1419234 0.25691443,6.33927 1.0760952,5.8441694 1.8580764,6.0478497 2.6583752,6.2563012 3.1557938,7.0762359 2.9533854,7.8533344 2.7424102,8.6633228 1.9135201,9.1617234 1.1285102,8.9506078 Z M 1.9270139,8.3733966 C 2.2701174,8.2069903 2.4808936,7.8735894 2.4813613,7.4965425 2.4815707,7.3266175 2.4637263,7.2536175 2.3807918,7.0851534 2.0083418,6.3286 0.99165822,6.3286 0.61920819,7.0851534 0.53627369,7.2536175 0.51842784,7.3266175 0.51863866,7.4965425 0.51906366,7.8390681 0.70375022,8.16532 0.99327328,8.3349919 1.3117352,8.5216231 1.5971868,8.5333634 1.9270139,8.3733966 Z M 14.12851,8.9506078 C 13.336142,8.7375131 12.845947,7.9170816 13.04785,7.1419234 13.256914,6.33927 14.076095,5.8441694 14.858077,6.0478497 15.658375,6.2563012 16.155794,7.0762359 15.953385,7.8533344 15.74241,8.6633228 14.91352,9.1617234 14.12851,8.9506078 Z m 0.798504,-0.5772112 c 0.343104,-0.1664063 0.553879,-0.4998072 0.554347,-0.8768541 2.19e-4,-0.169925 -0.01764,-0.242925 -0.100569,-0.4113891 -0.37245,-0.7565534 -1.389134,-0.7565534 -1.761584,0 -0.08293,0.1684641 -0.10078,0.2414641 -0.100569,0.4113891 4.25e-4,0.3425256 0.185111,0.6687775 0.474634,0.8384494 0.318462,0.1866312 0.603914,0.1983715 0.933741,0.038405 z"
       id="path819"
       inkscape:connector-curvature="0" />
  </g>
</svg>
