<?xml version="1.0" encoding="UTF-8" standalone="no"?>
<!-- Created with Inkscape (http://www.inkscape.org/) -->

<svg
   xmlns:dc="http://purl.org/dc/elements/1.1/"
   xmlns:cc="http://creativecommons.org/ns#"
   xmlns:rdf="http://www.w3.org/1999/02/22-rdf-syntax-ns#"
   xmlns:svg="http://www.w3.org/2000/svg"
   xmlns="http://www.w3.org/2000/svg"
   xmlns:sodipodi="http://sodipodi.sourceforge.net/DTD/sodipodi-0.dtd"
   xmlns:inkscape="http://www.inkscape.org/namespaces/inkscape"
   version="1.1"
   id="svg2"
   width="16"
   height="16"
   viewBox="0 0 16 16"
   sodipodi:docname="HANDLE_AUTO.svg"
   inkscape:version="0.92.4 (5da689c313, 2019-01-14)">
  <metadata
     id="metadata8">
    <rdf:RDF>
      <cc:Work
         rdf:about="">
        <dc:format>image/svg+xml</dc:format>
        <dc:type
           rdf:resource="http://purl.org/dc/dcmitype/StillImage" />
        <dc:title></dc:title>
      </cc:Work>
    </rdf:RDF>
  </metadata>
  <defs
     id="defs6" />
  <sodipodi:namedview
     pagecolor="#ffffff"
     bordercolor="#666666"
     borderopacity="1"
     objecttolerance="10"
     gridtolerance="10"
     guidetolerance="10"
     inkscape:pageopacity="0"
     inkscape:pageshadow="2"
     inkscape:window-width="811"
     inkscape:window-height="586"
     id="namedview4"
     showgrid="false"
     inkscape:zoom="14.75"
     inkscape:cx="8"
     inkscape:cy="8"
     inkscape:window-x="0"
     inkscape:window-y="0"
     inkscape:window-maximized="0"
     inkscape:current-layer="svg2" />
  <g
     id="HANDLE_AUTO">
    <path
       style="fill:#ffffff;stroke-width:0.03125"
       d="M 0,8 V 0 L 3.6484375,0.0020566 C 6.8934178,0.00388577 7.2782566,0.0091203 7.1285103,0.04939217 6.6002787,0.19145137 6.1859681,0.61165088 6.0466147,1.1466656 5.8442062,1.9237642 6.3416247,2.7436989 7.1419234,2.9521502 7.9261259,3.1564091 8.7430488,2.6608712 8.9533853,1.8533344 9.1540172,1.0830566 8.6615103,0.26185531 7.8714897,0.04939217 7.7220712,0.00920852 8.1699559,0.00388176 11.851563,0.0020566 L 16,0 v 8 8 L 11.851563,15.9979 C 8.1699559,15.9961 7.7220712,15.9907 7.8714897,15.95056 c 0.5282316,-0.142059 0.9425422,-0.562259 1.0818956,-1.097273 0.2024085,-0.777099 -0.29501,-1.597033 -1.0953087,-1.805485 -0.7819813,-0.20368 -1.6011622,0.29142 -1.8102269,1.094074 -0.2024966,0.777436 0.2878731,1.595113 1.0854175,1.809902 0.1434337,0.03863 -0.2862735,0.04431 -3.4848297,0.04612 L 0,16 Z M 10,9.2350747 V 8.4701491 l 2.585938,-0.00851 2.585937,-0.00851 0.159338,-0.072128 c 0.198945,-0.090057 0.394022,-0.2864297 0.487137,-0.4903716 0.10051,-0.2201384 0.10051,-0.5923616 0,-0.8125 C 15.725235,6.8741831 15.530158,6.6778106 15.331213,6.5877534 L 15.171875,6.515625 12.585938,6.5071128 10,6.4986009 V 6.2493003 6 H 8 6 v 0.2493081 0.2493081 l -2.6171875,0.0085 -2.6171875,0.0085 -0.15933816,0.072128 c -0.1989444,0.090057 -0.39402158,0.2864297 -0.48713692,0.4903716 -0.10051026,0.2201384 -0.10051026,0.5923616 0,0.8125 0.0931153,0.2039419 0.28819252,0.4003144 0.48713692,0.4903716 L 0.765625,8.453125 3.3828125,8.4616294 6,8.4701337 V 9.2350669 10 h 2 2 z"
       id="path829"
       inkscape:connector-curvature="0" />
    <path
       style="fill:#cbfefe;stroke-width:0.03125"
       d="M 0.859375,7.9211494 C 0.43165459,7.7719962 0.45552094,7.1521397 0.89349947,7.0348687 0.97371912,7.0133894 1.8707886,7.0022281 3.5078125,7.0023416 L 6,7.0025291 V 7.4843619 7.9661947 L 3.4921875,7.9654728 C 1.4290065,7.9648791 0.96221269,7.9570237 0.859375,7.9211628 Z M 10,7.484375 V 7.0010075 l 2.523438,0.00731 c 2.474985,0.00717 2.525516,0.00853 2.631706,0.070914 0.305613,0.1795407 0.305613,0.6307482 0,0.8102888 -0.10619,0.062384 -0.156721,0.063746 -2.631706,0.070914 L 10,7.9677425 Z"
       id="path827"
       inkscape:connector-curvature="0" />
    <path
       style="fill:#fe9832;stroke-width:0.03125"
       d="M 7.2790422,15.458779 C 6.8215741,15.330598 6.5191987,14.947963 6.5186387,14.496543 c -8.531e-4,-0.6887 0.742906,-1.1806 1.3577872,-0.897998 0.2453204,0.11275 0.38816,0.250561 0.504366,0.486608 0.082934,0.168465 0.1007803,0.241465 0.1005693,0.41139 -4.687e-4,0.377046 -0.2112437,0.710447 -0.5543471,0.876854 -0.228736,0.110937 -0.4518463,0.140336 -0.6479719,0.08538 z M 7,8 V 7 H 8 9 V 8 9 H 8 7 Z M 7.2790422,2.4587793 C 6.8215741,2.3305981 6.5191987,1.9479635 6.5186387,1.4965424 6.51842,1.3266174 6.5362738,1.2536173 6.6192081,1.0851535 6.9916581,0.3286 8.0083419,0.3286 8.3807919,1.0851535 8.4637263,1.2536173 8.4815722,1.3266174 8.4813612,1.4965424 8.4808925,1.8735893 8.2701175,2.2069903 7.9270141,2.3733964 7.6982781,2.4843339 7.4751678,2.5137331 7.2790422,2.4587793 Z"
       id="path825"
       inkscape:connector-curvature="0" />
    <path
       style="fill:#3200fe;stroke-width:0.03125"
       d="M 6,8 V 6 h 2 2 v 2 2 H 8 6 Z M 9,8 V 7 H 8 7 v 1 1 h 1 1 z"
       id="path823"
       inkscape:connector-curvature="0" />
    <path
       style="fill:#0065cb;stroke-width:0.03125"
       d="M 0.734375,8.4250369 C 0.44549719,8.3336766 0.24009472,8.1552413 0.11919702,7.890625 0.01891074,7.6711222 0.01918335,7.2997675 0.11979573,7.0750369 0.20853556,6.876825 0.40462031,6.6815316 0.609375,6.5874325 L 0.765625,6.515625 3.3828125,6.5071206 6,6.4986162 V 6.7493081 7 l -0.1484375,4.781e-4 c -0.081641,2.5e-4 -1.23125,0.00378 -2.5546875,0.00781 -2.35707934,0.00718 -2.40846244,0.00863 -2.51451922,0.07094 -0.3056124,0.1795407 -0.3056124,0.6307482 0,0.8102888 0.10605678,0.062306 0.15743988,0.063756 2.51451922,0.07094 1.3234375,0.00403 2.4730469,0.00755 2.5546875,0.00781 L 6,7.96875 v 0.25 0.25 L 3.4296875,8.4666594 C 1.4486751,8.4650484 0.83071603,8.4555053 0.734375,8.4250369 Z M 10,8.2194497 V 7.96875 l 0.320313,-5.469e-4 c 4.397136,-0.00752 4.722725,-0.012823 4.834831,-0.078683 0.305613,-0.1795406 0.305613,-0.6307481 0,-0.8102887 -0.112106,-0.06586 -0.437695,-0.071159 -4.834831,-0.078683 L 10,7 V 6.7493003 6.4986009 l 2.585938,0.00851 2.585937,0.00851 0.159338,0.072128 c 0.198945,0.090057 0.394022,0.2864297 0.487137,0.4903716 0.10051,0.2201384 0.10051,0.5923616 0,0.8125 -0.09312,0.2039419 -0.288192,0.4003144 -0.487137,0.4903716 L 15.171875,8.453125 12.585938,8.4616372 10,8.4701491 Z"
       id="path821"
       inkscape:connector-curvature="0" />
    <path
       style="fill:#980000;stroke-width:0.03125"
       d="M 7.1285103,15.950608 C 6.3361416,15.737513 5.8459466,14.917082 6.0478497,14.141923 6.2569144,13.33927 7.0760953,12.844169 7.8580766,13.04785 c 0.8002987,0.208451 1.2977171,1.028386 1.0953087,1.805484 -0.210975,0.809989 -1.0398653,1.308389 -1.824875,1.097274 z M 7.9270141,15.373397 C 8.1509056,15.264808 8.2898403,15.119276 8.4014553,14.876426 8.6850228,14.259443 8.1932688,13.518895 7.5,13.518895 c -0.3776006,0 -0.7059431,0.211091 -0.8807919,0.566258 -0.082934,0.168465 -0.1007803,0.241465 -0.1005694,0.41139 4.25e-4,0.342525 0.1851116,0.668777 0.4746347,0.838449 0.3184619,0.186631 0.6039135,0.198371 0.9337407,0.03841 z M 7.1285103,2.9506078 C 6.3361416,2.7375132 5.8459466,1.9170817 6.0478497,1.1419236 6.2569144,0.33927009 7.0760953,-0.15583048 7.8580766,0.04784976 8.6583753,0.25630109 9.1557937,1.0762358 8.9533853,1.8533344 8.7424103,2.6633228 7.91352,3.1617234 7.1285103,2.9506078 Z M 7.9270141,2.3733964 C 8.2701175,2.2069903 8.4808934,1.8735893 8.4813612,1.4965424 8.48158,1.3266174 8.4637262,1.2536173 8.3807919,1.0851535 8.0083419,0.3286 6.9916581,0.3286 6.6192081,1.0851535 6.5362738,1.2536173 6.5184278,1.3266174 6.5186387,1.4965424 c 4.25e-4,0.3425258 0.1851116,0.6687777 0.4746347,0.8384495 0.3184619,0.1866311 0.6039135,0.1983717 0.9337407,0.038404 z"
       id="path819"
       inkscape:connector-curvature="0" />
  </g>
</svg>
