<?xml version="1.0" encoding="UTF-8" standalone="no"?>
<!-- Created with Inkscape (http://www.inkscape.org/) -->

<svg
   xmlns:dc="http://purl.org/dc/elements/1.1/"
   xmlns:cc="http://creativecommons.org/ns#"
   xmlns:rdf="http://www.w3.org/1999/02/22-rdf-syntax-ns#"
   xmlns:svg="http://www.w3.org/2000/svg"
   xmlns="http://www.w3.org/2000/svg"
   xmlns:sodipodi="http://sodipodi.sourceforge.net/DTD/sodipodi-0.dtd"
   xmlns:inkscape="http://www.inkscape.org/namespaces/inkscape"
   version="1.1"
   id="svg2"
   width="16"
   height="16"
   viewBox="0 0 16 16"
   sodipodi:docname="HANDLE_FREE.svg"
   inkscape:version="0.92.4 (5da689c313, 2019-01-14)">
  <metadata
     id="metadata8">
    <rdf:RDF>
      <cc:Work
         rdf:about="">
        <dc:format>image/svg+xml</dc:format>
        <dc:type
           rdf:resource="http://purl.org/dc/dcmitype/StillImage" />
        <dc:title></dc:title>
      </cc:Work>
    </rdf:RDF>
  </metadata>
  <defs
     id="defs6" />
  <sodipodi:namedview
     pagecolor="#ffffff"
     bordercolor="#666666"
     borderopacity="1"
     objecttolerance="10"
     gridtolerance="10"
     guidetolerance="10"
     inkscape:pageopacity="0"
     inkscape:pageshadow="2"
     inkscape:window-width="1055"
     inkscape:window-height="774"
     id="namedview4"
     showgrid="false"
     inkscape:zoom="14.75"
     inkscape:cx="8"
     inkscape:cy="8"
     inkscape:window-x="0"
     inkscape:window-y="0"
     inkscape:window-maximized="0"
     inkscape:current-layer="svg2" />
  <g
     id="HANDLE_FREE">
    <path
       style="fill:#ffffff;stroke-width:0.03125"
       d="M 0,8 V 0 h 8 8 v 8 8 L 11.851563,15.9979 C 8.1699559,15.996119 7.7220712,15.990792 7.8714897,15.950608 8.6615103,15.738145 9.1540172,14.916944 8.9533853,14.146666 8.88827,13.896671 8.7684597,13.673307 8.6067459,13.500422 L 8.46875,13.352893 V 11.676447 10 H 9.234375 10 V 8 6 H 8.6639672 7.3279344 L 5.4139672,4.0858431 3.5,2.171686 V 1.9986586 C 3.5,1.3300759 3.0200207,0.72026431 2.3580764,0.54784975 1.2913763,0.27000968 0.26931279,1.2887008 0.54661463,2.3533344 0.72033069,3.0202755 1.3278942,3.5 1.9988484,3.5 H 2.1720656 L 4.0860328,5.4141569 6,7.3283141 V 8.6641569 10 H 6.25 6.5 v 1.691818 1.691818 l -0.123045,0.133488 c -0.1483278,0.160916 -0.2673688,0.387777 -0.3303403,0.629542 -0.2012247,0.772553 0.2914587,1.591004 1.0866525,1.805159 0.1434337,0.03863 -0.2862735,0.04432 -3.4848297,0.04612 L 0,16 Z"
       id="path829"
       inkscape:connector-curvature="0" />
    <path
       style="fill:#cbfefe;stroke-width:0.03125"
       d="M 7.0023128,11.542073 7.0028912,10 h 0.4815004 0.4815003 l 5.25e-4,1.534659 5.25e-4,1.534658 -0.069409,-0.02064 c -0.1589716,-0.04727 -0.5722078,-0.05221 -0.732605,-0.0087 l -0.163196,0.04417 5.781e-4,-1.542072 z M 4.3294822,5.0014697 C 3.4192913,4.0910956 2.68101,3.3410934 2.6888573,3.3347988 c 0.00785,-0.0063 0.065943,-0.042505 0.1291028,-0.080467 C 2.9527396,3.1733228 3.2676747,2.8420022 3.2966369,2.7507507 3.3076781,2.7159628 3.3263606,2.6875 3.3381541,2.6875 c 0.011793,0 0.766655,0.7453125 1.6774709,1.65625 L 6.6716537,6 H 6.3368841 6.0021144 l -0.00887,0.3283478 -0.00887,0.3283481 z"
       id="path827"
       inkscape:connector-curvature="0" />
    <path
       style="fill:#fe9832;stroke-width:0.03125"
       d="M 7.2790422,15.458779 C 6.8215741,15.330598 6.5191987,14.947963 6.5186387,14.496543 c -8.531e-4,-0.6887 0.742906,-1.1806 1.3577872,-0.897998 0.2453204,0.11275 0.38816,0.250561 0.504366,0.486608 0.082934,0.168465 0.1007803,0.241465 0.1005693,0.41139 -4.687e-4,0.377046 -0.2112437,0.710447 -0.5543471,0.876854 -0.228736,0.110937 -0.4518463,0.140336 -0.6479719,0.08538 z M 7,8 V 7 H 8 9 V 8 9 H 8 7 Z M 1.7790422,2.9587793 C 1.321574,2.8305981 1.0191987,2.4479635 1.0186387,1.9965424 1.0184293,1.8266174 1.0362737,1.7536173 1.1192082,1.5851535 1.4916582,0.8286 2.5083418,0.8286 2.8807918,1.5851535 2.9637263,1.7536173 2.9815722,1.8266174 2.9813613,1.9965424 2.9808935,2.3735893 2.7701174,2.7069903 2.4270139,2.8733964 2.1982782,2.9843339 1.9751677,3.0137331 1.7790422,2.9587793 Z"
       id="path825"
       inkscape:connector-curvature="0" />
    <path
       style="fill:#3200fe;stroke-width:0.03125"
       d="M 6,8 V 6 h 2 2 v 2 2 H 8 6 Z M 9,8 V 7 H 8 7 v 1 1 h 1 1 z"
       id="path823"
       inkscape:connector-curvature="0" />
    <path
       style="fill:#0065cb;stroke-width:0.03125"
       d="M 6.5,11.687696 V 10 H 6.75 7 l 7.906e-4,0.15625 c 4.344e-4,0.08594 7.906e-4,0.648438 7.906e-4,1.25 0,0.601563 -3.562e-4,1.225208 -7.906e-4,1.385879 L 7,13.084258 6.8700647,13.142851 c -0.071464,0.03223 -0.1839644,0.09773 -0.25,0.145567 L 6.5,13.375392 Z M 8.3454747,13.26467 C 8.2862672,13.222862 8.1773353,13.163786 8.1034044,13.13339 l -0.13442,-0.05527 -9.094e-4,-0.289062 c -0.00112,-0.35515 -0.00121,-2.41743 -1.25e-4,-2.632813 L 7.9687406,10 h 0.25 0.25 v 1.671875 c 0,0.919531 -0.00352,1.671185 -0.00781,1.670343 -0.0043,-8.44e-4 -0.056255,-0.03574 -0.1154628,-0.07755 z M 4.0796522,5.4078975 C 2.914038,4.2420925 2.192526,3.4982438 2.2202771,3.49096 2.2452184,3.4844134 2.3570313,3.4491597 2.46875,3.4126181 L 2.671875,3.3461788 4.3371037,5.0102294 6.0023325,6.67428 5.9933537,6.9936066 5.984375,7.3129328 Z M 5.0077572,4.3358834 3.3438587,2.6717667 3.4063044,2.5074232 C 3.4406494,2.4170342 3.46875,2.3159354 3.46875,2.2827591 c 0,-0.033176 0.011403,-0.067368 0.025341,-0.075982 0.013938,-0.00861 0.8822538,0.8413375 1.9295916,1.8887809 L 7.3279328,6 H 6.9997944 6.6716559 Z"
       id="path821"
       inkscape:connector-curvature="0" />
    <path
       style="fill:#980000;stroke-width:0.03125"
       d="M 7.1285103,15.950608 C 6.3361416,15.737513 5.8459466,14.917082 6.0478497,14.141923 6.2569144,13.33927 7.0760953,12.844169 7.8580766,13.04785 c 0.8002987,0.208451 1.2977171,1.028386 1.0953087,1.805484 -0.210975,0.809989 -1.0398653,1.308389 -1.824875,1.097274 z M 7.9270141,15.373397 C 8.1509056,15.264808 8.2898403,15.119276 8.4014553,14.876426 8.6850228,14.259443 8.1932688,13.518895 7.5,13.518895 c -0.3776006,0 -0.7059431,0.211091 -0.8807919,0.566258 -0.082934,0.168465 -0.1007803,0.241465 -0.1005694,0.41139 4.25e-4,0.342525 0.1851116,0.668777 0.4746347,0.838449 0.3184619,0.186631 0.6039135,0.198371 0.9337407,0.03841 z M 1.6285102,3.4506078 C 0.83614169,3.2375131 0.34594672,2.4170817 0.54784975,1.6419236 0.75691444,0.83927009 1.5760952,0.34416953 2.3580764,0.54784975 3.1583753,0.75630109 3.6557938,1.5762358 3.4533853,2.3533344 3.2424103,3.1633228 2.4135201,3.6617234 1.6285102,3.4506078 Z M 2.4270139,2.8733964 C 2.7701174,2.7069903 2.9808936,2.3735893 2.9813613,1.9965424 2.9815707,1.8266174 2.9637263,1.7536173 2.8807918,1.5851535 2.5083418,0.8286 1.4916582,0.8286 1.1192082,1.5851535 1.0362737,1.7536173 1.0184278,1.8266174 1.0186387,1.9965424 c 4.25e-4,0.3425258 0.1851115,0.6687777 0.4746346,0.8384495 0.3184619,0.1866311 0.6039135,0.1983717 0.9337406,0.038404 z"
       id="path819"
       inkscape:connector-curvature="0" />
  </g>
</svg>
