<?xml version="1.0" encoding="UTF-8" standalone="no"?>
<!-- Created with Inkscape (http://www.inkscape.org/) -->

<svg
   xmlns:dc="http://purl.org/dc/elements/1.1/"
   xmlns:cc="http://creativecommons.org/ns#"
   xmlns:rdf="http://www.w3.org/1999/02/22-rdf-syntax-ns#"
   xmlns:svg="http://www.w3.org/2000/svg"
   xmlns="http://www.w3.org/2000/svg"
   xmlns:sodipodi="http://sodipodi.sourceforge.net/DTD/sodipodi-0.dtd"
   xmlns:inkscape="http://www.inkscape.org/namespaces/inkscape"
   version="1.1"
   id="svg2"
   width="16"
   height="16"
   viewBox="0 0 16 16"
   sodipodi:docname="MOTIONPATHS_CLEAR.svg"
   inkscape:version="0.92.4 (5da689c313, 2019-01-14)">
  <metadata
     id="metadata8">
    <rdf:RDF>
      <cc:Work
         rdf:about="">
        <dc:format>image/svg+xml</dc:format>
        <dc:type
           rdf:resource="http://purl.org/dc/dcmitype/StillImage" />
        <dc:title></dc:title>
      </cc:Work>
    </rdf:RDF>
  </metadata>
  <defs
     id="defs6" />
  <sodipodi:namedview
     pagecolor="#ffffff"
     bordercolor="#666666"
     borderopacity="1"
     objecttolerance="10"
     gridtolerance="10"
     guidetolerance="10"
     inkscape:pageopacity="0"
     inkscape:pageshadow="2"
     inkscape:window-width="1349"
     inkscape:window-height="834"
     id="namedview4"
     showgrid="false"
     inkscape:zoom="14.75"
     inkscape:cx="8"
     inkscape:cy="8"
     inkscape:window-x="0"
     inkscape:window-y="0"
     inkscape:window-maximized="0"
     inkscape:current-layer="svg2" />
  <g
     id="MOTIONPATHS_CLEAR">
    <path
       style="fill:#ffffff;stroke-width:0.03125"
       d="M 0,8 V 0 h 8 8 v 8 8 H 8 0 Z m 2.8580764,6.95215 C 3.6583753,14.743699 4.1557937,13.923764 3.9533853,13.146666 3.8458787,12.73392 3.559985,12.367552 3.2002647,12.181555 L 3.0002312,12.078125 3.0001156,11.539063 3,11 H 2.5 2 l -1.156e-4,0.539063 -1.157e-4,0.539062 -0.2000334,0.10343 c -0.3597203,0.185997 -0.6456142,0.552365 -0.7531208,0.965111 -0.27729728,1.064616 0.7447791,2.08332 1.8114619,1.805484 z m 6.7907902,-0.08582 c 0.1248456,-0.04351 0.3006268,-0.124927 0.3906254,-0.180921 0.252496,-0.157093 4.303171,-4.204262 4.490054,-4.486167 0.2245,-0.3386501 0.298579,-0.6012976 0.298579,-1.058616 0,-0.3120762 -0.01267,-0.4136756 -0.07549,-0.6054909 C 14.563508,7.9577256 14.07298,7.4675959 13.494612,7.2781356 13.164641,7.170045 12.615951,7.1702644 12.285134,7.27862 11.966927,7.382845 11.664716,7.592975 11.296875,7.9657656 L 10.984375,8.2824713 10.96875,5.9459228 10.953125,3.609375 10.869702,3.3810378 C 10.724623,2.9839427 10.400301,2.5654887 10.101563,2.389952 10.007321,2.3345762 10,2.3183711 10,2.1651373 V 2 H 9 8 V 2.1703737 C 8,2.3356404 7.9960187,2.3434877 7.8671875,2.4321629 7.5725022,2.6349962 7.3003941,3.0011764 7.1610803,3.3823834 L 7.078125,3.609375 7.0625,5.9458944 7.046875,8.2824141 6.71875,7.9501241 C 6.3357903,7.5623034 6.0363041,7.3526525 5.7148659,7.2473694 c -0.3315418,-0.1085925 -0.87944,-0.1085925 -1.2109818,0 C 3.9264756,7.4364922 3.4363459,7.92702 3.2468856,8.5053881 3.1834481,8.6990453 3.1720888,8.7946434 3.17326,9.125 3.17447,9.4651222 3.185191,9.5449722 3.256215,9.7426166 3.301079,9.8674622 3.3835975,10.043243 3.43959,10.133242 c 0.1300872,0.209093 4.22666,4.324934 4.4742575,4.495302 0.3716247,0.25571 0.6920897,0.344831 1.1799025,0.328132 0.2490159,-0.0085 0.3828516,-0.03031 0.5551166,-0.09035 z M 3,9 V 8 H 2.5 2 v 1 1 H 2.5 3 Z M 3.5230925,6.4925428 4.03125,5.9850853 V 5.4769178 4.96875 H 3.5237825 3.0163148 L 2.5081574,5.4762072 2,5.9836647 V 6.4918322 7 h 0.5074676 0.5074676 z m 3,-3 L 7.03125,2.9850854 V 2.4769177 1.96875 H 6.5237825 6.0163147 L 5.5081575,2.4762073 5,2.9836646 V 3.4918322 4 H 5.5074675 6.0149353 Z M 13.858077,3.9521503 C 14.658375,3.7436988 15.155794,2.9237642 14.953385,2.1466656 14.743663,1.3414863 13.925983,0.84362831 13.146666,1.0466146 12.73392,1.1541212 12.367552,1.4400151 12.181555,1.7997354 L 12.078125,1.9997688 11.539063,1.9998844 11,2 V 2.5 3 l 0.539063,1.156e-4 0.539062,1.156e-4 0.10343,0.2000336 c 0.308058,0.5957878 1.031014,0.9200187 1.676522,0.7518855 z"
       id="path825"
       inkscape:connector-curvature="0" />
    <path
       style="fill:#fefefe;stroke-width:0.03125"
       d="M 2.1285102,14.950608 C 1.3384896,14.738145 0.84598272,13.916943 1.0466146,13.146666 1.1541212,12.73392 1.4400151,12.367552 1.7997354,12.181555 L 1.9997688,12.078125 1.9998844,11.539063 2,11 H 2.5 3 l 1.156e-4,0.539063 1.156e-4,0.539062 0.2000336,0.10343 c 0.5938919,0.307078 0.9200187,1.031015 0.7531206,1.671779 -0.210975,0.809989 -1.0398652,1.308389 -1.8248752,1.097274 z M 2,9 V 8 H 2.5 3 v 1 1 H 2.5 2 Z M 2,6.4918322 V 5.9836647 L 2.5081574,5.4762072 3.0163148,4.96875 H 3.5237825 4.03125 V 5.4769178 5.9850853 L 3.5230925,6.4925428 3.0149352,7 H 2.5074676 2 Z m 3,-3 V 2.9836646 L 5.5081575,2.4762073 6.0163147,1.96875 H 6.5237825 7.03125 V 2.4769177 2.9850854 L 6.5230925,3.4925428 6.0149353,4 H 5.5074675 5 Z m 8.133267,0.4599931 C 12.731488,3.8436213 12.364265,3.5536278 12.181555,3.2002647 L 12.078125,3.0002312 11.539063,3.0001156 11,3 V 2.5 2 l 0.539063,-1.156e-4 0.539062,-1.157e-4 0.10343,-0.2000334 c 0.185997,-0.3597203 0.552365,-0.6456142 0.965111,-0.7531208 1.061979,-0.27661053 2.08333,0.7447402 1.806719,1.8067198 -0.21036,0.8076294 -1.040282,1.30851 -1.820118,1.098491 z M 8,2.1663445 V 2 h 1 1 V 2.1545303 2.3090607 L 9.8203125,2.2294845 C 9.3155044,2.0059259 8.6697334,2.0112479 8.1869841,2.2429453 L 8,2.3326889 Z"
       id="path823"
       inkscape:connector-curvature="0" />
    <path
       style="fill:#fe9832;stroke-width:0.03125"
       d="M 8.8170866,13.936056 C 8.7422653,13.920849 8.6227341,13.873702 8.5514616,13.831284 8.4801888,13.788866 7.4978375,12.828615 6.3684581,11.697393 4.0880787,9.4132922 4.1774606,9.5190491 4.1772156,9.1047125 c -3.125e-4,-0.52686 0.4022638,-0.927365 0.9321594,-0.927365 0.3940863,0 0.3895088,-0.00354 1.7421875,1.3469619 0.84579,0.8444276 1.2115388,1.1903036 1.2129319,1.1470266 0.0011,-0.03408 0.00461,-1.5947735 0.00781,-3.468211 l 0.00582,-3.40625 0.086868,-0.1768919 C 8.3335081,3.2768316 8.63995,3.0835977 9.015625,3.0835977 c 0.375675,0 0.6821169,0.1932339 0.8506319,0.5363854 l 0.086868,0.1768919 0.00582,3.40625 c 0.0032,1.8734375 0.00672,3.434129 0.00781,3.468204 0.00139,0.04328 0.3622501,-0.297711 1.1973071,-1.1313971 1.335557,-1.3333663 1.332922,-1.3313344 1.726562,-1.3313344 0.373893,0 0.682573,0.1935459 0.848028,0.5317228 0.06767,0.1383063 0.08424,0.2162344 0.08413,0.3956422 -2.5e-4,0.4144288 0.08925,0.3085747 -2.191242,2.5916645 -1.630273,1.632125 -2.0856148,2.071163 -2.2096667,2.130543 -0.1822897,0.08726 -0.41269,0.116928 -0.6047884,0.07789 z"
       id="path821"
       inkscape:connector-curvature="0" />
    <path
       style="fill:#323232;stroke-width:0.03125"
       d="M 8.578125,14.924394 C 8.3297456,14.86675 8.132115,14.778731 7.9138475,14.628544 7.66625,14.458176 3.5696772,10.342335 3.43959,10.133242 3.3835975,10.043243 3.3010787,9.8674622 3.256215,9.7426166 3.1851906,9.5449722 3.1744656,9.4651222 3.17326,9.125 3.1720881,8.7946434 3.1834481,8.6990453 3.2468856,8.5053881 3.4363459,7.92702 3.9264756,7.4364922 4.5038841,7.2473694 c 0.3315418,-0.1085925 0.87944,-0.1085925 1.2109818,0 0.3214382,0.1052831 0.6209244,0.314934 1.0038841,0.7027547 L 7.046875,8.2824141 7.0625,5.9458944 7.078125,3.609375 7.1610803,3.3823834 C 7.3738344,2.800221 7.8419325,2.3397267 8.4101341,2.1536194 c 0.3315418,-0.1085924 0.87944,-0.1085924 1.2109818,0 0.5682021,0.1861073 1.0363001,0.6466016 1.2490541,1.228764 l 0.08296,0.2269916 0.01563,2.3365478 0.01563,2.3365478 0.3125,-0.3167056 c 0.367841,-0.3727906 0.670052,-0.5829206 0.988259,-0.6871456 0.330817,-0.108355 0.879507,-0.1085744 1.209478,-4.844e-4 0.578368,0.1894603 1.068896,0.67959 1.258019,1.2569984 0.06283,0.1918154 0.07549,0.2934147 0.07549,0.605491 0,0.4573184 -0.07408,0.7199659 -0.298579,1.0586156 -0.186883,0.281906 -4.237558,4.329075 -4.490054,4.486168 -0.3911411,0.243352 -1.0079298,0.344219 -1.461367,0.238985 z m 0.84375,-1.066224 c 0.1240519,-0.05938 0.579394,-0.498418 2.209667,-2.130543 2.280497,-2.2830898 2.190997,-2.1772358 2.191242,-2.5916645 3.13e-4,-0.52686 -0.402263,-0.927365 -0.932159,-0.927365 -0.39364,0 -0.391005,-0.00203 -1.726562,1.3313344 -0.835057,0.8336861 -1.1959139,1.1746791 -1.1973074,1.1313971 -0.0011,-0.03407 -0.00461,-1.5947665 -0.00781,-3.468204 L 9.953125,3.796875 9.8662569,3.6199831 C 9.6977419,3.2768316 9.3913,3.0835977 9.015625,3.0835977 c -0.375675,0 -0.6821169,0.1932339 -0.8506319,0.5363854 l -0.086868,0.1768919 -0.00582,3.40625 c -0.0032,1.8734375 -0.00672,3.434133 -0.00781,3.468211 C 8.0631006,10.714613 7.6973525,10.368737 6.8515625,9.5243094 5.4988838,8.1738087 5.5034613,8.1773475 5.109375,8.1773475 c -0.3738931,0 -0.6825731,0.1935459 -0.8480275,0.5317228 -0.067667,0.1383063 -0.084238,0.2162344 -0.084132,0.3956422 2.5e-4,0.4143366 -0.089137,0.3085797 2.1912425,2.5926805 1.1293794,1.131222 2.1117307,2.091473 2.1830035,2.133891 0.2550443,0.15179 0.5879875,0.162074 0.8704134,0.02689 z"
       id="path819"
       inkscape:connector-curvature="0" />
  </g>
</svg>
