<?xml version="1.0" encoding="UTF-8" standalone="no"?>
<!-- Created with Inkscape (http://www.inkscape.org/) -->

<svg
   xmlns:dc="http://purl.org/dc/elements/1.1/"
   xmlns:cc="http://creativecommons.org/ns#"
   xmlns:rdf="http://www.w3.org/1999/02/22-rdf-syntax-ns#"
   xmlns:svg="http://www.w3.org/2000/svg"
   xmlns="http://www.w3.org/2000/svg"
   xmlns:sodipodi="http://sodipodi.sourceforge.net/DTD/sodipodi-0.dtd"
   xmlns:inkscape="http://www.inkscape.org/namespaces/inkscape"
   version="1.1"
   id="svg2"
   width="16"
   height="16"
   viewBox="0 0 16 16"
   sodipodi:docname="RADIUS.svg"
   inkscape:version="0.92.4 (5da689c313, 2019-01-14)">
  <metadata
     id="metadata8">
    <rdf:RDF>
      <cc:Work
         rdf:about="">
        <dc:format>image/svg+xml</dc:format>
        <dc:type
           rdf:resource="http://purl.org/dc/dcmitype/StillImage" />
        <dc:title></dc:title>
      </cc:Work>
    </rdf:RDF>
  </metadata>
  <defs
     id="defs6" />
  <sodipodi:namedview
     pagecolor="#ffffff"
     bordercolor="#666666"
     borderopacity="1"
     objecttolerance="10"
     gridtolerance="10"
     guidetolerance="10"
     inkscape:pageopacity="0"
     inkscape:pageshadow="2"
     inkscape:window-width="1108"
     inkscape:window-height="756"
     id="namedview4"
     showgrid="false"
     inkscape:zoom="14.75"
     inkscape:cx="8"
     inkscape:cy="8"
     inkscape:window-x="0"
     inkscape:window-y="0"
     inkscape:window-maximized="0"
     inkscape:current-layer="svg2" />
  <g
     id="RADIUS">
    <path
       style="fill:#ffffff;stroke-width:0.03125"
       d="M 0,8 V 0 h 8 8 v 8 8 H 8 0 Z m 9.234375,7.409887 c 1.307585,-0.224235 2.458183,-0.736795 3.453076,-1.538252 0.385636,-0.310656 1.050687,-0.995119 1.332897,-1.3718 0.733654,-0.979249 1.199262,-2.090798 1.407115,-3.35921 0.0802,-0.4894316 0.0802,-1.7918184 0,-2.28125 C 15.21961,5.5909634 14.754002,4.4794141 14.020348,3.5001647 13.738138,3.1234842 13.073087,2.4390213 12.687451,2.1283649 11.673813,1.3118082 10.494122,0.79433234 9.140625,0.57253706 c -0.4894316,-0.0802023 -1.7918184,-0.0802023 -2.28125,0 C 5.5058784,0.79433234 4.3261869,1.3118082 3.3125488,2.1283649 2.9269135,2.4390213 2.2618616,3.1234842 1.9796525,3.5001647 1.2459985,4.4794141 0.78038959,5.5909634 0.57253706,6.859375 c -0.0802023,0.4894316 -0.0802023,1.7918184 0,2.28125 0.22179528,1.353497 0.73927114,2.533188 1.55582784,3.546826 0.3106564,0.385636 0.9951193,1.050687 1.3717998,1.332897 1.0955928,0.820818 2.3782881,1.314176 3.7967103,1.460315 0.06875,0.0071 0.4484375,0.0085 0.84375,0.0032 0.5478163,-0.0074 0.8079328,-0.02497 1.09375,-0.07398 z m -1.5,-1.929557 C 7.4237822,13.449156 6.9267053,13.363796 6.640625,13.292506 5.6344231,13.041766 4.5635156,12.385609 3.9056431,11.616753 3.1676475,10.754257 2.7574693,9.8559125 2.5752996,8.703125 2.4135492,7.6795531 2.6329338,6.4723534 3.1630831,5.46875 3.6920472,4.46739 4.46739,3.6920472 5.46875,3.1630831 6.0394741,2.8616005 6.5752609,2.6893329 7.296875,2.5752996 c 1.0218853,-0.1614838 2.2312338,0.057791 3.230415,0.5857279 0.318481,0.1682753 0.75396,0.4513191 0.75396,0.4900431 0,0.017218 -2.8076147,2.8419444 -2.8854831,2.9030691 -0.00509,0.004 -0.095547,-0.00794 -0.2010156,-0.026513 C 7.9333278,6.4815778 7.6232853,6.5362912 7.3386034,6.6787119 6.7687862,6.9637797 6.4290762,7.612995 6.5316178,8.2209303 6.6386494,8.8554853 7.1445147,9.3613506 7.7790697,9.4683822 8.387005,9.5709238 9.0362203,9.2312138 9.3212881,8.6613966 9.4575491,8.3890269 9.5176997,8.0666784 9.4766856,7.8286206 L 9.4474447,7.6588981 10.893335,6.2130156 c 0.79524,-0.7952353 1.458645,-1.4501337 1.474233,-1.4553297 0.03795,-0.01265 0.286263,0.3644938 0.474126,0.7201169 0.296511,0.5612934 0.469579,1.1012931 0.583006,1.8190722 0.161751,1.0235719 -0.05763,2.2307716 -0.587783,3.234375 -0.625397,1.183913 -1.630698,2.080848 -2.883792,2.572936 -0.6286384,0.246866 -1.6989562,0.428316 -2.21875,0.376144 z"
       id="path827"
       inkscape:connector-curvature="0" />
    <path
       style="fill:#fefefe;stroke-width:0.03125"
       d="M 7.421875,14.980816 C 7.0751806,14.944671 6.6021466,14.861504 6.2687884,14.778087 3.8136863,14.163732 1.8362677,12.186314 1.2219136,9.7312116 1.0560565,9.0684081 1.0169904,8.7383737 1.0169904,8 c 0,-0.7383738 0.039066,-1.0684081 0.2049232,-1.7312116 C 1.8362677,3.8136863 3.8136863,1.8362677 6.2687884,1.2219136 6.9315919,1.0560565 7.2616262,1.0169904 8,1.0169904 c 0.7383738,0 1.0684081,0.039066 1.7312116,0.2049232 C 12.186314,1.8362677 14.163732,3.8136863 14.778087,6.2687884 14.943943,6.9315919 14.98301,7.2616263 14.98301,8 c 0,0.7383738 -0.03907,1.0684081 -0.204923,1.7312116 -0.488529,1.9522744 -1.860391,3.6475534 -3.668712,4.5336124 -0.997415,0.488723 -1.8652369,0.698733 -2.96875,0.718428 -0.3265625,0.0058 -0.65,0.0047 -0.71875,-0.0024 z m 1.5,-1.073674 C 9.3863991,13.830074 9.8038159,13.718657 10.1714,13.573619 13.496406,12.26167 14.947906,8.3821553 13.294505,5.2263009 11.760708,2.2987341 8.1537175,1.1717764 5.2263009,2.7054947 2.2987341,4.2392919 1.1717764,7.8462825 2.7054947,10.773699 c 0.7783312,1.485605 2.1667072,2.593154 3.7683615,3.006133 0.3164279,0.08159 0.7821947,0.164051 1.1355188,0.201037 0.2498147,0.02615 0.9463066,-0.01297 1.3125,-0.07373 z M 9.3976359,7.5027056 C 9.2658463,7.1316434 8.9665484,6.8144316 8.5822138,6.6384772 L 8.4007953,6.5554212 9.85551,5.1007066 11.310224,3.6459922 11.5848,3.8795169 c 0.244055,0.2075675 0.686978,0.6799553 0.758586,0.8090503 0.02048,0.036927 -0.308679,0.3831906 -1.432592,1.5070225 L 9.4516084,7.6546694 Z"
       id="path825"
       inkscape:connector-curvature="0" />
    <path
       style="fill:#98cbfe;stroke-width:0.03125"
       d="M 7.296875,15.480663 C 5.8784528,15.334524 4.5957575,14.841166 3.5001647,14.020348 3.1234842,13.738138 2.4390213,13.073087 2.1283649,12.687451 1.3118082,11.673813 0.79433234,10.494122 0.57253706,9.140625 c -0.0802023,-0.4894316 -0.0802023,-1.7918184 0,-2.28125 C 0.78038959,5.5909634 1.2459985,4.4794141 1.9796525,3.5001647 2.2618616,3.1234842 2.9269135,2.4390213 3.3125488,2.1283649 4.3261869,1.3118082 5.5058784,0.79433234 6.859375,0.57253706 c 0.4894316,-0.0802023 1.7918184,-0.0802023 2.28125,0 1.353497,0.22179528 2.533188,0.73927114 3.546826,1.55582784 0.385636,0.3106564 1.050687,0.9951193 1.332897,1.3717998 0.733654,0.9792494 1.199262,2.0907987 1.407115,3.3592103 0.0802,0.4894316 0.0802,1.7918184 0,2.28125 -0.207853,1.268412 -0.673461,2.379961 -1.407115,3.35921 -0.28221,0.376681 -0.947261,1.061144 -1.332897,1.3718 -0.994893,0.801457 -2.145491,1.314017 -3.453076,1.538252 -0.2858172,0.04901 -0.5459337,0.06661 -1.09375,0.07398 -0.3953125,0.0053 -0.775,0.0039 -0.84375,-0.0032 z m 1.8125,-0.571614 c 0.7544931,-0.127973 1.314626,-0.308399 2,-0.644225 1.808321,-0.886059 3.180183,-2.581338 3.668712,-4.5336124 C 14.943943,9.0684081 14.98301,8.7383738 14.98301,8 14.98301,7.2616262 14.94394,6.9315919 14.778087,6.2687884 14.163732,3.8136863 12.186314,1.8362677 9.7312116,1.2219136 9.0684081,1.0560565 8.7383737,1.0169904 8,1.0169904 c -0.7383738,0 -1.0684081,0.039066 -1.7312116,0.2049232 C 3.8136863,1.8362677 1.8362677,3.8136863 1.2219136,6.2687884 1.0560565,6.9315919 1.0169904,7.2616262 1.0169904,8 c 0,0.7383738 0.039066,1.0684081 0.2049232,1.7312116 0.6143541,2.4551024 2.5917727,4.4325204 5.0468748,5.0468754 0.3333582,0.08342 0.8063922,0.166584 1.1530866,0.202729 0.3141512,0.03275 1.3246525,-0.01022 1.6875,-0.07177 z m -1.5,-0.92818 C 6.9761462,13.914583 6.3034125,13.761034 5.8332312,13.575472 2.5032699,12.26127 1.0509255,8.3843863 2.7054947,5.2263009 4.2392919,2.2987341 7.8462825,1.1717764 10.773699,2.7054947 12.742693,3.7370809 13.981164,5.7814019 13.981164,8 c 0,1.4054959 -0.493173,2.75643 -1.400269,3.835715 -1.115837,1.327652 -2.6999844,2.093255 -4.44027,2.145941 -0.2234375,0.0068 -0.4625,0.0064 -0.53125,-7.87e-4 z m 1.125,-0.563217 c 1.1043447,-0.167949 2.027374,-0.59171 2.882378,-1.323295 0.768856,-0.657873 1.425013,-1.72878 1.675753,-2.734982 0.245134,-0.9837075 0.245134,-1.7350425 0,-2.71875 C 12.982543,5.3967678 12.178119,4.2487303 11.09375,3.5026616 9.9739113,2.732189 8.5322656,2.3800765 7.296875,2.5752996 6.1440875,2.7574693 5.2457428,3.1676475 4.3832469,3.9056431 3.6143906,4.5635156 2.958234,5.6344231 2.7074941,6.640625 c -0.2451345,0.9837075 -0.2451345,1.7350425 0,2.71875 0.2507399,1.006202 0.9068965,2.077109 1.6757528,2.734982 0.9613675,0.822595 1.994265,1.249785 3.3511281,1.385973 0.1907703,0.01915 0.6520822,-0.0098 1,-0.06268 z"
       id="path823"
       inkscape:connector-curvature="0" />
    <path
       style="fill:#fe9832;stroke-width:0.03125"
       d="M 7.7150712,8.927505 C 7.4516097,8.8289338 7.2537081,8.6533563 7.1177544,8.3975688 7.0610578,8.2908981 7.0475531,8.2147459 7.04725,8 7.0469188,7.7641584 7.0571697,7.7157916 7.13869,7.5686391 7.2431194,7.3801319 7.4045456,7.2228131 7.6001544,7.1189159 7.7095453,7.0608131 7.7835134,7.047625 8,7.047625 c 0.2164866,0 0.2904547,0.013188 0.3998456,0.071291 C 8.5954544,7.2228131 8.7568806,7.3801319 8.86131,7.5686391 8.9428303,7.7157916 8.9530828,7.7641584 8.95275,8 8.9524375,8.21601 8.9390591,8.2906956 8.8810841,8.3998456 8.6985531,8.7434991 8.4047194,8.9408453 8.0489741,8.9587116 7.9130566,8.9655375 7.7846481,8.9535366 7.7150712,8.927505 Z"
       id="path821"
       inkscape:connector-curvature="0" />
    <path
       style="fill:#323232;stroke-width:0.03125"
       d="M 7.6957081,9.4526841 C 6.9375322,9.2879641 6.406005,8.5237866 6.5316178,7.7790697 6.6674231,6.9739247 7.4438894,6.4005528 8.2209303,6.5316178 9.0260753,6.6674231 9.5994472,7.4438894 9.4683822,8.2209303 9.3652066,8.8326256 8.8934891,9.3261356 8.2896816,9.454085 8.0349522,9.5080634 7.9496834,9.5078622 7.6957081,9.452685 Z M 8.4334603,8.8585575 C 8.6193575,8.7573797 8.7769697,8.5958631 8.8810841,8.3998456 8.9390591,8.2906956 8.952445,8.21601 8.95275,8 8.9530813,7.7641584 8.9428303,7.7157916 8.86131,7.5686391 8.7568806,7.3801319 8.5954544,7.2228131 8.3998456,7.1189159 8.2904547,7.0608131 8.2164866,7.047625 8,7.047625 7.7835134,7.047625 7.7095453,7.060813 7.6001544,7.118916 7.4045456,7.2228131 7.2431194,7.3801319 7.13869,7.5686391 7.0571697,7.7157916 7.0469172,7.7641584 7.04725,8 7.0475625,8.2147459 7.061058,8.2908981 7.117754,8.3975688 7.3231371,8.7839831 7.6466327,8.9789178 8.0489737,8.9587116 8.218549,8.9501916 8.307814,8.9269426 8.4334603,8.8585575 Z"
       id="path819"
       inkscape:connector-curvature="0" />
  </g>
</svg>
