<?xml version="1.0" encoding="UTF-8" standalone="no"?>
<!-- Created with Inkscape (http://www.inkscape.org/) -->

<svg
   xmlns:dc="http://purl.org/dc/elements/1.1/"
   xmlns:cc="http://creativecommons.org/ns#"
   xmlns:rdf="http://www.w3.org/1999/02/22-rdf-syntax-ns#"
   xmlns:svg="http://www.w3.org/2000/svg"
   xmlns="http://www.w3.org/2000/svg"
   xmlns:sodipodi="http://sodipodi.sourceforge.net/DTD/sodipodi-0.dtd"
   xmlns:inkscape="http://www.inkscape.org/namespaces/inkscape"
   version="1.1"
   id="svg2"
   width="16"
   height="16"
   viewBox="0 0 16 16"
   sodipodi:docname="RIGID_APPLY_TRANS.svg"
   inkscape:version="0.92.4 (5da689c313, 2019-01-14)">
  <metadata
     id="metadata8">
    <rdf:RDF>
      <cc:Work
         rdf:about="">
        <dc:format>image/svg+xml</dc:format>
        <dc:type
           rdf:resource="http://purl.org/dc/dcmitype/StillImage" />
        <dc:title></dc:title>
      </cc:Work>
    </rdf:RDF>
  </metadata>
  <defs
     id="defs6" />
  <sodipodi:namedview
     pagecolor="#ffffff"
     bordercolor="#666666"
     borderopacity="1"
     objecttolerance="10"
     gridtolerance="10"
     guidetolerance="10"
     inkscape:pageopacity="0"
     inkscape:pageshadow="2"
     inkscape:window-width="811"
     inkscape:window-height="530"
     id="namedview4"
     showgrid="false"
     inkscape:zoom="14.75"
     inkscape:cx="8"
     inkscape:cy="8"
     inkscape:window-x="0"
     inkscape:window-y="0"
     inkscape:window-maximized="0"
     inkscape:current-layer="svg2" />
  <g
     id="RIGID_APPLY_TRANS">
    <path
       style="fill:#ffffff;stroke-width:0.03125"
       d="M 0,8 V 0 h 8 8 v 8 8 H 8 0 Z m 10.761478,6.748365 c 0.573023,-0.609127 0.967196,-1.402717 1.150476,-2.316256 0.101888,-0.507846 0.101888,-1.356372 0,-1.864218 C 11.782442,9.9223522 11.547028,9.3322088 11.219182,8.8312256 L 11.05761,8.5843263 12.743809,6.8937256 14.430008,5.203125 14.503925,4.984375 C 14.606646,4.6803841 14.606797,4.2871475 14.504306,3.9897347 14.417109,3.7366997 14.159417,3.4376825 13.91294,3.3035328 13.540016,3.1005623 13.081453,3.07631 12.70722,3.239765 c -0.172712,0.075436 -0.31388,0.2053406 -1.432274,1.3180003 -0.682373,0.6788741 -1.235249,1.20727 -1.228614,1.1742131 0.0066,-0.033057 0.02843,-0.1513862 0.04842,-0.262954 0.03409,-0.1901935 0.0503,-0.2175588 0.259864,-0.4385625 0.265275,-0.2797606 0.42915,-0.5485382 0.542537,-0.8898369 0.07214,-0.2171569 0.08305,-0.3013172 0.08305,-0.640625 0,-0.3393078 -0.01091,-0.423468 -0.08305,-0.640625 C 10.782748,2.5150073 10.619488,2.2488578 10.345385,1.9598734 9.9481734,1.5410972 9.4729406,1.2689259 8.8453303,1.1007755 8.5789553,1.0294078 8.4880925,1.0208128 8,1.0208128 c -0.4880925,0 -0.5789553,0.00859 -0.8453303,0.079963 C 6.5270594,1.2689259 6.0518266,1.5410972 5.6546153,1.9598734 5.3805125,2.2488578 5.2172519,2.5150073 5.1028453,2.859375 5.0307009,3.076532 5.01979,3.1606922 5.01979,3.5 c 0,0.3393078 0.010911,0.4234681 0.083055,0.640625 0.1136275,0.3420234 0.2773569,0.61018 0.5446809,0.8920816 l 0.2256516,0.2379562 0.053916,0.2943559 c 0.068599,0.3745172 0.076763,1.3850391 0.014496,1.7943563 -0.042076,0.2765925 -0.045181,0.28332 -0.1875,0.40625 -0.079593,0.06875 -0.2772259,0.2560572 -0.4391837,0.4162381 L 5.0204384,8.4731009 4.2524066,7.7082231 C 3.7766656,7.2344359 3.4341931,6.9183909 3.3525156,6.8777737 2.7631473,6.58469 2.1129292,6.7055259 1.6955535,7.1857016 1.4248319,7.4971572 1.3670458,7.6664784 1.3803213,8.109375 c 0.016936,0.5650306 -0.023002,0.5097156 1.3989158,1.9375 l 1.2137423,1.21875 0.017047,0.421875 c 0.047706,1.180613 0.4852578,2.270798 1.2284962,3.060865 L 5.4752428,15 H 8 10.524757 Z"
       id="path829"
       inkscape:connector-curvature="0" />
    <path
       style="fill:#fefefe;stroke-width:0.03125"
       d="M 5.5269234,14.304688 C 5.0458266,13.727707 4.7399981,13.078536 4.5947881,12.326074 4.4800903,11.731723 4.46627,11.735568 4.9609375,12.224215 c 0.2363281,0.233451 0.4894734,0.454583 0.5625453,0.491404 0.4084706,0.205829 0.8276047,0.205813 1.2608353,-6.2e-5 C 7.0510506,12.588812 7.06245,12.578439 8.3466769,11.293933 9.0581931,10.582276 9.6502928,10 9.6624541,10 c 0.035711,0 0.2004722,0.552983 0.2607056,0.875 0.1776963,0.949994 -0.077388,2.036126 -0.6735569,2.867957 l -0.1853247,0.258583 0.5063988,-0.0086 0.5063991,-0.0086 0.178877,-0.25 C 10.860507,12.889444 11.10424,11.80888 10.91186,10.826481 10.809644,10.304509 10.669554,9.9250853 10.438823,9.5452931 l -0.129578,-0.2132884 0.186597,-0.1865969 0.186597,-0.1865969 0.129943,0.2002819 c 0.689279,1.0623952 0.861669,2.4975302 0.448966,3.7376132 -0.16536,0.49687 -0.444902,0.996178 -0.788271,1.407982 L 10.310222,14.5 H 8 5.6897784 Z M 5.7831609,9.2362906 5.3953847,8.8475812 5.5452391,8.672175 C 5.6276587,8.5757016 5.8120947,8.3990444 5.9550966,8.2796031 6.0980984,8.1601622 6.2237822,8.0483894 6.2343944,8.0312187 6.2464178,8.0117644 6.5502513,8 7.0406813,8 H 7.8276744 L 7.015625,8.8125 C 6.5689978,9.259375 6.1962322,9.625 6.1872566,9.625 6.1782809,9.625 5.9964378,9.4500806 5.7831609,9.2362906 Z M 6.5,6.5 V 6 H 7.25 8 V 6.5 7 H 7.25 6.5 Z M 9,6.4133294 V 6 H 9.25 9.5 v 0.1647956 c 0,0.16445 -5.25e-4,0.1653169 -0.25,0.4133294 L 9,6.8266587 Z M 6.1192216,4.7890625 C 5.4424191,4.1001422 5.3310597,3.3166241 5.8067962,2.5908591 6.4467047,1.6146406 7.9330391,1.2330207 9.1317781,1.7371623 9.5778047,1.9247431 9.9559063,2.2288474 10.193204,2.5908591 10.66894,3.3166241 10.557581,4.1001422 9.8807784,4.7890625 L 9.6735513,5 H 9.4149006 C 9.2579341,5 9.15625,4.98732 9.15625,4.9677462 c 0,-0.0983 0.1209028,-0.2881671 0.3070791,-0.4822396 C 10.04219,3.882095 10.118511,3.3979328 9.7255953,2.8217638 9.3549856,2.2783051 8.4417978,1.9321368 7.671875,2.0432461 l -0.1875,0.027059 0.1875,0.052498 C 8.0896641,2.2397799 8.5261672,2.5293242 8.7255953,2.8217638 9.1220187,3.4030756 9.04461,3.8730888 8.4487031,4.5030047 8.2974122,4.6629303 8.21145,4.7827391 8.1852484,4.8701922 L 8.1463569,5 H 7.2364028 6.3264488 Z"
       id="path827"
       inkscape:connector-curvature="0" />
    <path
       style="fill:#989898;stroke-width:0.03125"
       d="m 9.2496028,13.742957 c 0.6127025,-0.8549 0.8555492,-1.929125 0.6609097,-2.92352 -0.037942,-0.19384 -0.1083278,-0.463615 -0.1564134,-0.5995 L 9.6666703,9.9728734 9.9871881,9.6534466 10.307706,9.3340197 l 0.09779,0.1533025 c 0.237718,0.3726803 0.402388,0.8081708 0.506369,1.3391588 0.19238,0.982399 -0.05135,2.062963 -0.655908,2.907894 l -0.178876,0.25 -0.5063991,0.0086 -0.5063988,0.0086 z M 8,6.5 V 6 H 8.5 9 v 0.4123525 c 0,0.4049203 -0.00151,0.4139325 -0.083972,0.5 C 8.8322597,6.9997884 8.8310522,7 8.4160284,7 H 8 Z M 8.15625,4.9677462 c 0,-0.0983 0.1209028,-0.2881671 0.3070791,-0.4822396 C 9.04219,3.882095 9.1185112,3.3979328 8.7255953,2.8217638 8.5261672,2.5293242 8.0896641,2.2397799 7.671875,2.1228029 l -0.1875,-0.052498 0.1875,-0.027059 C 8.4417978,1.9321368 9.3549856,2.2783051 9.7255953,2.8217638 10.122019,3.4030756 10.04461,3.8730888 9.4487031,4.5030047 9.2974122,4.6629303 9.21145,4.7827391 9.1852484,4.8701922 L 9.1463569,5 H 8.6513034 C 8.3318306,5 8.15625,4.9885606 8.15625,4.9677462 Z"
       id="path825"
       inkscape:connector-curvature="0" />
    <path
       style="fill:#fe0032;stroke-width:0.03125"
       d="m 6.3440641,7.8659431 c 0.032615,-0.073731 0.07523,-0.2670906 0.094701,-0.4296875 0.019471,-0.1625969 0.041482,-0.3272712 0.048914,-0.3659431 L 6.5011906,7 h 1.163101 1.1631009 L 8.328125,7.5 7.8288575,8 H 7.0568109 6.2847644 Z M 6.4865687,5.9296875 C 6.4785269,5.8910156 6.4627241,5.7611566 6.4514516,5.6411122 6.4401794,5.5210675 6.406795,5.3277081 6.3772644,5.2114247 L 6.3235725,5 H 8 9.6764275 L 9.6227356,5.2114247 C 9.593205,5.3277081 9.5598206,5.5210675 9.5485484,5.6411122 9.5372759,5.7611566 9.5214731,5.8910156 9.5134313,5.9296875 L 9.4988094,6 H 8 6.5011906 Z"
       id="path823"
       inkscape:connector-curvature="0" />
    <path
       style="fill:#00fe00;stroke-width:0.03125"
       d="M 5.967205,12.332793 C 5.889012,12.311513 5.7765116,12.263753 5.717205,12.22667 5.6578984,12.189587 4.7979259,11.346462 3.8061547,10.35306 2.4303943,8.9750378 1.9879334,8.5135394 1.9396535,8.40625 1.8306468,8.1640116 1.8663175,7.7542181 2.0088136,7.6117222 2.0320993,7.5884362 2.0854571,7.5291634 2.1273865,7.4800047 2.2497401,7.336555 2.484199,7.2382119 2.7026551,7.23871 3.0676273,7.2395412 3.0550161,7.22923 4.6952725,8.8681338 L 6.18742,10.359051 9.4765225,7.0731197 C 11.836774,4.7151434 12.804983,3.7675759 12.904994,3.7177394 c 0.206497,-0.1029 0.472782,-0.098044 0.699241,0.012752 0.390349,0.1909803 0.553053,0.5828281 0.429811,1.0351337 -0.04071,0.1493863 -0.2006,0.3145634 -3.639873,3.7601119 -3.2418911,3.247806 -3.6173664,3.614026 -3.800423,3.706747 -0.2416359,0.122391 -0.4329147,0.153015 -0.626545,0.100309 z"
       id="path821"
       inkscape:connector-curvature="0" />
    <path
       style="fill:#323232;stroke-width:0.03125"
       d="M 5.2385225,14.748365 C 4.4952841,13.958298 4.0577319,12.868113 4.0100262,11.6875 L 3.9929794,11.265625 2.7792371,10.046875 C 1.3573192,8.6190906 1.3972577,8.6744056 1.3803213,8.109375 1.3670458,7.6664784 1.4248319,7.4971572 1.6955535,7.1857016 2.1129292,6.7055259 2.7631473,6.58469 3.3525156,6.8777737 c 0.081678,0.040617 0.42415,0.3566622 0.899891,0.8304494 L 5.0204384,8.4731009 5.3149066,8.1818631 C 5.4768644,8.0216822 5.6744969,7.834375 5.7540903,7.765625 5.8964091,7.642695 5.8995141,7.6359675 5.9415903,7.359375 6.0038572,6.9500578 5.9956934,5.9395359 5.9270941,5.5650187 L 5.8731778,5.2706628 5.6475262,5.0327066 C 5.3802022,4.750805 5.2164728,4.4826484 5.1028453,4.140625 5.0307009,3.9234681 5.01979,3.8393078 5.01979,3.5 5.01979,3.1606922 5.030701,3.076532 5.102845,2.859375 5.2172519,2.5150073 5.3805125,2.2488578 5.6546153,1.9598734 6.0518266,1.5410972 6.5270594,1.2689259 7.1546697,1.1007755 7.4210447,1.0294078 7.5119075,1.0208128 8,1.0208128 c 0.4880925,0 0.5789553,0.00859 0.8453303,0.079963 0.6276103,0.1681504 1.1028431,0.4403217 1.5000547,0.8590979 0.274103,0.2889844 0.437363,0.5551339 0.55177,0.8995016 0.07214,0.217157 0.08305,0.3013172 0.08305,0.640625 0,0.3393078 -0.01091,0.4234681 -0.08305,0.640625 -0.113387,0.3412987 -0.277262,0.6100762 -0.542537,0.8898369 -0.209561,0.2210037 -0.225775,0.248369 -0.259864,0.4385625 -0.02,0.1115678 -0.04179,0.2298972 -0.04842,0.262954 -0.0066,0.033057 0.546241,-0.495339 1.228614,-1.1742131 1.118394,-1.1126597 1.259562,-1.2425644 1.432274,-1.3180003 0.374233,-0.163455 0.832796,-0.1392027 1.20572,0.063768 0.246477,0.1341497 0.504169,0.4331669 0.591366,0.6862019 0.10249,0.2974128 0.102339,0.6906494 -3.81e-4,0.9946403 l -0.07392,0.21875 -1.686199,1.6906006 -1.686199,1.6906007 0.161572,0.2468993 c 0.327846,0.5009832 0.56326,1.0911266 0.692772,1.7366659 0.101888,0.507846 0.101888,1.356372 0,1.864217 -0.18328,0.913539 -0.577453,1.707129 -1.150477,2.316256 L 10.524757,15 H 8 5.4752428 Z m 5.2345545,-0.443677 c 0.343369,-0.411804 0.622911,-0.911112 0.788271,-1.407982 0.412699,-1.24007 0.240312,-2.67522 -0.448949,-3.7375857 L 10.682475,8.9588659 8.8490497,10.786362 C 7.0239128,12.605596 7.0144903,12.614376 6.7646125,12.728627 6.3457331,12.920151 5.9205359,12.915695 5.5234828,12.715619 5.4504109,12.678798 5.1972656,12.457666 4.9609375,12.224215 4.46627,11.735568 4.4800903,11.731723 4.5947881,12.326074 c 0.14521,0.752462 0.4510385,1.401633 0.9321353,1.978614 L 5.6897784,14.5 H 8 10.310222 Z M 6.59375,12.232484 C 6.7768066,12.139763 7.1522819,11.773543 10.394173,8.5257369 13.833446,5.0801884 13.993341,4.9150112 14.034046,4.765625 14.157288,4.3133194 13.994584,3.9214716 13.604235,3.7304913 13.377776,3.6196956 13.111491,3.6148394 12.904994,3.7177394 12.804983,3.7675759 11.836774,4.7151434 9.4765225,7.0731197 L 6.18742,10.359051 4.6952725,8.8681338 C 3.0550161,7.2292297 3.0676273,7.2395422 2.7026551,7.23871 2.484199,7.2382131 2.2497401,7.336555 2.1273865,7.4800047 2.0854571,7.5291634 2.0320993,7.5884362 2.0088136,7.6117222 1.8663175,7.7542181 1.8306468,8.1640116 1.9396535,8.40625 c 0.04828,0.1072894 0.4907408,0.5687878 1.8665012,1.94681 0.9917712,0.993402 1.8517437,1.836527 1.9110503,1.87361 0.2718597,0.16999 0.5487878,0.171827 0.876545,0.0058 z M 7.8514531,7.9766731 9.5,6.3283462 9.50025,6.1876106 C 9.5006375,5.9744853 9.55622,5.5127253 9.6130325,5.2506372 9.6608878,5.0298709 9.6754384,5.0047247 9.8752294,4.7975122 10.559919,4.0873884 10.670614,3.3191863 10.193198,2.5908591 9.5532953,1.6146406 8.0669609,1.2330207 6.8682219,1.7371623 6.4221953,1.9247431 6.0440937,2.2288474 5.8067962,2.5908591 5.32938,3.3191863 5.4400744,4.0873884 6.1247644,4.7975122 6.3245553,5.0047247 6.3391059,5.0298709 6.3869612,5.2506372 6.5315147,5.9174916 6.5392219,7.0085778 6.4041062,7.67776 6.3596662,7.8978553 6.2811122,8.0036559 5.9624253,8.2726388 5.8128528,8.3988831 5.62408,8.5798906 5.54293,8.6748775 L 5.3953847,8.8475813 5.7831609,9.2362906 C 5.9964378,9.4500806 6.17813,9.625 6.1869216,9.625 c 0.00879,0 0.7578306,-0.7417472 1.6645315,-1.6483269 z"
       id="path819"
       inkscape:connector-curvature="0" />
  </g>
</svg>
